<svg
  xmlns="http://www.w3.org/2000/svg"
  width="20"
  height="20"
  viewBox="0 0 20 20"
  fill="none"
>
  <path
    d="M2.3839 1.90291C4.02461 0.539893 5.64051 0.99461 6.58673 1.49444C7.02474 1.72581 6.96597 2.3107 6.53551 2.55594C5.83406 2.95557 4.86829 3.5433 4.19446 4.10308C3.52062 4.66287 2.76456 5.50554 2.24208 6.12269C1.92145 6.50141 1.33866 6.44948 1.1948 5.97376C0.884019 4.94604 0.743176 3.26592 2.3839 1.90291Z"
    fill="currentColor"
  />
  <path
    d="M17.6161 1.90291C15.9754 0.539893 14.3595 0.99461 13.4133 1.49444C12.9753 1.72581 13.034 2.3107 13.4645 2.55594C14.1659 2.95557 15.1317 3.5433 15.8055 4.10308C16.4794 4.66287 17.2354 5.50554 17.7579 6.12269C18.0785 6.50141 18.6613 6.44948 18.8052 5.97376C19.116 4.94604 19.2568 3.26592 17.6161 1.90291Z"
    fill="currentColor"
  />
  <path
    d="M9.47694 6.73799C9.8964 6.73799 10.2364 7.07964 10.2364 7.5011V10.5906L11.842 11.3972C12.2171 11.5857 12.3692 12.0441 12.1816 12.421C11.994 12.798 11.5378 12.9508 11.1626 12.7623L9.15393 11.7532C9.113 11.7338 9.07406 11.7109 9.03751 11.6848C8.86591 11.5623 8.74715 11.37 8.72229 11.149C8.71839 11.1151 8.71675 11.0808 8.71744 11.0464V7.5011C8.71744 7.07964 9.05748 6.73799 9.47694 6.73799Z"
    fill="currentColor"
  />
  <path
    fill-rule="evenodd"
    clip-rule="evenodd"
    d="M10.0103 3.1768C5.67584 3.1768 2.16208 6.70728 2.16208 11.0623C2.16208 12.9772 2.84135 14.7326 3.97099 16.0986L2.36164 17.7033C2.06415 18 2.06415 18.4809 2.36164 18.7775C2.65914 19.0742 3.14147 19.0742 3.43896 18.7775L5.04869 17.1725C6.40083 18.2822 8.12818 18.9479 10.0103 18.9479C11.9348 18.9479 13.6976 18.2518 15.0628 17.0966L16.7486 18.7775C17.0461 19.0742 17.5284 19.0742 17.8259 18.7775C18.1234 18.4809 18.1234 18 17.8259 17.7033L16.1244 16.0067C17.2091 14.6543 17.8585 12.9345 17.8585 11.0623C17.8585 6.70728 14.3447 3.1768 10.0103 3.1768ZM3.68108 11.0623C3.68108 7.55019 6.51476 4.70303 10.0103 4.70303C13.5058 4.70303 16.3395 7.55019 16.3395 11.0623C16.3395 14.5745 13.5058 17.4217 10.0103 17.4217C6.51476 17.4217 3.68108 14.5745 3.68108 11.0623Z"
    fill="currentColor"
  />
</svg>
