<svg
  xmlns="http://www.w3.org/2000/svg"
  width="20"
  height="20"
  viewBox="0 0 20 20"
  fill="none"
>
  <path
    d="M5.57729 2.38015C5.93082 2.17559 6.05162 1.72308 5.84712 1.36945C5.64262 1.01581 5.19025 0.894972 4.83672 1.09954C3.28733 1.99608 1.99578 3.28802 1.09951 4.83787C0.895004 5.19151 1.01581 5.64401 1.36934 5.84858C1.72286 6.05314 2.17523 5.9323 2.37974 5.57867C3.14643 4.25288 4.2519 3.14708 5.57729 2.38015Z"
    fill="currentColor"
  />
  <path
    d="M14.1529 1.36945C13.9484 1.72308 14.0692 2.17559 14.4227 2.38015C15.7481 3.14708 16.8536 4.25288 17.6203 5.57867C17.8248 5.9323 18.2771 6.05314 18.6307 5.84858C18.9842 5.64401 19.105 5.19151 18.9005 4.83787C18.0042 3.28802 16.7127 1.99608 15.1633 1.09954C14.8098 0.894972 14.3574 1.01581 14.1529 1.36945Z"
    fill="currentColor"
  />
  <path
    d="M10.7857 7.00867C10.7857 6.60013 10.4546 6.26895 10.0462 6.26895C9.6378 6.26895 9.30672 6.60013 9.30672 7.00867V11.2913C9.30672 11.5715 9.46497 11.8276 9.7155 11.9529L12.2843 13.2377C12.6496 13.4204 13.0938 13.2723 13.2764 12.9069C13.4591 12.5415 13.311 12.0971 12.9457 11.9144L10.7857 10.8341V7.00867Z"
    fill="currentColor"
  />
  <path
    fill-rule="evenodd"
    clip-rule="evenodd"
    d="M10.0462 2.23299C5.55367 2.23299 1.91174 5.87602 1.91174 10.3699C1.91174 12.412 2.66374 14.2783 3.90584 15.707C3.88346 15.7247 3.86186 15.7439 3.84119 15.7646L1.86919 17.7372C1.5804 18.0261 1.5804 18.4945 1.86919 18.7833C2.15798 19.0722 2.62621 19.0722 2.915 18.7833L4.887 16.8107C4.91485 16.7829 4.94002 16.7533 4.96251 16.7225C6.35507 17.839 8.12268 18.5069 10.0462 18.5069C11.9185 18.5069 13.643 17.8741 15.0178 16.8108L16.9898 18.7833C17.2786 19.0722 17.7468 19.0722 18.0356 18.7833C18.3244 18.4945 18.3244 18.0261 18.0356 17.7372L16.1019 15.8029C17.3944 14.3624 18.1807 12.458 18.1807 10.3699C18.1807 5.87602 14.5388 2.23299 10.0462 2.23299ZM3.39073 10.3699C3.39073 6.69309 6.3705 3.71243 10.0462 3.71243C13.7219 3.71243 16.7017 6.69309 16.7017 10.3699C16.7017 14.0468 13.7219 17.0274 10.0462 17.0274C6.3705 17.0274 3.39073 14.0468 3.39073 10.3699Z"
    fill="currentColor"
  />
</svg>
