<svg
  xmlns="http://www.w3.org/2000/svg"
  width="20"
  height="20"
  viewBox="0 0 20 20"
  fill="none"
>
  <path
    fill-rule="evenodd"
    clip-rule="evenodd"
    d="M7.18311 5.58325H12.8881C14.2478 5.58323 15.3494 5.58321 16.2006 5.70595C17.0843 5.83338 17.8406 6.1107 18.3829 6.7804C18.9252 7.4501 19.0424 8.25133 18.9879 9.14782C18.9354 10.0114 18.7128 11.0967 18.4381 12.4364L18.187 13.6609C17.9602 14.7672 17.7762 15.6645 17.5412 16.3656C17.2964 17.0961 16.9707 17.6973 16.4097 18.1571C15.8488 18.617 15.1977 18.8165 14.4371 18.9101C13.7072 19 12.7966 18.9999 11.6738 18.9999H8.42633C7.32854 18.9999 6.43765 19 5.72206 18.913C4.97616 18.8223 4.33652 18.6293 3.78093 18.1846C3.22533 17.7399 2.89455 17.1563 2.63902 16.4454C2.39387 15.7635 2.19356 14.8901 1.94673 13.8139L1.66081 12.5674C1.3483 11.205 1.0954 10.1025 1.02219 9.2245C0.946273 8.31391 1.0484 7.49689 1.59155 6.80996C2.1347 6.12304 2.90301 5.8392 3.80198 5.70887C4.6688 5.58321 5.79342 5.58323 7.18311 5.58325ZM4.01462 7.19354C3.28637 7.29912 2.96127 7.48709 2.75831 7.74379C2.55534 8.00048 2.44639 8.36145 2.50789 9.09912C2.57106 9.85674 2.79784 10.8537 3.12704 12.2889L3.38887 13.4304C3.64885 14.5639 3.83011 15.3485 4.04105 15.9353C4.24512 16.5029 4.44973 16.8031 4.7091 17.0107C4.96847 17.2183 5.30522 17.3514 5.90088 17.4238C6.51664 17.4986 7.31723 17.4999 8.47343 17.4999H11.6259C12.8081 17.4999 13.6272 17.4986 14.256 17.4212C14.8645 17.3463 15.2065 17.2086 15.468 16.9943C15.7295 16.7799 15.9326 16.4707 16.1285 15.8863C16.3309 15.2823 16.4977 14.4755 16.7365 13.3107L16.9659 12.192C17.2555 10.7797 17.4545 9.79985 17.4998 9.05624C17.5437 8.33302 17.4305 7.97906 17.2271 7.72787C17.0236 7.47669 16.702 7.29357 15.9891 7.19078C15.2561 7.08508 14.2621 7.08325 12.8288 7.08325H7.24311C5.77908 7.08325 4.76257 7.0851 4.01462 7.19354Z"
    fill="currentColor"
  />
  <path
    fill-rule="evenodd"
    clip-rule="evenodd"
    d="M7.30397 10.5265C6.61426 11.0312 6.2683 11.6646 6.2683 12.2917C6.2683 12.9189 6.61426 13.5523 7.30397 14.057C7.99295 14.5611 8.98156 14.896 10.107 14.896C11.2324 14.896 12.221 14.5611 12.91 14.057C13.5997 13.5523 13.9457 12.9189 13.9457 12.2917C13.9457 11.6646 13.5997 11.0312 12.91 10.5265C12.221 10.0224 11.2324 9.6875 10.107 9.6875C8.98156 9.6875 7.99295 10.0224 7.30397 10.5265ZM6.42706 9.31338C7.39721 8.60352 8.70067 8.1875 10.107 8.1875C11.5133 8.1875 12.8168 8.60352 13.7869 9.31338C14.7563 10.0227 15.4366 11.0664 15.4366 12.2917C15.4366 13.5171 14.7563 14.5608 13.7869 15.2701C12.8168 15.98 11.5133 16.396 10.107 16.396C8.70067 16.396 7.39721 15.98 6.42706 15.2701C5.45763 14.5608 4.77739 13.5171 4.77739 12.2917C4.77739 11.0664 5.45763 10.0227 6.42706 9.31338Z"
    fill="currentColor"
  />
  <path
    d="M11.0181 12.3771C11.0181 12.8277 10.6102 13.1929 10.107 13.1929C9.60382 13.1929 9.1959 12.8277 9.1959 12.3771C9.1959 11.9265 9.60382 11.5613 10.107 11.5613C10.6102 11.5613 11.0181 11.9265 11.0181 12.3771Z"
    fill="currentColor"
  />
  <path
    fill-rule="evenodd"
    clip-rule="evenodd"
    d="M2.07256 4.04175C2.07256 3.62753 2.40632 3.29175 2.81802 3.29175L17.3958 3.29175C17.8075 3.29175 18.1413 3.62754 18.1413 4.04175C18.1413 4.45596 17.8075 4.79175 17.3958 4.79175L2.81802 4.79175C2.40632 4.79175 2.07256 4.45596 2.07256 4.04175Z"
    fill="currentColor"
  />
  <path
    fill-rule="evenodd"
    clip-rule="evenodd"
    d="M2.57087 1.75C2.57087 1.33579 2.90462 1 3.31633 1L16.9403 1C17.352 1 17.6858 1.33579 17.6858 1.75C17.6858 2.16421 17.352 2.5 16.9403 2.5L3.31633 2.5C2.90462 2.5 2.57087 2.16421 2.57087 1.75Z"
    fill="currentColor"
  />
</svg>
