<svg
  xmlns="http://www.w3.org/2000/svg"
  width="20"
  height="20"
  viewBox="0 0 20 20"
  fill="none"
>
  <path
    fill-rule="evenodd"
    clip-rule="evenodd"
    d="M19.75 10.75C19.75 11.1642 19.4142 11.5 19 11.5C18.9999 11.9963 18.9982 12.4141 18.9698 12.7592C18.9383 13.1417 18.8703 13.5007 18.6961 13.8398C18.4336 14.3509 18.0175 14.7669 17.5064 15.0295C17.1673 15.2036 16.8083 15.2717 16.4258 15.3031C16.0591 15.3333 15.6101 15.3333 15.0722 15.3333L15.0109 15.3333C14.473 15.3333 14.0241 15.3333 13.6574 15.3031C13.2749 15.2717 12.9159 15.2036 12.5768 15.0295C12.0657 14.7669 11.6496 14.3509 11.3871 13.8398C11.2129 13.5007 11.1449 13.1417 11.1134 12.7592C11.085 12.4141 11.0833 11.9963 11.0833 11.5L8.91667 11.5L8.91667 15.0723C8.91668 15.6102 8.91669 16.0592 8.88652 16.4259C8.85506 16.8084 8.78701 17.1674 8.61284 17.5065C8.3503 18.0176 7.93426 18.4336 7.42315 18.6962C7.08406 18.8703 6.72506 18.9384 6.34256 18.9699C5.97586 19 5.52688 19 4.98898 19L4.92768 19C4.38978 19 3.94081 19 3.57411 18.9699C3.19161 18.9384 2.83261 18.8703 2.49351 18.6962C1.9824 18.4336 1.56637 18.0176 1.30383 17.5065C1.12966 17.1674 1.06161 16.8084 1.03015 16.4259C0.999982 16.0592 0.99999 15.6103 0.999999 15.0724L1 11.5C0.585786 11.5 0.25 11.1642 0.25 10.75C0.25 10.3358 0.585786 10 1 10L18.9999 10C19.4141 10 19.75 10.3358 19.75 10.75ZM17.4748 12.6362C17.4975 12.3604 17.4997 12.0083 17.4999 11.5L12.5833 11.5C12.5835 12.0082 12.5857 12.3604 12.6083 12.6362C12.6321 12.9252 12.6746 13.0633 12.7214 13.1544C12.8407 13.3867 13.0298 13.5759 13.2621 13.6952C13.3532 13.742 13.4913 13.7844 13.7803 13.8082C14.0782 13.8327 14.4651 13.8333 15.0416 13.8333C15.618 13.8333 16.005 13.8327 16.3028 13.8082C16.5919 13.7844 16.73 13.742 16.821 13.6952C17.0534 13.5759 17.2425 13.3867 17.3618 13.1544C17.4086 13.0633 17.451 12.9252 17.4748 12.6362ZM7.41667 15.0417L7.41667 11.5L2.5 11.5L2.5 15.0417C2.5 15.6181 2.50059 16.005 2.5251 16.3029C2.54887 16.592 2.59131 16.73 2.6381 16.8211C2.75744 17.0535 2.94655 17.2426 3.17887 17.3619C3.26997 17.4087 3.40805 17.4511 3.69708 17.4749C3.99497 17.4994 4.38188 17.5 4.95833 17.5C5.53478 17.5 5.9217 17.4994 6.21958 17.4749C6.50862 17.4511 6.6467 17.4087 6.7378 17.3619C6.97012 17.2426 7.15923 17.0535 7.27856 16.8211C7.32535 16.73 7.36779 16.592 7.39157 16.3029C7.41608 16.005 7.41667 15.6181 7.41667 15.0417Z"
    fill="currentColor"
  />
  <path
    d="M18.9999 8.5C18.9998 8.0037 18.9982 7.58579 18.9698 7.24073C18.9383 6.85824 18.8703 6.49923 18.6961 6.16014C18.4336 5.64903 18.0175 5.23299 17.5064 4.97046C17.1673 4.79628 16.8083 4.72824 16.4258 4.69677C16.0591 4.66661 15.6101 4.66662 15.0722 4.66663L15.0109 4.66663C14.473 4.66662 14.0241 4.66661 13.6574 4.69677C13.2749 4.72824 12.9159 4.79628 12.5768 4.97046C12.0657 5.23299 11.6496 5.64903 11.3871 6.16014C11.2129 6.49923 11.1449 6.85824 11.1134 7.24073C11.085 7.58579 11.0833 8.0037 11.0833 8.5L12.5833 8.5C12.5835 7.99171 12.5857 7.63954 12.6083 7.36371C12.6321 7.07467 12.6746 6.93659 12.7214 6.8455C12.8407 6.61317 13.0298 6.42407 13.2621 6.30473C13.3532 6.25794 13.4913 6.2155 13.7803 6.19172C14.0782 6.16722 14.4651 6.16663 15.0416 6.16663C15.618 6.16663 16.005 6.16722 16.3028 6.19172C16.5919 6.2155 16.73 6.25794 16.821 6.30473C17.0534 6.42407 17.2425 6.61317 17.3618 6.8455C17.4086 6.93659 17.451 7.07467 17.4748 7.36371C17.4975 7.63954 17.4997 7.99171 17.4999 8.5L18.9999 8.5Z"
    fill="currentColor"
  />
  <path
    d="M8.91667 8.5L8.91667 4.92769C8.91668 4.3898 8.91669 3.9408 8.88652 3.57411C8.85506 3.19161 8.78701 2.83261 8.61284 2.49351C8.3503 1.9824 7.93426 1.56637 7.42315 1.30383C7.08406 1.12966 6.72506 1.06161 6.34256 1.03015C5.97586 0.999981 5.5269 0.999989 4.989 1L4.92768 1C4.38979 0.999989 3.94081 0.999981 3.57411 1.03015C3.19161 1.06161 2.83261 1.12966 2.49352 1.30383C1.9824 1.56637 1.56637 1.9824 1.30383 2.49351C1.12966 2.83261 1.06161 3.19161 1.03015 3.57411C0.999983 3.94079 0.99999 4.38973 1 4.9276L1 8.5L2.5 8.5L2.5 4.95833C2.5 4.38189 2.50059 3.99497 2.5251 3.69708C2.54887 3.40805 2.59131 3.26997 2.63811 3.17887C2.75744 2.94655 2.94655 2.75744 3.17887 2.63811C3.26997 2.59131 3.40805 2.54887 3.69708 2.5251C3.99497 2.50059 4.38189 2.5 4.95833 2.5C5.53478 2.5 5.9217 2.50059 6.21958 2.5251C6.50862 2.54887 6.6467 2.59131 6.7378 2.63811C6.97012 2.75744 7.15923 2.94655 7.27856 3.17887C7.32535 3.26997 7.36779 3.40805 7.39157 3.69708C7.41608 3.99497 7.41667 4.38189 7.41667 4.95833L7.41667 8.5L8.91667 8.5Z"
    fill="currentColor"
  />
</svg>
