<svg width="20" height="20" viewBox="0 0 20 20" fill="currentcolor" xmlns="http://www.w3.org/2000/svg">
  <path fill-rule="evenodd" d="M19 15.0723L19 15.011C19 14.4731 19 14.0241 18.9699 13.6574C18.9384 13.2749 18.8703 12.9159 18.6962 12.5768C18.4336 12.0657 18.0176 11.6497 17.5065 11.3872C17.1674 11.213 16.8084 11.1449 16.4259 11.1135C16.0592 11.0833 15.6102 11.0833 15.0723 11.0833L4.92768 11.0833C4.38978 11.0833 3.94081 11.0833 3.5741 11.1135C3.19161 11.1449 2.8326 11.213 2.49351 11.3872C1.9824 11.6497 1.56637 12.0657 1.30383 12.5768C1.12966 12.9159 1.06161 13.2749 1.03015 13.6574C0.999979 14.0241 0.999988 14.4731 1 15.011L1 15.0723C0.999988 15.6102 0.999979 16.0592 1.03015 16.4259C1.06161 16.8084 1.12966 17.1674 1.30383 17.5065C1.56637 18.0176 1.9824 18.4336 2.49351 18.6962C2.8326 18.8703 3.19161 18.9384 3.5741 18.9699C3.94081 19 4.38978 19 4.92768 19L15.0723 19C15.6102 19 16.0592 19 16.4259 18.9699C16.8084 18.9384 17.1674 18.8703 17.5065 18.6962C18.0176 18.4336 18.4336 18.0176 18.6962 17.5065C18.8703 17.1674 18.9384 16.8084 18.9699 16.4259C19 16.0592 19 15.6102 19 15.0723ZM17.4749 16.3029C17.4511 16.592 17.4087 16.73 17.3619 16.8211C17.2426 17.0535 17.0535 17.2426 16.8211 17.3619C16.73 17.4087 16.592 17.4511 16.3029 17.4749C16.005 17.4994 15.6181 17.5 15.0417 17.5L4.95833 17.5C4.38188 17.5 3.99497 17.4994 3.69708 17.4749C3.40805 17.4511 3.26997 17.4087 3.17887 17.3619C2.94654 17.2426 2.75744 17.0535 2.63811 16.8211C2.59131 16.73 2.54887 16.592 2.52509 16.3029C2.50059 16.005 2.5 15.6181 2.5 15.0417C2.5 14.4652 2.50059 14.0783 2.52509 13.7804C2.54887 13.4914 2.59131 13.3533 2.63811 13.2622C2.75744 13.0299 2.94654 12.8408 3.17887 12.7214C3.26996 12.6746 3.40805 12.6322 3.69708 12.6084C3.99497 12.5839 4.38188 12.5833 4.95833 12.5833L15.0417 12.5833C15.6181 12.5833 16.005 12.5839 16.3029 12.6084C16.592 12.6322 16.73 12.6746 16.8211 12.7214C17.0535 12.8408 17.2426 13.0299 17.3619 13.2622C17.4087 13.3533 17.4511 13.4914 17.4749 13.7804C17.4994 14.0783 17.5 14.4652 17.5 15.0417C17.5 15.6181 17.4994 16.005 17.4749 16.3029Z" fill="currentcolor" />
  <path fill-rule="evenodd" d="M11.6667 4.98894L11.6667 4.92764C11.6668 4.38974 11.6668 3.94077 11.6366 3.57406C11.6051 3.19157 11.5371 2.83256 11.3629 2.49347C11.1004 1.98236 10.6843 1.56632 10.1732 1.30379C9.83414 1.12961 9.47514 1.06157 9.09264 1.0301C8.72594 0.999938 8.27696 0.999947 7.73906 0.999959L4.92777 0.999959C4.38986 0.999947 3.94089 0.99994 3.57419 1.0301C3.19169 1.06157 2.83269 1.12961 2.49359 1.30379C1.98248 1.56632 1.56644 1.98236 1.30391 2.49347C1.12973 2.83256 1.06169 3.19157 1.03023 3.57406C1.00006 3.94077 1.00007 4.38974 1.00008 4.92764L1.00008 4.98894C1.00007 5.52684 1.00006 5.97582 1.03023 6.34252C1.06169 6.72501 1.12973 7.08402 1.30391 7.42311C1.56644 7.93422 1.98248 8.35026 2.49359 8.61279C2.83269 8.78697 3.19169 8.85502 3.57419 8.88648C3.94089 8.91665 4.38986 8.91664 4.92776 8.91663L7.73906 8.91663C8.27696 8.91664 8.72594 8.91665 9.09264 8.88648C9.47514 8.85502 9.83414 8.78697 10.1732 8.61279C10.6843 8.35026 11.1004 7.93422 11.3629 7.42311C11.5371 7.08402 11.6051 6.72501 11.6366 6.34252C11.6668 5.97582 11.6668 5.52684 11.6667 4.98894ZM10.1417 6.21954C10.1179 6.50858 10.0754 6.64666 10.0286 6.73776C9.90931 6.97008 9.7202 7.15919 9.48788 7.27852C9.39678 7.32531 9.2587 7.36775 8.96966 7.39153C8.67178 7.41603 8.28486 7.41663 7.70841 7.41663L4.95841 7.41663C4.38196 7.41663 3.99505 7.41603 3.69716 7.39153C3.40813 7.36775 3.27005 7.32531 3.17895 7.27852C2.94663 7.15919 2.75752 6.97008 2.63818 6.73776C2.59139 6.64666 2.54895 6.50858 2.52518 6.21954C2.50067 5.92166 2.50008 5.53474 2.50008 4.95829C2.50008 4.38184 2.50067 3.99493 2.52518 3.69704C2.54895 3.40801 2.59139 3.26992 2.63818 3.17883C2.75752 2.94651 2.94663 2.7574 3.17895 2.63806C3.27005 2.59127 3.40813 2.54883 3.69716 2.52506C3.99505 2.50055 4.38196 2.49996 4.95841 2.49996L7.70841 2.49996C8.28486 2.49996 8.67178 2.50055 8.96966 2.52506C9.2587 2.54883 9.39678 2.59127 9.48788 2.63806C9.7202 2.7574 9.90931 2.94651 10.0286 3.17883C10.0754 3.26992 10.1179 3.40801 10.1417 3.69704C10.1662 3.99493 10.1667 4.38184 10.1667 4.95829C10.1667 5.53474 10.1662 5.92166 10.1417 6.21954Z" fill="currentcolor" />
</svg>
