<svg
  xmlns="http://www.w3.org/2000/svg"
  width="20"
  height="20"
  viewBox="0 0 20 20"
  fill="none"
>
  <path
    fill-rule="evenodd"
    clip-rule="evenodd"
    d="M4.92768 1H4.98899C5.52689 0.99999 5.97586 0.999981 6.34256 1.03015C6.72506 1.06161 7.08406 1.12966 7.42315 1.30383C7.93426 1.56637 8.3503 1.9824 8.61284 2.49351C8.78701 2.83261 8.85506 3.19161 8.88652 3.57411C8.91669 3.94081 8.91668 4.38978 8.91667 4.92769V15.0723C8.91668 15.6102 8.91669 16.0592 8.88652 16.4259C8.85506 16.8084 8.78701 17.1674 8.61284 17.5065C8.3503 18.0176 7.93426 18.4336 7.42315 18.6962C7.08406 18.8703 6.72506 18.9384 6.34256 18.9699C5.97586 19 5.52689 19 4.98898 19H4.92768C4.38978 19 3.94081 19 3.57411 18.9699C3.19161 18.9384 2.83261 18.8703 2.49351 18.6962C1.9824 18.4336 1.56637 18.0176 1.30383 17.5065C1.12966 17.1674 1.06161 16.8084 1.03015 16.4259C0.999981 16.0592 0.99999 15.6102 1 15.0723V4.92768C0.99999 4.38978 0.999981 3.94081 1.03015 3.57411C1.06161 3.19161 1.12966 2.83261 1.30383 2.49351C1.56637 1.9824 1.9824 1.56637 2.49351 1.30383C2.83261 1.12966 3.19161 1.06161 3.57411 1.03015C3.94081 0.999981 4.38978 0.99999 4.92768 1ZM3.69708 2.5251C3.40805 2.54887 3.26997 2.59131 3.17887 2.63811C2.94655 2.75744 2.75744 2.94655 2.63811 3.17887C2.59131 3.26997 2.54887 3.40805 2.5251 3.69708C2.50059 3.99497 2.5 4.38189 2.5 4.95833V15.0417C2.5 15.6181 2.50059 16.005 2.5251 16.3029C2.54887 16.592 2.59131 16.73 2.63811 16.8211C2.75744 17.0535 2.94655 17.2426 3.17887 17.3619C3.26997 17.4087 3.40805 17.4511 3.69708 17.4749C3.99497 17.4994 4.38189 17.5 4.95833 17.5C5.53478 17.5 5.9217 17.4994 6.21958 17.4749C6.50862 17.4511 6.6467 17.4087 6.7378 17.3619C6.97012 17.2426 7.15923 17.0535 7.27856 16.8211C7.32535 16.73 7.36779 16.592 7.39157 16.3029C7.41608 16.005 7.41667 15.6181 7.41667 15.0417V4.95833C7.41667 4.38189 7.41608 3.99497 7.39157 3.69708C7.36779 3.40805 7.32535 3.26997 7.27856 3.17887C7.15923 2.94655 6.97012 2.75744 6.7378 2.63811C6.6467 2.59131 6.50862 2.54887 6.21958 2.5251C5.9217 2.50059 5.53478 2.5 4.95833 2.5C4.38189 2.5 3.99497 2.50059 3.69708 2.5251Z"
    fill="currentColor"
  />
  <path
    fill-rule="evenodd"
    clip-rule="evenodd"
    d="M15.0111 8.33325H15.0724C15.6103 8.33324 16.0592 8.33323 16.4259 8.3634C16.8084 8.39486 17.1674 8.46291 17.5065 8.63708C18.0176 8.89962 18.4337 9.31566 18.6962 9.82677C18.8704 10.1659 18.9384 10.5249 18.9699 10.9074C19.0001 11.2741 19.0001 11.723 19 12.2609V15.0722C19.0001 15.6101 19.0001 16.0591 18.9699 16.4258C18.9384 16.8083 18.8704 17.1673 18.6962 17.5064C18.4337 18.0175 18.0176 18.4336 17.5065 18.6961C17.1674 18.8703 16.8084 18.9383 16.4259 18.9698C16.0592 18.9999 15.6103 18.9999 15.0724 18.9999H15.0111C14.4732 18.9999 14.0242 18.9999 13.6575 18.9698C13.275 18.9383 12.916 18.8703 12.5769 18.6961C12.0658 18.4336 11.6497 18.0175 11.3872 17.5064C11.213 17.1673 11.145 16.8083 11.1135 16.4258C11.0834 16.0591 11.0834 15.6101 11.0834 15.0722V12.2609C11.0834 11.723 11.0834 11.2741 11.1135 10.9074C11.145 10.5249 11.213 10.1659 11.3872 9.82677C11.6497 9.31566 12.0658 8.89962 12.5769 8.63708C12.916 8.46291 13.275 8.39486 13.6575 8.3634C14.0242 8.33323 14.4732 8.33324 15.0111 8.33325ZM13.7805 9.85835C13.4914 9.88213 13.3533 9.92457 13.2622 9.97136C13.0299 10.0907 12.8408 10.2798 12.7215 10.5121C12.6747 10.6032 12.6322 10.7413 12.6085 11.0303C12.584 11.3282 12.5834 11.7151 12.5834 12.2916V15.0416C12.5834 15.618 12.584 16.005 12.6085 16.3028C12.6322 16.5919 12.6747 16.73 12.7215 16.821C12.8408 17.0534 13.0299 17.2425 13.2622 17.3618C13.3533 17.4086 13.4914 17.451 13.7805 17.4748C14.0783 17.4993 14.4653 17.4999 15.0417 17.4999C15.6182 17.4999 16.0051 17.4993 16.303 17.4748C16.592 17.451 16.7301 17.4086 16.8212 17.3618C17.0535 17.2425 17.2426 17.0534 17.3619 16.821C17.4087 16.73 17.4512 16.5919 17.4749 16.3028C17.4995 16.005 17.5 15.618 17.5 15.0416V12.2916C17.5 11.7151 17.4995 11.3282 17.4749 11.0303C17.4512 10.7413 17.4087 10.6032 17.3619 10.5121C17.2426 10.2798 17.0535 10.0907 16.8212 9.97136C16.7301 9.92457 16.592 9.88213 16.303 9.85835C16.0051 9.83384 15.6182 9.83325 15.0417 9.83325C14.4653 9.83325 14.0783 9.83384 13.7805 9.85835Z"
    fill="currentColor"
  />
</svg>
