<svg
  xmlns="http://www.w3.org/2000/svg"
  width="20"
  height="20"
  viewBox="0 0 20 20"
  fill="none"
>
  <path
    fill-rule="evenodd"
    clip-rule="evenodd"
    d="M15.0719 19L15.0107 19C14.4737 19 14.0255 19 13.6595 18.97C13.2776 18.9387 12.9192 18.8709 12.5805 18.6975C12.0665 18.4343 11.6482 18.016 11.385 17.502C11.2116 17.1633 11.1439 16.8049 11.1125 16.423C11.0825 16.057 11.0825 15.6088 11.0825 15.0718L11.0825 7.67792C11.0825 7.14098 11.0825 6.69281 11.1125 6.32672C11.1439 5.94489 11.2116 5.58646 11.385 5.24776C11.6482 4.73373 12.0665 4.3155 12.5805 4.05229C12.9192 3.87886 13.2776 3.81111 13.6595 3.77978C14.0255 3.74975 14.4737 3.74976 15.0107 3.74977L15.0719 3.74977C15.6088 3.74976 16.057 3.74975 16.4231 3.77978C16.8049 3.81111 17.1633 3.87886 17.502 4.05229C18.016 4.3155 18.4343 4.73373 18.6975 5.24777C18.8709 5.58646 18.9387 5.94489 18.97 6.32673C19 6.69281 19 7.14098 19 7.67793L19 15.0718C19 15.6088 19 16.057 18.97 16.423C18.9387 16.8049 18.8709 17.1633 18.6975 17.502C18.4343 18.016 18.016 18.4343 17.502 18.6975C17.1633 18.8709 16.8049 18.9387 16.4231 18.97C16.057 19 15.6088 19 15.0719 19ZM16.3003 17.4736C16.5888 17.45 16.7267 17.4077 16.8177 17.3611C17.0514 17.2415 17.2415 17.0514 17.3611 16.8177C17.4077 16.7267 17.45 16.5888 17.4736 16.3003C17.498 16.0029 17.4986 15.6167 17.4986 15.0412L17.4986 7.70853C17.4986 7.1331 17.498 6.74688 17.4736 6.4495C17.45 6.16093 17.4077 6.02303 17.3611 5.93206C17.2415 5.69841 17.0514 5.5083 16.8177 5.38866C16.7267 5.34208 16.5888 5.29982 16.3003 5.27614C16.0029 5.25174 15.6167 5.25115 15.0413 5.25115C14.4658 5.25115 14.0796 5.25174 13.7822 5.27614C13.4937 5.29982 13.3558 5.34208 13.2648 5.38866C13.0311 5.5083 12.841 5.69841 12.7214 5.93206C12.6748 6.02303 12.6326 6.16093 12.6089 6.44949C12.5845 6.74688 12.5839 7.1331 12.5839 7.70852L12.5839 15.0412C12.5839 15.6167 12.5845 16.0029 12.6089 16.3003C12.6326 16.5888 12.6748 16.7267 12.7214 16.8177C12.841 17.0514 13.0311 17.2415 13.2648 17.3611C13.3558 17.4077 13.4937 17.45 13.7822 17.4736C14.0796 17.498 14.4658 17.4986 15.0413 17.4986C15.6167 17.4986 16.0029 17.498 16.3003 17.4736Z"
    fill="currentColor"
  />
  <path
    fill-rule="evenodd"
    clip-rule="evenodd"
    d="M4.98934 14.3807L4.92815 14.3807C4.39121 14.3808 3.94303 14.3808 3.57695 14.3507C3.19511 14.3194 2.83669 14.2517 2.49799 14.0782C1.98396 13.815 1.56573 13.3968 1.30252 12.8828C1.12909 12.5441 1.06135 12.1856 1.03002 11.8038C0.999982 11.4377 0.999989 10.9895 1 10.4526L1 7.64162C0.99999 7.10468 0.999982 6.6565 1.03002 6.29042C1.06135 5.90858 1.12909 5.55016 1.30252 5.21146C1.56573 4.69743 1.98396 4.2792 2.49799 4.01598C2.83669 3.84255 3.19512 3.77481 3.57695 3.74348C3.94303 3.71344 4.3912 3.71345 4.92814 3.71346L4.98935 3.71346C5.52629 3.71345 5.97446 3.71344 6.34054 3.74348C6.72238 3.77481 7.0808 3.84255 7.4195 4.01598C7.93353 4.2792 8.35176 4.69743 8.61497 5.21146C8.7884 5.55016 8.85615 5.90859 8.88747 6.29042C8.91751 6.65651 8.9175 7.10468 8.91749 7.64163L8.91749 10.4526C8.9175 10.9895 8.91751 11.4377 8.88747 11.8038C8.85615 12.1856 8.7884 12.5441 8.61497 12.8828C8.35176 13.3968 7.93353 13.815 7.4195 14.0782C7.0808 14.2517 6.72238 14.3194 6.34054 14.3507C5.97446 14.3808 5.52628 14.3808 4.98934 14.3807ZM6.21777 12.8544C6.50633 12.8307 6.64423 12.7884 6.7352 12.7419C6.96886 12.6222 7.15896 12.4321 7.2786 12.1985C7.32518 12.1075 7.36745 11.9696 7.39112 11.681C7.41552 11.3836 7.41611 10.9974 7.41611 10.422L7.41611 7.67222C7.41611 7.0968 7.41552 6.71057 7.39112 6.41319C7.36745 6.12463 7.32519 5.98673 7.2786 5.89576C7.15896 5.6621 6.96886 5.472 6.7352 5.35236C6.64423 5.30578 6.50633 5.26351 6.21777 5.23984C5.92039 5.21544 5.53417 5.21485 4.95875 5.21485C4.38333 5.21485 3.9971 5.21544 3.69972 5.23984C3.41116 5.26351 3.27326 5.30578 3.18229 5.35236C2.94863 5.472 2.75853 5.6621 2.63889 5.89576C2.59231 5.98673 2.55004 6.12463 2.52637 6.41319C2.50197 6.71057 2.50138 7.0968 2.50138 7.67222L2.50138 10.422C2.50138 10.9974 2.50197 11.3836 2.52637 11.681C2.55004 11.9696 2.59231 12.1075 2.63889 12.1985C2.75853 12.4321 2.94863 12.6222 3.18229 12.7419C3.27326 12.7884 3.41116 12.8307 3.69972 12.8544C3.9971 12.8788 4.38333 12.8794 4.95875 12.8794C5.53417 12.8794 5.92039 12.8788 6.21777 12.8544Z"
    fill="currentColor"
  />
  <path
    fill-rule="evenodd"
    clip-rule="evenodd"
    d="M19 1.75069C19 2.16529 18.6639 2.50138 18.2493 2.50138L1.75075 2.50138C1.33615 2.50138 1.00006 2.16529 1.00006 1.75069C1.00006 1.33609 1.33615 0.999998 1.75075 0.999998L18.2493 1C18.6639 1 19 1.3361 19 1.75069Z"
    fill="currentColor"
  />
</svg>
