<svg
  xmlns="http://www.w3.org/2000/svg"
  width="20"
  height="20"
  viewBox="0 0 20 20"
  fill="none"
>
  <path
    fill-rule="evenodd"
    clip-rule="evenodd"
    d="M19 4.92806C19 4.39116 19 3.94301 18.97 3.57695C18.9387 3.19511 18.8709 2.83669 18.6975 2.49799C18.4343 1.98396 18.016 1.56573 17.502 1.30252C17.1633 1.12909 16.8049 1.06134 16.423 1.03002C16.057 0.99998 15.6088 0.99999 15.0718 1L7.67792 1C7.14098 0.999989 6.69281 0.99998 6.32672 1.03002C5.94489 1.06134 5.58646 1.12909 5.24777 1.30252C4.73373 1.56573 4.3155 1.98396 4.05229 2.49799C3.87886 2.83669 3.81111 3.19511 3.77978 3.57695C3.74975 3.94302 3.74976 4.39118 3.74977 4.92809V4.98935C3.74976 5.52627 3.74975 5.97447 3.77978 6.34054C3.81111 6.72238 3.87886 7.0808 4.05229 7.4195C4.3155 7.93353 4.73373 8.35176 5.24777 8.61497C5.58646 8.7884 5.94489 8.85614 6.32672 8.88747C6.6928 8.91751 7.14097 8.9175 7.67791 8.91749H15.0718C15.6088 8.9175 16.057 8.91751 16.423 8.88747C16.8049 8.85614 17.1633 8.7884 17.502 8.61497C18.016 8.35176 18.4343 7.93353 18.6975 7.4195C18.8709 7.0808 18.9387 6.72238 18.97 6.34054C19 5.97448 19 5.52633 19 4.98943V4.92806ZM17.4736 6.21777C17.45 6.50633 17.4077 6.64423 17.3611 6.7352C17.2415 6.96886 17.0514 7.15896 16.8177 7.2786C16.7267 7.32518 16.5888 7.36745 16.3003 7.39112C16.0029 7.41552 15.6167 7.41611 15.0412 7.41611H7.70853C7.1331 7.41611 6.74688 7.41552 6.4495 7.39112C6.16093 7.36745 6.02303 7.32518 5.93206 7.2786C5.69841 7.15896 5.5083 6.96886 5.38866 6.7352C5.34208 6.64423 5.29982 6.50633 5.27614 6.21777C5.25174 5.92039 5.25115 5.53417 5.25115 4.95874C5.25115 4.38332 5.25174 3.9971 5.27614 3.69972C5.29982 3.41116 5.34208 3.27326 5.38866 3.18229C5.5083 2.94863 5.69841 2.75853 5.93206 2.63889C6.02303 2.59231 6.16093 2.55004 6.44949 2.52637C6.74688 2.50197 7.1331 2.50138 7.70852 2.50138L15.0412 2.50138C15.6167 2.50138 16.0029 2.50197 16.3003 2.52637C16.5888 2.55004 16.7267 2.59231 16.8177 2.63889C17.0514 2.75853 17.2415 2.94863 17.3611 3.18229C17.4077 3.27326 17.45 3.41116 17.4736 3.69972C17.498 3.9971 17.4986 4.38332 17.4986 4.95875C17.4986 5.53417 17.498 5.92039 17.4736 6.21777Z"
    fill="currentColor"
  />
  <path
    fill-rule="evenodd"
    clip-rule="evenodd"
    d="M14.3807 15.0719V15.0107C14.3808 14.4737 14.3808 14.0255 14.3507 13.6595C14.3194 13.2776 14.2517 12.9192 14.0782 12.5805C13.815 12.0665 13.3968 11.6482 12.8828 11.385C12.5441 11.2116 12.1856 11.1439 11.8038 11.1125C11.4377 11.0825 10.9895 11.0825 10.4526 11.0825H7.64162C7.10468 11.0825 6.65651 11.0825 6.29042 11.1125C5.90859 11.1439 5.55016 11.2116 5.21146 11.385C4.69743 11.6482 4.2792 12.0665 4.01599 12.5805C3.84255 12.9192 3.77481 13.2776 3.74348 13.6595C3.71345 14.0255 3.71346 14.4737 3.71347 15.0106V15.0719C3.71346 15.6088 3.71345 16.057 3.74348 16.4231C3.77481 16.8049 3.84255 17.1633 4.01599 17.502C4.2792 18.016 4.69743 18.4343 5.21146 18.6975C5.55016 18.8709 5.90859 18.9387 6.29042 18.97C6.65649 19 7.10464 19 7.64155 19H10.4526C10.9895 19 11.4377 19 11.8038 18.97C12.1856 18.9387 12.5441 18.8709 12.8828 18.6975C13.3968 18.4343 13.815 18.016 14.0782 17.502C14.2517 17.1633 14.3194 16.8049 14.3507 16.4231C14.3808 16.057 14.3808 15.6088 14.3807 15.0719ZM12.8544 16.3003C12.8307 16.5888 12.7884 16.7267 12.7419 16.8177C12.6222 17.0514 12.4321 17.2415 12.1985 17.3611C12.1075 17.4077 11.9696 17.45 11.681 17.4736C11.3836 17.498 10.9974 17.4986 10.422 17.4986H7.67222C7.0968 17.4986 6.71057 17.498 6.41319 17.4736C6.12463 17.45 5.98673 17.4077 5.89576 17.3611C5.66211 17.2415 5.472 17.0514 5.35236 16.8177C5.30578 16.7267 5.26351 16.5888 5.23984 16.3003C5.21544 16.0029 5.21485 15.6167 5.21485 15.0413C5.21485 14.4658 5.21544 14.0796 5.23984 13.7822C5.26351 13.4937 5.30578 13.3558 5.35236 13.2648C5.472 13.0311 5.66211 12.841 5.89576 12.7214C5.98673 12.6748 6.12463 12.6326 6.41319 12.6089C6.71058 12.5845 7.0968 12.5839 7.67222 12.5839H10.422C10.9974 12.5839 11.3836 12.5845 11.681 12.6089C11.9696 12.6326 12.1075 12.6748 12.1985 12.7214C12.4321 12.841 12.6222 13.0311 12.7419 13.2648C12.7884 13.3558 12.8307 13.4937 12.8544 13.7822C12.8788 14.0796 12.8794 14.4658 12.8794 15.0413C12.8794 15.6167 12.8788 16.0029 12.8544 16.3003Z"
    fill="currentColor"
  />
  <path
    d="M2.50138 18.2493C2.50138 18.6639 2.16529 19 1.75069 19C1.3361 19 1 18.6639 1 18.2493V1.75075C1 1.33615 1.3361 1.00006 1.75069 1.00006C2.16529 1.00006 2.50138 1.33615 2.50138 1.75075L2.50138 18.2493Z"
    fill="currentColor"
  />
</svg>
