<svg width="20" height="20" viewBox="0 0 20 20" fill="currentcolor" xmlns="http://www.w3.org/2000/svg">
  <path fill-rule="evenodd" d="M10.75 0.25C11.1642 0.25 11.5 0.585786 11.5 1C11.9963 1.00009 12.4141 1.00184 12.7592 1.03023C13.1417 1.06169 13.5007 1.12974 13.8398 1.30391C14.3509 1.56645 14.7669 1.98248 15.0295 2.49359C15.2036 2.83269 15.2717 3.19169 15.3031 3.57419C15.3333 3.94089 15.3333 4.38986 15.3333 4.92776V4.98906C15.3333 5.52697 15.3333 5.97594 15.3031 6.34264C15.2717 6.72514 15.2036 7.08414 15.0295 7.42323C14.7669 7.93434 14.3509 8.35038 13.8398 8.61292C13.5007 8.78709 13.1417 8.85514 12.7592 8.8866C12.4141 8.91499 11.9963 8.91665 11.5 8.91674V11.0833H15.0723C15.6102 11.0833 16.0592 11.0833 16.4259 11.1135C16.8084 11.1449 17.1674 11.213 17.5065 11.3872C18.0176 11.6497 18.4336 12.0657 18.6962 12.5768C18.8703 12.9159 18.9384 13.2749 18.9699 13.6574C19 14.0241 19 14.4731 19 15.011V15.0723C19 15.6102 19 16.0592 18.9699 16.4259C18.9384 16.8084 18.8703 17.1674 18.6962 17.5065C18.4336 18.0176 18.0176 18.4336 17.5065 18.6962C17.1674 18.8703 16.8084 18.9384 16.4259 18.9699C16.0592 19 15.6103 19 15.0724 19H11.5C11.5 19.4142 11.1642 19.75 10.75 19.75C10.3358 19.75 10 19.4142 10 19V1.00008C10 0.585867 10.3358 0.25 10.75 0.25ZM12.6362 2.52518C12.3604 2.50249 12.0083 2.5003 11.5 2.5001V7.41673C12.0083 7.41653 12.3604 7.41434 12.6362 7.39165C12.9252 7.36787 13.0633 7.32543 13.1544 7.27864C13.3867 7.15931 13.5759 6.9702 13.6952 6.73788C13.742 6.64678 13.7844 6.5087 13.8082 6.21966C13.8327 5.92178 13.8333 5.53486 13.8333 4.95841C13.8333 4.38197 13.8327 3.99505 13.8082 3.69716C13.7844 3.40813 13.742 3.27005 13.6952 3.17895C13.5759 2.94663 13.3867 2.75752 13.1544 2.63819C13.0633 2.59139 12.9252 2.54895 12.6362 2.52518ZM15.0417 12.5833H11.5V17.5H15.0417C15.6181 17.5 16.005 17.4994 16.3029 17.4749C16.592 17.4511 16.73 17.4087 16.8211 17.3619C17.0535 17.2426 17.2426 17.0535 17.3619 16.8211C17.4087 16.73 17.4511 16.592 17.4749 16.3029C17.4994 16.005 17.5 15.6181 17.5 15.0417C17.5 14.4652 17.4994 14.0783 17.4749 13.7804C17.4511 13.4914 17.4087 13.3533 17.3619 13.2622C17.2426 13.0299 17.0535 12.8408 16.8211 12.7214C16.73 12.6746 16.592 12.6322 16.3029 12.6084C16.005 12.5839 15.6181 12.5833 15.0417 12.5833Z" fill="currentcolor" />
  <path d="M8.5 1.00008C8.0037 1.00017 7.58579 1.00184 7.24073 1.03023C6.85824 1.06169 6.49923 1.12974 6.16014 1.30391C5.64903 1.56645 5.23299 1.98248 4.97046 2.49359C4.79628 2.83269 4.72824 3.19169 4.69677 3.57419C4.66661 3.94089 4.66662 4.38986 4.66663 4.92776V4.98907C4.66662 5.52697 4.66661 5.97594 4.69677 6.34264C4.72824 6.72514 4.79628 7.08414 4.97046 7.42323C5.23299 7.93434 5.64903 8.35038 6.16014 8.61292C6.49923 8.78709 6.85824 8.85514 7.24073 8.8866C7.58579 8.91499 8.0037 8.91665 8.5 8.91674V7.41673C7.99171 7.41653 7.63954 7.41434 7.36371 7.39165C7.07467 7.36787 6.93659 7.32543 6.8455 7.27864C6.61317 7.15931 6.42407 6.9702 6.30473 6.73788C6.25794 6.64678 6.2155 6.5087 6.19172 6.21966C6.16722 5.92178 6.16663 5.53486 6.16663 4.95841C6.16663 4.38197 6.16722 3.99505 6.19172 3.69716C6.2155 3.40813 6.25794 3.27005 6.30473 3.17895C6.42407 2.94663 6.61317 2.75752 6.8455 2.63819C6.93659 2.59139 7.07467 2.54895 7.36371 2.52518C7.63954 2.50249 7.99171 2.5003 8.5 2.5001V1.00008Z" fill="currentcolor" />
  <path d="M8.5 11.0833H4.92769C4.3898 11.0833 3.9408 11.0833 3.57411 11.1135C3.19161 11.1449 2.83261 11.213 2.49351 11.3872C1.9824 11.6497 1.56637 12.0657 1.30383 12.5768C1.12966 12.9159 1.06161 13.2749 1.03015 13.6574C0.999981 14.0241 0.99999 14.4731 1 15.011V15.0723C0.99999 15.6102 0.999981 16.0592 1.03015 16.4259C1.06161 16.8084 1.12966 17.1674 1.30383 17.5065C1.56637 18.0176 1.9824 18.4336 2.49351 18.6962C2.83261 18.8703 3.19161 18.9384 3.57411 18.9699C3.94079 19 4.38974 19 4.9276 19H8.5V17.5H4.95834C4.38189 17.5 3.99497 17.4994 3.69709 17.4749C3.40805 17.4511 3.26997 17.4087 3.17887 17.3619C2.94655 17.2426 2.75744 17.0535 2.63811 16.8211C2.59131 16.73 2.54887 16.592 2.5251 16.3029C2.50059 16.005 2.5 15.6181 2.5 15.0417C2.5 14.4652 2.50059 14.0783 2.5251 13.7804C2.54887 13.4914 2.59131 13.3533 2.63811 13.2622C2.75744 13.0299 2.94655 12.8408 3.17887 12.7214C3.26997 12.6746 3.40805 12.6322 3.69709 12.6084C3.99497 12.5839 4.38189 12.5833 4.95834 12.5833H8.5V11.0833Z" fill="currentcolor" />
</svg>
