<svg width="20" height="20" viewBox="0 0 20 20" fill="currentcolor" xmlns="http://www.w3.org/2000/svg">
  <path fill-rule="evenodd" d="M4.92815 1H4.98934C5.52628 0.99999 5.97446 0.999981 6.34054 1.03002C6.72238 1.06134 7.0808 1.12909 7.4195 1.30252C7.93353 1.56573 8.35176 1.98396 8.61497 2.498C8.7884 2.83669 8.85615 3.19512 8.88747 3.57696C8.91751 3.94304 8.9175 4.39121 8.91749 4.92815V12.3221C8.9175 12.859 8.91751 13.3072 8.88747 13.6733C8.85615 14.0551 8.7884 14.4135 8.61497 14.7522C8.35176 15.2663 7.93353 15.6845 7.4195 15.9477C7.0808 16.1211 6.72238 16.1889 6.34054 16.2202C5.97446 16.2503 5.52629 16.2502 4.98935 16.2502H4.92814C4.3912 16.2502 3.94303 16.2503 3.57695 16.2202C3.19511 16.1889 2.83669 16.1211 2.49799 15.9477C1.98396 15.6845 1.56573 15.2663 1.30252 14.7522C1.12909 14.4135 1.06134 14.0551 1.03002 13.6733C0.999981 13.3072 0.99999 12.859 1 12.3221V4.92816C0.99999 4.39122 0.999981 3.94304 1.03002 3.57696C1.06134 3.19512 1.12909 2.83669 1.30252 2.498C1.56573 1.98396 1.98396 1.56573 2.49799 1.30252C2.83669 1.12909 3.19511 1.06134 3.57695 1.03002C3.94303 0.999981 4.39121 0.99999 4.92815 1ZM3.69972 2.52637C3.41116 2.55005 3.27326 2.59231 3.18229 2.63889C2.94863 2.75854 2.75853 2.94864 2.63889 3.18229C2.59231 3.27327 2.55004 3.41116 2.52637 3.69973C2.50197 3.99711 2.50138 4.38333 2.50138 4.95876V12.2915C2.50138 12.8669 2.50197 13.2531 2.52637 13.5505C2.55004 13.8391 2.59231 13.977 2.63889 14.0679C2.75853 14.3016 2.94863 14.4917 3.18229 14.6113C3.27326 14.6579 3.41116 14.7002 3.69972 14.7239C3.9971 14.7483 4.38332 14.7488 4.95875 14.7488C5.53417 14.7488 5.92039 14.7483 6.21777 14.7239C6.50633 14.7002 6.64423 14.6579 6.7352 14.6113C6.96886 14.4917 7.15896 14.3016 7.2786 14.0679C7.32518 13.977 7.36745 13.8391 7.39112 13.5505C7.41552 13.2531 7.41611 12.8669 7.41611 12.2915V4.95876C7.41611 4.38334 7.41552 3.99711 7.39112 3.69973C7.36745 3.41116 7.32518 3.27327 7.2786 3.18229C7.15896 2.94864 6.96886 2.75854 6.7352 2.63889C6.64423 2.59231 6.50633 2.55005 6.21777 2.52637C5.92039 2.50197 5.53417 2.50139 4.95875 2.50139C4.38332 2.50139 3.9971 2.50197 3.69972 2.52637Z" fill="currentcolor" />
  <path fill-rule="evenodd" d="M15.0107 5.61925H15.0719C15.6088 5.61924 16.057 5.61923 16.4231 5.64927C16.8049 5.6806 17.1633 5.74834 17.502 5.92177C18.016 6.18499 18.4343 6.60321 18.6975 7.11725C18.8709 7.45595 18.9387 7.81437 18.97 8.19621C19 8.56229 19 9.01046 19 9.5474V12.3584C19 12.8953 19 13.3435 18.97 13.7096C18.9387 14.0914 18.8709 14.4498 18.6975 14.7885C18.4343 15.3026 18.016 15.7208 17.502 15.984C17.1633 16.1574 16.8049 16.2252 16.4231 16.2565C16.057 16.2866 15.6088 16.2865 15.0719 16.2865H15.0106C14.4737 16.2865 14.0255 16.2866 13.6595 16.2565C13.2776 16.2252 12.9192 16.1574 12.5805 15.984C12.0665 15.7208 11.6482 15.3026 11.385 14.7885C11.2116 14.4498 11.1439 14.0914 11.1125 13.7096C11.0825 13.3435 11.0825 12.8953 11.0825 12.3584V9.54742C11.0825 9.01047 11.0825 8.56229 11.1125 8.19621C11.1439 7.81437 11.2116 7.45595 11.385 7.11725C11.6482 6.60321 12.0665 6.18499 12.5805 5.92177C12.9192 5.74834 13.2776 5.6806 13.6595 5.64927C14.0255 5.61923 14.4737 5.61924 15.0107 5.61925ZM13.7822 7.14562C13.4937 7.1693 13.3558 7.21156 13.2648 7.25815C13.0311 7.37779 12.841 7.56789 12.7214 7.80154C12.6748 7.89252 12.6326 8.03042 12.6089 8.31898C12.5845 8.61636 12.5839 9.00259 12.5839 9.57801V12.3278C12.5839 12.9032 12.5845 13.2894 12.6089 13.5868C12.6326 13.8754 12.6748 14.0133 12.7214 14.1042C12.841 14.3379 13.0311 14.528 13.2648 14.6476C13.3558 14.6942 13.4937 14.7365 13.7822 14.7602C14.0796 14.7846 14.4658 14.7851 15.0413 14.7851C15.6167 14.7851 16.0029 14.7846 16.3003 14.7602C16.5888 14.7365 16.7267 14.6942 16.8177 14.6476C17.0514 14.528 17.2415 14.3379 17.3611 14.1042C17.4077 14.0133 17.45 13.8754 17.4736 13.5868C17.498 13.2894 17.4986 12.9032 17.4986 12.3278V9.57801C17.4986 9.00259 17.498 8.61636 17.4736 8.31898C17.45 8.03042 17.4077 7.89252 17.3611 7.80154C17.2415 7.56789 17.0514 7.37779 16.8177 7.25815C16.7267 7.21156 16.5888 7.1693 16.3003 7.14562C16.0029 7.12122 15.6167 7.12064 15.0413 7.12064C14.4658 7.12064 14.0796 7.12122 13.7822 7.14562Z" fill="currentcolor" />
  <path fill-rule="evenodd" d="M1 18.2493C1 17.8347 1.3361 17.4986 1.75069 17.4986H18.2493C18.6638 17.4986 18.9999 17.8347 18.9999 18.2493C18.9999 18.6639 18.6638 19 18.2493 19H1.75069C1.3361 19 1 18.6639 1 18.2493Z" fill="currentcolor" />
</svg>
