<svg
  xmlns="http://www.w3.org/2000/svg"
  width="20"
  height="20"
  viewBox="0 0 20 20"
  fill="none"
>
  <path
    fill-rule="evenodd"
    clip-rule="evenodd"
    d="M1 4.92806C0.99999 4.39116 0.999983 3.94301 1.03002 3.57695C1.06135 3.19511 1.12909 2.83669 1.30252 2.49799C1.56573 1.98396 1.98396 1.56573 2.498 1.30252C2.83669 1.12909 3.19512 1.06134 3.57696 1.03002C3.94304 0.99998 4.39121 0.99999 4.92815 1L12.3221 1C12.859 0.999989 13.3072 0.99998 13.6733 1.03002C14.0551 1.06134 14.4135 1.12909 14.7522 1.30252C15.2663 1.56573 15.6845 1.98396 15.9477 2.49799C16.1211 2.83669 16.1889 3.19511 16.2202 3.57695C16.2503 3.94302 16.2502 4.39118 16.2502 4.92809V4.98935C16.2502 5.52627 16.2503 5.97447 16.2202 6.34054C16.1889 6.72238 16.1211 7.0808 15.9477 7.4195C15.6845 7.93353 15.2663 8.35176 14.7522 8.61497C14.4135 8.7884 14.0551 8.85614 13.6733 8.88747C13.3072 8.91751 12.859 8.9175 12.3221 8.91749H4.92816C4.39122 8.9175 3.94304 8.91751 3.57696 8.88747C3.19512 8.85614 2.83669 8.7884 2.498 8.61497C1.98396 8.35176 1.56573 7.93353 1.30252 7.4195C1.12909 7.0808 1.06135 6.72238 1.03002 6.34054C0.999983 5.97448 0.99999 5.52633 1 4.98943V4.92806ZM2.52637 6.21777C2.55005 6.50633 2.59231 6.64423 2.6389 6.7352C2.75854 6.96886 2.94864 7.15896 3.18229 7.2786C3.27327 7.32518 3.41117 7.36745 3.69973 7.39112C3.99711 7.41552 4.38333 7.41611 4.95876 7.41611H12.2915C12.8669 7.41611 13.2531 7.41552 13.5505 7.39112C13.8391 7.36745 13.977 7.32518 14.0679 7.2786C14.3016 7.15896 14.4917 6.96886 14.6113 6.7352C14.6579 6.64423 14.7002 6.50633 14.7239 6.21777C14.7483 5.92039 14.7488 5.53417 14.7488 4.95874C14.7488 4.38332 14.7483 3.9971 14.7239 3.69972C14.7002 3.41116 14.6579 3.27326 14.6113 3.18229C14.4917 2.94863 14.3016 2.75853 14.0679 2.63889C13.977 2.59231 13.8391 2.55004 13.5505 2.52637C13.2531 2.50197 12.8669 2.50138 12.2915 2.50138L4.95876 2.50138C4.38334 2.50138 3.99711 2.50197 3.69973 2.52637C3.41117 2.55004 3.27327 2.59231 3.18229 2.63889C2.94864 2.75853 2.75854 2.94863 2.6389 3.18229C2.59231 3.27326 2.55005 3.41116 2.52637 3.69972C2.50197 3.9971 2.50138 4.38332 2.50138 4.95875C2.50138 5.53417 2.50197 5.92039 2.52637 6.21777Z"
    fill="currentColor"
  />
  <path
    fill-rule="evenodd"
    clip-rule="evenodd"
    d="M5.61925 15.0719V15.0107C5.61924 14.4737 5.61923 14.0255 5.64927 13.6595C5.6806 13.2776 5.74834 12.9192 5.92177 12.5805C6.18499 12.0665 6.60321 11.6482 7.11725 11.385C7.45595 11.2116 7.81437 11.1439 8.19621 11.1125C8.56229 11.0825 9.01046 11.0825 9.5474 11.0825H12.3584C12.8953 11.0825 13.3435 11.0825 13.7096 11.1125C14.0914 11.1439 14.4498 11.2116 14.7885 11.385C15.3026 11.6482 15.7208 12.0665 15.984 12.5805C16.1574 12.9192 16.2252 13.2776 16.2565 13.6595C16.2866 14.0255 16.2865 14.4737 16.2865 15.0106V15.0719C16.2865 15.6088 16.2866 16.057 16.2565 16.4231C16.2252 16.8049 16.1574 17.1633 15.984 17.502C15.7208 18.016 15.3026 18.4343 14.7885 18.6975C14.4498 18.8709 14.0914 18.9387 13.7096 18.97C13.3435 19 12.8954 19 12.3585 19H9.54742C9.01051 19 8.56227 19 8.19621 18.97C7.81437 18.9387 7.45595 18.8709 7.11725 18.6975C6.60321 18.4343 6.18499 18.016 5.92177 17.502C5.74834 17.1633 5.6806 16.8049 5.64927 16.4231C5.61923 16.057 5.61924 15.6088 5.61925 15.0719ZM7.14562 16.3003C7.1693 16.5888 7.21156 16.7267 7.25814 16.8177C7.37779 17.0514 7.56789 17.2415 7.80154 17.3611C7.89252 17.4077 8.03042 17.45 8.31898 17.4736C8.61636 17.498 9.00259 17.4986 9.57801 17.4986H12.3278C12.9032 17.4986 13.2894 17.498 13.5868 17.4736C13.8754 17.45 14.0133 17.4077 14.1042 17.3611C14.3379 17.2415 14.528 17.0514 14.6476 16.8177C14.6942 16.7267 14.7365 16.5888 14.7602 16.3003C14.7846 16.0029 14.7851 15.6167 14.7851 15.0413C14.7851 14.4658 14.7846 14.0796 14.7602 13.7822C14.7365 13.4937 14.6942 13.3558 14.6476 13.2648C14.528 13.0311 14.3379 12.841 14.1042 12.7214C14.0133 12.6748 13.8754 12.6326 13.5868 12.6089C13.2894 12.5845 12.9032 12.5839 12.3278 12.5839H9.57801C9.00259 12.5839 8.61636 12.5845 8.31898 12.6089C8.03042 12.6326 7.89252 12.6748 7.80154 12.7214C7.56789 12.841 7.37779 13.0311 7.25814 13.2648C7.21156 13.3558 7.1693 13.4937 7.14562 13.7822C7.12123 14.0796 7.12064 14.4658 7.12064 15.0413C7.12064 15.6167 7.12123 16.0029 7.14562 16.3003Z"
    fill="currentColor"
  />
  <path
    d="M17.4986 18.2493C17.4986 18.6639 17.8347 19 18.2493 19C18.6639 19 19 18.6639 19 18.2493V1.75075C19 1.33615 18.6639 1.00006 18.2493 1.00006C17.8347 1.00006 17.4986 1.33615 17.4986 1.75075L17.4986 18.2493Z"
    fill="currentColor"
  />
</svg>
