<svg width="20" height="20" viewBox="0 0 20 20" fill="currentcolor" xmlns="http://www.w3.org/2000/svg">
  <path fill-rule="evenodd" d="M15.0724 19L15.0111 19C14.4732 19 14.0242 19 13.6575 18.9699C13.275 18.9384 12.916 18.8703 12.5769 18.6962C12.0658 18.4336 11.6497 18.0176 11.3872 17.5065C11.213 17.1674 11.145 16.8084 11.1135 16.4259C11.0834 16.0592 11.0834 15.6102 11.0834 15.0723L11.0834 4.92768C11.0834 4.38978 11.0834 3.94081 11.1135 3.5741C11.145 3.19161 11.213 2.8326 11.3872 2.49351C11.6497 1.9824 12.0658 1.56637 12.5769 1.30383C12.916 1.12966 13.275 1.06161 13.6575 1.03015C14.0242 0.999979 14.4732 0.999988 15.0111 1L15.0724 1C15.6103 0.999988 16.0592 0.999979 16.4259 1.03015C16.8084 1.06161 17.1674 1.12966 17.5065 1.30383C18.0176 1.56637 18.4337 1.9824 18.6962 2.49351C18.8704 2.8326 18.9384 3.19161 18.9699 3.5741C19.0001 3.94081 19.0001 4.38978 19 4.92768L19 15.0723C19.0001 15.6102 19.0001 16.0592 18.9699 16.4259C18.9384 16.8084 18.8704 17.1674 18.6962 17.5065C18.4337 18.0176 18.0176 18.4336 17.5065 18.6962C17.1674 18.8703 16.8084 18.9384 16.4259 18.9699C16.0592 19 15.6103 19 15.0724 19ZM16.303 17.4749C16.592 17.4511 16.7301 17.4087 16.8212 17.3619C17.0535 17.2426 17.2426 17.0535 17.3619 16.8211C17.4087 16.73 17.4512 16.592 17.4749 16.3029C17.4995 16.005 17.5 15.6181 17.5 15.0417L17.5 4.95833C17.5 4.38188 17.4995 3.99497 17.475 3.69708C17.4512 3.40805 17.4087 3.26997 17.3619 3.17887C17.2426 2.94654 17.0535 2.75744 16.8212 2.63811C16.7301 2.59131 16.592 2.54887 16.303 2.52509C16.0051 2.50059 15.6182 2.5 15.0417 2.5C14.4653 2.5 14.0783 2.50059 13.7805 2.52509C13.4914 2.54887 13.3533 2.59131 13.2622 2.6381C13.0299 2.75744 12.8408 2.94654 12.7215 3.17887C12.6747 3.26996 12.6323 3.40805 12.6085 3.69708C12.584 3.99497 12.5834 4.38188 12.5834 4.95833L12.5834 15.0417C12.5834 15.6181 12.584 16.005 12.6085 16.3029C12.6323 16.592 12.6747 16.73 12.7215 16.8211C12.8408 17.0535 13.0299 17.2426 13.2622 17.3619C13.3533 17.4087 13.4914 17.4511 13.7805 17.4749C14.0783 17.4994 14.4653 17.5 15.0417 17.5C15.6182 17.5 16.0051 17.4994 16.303 17.4749Z" fill="currentcolor" />
  <path fill-rule="evenodd" d="M4.98899 11.6667L4.92769 11.6667C4.38979 11.6668 3.94081 11.6668 3.57411 11.6366C3.19161 11.6051 2.83261 11.5371 2.49352 11.3629C1.98241 11.1004 1.56637 10.6843 1.30384 10.1732C1.12966 9.83414 1.06162 9.47514 1.03015 9.09264C0.999984 8.72594 0.999993 8.27696 1 7.73906L1.00001 4.92777C0.999994 4.38986 0.999986 3.94089 1.03015 3.57418C1.06162 3.19169 1.12966 2.83269 1.30384 2.49359C1.56637 1.98248 1.98241 1.56644 2.49352 1.30391C2.83261 1.12973 3.19162 1.06169 3.57411 1.03022C3.94081 1.00006 4.38979 1.00007 4.92769 1.00008L4.98899 1.00008C5.52689 1.00007 5.97586 1.00006 6.34257 1.03022C6.72506 1.06169 7.08407 1.12973 7.42316 1.30391C7.93427 1.56644 8.35031 1.98248 8.61284 2.49359C8.78702 2.83269 8.85506 3.19169 8.88653 3.57419C8.91669 3.94089 8.91668 4.38986 8.91667 4.92776L8.91667 7.73906C8.91668 8.27696 8.91669 8.72594 8.88653 9.09264C8.85506 9.47514 8.78702 9.83414 8.61284 10.1732C8.35031 10.6843 7.93427 11.1004 7.42316 11.3629C7.08407 11.5371 6.72506 11.6051 6.34257 11.6366C5.97586 11.6668 5.52689 11.6668 4.98899 11.6667ZM6.21959 10.1417C6.50862 10.1179 6.64671 10.0754 6.7378 10.0286C6.97012 9.90931 7.15923 9.7202 7.27857 9.48788C7.32536 9.39678 7.3678 9.2587 7.39158 8.96966C7.41608 8.67178 7.41667 8.28486 7.41667 7.70841L7.41667 4.95841C7.41667 4.38196 7.41608 3.99505 7.39158 3.69716C7.3678 3.40813 7.32536 3.27005 7.27857 3.17895C7.15923 2.94663 6.97012 2.75752 6.7378 2.63818C6.64671 2.59139 6.50863 2.54895 6.21959 2.52518C5.9217 2.50067 5.53479 2.50008 4.95834 2.50008C4.38189 2.50008 3.99497 2.50067 3.69709 2.52518C3.40805 2.54895 3.26997 2.59139 3.17888 2.63818C2.94655 2.75752 2.75744 2.94663 2.63811 3.17895C2.59132 3.27004 2.54888 3.40813 2.5251 3.69716C2.5006 3.99505 2.50001 4.38196 2.50001 4.95841L2.5 7.70841C2.5 8.28486 2.5006 8.67178 2.5251 8.96966C2.54888 9.2587 2.59132 9.39678 2.63811 9.48788C2.75744 9.7202 2.94655 9.90931 3.17887 10.0286C3.26997 10.0754 3.40805 10.1179 3.69709 10.1416C3.99497 10.1662 4.38189 10.1667 4.95834 10.1667C5.53479 10.1667 5.9217 10.1662 6.21959 10.1417Z" fill="currentcolor" />
</svg>
