<svg width="20" height="20" viewBox="0 0 20 20" fill="currentColor" xmlns="http://www.w3.org/2000/svg">
  <path fill-rule="evenodd" d="M9.66723 4.75102C9.39224 4.44231 8.91851 4.41451 8.60914 4.68891L3.25155 9.44103C3.09155 9.58295 3 9.78638 3 10C3 10.2136 3.09155 10.417 3.25155 10.559L8.60914 15.3111C8.91851 15.5855 9.39224 15.5577 9.66723 15.249C9.94223 14.9403 9.91436 14.4676 9.60499 14.1932L5.72074 10.7479H16.2505C16.6644 10.7479 17 10.413 17 10C17 9.58696 16.6644 9.25213 16.2505 9.25213H5.72074L9.60499 5.80685C9.91436 5.53244 9.94223 5.05973 9.66723 4.75102Z" fill="currentColor" />
</svg>
