<svg width="20" height="20" viewBox="0 0 20 20" fill="currentColor" xmlns="http://www.w3.org/2000/svg">
  <path d="M11 9.99976C11 10.552 10.5523 10.9998 10 10.9998C9.44771 10.9998 9 10.552 9 9.99976C9 9.44747 9.44771 8.99976 10 8.99976C10.5523 8.99976 11 9.44747 11 9.99976Z" fill="currentColor" />
  <path fill-rule="evenodd" d="M10 2.88244C10.6565 2.38213 11.3063 1.95801 11.947 1.64164C12.8793 1.18136 13.847 0.920459 14.8258 1.0213C15.8186 1.12357 16.737 1.58906 17.5739 2.4259C18.4107 3.26274 18.8762 4.18113 18.9785 5.17391C19.0793 6.15281 18.8184 7.12044 18.3581 8.05271C18.0417 8.69351 17.6176 9.34322 17.1173 9.99976C17.6176 10.6563 18.0417 11.306 18.3581 11.9468C18.8184 12.8791 19.0793 13.8467 18.9784 14.8256C18.8762 15.8184 18.4107 16.7368 17.5739 17.5736C16.737 18.4104 15.8186 18.8759 14.8258 18.9782C13.8469 19.0791 12.8793 18.8182 11.947 18.3579C11.3062 18.0415 10.6565 17.6174 10 17.1171C9.34346 17.6174 8.69375 18.0415 8.05296 18.3579C7.12069 18.8181 6.15305 19.0791 5.17416 18.9782C4.18138 18.8759 3.26299 18.4104 2.42615 17.5736C1.58931 16.7368 1.12382 15.8184 1.02155 14.8256C0.920708 13.8467 1.18161 12.8791 1.64189 11.9468C1.95825 11.306 2.38237 10.6563 2.88268 9.99976C2.38237 9.34322 1.95825 8.69351 1.64188 8.05272C1.1816 7.12044 0.920703 6.15281 1.02155 5.17392C1.12382 4.18113 1.58931 3.26274 2.42615 2.4259C3.26298 1.58907 4.18138 1.12358 5.17416 1.0213C6.15305 0.920461 7.12068 1.18136 8.05296 1.64164C8.69375 1.95801 9.34346 2.38213 10 2.88244ZM11.1834 3.85382C11.672 3.4986 12.1455 3.20168 12.6052 2.97471C13.3807 2.59182 14.0619 2.43716 14.6735 2.50017C15.2712 2.56174 15.885 2.83951 16.5226 3.47715C17.1602 4.11479 17.438 4.72856 17.4996 5.32626C17.5626 5.93786 17.4079 6.61904 17.025 7.39456C16.7981 7.85428 16.5012 8.32778 16.1459 8.81639C15.411 7.97525 14.5841 7.12517 13.7294 6.27039C12.8746 5.41562 12.0245 4.58871 11.1834 3.85382ZM3.85407 8.81639C3.49885 8.32778 3.20193 7.85429 2.97495 7.39456C2.59207 6.61904 2.4374 5.93786 2.50041 5.32627C2.56198 4.72856 2.83975 4.1148 3.47739 3.47715C4.11504 2.83951 4.7288 2.56174 5.32651 2.50017C5.9381 2.43716 6.61928 2.59183 7.3948 2.97471C7.85452 3.20169 8.32802 3.4986 8.81663 3.85382C7.97549 4.58871 7.12541 5.41562 6.27064 6.27039C5.41586 7.12517 4.58895 7.97525 3.85407 8.81639ZM4.79627 9.99976C5.52187 9.15306 6.38117 8.26236 7.32189 7.32164C8.2626 6.38092 9.1533 5.52163 10 4.79603C10.8467 5.52163 11.7374 6.38092 12.6781 7.32164C13.6188 8.26236 14.4781 9.15306 15.2037 9.99976C14.4781 10.8465 13.6188 11.7372 12.6781 12.6779C11.7374 13.6186 10.8467 14.4779 10 15.2035C9.1533 14.4779 8.2626 13.6186 7.32188 12.6779C6.38116 11.7372 5.52187 10.8465 4.79627 9.99976ZM3.85407 11.1831C3.49885 11.6717 3.20193 12.1452 2.97496 12.605C2.59207 13.3805 2.43741 14.0617 2.50041 14.6732C2.56199 15.271 2.83976 15.8847 3.4774 16.5224C4.11504 17.16 4.72881 17.4378 5.32651 17.4993C5.93811 17.5623 6.61929 17.4077 7.39481 17.0248C7.85453 16.7978 8.32802 16.5009 8.81663 16.1457C7.97549 15.4108 7.12541 14.5839 6.27063 13.7291C5.41586 12.8744 4.58895 12.0243 3.85407 11.1831ZM11.1834 16.1457C11.672 16.5009 12.1455 16.7978 12.6052 17.0248C13.3807 17.4077 14.0619 17.5624 14.6735 17.4993C15.2712 17.4378 15.885 17.16 16.5226 16.5224C17.1602 15.8847 17.438 15.271 17.4996 14.6733C17.5626 14.0617 17.4079 13.3805 17.025 12.605C16.7981 12.1452 16.5012 11.6717 16.1459 11.1831C15.4111 12.0243 14.5841 12.8743 13.7294 13.7291C12.8746 14.5839 12.0245 15.4108 11.1834 16.1457Z" fill="currentColor" />
</svg>
