<svg width="20" height="20" viewBox="0 0 20 20" fill="currentColor" xmlns="http://www.w3.org/2000/svg">
  <path fill-rule="evenodd" d="M10 1C7.80014 1 5.97407 2.58434 5.63273 4.66092C5.46833 4.67245 5.31196 4.68703 5.1634 4.70548C4.42231 4.79751 3.78177 4.99486 3.23914 5.45597C2.69641 5.91717 2.40357 6.51311 2.20153 7.22281C2.00824 7.90178 1.87695 8.76744 1.71605 9.82838L1.39106 11.971C1.1789 13.3696 1.00765 14.4986 1.00025 15.3933C0.992584 16.3216 1.1573 17.1319 1.73942 17.7984C2.32138 18.4647 3.10903 18.7451 4.04043 18.8749C4.93846 19 6.09562 19 7.52952 19H12.4705C13.9044 19 15.0615 19 15.9596 18.8749C16.891 18.7451 17.6786 18.4647 18.2606 17.7984C18.8427 17.1319 19.0074 16.3216 18.9997 15.3933C18.9924 14.4986 18.8211 13.3696 18.6089 11.971L18.284 9.82854C18.1231 8.76756 17.9918 7.9018 17.7985 7.22281C17.5964 6.51311 17.3036 5.91717 16.7609 5.45597C16.2182 4.99486 15.5777 4.79751 14.8366 4.70548C14.688 4.68703 14.5317 4.67245 14.3673 4.66092C14.0259 2.58434 12.1999 1 10 1ZM5.35231 6.18925C5.42395 6.18035 5.49824 6.17249 5.57546 6.16555V8.07824C5.57546 8.49209 5.91533 8.82597 6.33256 8.82597C6.7498 8.82597 7.08967 8.49209 7.08967 8.07824V6.11433C7.33792 6.11298 7.60641 6.11289 7.89793 6.11289H12.1021C12.3936 6.11289 12.6621 6.11298 12.9103 6.11433V8.07824C12.9103 8.49209 13.2502 8.82597 13.6674 8.82597C14.0847 8.82597 14.4245 8.49209 14.4245 8.07824V6.16555C14.5018 6.17249 14.576 6.18035 14.6477 6.18925C15.2304 6.26161 15.542 6.39305 15.7732 6.58957C16.0044 6.78599 16.1821 7.07023 16.3408 7.62758C16.5052 8.20525 16.6238 8.97728 16.7939 10.0992L17.1026 12.134C17.3256 13.6047 17.4792 14.6289 17.4856 15.4055C17.4918 16.1609 17.3549 16.5458 17.114 16.8216C16.8729 17.0976 16.5068 17.2884 15.748 17.3941C14.9681 17.5028 13.9182 17.5045 12.4107 17.5045H7.58929C6.08177 17.5045 5.03186 17.5028 4.25201 17.3941C3.49324 17.2884 3.12706 17.0976 2.88599 16.8216C2.64507 16.5458 2.50817 16.1609 2.51441 15.4055C2.52083 14.6289 2.67437 13.6047 2.89744 12.134L3.20607 10.0992C3.37625 8.97728 3.49477 8.20525 3.65922 7.62758C3.81789 7.07023 3.9956 6.78599 4.22675 6.58957C4.45801 6.39305 4.7696 6.26161 5.35231 6.18925ZM7.84748 4.61743C7.61931 4.61743 7.39997 4.61743 7.18925 4.61824C7.52253 3.39599 8.65405 2.49546 10 2.49546C11.3459 2.49546 12.4775 3.39599 12.8107 4.61824C12.6 4.61743 12.3806 4.61743 12.1524 4.61743H7.84748Z" fill="currentColor" />
</svg>
