<svg width="20" height="20" viewBox="0 0 20 20" fill="currentcolor" xmlns="http://www.w3.org/2000/svg">
  <path fill-rule="evenodd" d="M1.02515 13.0561C1.18842 10.6845 2.18084 7.75552 4.96818 4.96818C7.75551 2.18084 10.6845 1.18842 13.0561 1.02515C14.2354 0.943957 15.2739 1.06788 16.0858 1.27438C16.4914 1.37755 16.8482 1.50328 17.1424 1.63936C17.4233 1.76924 17.6945 1.93005 17.8886 2.12415C18.0829 2.31848 18.2433 2.58947 18.3725 2.86998C18.5078 3.16376 18.6324 3.51968 18.7341 3.92414C18.9376 4.73371 19.0575 5.76865 18.9722 6.94422C18.8007 9.30814 17.8003 12.2281 15.0142 15.0142C12.2281 17.8003 9.30814 18.8007 6.94422 18.9722C5.76865 19.0575 4.73371 18.9376 3.92414 18.7341C3.51968 18.6324 3.16376 18.5078 2.86998 18.3725C2.58947 18.2433 2.31848 18.0829 2.12415 17.8886C1.93005 17.6945 1.76924 17.4233 1.63936 17.1424C1.50328 16.8482 1.37755 16.4914 1.27438 16.0858C1.06788 15.2739 0.943957 14.2354 1.02515 13.0561ZM3.16722 16.8082C3.17875 16.8231 3.18416 16.8285 3.18416 16.8285C3.18416 16.8285 3.18952 16.8339 3.20429 16.8453C3.21877 16.8565 3.2393 16.8711 3.26685 16.8885C3.32246 16.9237 3.3987 16.9656 3.49719 17.0109C3.69447 17.1018 3.96093 17.1976 4.2897 17.2803C4.90106 17.434 5.7013 17.5357 6.62686 17.4898L2.50853 13.3715C2.46618 14.2994 2.57108 15.1024 2.72721 15.7163C2.81126 16.0467 2.9082 16.3147 2.99999 16.5132C3.04582 16.6123 3.08806 16.6891 3.1236 16.7451C3.14121 16.7729 3.15593 16.7936 3.16722 16.8082ZM13.9542 13.9542C12.0713 15.8371 10.1577 16.7899 8.47023 17.2131L2.77876 11.5217C3.19671 9.82882 4.14532 7.91107 6.02819 6.02819C7.91107 4.14532 9.82882 3.19671 11.5217 2.77876L17.2131 8.47023C16.7899 10.1577 15.8371 12.0713 13.9542 13.9542ZM17.4898 6.62686C17.5357 5.7013 17.434 4.90106 17.2802 4.2897C17.1976 3.96093 17.1018 3.69447 17.0109 3.49719C16.9656 3.3987 16.9237 3.32246 16.8885 3.26685C16.871 3.2393 16.8565 3.21877 16.8453 3.20429C16.8348 3.1907 16.8285 3.18416 16.8285 3.18416C16.8285 3.18416 16.8218 3.17776 16.8082 3.16723C16.7936 3.15593 16.7729 3.14121 16.7451 3.1236C16.6891 3.08806 16.6123 3.04582 16.5132 2.99999C16.3147 2.9082 16.0467 2.81126 15.7163 2.72722C15.1024 2.57108 14.2994 2.46617 13.3715 2.50853L17.4898 6.62686Z" fill="currentcolor" />
  <path fill-rule="evenodd" d="M5.99449 10.8959C6.2872 10.6032 6.76179 10.6032 7.0545 10.8959L9.0864 12.9278C9.37912 13.2205 9.37912 13.6951 9.0864 13.9878C8.79369 14.2806 8.3191 14.2806 8.02639 13.9878L5.99449 11.9559C5.70177 11.6632 5.70177 11.1887 5.99449 10.8959Z" fill="currentcolor" />
  <path fill-rule="evenodd" d="M8.44525 8.44523C8.73797 8.15252 9.21255 8.15252 9.50527 8.44523L11.5372 10.4771C11.8299 10.7698 11.8299 11.2444 11.5372 11.5371C11.2445 11.8299 10.7699 11.8299 10.4772 11.5371L8.44525 9.50525C8.15254 9.21253 8.15254 8.73795 8.44525 8.44523Z" fill="currentcolor" />
  <path fill-rule="evenodd" d="M10.896 5.99448C11.1887 5.70177 11.6633 5.70177 11.956 5.99448L13.9879 8.02638C14.2806 8.3191 14.2806 8.79368 13.9879 9.0864C13.6952 9.37911 13.2206 9.37911 12.9279 9.0864L10.896 7.0545C10.6033 6.76178 10.6033 6.2872 10.896 5.99448Z" fill="currentcolor" />
</svg>
