<svg
  xmlns="http://www.w3.org/2000/svg"
  width="20"
  height="21"
  viewBox="0 0 20 21"
  fill="none"
>
  <path
    fill-rule="evenodd"
    clip-rule="evenodd"
    d="M10 18.5376C14.6944 18.5376 18.5 14.732 18.5 10.0376C18.5 5.34318 14.6944 1.5376 10 1.5376C5.30558 1.5376 1.5 5.34318 1.5 10.0376C1.5 14.732 5.30558 18.5376 10 18.5376ZM10 20.0376C15.5228 20.0376 20 15.5604 20 10.0376C20 4.51475 15.5228 0.0375977 10 0.0375977C4.47715 0.0375977 0 4.51475 0 10.0376C0 15.5604 4.47715 20.0376 10 20.0376Z"
    fill="currentColor"
  />
  <path
    fill-rule="evenodd"
    clip-rule="evenodd"
    d="M10 10.6782C11.8208 10.6782 13.2969 9.20216 13.2969 7.38135C13.2969 5.56053 11.8208 4.08447 10 4.08447C8.17919 4.08447 6.70312 5.56053 6.70312 7.38135C6.70312 9.20216 8.17919 10.6782 10 10.6782ZM10 12.1782C12.6492 12.1782 14.7969 10.0306 14.7969 7.38135C14.7969 4.73211 12.6492 2.58447 10 2.58447C7.35076 2.58447 5.20312 4.73211 5.20312 7.38135C5.20312 10.0306 7.35076 12.1782 10 12.1782Z"
    fill="currentColor"
  />
  <path
    fill-rule="evenodd"
    clip-rule="evenodd"
    d="M9.99713 4.8092C9.69535 4.8092 9.41162 4.86472 9.15186 4.98233C8.89508 5.09481 8.67875 5.25685 8.51376 5.47183C8.33948 5.69892 8.25284 5.963 8.25284 6.25063C8.25284 6.39765 8.27533 6.54115 8.32456 6.6779L8.33119 6.69382C8.3773 6.80446 8.43585 6.90971 8.50624 7.00926C8.48437 7.03104 8.46274 7.05407 8.4423 7.0773C8.32777 7.20819 8.24508 7.3613 8.19031 7.53C8.13443 7.69828 8.10999 7.88115 8.10999 8.07349C8.10999 8.37779 8.2031 8.6572 8.38568 8.90064L8.38784 8.90346C8.5641 9.13358 8.79672 9.31007 9.07396 9.43732L9.07832 9.43925C9.36056 9.56418 9.6687 9.62349 9.99713 9.62349C10.3252 9.62349 10.633 9.56432 10.9149 9.4397C11.1973 9.31656 11.4342 9.1415 11.6121 8.90918L11.6143 8.90632C11.7977 8.6618 11.89 8.38022 11.89 8.07349C11.89 7.87558 11.8632 7.6874 11.8009 7.51546C11.7409 7.34606 11.6512 7.1941 11.5293 7.06532C11.5147 7.04892 11.4997 7.03295 11.4844 7.0174C11.5655 6.91317 11.6286 6.79851 11.6707 6.67386C11.7189 6.53843 11.7414 6.39642 11.7414 6.25063C11.7414 5.963 11.6548 5.69892 11.4805 5.47183C11.3155 5.25684 11.0992 5.0948 10.8424 4.98233C10.5826 4.86472 10.2989 4.8092 9.99713 4.8092ZM9.73318 5.88225C9.81365 5.83965 9.90233 5.8192 9.99711 5.8192C10.0919 5.8192 10.1806 5.83965 10.261 5.88225C10.3408 5.92446 10.404 5.98427 10.4481 6.06118C10.4964 6.13488 10.52 6.21805 10.52 6.30777C10.52 6.40117 10.4964 6.48736 10.4465 6.56254C10.4016 6.63211 10.3383 6.68666 10.261 6.72758L10.2569 6.72978C10.1773 6.76723 10.0901 6.78491 9.99711 6.78491C9.90414 6.78491 9.81697 6.76713 9.73739 6.72968L9.73313 6.72768C9.65629 6.68699 9.59245 6.63329 9.54431 6.56589L9.53966 6.55938C9.49478 6.48458 9.47426 6.39944 9.47426 6.30777C9.47426 6.21888 9.49553 6.13605 9.53994 6.06204L9.54087 6.06048C9.58849 5.98429 9.65317 5.92461 9.73318 5.88225ZM9.70483 7.52214C9.79319 7.47563 9.8914 7.45348 9.99711 7.45348C10.1059 7.45348 10.2062 7.47533 10.2951 7.52214C10.3818 7.56776 10.4511 7.63105 10.4994 7.71238C10.5523 7.79503 10.5771 7.89003 10.5771 7.99348C10.5771 8.09483 10.5515 8.18832 10.4982 8.27067C10.4464 8.35071 10.376 8.41353 10.2894 8.45912L10.2857 8.46108C10.1981 8.50255 10.1013 8.52206 9.99711 8.52206C9.8914 8.52206 9.79319 8.49991 9.70483 8.45341C9.61821 8.40782 9.54781 8.345 9.49601 8.26495C9.44324 8.18338 9.41711 8.09201 9.41711 7.99348C9.41711 7.88928 9.44226 7.79366 9.49601 7.71059C9.54781 7.63054 9.61821 7.56772 9.70483 7.52214Z"
    fill="currentColor"
  />
</svg>
