<svg
  xmlns="http://www.w3.org/2000/svg"
  width="20"
  height="21"
  viewBox="0 0 20 21"
  fill="none"
>
  <path
    fill-rule="evenodd"
    clip-rule="evenodd"
    d="M10 18.5376C14.6944 18.5376 18.5 14.732 18.5 10.0376C18.5 5.34318 14.6944 1.5376 10 1.5376C5.30558 1.5376 1.5 5.34318 1.5 10.0376C1.5 14.732 5.30558 18.5376 10 18.5376ZM10 20.0376C15.5228 20.0376 20 15.5604 20 10.0376C20 4.51475 15.5228 0.0375977 10 0.0375977C4.47715 0.0375977 0 4.51475 0 10.0376C0 15.5604 4.47715 20.0376 10 20.0376Z"
    fill="currentColor"
  />
  <path
    d="M6.04858 6.30289C6.12046 6.85048 5.73482 7.35266 5.18724 7.42454C4.63965 7.49642 4.13747 7.11078 4.06559 6.56319C3.99371 6.01561 4.37935 5.51343 4.92693 5.44155C5.47452 5.36967 5.9767 5.75531 6.04858 6.30289Z"
    fill="currentColor"
  />
  <path
    d="M9.35201 4.05959C9.42389 4.60717 9.03825 5.10935 8.49066 5.18123C7.94308 5.25311 7.4409 4.86748 7.36902 4.31989C7.29714 3.7723 7.68278 3.27012 8.23036 3.19824C8.77795 3.12636 9.28013 3.512 9.35201 4.05959Z"
    fill="currentColor"
  />
  <path
    d="M9.6123 7.92452C9.68418 8.47211 9.29854 8.97429 8.75095 9.04617C8.20337 9.11805 7.70119 8.73241 7.62931 8.18482C7.55743 7.63724 7.94307 7.13506 8.49065 7.06318C9.03824 6.9913 9.54042 7.37693 9.6123 7.92452Z"
    fill="currentColor"
  />
</svg>
