<svg width="20" height="21" viewBox="0 0 20 21" fill="currentcolor" xmlns="http://www.w3.org/2000/svg">
  <path d="M6.44549 19.1929C6.44549 20.1473 7.21921 20.921 8.17363 20.921C9.12806 20.921 9.90177 20.1473 9.90177 19.1929C9.90177 18.2385 9.12806 17.4647 8.17363 17.4647C7.21921 17.4647 6.44549 18.2385 6.44549 19.1929Z" fill="currentcolor" />
  <path fill-rule="evenodd" d="M6.50693 4.36495C6.48199 4.21007 6.46902 4.05119 6.46902 3.88927C6.46902 2.24995 7.79795 0.921021 9.43727 0.921021C11.0766 0.921021 12.4055 2.24995 12.4055 3.88927C12.4055 3.99814 12.3997 4.10564 12.3882 4.21148C12.452 4.218 12.5171 4.22827 12.5834 4.24275C13.5648 4.45714 14.9515 5.08277 16.6004 6.69931C17.4302 7.51282 17.3149 8.80848 16.511 9.53688C15.6936 10.2776 14.4706 10.2057 13.7065 9.48233C13.4363 9.22644 13.2085 9.02653 13.018 8.87155L13.4168 10.8003L15.0078 17.7062C15.3298 19.1039 14.235 20.4254 12.8017 20.3688C11.8042 20.3294 10.9625 19.6176 10.7556 18.6424C10.6006 17.912 10.3854 16.9084 10.1682 15.9296C10.0529 16.0987 9.91761 16.2607 9.75883 16.4106C9.19164 16.9459 8.40272 17.2527 7.37936 17.2527C6.07914 17.2527 5.14724 16.7347 4.52462 15.9779C3.92821 15.253 3.65376 14.3581 3.52358 13.627C3.25589 12.1236 4.54874 11.0911 5.82367 11.0911C6.07275 11.0911 6.31314 11.1351 6.53666 11.2163C6.53692 10.9306 6.53741 10.6622 6.53824 10.4383C6.53841 10.3933 6.53846 10.3493 6.53841 10.3061C6.18302 10.7088 5.69294 11.0045 5.07643 11.0543C3.76626 11.1601 2.529 10.0099 2.8939 8.58019C3.70908 5.38626 5.46645 4.48257 6.50693 4.36495ZM7.97422 3.88927C7.97422 3.08125 8.62925 2.42621 9.43727 2.42621C10.2453 2.42621 10.9003 3.08125 10.9003 3.88927C10.9003 4.56886 10.437 5.14024 9.80895 5.3047C9.68746 5.33008 9.54665 5.34727 9.38361 5.35136C8.60045 5.32312 7.97422 4.67933 7.97422 3.88927ZM9.37841 6.85695C9.35507 6.85731 9.33156 6.85749 9.30788 6.85749H9.28039L9.25296 6.85549C8.42073 6.79459 7.90575 6.46041 7.52979 6.21645L7.50991 6.20355C7.16904 5.98249 6.9809 5.87102 6.65792 5.86295C6.30509 5.91194 5.02604 6.31285 4.35234 8.95243C4.31176 9.11142 4.35463 9.25515 4.46099 9.3699C4.57258 9.49031 4.75058 9.57049 4.95523 9.55396C5.24642 9.53044 5.57267 9.25883 5.69112 8.75188C5.86369 8.01333 6.15872 7.61843 6.38837 7.41936C6.44982 7.36611 6.55979 7.2846 6.71558 7.23883C6.88935 7.18777 7.14476 7.17862 7.3863 7.33546C7.57885 7.46049 7.68886 7.63928 7.75492 7.78443C7.82397 7.93615 7.87503 8.11761 7.91473 8.32988C7.99417 8.75472 8.04727 9.41101 8.04343 10.4439C8.0401 11.341 8.04222 12.9615 8.0431 13.5232C8.04384 13.994 7.66371 14.2673 7.33223 14.2933C7.00663 14.3188 6.60137 14.1183 6.51426 13.6714L6.39675 13.0685C6.34331 12.7942 6.10307 12.5963 5.82367 12.5963C5.54677 12.5963 5.31217 12.7047 5.16727 12.8518C5.03124 12.9898 4.96954 13.1614 5.00547 13.3631C5.11372 13.9711 5.32261 14.5787 5.68698 15.0216C6.02513 15.4326 6.53144 15.7475 7.37936 15.7475C8.0858 15.7475 8.48319 15.5448 8.72567 15.3159C8.98304 15.073 9.14768 14.7227 9.24 14.3014C9.33203 13.8813 9.34024 13.4443 9.32652 13.0917C9.3209 12.9473 9.31209 12.8253 9.30452 12.7203L9.29979 12.6542C9.29626 12.6036 9.29152 12.5336 9.29142 12.4739C9.29138 12.4513 9.29126 12.3811 9.30631 12.3008C9.31245 12.268 9.33324 12.1608 9.4032 12.0441C9.48112 11.914 9.70132 11.6591 10.0864 11.6763C10.3148 11.6865 10.4692 11.7941 10.5355 11.8481C10.6079 11.9072 10.6544 11.967 10.6778 11.9995C10.7256 12.0655 10.7557 12.1281 10.7702 12.1594C10.8028 12.2298 10.8302 12.3073 10.8517 12.3727C10.8972 12.5107 10.9491 12.6954 11.0042 12.9052C11.1156 13.3293 11.2536 13.9085 11.3987 14.5423C11.6896 15.8124 12.0159 17.3302 12.228 18.33C12.2923 18.6329 12.5531 18.8526 12.8611 18.8648C13.3028 18.8822 13.6403 18.4749 13.5411 18.0441L11.9462 11.1217L11.3621 8.29714L11.3619 8.29589L11.3615 8.29398C11.3567 8.27064 11.3204 8.09206 11.3388 7.87811C11.3535 7.70716 11.4369 7.18675 11.9723 6.97526C12.437 6.79172 12.908 6.99395 13.2439 7.1895C13.6309 7.41473 14.1168 7.79799 14.7414 8.38931C14.9716 8.60724 15.3032 8.60009 15.5004 8.42146C15.7203 8.22222 15.7034 7.92779 15.5466 7.77412C14.0642 6.32074 12.922 5.85741 12.2621 5.71327C12.2082 5.70148 12.1213 5.70075 11.9192 5.8188C11.8173 5.87837 11.7089 5.95454 11.5756 6.05205L11.5112 6.09931C11.4001 6.18101 11.2703 6.2764 11.1404 6.3621C10.8732 6.53829 10.5509 6.68098 10.1668 6.7672C9.93343 6.82618 9.68901 6.85752 9.43727 6.85752C9.4176 6.85752 9.39798 6.85733 9.37841 6.85695Z" fill="currentcolor" />
</svg>
