<svg width="20" height="20" viewBox="0 0 20 20" fill="currentcolor" xmlns="http://www.w3.org/2000/svg">
  <path fill-rule="evenodd" d="M2.72094 17.2682C4.68105 19.2241 10.2624 20.5217 15.3921 15.392C20.5242 10.2599 19.2229 4.67558 17.2653 2.71806C15.3078 0.760537 9.72351 -0.540829 4.59134 4.59134C-0.535862 9.71854 0.758036 15.297 2.7124 17.2596C2.71428 17.2615 2.71617 17.2634 2.71807 17.2653L2.72094 17.2682ZM2.62195 13.748C2.20852 11.6504 2.65656 8.64549 5.65103 5.65102C8.64551 2.65654 11.6504 2.20851 13.748 2.62195C13.4702 2.72959 13.1852 2.85478 12.8957 2.9954C11.168 3.83458 9.1345 5.29337 7.21393 7.21394C5.29336 9.13451 3.83457 11.168 2.99539 12.8957C2.85478 13.1852 2.72959 13.4701 2.62195 13.748ZM3.77878 16.2067L3.7769 16.2048C3.73999 16.1669 3.62785 15.9915 3.69277 15.4771C3.75488 14.985 3.96506 14.3295 4.34341 13.5505C5.09652 12 6.44763 10.0996 8.27361 8.27362C10.0996 6.44764 12 5.09652 13.5505 4.34342C14.3294 3.96506 14.9849 3.75489 15.477 3.69278C15.9955 3.62734 16.1697 3.74178 16.2056 3.77776C16.2416 3.81374 16.3561 3.98788 16.2906 4.50636C16.2285 4.99846 16.0183 5.65397 15.64 6.43293C14.8869 7.98344 13.5358 9.88382 11.7098 11.7098C9.88381 13.5358 7.98344 14.8869 6.43293 15.64C5.65396 16.0184 4.99846 16.2285 4.50635 16.2906C3.99263 16.3555 3.81696 16.2437 3.77878 16.2067ZM6.23546 17.3615C6.51328 17.2538 6.79819 17.1286 7.08768 16.988C8.8154 16.1488 10.8489 14.69 12.7695 12.7695C14.69 10.8489 16.1488 8.81541 16.988 7.08769C17.1286 6.79819 17.2538 6.51327 17.3615 6.23543C17.7749 8.33302 17.3268 11.3379 14.3324 14.3324C11.3379 17.3268 8.33305 17.7749 6.23546 17.3615Z" fill="currentcolor" />
</svg>
