<svg
  xmlns="http://www.w3.org/2000/svg"
  width="20"
  height="20"
  viewBox="0 0 20 20"
  fill="none"
>
  <path
    fill-rule="evenodd"
    clip-rule="evenodd"
    d="M9.99999 6.03296C9.58598 6.03296 9.23248 6.1678 8.89934 6.35291C8.59122 6.52412 8.24592 6.7708 7.85211 7.05212L7.56303 7.25861C7.21906 7.50428 6.91681 7.72015 6.68352 7.92516C6.43174 8.14643 6.21086 8.39605 6.06834 8.7301C6.03862 8.79977 6.01243 8.87089 5.98988 8.9432C5.88175 9.28992 5.88802 9.62316 5.93621 9.95487C5.98085 10.2622 6.07095 10.6225 6.17349 11.0326L6.19103 11.1028C6.30778 11.5699 6.40976 11.9779 6.53066 12.3047C6.66077 12.6566 6.83693 12.9858 7.14295 13.2536C7.20616 13.3089 7.27242 13.3607 7.34142 13.4086C7.67545 13.6405 8.03761 13.7315 8.41046 13.7725C8.75691 13.8105 9.17746 13.8104 9.65892 13.8104H10.3411C10.8225 13.8104 11.2431 13.8105 11.5895 13.7725C11.9624 13.7315 12.3245 13.6405 12.6586 13.4086C12.7276 13.3607 12.7938 13.3089 12.857 13.2536C13.1631 12.9858 13.3392 12.6566 13.4693 12.3047C13.5902 11.9779 13.6922 11.5699 13.8089 11.1028L13.8265 11.0326C13.929 10.6226 14.0191 10.2622 14.0638 9.95487C14.112 9.62316 14.1182 9.28992 14.0101 8.9432C13.9876 8.87089 13.9614 8.79977 13.9316 8.7301C13.7891 8.39605 13.5683 8.14643 13.3165 7.92516C13.0832 7.72016 12.7809 7.50429 12.437 7.25864L12.1479 7.05213C11.7541 6.77081 11.4088 6.52412 11.1006 6.35291C10.7675 6.1678 10.414 6.03296 9.99999 6.03296ZM8.69221 8.29541C9.12718 7.98472 9.40311 7.789 9.62792 7.66408C9.83596 7.54848 9.93331 7.53296 9.99999 7.53296C10.0667 7.53296 10.164 7.54848 10.3721 7.66408C10.5969 7.789 10.8728 7.98472 11.3078 8.29541L11.5372 8.45928C11.9173 8.73079 12.1567 8.9029 12.3263 9.0519C12.4836 9.19017 12.5293 9.26555 12.552 9.31874C12.5619 9.34196 12.5706 9.36567 12.5781 9.38977C12.5953 9.44498 12.6095 9.53196 12.5794 9.73925C12.5469 9.96263 12.4763 10.2489 12.363 10.7021C12.2343 11.2168 12.1514 11.5439 12.0625 11.7844C11.9796 12.0086 11.9167 12.0833 11.8692 12.1248C11.8481 12.1433 11.8261 12.1605 11.8031 12.1765C11.7513 12.2124 11.6635 12.2553 11.4259 12.2814C11.171 12.3094 10.8337 12.3104 10.303 12.3104H9.69695C9.16634 12.3104 8.82894 12.3094 8.57405 12.2814C8.33646 12.2553 8.24872 12.2124 8.19693 12.1765C8.17393 12.1605 8.15185 12.1433 8.13078 12.1248C8.08333 12.0833 8.02042 12.0086 7.93751 11.7844C7.84856 11.5439 7.76572 11.2168 7.63702 10.7021C7.52373 10.2489 7.45307 9.96263 7.42063 9.73925C7.39052 9.53196 7.40464 9.44498 7.42186 9.38977C7.42938 9.36567 7.43811 9.34196 7.44801 9.31874C7.47071 9.26555 7.51636 9.19017 7.6737 9.0519C7.84325 8.9029 8.08268 8.73079 8.46279 8.45928L8.69221 8.29541Z"
    fill="currentColor"
  />
  <path
    fill-rule="evenodd"
    clip-rule="evenodd"
    d="M10 20C15.5228 20 20 15.5228 20 10C20 4.47715 15.5228 0 10 0C4.47715 0 0 4.47715 0 10C0 15.5228 4.47715 20 10 20ZM10 18.5C10.7908 18.5 11.5565 18.392 12.2829 18.1899L12.4679 16.7098C12.5322 16.1952 12.5894 15.7371 12.6853 15.3729C12.7895 14.9768 12.9644 14.5857 13.3362 14.2924C13.708 13.9991 14.1291 13.9201 14.5386 13.9109C14.9151 13.9025 15.3739 13.9536 15.8894 14.0109L17.4034 14.1791C18.1015 12.945 18.5 11.519 18.5 10L18.4999 9.95722L17.3396 9.57044C16.7704 9.38077 16.2699 9.21398 15.8907 9.0252C15.4817 8.82163 15.0937 8.53603 14.8905 8.04536C14.6873 7.55469 14.7596 7.07844 14.9049 6.64529C15.0396 6.24362 15.2755 5.77177 15.5439 5.2352L16.114 4.09497C15.4081 3.36431 14.5725 2.75982 13.6443 2.31864L11.8008 3.63539C11.4899 3.85753 11.2075 4.05929 10.9534 4.20048C10.6744 4.35552 10.3659 4.47533 9.99999 4.47533C9.63404 4.47533 9.32563 4.35552 9.04661 4.20048C8.79252 4.05929 8.51011 3.85754 8.19917 3.63539L6.35573 2.31865C5.42747 2.75983 4.59185 3.36432 3.886 4.09499L4.45612 5.23521C4.72444 5.77176 4.96043 6.24364 5.09511 6.64529C5.24036 7.07844 5.31271 7.55469 5.10947 8.04536C4.90623 8.53603 4.51831 8.82163 4.10932 9.0252C3.73007 9.21398 3.22959 9.38076 2.66046 9.57042L1.50011 9.95721L1.5 10C1.5 11.519 1.89847 12.945 2.59659 14.1791L4.11056 14.0109C4.62604 13.9536 5.08491 13.9025 5.46139 13.9109C5.87085 13.9201 6.29199 13.9991 6.66377 14.2924C7.03555 14.5857 7.2105 14.9768 7.31472 15.3729C7.41054 15.7371 7.46777 16.1952 7.53206 16.7098L7.71706 18.1899C8.44352 18.392 9.20915 18.5 10 18.5ZM16.4136 15.5784C15.7043 16.3931 14.8423 17.0715 13.8722 17.5688L13.9506 16.9421C14.0225 16.3669 14.0687 16.0101 14.1359 15.7546C14.1966 15.524 14.2488 15.483 14.2644 15.4707L14.266 15.4695C14.2816 15.4571 14.3336 15.4159 14.572 15.4106C14.8361 15.4047 15.1939 15.4428 15.77 15.5069L16.4136 15.5784ZM17.1431 5.3909C17.7111 6.26942 18.1215 7.25941 18.3342 8.32083L17.8624 8.16357C17.2301 7.95282 16.8322 7.81832 16.5591 7.68236C16.3119 7.55931 16.2841 7.49049 16.2769 7.47271L16.2763 7.47133L16.2757 7.46996C16.2683 7.45232 16.2392 7.384 16.327 7.12219C16.424 6.83291 16.6103 6.45644 16.9083 5.86034L17.1431 5.3909ZM10.959 2.3933L11.9085 1.7151C11.295 1.57436 10.6562 1.5 10 1.5C9.3438 1.5 8.70497 1.57436 8.09147 1.71511L9.04095 2.3933C9.39172 2.64385 9.6045 2.79446 9.77519 2.88931C9.92911 2.97484 9.98137 2.97533 9.99999 2.97533C10.0186 2.97533 10.0709 2.97484 10.2248 2.88931C10.3955 2.79446 10.6083 2.64385 10.959 2.3933ZM1.66583 8.32083C1.87851 7.25941 2.28888 6.26943 2.85692 5.39092L3.09163 5.86034C3.38968 6.45644 3.57594 6.83291 3.67294 7.12219C3.76074 7.384 3.73172 7.45232 3.72423 7.46996L3.72365 7.47133L3.72309 7.47271C3.71591 7.49049 3.68812 7.55931 3.44091 7.68236C3.16777 7.81832 2.76986 7.95282 2.1376 8.16357L1.66583 8.32083ZM6.12775 17.5688C5.15765 17.0715 4.29568 16.3931 3.58641 15.5784L4.22994 15.5069C4.80609 15.4428 5.16384 15.4047 5.42798 15.4106C5.66636 15.4159 5.71838 15.4571 5.73401 15.4695L5.73553 15.4707C5.75122 15.483 5.80342 15.524 5.8641 15.7546C5.93132 16.0101 5.97751 16.3669 6.04941 16.9421L6.12775 17.5688Z"
    fill="currentColor"
  />
</svg>
