<svg width="20" height="21" viewBox="0 0 20 21" fill="currentcolor" xmlns="http://www.w3.org/2000/svg">
  <path fill-rule="evenodd" d="M20 10.0375C20 15.5604 15.5228 20.0375 10 20.0375C4.47715 20.0375 0 15.5604 0 10.0375C0 4.51469 4.47715 0.0375366 10 0.0375366C15.5228 0.0375366 20 4.51469 20 10.0375ZM18.5 10.0375C18.5 5.34312 14.6944 1.53754 10 1.53754C9.65613 1.53754 9.31704 1.55796 8.98386 1.59765C9.07453 1.96011 9.15839 2.41739 9.18641 2.93688C9.25683 4.24297 8.97193 5.95871 7.55286 7.50679C6.10429 9.08704 4.35042 9.37351 3.00525 9.27053C2.44426 9.22759 1.94833 9.11744 1.56212 9.00467C1.52111 9.34323 1.5 9.68792 1.5 10.0375C1.5 14.732 5.30558 18.5375 10 18.5375C10.3497 18.5375 10.6945 18.5164 11.0332 18.4754C10.9362 18.103 10.8434 17.6213 10.8136 17.0694C10.7432 15.7633 11.0281 14.0476 12.4471 12.4995C13.8957 10.9192 15.6496 10.6328 16.9948 10.7357C17.5595 10.779 18.0583 10.8903 18.4457 11.0039C18.4816 10.6867 18.5 10.3643 18.5 10.0375ZM3.11974 7.77491C4.14957 7.85375 5.3957 7.64022 6.44713 6.4932C7.52806 5.31401 7.74316 4.02974 7.68858 3.01765C7.66511 2.58235 7.59134 2.20047 7.51463 1.90665C4.82553 2.72761 2.70254 4.84601 1.8752 7.53232C2.1966 7.63299 2.62969 7.73739 3.11974 7.77491ZM13.5529 13.5131C14.6043 12.3661 15.8504 12.1525 16.8803 12.2314C17.3801 12.2696 17.8206 12.3775 18.1439 12.48C17.3322 15.1903 15.2043 17.3321 12.5024 18.1632C12.4198 17.8619 12.3366 17.456 12.3114 16.9886C12.2568 15.9765 12.4719 14.6923 13.5529 13.5131Z" fill="currentcolor" />
</svg>
