<svg width="20" height="20" viewBox="0 0 20 20" fill="currentcolor" xmlns="http://www.w3.org/2000/svg">
  <path fill-rule="evenodd" d="M10 20C15.5228 20 20 15.5228 20 10C20 4.47715 15.5228 0 10 0C4.47715 0 0 4.47715 0 10C0 15.5228 4.47715 20 10 20ZM18.4988 9.85634C18.1731 9.84535 17.7715 9.86451 17.3083 9.94987C16.1923 10.1555 14.7604 10.7377 13.1965 12.1359L11.0607 10L16.5174 4.54323C17.7263 5.98558 18.4653 7.83513 18.4988 9.85634ZM10 8.93935L15.4568 3.48257C14.0144 2.27367 12.1649 1.53468 10.1437 1.50119C10.1547 1.82689 10.1355 2.2285 10.0501 2.69169C9.84445 3.80772 9.26232 5.23963 7.86415 6.8035L10 8.93935ZM6.80349 7.86416L8.93935 10L3.48257 15.4568C2.27367 14.0144 1.53469 12.1649 1.50119 10.1437C1.82689 10.1547 2.2285 10.1355 2.69168 10.0501C3.80771 9.84446 5.23962 9.26233 6.80349 7.86416ZM6.80163 5.74098C7.98667 4.39527 8.4249 3.23414 8.57497 2.41983C8.63421 2.09837 8.64975 1.82451 8.64593 1.60726C7.09936 1.85484 5.6921 2.51963 4.54322 3.48257L6.80163 5.74098ZM3.48256 4.54323L5.74097 6.80164C4.39527 7.98668 3.23413 8.42491 2.41982 8.57498C2.09836 8.63422 1.82451 8.64976 1.60726 8.64595C1.85484 7.09937 2.51962 5.69211 3.48256 4.54323ZM10 11.0607L12.1359 13.1965C10.7377 14.7604 10.1556 16.1923 9.94989 17.3083C9.86453 17.7715 9.84537 18.1731 9.85636 18.4988C7.83515 18.4653 5.98558 17.7263 4.54323 16.5174L10 11.0607ZM13.1984 14.259C12.0133 15.6047 11.5751 16.7659 11.4251 17.5802C11.3658 17.9016 11.3503 18.1755 11.3541 18.3927C12.9006 18.1452 14.3079 17.4804 15.4568 16.5174L13.1984 14.259ZM16.5174 15.4568C17.4804 14.3079 18.1452 12.9006 18.3927 11.3541C18.1755 11.3503 17.9016 11.3658 17.5802 11.425C16.7659 11.5751 15.6047 12.0133 14.259 13.1984L16.5174 15.4568Z" fill="currentcolor" />
</svg>
