<svg width="20" height="21" viewBox="0 0 20 21" fill="currentcolor" xmlns="http://www.w3.org/2000/svg">
  <path fill-rule="evenodd" d="M10 18.5375C14.6944 18.5375 18.5 14.732 18.5 10.0375C18.5 5.34312 14.6944 1.53754 10 1.53754C5.30558 1.53754 1.5 5.34312 1.5 10.0375C1.5 14.732 5.30558 18.5375 10 18.5375ZM10 20.0375C15.5228 20.0375 20 15.5604 20 10.0375C20 4.51469 15.5228 0.0375366 10 0.0375366C4.47715 0.0375366 0 4.51469 0 10.0375C0 15.5604 4.47715 20.0375 10 20.0375Z" fill="currentcolor" />
  <path fill-rule="evenodd" d="M10 10.6782C11.8208 10.6782 13.2969 9.2021 13.2969 7.38129C13.2969 5.56047 11.8208 4.08441 10 4.08441C8.17919 4.08441 6.70312 5.56047 6.70312 7.38129C6.70312 9.2021 8.17919 10.6782 10 10.6782ZM10 12.1782C12.6492 12.1782 14.7969 10.0305 14.7969 7.38129C14.7969 4.73205 12.6492 2.58441 10 2.58441C7.35076 2.58441 5.20312 4.73205 5.20312 7.38129C5.20312 10.0305 7.35076 12.1782 10 12.1782Z" fill="currentcolor" />
  <path fill-rule="evenodd" d="M9.99713 4.80914C9.69535 4.80914 9.41162 4.86466 9.15186 4.98227C8.89508 5.09475 8.67875 5.25678 8.51376 5.47177C8.33948 5.69886 8.25284 5.96294 8.25284 6.25057C8.25284 6.39758 8.27533 6.54109 8.32456 6.67784L8.33119 6.69376C8.3773 6.8044 8.43585 6.90965 8.50624 7.0092C8.48437 7.03098 8.46274 7.05401 8.4423 7.07724C8.32777 7.20813 8.24508 7.36124 8.19031 7.52994C8.13443 7.69821 8.10999 7.88109 8.10999 8.07343C8.10999 8.37773 8.2031 8.65714 8.38568 8.90058L8.38784 8.9034C8.5641 9.13351 8.79672 9.31001 9.07396 9.43726L9.07832 9.43919C9.36056 9.56412 9.6687 9.62343 9.99713 9.62343C10.3252 9.62343 10.633 9.56426 10.9149 9.43964C11.1973 9.3165 11.4342 9.14144 11.6121 8.90912L11.6143 8.90626C11.7977 8.66174 11.89 8.38016 11.89 8.07343C11.89 7.87552 11.8632 7.68734 11.8009 7.5154C11.7409 7.346 11.6512 7.19404 11.5293 7.06526C11.5147 7.04886 11.4997 7.03289 11.4844 7.01733C11.5655 6.91311 11.6286 6.79845 11.6707 6.67379C11.7189 6.53837 11.7414 6.39636 11.7414 6.25057C11.7414 5.96294 11.6548 5.69886 11.4805 5.47177C11.3155 5.25678 11.0992 5.09474 10.8424 4.98227C10.5826 4.86466 10.2989 4.80914 9.99713 4.80914ZM9.73318 5.88219C9.81365 5.83959 9.90233 5.81914 9.99711 5.81914C10.0919 5.81914 10.1806 5.83959 10.261 5.88219C10.3408 5.9244 10.404 5.98421 10.4481 6.06112C10.4964 6.13482 10.52 6.21799 10.52 6.30771C10.52 6.40111 10.4964 6.4873 10.4465 6.56248C10.4016 6.63205 10.3383 6.68659 10.261 6.72752L10.2569 6.72972C10.1773 6.76717 10.0901 6.78485 9.99711 6.78485C9.90414 6.78485 9.81697 6.76707 9.73739 6.72962L9.73313 6.72761C9.65629 6.68693 9.59245 6.63322 9.54431 6.56583L9.53966 6.55932C9.49478 6.48452 9.47426 6.39938 9.47426 6.30771C9.47426 6.21882 9.49553 6.13599 9.53994 6.06197L9.54087 6.06041C9.58849 5.98423 9.65317 5.92454 9.73318 5.88219ZM9.70483 7.52207C9.79319 7.47557 9.8914 7.45342 9.99711 7.45342C10.1059 7.45342 10.2062 7.47527 10.2951 7.52207C10.3818 7.5677 10.4511 7.63099 10.4994 7.71232C10.5523 7.79497 10.5771 7.88997 10.5771 7.99342C10.5771 8.09477 10.5515 8.18826 10.4982 8.27061C10.4464 8.35065 10.376 8.41347 10.2894 8.45906L10.2857 8.46102C10.1981 8.50248 10.1013 8.52199 9.99711 8.52199C9.8914 8.52199 9.79319 8.49985 9.70483 8.45334C9.61821 8.40776 9.54781 8.34493 9.49601 8.26489C9.44324 8.18332 9.41711 8.09194 9.41711 7.99342C9.41711 7.88922 9.44226 7.79359 9.49601 7.71053C9.54781 7.63048 9.61821 7.56766 9.70483 7.52207Z" fill="currentcolor" />
</svg>
