<svg
  xmlns="http://www.w3.org/2000/svg"
  width="20"
  height="21"
  viewBox="0 0 20 21"
  fill="none"
>
  <path
    fill-rule="evenodd"
    clip-rule="evenodd"
    d="M20 10.0376C20 15.5604 15.5228 20.0376 10 20.0376C4.47715 20.0376 0 15.5604 0 10.0376C0 4.51475 4.47715 0.0375977 10 0.0375977C15.5228 0.0375977 20 4.51475 20 10.0376ZM18.5 10.0376C18.5 5.34318 14.6944 1.5376 10 1.5376C9.65613 1.5376 9.31704 1.55802 8.98386 1.59771C9.07453 1.96017 9.15839 2.41745 9.18641 2.93694C9.25683 4.24303 8.97193 5.95877 7.55286 7.50685C6.10429 9.0871 4.35042 9.37357 3.00525 9.27059C2.44426 9.22765 1.94833 9.1175 1.56212 9.00473C1.52111 9.34329 1.5 9.68798 1.5 10.0376C1.5 14.732 5.30558 18.5376 10 18.5376C10.3497 18.5376 10.6945 18.5165 11.0332 18.4754C10.9362 18.1031 10.8434 17.6214 10.8136 17.0694C10.7432 15.7634 11.0281 14.0476 12.4471 12.4995C13.8957 10.9193 15.6496 10.6328 16.9948 10.7358C17.5595 10.779 18.0583 10.8904 18.4457 11.0039C18.4816 10.6868 18.5 10.3643 18.5 10.0376ZM3.11974 7.77497C4.14957 7.85381 5.3957 7.64028 6.44713 6.49326C7.52806 5.31407 7.74316 4.0298 7.68858 3.01771C7.66511 2.58241 7.59134 2.20053 7.51463 1.90671C4.82553 2.72767 2.70254 4.84607 1.8752 7.53238C2.1966 7.63305 2.62969 7.73745 3.11974 7.77497ZM13.5529 13.5131C14.6043 12.3661 15.8504 12.1526 16.8803 12.2314C17.3801 12.2697 17.8206 12.3775 18.1439 12.48C17.3322 15.1904 15.2043 17.3322 12.5024 18.1633C12.4198 17.8619 12.3366 17.4561 12.3114 16.9887C12.2568 15.9766 12.4719 14.6923 13.5529 13.5131Z"
    fill="currentColor"
  />
</svg>
