<svg width="20" height="21" viewBox="0 0 20 21" fill="currentcolor" xmlns="http://www.w3.org/2000/svg">
  <path fill-rule="evenodd" d="M10 18.5375C14.6944 18.5375 18.5 14.732 18.5 10.0375C18.5 5.34312 14.6944 1.53754 10 1.53754C5.30558 1.53754 1.5 5.34312 1.5 10.0375C1.5 14.732 5.30558 18.5375 10 18.5375ZM10 20.0375C15.5228 20.0375 20 15.5604 20 10.0375C20 4.51469 15.5228 0.0375366 10 0.0375366C4.47715 0.0375366 0 4.51469 0 10.0375C0 15.5604 4.47715 20.0375 10 20.0375Z" fill="currentcolor" />
  <path d="M6.04858 6.30283C6.12046 6.85042 5.73482 7.3526 5.18724 7.42448C4.63965 7.49636 4.13747 7.11072 4.06559 6.56313C3.99371 6.01555 4.37935 5.51337 4.92693 5.44149C5.47452 5.36961 5.9767 5.75525 6.04858 6.30283Z" fill="currentcolor" />
  <path d="M9.35201 4.05953C9.42389 4.60711 9.03825 5.10929 8.49066 5.18117C7.94308 5.25305 7.4409 4.86742 7.36902 4.31983C7.29714 3.77224 7.68278 3.27006 8.23036 3.19818C8.77795 3.1263 9.28013 3.51194 9.35201 4.05953Z" fill="currentcolor" />
  <path d="M9.6123 7.92446C9.68418 8.47205 9.29854 8.97423 8.75095 9.04611C8.20337 9.11799 7.70119 8.73235 7.62931 8.18476C7.55743 7.63717 7.94307 7.135 8.49065 7.06312C9.03824 6.99124 9.54042 7.37687 9.6123 7.92446Z" fill="currentcolor" />
</svg>
