<svg width="20" height="20" viewBox="0 0 20 20" fill="currentcolor" xmlns="http://www.w3.org/2000/svg">
  <path fill-rule="evenodd" d="M20 10C20 15.5228 15.5228 20 10 20C4.47715 20 0 15.5228 0 10C0 4.47715 4.47715 0 10 0C15.5228 0 20 4.47715 20 10ZM12.4641 17.6457C12.3878 17.9127 12.3496 18.0463 12.248 18.141C12.1465 18.2357 12.0207 18.2624 11.7692 18.3156C11.1985 18.4364 10.6067 18.5 10 18.5C9.39331 18.5 8.80147 18.4364 8.23076 18.3156C7.97928 18.2624 7.85353 18.2357 7.75195 18.141C7.65038 18.0463 7.61223 17.9127 7.53592 17.6457L6.95987 15.6295C6.89292 15.3952 6.85944 15.278 6.88074 15.1626C6.90204 15.0473 6.97516 14.9498 7.1214 14.7548L7.575 14.15C7.72221 13.9537 7.79582 13.8556 7.90139 13.8028C8.00696 13.75 8.12964 13.75 8.375 13.75H11.625C11.8704 13.75 11.993 13.75 12.0986 13.8028C12.2042 13.8556 12.2778 13.9537 12.425 14.15L12.8786 14.7548C13.0248 14.9498 13.098 15.0473 13.1193 15.1626C13.1406 15.278 13.1071 15.3952 13.0401 15.6295L12.4641 17.6457ZM14.2086 16.9999C14.1522 17.1972 14.1241 17.2958 14.1789 17.3371C14.2337 17.3784 14.3192 17.3251 14.4903 17.2185C15.0157 16.891 15.5027 16.5077 15.9431 16.077C16.0811 15.942 16.1501 15.8745 16.1247 15.8122C16.0994 15.75 16.0011 15.75 15.8046 15.75H14.7166C14.644 15.75 14.6077 15.75 14.5809 15.7702C14.5542 15.7903 14.5442 15.8252 14.5243 15.8951L14.2086 16.9999ZM16.7861 14.25C17.0728 14.25 17.2162 14.25 17.3376 14.1744C17.459 14.0987 17.5175 13.9796 17.6345 13.7413C18.1887 12.6124 18.5 11.3425 18.5 10C18.5 9.93134 18.4586 9.86965 18.3955 9.84261L16.3708 8.9749C16.183 8.89439 16.089 8.85414 15.9896 8.85293C15.8902 8.85171 15.7953 8.88966 15.6055 8.96557L14.6093 9.36404C14.3766 9.45715 14.2602 9.50371 14.181 9.59442C14.1018 9.68514 14.0714 9.80675 14.0106 10.05L13.4296 12.3738C13.3729 12.6008 13.3445 12.7143 13.3669 12.8249C13.3892 12.9356 13.4594 13.0292 13.5998 13.2164L14.075 13.85C14.2222 14.0463 14.2958 14.1444 14.4014 14.1972C14.507 14.25 14.6296 14.25 14.875 14.25H16.7861ZM17.9453 8.01771C18.1027 8.08518 18.1814 8.11892 18.2287 8.07792C18.2761 8.03692 18.2543 7.95564 18.2107 7.79308C18.0566 7.21837 17.8438 6.66769 17.5791 6.14788C17.4856 5.96435 17.4389 5.87258 17.3699 5.88041C17.301 5.88823 17.2756 5.98994 17.2247 6.19336L16.9238 7.397C16.9041 7.47589 16.8942 7.51534 16.9106 7.54832C16.927 7.58129 16.9643 7.59731 17.0391 7.62934L17.9453 8.01771ZM15.7969 3.78333C15.9815 3.95554 16.0738 4.04165 16.1124 4.17242C16.1511 4.30319 16.1181 4.43537 16.052 4.69972L15.4894 6.95002C15.4286 7.19324 15.3982 7.31486 15.319 7.40557C15.2398 7.49629 15.1234 7.54285 14.8907 7.63596L14.1099 7.94826C13.8616 8.04759 13.7374 8.09725 13.6106 8.08197C13.4837 8.06669 13.3749 7.98897 13.1573 7.83352L11.1688 6.41315C10.9635 6.26652 10.8608 6.1932 10.8054 6.08552C10.75 5.97783 10.75 5.85169 10.75 5.59942V4.51556C10.75 4.23241 10.75 4.09083 10.8175 3.97444C10.8851 3.85805 11.008 3.7878 11.2539 3.64732L13.1576 2.55949C13.3827 2.43087 13.4952 2.36655 13.6255 2.36533C13.7557 2.3641 13.861 2.42168 14.0717 2.53684C14.6989 2.87978 15.2782 3.29948 15.7969 3.78333ZM11.1683 1.57963C11.3872 1.60972 11.4967 1.62477 11.5103 1.69508C11.5239 1.76538 11.4262 1.8212 11.2309 1.93284L10.0992 2.57948C10.0508 2.60717 10.0266 2.62101 10 2.62101C9.97344 2.62101 9.94922 2.60717 9.90077 2.57948L8.76914 1.93284C8.57377 1.8212 8.47609 1.76538 8.48971 1.69508C8.50332 1.62477 8.61278 1.60972 8.83171 1.57963C9.21363 1.52713 9.60365 1.5 10 1.5C10.3963 1.5 10.7864 1.52713 11.1683 1.57963ZM6.84244 2.55949C6.61735 2.43087 6.5048 2.36655 6.37454 2.36533C6.24428 2.3641 6.13896 2.42168 5.92832 2.53684C5.30107 2.87978 4.7218 3.29948 4.20314 3.78333C4.01854 3.95554 3.92624 4.04165 3.88756 4.17242C3.84888 4.3032 3.88192 4.43537 3.94801 4.69972L4.51059 6.95002C4.57139 7.19324 4.6018 7.31486 4.68098 7.40557C4.76017 7.49629 4.87656 7.54285 5.10934 7.63596L5.89009 7.94826C6.13841 8.04759 6.26257 8.09725 6.38942 8.08197C6.51628 8.06669 6.62509 7.98897 6.84272 7.83352L8.83124 6.41315C9.03652 6.26652 9.13917 6.1932 9.19458 6.08552C9.25 5.97783 9.25 5.85169 9.25 5.59942V4.51556C9.25 4.23241 9.25 4.09083 9.18245 3.97444C9.11491 3.85805 8.99199 3.7878 8.74614 3.64732L6.84244 2.55949ZM2.77526 6.19337C2.7244 5.98994 2.69897 5.88823 2.63006 5.88041C2.56115 5.87259 2.51441 5.96435 2.42095 6.14788C2.15622 6.6677 1.9434 7.21837 1.78931 7.79308C1.74573 7.95564 1.72393 8.03692 1.77126 8.07792C1.81858 8.11892 1.8973 8.08518 2.05473 8.01771L2.96092 7.62934C3.03567 7.59731 3.07304 7.58129 3.08939 7.54831C3.10575 7.51534 3.09589 7.47589 3.07617 7.397L2.77526 6.19337ZM1.60452 9.84261C1.54141 9.86965 1.5 9.93134 1.5 10C1.5 11.3425 1.81125 12.6124 2.36553 13.7413C2.48252 13.9796 2.54102 14.0987 2.66241 14.1744C2.78379 14.25 2.92718 14.25 3.21394 14.25H5.125C5.37036 14.25 5.49303 14.25 5.59861 14.1972C5.70418 14.1444 5.77779 14.0463 5.925 13.85L6.40023 13.2164C6.54059 13.0292 6.61077 12.9356 6.63313 12.8249C6.65548 12.7143 6.62711 12.6008 6.57037 12.3738L5.98941 10.05C5.9286 9.80675 5.8982 9.68514 5.81902 9.59442C5.73983 9.50371 5.62344 9.45715 5.39066 9.36404L4.39448 8.96557C4.20473 8.88966 4.10985 8.85171 4.0104 8.85292C3.91095 8.85414 3.81702 8.89439 3.62917 8.9749L1.60452 9.84261ZM4.19537 15.75C3.99888 15.75 3.90064 15.75 3.87526 15.8122C3.84988 15.8745 3.91888 15.942 4.05689 16.077C4.49729 16.5077 4.98432 16.891 5.5097 17.2185C5.68075 17.3251 5.76628 17.3784 5.82111 17.3371C5.87593 17.2958 5.84775 17.1972 5.79138 16.9999L5.47572 15.8951C5.45577 15.8252 5.4458 15.7903 5.41906 15.7702C5.39233 15.75 5.35602 15.75 5.28341 15.75H4.19537ZM7.51659 9.97402C7.43663 9.65421 7.39666 9.4943 7.44988 9.34973C7.50311 9.20517 7.63724 9.10936 7.90549 8.91775L9.41876 7.83685C9.69943 7.63637 9.83977 7.53613 10 7.53613C10.1602 7.53613 10.3006 7.63637 10.5812 7.83685L12.0945 8.91775C12.3628 9.10936 12.4969 9.20517 12.5501 9.34973C12.6033 9.4943 12.5634 9.65421 12.4834 9.97402L12.1038 11.4925C12.0128 11.8563 11.9674 12.0382 11.8317 12.1441C11.6961 12.25 11.5086 12.25 11.1336 12.25H8.86636C8.49138 12.25 8.30389 12.25 8.16826 12.1441C8.03263 12.0382 7.98716 11.8563 7.89621 11.4925L7.51659 9.97402Z" fill="currentcolor" />
</svg>
