<svg
  xmlns="http://www.w3.org/2000/svg"
  width="20"
  height="21"
  viewBox="0 0 20 21"
  fill="none"
>
  <path
    d="M6.44558 19.1928C6.44558 20.1472 7.2193 20.9209 8.17372 20.9209C9.12815 20.9209 9.90186 20.1472 9.90186 19.1928C9.90186 18.2383 9.12815 17.4646 8.17372 17.4646C7.2193 17.4646 6.44558 18.2383 6.44558 19.1928Z"
    fill="currentColor"
  />
  <path
    fill-rule="evenodd"
    clip-rule="evenodd"
    d="M6.50703 4.36483C6.48208 4.20995 6.46911 4.05106 6.46911 3.88915C6.46911 2.24983 7.79805 0.920898 9.43736 0.920898C11.0767 0.920898 12.4056 2.24983 12.4056 3.88915C12.4056 3.99802 12.3998 4.10552 12.3883 4.21136C12.4521 4.21788 12.5172 4.22815 12.5834 4.24263C13.5649 4.45702 14.9516 5.08265 16.6005 6.69919C17.4303 7.5127 17.315 8.80836 16.5111 9.53676C15.6937 10.2775 14.4707 10.2056 13.7066 9.48221C13.4363 9.22632 13.2086 9.02641 13.018 8.87143L13.4169 10.8002L15.0079 17.7061C15.3299 19.1038 14.235 20.4253 12.8018 20.3687C11.8042 20.3293 10.9626 19.6175 10.7557 18.6423C10.6007 17.9119 10.3855 16.9083 10.1683 15.9295C10.053 16.0985 9.9177 16.2606 9.75893 16.4104C9.19174 16.9458 8.40281 17.2526 7.37945 17.2526C6.07923 17.2526 5.14733 16.7345 4.52471 15.9778C3.9283 15.2529 3.65385 14.3579 3.52368 13.6269C3.25598 12.1235 4.54883 11.091 5.82376 11.091C6.07285 11.091 6.31323 11.135 6.53675 11.2162C6.53701 10.9305 6.5375 10.6621 6.53834 10.4382C6.5385 10.3932 6.53856 10.3492 6.5385 10.306C6.18311 10.7087 5.69303 11.0043 5.07652 11.0541C3.76635 11.16 2.52909 10.0098 2.89399 8.58007C3.70918 5.38614 5.46655 4.48245 6.50703 4.36483ZM7.97431 3.88915C7.97431 3.08113 8.62934 2.42609 9.43736 2.42609C10.2454 2.42609 10.9004 3.08113 10.9004 3.88915C10.9004 4.56874 10.4371 5.14011 9.80904 5.30458C9.68755 5.32996 9.54675 5.34715 9.3837 5.35124C8.60054 5.323 7.97431 4.67921 7.97431 3.88915ZM9.3785 6.85683C9.35516 6.85719 9.33165 6.85737 9.30798 6.85737H9.28048L9.25306 6.85537C8.42082 6.79447 7.90584 6.46029 7.52988 6.21632L7.51 6.20343C7.16913 5.98237 6.98099 5.8709 6.65801 5.86283C6.30518 5.91182 5.02613 6.31272 4.35243 8.9523C4.31185 9.1113 4.35472 9.25502 4.46108 9.36978C4.57267 9.49018 4.75068 9.57037 4.95532 9.55384C5.24651 9.53032 5.57276 9.2587 5.69122 8.75176C5.86379 8.01321 6.15881 7.6183 6.38847 7.41924C6.44991 7.36598 6.55989 7.28448 6.71567 7.23871C6.88945 7.18765 7.14485 7.1785 7.38639 7.33534C7.57894 7.46037 7.68896 7.63916 7.75501 7.78431C7.82406 7.93603 7.87512 8.11749 7.91482 8.32976C7.99427 8.7546 8.04736 9.41089 8.04352 10.4438C8.04019 11.3409 8.04231 12.9614 8.04319 13.5231C8.04393 13.9939 7.6638 14.2671 7.33232 14.2931C7.00672 14.3187 6.60146 14.1182 6.51436 13.6713L6.39685 13.0683C6.3434 12.7941 6.10316 12.5962 5.82376 12.5962C5.54686 12.5962 5.31226 12.7046 5.16737 12.8516C5.03133 12.9897 4.96963 13.1613 5.00556 13.363C5.11381 13.971 5.3227 14.5786 5.68707 15.0215C6.02522 15.4325 6.53153 15.7474 7.37945 15.7474C8.08589 15.7474 8.48329 15.5447 8.72576 15.3158C8.98313 15.0729 9.14777 14.7226 9.24009 14.3012C9.33212 13.8812 9.34033 13.4441 9.32661 13.0916C9.32099 12.9472 9.31218 12.8251 9.30461 12.7202L9.29988 12.6541C9.29635 12.6035 9.29161 12.5334 9.29151 12.4737C9.29147 12.4512 9.29135 12.381 9.3064 12.3007C9.31255 12.2679 9.33333 12.1607 9.40329 12.0439C9.48121 11.9139 9.70141 11.659 10.0865 11.6762C10.3149 11.6864 10.4693 11.7939 10.5356 11.848C10.608 11.9071 10.6545 11.9669 10.6779 11.9993C10.7256 12.0653 10.7558 12.1279 10.7703 12.1593C10.8029 12.2297 10.8303 12.3072 10.8518 12.3726C10.8973 12.5105 10.9492 12.6953 11.0043 12.9051C11.1157 13.3291 11.2537 13.9083 11.3988 14.5422C11.6897 15.8123 12.016 17.3301 12.2281 18.3299C12.2924 18.6328 12.5532 18.8525 12.8612 18.8646C13.3029 18.8821 13.6404 18.4748 13.5411 18.044L11.9463 11.1216L11.3622 8.29702L11.362 8.29577L11.3616 8.29386C11.3568 8.27052 11.3204 8.09194 11.3389 7.87799C11.3536 7.70704 11.437 7.18663 11.9724 6.97514C12.4371 6.7916 12.9081 6.99383 13.244 7.18937C13.631 7.41461 14.1169 7.79786 14.7415 8.38918C14.9717 8.60712 15.3033 8.59997 15.5005 8.42134C15.7204 8.2221 15.7035 7.92767 15.5467 7.774C14.0643 6.32062 12.9221 5.85729 12.2622 5.71315C12.2083 5.70136 12.1214 5.70063 11.9193 5.81868C11.8174 5.87824 11.709 5.95441 11.5757 6.05193L11.5113 6.09919C11.4002 6.18088 11.2704 6.27628 11.1405 6.36198C10.8733 6.53816 10.551 6.68086 10.1669 6.76707C9.93352 6.82606 9.6891 6.8574 9.43736 6.8574C9.4177 6.8574 9.39807 6.85721 9.3785 6.85683Z"
    fill="currentColor"
  />
</svg>
