<svg
  xmlns="http://www.w3.org/2000/svg"
  width="20"
  height="20"
  viewBox="0 0 20 20"
  fill="none"
>
  <path
    fill-rule="evenodd"
    clip-rule="evenodd"
    d="M2.721 17.2682C4.68112 19.2241 10.2625 20.5217 15.3921 15.3921C20.5243 10.2599 19.2229 4.67559 17.2654 2.71807C15.3079 0.760545 9.72357 -0.540821 4.5914 4.59134C-0.535801 9.71855 0.758097 15.297 2.71246 17.2596C2.71434 17.2615 2.71623 17.2634 2.71813 17.2653L2.721 17.2682ZM2.62201 13.748C2.20858 11.6504 2.65662 8.6455 5.65109 5.65103C8.64557 2.65655 11.6505 2.20852 13.7481 2.62195C13.4702 2.7296 13.1853 2.85479 12.8958 2.99541C11.1681 3.83458 9.13456 5.29338 7.21399 7.21394C5.29342 9.13451 3.83463 11.168 2.99545 12.8957C2.85484 13.1852 2.72966 13.4702 2.62201 13.748ZM3.77884 16.2067L3.77696 16.2048C3.74005 16.1669 3.62791 15.9915 3.69283 15.4771C3.75494 14.985 3.96512 14.3295 4.34347 13.5505C5.09658 12 6.4477 10.0996 8.27368 8.27363C10.0997 6.44765 12 5.09653 13.5505 4.34343C14.3295 3.96507 14.985 3.7549 15.4771 3.69279C15.9956 3.62735 16.1697 3.74179 16.2057 3.77777C16.2417 3.81375 16.3561 3.98789 16.2907 4.50637C16.2286 4.99847 16.0184 5.65398 15.6401 6.43294C14.8869 7.98345 13.5358 9.88382 11.7098 11.7098C9.88387 13.5358 7.9835 14.8869 6.43299 15.64C5.65402 16.0184 4.99852 16.2285 4.50642 16.2906C3.99269 16.3555 3.81702 16.2437 3.77884 16.2067ZM6.23552 17.3615C6.51335 17.2538 6.79825 17.1286 7.08774 16.988C8.81546 16.1488 10.849 14.6901 12.7695 12.7695C14.6901 10.8489 16.1489 8.81542 16.9881 7.0877C17.1287 6.7982 17.2539 6.51328 17.3615 6.23544C17.7749 8.33303 17.3269 11.3379 14.3324 14.3324C11.338 17.3268 8.33311 17.7749 6.23552 17.3615Z"
    fill="currentColor"
  />
</svg>
