<svg width="20" height="20" viewBox="0 0 20 20" fill="currentcolor" xmlns="http://www.w3.org/2000/svg">
  <path d="M19.3023 2C19.6876 2 20 2.307 20 2.68571C20 3.06442 19.6876 3.37143 19.3023 3.37143L0.69766 3.37143C0.312344 3.37143 -1.33514e-05 3.06443 -1.33514e-05 2.68572C-1.33514e-05 2.30701 0.312344 2 0.69766 2H19.3023Z" fill="currentcolor" />
  <path d="M16.279 10C16.279 9.62129 15.9667 9.31429 15.5814 9.31429L0.697643 9.31429C0.312328 9.31429 -3.05176e-05 9.62129 -3.05176e-05 10C-3.05176e-05 10.3787 0.312328 10.6857 0.697643 10.6857L15.5814 10.6857C15.9667 10.6857 16.279 10.3787 16.279 10Z" fill="currentcolor" />
  <path d="M20 17.3143C20 16.9356 19.6876 16.6286 19.3023 16.6286L0.69766 16.6286C0.312344 16.6286 -1.33514e-05 16.9356 -1.33514e-05 17.3143C-1.33514e-05 17.693 0.312344 18 0.69766 18L19.3023 18C19.6876 18 20 17.693 20 17.3143Z" fill="currentcolor" />
</svg>
