<svg
  xmlns="http://www.w3.org/2000/svg"
  width="21"
  height="20"
  viewBox="0 0 21 20"
  fill="none"
>
  <path
    fill-rule="evenodd"
    clip-rule="evenodd"
    d="M8.22018 1.94202L15.504 1.94202C18.0506 1.94202 20.1151 3.96802 20.1151 6.46722C20.1151 6.87845 19.7754 7.21182 19.3563 7.21182C18.9373 7.21182 18.5976 6.87845 18.5976 6.46722C18.5976 4.79049 17.2126 3.43123 15.504 3.43123H8.26679C6.67968 3.43123 5.55235 3.43232 4.68392 3.52769C3.83055 3.6214 3.32083 3.79834 2.93186 4.08824C2.6943 4.2653 2.4824 4.47325 2.30199 4.70639C2.00659 5.08812 1.82629 5.58836 1.7308 6.42583C1.63362 7.2781 1.63251 8.38444 1.63251 9.94202C1.63251 11.4996 1.63362 12.6059 1.7308 13.4582C1.82629 14.2957 2.00659 14.7959 2.30199 15.1776C2.4824 15.4108 2.6943 15.6187 2.93186 15.7958C3.32083 16.0857 3.83055 16.2626 4.68391 16.3563C5.55235 16.4517 6.67968 16.4528 8.26679 16.4528H15.5041C17.2126 16.4528 18.5976 15.0936 18.5976 13.4169C18.5976 13.0056 18.9373 12.6723 19.3563 12.6723C19.7754 12.6723 20.1151 13.0056 20.1151 13.4169C20.1151 15.916 18.0506 17.942 15.5041 17.942H8.22019C6.69009 17.942 5.47783 17.942 4.51516 17.8363C3.52767 17.7279 2.7101 17.5005 2.0141 16.9818C1.6669 16.723 1.3572 16.4191 1.09352 16.0783C0.564949 15.3953 0.333256 14.5929 0.222754 13.6238C0.115032 12.6791 0.115041 11.4894 0.115051 9.98776V9.89627C0.115041 8.39466 0.115032 7.20496 0.222754 6.26022C0.333256 5.29111 0.564949 4.48875 1.09352 3.80571C1.3572 3.46497 1.6669 3.16104 2.0141 2.90227C2.7101 2.38354 3.52767 2.15616 4.51516 2.04771C5.47783 1.942 6.69009 1.94201 8.22018 1.94202Z"
    fill="currentColor"
  />
  <path
    fill-rule="evenodd"
    clip-rule="evenodd"
    d="M19.3563 8.45283C19.7754 8.45283 20.1151 8.7862 20.1151 9.19743V10.6866C20.1151 11.0979 19.7754 11.4313 19.3563 11.4313C18.9373 11.4313 18.5976 11.0979 18.5976 10.6866V9.19743C18.5976 8.7862 18.9373 8.45283 19.3563 8.45283Z"
    fill="currentColor"
  />
  <path
    fill-rule="evenodd"
    clip-rule="evenodd"
    d="M5.56268 6.71542C5.98171 6.71542 6.3214 7.04879 6.3214 7.46002L6.3214 12.4241C6.3214 12.8353 5.98171 13.1687 5.56268 13.1687C5.14364 13.1687 4.80395 12.8353 4.80395 12.4241L4.80395 7.46002C4.80395 7.04879 5.14364 6.71542 5.56268 6.71542Z"
    fill="currentColor"
  />
</svg>
