<svg width="20" height="21" viewBox="0 0 20 21" fill="currentcolor" xmlns="http://www.w3.org/2000/svg">
  <path d="M7.9814 8.95183C7.56974 8.95183 7.23625 9.28784 7.23625 9.70204V14.5704C7.23625 14.9846 7.56974 15.3206 7.9814 15.3206C8.39306 15.3206 8.72656 14.9846 8.72656 14.5704V9.70204C8.72656 9.28784 8.39306 8.95183 7.9814 8.95183Z" fill="currentcolor" />
  <path d="M11.8492 8.95183C11.4375 8.95183 11.104 9.28784 11.104 9.70204V14.5704C11.104 14.9846 11.4375 15.3206 11.8492 15.3206C12.2608 15.3206 12.5943 14.9846 12.5943 14.5704V9.70204C12.5943 9.28784 12.2608 8.95183 11.8492 8.95183Z" fill="currentcolor" />
  <path fill-rule="evenodd" d="M14.511 3.18722C14.5353 3.42349 14.5449 3.69281 14.5486 3.99378C14.6333 4.00304 14.716 4.01323 14.7967 4.02444C15.7187 4.15257 16.4937 4.42758 17.0887 5.07168C17.6838 5.71577 17.9002 6.51395 17.9606 7.44913C18.0188 8.35066 17.9367 9.49329 17.8348 10.9118L17.5471 14.9158C17.458 16.1566 17.3858 17.161 17.2255 17.9494C17.0587 18.77 16.7784 19.4578 16.2031 19.9967C15.6278 20.5356 14.9263 20.7675 14.1014 20.8759C13.3088 20.98 12.3087 20.98 11.0733 20.98H9.07507C7.87246 20.98 6.89806 20.98 6.12376 20.8796C5.31738 20.775 4.63009 20.5514 4.05976 20.0323C3.48945 19.5133 3.19928 18.8473 3.0147 18.05C2.83745 17.2844 2.73928 16.3083 2.61811 15.1034L2.21541 11.0997C2.06924 9.64671 1.95162 8.4775 1.98601 7.55398C2.02164 6.5968 2.22247 5.77659 2.82031 5.11054C3.41817 4.44447 4.20839 4.1606 5.1506 4.02843C5.20847 4.02032 5.26739 4.01272 5.32737 4.0056C5.33098 3.69986 5.34042 3.42658 5.36506 3.18722C5.40726 2.77736 5.50038 2.38297 5.74317 2.02607C5.90997 1.78088 6.12045 1.56894 6.36395 1.40097C6.71842 1.15647 7.11014 1.06269 7.51722 1.02019C7.90272 0.979947 8.37779 0.979963 8.93426 0.979981H10.9428C11.4993 0.979963 11.9734 0.979947 12.3589 1.02019C12.7659 1.06269 13.1577 1.15647 13.5121 1.40097C13.7556 1.56894 13.9661 1.78088 14.1329 2.02607C14.3757 2.38297 14.4688 2.77736 14.511 3.18722ZM13.0287 3.34193C13.0449 3.4997 13.0529 3.68413 13.0568 3.9113C12.5417 3.90094 11.976 3.90095 11.3577 3.90096H8.67709C7.99624 3.90095 7.37781 3.90094 6.81919 3.91413C6.82311 3.68566 6.83112 3.50036 6.84743 3.34193C6.87715 3.0533 6.92787 2.93987 6.97274 2.87391C7.03549 2.78166 7.11468 2.70193 7.20628 2.63874C7.27174 2.59359 7.38433 2.54252 7.67093 2.5126C7.97041 2.48134 8.36657 2.4804 8.9711 2.4804H10.905C11.5095 2.4804 11.9057 2.48134 12.2051 2.5126C12.4917 2.54252 12.6043 2.59359 12.6698 2.63874C12.7614 2.70193 12.8406 2.78166 12.9033 2.87391C12.9482 2.93987 12.9989 3.0533 13.0287 3.34193ZM5.35625 5.51449C6.15042 5.40309 7.21329 5.40137 8.73467 5.40137H11.301C12.7834 5.40137 13.8179 5.40306 14.5929 5.51076C15.3465 5.61549 15.732 5.80619 15.9975 6.09355C16.263 6.38093 16.4241 6.78192 16.4734 7.54645C16.5242 8.33262 16.4512 9.37174 16.3443 10.8606L16.0645 14.7552C15.9707 16.0608 15.904 16.9671 15.7655 17.6485C15.6312 18.3087 15.4478 18.6548 15.1879 18.8982C14.9281 19.1416 14.5721 19.3009 13.9085 19.3881C13.2237 19.4781 12.3211 19.4796 11.0212 19.4796H9.12641C7.86032 19.4796 6.98218 19.4781 6.31418 19.3915C5.66728 19.3076 5.31727 19.1542 5.05916 18.9193C4.80103 18.6844 4.6142 18.3491 4.4661 17.7094C4.31318 17.0489 4.22325 16.1693 4.09567 14.9009L3.70394 11.0062C3.55063 9.48208 3.44523 8.41706 3.47527 7.61019C3.50451 6.82484 3.66004 6.41286 3.92602 6.11653C4.19199 5.82021 4.58331 5.62291 5.35625 5.51449Z" fill="currentcolor" />
</svg>
