<svg
  xmlns="http://www.w3.org/2000/svg"
  width="20"
  height="20"
  viewBox="0 0 20 20"
  fill="none"
>
  <path
    d="M10.2155 0.129309C10.7244 -0.137433 11.2048 0.0651465 11.4956 0.230807C11.7804 0.393065 12.1123 0.654029 12.4665 0.93261L16.7831 4.32628C17.0739 4.55483 17.3571 4.77743 17.557 4.98929C17.7741 5.21933 18.0395 5.58786 17.9951 6.10363C17.9507 6.61963 17.6264 6.93278 17.3734 7.1186C17.1404 7.28965 16.8237 7.45561 16.4986 7.62592L13.5661 9.16292L11.8454 8.26404L15.7619 6.21129C15.9798 6.0971 16.1421 6.01131 16.2656 5.94104C16.156 5.84865 16.0107 5.73365 15.8155 5.58019L11.5829 2.25247C11.3497 2.06916 11.1713 1.92967 11.0284 1.82498C11.0225 2.00834 11.0219 2.24295 11.0219 2.55065V7.83379L9.4805 7.02855L9.4805 2.49402C9.48043 2.02942 9.48037 1.59492 9.52737 1.25919C9.57526 0.917085 9.70802 0.395302 10.2155 0.129309Z"
    fill="currentColor"
  />
  <path
    fill-rule="evenodd"
    clip-rule="evenodd"
    d="M2.90769 5.28717C2.57824 5.22486 2.23676 5.39385 2.08093 5.72056C1.89235 6.11592 2.044 6.59871 2.425 6.79841L8.53337 10L2.425 13.2016C2.044 13.4013 1.89235 13.8841 2.08093 14.2794C2.27027 14.6764 2.73368 14.8405 3.11659 14.6398L9.4805 11.3043L9.4805 17.506C9.48043 17.9706 9.48037 18.4051 9.52737 18.7408C9.57526 19.0829 9.70802 19.6047 10.2155 19.8707C10.7244 20.1374 11.2048 19.9349 11.4956 19.7692C11.7804 19.6069 12.1123 19.346 12.4665 19.0674L16.783 15.6737C17.0739 15.4452 17.3571 15.2226 17.557 15.0107C17.7741 14.7807 18.0395 14.4121 17.9951 13.8964C17.9507 13.3804 17.6264 13.0672 17.3734 12.8814C17.2875 12.8183 17.1901 12.7559 17.0852 12.6937L2.90769 5.28717ZM11.0219 11.3043V17.4493C11.0219 17.757 11.0225 17.9917 11.0284 18.175C11.1713 18.0703 11.3497 17.9308 11.5829 17.7475L15.8155 14.4198C16.0107 14.2663 16.156 14.1513 16.2656 14.059C16.1421 13.9887 15.9798 13.9029 15.7619 13.7887L11.0219 11.3043Z"
    fill="currentColor"
  />
</svg>
