<svg width="20" height="20" viewBox="0 0 20 20" fill="currentColor" xmlns="http://www.w3.org/2000/svg">
  <path d="M10.2154 0.129309C10.7243 -0.137433 11.2047 0.0651465 11.4955 0.230807C11.7803 0.393065 12.1121 0.654029 12.4664 0.93261L16.7829 4.32628C17.0738 4.55483 17.357 4.77743 17.5569 4.98929C17.7739 5.21933 18.0393 5.58786 17.995 6.10363C17.9506 6.61963 17.6263 6.93278 17.3733 7.1186C17.1403 7.28965 16.8235 7.45561 16.4984 7.62592L13.5659 9.16292L11.8453 8.26404L15.7618 6.21129C15.9797 6.0971 16.142 6.01131 16.2654 5.94104C16.1559 5.84865 16.0106 5.73365 15.8154 5.58019L11.5827 2.25247C11.3496 2.06916 11.1711 1.92967 11.0283 1.82498C11.0224 2.00834 11.0217 2.24295 11.0217 2.55065V7.83379L9.48038 7.02855L9.48037 2.49402C9.48031 2.02942 9.48025 1.59492 9.52725 1.25919C9.57514 0.917085 9.7079 0.395302 10.2154 0.129309Z" fill="currentColor" />
  <path fill-rule="evenodd" d="M2.90757 5.28717C2.57812 5.22486 2.23664 5.39385 2.08081 5.72056C1.89223 6.11592 2.04388 6.59871 2.42487 6.79841L8.53325 10L2.42487 13.2016C2.04388 13.4013 1.89223 13.8841 2.08081 14.2794C2.27015 14.6764 2.73355 14.8405 3.11646 14.6398L9.48038 11.3043L9.48037 17.506C9.48031 17.9706 9.48025 18.4051 9.52725 18.7408C9.57514 19.0829 9.7079 19.6047 10.2154 19.8707C10.7243 20.1374 11.2047 19.9349 11.4955 19.7692C11.7803 19.6069 12.1121 19.346 12.4664 19.0674L16.7829 15.6737C17.0737 15.4452 17.357 15.2226 17.5569 15.0107C17.7739 14.7807 18.0393 14.4121 17.995 13.8964C17.9506 13.3804 17.6263 13.0672 17.3733 12.8814C17.2873 12.8183 17.19 12.7559 17.085 12.6937L2.90757 5.28717ZM11.0217 11.3043V17.4493C11.0217 17.757 11.0224 17.9917 11.0283 18.175C11.1711 18.0703 11.3496 17.9308 11.5827 17.7475L15.8154 14.4198C16.0106 14.2663 16.1559 14.1513 16.2654 14.059C16.142 13.9887 15.9797 13.9029 15.7618 13.7887L11.0217 11.3043Z" fill="currentColor" />
</svg>
