<svg width="20" height="20" viewBox="0 0 20 20" fill="currentcolor" xmlns="http://www.w3.org/2000/svg">
  <path d="M8.09815 4.59387C7.68039 4.59387 7.34172 4.93253 7.34172 5.35029C7.34172 5.76805 7.68039 6.10671 8.09815 6.10671H14.5098C14.9276 6.10671 15.2662 5.76805 15.2662 5.35029C15.2662 4.93253 14.9276 4.59387 14.5098 4.59387H8.09815Z" fill="currentcolor" />
  <path d="M8.09815 7.34172C7.68039 7.34172 7.34172 7.68039 7.34172 8.09815C7.34172 8.51591 7.68039 8.85457 8.09815 8.85457H14.5098C14.9276 8.85457 15.2662 8.51591 15.2662 8.09815C15.2662 7.68039 14.9276 7.34172 14.5098 7.34172H8.09815Z" fill="currentcolor" />
  <path d="M8.09815 10.0896C7.68039 10.0896 7.34172 10.4282 7.34172 10.846C7.34172 11.2638 7.68039 11.6024 8.09815 11.6024H11.762C12.1797 11.6024 12.5184 11.2638 12.5184 10.846C12.5184 10.4282 12.1797 10.0896 11.762 10.0896H8.09815Z" fill="currentcolor" />
  <path fill-rule="evenodd" d="M11.8181 0.930054H10.7899C9.32617 0.930038 8.15093 0.930025 7.22754 1.05417C6.27069 1.18282 5.4719 1.45711 4.83843 2.09057C4.20497 2.72404 3.93067 3.52284 3.80203 4.47969C3.67788 5.40308 3.6779 6.57832 3.67791 8.04204V9.07021C3.6779 10.5339 3.67788 11.7092 3.80203 12.6326C3.93067 13.5894 4.20497 14.3882 4.83843 15.0217C5.4719 15.6551 6.27069 15.9294 7.22754 16.0581C8.15094 16.1822 9.32618 16.1822 10.7899 16.1822H11.818C13.2818 16.1822 14.457 16.1822 15.3804 16.0581C16.3373 15.9294 17.1361 15.6551 17.7695 15.0217C18.403 14.3882 18.6773 13.5894 18.8059 12.6326C18.9301 11.7092 18.9301 10.5339 18.9301 9.07015V8.0421C18.9301 6.57835 18.9301 5.40309 18.8059 4.47969C18.6773 3.52284 18.403 2.72404 17.7695 2.09057C17.1361 1.45711 16.3373 1.18282 15.3804 1.05417C14.457 0.930025 13.2818 0.930038 11.8181 0.930054ZM7.42913 2.55353C8.23999 2.44451 9.31335 2.4429 10.846 2.4429H11.762C13.2946 2.4429 14.368 2.44451 15.1788 2.55353C15.9679 2.65962 16.3943 2.85479 16.6998 3.16032C17.0053 3.46585 17.2005 3.89219 17.3066 4.68127C17.4156 5.49214 17.4172 6.56549 17.4172 8.09815V9.0141C17.4172 10.5468 17.4156 11.6201 17.3066 12.431C17.2005 13.2201 17.0053 13.6464 16.6998 13.9519C16.3943 14.2575 15.9679 14.4526 15.1788 14.5587C14.368 14.6677 13.2946 14.6693 11.762 14.6693H10.846C9.31334 14.6693 8.23999 14.6677 7.42913 14.5587C6.64005 14.4526 6.21371 14.2575 5.90818 13.9519C5.60264 13.6464 5.40748 13.2201 5.30139 12.431C5.19237 11.6201 5.19076 10.5468 5.19076 9.0141V8.09815C5.19076 6.56549 5.19237 5.49214 5.30139 4.68127C5.40748 3.89219 5.60264 3.46585 5.90818 3.16032C6.21371 2.85479 6.64005 2.65962 7.42913 2.55353Z" fill="currentcolor" />
  <path d="M1.68648 3.67791C1.26872 3.67791 0.930054 4.01658 0.930054 4.43434V7.24067C0.930044 9.78191 0.930036 11.7664 1.13801 13.3133C1.35049 14.8937 1.79246 16.13 2.76126 17.0988C3.73007 18.0676 4.9664 18.5096 6.54682 18.7221C8.09369 18.9301 10.0782 18.9301 12.6194 18.9301H15.4258C15.8435 18.9301 16.1822 18.5914 16.1822 18.1736C16.1822 17.7559 15.8435 17.4172 15.4258 17.4172H12.6779C10.0658 17.4172 8.18285 17.4156 6.74841 17.2227C5.33575 17.0328 4.47188 16.67 3.83101 16.0291C3.19014 15.3882 2.82729 14.5244 2.63736 13.1117C2.44451 11.6773 2.4429 9.79431 2.4429 7.1822V4.43434C2.4429 4.01658 2.10424 3.67791 1.68648 3.67791Z" fill="currentcolor" />
</svg>
