<svg
  xmlns="http://www.w3.org/2000/svg"
  width="20"
  height="20"
  viewBox="0 0 20 20"
  fill="none"
>
  <path
    d="M8.09815 4.59374C7.68039 4.59374 7.34172 4.93241 7.34172 5.35017C7.34172 5.76793 7.68039 6.10659 8.09815 6.10659H14.5098C14.9276 6.10659 15.2662 5.76793 15.2662 5.35017C15.2662 4.93241 14.9276 4.59374 14.5098 4.59374H8.09815Z"
    fill="currentColor"
  />
  <path
    d="M8.09815 7.3416C7.68039 7.3416 7.34172 7.68026 7.34172 8.09803C7.34172 8.51579 7.68039 8.85445 8.09815 8.85445H14.5098C14.9276 8.85445 15.2662 8.51579 15.2662 8.09803C15.2662 7.68026 14.9276 7.3416 14.5098 7.3416H8.09815Z"
    fill="currentColor"
  />
  <path
    d="M8.09815 10.0895C7.68039 10.0895 7.34172 10.4281 7.34172 10.8459C7.34172 11.2636 7.68039 11.6023 8.09815 11.6023H11.762C12.1797 11.6023 12.5184 11.2636 12.5184 10.8459C12.5184 10.4281 12.1797 10.0895 11.762 10.0895H8.09815Z"
    fill="currentColor"
  />
  <path
    fill-rule="evenodd"
    clip-rule="evenodd"
    d="M11.8181 0.929932H10.7899C9.32617 0.929916 8.15093 0.929903 7.22754 1.05405C6.27069 1.18269 5.4719 1.45699 4.83843 2.09045C4.20497 2.72392 3.93067 3.52272 3.80203 4.47956C3.67788 5.40296 3.6779 6.57819 3.67791 8.04192V9.07009C3.6779 10.5338 3.67788 11.7091 3.80203 12.6324C3.93067 13.5893 4.20497 14.3881 4.83843 15.0216C5.4719 15.655 6.27069 15.9293 7.22754 16.058C8.15094 16.1821 9.32618 16.1821 10.7899 16.1821H11.818C13.2818 16.1821 14.457 16.1821 15.3804 16.058C16.3373 15.9293 17.1361 15.655 17.7695 15.0216C18.403 14.3881 18.6773 13.5893 18.8059 12.6324C18.9301 11.709 18.9301 10.5338 18.9301 9.07003V8.04198C18.9301 6.57823 18.9301 5.40297 18.8059 4.47956C18.6773 3.52272 18.403 2.72392 17.7695 2.09045C17.1361 1.45699 16.3373 1.18269 15.3804 1.05405C14.457 0.929903 13.2818 0.929916 11.8181 0.929932ZM7.42913 2.55341C8.23999 2.44439 9.31335 2.44278 10.846 2.44278H11.762C13.2946 2.44278 14.368 2.44439 15.1788 2.55341C15.9679 2.6595 16.3943 2.85467 16.6998 3.1602C17.0053 3.46573 17.2005 3.89207 17.3066 4.68115C17.4156 5.49201 17.4172 6.56537 17.4172 8.09803V9.01398C17.4172 10.5466 17.4156 11.62 17.3066 12.4309C17.2005 13.2199 17.0053 13.6463 16.6998 13.9518C16.3943 14.2573 15.9679 14.4525 15.1788 14.5586C14.368 14.6676 13.2946 14.6692 11.762 14.6692H10.846C9.31334 14.6692 8.23999 14.6676 7.42913 14.5586C6.64005 14.4525 6.21371 14.2573 5.90818 13.9518C5.60264 13.6463 5.40748 13.2199 5.30139 12.4309C5.19237 11.62 5.19076 10.5466 5.19076 9.01398V8.09803C5.19076 6.56537 5.19237 5.49201 5.30139 4.68115C5.40748 3.89207 5.60264 3.46573 5.90818 3.1602C6.21371 2.85467 6.64005 2.6595 7.42913 2.55341Z"
    fill="currentColor"
  />
  <path
    d="M1.68648 3.67779C1.26872 3.67779 0.930054 4.01645 0.930054 4.43422V7.24054C0.930044 9.78179 0.930036 11.7663 1.13801 13.3132C1.35049 14.8936 1.79246 16.1299 2.76126 17.0987C3.73007 18.0675 4.9664 18.5095 6.54682 18.722C8.09369 18.93 10.0782 18.9299 12.6194 18.9299H15.4258C15.8435 18.9299 16.1822 18.5913 16.1822 18.1735C16.1822 17.7557 15.8435 17.4171 15.4258 17.4171H12.6779C10.0658 17.4171 8.18285 17.4155 6.74841 17.2226C5.33575 17.0327 4.47188 16.6698 3.83101 16.029C3.19014 15.3881 2.82729 14.5242 2.63736 13.1116C2.44451 11.6771 2.4429 9.79418 2.4429 7.18207V4.43422C2.4429 4.01645 2.10424 3.67779 1.68648 3.67779Z"
    fill="currentColor"
  />
</svg>
