<svg
  xmlns="http://www.w3.org/2000/svg"
  width="20"
  height="20"
  viewBox="0 0 20 20"
  fill="none"
>
  <path
    fill-rule="evenodd"
    clip-rule="evenodd"
    d="M10.687 3.74786C8.3722 3.74786 6.49572 5.62434 6.49572 7.93911C6.49572 10.2539 8.3722 12.1304 10.687 12.1304C11.571 12.1304 12.3912 11.8566 13.0673 11.3893L14.5029 12.8248C14.7983 13.1202 15.2772 13.1202 15.5726 12.8248C15.868 12.5294 15.868 12.0505 15.5726 11.7551L14.1371 10.3195C14.6044 9.6434 14.8782 8.82313 14.8782 7.93911C14.8782 5.62434 13.0017 3.74786 10.687 3.74786ZM8.00857 7.93911C8.00857 6.45987 9.20773 5.26071 10.687 5.26071C12.1662 5.26071 13.3654 6.45987 13.3654 7.93911C13.3654 9.41835 12.1662 10.6175 10.687 10.6175C9.20773 10.6175 8.00857 9.41835 8.00857 7.93911Z"
    fill="currentColor"
  />
  <path
    fill-rule="evenodd"
    clip-rule="evenodd"
    d="M11.888 1H10.8598C9.39612 0.999984 8.22087 0.999972 7.29749 1.12412C6.34064 1.25276 5.54184 1.52706 4.90838 2.16052C4.27491 2.79398 4.00062 3.59278 3.87198 4.54963C3.74783 5.47302 3.74784 6.64826 3.74786 8.11198V9.14016C3.74784 10.6039 3.74783 11.7791 3.87198 12.7025C4.00062 13.6594 4.27491 14.4582 4.90838 15.0916C5.54184 15.7251 6.34064 15.9994 7.29749 16.128C8.22087 16.2522 9.39614 16.2522 10.8598 16.2521H11.8881C13.3518 16.2522 14.527 16.2522 15.4504 16.128C16.4072 15.9994 17.206 15.7251 17.8395 15.0916C18.4729 14.4582 18.7472 13.6594 18.8759 12.7025C19 11.7791 19 10.6039 19 9.14017V8.11198C19 6.64826 19 5.47302 18.8759 4.54963C18.7472 3.59278 18.4729 2.79398 17.8395 2.16052C17.206 1.52706 16.4072 1.25276 15.4504 1.12412C14.527 0.999972 13.3517 0.999984 11.888 1ZM7.49907 2.62348C8.30994 2.51446 9.38329 2.51285 10.916 2.51285H11.8319C13.3646 2.51285 14.4379 2.51446 15.2488 2.62348C16.0379 2.72956 16.4642 2.92473 16.7697 3.23027C17.0753 3.5358 17.2704 3.96214 17.3765 4.75122C17.4855 5.56208 17.4872 6.63543 17.4872 8.1681V9.08405C17.4872 10.6167 17.4855 11.6901 17.3765 12.5009C17.2704 13.29 17.0753 13.7163 16.7697 14.0219C16.4642 14.3274 16.0379 14.5226 15.2488 14.6287C14.4379 14.7377 13.3646 14.7393 11.8319 14.7393H10.916C9.38329 14.7393 8.30994 14.7377 7.49907 14.6287C6.71 14.5226 6.28366 14.3274 5.97812 14.0219C5.67259 13.7163 5.47742 13.29 5.37133 12.5009C5.26232 11.6901 5.26071 10.6167 5.26071 9.08405V8.1681C5.26071 6.63543 5.26232 5.56208 5.37133 4.75122C5.47742 3.96214 5.67259 3.5358 5.97812 3.23027C6.28366 2.92473 6.71 2.72956 7.49907 2.62348Z"
    fill="currentColor"
  />
  <path
    d="M1.75642 3.74786C1.33866 3.74786 1 4.08652 1 4.50428V7.31061C0.99999 9.85186 0.999983 11.8364 1.20795 13.3832C1.42044 14.9637 1.8624 16.2 2.83121 17.1688C3.80002 18.1376 5.03635 18.5796 6.61677 18.792C8.16365 19 10.1482 19 12.6895 19H15.4957C15.9135 19 16.2521 18.6613 16.2521 18.2436C16.2521 17.8258 15.9135 17.4872 15.4957 17.4872H12.7479C10.1357 17.4872 8.25279 17.4855 6.81836 17.2927C5.40569 17.1028 4.54183 16.7399 3.90096 16.099C3.26009 15.4582 2.89724 14.5943 2.70731 13.1816C2.51446 11.7472 2.51285 9.86425 2.51285 7.25214V4.50428C2.51285 4.08652 2.17419 3.74786 1.75642 3.74786Z"
    fill="currentColor"
  />
</svg>
