<svg
  xmlns="http://www.w3.org/2000/svg"
  width="20"
  height="20"
  viewBox="0 0 20 20"
  fill="none"
>
  <path
    fill-rule="evenodd"
    clip-rule="evenodd"
    d="M11.9047 2H8.0953C6.40184 1.99999 5.05345 1.99998 3.99656 2.13939C2.90604 2.28325 2.01241 2.58774 1.30597 3.28086C0.599368 3.97415 0.288796 4.85142 0.142103 5.92195C-2.51979e-05 6.95916 -1.3896e-05 8.28232 2.82355e-07 9.94365V10.0564C-1.3896e-05 11.7177 -2.52128e-05 13.0408 0.142103 14.0781C0.288796 15.1486 0.599368 16.0259 1.30597 16.7191C2.01241 17.4123 2.90604 17.7168 3.99655 17.8606C5.05341 18 6.40185 18 8.09521 18H11.9049C13.5983 18 14.9466 18 16.0034 17.8606C17.094 17.7168 17.9876 17.4123 18.694 16.7191C19.4006 16.0259 19.7112 15.1486 19.8579 14.0781C20 13.0408 20 11.7177 20 10.0564V9.94366C20 8.28234 20 6.95916 19.8579 5.92195C19.7112 4.85142 19.4006 3.97415 18.694 3.28086C17.9876 2.58774 17.094 2.28325 16.0034 2.13939C14.9465 1.99998 13.5982 1.99999 11.9047 2ZM4.1994 3.62439C5.1431 3.49991 6.38905 3.49832 8.15247 3.49832H11.8475C13.611 3.49832 14.8569 3.49991 15.8006 3.62439C16.7225 3.746 17.2409 3.97241 17.6168 4.34118C17.9925 4.70978 18.223 5.21799 18.3469 6.12191C18.4737 7.04754 18.4753 8.26972 18.4753 10C18.4753 11.7303 18.4737 12.9525 18.3469 13.8781C18.223 14.782 17.9925 15.2902 17.6168 15.6588C17.2409 16.0276 16.7225 16.254 15.8006 16.3756C14.8569 16.5001 13.611 16.5017 11.8475 16.5017H8.15247C6.38905 16.5017 5.1431 16.5001 4.1994 16.3756C3.27753 16.254 2.75908 16.0276 2.38323 15.6588C2.00754 15.2902 1.777 14.782 1.65314 13.8781C1.5263 12.9525 1.52468 11.7303 1.52468 10C1.52468 8.26972 1.5263 7.04754 1.65314 6.12191C1.777 5.21799 2.00754 4.70978 2.38323 4.34118C2.75908 3.97241 3.27753 3.746 4.1994 3.62439Z"
    fill="currentColor"
  />
  <path
    d="M5 6.00195C5 6.55424 4.55228 7.00195 4 7.00195C3.44772 7.00195 3 6.55424 3 6.00195C3 5.44967 3.44772 5.00195 4 5.00195C4.55228 5.00195 5 5.44967 5 6.00195Z"
    fill="currentColor"
  />
  <path
    d="M6.76364 5.25195C6.34189 5.25195 6 5.58774 6 6.00195C6 6.41617 6.34189 6.75195 6.76364 6.75195H16.4364C16.8581 6.75195 17.2 6.41617 17.2 6.00195C17.2 5.58774 16.8581 5.25195 16.4364 5.25195H6.76364Z"
    fill="currentColor"
  />
</svg>
