<svg
  xmlns="http://www.w3.org/2000/svg"
  width="21"
  height="20"
  viewBox="0 0 21 20"
  fill="none"
>
  <path
    fill-rule="evenodd"
    clip-rule="evenodd"
    d="M12.8348 2H9.02535C7.33189 1.99999 5.98351 1.99998 4.92661 2.13939C3.83609 2.28325 2.94246 2.58774 2.23602 3.28086C1.52942 3.97415 1.21885 4.85142 1.07216 5.92195C0.930029 6.95916 0.93004 8.28232 0.930054 9.94365V10.0564C0.93004 11.7177 0.930029 13.0408 1.07216 14.0781C1.21885 15.1486 1.52942 16.0259 2.23602 16.7191C2.94246 17.4123 3.83609 17.7168 4.92661 17.8606C5.98347 18 7.3319 18 9.02526 18H12.8349C14.5283 18 15.8766 18 16.9335 17.8606C18.024 17.7168 18.9177 17.4123 19.6241 16.7191C20.3307 16.0259 20.6413 15.1486 20.788 14.0781C20.9301 13.0409 20.9301 11.7177 20.9301 10.0564V9.94348C20.9301 8.28224 20.9301 6.95912 20.788 5.92195C20.6413 4.85142 20.3307 3.97415 19.6241 3.28086C18.9177 2.58774 18.024 2.28325 16.9335 2.13939C15.8766 1.99998 14.5282 1.99999 12.8348 2ZM5.12946 3.62439C6.07316 3.49991 7.31911 3.49832 9.08252 3.49832H12.7776C14.541 3.49832 15.787 3.49991 16.7307 3.62439C17.6525 3.746 18.171 3.97241 18.5468 4.34118C18.9225 4.70978 19.153 5.21799 19.2769 6.12191C19.4038 7.04754 19.4054 8.26972 19.4054 10C19.4054 11.7303 19.4038 12.9525 19.2769 13.8781C19.153 14.782 18.9225 15.2902 18.5468 15.6588C18.171 16.0276 17.6525 16.254 16.7307 16.3756C15.787 16.5001 14.541 16.5017 12.7776 16.5017H9.08252C7.31911 16.5017 6.07316 16.5001 5.12946 16.3756C4.20759 16.254 3.68913 16.0276 3.31328 15.6588C2.9376 15.2902 2.70706 14.782 2.58319 13.8781C2.45636 12.9525 2.45473 11.7303 2.45473 10C2.45473 8.26972 2.45636 7.04754 2.58319 6.12191C2.70706 5.21799 2.9376 4.70978 3.31328 4.34118C3.68913 3.97241 4.20759 3.746 5.12946 3.62439Z"
    fill="currentColor"
  />
  <path
    d="M6.34887 5.95677C6.34887 6.46171 5.93239 6.87105 5.41864 6.87105C4.90488 6.87105 4.4884 6.46171 4.4884 5.95677C4.4884 5.45182 4.90488 5.04248 5.41864 5.04248C5.93239 5.04248 6.34887 5.45182 6.34887 5.95677Z"
    fill="currentColor"
  />
  <path
    d="M8.20935 6.87105C8.7231 6.87105 9.13958 6.46171 9.13958 5.95677C9.13958 5.45182 8.7231 5.04248 8.20935 5.04248C7.69559 5.04248 7.27911 5.45182 7.27911 5.95677C7.27911 6.46171 7.69559 6.87105 8.20935 6.87105Z"
    fill="currentColor"
  />
</svg>
