<svg width="20" height="21" viewBox="0 0 20 21" fill="currentcolor" xmlns="http://www.w3.org/2000/svg">
  <path d="M7.25714 19.1927C7.25714 19.0807 7.25714 19.0248 7.26593 18.9782C7.302 18.787 7.44376 18.6376 7.6251 18.5996C7.66926 18.5903 7.72236 18.5903 7.82857 18.5903H12.1714C12.2776 18.5903 12.3307 18.5903 12.3749 18.5996C12.5562 18.6376 12.698 18.787 12.7341 18.9782C12.7429 19.0248 12.7429 19.0807 12.7429 19.1927C12.7429 19.5286 12.7429 19.6966 12.7165 19.8362C12.6083 20.4097 12.183 20.8581 11.639 20.9722C11.5065 20.9999 11.3472 20.9999 11.0286 20.9999H8.97143C8.65281 20.9999 8.4935 20.9999 8.36102 20.9722C7.81699 20.8581 7.39171 20.4097 7.28349 19.8362C7.25714 19.6966 7.25714 19.5286 7.25714 19.1927Z" fill="currentcolor" />
  <path d="M10.0001 0.929932C7.85614 0.929932 5.8491 1.52537 4.36035 2.75606C2.85098 4.00379 1.93005 5.86184 1.93005 8.22885C1.93005 9.5461 2.18181 10.5288 2.61366 11.33C3.03733 12.1161 3.60737 12.6723 4.1252 13.1576C4.17427 13.2036 4.22324 13.2492 4.27198 13.2947C4.75644 13.7465 5.21969 14.1789 5.61131 14.7527C6.0021 15.3252 6.32299 16.0409 6.51602 17.0584C6.59698 17.4851 6.99319 17.768 7.40612 17.6809C7.81777 17.5941 8.07915 17.1746 7.99837 16.7487C7.51361 14.1935 6.29676 13.06 5.28611 12.1186L5.28514 12.1177C5.23349 12.0696 5.18245 12.022 5.13205 11.9748C4.62122 11.4961 4.21989 11.0885 3.9293 10.5494C3.64686 10.0253 3.44148 9.32122 3.44148 8.22885C3.44148 6.33728 4.15791 4.94232 5.2958 4.00168C5.37275 3.93806 5.45187 3.87635 5.53309 3.81655C6.6746 2.97618 8.23038 2.51571 10.0001 2.51571C10.2146 2.51571 10.426 2.52361 10.6338 2.53911C14.0743 2.7956 16.5586 5.13445 16.5586 8.22885C16.5586 9.32122 16.3532 10.0253 16.0708 10.5494C15.7802 11.0885 15.3789 11.4961 14.8681 11.9748L14.7513 12.0838L14.7139 12.1187C13.7033 13.06 12.4865 14.1936 12.0017 16.7487C11.921 17.1746 12.1823 17.5941 12.594 17.6809C13.0069 17.768 13.4031 17.4851 13.4841 17.0584C13.6771 16.0409 13.998 15.3252 14.3888 14.7527C14.7804 14.1789 15.2437 13.7465 15.7281 13.2947C15.7769 13.2492 15.8258 13.2036 15.8749 13.1576C16.3927 12.6723 16.9628 12.1161 17.3864 11.33C17.8183 10.5288 18.0701 9.5461 18.0701 8.22885C18.0701 3.79864 14.3134 0.929932 10.0001 0.929932Z" fill="currentcolor" />
  <path d="M7.46656 4.98502C7.15293 4.69319 6.67338 4.72523 6.39734 5.05495C6.01236 5.51478 5.67376 6.01894 5.3893 6.55937C5.10296 7.10337 4.87148 7.68411 4.70285 8.29321C4.5874 8.71023 4.81346 9.15145 5.21587 9.27526C5.62 9.39961 6.03848 9.1539 6.15428 8.73562C6.29131 8.24065 6.47945 7.76856 6.71236 7.32607C6.94377 6.88643 7.21938 6.47602 7.5329 6.10154C7.80715 5.77397 7.77805 5.27485 7.46656 4.98502Z" fill="currentcolor" />
</svg>
