<svg
  xmlns="http://www.w3.org/2000/svg"
  width="20"
  height="20"
  viewBox="0 0 20 20"
  fill="none"
>
  <path
    fill-rule="evenodd"
    clip-rule="evenodd"
    d="M12.298 3.23318H7.70202C7.30572 3.23317 6.9593 3.23315 6.67397 3.25951C6.37067 3.28753 6.06381 3.35008 5.77296 3.52122C5.45235 3.70988 5.18626 3.98114 5.00132 4.30763C4.83363 4.60366 4.77235 4.91594 4.74488 5.22475C4.71904 5.5154 4.71905 5.86834 4.71907 6.27236V6.33752C4.71905 6.74154 4.71904 7.09448 4.74488 7.38512C4.77235 7.69394 4.83363 8.00621 5.00132 8.30225C5.18626 8.62873 5.45235 8.89999 5.77296 9.08865C6.06381 9.2598 6.37067 9.32235 6.67397 9.35036C6.95929 9.37672 7.30572 9.37671 7.70202 9.37669H12.298C12.6943 9.37671 13.0407 9.37672 13.326 9.35036C13.6293 9.32235 13.9362 9.2598 14.227 9.08865C14.5477 8.89999 14.8137 8.62873 14.9987 8.30225C15.1664 8.00621 15.2277 7.69394 15.2551 7.38512C15.281 7.09448 15.281 6.74153 15.2809 6.33751V6.27236C15.281 5.86834 15.281 5.5154 15.2551 5.22475C15.2277 4.91594 15.1664 4.60366 14.9987 4.30763C14.8137 3.98114 14.5477 3.70988 14.227 3.52122C13.9362 3.35008 13.6293 3.28753 13.326 3.25951C13.0407 3.23315 12.6943 3.23317 12.298 3.23318ZM6.80943 4.77794C7.0189 4.75859 7.2967 4.75786 7.73411 4.75786H12.2659C12.7033 4.75786 12.9811 4.75859 13.1906 4.77794C13.3898 4.79634 13.4524 4.82663 13.477 4.8411C13.5697 4.89568 13.6469 4.97426 13.7006 5.06907C13.715 5.09454 13.7448 5.15884 13.7629 5.36216C13.7819 5.57586 13.7826 5.85919 13.7826 6.30494C13.7826 6.75068 13.7819 7.03402 13.7629 7.24771C13.7448 7.45103 13.715 7.51534 13.7006 7.54081C13.6469 7.63562 13.5697 7.7142 13.477 7.76877C13.4524 7.78324 13.3898 7.81353 13.1906 7.83193C12.9811 7.85128 12.7033 7.85202 12.2659 7.85202H7.73411C7.2967 7.85202 7.0189 7.85128 6.80943 7.83193C6.61024 7.81353 6.54762 7.78324 6.52302 7.76877C6.43028 7.7142 6.35312 7.63562 6.29942 7.54081C6.28499 7.51534 6.25519 7.45103 6.2371 7.24771C6.2181 7.03402 6.21739 6.75068 6.21739 6.30494C6.21739 5.85919 6.2181 5.57586 6.2371 5.36216C6.25519 5.15884 6.28499 5.09454 6.29942 5.06907C6.35312 4.97426 6.43028 4.89568 6.52302 4.8411C6.54762 4.82663 6.61024 4.79634 6.80943 4.77794Z"
    fill="currentColor"
  />
  <path
    d="M6.56116 10.8543H6.18799C6.02159 10.8543 5.88952 10.8543 5.7861 10.8684C5.67946 10.883 5.593 10.9139 5.52492 10.9833C5.457 11.0525 5.42696 11.1401 5.4127 11.2482C5.39883 11.3534 5.39883 11.4878 5.39883 11.6576V12.0374C5.39883 12.2073 5.39883 12.3417 5.4127 12.4468C5.42696 12.555 5.457 12.6426 5.52492 12.7118C5.593 12.7812 5.67946 12.812 5.7861 12.8266C5.88952 12.8408 6.02159 12.8408 6.18799 12.8408H6.56116C6.72757 12.8408 6.85964 12.8408 6.96306 12.8266C7.0697 12.812 7.15615 12.7812 7.22424 12.7118C7.29216 12.6426 7.32219 12.555 7.33646 12.4468C7.35033 12.3417 7.35033 12.2073 7.35033 12.0374V11.6576C7.35033 11.4878 7.35033 11.3534 7.33646 11.2482C7.32219 11.1401 7.29216 11.0525 7.22424 10.9833C7.15615 10.9139 7.0697 10.883 6.96306 10.8684C6.85964 10.8543 6.72757 10.8543 6.56116 10.8543Z"
    fill="currentColor"
  />
  <path
    d="M10.5885 10.8684C10.4851 10.8543 10.353 10.8543 10.1866 10.8543H9.81342C9.64701 10.8543 9.51494 10.8543 9.41152 10.8684C9.30488 10.883 9.21843 10.9139 9.15034 10.9833C9.08242 11.0525 9.05239 11.1401 9.03812 11.2482C9.02425 11.3534 9.02425 11.4878 9.02425 11.6576V12.0374C9.02425 12.2073 9.02425 12.3417 9.03812 12.4468C9.05239 12.555 9.08242 12.6426 9.15034 12.7118C9.21843 12.7812 9.30488 12.812 9.41152 12.8266C9.51494 12.8408 9.64701 12.8408 9.81342 12.8408H10.1866C10.353 12.8408 10.4851 12.8408 10.5885 12.8266C10.6951 12.812 10.7816 12.7812 10.8497 12.7118C10.9176 12.6426 10.9476 12.555 10.9619 12.4468C10.9757 12.3417 10.9757 12.2073 10.9757 12.0374V11.6576C10.9757 11.4878 10.9757 11.3534 10.9619 11.2482C10.9476 11.1401 10.9176 11.0525 10.8497 10.9833C10.7816 10.9139 10.6951 10.883 10.5885 10.8684Z"
    fill="currentColor"
  />
  <path
    d="M13.812 10.8543H13.4388C13.2724 10.8543 13.1404 10.8543 13.0369 10.8684C12.9303 10.883 12.8438 10.9139 12.7758 10.9833C12.7078 11.0525 12.6778 11.1401 12.6635 11.2482C12.6497 11.3534 12.6497 11.4878 12.6497 11.6576V12.0374C12.6497 12.2073 12.6497 12.3417 12.6635 12.4468C12.6778 12.555 12.7078 12.6426 12.7758 12.7118C12.8438 12.7812 12.9303 12.812 13.0369 12.8266C13.1404 12.8408 13.2724 12.8408 13.4388 12.8408H13.812C13.9784 12.8408 14.1105 12.8408 14.2139 12.8266C14.3205 12.812 14.407 12.7812 14.4751 12.7118C14.543 12.6426 14.573 12.555 14.5873 12.4468C14.6012 12.3417 14.6012 12.2073 14.6012 12.0375V11.6577C14.6012 11.4878 14.6012 11.3534 14.5873 11.2482C14.573 11.1401 14.543 11.0525 14.4751 10.9833C14.407 10.9139 14.3205 10.883 14.2139 10.8684C14.1105 10.8543 13.9784 10.8543 13.812 10.8543Z"
    fill="currentColor"
  />
  <path
    d="M6.56116 14.5493H6.188C6.02159 14.5493 5.88952 14.5493 5.7861 14.5635C5.67946 14.5781 5.593 14.6089 5.52492 14.6783C5.457 14.7476 5.42696 14.8352 5.4127 14.9433C5.39883 15.0485 5.39883 15.1829 5.39883 15.3527V15.7325C5.39883 15.9023 5.39883 16.0367 5.4127 16.1419C5.42696 16.25 5.457 16.3376 5.52492 16.4069C5.593 16.4763 5.67946 16.5071 5.7861 16.5217C5.88953 16.5359 6.02163 16.5359 6.18806 16.5359H6.5611C6.72754 16.5359 6.85963 16.5359 6.96306 16.5217C7.0697 16.5071 7.15615 16.4763 7.22424 16.4069C7.29216 16.3376 7.32219 16.25 7.33646 16.1419C7.35033 16.0367 7.35033 15.9023 7.35033 15.7325V15.3527C7.35033 15.1829 7.35033 15.0485 7.33646 14.9433C7.32219 14.8352 7.29216 14.7476 7.22424 14.6783C7.15615 14.6089 7.0697 14.5781 6.96306 14.5635C6.85964 14.5493 6.72757 14.5493 6.56116 14.5493Z"
    fill="currentColor"
  />
  <path
    d="M10.5885 14.5635C10.4851 14.5493 10.353 14.5493 10.1866 14.5493H9.81342C9.64701 14.5493 9.51494 14.5493 9.41152 14.5635C9.30488 14.5781 9.21843 14.6089 9.15034 14.6783C9.08242 14.7476 9.05239 14.8352 9.03812 14.9433C9.02425 15.0485 9.02425 15.1829 9.02425 15.3527V15.7325C9.02425 15.9023 9.02425 16.0367 9.03812 16.1419C9.05239 16.25 9.08242 16.3376 9.15034 16.4069C9.21843 16.4763 9.30488 16.5071 9.41152 16.5217C9.51495 16.5359 9.64705 16.5359 9.81348 16.5359H10.1865C10.353 16.5359 10.485 16.5359 10.5885 16.5217C10.6951 16.5071 10.7816 16.4763 10.8497 16.4069C10.9176 16.3376 10.9476 16.25 10.9619 16.1419C10.9757 16.0367 10.9757 15.9023 10.9757 15.7325V15.3527C10.9757 15.1829 10.9757 15.0485 10.9619 14.9433C10.9476 14.8352 10.9176 14.7476 10.8497 14.6783C10.7816 14.6089 10.6951 14.5781 10.5885 14.5635Z"
    fill="currentColor"
  />
  <path
    d="M13.812 14.5493H13.4388C13.2724 14.5493 13.1404 14.5493 13.0369 14.5635C12.9303 14.5781 12.8438 14.6089 12.7758 14.6783C12.7078 14.7476 12.6778 14.8352 12.6635 14.9433C12.6497 15.0485 12.6497 15.1829 12.6497 15.3527V15.7325C12.6497 15.9023 12.6497 16.0367 12.6635 16.1419C12.6778 16.25 12.7078 16.3376 12.7758 16.4069C12.8438 16.4763 12.9303 16.5071 13.0369 16.5217C13.1404 16.5359 13.2725 16.5359 13.4389 16.5359H13.8119C13.9784 16.5359 14.1105 16.5359 14.2139 16.5217C14.3205 16.5071 14.407 16.4763 14.4751 16.4069C14.543 16.3376 14.573 16.25 14.5873 16.1419C14.6012 16.0367 14.6012 15.9023 14.6012 15.7325V15.3527C14.6012 15.1829 14.6012 15.0485 14.5873 14.9433C14.573 14.8352 14.543 14.7476 14.4751 14.6783C14.407 14.6089 14.3205 14.5781 14.2139 14.5635C14.1105 14.5493 13.9784 14.5493 13.812 14.5493Z"
    fill="currentColor"
  />
  <path
    fill-rule="evenodd"
    clip-rule="evenodd"
    d="M10.0436 1.43039e-07H9.95645C8.50721 -7.8201e-06 7.36007 -1.42427e-05 6.446 0.0981858C5.50942 0.198805 4.73166 0.409353 4.05821 0.88997C3.59689 1.21919 3.19571 1.6281 2.87277 2.09816C2.40146 2.7842 2.195 3.57639 2.09632 4.53058C1.99999 5.46202 1.99999 6.63104 2 8.10828V11.8917C1.99999 13.369 1.99999 14.538 2.09632 15.4694C2.195 16.4236 2.40146 17.2158 2.87277 17.9018C3.19571 18.3719 3.59689 18.7808 4.05821 19.11C4.73166 19.5906 5.50942 19.8012 6.446 19.9018C7.36009 20 8.50725 20 9.95651 20H10.0435C11.4928 20 12.6399 20 13.554 19.9018C14.4906 19.8012 15.2683 19.5906 15.9418 19.11C16.4031 18.7808 16.8043 18.3719 17.1272 17.9018C17.5985 17.2158 17.805 16.4236 17.9037 15.4694C18 14.538 18 13.3689 18 11.8917V8.10833C18 6.63106 18 5.46203 17.9037 4.53058C17.805 3.57639 17.5985 2.7842 17.1272 2.09816C16.8043 1.6281 16.4031 1.21919 15.9418 0.88997C15.2683 0.409353 14.4906 0.198805 13.554 0.0981858C12.6399 -1.42353e-05 11.4928 -7.8201e-06 10.0436 1.43039e-07ZM6.60332 1.61444C7.42956 1.52567 8.49768 1.52468 10 1.52468C11.5023 1.52468 12.5704 1.52567 13.3967 1.61444C14.2095 1.70176 14.7015 1.8671 15.0815 2.13826C15.3996 2.3653 15.6764 2.64738 15.8992 2.97176C16.1655 3.35936 16.3279 3.86131 16.4136 4.69016C16.5007 5.5325 16.5017 6.62137 16.5017 8.15247V11.8475C16.5017 13.3786 16.5007 14.4675 16.4136 15.3098C16.3279 16.1387 16.1655 16.6406 15.8992 17.0282C15.6764 17.3526 15.3996 17.6347 15.0815 17.8617C14.7015 18.1329 14.2095 18.2982 13.3967 18.3856C12.5704 18.4743 11.5023 18.4753 10 18.4753C8.49768 18.4753 7.42956 18.4743 6.60332 18.3856C5.79047 18.2982 5.29849 18.1329 4.91853 17.8617C4.60039 17.6347 4.32361 17.3526 4.10076 17.0282C3.83447 16.6406 3.67212 16.1387 3.58641 15.3098C3.49929 14.4675 3.49832 13.3786 3.49832 11.8475V8.15247C3.49832 6.62137 3.49929 5.5325 3.58641 4.69016C3.67212 3.86131 3.83447 3.35936 4.10076 2.97176C4.32361 2.64738 4.60039 2.3653 4.91853 2.13826C5.29849 1.8671 5.79047 1.70176 6.60332 1.61444Z"
    fill="currentColor"
  />
</svg>
