<svg
  xmlns="http://www.w3.org/2000/svg"
  width="20"
  height="20"
  viewBox="0 0 20 20"
  fill="none"
>
  <path
    fill-rule="evenodd"
    clip-rule="evenodd"
    d="M7.08336 1.75012C7.08336 1.33591 6.74757 1.00012 6.33336 1.00012C5.91915 1.00012 5.58336 1.33591 5.58336 1.75012V2.04212C4.7398 2.14837 4.02824 2.35109 3.39705 2.75969C2.77511 3.16229 2.24543 3.69197 1.84282 4.3139C1.38996 5.01348 1.19 5.81179 1.09397 6.77912C0.999987 7.72588 0.999993 8.91189 1 10.4176V10.4994C0.999993 12.0051 0.999987 13.1911 1.09397 14.1379C1.19 15.1052 1.38996 15.9035 1.84282 16.6031C2.24543 17.225 2.77511 17.7547 3.39705 18.1573C4.09662 18.6101 4.89493 18.8101 5.86227 18.9061C6.80902 19.0001 7.99502 19.0001 9.50071 19.0001H9.99998C10.4142 19.0001 10.75 18.6643 10.75 18.2501C10.75 17.8359 10.4142 17.5001 9.99998 17.5001H9.54165C7.98609 17.5001 6.87447 17.4992 6.01044 17.4135C5.15843 17.3289 4.62857 17.1676 4.21217 16.8981C3.76793 16.6105 3.38959 16.2322 3.10201 15.7879C2.83246 15.3715 2.67121 14.8417 2.58663 13.9897C2.50086 13.1257 2.5 12.014 2.5 10.4585C2.5 9.72315 2.50019 9.08702 2.50945 8.52936C2.83765 8.49025 3.29275 8.44191 3.87477 8.3934C5.22913 8.28054 7.27084 8.16683 9.99997 8.16683C12.7291 8.16683 14.7708 8.28054 16.1252 8.3934C16.712 8.44231 17.1698 8.49105 17.4986 8.53032C17.4999 8.81089 17.5 9.11705 17.5 9.4532V10.1929C17.5 10.6072 17.8357 10.9429 18.25 10.9429C18.6642 10.9429 19 10.6072 19 10.1929V9.42509C19 9.40872 19 9.39241 19 9.37616V9.12508C18.9996 8.22406 18.9955 7.49776 18.954 6.89928C18.9071 6.22291 18.8098 5.65429 18.5875 5.127C18.0554 3.8653 17.0515 2.86138 15.7898 2.32935C15.3695 2.15213 14.923 2.05438 14.4166 1.99825V1.75012C14.4166 1.33591 14.0808 1.00012 13.6666 1.00012C13.2524 1.00012 12.9166 1.33591 12.9166 1.75012V1.92289C12.4931 1.91686 12.0209 1.91686 11.4917 1.91687H9.50075C8.58202 1.91686 7.78232 1.91686 7.08336 1.9382V1.75012ZM12.9166 3.58344V3.42303C12.5022 3.41697 12.0246 3.41686 11.4636 3.41686H9.54165C8.56271 3.41686 7.7596 3.4172 7.08336 3.43883V3.58344C7.08336 3.99765 6.74757 4.33344 6.33336 4.33344C5.91915 4.33344 5.58336 3.99765 5.58336 3.58344V3.55636C4.97269 3.64916 4.55416 3.79749 4.21217 4.01887C3.76793 4.30645 3.38959 4.68479 3.10201 5.12903C2.83246 5.54543 2.67121 6.07528 2.58663 6.92729C2.58387 6.95511 2.5812 6.98318 2.57861 7.01151C2.89187 6.97666 3.2824 6.93758 3.75021 6.89859C5.14585 6.78229 7.22912 6.66684 9.99997 6.66684C12.7708 6.66684 14.8541 6.78229 16.2497 6.89859C16.7362 6.93913 17.1391 6.97977 17.4584 7.01566L17.4576 7.00302C17.4161 6.40432 17.3365 6.02099 17.2053 5.70981C16.8253 4.80859 16.1082 4.09151 15.207 3.71149C14.9931 3.6213 14.7451 3.55554 14.4166 3.50975V3.58344C14.4166 3.99765 14.0808 4.33344 13.6666 4.33344C13.2524 4.33344 12.9166 3.99765 12.9166 3.58344Z"
    fill="currentColor"
  />
  <path
    d="M14.8303 13.7828C14.5387 13.7828 14.3023 14.0192 14.3023 14.3108V15.3536C14.3023 15.6451 14.5387 15.8815 14.8303 15.8815H15.873C16.1647 15.8815 16.401 15.6451 16.401 15.3536C16.401 15.062 16.1647 14.8256 15.873 14.8256H15.3583V14.3108C15.3583 14.0192 15.1219 13.7828 14.8303 13.7828Z"
    fill="currentColor"
  />
  <path
    fill-rule="evenodd"
    clip-rule="evenodd"
    d="M15.0933 12.5656C13.6972 12.5656 12.5654 13.6973 12.5654 15.0934C12.5654 16.4895 13.6972 17.6213 15.0933 17.6213C16.4894 17.6213 17.6212 16.4895 17.6212 15.0934C17.6212 13.6973 16.4894 12.5656 15.0933 12.5656ZM11.1866 15.0934C11.1866 12.9358 12.9357 11.1867 15.0933 11.1867C17.2509 11.1867 19 12.9358 19 15.0934C19 17.251 17.2509 19.0001 15.0933 19.0001C12.9357 19.0001 11.1866 17.251 11.1866 15.0934Z"
    fill="currentColor"
  />
</svg>
