<svg
  xmlns="http://www.w3.org/2000/svg"
  width="20"
  height="20"
  viewBox="0 0 20 20"
  fill="none"
>
  <path
    fill-rule="evenodd"
    clip-rule="evenodd"
    d="M17.5437 12.4323C16.9134 11.8028 15.8914 11.8027 15.2611 12.4323L12.4102 15.2797C12.0903 15.5992 11.9194 16.0381 11.939 16.4895L11.9794 17.4177C12.0158 18.2529 12.6855 18.9218 13.5218 18.9581L14.451 18.9985C14.903 19.0181 15.3425 18.8474 15.6624 18.5279L18.5133 15.6805C19.1436 15.0509 19.1436 14.0303 18.5133 13.4007L17.5437 12.4323ZM16.2394 13.4093C16.3294 13.3194 16.4754 13.3194 16.5654 13.4093L17.5351 14.3778C17.6251 14.4677 17.6251 14.6135 17.5351 14.7034L14.6842 17.5508C14.6385 17.5965 14.5757 17.6209 14.5111 17.6181L13.5819 17.5777C13.4624 17.5725 13.3667 17.477 13.3615 17.3576L13.3211 16.4295C13.3183 16.365 13.3428 16.3023 13.3885 16.2567L16.2394 13.4093Z"
    fill="currentColor"
  />
  <path
    fill-rule="evenodd"
    clip-rule="evenodd"
    d="M7.08337 1.74908C7.08337 1.33537 6.74759 1 6.33337 1C5.91916 1 5.58337 1.33537 5.58337 1.74908V2.04096C4.73981 2.14709 4.02824 2.34956 3.39705 2.75765C2.77511 3.15976 2.24543 3.68879 1.84283 4.30997C1.38996 5.00868 1.19 5.80602 1.09397 6.77216C0.999986 7.71777 0.999992 8.90232 1 10.4062V10.4879C0.999992 11.9917 0.999986 13.1763 1.09397 14.1219C1.19 15.088 1.38996 15.8854 1.84283 16.5841C2.24543 17.2052 2.77511 17.7343 3.39705 18.1364C4.09663 18.5887 4.89494 18.7884 5.86228 18.8843C6.80904 18.9782 7.99504 18.9782 9.50073 18.9782H10C10.4142 18.9782 10.75 18.6428 10.75 18.2291C10.75 17.8154 10.4142 17.48 10 17.48H9.54167C7.98611 17.48 6.87449 17.4792 6.01046 17.3935C5.15844 17.309 4.62858 17.148 4.21218 16.8787C3.76794 16.5915 3.38959 16.2136 3.10202 15.77C2.83246 15.3541 2.67121 14.8249 2.58663 13.9739C2.50086 13.1109 2.5 12.0007 2.5 10.447C2.5 9.71259 2.50019 9.07724 2.50946 8.52026C2.83765 8.4812 3.29276 8.43291 3.87478 8.38447C5.22914 8.27175 7.27086 8.15817 10 8.15817C12.7291 8.15817 14.7709 8.27175 16.1252 8.38447C16.712 8.43331 17.1698 8.482 17.4986 8.52122C17.5 8.80145 17.5 9.10724 17.5 9.44297V10.7838C17.5 11.1975 17.8358 11.5329 18.25 11.5329C18.6642 11.5329 19 11.1975 19 10.7838V9.4149C19 9.39855 19 9.38226 19 9.36602C19 9.34779 19 9.32963 19 9.31154C19 8.32003 18.9985 7.53279 18.954 6.89218C18.9071 6.21664 18.8099 5.64871 18.5875 5.12207C18.0555 3.86191 17.0516 2.85922 15.7898 2.32784C15.3696 2.15085 14.923 2.05321 14.4166 1.99715V1.74908C14.4166 1.33537 14.0808 1 13.6666 1C13.2524 1 12.9166 1.33537 12.9166 1.74908V1.92188C12.4931 1.91586 12.0209 1.91586 11.4917 1.91586H9.50078C8.58204 1.91586 7.78234 1.91586 7.08337 1.93718V1.74908ZM12.9166 3.58016V3.42019C12.5022 3.41413 12.0247 3.41402 11.4636 3.41402H9.54167C8.56273 3.41402 7.75961 3.41436 7.08337 3.43596V3.58016C7.08337 3.99386 6.74759 4.32923 6.33337 4.32923C5.91916 4.32923 5.58337 3.99386 5.58337 3.58016V3.55335C4.9727 3.64603 4.55417 3.79418 4.21218 4.0153C3.76794 4.30252 3.38959 4.6804 3.10202 5.12409C2.83246 5.53998 2.67121 6.06919 2.58663 6.92015C2.58387 6.94794 2.5812 6.97597 2.57861 7.00427C2.89187 6.96946 3.28241 6.93043 3.75021 6.89149C5.14586 6.77533 7.22914 6.66002 10 6.66002C12.7709 6.66002 14.8541 6.77533 16.2498 6.89149C16.7362 6.93198 17.1391 6.97257 17.4585 7.00841L17.4576 6.99579C17.4161 6.39783 17.3366 6.01497 17.2054 5.70417C16.8253 4.80405 16.1083 4.08784 15.207 3.70829C14.9931 3.61821 14.7452 3.55253 14.4166 3.5068V3.58016C14.4166 3.99386 14.0808 4.32923 13.6666 4.32923C13.2524 4.32923 12.9166 3.99386 12.9166 3.58016Z"
    fill="currentColor"
  />
</svg>
