<svg width="20" height="20" viewBox="0 0 20 20" fill="currentColor" xmlns="http://www.w3.org/2000/svg">
  <path d="M6.33329 11.5469C6.83955 11.5469 7.24996 11.1365 7.24996 10.6303C7.24996 10.124 6.83955 9.71358 6.33329 9.71358C5.82703 9.71358 5.41663 10.124 5.41663 10.6303C5.41663 11.1365 5.82703 11.5469 6.33329 11.5469Z" fill="currentColor" />
  <path d="M6.33329 15.2134C6.83955 15.2134 7.24996 14.803 7.24996 14.2968C7.24996 13.7905 6.83955 13.3801 6.33329 13.3801C5.82703 13.3801 5.41663 13.7905 5.41663 14.2968C5.41663 14.803 5.82703 15.2134 6.33329 15.2134Z" fill="currentColor" />
  <path d="M14.5833 10.6303C14.5833 11.1365 14.1729 11.5469 13.6667 11.5469C13.1604 11.5469 12.75 11.1365 12.75 10.6303C12.75 10.124 13.1604 9.71358 13.6667 9.71358C14.1729 9.71358 14.5833 10.124 14.5833 10.6303Z" fill="currentColor" />
  <path d="M13.6667 15.2134C14.1729 15.2134 14.5833 14.803 14.5833 14.2968C14.5833 13.7905 14.1729 13.3801 13.6667 13.3801C13.1604 13.3801 12.75 13.7905 12.75 14.2968C12.75 14.803 13.1604 15.2134 13.6667 15.2134Z" fill="currentColor" />
  <path d="M10.9167 10.6303C10.9167 11.1365 10.5063 11.5469 10 11.5469C9.49378 11.5469 9.08337 11.1365 9.08337 10.6303C9.08337 10.124 9.49378 9.71358 10 9.71358C10.5063 9.71358 10.9167 10.124 10.9167 10.6303Z" fill="currentColor" />
  <path d="M10 15.2134C10.5063 15.2134 10.9167 14.803 10.9167 14.2968C10.9167 13.7905 10.5063 13.3801 10 13.3801C9.49378 13.3801 9.08337 13.7905 9.08337 14.2968C9.08337 14.803 9.49378 15.2134 10 15.2134Z" fill="currentColor" />
  <path fill-rule="evenodd" d="M6.33337 0.999962C6.74759 0.999962 7.08337 1.33575 7.08337 1.74996V1.93805C7.78234 1.9167 8.58204 1.91671 9.50078 1.91671H10.4992C11.418 1.91671 12.2177 1.9167 12.9166 1.93805V1.74996C12.9166 1.33575 13.2524 0.999962 13.6666 0.999962C14.0808 0.999962 14.4166 1.33575 14.4166 1.74996V2.04196C15.2602 2.14822 15.9718 2.35094 16.6029 2.75954C17.2249 3.16214 17.7546 3.69182 18.1572 4.31376C18.61 5.01334 18.81 5.81165 18.906 6.77899C19 7.72577 19 8.9118 19 10.4175V10.4992C19 12.005 19 13.191 18.906 14.1378C18.81 15.1051 18.61 15.9034 18.1572 16.603C17.7546 17.2249 17.2249 17.7546 16.6029 18.1572C15.9034 18.6101 15.1051 18.81 14.1377 18.9061C13.191 19.0001 12.005 19 10.4993 19H9.50073C7.99504 19 6.80904 19.0001 5.86228 18.9061C4.89494 18.81 4.09663 18.6101 3.39705 18.1572C2.77511 17.7546 2.24543 17.2249 1.84283 16.603C1.38996 15.9034 1.19 15.1051 1.09397 14.1378C0.999987 13.191 0.999993 12.005 1 10.4993V10.4175C0.999993 8.91177 0.999987 7.72576 1.09397 6.77899C1.19 5.81165 1.38996 5.01334 1.84283 4.31376C2.24543 3.69182 2.77511 3.16214 3.39705 2.75954C4.02824 2.35094 4.73981 2.14822 5.58337 2.04196V1.74996C5.58337 1.33575 5.91916 0.999962 6.33337 0.999962ZM12.9166 3.43868V3.5833C12.9166 3.99751 13.2524 4.3333 13.6666 4.3333C14.0808 4.3333 14.4166 3.99751 14.4166 3.5833V3.55621C15.0273 3.64901 15.4458 3.79734 15.7878 4.01873C16.2321 4.3063 16.6104 4.68465 16.898 5.12889C17.1042 5.4475 17.2471 5.83254 17.3407 6.3775C17.0419 6.34496 16.6782 6.30917 16.2498 6.27347C14.8541 6.15716 12.7709 6.04171 10 6.04171C7.22914 6.04171 5.14586 6.15716 3.75021 6.27347C3.32176 6.30917 2.95813 6.34495 2.65932 6.3775C2.75292 5.83254 2.89577 5.4475 3.10202 5.12889C3.38959 4.68465 3.76794 4.3063 4.21218 4.01873C4.55417 3.79734 4.9727 3.64901 5.58337 3.55621V3.5833C5.58337 3.99751 5.91916 4.3333 6.33337 4.3333C6.74759 4.3333 7.08337 3.99751 7.08337 3.5833V3.43868C7.75961 3.41705 8.56273 3.41671 9.54167 3.41671H10.4583C11.4373 3.41671 12.2404 3.41705 12.9166 3.43868ZM17.4747 7.90236C17.1478 7.86359 16.6979 7.81601 16.1252 7.76829C14.7709 7.65542 12.7291 7.54171 10 7.54171C7.27086 7.54171 5.22914 7.65542 3.87478 7.76829C3.30206 7.81601 2.85222 7.86359 2.52528 7.90236C2.50038 8.59866 2.5 9.43185 2.5 10.4584C2.5 12.0139 2.50086 13.1256 2.58663 13.9896C2.67121 14.8416 2.83246 15.3715 3.10202 15.7879C3.38959 16.2321 3.76794 16.6104 4.21218 16.898C4.62858 17.1676 5.15844 17.3288 6.01046 17.4134C6.87449 17.4992 7.98611 17.5 9.54167 17.5H10.4583C12.0139 17.5 13.1255 17.4992 13.9895 17.4134C14.8416 17.3288 15.3714 17.1676 15.7878 16.898C16.2321 16.6104 16.6104 16.2321 16.898 15.7879C17.1675 15.3715 17.3288 14.8416 17.4134 13.9896C17.4991 13.1256 17.5 12.0139 17.5 10.4584C17.5 9.43185 17.4996 8.59866 17.4747 7.90236Z" fill="currentColor" />
</svg>
