<svg width="20" height="20" viewBox="0 0 20 20" fill="currentcolor" xmlns="http://www.w3.org/2000/svg">
  <path fill-rule="evenodd" d="M6.33337 0.999939C6.74759 0.999939 7.08337 1.33573 7.08337 1.74994V1.93803C7.78234 1.91668 8.58204 1.91668 9.50078 1.91669H10.4992C11.418 1.91668 12.2177 1.91668 12.9166 1.93803V1.74994C12.9166 1.33573 13.2524 0.999939 13.6666 0.999939C14.0808 0.999939 14.4166 1.33573 14.4166 1.74994V2.04194C15.2602 2.1482 15.9718 2.35092 16.6029 2.75951C17.2249 3.16212 17.7546 3.6918 18.1572 4.31374C18.61 5.01332 18.81 5.81163 18.906 6.77897C19 7.72574 19 8.91177 19 10.4175V10.4992C19 12.0049 19 13.191 18.906 14.1377C18.81 15.1051 18.61 15.9034 18.1572 16.603C17.7546 17.2249 17.2249 17.7546 16.6029 18.1572C15.9034 18.6101 15.1051 18.81 14.1377 18.906C13.191 19 12.005 19 10.4993 19H9.50073C7.99504 19 6.80904 19 5.86228 18.906C4.89494 18.81 4.09663 18.6101 3.39705 18.1572C2.77511 17.7546 2.24543 17.2249 1.84283 16.603C1.38996 15.9034 1.19 15.1051 1.09397 14.1377C0.999987 13.191 0.999993 12.005 1 10.4992V10.4175C0.999993 8.91175 0.999987 7.72574 1.09397 6.77897C1.19 5.81163 1.38996 5.01332 1.84283 4.31374C2.24543 3.6918 2.77511 3.16212 3.39705 2.75951C4.02824 2.35092 4.73981 2.1482 5.58337 2.04194V1.74994C5.58337 1.33573 5.91916 0.999939 6.33337 0.999939ZM12.9166 3.43866V3.58327C12.9166 3.99749 13.2524 4.33327 13.6666 4.33327C14.0808 4.33327 14.4166 3.99749 14.4166 3.58327V3.55619C15.0273 3.64899 15.4458 3.79732 15.7878 4.01871C16.2321 4.30628 16.6104 4.68463 16.898 5.12887C17.1042 5.44748 17.2471 5.83252 17.3407 6.37748C17.0419 6.34493 16.6782 6.30915 16.2498 6.27344C14.8541 6.15714 12.7709 6.04169 10 6.04169C7.22914 6.04169 5.14586 6.15714 3.75021 6.27344C3.32176 6.30915 2.95813 6.34493 2.65932 6.37748C2.75292 5.83252 2.89577 5.44748 3.10202 5.12887C3.38959 4.68463 3.76794 4.30628 4.21218 4.01871C4.55417 3.79732 4.9727 3.64899 5.58337 3.55619V3.58327C5.58337 3.99749 5.91916 4.33327 6.33337 4.33327C6.74759 4.33327 7.08337 3.99749 7.08337 3.58327V3.43866C7.75961 3.41703 8.56273 3.41669 9.54167 3.41669H10.4583C11.4373 3.41669 12.2404 3.41703 12.9166 3.43866ZM17.4747 7.90234C17.1478 7.86357 16.6979 7.81599 16.1252 7.76826C14.7709 7.6554 12.7291 7.54169 10 7.54169C7.27086 7.54169 5.22914 7.6554 3.87478 7.76826C3.30206 7.81599 2.85222 7.86357 2.52528 7.90233C2.50038 8.59863 2.5 9.43183 2.5 10.4584C2.5 12.0139 2.50086 13.1255 2.58663 13.9896C2.67121 14.8416 2.83246 15.3714 3.10202 15.7878C3.38959 16.2321 3.76794 16.6104 4.21218 16.898C4.62858 17.1676 5.15844 17.3288 6.01046 17.4134C6.87449 17.4992 7.98611 17.5 9.54167 17.5H10.4583C12.0139 17.5 13.1255 17.4992 13.9895 17.4134C14.8416 17.3288 15.3714 17.1676 15.7878 16.898C16.2321 16.6104 16.6104 16.2321 16.898 15.7878C17.1675 15.3714 17.3288 14.8416 17.4134 13.9896C17.4991 13.1255 17.5 12.0139 17.5 10.4584C17.5 9.43183 17.4996 8.59863 17.4747 7.90234Z" fill="currentcolor" />
</svg>
