<svg
  xmlns="http://www.w3.org/2000/svg"
  width="20"
  height="20"
  viewBox="0 0 20 20"
  fill="none"
>
  <path
    d="M9.26354 6.36294C9.26354 5.95136 9.59761 5.6177 10.0097 5.6177C11.411 5.6177 12.5469 6.75223 12.5469 8.15173C12.5469 8.56332 12.2128 8.89697 11.8007 8.89697C11.3886 8.89697 11.0546 8.56332 11.0546 8.15173C11.0546 7.57539 10.5868 7.10817 10.0097 7.10817C9.59761 7.10817 9.26354 6.77452 9.26354 6.36294Z"
    fill="currentColor"
  />
  <path
    fill-rule="evenodd"
    clip-rule="evenodd"
    d="M3.28462 0.229237C3.02197 -0.044778 2.58879 -0.0796802 2.28434 0.159951C1.96067 0.41471 1.90507 0.883288 2.16015 1.20655L3.787 3.26824C2.72996 4.60893 2.09937 6.29977 2.09937 8.13789C2.09937 10.5218 3.16004 12.658 4.83607 14.1039C4.39721 14.8991 4.04121 15.5462 3.81247 16.0796C3.57732 16.628 3.42097 17.1761 3.51902 17.7372C3.63338 18.3917 3.9826 18.9822 4.50135 19.3982C4.94605 19.7548 5.50215 19.8826 6.09651 19.9416C6.68461 20 7.43944 20 8.37022 20H11.6492C12.58 20 13.3348 20 13.9229 19.9416C14.5173 19.8826 15.0734 19.7548 15.5181 19.3982C15.7268 19.2309 15.908 19.0353 16.0576 18.8187L16.6677 19.5919C16.9228 19.9152 17.392 19.9707 17.7157 19.716C18.0393 19.4612 18.0949 18.9926 17.8398 18.6694L16.4891 16.9576C16.4885 16.9543 16.4879 16.9509 16.4872 16.9475L13.6763 13.3881L13.6738 13.3898L3.28462 0.229237ZM3.59172 8.13789C3.59172 6.77822 4.01756 5.51732 4.74374 4.48071L12.3351 14.1012C11.6142 14.3806 10.83 14.5339 10.0097 14.5339C6.46378 14.5339 3.59172 11.669 3.59172 8.13789ZM10.0097 16.0244C11.1809 16.0244 12.2928 15.7706 13.2929 15.3151L15.0249 17.51C14.9679 17.7959 14.8119 18.0531 14.5838 18.236C14.4827 18.3171 14.2831 18.4081 13.7753 18.4585C13.2699 18.5087 12.5898 18.5095 11.6082 18.5095H8.41129C7.42964 18.5095 6.74952 18.5087 6.24413 18.4585C5.73638 18.4081 5.53675 18.3171 5.43565 18.236C5.19986 18.0469 5.04112 17.7785 4.98914 17.481C4.96685 17.3534 4.9834 17.1349 5.18429 16.6664C5.36616 16.2423 5.65357 15.7115 6.06064 14.9728C7.2229 15.6417 8.57161 16.0244 10.0097 16.0244Z"
    fill="currentColor"
  />
  <path
    d="M14.796 12.3991C15.8109 11.2677 16.4277 9.77432 16.4277 8.13789C16.4277 4.60682 13.5556 1.74185 10.0097 1.74185C8.91292 1.74185 7.8806 2.01595 6.9778 2.49908L6.04182 1.31386C7.20833 0.638225 8.56384 0.251383 10.0097 0.251383C14.3771 0.251383 17.9201 3.78093 17.9201 8.13789C17.9201 10.2503 17.0872 12.1682 15.7314 13.5837L14.796 12.3991Z"
    fill="currentColor"
  />
</svg>
