<svg
  xmlns="http://www.w3.org/2000/svg"
  width="20"
  height="20"
  viewBox="0 0 20 20"
  fill="none"
>
  <path
    fill-rule="evenodd"
    clip-rule="evenodd"
    d="M10 8.75C8.75737 8.75 7.75001 9.75736 7.75001 11C7.75001 12.2426 8.75737 13.25 10 13.25C11.2427 13.25 12.25 12.2426 12.25 11C12.25 9.75736 11.2427 8.75 10 8.75ZM6.25001 11C6.25001 8.92893 7.92895 7.25 10 7.25C12.0711 7.25 13.75 8.92893 13.75 11C13.75 13.0711 12.0711 14.75 10 14.75C7.92895 14.75 6.25001 13.0711 6.25001 11Z"
    fill="currentColor"
  />
  <path
    fill-rule="evenodd"
    clip-rule="evenodd"
    d="M15 9C15.5523 9 16 8.55228 16 8C16 7.44772 15.5523 7 15 7C14.4477 7 14 7.44772 14 8C14 8.55228 14.4477 9 15 9Z"
    fill="currentColor"
  />
  <path
    fill-rule="evenodd"
    clip-rule="evenodd"
    d="M9.22998 2.00002C9.26245 2.00003 9.29536 2.00004 9.32871 2.00004H10.6713C10.7046 2.00004 10.7375 2.00003 10.77 2.00002C11.5227 1.99977 12.0441 1.9996 12.5402 2.13549C12.831 2.21511 13.1108 2.3289 13.3737 2.47438C13.8224 2.72264 14.191 3.08467 14.7231 3.6073C14.746 3.62985 14.7693 3.65269 14.7929 3.67584L14.9417 3.82192C14.9439 3.824 14.945 3.82507 14.945 3.82507C14.978 3.85617 15.0191 3.87777 15.0638 3.8875L15.0658 3.88791L15.0683 3.88842L15.1133 3.89728C15.3632 3.94633 15.5159 3.9763 15.6531 4.01018C18.107 4.61627 19.8688 6.72581 19.9931 9.20664C20 9.34532 20 9.49819 20 9.7484V10.7776C20 10.8206 20 10.8632 20 10.9052C20.0002 12.2508 20.0003 13.0713 19.8176 13.7662C19.2947 15.7548 17.7127 17.3077 15.6868 17.8209C14.9789 18.0003 14.143 18.0002 12.7722 18C12.7294 18 12.686 18 12.6421 18H7.35784C7.31397 18 7.27063 18 7.22781 18C5.85695 18.0002 5.02112 18.0003 4.31316 17.8209C2.28725 17.3077 0.705234 15.7548 0.182406 13.7662C-0.000300109 13.0713 -0.000194067 12.2508 -1.99618e-05 10.9052C-1.45378e-05 10.8632 -9.05417e-06 10.8206 -9.05417e-06 10.7776L-9.4118e-06 9.74831C-1.57299e-05 9.49815 -1.96043e-05 9.3453 0.00692344 9.20664C0.131141 6.72581 1.89298 4.61627 4.3469 4.01018C4.48406 3.9763 4.63675 3.94633 4.88665 3.89728L4.93167 3.88842C4.93574 3.8876 4.93615 3.8875 4.93615 3.8875C4.98084 3.87777 5.02195 3.85617 5.055 3.82507C5.055 3.82507 5.05531 3.82479 5.05826 3.82192L5.20711 3.67583C5.23069 3.65269 5.25395 3.62984 5.2769 3.6073C5.80898 3.08467 6.17755 2.72263 6.62624 2.47438C6.88916 2.3289 7.16903 2.21511 7.45974 2.13549C7.95584 1.9996 8.47726 1.99977 9.22998 2.00002ZM9.32871 3.47243C8.4394 3.47243 8.13659 3.47873 7.8629 3.5537C7.68847 3.60147 7.52055 3.66974 7.36279 3.75703C7.11526 3.89399 6.8966 4.09971 6.26777 4.71697L6.13175 4.85049C6.11959 4.86243 6.10661 4.87517 6.09313 4.88786C5.86181 5.10557 5.57403 5.25674 5.26118 5.32491C5.24295 5.32888 5.22494 5.33241 5.20808 5.33572L5.20395 5.33653C4.92383 5.39152 4.80976 5.41414 4.71292 5.43806C2.89916 5.88604 1.59693 7.44526 1.50512 9.27892C1.50021 9.37682 1.49999 9.49105 1.49999 9.77146V10.7776C1.49999 12.2908 1.50599 12.9083 1.63482 13.3983C2.02126 14.8681 3.19057 16.0159 4.68798 16.3952C5.18719 16.5217 5.81623 16.5276 7.35784 16.5276H12.6421C14.1838 16.5276 14.8128 16.5217 15.312 16.3952C16.8094 16.0159 17.9787 14.8681 18.3652 13.3983C18.494 12.9083 18.5 12.2908 18.5 10.7776V9.77146C18.5 9.49105 18.4998 9.37682 18.4949 9.27892C18.4031 7.44526 17.1008 5.88604 15.2871 5.43806C15.1902 5.41414 15.0762 5.39152 14.796 5.33653L14.7919 5.33572C14.7751 5.33242 14.757 5.32888 14.7388 5.32491C14.4259 5.25674 14.1382 5.10557 13.9069 4.88786C13.8934 4.87517 13.8804 4.86242 13.8682 4.85048L13.7322 4.71697C13.1034 4.09971 12.8847 3.89399 12.6372 3.75703C12.4794 3.66974 12.3115 3.60147 12.1371 3.5537C11.8634 3.47873 11.5606 3.47243 10.6713 3.47243H9.32871Z"
    fill="currentColor"
  />
</svg>
