<svg width="20" height="20" viewBox="0 0 20 20" fill="currentcolor" xmlns="http://www.w3.org/2000/svg">
  <path d="M4 12.25C3.58579 12.25 3.25 12.5858 3.25 13C3.25 13.4142 3.58579 13.75 4 13.75H6C6.41421 13.75 6.75 13.4142 6.75 13C6.75 12.5858 6.41421 12.25 6 12.25H4Z" fill="currentcolor" />
  <path d="M8.25 13C8.25 12.5858 8.58579 12.25 9 12.25H13C13.4142 12.25 13.75 12.5858 13.75 13C13.75 13.4142 13.4142 13.75 13 13.75H9C8.58579 13.75 8.25 13.4142 8.25 13Z" fill="currentcolor" />
  <path fill-rule="evenodd" d="M0 10C0 6.72077 0 5.08116 0.813816 3.91891C1.1149 3.48891 1.48891 3.1149 1.91891 2.81382C3.08116 2 4.72077 2 8 2H12C15.2792 2 16.9188 2 18.0811 2.81382C18.5111 3.1149 18.8851 3.48891 19.1862 3.91891C20 5.08116 20 6.72077 20 10C20 13.2792 20 14.9188 19.1862 16.0811C18.8851 16.5111 18.5111 16.8851 18.0811 17.1862C16.9188 18 15.2792 18 12 18H8C4.72077 18 3.08116 18 1.91891 17.1862C1.48891 16.8851 1.1149 16.5111 0.813816 16.0811C0 14.9188 0 13.2792 0 10ZM8 3.5H12C13.6721 3.5 14.809 3.50195 15.6772 3.59346C16.5187 3.68216 16.9333 3.8413 17.2207 4.04254C17.5074 4.24327 17.7567 4.4926 17.9575 4.77927C18.1587 5.06668 18.3178 5.48132 18.4065 6.32282C18.4126 6.38066 18.4183 6.4397 18.4237 6.5H1.57634C1.58167 6.4397 1.58737 6.38066 1.59346 6.32282C1.68216 5.48132 1.8413 5.06668 2.04254 4.77927C2.24327 4.4926 2.4926 4.24327 2.77927 4.04254C3.06668 3.8413 3.48132 3.68216 4.32282 3.59346C5.19103 3.50195 6.32795 3.5 8 3.5ZM1.50387 8.5C1.50022 8.94738 1.5 9.44412 1.5 10C1.5 11.672 1.50195 12.809 1.59346 13.6772C1.68216 14.5187 1.8413 14.9333 2.04254 15.2207C2.24327 15.5074 2.4926 15.7567 2.77927 15.9575C3.06668 16.1587 3.48132 16.3178 4.32282 16.4065C5.19103 16.4981 6.32795 16.5 8 16.5H12C13.672 16.5 14.809 16.4981 15.6772 16.4065C16.5187 16.3178 16.9333 16.1587 17.2207 15.9575C17.5074 15.7567 17.7567 15.5074 17.9575 15.2207C18.1587 14.9333 18.3178 14.5187 18.4065 13.6772C18.4981 12.809 18.5 11.672 18.5 10C18.5 9.44412 18.4998 8.94738 18.4961 8.5H1.50387Z" fill="currentcolor" />
</svg>
