<svg
  xmlns="http://www.w3.org/2000/svg"
  width="20"
  height="20"
  viewBox="0 0 20 20"
  fill="none"
>
  <path
    fill-rule="evenodd"
    clip-rule="evenodd"
    d="M3.26107 2.61003C3.289 2.61349 3.31036 2.61704 3.32631 2.6202C3.33112 2.63458 3.33685 2.65367 3.34318 2.6785C3.3817 2.82959 3.40901 3.04624 3.45532 3.43656L4.15539 9.33674C4.23785 10.0319 4.30853 10.6279 4.42947 11.1022C4.55899 11.6102 4.76865 12.0783 5.19753 12.4478C5.62584 12.8167 6.12962 12.9639 6.66489 13.03C7.16576 13.0919 7.78613 13.0919 8.51136 13.0919H14.2047C14.8956 13.0919 15.488 13.0919 15.9687 13.034C16.483 12.972 16.9679 12.8343 17.3884 12.4903C17.8094 12.1459 18.0306 11.7053 18.1791 11.2237C18.3175 10.7746 18.415 10.2096 18.5285 9.55204L18.6982 8.56883C18.8528 7.67287 18.9833 6.91703 18.9985 6.30978C19.0146 5.66671 18.9081 5.04535 18.4507 4.52395C17.9942 4.0035 17.3795 3.80104 16.7225 3.711C16.1008 3.62577 15.3082 3.6258 14.3667 3.62582L5.12384 3.62583L5.07469 3.21156C5.03528 2.87903 4.99734 2.55887 4.93045 2.2965C4.85506 2.00081 4.72081 1.68046 4.42083 1.42206C4.12141 1.16415 3.77824 1.07253 3.46753 1.03412C3.19088 0.99992 2.85794 0.999961 2.51086 1L1.81762 1.00001C1.37063 1.00001 1 1.35114 1 1.79432C1 2.2375 1.37063 2.58863 1.81762 2.58863H2.46664C2.87307 2.58863 3.10015 2.59014 3.26107 2.61003ZM5.77385 9.10409L5.31234 5.21445H14.3055C15.3237 5.21445 16.0001 5.21632 16.4941 5.28403C16.9658 5.34869 17.1195 5.45562 17.2061 5.5544C17.292 5.65224 17.3752 5.81372 17.3637 6.27118C17.3517 6.75165 17.2427 7.39503 17.0752 8.36544L16.9241 9.24071C16.8001 9.95965 16.7181 10.4255 16.6126 10.7679C16.5137 11.0885 16.4212 11.2047 16.335 11.2752C16.2484 11.3461 16.1129 11.4158 15.7672 11.4575C15.3992 11.5019 14.9088 11.5033 14.1544 11.5033H8.56345C7.77251 11.5033 7.25685 11.5018 6.87136 11.4541C6.5086 11.4093 6.36984 11.3344 6.28243 11.2591C6.19558 11.1843 6.10367 11.0612 6.01674 10.7202C5.92409 10.3568 5.86393 9.8633 5.77385 9.10409Z"
    fill="currentColor"
  />
  <path
    fill-rule="evenodd"
    clip-rule="evenodd"
    d="M7.04595 14.7856C5.88217 14.7856 4.93873 15.729 4.93873 16.8928C4.93873 18.0566 5.88217 19 7.04595 19C8.20974 19 9.15317 18.0566 9.15317 16.8928C9.15317 15.729 8.20974 14.7856 7.04595 14.7856ZM6.52735 16.8928C6.52735 16.6064 6.75954 16.3742 7.04595 16.3742C7.33237 16.3742 7.56455 16.6064 7.56455 16.8928C7.56455 17.1792 7.33237 17.4114 7.04595 17.4114C6.75954 17.4114 6.52735 17.1792 6.52735 16.8928Z"
    fill="currentColor"
  />
  <path
    fill-rule="evenodd"
    clip-rule="evenodd"
    d="M14.9234 14.7856C13.7596 14.7856 12.8162 15.729 12.8162 16.8928C12.8162 18.0566 13.7596 19 14.9234 19C16.0872 19 17.0306 18.0566 17.0306 16.8928C17.0306 15.729 16.0872 14.7856 14.9234 14.7856ZM14.4048 16.8928C14.4048 16.6064 14.637 16.3742 14.9234 16.3742C15.2098 16.3742 15.442 16.6064 15.442 16.8928C15.442 17.1792 15.2098 17.4114 14.9234 17.4114C14.637 17.4114 14.4048 17.1792 14.4048 16.8928Z"
    fill="currentColor"
  />
</svg>
