<svg
  xmlns="http://www.w3.org/2000/svg"
  width="20"
  height="20"
  viewBox="0 0 20 20"
  fill="none"
>
  <path
    fill-rule="evenodd"
    clip-rule="evenodd"
    d="M16.4285 14.1155C16.6116 13.988 16.7285 13.7856 16.7473 13.5632L16.9965 10.6181C17.0315 10.2054 16.7252 9.84246 16.3125 9.80753C15.8997 9.7726 15.5368 10.0789 15.5019 10.4916L15.4336 11.2984L12.9388 7.55618C12.0226 6.18183 9.98715 6.23027 9.13733 7.64664L8.57635 8.58161C8.29307 9.05373 7.6146 9.06988 7.30919 8.61176L5.624 6.08397C5.39423 5.73932 4.92858 5.64619 4.58393 5.87596C4.23929 6.10572 4.14616 6.57137 4.37592 6.91602L6.06111 9.44381C6.97734 10.8182 9.01276 10.7697 9.86259 9.35335L10.4236 8.41838C10.7068 7.94626 11.3853 7.93012 11.6907 8.38823L14.2586 12.24L13.3513 11.989C12.9521 11.8786 12.5389 12.1127 12.4285 12.5119C12.318 12.9111 12.5521 13.3243 12.9513 13.4347L15.8 14.2228C16.015 14.2823 16.2454 14.243 16.4285 14.1155Z"
    fill="currentColor"
  />
  <path
    d="M1.6923 0.929932C1.27129 0.929932 0.929993 1.27123 0.929993 1.69224V12.8248C0.929974 14.0831 0.929959 15.1044 1.03818 15.9093C1.15093 16.7479 1.39356 17.4648 1.96436 18.0356C2.53516 18.6064 3.25199 18.849 4.09059 18.9617C4.89549 19.07 5.91679 19.07 7.17501 19.0699H18.3077C18.7287 19.0699 19.07 18.7286 19.07 18.3076C19.07 17.8866 18.7287 17.5453 18.3077 17.5453H7.23076C5.90375 17.5453 4.98523 17.5437 4.29374 17.4507C3.62422 17.3607 3.28275 17.1978 3.04242 16.9575C2.8021 16.7172 2.63921 16.3757 2.5492 15.7062C2.45623 15.0147 2.45461 14.0962 2.45461 12.7692V1.69224C2.45461 1.27123 2.11331 0.929932 1.6923 0.929932Z"
    fill="currentColor"
  />
</svg>
