<svg width="20" height="20" viewBox="0 0 20 20" fill="currentcolor" xmlns="http://www.w3.org/2000/svg">
  <path fill-rule="evenodd" d="M16.4285 6.38449C16.6116 6.51199 16.7285 6.71441 16.7473 6.93674L16.9965 9.88188C17.0315 10.2946 16.7252 10.6575 16.3125 10.6925C15.8997 10.7274 15.5368 10.4211 15.5019 10.0084L15.4336 9.20161L12.9388 12.9438C12.0226 14.3182 9.98715 14.2697 9.13733 12.8533L8.57635 11.9184C8.29307 11.4463 7.6146 11.4301 7.30919 11.8882L5.62399 14.416C5.39423 14.7607 4.92858 14.8538 4.58393 14.624C4.23929 14.3943 4.14615 13.9286 4.37592 13.584L6.06111 11.0562C6.97734 9.68183 9.01276 9.73026 9.86259 11.1466L10.4236 12.0816C10.7068 12.5537 11.3853 12.5699 11.6907 12.1118L14.2586 8.25995L13.3513 8.51097C12.9521 8.62142 12.5389 8.38733 12.4285 7.98811C12.318 7.58889 12.5521 7.17573 12.9513 7.06528L15.8 6.27714C16.015 6.21765 16.2454 6.25699 16.4285 6.38449Z" fill="currentcolor" />
  <path d="M1.69224 1.35999C1.27123 1.35999 0.929932 1.70128 0.929932 2.12229V13.2549C0.929913 14.5131 0.929898 15.5345 1.03812 16.3394C1.15086 17.178 1.39349 17.8948 1.9643 18.4656C2.5351 19.0364 3.25192 19.2791 4.09053 19.3918C4.89543 19.5 5.91673 19.5 7.17495 19.5H18.3076C18.7286 19.5 19.0699 19.1587 19.0699 18.7377C19.0699 18.3167 18.7286 17.9754 18.3076 17.9754H7.2307C5.90369 17.9754 4.98517 17.9737 4.29368 17.8808C3.62416 17.7908 3.28268 17.6279 3.04236 17.3876C2.80204 17.1472 2.63915 16.8058 2.54914 16.1362C2.45617 15.4447 2.45455 14.5262 2.45455 13.1992V2.12229C2.45455 1.70128 2.11325 1.35999 1.69224 1.35999Z" fill="currentcolor" />
</svg>
