<svg
  xmlns="http://www.w3.org/2000/svg"
  width="20"
  height="20"
  viewBox="0 0 20 20"
  fill="none"
>
  <path
    fill-rule="evenodd"
    clip-rule="evenodd"
    d="M16.4285 6.38461C16.6116 6.51211 16.7285 6.71453 16.7473 6.93686L16.9965 9.882C17.0315 10.2947 16.7252 10.6576 16.3125 10.6926C15.8997 10.7275 15.5368 10.4212 15.5019 10.0085L15.4336 9.20173L12.9388 12.9439C12.0226 14.3183 9.98715 14.2698 9.13733 12.8535L8.57635 11.9185C8.29307 11.4464 7.6146 11.4302 7.30919 11.8883L5.62399 14.4161C5.39423 14.7608 4.92858 14.8539 4.58393 14.6241C4.23929 14.3944 4.14615 13.9287 4.37592 13.5841L6.06111 11.0563C6.97734 9.68195 9.01276 9.73038 9.86259 11.1468L10.4236 12.0817C10.7068 12.5538 11.3853 12.57 11.6907 12.1119L14.2586 8.26007L13.3513 8.51109C12.9521 8.62154 12.5389 8.38745 12.4285 7.98823C12.318 7.58902 12.5521 7.17585 12.9513 7.0654L15.8 6.27727C16.015 6.21777 16.2454 6.25711 16.4285 6.38461Z"
    fill="currentColor"
  />
  <path
    d="M1.69224 1.36011C1.27123 1.36011 0.929932 1.7014 0.929932 2.12242V13.255C0.929913 14.5133 0.929898 15.5346 1.03812 16.3395C1.15086 17.1781 1.39349 17.8949 1.9643 18.4657C2.5351 19.0365 3.25192 19.2792 4.09053 19.3919C4.89543 19.5001 5.91673 19.5001 7.17495 19.5001H18.3076C18.7286 19.5001 19.0699 19.1588 19.0699 18.7378C19.0699 18.3168 18.7286 17.9755 18.3076 17.9755H7.2307C5.90369 17.9755 4.98517 17.9739 4.29368 17.8809C3.62416 17.7909 3.28268 17.628 3.04236 17.3877C2.80204 17.1474 2.63915 16.8059 2.54914 16.1364C2.45617 15.4449 2.45455 14.5264 2.45455 13.1993V2.12242C2.45455 1.7014 2.11325 1.36011 1.69224 1.36011Z"
    fill="currentColor"
  />
</svg>
