<svg
  xmlns="http://www.w3.org/2000/svg"
  width="20"
  height="20"
  viewBox="0 0 20 20"
  fill="none"
>
  <path
    fill-rule="evenodd"
    clip-rule="evenodd"
    d="M8.52286 1.6619C8.63968 2.06675 8.40619 2.48966 8.00134 2.60648C4.83815 3.51926 2.52592 6.43667 2.52592 9.89215C2.52592 14.0795 5.92045 17.4741 10.1078 17.4741C13.5633 17.4741 16.4807 15.1618 17.3935 11.9986C17.5103 11.5938 17.9332 11.3603 18.3381 11.4771C18.7429 11.594 18.9764 12.0169 18.8596 12.4217C17.7634 16.2205 14.2612 19 10.1078 19C5.07771 19 1 14.9223 1 9.89215C1 5.73878 3.77947 2.23657 7.57828 1.14038C7.98313 1.02355 8.40603 1.25705 8.52286 1.6619Z"
    fill="currentColor"
  />
  <path
    fill-rule="evenodd"
    clip-rule="evenodd"
    d="M11.2609 1.01535C11.2699 1.01607 11.2785 1.01677 11.2869 1.01743C15.3878 1.34199 18.658 4.61218 18.9826 8.71309C18.9832 8.72147 18.9839 8.73015 18.9846 8.73911C18.9937 8.85223 19.0064 9.00977 18.9962 9.15106C18.9827 9.3378 18.926 9.58526 18.7245 9.80328C18.5169 10.028 18.2655 10.1001 18.0852 10.1263C17.9441 10.1469 17.7831 10.1467 17.6626 10.1466C17.6534 10.1465 17.6444 10.1465 17.6357 10.1465H11.6337C11.6221 10.1465 11.6104 10.1465 11.5987 10.1465C11.39 10.1466 11.1644 10.1467 10.9739 10.1211C10.7508 10.0911 10.4658 10.014 10.2259 9.77409C9.98605 9.53422 9.90891 9.24919 9.87891 9.02607C9.85331 8.83562 9.85339 8.60999 9.85348 8.40133C9.85348 8.3896 9.85349 8.37791 9.85349 8.36629V2.36433C9.85349 2.35561 9.85348 2.34662 9.85347 2.33739C9.85334 2.21689 9.85317 2.05593 9.87369 1.91482C9.89991 1.73445 9.97203 1.48312 10.1967 1.27549C10.4148 1.07405 10.6622 1.01725 10.849 1.00378C10.9902 0.993585 11.1478 1.00626 11.2609 1.01535ZM11.3794 2.55877V8.36629C11.3794 8.46708 11.3794 8.54878 11.3806 8.61944C11.4512 8.62058 11.5329 8.62061 11.6337 8.62061H17.4412C17.0898 5.43828 14.5617 2.91025 11.3794 2.55877Z"
    fill="currentColor"
  />
</svg>
