<svg
  xmlns="http://www.w3.org/2000/svg"
  width="20"
  height="20"
  viewBox="0 0 20 20"
  fill="none"
>
  <path
    fill-rule="evenodd"
    clip-rule="evenodd"
    d="M17.1315 5.89564C17.4653 6.14088 17.5371 6.6103 17.2919 6.94411L13.974 11.4602C13.7508 11.764 13.5631 12.0194 13.3989 12.2164C13.2313 12.4175 13.0454 12.6113 12.8115 12.7528C12.0423 13.2184 11.0698 13.1813 10.3383 12.6586C10.1158 12.4996 9.94529 12.2922 9.79344 12.0789C9.64469 11.87 9.47703 11.6011 9.27759 11.2811L9.26532 11.2614C9.0345 10.8911 8.87943 10.643 8.75133 10.4633C8.62213 10.2821 8.56231 10.2323 8.5427 10.2187C8.28598 10.0412 7.94612 10.0412 7.6894 10.2187C7.6698 10.2323 7.60997 10.2821 7.48078 10.4633C7.35267 10.643 7.19761 10.8911 6.96678 11.2614L5.32394 13.8968C5.10482 14.2483 4.64223 14.3556 4.29072 14.1365C3.93921 13.9174 3.83189 13.4548 4.05102 13.1033L5.70647 10.4477C5.92142 10.1028 6.10097 9.81481 6.25931 9.59267C6.41964 9.36772 6.60035 9.14815 6.83611 8.98507C7.60626 8.45237 8.62584 8.45237 9.396 8.98507C9.63176 9.14815 9.81246 9.36772 9.9728 9.59267C10.1311 9.81481 10.3107 10.1028 10.5256 10.4477L10.5382 10.4679C10.7532 10.8127 10.8966 11.0421 11.0154 11.209C11.1342 11.3758 11.19 11.4236 11.2104 11.4382C11.4543 11.6124 11.7784 11.6248 12.0348 11.4696C12.0563 11.4566 12.1156 11.4132 12.2467 11.2559C12.3779 11.0985 12.5383 10.8808 12.7789 10.5533L16.0831 6.05599C16.3283 5.72219 16.7977 5.65039 17.1315 5.89564Z"
    fill="currentColor"
  />
  <path
    d="M1.6923 0.929932C1.27129 0.929932 0.929993 1.27123 0.929993 1.69224V12.8248C0.929974 14.0831 0.929959 15.1044 1.03818 15.9093C1.15093 16.7479 1.39356 17.4648 1.96436 18.0356C2.53516 18.6064 3.25199 18.849 4.09059 18.9617C4.89549 19.07 5.91679 19.07 7.17501 19.0699H18.3077C18.7287 19.0699 19.07 18.7286 19.07 18.3076C19.07 17.8866 18.7287 17.5453 18.3077 17.5453H7.23076C5.90375 17.5453 4.98523 17.5437 4.29374 17.4507C3.62422 17.3607 3.28275 17.1978 3.04242 16.9575C2.8021 16.7172 2.63921 16.3757 2.5492 15.7062C2.45623 15.0147 2.45461 14.0962 2.45461 12.7692V1.69224C2.45461 1.27123 2.11331 0.929932 1.6923 0.929932Z"
    fill="currentColor"
  />
</svg>
