<svg width="20" height="20" viewBox="0 0 20 20" fill="currentcolor" xmlns="http://www.w3.org/2000/svg">
  <path d="M5.42013 10.1595C5.00237 10.1595 4.6637 10.4981 4.6637 10.9159V14.5797C4.6637 14.9975 5.00237 15.3361 5.42013 15.3361C5.83789 15.3361 6.17655 14.9975 6.17655 14.5797V10.9159C6.17655 10.4981 5.83789 10.1595 5.42013 10.1595Z" fill="currentcolor" />
  <path d="M9.08401 5.57986C8.66625 5.57986 8.32759 5.91852 8.32759 6.33628L8.32759 14.5799C8.32759 14.9976 8.66625 15.3363 9.08401 15.3363C9.50178 15.3363 9.84044 14.9976 9.84044 14.5799L9.84044 6.33628C9.84044 5.91852 9.50178 5.57986 9.08401 5.57986Z" fill="currentcolor" />
  <path d="M12.7478 7.41156C12.33 7.41156 11.9914 7.75022 11.9914 8.16798V14.5797C11.9914 14.9974 12.33 15.3361 12.7478 15.3361C13.1655 15.3361 13.5042 14.9974 13.5042 14.5797V8.16798C13.5042 7.75022 13.1655 7.41156 12.7478 7.41156Z" fill="currentcolor" />
  <path d="M16.4117 3.74791C15.9939 3.74791 15.6552 4.08658 15.6552 4.50434L15.6552 14.5798C15.6552 14.9976 15.9939 15.3362 16.4117 15.3362C16.8294 15.3362 17.1681 14.9976 17.1681 14.5798V4.50434C17.1681 4.08658 16.8294 3.74791 16.4117 3.74791Z" fill="currentcolor" />
  <path d="M1.69224 0.929932C1.27123 0.929932 0.929932 1.27123 0.929932 1.69224V12.8248C0.929913 14.0831 0.929898 15.1044 1.03812 15.9093C1.15086 16.7479 1.39349 17.4648 1.9643 18.0356C2.5351 18.6064 3.25192 18.849 4.09053 18.9617C4.89543 19.07 5.91673 19.07 7.17495 19.0699H18.3076C18.7286 19.0699 19.0699 18.7286 19.0699 18.3076C19.0699 17.8866 18.7286 17.5453 18.3076 17.5453H7.2307C5.90369 17.5453 4.98517 17.5437 4.29368 17.4507C3.62416 17.3607 3.28268 17.1978 3.04236 16.9575C2.80204 16.7172 2.63915 16.3757 2.54914 15.7062C2.45617 15.0147 2.45455 14.0962 2.45455 12.7692V1.69224C2.45455 1.27123 2.11325 0.929932 1.69224 0.929932Z" fill="currentcolor" />
</svg>
