<svg
  xmlns="http://www.w3.org/2000/svg"
  width="20"
  height="20"
  viewBox="0 0 20 20"
  fill="none"
>
  <path
    d="M5.42019 10.1595C5.00243 10.1595 4.66376 10.4981 4.66376 10.9159V14.5797C4.66376 14.9975 5.00243 15.3361 5.42019 15.3361C5.83795 15.3361 6.17661 14.9975 6.17661 14.5797V10.9159C6.17661 10.4981 5.83795 10.1595 5.42019 10.1595Z"
    fill="currentColor"
  />
  <path
    d="M9.08408 5.57986C8.66631 5.57986 8.32765 5.91852 8.32765 6.33628L8.32765 14.5799C8.32765 14.9976 8.66631 15.3363 9.08408 15.3363C9.50184 15.3363 9.8405 14.9976 9.8405 14.5799L9.8405 6.33628C9.8405 5.91852 9.50184 5.57986 9.08408 5.57986Z"
    fill="currentColor"
  />
  <path
    d="M12.7478 7.41156C12.3301 7.41156 11.9914 7.75022 11.9914 8.16798V14.5797C11.9914 14.9974 12.3301 15.3361 12.7478 15.3361C13.1656 15.3361 13.5043 14.9974 13.5043 14.5797V8.16798C13.5043 7.75022 13.1656 7.41156 12.7478 7.41156Z"
    fill="currentColor"
  />
  <path
    d="M16.4117 3.74791C15.994 3.74791 15.6553 4.08658 15.6553 4.50434L15.6553 14.5798C15.6553 14.9976 15.994 15.3362 16.4117 15.3362C16.8295 15.3362 17.1681 14.9976 17.1681 14.5798V4.50434C17.1681 4.08658 16.8295 3.74791 16.4117 3.74791Z"
    fill="currentColor"
  />
  <path
    d="M1.6923 0.929932C1.27129 0.929932 0.929993 1.27123 0.929993 1.69224V12.8248C0.929974 14.0831 0.929959 15.1044 1.03818 15.9093C1.15093 16.7479 1.39356 17.4648 1.96436 18.0356C2.53516 18.6064 3.25199 18.849 4.09059 18.9617C4.89549 19.07 5.91679 19.07 7.17501 19.0699H18.3077C18.7287 19.0699 19.07 18.7286 19.07 18.3076C19.07 17.8866 18.7287 17.5453 18.3077 17.5453H7.23076C5.90375 17.5453 4.98523 17.5437 4.29374 17.4507C3.62422 17.3607 3.28275 17.1978 3.04242 16.9575C2.8021 16.7172 2.63921 16.3757 2.5492 15.7062C2.45623 15.0147 2.45461 14.0962 2.45461 12.7692V1.69224C2.45461 1.27123 2.11331 0.929932 1.6923 0.929932Z"
    fill="currentColor"
  />
</svg>
