<svg width="20" height="20" viewBox="0 0 20 20" fill="currentcolor" xmlns="http://www.w3.org/2000/svg">
  <path fill-rule="evenodd" d="M14.1811 3.15455C14.5109 3.40513 14.5752 3.87564 14.3246 4.20546L8.51907 11.8469C8.3851 12.0232 8.18005 12.1314 7.95886 12.1423C7.73767 12.1532 7.52297 12.0658 7.37228 11.9035L4.14699 8.43015C3.86514 8.12661 3.88272 7.65207 4.18625 7.37021C4.48978 7.08836 4.96433 7.10594 5.24618 7.40947L7.86439 10.2291L13.1302 3.29804C13.3808 2.96821 13.8513 2.90397 14.1811 3.15455Z" fill="currentcolor" />
  <path fill-rule="evenodd" d="M16.7102 5.50354C17.0381 5.75654 17.0989 6.22751 16.8459 6.55548L9.52314 16.048C9.51534 16.0581 9.50751 16.0682 9.49966 16.0784C9.3543 16.267 9.20092 16.466 9.05023 16.613C8.87633 16.7826 8.61269 16.9782 8.2374 16.9968C7.8621 17.0153 7.58043 16.8467 7.39063 16.6951C7.22615 16.5637 7.05388 16.3808 6.8906 16.2076C6.88178 16.1982 6.873 16.1889 6.86424 16.1796L3.2022 12.2956C2.91805 11.9942 2.93201 11.5196 3.23339 11.2354C3.53476 10.9512 4.00943 10.9652 4.29359 11.2666L7.95562 15.1506C8.03476 15.2345 8.09944 15.303 8.15645 15.3615C8.20741 15.2977 8.265 15.2231 8.33546 15.1318L15.6582 5.63927C15.9112 5.31131 16.3822 5.25054 16.7102 5.50354Z" fill="currentcolor" />
</svg>
