<svg width="20" height="20" viewBox="0 0 20 20" fill="currentColor" xmlns="http://www.w3.org/2000/svg">
  <path fill-rule="evenodd" d="M14.1811 3.15461C14.5109 3.40519 14.5751 3.8757 14.3245 4.20552L8.51904 11.847C8.38507 12.0233 8.18001 12.1314 7.95883 12.1423C7.73764 12.1533 7.52294 12.0659 7.37225 11.9036L4.14696 8.43021C3.86511 8.12668 3.88269 7.65213 4.18622 7.37028C4.48975 7.08842 4.9643 7.106 5.24615 7.40953L7.86436 10.2291L13.1302 3.2981C13.3807 2.96827 13.8512 2.90403 14.1811 3.15461Z" fill="currentColor" />
  <path fill-rule="evenodd" d="M16.7101 5.5036C17.0381 5.7566 17.0989 6.22757 16.8459 6.55554L9.52311 16.048C9.51531 16.0581 9.50748 16.0683 9.49963 16.0785C9.35427 16.267 9.20089 16.466 9.0502 16.613C8.8763 16.7827 8.61266 16.9782 8.23737 16.9968C7.86207 17.0154 7.5804 16.8468 7.3906 16.6952C7.22612 16.5638 7.05384 16.3809 6.89057 16.2076C6.88175 16.1983 6.87297 16.1889 6.86421 16.1796L3.20217 12.2957C2.91802 11.9943 2.93198 11.5196 3.23336 11.2355C3.53473 10.9513 4.0094 10.9653 4.29356 11.2666L7.95559 15.1506C8.03473 15.2346 8.09941 15.3031 8.15642 15.3615C8.20738 15.2978 8.26497 15.2232 8.33543 15.1318L15.6582 5.63934C15.9112 5.31137 16.3822 5.2506 16.7101 5.5036Z" fill="currentColor" />
</svg>
