<svg
  xmlns="http://www.w3.org/2000/svg"
  width="20"
  height="20"
  viewBox="0 0 20 20"
  fill="none"
>
  <path
    fill-rule="evenodd"
    clip-rule="evenodd"
    d="M10.0496 6.49571H9.9504C9.34492 6.49568 8.81643 6.49565 8.39163 6.55276C7.93366 6.61433 7.48488 6.75448 7.11968 7.11968C6.75448 7.48488 6.61433 7.93366 6.55276 8.39163C6.49565 8.81643 6.49568 9.34492 6.49571 9.9504V10.0496C6.49568 10.6551 6.49565 11.1836 6.55276 11.6084C6.61433 12.0663 6.75448 12.5151 7.11968 12.8803C7.48488 13.2455 7.93366 13.3857 8.39163 13.4472C8.81643 13.5043 9.34491 13.5043 9.95039 13.5043H10.0496C10.6551 13.5043 11.1836 13.5043 11.6084 13.4472C12.0663 13.3857 12.5151 13.2455 12.8803 12.8803C13.2455 12.5151 13.3857 12.0663 13.4472 11.6084C13.5043 11.1836 13.5043 10.6551 13.5043 10.0496V9.9504C13.5043 9.34493 13.5043 8.81643 13.4472 8.39163C13.3857 7.93366 13.2455 7.48488 12.8803 7.11968C12.5151 6.75448 12.0663 6.61433 11.6084 6.55276C11.1836 6.49565 10.6551 6.49568 10.0496 6.49571ZM8.59321 8.05212C8.90522 8.01017 9.33085 8.00856 9.99999 8.00856C10.6691 8.00856 11.0948 8.01017 11.4068 8.05212C11.6969 8.09112 11.7733 8.15212 11.8106 8.18942C11.8479 8.22673 11.9089 8.30309 11.9479 8.59321C11.9898 8.90522 11.9914 9.33085 11.9914 9.99999C11.9914 10.6691 11.9898 11.0948 11.9479 11.4068C11.9089 11.6969 11.8479 11.7733 11.8106 11.8106C11.7733 11.8479 11.6969 11.9089 11.4068 11.9479C11.0948 11.9898 10.6691 11.9914 9.99999 11.9914C9.33085 11.9914 8.90522 11.9898 8.59321 11.9479C8.30309 11.9089 8.22673 11.8479 8.18942 11.8106C8.15212 11.7733 8.09112 11.6969 8.05212 11.4068C8.01017 11.0948 8.00856 10.6691 8.00856 9.99999C8.00856 9.33085 8.01017 8.90522 8.05212 8.59321C8.09112 8.30309 8.15212 8.22673 8.18942 8.18942C8.22673 8.15212 8.30309 8.09112 8.59321 8.05212Z"
    fill="currentColor"
  />
  <path
    fill-rule="evenodd"
    clip-rule="evenodd"
    d="M10 1C5.02944 1 1 5.02944 1 10C1 14.9706 5.02944 19 10 19C14.9706 19 19 14.9706 19 10C19 5.02944 14.9706 1 10 1ZM2.51285 10C2.51285 5.86496 5.86496 2.51285 10 2.51285C14.135 2.51285 17.4872 5.86496 17.4872 10C17.4872 14.135 14.135 17.4872 10 17.4872C5.86496 17.4872 2.51285 14.135 2.51285 10Z"
    fill="currentColor"
  />
</svg>
