<svg
  xmlns="http://www.w3.org/2000/svg"
  width="20"
  height="20"
  viewBox="0 0 20 20"
  fill="none"
>
  <path
    d="M9.99999 6.65287C9.58223 6.65287 9.24356 6.99153 9.24356 7.40929V9.24357H7.40929C6.99153 9.24357 6.65287 9.58224 6.65287 10C6.65287 10.4178 6.99153 10.7564 7.40929 10.7564H9.24356V12.5907C9.24356 13.0085 9.58223 13.3471 9.99999 13.3471C10.4178 13.3471 10.7564 13.0085 10.7564 12.5907V10.7564H12.5907C13.0085 10.7564 13.3471 10.4178 13.3471 10C13.3471 9.58224 13.0085 9.24357 12.5907 9.24357H10.7564V7.40929C10.7564 6.99153 10.4178 6.65287 9.99999 6.65287Z"
    fill="currentColor"
  />
  <path
    fill-rule="evenodd"
    clip-rule="evenodd"
    d="M10 1C5.02944 1 1 5.02944 1 10C1 14.9706 5.02944 19 10 19C14.9706 19 19 14.9706 19 10C19 5.02944 14.9706 1 10 1ZM2.51285 10C2.51285 5.86496 5.86496 2.51285 10 2.51285C14.135 2.51285 17.4872 5.86496 17.4872 10C17.4872 14.135 14.135 17.4872 10 17.4872C5.86496 17.4872 2.51285 14.135 2.51285 10Z"
    fill="currentColor"
  />
</svg>
