<svg width="20" height="20" viewBox="0 0 20 20" fill="currentcolor" xmlns="http://www.w3.org/2000/svg">
  <path d="M12.0345 7.12904C12.3555 6.86159 12.8325 6.90495 13.0999 7.22589C13.3673 7.54682 13.324 8.02379 13.003 8.29124L10.9525 10L13.003 11.7088C13.324 11.9762 13.3673 12.4532 13.0999 12.7742C12.8325 13.0951 12.3555 13.1384 12.0345 12.871L9.28669 10.5811C9.11423 10.4374 9.01451 10.2245 9.01451 10C9.01451 9.77553 9.11423 9.56263 9.28669 9.41892L12.0345 7.12904Z" fill="currentcolor" />
  <path d="M7.48109 6.95369C7.89885 6.95369 8.23752 7.29236 8.23752 7.71012V12.2899C8.23752 12.7076 7.89885 13.0463 7.48109 13.0463C7.06333 13.0463 6.72467 12.7076 6.72467 12.2899V7.71012C6.72467 7.29236 7.06333 6.95369 7.48109 6.95369Z" fill="currentcolor" />
  <path fill-rule="evenodd" d="M10 1C14.9706 1 19 5.02944 19 10C19 14.9706 14.9706 19 10 19C5.02944 19 1 14.9706 1 10C1 5.02944 5.02944 1 10 1ZM17.4872 10C17.4872 5.86496 14.135 2.51285 10 2.51285C5.86496 2.51285 2.51285 5.86496 2.51285 10C2.51285 14.135 5.86496 17.4872 10 17.4872C14.135 17.4872 17.4872 14.135 17.4872 10Z" fill="currentcolor" />
</svg>
