<svg width="20" height="20" viewBox="0 0 20 20" fill="currentColor" xmlns="http://www.w3.org/2000/svg">
  <path d="M9.99998 6.62683C9.57897 6.62683 9.23767 6.96813 9.23767 7.38914V9.23768H7.38914C6.96813 9.23768 6.62683 9.57898 6.62683 9.99999C6.62683 10.421 6.96813 10.7623 7.38914 10.7623H9.23767V12.6108C9.23767 13.0319 9.57897 13.3732 9.99998 13.3732C10.421 13.3732 10.7623 13.0319 10.7623 12.6108V10.7623H12.6108C13.0319 10.7623 13.3732 10.421 13.3732 9.99999C13.3732 9.57898 13.0319 9.23768 12.6108 9.23768H10.7623V7.38914C10.7623 6.96813 10.421 6.62683 9.99998 6.62683Z" fill="currentColor" />
  <path fill-rule="evenodd" d="M9.99999 0.929993C4.99077 0.929993 0.929993 4.99077 0.929993 9.99999C0.929993 15.0092 4.99077 19.07 9.99999 19.07C15.0092 19.07 19.07 15.0092 19.07 9.99999C19.07 4.99077 15.0092 0.929993 9.99999 0.929993ZM2.45461 9.99999C2.45461 5.83279 5.83279 2.45461 9.99999 2.45461C14.1672 2.45461 17.5454 5.83279 17.5454 9.99999C17.5454 14.1672 14.1672 17.5454 9.99999 17.5454C5.83279 17.5454 2.45461 14.1672 2.45461 9.99999Z" fill="currentColor" />
</svg>
