<svg width="20" height="20" viewBox="0 0 20 20" fill="currentcolor" xmlns="http://www.w3.org/2000/svg">
  <path d="M11.8319 6.95369C11.4141 6.95369 11.0754 7.29236 11.0754 7.71012V12.2899C11.0754 12.7076 11.4141 13.0463 11.8319 13.0463C12.2496 13.0463 12.5883 12.7076 12.5883 12.2899V7.71012C12.5883 7.29236 12.2496 6.95369 11.8319 6.95369Z" fill="currentcolor" />
  <path d="M8.1681 6.95369C7.75034 6.95369 7.41168 7.29236 7.41168 7.71012V12.2899C7.41168 12.7076 7.75034 13.0463 8.1681 13.0463C8.58587 13.0463 8.92453 12.7076 8.92453 12.2899V7.71012C8.92453 7.29236 8.58587 6.95369 8.1681 6.95369Z" fill="currentcolor" />
  <path fill-rule="evenodd" d="M10 1C5.02944 1 1 5.02944 1 10C1 14.9706 5.02944 19 10 19C14.9706 19 19 14.9706 19 10C19 5.02944 14.9706 1 10 1ZM2.51285 10C2.51285 5.86496 5.86496 2.51285 10 2.51285C14.135 2.51285 17.4872 5.86496 17.4872 10C17.4872 14.135 14.135 17.4872 10 17.4872C5.86496 17.4872 2.51285 14.135 2.51285 10Z" fill="currentcolor" />
</svg>
