<svg
  xmlns="http://www.w3.org/2000/svg"
  width="20"
  height="20"
  viewBox="0 0 20 20"
  fill="none"
>
  <path
    d="M7.96546 7.12904C7.64452 6.86159 7.16755 6.90495 6.9001 7.22589C6.63266 7.54682 6.67602 8.02379 6.99695 8.29124L9.04749 10L6.99695 11.7088C6.67602 11.9762 6.63266 12.4532 6.9001 12.7742C7.16755 13.0951 7.64452 13.1384 7.96546 12.871L10.7133 10.5811C10.8858 10.4374 10.9855 10.2245 10.9855 10C10.9855 9.77553 10.8858 9.56263 10.7133 9.41892L7.96546 7.12904Z"
    fill="currentColor"
  />
  <path
    d="M12.5189 6.95369C12.1011 6.95369 11.7625 7.29236 11.7625 7.71012V12.2899C11.7625 12.7076 12.1011 13.0463 12.5189 13.0463C12.9367 13.0463 13.2753 12.7076 13.2753 12.2899V7.71012C13.2753 7.29236 12.9367 6.95369 12.5189 6.95369Z"
    fill="currentColor"
  />
  <path
    fill-rule="evenodd"
    clip-rule="evenodd"
    d="M10 1C5.02944 1 1 5.02944 1 10C1 14.9706 5.02944 19 10 19C14.9706 19 19 14.9706 19 10C19 5.02944 14.9706 1 10 1ZM2.51285 10C2.51285 5.86496 5.86496 2.51285 10 2.51285C14.135 2.51285 17.4872 5.86496 17.4872 10C17.4872 14.135 14.135 17.4872 10 17.4872C5.86496 17.4872 2.51285 14.135 2.51285 10Z"
    fill="currentColor"
  />
</svg>
