<svg width="20" height="20" viewBox="0 0 20 20" fill="currentcolor" xmlns="http://www.w3.org/2000/svg">
  <path d="M12.3668 7.63323C12.0714 7.33783 11.5924 7.33783 11.297 7.63323L10 8.93026L8.70298 7.63323C8.40757 7.33783 7.92863 7.33783 7.63323 7.63323C7.33783 7.92863 7.33783 8.40758 7.63323 8.70298L8.93026 10L7.63323 11.297C7.33783 11.5924 7.33783 12.0714 7.63323 12.3668C7.92863 12.6622 8.40757 12.6622 8.70298 12.3668L10 11.0698L11.297 12.3668C11.5924 12.6622 12.0714 12.6622 12.3668 12.3668C12.6622 12.0714 12.6622 11.5924 12.3668 11.297L11.0698 10L12.3668 8.70298C12.6622 8.40757 12.6622 7.92863 12.3668 7.63323Z" fill="currentcolor" />
  <path fill-rule="evenodd" d="M10 1C5.02944 1 1 5.02944 1 10C1 14.9706 5.02944 19 10 19C14.9706 19 19 14.9706 19 10C19 5.02944 14.9706 1 10 1ZM2.51285 10C2.51285 5.86496 5.86496 2.51285 10 2.51285C14.135 2.51285 17.4872 5.86496 17.4872 10C17.4872 14.135 14.135 17.4872 10 17.4872C5.86496 17.4872 2.51285 14.135 2.51285 10Z" fill="currentcolor" />
</svg>
