<svg
  xmlns="http://www.w3.org/2000/svg"
  width="20"
  height="20"
  viewBox="0 0 20 20"
  fill="none"
>
  <path
    fill-rule="evenodd"
    clip-rule="evenodd"
    d="M10 1C5.02944 1 1 5.02944 1 10C1 14.9706 5.02944 19 10 19C14.9706 19 19 14.9706 19 10C19 5.02944 14.9706 1 10 1ZM2.51285 10C2.51285 5.86496 5.86496 2.51285 10 2.51285C14.135 2.51285 17.4872 5.86496 17.4872 10C17.4872 14.135 14.135 17.4872 10 17.4872C5.86496 17.4872 2.51285 14.135 2.51285 10Z"
    fill="currentColor"
  />
  <path
    d="M7.40929 9.24359C6.99153 9.24359 6.65287 9.57938 6.65287 9.99359C6.65287 10.4078 6.99153 10.7436 7.40929 10.7436H12.5907C13.0085 10.7436 13.3471 10.4078 13.3471 9.99359C13.3471 9.57938 13.0085 9.24359 12.5907 9.24359H7.40929Z"
    fill="currentColor"
  />
</svg>
