<svg width="20" height="20" viewBox="0 0 20 20" fill="currentcolor" xmlns="http://www.w3.org/2000/svg">
  <path fill-rule="evenodd" d="M9.79983 6.69443C9.40054 6.49179 8.94091 6.32836 8.45056 6.45049C8.12949 6.53045 7.83484 6.6963 7.5963 6.93101C7.23246 7.289 7.11756 7.77431 7.0671 8.22957C7.01713 8.68049 7.01715 9.26228 7.01717 9.9554V10.0442C7.01715 10.7373 7.01713 11.3191 7.0671 11.77C7.11756 12.2253 7.23246 12.7106 7.5963 13.0686C7.83484 13.3033 8.12949 13.4692 8.45056 13.5491C8.94091 13.6712 9.40054 13.5078 9.79983 13.3052C10.1952 13.1045 10.6703 12.7898 11.2358 12.4151L11.3071 12.3679C11.795 12.0447 12.211 11.7692 12.5148 11.5135C12.8283 11.2498 13.1261 10.9247 13.2371 10.4673C13.3116 10.1604 13.3116 9.83926 13.2371 9.5323C13.1261 9.07488 12.8283 8.74986 12.5148 8.48607C12.211 8.23043 11.7951 7.95492 11.3071 7.63172L11.2359 7.58451C10.6703 7.20981 10.1952 6.89507 9.79983 6.69443ZM8.56326 7.9684C8.624 7.90863 8.69878 7.86664 8.77994 7.84643C8.78083 7.8462 8.78587 7.84493 8.79712 7.84502C8.80926 7.84512 8.82935 7.84682 8.85987 7.8537C8.92127 7.86755 9.02205 7.90176 9.18066 7.98226C9.49561 8.14209 9.90335 8.41085 10.5148 8.81587C11.0467 9.16827 11.3943 9.39986 11.6291 9.59735C11.8592 9.79101 11.8784 9.87063 11.8806 9.8798C11.8997 9.95858 11.8997 10.0413 11.8806 10.12C11.8784 10.1292 11.8592 10.2086 11.6291 10.4023C11.3943 10.5997 11.0467 10.8313 10.5148 11.1837C9.90335 11.5888 9.49561 11.8575 9.18066 12.0174C9.02205 12.0978 8.92127 12.1321 8.85987 12.1459C8.82935 12.1528 8.80926 12.1545 8.79712 12.1546C8.78555 12.1547 8.78062 12.1534 8.77994 12.1532C8.69878 12.133 8.62395 12.0909 8.56321 12.0312C8.56243 12.0304 8.5585 12.0265 8.55226 12.0164C8.54558 12.0054 8.53595 11.9868 8.52497 11.9563C8.50287 11.8951 8.47623 11.7888 8.45615 11.6075C8.41628 11.2478 8.41518 10.7487 8.41518 9.9998C8.41518 9.25094 8.41628 8.75185 8.45615 8.39209C8.47623 8.21083 8.50287 8.10454 8.52497 8.04328C8.53595 8.01281 8.54558 7.99416 8.55226 7.98326C8.5585 7.97307 8.56247 7.96917 8.56326 7.9684Z" fill="currentcolor" />
  <path fill-rule="evenodd" d="M10 1C5.02944 1 1 5.02944 1 10C1 14.9706 5.02944 19 10 19C14.9706 19 19 14.9706 19 10C19 5.02944 14.9706 1 10 1ZM2.51285 10C2.51285 5.86496 5.86496 2.51285 10 2.51285C14.135 2.51285 17.4872 5.86496 17.4872 10C17.4872 14.135 14.135 17.4872 10 17.4872C5.86496 17.4872 2.51285 14.135 2.51285 10Z" fill="currentcolor" />
</svg>
