<svg width="20" height="20" viewBox="0 0 20 20" fill="currentcolor" xmlns="http://www.w3.org/2000/svg">
  <path d="M9.99998 6.62689C9.57897 6.62689 9.23767 6.96819 9.23767 7.3892V9.23774H7.38914C6.96813 9.23774 6.62683 9.57904 6.62683 10C6.62683 10.4211 6.96813 10.7624 7.38914 10.7624H9.23767V12.6109C9.23767 13.0319 9.57897 13.3732 9.99998 13.3732C10.421 13.3732 10.7623 13.0319 10.7623 12.6109V10.7624H12.6108C13.0319 10.7624 13.3732 10.4211 13.3732 10C13.3732 9.57904 13.0319 9.23774 12.6108 9.23774H10.7623V7.3892C10.7623 6.96819 10.421 6.62689 9.99998 6.62689Z" fill="currentcolor" />
  <path fill-rule="evenodd" d="M9.99999 0.930054C4.99077 0.930054 0.929993 4.99083 0.929993 10.0001C0.929993 15.0093 4.99077 19.0701 9.99999 19.0701C15.0092 19.0701 19.07 15.0093 19.07 10.0001C19.07 4.99083 15.0092 0.930054 9.99999 0.930054ZM2.45461 10.0001C2.45461 5.83285 5.83279 2.45467 9.99999 2.45467C14.1672 2.45467 17.5454 5.83285 17.5454 10.0001C17.5454 14.1673 14.1672 17.5454 9.99999 17.5454C5.83279 17.5454 2.45461 14.1673 2.45461 10.0001Z" fill="currentcolor" />
</svg>
