<svg
  xmlns="http://www.w3.org/2000/svg"
  width="20"
  height="20"
  viewBox="0 0 20 20"
  fill="none"
>
  <path
    fill-rule="evenodd"
    clip-rule="evenodd"
    d="M14.2487 1.04125C14.2969 1.16 14.3253 1.27711 14.3425 1.38866C14.7738 1.3961 15.1192 1.42135 15.4297 1.50614C16.6269 1.83311 17.5614 2.786 17.8818 4.005C18.0004 4.45589 18.0002 4.97928 18 5.72643L17.9999 13.7506C18 15.0099 18 16.0319 17.8937 16.8374C17.7831 17.6763 17.5449 18.3934 16.9846 18.9646C16.424 19.5359 15.7199 19.7788 14.8962 19.8917C14.1058 20 13.1029 20 11.8675 20H8.13247C6.89713 20 5.89423 20 5.10378 19.8917C4.28008 19.7788 3.57599 19.5359 3.01544 18.9646C2.45505 18.3934 2.21692 17.6763 2.10626 16.8374C2.00001 16.0319 2.00003 15.01 2.00005 13.7506L2.00002 5.7265C1.99978 4.97931 1.99961 4.4559 2.11815 4.005C2.43862 2.786 3.37306 1.83311 4.57032 1.50614C4.88077 1.42136 5.22617 1.3961 5.6574 1.38866C5.67468 1.27711 5.70302 1.16 5.75128 1.04125C5.9191 0.628306 6.24116 0.299846 6.647 0.128514C6.83687 0.0483547 7.02246 0.0220157 7.18711 0.010566C7.33935 -2.07286e-05 7.51971 -1.03633e-05 7.71243 7.14094e-07H12.2875C12.4802 -1.03633e-05 12.6606 -2.07286e-05 12.8128 0.010566C12.9775 0.0220157 13.1631 0.0483547 13.3529 0.128514C13.7588 0.299846 14.0808 0.628306 14.2487 1.04125ZM14.2487 3.25473C14.2959 3.13848 14.3241 3.02381 14.3414 2.91438C14.7087 2.92094 14.8909 2.93762 15.0413 2.9787C15.7207 3.16424 16.2521 3.70534 16.4344 4.39904C16.4952 4.63018 16.5016 4.9346 16.5016 5.84306V13.6951C16.5016 15.023 16.5001 15.9424 16.4087 16.6345C16.3203 17.3048 16.1603 17.6468 15.9242 17.8873C15.6884 18.1277 15.3533 18.2906 14.6962 18.3807C14.0174 18.4737 13.1157 18.4753 11.8127 18.4753H8.1873C6.88428 18.4753 5.98255 18.4737 5.30375 18.3807C4.64665 18.2906 4.31162 18.1277 4.07575 17.8873C3.83971 17.6468 3.67967 17.3048 3.59125 16.6345C3.49995 15.9424 3.49836 15.023 3.49836 13.6951V5.84306C3.49836 4.9346 3.50479 4.63018 3.56556 4.39904C3.74793 3.70534 4.27932 3.16424 4.9587 2.9787C5.10911 2.93763 5.29129 2.92095 5.65851 2.91438C5.67588 3.02381 5.70403 3.13848 5.75128 3.25473C5.9191 3.66767 6.24116 3.99613 6.647 4.16746C6.83687 4.24762 7.02246 4.27396 7.18711 4.28541C7.33936 4.296 7.51974 4.29599 7.71247 4.29598H12.2875C12.4802 4.29599 12.6606 4.296 12.8128 4.28541C12.9775 4.27396 13.1631 4.24762 13.3529 4.16746C13.7588 3.99613 14.0808 3.66767 14.2487 3.25473ZM7.28926 1.53169C7.38418 1.52509 7.51262 1.52468 7.7341 1.52468H12.2658C12.4873 1.52468 12.6158 1.52509 12.7107 1.53169C12.7542 1.53472 12.7771 1.5384 12.7862 1.54018C12.8187 1.55597 12.8452 1.58286 12.8609 1.61655C12.8626 1.62582 12.8663 1.64924 12.8693 1.69436C12.8758 1.79125 12.8762 1.9223 12.8762 2.14799C12.8762 2.37368 12.8758 2.50473 12.8693 2.60162C12.8663 2.64673 12.8626 2.67016 12.8609 2.67943C12.8452 2.71311 12.8187 2.74 12.7862 2.7558C12.7771 2.75758 12.7542 2.76126 12.7107 2.76428C12.6158 2.77089 12.4873 2.7713 12.2658 2.7713H7.7341C7.51262 2.7713 7.38418 2.77089 7.28926 2.76428C7.2457 2.76126 7.22288 2.75758 7.21372 2.7558C7.1812 2.74 7.15473 2.71311 7.13907 2.67943C7.13732 2.67016 7.13364 2.64673 7.13062 2.60162C7.12414 2.50473 7.12373 2.37368 7.12373 2.14799C7.12373 1.9223 7.12414 1.79125 7.13062 1.69436C7.13364 1.64925 7.13732 1.62582 7.13907 1.61655C7.15473 1.58286 7.1812 1.55597 7.21372 1.54018C7.22288 1.5384 7.2457 1.53472 7.28926 1.53169Z"
    fill="currentColor"
  />
</svg>
