<svg
  xmlns="http://www.w3.org/2000/svg"
  width="20"
  height="20"
  viewBox="0 0 20 20"
  fill="none"
>
  <path
    fill-rule="evenodd"
    clip-rule="evenodd"
    d="M13.7178 1H11.7779C10.7442 0.999979 9.89253 0.999961 9.21849 1.09058C8.51108 1.18569 7.88729 1.39291 7.38796 1.89224C6.88863 2.39157 6.68141 3.01536 6.5863 3.72278C6.49568 4.39682 6.4957 5.2485 6.49572 6.28215V8.22214C6.4957 9.25578 6.49568 10.1075 6.5863 10.7815C6.68141 11.4889 6.88863 12.1127 7.38796 12.612C7.88729 13.1114 8.51108 13.3186 9.21849 13.4137C9.89254 13.5043 10.7442 13.5043 11.7779 13.5043H13.7178C14.7515 13.5043 15.6032 13.5043 16.2772 13.4137C16.9846 13.3186 17.6084 13.1114 18.1078 12.612C18.6071 12.1127 18.8143 11.4889 18.9094 10.7815C19 10.1075 19 9.25577 19 8.22212V6.28216C19 5.24851 19 4.39682 18.9094 3.72278C18.8143 3.01536 18.6071 2.39157 18.1078 1.89224C17.6084 1.39291 16.9846 1.18569 16.2772 1.09058C15.6032 0.999961 14.7515 0.999979 13.7178 1ZM9.42007 2.58994C9.98151 2.51446 10.731 2.51285 11.8319 2.51285H13.6638C14.7647 2.51285 15.5142 2.51446 16.0756 2.58994C16.6153 2.66249 16.8666 2.79059 17.038 2.96199C17.2094 3.13339 17.3375 3.38473 17.4101 3.92436C17.4855 4.4858 17.4871 5.2353 17.4871 6.33619V8.16809C17.4871 9.26898 17.4855 10.0185 17.4101 10.5799C17.3375 11.1196 17.2094 11.3709 17.038 11.5423C16.8666 11.7137 16.6153 11.8418 16.0756 11.9143C15.5142 11.9898 14.7647 11.9914 13.6638 11.9914H11.8319C10.731 11.9914 9.98151 11.9898 9.42007 11.9143C8.88045 11.8418 8.62911 11.7137 8.45771 11.5423C8.2863 11.3709 8.15821 11.1196 8.08566 10.5799C8.01017 10.0185 8.00857 9.26898 8.00857 8.16809V6.33619C8.00857 5.2353 8.01017 4.4858 8.08566 3.92436C8.15821 3.38473 8.2863 3.13339 8.45771 2.96199C8.62911 2.79059 8.88045 2.66249 9.42007 2.58994Z"
    fill="currentColor"
  />
  <path
    d="M5.42024 6.49572H5.38865C4.77417 6.49571 4.26743 6.4957 3.85465 6.52943C3.42601 6.56445 3.03263 6.63957 2.66331 6.82775C2.09011 7.1198 1.62409 7.58583 1.33203 8.15903C1.14385 8.52835 1.06873 8.92173 1.03371 9.35037C0.999988 9.76313 0.999994 10.2698 1 10.8843V13.7178C0.999979 14.7515 0.999961 15.6032 1.09058 16.2772C1.18569 16.9846 1.39291 17.6084 1.89224 18.1078C2.39157 18.6071 3.01536 18.8143 3.72278 18.9094C4.39682 19 5.24851 19 6.28216 19H9.1158C9.73021 19 10.2369 19 10.6496 18.9663C11.0783 18.9313 11.4717 18.8561 11.841 18.668C12.4142 18.3759 12.8802 17.9099 13.1723 17.3367C13.3604 16.9674 13.4356 16.574 13.4706 16.1454C13.5043 15.7326 13.5043 15.2259 13.5043 14.6114V14.5798C13.5043 14.162 13.1656 13.8233 12.7479 13.8233C12.3301 13.8233 11.9914 14.162 11.9914 14.5798C11.9914 15.2335 11.9908 15.6783 11.9627 16.0222C11.9354 16.3572 11.8857 16.5294 11.8243 16.6499C11.6773 16.9384 11.4427 17.173 11.1542 17.32C11.0337 17.3814 10.8615 17.4311 10.5264 17.4585C10.1826 17.4866 9.73778 17.4871 9.08405 17.4871H6.33619C5.2353 17.4871 4.4858 17.4855 3.92436 17.4101C3.38473 17.3375 3.13339 17.2094 2.96199 17.038C2.79059 16.8666 2.66249 16.6153 2.58994 16.0756C2.51446 15.5142 2.51285 14.7647 2.51285 13.6638L2.51285 10.916C2.51285 10.2622 2.51344 9.81745 2.54154 9.47356C2.56891 9.13847 2.61859 8.96634 2.67999 8.84585C2.82701 8.55731 3.0616 8.32272 3.35013 8.1757C3.47063 8.11431 3.64275 8.06463 3.97784 8.03725C4.32173 8.00916 4.7665 8.00857 5.42024 8.00857C5.838 8.00857 6.17666 7.6699 6.17666 7.25214C6.17666 6.83438 5.838 6.49572 5.42024 6.49572Z"
    fill="currentColor"
  />
</svg>
