<svg width="20" height="20" viewBox="0 0 20 20" fill="currentcolor" xmlns="http://www.w3.org/2000/svg">
  <path fill-rule="evenodd" d="M4.51456 6.80209C4.54081 6.79122 4.56632 6.77891 4.59097 6.76525C5.09809 6.52761 5.67337 6.39277 6.28868 6.39277C7.58629 6.39277 8.71871 6.99945 9.39703 7.90754C9.64577 8.24055 10.1174 8.30886 10.4504 8.06012C10.7834 7.81138 10.8517 7.33978 10.603 7.00678C9.63946 5.71688 8.05935 4.88757 6.28868 4.88757C5.934 4.88757 5.58642 4.92113 5.2496 4.98526C5.50911 4.46258 5.94762 3.98574 6.53036 3.58195C7.50834 2.90429 8.80159 2.50519 10 2.50519C11.4853 2.50519 12.5146 2.971 13.173 3.64488C13.8364 4.32397 14.1958 5.28882 14.1958 6.41768C14.1958 6.83333 14.5328 7.17028 14.9484 7.17028C15.3856 7.17028 16.0388 7.36486 16.5755 7.81924C17.0879 8.25301 17.4948 8.92241 17.4948 9.9165C17.4948 10.6276 17.3996 11.0862 17.2141 11.4552C17.0278 11.8259 16.7132 12.1804 16.1411 12.6172C15.6641 12.9815 14.8122 13.2965 13.6791 13.5136C12.5695 13.7262 11.2781 13.829 10 13.829C8.71846 13.829 7.42687 13.7339 6.31841 13.5254C5.18569 13.3123 4.34095 12.998 3.86868 12.6249C2.88628 11.8486 2.50523 11.0077 2.50523 9.9165C2.50523 8.58916 3.30706 7.40074 4.51456 6.80209ZM3.50113 5.64323C3.66515 4.24366 4.56019 3.11587 5.67304 2.34476C6.90717 1.4896 8.5005 1 10 1C11.8137 1 13.2585 1.57851 14.2497 2.59306C15.0812 3.44421 15.5424 4.55019 15.6665 5.74402C16.2973 5.87777 16.9722 6.1829 17.5481 6.67044C18.3759 7.37124 19 8.45125 19 9.9165C19 10.7562 18.889 11.4746 18.559 12.1312C18.2299 12.786 17.7198 13.3056 17.0547 13.8135C16.2946 14.394 15.1618 14.7621 13.9623 14.9919C12.7394 15.2262 11.3504 15.3342 10 15.3342C8.65305 15.3342 7.26425 15.2349 6.04015 15.0047C4.84031 14.779 3.70034 14.4102 2.9355 13.8059C1.60217 12.7524 1 11.4812 1 9.9165C1 8.09277 2.00907 6.52368 3.50113 5.64323Z" fill="currentcolor" />
  <path fill-rule="evenodd" d="M5.65639 16.1587C6.05072 16.2901 6.26383 16.7163 6.1324 17.1106L5.67424 18.4852C5.5428 18.8795 5.11659 19.0926 4.72226 18.9612C4.32793 18.8297 4.11481 18.4035 4.24625 18.0092L4.70441 16.6347C4.83584 16.2404 5.26206 16.0273 5.65639 16.1587Z" fill="currentcolor" />
  <path fill-rule="evenodd" d="M10.2382 16.1587C10.6325 16.2901 10.8457 16.7163 10.7142 17.1106L10.2561 18.4852C10.1246 18.8795 9.69842 19.0926 9.30409 18.9612C8.90976 18.8297 8.69664 18.4035 8.82807 18.0092L9.28624 16.6347C9.41767 16.2404 9.84389 16.0273 10.2382 16.1587Z" fill="currentcolor" />
  <path fill-rule="evenodd" d="M14.82 16.1587C15.2144 16.2901 15.4275 16.7163 15.2961 17.1106L14.8379 18.4852C14.7065 18.8795 14.2802 19.0926 13.8859 18.9612C13.4916 18.8297 13.2785 18.4035 13.4099 18.0092L13.8681 16.6347C13.9995 16.2404 14.4257 16.0273 14.82 16.1587Z" fill="currentcolor" />
</svg>
