<svg width="20" height="20" viewBox="0 0 20 20" fill="currentcolor" xmlns="http://www.w3.org/2000/svg">
  <path fill-rule="evenodd" d="M4.58759 6.52084C4.99652 6.43463 5.4215 6.38918 5.85762 6.38918C7.83938 6.38918 9.59103 7.3284 10.6498 8.76213C10.9025 9.10433 10.8164 9.57711 10.4576 9.81809C10.0987 10.0591 9.60294 9.97702 9.35024 9.63481C8.57644 8.58693 7.30051 7.90487 5.85762 7.90487C3.50035 7.90487 1.5894 9.72719 1.5894 11.9751C1.5894 13.2532 2.03637 14.2318 3.14623 15.1188C3.6814 15.5466 4.62909 15.9015 5.89101 16.1416C7.12829 16.377 8.56981 16.4843 10 16.4843C11.4264 16.4843 12.8676 16.3683 14.1062 16.1282C15.3688 15.8835 16.3241 15.5279 16.864 15.1108C17.5042 14.6163 17.8668 14.2075 18.0844 13.7695C18.3026 13.3304 18.4106 12.7904 18.4106 11.9751C18.4106 9.69165 16.5477 8.78271 15.5232 8.78271C15.0843 8.78271 14.7285 8.44341 14.7285 8.02487C14.7285 6.7186 14.3161 5.59902 13.5578 4.81392C12.8094 4.03903 11.6531 3.51569 10 3.51569C8.6644 3.51569 7.21823 3.9654 6.11958 4.73547C5.40743 5.23463 4.87386 5.84212 4.58759 6.52084ZM2.78506 7.21842C2.94664 5.66308 3.92501 4.39261 5.17827 3.51418C6.54865 2.55366 8.32434 2 10 2C12.029 2 13.6343 2.65572 14.7269 3.78712C15.6563 4.7494 16.1623 6.00099 16.2871 7.34967C17.9621 7.69729 20 9.155 20 11.9751C20 12.9107 19.8779 13.6997 19.5207 14.4185C19.163 15.1383 18.6051 15.7164 17.8645 16.2885C17.0236 16.9381 15.7636 17.3537 14.4228 17.6136C13.0578 17.8781 11.5074 18 10 18C8.49642 18 6.94621 17.8879 5.58002 17.6279C4.23846 17.3727 2.97092 16.9563 2.12529 16.2805C0.650453 15.1017 0 13.6957 0 11.9751C0 9.96465 1.11379 8.20224 2.78506 7.21842Z" fill="currentcolor" />
</svg>
