<svg
  xmlns="http://www.w3.org/2000/svg"
  width="20"
  height="20"
  viewBox="0 0 20 20"
  fill="none"
>
  <path
    fill-rule="evenodd"
    clip-rule="evenodd"
    d="M5.20481 5.25121C5.55391 5.17841 5.91565 5.14015 6.28633 5.14015C8.07536 5.14015 9.65621 6.0323 10.6114 7.39329C10.8488 7.73155 10.7675 8.19856 10.4299 8.43638C10.0922 8.6742 9.62599 8.59277 9.38858 8.25451C8.70091 7.2747 7.56753 6.63756 6.28633 6.63756C4.19347 6.63756 2.49481 8.34018 2.49481 10.443C2.49481 11.6391 2.89141 12.5527 3.87847 13.3828C4.19462 13.6486 4.23576 14.1209 3.97037 14.4376C3.70497 14.7543 3.23353 14.7955 2.91738 14.5297C1.58724 13.4111 1 12.0754 1 10.443C1 8.54121 1.99833 6.87244 3.49863 5.93653C3.64949 4.46543 4.53107 3.2649 5.65613 2.43519C6.89067 1.52475 8.48999 1 10 1C11.8277 1 13.2768 1.62175 14.2638 2.69708C15.0976 3.60537 15.553 4.78385 15.669 6.05255C17.1802 6.3934 19 7.7799 19 10.443C19 11.3281 18.8902 12.0777 18.5672 12.7618C18.2436 13.4471 17.7392 13.9961 17.073 14.5376C16.7524 14.7982 16.2818 14.7491 16.0217 14.428C15.7616 14.1069 15.8106 13.6354 16.1312 13.3748C16.7028 12.9102 17.0237 12.5284 17.2159 12.1215C17.4086 11.7134 17.5052 11.2095 17.5052 10.443C17.5052 8.31006 15.8531 7.46559 14.9516 7.46559C14.5388 7.46559 14.2042 7.13038 14.2042 6.71689C14.2042 5.49103 13.8363 4.44363 13.1635 3.71062C12.5 2.98782 11.4734 2.4974 10 2.4974C8.8104 2.4974 7.52131 2.91909 6.54235 3.64106C5.92781 4.09426 5.46405 4.64155 5.20481 5.25121Z"
    fill="currentColor"
  />
  <path
    d="M7.13587 15.326C7.13587 15.8333 6.72533 16.2445 6.21891 16.2445C5.71249 16.2445 5.30196 15.8333 5.30196 15.326C5.30196 14.8187 5.71249 14.4074 6.21891 14.4074C6.72533 14.4074 7.13587 14.8187 7.13587 15.326Z"
    fill="currentColor"
  />
  <path
    d="M6.21864 18.0815C6.21864 18.5888 5.80811 19 5.30169 19C4.79527 19 4.38473 18.5888 4.38473 18.0815C4.38473 17.5742 4.79527 17.1629 5.30169 17.1629C5.80811 17.1629 6.21864 17.5742 6.21864 18.0815Z"
    fill="currentColor"
  />
  <path
    d="M10.8038 15.326C10.8038 15.8333 10.3933 16.2445 9.88684 16.2445C9.38042 16.2445 8.96989 15.8333 8.96989 15.326C8.96989 14.8187 9.38042 14.4074 9.88684 14.4074C10.3933 14.4074 10.8038 14.8187 10.8038 15.326Z"
    fill="currentColor"
  />
  <path
    d="M9.88657 18.0815C9.88657 18.5888 9.47604 19 8.96961 19C8.46319 19 8.05266 18.5888 8.05266 18.0815C8.05266 17.5742 8.46319 17.1629 8.96961 17.1629C9.47604 17.1629 9.88657 17.5742 9.88657 18.0815Z"
    fill="currentColor"
  />
  <path
    d="M14.4712 15.326C14.4712 15.8333 14.0607 16.2445 13.5543 16.2445C13.0479 16.2445 12.6373 15.8333 12.6373 15.326C12.6373 14.8187 13.0479 14.4074 13.5543 14.4074C14.0607 14.4074 14.4712 14.8187 14.4712 15.326Z"
    fill="currentColor"
  />
  <path
    d="M13.5545 18.0815C13.5545 18.5888 13.144 19 12.6375 19C12.1311 19 11.7206 18.5888 11.7206 18.0815C11.7206 17.5742 12.1311 17.1629 12.6375 17.1629C13.144 17.1629 13.5545 17.5742 13.5545 18.0815Z"
    fill="currentColor"
  />
</svg>
