<svg
  xmlns="http://www.w3.org/2000/svg"
  width="20"
  height="20"
  viewBox="0 0 20 20"
  fill="none"
>
  <path
    fill-rule="evenodd"
    clip-rule="evenodd"
    d="M6.30259 9.02086C5.53182 9.52655 5.04815 10.2159 5.04815 11.0895C5.04815 11.4401 4.81171 11.7462 4.47327 11.8339C3.09938 12.1899 2.53332 13.1193 2.53332 13.8526C2.53332 14.8369 2.89367 15.6061 3.86966 16.3311C4.33967 16.6802 5.18463 16.9763 6.3189 17.1769C7.42771 17.373 8.71913 17.4623 9.99995 17.4623C11.2775 17.4623 12.5687 17.3658 13.6786 17.1658C14.813 16.9615 15.6652 16.6649 16.1403 16.3237C16.7121 15.9132 17.0186 15.5852 17.1974 15.2508C17.3733 14.9216 17.4666 14.5092 17.4666 13.8526C17.4666 12.9621 16.9709 12.0336 16.2026 11.512C15.4774 11.0198 14.4901 10.8752 13.3794 11.5713C13.1431 11.7195 12.8452 11.7273 12.6014 11.5918C12.3577 11.4563 12.2064 11.1989 12.2064 10.9194C12.2064 9.99361 11.7849 9.35685 11.1634 8.92376C10.5152 8.47207 9.64661 8.24791 8.85644 8.24791C8.08249 8.24791 7.08613 8.50679 6.30259 9.02086ZM5.46313 7.73412C6.50965 7.04751 7.80076 6.71026 8.85644 6.71026C9.89588 6.71026 11.0856 6.99714 12.0384 7.66103C12.7477 8.15534 13.322 8.85992 13.5848 9.77789C14.8664 9.34193 16.0971 9.58362 17.0621 10.2387C18.2377 11.0367 18.9999 12.4349 18.9999 13.8526C18.9999 14.6516 18.8873 15.3439 18.5487 15.9773C18.2129 16.6055 17.6961 17.0978 17.0329 17.574C16.273 18.1196 15.1438 18.4641 13.9497 18.6793C12.731 18.8988 11.3464 19 9.99995 19C8.65677 19 7.27238 18.9069 6.05262 18.6912C4.85832 18.48 3.72196 18.1349 2.95697 17.5667C1.62119 16.5744 1 15.3611 1 13.8526C1 12.4421 1.95504 11.1222 3.55753 10.5141C3.74664 9.26455 4.54025 8.3396 5.46313 7.73412Z"
    fill="currentColor"
  />
  <path
    fill-rule="evenodd"
    clip-rule="evenodd"
    d="M11.6781 5.26573C10.9407 5.28516 10.2785 5.58623 9.78848 6.06499C9.48519 6.36129 8.99981 6.35494 8.70435 6.05079C8.40889 5.74665 8.41522 5.2599 8.71851 4.9636C9.47399 4.22551 10.4998 3.75859 11.6378 3.72861C14.0383 3.66535 16.0355 5.56559 16.0986 7.97292C16.1097 8.39738 15.7756 8.75052 15.3523 8.76167C14.929 8.77283 14.5769 8.43777 14.5658 8.01331C14.5249 6.45491 13.2321 5.22478 11.6781 5.26573Z"
    fill="currentColor"
  />
  <path
    fill-rule="evenodd"
    clip-rule="evenodd"
    d="M18.9999 7.65525C19.008 8.07979 18.6715 8.43059 18.2482 8.4388L17.532 8.45268C17.1087 8.46089 16.7589 8.12339 16.7507 7.69885C16.7425 7.27432 17.079 6.92352 17.5024 6.91531L18.2185 6.90143C18.6419 6.89322 18.9917 7.23072 18.9999 7.65525Z"
    fill="currentColor"
  />
  <path
    fill-rule="evenodd"
    clip-rule="evenodd"
    d="M11.7164 3.25569C11.2931 3.26389 10.9432 2.92639 10.9351 2.50186L10.9212 1.78369C10.913 1.35916 11.2496 1.00835 11.6729 1.00015C12.0963 0.99194 12.4461 1.32944 12.4543 1.75397L12.4681 2.47214C12.4763 2.89668 12.1397 3.24748 11.7164 3.25569Z"
    fill="currentColor"
  />
  <path
    fill-rule="evenodd"
    clip-rule="evenodd"
    d="M15.2476 4.52763C14.9425 4.23324 14.9331 3.74654 15.2267 3.44054L15.7233 2.9229C16.0168 2.61691 16.5022 2.6075 16.8073 2.90189C17.1124 3.19628 17.1218 3.68298 16.8282 3.98898L16.3316 4.50662C16.0381 4.81261 15.5528 4.82202 15.2476 4.52763Z"
    fill="currentColor"
  />
  <path
    fill-rule="evenodd"
    clip-rule="evenodd"
    d="M6.60815 3.09947C6.90171 2.79348 7.38704 2.78407 7.69217 3.07846L8.20835 3.57647C8.51348 3.87086 8.52286 4.35756 8.2293 4.66355C7.93574 4.96955 7.45041 4.97895 7.14528 4.68457L6.6291 4.18656C6.32398 3.89217 6.31459 3.40547 6.60815 3.09947Z"
    fill="currentColor"
  />
</svg>
