<svg width="20" height="20" viewBox="0 0 20 20" fill="currentcolor" xmlns="http://www.w3.org/2000/svg">
  <path d="M12.3853 9.04389C12.0876 8.74619 11.6049 8.74619 11.3072 9.04389L10.0001 10.351L8.69294 9.04389C8.39524 8.74619 7.91258 8.74619 7.61488 9.04389C7.31718 9.34159 7.31718 9.82426 7.61488 10.122L8.922 11.4291L7.61488 12.7362C7.31718 13.0339 7.31718 13.5166 7.61488 13.8143C7.91258 14.112 8.39524 14.112 8.69294 13.8143L10.0001 12.5071L11.3072 13.8143C11.6049 14.112 12.0875 14.112 12.3853 13.8143C12.6829 13.5166 12.6829 13.0339 12.3853 12.7362L11.0781 11.4291L12.3853 10.122C12.6829 9.82426 12.6829 9.34159 12.3853 9.04389Z" fill="currentcolor" />
  <path fill-rule="evenodd" d="M9.84491 2C8.04054 2 6.28363 2.46981 5.07741 3.87002C4.52759 4.50827 4.14497 5.28162 3.91607 6.17055C3.90179 6.226 3.8899 6.27213 3.87919 6.3124C3.8357 6.32456 3.78566 6.33808 3.72496 6.35445C2.98604 6.55383 2.32201 6.89814 1.76073 7.38569C0.551545 8.43602 0 9.9867 0 11.6564C0 13.8022 0.645578 15.4732 1.91546 16.5785C3.14837 17.6516 4.7534 18 6.29458 18C6.34624 18 6.39777 17.9993 6.44916 17.9981C6.46672 17.9993 6.48444 18 6.50229 18H14.9294L14.9398 18L15.1449 18C15.1755 18 15.2056 17.9981 15.2352 17.9945C16.347 17.9522 17.5179 17.659 18.446 16.8516C19.4926 15.9412 20 14.5818 20 12.9037C20 11.6222 19.6172 10.3014 18.6786 9.35346C18.201 8.871 17.6149 8.52298 16.9442 8.33113C16.825 8.29703 16.7328 8.27053 16.6597 8.24834C16.6577 8.18401 16.6562 8.1048 16.6543 8.00471C16.6276 6.53175 16.1418 5.17383 15.1892 4.10977C13.9447 2.71968 12.0601 2 9.84491 2ZM6.45014 17.9583L6.45112 17.998L6.44916 17.9981L6.44718 17.9979L6.45014 17.9583ZM15.232 17.9548L15.2335 17.9945L15.2352 17.9945L15.237 17.9943L15.232 17.9548ZM3.87919 6.3124L3.90093 6.30628L3.91181 6.34457L3.87335 6.33421L3.87919 6.3124ZM6.19053 4.84034C7.0077 3.89175 8.26644 3.48166 9.84491 3.48166C11.7501 3.48166 13.194 4.09532 14.0947 5.1013C14.7852 5.87262 15.1607 6.87671 15.1817 8.03177L15.1822 8.05907C15.1855 8.24353 15.1888 8.4268 15.2044 8.57655C15.2195 8.72124 15.2562 8.97621 15.4284 9.20152C15.6061 9.43394 15.8566 9.53548 15.9891 9.58525C16.1355 9.64026 16.3216 9.69348 16.5155 9.74891L16.5413 9.7563C16.9724 9.87959 17.3371 10.0981 17.635 10.399C18.2244 10.9943 18.5271 11.8939 18.5271 12.9037C18.5271 14.2802 18.12 15.1764 17.4825 15.7309C16.8824 16.253 16.0604 16.4884 15.1265 16.5157C15.1114 16.5161 15.0964 16.517 15.0816 16.5183H14.9542L14.9412 16.5183H14.9399L14.9294 16.5183H6.5732C6.53997 16.515 6.50615 16.5139 6.47193 16.5151C6.41311 16.5172 6.35399 16.5183 6.29458 16.5183C4.94585 16.5183 3.74345 16.2103 2.87924 15.4581C2.0182 14.7086 1.47292 13.5006 1.47292 11.6564C1.47292 10.306 1.91351 9.21058 2.72338 8.50712C3.10554 8.17516 3.5674 7.931 4.10655 7.78553L4.12814 7.7797C4.25793 7.7447 4.39349 7.70815 4.50526 7.66826C4.6211 7.62693 4.80453 7.5517 4.96195 7.39185C5.11722 7.23418 5.1903 7.05305 5.23096 6.93529C5.26936 6.82408 5.30382 6.69015 5.33633 6.56382L5.34193 6.54208C5.52216 5.84213 5.80969 5.28243 6.19053 4.84034Z" fill="currentcolor" />
</svg>
