<svg
  xmlns="http://www.w3.org/2000/svg"
  width="20"
  height="20"
  viewBox="0 0 20 20"
  fill="none"
>
  <path
    fill-rule="evenodd"
    clip-rule="evenodd"
    d="M7.18812 10.4077C6.72075 10.7468 6.35462 11.27 6.16383 12.0314C6.11229 12.237 5.97712 12.4119 5.79086 12.514C5.6046 12.616 5.38414 12.6358 5.18256 12.5688C4.03637 12.1876 3.43221 12.4719 3.09578 12.7987C2.69827 13.1849 2.52563 13.7772 2.52563 14.1485C2.52563 14.9507 2.87738 15.7444 3.8457 16.4161C4.3189 16.7443 5.16994 17.0225 6.30857 17.2105C7.42139 17.3943 8.71646 17.4778 10 17.4778C11.2805 17.4778 12.5754 17.3875 13.6892 17.2001C14.8278 17.0086 15.6858 16.7301 16.1643 16.4093C16.7387 16.0242 17.0408 15.7198 17.2144 15.4165C17.3829 15.1223 17.4744 14.7519 17.4744 14.1485C17.4744 13.3453 16.9323 12.3063 16.1106 11.7292C15.7164 11.4523 15.2966 11.31 14.8829 11.3231C14.4786 11.336 14.004 11.4994 13.4899 11.9693C13.3027 12.1404 13.0424 12.2074 12.7956 12.148C12.5488 12.0886 12.3478 11.9106 12.2594 11.6731C11.9724 10.902 11.573 10.4857 11.104 10.24C10.6064 9.97923 9.9506 9.86841 9.08476 9.86841C8.29565 9.86841 7.6612 10.0644 7.18812 10.4077ZM6.29078 9.17669C7.07616 8.60681 8.04338 8.34626 9.08476 8.34626C10.0494 8.34626 10.9953 8.46372 11.8133 8.89234C12.4027 9.20115 12.8872 9.65078 13.262 10.2575C13.7722 9.96794 14.3021 9.81865 14.8344 9.80174C15.6434 9.77604 16.382 10.0583 16.9888 10.4845C18.1692 11.3136 19 12.7952 19 14.1485C19 14.9048 18.8855 15.5665 18.5392 16.1715C18.198 16.7674 17.6764 17.2294 17.0152 17.6727C16.2581 18.1803 15.1339 18.5007 13.9428 18.7011C12.7269 18.9056 11.3447 19 10 19C8.65831 19 7.27629 18.9132 6.05945 18.7122C4.8684 18.5155 3.73718 18.1947 2.97481 17.6659C1.63026 16.7332 1 15.489 1 14.1485C1 13.4483 1.28499 12.4333 2.03153 11.7081C2.70959 11.0495 3.68279 10.7106 4.9242 10.9337C5.22821 10.2065 5.68963 9.61289 6.29078 9.17669Z"
    fill="currentColor"
  />
  <path
    fill-rule="evenodd"
    clip-rule="evenodd"
    d="M9.85375 3.45087C9.16871 4.49713 9.02045 5.74077 9.3448 6.86637C9.46121 7.27034 9.22735 7.69197 8.82246 7.80811C8.41757 7.92425 7.99498 7.69093 7.87857 7.28696C7.43771 5.75708 7.63721 4.05296 8.57649 2.6184C8.80842 2.26418 9.07413 1.94383 9.367 1.65917C9.37641 1.65003 9.38593 1.64076 9.39558 1.63137C9.53765 1.49308 9.70443 1.33073 9.8635 1.21984C10.052 1.08841 10.4028 0.907612 10.8312 1.05515C11.3033 1.21777 11.4491 1.6477 11.5014 1.83631C11.5569 2.03625 11.5914 2.29313 11.6244 2.53851C11.6262 2.55215 11.6281 2.56577 11.6299 2.57933C11.7878 3.75126 12.4403 4.85419 13.5184 5.55681C14.5964 6.25944 15.8709 6.41243 17.01 6.08586C17.0231 6.08207 17.0364 6.07828 17.0496 6.07447C17.2881 6.00601 17.5377 5.93434 17.7435 5.9047C17.9377 5.87673 18.3908 5.83717 18.7298 6.20321C19.0373 6.53529 19.0123 6.92839 18.9674 7.15346C18.9296 7.34335 18.8476 7.56096 18.7778 7.74632C18.773 7.7589 18.7683 7.77134 18.7637 7.7836C18.6201 8.16556 18.4329 8.53704 18.2009 8.89126C18.0599 9.10666 17.9063 9.30959 17.7417 9.49963C17.4662 9.81764 16.9845 9.85262 16.6658 9.57776C16.347 9.3029 16.312 8.82229 16.5874 8.50428C16.7076 8.36559 16.82 8.21705 16.9237 8.05879C17.0183 7.91428 17.1025 7.76626 17.1767 7.61554C15.6933 7.96822 14.0668 7.7324 12.684 6.83115C11.3012 5.9299 10.4312 4.53859 10.1589 3.04163C10.0504 3.16991 9.94837 3.30636 9.85375 3.45087Z"
    fill="currentColor"
  />
</svg>
