<svg
  xmlns="http://www.w3.org/2000/svg"
  width="20"
  height="20"
  viewBox="0 0 20 20"
  fill="none"
>
  <path
    fill-rule="evenodd"
    clip-rule="evenodd"
    d="M11.8661 11.8797C11.8661 11.475 12.1961 11.147 12.6032 11.147C14.0106 11.147 15.1515 12.2809 15.1515 13.6796C15.1515 15.0784 14.0106 16.2123 12.6032 16.2123H1.73719C1.33005 16.2123 1 15.8842 1 15.4796C1 15.0749 1.33005 14.7469 1.73719 14.7469H12.6032C13.1963 14.7469 13.6771 14.2691 13.6771 13.6796C13.6771 13.0902 13.1963 12.6124 12.6032 12.6124C12.1961 12.6124 11.8661 12.2844 11.8661 11.8797Z"
    fill="currentColor"
  />
  <path
    fill-rule="evenodd"
    clip-rule="evenodd"
    d="M5.3765 5.16556C5.72168 5.09403 6.0794 5.05643 6.44597 5.05643C8.21237 5.05643 9.77321 5.93038 10.7163 7.26363C10.9505 7.59466 10.8703 8.05168 10.5373 8.28441C10.2042 8.51714 9.74437 8.43746 9.5102 8.10643C8.83096 7.14622 7.71147 6.52181 6.44597 6.52181C4.37876 6.52181 2.70092 8.19039 2.70092 10.2512C2.70092 10.9978 2.8611 11.6103 3.19316 12.1502C3.4055 12.4955 3.29602 12.9465 2.94864 13.1575C2.60125 13.3685 2.14751 13.2597 1.93517 12.9145C1.43929 12.1082 1.22653 11.2215 1.22653 10.2512C1.22653 8.38799 2.2124 6.75313 3.69391 5.83634C3.84273 4.3951 4.71318 3.2189 5.82416 2.406C7.04313 1.51408 8.6223 1 10.1133 1C11.9179 1 13.3487 1.6091 14.3232 2.66248C15.1465 3.55238 15.5962 4.70709 15.7107 5.95021C17.2028 6.28385 19 7.64203 19 10.2512C19 11.3034 18.8399 12.1495 18.3527 12.9216C18.1364 13.2644 17.6814 13.3681 17.3365 13.1531C16.9916 12.9381 16.8873 12.4859 17.1036 12.1431C17.389 11.6907 17.5256 11.1519 17.5256 10.2512C17.5256 8.16079 15.8937 7.33309 15.003 7.33309C14.5958 7.33309 14.2658 7.00506 14.2658 6.6004C14.2658 5.39917 13.9025 4.37272 13.2379 3.65434C12.5825 2.94595 11.5684 2.46538 10.1133 2.46538C8.93833 2.46538 7.66516 2.8786 6.69827 3.58607C6.0908 4.03056 5.63244 4.56744 5.3765 5.16556Z"
    fill="currentColor"
  />
  <path
    fill-rule="evenodd"
    clip-rule="evenodd"
    d="M1 18.2429C1 17.8247 1.33005 17.4858 1.73719 17.4858H18.0363C18.4434 17.4858 18.7735 17.8247 18.7735 18.2429C18.7735 18.661 18.4434 19 18.0363 19H1.73719C1.33005 19 1 18.661 1 18.2429Z"
    fill="currentColor"
  />
</svg>
