<svg width="20" height="20" viewBox="0 0 20 20" fill="currentcolor" xmlns="http://www.w3.org/2000/svg">
  <path d="M6.67701 8.09124C6.29146 8.09124 5.98449 8.41805 5.98449 8.81415C5.98449 9.21025 6.29146 9.53707 6.67701 9.53707H13.323C13.7085 9.53707 14.0155 9.21025 14.0155 8.81415C14.0155 8.41805 13.7085 8.09124 13.323 8.09124H6.67701Z" fill="currentcolor" />
  <path d="M6.67701 10.705C6.29146 10.705 5.98449 11.0318 5.98449 11.4279C5.98449 11.824 6.29146 12.1508 6.67701 12.1508H10.8307C11.2163 12.1508 11.5233 11.824 11.5233 11.4279C11.5233 11.0318 11.2163 10.705 10.8307 10.705H6.67701Z" fill="currentcolor" />
  <path fill-rule="evenodd" d="M10 1C5.07416 1 1 4.90829 1 9.83036C1 11.8136 1.6668 13.6416 2.78523 15.1106C2.97017 15.3536 3.03476 15.558 3.02455 15.7105C2.97781 16.4084 2.74389 17.0942 2.15277 17.7086C1.96358 17.9053 1.89999 18.1973 1.98765 18.4593C2.07541 18.7216 2.30033 18.9099 2.56786 18.9397C4.3903 19.1429 5.99773 18.7987 6.95393 18.4098C7.19079 18.3135 7.42063 18.2948 7.60887 18.3456C8.37121 18.5512 9.17316 18.6607 10 18.6607C14.9258 18.6607 19 14.7524 19 9.83036C19 4.90829 14.9258 1 10 1ZM2.38504 9.83036C2.38504 5.79698 5.74988 2.44583 10 2.44583C14.2501 2.44583 17.615 5.79698 17.615 9.83036C17.615 13.8637 14.2501 17.2149 10 17.2149C9.29064 17.2149 8.6051 17.121 7.95538 16.9457C7.43067 16.8042 6.90045 16.8799 6.4511 17.0626C5.89782 17.2876 5.01349 17.5119 3.95949 17.5489C4.23343 16.9807 4.36744 16.3905 4.40622 15.8113C4.45012 15.1559 4.1662 14.6007 3.86954 14.211C2.93367 12.9818 2.38504 11.467 2.38504 9.83036Z" fill="currentcolor" />
</svg>
