<svg
  xmlns="http://www.w3.org/2000/svg"
  width="20"
  height="20"
  viewBox="0 0 20 20"
  fill="none"
>
  <path
    fill-rule="evenodd"
    clip-rule="evenodd"
    d="M10 1C5.07504 1 1 4.9078 1 9.8312C1 11.8148 1.66696 13.6432 2.7855 15.1123C2.9659 15.3493 3.02377 15.5422 3.0146 15.6792C2.96869 16.3648 2.73933 17.0367 2.15953 17.6394C1.95948 17.8473 1.89268 18.1554 1.98506 18.4315C2.0776 18.7081 2.31536 18.908 2.5998 18.9397C4.42103 19.1428 6.02795 18.799 6.98589 18.4095C7.21448 18.3165 7.43307 18.2998 7.6091 18.3473C8.37142 18.5529 9.17331 18.6624 10 18.6624C14.925 18.6624 19 14.7546 19 9.8312C19 4.9078 14.925 1 10 1ZM2.46752 9.8312C2.46752 5.84346 5.7947 2.52801 10 2.52801C14.2053 2.52801 17.5325 5.84346 17.5325 9.8312C17.5325 13.8189 14.2053 17.1344 10 17.1344C9.29812 17.1344 8.61989 17.0415 7.97716 16.8681C7.44373 16.7243 6.90604 16.8015 6.45189 16.9862C5.91921 17.2028 5.07261 17.4197 4.06131 17.4639C4.31547 16.9133 4.44117 16.344 4.47857 15.7855C4.52324 15.1184 4.23423 14.5554 3.93552 14.1631C3.00996 12.9474 2.46752 11.4495 2.46752 9.8312Z"
    fill="currentColor"
  />
</svg>
