<svg
  xmlns="http://www.w3.org/2000/svg"
  width="20"
  height="20"
  viewBox="0 0 20 20"
  fill="none"
>
  <path
    fill-rule="evenodd"
    clip-rule="evenodd"
    d="M10.9599 1H9.04011C7.57547 0.999992 6.41625 0.999986 5.49258 1.09785C4.54624 1.19812 3.76048 1.40792 3.08006 1.88683C2.61392 2.21492 2.2085 2.62245 1.88214 3.09098C1.40578 3.77482 1.1971 4.56452 1.09736 5.51567C1 6.44408 1.00001 7.60927 1.00002 9.08159L1.00001 11.2925C0.999876 12.2714 0.999792 12.8919 1.11896 13.4243C1.53259 15.2724 2.96844 16.7159 4.80743 17.1318C5.33724 17.2516 5.95465 17.2515 6.92839 17.2514L7.03957 17.2514C7.30186 17.2514 7.36678 17.2528 7.423 17.26C7.6538 17.2894 7.86892 17.3933 8.03605 17.5562C8.07678 17.5958 8.11847 17.6459 8.28231 17.8518L8.38746 17.9839C8.52117 18.152 8.64381 18.3061 8.75404 18.4273C8.87051 18.5553 9.01498 18.6949 9.2058 18.7984C9.70148 19.0672 10.2985 19.0672 10.7942 18.7984C10.985 18.6949 11.1295 18.5553 11.246 18.4273C11.3562 18.306 11.4787 18.1521 11.6125 17.984L11.7177 17.8518C11.8815 17.6459 11.9232 17.5958 11.9639 17.5562C12.1311 17.3933 12.3462 17.2894 12.577 17.26C12.6332 17.2528 12.6981 17.2514 12.9604 17.2514L13.0716 17.2514C14.0454 17.2515 14.6628 17.2516 15.1926 17.1318C17.0316 16.7159 18.4674 15.2724 18.881 13.4243C19.0002 12.8919 19.0001 12.2713 19 11.2924L19 9.08173C19 7.60935 19 6.44411 18.9026 5.51567C18.8029 4.56452 18.5942 3.77482 18.1179 3.09098C17.7915 2.62245 17.3861 2.21492 16.9199 1.88683C16.2395 1.40792 15.4538 1.19812 14.5074 1.09785C13.5838 0.999986 12.4245 0.999992 10.9599 1ZM5.65124 2.60946C6.48633 2.52098 7.56586 2.51999 9.08405 2.51999H10.916C12.4341 2.51999 13.5137 2.52098 14.3488 2.60946C15.1704 2.69651 15.6678 2.86136 16.0519 3.13174C16.3735 3.35808 16.6532 3.63924 16.8784 3.96253C17.1475 4.34878 17.3115 4.84893 17.3981 5.67493C17.4862 6.51443 17.4871 7.59963 17.4871 9.12568V11.1808C17.4871 12.3073 17.4825 12.7449 17.4051 13.0908C17.1196 14.3663 16.1288 15.3621 14.8604 15.6489C14.5163 15.7267 14.0811 15.7314 12.9604 15.7314L12.9212 15.7314C12.7163 15.7313 12.5498 15.7313 12.3864 15.7521C11.8307 15.823 11.3129 16.0732 10.9107 16.465C10.7926 16.5801 10.6886 16.7108 10.5607 16.8717L10.4448 17.0174C10.2928 17.2083 10.2016 17.3222 10.1291 17.402C10.0951 17.4394 10.075 17.4579 10.0664 17.4654C10.0242 17.4849 9.97576 17.4849 9.93363 17.4654C9.92498 17.4579 9.90495 17.4394 9.87088 17.402C9.79836 17.3222 9.70718 17.2083 9.55522 17.0174L9.43932 16.8717C9.31137 16.7108 9.20742 16.5801 9.08926 16.465C8.6871 16.0732 8.16929 15.823 7.61356 15.7521C7.45024 15.7313 7.28373 15.7313 7.0788 15.7314L7.03956 15.7314C5.91886 15.7314 5.48365 15.7267 5.13963 15.6489C3.87122 15.3621 2.88041 14.3663 2.59495 13.0908C2.51752 12.7449 2.51286 12.3073 2.51286 11.1808V9.12568C2.51286 7.59963 2.51385 6.51443 2.60188 5.67493C2.68849 4.84893 2.85252 4.34878 3.12158 3.96253C3.34678 3.63924 3.62649 3.35808 3.94807 3.13174C4.33222 2.86136 4.82963 2.69651 5.65124 2.60946Z"
    fill="currentColor"
  />
  <path
    d="M6.31165 10.5849C6.8644 10.5849 7.3125 10.1362 7.3125 9.5828C7.3125 9.02935 6.8644 8.58069 6.31165 8.58069C5.75889 8.58069 5.31079 9.02935 5.31079 9.5828C5.31079 10.1362 5.75889 10.5849 6.31165 10.5849Z"
    fill="currentColor"
  />
  <path
    d="M10 10.5849C10.5528 10.5849 11.0009 10.1362 11.0009 9.5828C11.0009 9.02935 10.5528 8.58069 10 8.58069C9.44724 8.58069 8.99915 9.02935 8.99915 9.5828C8.99915 10.1362 9.44724 10.5849 10 10.5849Z"
    fill="currentColor"
  />
  <path
    d="M13.6923 10.5849C14.245 10.5849 14.6931 10.1362 14.6931 9.5828C14.6931 9.02935 14.245 8.58069 13.6923 8.58069C13.1395 8.58069 12.6914 9.02935 12.6914 9.5828C12.6914 10.1362 13.1395 10.5849 13.6923 10.5849Z"
    fill="currentColor"
  />
</svg>
