<svg
  xmlns="http://www.w3.org/2000/svg"
  width="20"
  height="20"
  viewBox="0 0 20 20"
  fill="none"
>
  <path
    fill-rule="evenodd"
    clip-rule="evenodd"
    d="M10 2.50633C5.86136 2.50633 2.50633 5.86136 2.50633 10C2.50633 14.1386 5.86136 17.4937 10 17.4937C14.1386 17.4937 17.4937 14.1386 17.4937 10C17.4937 5.86136 14.1386 2.50633 10 2.50633ZM1 10C1 5.02944 5.02944 1 10 1C14.9706 1 19 5.02944 19 10C19 14.9706 14.9706 19 10 19C5.02944 19 1 14.9706 1 10Z"
    fill="currentColor"
  />
  <path
    fill-rule="evenodd"
    clip-rule="evenodd"
    d="M12.1469 8.16495L11.0295 10.0272C10.9507 10.1585 10.9069 10.2311 10.8708 10.2842C10.8548 10.3078 10.8451 10.3204 10.8398 10.3268L10.8351 10.3322L10.8344 10.333L10.8336 10.3336L10.8278 10.3379C10.821 10.3427 10.8077 10.3514 10.7829 10.3656C10.7272 10.3974 10.6515 10.4356 10.5145 10.5041L7.8531 11.8348L8.97043 9.97258C9.04925 9.84122 9.09308 9.76868 9.12911 9.71557C9.14512 9.69198 9.15485 9.67938 9.16019 9.67292L9.16485 9.66753L9.16559 9.66678L9.16639 9.66611L9.17212 9.66187C9.17897 9.65705 9.19228 9.64831 9.21703 9.63416C9.27274 9.60231 9.34843 9.56417 9.48545 9.49566L12.1469 8.16495ZM13.6357 5.89264C13.835 5.89216 14.0932 5.95518 14.2963 6.17451C14.4994 6.39383 14.5424 6.65613 14.5267 6.8548C14.513 7.0269 14.4553 7.17436 14.4139 7.26794C14.3353 7.44569 14.2061 7.66088 14.0801 7.87069C14.0732 7.88213 14.0664 7.89356 14.0595 7.90496L12.3212 10.8022C12.3115 10.8183 12.3019 10.8345 12.2921 10.8508C12.1729 11.0505 12.0446 11.2652 11.8578 11.4382C11.6711 11.6112 11.4471 11.7226 11.2389 11.8261C11.2218 11.8346 11.2049 11.843 11.1882 11.8514L7.44718 13.7219C7.43529 13.7278 7.42337 13.7338 7.41143 13.7398C7.19258 13.8493 6.96811 13.9616 6.78485 14.0264C6.68837 14.0605 6.53692 14.1067 6.36428 14.1071C6.16499 14.1076 5.90676 14.0446 5.70366 13.8252C5.50055 13.6059 5.45753 13.3436 5.4733 13.145C5.48695 12.9729 5.54462 12.8254 5.58603 12.7318C5.66469 12.5541 5.79389 12.3389 5.91986 12.1291C5.92673 12.1176 5.93359 12.1062 5.94043 12.0948L7.67876 9.19757C7.68841 9.1815 7.69809 9.16529 7.70783 9.14897C7.82708 8.94929 7.95534 8.73451 8.14211 8.56155C8.32888 8.3886 8.55286 8.27719 8.7611 8.17361C8.77812 8.16515 8.79502 8.15674 8.81179 8.14835L12.5528 6.27786C12.5647 6.27192 12.5766 6.26595 12.5885 6.25998C12.8074 6.15047 13.0318 6.03816 13.2151 5.97336C13.3116 5.93925 13.463 5.89306 13.6357 5.89264Z"
    fill="currentColor"
  />
</svg>
