<svg
  xmlns="http://www.w3.org/2000/svg"
  width="20"
  height="20"
  viewBox="0 0 20 20"
  fill="none"
>
  <path
    d="M15.2035 7.12479C15.2035 7.58716 14.8291 7.96198 14.3673 7.96198C13.9054 7.96198 13.531 7.58716 13.531 7.12479C13.531 6.66242 13.9054 6.2876 14.3673 6.2876C14.8291 6.2876 15.2035 6.66242 15.2035 7.12479Z"
    fill="currentColor"
  />
  <path
    d="M13.531 8.79916C13.531 9.26153 13.1566 9.63635 12.6947 9.63635C12.2328 9.63635 11.8584 9.26153 11.8584 8.79916C11.8584 8.33679 12.2328 7.96197 12.6947 7.96197C13.1566 7.96197 13.531 8.33679 13.531 8.79916Z"
    fill="currentColor"
  />
  <path
    d="M16.0398 9.63635C16.5017 9.63635 16.8761 9.26153 16.8761 8.79916C16.8761 8.33679 16.5017 7.96197 16.0398 7.96197C15.5779 7.96197 15.2035 8.33679 15.2035 8.79916C15.2035 9.26153 15.5779 9.63635 16.0398 9.63635Z"
    fill="currentColor"
  />
  <path
    d="M15.2035 10.4735C15.2035 10.9359 14.8291 11.3107 14.3673 11.3107C13.9054 11.3107 13.531 10.9359 13.531 10.4735C13.531 10.0112 13.9054 9.63634 14.3673 9.63634C14.8291 9.63634 15.2035 10.0112 15.2035 10.4735Z"
    fill="currentColor"
  />
  <path
    d="M6.05081 7.34878C6.05081 6.96348 5.7388 6.65112 5.35391 6.65112C4.96901 6.65112 4.657 6.96348 4.657 7.34878V8.04644H3.96009C3.5752 8.04644 3.26318 8.35879 3.26318 8.7441C3.26318 9.12941 3.5752 9.44176 3.96009 9.44176H4.657V10.1394C4.657 10.5247 4.96901 10.8371 5.35391 10.8371C5.7388 10.8371 6.05081 10.5247 6.05081 10.1394V9.44176H6.74772C7.13261 9.44176 7.44463 9.12941 7.44463 8.7441C7.44463 8.35879 7.13261 8.04644 6.74772 8.04644H6.05081V7.34878Z"
    fill="currentColor"
  />
  <path
    fill-rule="evenodd"
    clip-rule="evenodd"
    d="M5.38625 2C3.87645 2 2.74919 2.63044 1.94716 3.56122C1.16767 4.46582 0.711091 5.63186 0.437355 6.72608C0.16143 7.82906 0.0563659 8.9205 0.018943 9.72832C0.000137655 10.1343 -0.00178953 10.4734 0.00106195 10.7127C0.00248889 10.8325 0.00511596 10.9276 0.00744915 10.9938C0.00861606 11.027 0.00971775 11.0531 0.0105534 11.0714L0.0109338 11.0793C0.0146681 13.7953 0.82215 16.0946 2.13956 17.2417C2.82453 17.8381 3.68312 18.1435 4.60013 17.9341C5.48872 17.7312 6.27879 17.0789 6.94084 16.0958C7.48423 15.2889 7.95013 14.9494 8.36877 14.7838C8.81467 14.6074 9.29605 14.5877 10 14.5877C10.7043 14.5877 11.1998 14.6073 11.6534 14.7848C12.0759 14.9501 12.5375 15.2866 13.0507 16.083L13.0545 16.0889L13.0592 16.0958C13.7212 17.0789 14.5113 17.7312 15.3999 17.9341C16.3169 18.1435 17.1755 17.8381 17.8604 17.2417C19.1779 16.0946 19.9853 13.7952 19.9891 11.0793L19.9895 11.0712C19.9903 11.0529 19.9914 11.027 19.9926 10.9938C19.9949 10.9276 19.9975 10.8325 19.9989 10.7127C20.0018 10.4734 19.9999 10.1343 19.9811 9.72832C19.9436 8.9205 19.8386 7.82906 19.5626 6.72608C19.2889 5.63186 18.8323 4.46582 18.0528 3.56122C17.2508 2.63045 16.1236 2 14.6138 2C13.5429 2 12.8275 2.39322 12.2349 2.71891L12.2328 2.72007C12.193 2.74193 12.1539 2.76344 12.1152 2.78454C11.5234 3.10712 10.9653 3.38321 9.99996 3.38321C9.03465 3.38321 8.4766 3.10712 7.88482 2.78454C7.84633 2.76356 7.80729 2.7421 7.76774 2.72037L7.7651 2.71891C7.17252 2.39323 6.45707 2 5.38625 2ZM3.1014 4.5543C3.64021 3.929 4.35844 3.522 5.38625 3.522C6.05764 3.522 6.46625 3.74422 7.07311 4.07575L7.1554 4.12067C7.83242 4.48971 8.65847 4.90521 9.99996 4.90521C11.3415 4.90521 12.1675 4.48971 12.8446 4.12067L12.9268 4.07575C13.5337 3.74422 13.9424 3.522 14.6138 3.522C15.6416 3.522 16.3598 3.929 16.8986 4.5543C17.46 5.20581 17.8396 6.11459 18.085 7.09519C18.3281 8.06703 18.4249 9.05041 18.4595 9.7987C18.4768 10.1708 18.4784 10.4801 18.4759 10.6946C18.4746 10.8018 18.4723 10.885 18.4703 10.9403C18.4694 10.968 18.4685 10.9886 18.4679 11.0017L18.4672 11.0159L18.4671 11.0187L18.4659 11.0372V11.0603C18.4659 13.5748 17.7071 15.3565 16.8598 16.0942C16.4612 16.4413 16.0858 16.5295 15.7392 16.4503C15.3653 16.365 14.8644 16.0481 14.3269 15.2521C13.6855 14.259 12.9951 13.6753 12.2088 13.3676C11.452 13.0714 10.6802 13.0657 10 13.0657C9.31956 13.0657 8.5596 13.0713 7.80811 13.3686C7.02923 13.6767 6.34169 14.2593 5.67716 15.2461C5.13814 16.0465 4.63559 16.3648 4.26077 16.4503C3.91419 16.5295 3.53882 16.4413 3.1402 16.0942C2.29294 15.3565 1.53406 13.5748 1.53407 11.0603L1.53418 11.0411L1.53291 11.0182L1.53278 11.0156L1.53211 11.0017C1.53151 10.9885 1.53063 10.9679 1.52966 10.9403C1.52771 10.885 1.52538 10.8018 1.52411 10.6946C1.52155 10.4801 1.52323 10.1708 1.54047 9.7987C1.57513 9.0504 1.67192 8.06703 1.91504 7.09519C2.16035 6.11458 2.54001 5.20581 3.1014 4.5543Z"
    fill="currentColor"
  />
</svg>
