<svg width="20" height="20" viewBox="0 0 20 20" fill="currentcolor" xmlns="http://www.w3.org/2000/svg">
  <path d="M10 1H7.19696C5.94841 0.999982 4.93496 0.999967 4.13625 1.10735C3.30412 1.21923 2.59283 1.45999 2.02643 2.02638C1.46003 2.59278 1.21927 3.30407 1.1074 4.1362C1.00001 4.93491 1.00003 5.94836 1.00005 7.19691L1.00002 10.1158C0.999776 10.8565 0.999603 11.3756 1.11945 11.8229C1.44348 13.0322 2.38806 13.9768 3.59736 14.3008C4.04464 14.4207 4.56382 14.4205 5.3045 14.4203L5.42028 14.4202C5.83804 14.4202 6.17671 14.0816 6.17671 13.6638C6.17671 13.246 5.83804 12.9074 5.42028 12.9074C4.5194 12.9074 4.21783 12.9009 3.98891 12.8395C3.30168 12.6554 2.7649 12.1186 2.58075 11.4314C2.51941 11.2025 2.5129 10.9009 2.5129 10V7.25214C2.5129 5.93537 2.5145 5.02394 2.60676 4.33779C2.69608 3.67343 2.85771 3.33459 3.09617 3.09613C3.33464 2.85766 3.67348 2.69603 4.33783 2.60671C5.02398 2.51446 5.93541 2.51285 7.25219 2.51285H10C11.0999 2.51285 11.9915 3.40445 11.9915 4.50428C11.9915 4.92205 12.3301 5.26071 12.7479 5.26071C13.1657 5.26071 13.5043 4.92205 13.5043 4.50428C13.5043 2.56892 11.9354 1 10 1Z" fill="currentcolor" />
  <path fill-rule="evenodd" d="M12.8031 5.57976H12.6926C11.4441 5.57975 10.4306 5.57973 9.63192 5.68711C8.79979 5.79899 8.0885 6.03975 7.5221 6.60615C6.9557 7.17254 6.71495 7.88383 6.60307 8.71597C6.49569 9.51467 6.4957 10.5281 6.49572 11.7767V12.8031C6.4957 14.0516 6.49569 15.0651 6.60307 15.8638C6.71495 16.6959 6.9557 17.4072 7.5221 17.9736C8.0885 18.54 8.79979 18.7808 9.63192 18.8926C10.4306 19 11.4441 19 12.6927 19H12.803C14.0516 19 15.0651 19 15.8638 18.8926C16.6959 18.7808 17.4072 18.54 17.9736 17.9736C18.54 17.4072 18.7808 16.6959 18.8927 15.8638C19 15.0651 19 14.0516 19 12.803V11.7767C19 10.5281 19 9.51468 18.8927 8.71597C18.7808 7.88383 18.54 7.17254 17.9736 6.60615C17.4072 6.03975 16.6959 5.79899 15.8638 5.68711C15.0651 5.57973 14.0516 5.57975 12.8031 5.57976ZM9.8335 7.18647C10.5197 7.09422 11.4311 7.09261 12.7479 7.09261C14.0646 7.09261 14.9761 7.09422 15.6622 7.18647C16.3266 7.27579 16.6654 7.43742 16.9039 7.67589C17.1423 7.91436 17.304 8.25319 17.3933 8.91755C17.4855 9.6037 17.4872 10.5151 17.4872 11.8319V12.7479C17.4872 14.0646 17.4855 14.9761 17.3933 15.6622C17.304 16.3266 17.1423 16.6654 16.9039 16.9039C16.6654 17.1423 16.3266 17.304 15.6622 17.3933C14.9761 17.4855 14.0646 17.4871 12.7479 17.4871C11.4311 17.4871 10.5197 17.4855 9.8335 17.3933C9.16915 17.304 8.83031 17.1423 8.59185 16.9039C8.35338 16.6654 8.19175 16.3266 8.10243 15.6622C8.01018 14.9761 8.00857 14.0646 8.00857 12.7479V11.8319C8.00857 10.5151 8.01018 9.6037 8.10243 8.91755C8.19175 8.25319 8.35338 7.91436 8.59185 7.67589C8.83031 7.43742 9.16915 7.27579 9.8335 7.18647Z" fill="currentcolor" />
</svg>
