<svg
  xmlns="http://www.w3.org/2000/svg"
  width="20"
  height="20"
  viewBox="0 0 20 20"
  fill="none"
>
  <path
    fill-rule="evenodd"
    clip-rule="evenodd"
    d="M5.42024 1C5.00247 1 4.66381 1.33866 4.66381 1.75642L4.66381 4.66381L1.75642 4.66381C1.33866 4.66381 1 5.00247 1 5.42024C1 5.838 1.33866 6.17666 1.75642 6.17666L4.66381 6.17666L4.66381 10.9682C4.66378 11.7874 4.66376 12.4774 4.73763 13.0268C4.81597 13.6095 4.98965 14.1458 5.42192 14.5781C5.85418 15.0103 6.39046 15.184 6.97316 15.2624C7.52256 15.3362 8.21258 15.3362 9.03175 15.3362L13.8233 15.3362V18.2436C13.8233 18.6613 14.162 19 14.5798 19C14.9975 19 15.3362 18.6613 15.3362 18.2436L15.3362 15.3362L18.2436 15.3362C18.6613 15.3362 19 14.9975 19 14.5798C19 14.162 18.6613 13.8233 18.2436 13.8233H15.3362L15.3362 9.03179C15.3362 8.2126 15.3362 7.52256 15.2624 6.97316C15.184 6.39046 15.0103 5.85418 14.5781 5.42192C14.1458 4.98965 13.6095 4.81597 13.0268 4.73763C12.4774 4.66376 11.7874 4.66378 10.9683 4.66381L6.17666 4.66381V1.75642C6.17666 1.33866 5.838 1 5.42024 1ZM6.17666 10.916V6.17666L10.916 6.17666C11.801 6.17666 12.3885 6.17827 12.8253 6.23698C13.2402 6.29277 13.404 6.38732 13.5083 6.49166C13.6127 6.59601 13.7072 6.75985 13.763 7.17474C13.8217 7.61146 13.8233 8.19904 13.8233 9.08405L13.8233 13.8233H9.08405C8.19904 13.8233 7.61146 13.8217 7.17474 13.763C6.75985 13.7072 6.59601 13.6127 6.49166 13.5083C6.38731 13.404 6.29276 13.2402 6.23698 12.8253C6.17827 12.3885 6.17666 11.801 6.17666 10.916Z"
    fill="currentColor"
  />
</svg>
