<svg
  xmlns="http://www.w3.org/2000/svg"
  width="20"
  height="20"
  viewBox="0 0 20 20"
  fill="none"
>
  <path
    d="M10.6269 18.9977C11.5106 19.0352 12.5042 18.6189 12.8232 17.5034C12.941 17.0914 12.9275 16.7287 12.8832 16.4295C12.8629 16.2924 12.8361 16.1686 12.8125 16.0595L12.812 16.0573C12.8034 16.0176 12.7953 15.98 12.788 15.9444C12.7201 15.6116 12.6726 15.2877 12.8232 14.7612C12.8707 14.595 12.9329 14.4227 13.0051 14.249C13.1874 13.8105 13.4338 13.3623 13.6714 12.9755C13.8335 12.7116 13.9842 12.4879 14.094 12.3308C14.1488 12.2524 14.193 12.191 14.223 12.15C14.238 12.1295 14.2494 12.1141 14.2568 12.1043L14.2648 12.0936L14.2665 12.0914C14.5188 11.7587 14.4539 11.2845 14.1214 11.0319C13.7887 10.7792 13.3142 10.844 13.0615 11.1766L13.0632 11.1746L13.0602 11.1783L13.0596 11.1791L13.0561 11.1838L13.0442 11.1996C13.0342 11.2131 13.0199 11.2323 13.002 11.2568C12.9662 11.3058 12.9155 11.3761 12.8539 11.4643C12.7309 11.6402 12.5632 11.8892 12.3823 12.1837C12.028 12.7604 11.5931 13.5599 11.3686 14.3454C11.1271 15.1899 11.2104 15.7801 11.3058 16.2471L11.3277 16.3537C11.4045 16.7255 11.4322 16.8652 11.3686 17.0875C11.3304 17.2211 11.2586 17.3226 11.1516 17.3898C11.0435 17.4578 10.8929 17.4948 10.6911 17.4862C10.2653 17.4681 9.81884 17.2324 9.59621 16.8863C9.35449 16.5105 9.23623 16.0309 9.20365 15.4875C9.17109 14.9446 9.22437 14.3429 9.32148 13.7271C9.44424 12.9487 9.28756 12.1542 8.69967 11.652C8.09893 11.1388 7.28494 11.1303 6.5347 11.4265C5.91754 11.67 5.27995 11.895 4.69265 12.0162C4.08817 12.141 3.64327 12.1324 3.35436 12.0201C3.18686 11.955 3.04402 11.8622 2.92508 11.7206C2.80567 11.5783 2.70735 11.3832 2.63473 11.1092C2.47768 10.5167 2.46061 9.60918 2.65319 8.26193C3.0339 5.59861 3.77428 4.21638 4.64748 3.47592C5.51662 2.73892 6.66197 2.51284 8.17607 2.51286C9.88212 2.51287 10.82 2.82521 11.4506 3.19306C11.774 3.38172 12.0414 3.59925 12.3113 3.84237C12.3895 3.91278 12.4731 3.99044 12.561 4.07204L12.5618 4.07279C12.7562 4.2533 12.9708 4.45265 13.186 4.628C13.5098 4.89191 13.9863 4.84332 14.2502 4.51947C14.5141 4.19562 14.4655 3.71914 14.1417 3.45524C13.9638 3.31028 13.8097 3.1669 13.635 3.00436C13.5397 2.91569 13.438 2.82107 13.3237 2.71819C13.0182 2.443 12.6635 2.14914 12.2129 1.88629C11.2955 1.35112 10.0775 1.00001 8.17608 0.999999C6.55433 0.999987 4.95582 1.23092 3.66906 2.32206C2.38635 3.40975 1.55882 5.22679 1.15557 8.04786C0.953843 9.45907 0.936847 10.6082 1.17238 11.4968C1.4208 12.4341 1.9596 13.1011 2.80628 13.4302C3.50336 13.7011 4.29707 13.6426 4.99846 13.4979C5.71698 13.3496 6.45241 13.0854 7.09011 12.8337C7.51474 12.6661 7.68075 12.7712 7.71705 12.8023C7.76593 12.844 7.90116 13.0218 7.8271 13.4915C7.63292 14.7228 7.49965 16.4234 8.32386 17.7047C8.84285 18.5115 9.76837 18.9612 10.6269 18.9977Z"
    fill="currentColor"
  />
  <path
    fill-rule="evenodd"
    clip-rule="evenodd"
    d="M16.8696 13.5043C18.0462 13.5043 19 12.5505 19 11.374L19 4.0463C19 2.86973 18.0462 1.91593 16.8696 1.91593C15.6931 1.91593 14.7393 2.86973 14.7393 4.0463L14.7393 11.374C14.7393 12.5505 15.6931 13.5043 16.8696 13.5043ZM17.4872 11.374C17.4872 11.715 17.2107 11.9915 16.8696 11.9915C16.5286 11.9915 16.2521 11.715 16.2521 11.374L16.2521 4.0463C16.2521 3.70526 16.5286 3.42879 16.8696 3.42879C17.2107 3.42879 17.4872 3.70526 17.4872 4.0463L17.4872 11.374Z"
    fill="currentColor"
  />
</svg>
