<svg
  xmlns="http://www.w3.org/2000/svg"
  width="20"
  height="20"
  viewBox="0 0 20 20"
  fill="none"
>
  <path
    d="M9.99997 1C9.58221 1 9.24355 1.33866 9.24355 1.75642V10.9217L6.87103 8.54917C6.57563 8.25377 6.09669 8.25377 5.80129 8.54917C5.50589 8.84457 5.50589 9.32352 5.80129 9.61892L9.4651 13.2827C9.7605 13.5781 10.2394 13.5781 10.5348 13.2827L14.1987 9.61892C14.4941 9.32352 14.4941 8.84457 14.1987 8.54917C13.9033 8.25377 13.4243 8.25377 13.1289 8.54917L10.7564 10.9217V1.75642C10.7564 1.33866 10.4177 1 9.99997 1Z"
    fill="currentColor"
  />
  <path
    d="M5.76808 11.9914H4.46604C3.94089 11.9914 3.48963 11.9914 3.12186 12.0295C2.73218 12.0699 2.35166 12.1596 2.00608 12.3963C1.77026 12.5578 1.56642 12.7617 1.40488 12.9975C1.16815 13.3431 1.0785 13.7236 1.0381 14.1133C0.99997 14.4811 0.999984 14.9323 1 15.4574V15.534C0.999984 16.0591 0.99997 16.5104 1.0381 16.8781C1.0785 17.2678 1.16815 17.6483 1.40488 17.9939C1.56642 18.2297 1.77026 18.4336 2.00608 18.5951C2.35166 18.8319 2.73218 18.9215 3.12186 18.9619C3.48967 19 3.94093 19 4.46615 19H15.5338C16.059 19 16.5103 19 16.8781 18.9619C17.2678 18.9215 17.6483 18.8319 17.9939 18.5951C18.2297 18.4336 18.4336 18.2297 18.5951 17.9939C18.8319 17.6483 18.9215 17.2678 18.9619 16.8781C19 16.5104 19 16.0592 19 15.534V15.4575C19 14.9323 19 14.4811 18.9619 14.1133C18.9215 13.7236 18.8319 13.3431 18.5951 12.9975C18.4336 12.7617 18.2297 12.5578 17.9939 12.3963C17.6483 12.1596 17.2678 12.0699 16.8781 12.0295C16.5104 11.9914 16.0592 11.9914 15.534 11.9914H14.2319C13.874 11.9914 13.6738 11.9914 13.4927 12.0664C13.3115 12.1415 13.1699 12.2831 12.9169 12.5361L12.6883 12.7647C12.559 12.894 12.4564 12.9966 12.3928 13.0812C12.33 13.1646 12.2865 13.2547 12.3253 13.3483C12.3641 13.442 12.4586 13.4749 12.5619 13.4895C12.6667 13.5043 12.8118 13.5043 12.9947 13.5043H15.4957C16.0695 13.5043 16.4417 13.5052 16.7221 13.5343C16.9896 13.562 17.0867 13.6086 17.139 13.6444C17.2206 13.7003 17.2911 13.7709 17.347 13.8525C17.3828 13.9047 17.4294 14.0019 17.4571 14.2693C17.4862 14.5498 17.4872 14.922 17.4872 15.4957C17.4872 16.0695 17.4862 16.4417 17.4571 16.7221C17.4294 16.9896 17.3828 17.0867 17.347 17.139C17.2911 17.2206 17.2206 17.2911 17.139 17.347C17.0867 17.3828 16.9896 17.4294 16.7221 17.4571C16.4417 17.4862 16.0695 17.4872 15.4957 17.4872H4.50429C3.93052 17.4872 3.55834 17.4862 3.27787 17.4571C3.01045 17.4294 2.91326 17.3828 2.86105 17.347C2.77943 17.2911 2.70888 17.2206 2.65298 17.139C2.61721 17.0867 2.57061 16.9896 2.54288 16.7221C2.5138 16.4417 2.51285 16.0695 2.51285 15.4957C2.51285 14.922 2.5138 14.5498 2.54288 14.2693C2.57061 14.0019 2.61721 13.9047 2.65298 13.8525C2.70888 13.7709 2.77943 13.7003 2.86105 13.6444C2.91326 13.6086 3.01045 13.562 3.27787 13.5343C3.55834 13.5052 3.93052 13.5043 4.50429 13.5043H7.00523C7.18817 13.5043 7.33325 13.5043 7.43808 13.4895C7.54138 13.4749 7.63588 13.442 7.67468 13.3483C7.71347 13.2547 7.6699 13.1646 7.60718 13.0812C7.54354 12.9966 7.44096 12.894 7.3116 12.7647L7.08304 12.5361C6.83001 12.2831 6.68845 12.1415 6.50729 12.0664C6.32613 11.9914 6.12592 11.9914 5.76808 11.9914Z"
    fill="currentColor"
  />
  <path
    d="M15.4957 14.5103C14.9515 14.5103 14.5103 14.9515 14.5103 15.4957C14.5103 16.0399 14.9515 16.4811 15.4957 16.4811C16.0399 16.4811 16.4811 16.0399 16.4811 15.4957C16.4811 14.9515 16.0399 14.5103 15.4957 14.5103Z"
    fill="currentColor"
  />
</svg>
