<svg
  xmlns="http://www.w3.org/2000/svg"
  width="20"
  height="20"
  viewBox="0 0 20 20"
  fill="none"
>
  <path
    fill-rule="evenodd"
    clip-rule="evenodd"
    d="M9.54704 1.8173L9.69794 1.8173C10.117 1.8173 10.4568 2.1567 10.4568 2.57536C10.4568 2.99403 10.117 3.33342 9.69794 3.33342H9.6003C7.79515 3.33342 6.51281 3.33484 5.53426 3.45836C4.57487 3.57946 4.01436 3.80716 3.59773 4.18438C3.51798 4.25659 3.44182 4.33266 3.36954 4.41233C2.99193 4.82853 2.76399 5.38845 2.64277 6.34685C2.51912 7.32437 2.5177 8.60538 2.5177 10.4087C2.5177 12.2119 2.51912 13.4929 2.64277 14.4705C2.76399 15.4288 2.99193 15.9888 3.36954 16.405C3.44182 16.4846 3.51798 16.5607 3.59773 16.6329C4.01436 17.0101 4.57487 17.2378 5.53426 17.3589C6.5128 17.4825 7.79515 17.4839 9.6003 17.4839C11.4055 17.4839 12.6878 17.4825 13.6663 17.3589C14.6257 17.2378 15.1862 17.0101 15.6029 16.6329C15.6826 16.5607 15.7588 16.4846 15.8311 16.405C16.2087 15.9888 16.4366 15.4288 16.5578 14.4705C16.6815 13.4929 16.6829 12.2119 16.6829 10.4087C16.6829 9.98999 17.0226 9.65059 17.4417 9.65059C17.8608 9.65059 18.2006 9.98999 18.2006 10.4087V10.4618C18.2006 12.2 18.2006 13.5769 18.0636 14.6605C17.9227 15.7743 17.6264 16.6838 16.9556 17.4231C16.85 17.5396 16.7387 17.6508 16.6221 17.7563C15.882 18.4264 14.9715 18.7224 13.8566 18.8631C12.7718 19 11.3935 19 9.65353 19H9.54707C7.80709 19 6.42876 19 5.34401 18.8631C4.22906 18.7224 3.31863 18.4264 2.5785 17.7563C2.46195 17.6508 2.35064 17.5396 2.245 17.4231C1.5742 16.6838 1.27792 15.7743 1.13704 14.6605C0.999975 13.5769 0.999986 12.2 1 10.4619V10.3554C0.999986 8.61729 0.999975 7.2404 1.13704 6.15679C1.27792 5.04301 1.5742 4.13351 2.245 3.39416C2.35064 3.27773 2.46195 3.16654 2.5785 3.06101C3.31863 2.3909 4.22907 2.09493 5.34401 1.9542C6.42875 1.81728 7.80707 1.81729 9.54704 1.8173Z"
    fill="currentColor"
  />
  <path
    fill-rule="evenodd"
    clip-rule="evenodd"
    d="M17.5288 2.41937C17.5371 2.42773 17.5455 2.43612 17.554 2.44453C17.5624 2.45295 17.5708 2.46134 17.5792 2.4697C17.9223 2.81242 18.2182 3.10799 18.4363 3.37349C18.6673 3.65477 18.8639 3.96321 18.9475 4.34563C19.0175 4.66548 19.0175 4.99664 18.9475 5.31649C18.8639 5.69891 18.6673 6.00735 18.4363 6.28864C18.2182 6.55413 17.9223 6.8497 17.5792 7.19242L13.598 11.1695C13.5688 11.1986 13.54 11.2274 13.5115 11.2559C13.0122 11.7557 12.617 12.1512 12.1026 12.3641C11.5881 12.577 11.0279 12.5764 10.32 12.5758C10.2796 12.5757 10.2387 12.5757 10.1974 12.5757L10.1521 12.5757C9.71327 12.5757 9.31118 12.5758 8.9842 12.5319C8.62438 12.4837 8.24375 12.3702 7.93087 12.0576C7.618 11.7451 7.50435 11.3648 7.45605 11.0054C7.41216 10.6787 7.41221 10.2771 7.41226 9.83872L7.41226 9.79348C7.41226 9.75215 7.41222 9.71133 7.41218 9.67099C7.41151 8.96377 7.41097 8.40418 7.62406 7.89026C7.83716 7.37635 8.23311 6.98157 8.7334 6.48275C8.76191 6.45433 8.79075 6.42557 8.81992 6.39643L12.7759 2.44453C12.7844 2.43612 12.7928 2.42773 12.8011 2.41937C13.1442 2.07662 13.4401 1.78102 13.7059 1.56316C13.9874 1.33235 14.2962 1.13597 14.679 1.05241C14.9992 0.982529 15.3307 0.982529 15.6509 1.05241C16.0337 1.13597 16.3425 1.33235 16.624 1.56316C16.8898 1.78102 17.1857 2.07662 17.5288 2.41937ZM15.6613 2.7352C15.4696 2.57807 15.3787 2.5449 15.3269 2.53359C15.2202 2.5103 15.1097 2.5103 15.003 2.53359C14.9512 2.5449 14.8603 2.57807 14.6686 2.7352C14.4676 2.89998 14.2245 3.14158 13.8491 3.51659L9.8931 7.46849C9.26443 8.0965 9.10908 8.27067 9.02624 8.47046C8.94341 8.67021 8.92996 8.9037 8.92996 9.79348C8.92996 10.2922 8.93157 10.5902 8.96026 10.8037C8.97341 10.9016 8.98892 10.9506 8.99802 10.9728C9.00013 10.9779 9.00177 10.9813 9.0028 10.9832L9.00409 10.9855L9.00638 10.9868C9.00834 10.9878 9.01171 10.9895 9.01684 10.9916C9.039 11.0007 9.08812 11.0162 9.18611 11.0293C9.39986 11.058 9.69809 11.0596 10.1974 11.0596C11.0881 11.0596 11.3218 11.0461 11.5218 10.9634C11.7218 10.8806 11.8961 10.7254 12.5248 10.0974L16.4808 6.14553C16.8562 5.77051 17.098 5.5277 17.263 5.32689C17.4203 5.1354 17.4535 5.04463 17.4648 4.99287C17.4881 4.88625 17.4881 4.77587 17.4648 4.66925C17.4535 4.61749 17.4203 4.52672 17.263 4.33523C17.098 4.13442 16.8562 3.89161 16.4808 3.51659C16.1054 3.14157 15.8623 2.89998 15.6613 2.7352Z"
    fill="currentColor"
  />
</svg>
