<svg
  xmlns="http://www.w3.org/2000/svg"
  width="20"
  height="20"
  viewBox="0 0 20 20"
  fill="none"
>
  <path
    fill-rule="evenodd"
    clip-rule="evenodd"
    d="M15.157 2.54498C15.1692 2.55593 15.1815 2.56692 15.1938 2.57795L16.0902 3.38075C16.1025 3.39178 16.1148 3.40277 16.127 3.41372C16.6228 3.85774 17.0501 4.24031 17.3508 4.59246C17.6731 4.96987 17.9245 5.39523 17.953 5.93419C17.9815 6.47315 17.7764 6.92243 17.4957 7.33143C17.2338 7.71306 16.8493 8.13817 16.4031 8.63155L8.76197 17.0808C8.7375 17.1078 8.71334 17.1346 8.68947 17.161C8.26875 17.6271 7.93599 17.9956 7.49506 18.2258C7.05413 18.4559 6.56024 18.5187 5.93579 18.5982C5.90036 18.6027 5.8645 18.6073 5.82821 18.6119L4.07295 18.8368C3.57681 18.9004 3.12818 18.9579 2.76259 18.9534C2.36385 18.9485 1.92972 18.871 1.56533 18.5447C1.20094 18.2184 1.07792 17.7969 1.03113 17.4028C0.98822 17.0415 0.998592 16.5914 1.01007 16.0938L1.05046 14.3331C1.0513 14.2967 1.05209 14.2607 1.05288 14.2252C1.0667 13.5989 1.07764 13.1035 1.2613 12.643C1.44497 12.1824 1.77837 11.8144 2.1999 11.3491C2.22382 11.3227 2.24802 11.296 2.27249 11.2689L9.88048 2.85637C9.89156 2.84411 9.90261 2.8319 9.91362 2.81972C10.3598 2.32629 10.7442 1.90115 11.0981 1.6019C11.4774 1.28119 11.9048 1.03101 12.4464 1.00263C12.988 0.974255 13.4395 1.17838 13.8505 1.45768C14.234 1.71829 14.6612 2.10091 15.157 2.54498ZM13.0018 2.69441C12.7299 2.5096 12.6064 2.49391 12.5255 2.49815C12.4446 2.50239 12.3236 2.53089 12.0726 2.7431C11.805 2.96937 11.4879 3.31768 10.9991 3.85817L3.39111 12.2708C2.86247 12.8553 2.73154 13.0162 2.66008 13.1954C2.58862 13.3746 2.57302 13.5811 2.55498 14.3673L2.51571 16.079C2.5028 16.6416 2.49674 16.9836 2.52564 17.227C2.53901 17.3397 2.55662 17.3955 2.56699 17.4201C2.56933 17.4256 2.57114 17.4292 2.57227 17.4313C2.57444 17.4322 2.57821 17.4336 2.584 17.4353C2.6097 17.443 2.66731 17.4546 2.78127 17.456C3.02753 17.459 3.36874 17.4171 3.92961 17.3452L5.63605 17.1266C6.41984 17.0262 6.62454 16.989 6.79609 16.8995C6.96765 16.81 7.11472 16.6635 7.64336 16.079L15.2513 7.66638C15.7401 7.12589 16.0549 6.77545 16.2529 6.48688C16.4386 6.21626 16.4544 6.09344 16.4502 6.01294C16.4459 5.93244 16.4173 5.81194 16.204 5.56222C15.9766 5.29594 15.6266 4.98034 15.0835 4.49392L14.1871 3.69112C13.6439 3.20471 13.2918 2.89147 13.0018 2.69441Z"
    fill="currentColor"
  />
  <path
    fill-rule="evenodd"
    clip-rule="evenodd"
    d="M10.4722 18.2512C10.4722 17.8377 10.8091 17.5024 11.2246 17.5024H18.2475C18.6631 17.5024 19 17.8377 19 18.2512C19 18.6648 18.6631 19 18.2475 19H11.2246C10.8091 19 10.4722 18.6648 10.4722 18.2512Z"
    fill="currentColor"
  />
</svg>
