<svg
  xmlns="http://www.w3.org/2000/svg"
  width="20"
  height="20"
  viewBox="0 0 20 20"
  fill="none"
>
  <path
    fill-rule="evenodd"
    clip-rule="evenodd"
    d="M17.0561 10.8003L11.7566 17.4121H17.8325C18.2358 17.4121 18.5627 17.7675 18.5627 18.206C18.5627 18.6445 18.2358 19 17.8325 19L5.11071 19C4.82463 19.0001 4.59942 19.0002 4.37678 18.9593C4.10767 18.91 3.84709 18.8161 3.60406 18.6811C3.403 18.5694 3.22237 18.4231 2.99293 18.2374L2.93209 18.1882C2.54567 17.8756 2.22399 17.6154 1.97579 17.3821C1.71809 17.14 1.49307 16.8852 1.3313 16.5653C0.990788 15.892 0.908918 15.0997 1.10353 14.3611C1.19599 14.0101 1.36341 13.7074 1.56527 13.4091C1.7597 13.1218 2.02019 12.7906 2.33323 12.3925L9.28703 3.55003C9.84391 2.84185 10.3088 2.25069 10.7363 1.83396C11.1878 1.39379 11.6748 1.06925 12.2893 1.00956C12.9037 0.949878 13.4359 1.17544 13.952 1.5216C14.4407 1.84934 14.9946 2.34154 15.6582 2.93118L16.5022 3.68115C17.1997 4.30097 17.7806 4.81702 18.189 5.29339C18.6198 5.79568 18.938 6.34174 18.9921 7.03719C19.0462 7.73264 18.8169 8.32907 18.4699 8.90288C18.1408 9.44707 17.648 10.0619 17.0561 10.8003ZM15.5379 4.87516C16.2858 5.53969 16.788 5.98818 17.1207 6.37619C17.439 6.74735 17.5213 6.97306 17.5368 7.17105C17.5522 7.36904 17.5059 7.60657 17.2495 8.03058C16.9814 8.47385 16.5557 9.00769 15.9211 9.79936L14.4351 11.6534L8.78454 6.63252L10.3647 4.6232C10.9625 3.86299 11.3648 3.354 11.7113 3.01624C12.042 2.69385 12.2428 2.6083 12.4192 2.59117C12.5956 2.57403 12.8072 2.61952 13.1852 2.87307C13.5813 3.1387 14.0602 3.56209 14.7725 4.19505L15.5379 4.87516ZM7.83983 7.83382L3.46072 13.4023C3.12588 13.8281 2.9007 14.1152 2.74174 14.3501C2.58662 14.5794 2.53181 14.7065 2.50761 14.7983C2.41915 15.1341 2.45636 15.4942 2.61114 15.8003C2.65348 15.884 2.73286 15.9947 2.9309 16.1808C3.13384 16.3715 3.41201 16.5971 3.82539 16.9315C4.11232 17.1637 4.19041 17.2236 4.26869 17.2671C4.37915 17.3285 4.4976 17.3711 4.61992 17.3936C4.7066 17.4095 4.80218 17.4121 5.15982 17.4121L9.8193 17.4121L13.4797 12.8453L7.83983 7.83382Z"
    fill="currentColor"
  />
</svg>
