<svg width="20" height="20" viewBox="0 0 20 20" fill="currentColor" xmlns="http://www.w3.org/2000/svg">
  <path fill-rule="evenodd" d="M9.96343 1H10.0363C11.5237 0.999995 12.6898 0.99999 13.6243 1.0826C14.5763 1.16677 15.3594 1.34112 16.0595 1.73315C16.9847 2.2513 17.7486 3.01521 18.2667 3.94043C18.6588 4.64044 18.8331 5.42359 18.9173 6.37561C18.9999 7.31008 18.9999 8.47613 18.9999 9.96349V10.0365C18.9999 11.5239 18.9999 12.6899 18.9173 13.6244C18.8331 14.5764 18.6588 15.3596 18.2667 16.0596C17.7486 16.9848 16.9847 17.7487 16.0595 18.2669C15.3594 18.6589 14.5763 18.8332 13.6243 18.9174C12.6898 19 11.5237 19 10.0364 19H9.54154C9.12733 19 8.79154 18.6642 8.79154 18.25C8.79154 17.8358 9.12733 17.5 9.54154 17.5H9.99988C11.5316 17.5 12.6314 17.4993 13.4922 17.4232C14.343 17.348 14.8882 17.2036 15.3265 16.9581C16.0104 16.5751 16.575 16.0105 16.958 15.3266C17.2035 14.8883 17.3479 14.3431 17.4231 13.4923C17.4992 12.6316 17.4999 11.5317 17.4999 10C17.4999 8.46831 17.4992 7.36843 17.4231 6.5077C17.3479 5.65688 17.2035 5.11172 16.958 4.67336C16.575 3.9895 16.0104 3.42487 15.3265 3.04189C14.8882 2.7964 14.343 2.65199 13.4922 2.57678C12.6314 2.50068 11.5316 2.5 9.99988 2.5C8.46819 2.5 7.36831 2.50068 6.50758 2.57678C5.65675 2.65199 5.1116 2.7964 4.67324 3.04189C3.98938 3.42487 3.42475 3.9895 3.04177 4.67336C2.79628 5.11172 2.65187 5.65688 2.57665 6.5077C2.50056 7.36843 2.49988 8.46831 2.49988 10V10.4583C2.49988 10.8725 2.16409 11.2083 1.74988 11.2083C1.33566 11.2083 0.999878 10.8725 0.999878 10.4583L0.999878 9.96355C0.999873 8.47617 0.999868 7.3101 1.08248 6.37561C1.16664 5.42359 1.341 4.64044 1.73303 3.94043C2.25117 3.01521 3.01509 2.2513 3.94031 1.73315C4.64032 1.34112 5.42347 1.16677 6.37549 1.0826C7.30997 0.99999 8.47605 0.999995 9.96343 1Z" fill="currentColor" />
  <path d="M13.8333 9.08329C13.8333 9.49751 14.169 9.83329 14.5833 9.83329C14.9975 9.83329 15.3333 9.49751 15.3333 9.08329V5.41663C15.3333 5.2861 15.2999 5.16336 15.2413 5.05646C15.2261 5.02885 15.2092 5.002 15.1903 4.97608C15.1439 4.91224 15.0876 4.856 15.0238 4.80959C14.998 4.79079 14.9712 4.77384 14.9437 4.75875C14.8367 4.70003 14.7139 4.66663 14.5833 4.66663L10.9166 4.66663C10.5024 4.66663 10.1666 5.00241 10.1666 5.41663C10.1666 5.83084 10.5024 6.16663 10.9166 6.16663L12.7726 6.16663L9.46955 9.46967C9.17665 9.76256 9.17665 10.2374 9.46955 10.5303C9.76244 10.8232 10.2373 10.8232 10.5302 10.5303L13.8333 7.22729V9.08329Z" fill="currentColor" />
  <path fill-rule="evenodd" d="M4.46937 12H4.53038C4.99459 12 5.38892 12 5.71218 12.0272C6.05165 12.0557 6.3802 12.1181 6.6923 12.2827C7.12949 12.5131 7.48677 12.8704 7.71722 13.3076C7.88173 13.6197 7.94419 13.9482 7.97273 14.2877C7.9999 14.611 7.99989 15.0053 7.99988 15.4695V15.5305C7.99989 15.9947 7.9999 16.389 7.97273 16.7123C7.94419 17.0518 7.88173 17.3803 7.71722 17.6924C7.48677 18.1296 7.12949 18.4869 6.6923 18.7173C6.3802 18.8819 6.05165 18.9443 5.71218 18.9728C5.38892 19 4.99459 19 4.5304 19H4.46936C4.00517 19 3.61084 19 3.28758 18.9728C2.9481 18.9443 2.61956 18.8819 2.30745 18.7173C1.87026 18.4869 1.51299 18.1296 1.28254 17.6924C1.11803 17.3803 1.05557 17.0518 1.02703 16.7123C0.999855 16.389 0.999866 15.9947 0.999879 15.5305V15.4695C0.999866 15.0053 0.999855 14.611 1.02703 14.2877C1.05557 13.9482 1.11803 13.6197 1.28254 13.3076C1.51299 12.8704 1.87026 12.5131 2.30745 12.2827C2.61956 12.1181 2.9481 12.0557 3.28758 12.0272C3.61084 12 4.00517 12 4.46937 12ZM3.41324 13.5219C3.16948 13.5424 3.06688 13.578 3.0069 13.6096C2.83738 13.699 2.69884 13.8375 2.60948 14.007C2.57786 14.067 2.54225 14.1696 2.52176 14.4134C2.5005 14.6663 2.49988 14.997 2.49988 15.5C2.49988 16.003 2.5005 16.3337 2.52176 16.5866C2.54225 16.8304 2.57786 16.933 2.60948 16.993C2.69884 17.1625 2.83738 17.301 3.0069 17.3904C3.06688 17.422 3.16948 17.4576 3.41324 17.4781C3.66614 17.4994 3.99692 17.5 4.49988 17.5C5.00284 17.5 5.33361 17.4994 5.58652 17.4781C5.83027 17.4576 5.93288 17.422 5.99286 17.3904C6.16238 17.301 6.30092 17.1625 6.39028 16.993C6.42189 16.933 6.45751 16.8304 6.478 16.5866C6.49926 16.3337 6.49988 16.003 6.49988 15.5C6.49988 14.997 6.49926 14.6663 6.478 14.4134C6.45751 14.1696 6.42189 14.067 6.39028 14.007C6.30092 13.8375 6.16238 13.699 5.99286 13.6096C5.93288 13.578 5.83027 13.5424 5.58652 13.5219C5.33361 13.5006 5.00284 13.5 4.49988 13.5C3.99692 13.5 3.66614 13.5006 3.41324 13.5219Z" fill="currentColor" />
</svg>
