<svg
  xmlns="http://www.w3.org/2000/svg"
  width="20"
  height="20"
  viewBox="0 0 20 20"
  fill="none"
>
  <path
    fill-rule="evenodd"
    clip-rule="evenodd"
    d="M1.75272 11.7563C2.16843 11.7563 2.50543 12.0933 2.50543 12.5091V13.0109C2.50543 13.824 2.50582 14.3969 2.53596 14.8468C2.56565 15.2902 2.62179 15.56 2.70789 15.7722C2.98832 16.4634 3.53659 17.0117 4.22781 17.2921C4.44004 17.3782 4.70982 17.4343 5.15317 17.464C5.6031 17.4942 6.17598 17.4946 6.98914 17.4946C7.40485 17.4946 7.74185 17.8316 7.74185 18.2473C7.74185 18.663 7.40485 19 6.98914 19H6.96249C6.18201 19 5.55873 19 5.05257 18.9661C4.53407 18.9314 4.08476 18.8587 3.66185 18.6871C2.59361 18.2537 1.74628 17.4064 1.31289 16.3381C1.14132 15.9152 1.06862 15.4659 1.03389 14.9474C0.999992 14.4413 0.999996 13.818 1 13.0375L1 12.5091C1 12.0933 1.337 11.7563 1.75272 11.7563Z"
    fill="currentColor"
  />
  <path
    fill-rule="evenodd"
    clip-rule="evenodd"
    d="M1.75272 8.24366C2.16843 8.24366 2.50543 7.90666 2.50543 7.49095V6.98914C2.50543 6.17598 2.50582 5.6031 2.53596 5.15317C2.56565 4.70982 2.62179 4.44004 2.70789 4.22781C2.98832 3.53659 3.53659 2.98832 4.22781 2.70789C4.44004 2.62179 4.70982 2.56565 5.15317 2.53596C5.6031 2.50582 6.17598 2.50543 6.98914 2.50543C7.40485 2.50543 7.74185 2.16843 7.74185 1.75272C7.74185 1.337 7.40485 1 6.98914 1H6.96249C6.18201 0.999996 5.55873 0.999992 5.05257 1.03389C4.53407 1.06862 4.08476 1.14132 3.66185 1.31289C2.59361 1.74628 1.74628 2.59361 1.31289 3.66185C1.14132 4.08476 1.06862 4.53407 1.03389 5.05257C0.999992 5.55873 0.999996 6.18202 1 6.9625L1 7.49095C1 7.90666 1.337 8.24366 1.75272 8.24366Z"
    fill="currentColor"
  />
  <path
    fill-rule="evenodd"
    clip-rule="evenodd"
    d="M18.2473 12.2581C18.663 12.2581 19 12.5951 19 13.0109V13.0375C19 13.818 19 14.4413 18.9661 14.9474C18.9314 15.4659 18.8587 15.9152 18.6871 16.3381C18.2537 17.4064 17.4064 18.2537 16.3381 18.6871C15.9152 18.8587 15.4659 18.9314 14.9474 18.9661C14.4413 19 13.818 19 13.0375 19H12.5091C12.0933 19 11.7563 18.663 11.7563 18.2473C11.7563 17.8316 12.0933 17.4946 12.5091 17.4946H13.0109C13.824 17.4946 14.3969 17.4942 14.8468 17.464C15.2902 17.4343 15.56 17.3782 15.7722 17.2921C16.4634 17.0117 17.0117 16.4634 17.2921 15.7722C17.3782 15.56 17.4343 15.2902 17.464 14.8468C17.4942 14.3969 17.4946 13.824 17.4946 13.0109C17.4946 12.5951 17.8316 12.2581 18.2473 12.2581Z"
    fill="currentColor"
  />
  <path
    fill-rule="evenodd"
    clip-rule="evenodd"
    d="M14.8468 2.53596C14.3969 2.50582 13.824 2.50543 13.0109 2.50543C12.5951 2.50543 12.2581 2.16843 12.2581 1.75272C12.2581 1.337 12.5951 1 13.0109 1L13.0375 1C13.818 0.999996 14.4413 0.999992 14.9474 1.03389C15.4659 1.06862 15.9152 1.14132 16.3381 1.31289C17.4064 1.74628 18.2537 2.59361 18.6871 3.66185C18.8587 4.08476 18.9314 4.53407 18.9661 5.05257C19 5.55873 19 6.18201 19 6.96249V7.49095C19 7.90666 18.663 8.24366 18.2473 8.24366C17.8316 8.24366 17.4946 7.90666 17.4946 7.49095V6.98914C17.4946 6.17598 17.4942 5.6031 17.464 5.15317C17.4343 4.70982 17.3782 4.44004 17.2921 4.22781C17.0117 3.53659 16.4634 2.98832 15.7722 2.70789C15.56 2.62179 15.2902 2.56565 14.8468 2.53596Z"
    fill="currentColor"
  />
  <path
    d="M7.51594 6.98914C7.51594 7.54342 7.0666 7.99276 6.51232 7.99276C5.95803 7.99276 5.5087 7.54342 5.5087 6.98914C5.5087 6.43485 5.95803 5.98552 6.51232 5.98552C7.0666 5.98552 7.51594 6.43485 7.51594 6.98914Z"
    fill="currentColor"
  />
  <path
    d="M14.4891 6.98914C14.4891 7.54342 14.0398 7.99276 13.4855 7.99276C12.9312 7.99276 12.4819 7.54342 12.4819 6.98914C12.4819 6.43485 12.9312 5.98552 13.4855 5.98552C14.0398 5.98552 14.4891 6.43485 14.4891 6.98914Z"
    fill="currentColor"
  />
  <path
    fill-rule="evenodd"
    clip-rule="evenodd"
    d="M6.01027 12.528C6.3189 12.2495 6.79487 12.2739 7.07337 12.5826C8.63881 14.3174 11.3612 14.3174 12.9266 12.5826C13.2051 12.2739 13.6811 12.2495 13.9897 12.528C14.2984 12.8065 14.3228 13.2825 14.0443 13.5911C11.881 15.9885 8.11897 15.9885 5.95569 13.5911C5.6772 13.2825 5.70163 12.8065 6.01027 12.528Z"
    fill="currentColor"
  />
  <path
    fill-rule="evenodd"
    clip-rule="evenodd"
    d="M10 6.73823C10.4157 6.73823 10.7527 7.07523 10.7527 7.49095V9.46033C10.7527 9.47035 10.7527 9.48036 10.7527 9.49034C10.7528 9.75278 10.7528 10.0018 10.7316 10.2134C10.708 10.4498 10.6538 10.6986 10.5096 10.9432C10.3655 11.1878 10.1742 11.3558 9.97889 11.4911C9.80404 11.6121 9.58619 11.7328 9.35662 11.86C9.34788 11.8648 9.33912 11.8696 9.33036 11.8745L9.20437 11.9443C8.84074 12.1458 8.38264 12.0143 8.18117 11.6507C7.9797 11.2871 8.11115 10.8289 8.47478 10.6275L8.60077 10.5577C8.86598 10.4107 9.01645 10.3264 9.12188 10.2534C9.16916 10.2206 9.1925 10.2 9.20353 10.1891C9.2087 10.184 9.21171 10.1802 9.21171 10.1802L9.21257 10.179L9.21322 10.1777C9.21322 10.1777 9.21503 10.1732 9.21701 10.1662C9.22123 10.1513 9.22795 10.1208 9.23367 10.0636C9.24643 9.93602 9.2473 9.76353 9.2473 9.46033V7.49095C9.2473 7.07523 9.5843 6.73823 10 6.73823Z"
    fill="currentColor"
  />
</svg>
