<svg width="20" height="20" viewBox="0 0 20 20" fill="currentColor" xmlns="http://www.w3.org/2000/svg">
  <path d="M6.33616 7.41168C5.9184 7.41168 5.57974 7.75034 5.57974 8.1681C5.57974 8.58587 5.9184 8.92453 6.33616 8.92453H8.16807C8.58583 8.92453 8.92449 8.58587 8.92449 8.1681C8.92449 7.75034 8.58583 7.41168 8.16807 7.41168H6.33616Z" fill="currentColor" />
  <path d="M11.8319 7.41168C11.4141 7.41168 11.0754 7.75034 11.0754 8.1681C11.0754 8.58587 11.4141 8.92453 11.8319 8.92453H13.6638C14.0815 8.92453 14.4202 8.58587 14.4202 8.1681C14.4202 7.75034 14.0815 7.41168 13.6638 7.41168H11.8319Z" fill="currentColor" />
  <path d="M8.1681 12.9074C7.75034 12.9074 7.41168 13.246 7.41168 13.6638C7.41168 14.0816 7.75034 14.4202 8.1681 14.4202H11.8319C12.2497 14.4202 12.5883 14.0816 12.5883 13.6638C12.5883 13.246 12.2497 12.9074 11.8319 12.9074H8.1681Z" fill="currentColor" />
  <path fill-rule="evenodd" d="M10 1C5.02944 1 1 5.02944 1 10C1 14.9706 5.02944 19 10 19C14.9706 19 19 14.9706 19 10C19 5.02944 14.9706 1 10 1ZM2.51285 10C2.51285 5.86496 5.86496 2.51285 10 2.51285C14.135 2.51285 17.4872 5.86496 17.4872 10C17.4872 14.135 14.135 17.4872 10 17.4872C5.86496 17.4872 2.51285 14.135 2.51285 10Z" fill="currentColor" />
</svg>
