<svg width="20" height="20" viewBox="0 0 20 20" fill="currentcolor" xmlns="http://www.w3.org/2000/svg">
  <path d="M8.46333 8.38462C8.46333 8.9379 8.01481 9.38643 7.46152 9.38643C6.90824 9.38643 6.45972 8.9379 6.45972 8.38462C6.45972 7.83134 6.90824 7.38281 7.46152 7.38281C8.01481 7.38281 8.46333 7.83134 8.46333 8.38462Z" fill="currentcolor" />
  <path d="M13.539 8.38461C13.539 8.93721 13.0911 9.38518 12.5385 9.38518C11.9859 9.38518 11.5379 8.93721 11.5379 8.38461C11.5379 7.832 11.9859 7.38403 12.5385 7.38403C13.0911 7.38403 13.539 7.832 13.539 8.38461Z" fill="currentcolor" />
  <path fill-rule="evenodd" d="M10 1C5.02944 1 1 5.02944 1 10C1 14.9706 5.02944 19 10 19C14.9706 19 19 14.9706 19 10C19 5.02944 14.9706 1 10 1ZM2.51285 10C2.51285 5.86496 5.86496 2.51285 10 2.51285C14.135 2.51285 17.4872 5.86496 17.4872 10C17.4872 14.135 14.135 17.4872 10 17.4872C5.86496 17.4872 2.51285 14.135 2.51285 10Z" fill="currentcolor" />
  <path d="M9.83473 10.2086C9.39215 10.0499 8.85398 10.1786 8.63269 10.4961C8.4114 10.8136 8.59079 11.1997 9.03337 11.3585L9.71299 11.6023C9.7242 11.6063 9.72975 11.6097 9.73218 11.6113C9.73476 11.613 9.7366 11.6147 9.73819 11.6167C9.74172 11.621 9.74601 11.6292 9.74601 11.6406C9.74601 11.652 9.74172 11.6603 9.73819 11.6646C9.7366 11.6665 9.73476 11.6682 9.73218 11.67C9.72975 11.6716 9.7242 11.6749 9.71299 11.679L9.11059 11.8951C8.90996 11.9507 8.73647 12.0581 8.63269 12.207C8.56791 12.3 8.53746 12.3988 8.53791 12.4961C8.53746 12.5934 8.56791 12.6922 8.63269 12.7852C8.73647 12.9341 8.90996 13.0415 9.11059 13.0971L9.71299 13.3132C9.7242 13.3173 9.72975 13.3206 9.73218 13.3222C9.73476 13.324 9.7366 13.3257 9.73819 13.3276C9.74172 13.3319 9.74601 13.3401 9.74601 13.3516C9.74601 13.363 9.74172 13.3712 9.73819 13.3755C9.7366 13.3775 9.73476 13.3792 9.73218 13.3809C9.72975 13.3825 9.7242 13.3859 9.71299 13.3899L9.03337 13.6337C8.59079 13.7925 8.4114 14.1786 8.63269 14.4961C8.85398 14.8136 9.39215 14.9423 9.83473 14.7836L10.5144 14.5398C11.639 14.1363 11.8369 13.1164 11.1079 12.4961C11.8369 11.8758 11.639 10.8559 10.5144 10.4524L9.83473 10.2086Z" fill="currentcolor" />
</svg>
