<svg
  xmlns="http://www.w3.org/2000/svg"
  width="20"
  height="20"
  viewBox="0 0 20 20"
  fill="none"
>
  <path
    d="M8.47514 8.39709C8.47514 8.94611 8.03008 9.39117 7.48106 9.39117C6.93205 9.39117 6.48699 8.94611 6.48699 8.39709C6.48699 7.84808 6.93205 7.40302 7.48106 7.40302C8.03008 7.40302 8.47514 7.84808 8.47514 8.39709Z"
    fill="currentColor"
  />
  <path
    d="M6.96562 11.8703C6.73389 11.5227 6.26425 11.4288 5.91665 11.6605C5.56905 11.8922 5.47513 12.3619 5.70686 12.7095C7.74921 15.773 12.2509 15.773 14.2932 12.7095C14.525 12.3619 14.4311 11.8922 14.0835 11.6605C13.7359 11.4288 13.2662 11.5227 13.0345 11.8703C11.5909 14.0356 8.40916 14.0356 6.96562 11.8703Z"
    fill="currentColor"
  />
  <path
    d="M12.7479 7.15416C12.0764 7.15417 11.4797 7.49319 11.0285 8.01976C10.7567 8.337 10.7935 8.81452 11.1108 9.08634C11.428 9.35816 11.9055 9.32133 12.1774 9.00409C12.4129 8.72921 12.6176 8.66701 12.7479 8.66701C12.8782 8.66701 13.0829 8.72919 13.3184 9.00408C13.5902 9.32132 14.0677 9.35816 14.385 9.08636C14.7022 8.81455 14.7391 8.33703 14.4673 8.01978C14.0161 7.49316 13.4194 7.15415 12.7479 7.15416Z"
    fill="currentColor"
  />
  <path
    fill-rule="evenodd"
    clip-rule="evenodd"
    d="M10 1C5.02944 1 1 5.02944 1 10C1 14.9706 5.02944 19 10 19C14.9706 19 19 14.9706 19 10C19 5.02944 14.9706 1 10 1ZM2.51285 10C2.51285 5.86496 5.86496 2.51285 10 2.51285C14.135 2.51285 17.4872 5.86496 17.4872 10C17.4872 14.135 14.135 17.4872 10 17.4872C5.86496 17.4872 2.51285 14.135 2.51285 10Z"
    fill="currentColor"
  />
</svg>
