<svg width="20" height="20" viewBox="0 0 20 20" fill="currentColor" xmlns="http://www.w3.org/2000/svg">
  <path d="M8.46333 8.38462C8.46333 8.9379 8.01481 9.38643 7.46152 9.38643C6.90824 9.38643 6.45972 8.9379 6.45972 8.38462C6.45972 7.83134 6.90824 7.38281 7.46152 7.38281C8.01481 7.38281 8.46333 7.83134 8.46333 8.38462Z" fill="currentColor" />
  <path d="M13.5391 8.38462C13.5391 8.93722 13.0911 9.38519 12.5385 9.38519C11.9859 9.38519 11.5379 8.93722 11.5379 8.38462C11.5379 7.83202 11.9859 7.38405 12.5385 7.38405C13.0911 7.38405 13.5391 7.83202 13.5391 8.38462Z" fill="currentColor" />
  <path d="M6.96562 11.8703C6.73389 11.5227 6.26425 11.4288 5.91665 11.6605C5.56905 11.8922 5.47513 12.3619 5.70686 12.7095C7.74921 15.773 12.2509 15.773 14.2932 12.7095C14.525 12.3619 14.4311 11.8922 14.0835 11.6605C13.7359 11.4288 13.2662 11.5227 13.0345 11.8703C11.5909 14.0356 8.40916 14.0356 6.96562 11.8703Z" fill="currentColor" />
  <path fill-rule="evenodd" d="M10 1C5.02944 1 1 5.02944 1 10C1 14.9706 5.02944 19 10 19C14.9706 19 19 14.9706 19 10C19 5.02944 14.9706 1 10 1ZM2.51285 10C2.51285 5.86496 5.86496 2.51285 10 2.51285C14.135 2.51285 17.4872 5.86496 17.4872 10C17.4872 14.135 14.135 17.4872 10 17.4872C5.86496 17.4872 2.51285 14.135 2.51285 10Z" fill="currentColor" />
</svg>
