<svg width="20" height="20" viewBox="0 0 20 20" fill="currentcolor" xmlns="http://www.w3.org/2000/svg">
  <path d="M13 15.1232C13.8922 15.1232 14.6154 14.5174 14.6154 13.3059C14.6154 12.4056 13.7235 11.1709 13.2651 10.5958C13.1274 10.423 12.8727 10.423 12.7349 10.5958C12.2766 11.1709 11.3846 12.4056 11.3846 13.3059C11.3846 14.5174 12.1079 15.1232 13 15.1232Z" fill="currentcolor" />
  <path fill-rule="evenodd" d="M10 1C5.02944 1 1 5.02944 1 10C1 14.9706 5.02944 19 10 19C14.9706 19 19 14.9706 19 10C19 5.02944 14.9706 1 10 1ZM2.51285 10C2.51285 5.86496 5.86496 2.51285 10 2.51285C14.135 2.51285 17.4872 5.86496 17.4872 10C17.4872 14.135 14.135 17.4872 10 17.4872C5.86496 17.4872 2.51285 14.135 2.51285 10Z" fill="currentcolor" />
  <path d="M8.46098 8.38461C8.46098 8.9365 8.01359 9.3839 7.46169 9.3839C6.9098 9.3839 6.4624 8.9365 6.4624 8.38461C6.4624 7.83271 6.9098 7.38531 7.46169 7.38531C8.01359 7.38531 8.46098 7.83271 8.46098 8.38461Z" fill="currentcolor" />
  <path d="M13.5391 8.38467C13.5391 8.93727 13.0911 9.38524 12.5385 9.38524C11.9859 9.38524 11.538 8.93727 11.538 8.38467C11.538 7.83207 11.9859 7.38409 12.5385 7.38409C13.0911 7.38409 13.5391 7.83207 13.5391 8.38467Z" fill="currentcolor" />
  <path d="M6.98463 12.3586C6.7697 12.0004 6.30506 11.8842 5.94683 12.0992C5.5886 12.3141 5.47244 12.7788 5.68738 13.137C5.94504 13.5664 6.40899 14.2301 7.20565 14.7286C8.01834 15.2372 9.11605 15.5355 10.5648 15.3285C10.9783 15.2695 11.2657 14.8863 11.2066 14.4727C11.1475 14.0592 10.7644 13.7718 10.3508 13.8309C9.23489 13.9903 8.50069 13.7544 8.00813 13.4462C7.49957 13.1279 7.18496 12.6925 6.98463 12.3586Z" fill="currentcolor" />
</svg>
