<svg
  xmlns="http://www.w3.org/2000/svg"
  width="20"
  height="20"
  viewBox="0 0 20 20"
  fill="none"
>
  <path
    d="M12.6839 10.2912C12.3398 10.0558 11.8739 10.1496 11.6435 10.4993L9.12422 14.3236L7.82638 12.9206C7.54251 12.6138 7.06772 12.5995 6.76653 12.8889C6.46601 13.1777 6.45217 13.6595 6.73541 13.9657L8.07881 15.4179C8.20101 15.5502 8.34164 15.7023 8.47838 15.8131C8.6396 15.9438 8.90635 16.1106 9.26681 16.0803C9.6272 16.05 9.8634 15.8409 10.0014 15.6852C10.1184 15.553 10.2326 15.3795 10.3319 15.2286L12.8881 11.3483C13.118 10.9993 13.0272 10.5262 12.6839 10.2912Z"
    fill="currentColor"
  />
  <path
    fill-rule="evenodd"
    clip-rule="evenodd"
    d="M12.0425 0.198975C11.5687 -0.00105384 11.0553 -0.000548378 10.43 6.72307e-05L9.94358 0.000147093C8.28226 0.000132325 6.95912 0.00012058 5.92191 0.142248C4.8514 0.28894 3.97413 0.59951 3.28085 1.30611C2.58774 2.01254 2.28324 2.90617 2.13939 3.99667C1.99998 5.05356 1.99999 6.40191 2 8.09534V11.9048C1.99999 13.5982 1.99998 14.9466 2.13939 16.0035C2.28324 17.094 2.58774 17.9876 3.28085 18.694C3.97413 19.4006 4.8514 19.7112 5.92191 19.8579C6.95912 20 8.28225 20 9.94357 20H10.0562C11.7175 20 13.0407 20 14.0779 19.8579C15.1485 19.7112 16.0257 19.4006 16.719 18.694C17.4121 17.9876 17.7166 17.094 17.8605 16.0035C17.9999 14.9466 17.9999 13.5983 17.9999 11.9049L17.9999 7.72394L17.9999 7.71458C18.0005 7.07697 18.001 6.55428 17.805 6.07195C17.6555 5.70403 17.4099 5.40339 17.1068 5.08271C17.0566 5.0292 17.0044 4.9753 16.9521 4.92184C16.9019 4.87023 16.8497 4.81714 16.7968 4.76337L13.3272 1.2271C13.274 1.17277 13.222 1.11965 13.1709 1.06799C13.1187 1.01494 13.0662 0.962141 13.0139 0.911162C12.6993 0.602269 12.404 0.351557 12.0425 0.198975ZM6.12188 1.65328C7.04749 1.52644 8.26966 1.52481 9.99993 1.52481H10.3109C10.6681 1.52481 10.9049 1.5273 11.0734 1.53666C11.0633 1.70072 11.0634 1.88291 11.0634 2.05852L11.0635 2.66256C11.0634 3.48883 11.0634 4.18467 11.1365 4.73866C11.214 5.32604 11.3857 5.86666 11.8134 6.30254C12.2412 6.73858 12.7721 6.91386 13.349 6.99291C13.8928 7.06743 14.5757 7.0674 15.3862 7.06737L15.9792 7.06738C16.1509 7.06744 16.3292 7.0675 16.4899 7.0573C16.4991 7.22922 16.5015 7.4709 16.5015 7.83557V11.8476C16.5015 13.611 16.5 14.8569 16.3755 15.8006C16.2539 16.7225 16.0275 17.2409 15.6587 17.6168C15.2901 17.9925 14.7819 18.223 13.878 18.3469C12.9524 18.4737 11.7302 18.4753 9.99993 18.4753C8.26966 18.4753 7.04749 18.4737 6.12188 18.3469C5.21796 18.223 4.70976 17.9925 4.34116 17.6168C3.9724 17.2409 3.74598 16.7225 3.62438 15.8006C3.49989 14.8569 3.49831 13.611 3.49831 11.8476V8.15256C3.49831 6.38915 3.49989 5.14321 3.62438 4.19952C3.74598 3.27766 3.9724 2.7592 4.34116 2.38336C4.70976 2.00768 5.21796 1.77714 6.12188 1.65328ZM12.5618 2.61V2.60499L15.4441 5.54271H15.438C14.5622 5.54271 13.981 5.54108 13.549 5.48189C13.1387 5.42567 12.9768 5.33043 12.8737 5.22529C12.7704 5.11998 12.6767 4.95451 12.6215 4.53581C12.5634 4.09523 12.5618 3.50251 12.5618 2.61Z"
    fill="currentColor"
  />
</svg>
