<svg width="20" height="20" viewBox="0 0 20 20" fill="currentColor" xmlns="http://www.w3.org/2000/svg">
  <path fill-rule="evenodd" d="M12.0425 0.198975C11.5687 -0.00105384 11.0553 -0.000548378 10.43 6.72307e-05L9.94358 0.000147093C8.28226 0.000132325 6.95912 0.000120571 5.92191 0.142248C4.8514 0.28894 3.97413 0.59951 3.28085 1.30611C2.58774 2.01254 2.28324 2.90617 2.13939 3.99667C1.99997 5.05356 1.99999 6.40192 2 8.09537V11.9048C1.99999 13.5982 1.99997 14.9466 2.13939 16.0035C2.28324 17.094 2.58774 17.9876 3.28085 18.694C3.97413 19.4006 4.8514 19.7112 5.92191 19.8579C6.95909 20 8.28218 20 9.94344 20H10.0564C11.7176 20 13.0408 20 14.0779 19.8579C15.1485 19.7112 16.0257 19.4006 16.719 18.694C17.4121 17.9876 17.7166 17.094 17.8605 16.0035C17.9999 14.9466 17.9999 13.5983 17.9999 11.9049L17.9999 7.71458C18.0005 7.07697 18.001 6.55428 17.805 6.07195C17.6089 5.58949 17.2458 5.2201 16.803 4.76965L13.3205 1.22024C12.8788 0.769162 12.5162 0.398953 12.0425 0.198975ZM6.12187 1.65328C7.04749 1.52644 8.26966 1.52481 9.99993 1.52481H10.3109C10.7096 1.52481 10.9584 1.52791 11.1296 1.54022C11.2996 1.55244 11.3883 1.57346 11.4684 1.60725C11.5485 1.64107 11.6259 1.69023 11.7546 1.80414C11.8843 1.91888 12.0624 2.09602 12.3443 2.38336L15.6587 5.76141C15.9406 6.04874 16.1144 6.23026 16.227 6.36244C16.3388 6.49362 16.3871 6.57268 16.4204 6.65463C16.4537 6.73661 16.4744 6.82746 16.4864 7.00089C16.4985 7.17556 16.5015 7.42924 16.5015 7.83557V11.8476C16.5015 13.611 16.5 14.8569 16.3755 15.8006C16.2539 16.7225 16.0275 17.2409 15.6587 17.6168C15.2901 17.9925 14.7819 18.223 13.878 18.3469C12.9524 18.4737 11.7302 18.4753 9.99993 18.4753C8.26966 18.4753 7.04749 18.4737 6.12187 18.3469C5.21796 18.223 4.70976 17.9925 4.34116 17.6168C3.9724 17.2409 3.74598 16.7225 3.62438 15.8006C3.49989 14.8569 3.49831 13.611 3.49831 11.8476V8.15256C3.49831 6.38915 3.49989 5.14321 3.62438 4.19952C3.74598 3.27766 3.9724 2.7592 4.34116 2.38336C4.70976 2.00768 5.21796 1.77714 6.12187 1.65328Z" fill="currentColor" />
  <path fill-rule="evenodd" d="M12.7264 0.655651C12.5783 0.542129 12.1787 0.266523 11.6934 0.471376C11.2088 0.675963 11.1178 1.15778 11.0919 1.3445C11.0633 1.55003 11.0634 1.81032 11.0635 2.05673L11.0635 2.66264C11.0635 3.48889 11.0635 4.1847 11.1365 4.73867C11.214 5.32606 11.3858 5.86668 11.8134 6.30256C12.2413 6.7386 12.7722 6.91388 13.3491 6.99293C13.8928 7.06744 14.5757 7.06742 15.3862 7.06739L15.9811 7.0674C16.2228 7.06748 16.4783 7.06757 16.6802 7.03847C16.8644 7.01193 17.3373 6.91863 17.5378 6.42532C17.7381 5.93263 17.4689 5.52673 17.3572 5.37548C17.2347 5.20952 17.054 5.02546 16.8831 4.85131L13.2407 1.13895C13.0698 0.964707 12.8892 0.780519 12.7264 0.655651ZM12.5618 2.61002V2.60501L15.4442 5.54272H15.4381C14.5623 5.54272 13.981 5.5411 13.549 5.4819C13.1388 5.42569 12.9769 5.33045 12.8738 5.22531C12.7704 5.12 12.6768 4.95453 12.6215 4.53583C12.5634 4.09524 12.5618 3.50252 12.5618 2.61002Z" fill="currentColor" />
  <path fill-rule="evenodd" d="M9.99994 9.25528C10.4106 9.25528 10.7434 9.58873 10.7434 10.0001V13.1672L11.4569 12.4526C11.7472 12.1617 12.218 12.1617 12.5083 12.4526C12.7987 12.7434 12.7987 13.215 12.5083 13.5059L10.5257 15.492C10.2353 15.7828 9.76456 15.7828 9.47421 15.492L7.49156 13.5059C7.20121 13.215 7.20121 12.7434 7.49156 12.4526C7.78191 12.1617 8.25266 12.1617 8.54302 12.4526L9.25644 13.1672V10.0001C9.25644 9.58873 9.58932 9.25528 9.99994 9.25528Z" fill="currentColor" />
</svg>
