<svg width="20" height="20" viewBox="0 0 20 20" fill="currentcolor" xmlns="http://www.w3.org/2000/svg">
  <path fill-rule="evenodd" d="M14.2391 7.43868C14.0811 7.4497 13.9007 7.44965 13.7252 7.4496L13.6481 7.44959C12.9171 7.44961 12.3073 7.44963 11.8158 7.39546C11.3004 7.33866 10.825 7.21482 10.4074 6.90403C10.1941 6.74527 10.005 6.55653 9.84591 6.34366C9.53448 5.92694 9.41038 5.45258 9.35346 4.93823C9.29918 4.44778 9.29919 3.83916 9.29921 3.10968L9.29921 3.03273C9.29916 2.85505 9.29911 2.67222 9.31065 2.51285C9.17254 2.50448 8.96989 2.50252 8.63337 2.50252C7.29212 2.50252 6.33953 2.50333 5.59913 2.57432C4.87013 2.64423 4.42569 2.77672 4.07895 2.99161C3.6535 3.25529 3.29472 3.61333 3.0305 4.0379C2.81516 4.38392 2.6824 4.82744 2.61234 5.55493C2.5412 6.29379 2.54039 7.24441 2.54039 8.58289V12.6547C2.54039 14.1902 2.54952 14.7815 2.69738 15.2394C3.01884 16.2348 3.80068 17.015 4.79818 17.3358C5.25698 17.4834 5.84951 17.4925 7.38819 17.4925C7.80326 17.4925 8.13974 17.8283 8.13974 18.2425C8.13974 18.6567 7.80326 18.9925 7.38819 18.9925L7.23648 18.9925C5.90175 18.9928 5.05076 18.993 4.33713 18.7635C2.87925 18.2947 1.73655 17.1543 1.26672 15.6995C1.03674 14.9873 1.03694 14.1381 1.03725 12.8061L1.03728 8.54376C1.03727 7.25313 1.03726 6.23045 1.11613 5.41146C1.19688 4.57284 1.36572 3.86981 1.75359 3.24654C2.13976 2.62601 2.66414 2.10272 3.28595 1.71735C3.91051 1.33028 4.615 1.16179 5.45536 1.0812C6.27605 1.0025 7.30086 1.00251 8.59415 1.00252L8.71903 1.00248C9.21388 1.00214 9.60387 1.00188 9.97669 1.108C10.1798 1.16581 10.3755 1.24673 10.5601 1.34916C10.8989 1.53719 11.1745 1.81258 11.5242 2.162L14.4513 5.08301C14.5168 5.14829 14.5806 5.21177 14.6423 5.27395C14.7792 5.41053 14.9196 5.55101 15.0269 5.68001C15.2505 5.93416 15.4297 6.18571 15.55 6.47556C15.761 6.98401 15.7605 7.53691 15.7598 8.23552L15.7597 11.4973C15.7597 11.9115 15.4233 12.2473 15.0082 12.2473C14.5931 12.2473 14.2566 11.9115 14.2566 11.4973V8.35637C14.2566 7.91018 14.2532 7.63115 14.2391 7.43868ZM13.1929 5.94893L10.803 3.56392C10.805 4.08273 10.8134 4.46597 10.8475 4.77357C10.89 5.15738 10.9647 5.3316 11.0508 5.4469C11.1231 5.54365 11.2091 5.62945 11.3061 5.70161C11.4216 5.78759 11.5962 5.86214 11.9808 5.90453C12.289 5.9385 12.6731 5.94688 13.1929 5.94893Z" fill="currentcolor" />
  <path d="M12.6302 18.5975V18.5113C12.6302 18.3227 12.6302 18.2285 12.5715 18.1699C12.5128 18.1113 12.4183 18.1113 12.2293 18.1113H10.4244L12.5378 14.3834C12.5637 14.3378 12.5766 14.315 12.5832 14.29C12.5898 14.265 12.5898 14.2388 12.5898 14.1864V14.0655C12.5898 13.8769 12.5898 13.7827 12.5311 13.7241C12.4724 13.6655 12.3779 13.6655 12.189 13.6655H9.54846C9.3595 13.6655 9.26503 13.6655 9.20633 13.7241C9.14763 13.7827 9.14763 13.8769 9.14763 14.0655V14.1554C9.14763 14.344 9.14763 14.4382 9.20633 14.4968C9.26503 14.5554 9.3595 14.5554 9.54846 14.5554H11.3574L9.22306 18.2567C9.19651 18.3028 9.18323 18.3258 9.17644 18.3512C9.16964 18.3765 9.16964 18.4031 9.16964 18.4562V18.5975C9.16964 18.7861 9.16964 18.8804 9.22834 18.939C9.28704 18.9975 9.38152 18.9975 9.57047 18.9975H12.2293C12.4183 18.9975 12.5128 18.9975 12.5715 18.939C12.6302 18.8804 12.6302 18.7861 12.6302 18.5975Z" fill="currentcolor" />
  <path d="M14.0916 13.6655C14.2806 13.6655 14.375 13.6655 14.4337 13.7241C14.4924 13.7827 14.4924 13.8769 14.4924 14.0655V18.5975C14.4924 18.7861 14.4924 18.8804 14.4337 18.939C14.375 18.9975 14.2806 18.9975 14.0916 18.9975H13.8254C13.6364 18.9975 13.5419 18.9975 13.4832 18.939C13.4245 18.8804 13.4245 18.7861 13.4245 18.5975V14.0655C13.4245 13.8769 13.4245 13.7827 13.4832 13.7241C13.5419 13.6655 13.6364 13.6655 13.8254 13.6655H14.0916Z" fill="currentcolor" />
  <path fill-rule="evenodd" d="M16.5565 17.1189H17.3051C17.6648 17.1189 17.9742 17.0493 18.2336 16.9101C18.4929 16.771 18.6911 16.5757 18.8281 16.3242C18.9675 16.0703 19.0372 15.7712 19.0372 15.427C19.0372 15.0852 18.9675 14.7824 18.8281 14.5188C18.6911 14.2527 18.4929 14.0439 18.2336 13.8926C17.9742 13.7412 17.6648 13.6655 17.3051 13.6655H15.8858C15.6968 13.6655 15.6024 13.6655 15.5437 13.7241C15.485 13.7827 15.485 13.8769 15.485 14.0655V18.5975C15.485 18.7861 15.485 18.8804 15.5437 18.939C15.6024 18.9975 15.6968 18.9975 15.8858 18.9975H16.1557C16.3446 18.9975 16.4391 18.9975 16.4978 18.939C16.5565 18.8804 16.5565 18.7861 16.5565 18.5975V17.1189ZM17.3051 16.229H16.5565V14.9554C16.5565 14.7668 16.5565 14.6726 16.6152 14.614C16.6739 14.5554 16.7684 14.5554 16.9573 14.5554H17.3051C17.4593 14.5554 17.5828 14.5969 17.6758 14.6799C17.7712 14.7629 17.8409 14.8716 17.8849 15.0058C17.9314 15.1377 17.9547 15.2805 17.9547 15.4343C17.9547 15.5857 17.9326 15.7224 17.8886 15.8445C17.8446 15.9641 17.7736 16.0581 17.6758 16.1264C17.5804 16.1948 17.4568 16.229 17.3051 16.229Z" fill="currentcolor" />
</svg>
