<svg width="20" height="20" viewBox="0 0 20 20" fill="currentcolor" xmlns="http://www.w3.org/2000/svg">
  <path d="M16.4526 18.9272H16.7159C16.9086 18.9272 17.005 18.9272 17.0639 18.867C17.1227 18.8067 17.1204 18.7103 17.1158 18.5176L17.0732 16.7483H18.3955C18.5841 16.7483 18.6784 16.7483 18.737 16.6897C18.7955 16.6311 18.7955 16.5369 18.7955 16.3483V16.2621C18.7955 16.0735 18.7955 15.9792 18.737 15.9206C18.6784 15.8621 18.5841 15.8621 18.3955 15.8621H17.0519V14.4851H18.6006C18.7892 14.4851 18.8835 14.4851 18.942 14.4265C19.0006 14.3679 19.0006 14.2737 19.0006 14.0851V13.9952C19.0006 13.8067 19.0006 13.7124 18.942 13.6538C18.8835 13.5952 18.7892 13.5952 18.6006 13.5952H16.4526C16.2641 13.5952 16.1698 13.5952 16.1112 13.6538C16.0526 13.7124 16.0526 13.8067 16.0526 13.9952V18.5272C16.0526 18.7158 16.0526 18.8101 16.1112 18.8687C16.1698 18.9272 16.2641 18.9272 16.4526 18.9272Z" fill="currentcolor" />
  <path d="M14.662 13.5952C14.8506 13.5952 14.9449 13.5952 15.0034 13.6538C15.062 13.7124 15.062 13.8067 15.062 13.9952V18.5272C15.062 18.7158 15.062 18.8101 15.0034 18.8687C14.9449 18.9272 14.8506 18.9272 14.662 18.9272H14.3963C14.2078 18.9272 14.1135 18.9272 14.0549 18.8687C13.9963 18.8101 13.9963 18.7158 13.9963 18.5272V13.9952C13.9963 13.8067 13.9963 13.7124 14.0549 13.6538C14.1135 13.5952 14.2078 13.5952 14.3963 13.5952H14.662Z" fill="currentcolor" />
  <path d="M12.7011 16.1257C12.8896 16.1257 12.9839 16.1257 13.0425 16.1843C13.1011 16.2429 13.1011 16.3372 13.1011 16.5257V18.1646C13.1011 18.2446 13.1011 18.2846 13.0831 18.3241C13.0651 18.3636 13.0389 18.3864 12.9864 18.4321C12.9254 18.4853 12.8525 18.5429 12.7678 18.605C12.6238 18.71 12.4346 18.8027 12.2002 18.8833C11.9683 18.9614 11.6851 19.0005 11.3506 19.0005C11.0552 19.0005 10.7866 18.9541 10.5449 18.8613C10.3057 18.7686 10.0994 18.6282 9.92603 18.4402C9.75513 18.2498 9.62451 18.0129 9.53418 17.7297C9.44385 17.4441 9.39868 17.106 9.39868 16.7153V15.8071C9.39868 15.4214 9.44141 15.0857 9.52686 14.8C9.61475 14.512 9.7417 14.2727 9.90771 14.0823C10.0737 13.8918 10.2715 13.7502 10.501 13.6575C10.7329 13.5647 10.9941 13.5183 11.2847 13.5183C11.6851 13.5183 12.0134 13.5854 12.2698 13.7197C12.5286 13.854 12.7239 14.053 12.8557 14.3167C12.9371 14.4765 12.9988 14.6583 13.0407 14.8621C13.0788 15.0473 13.0978 15.1399 13.0378 15.2135C12.9778 15.2871 12.8747 15.2871 12.6684 15.2871H12.4318C12.2685 15.2871 12.1869 15.2871 12.133 15.2456C12.079 15.2041 12.0541 15.1098 12.0042 14.9213C11.9881 14.8607 11.9693 14.8069 11.9475 14.7598C11.8914 14.6328 11.812 14.5425 11.7095 14.4888C11.6069 14.4326 11.4739 14.4045 11.3103 14.4045C11.1687 14.4045 11.0454 14.4302 10.9404 14.4814C10.8354 14.5303 10.7476 14.6108 10.6768 14.7231C10.606 14.8354 10.5535 14.9795 10.5193 15.1553C10.4851 15.3311 10.468 15.5459 10.468 15.7998V16.7153C10.468 16.9668 10.4875 17.1816 10.5266 17.3599C10.5657 17.5381 10.623 17.6833 10.6987 17.7957C10.7769 17.908 10.8745 17.9897 10.9917 18.041C11.1113 18.0898 11.2517 18.1143 11.4128 18.1143C11.5422 18.1143 11.646 18.1008 11.7241 18.074C11.8022 18.0471 11.8645 18.019 11.9109 17.9897C11.9359 17.9735 11.9484 17.9654 11.9555 17.9597C12.0023 17.9228 12.0255 17.8802 12.0309 17.8209C12.0317 17.8118 12.0317 17.7996 12.0317 17.7752V17.3177C12.0317 17.146 12.0317 17.0601 11.9824 17.0036C11.9765 16.9967 11.9701 16.9903 11.9632 16.9844C11.9067 16.9351 11.8208 16.9351 11.649 16.9351C11.4773 16.9351 11.3914 16.9351 11.3349 16.8858C11.328 16.8798 11.3216 16.8734 11.3157 16.8665C11.2664 16.81 11.2664 16.7242 11.2664 16.5524V16.5257C11.2664 16.3372 11.2664 16.2429 11.3249 16.1843C11.3835 16.1257 11.4778 16.1257 11.6664 16.1257H12.7011Z" fill="currentcolor" />
  <path fill-rule="evenodd" d="M9.29899 2.51292C9.1608 2.50201 8.95263 2.49959 8.57989 2.49959C7.24141 2.49959 6.29079 2.5004 5.55193 2.57139C4.82443 2.6413 4.38092 2.77379 4.03489 2.98869C3.61032 3.25236 3.25228 3.6104 2.98861 4.03497C2.77372 4.38099 2.64123 4.82451 2.57132 5.552C2.50032 6.29086 2.49951 7.24148 2.49951 8.57996V12.2376C2.49951 13.1807 2.49992 13.8504 2.5359 14.3773C2.57143 14.8974 2.6391 15.2233 2.74739 15.4845C3.07722 16.2799 3.70922 16.9119 4.50461 17.2417C4.76576 17.35 5.09165 17.4177 5.6118 17.4532C6.1387 17.4892 6.80842 17.4896 7.75152 17.4896C8.16573 17.4896 8.50152 17.8254 8.50152 18.2396C8.50152 18.6538 8.16573 18.9896 7.75152 18.9896H7.72416C6.81455 18.9896 6.0936 18.9896 5.50959 18.9497C4.91299 18.909 4.4046 18.8241 3.93003 18.6273C2.76754 18.1452 1.84386 17.2215 1.3618 16.0591C1.16501 15.5845 1.08014 15.0761 1.03939 14.4795C0.999505 13.8955 0.999508 13.1746 0.999512 12.265V8.54083C0.999504 7.25021 0.999498 6.22752 1.0782 5.40853C1.15878 4.56991 1.32727 3.86688 1.71435 3.24361C2.09972 2.62308 2.623 2.09979 3.24353 1.71442C3.8668 1.32735 4.56983 1.15886 5.40845 1.07827C6.22745 0.999573 7.25013 0.99958 8.54075 0.999588L8.66537 0.999549C9.15919 0.999212 9.54838 0.998946 9.92043 1.10507C10.1231 1.16288 10.3184 1.2438 10.5026 1.34623C10.8407 1.53426 11.1158 1.80965 11.4647 2.15907L14.3858 5.08008C14.8802 5.5736 15.2716 5.96418 15.4822 6.47263C15.6928 6.98108 15.6922 7.53398 15.6916 8.23259L15.6915 11.4943C15.6915 11.9086 15.3557 12.2443 14.9415 12.2443C14.5273 12.2443 14.1915 11.9086 14.1915 11.4943V8.35344C14.1915 7.97509 14.189 7.71694 14.1797 7.52983C14.0293 7.53892 13.8607 7.53888 13.6964 7.53883L13.6195 7.53883C12.89 7.53885 12.2814 7.53886 11.7909 7.4847C11.2766 7.42789 10.8022 7.30405 10.3855 6.99326C10.1726 6.83451 9.98387 6.64576 9.82512 6.43289C9.51433 6.01618 9.39049 5.54182 9.33368 5.02746C9.27952 4.53701 9.27953 3.9284 9.27955 3.19892L9.27955 3.12197C9.27949 2.9101 9.27943 2.69093 9.29899 2.51292ZM13.1652 6.03816L10.7802 3.65315C10.7823 4.17196 10.7906 4.5552 10.8246 4.8628C10.867 5.24661 10.9416 5.42084 11.0275 5.53613C11.0997 5.63289 11.1855 5.71868 11.2823 5.79084C11.3975 5.87683 11.5718 5.95137 11.9556 5.99376C12.2632 6.02773 12.6464 6.03611 13.1652 6.03816Z" fill="currentcolor" />
</svg>
