<svg width="20" height="20" viewBox="0 0 20 20" fill="currentcolor" xmlns="http://www.w3.org/2000/svg">
  <path fill-rule="evenodd" d="M12.4624 18.9242H12.1931C12.0045 18.9242 11.9102 18.9242 11.8517 18.8655C11.7931 18.8069 11.7931 18.7126 11.7931 18.5239V13.9894C11.7931 13.8007 11.7931 13.7064 11.8517 13.6478C11.9102 13.5892 12.0045 13.5892 12.1931 13.5892H13.6095C13.9684 13.5892 14.2772 13.6649 14.536 13.8164C14.7948 13.9678 14.9926 14.1767 15.1293 14.4429C15.2684 14.7067 15.338 15.0096 15.338 15.3516C15.338 15.6961 15.2684 15.9953 15.1293 16.2493C14.9926 16.5009 14.7948 16.6964 14.536 16.8356C14.2772 16.9748 13.9684 17.0445 13.6095 17.0445H13.2624C13.0739 17.0445 12.9796 17.0445 12.921 17.1031C12.8624 17.1617 12.8624 17.256 12.8624 17.4447V18.5239C12.8624 18.7126 12.8624 18.8069 12.8038 18.8655C12.7453 18.9242 12.651 18.9242 12.4624 18.9242ZM13.6095 16.1541C13.7609 16.1541 13.8842 16.1199 13.9794 16.0515C14.077 15.9831 14.1478 15.889 14.1918 15.7693C14.2357 15.6472 14.2577 15.5104 14.2577 15.359C14.2577 15.2051 14.2345 15.0622 14.1881 14.9303C14.1442 14.7959 14.0746 14.6872 13.9794 14.6042C13.8866 14.5211 13.7633 14.4796 13.6095 14.4796H13.2624C13.0739 14.4796 12.9796 14.4796 12.921 14.5382C12.8624 14.5968 12.8624 14.6911 12.8624 14.8798V15.7539C12.8624 15.9425 12.8624 16.0369 12.921 16.0955C12.9796 16.1541 13.0739 16.1541 13.2624 16.1541H13.6095Z" fill="currentcolor" />
  <path d="M6.42722 13.5892C6.23866 13.5892 6.14438 13.5892 6.0858 13.6478C6.02722 13.7064 6.02722 13.8007 6.02722 13.9894V18.5239C6.02722 18.7126 6.02722 18.8069 6.0858 18.8655C6.14438 18.9242 6.23866 18.9242 6.42722 18.9242H6.6636C6.85216 18.9242 6.94644 18.9242 7.00502 18.8655C7.0636 18.8069 7.0636 18.7126 7.0636 18.5239V17.1067L7.00146 15.5361L7.94766 18.6407C7.98929 18.7773 8.01011 18.8456 8.06314 18.8849C8.11617 18.9242 8.18754 18.9242 8.33026 18.9242H8.53394C8.67934 18.9242 8.75204 18.9242 8.80554 18.8837C8.85904 18.8433 8.87892 18.7733 8.91869 18.6334L9.87971 15.2517L9.81018 17.1067V18.5239C9.81018 18.7126 9.81018 18.8069 9.86876 18.8655C9.92734 18.9242 10.0216 18.9242 10.2102 18.9242H10.4429C10.6315 18.9242 10.7257 18.9242 10.7843 18.8655C10.8429 18.8069 10.8429 18.7126 10.8429 18.5239V13.9894C10.8429 13.8007 10.8429 13.7064 10.7843 13.6478C10.7257 13.5892 10.6315 13.5892 10.4429 13.5892H9.81929C9.67556 13.5892 9.6037 13.5892 9.55049 13.6289C9.49728 13.6686 9.47681 13.7375 9.43586 13.8754L8.81967 15.9499C8.66375 16.4749 8.58579 16.7373 8.43666 16.7374C8.28752 16.7375 8.20932 16.4751 8.05292 15.9503L7.43444 13.875C7.3934 13.7374 7.37288 13.6685 7.3197 13.6289C7.26651 13.5892 7.19471 13.5892 7.05112 13.5892H6.42722Z" fill="currentcolor" />
  <path d="M17.3425 15.784H17.1338C17.0506 15.784 17.009 15.784 16.9757 15.7962C16.9204 15.8164 16.8769 15.86 16.8566 15.9154C16.8445 15.9487 16.8445 15.9903 16.8445 16.0735V16.2155C16.8445 16.4042 16.8445 16.4985 16.903 16.5571C16.9616 16.6158 17.0559 16.6158 17.2445 16.6158H17.3462C17.478 16.6158 17.5903 16.6438 17.6831 16.7C17.7759 16.7538 17.8467 16.8393 17.8955 16.9565C17.9443 17.0713 17.9687 17.2228 17.9687 17.4109C17.9687 17.5574 17.9455 17.6857 17.8991 17.7956C17.8528 17.9055 17.7856 17.991 17.6977 18.0521C17.6098 18.1132 17.5061 18.1437 17.3865 18.1437C17.2839 18.1437 17.1911 18.1144 17.1081 18.0558C17.0276 17.9971 16.9641 17.9165 16.9177 17.8139C16.8351 17.6269 16.7938 17.5334 16.7561 17.5029C16.7417 17.4913 16.7385 17.4892 16.722 17.4807C16.6789 17.4585 16.6138 17.4585 16.4835 17.4585H16.2227C16.0269 17.4585 15.929 17.4585 15.869 17.5322C15.8089 17.6058 15.8261 17.6893 15.8604 17.8563C15.8816 17.9595 15.9118 18.0553 15.9509 18.1437C16.0364 18.3367 16.1523 18.4967 16.2988 18.6237C16.4453 18.7507 16.6101 18.8448 16.7932 18.9058C16.9787 18.9669 17.1679 18.9974 17.3608 18.9974C17.5928 18.9974 17.8076 18.9632 18.0054 18.8948C18.2031 18.824 18.3764 18.7214 18.5254 18.5871C18.6743 18.4527 18.7903 18.2878 18.8733 18.0924C18.9563 17.897 18.9978 17.6747 18.9978 17.4255C18.9978 17.2228 18.9673 17.0371 18.9062 16.8686C18.8452 16.7 18.7524 16.5547 18.6279 16.4325C18.6102 16.4148 18.5918 16.3977 18.5726 16.3812C18.4568 16.2812 18.4439 16.0655 18.551 15.9562C18.6731 15.8292 18.7658 15.6863 18.8293 15.5275C18.8952 15.3687 18.9282 15.2038 18.9282 15.0329C18.9282 14.7006 18.8623 14.4222 18.7304 14.1974C18.5986 13.9703 18.4155 13.7993 18.1811 13.6845C17.9468 13.5672 17.6745 13.5086 17.3645 13.5086C17.0886 13.5086 16.8371 13.5696 16.6101 13.6918C16.383 13.8139 16.2024 13.9837 16.0681 14.2011C15.9984 14.314 15.9467 14.4371 15.9132 14.5704C15.8726 14.732 15.8523 14.8127 15.9123 14.8898C15.9724 14.9669 16.0705 14.9669 16.2667 14.9669H16.5711C16.6692 14.9669 16.7183 14.9669 16.7519 14.9544C16.7874 14.9413 16.7914 14.9388 16.819 14.9129C16.8452 14.8884 16.8853 14.8083 16.9653 14.6481C17.0117 14.5577 17.0727 14.4881 17.1484 14.4393C17.2241 14.3904 17.3059 14.366 17.3938 14.366C17.5085 14.366 17.6037 14.3953 17.6794 14.4539C17.7551 14.5125 17.8113 14.5932 17.8479 14.6958C17.8845 14.7984 17.9028 14.918 17.9028 15.0548C17.9028 15.2014 17.8833 15.3296 17.8442 15.4396C17.8052 15.5495 17.7441 15.635 17.6611 15.6961C17.5781 15.7547 17.4719 15.784 17.3425 15.784Z" fill="currentcolor" />
  <path fill-rule="evenodd" d="M9.30193 2.51426C9.16374 2.50333 8.95555 2.5009 8.58258 2.5009C7.24409 2.5009 6.29348 2.50171 5.55462 2.57275C4.82712 2.64269 4.3836 2.77526 4.03758 2.99027C3.61301 3.25408 3.25497 3.61232 2.99129 4.03713C2.7764 4.38334 2.64391 4.8271 2.574 5.55499C2.50301 6.29426 2.5022 7.2454 2.5022 8.58462V15.6877C2.5022 16.6881 3.31275 17.4991 4.31262 17.4991V17.5036C4.33956 17.5007 4.36693 17.4992 4.39465 17.4992C4.80887 17.4992 5.14465 17.8351 5.14465 18.2496C5.14465 18.664 4.80887 19 4.39465 19C4.36693 19 4.33956 18.9985 4.31262 18.9956V19C2.48433 19 1.0022 17.517 1.0022 15.6877V8.54545C1.00219 7.25413 1.00218 6.23088 1.08088 5.41144C1.16147 4.57236 1.32996 3.86894 1.71703 3.24533C2.1024 2.62446 2.62569 2.10088 3.24622 1.7153C3.86949 1.32802 4.57252 1.15943 5.41114 1.0788C6.23013 1.00006 7.25282 1.00007 8.54344 1.00008L8.66806 1.00004C9.16188 0.9997 9.55107 0.999433 9.92312 1.10562C10.1258 1.16346 10.3211 1.24442 10.5053 1.34691C10.8434 1.53504 11.1184 1.81058 11.4674 2.1602L14.3885 5.08281C14.8829 5.5766 15.2743 5.9674 15.4849 6.47613C15.6955 6.98486 15.6949 7.53806 15.6943 8.23705L15.6942 11.5006C15.6942 11.915 15.3584 12.251 14.9442 12.251C14.53 12.251 14.1942 11.915 14.1942 11.5006V8.35797C14.1942 7.98097 14.1917 7.72324 14.1825 7.53622C14.032 7.54533 13.8634 7.54528 13.6991 7.54523L13.6222 7.54523C12.8927 7.54525 12.2841 7.54526 11.7936 7.49107C11.2793 7.43423 10.8049 7.31032 10.3882 6.99936C10.1753 6.84052 9.98656 6.65167 9.8278 6.43869C9.51702 6.02174 9.39317 5.54712 9.33637 5.03249C9.2822 4.54176 9.28222 3.93281 9.28224 3.20293L9.28223 3.12594C9.28217 2.91305 9.28211 2.69278 9.30193 2.51426ZM13.1679 6.04374L10.7829 3.65742C10.785 4.17651 10.7933 4.55996 10.8273 4.86773C10.8697 5.25175 10.9442 5.42607 11.0302 5.54143C11.1024 5.63824 11.1882 5.72408 11.2849 5.79628C11.4002 5.88232 11.5745 5.9569 11.9583 5.99931C12.2659 6.0333 12.6491 6.04169 13.1679 6.04374Z" fill="currentcolor" />
</svg>
