<svg
  xmlns="http://www.w3.org/2000/svg"
  width="20"
  height="20"
  viewBox="0 0 20 20"
  fill="none"
>
  <path
    d="M18.5419 13.5923H18.2314C18.0799 13.5923 18.0041 13.5923 17.9496 13.6352C17.895 13.678 17.8773 13.7515 17.8417 13.8986L17.3649 15.8725C17.2101 16.5133 17.1327 16.8337 16.9748 16.8337C16.8169 16.8336 16.7398 16.5131 16.5855 15.8721L16.1106 13.8989C16.0751 13.7517 16.0574 13.6781 16.0029 13.6352C15.9483 13.5923 15.8725 13.5923 15.7208 13.5923H15.4206C15.1764 13.5923 15.0544 13.5923 14.9942 13.672C14.9341 13.7517 14.9678 13.8688 15.0354 14.1029L16.3423 18.6349C16.3825 18.7742 16.4026 18.8439 16.4561 18.8841C16.5096 18.9243 16.5823 18.9243 16.7275 18.9243H17.2256C17.3706 18.9243 17.443 18.9243 17.4965 18.8842C17.55 18.8441 17.5702 18.7746 17.6106 18.6357L18.9269 14.1036C18.995 13.8692 19.029 13.752 18.9689 13.6721C18.9087 13.5923 18.7864 13.5923 18.5419 13.5923Z"
    fill="currentColor"
  />
  <path
    d="M13.367 17.5217C13.367 17.4265 13.3584 17.3398 13.3413 17.2617C13.3242 17.1836 13.2875 17.1116 13.2312 17.0457C13.1774 16.9797 13.0978 16.9138 12.9926 16.8479C12.8899 16.782 12.7553 16.7136 12.589 16.6428C12.3908 16.5598 12.1987 16.4719 12.0128 16.3792C11.8269 16.2839 11.6593 16.1741 11.51 16.0496C11.3608 15.925 11.2421 15.7786 11.1541 15.6101C11.0684 15.4392 11.0256 15.239 11.0256 15.0095C11.0256 14.7849 11.066 14.5811 11.1467 14.3979C11.2299 14.2148 11.3473 14.0586 11.499 13.9292C11.6507 13.7974 11.8281 13.696 12.0311 13.6252C12.2367 13.5544 12.4654 13.519 12.7174 13.519C13.0599 13.519 13.356 13.5898 13.6055 13.7314C13.8575 13.873 14.052 14.0671 14.189 14.3137C14.2677 14.4528 14.3242 14.6036 14.3585 14.766C14.3935 14.9322 14.4111 15.0153 14.3509 15.0893C14.2908 15.1633 14.193 15.1633 13.9973 15.1633H13.7274C13.5667 15.1633 13.4864 15.1633 13.4349 15.1277C13.3833 15.092 13.3432 14.9848 13.263 14.7705C13.2622 14.7684 13.2614 14.7663 13.2605 14.7642C13.219 14.647 13.1517 14.5554 13.0587 14.4895C12.9657 14.4236 12.8459 14.3906 12.6991 14.3906C12.5621 14.3906 12.4483 14.4187 12.3578 14.4749C12.2697 14.5286 12.2036 14.603 12.1596 14.6982C12.118 14.791 12.0972 14.896 12.0972 15.0132C12.0972 15.1011 12.118 15.1804 12.1596 15.2512C12.2036 15.3196 12.2636 15.3818 12.3394 15.438C12.4153 15.4917 12.5046 15.5442 12.6073 15.5955C12.7125 15.6467 12.8275 15.6968 12.9523 15.7456C13.1945 15.8408 13.4086 15.9458 13.5945 16.0605C13.7804 16.1729 13.9358 16.2998 14.0606 16.4414C14.1853 16.5806 14.2795 16.738 14.3431 16.9138C14.4068 17.0896 14.4386 17.2898 14.4386 17.5144C14.4386 17.7366 14.3994 17.9392 14.3211 18.1223C14.2453 18.303 14.134 18.4592 13.9872 18.5911C13.8404 18.7205 13.663 18.8206 13.455 18.8914C13.2495 18.9622 13.0196 18.9976 12.7651 18.9976C12.518 18.9976 12.2844 18.9634 12.0642 18.895C11.844 18.8242 11.6495 18.718 11.4807 18.5764C11.3143 18.4324 11.1834 18.2505 11.088 18.0308C11.0372 17.9125 10.9999 17.7828 10.9762 17.6417C10.9474 17.4706 10.933 17.3851 10.993 17.3142C11.0531 17.2434 11.1506 17.2434 11.3457 17.2434H11.6193C11.7891 17.2434 11.874 17.2434 11.9282 17.2853C11.9824 17.3272 12.0094 17.4315 12.0633 17.6401C12.0647 17.6458 12.0663 17.6516 12.0678 17.6572C12.0997 17.7695 12.1486 17.8599 12.2146 17.9282C12.2807 17.9941 12.3614 18.0442 12.4569 18.0784C12.5547 18.1101 12.666 18.126 12.7908 18.126C12.9327 18.126 13.0452 18.0991 13.1284 18.0454C13.2141 17.9917 13.2752 17.9197 13.3119 17.8293C13.3486 17.739 13.367 17.6365 13.367 17.5217Z"
    fill="currentColor"
  />
  <path
    d="M9.25555 17.5349C9.29119 17.3391 9.30901 17.2411 9.36479 17.1947C9.42057 17.1482 9.50748 17.1482 9.6813 17.1482H9.94389C10.1446 17.1482 10.2449 17.1482 10.305 17.2196C10.365 17.2911 10.3491 17.3809 10.3174 17.5606C10.2775 17.7865 10.2108 17.9871 10.1175 18.1626C9.97066 18.436 9.76148 18.6436 9.48991 18.7852C9.22079 18.9268 8.8954 18.9976 8.51374 18.9976C8.2177 18.9976 7.9547 18.9487 7.72472 18.8511C7.49475 18.751 7.29902 18.6045 7.13755 18.4116C6.97608 18.2188 6.85375 17.9807 6.77057 17.6975C6.68983 17.4119 6.64946 17.0835 6.64946 16.7124V15.8079C6.64946 15.4368 6.69228 15.1084 6.77791 14.8228C6.86598 14.5371 6.99076 14.2979 7.15223 14.105C7.31615 13.9097 7.5131 13.7632 7.74307 13.6655C7.9755 13.5654 8.23728 13.5154 8.52842 13.5154C8.91742 13.5154 9.24281 13.5886 9.50459 13.7351C9.76637 13.8816 9.96821 14.0952 10.1101 14.376C10.2004 14.5501 10.2683 14.7487 10.3136 14.9716C10.3514 15.1578 10.3703 15.2509 10.3102 15.3243C10.25 15.3977 10.1466 15.3977 9.93962 15.3977H9.68853C9.51391 15.3977 9.4266 15.3977 9.37065 15.3507C9.3147 15.3037 9.29781 15.2061 9.26402 15.0109C9.25022 14.9312 9.23255 14.8612 9.21101 14.8008C9.16207 14.6543 9.08379 14.5518 8.97614 14.4932C8.86849 14.4321 8.71925 14.4016 8.52842 14.4016C8.38652 14.4016 8.26419 14.4272 8.16143 14.4785C8.05868 14.5273 7.97427 14.6067 7.90822 14.7166C7.84216 14.8264 7.79323 14.9705 7.76142 15.1487C7.73206 15.3269 7.71738 15.5442 7.71738 15.8005V16.7124C7.71738 16.9639 7.73084 17.1787 7.75775 17.3569C7.78466 17.5327 7.82748 17.6768 7.8862 17.7891C7.94491 17.9014 8.02443 17.9832 8.12474 18.0344C8.22749 18.0857 8.35716 18.1113 8.51374 18.1113C8.69478 18.1113 8.84035 18.0845 8.95045 18.0308C9.06299 17.9771 9.14617 17.8806 9.2 17.7415C9.22262 17.683 9.24114 17.6141 9.25555 17.5349Z"
    fill="currentColor"
  />
  <path
    fill-rule="evenodd"
    clip-rule="evenodd"
    d="M9.29561 2.51427C9.15716 2.5047 8.95117 2.50252 8.59636 2.50252C7.25506 2.50252 6.30244 2.50333 5.56202 2.57432C4.83299 2.64423 4.38854 2.77672 4.04178 2.99161C3.61632 3.25529 3.25752 3.61333 2.99329 4.0379C2.77795 4.38392 2.64518 4.82744 2.57512 5.55493C2.50397 6.29379 2.50316 7.24441 2.50316 8.58289V14.9946C2.50316 16.3741 3.62388 17.4926 5.00636 17.4926L5.01027 17.4926C5.42536 17.4926 5.76185 17.8283 5.76185 18.2426C5.76185 18.6568 5.42536 18.9926 5.01027 18.9926L5.00163 18.9925C2.79116 18.99 1 17.201 1 14.9946V8.54375C0.999992 7.25313 0.999986 6.23045 1.07885 5.41146C1.15961 4.57284 1.32845 3.86981 1.71634 3.24654C2.10252 2.62601 2.62692 2.10272 3.24875 1.71735C3.87334 1.33028 4.57785 1.16179 5.41824 1.0812C6.23896 1.0025 7.2638 1.00251 8.55714 1.00252L8.68203 1.00248C9.17689 1.00214 9.5669 1.00188 9.93973 1.108C10.1428 1.16581 10.3386 1.24673 10.5232 1.34916C10.862 1.53719 11.1376 1.81258 11.4873 2.162L14.4145 5.08301C14.91 5.57653 15.3022 5.96711 15.5132 6.47556C15.7243 6.98401 15.7237 7.53691 15.7231 8.23552L15.723 11.4973C15.723 11.9115 15.3865 12.2473 14.9714 12.2473C14.5563 12.2473 14.2198 11.9115 14.2198 11.4973V8.35637C14.2198 7.93462 14.2167 7.66221 14.2045 7.47109C14.0507 7.48094 13.877 7.4809 13.708 7.48085L13.6309 7.48084C12.8999 7.48086 12.29 7.48088 11.7985 7.42671C11.2831 7.36991 10.8077 7.24607 10.3901 6.93528C10.1768 6.77652 9.98765 6.58778 9.82856 6.37491C9.51712 5.95819 9.39301 5.48383 9.33609 4.96948C9.28181 4.47903 9.28183 3.87041 9.28185 3.14093L9.28184 3.06398C9.28179 2.87511 9.28173 2.68042 9.29561 2.51427ZM13.1757 5.98018L10.7857 3.59517C10.7877 4.11397 10.7961 4.49722 10.8302 4.80482C10.8726 5.18863 10.9473 5.36285 11.0335 5.47815C11.1058 5.5749 11.1918 5.6607 11.2888 5.73286C11.4043 5.81884 11.5789 5.89339 11.9635 5.93578C12.2718 5.96975 12.6558 5.97813 13.1757 5.98018Z"
    fill="currentColor"
  />
</svg>
