<svg
  xmlns="http://www.w3.org/2000/svg"
  width="20"
  height="20"
  viewBox="0 0 20 20"
  fill="none"
>
  <path
    d="M16.4607 18.9976H16.7231C16.9151 18.9976 17.0112 18.9976 17.0698 18.9373C17.1285 18.877 17.1262 18.7806 17.1216 18.5879L17.0792 16.8186H18.397C18.5849 16.8186 18.6789 16.8186 18.7372 16.76C18.7956 16.7014 18.7956 16.6072 18.7956 16.4186V16.3324C18.7956 16.1438 18.7956 16.0495 18.7372 15.991C18.6789 15.9324 18.5849 15.9324 18.397 15.9324H17.058V14.5554H18.6014C18.7893 14.5554 18.8832 14.5554 18.9416 14.4968C19 14.4383 19 14.344 19 14.1554V14.0655C19 13.877 19 13.7827 18.9416 13.7241C18.8832 13.6655 18.7893 13.6655 18.6014 13.6655H16.4607C16.2728 13.6655 16.1788 13.6655 16.1204 13.7241C16.062 13.7827 16.062 13.877 16.062 14.0655V18.5976C16.062 18.7861 16.062 18.8804 16.1204 18.939C16.1788 18.9976 16.2728 18.9976 16.4607 18.9976Z"
    fill="currentColor"
  />
  <path
    fill-rule="evenodd"
    clip-rule="evenodd"
    d="M8.10513 18.9976H7.83672C7.6488 18.9976 7.55484 18.9976 7.49646 18.939C7.43808 18.8804 7.43808 18.7861 7.43808 18.5976V14.0655C7.43808 13.877 7.43808 13.7827 7.49646 13.7241C7.55484 13.6655 7.6488 13.6655 7.83672 13.6655H9.2483C9.60596 13.6655 9.91375 13.7412 10.1717 13.8926C10.4296 14.0439 10.6266 14.2527 10.7629 14.5188C10.9016 14.7825 10.9709 15.0852 10.9709 15.427C10.9709 15.7712 10.9016 16.0703 10.7629 16.3242C10.6266 16.5757 10.4296 16.771 10.1717 16.9102C9.91375 17.0493 9.60596 17.1189 9.2483 17.1189H8.90241C8.71449 17.1189 8.62053 17.1189 8.56215 17.1775C8.50377 17.2361 8.50377 17.3303 8.50377 17.5189V18.5976C8.50377 18.7861 8.50377 18.8804 8.44539 18.939C8.38701 18.9976 8.29305 18.9976 8.10513 18.9976ZM9.2483 16.229C9.39915 16.229 9.52202 16.1948 9.61691 16.1265C9.71423 16.0581 9.78479 15.9641 9.82859 15.8445C9.87238 15.7224 9.89428 15.5857 9.89428 15.4343C9.89428 15.2805 9.87117 15.1377 9.82494 15.0059C9.78114 14.8716 9.7118 14.7629 9.61691 14.6799C9.52445 14.5969 9.40158 14.5554 9.2483 14.5554H8.90241C8.71449 14.5554 8.62053 14.5554 8.56215 14.614C8.50377 14.6726 8.50377 14.7669 8.50377 14.9554V15.829C8.50377 16.0176 8.50377 16.1118 8.56215 16.1704C8.62053 16.229 8.71449 16.229 8.90241 16.229H9.2483Z"
    fill="currentColor"
  />
  <path
    fill-rule="evenodd"
    clip-rule="evenodd"
    d="M13.1478 18.9976H12.1596C11.9717 18.9976 11.8777 18.9976 11.8193 18.939C11.7609 18.8804 11.7609 18.7861 11.7609 18.5976V14.0655C11.7609 13.877 11.7609 13.7827 11.8193 13.7241C11.8777 13.6655 11.9717 13.6655 12.1596 13.6655H13.1624C13.469 13.6655 13.7476 13.7156 13.9982 13.8157C14.2488 13.9158 14.4641 14.0623 14.6442 14.2551C14.8242 14.4456 14.9629 14.6812 15.0602 14.9619C15.1575 15.2427 15.2062 15.5625 15.2062 15.9214V16.7454C15.2062 17.1067 15.1575 17.4265 15.0602 17.7048C14.9629 17.9832 14.8242 18.2188 14.6442 18.4116C14.4665 18.6021 14.2512 18.7473 13.9982 18.8474C13.7451 18.9475 13.4617 18.9976 13.1478 18.9976ZM13.1478 18.1113C13.4057 18.1113 13.6064 18.0649 13.75 17.9722C13.8936 17.8794 13.9945 17.7329 14.0529 17.5327C14.1137 17.3325 14.1442 17.0701 14.1442 16.7454V15.9141C14.1442 15.6675 14.1283 15.4587 14.0967 15.2878C14.0651 15.1145 14.0116 14.9753 13.9361 14.8704C13.8607 14.7629 13.7597 14.6836 13.6332 14.6323C13.5067 14.5811 13.3498 14.5554 13.1624 14.5554C13.0383 14.5554 12.9762 14.5554 12.93 14.5822C12.8997 14.5997 12.8745 14.625 12.857 14.6555C12.8303 14.7019 12.8303 14.7641 12.8303 14.8887V17.7927C12.8303 17.9034 12.8303 17.9588 12.8515 18.0011C12.8708 18.0396 12.9018 18.0707 12.9401 18.09C12.9823 18.1113 13.0375 18.1113 13.1478 18.1113Z"
    fill="currentColor"
  />
  <path
    fill-rule="evenodd"
    clip-rule="evenodd"
    d="M9.34595 2.52343C9.20962 2.506 9.00003 2.50252 8.55456 2.50252C7.22063 2.50252 6.27325 2.50333 5.53691 2.57432C4.81189 2.64423 4.36989 2.77672 4.02504 2.99161C3.60192 3.25529 3.2451 3.61333 2.98232 4.0379C2.76816 4.38392 2.63612 4.82744 2.56645 5.55493C2.4957 6.29379 2.49489 7.24441 2.49489 8.58289V14.3696C2.49489 16.0943 3.88831 17.4928 5.60718 17.4928L5.62543 17.4926C6.03823 17.4926 6.37287 17.8283 6.37287 18.2426C6.37287 18.6568 6.03823 18.9926 5.62543 18.9926L5.62014 18.9926C5.61581 18.9926 5.61149 18.9926 5.60718 18.9925C3.0627 18.9925 1 16.9228 1 14.3696V8.54375C0.999993 7.25313 0.999986 6.23045 1.07842 5.41146C1.15873 4.57284 1.32665 3.86981 1.7124 3.24654C2.09646 2.62601 2.61796 2.10272 3.23638 1.71735C3.85752 1.33028 4.55816 1.16179 5.39392 1.0812C6.21013 1.0025 7.22933 1.00251 8.51555 1.00252L8.63975 1.00248C9.13189 1.00214 9.51975 1.00188 9.89053 1.108C10.0925 1.16581 10.2872 1.24673 10.4707 1.34916C10.6579 1.45361 10.8257 1.58502 10.9975 1.7411C11.0181 1.75629 11.0361 1.77034 11.0515 1.78246C11.1938 1.89515 11.3529 2.05487 11.5066 2.20912L14.6325 5.34574C14.7862 5.4999 14.9454 5.65953 15.0577 5.80239C15.1085 5.86699 15.1931 5.97983 15.2544 6.13032C15.3235 6.24072 15.3835 6.35482 15.4333 6.47556C15.6432 6.98401 15.6427 7.53691 15.642 8.23552L15.6419 11.4973C15.6419 11.9115 15.3073 12.2473 14.8945 12.2473C14.4817 12.2473 14.1471 11.9115 14.1471 11.4973V8.35637C14.1471 7.97353 14.1445 7.71374 14.135 7.52612C14.0057 7.53134 13.8665 7.5313 13.7303 7.53126L13.6536 7.53126C12.9266 7.53128 12.3201 7.53129 11.8313 7.47713C11.3187 7.42032 10.8459 7.29648 10.4306 6.98569C10.2185 6.82694 10.0304 6.63819 9.87219 6.42533C9.56246 6.00861 9.43904 5.53425 9.38243 5.01989C9.32844 4.52944 9.32846 3.92083 9.32848 3.19135L9.32847 3.1144C9.32842 2.90965 9.32836 2.69808 9.34595 2.52343ZM10.8242 3.67592C10.8264 4.17938 10.8351 4.55366 10.8683 4.85523C10.9105 5.23904 10.9848 5.41327 11.0705 5.52856C11.1424 5.62532 11.2279 5.71111 11.3244 5.78327C11.4393 5.86926 11.6129 5.9438 11.9954 5.98619C12.2959 6.0195 12.6689 6.0282 13.1707 6.03047L10.8242 3.67592Z"
    fill="currentColor"
  />
</svg>
