<svg width="20" height="20" viewBox="0 0 20 20" fill="currentcolor" xmlns="http://www.w3.org/2000/svg">
  <path fill-rule="evenodd" d="M14.1934 7.44112C14.0355 7.45214 13.8552 7.45209 13.68 7.45204L13.6029 7.45203C12.8724 7.45205 12.2629 7.45207 11.7717 7.3979C11.2566 7.3411 10.7816 7.21726 10.3643 6.90647C10.1511 6.74771 9.96208 6.55897 9.80309 6.3461C9.49186 5.92939 9.36784 5.45502 9.31095 4.94067C9.25671 4.45022 9.25672 3.8416 9.25674 3.11212L9.25674 3.03517C9.25669 2.85749 9.25664 2.67467 9.26818 2.5153C9.13015 2.50692 8.92762 2.50496 8.59128 2.50496C7.25088 2.50496 6.29889 2.50577 5.55897 2.57677C4.83042 2.64667 4.38627 2.77916 4.03975 2.99406C3.61457 3.25773 3.25601 3.61577 2.99196 4.04034C2.77676 4.38636 2.64408 4.82988 2.57407 5.55738C2.50297 6.29624 2.50216 7.24685 2.50216 8.58534V14.0322C2.50216 14.2373 2.50232 14.3168 2.505 14.3807C2.57567 16.069 3.93018 17.4215 5.6209 17.4921C5.68489 17.4948 5.76448 17.4949 5.96991 17.4949C6.38472 17.4949 6.72099 17.8307 6.72099 18.2449C6.72099 18.6592 6.38472 18.9949 5.96991 18.9949H5.94972C5.77121 18.995 5.6577 18.995 5.55816 18.9908C3.0871 18.8877 1.10745 16.9108 1.00415 14.4433C0.999992 14.344 0.999995 14.2307 1 14.0525V8.5462C0.999993 7.25559 0.999987 6.23289 1.0788 5.4139C1.1595 4.57528 1.32823 3.87225 1.71586 3.24898C2.10179 2.62845 2.62583 2.10516 3.24725 1.71979C3.87142 1.33272 4.57546 1.16423 5.41528 1.08364C6.23546 1.00494 7.25961 1.00495 8.55209 1.00496L8.67689 1.00492C9.17142 1.00458 9.56117 1.00432 9.93375 1.11044C10.1367 1.16826 10.3323 1.24917 10.5168 1.3516C10.8554 1.53963 11.1308 1.81502 11.4802 2.16444L14.4055 5.08545C14.4693 5.14905 14.5314 5.21094 14.5916 5.27159C14.7303 5.41003 14.873 5.55269 14.9816 5.68348C15.2047 5.93728 15.3834 6.18854 15.5035 6.478C15.7144 6.98645 15.7139 7.53935 15.7132 8.23796L15.7131 11.4997C15.7131 11.9139 15.3769 12.2497 14.962 12.2497C14.5472 12.2497 14.211 11.9139 14.211 11.4997V8.35881C14.211 7.91262 14.2075 7.63359 14.1934 7.44112ZM13.148 5.95137L10.7596 3.56636C10.7616 4.08517 10.77 4.46841 10.804 4.77601C10.8465 5.15982 10.9211 5.33404 11.0072 5.44934C11.0795 5.54609 11.1654 5.63189 11.2623 5.70405C11.3778 5.79004 11.5523 5.86458 11.9366 5.90697C12.2447 5.94094 12.6285 5.94932 13.148 5.95137Z" fill="currentcolor" />
  <path d="M17.9434 17.5439C17.9434 17.4499 17.935 17.3644 17.9181 17.2873C17.9012 17.2103 17.865 17.1392 17.8096 17.0742C17.7565 17.0091 17.6781 16.9441 17.5744 16.8791C17.4731 16.814 17.3404 16.7466 17.1764 16.6767C16.981 16.5948 16.7916 16.5081 16.6083 16.4166C16.4249 16.3226 16.2597 16.2142 16.1126 16.0914C15.9654 15.9685 15.8484 15.824 15.7616 15.6578C15.6771 15.4892 15.6349 15.2917 15.6349 15.0653C15.6349 14.8436 15.6747 14.6425 15.7543 14.4619C15.8364 14.2812 15.9521 14.127 16.1017 13.9994C16.2513 13.8693 16.4261 13.7693 16.6264 13.6995C16.829 13.6296 17.0545 13.5947 17.303 13.5947C17.6407 13.5947 17.9326 13.6646 18.1786 13.8043C18.4271 13.944 18.6189 14.1355 18.754 14.3788C18.8307 14.5145 18.886 14.6615 18.9199 14.8198C18.9554 14.9856 18.9732 15.0685 18.9131 15.1428C18.853 15.217 18.7552 15.217 18.5596 15.217H18.3042C18.1448 15.217 18.0651 15.217 18.0138 15.1818C17.9625 15.1466 17.9212 15.0388 17.8385 14.8232C17.7975 14.7076 17.7312 14.6172 17.6395 14.5522C17.5478 14.4872 17.4296 14.4546 17.2849 14.4546C17.1498 14.4546 17.0376 14.4823 16.9484 14.5377C16.8616 14.5907 16.7964 14.6642 16.753 14.7581C16.712 14.8497 16.6915 14.9532 16.6915 15.0689C16.6915 15.1556 16.712 15.2339 16.753 15.3037C16.7964 15.3712 16.8555 15.4326 16.9303 15.488C17.0051 15.541 17.0931 15.5928 17.1944 15.6434C17.2982 15.6939 17.4115 15.7433 17.5346 15.7915C17.7734 15.8854 17.9844 15.989 18.1678 16.1022C18.3511 16.213 18.5043 16.3383 18.6273 16.478C18.7503 16.6153 18.8432 16.7707 18.9059 16.9441C18.9686 17.1175 19 17.315 19 17.5366C19 17.7558 18.9614 17.9558 18.8842 18.1364C18.8094 18.3147 18.6997 18.4688 18.5549 18.5989C18.4102 18.7266 18.2353 18.8253 18.0303 18.8952C17.8277 18.965 17.6009 19 17.35 19C17.1064 19 16.876 18.9663 16.6589 18.8988C16.4418 18.829 16.2501 18.7242 16.0836 18.5845C15.9196 18.4423 15.7905 18.2629 15.6964 18.0461C15.647 17.9309 15.6106 17.8047 15.5871 17.6676C15.5579 17.4967 15.5433 17.4113 15.6033 17.3403C15.6633 17.2693 15.7608 17.2693 15.9559 17.2693H16.2149C16.3841 17.2693 16.4686 17.2693 16.5227 17.3109C16.5767 17.3525 16.6043 17.4569 16.6594 17.6658C16.6604 17.6697 16.6615 17.6737 16.6625 17.6776C16.6939 17.7884 16.7421 17.8775 16.8073 17.9449C16.8724 18.01 16.952 18.0594 17.0461 18.0931C17.1426 18.1244 17.2523 18.14 17.3754 18.14C17.5153 18.14 17.6262 18.1136 17.7082 18.0606C17.7927 18.0076 17.853 17.9365 17.8892 17.8474C17.9254 17.7583 17.9434 17.6571 17.9434 17.5439Z" fill="currentcolor" />
  <path d="M8.42193 13.6679C8.55011 13.6679 8.61419 13.6679 8.66437 13.701C8.71455 13.7341 8.73977 13.7929 8.7902 13.9106L9.07166 14.5673C9.23244 14.9424 9.31283 15.13 9.44623 15.1288C9.57963 15.1276 9.65672 14.9387 9.81089 14.5608L10.0735 13.917C10.1228 13.7963 10.1474 13.736 10.1981 13.702C10.2488 13.6679 10.314 13.6679 10.4445 13.6679H10.7192C11.0067 13.6679 11.1504 13.6679 11.2093 13.7619C11.2681 13.8559 11.2052 13.9849 11.0794 14.243L10.1579 16.1332C10.1159 16.2192 10.095 16.2622 10.095 16.3083C10.095 16.3544 10.1159 16.3974 10.1579 16.4834L11.1049 18.4248C11.2308 18.683 11.2937 18.812 11.2349 18.906C11.1761 19 11.0323 19 10.7447 19H10.4203C10.2908 19 10.2261 19 10.1756 18.9664C10.1251 18.9328 10.1002 18.8731 10.0505 18.7538L9.7638 18.0665C9.60631 17.6889 9.52756 17.5001 9.39402 17.5001C9.26047 17.5001 9.18173 17.6889 9.02423 18.0665L8.73756 18.7538C8.68779 18.8731 8.6629 18.9328 8.61244 18.9664C8.56198 19 8.49724 19 8.36778 19H8.07137C7.78288 19 7.63863 19 7.57984 18.9057C7.52104 18.8115 7.58464 18.6822 7.71184 18.4236L8.67588 16.4639C8.71876 16.3767 8.7402 16.3332 8.74007 16.2864C8.73995 16.2397 8.71828 16.1962 8.67493 16.1093L7.74599 14.2462C7.61672 13.987 7.55209 13.8574 7.61082 13.7627C7.66955 13.6679 7.81456 13.6679 8.10457 13.6679H8.42193Z" fill="currentcolor" />
  <path d="M14.9811 18.6V18.5137C14.9811 18.3252 14.9811 18.2309 14.9225 18.1723C14.8638 18.1137 14.7694 18.1137 14.5806 18.1137H13.0924V14.0679C13.0924 13.8794 13.0924 13.7851 13.0338 13.7265C12.9751 13.6679 12.8807 13.6679 12.6919 13.6679H12.4185C12.2296 13.6679 12.1352 13.6679 12.0766 13.7265C12.0179 13.7851 12.0179 13.8794 12.0179 14.0679V18.6C12.0179 18.7885 12.0179 18.8828 12.0766 18.9414C12.1352 19 12.2296 19 12.4185 19H14.5806C14.7694 19 14.8638 19 14.9225 18.9414C14.9811 18.8828 14.9811 18.7885 14.9811 18.6Z" fill="currentcolor" />
</svg>
