<svg
  xmlns="http://www.w3.org/2000/svg"
  width="20"
  height="20"
  viewBox="0 0 20 20"
  fill="none"
>
  <path
    d="M17.9301 17.5234C17.9301 17.4281 17.9215 17.3414 17.9044 17.2632C17.8873 17.185 17.8507 17.113 17.7945 17.047C17.7408 16.9811 17.6614 16.9151 17.5563 16.8492C17.4537 16.7832 17.3194 16.7148 17.1533 16.644C16.9554 16.5609 16.7636 16.473 16.578 16.3802C16.3923 16.2849 16.225 16.175 16.076 16.0504C15.927 15.9258 15.8085 15.7792 15.7206 15.6107C15.6351 15.4397 15.5923 15.2394 15.5923 15.0098C15.5923 14.785 15.6326 14.5811 15.7133 14.3979C15.7963 14.2147 15.9136 14.0583 16.065 13.9289C16.2165 13.7969 16.3936 13.6956 16.5963 13.6247C16.8015 13.5539 17.0299 13.5185 17.2815 13.5185C17.6235 13.5185 17.9191 13.5893 18.1682 13.731C18.4198 13.8727 18.614 14.0669 18.7508 14.3136C18.8294 14.4528 18.8858 14.6036 18.92 14.7661C18.9551 14.9324 18.9726 15.0156 18.9125 15.0896C18.8524 15.1637 18.7548 15.1637 18.5595 15.1637H18.29C18.1295 15.1637 18.0493 15.1637 17.9979 15.128C17.9464 15.0923 17.9063 14.9851 17.8262 14.7707C17.8254 14.7685 17.8246 14.7664 17.8238 14.7643C17.7823 14.647 17.7151 14.5554 17.6223 14.4895C17.5295 14.4235 17.4098 14.3905 17.2632 14.3905C17.1264 14.3905 17.0128 14.4186 16.9224 14.4748C16.8345 14.5286 16.7685 14.6031 16.7246 14.6983C16.683 14.7911 16.6623 14.8962 16.6623 15.0134C16.6623 15.1014 16.683 15.1808 16.7246 15.2516C16.7685 15.32 16.8284 15.3823 16.9041 15.4385C16.9798 15.4922 17.069 15.5447 17.1716 15.596C17.2766 15.6473 17.3914 15.6974 17.516 15.7463C17.7579 15.8415 17.9716 15.9466 18.1572 16.0614C18.3429 16.1737 18.498 16.3008 18.6226 16.4424C18.7472 16.5817 18.8412 16.7392 18.9047 16.9151C18.9682 17.091 19 17.2913 19 17.516C19 17.7383 18.9609 17.9411 18.8827 18.1243C18.807 18.305 18.6959 18.4614 18.5493 18.5933C18.4027 18.7227 18.2256 18.8229 18.018 18.8937C17.8128 18.9646 17.5832 19 17.3291 19C17.0824 19 16.8491 18.9658 16.6293 18.8974C16.4094 18.8266 16.2152 18.7203 16.0467 18.5786C15.8806 18.4345 15.7499 18.2525 15.6546 18.0327C15.6039 17.9143 15.5667 17.7846 15.543 17.6434C15.5142 17.4722 15.4998 17.3866 15.5598 17.3157C15.6197 17.2449 15.7171 17.2449 15.912 17.2449H16.1851C16.3547 17.2449 16.4395 17.2449 16.4936 17.2868C16.5477 17.3288 16.5746 17.4331 16.6284 17.6418C16.6299 17.6475 16.6314 17.6533 16.633 17.6589C16.6647 17.7713 16.7136 17.8617 16.7795 17.9301C16.8455 17.996 16.9261 18.0461 17.0214 18.0803C17.1191 18.1121 17.2302 18.1279 17.3548 18.1279C17.4965 18.1279 17.6088 18.1011 17.6919 18.0473C17.7774 17.9936 17.8385 17.9215 17.8751 17.8311C17.9117 17.7408 17.9301 17.6382 17.9301 17.5234Z"
    fill="currentColor"
  />
  <path
    d="M10.6312 18.5265V18.4402C10.6312 18.2516 10.6312 18.1572 10.5726 18.0986C10.514 18.04 10.4197 18.04 10.231 18.04H8.64524V16.6147H9.91954C10.1082 16.6147 10.2025 16.6147 10.2611 16.556C10.3198 16.4974 10.3198 16.4031 10.3198 16.2144V16.1538C10.3198 15.9651 10.3198 15.8708 10.2611 15.8122C10.2025 15.7536 10.1082 15.7536 9.91954 15.7536H8.64524V14.4821H10.2237C10.4123 14.4821 10.5067 14.4821 10.5653 14.4235C10.6239 14.3649 10.6239 14.2706 10.6239 14.0819V13.992C10.6239 13.8033 10.6239 13.709 10.5653 13.6504C10.5067 13.5918 10.4123 13.5918 10.2237 13.5918H7.97187C7.7832 13.5918 7.68887 13.5918 7.63026 13.6504C7.57165 13.709 7.57165 13.8033 7.57165 13.992V18.5265C7.57165 18.7152 7.57165 18.8095 7.63026 18.8681C7.68887 18.9267 7.7832 18.9267 7.97187 18.9267H10.231C10.4197 18.9267 10.514 18.9267 10.5726 18.8681C10.6312 18.8095 10.6312 18.7152 10.6312 18.5265Z"
    fill="currentColor"
  />
  <path
    fill-rule="evenodd"
    clip-rule="evenodd"
    d="M12.4027 17.047H13.1502C13.5093 17.047 13.8183 16.9774 14.0772 16.8382C14.3362 16.6989 14.534 16.5035 14.6708 16.2519C14.81 15.9979 14.8797 15.6986 14.8797 15.3542C14.8797 15.0122 14.81 14.7093 14.6708 14.4455C14.534 14.1792 14.3362 13.9704 14.0772 13.8189C13.8183 13.6675 13.5093 13.5918 13.1502 13.5918H11.733C11.5443 13.5918 11.45 13.5918 11.3914 13.6504C11.3328 13.709 11.3328 13.8033 11.3328 13.992V18.5265C11.3328 18.7152 11.3328 18.8095 11.3914 18.8681C11.45 18.9267 11.5443 18.9267 11.733 18.9267H12.0025C12.1911 18.9267 12.2855 18.9267 12.3441 18.8681C12.4027 18.8095 12.4027 18.7152 12.4027 18.5265V17.047ZM13.1502 16.1566H12.4027V14.8824C12.4027 14.6937 12.4027 14.5994 12.4613 14.5407C12.5199 14.4821 12.6143 14.4821 12.8029 14.4821H13.1502C13.3041 14.4821 13.4274 14.5237 13.5203 14.6067C13.6155 14.6898 13.6852 14.7985 13.7291 14.9328C13.7755 15.0647 13.7987 15.2076 13.7987 15.3615C13.7987 15.513 13.7768 15.6498 13.7328 15.7719C13.6888 15.8916 13.618 15.9857 13.5203 16.054C13.425 16.1224 13.3016 16.1566 13.1502 16.1566Z"
    fill="currentColor"
  />
  <path
    fill-rule="evenodd"
    clip-rule="evenodd"
    d="M9.30026 2.51394C9.16198 2.50328 8.95412 2.5009 8.5846 2.5009C7.24537 2.5009 6.29422 2.50171 5.55495 2.57275C4.82705 2.64269 4.38329 2.77526 4.03707 2.99027C3.61226 3.25409 3.25402 3.61232 2.9902 4.03713C2.77519 4.38334 2.64263 4.8271 2.57268 5.555C2.50164 6.29426 2.50083 7.2454 2.50083 8.58462V14.1556C2.50083 14.244 2.50087 14.2783 2.50136 14.3059C2.53287 16.056 3.94402 17.4671 5.69411 17.4986C5.72167 17.4991 5.75594 17.4991 5.84437 17.4991C6.25881 17.4991 6.59479 17.8351 6.59479 18.2495C6.59479 18.664 6.25881 19 5.84437 19H5.83565C5.75882 19 5.70997 19 5.6671 18.9992C3.10927 18.9531 1.04682 16.8907 1.00077 14.3329C1 14.29 1 14.2412 1 14.1644V8.54546C0.999992 7.25413 0.999986 6.23089 1.07873 5.41144C1.15936 4.57236 1.32794 3.86894 1.71523 3.24533C2.10082 2.62446 2.6244 2.10088 3.24527 1.7153C3.86889 1.32802 4.57231 1.15943 5.41139 1.0788C6.23085 1.00006 7.2541 1.00007 8.54544 1.00008L8.67012 1.00004C9.16422 0.9997 9.55363 0.999434 9.92588 1.10562C10.1287 1.16346 10.3241 1.24442 10.5084 1.34691C10.8467 1.53504 11.1219 1.81058 11.471 2.1602L14.3937 5.08281C14.8884 5.5766 15.28 5.9674 15.4907 6.47613C15.7014 6.98486 15.7009 7.53806 15.7002 8.23705L15.7002 11.5006C15.7002 11.915 15.3642 12.251 14.9497 12.251C14.5353 12.251 14.1993 11.915 14.1993 11.5006V8.35797C14.1993 7.95296 14.1965 7.6856 14.1855 7.49568C14.0355 7.50466 13.8675 7.50461 13.704 7.50456L13.627 7.50456C12.8971 7.50458 12.2881 7.50459 11.7974 7.4504C11.2828 7.39356 10.8081 7.26965 10.3912 6.95869C10.1782 6.79985 9.98936 6.611 9.83052 6.39802C9.51956 5.98107 9.39565 5.50645 9.33881 4.99181C9.28461 4.50109 9.28463 3.89214 9.28465 3.16226L9.28464 3.08527C9.28459 2.88815 9.28453 2.68471 9.30026 2.51394ZM13.1725 6.00307L10.7861 3.61675C10.7882 4.13584 10.7966 4.51929 10.8306 4.82706C10.873 5.21108 10.9476 5.3854 11.0336 5.50076C11.1058 5.59757 11.1916 5.68341 11.2885 5.75561C11.4038 5.84165 11.5781 5.91623 11.9622 5.95864C12.2699 5.99263 12.6534 6.00102 13.1725 6.00307Z"
    fill="currentColor"
  />
</svg>
