<svg width="20" height="20" viewBox="0 0 20 20" fill="currentcolor" xmlns="http://www.w3.org/2000/svg">
  <path fill-rule="evenodd" d="M9.33513 2.51217C9.19635 2.50125 8.98727 2.49883 8.61271 2.49883C7.26852 2.49883 6.31385 2.49963 5.57184 2.57057C4.84123 2.64042 4.39583 2.7728 4.04833 2.98752C3.62195 3.25097 3.26238 3.60871 2.99758 4.03293C2.78177 4.37866 2.64872 4.82181 2.57851 5.5487C2.50721 6.28694 2.5064 7.23677 2.5064 8.57413V16.3543C2.5064 16.974 3.01129 17.4772 3.63411 17.4772C3.64581 17.4766 3.65758 17.4764 3.66942 17.4764C4.0854 17.4764 4.42262 17.8119 4.42262 18.2257C4.42262 18.6396 4.0854 18.9751 3.66942 18.9751C3.66559 18.9751 3.66176 18.9752 3.65794 18.9752C3.64997 18.9753 3.64202 18.9754 3.63411 18.9751C2.17933 18.9751 1 17.8017 1 16.3543V8.53503C0.999992 7.24549 0.999986 6.22365 1.07902 5.40534C1.15995 4.56742 1.32916 3.86498 1.71788 3.24223C2.1049 2.62222 2.63042 2.09936 3.25359 1.71431C3.87952 1.32756 4.58555 1.15921 5.42775 1.07869C6.25024 1.00006 7.27728 1.00007 8.57341 1.00008L8.69856 1.00004C9.19449 0.9997 9.58533 0.999435 9.95897 1.10547C10.1625 1.16324 10.3587 1.24408 10.5436 1.34643C10.8832 1.53431 11.1594 1.80946 11.5098 2.15859L14.4434 5.07717C14.9399 5.57027 15.3329 5.96053 15.5444 6.46856C15.7559 6.97658 15.7554 7.52902 15.7547 8.22705L15.7547 11.4861C15.7547 11.8999 15.4174 12.2355 15.0015 12.2355C14.5855 12.2355 14.2483 11.8999 14.2483 11.4861V8.3478C14.2483 7.97132 14.2458 7.71395 14.2365 7.52719C14.0854 7.53628 13.916 7.53623 13.7511 7.53619L13.6738 7.53618C12.9412 7.5362 12.33 7.53622 11.8374 7.4821C11.3209 7.42534 10.8445 7.3016 10.426 6.99107C10.2122 6.83245 10.0227 6.64386 9.86325 6.43117C9.55114 6.0148 9.42677 5.54084 9.36972 5.02691C9.31532 4.53687 9.31534 3.92876 9.31536 3.19989L9.31535 3.123C9.31529 2.9104 9.31523 2.69044 9.33513 2.51217ZM13.2176 6.03677L10.8224 3.65374C10.8245 4.17212 10.8329 4.55504 10.867 4.86239C10.9096 5.24588 10.9844 5.41996 11.0708 5.53515C11.1433 5.63183 11.2294 5.71755 11.3266 5.78965C11.4424 5.87557 11.6174 5.95005 12.0028 5.9924C12.3117 6.02635 12.6966 6.03472 13.2176 6.03677Z" fill="currentcolor" />
  <path d="M14.6425 15.8496V16.7387C14.6425 17.1144 14.596 17.4437 14.5028 17.7266C14.4121 18.0072 14.2821 18.2426 14.1129 18.4328C13.9462 18.6207 13.7439 18.7622 13.5061 18.8573C13.2707 18.9524 13.0096 19 12.7228 19C12.4359 19 12.1736 18.9524 11.9357 18.8573C11.7004 18.7622 11.4969 18.6207 11.3252 18.4328C11.1561 18.2426 11.0249 18.0072 10.9317 17.7266C10.8385 17.4437 10.792 17.1144 10.792 16.7387V15.8496C10.792 15.4641 10.8373 15.1275 10.928 14.8397C11.0187 14.5494 11.1499 14.3079 11.3215 14.1152C11.4932 13.92 11.6967 13.7736 11.9321 13.6761C12.1674 13.5761 12.4285 13.5261 12.7154 13.5261C13.0023 13.5261 13.2634 13.5761 13.4988 13.6761C13.7341 13.7736 13.9376 13.92 14.1093 14.1152C14.2809 14.3079 14.4121 14.5494 14.5028 14.8397C14.596 15.1275 14.6425 15.4641 14.6425 15.8496ZM13.5723 16.7387V15.8422C13.5723 15.5885 13.5539 15.3727 13.5172 15.1946C13.4804 15.0141 13.4252 14.8665 13.3517 14.7518C13.2781 14.6372 13.1886 14.553 13.0832 14.4994C12.9778 14.4457 12.8552 14.4189 12.7154 14.4189C12.5757 14.4189 12.4518 14.4457 12.344 14.4994C12.2385 14.553 12.149 14.6372 12.0755 14.7518C12.0044 14.8665 11.9504 15.0141 11.9137 15.1946C11.8793 15.3727 11.8622 15.5885 11.8622 15.8422V16.7387C11.8622 16.9826 11.8806 17.1912 11.9173 17.3644C11.9541 17.5376 12.0093 17.6791 12.0828 17.7889C12.1564 17.8986 12.2459 17.9803 12.3513 18.034C12.4592 18.0852 12.583 18.1108 12.7228 18.1108C12.8601 18.1108 12.9814 18.0852 13.0869 18.034C13.1947 17.9803 13.2842 17.8986 13.3553 17.7889C13.4264 17.6791 13.4804 17.5376 13.5172 17.3644C13.5539 17.1912 13.5723 16.9826 13.5723 16.7387Z" fill="currentcolor" />
  <path d="M18.5409 13.5992H18.2298C18.0779 13.5992 18.002 13.5992 17.9473 13.6421C17.8926 13.6849 17.8748 13.7584 17.8393 13.9052L17.3614 15.8775C17.2063 16.5178 17.1287 16.838 16.9705 16.8379C16.8122 16.8379 16.7349 16.5176 16.5803 15.8772L16.1043 13.9056C16.0688 13.7585 16.0511 13.685 15.9964 13.6421C15.9417 13.5992 15.8657 13.5992 15.7137 13.5992H15.4129C15.1682 13.5992 15.0459 13.5992 14.9856 13.6789C14.9253 13.7585 14.9592 13.8755 15.0268 14.1094L16.3366 18.6377C16.3769 18.7769 16.397 18.8465 16.4506 18.8866C16.5043 18.9268 16.5771 18.9268 16.7226 18.9268H17.2217C17.367 18.9268 17.4397 18.9268 17.4933 18.8868C17.5469 18.8467 17.5671 18.7773 17.6076 18.6384L18.9267 14.1102C18.9949 13.8759 19.0291 13.7588 18.9688 13.679C18.9085 13.5992 18.786 13.5992 18.5409 13.5992Z" fill="currentcolor" />
  <path d="M5.58255 13.5992C5.39318 13.5992 5.2985 13.5992 5.23967 13.6578C5.18084 13.7163 5.18084 13.8105 5.18084 13.9989V18.5272C5.18084 18.7156 5.18084 18.8098 5.23967 18.8683C5.2985 18.9268 5.39318 18.9268 5.58255 18.9268H5.81993C6.0093 18.9268 6.10398 18.9268 6.16281 18.8683C6.22164 18.8098 6.22164 18.7156 6.22164 18.5272V17.1119L6.15924 15.5435L7.10947 18.6437C7.15128 18.7801 7.17219 18.8483 7.22544 18.8876C7.2787 18.9268 7.35037 18.9268 7.49371 18.9268H7.69825C7.84428 18.9268 7.91729 18.9268 7.97101 18.8864C8.02474 18.8461 8.04471 18.7762 8.08464 18.6365L9.04976 15.2595L8.97994 17.1119V18.5272C8.97994 18.7156 8.97994 18.8098 9.03877 18.8683C9.0976 18.9268 9.19228 18.9268 9.38165 18.9268H9.61535C9.80472 18.9268 9.8994 18.9268 9.95823 18.8683C10.0171 18.8098 10.0171 18.7156 10.0171 18.5272V13.9989C10.0171 13.8105 10.0171 13.7163 9.95823 13.6578C9.8994 13.5992 9.80472 13.5992 9.61535 13.5992H8.98909C8.84474 13.5992 8.77257 13.5992 8.71914 13.6389C8.6657 13.6786 8.64514 13.7474 8.60402 13.885L7.9852 15.9567C7.82862 16.4809 7.75033 16.743 7.60056 16.7431C7.45079 16.7432 7.37225 16.4811 7.21518 15.9571L6.59406 13.8847C6.55285 13.7472 6.53225 13.6784 6.47883 13.6388C6.42542 13.5992 6.35331 13.5992 6.2091 13.5992H5.58255Z" fill="currentcolor" />
</svg>
