<svg width="20" height="20" viewBox="0 0 20 20" fill="currentcolor" xmlns="http://www.w3.org/2000/svg">
  <path fill-rule="evenodd" d="M19 17.2213V17.6202C19 17.6453 19 17.6579 18.9989 17.6684C18.9889 17.7621 18.9148 17.836 18.8211 17.846C18.8105 17.8471 18.798 17.8471 18.7728 17.8471C18.7477 17.8471 18.7351 17.8471 18.7245 17.8483C18.6308 17.8582 18.5568 17.9322 18.5468 18.0258C18.5457 18.0364 18.5457 18.0489 18.5457 18.074V18.6002C18.5457 18.7887 18.5457 18.8829 18.487 18.9415C18.4284 19 18.3341 19 18.1454 19H17.9163C17.7276 19 17.6333 19 17.5747 18.9415C17.5161 18.8829 17.5161 18.7887 17.5161 18.6002V18.2469C17.5161 18.0584 17.5161 17.9642 17.4574 17.9057C17.3988 17.8471 17.3045 17.8471 17.1158 17.8471H16.1154C15.9387 17.8471 15.8503 17.8471 15.7926 17.7935C15.735 17.7399 15.7287 17.6518 15.7162 17.4757L15.703 17.2894C15.699 17.2337 15.697 17.2059 15.7026 17.1789C15.7082 17.1519 15.721 17.1271 15.7466 17.0776L17.3969 13.8874C17.4513 13.7821 17.4786 13.7295 17.5265 13.7003C17.5744 13.6711 17.6338 13.6711 17.7524 13.6711H18.1454C18.3341 13.6711 18.4284 13.6711 18.487 13.7297C18.5457 13.7882 18.5457 13.8825 18.5457 14.0709V16.7674C18.5457 16.7926 18.5457 16.8051 18.5468 16.8157C18.5568 16.9093 18.6308 16.9833 18.7245 16.9932C18.7351 16.9944 18.7477 16.9944 18.7728 16.9944C18.798 16.9944 18.8105 16.9944 18.8211 16.9955C18.9148 17.0055 18.9889 17.0794 18.9989 17.173C19 17.1836 19 17.1962 19 17.2213ZM17.4904 15.2303L16.9018 16.5424C16.8339 16.6938 16.7999 16.7695 16.8111 16.8306C16.8207 16.8828 16.8507 16.9291 16.8945 16.9592C16.9457 16.9944 17.0288 16.9944 17.1949 16.9944C17.3079 16.9944 17.3644 16.9944 17.4075 16.9722C17.4446 16.9532 17.4748 16.923 17.4939 16.886C17.5161 16.8429 17.5161 16.7865 17.5161 16.6736V15.2367C17.5161 15.2225 17.4971 15.2178 17.4904 15.2303Z" fill="currentcolor" />
  <path fill-rule="evenodd" d="M12.4749 19H12.2054C12.0168 19 11.9224 19 11.8638 18.9415C11.8052 18.8829 11.8052 18.7887 11.8052 18.6002V14.0709C11.8052 13.8825 11.8052 13.7882 11.8638 13.7297C11.9224 13.6711 12.0168 13.6711 12.2054 13.6711H13.6226C13.9817 13.6711 14.2907 13.7468 14.5496 13.8981C14.8085 14.0493 15.0064 14.258 15.1432 14.5239C15.2824 14.7874 15.3521 15.09 15.3521 15.4316C15.3521 15.7756 15.2824 16.0745 15.1432 16.3283C15.0064 16.5796 14.8085 16.7748 14.5496 16.9138C14.2907 17.0529 13.9817 17.1225 13.6226 17.1225H13.2754C13.0867 17.1225 12.9924 17.1225 12.9337 17.181C12.8751 17.2395 12.8751 17.3338 12.8751 17.5222V18.6002C12.8751 18.7887 12.8751 18.8829 12.8165 18.9415C12.7579 19 12.6636 19 12.4749 19ZM13.6226 16.2331C13.7741 16.2331 13.8974 16.1989 13.9927 16.1306C14.0904 16.0623 14.1612 15.9684 14.2052 15.8488C14.2492 15.7268 14.2712 15.5902 14.2712 15.4389C14.2712 15.2852 14.2479 15.1424 14.2015 15.0107C14.1576 14.8765 14.0879 14.7679 13.9927 14.6849C13.8999 14.602 13.7765 14.5605 13.6226 14.5605H13.2754C13.0867 14.5605 12.9924 14.5605 12.9337 14.6191C12.8751 14.6776 12.8751 14.7718 12.8751 14.9603V15.8333C12.8751 16.0218 12.8751 16.116 12.9337 16.1746C12.9924 16.2331 13.0867 16.2331 13.2754 16.2331H13.6226Z" fill="currentcolor" />
  <path d="M6.43648 13.6711C6.24782 13.6711 6.15349 13.6711 6.09488 13.7297C6.03627 13.7882 6.03627 13.8825 6.03627 14.0709V18.6002C6.03627 18.7887 6.03627 18.8829 6.09488 18.9415C6.15349 19 6.24782 19 6.43648 19H6.67299C6.86165 19 6.95598 19 7.01459 18.9415C7.0732 18.8829 7.0732 18.7887 7.0732 18.6002V17.1847L7.01103 15.6159L7.95774 18.7168C7.99939 18.8533 8.02022 18.9215 8.07328 18.9608C8.12634 19 8.19774 19 8.34055 19H8.54433C8.68981 19 8.76255 19 8.81608 18.9596C8.8696 18.9192 8.8895 18.8493 8.92929 18.7096L9.89082 15.3318L9.82126 17.1847V18.6002C9.82126 18.7887 9.82126 18.8829 9.87987 18.9415C9.93848 19 10.0328 19 10.2215 19H10.4543C10.643 19 10.7373 19 10.7959 18.9415C10.8545 18.8829 10.8545 18.7887 10.8545 18.6002V14.0709C10.8545 13.8825 10.8545 13.7882 10.7959 13.7297C10.7373 13.6711 10.643 13.6711 10.4543 13.6711H9.83037C9.68656 13.6711 9.61466 13.6711 9.56142 13.7108C9.50819 13.7505 9.4877 13.8193 9.44674 13.957L8.83021 16.0292C8.67421 16.5535 8.59621 16.8157 8.447 16.8158C8.29778 16.8158 8.21954 16.5537 8.06306 16.0296L7.44424 13.9567C7.40318 13.8191 7.38265 13.7504 7.32944 13.7108C7.27622 13.6711 7.20439 13.6711 7.06071 13.6711H6.43648Z" fill="currentcolor" />
  <path fill-rule="evenodd" d="M9.30418 2.51253C9.16591 2.5016 8.95761 2.49918 8.58444 2.49918C7.24524 2.49918 6.29412 2.49999 5.55486 2.57095C4.82697 2.64081 4.38322 2.77322 4.03701 2.98799C3.61221 3.2515 3.25398 3.60933 2.99016 4.03365C2.77516 4.37946 2.64259 4.82271 2.57265 5.54978C2.50161 6.2882 2.5008 7.23825 2.5008 8.57593V15.6709C2.5008 16.6702 3.31179 17.4802 4.3122 17.4802V17.4847C4.33916 17.4818 4.36654 17.4803 4.39428 17.4803C4.80871 17.4803 5.14468 17.8159 5.14468 18.2298C5.14468 18.6438 4.80871 18.9794 4.39428 18.9794C4.36654 18.9794 4.33916 18.9779 4.3122 18.975V18.9793C2.48292 18.9793 1 17.4981 1 15.6709V8.53681C0.999992 7.24696 0.999986 6.22489 1.07873 5.40639C1.15936 4.56827 1.32794 3.86566 1.71522 3.24276C2.10079 2.6226 2.62436 2.09962 3.24522 1.71448C3.86883 1.32764 4.57223 1.15925 5.4113 1.07871C6.23074 1.00006 7.25397 1.00007 8.54528 1.00008L8.66997 1.00004C9.16406 0.9997 9.55345 0.999435 9.9257 1.1055C10.1285 1.16327 10.3239 1.24414 10.5082 1.34651C10.8465 1.53443 11.1217 1.80965 11.4708 2.15887L14.3934 5.07814C14.8882 5.57136 15.2797 5.96171 15.4904 6.46986C15.7011 6.978 15.7006 7.53057 15.6999 8.22876L15.6999 11.4886C15.6999 11.9025 15.3639 12.2381 14.9495 12.2381C14.535 12.2381 14.1991 11.9025 14.1991 11.4886V8.34954C14.1991 7.97298 14.1966 7.71554 14.1874 7.52874C14.0368 7.53783 13.8681 7.53779 13.7037 7.53774L13.6267 7.53773C12.8969 7.53775 12.2879 7.53777 11.7972 7.48363C11.2826 7.42686 10.8079 7.3031 10.391 6.99249C10.178 6.83383 9.98918 6.6452 9.83034 6.43246C9.51938 6.01599 9.39548 5.54191 9.33864 5.02787C9.28445 4.53771 9.28446 3.92946 9.28448 3.20041L9.28448 3.12351C9.28442 2.91086 9.28435 2.69084 9.30418 2.51253ZM13.1722 6.03797L10.7859 3.65437C10.788 4.17287 10.7964 4.55589 10.8304 4.8633C10.8728 5.24688 10.9474 5.42101 11.0334 5.53623C11.1056 5.63293 11.1914 5.71867 11.2883 5.79079C11.4036 5.87672 11.5779 5.95123 11.9619 5.99359C12.2697 6.02754 12.6532 6.03591 13.1722 6.03797Z" fill="currentcolor" />
</svg>
