<svg width="20" height="20" viewBox="0 0 20 20" fill="currentcolor" xmlns="http://www.w3.org/2000/svg">
  <path d="M17.9056 17.5366C17.9413 17.3406 17.9591 17.2426 18.0149 17.1961C18.0708 17.1496 18.1578 17.1496 18.3318 17.1496H18.5946C18.7955 17.1496 18.8959 17.1496 18.9561 17.2211C19.0162 17.2926 19.0003 17.3825 18.9685 17.5623C18.9286 17.7883 18.8618 17.989 18.7684 18.1646C18.6214 18.4382 18.412 18.6458 18.1402 18.7875C17.8708 18.9292 17.5451 19 17.163 19C16.8667 19 16.6034 18.9511 16.3732 18.8534C16.143 18.7533 15.947 18.6067 15.7854 18.4137C15.6238 18.2208 15.5013 17.9826 15.418 17.6992C15.3372 17.4134 15.2968 17.0849 15.2968 16.7136V15.8086C15.2968 15.4373 15.3397 15.1087 15.4254 14.8229C15.5135 14.5371 15.6384 14.2977 15.8001 14.1047C15.9642 13.9093 16.1613 13.7627 16.3915 13.665C16.6242 13.5649 16.8863 13.5148 17.1777 13.5148C17.5671 13.5148 17.8928 13.5881 18.1549 13.7347C18.4169 13.8812 18.619 14.095 18.761 14.3759C18.8515 14.5501 18.9193 14.7488 18.9647 14.9719C19.0026 15.1581 19.0215 15.2513 18.9613 15.3247C18.9011 15.3982 18.7975 15.3982 18.5904 15.3982H18.339C18.1642 15.3982 18.0768 15.3982 18.0208 15.3511C17.9648 15.3041 17.9479 15.2065 17.9141 15.0112C17.9003 14.9314 17.8826 14.8613 17.861 14.8009C17.812 14.6544 17.7336 14.5518 17.6259 14.4931C17.5181 14.4321 17.3687 14.4015 17.1777 14.4015C17.0357 14.4015 16.9132 14.4272 16.8103 14.4785C16.7075 14.5273 16.623 14.6067 16.5569 14.7166C16.4907 14.8266 16.4417 14.9707 16.4099 15.149C16.3805 15.3273 16.3658 15.5447 16.3658 15.8012V16.7136C16.3658 16.9652 16.3793 17.1802 16.4062 17.3585C16.4332 17.5344 16.476 17.6785 16.5348 17.7908C16.5936 17.9032 16.6732 17.985 16.7736 18.0363C16.8765 18.0876 17.0063 18.1133 17.163 18.1133C17.3442 18.1133 17.49 18.0864 17.6002 18.0327C17.7128 17.9789 17.7961 17.8824 17.85 17.7432C17.8726 17.6847 17.8912 17.6158 17.9056 17.5366Z" fill="currentcolor" />
  <path d="M14.5345 15.8452V16.7356C14.5345 17.1118 14.488 17.4415 14.3949 17.7249C14.3043 18.0058 14.1745 18.2415 14.0055 18.4321C13.839 18.6202 13.6369 18.7618 13.3994 18.8571C13.1643 18.9524 12.9034 19 12.6169 19C12.3303 19 12.0683 18.9524 11.8307 18.8571C11.5956 18.7618 11.3923 18.6202 11.2209 18.4321C11.0519 18.2415 10.9209 18.0058 10.8278 17.7249C10.7348 17.4415 10.6882 17.1118 10.6882 16.7356V15.8452C10.6882 15.4592 10.7335 15.1221 10.8242 14.8339C10.9148 14.5432 11.0458 14.3014 11.2172 14.1084C11.3887 13.913 11.5919 13.7664 11.8271 13.6687C12.0622 13.5686 12.323 13.5185 12.6095 13.5185C12.8961 13.5185 13.1569 13.5686 13.392 13.6687C13.6271 13.7664 13.8304 13.913 14.0018 14.1084C14.1733 14.3014 14.3043 14.5432 14.3949 14.8339C14.488 15.1221 14.5345 15.4592 14.5345 15.8452ZM13.4655 16.7356V15.8379C13.4655 15.5838 13.4471 15.3676 13.4104 15.1893C13.3737 15.0086 13.3185 14.8608 13.2451 14.746C13.1716 14.6311 13.0822 14.5469 12.9769 14.4931C12.8716 14.4394 12.7491 14.4125 12.6095 14.4125C12.4699 14.4125 12.3463 14.4394 12.2385 14.4931C12.1332 14.5469 12.0438 14.6311 11.9703 14.746C11.8993 14.8608 11.8454 15.0086 11.8087 15.1893C11.7744 15.3676 11.7573 15.5838 11.7573 15.8379V16.7356C11.7573 16.9798 11.7756 17.1887 11.8124 17.3621C11.8491 17.5356 11.9042 17.6773 11.9777 17.7872C12.0511 17.8971 12.1405 17.9789 12.2458 18.0327C12.3536 18.084 12.4773 18.1096 12.6169 18.1096C12.754 18.1096 12.8753 18.084 12.9806 18.0327C13.0883 17.9789 13.1777 17.8971 13.2488 17.7872C13.3198 17.6773 13.3737 17.5356 13.4104 17.3621C13.4471 17.1887 13.4655 16.9798 13.4655 16.7356Z" fill="currentcolor" />
  <path fill-rule="evenodd" d="M7.84312 18.9267H6.8484C6.65924 18.9267 6.56467 18.9267 6.5059 18.8681C6.44714 18.8095 6.44714 18.7152 6.44714 18.5265V13.992C6.44714 13.8033 6.44714 13.709 6.5059 13.6504C6.56467 13.5918 6.65924 13.5918 6.8484 13.5918H7.85782C8.1664 13.5918 8.44682 13.6418 8.69908 13.742C8.95133 13.8421 9.16808 13.9887 9.34931 14.1817C9.53054 14.3722 9.67014 14.6079 9.76811 14.8889C9.86607 15.1698 9.91505 15.4898 9.91505 15.8489V16.6733C9.91505 17.0348 9.86607 17.3548 9.76811 17.6333C9.67014 17.9118 9.53054 18.1475 9.34931 18.3405C9.17053 18.531 8.95378 18.6763 8.69908 18.7765C8.44437 18.8766 8.15905 18.9267 7.84312 18.9267ZM7.84312 18.04C8.10273 18.04 8.30477 17.9936 8.44927 17.9008C8.59377 17.8079 8.6954 17.6614 8.75418 17.4611C8.81541 17.2608 8.84602 16.9982 8.84602 16.6733V15.8415C8.84602 15.5948 8.8301 15.386 8.79827 15.215C8.76643 15.0415 8.71255 14.9023 8.63663 14.7973C8.5607 14.6898 8.45907 14.6104 8.33171 14.5591C8.20436 14.5078 8.0464 14.4821 7.85782 14.4821C7.73289 14.4821 7.67042 14.4821 7.62389 14.5089C7.59334 14.5265 7.56798 14.5518 7.55036 14.5822C7.52352 14.6287 7.52352 14.691 7.52352 14.8156V17.7212C7.52352 17.832 7.52352 17.8874 7.54489 17.9298C7.56425 17.9682 7.59551 17.9994 7.63404 18.0187C7.67656 18.04 7.73208 18.04 7.84312 18.04Z" fill="currentcolor" />
  <path fill-rule="evenodd" d="M9.32175 2.51394C9.18311 2.50328 8.97471 2.5009 8.60423 2.5009C7.26154 2.5009 6.30793 2.50171 5.56674 2.57275C4.83696 2.64269 4.39205 2.77526 4.04493 2.99027C3.61903 3.25409 3.25986 3.61232 2.99536 4.03713C2.77979 4.38334 2.64688 4.8271 2.57675 5.555C2.50553 6.29426 2.50472 7.2454 2.50472 8.58462V15.3281C2.50472 16.5271 3.47923 17.4991 4.68135 17.4991V17.5045C5.05437 17.5489 5.34358 17.8656 5.34358 18.2496C5.34358 18.6336 5.05437 18.9503 4.68135 18.9947V19C4.6609 19 4.64049 18.9998 4.62012 18.9995C4.61053 18.9998 4.6009 19 4.59122 19C4.56596 19 4.54099 18.9988 4.51637 18.9963C2.55978 18.9103 1 17.3009 1 15.3281V8.54545C0.999992 7.25413 0.999986 6.23088 1.07893 5.41144C1.15977 4.57236 1.32879 3.86894 1.71708 3.24533C2.10367 2.62446 2.6286 2.10088 3.25108 1.7153C3.87631 1.32802 4.58156 1.15943 5.42281 1.0788C6.24439 1.00006 7.27029 1.00007 8.56497 1.00008L8.68998 1.00004C9.18536 0.9997 9.57577 0.999434 9.94899 1.10562C10.1523 1.16346 10.3483 1.24442 10.533 1.34691C10.8722 1.53504 11.1481 1.81058 11.4981 2.1602L14.4284 5.08281C14.9244 5.5766 15.317 5.9674 15.5282 6.47613C15.7395 6.98486 15.739 7.53806 15.7383 8.23705L15.7382 11.5006C15.7382 11.915 15.4014 12.251 14.9859 12.251C14.5703 12.251 14.2335 11.915 14.2335 11.5006V8.35797C14.2335 7.95296 14.2307 7.6856 14.2196 7.49568C14.0692 7.50466 13.9009 7.50461 13.7369 7.50456L13.6597 7.50456C12.9279 7.50458 12.3174 7.50459 11.8254 7.4504C11.3094 7.39356 10.8335 7.26965 10.4155 6.95869C10.202 6.79985 10.0126 6.611 9.85338 6.39802C9.54161 5.98107 9.41738 5.50645 9.3604 4.99181C9.30606 4.50109 9.30608 3.89214 9.3061 3.16226L9.30609 3.08527C9.30604 2.88815 9.30598 2.68471 9.32175 2.51394ZM13.204 6.00307L10.8115 3.61675C10.8135 4.13584 10.8219 4.51929 10.856 4.82706C10.8985 5.21108 10.9733 5.3854 11.0596 5.50076C11.132 5.59757 11.218 5.68341 11.3151 5.75561C11.4308 5.84165 11.6055 5.91623 11.9905 5.95864C12.2991 5.99263 12.6836 6.00102 13.204 6.00307Z" fill="currentcolor" />
</svg>
