<svg
  xmlns="http://www.w3.org/2000/svg"
  width="20"
  height="20"
  viewBox="0 0 20 20"
  fill="none"
>
  <path
    d="M16.4526 18.9272H16.7158C16.9086 18.9272 17.0049 18.9272 17.0638 18.867C17.1227 18.8067 17.1203 18.7103 17.1157 18.5176L17.0732 16.7483H18.3955C18.584 16.7483 18.6783 16.7483 18.7369 16.6897C18.7955 16.6311 18.7955 16.5369 18.7955 16.3483V16.2621C18.7955 16.0735 18.7955 15.9792 18.7369 15.9206C18.6783 15.8621 18.584 15.8621 18.3955 15.8621H17.0519V14.4851H18.6005C18.7891 14.4851 18.8834 14.4851 18.942 14.4265C19.0005 14.3679 19.0005 14.2737 19.0005 14.0851V13.9952C19.0005 13.8067 19.0005 13.7124 18.942 13.6538C18.8834 13.5952 18.7891 13.5952 18.6005 13.5952H16.4526C16.264 13.5952 16.1697 13.5952 16.1111 13.6538C16.0526 13.7124 16.0526 13.8067 16.0526 13.9952V18.5272C16.0526 18.7158 16.0526 18.8101 16.1111 18.8687C16.1697 18.9272 16.264 18.9272 16.4526 18.9272Z"
    fill="currentColor"
  />
  <path
    d="M14.662 13.5952C14.8505 13.5952 14.9448 13.5952 15.0034 13.6538C15.062 13.7124 15.062 13.8067 15.062 13.9952V18.5272C15.062 18.7158 15.062 18.8101 15.0034 18.8687C14.9448 18.9272 14.8505 18.9272 14.662 18.9272H14.3963C14.2077 18.9272 14.1134 18.9272 14.0549 18.8687C13.9963 18.8101 13.9963 18.7158 13.9963 18.5272V13.9952C13.9963 13.8067 13.9963 13.7124 14.0549 13.6538C14.1134 13.5952 14.2077 13.5952 14.3963 13.5952H14.662Z"
    fill="currentColor"
  />
  <path
    d="M12.701 16.1257C12.8896 16.1257 12.9839 16.1257 13.0424 16.1843C13.101 16.2429 13.101 16.3372 13.101 16.5257V18.1646C13.101 18.2446 13.101 18.2846 13.083 18.3241C13.0651 18.3636 13.0388 18.3864 12.9863 18.4321C12.9253 18.4853 12.8524 18.5429 12.7678 18.605C12.6237 18.71 12.4345 18.8027 12.2001 18.8833C11.9682 18.9614 11.685 19.0005 11.3505 19.0005C11.0551 19.0005 10.7866 18.9541 10.5449 18.8613C10.3056 18.7686 10.0993 18.6282 9.92596 18.4402C9.75507 18.2498 9.62445 18.0129 9.53412 17.7297C9.44379 17.4441 9.39862 17.106 9.39862 16.7153V15.8071C9.39862 15.4214 9.44135 15.0857 9.52679 14.8C9.61469 14.512 9.74164 14.2727 9.90765 14.0823C10.0737 13.8918 10.2714 13.7502 10.5009 13.6575C10.7328 13.5647 10.9941 13.5183 11.2846 13.5183C11.685 13.5183 12.0134 13.5854 12.2697 13.7197C12.5285 13.854 12.7238 14.053 12.8557 14.3167C12.9371 14.4765 12.9987 14.6583 13.0406 14.8621C13.0787 15.0473 13.0978 15.1399 13.0377 15.2135C12.9777 15.2871 12.8746 15.2871 12.6683 15.2871H12.4317C12.2684 15.2871 12.1868 15.2871 12.1329 15.2456C12.079 15.2041 12.054 15.1098 12.0041 14.9213C11.9881 14.8607 11.9692 14.8069 11.9474 14.7598C11.8913 14.6328 11.812 14.5425 11.7094 14.4888C11.6069 14.4326 11.4738 14.4045 11.3102 14.4045C11.1686 14.4045 11.0453 14.4302 10.9404 14.4814C10.8354 14.5303 10.7475 14.6108 10.6767 14.7231C10.6059 14.8354 10.5534 14.9795 10.5192 15.1553C10.485 15.3311 10.468 15.5459 10.468 15.7998V16.7153C10.468 16.9668 10.4875 17.1816 10.5266 17.3599C10.5656 17.5381 10.623 17.6833 10.6987 17.7957C10.7768 17.908 10.8745 17.9897 10.9916 18.041C11.1113 18.0898 11.2516 18.1143 11.4128 18.1143C11.5422 18.1143 11.6459 18.1008 11.7241 18.074C11.8022 18.0471 11.8644 18.019 11.9108 17.9897C11.9358 17.9735 11.9483 17.9654 11.9555 17.9597C12.0023 17.9228 12.0254 17.8802 12.0308 17.8209C12.0317 17.8118 12.0317 17.7996 12.0317 17.7752V17.3177C12.0317 17.146 12.0317 17.0601 11.9824 17.0036C11.9764 16.9967 11.97 16.9903 11.9632 16.9844C11.9067 16.9351 11.8208 16.9351 11.649 16.9351C11.4772 16.9351 11.3913 16.9351 11.3348 16.8858C11.328 16.8798 11.3216 16.8734 11.3156 16.8665C11.2663 16.81 11.2663 16.7242 11.2663 16.5524V16.5257C11.2663 16.3372 11.2663 16.2429 11.3249 16.1843C11.3835 16.1257 11.4777 16.1257 11.6663 16.1257H12.701Z"
    fill="currentColor"
  />
  <path
    fill-rule="evenodd"
    clip-rule="evenodd"
    d="M9.29893 2.51292C9.16073 2.50201 8.95257 2.49959 8.57983 2.49959C7.24135 2.49959 6.29073 2.5004 5.55187 2.57139C4.82437 2.6413 4.38086 2.77379 4.03483 2.98869C3.61026 3.25236 3.25222 3.6104 2.98855 4.03497C2.77366 4.38099 2.64116 4.82451 2.57126 5.552C2.50026 6.29086 2.49945 7.24148 2.49945 8.57996V12.2376C2.49945 13.1807 2.49986 13.8504 2.53584 14.3773C2.57137 14.8974 2.63904 15.2233 2.74733 15.4845C3.07716 16.2799 3.70916 16.9119 4.50455 17.2417C4.7657 17.35 5.09159 17.4177 5.61174 17.4532C6.13864 17.4892 6.80836 17.4896 7.75146 17.4896C8.16567 17.4896 8.50146 17.8254 8.50146 18.2396C8.50146 18.6538 8.16567 18.9896 7.75146 18.9896H7.7241C6.81449 18.9896 6.09354 18.9896 5.50953 18.9497C4.91293 18.909 4.40454 18.8241 3.92997 18.6273C2.76748 18.1452 1.8438 17.2215 1.36174 16.0591C1.16495 15.5845 1.08008 15.0761 1.03933 14.4795C0.999444 13.8955 0.999447 13.1746 0.999451 12.265V8.54083C0.999443 7.25021 0.999437 6.22752 1.07814 5.40853C1.15872 4.56991 1.32721 3.86688 1.71429 3.24361C2.09965 2.62308 2.62294 2.09979 3.24347 1.71442C3.86674 1.32735 4.56977 1.15886 5.40839 1.07827C6.22739 0.999573 7.25007 0.99958 8.54069 0.999588L8.66531 0.999549C9.15913 0.999212 9.54832 0.998946 9.92037 1.10507C10.123 1.16288 10.3184 1.2438 10.5026 1.34623C10.8407 1.53426 11.1157 1.80965 11.4646 2.15907L14.3857 5.08008C14.8802 5.5736 15.2715 5.96418 15.4821 6.47263C15.6927 6.98108 15.6922 7.53398 15.6915 8.23259L15.6914 11.4943C15.6914 11.9086 15.3557 12.2443 14.9414 12.2443C14.5272 12.2443 14.1914 11.9086 14.1914 11.4943V8.35344C14.1914 7.97509 14.189 7.71694 14.1796 7.52983C14.0292 7.53892 13.8606 7.53888 13.6964 7.53883L13.6194 7.53883C12.8899 7.53885 12.2813 7.53886 11.7909 7.4847C11.2765 7.42789 10.8021 7.30405 10.3854 6.99326C10.1726 6.83451 9.98381 6.64576 9.82506 6.43289C9.51427 6.01618 9.39043 5.54182 9.33362 5.02746C9.27946 4.53701 9.27947 3.9284 9.27949 3.19892L9.27949 3.12197C9.27943 2.9101 9.27936 2.69093 9.29893 2.51292ZM13.1652 6.03816L10.7802 3.65315C10.7822 4.17196 10.7906 4.5552 10.8246 4.8628C10.8669 5.24661 10.9415 5.42084 11.0275 5.53613C11.0996 5.63289 11.1854 5.71868 11.2822 5.79084C11.3975 5.87683 11.5717 5.95137 11.9555 5.99376C12.2631 6.02773 12.6464 6.03611 13.1652 6.03816Z"
    fill="currentColor"
  />
</svg>
