<svg width="20" height="20" viewBox="0 0 20 20" fill="currentcolor" xmlns="http://www.w3.org/2000/svg">
  <path d="M18.5992 16.16C18.7881 16.16 18.8826 16.16 18.9413 16.2186C19 16.2772 19 16.3715 19 16.5601V18.1686C19 18.2486 19 18.2887 18.9819 18.3282C18.9639 18.3677 18.9376 18.3905 18.885 18.4362C18.8251 18.4882 18.7536 18.5445 18.6707 18.6052C18.5284 18.7087 18.3415 18.8002 18.1099 18.8797C17.8808 18.9567 17.601 18.9952 17.2705 18.9952C16.9786 18.9952 16.7133 18.9495 16.4745 18.858C16.2381 18.7665 16.0343 18.628 15.863 18.4426C15.6941 18.2548 15.5651 18.0213 15.4759 17.742C15.3866 17.4602 15.342 17.1268 15.342 16.7415V15.8458C15.342 15.4653 15.3842 15.1343 15.4686 14.8525C15.5555 14.5684 15.6809 14.3324 15.8449 14.1446C16.0089 13.9568 16.2043 13.8172 16.4311 13.7257C16.6602 13.6342 16.9183 13.5884 17.2054 13.5884C17.601 13.5884 17.9254 13.6546 18.1787 13.7871C18.4344 13.9195 18.6273 14.1157 18.7576 14.3758C18.8372 14.5319 18.8977 14.7093 18.9391 14.9079C18.9777 15.0928 18.9969 15.1853 18.9368 15.2591C18.8766 15.3329 18.7733 15.3329 18.5665 15.3329H18.3439C18.1807 15.3329 18.0991 15.3329 18.0452 15.2916C17.9912 15.2503 17.9658 15.1559 17.9149 14.9671C17.8993 14.9094 17.8811 14.858 17.8603 14.8128C17.8048 14.6876 17.7264 14.5985 17.6251 14.5455C17.5238 14.4902 17.3923 14.4625 17.2307 14.4625C17.0908 14.4625 16.969 14.4878 16.8652 14.5383C16.7615 14.5865 16.6747 14.6659 16.6047 14.7767C16.5348 14.8875 16.4829 15.0295 16.4492 15.2029C16.4154 15.3762 16.3985 15.5881 16.3985 15.8386V16.7415C16.3985 16.9895 16.4178 17.2014 16.4564 17.3772C16.495 17.5529 16.5517 17.6962 16.6264 17.807C16.7036 17.9177 16.8001 17.9984 16.9159 18.049C17.0341 18.0971 17.1728 18.1212 17.332 18.1212C17.4598 18.1212 17.5624 18.1079 17.6395 18.0815C17.7167 18.055 17.7782 18.0273 17.8241 17.9984C17.8475 17.9832 17.8593 17.9756 17.8658 17.9705C17.914 17.9332 17.9377 17.8896 17.9428 17.8289C17.9435 17.8206 17.9435 17.8093 17.9435 17.7867V17.3356C17.9435 17.169 17.9435 17.0856 17.8968 17.0299C17.8892 17.0208 17.8807 17.0124 17.8716 17.0048C17.8158 16.9582 17.7323 16.9582 17.5654 16.9582C17.3984 16.9582 17.3149 16.9582 17.2591 16.9116C17.25 16.904 17.2416 16.8956 17.2339 16.8865C17.1873 16.8308 17.1873 16.7474 17.1873 16.5808V16.5591C17.1873 16.3715 17.1873 16.2777 17.2454 16.2192L17.2465 16.218C17.3051 16.16 17.3991 16.16 17.5871 16.16H18.5992Z" fill="currentcolor" />
  <path d="M14.0172 13.6664C14.2061 13.6664 14.3006 13.6664 14.3593 13.725C14.418 13.7836 14.418 13.8779 14.418 14.0666V18.5999C14.418 18.7885 14.418 18.8828 14.3593 18.9414C14.3006 19 14.2061 19 14.0172 19H13.6268C13.5065 19 13.4463 19 13.3979 18.9702C13.3495 18.9404 13.3225 18.8867 13.2686 18.7793L12.4615 17.1734C12.1611 16.5756 12.0109 16.2767 11.8567 16.3132C11.7024 16.3496 11.7024 16.684 11.7024 17.3528V18.5999C11.7024 18.7885 11.7024 18.8828 11.6437 18.9414C11.585 19 11.4906 19 11.3016 19H11.0831C10.8941 19 10.7997 19 10.741 18.9414C10.6823 18.8828 10.6823 18.7885 10.6823 18.5999V14.0666C10.6823 13.8779 10.6823 13.7836 10.741 13.725C10.7997 13.6664 10.8941 13.6664 11.0831 13.6664H11.4585C11.579 13.6664 11.6392 13.6665 11.6876 13.6963C11.736 13.7262 11.763 13.7799 11.8169 13.8875L12.6386 15.526C12.939 16.1251 13.0892 16.4247 13.2435 16.3883C13.3978 16.3519 13.3978 16.0169 13.3978 15.3469V14.0666C13.3978 13.8779 13.3978 13.7836 13.4565 13.725C13.5152 13.6664 13.6097 13.6664 13.7987 13.6664H14.0172Z" fill="currentcolor" />
  <path fill-rule="evenodd" d="M8.24925 17.0428H7.50063V18.5219C7.50063 18.7105 7.50063 18.8048 7.44193 18.8634C7.38323 18.922 7.28875 18.922 7.0998 18.922H6.8299C6.64095 18.922 6.54648 18.922 6.48778 18.8634C6.42908 18.8048 6.42908 18.7105 6.42908 18.5219V13.9885C6.42908 13.7999 6.42908 13.7056 6.48778 13.647C6.54648 13.5884 6.64095 13.5884 6.8299 13.5884H8.24925C8.60888 13.5884 8.91835 13.6641 9.17768 13.8155C9.43701 13.967 9.63517 14.1758 9.77217 14.4419C9.91162 14.7057 9.98134 15.0085 9.98134 15.3504C9.98134 15.6947 9.91162 15.9939 9.77217 16.2479C9.63517 16.4994 9.43701 16.6948 9.17768 16.834C8.91835 16.9732 8.60888 17.0428 8.24925 17.0428ZM7.50063 16.1526H8.24925C8.40093 16.1526 8.52447 16.1184 8.61989 16.0501C8.71774 15.9817 8.78869 15.8877 8.83273 15.768C8.87677 15.6459 8.89878 15.5091 8.89878 15.3577C8.89878 15.2039 8.87554 15.061 8.82906 14.9291C8.78502 14.7948 8.7153 14.6861 8.61989 14.6031C8.52692 14.5201 8.40337 14.4786 8.24925 14.4786H7.90146C7.7125 14.4786 7.61803 14.4786 7.55933 14.5372C7.50063 14.5958 7.50063 14.6901 7.50063 14.8787V16.1526Z" fill="currentcolor" />
  <path fill-rule="evenodd" d="M9.27341 2.51084C9.1353 2.50247 8.93264 2.5005 8.59609 2.5005C7.25483 2.5005 6.30224 2.50131 5.56185 2.57233C4.83285 2.64226 4.38841 2.77479 4.04167 2.98974C3.61622 3.25349 3.25744 3.61163 2.99322 4.03632C2.77788 4.38244 2.64512 4.82609 2.57507 5.55379C2.50392 6.29286 2.50311 7.24375 2.50311 8.58261V15.3126C2.50311 16.5178 3.48183 17.4948 4.68915 17.4948V17.4958C4.70211 17.4951 4.71516 17.4948 4.72829 17.4948C5.14336 17.4948 5.47985 17.8307 5.47985 18.245C5.47985 18.6594 5.14336 18.9952 4.72829 18.9952C4.72401 18.9952 4.71974 18.9953 4.71548 18.9954C4.70667 18.9955 4.69789 18.9956 4.68915 18.9952C2.65169 18.9952 1 17.3465 1 15.3126V8.54346C0.999992 7.25247 0.999986 6.2295 1.07885 5.41027C1.1596 4.57141 1.32844 3.86818 1.71632 3.24474C2.10248 2.62403 2.62686 2.10059 3.24867 1.71511C3.87323 1.32793 4.57772 1.15939 5.41808 1.07878C6.23877 1.00006 7.26357 1.00007 8.55687 1.00008L8.68175 1.00004C9.17659 0.9997 9.56659 0.999434 9.93941 1.10559C10.1425 1.16342 10.3382 1.24436 10.5228 1.34681C10.8616 1.5349 11.1372 1.81037 11.4869 2.15989L14.414 5.08173C14.4778 5.14533 14.54 5.20722 14.6002 5.26787C14.739 5.40638 14.8818 5.5491 14.9905 5.67995C15.2137 5.93381 15.3925 6.18514 15.5127 6.47468C15.7237 6.98327 15.7232 7.53633 15.7225 8.23514L15.7224 11.4978C15.7224 11.9121 15.386 12.248 14.9709 12.248C14.5558 12.248 14.2193 11.9121 14.2193 11.4978V8.35602C14.2193 7.90971 14.2159 7.6306 14.2018 7.43807C14.0438 7.44909 13.8634 7.44904 13.688 7.44899L13.6109 7.44899C12.8799 7.44901 12.27 7.44902 11.7785 7.39484C11.2631 7.33802 10.7878 7.21414 10.3702 6.90327C10.1569 6.74447 9.96775 6.55567 9.80867 6.34274C9.49724 5.92591 9.37314 5.45141 9.31622 4.93691C9.26194 4.44632 9.26195 3.83753 9.26197 3.10784L9.26197 3.03087C9.26192 2.85314 9.26187 2.67026 9.27341 2.51084ZM13.1557 5.9479L10.7657 3.5622C10.7678 4.08116 10.7762 4.46451 10.8102 4.7722C10.8527 5.15612 10.9274 5.33039 11.0136 5.44572C11.0859 5.54251 11.1719 5.62832 11.2688 5.70051C11.3844 5.78652 11.5589 5.86108 11.9435 5.90348C12.2518 5.93746 12.6358 5.94584 13.1557 5.9479Z" fill="currentcolor" />
</svg>
