<svg width="20" height="20" viewBox="0 0 20 20" fill="currentcolor" xmlns="http://www.w3.org/2000/svg">
  <path fill-rule="evenodd" d="M10.43 6.72307e-05C11.0553 -0.000548378 11.5687 -0.00105384 12.0425 0.198975C12.4079 0.35323 12.7072 0.60877 13.0276 0.924586C13.0709 0.966946 13.1142 1.01044 13.1572 1.05401C13.2106 1.10802 13.2649 1.16349 13.3205 1.22024L16.803 4.76965C16.8581 4.82568 16.9119 4.88046 16.9644 4.93436C17.0081 4.97918 17.0518 5.02435 17.0943 5.06942C17.4037 5.39567 17.6539 5.70025 17.805 6.07195C18.001 6.55428 18.0005 7.07697 17.9999 7.71458L17.9999 11.9049C17.9999 13.5983 17.9999 14.9466 17.8605 16.0035C17.7166 17.094 17.4121 17.9876 16.719 18.694C16.0257 19.4006 15.1485 19.7112 14.0779 19.8579C13.0408 20 11.7177 20 10.0564 20H9.94344C8.28219 20 6.95908 20 5.92191 19.8579C4.8514 19.7112 3.97413 19.4006 3.28085 18.694C2.58774 17.9876 2.28324 17.094 2.13939 16.0035C1.99998 14.9466 1.99999 13.5982 2 11.9048V8.09537C1.99999 6.40192 1.99998 5.05356 2.13939 3.99667C2.28324 2.90617 2.58774 2.01254 3.28085 1.30611C3.97413 0.59951 4.8514 0.28894 5.92191 0.142248C6.95912 0.00012058 8.28226 0.000132325 9.94358 0.000147093L10.43 6.72307e-05ZM11.0734 1.53666C11.0633 1.70072 11.0634 1.88221 11.0635 2.05673L11.0635 2.66264C11.0634 3.48889 11.0634 4.1847 11.1365 4.73867C11.214 5.32606 11.3857 5.86668 11.8134 6.30256C12.2412 6.7386 12.7721 6.91388 13.349 6.99293C13.8928 7.06744 14.5757 7.06742 15.3862 7.06739L15.9811 7.0674C16.1516 7.06746 16.3292 7.06752 16.4899 7.05731C16.4991 7.2293 16.5015 7.47099 16.5015 7.83557V11.8476C16.5015 13.611 16.5 14.8569 16.3755 15.8006C16.2539 16.7225 16.0275 17.2409 15.6587 17.6168C15.2901 17.9925 14.7819 18.223 13.878 18.3469C12.9524 18.4737 11.7302 18.4753 9.99993 18.4753C8.26966 18.4753 7.04749 18.4737 6.12187 18.3469C5.21796 18.223 4.70976 17.9925 4.34116 17.6168C3.9724 17.2409 3.74598 16.7225 3.62438 15.8006C3.49989 14.8569 3.49831 13.611 3.49831 11.8476V8.15256C3.49831 6.38915 3.49989 5.14321 3.62438 4.19952C3.74598 3.27766 3.9724 2.7592 4.34116 2.38336C4.70976 2.00768 5.21796 1.77714 6.12187 1.65328C7.04749 1.52644 8.26966 1.52481 9.99993 1.52481H10.3109C10.668 1.52481 10.9049 1.5273 11.0734 1.53666ZM12.5618 2.60501V2.61002C12.5618 3.50252 12.5634 4.09524 12.6215 4.53583C12.6767 4.95453 12.7704 5.12 12.8737 5.22531C12.9769 5.33045 13.1387 5.42569 13.549 5.4819C13.981 5.5411 14.5622 5.54272 15.438 5.54272H15.4441L12.5618 2.60501Z" fill="currentcolor" />
  <path d="M11.3934 9.6064C11.637 9.27141 12.1061 9.19735 12.4411 9.44097C12.776 9.6846 12.8501 10.1537 12.6065 10.4887L10.9274 12.7975L12.6066 15.1064C12.8502 15.4414 12.7762 15.9104 12.4412 16.1541C12.1062 16.3977 11.6371 16.3236 11.3935 15.9887L9.99998 14.0726L8.60648 15.9887C8.36285 16.3236 7.89379 16.3977 7.5588 16.1541C7.22381 15.9104 7.14975 15.4414 7.39338 15.1064L9.07261 12.7975L7.39348 10.4887C7.14986 10.1537 7.22392 9.6846 7.55891 9.44097C7.8939 9.19735 8.36296 9.27141 8.60659 9.6064L9.99998 11.5223L11.3934 9.6064Z" fill="currentcolor" />
</svg>
