<svg
  xmlns="http://www.w3.org/2000/svg"
  width="20"
  height="20"
  viewBox="0 0 20 20"
  fill="none"
>
  <path
    d="M18.5998 16.1199C18.7885 16.1199 18.8828 16.1199 18.9414 16.1785C19 16.2371 19 16.3314 19 16.5201V18.1599C19 18.2399 19 18.28 18.982 18.3195C18.964 18.359 18.9378 18.3818 18.8853 18.4276C18.8242 18.4807 18.7513 18.5384 18.6666 18.6005C18.5225 18.7055 18.3332 18.7984 18.0988 18.879C17.8667 18.9571 17.5834 18.9962 17.2488 18.9962C16.9533 18.9962 16.6846 18.9498 16.4428 18.857C16.2035 18.7642 15.9971 18.6237 15.8237 18.4356C15.6527 18.2451 15.5221 18.0081 15.4317 17.7248C15.3413 17.439 15.2961 17.1006 15.2961 16.7098V15.8011C15.2961 15.4151 15.3389 15.0793 15.4244 14.7935C15.5123 14.5052 15.6393 14.2658 15.8054 14.0753C15.9715 13.8848 16.1693 13.7431 16.3989 13.6503C16.6309 13.5574 16.8922 13.511 17.1829 13.511C17.5834 13.511 17.9119 13.5782 18.1684 13.7126C18.4273 13.8469 18.6227 14.046 18.7545 14.3098C18.836 14.4697 18.8977 14.6517 18.9396 14.8556C18.9777 15.0408 18.9968 15.1335 18.9367 15.2071C18.8767 15.2808 18.7735 15.2808 18.5672 15.2808H18.3304C18.1671 15.2808 18.0854 15.2808 18.0315 15.2393C17.9775 15.1977 17.9526 15.1034 17.9027 14.9148C17.8866 14.8542 17.8677 14.8003 17.846 14.7532C17.7898 14.6261 17.7104 14.5358 17.6078 14.482C17.5053 14.4258 17.3722 14.3977 17.2085 14.3977C17.0669 14.3977 16.9435 14.4234 16.8385 14.4747C16.7335 14.5235 16.6455 14.6042 16.5747 14.7165C16.5039 14.8289 16.4514 14.973 16.4172 15.1489C16.383 15.3248 16.3659 15.5397 16.3659 15.7938V16.7098C16.3659 16.9614 16.3854 17.1764 16.4245 17.3547C16.4636 17.533 16.521 17.6784 16.5967 17.7907C16.6749 17.9031 16.7726 17.9849 16.8898 18.0362C17.0095 18.0851 17.1499 18.1095 17.3111 18.1095C17.4405 18.1095 17.5443 18.0961 17.6225 18.0692C17.7007 18.0423 17.7629 18.0142 17.8093 17.9849C17.8343 17.9687 17.8468 17.9605 17.854 17.9549C17.9008 17.918 17.924 17.8753 17.9294 17.8159C17.9302 17.8068 17.9302 17.7946 17.9302 17.7702V17.3126C17.9302 17.1407 17.9302 17.0547 17.8809 16.9982C17.875 16.9914 17.8685 16.9849 17.8617 16.979C17.8052 16.9297 17.7192 16.9296 17.5474 16.9296C17.3755 16.9296 17.2896 16.9297 17.2331 16.8803C17.2263 16.8744 17.2198 16.8679 17.2139 16.8611C17.1646 16.8046 17.1646 16.7186 17.1646 16.5467V16.5201C17.1646 16.3314 17.1646 16.2371 17.2232 16.1785C17.2818 16.1199 17.3761 16.1199 17.5647 16.1199H18.5998Z"
    fill="currentColor"
  />
  <path
    d="M9.03889 17.2777V13.9882C9.03889 13.7995 9.03889 13.7052 9.09749 13.6466C9.15609 13.588 9.25041 13.588 9.43905 13.588H9.70849C9.89713 13.588 9.99145 13.588 10.05 13.6466C10.1087 13.7052 10.1087 13.7995 10.1087 13.9882V17.2814C10.1087 17.6356 10.0403 17.9422 9.90349 18.2011C9.76916 18.4576 9.58598 18.6542 9.35396 18.791C9.12193 18.9278 8.8606 18.9962 8.56995 18.9962C8.27198 18.9962 8.00576 18.9376 7.7713 18.8203C7.53927 18.7006 7.35609 18.5199 7.22176 18.278C7.13827 18.1262 7.08073 17.9489 7.04913 17.7462C7.02224 17.5736 7.00879 17.4873 7.06868 17.4173C7.12857 17.3474 7.22586 17.3474 7.42042 17.3474H7.69719C7.86352 17.3474 7.94668 17.3474 8.00051 17.3886C8.05435 17.4298 8.08266 17.5346 8.13928 17.7443C8.14437 17.7632 8.14994 17.7811 8.15597 17.798C8.19505 17.908 8.25 17.9874 8.32083 18.0362C8.3941 18.0851 8.47714 18.1095 8.56995 18.1095C8.67009 18.1095 8.75435 18.0765 8.82274 18.0106C8.89357 17.9446 8.9473 17.8506 8.98394 17.7284C9.02057 17.6038 9.03889 17.4536 9.03889 17.2777Z"
    fill="currentColor"
  />
  <path
    fill-rule="evenodd"
    clip-rule="evenodd"
    d="M12.107 17.0414H12.8544C13.2134 17.0414 13.5224 16.9718 13.7813 16.8326C14.0401 16.6933 14.238 16.4979 14.3748 16.2463C14.514 15.9922 14.5836 15.693 14.5836 15.3486C14.5836 15.0066 14.514 14.7037 14.3748 14.4399C14.238 14.1736 14.0401 13.9648 13.7813 13.8133C13.5224 13.6619 13.2134 13.5861 12.8544 13.5861H11.4374C11.2488 13.5861 11.1544 13.5861 11.0958 13.6447C11.0372 13.7034 11.0372 13.7977 11.0372 13.9864V18.5209C11.0372 18.7095 11.0372 18.8039 11.0958 18.8625C11.1544 18.9211 11.2488 18.9211 11.4374 18.9211H11.7068C11.8955 18.9211 11.9898 18.9211 12.0484 18.8625C12.107 18.8039 12.107 18.7095 12.107 18.5209V17.0414ZM12.8544 16.151H12.107V14.8767C12.107 14.6881 12.107 14.5937 12.1656 14.5351C12.2242 14.4765 12.3185 14.4765 12.5072 14.4765H12.8544C13.0082 14.4765 13.1316 14.518 13.2244 14.6011C13.3196 14.6842 13.3893 14.7929 13.4332 14.9272C13.4796 15.0591 13.5028 15.202 13.5028 15.3559C13.5028 15.5074 13.4808 15.6442 13.4369 15.7663C13.3929 15.886 13.3221 15.98 13.2244 16.0484C13.1291 16.1168 13.0058 16.151 12.8544 16.151Z"
    fill="currentColor"
  />
  <path
    fill-rule="evenodd"
    clip-rule="evenodd"
    d="M9.2484 2.51059C9.1108 2.50276 8.91041 2.5009 8.58339 2.5009C7.24438 2.5009 6.29338 2.50171 5.55423 2.57275C4.82644 2.64269 4.38275 2.77526 4.03659 2.99027C3.61185 3.25409 3.25367 3.61232 2.98989 4.03713C2.77491 4.38334 2.64237 4.8271 2.57243 5.555C2.50141 6.29426 2.5006 7.2454 2.5006 8.58462V14.6872C2.5006 16.2402 3.75937 17.4991 5.31214 17.4991V17.5009C5.32893 17.4997 5.34587 17.4992 5.36294 17.4992C5.77732 17.4992 6.11324 17.8351 6.11324 18.2496C6.11324 18.664 5.77732 19 5.36294 19C5.34587 19 5.32893 18.9994 5.31214 18.9983V19C2.93061 19 1 17.0691 1 14.6872V8.54545C0.999992 7.25413 0.999986 6.23088 1.07872 5.41144C1.15933 4.57236 1.32789 3.86894 1.71512 3.24533C2.10064 2.62446 2.62414 2.10088 3.24491 1.7153C3.86843 1.32802 4.57174 1.15943 5.41069 1.0788C6.23001 1.00006 7.2531 1.00007 8.54424 1.00008L8.66891 1.00004C9.16293 0.9997 9.55227 0.999434 9.92447 1.10562C10.1272 1.16346 10.3226 1.24442 10.5069 1.34691C10.8451 1.53504 11.1203 1.81058 11.4694 2.1602L14.3916 5.08281C14.8862 5.5766 15.2777 5.9674 15.4884 6.47613C15.6991 6.98486 15.6986 7.53806 15.6979 8.23705L15.6978 11.5006C15.6978 11.915 15.3619 12.251 14.9475 12.251C14.5332 12.251 14.1972 11.915 14.1972 11.5006V8.35797C14.1972 7.91092 14.1938 7.63158 14.1797 7.43898C14.0193 7.4508 13.8348 7.45075 13.6556 7.4507L13.5786 7.4507C12.8488 7.45072 12.2399 7.45073 11.7493 7.39654C11.2347 7.3397 10.7602 7.21579 10.3433 6.90483C10.1304 6.74599 9.94153 6.55714 9.78271 6.34416C9.4718 5.92721 9.34791 5.45259 9.29108 4.93795C9.23689 4.44723 9.23691 3.83828 9.23693 3.1084L9.23692 3.03141C9.23687 2.85338 9.23682 2.6702 9.2484 2.51059ZM13.1241 5.94921L10.7382 3.56288C10.7402 4.08198 10.7486 4.46543 10.7826 4.7732C10.825 5.15722 10.8996 5.33154 10.9856 5.4469C11.0578 5.54371 11.1436 5.62955 11.2404 5.70175C11.3558 5.78778 11.5301 5.86237 11.914 5.90478C12.2217 5.93877 12.6051 5.94715 13.1241 5.94921Z"
    fill="currentColor"
  />
</svg>
