<svg
  xmlns="http://www.w3.org/2000/svg"
  width="20"
  height="20"
  viewBox="0 0 20 20"
  fill="none"
>
  <path
    fill-rule="evenodd"
    clip-rule="evenodd"
    d="M9.27632 2.51554C9.13849 2.50717 8.93625 2.5052 8.6004 2.5052C7.26192 2.5052 6.3113 2.50601 5.57244 2.57701C4.84494 2.64692 4.40143 2.77941 4.0554 2.9943C3.63083 3.25797 3.27279 3.61601 3.00912 4.04058C2.79422 4.38661 2.66173 4.83012 2.59183 5.55762C2.52083 6.29648 2.52002 7.2471 2.52002 8.58558V14.8762C2.52002 16.3226 3.69259 17.4953 5.13904 17.4953C5.54965 17.4995 5.88123 17.8336 5.88123 18.2452C5.88123 18.6595 5.54544 18.9952 5.13123 18.9952L5.11938 18.9951C2.85355 18.9846 1.02002 17.1445 1.02002 14.8762V8.54644C1.02001 7.25582 1.02001 6.23314 1.0987 5.41414C1.17929 4.57552 1.34778 3.87249 1.73485 3.24922C2.12022 2.6287 2.64351 2.10541 3.26404 1.72004C3.88731 1.33296 4.59034 1.16447 5.42896 1.08389C6.24796 1.00519 7.27064 1.00519 8.56126 1.0052L8.68588 1.00516C9.1797 1.00483 9.56889 1.00456 9.94094 1.11069C10.1436 1.1685 10.339 1.24941 10.5231 1.35184C10.8613 1.53988 11.1363 1.81526 11.4852 2.16469L14.4063 5.0857C14.47 5.14926 14.5319 5.21111 14.592 5.27173C14.7306 5.41021 14.8731 5.55291 14.9816 5.68374C15.2043 5.93754 15.3828 6.18879 15.5027 6.47825C15.7133 6.9867 15.7128 7.5396 15.7121 8.2382L15.712 11.5C15.712 11.9142 15.3762 12.25 14.962 12.25C14.5478 12.25 14.212 11.9142 14.212 11.5V8.35905C14.212 7.91287 14.2086 7.63384 14.1945 7.44137C14.0368 7.45238 13.8568 7.45233 13.6818 7.45228L13.6048 7.45228C12.8753 7.4523 12.2667 7.45231 11.7763 7.39815C11.2619 7.34134 10.7876 7.2175 10.3708 6.90671C10.158 6.74796 9.96922 6.55921 9.81047 6.34635C9.49968 5.92963 9.37584 5.45527 9.31904 4.94091C9.26487 4.45046 9.26489 3.84185 9.2649 3.11237L9.2649 3.03542C9.26485 2.85774 9.2648 2.67491 9.27632 2.51554ZM13.1506 5.95162L10.7656 3.5666C10.7676 4.08541 10.776 4.46865 10.81 4.77625C10.8524 5.16006 10.9269 5.33429 11.0129 5.44958C11.0851 5.54634 11.1708 5.63213 11.2676 5.70429C11.3829 5.79028 11.5571 5.86483 11.9409 5.90721C12.2485 5.94118 12.6318 5.94956 13.1506 5.95162Z"
    fill="currentColor"
  />
  <path
    fill-rule="evenodd"
    clip-rule="evenodd"
    d="M7.92419 17.1213H8.67126C9.03015 17.1213 9.33899 17.0518 9.59778 16.9126C9.85657 16.7734 10.0543 16.5781 10.191 16.3267C10.3302 16.0728 10.3998 15.7737 10.3998 15.4294C10.3998 15.0876 10.3302 14.7849 10.191 14.5212C10.0543 14.2551 9.85657 14.0464 9.59778 13.895C9.33899 13.7437 9.03015 13.668 8.67126 13.668H7.25486C7.0663 13.668 6.97202 13.668 6.91344 13.7265C6.85486 13.7851 6.85486 13.8794 6.85486 14.068V18.6C6.85486 18.7886 6.85486 18.8828 6.91344 18.9414C6.97202 19 7.0663 19 7.25486 19H7.52419C7.71276 19 7.80704 19 7.86562 18.9414C7.92419 18.8828 7.92419 18.7886 7.92419 18.6V17.1213ZM8.67126 16.2314H7.92419V14.9579C7.92419 14.7693 7.92419 14.675 7.98277 14.6164C8.04135 14.5579 8.13563 14.5579 8.32419 14.5579H8.67126C8.82507 14.5579 8.94836 14.5994 9.04114 14.6824C9.13635 14.7654 9.20593 14.874 9.24988 15.0083C9.29626 15.1401 9.31946 15.283 9.31946 15.4368C9.31946 15.5881 9.29749 15.7249 9.25354 15.8469C9.20959 15.9666 9.13879 16.0605 9.04114 16.1289C8.94592 16.1973 8.82263 16.2314 8.67126 16.2314Z"
    fill="currentColor"
  />
  <path
    fill-rule="evenodd"
    clip-rule="evenodd"
    d="M12.2618 17.1213H13.0089C13.3678 17.1213 13.6766 17.0518 13.9354 16.9126C14.1942 16.7734 14.392 16.5781 14.5287 16.3267C14.6678 16.0728 14.7374 15.7737 14.7374 15.4294C14.7374 15.0876 14.6678 14.7849 14.5287 14.5212C14.392 14.2551 14.1942 14.0464 13.9354 13.895C13.6766 13.7437 13.3678 13.668 13.0089 13.668H11.5925C11.4039 13.668 11.3097 13.668 11.2511 13.7265C11.1925 13.7851 11.1925 13.8794 11.1925 14.068V18.6C11.1925 18.7886 11.1925 18.8828 11.2511 18.9414C11.3097 19 11.4039 19 11.5925 19H11.8618C12.0504 19 12.1447 19 12.2033 18.9414C12.2618 18.8828 12.2618 18.7886 12.2618 18.6V17.1213ZM13.0089 16.2314H12.2618V14.9579C12.2618 14.7693 12.2618 14.675 12.3204 14.6164C12.379 14.5579 12.4733 14.5579 12.6618 14.5579H13.0089C13.1627 14.5579 13.286 14.5994 13.3788 14.6824C13.474 14.7654 13.5436 14.874 13.5875 15.0083C13.6339 15.1401 13.6571 15.283 13.6571 15.4368C13.6571 15.5881 13.6351 15.7249 13.5912 15.8469C13.5472 15.9666 13.4764 16.0605 13.3788 16.1289C13.2836 16.1973 13.1603 16.2314 13.0089 16.2314Z"
    fill="currentColor"
  />
  <path
    d="M16.9886 18.9952H17.2543C17.4429 18.9952 17.5371 18.9952 17.5957 18.9367C17.6543 18.8781 17.6543 18.7838 17.6543 18.5952V14.9531C17.6543 14.7645 17.6543 14.6703 17.7129 14.6117C17.7715 14.5531 17.8657 14.5531 18.0543 14.5531H18.58C18.7685 14.5531 18.8628 14.5531 18.9214 14.4945C18.98 14.4359 18.98 14.3417 18.98 14.1531V14.0632C18.98 13.8746 18.98 13.7804 18.9214 13.7218C18.8628 13.6632 18.7685 13.6632 18.58 13.6632H15.6886C15.5 13.6632 15.4057 13.6632 15.3472 13.7218C15.2886 13.7804 15.2886 13.8746 15.2886 14.0632V14.1531C15.2886 14.3417 15.2886 14.4359 15.3472 14.4945C15.4057 14.5531 15.5 14.5531 15.6886 14.5531H16.1886C16.3772 14.5531 16.4715 14.5531 16.53 14.6117C16.5886 14.6703 16.5886 14.7645 16.5886 14.9531V18.5952C16.5886 18.7838 16.5886 18.8781 16.6472 18.9367C16.7058 18.9952 16.8001 18.9952 16.9886 18.9952Z"
    fill="currentColor"
  />
</svg>
