<svg width="20" height="20" viewBox="0 0 20 20" fill="currentColor" xmlns="http://www.w3.org/2000/svg">
  <path fill-rule="evenodd" d="M8.54501 7.97105L8.53778 7.96364C8.50885 7.93391 8.43931 7.86243 8.36462 7.80638C8.26164 7.72911 8.04664 7.60097 7.75226 7.63877C7.46097 7.67618 7.28521 7.85109 7.20296 7.95389C7.14426 8.02727 7.09478 8.11424 7.07468 8.14957L7.06969 8.15831C6.72532 8.75688 5.71302 10.6518 5.71302 12.4952C5.71302 14.7478 7.7082 16.443 9.99999 16.443C12.2918 16.443 14.287 14.7478 14.287 12.4952C14.287 10.7366 13.0368 9.75704 12.7098 9.52826L12.7084 9.52725C12.7019 9.52271 12.6871 9.51237 12.6719 9.50234C12.6554 9.49145 12.6229 9.47052 12.5811 9.44939C12.4842 9.4004 12.322 9.34285 12.1189 9.37028C11.9043 9.39924 11.7609 9.50755 11.6882 9.57457C11.6339 9.62459 11.5876 9.68279 11.5875 9.68297L10.884 10.5303C10.805 10.4377 10.7188 10.3375 10.626 10.2305C10.1063 9.63127 9.37797 8.81944 8.54501 7.97105ZM10.307 12.1645C10.4471 12.3385 10.6574 12.4403 10.8801 12.442C11.1028 12.4437 11.3146 12.3451 11.4572 12.1733L11.5244 12.0924C11.5348 12.0799 11.5182 12.0999 11.5287 12.0873L12.2975 11.1611C12.5483 11.4601 12.7989 11.9068 12.7989 12.4952C12.7989 13.7782 11.6216 14.949 9.99999 14.949C8.37835 14.949 7.20107 13.7782 7.20107 12.4952C7.20107 11.4597 7.64216 10.3272 8.011 9.56481C8.59778 10.1834 9.11134 10.7592 9.50383 11.2117C9.75652 11.503 9.95841 11.7426 10.0967 11.9087C10.1658 11.9918 10.2189 12.0564 10.2545 12.1L10.2946 12.1491L10.3043 12.1612L10.307 12.1645Z" fill="currentColor" />
  <path fill-rule="evenodd" d="M7.64229 0.000230937C7.14393 -0.00797221 6.76598 0.203261 6.458 0.490764C6.19676 0.734644 5.93933 1.07935 5.67123 1.43836L5.63827 1.48249C4.12546 3.50724 2 7.1413 2 11.6224C2 16.2163 5.54963 20 10 20C14.4504 20 18 16.2163 18 11.6224C18 8.61836 16.7043 5.92096 15.6848 4.3386L15.6657 4.30877C15.5746 4.1672 15.4628 3.99327 15.3451 3.86287C15.1996 3.70171 14.9344 3.48175 14.5363 3.49669C14.1303 3.51193 13.8812 3.76193 13.7521 3.93014C13.6442 4.07074 13.544 4.25553 13.4604 4.40967L12.8339 5.56263C12.7595 5.69965 12.6976 5.81337 12.6422 5.91105C12.5763 5.82016 12.5022 5.71405 12.4131 5.58619L9.63362 1.60039C9.3544 1.19983 9.09375 0.825911 8.83291 0.559915C8.53416 0.255251 8.15642 0.00869379 7.64229 0.000230937ZM6.8286 2.37905C7.14231 1.95919 7.3198 1.72631 7.47125 1.58494C7.57632 1.48685 7.60522 1.49195 7.61539 1.49375L7.61789 1.49408C7.63065 1.49429 7.6332 1.49528 7.64188 1.49973C7.65809 1.50804 7.69972 1.53384 7.77256 1.60812C7.93494 1.77371 8.12422 2.04082 8.44598 2.50223L11.2203 6.4807C11.4029 6.7427 11.5847 7.00355 11.7606 7.19003C11.9526 7.39357 12.2728 7.65595 12.7376 7.62992C13.2025 7.6039 13.4916 7.30742 13.6599 7.08371C13.8141 6.87875 13.9659 6.59924 14.1183 6.31848L14.6057 5.42157C15.5069 6.89752 16.512 9.17581 16.512 11.6224C16.512 15.4571 13.5644 18.506 10 18.506C6.43564 18.506 3.48804 15.4571 3.48804 11.6224C3.48804 7.60573 5.40303 4.28705 6.8286 2.37905Z" fill="currentColor" />
</svg>
