<svg
  xmlns="http://www.w3.org/2000/svg"
  width="20"
  height="20"
  viewBox="0 0 20 20"
  fill="none"
>
  <path
    d="M7.25213 4.66381C6.83437 4.66381 6.49571 5.00248 6.49571 5.42024C6.49571 5.838 6.83437 6.17666 7.25213 6.17666L12.7478 6.17666C13.1656 6.17666 13.5043 5.838 13.5043 5.42024C13.5043 5.00248 13.1656 4.66381 12.7478 4.66381L7.25213 4.66381Z"
    fill="currentColor"
  />
  <path
    fill-rule="evenodd"
    clip-rule="evenodd"
    d="M12.5862 1H8.11197C6.64826 0.999984 5.47301 0.999972 4.54963 1.12412C3.59278 1.25276 2.79398 1.52706 2.16052 2.16052C1.52706 2.79398 1.25276 3.59278 1.12412 4.54963C0.999972 5.47302 0.999984 6.64826 1 8.11196V11.888C0.999984 13.3517 0.999972 14.527 1.12412 15.4504C1.25276 16.4072 1.52706 17.206 2.16052 17.8395C2.79398 18.4729 3.59278 18.7472 4.54963 18.8759C5.47302 19 6.64826 19 8.11197 19H11.888C13.3517 19 14.527 19 15.4504 18.8759C16.4072 18.7472 17.206 18.4729 17.8395 17.8395C18.4729 17.206 18.7472 16.4072 18.8759 15.4504C19 14.527 19 13.3517 19 11.888L19 8.63678C19.0001 7.60708 19.0002 6.96005 18.8461 6.33233C18.8211 6.23059 18.7931 6.12961 18.7622 6.02951C18.5714 5.41194 18.2384 4.85714 17.7085 3.97421L17.6412 3.86202C17.3076 3.306 17.0325 2.84754 16.7718 2.48765C16.4985 2.11041 16.2119 1.79893 15.8348 1.55655C15.7245 1.4856 15.6102 1.42091 15.4926 1.36278C15.0908 1.16417 14.6762 1.07864 14.2121 1.03839C13.7694 0.999986 13.2347 0.999992 12.5862 1ZM4.75121 2.62348C5.56208 2.51446 6.63543 2.51285 8.16809 2.51285H12.5536C13.2426 2.51285 13.7116 2.5135 14.0814 2.54558C14.4373 2.57645 14.6486 2.63316 14.8223 2.71901C14.8891 2.75205 14.9541 2.78881 15.0168 2.82913C15.1798 2.93391 15.3371 3.08588 15.5467 3.37518C15.7644 3.6758 16.0063 4.07763 16.3608 4.66841C16.9569 5.66194 17.1864 6.0543 17.3168 6.47609C17.3389 6.54781 17.359 6.62016 17.3769 6.69306C17.4821 7.12179 17.4871 7.57634 17.4871 8.73499V11.8319C17.4871 13.3646 17.4855 14.4379 17.3765 15.2488C17.2704 16.0379 17.0753 16.4642 16.7697 16.7697C16.4757 17.0638 16.0697 17.2556 15.3362 17.3642L15.3362 15.4434C15.3362 14.6243 15.3362 13.9342 15.2624 13.3848C15.184 12.8021 15.0103 12.2659 14.5781 11.8336C14.1458 11.4013 13.6095 11.2276 13.0268 11.1493C12.4774 11.0754 11.7874 11.0755 10.9682 11.0755H9.03172C8.21256 11.0755 7.52254 11.0754 6.97314 11.1493C6.39045 11.2276 5.85417 11.4013 5.4219 11.8336C4.98964 12.2659 4.81595 12.8021 4.73761 13.3848C4.66375 13.9342 4.66377 14.6243 4.6638 15.4434L4.6638 17.3642C3.93028 17.2556 3.52432 17.0638 3.23026 16.7697C2.92473 16.4642 2.72956 16.0379 2.62347 15.2488C2.51446 14.4379 2.51285 13.3646 2.51285 11.8319V8.1681C2.51285 6.63543 2.51446 5.56208 2.62347 4.75122C2.72956 3.96214 2.92473 3.5358 3.23026 3.23027C3.5358 2.92473 3.96214 2.72956 4.75121 2.62348ZM7.17473 12.6487C7.61145 12.5899 8.19902 12.5883 9.08403 12.5883H10.9159C11.8009 12.5883 12.3885 12.5899 12.8252 12.6487C13.2401 12.7044 13.404 12.799 13.5083 12.9033C13.6127 13.0077 13.7072 13.1715 13.763 13.5864C13.8217 14.0231 13.8233 14.6107 13.8233 15.4957V17.4724C13.2585 17.4868 12.6031 17.4872 11.8319 17.4872H8.16809C7.39688 17.4872 6.74149 17.4868 6.17665 17.4724V15.4957C6.17665 14.6107 6.17825 14.0231 6.23697 13.5864C6.29275 13.1715 6.3873 13.0077 6.49165 12.9033C6.59599 12.799 6.75983 12.7044 7.17473 12.6487Z"
    fill="currentColor"
  />
</svg>
