<svg
  xmlns="http://www.w3.org/2000/svg"
  width="20"
  height="20"
  viewBox="0 0 20 20"
  fill="none"
>
  <path
    fill-rule="evenodd"
    clip-rule="evenodd"
    d="M7.59649 2.20712C7.1013 1.9989 6.56109 1.99943 5.90223 2.00007L4.40473 2.00015C3.57847 2.00013 2.88265 2.0001 2.32868 2.07318C1.74129 2.15066 1.20066 2.32242 0.764782 2.75008C0.328737 3.1779 0.153453 3.70882 0.0744029 4.28569C-0.000108443 4.82945 -8.6318e-05 5.51233 -6.00534e-05 6.32281V11.8675C-7.76316e-05 13.1029 -9.19029e-05 14.1058 0.108223 14.8963C0.221095 15.72 0.464024 16.4241 1.03535 16.9846C1.6065 17.545 2.32363 17.7831 3.16259 17.8938C3.96798 18 4.98996 18 6.24924 18H13.7506C15.0099 18 16.0319 18 16.8373 17.8938C17.6762 17.7831 18.3934 17.545 18.9645 16.9846C19.5359 16.4241 19.7788 15.72 19.8917 14.8963C20 14.1058 20 13.1029 19.9999 11.8676V9.94525C20 8.70992 20 7.70702 19.8917 6.91657C19.7788 6.09287 19.5359 5.38878 18.9645 4.82823C18.3934 4.26785 17.6762 4.02972 16.8373 3.91905C16.0319 3.81281 15.0099 3.81283 13.7506 3.81285L9.91196 3.81285C9.70521 3.81285 9.5933 3.81232 9.5104 3.80596C9.47855 3.80352 9.46094 3.80081 9.45243 3.79919C9.44539 3.79427 9.43131 3.78367 9.40764 3.76281C9.34583 3.70835 9.26832 3.62926 9.12572 3.48235L8.91807 3.26831C8.46414 2.79975 8.09181 2.4154 7.59649 2.20712ZM2.53152 3.55817C2.97211 3.50005 3.56483 3.49846 4.45735 3.49846H5.77701C6.19718 3.49846 6.45946 3.50169 6.63988 3.51453C6.81901 3.52729 6.91256 3.54925 6.99669 3.58462C7.08078 3.61998 7.16142 3.67125 7.29427 3.78964C7.42812 3.90891 7.61134 4.09298 7.90112 4.39152L8.02247 4.51653L8.07901 4.57502C8.29012 4.79381 8.52924 5.04163 8.85227 5.17747C9.17518 5.31324 9.52276 5.31222 9.82977 5.31132L9.91196 5.31115H13.695C15.023 5.31115 15.9423 5.31274 16.6344 5.40404C17.3047 5.49246 17.6467 5.6525 17.8873 5.88854C18.1277 6.12441 18.2906 6.45944 18.3806 7.11653C18.4736 7.79534 18.4753 8.69706 18.4753 10.0001V11.8128C18.4753 13.1158 18.4736 14.0175 18.3806 14.6963C18.2906 15.3534 18.1277 15.6884 17.8873 15.9243C17.6467 16.1603 17.3047 16.3204 16.6344 16.4088C15.9423 16.5001 15.023 16.5017 13.695 16.5017H6.30488C4.97692 16.5017 4.05758 16.5001 3.36543 16.4088C2.69513 16.3204 2.35318 16.1603 2.1126 15.9243C1.87219 15.6884 1.7093 15.3534 1.61926 14.6963C1.52624 14.0175 1.52462 13.1158 1.52462 11.8128V6.37469C1.52462 5.49891 1.52624 4.91765 1.58544 4.48566C1.64166 4.07541 1.73689 3.91355 1.84204 3.81039C1.94735 3.70706 2.11282 3.6134 2.53152 3.55817Z"
    fill="currentColor"
  />
  <path
    d="M9.5425 14.3862C9.67433 14.5013 9.8468 14.571 10.0356 14.571C10.2543 14.571 10.4512 14.4773 10.5883 14.3279L12.5441 12.266C12.8291 11.9655 12.8166 11.4908 12.5161 11.2057C12.2156 10.9207 11.7409 10.9332 11.4558 11.2337L10.7855 11.9404L10.7855 8.74999C10.7855 8.33578 10.4497 7.99999 10.0355 8C9.62124 8.00001 9.28546 8.3358 9.28547 8.75001L9.28551 11.9879L8.53478 11.2241C8.24443 10.9287 7.76957 10.9246 7.47415 11.2149C7.17874 11.5053 7.17463 11.9801 7.46498 12.2756L9.50056 14.3467C9.51054 14.3568 9.52078 14.3666 9.53127 14.3762C9.53498 14.3795 9.53872 14.3829 9.5425 14.3862Z"
    fill="currentColor"
  />
</svg>
