<svg
  xmlns="http://www.w3.org/2000/svg"
  width="20"
  height="20"
  viewBox="0 0 20 20"
  fill="none"
>
  <path
    fill-rule="evenodd"
    clip-rule="evenodd"
    d="M6.54356 1H5.37683C4.56054 0.999976 3.87093 0.999955 3.32143 1.07383C2.73783 1.1523 2.19785 1.32663 1.76224 1.76224C1.32663 2.19785 1.1523 2.73783 1.07383 3.32143C0.999955 3.87093 0.999976 4.56048 1 5.37677V12.7983C0.999985 14.0429 0.999971 15.0553 1.10729 15.8535C1.21922 16.686 1.46048 17.4006 2.02993 17.9701C2.59937 18.5395 3.31398 18.7808 4.14647 18.8927C4.94475 19 5.95705 19 7.20173 19H12.7983C14.043 19 15.0553 19 15.8535 18.8927C16.686 18.7808 17.4006 18.5395 17.9701 17.9701C18.5395 17.4006 18.7808 16.686 18.8927 15.8535C19 15.0553 19 14.043 19 12.7983V10.4005C19 9.15583 19 8.14353 18.8927 7.34525C18.7808 6.51276 18.5395 5.79815 17.9701 5.22871C17.4006 4.65926 16.686 4.418 15.8535 4.30607C15.0553 4.19875 14.043 4.19877 12.7983 4.19878L11.5177 4.19878C11.2437 4.19878 11.0942 4.19791 10.9851 4.18711C10.9515 4.18379 10.9306 4.18021 10.9187 4.17768C10.9106 4.1686 10.8972 4.15227 10.8776 4.1247C10.8141 4.03534 10.7392 3.90601 10.6032 3.66806L10.3364 3.20108C10.0947 2.77812 9.88601 2.41293 9.68211 2.12595C9.46334 1.81806 9.21648 1.54999 8.87457 1.35157C8.53266 1.15315 8.17743 1.07182 7.80157 1.03463C7.45127 0.999976 7.03064 0.999987 6.54356 1ZM3.52785 2.60914C3.96198 2.55078 4.54667 2.54913 5.43032 2.54913H6.50758C7.04035 2.54913 7.38395 2.55 7.64905 2.57623C7.89714 2.60078 8.01344 2.64291 8.09703 2.69142C8.18061 2.73993 8.2749 2.82 8.4193 3.02323C8.57359 3.24038 8.74483 3.53828 9.00915 4.00085L9.27319 4.46291C9.38879 4.66527 9.50151 4.86259 9.61476 5.02197C9.74274 5.20209 9.90431 5.38312 10.1398 5.51981C10.3754 5.6565 10.6127 5.70696 10.8326 5.72871C11.0272 5.74797 11.2553 5.74794 11.4884 5.74791L12.7418 5.74791C14.0563 5.74791 14.9641 5.74956 15.6471 5.84138C16.3078 5.93021 16.641 6.09045 16.8747 6.3241C17.1083 6.55776 17.2686 6.89098 17.3574 7.55167C17.4492 8.23468 17.4509 9.14252 17.4509 10.457V12.7418C17.4509 14.0563 17.4492 14.9641 17.3574 15.6471C17.2686 16.3078 17.1083 16.641 16.8747 16.8747C16.641 17.1083 16.3078 17.2686 15.6471 17.3574C14.9641 17.4492 14.0563 17.4509 12.7418 17.4509H7.25819C5.94374 17.4509 5.0359 17.4492 4.35289 17.3574C3.6922 17.2686 3.35898 17.1083 3.12532 16.8747C2.89167 16.641 2.73143 16.3078 2.6426 15.6471C2.55077 14.9641 2.54913 14.0563 2.54913 12.7418V5.43032C2.54913 4.54667 2.55078 3.96198 2.60914 3.52785C2.6645 3.11609 2.7578 2.95747 2.85764 2.85764C2.95747 2.7578 3.11609 2.6645 3.52785 2.60914Z"
    fill="currentColor"
  />
  <path
    d="M13.1521 9.12983C12.8081 8.89439 12.3422 8.98823 12.1118 9.33794L9.59249 13.1622L8.29464 11.7592C8.01077 11.4524 7.53599 11.4381 7.23479 11.7275C6.93427 12.0163 6.92044 12.4981 7.20367 12.8043L8.54708 14.2565C8.66927 14.3887 8.8099 14.5409 8.94664 14.6517C9.10786 14.7824 9.37461 14.9492 9.73507 14.9189C10.0955 14.8886 10.3317 14.6795 10.4696 14.5237C10.5866 14.3916 10.7009 14.2181 10.8001 14.0672L13.3563 10.1869C13.5862 9.83791 13.4954 9.36477 13.1521 9.12983Z"
    fill="currentColor"
  />
</svg>
