<svg
  xmlns="http://www.w3.org/2000/svg"
  width="20"
  height="20"
  viewBox="0 0 20 20"
  fill="none"
>
  <path
    fill-rule="evenodd"
    clip-rule="evenodd"
    d="M13.6281 10.6114C13.6167 10.638 13.6051 10.665 13.5934 10.6926C13.2882 11.4066 12.8464 12.1889 12.2102 12.7291C11.7809 13.0937 11.2332 13.3728 10.7098 13.585C11.2332 13.7971 11.7809 14.0762 12.2102 14.4408C12.8464 14.9811 13.2882 15.7634 13.5934 16.4773C13.6051 16.5049 13.6167 16.5319 13.6281 16.5585C13.6394 16.5319 13.651 16.5049 13.6627 16.4773C13.9679 15.7634 14.4097 14.9811 15.0459 14.4408C15.4752 14.0762 16.0229 13.7971 16.5463 13.585C16.0229 13.3728 15.4752 13.0937 15.0459 12.7291C14.4097 12.1889 13.9679 11.4066 13.6627 10.6926C13.651 10.665 13.6394 10.638 13.6281 10.6114ZM13.1185 8.4388C13.2117 8.36732 13.3869 8.26208 13.6281 8.26208C13.8692 8.26208 14.0444 8.36732 14.1376 8.4388C14.2321 8.51134 14.2992 8.59235 14.3417 8.64908C14.427 8.76298 14.5007 8.89933 14.5628 9.0237C14.6879 9.27458 14.8429 9.63717 15.031 10.0773L15.042 10.103C15.3114 10.7332 15.6409 11.2665 16.0168 11.5858C16.2952 11.8222 16.7191 12.044 17.2174 12.2375L17.2458 12.2485C17.6608 12.4096 18.0086 12.5447 18.2508 12.6576C18.371 12.7136 18.5092 12.7839 18.6266 12.8707C18.6858 12.9145 18.7698 12.984 18.8442 13.0839C18.9207 13.1866 19.0132 13.358 19.0132 13.585C19.0132 13.8119 18.9207 13.9833 18.8442 14.086C18.7698 14.1859 18.6858 14.2555 18.6266 14.2992C18.5092 14.386 18.371 14.4563 18.2508 14.5124C18.0086 14.6253 17.6608 14.7603 17.2458 14.9214L17.2174 14.9324C16.7191 15.1259 16.2952 15.3477 16.0168 15.5841C15.6409 15.9034 15.3114 16.4367 15.042 17.0669L15.031 17.0926C14.8429 17.5327 14.6879 17.8953 14.5628 18.1462C14.5007 18.2706 14.427 18.4069 14.3417 18.5208C14.2992 18.5776 14.2321 18.6586 14.1376 18.7311C14.0444 18.8026 13.8692 18.9078 13.6281 18.9078C13.3869 18.9078 13.2117 18.8026 13.1185 18.7311C13.024 18.6586 12.9569 18.5776 12.9144 18.5208C12.8291 18.4069 12.7554 18.2706 12.6933 18.1462C12.5682 17.8953 12.4132 17.5328 12.2251 17.0926L12.2141 17.0669C11.9447 16.4367 11.6152 15.9034 11.2393 15.5841C10.9609 15.3477 10.537 15.1259 10.0387 14.9324L10.0103 14.9214C9.59534 14.7603 9.2475 14.6253 9.00532 14.5124C8.88514 14.4563 8.74695 14.386 8.62949 14.2992C8.57026 14.2555 8.48627 14.1859 8.41192 14.086C8.33543 13.9833 8.24291 13.8119 8.24291 13.585C8.24291 13.358 8.33543 13.1866 8.41192 13.0839C8.48627 12.984 8.57026 12.9145 8.62949 12.8707C8.74695 12.7839 8.88514 12.7136 9.00532 12.6576C9.2475 12.5447 9.59535 12.4096 10.0104 12.2485L10.0387 12.2375C10.537 12.044 10.9609 11.8222 11.2393 11.5858C11.6152 11.2665 11.9447 10.7332 12.2141 10.103L12.2251 10.0773C12.4132 9.63716 12.5682 9.27457 12.6933 9.0237C12.7554 8.89933 12.8291 8.76298 12.9144 8.64908C12.9569 8.59235 13.024 8.51134 13.1185 8.4388Z"
    fill="currentColor"
  />
  <path
    fill-rule="evenodd"
    clip-rule="evenodd"
    d="M5.70545 0.888185L6.33977 0.888185C6.87624 0.888168 7.33247 0.888153 7.71099 0.925602C8.1142 0.965495 8.48784 1.05202 8.84569 1.25968C9.20354 1.46735 9.46404 1.74884 9.69873 2.07913C9.91904 2.3892 10.1454 2.78532 10.4115 3.25111L10.533 3.4637C10.6808 3.72227 10.7655 3.8688 10.8384 3.97144C10.8711 4.01745 10.8916 4.04016 10.9025 4.05091C10.9075 4.05595 10.9113 4.0589 10.9113 4.0589L10.9125 4.05976L10.9139 4.0604C10.9139 4.0604 10.9183 4.06217 10.9252 4.0641C10.9399 4.0682 10.9698 4.07473 11.026 4.08029C11.1513 4.09268 11.3205 4.09353 11.6183 4.09353L12.9919 4.09353C14.03 4.09352 14.8671 4.09351 15.5381 4.16299C16.2309 4.23474 16.8309 4.38698 17.3591 4.74829C17.743 5.01086 18.0747 5.34256 18.3373 5.72646C18.6986 6.2547 18.8509 6.85472 18.9226 7.54753C18.9921 8.21853 18.9921 9.05562 18.9921 10.0937V10.1349C18.9921 10.5492 18.6563 10.8849 18.2421 10.8849C17.8279 10.8849 17.4921 10.5492 17.4921 10.1349C17.4921 9.04595 17.4911 8.28671 17.4306 7.70204C17.3714 7.1303 17.2617 6.81086 17.0992 6.57328C16.9417 6.34295 16.7426 6.14393 16.5123 5.98639C16.2747 5.82389 15.9553 5.71422 15.3836 5.65502C14.7989 5.59447 14.0396 5.59353 12.9507 5.59353L11.5888 5.59353C11.3311 5.59356 11.0864 5.59359 10.8783 5.573C10.6457 5.54999 10.4011 5.49724 10.1596 5.35712C9.91816 5.217 9.75098 5.03074 9.61563 4.84026C9.49449 4.66978 9.37311 4.45729 9.24528 4.23354L9.12654 4.02573C8.8383 3.52132 8.64823 3.1904 8.47597 2.94795C8.31329 2.71901 8.20052 2.61956 8.0928 2.55705C7.98508 2.49454 7.84279 2.44597 7.5633 2.41831C7.26733 2.38903 6.88571 2.38819 6.30475 2.38819H5.75745C4.79344 2.38819 4.14588 2.38978 3.66284 2.45472C3.20138 2.51676 3.00388 2.62399 2.87357 2.7543C2.74325 2.88462 2.63603 3.08212 2.57398 3.54358C2.50904 4.02661 2.50745 4.67417 2.50745 5.63819V12.6279C2.50745 13.8157 2.50856 14.6438 2.57993 15.2782C2.64961 15.8975 2.77826 16.2388 2.97057 16.4901C3.09129 16.6479 3.23237 16.789 3.39013 16.9097C3.64145 17.102 3.98275 17.2306 4.60206 17.3003C5.23643 17.3717 6.06459 17.3728 7.25232 17.3728H10.0148C10.429 17.3728 10.7648 17.7086 10.7648 18.1228C10.7648 18.537 10.429 18.8728 10.0148 18.8728H7.20727C6.07521 18.8728 5.16242 18.8728 4.43435 18.7909C3.68159 18.7062 3.03424 18.5261 2.47859 18.1009C2.21565 17.8997 1.98051 17.6646 1.77931 17.4017C1.35413 16.846 1.17403 16.1987 1.08934 15.4459C1.00742 14.7178 1.00743 13.8051 1.00745 12.673L1.00745 5.58619C1.00742 4.68771 1.00739 3.93849 1.08736 3.34371C1.17176 2.71591 1.35743 2.14911 1.8129 1.69364C2.26837 1.23817 2.83517 1.0525 3.46297 0.968097C4.05775 0.888131 4.80697 0.888155 5.70545 0.888185Z"
    fill="currentColor"
  />
</svg>
