<svg
  xmlns="http://www.w3.org/2000/svg"
  width="20"
  height="20"
  viewBox="0 0 20 20"
  fill="none"
>
  <path
    fill-rule="evenodd"
    clip-rule="evenodd"
    d="M3.50543 8.35302H1.7437C1.333 8.35302 1.00006 8.0207 1.00006 7.61075C1.00006 7.20081 1.333 6.86849 1.7437 6.86849L3.45387 6.86848C4.40971 6.86848 5.05178 6.86691 5.53072 6.80263C5.98827 6.74123 6.18409 6.63511 6.3133 6.50614C6.44251 6.37717 6.54883 6.18171 6.61034 5.725C6.67473 5.24695 6.67631 4.60606 6.67631 3.65199V1.74227C6.67631 1.33232 7.00925 1 7.41995 1C7.83065 1 8.16359 1.33232 8.16359 1.74227L8.16359 3.70345C8.16362 4.59267 8.16365 5.33417 8.08436 5.92281C8.00067 6.54414 7.81657 7.10509 7.36497 7.55587C6.91336 8.00664 6.35137 8.1904 5.7289 8.27393C5.13916 8.35307 4.39629 8.35305 3.50543 8.35302Z"
    fill="currentColor"
  />
  <path
    fill-rule="evenodd"
    clip-rule="evenodd"
    d="M16.4947 8.35302L18.2564 8.35302C18.6671 8.35302 19.0001 8.0207 19.0001 7.61075C19.0001 7.20081 18.6671 6.86849 18.2564 6.86849H16.5462C15.5904 6.86849 14.9483 6.86691 14.4694 6.80264C14.0119 6.74123 13.816 6.63512 13.6868 6.50614C13.5576 6.37717 13.4513 6.18171 13.3898 5.72501C13.3254 5.24695 13.3238 4.60606 13.3238 3.65199V1.74227C13.3238 1.33233 12.9909 1 12.5802 1C12.1695 1 11.8365 1.33233 11.8365 1.74227L11.8365 3.70345C11.8365 4.59267 11.8365 5.33417 11.9158 5.92282C11.9995 6.54414 12.1835 7.10509 12.6352 7.55587C13.0868 8.00664 13.6488 8.1904 14.2712 8.27393C14.861 8.35308 15.6038 8.35305 16.4947 8.35302Z"
    fill="currentColor"
  />
  <path
    fill-rule="evenodd"
    clip-rule="evenodd"
    d="M16.4947 11.8401L18.2564 11.8401C18.6671 11.8401 19.0001 12.1725 19.0001 12.5824C19.0001 12.9923 18.6671 13.3247 18.2564 13.3247H16.5462C15.5904 13.3247 14.9483 13.3262 14.4694 13.3905C14.0119 13.4519 13.816 13.558 13.6868 13.687C13.5576 13.816 13.4513 14.0114 13.3898 14.4681C13.3254 14.9462 13.3238 15.5871 13.3238 16.5412V18.2482C13.3238 18.6581 12.9909 18.9904 12.5802 18.9904C12.1695 18.9904 11.8365 18.6581 11.8365 18.2482L11.8365 16.4897C11.8365 15.6005 11.8365 14.859 11.9158 14.2703C11.9995 13.649 12.1835 13.0881 12.6352 12.6373C13.0868 12.1865 13.6488 12.0028 14.2712 11.9192C14.861 11.8401 15.6038 11.8401 16.4947 11.8401Z"
    fill="currentColor"
  />
  <path
    fill-rule="evenodd"
    clip-rule="evenodd"
    d="M3.50543 11.8401L1.7437 11.8401C1.333 11.8401 1.00006 12.1725 1.00006 12.5824C1.00006 12.9923 1.333 13.3247 1.7437 13.3247L3.45387 13.3247C4.40971 13.3247 5.05178 13.3262 5.53072 13.3905C5.98827 13.4519 6.18409 13.558 6.3133 13.687C6.44251 13.816 6.54883 14.0114 6.61034 14.4682C6.67473 14.9462 6.67631 15.5871 6.67631 16.5412V18.2577C6.67631 18.6677 7.00925 19 7.41995 19C7.83065 19 8.16359 18.6677 8.16359 18.2577L8.16359 16.4897C8.16362 15.6005 8.16365 14.859 8.08436 14.2703C8.00067 13.649 7.81657 13.0881 7.36497 12.6373C6.91336 12.1865 6.35137 12.0028 5.72889 11.9192C5.13916 11.8401 4.39629 11.8401 3.50543 11.8401Z"
    fill="currentColor"
  />
</svg>
