<svg
  xmlns="http://www.w3.org/2000/svg"
  width="20"
  height="20"
  viewBox="0 0 20 20"
  fill="none"
>
  <path
    fill-rule="evenodd"
    clip-rule="evenodd"
    d="M5.71259 1L6.77702 1C7.19252 1 7.52935 1.33779 7.52935 1.75446C7.52935 2.17114 7.19252 2.50893 6.77702 2.50893H5.76475C4.79775 2.50893 4.14818 2.51053 3.66364 2.57586C3.20075 2.63827 3.00264 2.74613 2.87191 2.87722C2.74119 3.00831 2.63364 3.20698 2.5714 3.67119C2.50626 4.1571 2.50466 4.80851 2.50466 5.77826V6.79339C2.50466 7.21007 2.16783 7.54786 1.75233 7.54786C1.33683 7.54786 1 7.21007 1 6.79339L1 5.72595C0.999972 4.82213 0.999947 4.06845 1.08016 3.47013C1.16483 2.8386 1.35108 2.26843 1.80796 1.81025C2.26484 1.35207 2.8334 1.1653 3.46315 1.08039C4.05978 0.999947 4.81132 0.999972 5.71259 1Z"
    fill="currentColor"
  />
  <path
    fill-rule="evenodd"
    clip-rule="evenodd"
    d="M14.2874 1L13.1721 1C12.7566 1 12.4197 1.33779 12.4197 1.75446C12.4197 2.17114 12.7566 2.50893 13.1721 2.50893H14.2352C15.2023 2.50893 15.8518 2.51053 16.3364 2.57586C16.7993 2.63827 16.9974 2.74613 17.1281 2.87722C17.2588 3.00831 17.3664 3.20698 17.4286 3.67119C17.4937 4.1571 17.4953 4.80851 17.4953 5.77826V6.79339C17.4953 7.21007 17.8322 7.54786 18.2477 7.54786C18.6632 7.54786 19 7.21007 19 6.79339V5.72595C19 4.82213 19.0001 4.06845 18.9198 3.47013C18.8352 2.8386 18.6489 2.26843 18.192 1.81025C17.7352 1.35207 17.1666 1.1653 16.5369 1.08039C15.9402 0.999947 15.1887 0.999972 14.2874 1Z"
    fill="currentColor"
  />
  <path
    fill-rule="evenodd"
    clip-rule="evenodd"
    d="M14.2874 19H13.1721C12.7566 19 12.4197 18.6622 12.4197 18.2455C12.4197 17.8289 12.7566 17.4911 13.1721 17.4911H14.2352C15.2023 17.4911 15.8518 17.4895 16.3364 17.4241C16.7993 17.3617 16.9974 17.2539 17.1281 17.1228C17.2588 16.9917 17.3664 16.793 17.4286 16.3288C17.4937 15.8429 17.4953 15.1915 17.4953 14.2217V13.2066C17.4953 12.7899 17.8322 12.4521 18.2477 12.4521C18.6632 12.4521 19 12.7899 19 13.2066V14.274C19 15.1779 19.0001 15.9315 18.9198 16.5299C18.8352 17.1614 18.6489 17.7316 18.192 18.1898C17.7352 18.6479 17.1666 18.8347 16.5369 18.9196C15.9402 19.0001 15.1887 19 14.2874 19Z"
    fill="currentColor"
  />
  <path
    fill-rule="evenodd"
    clip-rule="evenodd"
    d="M5.90747 18.8114H6.92099C7.33649 18.8114 7.67332 18.4736 7.67332 18.0569C7.67332 17.6402 7.33649 17.3025 6.92099 17.3025H5.95963C4.99263 17.3025 4.34305 17.3009 3.85852 17.2355C3.39562 17.1731 3.19751 17.0653 3.06679 16.9342C2.93607 16.8031 2.82852 16.6044 2.76628 16.1402C2.70114 15.6543 2.69954 15.0029 2.69954 14.0331V13.018C2.69954 12.6013 2.36271 12.2635 1.94721 12.2635C1.53171 12.2635 1.19488 12.6013 1.19488 13.018L1.19488 14.0854C1.19485 14.9893 1.19483 15.7429 1.27504 16.3413C1.35971 16.9728 1.54595 17.543 2.00284 18.0011C2.45972 18.4593 3.02828 18.6461 3.65803 18.731C4.25465 18.8114 5.0062 18.8114 5.90747 18.8114Z"
    fill="currentColor"
  />
</svg>
