<svg width="20" height="20" viewBox="0 0 20 20" fill="currentcolor" xmlns="http://www.w3.org/2000/svg">
  <path d="M15.7558 11C15.7558 11.5523 15.3003 12 14.7384 12C14.1765 12 13.7209 11.5523 13.7209 11C13.7209 10.4477 14.1765 10 14.7384 10C15.3003 10 15.7558 10.4477 15.7558 11Z" fill="currentcolor" />
  <path d="M13.8954 13.7429C13.8954 14.2951 13.4398 14.7429 12.8779 14.7429C12.316 14.7429 11.8605 14.2951 11.8605 13.7429C11.8605 13.1906 12.316 12.7429 12.8779 12.7429C13.4398 12.7429 13.8954 13.1906 13.8954 13.7429Z" fill="currentcolor" />
  <path d="M5.81397 10.2286C6.19929 10.2286 6.51165 10.5356 6.51165 10.9143V11.6H7.20932C7.59463 11.6 7.90699 11.907 7.90699 12.2857C7.90699 12.6644 7.59463 12.9714 7.20932 12.9714H6.51165V13.6571C6.51165 14.0359 6.19929 14.3429 5.81397 14.3429C5.42866 14.3429 5.1163 14.0359 5.1163 13.6571V12.9714H4.41862C4.03331 12.9714 3.72095 12.6644 3.72095 12.2857C3.72095 11.907 4.03331 11.6 4.41862 11.6H5.1163V10.9143C5.1163 10.5356 5.42866 10.2286 5.81397 10.2286Z" fill="currentcolor" />
  <path fill-rule="evenodd" d="M8.15247 2C7.73258 2 7.39013 2.33428 7.39013 2.74916V2.78191C7.39012 3.20725 7.39011 3.57314 7.41443 3.85945C7.43776 4.13418 7.49116 4.49089 7.71616 4.78524C7.97606 5.12525 8.34043 5.23321 8.62549 5.27464C8.87688 5.31118 9.18545 5.31111 9.49216 5.31104L9.53811 5.31103C9.6268 5.31103 9.66427 5.3254 9.67129 5.3284L9.6734 5.32936L9.67432 5.33045C9.68909 5.34838 9.73816 5.43155 9.76106 5.65619C9.78295 5.87094 9.7733 6.12771 9.752 6.42026C9.74938 6.45627 9.7465 6.49355 9.74349 6.53178H5.84305C2.61716 6.53178 0 9.0979 0 12.2659C0 15.4339 2.61716 18 5.84305 18H14.1569C17.3828 18 20 15.4339 20 12.2659C20 9.0979 17.3828 6.53178 14.1569 6.53178H11.2724L11.2728 6.52716C11.2948 6.22484 11.314 5.85854 11.2781 5.50685C11.2433 5.16499 11.148 4.73834 10.8597 4.38809C10.5397 3.99935 10.0741 3.81271 9.5381 3.81271C9.24776 3.81271 9.06654 3.81154 8.94059 3.80215C8.93826 3.78242 8.93596 3.76005 8.93382 3.73482C8.91545 3.51857 8.91481 3.21619 8.91481 2.74916C8.91481 2.33428 8.57236 2 8.15247 2ZM1.52468 12.2659C1.52468 9.92765 3.45694 8.03009 5.84305 8.03009H14.1569C16.5431 8.03009 18.4753 9.92765 18.4753 12.2659C18.4753 14.6041 16.5431 16.5017 14.1569 16.5017H5.84305C3.45694 16.5017 1.52468 14.6041 1.52468 12.2659Z" fill="currentcolor" />
</svg>
