<svg
  xmlns="http://www.w3.org/2000/svg"
  width="20"
  height="20"
  viewBox="0 0 20 20"
  fill="none"
>
  <path
    fill-rule="evenodd"
    clip-rule="evenodd"
    d="M5.15082 1H5.22418C5.86545 0.999985 6.40058 0.999973 6.83471 1.04233C7.28874 1.08664 7.71121 1.18284 8.09624 1.42665C8.43978 1.6442 8.7308 1.93522 8.94835 2.27876C9.19217 2.66379 9.28837 3.08626 9.33267 3.5403C9.37503 3.97442 9.37502 4.50956 9.375 5.15083V5.22418C9.37502 5.86545 9.37503 6.40058 9.33267 6.83471C9.28837 7.28874 9.19217 7.71121 8.94835 8.09624C8.7308 8.43978 8.43978 8.7308 8.09624 8.94835C7.71121 9.19217 7.28874 9.28837 6.83471 9.33267C6.40058 9.37503 5.86545 9.37502 5.22418 9.375H5.15083C4.50956 9.37502 3.97442 9.37503 3.5403 9.33267C3.08626 9.28837 2.66379 9.19217 2.27876 8.94835C1.93522 8.7308 1.6442 8.43978 1.42665 8.09624C1.18284 7.71121 1.08664 7.28874 1.04233 6.83471C0.999973 6.40058 0.999985 5.86545 1 5.22418V5.15082C0.999985 4.50955 0.999973 3.97442 1.04233 3.5403C1.08664 3.08626 1.18284 2.66379 1.42665 2.27876C1.6442 1.93522 1.93522 1.6442 2.27876 1.42665C2.66379 1.18284 3.08626 1.08664 3.5403 1.04233C3.97442 0.999973 4.50955 0.999985 5.15082 1ZM3.68597 2.53524C3.34501 2.56851 3.18623 2.62746 3.08125 2.69393C2.9251 2.79282 2.79282 2.9251 2.69393 3.08125C2.62746 3.18623 2.56851 3.34501 2.53524 3.68597C2.50083 4.03859 2.5 4.50008 2.5 5.1875C2.5 5.87493 2.50083 6.33641 2.53524 6.68903C2.56851 7.02999 2.62746 7.18877 2.69393 7.29375C2.79282 7.4499 2.9251 7.58218 3.08125 7.68107C3.18623 7.74754 3.34501 7.80649 3.68597 7.83976C4.03859 7.87417 4.50008 7.875 5.1875 7.875C5.87493 7.875 6.33641 7.87417 6.68903 7.83976C7.02999 7.80649 7.18877 7.74754 7.29375 7.68107C7.4499 7.58218 7.58218 7.4499 7.68107 7.29375C7.74754 7.18877 7.80649 7.02999 7.83976 6.68903C7.87417 6.33641 7.875 5.87493 7.875 5.1875C7.875 4.50008 7.87417 4.03859 7.83976 3.68597C7.80649 3.34501 7.74754 3.18623 7.68107 3.08125C7.58218 2.9251 7.4499 2.79282 7.29375 2.69393C7.18877 2.62746 7.02999 2.56851 6.68903 2.53524C6.33641 2.50083 5.87493 2.5 5.1875 2.5C4.50008 2.5 4.03859 2.50083 3.68597 2.53524Z"
    fill="currentColor"
  />
  <path
    fill-rule="evenodd"
    clip-rule="evenodd"
    d="M5.15082 10.625H5.22418C5.86545 10.625 6.40058 10.625 6.83471 10.6673C7.28874 10.7116 7.71121 10.8078 8.09624 11.0517C8.43978 11.2692 8.7308 11.5602 8.94835 11.9038C9.19217 12.2888 9.28837 12.7113 9.33267 13.1653C9.37503 13.5994 9.37502 14.1346 9.375 14.7758V14.8492C9.37502 15.4904 9.37503 16.0256 9.33267 16.4597C9.28837 16.9137 9.19217 17.3362 8.94835 17.7212C8.7308 18.0648 8.43978 18.3558 8.09624 18.5733C7.71121 18.8172 7.28874 18.9134 6.83471 18.9577C6.40058 19 5.86545 19 5.22418 19H5.15083C4.50956 19 3.97442 19 3.5403 18.9577C3.08626 18.9134 2.66379 18.8172 2.27876 18.5733C1.93522 18.3558 1.6442 18.0648 1.42665 17.7212C1.18284 17.3362 1.08664 16.9137 1.04233 16.4597C0.999973 16.0256 0.999985 15.4904 1 14.8492V14.7758C0.999985 14.1346 0.999973 13.5994 1.04233 13.1653C1.08664 12.7113 1.18284 12.2888 1.42665 11.9038C1.6442 11.5602 1.93522 11.2692 2.27876 11.0517C2.66379 10.8078 3.08626 10.7116 3.5403 10.6673C3.97442 10.625 4.50955 10.625 5.15082 10.625ZM3.68597 12.1602C3.34501 12.1935 3.18623 12.2525 3.08125 12.3189C2.9251 12.4178 2.79282 12.5501 2.69393 12.7063C2.62746 12.8112 2.56851 12.97 2.53524 13.311C2.50083 13.6636 2.5 14.1251 2.5 14.8125C2.5 15.4999 2.50083 15.9614 2.53524 16.314C2.56851 16.655 2.62746 16.8138 2.69393 16.9187C2.79282 17.0749 2.9251 17.2072 3.08125 17.3061C3.18623 17.3725 3.34501 17.4315 3.68597 17.4648C4.03859 17.4992 4.50008 17.5 5.1875 17.5C5.87493 17.5 6.33641 17.4992 6.68903 17.4648C7.02999 17.4315 7.18877 17.3725 7.29375 17.3061C7.4499 17.2072 7.58218 17.0749 7.68107 16.9187C7.74754 16.8138 7.80649 16.655 7.83976 16.314C7.87417 15.9614 7.875 15.4999 7.875 14.8125C7.875 14.1251 7.87417 13.6636 7.83976 13.311C7.80649 12.97 7.74754 12.8112 7.68107 12.7063C7.58218 12.5501 7.4499 12.4178 7.29375 12.3189C7.18877 12.2525 7.02999 12.1935 6.68903 12.1602C6.33641 12.1258 5.87493 12.125 5.1875 12.125C4.50008 12.125 4.03859 12.1258 3.68597 12.1602Z"
    fill="currentColor"
  />
  <path
    fill-rule="evenodd"
    clip-rule="evenodd"
    d="M14.7758 1H14.8492C15.4904 0.999985 16.0256 0.999973 16.4597 1.04233C16.9137 1.08664 17.3362 1.18284 17.7212 1.42665C18.0648 1.6442 18.3558 1.93522 18.5733 2.27876C18.8172 2.66379 18.9134 3.08626 18.9577 3.5403C19 3.97442 19 4.50956 19 5.15083V5.22418C19 5.86545 19 6.40058 18.9577 6.83471C18.9134 7.28874 18.8172 7.71121 18.5733 8.09624C18.3558 8.43978 18.0648 8.7308 17.7212 8.94835C17.3362 9.19217 16.9137 9.28837 16.4597 9.33267C16.0256 9.37503 15.4904 9.37502 14.8492 9.375H14.7758C14.1346 9.37502 13.5994 9.37503 13.1653 9.33267C12.7113 9.28837 12.2888 9.19217 11.9038 8.94835C11.5602 8.7308 11.2692 8.43978 11.0517 8.09624C10.8078 7.71121 10.7116 7.28874 10.6673 6.83471C10.625 6.40058 10.625 5.86545 10.625 5.22418V5.15082C10.625 4.50955 10.625 3.97442 10.6673 3.5403C10.7116 3.08626 10.8078 2.66379 11.0517 2.27876C11.2692 1.93522 11.5602 1.6442 11.9038 1.42665C12.2888 1.18284 12.7113 1.08664 13.1653 1.04233C13.5994 0.999973 14.1346 0.999985 14.7758 1ZM13.311 2.53524C12.97 2.56851 12.8112 2.62746 12.7063 2.69393C12.5501 2.79282 12.4178 2.9251 12.3189 3.08125C12.2525 3.18623 12.1935 3.34501 12.1602 3.68597C12.1258 4.03859 12.125 4.50008 12.125 5.1875C12.125 5.87493 12.1258 6.33641 12.1602 6.68903C12.1935 7.02999 12.2525 7.18877 12.3189 7.29375C12.4178 7.4499 12.5501 7.58218 12.7063 7.68107C12.8112 7.74754 12.97 7.80649 13.311 7.83976C13.6636 7.87417 14.1251 7.875 14.8125 7.875C15.4999 7.875 15.9614 7.87417 16.314 7.83976C16.655 7.80649 16.8138 7.74754 16.9187 7.68107C17.0749 7.58218 17.2072 7.4499 17.3061 7.29375C17.3725 7.18877 17.4315 7.02999 17.4648 6.68903C17.4992 6.33641 17.5 5.87493 17.5 5.1875C17.5 4.50008 17.4992 4.03859 17.4648 3.68597C17.4315 3.34501 17.3725 3.18623 17.3061 3.08125C17.2072 2.9251 17.0749 2.79282 16.9187 2.69393C16.8138 2.62746 16.655 2.56851 16.314 2.53524C15.9614 2.50083 15.4999 2.5 14.8125 2.5C14.1251 2.5 13.6636 2.50083 13.311 2.53524Z"
    fill="currentColor"
  />
  <path
    fill-rule="evenodd"
    clip-rule="evenodd"
    d="M14.3542 10.625C12.2946 10.625 10.625 12.2946 10.625 14.3542C10.625 16.4137 12.2946 18.0833 14.3542 18.0833C15.1127 18.0833 15.8184 17.8568 16.4072 17.4678L17.7197 18.7802C18.0126 19.0731 18.4875 19.0731 18.7803 18.7802C19.0732 18.4873 19.0732 18.0125 18.7803 17.7196L17.4679 16.4071C17.8569 15.8183 18.0833 15.1127 18.0833 14.3542C18.0833 12.2946 16.4137 10.625 14.3542 10.625ZM12.125 14.3542C12.125 13.123 13.123 12.125 14.3542 12.125C15.5853 12.125 16.5833 13.123 16.5833 14.3542C16.5833 15.5853 15.5853 16.5833 14.3542 16.5833C13.123 16.5833 12.125 15.5853 12.125 14.3542Z"
    fill="currentColor"
  />
</svg>
