<svg
  xmlns="http://www.w3.org/2000/svg"
  width="20"
  height="20"
  viewBox="0 0 20 20"
  fill="none"
>
  <path
    fill-rule="evenodd"
    clip-rule="evenodd"
    d="M19 15.5652C18.8117 17.4933 17.1679 19 15.1904 19C13.9295 19 12.9074 17.9779 12.9074 16.717V12.9148C12.9074 11.654 13.9295 10.6318 15.1904 10.6318C16.0529 10.6318 16.8486 10.9185 17.4872 11.4018V10C17.4872 5.86496 14.135 2.51285 10 2.51285C5.86496 2.51285 2.51285 5.86496 2.51285 10V11.4018C3.15142 10.9185 3.94711 10.6318 4.8096 10.6318C6.07047 10.6318 7.09261 11.654 7.09261 12.9148V16.717C7.09261 17.9779 6.07047 19 4.8096 19C2.83207 19 1.18831 17.4933 1 15.5652V10C1 5.02944 5.02944 1 10 1C14.9706 1 19 5.02944 19 10V15.5652ZM2.51285 14.4414C2.51285 13.173 3.54114 12.1447 4.8096 12.1447C5.23495 12.1447 5.57976 12.4895 5.57976 12.9148V16.717C5.57976 17.1423 5.23495 17.4872 4.8096 17.4872C3.54114 17.4872 2.51285 16.4589 2.51285 15.1904V14.4414ZM14.4202 12.9148C14.4202 12.4895 14.765 12.1447 15.1904 12.1447C16.4589 12.1447 17.4872 13.173 17.4872 14.4414V15.1904C17.4872 16.4589 16.4589 17.4872 15.1904 17.4872C14.765 17.4872 14.4202 17.1423 14.4202 16.717V12.9148Z"
    fill="currentColor"
  />
</svg>
