<svg width="20" height="20" viewBox="0 0 20 20" fill="currentcolor" xmlns="http://www.w3.org/2000/svg">
  <path fill-rule="evenodd" d="M4.5122 2.8077C2.85688 3.44413 1.53846 5.02066 1.53846 7.10947C1.53846 8.76179 2.28329 10.3458 3.47609 11.8749C4.6691 13.4044 6.26102 14.8165 7.85113 16.1178C8.49862 16.6477 8.93109 16.9999 9.29134 17.2276C9.63403 17.4443 9.832 17.4953 10 17.4953C10.168 17.4953 10.366 17.4443 10.7087 17.2276C11.0689 16.9999 11.5014 16.6477 12.1489 16.1178C13.739 14.8165 15.3309 13.4044 16.5239 11.8749C17.7167 10.3458 18.4615 8.76179 18.4615 7.10947C18.4615 5.02066 17.1431 3.44413 15.4878 2.8077C14.0046 2.23745 12.2848 2.43074 11.0028 3.7085L13.1611 6.30683C13.293 6.46562 13.3531 6.6701 13.3276 6.87316C13.302 7.07621 13.193 7.26033 13.0256 7.38308L9.63262 9.87195L11.5696 11.7664C11.87 12.0602 11.87 12.5365 11.5696 12.8303C11.2692 13.1241 10.7821 13.1241 10.4817 12.8303L7.91761 10.3225C7.75993 10.1683 7.67844 9.95477 7.69424 9.73722C7.71005 9.51968 7.82161 9.31954 8 9.18869L11.4629 6.64859L9.40296 4.16875C9.39821 4.16303 9.39355 4.15725 9.38898 4.15139C8.08223 2.48026 6.15246 2.17705 4.5122 2.8077ZM10 2.56094C8.25986 0.89808 5.91428 0.65187 3.94934 1.40735C1.75851 2.24968 0 4.34818 0 7.10947C0 9.21775 0.950832 11.1183 2.25293 12.7876C3.55481 14.4566 5.25702 15.9568 6.86386 17.2718L6.90027 17.3016C7.50171 17.7938 8.0067 18.2071 8.45616 18.4913C8.93222 18.7922 9.423 19 10 19C10.577 19 11.0678 18.7922 11.5438 18.4913C11.9933 18.2071 12.4983 17.7938 13.0997 17.3016L13.1361 17.2718C14.743 15.9568 16.4452 14.4566 17.7471 12.7876C19.0492 11.1183 20 9.21775 20 7.10947C20 4.34818 18.2415 2.24968 16.0507 1.40735C14.0857 0.65187 11.7401 0.89808 10 2.56094Z" fill="currentcolor" />
</svg>
