<svg
  xmlns="http://www.w3.org/2000/svg"
  width="20"
  height="20"
  viewBox="0 0 20 20"
  fill="none"
>
  <path
    fill-rule="evenodd"
    clip-rule="evenodd"
    d="M4.5122 2.80776C2.85688 3.44419 1.53846 5.02071 1.53846 7.10953C1.53846 8.76184 2.28329 10.3458 3.47609 11.875C4.6691 13.4044 6.26102 14.8166 7.85113 16.1179C8.49862 16.6477 8.93109 16.9999 9.29134 17.2277C9.63403 17.4443 9.832 17.4954 10 17.4954C10.168 17.4954 10.366 17.4443 10.7087 17.2277C11.0689 16.9999 11.5014 16.6477 12.1489 16.1179C13.739 14.8166 15.3309 13.4044 16.5239 11.875C17.7167 10.3458 18.4615 8.76184 18.4615 7.10953C18.4615 5.02071 17.1431 3.44419 15.4878 2.80776C13.8475 2.17711 11.9178 2.48032 10.611 4.15145C10.4655 4.33758 10.2396 4.44676 10 4.44676C9.76042 4.44676 9.53452 4.33758 9.38898 4.15145C8.08223 2.48032 6.15246 2.17711 4.5122 2.80776ZM10 2.561C8.25987 0.898142 5.91428 0.651932 3.94934 1.40741C1.75851 2.24973 0 4.34823 0 7.10953C0 9.2178 0.950832 11.1183 2.25293 12.7876C3.55481 14.4566 5.25702 15.9569 6.86386 17.2718L6.90027 17.3016C7.50171 17.7939 8.0067 18.2072 8.45616 18.4913C8.93222 18.7923 9.423 19 10 19C10.577 19 11.0678 18.7923 11.5438 18.4913C11.9933 18.2072 12.4983 17.7939 13.0997 17.3016L13.1361 17.2718C14.743 15.9569 16.4452 14.4566 17.7471 12.7876C19.0492 11.1183 20 9.2178 20 7.10953C20 4.34823 18.2415 2.24973 16.0507 1.40741C14.0857 0.651932 11.7401 0.898142 10 2.561Z"
    fill="currentColor"
  />
  <path
    fill-rule="evenodd"
    clip-rule="evenodd"
    d="M8.94236 6.02946C9.24502 6.01715 9.52688 6.17971 9.66235 6.44469L11.4604 9.96179L11.8499 9.00952C11.9667 8.72389 12.2495 8.53659 12.5641 8.53659H15.1282C15.553 8.53659 15.8974 8.87342 15.8974 9.28893C15.8974 9.70443 15.553 10.0413 15.1282 10.0413H13.0849L12.2526 12.0761C12.1401 12.3512 11.8731 12.5361 11.5704 12.5484C11.2677 12.5607 10.9859 12.3981 10.8504 12.1332L9.05237 8.61606L8.6629 9.56834C8.54608 9.85397 8.26323 10.0413 7.94869 10.0413H5.38459C4.95975 10.0413 4.61536 9.70443 4.61536 9.28893C4.61536 8.87342 4.95975 8.53659 5.38459 8.53659H7.4279L8.26012 6.50174C8.37262 6.22666 8.63971 6.04177 8.94236 6.02946Z"
    fill="currentColor"
  />
</svg>
