<svg
  xmlns="http://www.w3.org/2000/svg"
  width="20"
  height="20"
  viewBox="0 0 20 20"
  fill="none"
>
  <path
    fill-rule="evenodd"
    clip-rule="evenodd"
    d="M6.25 6C6.25 5.58579 6.58579 5.25 7 5.25L13 5.25C13.4142 5.25 13.75 5.58579 13.75 6C13.75 6.41421 13.4142 6.75 13 6.75L7 6.75C6.58579 6.75 6.25 6.41421 6.25 6Z"
    fill="currentColor"
  />
  <path
    fill-rule="evenodd"
    clip-rule="evenodd"
    d="M7.25 9C7.25 8.58579 7.58579 8.25 8 8.25L12 8.25C12.4142 8.25 12.75 8.58579 12.75 9C12.75 9.41421 12.4142 9.75 12 9.75H8C7.58579 9.75 7.25 9.41421 7.25 9Z"
    fill="currentColor"
  />
  <path
    fill-rule="evenodd"
    clip-rule="evenodd"
    d="M11.8535 1H8.10224C7.03401 0.999984 6.16813 0.999971 5.4753 1.08568C4.75356 1.17496 4.13677 1.36522 3.60915 1.80412C3.08152 2.24303 2.78216 2.81489 2.56299 3.50831C2.35259 4.17396 2.19498 5.02537 2.00053 6.07576L1.26696 10.0382C1.1442 10.7012 1.07566 11.0714 1.03518 11.4472C1.02396 11.5514 1.01438 11.6558 1.00644 11.7603C0.977835 12.1372 0.977838 12.5137 0.977845 13.1879V13.261C0.977832 14.3059 0.977822 15.1483 1.0531 15.8205C1.13093 16.5154 1.2964 17.1132 1.68719 17.6272C1.87736 17.8773 2.10055 18.1005 2.35066 18.2907C2.86462 18.6814 3.46247 18.8469 4.15738 18.9247C4.82954 19 5.67197 19 6.71676 19H13.2389C14.2837 19 15.1262 19 15.7983 18.9247C16.4932 18.8469 17.0911 18.6814 17.605 18.2907C17.8551 18.1005 18.0783 17.8773 18.2685 17.6272C18.6593 17.1132 18.8248 16.5154 18.9026 15.8205C18.9779 15.1483 18.9779 14.3059 18.9778 13.2611V13.1879C18.9779 12.5136 18.9779 12.1372 18.9492 11.7603C18.9413 11.6558 18.9317 11.5514 18.9205 11.4472C18.88 11.0714 18.8115 10.7012 18.6887 10.0381L17.9552 6.0758C17.7607 5.02539 17.6031 4.17397 17.3927 3.50831C17.1735 2.81489 16.8742 2.24303 16.3465 1.80412C15.8189 1.36522 15.2021 1.17496 14.4804 1.08568C13.7876 0.999971 12.9217 0.999984 11.8535 1ZM4.49877 2.87356C4.74447 2.66917 5.06772 2.53778 5.64608 2.46624C6.24357 2.39233 7.02316 2.39109 8.14758 2.39109H11.8081C12.9325 2.39109 13.7121 2.39233 14.3096 2.46624C14.888 2.53778 15.2112 2.66917 15.4569 2.87356C15.7026 3.07795 15.8907 3.37188 16.0663 3.92755C16.2477 4.5016 16.3909 5.26794 16.5956 6.37357L17.3152 10.2605C17.3727 10.5714 17.4162 10.8068 17.4498 11L15.3442 11C15.0354 11 14.7449 10.9999 14.5009 11.0273C14.2291 11.0578 13.9433 11.1282 13.6743 11.3166C13.4053 11.5051 13.2414 11.7496 13.1199 11.9946C13.0108 12.2145 12.9116 12.4875 12.8061 12.7777L12.7517 12.9272C12.6302 13.2613 12.5592 13.4534 12.4921 13.5888C12.4618 13.6498 12.4413 13.68 12.4304 13.694C12.4253 13.7005 12.4219 13.7039 12.4219 13.7039L12.4208 13.7048L12.4197 13.7054C12.4197 13.7054 12.4153 13.7075 12.4074 13.7101C12.3905 13.7156 12.3552 13.7245 12.2875 13.7321C12.1373 13.7489 11.9325 13.75 11.577 13.75H8.3787C8.02318 13.75 7.81834 13.7489 7.66817 13.7321C7.60049 13.7245 7.56517 13.7156 7.54825 13.7101C7.54449 13.7089 7.54171 13.7078 7.53974 13.7071C7.5376 13.7062 7.53599 13.7054 7.53599 13.7054L7.53485 13.7048L7.53384 13.7039C7.53384 13.7039 7.53034 13.7005 7.52528 13.694C7.51435 13.68 7.4939 13.6498 7.46364 13.5888C7.39648 13.4534 7.32546 13.2613 7.20396 12.9272L7.14963 12.7778C7.04412 12.4875 6.94489 12.2145 6.8358 11.9946C6.71424 11.7496 6.5504 11.5051 6.28139 11.3166C6.01238 11.1282 5.72659 11.0578 5.45475 11.0273C5.21081 10.9999 4.92033 11 4.6115 11L2.50594 11C2.53948 10.8068 2.58296 10.5714 2.64053 10.2605L3.36012 6.37357C3.56481 5.26794 3.70795 4.5016 3.88939 3.92755C4.06503 3.37188 4.25306 3.07795 4.49877 2.87356ZM2.37088 12.5C2.36901 12.69 2.36893 12.9203 2.36893 13.2194C2.36893 14.3156 2.36995 15.08 2.43554 15.6656C2.49959 16.2375 2.61785 16.5528 2.79454 16.7852C2.90864 16.9353 3.04255 17.0692 3.19262 17.1833C3.425 17.36 3.74039 17.4783 4.31221 17.5423C4.89787 17.6079 5.6622 17.6089 6.75841 17.6089H13.1973C14.2935 17.6089 15.0578 17.6079 15.6435 17.5423C16.2153 17.4783 16.5307 17.36 16.7631 17.1833C16.9131 17.0692 17.0471 16.9353 17.1612 16.7852C17.3378 16.5528 17.4561 16.2375 17.5201 15.6656C17.5857 15.08 17.5868 14.3156 17.5868 13.2194C17.5868 12.9203 17.5867 12.69 17.5848 12.5H15.3787C15.0232 12.5 14.8183 12.5011 14.6682 12.5179C14.6005 12.5255 14.5652 12.5345 14.5482 12.5399C14.5404 12.5425 14.536 12.5446 14.536 12.5446L14.5348 12.5452L14.5338 12.5461C14.5338 12.5461 14.5303 12.5495 14.5253 12.556C14.5143 12.57 14.4939 12.6002 14.4636 12.6612C14.3965 12.7966 14.3255 12.9887 14.204 13.3228L14.1496 13.4722C14.0441 13.7625 13.9449 14.0355 13.8358 14.2554C13.7142 14.5004 13.5504 14.745 13.2814 14.9334C13.0124 15.1218 12.7266 15.1922 12.4548 15.2227C12.2108 15.2501 11.9204 15.25 11.6115 15.25H8.34419C8.03538 15.25 7.74487 15.2501 7.50094 15.2227C7.22909 15.1922 6.94331 15.1218 6.6743 14.9334C6.40529 14.745 6.24145 14.5004 6.11989 14.2554C6.0108 14.0355 5.91156 13.7625 5.80606 13.4722L5.75173 13.3228C5.63023 12.9887 5.55921 12.7966 5.49205 12.6612C5.46179 12.6002 5.44134 12.57 5.43041 12.556C5.42535 12.5495 5.42185 12.5461 5.42185 12.5461L5.42084 12.5452L5.4197 12.5446C5.4197 12.5446 5.41529 12.5425 5.40744 12.5399C5.39052 12.5345 5.3552 12.5255 5.28752 12.5179C5.13735 12.5011 4.93251 12.5 4.57699 12.5H2.37088Z"
    fill="currentColor"
  />
</svg>
