<svg
  xmlns="http://www.w3.org/2000/svg"
  width="20"
  height="20"
  viewBox="0 0 20 20"
  fill="none"
>
  <path
    fill-rule="evenodd"
    clip-rule="evenodd"
    d="M1.33535 4.44441C1.90634 2.97174 3.33266 2 4.92325 2H6.28601C6.96504 2 7.52396 2.37402 7.86527 2.81783C8.26963 3.34364 8.96151 3.97727 9.90141 3.97727C10.9267 3.97727 11.5684 3.37571 11.924 2.88946C12.2631 2.42566 12.8414 2 13.5672 2H15.1123C16.6642 2 18.0639 2.92563 18.6608 4.34665L19.8219 7.11098C20.3243 8.30722 19.7259 9.67825 18.5027 10.1333L16.3937 10.9178V15.2036C16.3937 16.748 15.1316 18 13.5747 18H6.39899C4.84208 18 3.57996 16.748 3.57996 15.2036V10.9847L1.74806 10.5304C0.404079 10.1971 -0.342586 8.77207 0.154723 7.48943L1.33535 4.44441ZM3.57996 9.41248V7.96892C3.57996 7.54771 3.92418 7.20626 4.34879 7.20626C4.7734 7.20626 5.11761 7.54771 5.11761 7.96892V15.2036C5.11761 15.9056 5.6913 16.4747 6.39899 16.4747H13.5747C14.2824 16.4747 14.8561 15.9056 14.8561 15.2036V7.96892C14.8561 7.54771 15.2003 7.20626 15.6249 7.20626C16.0495 7.20626 16.3937 7.54771 16.3937 7.96892V9.28875L17.9628 8.70507C18.3705 8.5534 18.57 8.09639 18.4025 7.69764L17.2414 4.93331C16.8833 4.0807 16.0435 3.52532 15.1123 3.52532H13.5672C13.4729 3.52532 13.3111 3.59022 13.1687 3.78501C12.6705 4.46634 11.6249 5.50259 9.90141 5.50259C8.22924 5.50259 7.13945 4.38886 6.64274 3.74298C6.51813 3.58095 6.37515 3.52532 6.28601 3.52532H4.92325C3.96889 3.52532 3.1131 4.10837 2.77051 4.99197L1.58988 8.03699C1.42411 8.46453 1.673 8.93956 2.121 9.05066L3.57996 9.41248Z"
    fill="currentColor"
  />
  <path
    fill-rule="evenodd"
    clip-rule="evenodd"
    d="M11.5204 7.90591C11.2452 7.90591 10.9875 7.95889 10.7503 8.06738C10.5103 8.17572 10.3066 8.34464 10.1388 8.56755C9.96997 8.79189 9.84308 9.07262 9.75286 9.40263L9.75255 9.40377C9.66397 9.73539 9.62158 10.1259 9.62158 10.572V11.577C9.62158 11.9364 9.64906 12.2601 9.70557 12.546C9.7617 12.8272 9.84284 13.077 9.95153 13.2926L9.95307 13.2955C10.0637 13.5064 10.1974 13.6864 10.3562 13.8317L10.3593 13.8344C10.52 13.9758 10.7003 14.0822 10.8994 14.1521C11.0965 14.2212 11.3053 14.2551 11.5244 14.2551C11.7998 14.2551 12.0568 14.202 12.292 14.0929C12.5312 13.982 12.7344 13.8122 12.902 13.5895L12.9028 13.5884C13.0714 13.3614 13.1969 13.0793 13.2844 12.7488C13.3728 12.4149 13.4153 12.0232 13.4153 11.577V10.572C13.4153 10.2153 13.3879 9.89479 13.3313 9.61136C13.2752 9.32759 13.1926 9.07701 13.0805 8.86294C12.9727 8.64931 12.8398 8.46826 12.6797 8.32451C12.5228 8.18124 12.3422 8.07555 12.1396 8.0083C11.9434 7.93965 11.7366 7.90591 11.5204 7.90591ZM11.4009 9.27352C11.4356 9.2497 11.4722 9.23818 11.5164 9.23818C11.5569 9.23818 11.5881 9.2469 11.6144 9.26113L11.6209 9.26438C11.6434 9.27553 11.673 9.29821 11.7064 9.34431C11.7362 9.38539 11.7662 9.4474 11.7912 9.53759C11.8167 9.62935 11.8378 9.74733 11.853 9.89387L11.8535 9.89731C11.8709 10.0407 11.88 10.211 11.88 10.4092V11.7319C11.88 11.9826 11.8669 12.1905 11.8421 12.3577L11.8418 12.3603C11.8192 12.5274 11.7866 12.6499 11.7491 12.7346C11.7112 12.8203 11.6716 12.8651 11.6393 12.8879C11.6048 12.9114 11.5684 12.9228 11.5244 12.9228C11.4834 12.9228 11.4487 12.9151 11.4179 12.9014C11.3945 12.8878 11.3676 12.8643 11.3392 12.8235C11.3101 12.7778 11.2789 12.71 11.2482 12.6147C11.2205 12.5177 11.1973 12.3967 11.1796 12.2499C11.1646 12.1025 11.1568 11.9301 11.1568 11.7319V10.4092C11.1568 10.1612 11.1686 9.9569 11.1908 9.79444C11.2159 9.62819 11.2505 9.50863 11.2892 9.42793L11.29 9.42618C11.3316 9.33716 11.3717 9.29356 11.4009 9.27352Z"
    fill="currentColor"
  />
  <path
    d="M9.20273 8.27633C9.20273 8.10904 9.06603 7.97344 8.89739 7.97344C8.85758 7.97344 8.81815 7.98116 8.78132 7.99617L6.9585 8.73932C6.81784 8.79667 6.74751 8.82534 6.69514 8.87175C6.64366 8.91737 6.60463 8.97515 6.58166 9.03972C6.55829 9.10541 6.55829 9.18084 6.55829 9.3317V9.67285C6.55829 9.95797 6.84665 10.1544 7.11489 10.052C7.38313 9.94954 7.67149 10.1459 7.67149 10.4311V13.4161C7.67149 13.7474 7.67149 13.913 7.76297 14.025C7.78094 14.047 7.80118 14.067 7.82335 14.0849C7.93623 14.1756 8.10319 14.1756 8.43711 14.1756C8.77103 14.1756 8.93799 14.1756 9.05087 14.0849C9.07304 14.067 9.09328 14.047 9.11125 14.025C9.20273 13.913 9.20273 13.7474 9.20273 13.4161V8.27633Z"
    fill="currentColor"
  />
</svg>
