<svg
  xmlns="http://www.w3.org/2000/svg"
  width="20"
  height="20"
  viewBox="0 0 20 20"
  fill="none"
>
  <path
    fill-rule="evenodd"
    clip-rule="evenodd"
    d="M14.2812 2.38913C16.5987 3.97643 17.2107 7.17165 15.6481 9.52585C14.5364 11.2008 12.6229 12 10.774 11.7479C10.7641 11.7465 10.7532 11.745 10.7417 11.7433C10.6351 11.7282 10.4656 11.7042 10.3059 11.7229C10.1469 11.7415 9.99741 11.8 9.90619 11.8357C9.89683 11.8393 9.88808 11.8428 9.87999 11.8459L8.89281 12.2264C8.885 12.2294 8.87712 12.2325 8.86918 12.2355C8.73635 12.2867 8.58622 12.3445 8.46077 12.4097C8.31132 12.4874 8.13526 12.6052 7.99669 12.8081C7.85812 13.0109 7.81107 13.2197 7.79171 13.3891C7.77547 13.5313 7.77469 13.6944 7.77401 13.8387C7.77397 13.8473 7.77393 13.8559 7.77388 13.8644L7.76995 14.6282C7.76961 14.6956 7.76931 14.7493 7.76849 14.7956C7.72656 14.8137 7.67766 14.8341 7.6163 14.8597L6.80335 15.1988C6.69154 15.2453 6.56342 15.2987 6.45504 15.3572C6.32558 15.427 6.17391 15.5293 6.04593 15.6984C5.91795 15.8675 5.85964 16.0427 5.82647 16.1878C5.79871 16.3092 5.78087 16.4487 5.7653 16.5705L5.59369 17.9083C5.58444 17.9804 5.57703 18.038 5.56999 18.0876C5.52171 18.0978 5.46557 18.109 5.39533 18.1228L3.9604 18.4065C3.85318 18.4276 3.7658 18.4449 3.68991 18.4585C3.68233 18.3806 3.67505 18.2905 3.66616 18.1799L3.51031 16.242C3.49553 16.0583 3.48769 15.9561 3.48649 15.8788C3.48596 15.8444 3.48705 15.8253 3.48799 15.8154C3.48843 15.8107 3.48901 15.8071 3.48901 15.8071L3.48925 15.8059L3.48962 15.8047C3.48962 15.8047 3.49084 15.8013 3.49273 15.797C3.49669 15.7879 3.50494 15.7707 3.52198 15.741C3.56031 15.6741 3.61639 15.589 3.71785 15.4361L6.80588 10.7835C6.80999 10.7773 6.81413 10.7711 6.81829 10.7648C6.89181 10.6541 6.97239 10.5328 7.03266 10.4211C7.10191 10.2927 7.17863 10.1174 7.19376 9.89783C7.20972 9.66607 7.14791 9.46991 7.09672 9.3362C7.04889 9.21129 6.98054 9.06891 6.91403 8.93034L6.90409 8.90963C6.13714 7.31117 6.2086 5.35533 7.25568 3.77774C8.81824 1.42353 11.9636 0.801831 14.2812 2.38913ZM16.8806 10.37C18.9022 7.32434 18.1104 3.1906 15.1122 1.13708C12.114 -0.916448 8.04466 -0.112136 6.02315 2.93356C4.66731 4.97633 4.57787 7.50796 5.56784 9.57124C5.60619 9.65116 5.6363 9.71396 5.66138 9.76838C5.66491 9.77604 5.66824 9.78333 5.6714 9.79027C5.64505 9.83128 5.6137 9.87856 5.57334 9.93936L2.48532 14.5919C2.47287 14.6107 2.46029 14.6295 2.44763 14.6485C2.2933 14.8798 2.12704 15.1289 2.05112 15.4237C1.9752 15.7185 2.00006 16.0185 2.02314 16.2969C2.02503 16.3198 2.02692 16.3425 2.02873 16.365L2.18457 18.3029C2.18557 18.3153 2.18657 18.3278 2.18757 18.3403C2.20586 18.5687 2.22531 18.8117 2.26948 19.012C2.32071 19.2443 2.42953 19.5432 2.71605 19.7638C3.00256 19.9844 3.31521 20.01 3.5493 19.9973C3.7511 19.9864 3.98661 19.9398 4.20811 19.8959C4.22022 19.8935 4.23229 19.8911 4.24432 19.8887L5.67924 19.6051C5.6878 19.6034 5.69644 19.6017 5.70514 19.6C5.85129 19.5712 6.01572 19.5387 6.15546 19.4939C6.32174 19.4406 6.52263 19.3498 6.69613 19.1621C6.86964 18.9745 6.94629 18.7651 6.98829 18.5932C7.02359 18.4487 7.04516 18.28 7.06434 18.13L7.23654 16.7876C7.24403 16.7292 7.24999 16.6829 7.25556 16.6431C7.292 16.6274 7.33452 16.6096 7.38812 16.5873L8.18086 16.2566C8.1884 16.2535 8.19601 16.2503 8.20368 16.2471C8.3315 16.1939 8.47635 16.1335 8.5973 16.0668C8.74147 15.9872 8.91055 15.8683 9.04309 15.6686C9.17563 15.4689 9.22072 15.2651 9.23931 15.0995C9.25491 14.9605 9.25566 14.8015 9.25633 14.6611C9.25637 14.6527 9.25641 14.6444 9.25645 14.6361L9.26038 13.8722C9.26074 13.8029 9.26104 13.7476 9.2619 13.7C9.30555 13.6825 9.35644 13.6628 9.42023 13.6383L10.4074 13.2577C10.4359 13.2467 10.4578 13.2383 10.4766 13.2312C10.4789 13.2315 10.4813 13.2318 10.4838 13.2321C10.509 13.2353 10.5383 13.2393 10.5763 13.2445C12.9636 13.57 15.441 12.539 16.8806 10.37Z"
    fill="currentColor"
  />
  <path
    fill-rule="evenodd"
    clip-rule="evenodd"
    d="M12.0495 5.75151C12.5502 6.09441 12.6824 6.78466 12.3448 7.29322C12.0073 7.80179 11.3278 7.9361 10.8272 7.5932C10.3265 7.2503 10.1943 6.56005 10.5319 6.05149C10.8694 5.54292 11.5489 5.40861 12.0495 5.75151ZM13.5774 8.13741C14.3739 6.93735 14.0619 5.30858 12.8806 4.49946C11.6992 3.69033 10.0958 4.00725 9.29934 5.2073C8.50282 6.40736 8.8148 8.03613 9.99615 8.84525C11.1775 9.65438 12.7809 9.33746 13.5774 8.13741Z"
    fill="currentColor"
  />
</svg>
