<svg
  xmlns="http://www.w3.org/2000/svg"
  width="20"
  height="21"
  viewBox="0 0 20 21"
  fill="none"
>
  <path
    fill-rule="evenodd"
    clip-rule="evenodd"
    d="M11.1493 2.78501C9.6335 1.23971 6.92165 1.30646 5.08572 3.17813C3.24978 5.0498 3.18431 7.81444 4.7001 9.35973C6.21589 10.905 8.92774 10.8383 10.7637 8.96661C12.5996 7.09494 12.6651 4.3303 11.1493 2.78501ZM4.03569 2.10767C6.34146 -0.242978 9.99934 -0.528245 12.1993 1.71455C14.2302 3.78494 14.1478 7.1219 12.3093 9.47186L16.4762 13.7199C16.9416 14.1943 17.3427 14.6031 17.6206 14.9745C17.9185 15.3725 18.144 15.8152 18.144 16.3608C18.144 16.9063 17.9185 17.349 17.6206 17.7471C17.3427 18.1185 16.9416 18.5272 16.4762 19.0017L15.5386 19.9575C15.2487 20.2531 14.7786 20.2531 14.4886 19.9575C14.1986 19.6619 14.1986 19.1826 14.4886 18.887L15.3916 17.9665C15.9014 17.4467 16.2299 17.1096 16.44 16.8288C16.6371 16.5654 16.6591 16.4423 16.6591 16.3608C16.6591 16.2793 16.6371 16.1561 16.44 15.8928C16.2442 15.6311 15.9458 15.3207 15.4936 14.8592L13.7714 16.615C13.4814 16.9106 13.0113 16.9106 12.7213 16.615C12.4314 16.3194 12.4314 15.8401 12.7213 15.5445L14.4436 13.7887L11.2593 10.5423C8.95419 12.4166 5.68094 12.5006 3.65008 10.4302C1.45011 8.1874 1.72993 4.45832 4.03569 2.10767Z"
    fill="currentColor"
  />
</svg>
