<svg width="20" height="20" viewBox="0 0 20 20" fill="currentcolor" xmlns="http://www.w3.org/2000/svg">
  <path d="M4.5773 6.57713H4.56845C4.42036 6.57713 4.30319 6.57713 4.21053 6.58773C4.11556 6.5986 4.03733 6.62139 3.97182 6.67343C3.94958 6.69111 3.92914 6.71088 3.91083 6.73248C3.85668 6.79637 3.83285 6.87296 3.82153 6.96567C3.81053 7.05572 3.81054 7.16944 3.81054 7.31251V7.32179C3.81054 7.46485 3.81053 7.57858 3.82153 7.66864C3.83285 7.76135 3.85668 7.83794 3.91083 7.90182C3.92914 7.92342 3.94958 7.94319 3.97182 7.96087C4.03733 8.01291 4.11556 8.0357 4.21053 8.04657C4.30319 8.05717 4.42036 8.05717 4.56847 8.05717H4.57728C4.72538 8.05717 4.84256 8.05717 4.93522 8.04657C5.03019 8.0357 5.10842 8.01291 5.17393 7.96087C5.19617 7.94319 5.21661 7.92342 5.23492 7.90182C5.28907 7.83794 5.3129 7.76135 5.32422 7.66864C5.33522 7.57858 5.33521 7.46486 5.33521 7.32179V7.31252C5.33521 7.16945 5.33522 7.05572 5.32422 6.96567C5.3129 6.87296 5.28907 6.79637 5.23492 6.73248C5.21661 6.71088 5.19617 6.69111 5.17393 6.67343C5.10842 6.62139 5.03019 6.5986 4.93522 6.58773C4.84256 6.57713 4.72539 6.57713 4.5773 6.57713Z" fill="currentcolor" />
  <path d="M7.11765 6.57713H7.10881C6.96072 6.57713 6.84354 6.57713 6.75088 6.58773C6.65591 6.5986 6.57768 6.62139 6.51218 6.67343C6.48993 6.69111 6.4695 6.71088 6.45119 6.73248C6.39703 6.79637 6.37321 6.87296 6.36189 6.96567C6.35089 7.05572 6.35089 7.16945 6.35089 7.31252V7.32179C6.35089 7.46486 6.35089 7.57858 6.36189 7.66864C6.37321 7.76135 6.39703 7.83794 6.45119 7.90182C6.4695 7.92342 6.48993 7.94319 6.51218 7.96087C6.57768 8.01291 6.65591 8.0357 6.75088 8.04657C6.84355 8.05717 6.96072 8.05717 7.10882 8.05717H7.11763C7.26574 8.05717 7.38292 8.05717 7.47558 8.04657C7.57055 8.0357 7.64878 8.01291 7.71428 7.96087C7.73653 7.94319 7.75696 7.92342 7.77527 7.90182C7.82943 7.83794 7.85326 7.76135 7.86458 7.66864C7.87557 7.57858 7.87557 7.46485 7.87557 7.32177V7.31254C7.87557 7.16946 7.87557 7.05573 7.86458 6.96567C7.85326 6.87296 7.82943 6.79637 7.77527 6.73248C7.75696 6.71088 7.73653 6.69111 7.71428 6.67343C7.64878 6.62139 7.57055 6.5986 7.47558 6.58773C7.38292 6.57713 7.26575 6.57713 7.11765 6.57713Z" fill="currentcolor" />
  <path d="M9.88895 6.57713H9.88011C9.73202 6.57713 9.61484 6.57713 9.52218 6.58773C9.42721 6.5986 9.34898 6.62139 9.28348 6.67343C9.26123 6.69111 9.2408 6.71088 9.22249 6.73248C9.16833 6.79637 9.1445 6.87296 9.13318 6.96567C9.12219 7.05572 9.12219 7.16944 9.12219 7.3125V7.3218C9.12219 7.46486 9.12219 7.57859 9.13318 7.66864C9.1445 7.76135 9.16833 7.83794 9.22249 7.90182C9.2408 7.92342 9.26123 7.94319 9.28348 7.96087C9.34898 8.01291 9.42721 8.0357 9.52218 8.04657C9.61485 8.05717 9.73202 8.05717 9.88012 8.05717H9.88893C10.037 8.05717 10.1542 8.05717 10.2469 8.04657C10.3418 8.0357 10.4201 8.01291 10.4856 7.96087C10.5078 7.94319 10.5283 7.92342 10.5466 7.90182C10.6007 7.83794 10.6246 7.76135 10.6359 7.66864C10.6469 7.57858 10.6469 7.46485 10.6469 7.32177V7.31254C10.6469 7.16946 10.6469 7.05573 10.6359 6.96567C10.6246 6.87296 10.6007 6.79637 10.5466 6.73248C10.5283 6.71088 10.5078 6.69111 10.4856 6.67343C10.4201 6.62139 10.3418 6.5986 10.2469 6.58773C10.1542 6.57713 10.037 6.57713 9.88895 6.57713Z" fill="currentcolor" />
  <path d="M12.6602 6.57713H12.6514C12.5033 6.57713 12.3861 6.57713 12.2935 6.58773C12.1985 6.5986 12.1203 6.62139 12.0548 6.67343C12.0325 6.69111 12.0121 6.71088 11.9938 6.73248C11.9396 6.79637 11.9158 6.87296 11.9045 6.96567C11.8935 7.05573 11.8935 7.16946 11.8935 7.31254V7.32177C11.8935 7.46485 11.8935 7.57858 11.9045 7.66864C11.9158 7.76135 11.9396 7.83794 11.9938 7.90182C12.0121 7.92342 12.0325 7.94319 12.0548 7.96087C12.1203 8.01291 12.1985 8.0357 12.2935 8.04657C12.3861 8.05717 12.5033 8.05717 12.6514 8.05717H12.6602C12.8083 8.05717 12.9255 8.05717 13.0182 8.04657C13.1131 8.0357 13.1914 8.01291 13.2569 7.96087C13.2791 7.94319 13.2996 7.92342 13.3179 7.90182C13.372 7.83794 13.3959 7.76135 13.4072 7.66864C13.4182 7.57858 13.4182 7.46485 13.4182 7.32177V7.31254C13.4182 7.16946 13.4182 7.05573 13.4072 6.96567C13.3959 6.87296 13.372 6.79637 13.3179 6.73248C13.2996 6.71088 13.2791 6.69111 13.2569 6.67343C13.1914 6.62139 13.1131 6.5986 13.0182 6.58773C12.9255 6.57713 12.8083 6.57713 12.6602 6.57713Z" fill="currentcolor" />
  <path d="M15.4315 6.57713H15.4227C15.2746 6.57713 15.1574 6.57713 15.0648 6.58773C14.9698 6.5986 14.8916 6.6214 14.8261 6.67344C14.8038 6.69111 14.7834 6.71088 14.7651 6.73248C14.7109 6.79637 14.6871 6.87296 14.6758 6.96567C14.6648 7.05572 14.6648 7.16944 14.6648 7.31249V7.3218C14.6648 7.46486 14.6648 7.57859 14.6758 7.66864C14.6871 7.76135 14.7109 7.83794 14.7651 7.90182C14.7834 7.92342 14.8038 7.9432 14.8261 7.96087C14.8916 8.01291 14.9698 8.0357 15.0648 8.04657C15.1574 8.05717 15.2746 8.05717 15.4227 8.05717H15.4315C15.5796 8.05717 15.6968 8.05717 15.7895 8.04657C15.8844 8.0357 15.9627 8.01291 16.0282 7.96087C16.0504 7.94319 16.0709 7.92342 16.0892 7.90182C16.1433 7.83794 16.1672 7.76135 16.1785 7.66864C16.1895 7.57859 16.1895 7.46486 16.1895 7.3218V7.3125C16.1895 7.16944 16.1895 7.05572 16.1785 6.96567C16.1672 6.87296 16.1433 6.79637 16.0892 6.73248C16.0709 6.71088 16.0504 6.69111 16.0282 6.67343C15.9627 6.62139 15.8844 6.5986 15.7895 6.58773C15.6968 6.57713 15.5796 6.57713 15.4315 6.57713Z" fill="currentcolor" />
  <path d="M4.57728 9.25998H4.56847C4.42037 9.25998 4.30319 9.25998 4.21053 9.27058C4.11556 9.28145 4.03733 9.30424 3.97182 9.35628C3.94958 9.37396 3.92914 9.39373 3.91083 9.41533C3.85668 9.47922 3.83285 9.5558 3.82153 9.64851C3.81053 9.73857 3.81054 9.85229 3.81054 9.99536V10.0046C3.81054 10.1477 3.81053 10.2614 3.82153 10.3515C3.83285 10.4442 3.85668 10.5208 3.91083 10.5847C3.92914 10.6063 3.94958 10.626 3.97182 10.6437C4.03733 10.6958 4.11556 10.7186 4.21053 10.7294C4.30319 10.74 4.42036 10.74 4.56847 10.74H4.57728C4.72538 10.74 4.84256 10.74 4.93522 10.7294C5.03019 10.7186 5.10843 10.6958 5.17393 10.6437C5.19617 10.626 5.21661 10.6063 5.23492 10.5847C5.28907 10.5208 5.3129 10.4442 5.32422 10.3515C5.33522 10.2614 5.33521 10.1477 5.33521 10.0046V9.99537C5.33521 9.8523 5.33522 9.73857 5.32422 9.64851C5.3129 9.5558 5.28907 9.47922 5.23492 9.41533C5.21661 9.39373 5.19617 9.37396 5.17393 9.35628C5.10842 9.30424 5.03019 9.28145 4.93522 9.27058C4.84256 9.25998 4.72538 9.25998 4.57728 9.25998Z" fill="currentcolor" />
  <path d="M7.11763 9.25998H7.10883C6.96073 9.25998 6.84355 9.25998 6.75088 9.27058C6.65591 9.28145 6.57768 9.30424 6.51218 9.35628C6.48993 9.37396 6.4695 9.39373 6.45119 9.41533C6.39703 9.47922 6.37321 9.5558 6.36189 9.64851C6.35089 9.73857 6.35089 9.8523 6.35089 9.99537V10.0046C6.35089 10.1477 6.35089 10.2614 6.36189 10.3515C6.37321 10.4442 6.39703 10.5208 6.45119 10.5847C6.4695 10.6063 6.48993 10.626 6.51218 10.6437C6.57768 10.6958 6.65591 10.7186 6.75088 10.7294C6.84355 10.74 6.96072 10.74 7.10882 10.74H7.11763C7.26574 10.74 7.38292 10.74 7.47558 10.7294C7.57055 10.7186 7.64878 10.6958 7.71428 10.6437C7.73653 10.626 7.75696 10.6063 7.77527 10.5847C7.82943 10.5208 7.85326 10.4442 7.86458 10.3515C7.87557 10.2614 7.87557 10.1477 7.87557 10.0046V9.99538C7.87557 9.85231 7.87557 9.73857 7.86458 9.64851C7.85326 9.5558 7.82943 9.47921 7.77527 9.41533C7.75696 9.39373 7.73653 9.37396 7.71428 9.35628C7.64878 9.30424 7.57055 9.28145 7.47558 9.27058C7.38292 9.25998 7.26574 9.25998 7.11763 9.25998Z" fill="currentcolor" />
  <path d="M9.88893 9.25998H9.88013C9.73203 9.25998 9.61485 9.25998 9.52218 9.27058C9.42721 9.28145 9.34898 9.30424 9.28348 9.35628C9.26123 9.37396 9.2408 9.39373 9.22249 9.41533C9.16833 9.47922 9.1445 9.5558 9.13318 9.64851C9.12219 9.73857 9.12219 9.85229 9.12219 9.99535V10.0047C9.12219 10.1477 9.12219 10.2614 9.13318 10.3515C9.1445 10.4442 9.16833 10.5208 9.22249 10.5847C9.2408 10.6063 9.26123 10.626 9.28348 10.6437C9.34898 10.6958 9.42721 10.7186 9.52218 10.7294C9.61485 10.74 9.73202 10.74 9.88012 10.74H9.88893C10.037 10.74 10.1542 10.74 10.2469 10.7294C10.3418 10.7186 10.4201 10.6958 10.4856 10.6437C10.5078 10.626 10.5283 10.6063 10.5466 10.5847C10.6007 10.5208 10.6246 10.4442 10.6359 10.3515C10.6469 10.2614 10.6469 10.1477 10.6469 10.0046V9.99538C10.6469 9.85231 10.6469 9.73857 10.6359 9.64851C10.6246 9.5558 10.6007 9.47922 10.5466 9.41533C10.5283 9.39373 10.5078 9.37396 10.4856 9.35628C10.4201 9.30424 10.3418 9.28145 10.2469 9.27058C10.1542 9.25998 10.037 9.25998 9.88893 9.25998Z" fill="currentcolor" />
  <path d="M12.6602 9.25998H12.6514C12.5033 9.25998 12.3861 9.25998 12.2935 9.27058C12.1985 9.28145 12.1203 9.30424 12.0548 9.35628C12.0325 9.37396 12.0121 9.39373 11.9938 9.41533C11.9396 9.47922 11.9158 9.5558 11.9045 9.64851C11.8935 9.73857 11.8935 9.85231 11.8935 9.99538V10.0046C11.8935 10.1477 11.8935 10.2614 11.9045 10.3515C11.9158 10.4442 11.9396 10.5208 11.9938 10.5847C12.0121 10.6063 12.0325 10.626 12.0548 10.6437C12.1203 10.6958 12.1985 10.7186 12.2935 10.7294C12.3861 10.74 12.5033 10.74 12.6514 10.74H12.6602C12.8083 10.74 12.9255 10.74 13.0182 10.7294C13.1131 10.7186 13.1914 10.6958 13.2569 10.6437C13.2791 10.626 13.2996 10.6063 13.3179 10.5847C13.372 10.5208 13.3959 10.4442 13.4072 10.3515C13.4182 10.2614 13.4182 10.1477 13.4182 10.0046V9.99538C13.4182 9.85231 13.4182 9.73857 13.4072 9.64851C13.3959 9.5558 13.372 9.47922 13.3179 9.41533C13.2996 9.39373 13.2791 9.37396 13.2569 9.35628C13.1914 9.30424 13.1131 9.28145 13.0182 9.27058C12.9255 9.25998 12.8083 9.25998 12.6602 9.25998Z" fill="currentcolor" />
  <path d="M15.4315 9.25998H15.4227C15.2746 9.25998 15.1574 9.25998 15.0648 9.27058C14.9698 9.28145 14.8916 9.30424 14.8261 9.35628C14.8038 9.37396 14.7834 9.39373 14.7651 9.41533C14.7109 9.47922 14.6871 9.5558 14.6758 9.64851C14.6648 9.73857 14.6648 9.85228 14.6648 9.99534V10.0047C14.6648 10.1477 14.6648 10.2614 14.6758 10.3515C14.6871 10.4442 14.7109 10.5208 14.7651 10.5847C14.7834 10.6063 14.8038 10.626 14.8261 10.6437C14.8916 10.6958 14.9698 10.7186 15.0648 10.7294C15.1574 10.74 15.2746 10.74 15.4227 10.74H15.4315C15.5796 10.74 15.6968 10.74 15.7895 10.7294C15.8844 10.7186 15.9627 10.6958 16.0282 10.6437C16.0504 10.626 16.0709 10.6063 16.0892 10.5847C16.1433 10.5208 16.1672 10.4442 16.1785 10.3515C16.1895 10.2614 16.1895 10.1477 16.1895 10.0047V9.99535C16.1895 9.85229 16.1895 9.73857 16.1785 9.64851C16.1672 9.5558 16.1433 9.47922 16.0892 9.41533C16.0709 9.39373 16.0504 9.37396 16.0282 9.35628C15.9627 9.30424 15.8844 9.28145 15.7895 9.27058C15.6968 9.25998 15.5796 9.25998 15.4315 9.25998Z" fill="currentcolor" />
  <path d="M4.57731 11.9428H4.56844C4.42035 11.9428 4.30318 11.9428 4.21053 11.9534C4.11556 11.9643 4.03733 11.9871 3.97182 12.0391C3.94958 12.0568 3.92914 12.0766 3.91083 12.0982C3.85668 12.1621 3.83285 12.2387 3.82153 12.3314C3.81053 12.4214 3.81054 12.5351 3.81054 12.6782V12.6875C3.81054 12.8305 3.81053 12.9443 3.82153 13.0343C3.83285 13.127 3.85668 13.2036 3.91083 13.2675C3.92914 13.2891 3.94957 13.3089 3.97182 13.3266C4.03733 13.3786 4.11556 13.4014 4.21053 13.4123C4.30318 13.4229 4.42034 13.4229 4.56843 13.4229H4.57731C4.7254 13.4229 4.84257 13.4229 4.93522 13.4123C5.03019 13.4014 5.10842 13.3786 5.17393 13.3266C5.19617 13.3089 5.21661 13.2891 5.23492 13.2675C5.28907 13.2036 5.3129 13.127 5.32422 13.0343C5.33522 12.9443 5.33521 12.8306 5.33521 12.6875V12.6782C5.33521 12.5351 5.33522 12.4214 5.32422 12.3314C5.3129 12.2387 5.28907 12.1621 5.23492 12.0982C5.21661 12.0766 5.19617 12.0568 5.17393 12.0391C5.10842 11.9871 5.03019 11.9643 4.93522 11.9534C4.84257 11.9428 4.7254 11.9428 4.57731 11.9428Z" fill="currentcolor" />
  <path d="M7.11323 11.9428C6.69415 11.9428 6.35089 12.2722 6.35089 12.6829C6.35089 13.0935 6.69415 13.4229 7.11323 13.4229L12.6558 13.4229C13.0749 13.4229 13.4182 13.0935 13.4182 12.6829C13.4182 12.2722 13.0749 11.9428 12.6558 11.9428L7.11323 11.9428Z" fill="currentcolor" />
  <path d="M15.4316 11.9428H15.4227C15.2746 11.9428 15.1574 11.9428 15.0648 11.9534C14.9698 11.9643 14.8916 11.9871 14.8261 12.0391C14.8038 12.0568 14.7834 12.0766 14.7651 12.0982C14.7109 12.1621 14.6871 12.2387 14.6758 12.3314C14.6648 12.4214 14.6648 12.5351 14.6648 12.6782V12.6875C14.6648 12.8306 14.6648 12.9443 14.6758 13.0343C14.6871 13.127 14.7109 13.2036 14.7651 13.2675C14.7834 13.2891 14.8038 13.3089 14.8261 13.3266C14.8916 13.3786 14.9698 13.4014 15.0648 13.4123C15.1574 13.4229 15.2746 13.4229 15.4227 13.4229H15.4316C15.5796 13.4229 15.6968 13.4229 15.7895 13.4123C15.8844 13.4014 15.9627 13.3786 16.0282 13.3266C16.0504 13.3089 16.0709 13.2891 16.0892 13.2675C16.1433 13.2036 16.1672 13.127 16.1785 13.0343C16.1895 12.9443 16.1895 12.8306 16.1895 12.6875V12.6782C16.1895 12.5351 16.1895 12.4214 16.1785 12.3314C16.1672 12.2387 16.1433 12.1621 16.0892 12.0982C16.0709 12.0766 16.0504 12.0568 16.0282 12.0391C15.9627 11.9871 15.8844 11.9643 15.7895 11.9534C15.6968 11.9428 15.5796 11.9428 15.4316 11.9428Z" fill="currentcolor" />
  <path fill-rule="evenodd" d="M12.8277 3H7.17228C5.69594 2.99998 4.51081 2.99997 3.57971 3.12116C2.61512 3.24671 1.80981 3.51435 1.17099 4.13278C0.531882 4.7515 0.255026 5.53192 0.125209 6.46667C-2.86698e-05 7.36845 -1.57441e-05 8.51607 3.64136e-07 9.94494V10.055C-1.57441e-05 11.4839 -2.86698e-05 12.6316 0.125209 13.5333C0.255026 14.4681 0.531882 15.2485 1.17099 15.8672C1.80981 16.4856 2.61512 16.7533 3.57971 16.8788C4.5108 17 5.69592 17 7.17226 17H12.8277C14.3041 17 15.4892 17 16.4203 16.8788C17.3849 16.7533 18.1902 16.4856 18.829 15.8672C19.4681 15.2485 19.745 14.4681 19.8748 13.5333C20 12.6315 20 11.4839 20 10.055V9.94499C20 8.5161 20 7.36846 19.8748 6.46667C19.745 5.53192 19.4681 4.7515 18.829 4.13278C18.1902 3.51435 17.3849 3.24671 16.4203 3.12116C15.4892 2.99997 14.3041 2.99998 12.8277 3ZM3.78234 4.58807C4.60033 4.4816 5.68304 4.48004 7.2287 4.48004H12.7713C14.317 4.48004 15.3997 4.4816 16.2177 4.58807C17.0139 4.6917 17.4442 4.88242 17.7524 5.18076C18.0603 5.47883 18.2569 5.89457 18.3638 6.66443C18.4737 7.45582 18.4753 8.5035 18.4753 10C18.4753 11.4965 18.4737 12.5442 18.3638 13.3356C18.2569 14.1054 18.0603 14.5212 17.7524 14.8192C17.4442 15.1176 17.0139 15.3083 16.2177 15.4119C15.3997 15.5184 14.317 15.52 12.7713 15.52H7.2287C5.68304 15.52 4.60033 15.5184 3.78234 15.4119C2.9861 15.3083 2.55583 15.1176 2.24764 14.8192C1.93974 14.5212 1.74313 14.1054 1.63621 13.3356C1.52631 12.5442 1.52468 11.4965 1.52468 10C1.52468 8.5035 1.52631 7.45582 1.63621 6.66443C1.74313 5.89457 1.93974 5.47883 2.24764 5.18076C2.55583 4.88242 2.9861 4.6917 3.78234 4.58807Z" fill="currentcolor" />
</svg>
