<svg
  xmlns="http://www.w3.org/2000/svg"
  width="20"
  height="20"
  viewBox="0 0 20 20"
  fill="none"
>
  <path
    fill-rule="evenodd"
    clip-rule="evenodd"
    d="M4.40947 9.60523C4.23585 9.22668 3.78779 9.05744 3.40518 9.22722C3.02045 9.39795 2.84759 9.84683 3.01909 10.2298L3.02347 10.2394C3.02101 10.2341 3.01909 10.2298 3.01909 10.2298L3.01998 10.2318L3.02101 10.2341L3.02347 10.2394L3.03 10.2534C3.03508 10.2641 3.04164 10.2776 3.04972 10.2937C3.06588 10.3257 3.0882 10.3681 3.1171 10.4188C3.1748 10.52 3.2595 10.6557 3.37482 10.8093C3.60449 11.1154 3.96312 11.5028 4.4809 11.8272C5.01095 12.1592 5.56081 12.3114 5.96411 12.3828C6.16842 12.419 6.34268 12.4358 6.46891 12.4436C6.53222 12.4475 6.58404 12.4491 6.62218 12.4498C6.64127 12.4501 6.65698 12.4502 6.66906 12.4501L6.68443 12.45L6.69002 12.4499L6.69228 12.4499L6.69374 12.4498C7.11487 12.4405 7.44913 12.0932 7.4398 11.6739C7.4305 11.256 7.08372 10.9245 6.66439 10.9316L6.64757 10.9315C6.63055 10.9312 6.60167 10.9304 6.5629 10.928C6.48496 10.9232 6.36945 10.9123 6.23141 10.8878C5.95 10.838 5.60477 10.737 5.29333 10.5419C4.96961 10.3392 4.74254 10.0947 4.59689 9.90056C4.52454 9.80415 4.47418 9.72269 4.44372 9.66926C4.42855 9.64266 4.41852 9.62337 4.41335 9.6131L4.40947 9.60523ZM6.66439 10.9316L6.66194 10.9317L6.6608 10.9317"
    fill="currentColor"
  />
  <path
    fill-rule="evenodd"
    clip-rule="evenodd"
    d="M7.69092 1.35134C8.48595 0.0331557 10.2039 -0.393866 11.5281 0.397563C12.2153 0.808274 12.6613 1.46641 12.8204 2.18879L12.9826 2.27333C14.7224 3.17999 15.7923 4.21245 16.9292 5.96767C17.7252 7.19668 17.9974 8.6938 18 10.178C18.0026 11.668 17.7337 13.2099 17.3845 14.5873C17.0343 15.9685 16.5969 17.2091 16.2481 18.1029C16.1958 18.237 16.1454 18.3634 16.0975 18.4815H17.2324C17.6536 18.4815 17.9951 18.8214 17.9951 19.2407C17.9951 19.6601 17.6536 20 17.2324 20H7.82134C7.40011 20 7.05864 19.6601 7.05864 19.2407C7.05864 18.8214 7.40011 18.4815 7.82134 18.4815H14.4451C14.5451 18.2504 14.6772 17.9348 14.8262 17.553C15.1597 16.6985 15.5749 15.5194 15.9054 14.2157C16.2369 12.9083 16.4769 11.5 16.4746 10.1806C16.4722 8.85534 16.2257 7.68368 15.6472 6.79055C14.7281 5.37163 13.9172 4.55135 12.6773 3.83853C12.6241 3.96752 12.5605 4.09415 12.4862 4.21736L11.975 5.06498C12.8584 6.6241 12.984 8.5684 12.1779 10.2866C11.6145 11.4875 10.1233 11.9565 8.97192 11.2684L3.09049 7.75318C1.93908 7.06501 1.65401 5.53429 2.45391 4.47478C3.59861 2.95858 5.38196 2.15492 7.17996 2.19854L7.69092 1.35134ZM10.7429 1.69945C10.141 1.33971 9.3601 1.53381 8.99872 2.13298L8.86786 2.34996L11.0475 3.6527L11.1784 3.43572C11.5398 2.83654 11.3448 2.05919 10.7429 1.69945ZM3.67332 5.3871C4.96031 3.68243 7.34288 3.21003 9.17198 4.30324C11.0011 5.39644 11.7022 7.71191 10.7958 9.64403C10.6104 10.0391 10.1227 10.185 9.75711 9.96649L3.87569 6.4513C3.51008 6.23278 3.41015 5.73568 3.67332 5.3871Z"
    fill="currentColor"
  />
</svg>
