<svg
  xmlns="http://www.w3.org/2000/svg"
  width="20"
  height="20"
  viewBox="0 0 20 20"
  fill="none"
>
  <path
    fill-rule="evenodd"
    clip-rule="evenodd"
    d="M15.5905 9.60523C15.7641 9.22668 16.2122 9.05744 16.5948 9.22722C16.9796 9.39795 17.1524 9.84683 16.9809 10.2298L16.9765 10.2394C16.979 10.2341 16.9809 10.2298 16.9809 10.2298L16.98 10.2318L16.979 10.2341L16.9765 10.2394L16.97 10.2534C16.9649 10.2641 16.9584 10.2776 16.9503 10.2937C16.9341 10.3257 16.9118 10.3681 16.8829 10.4188C16.8252 10.52 16.7405 10.6557 16.6252 10.8093C16.3955 11.1154 16.0369 11.5028 15.5191 11.8272C14.989 12.1592 14.4392 12.3114 14.0359 12.3828C13.8316 12.419 13.6573 12.4358 13.5311 12.4436C13.4678 12.4475 13.416 12.4491 13.3778 12.4498C13.3587 12.4501 13.343 12.4502 13.3309 12.4501L13.3156 12.45L13.31 12.4499L13.3077 12.4499L13.3063 12.4498C12.8851 12.4405 12.5509 12.0932 12.5602 11.6739C12.5695 11.256 12.9163 10.9245 13.3356 10.9316L13.3524 10.9315C13.3695 10.9312 13.3983 10.9304 13.4371 10.928C13.515 10.9232 13.6305 10.9123 13.7686 10.8878C14.05 10.838 14.3952 10.737 14.7067 10.5419C15.0304 10.3392 15.2575 10.0947 15.4031 9.90056C15.4755 9.80415 15.5258 9.72269 15.5563 9.66926C15.5714 9.64266 15.5815 9.62337 15.5867 9.6131L15.5905 9.60523ZM13.3356 10.9316L13.3381 10.9317L13.3392 10.9317"
    fill="currentColor"
  />
  <path
    fill-rule="evenodd"
    clip-rule="evenodd"
    d="M12.3091 1.35134C11.5141 0.0331557 9.7961 -0.393866 8.47192 0.397563C7.78474 0.808274 7.33865 1.46641 7.17959 2.18879L7.01738 2.27333C5.27763 3.17999 4.20769 4.21245 3.07081 5.96767C2.27477 7.19668 2.00262 8.6938 2.00002 10.178C1.99741 11.668 2.26632 13.2099 2.61553 14.5873C2.9657 15.9685 3.40305 17.2091 3.75189 18.1029C3.8042 18.237 3.8546 18.3634 3.90248 18.4815H2.76764C2.34641 18.4815 2.00493 18.8214 2.00493 19.2407C2.00493 19.6601 2.34641 20 2.76764 20H12.1787C12.5999 20 12.9414 19.6601 12.9414 19.2407C12.9414 18.8214 12.5999 18.4815 12.1787 18.4815H5.55493C5.45489 18.2504 5.32278 17.9348 5.17376 17.553C4.84026 16.6985 4.42509 15.5194 4.09456 14.2157C3.76308 12.9083 3.52311 11.5 3.52543 10.1806C3.52775 8.85534 3.77434 7.68368 4.35283 6.79055C5.27189 5.37163 6.08284 4.55135 7.32269 3.83853C7.37588 3.96752 7.4395 4.09415 7.51381 4.21736L8.02503 5.06498C7.14159 6.6241 7.01602 8.5684 7.82209 10.2866C8.38547 11.4875 9.87667 11.9565 11.0281 11.2684L16.9095 7.75318C18.0609 7.06501 18.346 5.53429 17.5461 4.47478C16.4014 2.95858 14.618 2.15492 12.82 2.19854L12.3091 1.35134ZM9.25711 1.69945C9.85901 1.33971 10.6399 1.53381 11.0013 2.13298L11.1321 2.34996L8.95247 3.6527L8.82161 3.43572C8.46023 2.83654 8.65522 2.05919 9.25711 1.69945ZM16.3267 5.3871C15.0397 3.68243 12.6571 3.21003 10.828 4.30324C8.99893 5.39644 8.29778 7.71191 9.20421 9.64403C9.38956 10.0391 9.87728 10.185 10.2429 9.96649L16.1243 6.4513C16.4899 6.23278 16.5899 5.73568 16.3267 5.3871Z"
    fill="currentColor"
  />
</svg>
