<svg
  xmlns="http://www.w3.org/2000/svg"
  width="20"
  height="20"
  viewBox="0 0 20 20"
  fill="none"
>
  <path
    fill-rule="evenodd"
    clip-rule="evenodd"
    d="M7.69092 1.35134C8.48595 0.0331557 10.2039 -0.393866 11.5281 0.397563C12.2153 0.808274 12.6613 1.46641 12.8204 2.18879L12.9826 2.27333C14.7224 3.17999 15.7923 4.21245 16.9292 5.96767C17.7252 7.19668 17.9974 8.6938 18 10.178C18.0026 11.668 17.7337 13.2099 17.3845 14.5873C17.0343 15.9685 16.5969 17.2091 16.2481 18.1029C16.1958 18.237 16.1454 18.3634 16.0975 18.4815H17.2324C17.6536 18.4815 17.9951 18.8214 17.9951 19.2407C17.9951 19.6601 17.6536 20 17.2324 20H7.82134C7.40011 20 7.05864 19.6601 7.05864 19.2407C7.05864 18.8214 7.40011 18.4815 7.82134 18.4815H14.4451C14.5451 18.2504 14.6772 17.9348 14.8262 17.553C15.1597 16.6985 15.5749 15.5194 15.9054 14.2157C16.2369 12.9083 16.4769 11.5 16.4746 10.1806C16.4722 8.85534 16.2257 7.68368 15.6472 6.79055C14.7281 5.37163 13.9172 4.55135 12.6773 3.83853C12.6241 3.96752 12.5605 4.09415 12.4862 4.21736L11.975 5.06498C12.8584 6.6241 12.984 8.5684 12.1779 10.2866C11.6145 11.4875 10.1233 11.9565 8.97192 11.2684L3.09049 7.75318C1.93908 7.06501 1.65401 5.53429 2.45391 4.47478C3.59861 2.95858 5.38196 2.15492 7.17996 2.19854L7.69092 1.35134ZM10.7429 1.69945C10.141 1.33971 9.3601 1.53381 8.99872 2.13298L8.86786 2.34996L11.0475 3.6527L11.1784 3.43572C11.5398 2.83654 11.3448 2.05919 10.7429 1.69945ZM3.67332 5.3871C4.96031 3.68243 7.34288 3.21003 9.17198 4.30324C11.0011 5.39644 11.7022 7.71191 10.7958 9.64403C10.6104 10.0391 10.1227 10.185 9.75711 9.96649L3.87569 6.4513C3.51008 6.23278 3.41015 5.73568 3.67332 5.3871Z"
    fill="currentColor"
  />
</svg>
