<svg
  xmlns="http://www.w3.org/2000/svg"
  width="20"
  height="20"
  viewBox="0 0 20 20"
  fill="none"
>
  <path
    d="M11.9335 2H8.06642C6.78662 1.99998 5.74832 1.99997 4.93015 2.10425C4.07821 2.21283 3.35 2.44641 2.76981 2.99642C2.18911 3.54691 1.94203 4.23866 1.82725 5.04795C1.71715 5.82425 1.71717 6.80909 1.71719 8.02172L1.71719 12.08C1.71719 12.4903 2.06693 12.8168 2.49069 12.8168C2.91446 12.8168 3.2642 12.4903 3.2642 12.08V8.07577C3.2642 6.79638 3.26586 5.91139 3.36033 5.24526C3.45174 4.60074 3.61702 4.2723 3.86114 4.04087C4.10577 3.80897 4.45372 3.65164 5.13537 3.56476C5.83895 3.47509 6.77338 3.47354 8.12265 3.47354H11.8773C13.2266 3.47354 14.161 3.47509 14.8646 3.56476C15.5462 3.65164 15.8942 3.80897 16.1388 4.04087C16.3829 4.2723 16.5482 4.60074 16.6396 5.24526C16.7341 5.91139 16.7358 6.79638 16.7358 8.07577V12.08C16.7358 12.4903 17.0855 12.8168 17.5093 12.8168C17.933 12.8168 18.2828 12.4903 18.2828 12.08V8.02171C18.2828 6.80908 18.2828 5.82424 18.1727 5.04795C18.0579 4.23866 17.8108 3.54691 17.2301 2.99642C16.65 2.44641 15.9217 2.21283 15.0698 2.10425C14.2516 1.99997 13.2133 1.99998 11.9335 2Z"
    fill="currentColor"
  />
  <path
    fill-rule="evenodd"
    clip-rule="evenodd"
    d="M2.18526 13.7826C0.485416 13.7826 -0.567121 15.5832 0.32438 16.9918C0.721144 17.6187 1.42638 18 2.18526 18H17.8147C18.5736 18 19.2789 17.6187 19.6756 16.9918C20.5671 15.5832 19.5146 13.7826 17.8147 13.7826H2.18526ZM1.64332 16.2087C1.38811 15.8055 1.68603 15.2809 2.18526 15.2809H17.8147C18.314 15.2809 18.6119 15.8055 18.3567 16.2087C18.2419 16.3901 18.0368 16.5017 17.8147 16.5017H2.18526C1.96316 16.5017 1.7581 16.3901 1.64332 16.2087Z"
    fill="currentColor"
  />
</svg>
