<svg width="20" height="20" viewBox="0 0 20 20" fill="currentColor" xmlns="http://www.w3.org/2000/svg">
  <path d="M16.3285 1C15.8995 1 15.5506 1.34466 15.5506 1.77119V2.87118L14.4394 2.87118C14.0104 2.87118 13.6615 3.21584 13.6615 3.64237C13.6615 4.06891 14.0104 4.41356 14.4394 4.41356H15.5506V5.51377C15.5506 5.9403 15.8995 6.28496 16.3285 6.28496C16.7575 6.28496 17.1064 5.9403 17.1064 5.51377V4.41356H18.2176C18.6466 4.41356 18.9955 4.06891 18.9955 3.64237C18.9955 3.21584 18.6466 2.87118 18.2176 2.87118L17.1064 2.87118V1.77119C17.1064 1.34466 16.7575 1 16.3285 1Z" fill="currentColor" />
  <path fill-rule="evenodd" d="M10 4.62002C9.71113 4.62002 9.46028 4.69245 9.22698 4.78816C9.01557 4.87489 8.77826 4.99864 8.52086 5.13285L2.82347 8.10318C2.38074 8.33393 1.97393 8.54596 1.68424 8.75567C1.38423 8.97285 1.00158 9.33446 1 9.91117C0.998428 10.4879 1.37909 10.8515 1.67791 11.0703C1.96645 11.2816 2.37209 11.4958 2.81355 11.7289L8.50557 14.7356C8.76552 14.8729 9.0051 14.9995 9.21859 15.0882C9.45417 15.1861 9.70772 15.2602 10 15.2602C10.2923 15.2602 10.5458 15.1861 10.7814 15.0882C10.9949 14.9995 11.2344 14.8729 11.4944 14.7356L17.1864 11.729C17.6279 11.4958 18.0335 11.2816 18.3221 11.0703C18.6209 10.8515 19.0016 10.4879 19 9.91117C18.9984 9.33446 18.6158 8.97285 18.3158 8.75567C18.0261 8.54595 17.6192 8.33392 17.1765 8.10316L11.4791 5.13285C11.2217 4.99864 10.9844 4.87489 10.773 4.78816C10.5397 4.69245 10.2889 4.62002 10 4.62002ZM9.82186 6.21334C9.94456 6.163 9.98547 6.16241 10 6.16241C10.0145 6.16241 10.0554 6.163 10.1781 6.21334C10.3155 6.26968 10.4891 6.35937 10.7817 6.51192L16.4024 9.44224C16.8076 9.65352 17.0816 9.79778 17.2703 9.91582C17.0823 10.0349 16.8091 10.1806 16.405 10.394L10.7898 13.3601C10.4943 13.5162 10.3189 13.608 10.18 13.6657C10.056 13.7172 10.0146 13.7178 10 13.7178C9.98535 13.7178 9.94401 13.7172 9.81995 13.6657C9.68112 13.608 9.50566 13.5162 9.21022 13.3601L3.59498 10.394C3.1909 10.1806 2.91773 10.0349 2.72968 9.91582C2.91838 9.79778 3.19235 9.65352 3.59759 9.44224L9.21825 6.51192C9.51085 6.35937 9.68451 6.26968 9.82186 6.21334Z" fill="currentColor" />
  <path d="M2.14797 13.3325C1.77008 13.1311 1.29851 13.271 1.09473 13.6461C0.890745 14.0215 1.03295 14.4894 1.41121 14.691L8.49498 18.4671C8.75667 18.6066 8.9978 18.7352 9.21272 18.8253C9.44988 18.9247 9.70532 19 10 19C10.2947 19 10.5501 18.9247 10.7873 18.8253C11.0022 18.7352 11.2433 18.6066 11.505 18.4671L18.5888 14.691C18.9671 14.4894 19.1093 14.0215 18.9053 13.6461C18.7015 13.271 18.23 13.1311 17.8521 13.3325L10.7954 17.0942C10.498 17.2527 10.3212 17.346 10.1814 17.4046C10.0564 17.457 10.0147 17.4576 10 17.4576C9.98527 17.4576 9.94361 17.457 9.81861 17.4046C9.67875 17.346 9.50203 17.2527 9.2046 17.0941L2.14797 13.3325Z" fill="currentColor" />
</svg>
