<svg width="20" height="20" viewBox="0 0 20 20" fill="currentcolor" xmlns="http://www.w3.org/2000/svg">
  <path fill-rule="evenodd" d="M10 1C9.71122 1 9.46041 1.07192 9.22713 1.16699C9.01574 1.25313 8.77844 1.37604 8.52105 1.50936L2.82364 4.45984C2.38091 4.68905 1.9741 4.89966 1.68442 5.10796C1.3845 5.32363 1.00158 5.68295 1 6.25625C0.998426 6.82956 1.37937 7.19092 1.67809 7.40818C1.96662 7.61802 2.37226 7.8308 2.81371 8.06236L8.5057 11.0489C8.76568 11.1853 9.00525 11.311 9.21875 11.3992C9.4543 11.4964 9.7078 11.57 10 11.57C10.2922 11.57 10.5457 11.4964 10.7813 11.3992C10.9947 11.3111 11.2343 11.1853 11.4942 11.0489L17.1862 8.06241C17.6277 7.83083 18.0334 7.61804 18.3219 7.40818C18.6206 7.19092 19.0016 6.82956 19 6.25625C18.9984 5.68295 18.6155 5.32363 18.3156 5.10796C18.0259 4.89965 17.6191 4.68904 17.1763 4.45983L11.4789 1.50935C11.2216 1.37604 10.9843 1.25313 10.7729 1.16699C10.5396 1.07192 10.2888 1 10 1ZM9.82171 2.58362C9.94443 2.53361 9.98539 2.533 10 2.533C10.0146 2.533 10.0556 2.53361 10.1783 2.58362C10.3156 2.6396 10.4893 2.72869 10.7819 2.88022L16.4026 5.79095C16.8072 6.00052 17.081 6.14371 17.2697 6.26087C17.0817 6.37903 16.8087 6.52369 16.4052 6.7354L10.79 9.68166C10.4945 9.83668 10.319 9.92788 10.1802 9.98519C10.0561 10.0364 10.0147 10.037 10 10.037C9.98527 10.037 9.94387 10.0364 9.8198 9.98519C9.68096 9.92788 9.50549 9.83668 9.21005 9.68166L3.59481 6.7354C3.19131 6.52368 2.91834 6.37903 2.7303 6.26087C2.91899 6.14372 3.19276 6.00052 3.59742 5.79096L9.21808 2.88022C9.51068 2.72869 9.68435 2.6396 9.82171 2.58362Z" fill="currentcolor" />
  <path d="M2.14772 9.65427C1.77012 9.45433 1.29866 9.59298 1.09475 9.96582C0.890474 10.3393 1.03308 10.8044 1.41131 11.0047L8.49508 14.7555C8.75679 14.8941 8.99788 15.0218 9.2128 15.1113C9.44994 15.21 9.70533 15.2848 9.99992 15.2848C10.2945 15.2848 10.5499 15.21 10.787 15.1113C11.002 15.0218 11.2431 14.8941 11.5048 14.7555L18.5886 11.0047C18.9668 10.8044 19.1094 10.3393 18.9051 9.96582C18.7012 9.59298 18.2298 9.45433 17.8522 9.65427L10.7955 13.3907C10.4981 13.5482 10.3213 13.6409 10.1815 13.6992C10.0564 13.7512 10.0147 13.7518 9.99992 13.7518C9.98511 13.7518 9.9434 13.7512 9.81838 13.6992C9.6785 13.6409 9.50178 13.5482 9.20435 13.3907L2.14772 9.65427Z" fill="currentcolor" />
  <path d="M2.14772 13.3694C1.77012 13.1695 1.29866 13.3082 1.09475 13.681C0.890474 14.0545 1.03308 14.5196 1.41131 14.7198L8.49505 18.4707C8.75677 18.6093 8.99788 18.737 9.2128 18.8265C9.44994 18.9252 9.70533 19 9.99992 19C10.2945 19 10.5499 18.9252 10.787 18.8265C11.0019 18.737 11.243 18.6093 11.5047 18.4707L18.5886 14.7198C18.9668 14.5196 19.1094 14.0545 18.9051 13.681C18.7012 13.3082 18.2298 13.1695 17.8522 13.3694L10.7955 17.1059C10.4981 17.2634 10.3213 17.3561 10.1815 17.4144C10.0564 17.4664 10.0147 17.467 9.99992 17.467C9.98511 17.467 9.9434 17.4664 9.81838 17.4144C9.6785 17.3561 9.50178 17.2634 9.20435 17.1059L2.14772 13.3694Z" fill="currentcolor" />
</svg>
