<svg
  xmlns="http://www.w3.org/2000/svg"
  width="20"
  height="20"
  viewBox="0 0 20 20"
  fill="none"
>
  <path
    d="M14.4394 2C14.0104 2 13.6615 2.34191 13.6615 2.76504C13.6615 3.18818 14.0104 3.53008 14.4394 3.53008L18.2176 3.53008C18.6466 3.53008 18.9955 3.18818 18.9955 2.76504C18.9955 2.34191 18.6466 2 18.2176 2H14.4394Z"
    fill="currentColor"
  />
  <path
    fill-rule="evenodd"
    clip-rule="evenodd"
    d="M10 3.73468C9.71113 3.73468 9.46028 3.80652 9.22698 3.90147C9.01558 3.98751 8.77827 4.11027 8.52088 4.24341L2.82349 7.19004C2.38075 7.41896 1.97393 7.6293 1.68424 7.83734C1.38423 8.0528 1.00158 8.41152 1 8.98363C0.998428 9.55575 1.37909 9.91651 1.67791 10.1336C1.96644 10.3431 2.37208 10.5556 2.81354 10.7869L8.50562 13.7696C8.76553 13.9058 9.00513 14.0314 9.21859 14.1194C9.45417 14.2165 9.70772 14.29 10 14.29C10.2923 14.29 10.5458 14.2165 10.7814 14.1194C10.9949 14.0314 11.2344 13.9058 11.4944 13.7696L17.1864 10.7869C17.6279 10.5557 18.0335 10.3431 18.3221 10.1336C18.6209 9.91651 19.0016 9.55575 19 8.98363C18.9984 8.41152 18.6158 8.0528 18.3158 7.83734C18.0261 7.6293 17.6193 7.41896 17.1765 7.19005L11.4791 4.24341C11.2217 4.11027 10.9844 3.98751 10.773 3.90147C10.5397 3.80652 10.2889 3.73468 10 3.73468ZM9.82186 5.31528C9.94456 5.26535 9.98547 5.26476 10 5.26476C10.0145 5.26476 10.0554 5.26535 10.1781 5.31528C10.3155 5.37118 10.4891 5.46016 10.7817 5.61149L16.4024 8.51844C16.8076 8.72803 17.0816 8.87115 17.2703 8.98824C17.0823 9.10634 16.8091 9.25092 16.405 9.46266L10.7898 12.4051C10.4943 12.5599 10.3189 12.651 10.18 12.7082C10.056 12.7593 10.0146 12.7599 10 12.7599C9.98535 12.7599 9.944 12.7593 9.81995 12.7082C9.68112 12.651 9.50566 12.5599 9.21022 12.4051L3.59498 9.46266C3.1909 9.25091 2.91773 9.10634 2.72968 8.98824C2.91838 8.87115 3.19235 8.72803 3.59759 8.51844L9.21825 5.61149C9.51085 5.46016 9.68451 5.37118 9.82186 5.31528Z"
    fill="currentColor"
  />
  <path
    d="M2.14797 12.3777C1.77008 12.1779 1.29851 12.3167 1.09473 12.6888C0.890745 13.0613 1.03295 13.5253 1.41121 13.7254L8.49498 17.4713C8.75668 17.6097 8.99779 17.7373 9.21272 17.8267C9.44988 17.9253 9.70532 18 10 18C10.2947 18 10.5501 17.9253 10.7873 17.8267C11.0022 17.7373 11.2433 17.6097 11.505 17.4713L18.5888 13.7254C18.9671 13.5253 19.1093 13.0613 18.9053 12.6888C18.7015 12.3167 18.23 12.1779 17.8521 12.3777L10.7954 16.1094C10.498 16.2666 10.3212 16.3592 10.1814 16.4174C10.0564 16.4694 10.0147 16.4699 10 16.4699C9.98527 16.4699 9.94361 16.4694 9.81861 16.4174C9.67875 16.3592 9.50203 16.2666 9.2046 16.1093L2.14797 12.3777Z"
    fill="currentColor"
  />
</svg>
