<svg
  xmlns="http://www.w3.org/2000/svg"
  width="20"
  height="20"
  viewBox="0 0 20 20"
  fill="none"
>
  <path
    fill-rule="evenodd"
    clip-rule="evenodd"
    d="M10.0469 1H9.95311C9.00352 0.999995 8.1653 0.99999 7.42432 1.02037C7.36838 1.00705 7.31002 1 7.25 1C7.17232 1 7.09739 1.01181 7.02692 1.03373C6.58396 1.05163 6.17826 1.07903 5.80634 1.12096C4.70838 1.24474 3.81227 1.50306 3.054 2.0849C2.69001 2.3642 2.3642 2.69001 2.0849 3.054C1.50306 3.81227 1.24474 4.70838 1.12096 5.80634C0.999983 6.87945 0.999991 8.23366 1 9.9531V10.0469C0.999991 11.7663 0.999983 13.1206 1.12096 14.1937C1.24474 15.2916 1.50306 16.1877 2.0849 16.946C2.3642 17.31 2.69001 17.6358 3.054 17.9151C3.81227 18.4969 4.70838 18.7553 5.80634 18.879C6.17826 18.921 6.58396 18.9484 7.02692 18.9663C7.09739 18.9882 7.17232 19 7.25 19C7.31002 19 7.36838 18.993 7.42432 18.9796C8.1653 19 9.0035 19 9.9531 19H10.0469C11.7663 19 13.1206 19 14.1937 18.879C15.2916 18.7553 16.1877 18.4969 16.946 17.9151C17.31 17.6358 17.6358 17.31 17.9151 16.946C18.4969 16.1877 18.7553 15.2916 18.879 14.1937C19 13.1206 19 11.7663 19 10.0469V9.9531C19 8.23366 19 6.87945 18.879 5.80634C18.7553 4.70838 18.4969 3.81227 17.9151 3.054C17.6358 2.69001 17.31 2.3642 16.946 2.0849C16.1877 1.50306 15.2916 1.24474 14.1937 1.12096C13.1206 0.999983 11.7663 0.999991 10.0469 1ZM8 17.4912C8.58679 17.4998 9.24798 17.5 10 17.5C11.7766 17.5 13.0463 17.4989 14.0256 17.3885C14.9898 17.2798 15.5792 17.0732 16.0329 16.7251C16.2929 16.5256 16.5256 16.2929 16.7251 16.0329C17.0732 15.5792 17.2798 14.9898 17.3885 14.0256C17.4989 13.0463 17.5 11.7766 17.5 10C17.5 9.24798 17.4998 8.58679 17.4912 8H8V17.4912ZM17.4358 6.5C17.4229 6.31569 17.4072 6.14084 17.3885 5.97438C17.2798 5.01019 17.0732 4.42076 16.7251 3.96715C16.5256 3.70715 16.2929 3.47443 16.0329 3.27493C15.5792 2.92685 14.9898 2.72022 14.0256 2.61152C13.0463 2.50112 11.7766 2.5 10 2.5C9.24798 2.5 8.58679 2.5002 8 2.5088V6.5H17.4358ZM6.5 2.56416C6.31569 2.57714 6.14084 2.59275 5.97438 2.61152C5.01019 2.72022 4.42076 2.92685 3.96715 3.27493C3.70715 3.47443 3.47443 3.70715 3.27493 3.96715C2.92685 4.42076 2.72022 5.01019 2.61152 5.97438C2.50112 6.95368 2.5 8.22338 2.5 10C2.5 11.7766 2.50112 13.0463 2.61152 14.0256C2.72022 14.9898 2.92685 15.5792 3.27493 16.0329C3.47443 16.2929 3.70715 16.5256 3.96715 16.7251C4.42076 17.0732 5.01019 17.2798 5.97438 17.3885C6.14084 17.4072 6.31569 17.4229 6.5 17.4358V2.56416Z"
    fill="currentColor"
  />
</svg>
