<svg width="20" height="20" viewBox="0 0 20 20" fill="currentcolor" xmlns="http://www.w3.org/2000/svg">
  <path fill-rule="evenodd" d="M10.0469 1H9.95315C8.23371 0.999991 6.87949 0.999983 5.80638 1.12096C4.70842 1.24474 3.81231 1.50306 3.05404 2.0849C2.69005 2.3642 2.36424 2.69001 2.08494 3.054C1.5031 3.81227 1.24478 4.70838 1.121 5.80634C1.07908 6.17822 1.05168 6.58387 1.03378 7.02678C1.01183 7.09729 1 7.17226 1 7.25C1 7.31007 1.00706 7.36849 1.0204 7.42448C1.00003 8.16542 1.00003 9.00357 1.00004 9.9531V10.0469C1.00003 11.7663 1.00002 13.1206 1.121 14.1937C1.24478 15.2916 1.5031 16.1877 2.08494 16.946C2.36424 17.31 2.69005 17.6358 3.05404 17.9151C3.81231 18.4969 4.70842 18.7553 5.80638 18.879C6.87949 19 8.2337 19 9.95314 19H10.0469C11.7664 19 13.1206 19 14.1937 18.879C15.2917 18.7553 16.1878 18.4969 16.946 17.9151C17.31 17.6358 17.6358 17.31 17.9151 16.946C18.497 16.1877 18.7553 15.2916 18.8791 14.1937C19.0001 13.1206 19 11.7663 19 10.0469V9.9531C19 8.23366 19.0001 6.87945 18.8791 5.80634C18.7553 4.70838 18.497 3.81227 17.9151 3.054C17.6358 2.69001 17.31 2.3642 16.946 2.0849C16.1878 1.50306 15.2917 1.24474 14.1937 1.12096C13.1206 0.999983 11.7664 0.999991 10.0469 1ZM2.50884 8C2.50024 8.58679 2.50004 9.24798 2.50004 10C2.50004 11.7766 2.50116 13.0463 2.61156 14.0256C2.72026 14.9898 2.92689 15.5792 3.27497 16.0329C3.47447 16.2929 3.70719 16.5256 3.96719 16.7251C4.4208 17.0732 5.01023 17.2798 5.97442 17.3885C6.14087 17.4072 6.31571 17.4229 6.5 17.4358L6.5 8H2.50884ZM8 17.4912C8.5868 17.4998 9.248 17.5 10 17.5C11.7767 17.5 13.0464 17.4989 14.0257 17.3885C14.9899 17.2798 15.5793 17.0732 16.0329 16.7251C16.2929 16.5256 16.5256 16.2929 16.7251 16.0329C17.0732 15.5792 17.2798 14.9898 17.3885 14.0256C17.4989 13.0463 17.5 11.7766 17.5 10C17.5 9.24798 17.4998 8.58679 17.4912 8H8L8 17.4912ZM17.4359 6.5C17.4229 6.31569 17.4073 6.14084 17.3885 5.97438C17.2798 5.01019 17.0732 4.42076 16.7251 3.96715C16.5256 3.70715 16.2929 3.47443 16.0329 3.27493C15.5793 2.92685 14.9899 2.72022 14.0257 2.61152C13.0464 2.50112 11.7767 2.5 10 2.5C8.22342 2.5 6.95372 2.50112 5.97442 2.61152C5.01023 2.72022 4.4208 2.92685 3.96719 3.27493C3.70719 3.47443 3.47447 3.70715 3.27497 3.96715C2.92689 4.42076 2.72026 5.01019 2.61156 5.97438C2.59279 6.14084 2.57718 6.31569 2.5642 6.5H17.4359Z" fill="currentcolor" />
</svg>
