<svg
  xmlns="http://www.w3.org/2000/svg"
  width="20"
  height="20"
  viewBox="0 0 20 20"
  fill="none"
>
  <path
    fill-rule="evenodd"
    clip-rule="evenodd"
    d="M19 10C19 5.02944 14.9706 1 10 1C5.02944 1 1 5.02944 1 10C1 14.9706 5.02944 19 10 19C14.9706 19 19 14.9706 19 10ZM17.0016 7.30596C17.3235 8.14209 17.5 9.05043 17.5 10C17.5 10.938 17.3278 11.8357 17.0133 12.6634L14.7805 11.5204C15.1482 10.4549 15.1543 9.29296 14.7988 8.22425L17.0016 7.30596ZM16.3225 5.96393C15.7283 5.03509 14.9351 4.24586 14.0029 3.65642L12.9447 5.69567C13.1603 5.85231 13.3661 6.0276 13.5598 6.22138C13.7674 6.42894 13.9537 6.6503 14.1187 6.88266L16.3225 5.96393ZM12.661 2.98577C11.834 2.67186 10.9371 2.5 10 2.5C9.05762 2.5 8.15584 2.67381 7.32496 2.99111L8.27993 4.99417C9.35946 4.62643 10.5366 4.62904 11.6147 5.002L12.661 2.98577ZM5.98427 3.66453C5.05561 4.25438 4.26547 5.0428 3.67359 5.97004L5.75869 6.87488C5.9222 6.64544 6.10668 6.4267 6.312 6.22138C6.51152 6.02186 6.72372 5.84201 6.94609 5.68197L5.98427 3.66453ZM2.99634 7.31129L5.07646 8.21397C4.71629 9.28916 4.72251 10.4594 5.09512 11.5313L2.98399 12.6563C2.67121 11.8306 2.5 10.9353 2.5 10C2.5 9.05245 2.67572 8.14595 2.99634 7.31129ZM3.65393 13.999C4.24483 14.9347 5.03697 15.7307 5.96956 16.3261L6.96608 14.023C6.73643 13.8593 6.51749 13.6747 6.312 13.4692C6.12001 13.2772 5.94624 13.0735 5.79081 12.8603L3.65393 13.999ZM7.31086 17.0035C8.14564 17.3242 9.05229 17.5 10 17.5C10.9431 17.5 11.8455 17.3259 12.6769 17.0082L11.5887 14.6975C10.5261 15.0587 9.36921 15.0612 8.30535 14.705L7.31086 17.0035ZM14.0175 16.3343C14.9537 15.7393 15.7491 14.9425 16.3423 14.005L14.0878 12.8509C13.9307 13.0676 13.7546 13.2744 13.5598 13.4692C13.3595 13.6695 13.1465 13.85 12.9231 14.0105L14.0175 16.3343ZM11.9347 6.82011C12.1336 6.95192 12.3229 7.10579 12.4992 7.28204C12.6754 7.4583 12.8293 7.64759 12.9611 7.84655C13.0305 7.95124 13.0938 8.0587 13.1511 8.16847C13.6975 9.21533 13.6975 10.4753 13.1511 11.5221C12.985 11.8404 12.768 12.1397 12.4992 12.4086C12.2304 12.6774 11.931 12.8944 11.6128 13.0605C10.5659 13.6069 9.30595 13.6069 8.25908 13.0605C7.94088 12.8944 7.64148 12.6774 7.37266 12.4086C7.10384 12.1397 6.88684 11.8403 6.72075 11.5221C6.17431 10.4753 6.17431 9.21533 6.72075 8.16846C6.88684 7.85026 7.10384 7.55086 7.37266 7.28204C7.64148 7.01322 7.94088 6.79623 8.25908 6.63014C9.30595 6.0837 10.5659 6.0837 11.6128 6.63014C11.7225 6.68743 11.83 6.75075 11.9347 6.82011Z"
    fill="currentColor"
  />
</svg>
