<svg width="20" height="20" viewBox="0 0 20 20" fill="currentcolor" xmlns="http://www.w3.org/2000/svg">
  <path fill-rule="evenodd" d="M10 2C10.4144 2 10.7503 2.33579 10.7503 2.75V3.77054C13.1118 3.90235 14.8487 4.65845 16.106 5.74424C17.481 6.93173 18.2177 8.45744 18.6117 9.81448L18.6304 9.8787C18.8039 10.476 18.9671 11.0376 18.9954 11.5455C19.0286 12.1402 18.8826 12.6681 18.4895 13.1914C18.0701 13.7496 17.5355 14.0193 16.8996 14.1416C16.3353 14.2502 15.6411 14.2501 14.8538 14.25H13.6684C13.6069 14.568 13.4975 14.9663 13.3006 15.3715C13.0706 15.8447 12.7129 16.3438 12.1594 16.7235C11.6 17.1072 10.886 17.3375 10 17.3375C9.11404 17.3375 8.40004 17.1072 7.84072 16.7235C7.28718 16.3438 6.92943 15.8447 6.69948 15.3715C6.50256 14.9663 6.39318 14.568 6.33172 14.25L5.14625 14.25C4.35894 14.2501 3.66467 14.2502 3.10041 14.1416C2.46451 14.0193 1.92986 13.7496 1.5105 13.1914C1.11737 12.6681 0.971391 12.1402 1.00455 11.5455C1.03287 11.0376 1.19606 10.476 1.36964 9.87871L1.38829 9.81448C1.78228 8.45745 2.51899 6.93173 3.89402 5.74424C5.15129 4.65844 6.88821 3.90234 9.24982 3.77053V2.75C9.24982 2.33579 9.5857 2 10 2ZM7.87275 14.25C7.91575 14.4006 7.97304 14.5596 8.04908 14.716C8.19423 15.0147 8.39915 15.2874 8.6896 15.4867C8.97427 15.6819 9.3856 15.8375 10 15.8375C10.6145 15.8375 11.0258 15.6819 11.3105 15.4867C11.6009 15.2874 11.8058 15.0147 11.951 14.716C12.027 14.5596 12.0843 14.4006 12.1273 14.25L7.87275 14.25ZM5.21205 12.75C4.33885 12.75 3.79037 12.7468 3.38393 12.6686C3.03345 12.6012 2.86109 12.4914 2.71026 12.2906C2.53319 12.0549 2.48884 11.8769 2.50266 11.629C2.52031 11.3125 2.63058 10.9169 2.82926 10.2326C3.17076 9.05635 3.78533 7.8203 4.87488 6.87934C5.95262 5.94859 7.56004 5.25 9.99999 5.25C12.44 5.25 14.0474 5.94859 15.1251 6.87934C16.2147 7.8203 16.8292 9.05635 17.1707 10.2326C17.3694 10.9169 17.4797 11.3125 17.4973 11.629C17.5112 11.8769 17.4668 12.0549 17.2897 12.2906C17.1389 12.4914 16.9666 12.6012 16.6161 12.6686C16.2096 12.7468 15.6611 12.75 14.7879 12.75H5.21205Z" fill="currentcolor" />
</svg>
