<svg width="20" height="20" viewBox="0 0 20 20" fill="currentcolor" xmlns="http://www.w3.org/2000/svg">
  <path fill-rule="evenodd" d="M10 1C10.4144 1 10.7503 1.33579 10.7503 1.75V2.77054C13.1118 2.90235 14.8487 3.65845 16.106 4.74424C17.481 5.93173 18.2177 7.45744 18.6117 8.81448L18.6304 8.8787C18.8039 9.47602 18.9671 10.0376 18.9954 10.5455C19.0286 11.1402 18.8826 11.6681 18.4895 12.1914C18.0701 12.7496 17.5355 13.0193 16.8996 13.1416C16.3353 13.2502 15.6411 13.2501 14.8538 13.25H13.6684C13.6069 13.568 13.4975 13.9663 13.3006 14.3715C13.0706 14.8447 12.7129 15.3438 12.1594 15.7235C11.6 16.1072 10.886 16.3375 10 16.3375C9.11404 16.3375 8.40004 16.1072 7.84072 15.7235C7.28718 15.3438 6.92943 14.8447 6.69948 14.3715C6.50256 13.9663 6.39318 13.568 6.33172 13.25L5.14625 13.25C4.35894 13.2501 3.66467 13.2502 3.10041 13.1416C2.46451 13.0193 1.92986 12.7496 1.5105 12.1914C1.11737 11.6681 0.971391 11.1402 1.00455 10.5455C1.03287 10.0376 1.19606 9.47603 1.36964 8.87871L1.38829 8.81448C1.78228 7.45745 2.51899 5.93173 3.89402 4.74424C5.15129 3.65844 6.88821 2.90234 9.24982 2.77053V1.75C9.24982 1.33579 9.5857 1 10 1ZM7.87275 13.25C7.91575 13.4006 7.97304 13.5596 8.04908 13.716C8.19423 14.0147 8.39915 14.2874 8.6896 14.4867C8.97427 14.6819 9.3856 14.8375 10 14.8375C10.6145 14.8375 11.0258 14.6819 11.3105 14.4867C11.6009 14.2874 11.8058 14.0147 11.951 13.716C12.027 13.5596 12.0843 13.4006 12.1273 13.25L7.87275 13.25ZM5.21205 11.75C4.33885 11.75 3.79037 11.7468 3.38393 11.6686C3.03345 11.6012 2.86109 11.4914 2.71026 11.2906C2.53319 11.0549 2.48884 10.8769 2.50266 10.629C2.52031 10.3125 2.63058 9.91692 2.82926 9.23259C3.17076 8.05635 3.78533 6.8203 4.87488 5.87934C5.95262 4.94859 7.56004 4.25 9.99999 4.25C12.44 4.25 14.0474 4.94859 15.1251 5.87934C16.2147 6.8203 16.8292 8.05635 17.1707 9.23259C17.3694 9.91692 17.4797 10.3125 17.4973 10.629C17.5112 10.8769 17.4668 11.0549 17.2897 11.2906C17.1389 11.4914 16.9666 11.6012 16.6161 11.6686C16.2096 11.7468 15.6611 11.75 14.7879 11.75H5.21205Z" fill="currentcolor" />
  <path d="M6.52936 16.2236C6.82234 16.5165 6.82234 16.9913 6.52936 17.2842L6.02922 17.7842C5.73624 18.0771 5.26123 18.0771 4.96825 17.7842C4.67528 17.4913 4.67528 17.0165 4.96825 16.7236L5.4684 16.2236C5.76138 15.9307 6.23639 15.9307 6.52936 16.2236Z" fill="currentcolor" />
  <path d="M13.4707 16.2236C13.1777 16.5165 13.1777 16.9913 13.4707 17.2842L13.9709 17.7842C14.2638 18.0771 14.7388 18.0771 15.0318 17.7842C15.3248 17.4913 15.3248 17.0165 15.0318 16.7236L14.5317 16.2236C14.2387 15.9307 13.7637 15.9307 13.4707 16.2236Z" fill="currentcolor" />
  <path d="M10.7503 17.7539C10.7503 17.3397 10.4144 17.0039 10 17.0039C9.5857 17.0039 9.24982 17.3397 9.24982 17.7539V18.2539C9.24982 18.6681 9.5857 19.0039 10 19.0039C10.4144 19.0039 10.7503 18.6681 10.7503 18.2539V17.7539Z" fill="currentcolor" />
</svg>
