<svg width="20" height="20" viewBox="0 0 20 20" fill="currentColor" xmlns="http://www.w3.org/2000/svg">
  <path fill-rule="evenodd" d="M9.99217 2.37613C10.4067 2.37613 10.7427 2.7122 10.7427 3.12675V4.39993H10.75C14.843 4.39993 18.3275 7.378 18.9655 11.4213C19.2307 13.1016 17.9321 14.6214 16.2311 14.6214H13.2351C13.1074 16.3009 11.7043 17.6239 9.99223 17.6239C8.28017 17.6239 6.87708 16.3009 6.74933 14.6214H3.76893C2.06795 14.6214 0.769312 13.1016 1.03446 11.4213C1.67203 7.38074 5.15231 4.40397 9.24162 4.39993V3.12675C9.24162 2.7122 9.57766 2.37613 9.99217 2.37613ZM8.25869 14.6214C8.38008 15.4702 9.10997 16.1226 9.99223 16.1226C10.8745 16.1226 11.6044 15.4702 11.7258 14.6214H8.25869ZM9.24996 5.90116C5.89574 5.90116 3.04007 8.34175 2.51721 11.6553C2.39584 12.4245 2.9903 13.1202 3.76893 13.1202L16.2311 13.1202C17.0097 13.1202 17.6042 12.4245 17.4828 11.6553C16.9599 8.34175 14.1043 5.90116 10.75 5.90116H9.24996Z" fill="currentColor" />
</svg>
