<svg width="20" height="20" viewBox="0 0 20 20" fill="currentcolor" xmlns="http://www.w3.org/2000/svg">
  <path d="M9.37306 1.00231C8.48943 0.964781 7.49575 1.38108 7.17683 2.49661C7.05904 2.90865 7.07248 3.27127 7.1168 3.57049C7.13711 3.70758 7.1639 3.83137 7.18752 3.94051L7.18798 3.94267C7.19659 3.98244 7.20471 4.01996 7.21199 4.0556C7.27994 4.38837 7.32735 4.71229 7.17683 5.2388C7.12931 5.40503 7.06715 5.57726 6.99491 5.75103C6.81264 6.18947 6.56619 6.63775 6.32862 7.0245C6.16651 7.28842 6.01577 7.51213 5.906 7.66923C5.85124 7.74762 5.80697 7.80898 5.77697 7.85C5.76197 7.87049 5.75057 7.88588 5.74322 7.89572L5.73521 7.90642L5.73354 7.90863C5.48121 8.24127 5.5461 8.71551 5.87862 8.96811C6.21128 9.22083 6.68578 9.15603 6.93849 8.82337L6.93676 8.82545L6.93976 8.82172L6.94039 8.8209L6.94395 8.81618L6.95577 8.8004C6.96584 8.7869 6.98008 8.76769 6.99801 8.74318C7.03385 8.69418 7.08452 8.6239 7.14612 8.53574C7.26909 8.35975 7.43684 8.11077 7.6177 7.81633C7.97197 7.23958 8.40686 6.44006 8.6314 5.65465C8.87287 4.81006 8.78961 4.21993 8.69424 3.7529L8.67232 3.64635C8.59549 3.27446 8.56783 3.13482 8.6314 2.91246C8.6696 2.77887 8.7414 2.6774 8.84842 2.61016C8.95654 2.54223 9.10708 2.50524 9.30887 2.51381C9.73466 2.53189 10.1812 2.76762 10.4038 3.11372C10.6455 3.48951 10.7638 3.96914 10.7964 4.51246C10.8289 5.05541 10.7756 5.65707 10.6785 6.27286C10.5558 7.05128 10.7124 7.84584 11.3003 8.34804C11.9011 8.86121 12.7151 8.86966 13.4653 8.57354C14.0825 8.32995 14.72 8.10499 15.3074 7.98376C15.9118 7.859 16.3567 7.86761 16.6456 7.97991C16.8131 8.04501 16.956 8.13777 17.0749 8.27945C17.1943 8.42167 17.2927 8.61676 17.3653 8.89075C17.5223 9.48333 17.5394 10.3908 17.3468 11.7381C16.9661 14.4014 16.2257 15.7836 15.3525 16.5241C14.4834 17.2611 13.338 17.4872 11.8239 17.4871C10.1179 17.4871 9.17997 17.1748 8.54938 16.8069C8.22597 16.6183 7.95861 16.4008 7.68865 16.1576C7.61048 16.0872 7.52685 16.0096 7.439 15.928L7.43819 15.9272C7.24385 15.7467 7.02922 15.5474 6.81404 15.372C6.49019 15.1081 6.01372 15.1567 5.74981 15.4805C5.48591 15.8044 5.5345 16.2809 5.85835 16.5448C6.03623 16.6897 6.19035 16.8331 6.36503 16.9956C6.46032 17.0843 6.56202 17.1789 6.67625 17.2818C6.98183 17.557 7.3365 17.8509 7.78709 18.1137C8.70452 18.6489 9.92251 19 11.8239 19C13.4457 19 15.0442 18.7691 16.3309 17.6779C17.6136 16.5903 18.4412 14.7732 18.8444 11.9521C19.0462 10.5409 19.0632 9.39183 18.8276 8.50317C18.5792 7.56587 18.0404 6.89891 17.1937 6.56982C16.4966 6.29887 15.7029 6.35737 15.0015 6.50214C14.283 6.65044 13.5476 6.91463 12.9099 7.16632C12.4853 7.33392 12.3193 7.22875 12.283 7.19774C12.2341 7.15598 12.0988 6.97818 12.1729 6.50853C12.3671 5.27725 12.5003 3.57662 11.6761 2.29528C11.1572 1.48845 10.2316 1.03878 9.37306 1.00231Z" fill="currentcolor" />
  <path fill-rule="evenodd" d="M3.13035 6.49565C1.95379 6.49565 1 7.44945 1 8.62602V15.9537C1 17.1303 1.95379 18.0841 3.13035 18.0841C4.30691 18.0841 5.2607 17.1303 5.2607 15.9537V8.62602C5.2607 7.44945 4.30691 6.49565 3.13035 6.49565ZM2.51285 8.62602C2.51285 8.28498 2.78931 8.00851 3.13035 8.00851C3.47139 8.00851 3.74786 8.28498 3.74786 8.62602V15.9537C3.74786 16.2947 3.47139 16.5712 3.13035 16.5712C2.78931 16.5712 2.51285 16.2947 2.51285 15.9537V8.62602Z" fill="currentcolor" />
</svg>
