<svg width="20" height="20" viewBox="0 0 20 20" fill="currentcolor" xmlns="http://www.w3.org/2000/svg">
  <path fill-rule="evenodd" d="M7.70348 4.24895L9.99387 4.24895C10.4086 4.24895 10.7448 4.58516 10.7448 4.99989C10.7448 5.41462 10.4086 5.75082 9.99387 5.75082H7.75842C6.32122 5.75082 5.31885 5.75242 4.56256 5.8541C3.82787 5.95288 3.43881 6.13355 3.1617 6.41066C2.8846 6.68776 2.70393 7.07682 2.60515 7.81151C2.50347 8.5678 2.50187 9.57017 2.50187 11.0074V12.2416C2.50187 13.6788 2.50347 14.6811 2.60515 15.4374C2.70393 16.1721 2.8846 16.5612 3.1617 16.8383C3.43881 17.1154 3.82787 17.2961 4.56256 17.3949C5.31885 17.4965 6.32121 17.4981 7.75842 17.4981H8.99261C10.4298 17.4981 11.4322 17.4965 12.1885 17.3949C12.9232 17.2961 13.3122 17.1154 13.5893 16.8383C13.8664 16.5612 14.0471 16.1721 14.1459 15.4374C14.2476 14.6811 14.2492 13.6788 14.2492 12.2416V10.0061C14.2492 9.5914 14.5854 9.25519 15.0001 9.25519C15.4148 9.25519 15.751 9.5914 15.751 10.0061V12.2965C15.7511 13.6658 15.7511 14.7695 15.6344 15.6376C15.5132 16.5388 15.254 17.2976 14.6513 17.9003C14.0486 18.5029 13.2898 18.7622 12.3886 18.8833C11.5205 19 10.4168 19 9.04755 19H7.70348C6.33418 19 5.23049 19 4.36244 18.8833C3.46121 18.7622 2.70239 18.5029 2.09972 17.9003C1.49705 17.2976 1.23784 16.5388 1.11667 15.6376C0.999963 14.7695 0.99998 13.6658 1 12.2965V10.9524C0.99998 9.58313 0.999963 8.47944 1.11667 7.61139C1.23784 6.71016 1.49705 5.95134 2.09972 5.34867C2.70239 4.746 3.46121 4.48679 4.36244 4.36562C5.23049 4.24891 6.33418 4.24893 7.70348 4.24895Z" fill="currentcolor" />
  <path fill-rule="evenodd" d="M13.7434 2.50187C13.3287 2.50187 12.9925 2.16567 12.9925 1.75094C12.9925 1.33621 13.3287 1 13.7434 1H18.2491C18.6638 1 19 1.33621 19 1.75094V6.25656C19 6.67129 18.6638 7.00749 18.2491 7.00749C17.8343 7.00749 17.4981 6.67129 17.4981 6.25656V3.56386L10.7701 10.2919C10.4768 10.5852 10.0013 10.5852 9.70809 10.2919C9.41483 9.99866 9.41483 9.52319 9.70809 9.22993L16.4361 2.50187H13.7434Z" fill="currentcolor" />
</svg>
