<svg width="20" height="20" viewBox="0 0 20 20" fill="currentcolor" xmlns="http://www.w3.org/2000/svg">
  <path d="M15.7234 1.74874C14.2293 0.750419 12.281 0.750419 10.7869 1.74874C10.4222 1.99241 10.0708 2.34394 9.53043 2.88446L7.50952 4.90539C7.21272 5.20218 7.21272 5.68337 7.50952 5.98017C7.80631 6.27696 8.2875 6.27696 8.5843 5.98017L10.5374 4.02707C11.1683 3.39616 11.4077 3.16198 11.6313 3.01255C12.6143 2.35577 13.8961 2.35577 14.879 3.01255C15.1026 3.16198 15.342 3.39616 15.9729 4.02707C16.6038 4.65798 16.838 4.89738 16.9875 5.12102C17.6442 6.10395 17.6442 7.38573 16.9875 8.36867C16.838 8.5923 16.6038 8.8317 15.9729 9.46261L14.0198 11.4157C13.723 11.7125 13.723 12.1937 14.0198 12.4905C14.3166 12.7873 14.7978 12.7873 15.0946 12.4905L17.1155 10.4696C17.656 9.92924 18.0076 9.5778 18.2513 9.21311C19.2496 7.71902 19.2496 5.77066 18.2513 4.27657C18.0076 3.91188 17.656 3.56044 17.1155 3.02005L16.9799 2.8845C16.4396 2.34396 16.0881 1.99242 15.7234 1.74874Z" fill="currentcolor" />
  <path d="M12.4905 7.50951C12.1937 7.21271 11.7125 7.21271 11.4157 7.50951L7.50955 11.4157C7.21276 11.7125 7.21276 12.1937 7.50955 12.4905C7.80634 12.7873 8.28754 12.7873 8.58433 12.4905L12.4905 8.58429C12.7873 8.28749 12.7873 7.8063 12.4905 7.50951Z" fill="currentcolor" />
  <path d="M5.98017 7.50951C5.68337 7.21272 5.20218 7.21272 4.90539 7.50951L2.88449 9.53039C2.34396 10.0708 1.99242 10.4222 1.74874 10.7869C0.750419 12.281 0.750419 14.2293 1.74874 15.7234C1.99242 16.0881 2.34396 16.4396 2.88452 16.9799L3.02003 17.1155C3.56043 17.656 3.91187 18.0076 4.27657 18.2513C5.77066 19.2496 7.71902 19.2496 9.21311 18.2513C9.57779 18.0076 9.92921 17.6561 10.4696 17.1155L12.4905 15.0946C12.7873 14.7978 12.7873 14.3166 12.4905 14.0198C12.1937 13.723 11.7125 13.723 11.4157 14.0198L9.46261 15.9729C8.8317 16.6038 8.5923 16.838 8.36867 16.9875C7.38573 17.6442 6.10395 17.6442 5.12102 16.9875C4.89738 16.838 4.65798 16.6038 4.02707 15.9729C3.39616 15.342 3.16198 15.1026 3.01255 14.879C2.35577 13.8961 2.35577 12.6143 3.01255 11.6313C3.16198 11.4077 3.39616 11.1683 4.02707 10.5374L5.98017 8.58429C6.27696 8.2875 6.27696 7.80631 5.98017 7.50951Z" fill="currentcolor" />
</svg>
