<svg
  xmlns="http://www.w3.org/2000/svg"
  width="20"
  height="20"
  viewBox="0 0 20 20"
  fill="none"
>
  <path
    fill-rule="evenodd"
    clip-rule="evenodd"
    d="M4.6994 5.4721C5.10075 2.90577 7.32113 0.942383 10.0001 0.942383C12.6791 0.942383 14.8994 2.90578 15.3008 5.47211C15.6271 5.52981 15.9294 5.61479 16.2187 5.7419C17.3079 6.22053 18.1778 7.09047 18.6564 8.17968C18.8744 8.67561 18.9684 9.20978 19.0136 9.83775C19.0578 10.4523 19.0578 11.2118 19.0578 12.1702V12.2281C19.0578 13.1865 19.0578 13.9461 19.0136 14.5606C18.9684 15.1886 18.8744 15.7227 18.6564 16.2187C18.1778 17.3079 17.3079 18.1778 16.2187 18.6564C15.7227 18.8744 15.1886 18.9684 14.5606 19.0136C13.946 19.0578 13.1865 19.0578 12.2281 19.0578H7.77209C6.81367 19.0578 6.05411 19.0578 5.43955 19.0136C4.81159 18.9684 4.27741 18.8744 3.78148 18.6564C2.69227 18.1778 1.82233 17.3079 1.34371 16.2187C1.12579 15.7227 1.03171 15.1886 0.986559 14.5606C0.942375 13.946 0.942379 13.1865 0.942383 12.2281V12.1703C0.942379 11.2119 0.942375 10.4523 0.986559 9.83775C1.03171 9.20978 1.12579 8.67561 1.34371 8.17968C1.82233 7.09047 2.69227 6.22053 3.78148 5.7419C4.07077 5.61479 4.37306 5.52981 4.6994 5.4721ZM6.25428 5.35002C6.68038 3.67849 8.19588 2.44238 10.0001 2.44238C11.8043 2.44238 13.3198 3.67849 13.7459 5.35003C13.3034 5.34057 12.8013 5.34057 12.2281 5.34058H7.77208C7.19885 5.34057 6.69676 5.34057 6.25428 5.35002ZM4.38492 7.11517C4.65809 6.99513 4.99992 6.92023 5.54712 6.88089C6.10157 6.84103 6.80726 6.84058 7.80098 6.84058H12.1992C13.1929 6.84058 13.8986 6.84103 14.453 6.88089C15.0002 6.92023 15.3421 6.99513 15.6152 7.11517C16.3605 7.44265 16.9557 8.03787 17.2832 8.78312C17.4032 9.05629 17.4781 9.39811 17.5175 9.94531C17.5573 10.4998 17.5578 11.2054 17.5578 12.1992C17.5578 13.1929 17.5573 13.8986 17.5175 14.453C17.4781 15.0002 17.4032 15.3421 17.2832 15.6152C16.9557 16.3605 16.3605 16.9557 15.6152 17.2832C15.3421 17.4032 15.0002 17.4781 14.453 17.5175C13.8986 17.5573 13.1929 17.5578 12.1992 17.5578H7.80098C6.80726 17.5578 6.10157 17.5573 5.54712 17.5175C4.99992 17.4781 4.65809 17.4032 4.38492 17.2832C3.63968 16.9557 3.04445 16.3605 2.71698 15.6152C2.59694 15.3421 2.52204 15.0002 2.4827 14.453C2.44283 13.8986 2.44238 13.1929 2.44238 12.1992C2.44238 11.2054 2.44283 10.4998 2.4827 9.94531C2.52204 9.39811 2.59694 9.05629 2.71698 8.78312C3.04445 8.03787 3.63968 7.44265 4.38492 7.11517Z"
    fill="currentColor"
  />
  <path
    fill-rule="evenodd"
    clip-rule="evenodd"
    d="M10.0001 10.7501C9.3097 10.7501 8.75006 11.3097 8.75006 12.0001C8.75006 12.6904 9.3097 13.2501 10.0001 13.2501C10.6904 13.2501 11.2501 12.6904 11.2501 12.0001C11.2501 11.3097 10.6904 10.7501 10.0001 10.7501ZM7.25006 12.0001C7.25006 10.4813 8.48128 9.25006 10.0001 9.25006C11.5188 9.25006 12.7501 10.4813 12.7501 12.0001C12.7501 13.5188 11.5188 14.7501 10.0001 14.7501C8.48128 14.7501 7.25006 13.5188 7.25006 12.0001Z"
    fill="currentColor"
  />
</svg>
