<svg width="20" height="20" viewBox="0 0 20 20" fill="currentcolor" xmlns="http://www.w3.org/2000/svg">
  <path fill-rule="evenodd" d="M4.69928 5.47204C5.10063 2.90571 7.32101 0.942322 9.99997 0.942322C12.6789 0.942322 14.8993 2.90572 15.3007 5.47204C15.627 5.52975 15.9293 5.61473 16.2185 5.74184C17.3078 6.22046 18.1777 7.09041 18.6563 8.17962C18.8742 8.67555 18.9683 9.20972 19.0135 9.83768C19.0577 10.4522 19.0576 11.2117 19.0576 12.1701V12.2281C19.0576 13.1864 19.0577 13.946 19.0135 14.5605C18.9683 15.1885 18.8742 15.7227 18.6563 16.2186C18.1777 17.3078 17.3078 18.1778 16.2185 18.6564C15.7226 18.8743 15.1884 18.9684 14.5605 19.0135C13.9459 19.0577 13.1864 19.0577 12.2279 19.0577H7.77197C6.81355 19.0577 6.05398 19.0577 5.43943 19.0135C4.81146 18.9684 4.27729 18.8743 3.78136 18.6564C2.69215 18.1778 1.82221 17.3078 1.34359 16.2186C1.12566 15.7227 1.03159 15.1885 0.986437 14.5605C0.942253 13.946 0.942257 13.1864 0.942261 12.228V12.1702C0.942257 11.2118 0.942253 10.4522 0.986437 9.83768C1.03159 9.20972 1.12566 8.67555 1.34359 8.17962C1.82221 7.09041 2.69215 6.22046 3.78136 5.74184C4.07065 5.61472 4.37294 5.52975 4.69928 5.47204ZM6.25416 5.34996C6.68026 3.67843 8.19576 2.44232 9.99997 2.44232C11.8042 2.44232 13.3197 3.67843 13.7458 5.34996C13.3033 5.34051 12.8012 5.34051 12.2279 5.34052H7.77196C7.19873 5.34051 6.69664 5.34051 6.25416 5.34996ZM4.3848 7.11511C4.65797 6.99507 4.9998 6.92017 5.547 6.88083C6.10145 6.84097 6.80713 6.84052 7.80086 6.84052H12.199C13.1928 6.84052 13.8985 6.84097 14.4529 6.88083C15.0001 6.92017 15.3419 6.99507 15.6151 7.11511C16.3604 7.44259 16.9556 8.03781 17.2831 8.78306C17.4031 9.05623 17.478 9.39805 17.5173 9.94525C17.5572 10.4997 17.5576 11.2054 17.5576 12.1991C17.5576 13.1928 17.5572 13.8985 17.5173 14.453C17.478 15.0002 17.4031 15.342 17.2831 15.6152C16.9556 16.3604 16.3604 16.9556 15.6151 17.2831C15.3419 17.4032 15.0001 17.4781 14.4529 17.5174C13.8985 17.5573 13.1928 17.5577 12.199 17.5577H7.80086C6.80713 17.5577 6.10145 17.5573 5.547 17.5174C4.9998 17.4781 4.65797 17.4032 4.3848 17.2831C3.63955 16.9556 3.04433 16.3604 2.71685 15.6152C2.59682 15.342 2.52192 15.0002 2.48258 14.453C2.44271 13.8985 2.44226 13.1928 2.44226 12.1991C2.44226 11.2054 2.44271 10.4997 2.48258 9.94525C2.52192 9.39805 2.59682 9.05623 2.71685 8.78306C3.04433 8.03781 3.63955 7.44259 4.3848 7.11511Z" fill="currentcolor" />
  <path fill-rule="evenodd" d="M9.99994 10.75C9.30958 10.75 8.74994 11.3096 8.74994 12C8.74994 12.6904 9.30958 13.25 9.99994 13.25C10.6903 13.25 11.2499 12.6904 11.2499 12C11.2499 11.3096 10.6903 10.75 9.99994 10.75ZM7.24994 12C7.24994 10.4812 8.48115 9.25 9.99994 9.25C11.5187 9.25 12.7499 10.4812 12.7499 12C12.7499 13.5188 11.5187 14.75 9.99994 14.75C8.48115 14.75 7.24994 13.5188 7.24994 12Z" fill="currentcolor" />
</svg>
