<svg
  xmlns="http://www.w3.org/2000/svg"
  width="20"
  height="20"
  viewBox="0 0 20 20"
  fill="none"
>
  <path
    d="M7.41756 7.15533C7.7148 6.86198 8.19337 6.86536 8.48644 7.16287L10.7742 9.48525C10.915 9.62812 10.9932 9.82109 10.9918 10.0217C10.9904 10.2223 10.9094 10.4141 10.7667 10.555L8.47886 12.8123C8.1816 13.1057 7.70303 13.1022 7.40998 12.8047C7.11697 12.5072 7.12039 12.0283 7.41762 11.735L8.39284 10.7728L1.75496 10.7729C1.33748 10.7729 0.999151 10.4342 0.999146 10.0165C0.99914 9.59875 1.33746 9.26003 1.75493 9.26002L8.42953 9.25992L7.41002 8.225C7.11698 7.92753 7.12036 7.44863 7.41756 7.15533Z"
    fill="currentColor"
  />
  <path
    d="M10.1356 2.50206C9.16851 2.50206 8.84052 2.50924 8.59166 2.57988C7.90733 2.77414 7.37247 3.30971 7.17848 3.99495C7.10842 4.2424 7.10086 4.56797 7.10076 5.52061C7.10076 5.52735 7.10076 5.53411 7.10076 5.54091C7.08838 5.94482 6.75714 6.26844 6.35077 6.26844C5.9444 6.26844 5.61351 5.94482 5.60113 5.54091L5.60073 5.42164C5.60042 4.62013 5.6002 4.06268 5.73534 3.58531C6.07128 2.39867 6.9975 1.47121 8.18256 1.13482C8.65929 0.999497 9.216 0.999715 10.0164 1.00003L12.3049 1.00006C13.6725 1.00004 14.7748 1.00002 15.6417 1.11674C16.5419 1.23792 17.2997 1.49716 17.9016 2.09988C18.5036 2.7026 18.7625 3.46148 18.8835 4.3628C19 5.23091 19 6.3347 19 7.7041V12.2959C19 13.6653 19 14.7691 18.8835 15.6372C18.7625 16.5385 18.5036 17.2974 17.9016 17.9001C17.2997 18.5028 16.5419 18.7621 15.6417 18.8833C14.7748 19 13.6725 19 12.3049 18.9999L10.0096 19C9.21551 19.0003 8.66321 19.0005 8.19001 18.8673C6.99892 18.532 6.06808 17.5999 5.73324 16.4072C5.60021 15.9334 5.60042 15.3804 5.60073 14.5852L5.60076 14.4669L5.60077 14.463C5.60077 14.0482 5.93655 13.712 6.35077 13.712C6.76498 13.712 7.10077 14.0482 7.10077 14.463L7.10076 14.4669C7.10076 15.4275 7.10781 15.7534 7.17726 16.0007C7.37062 16.6895 7.90814 17.2277 8.59596 17.4213C8.84299 17.4909 9.16841 17.4979 10.1278 17.4979H12.25C13.6854 17.4979 14.6865 17.4963 15.4419 17.3947C16.1757 17.2959 16.5642 17.1152 16.841 16.838C17.1178 16.5609 17.2982 16.1718 17.3969 15.4371C17.4984 14.6807 17.5 13.6783 17.5 12.2409V7.75908C17.5 6.32175 17.4984 5.31929 17.3969 4.56293C17.2982 3.82818 17.1178 3.43909 16.841 3.16195C16.5642 2.88482 16.1757 2.70413 15.4419 2.60535C14.6865 2.50366 13.6854 2.50206 12.25 2.50206H10.1356Z"
    fill="currentColor"
  />
</svg>
