<svg width="20" height="20" viewBox="0 0 20 20" fill="currentcolor" xmlns="http://www.w3.org/2000/svg">
  <path d="M16.4932 7.19692C16.1998 6.89905 15.7209 6.89566 15.4234 7.18937C15.126 7.48307 15.1226 7.96264 15.4159 8.26052L16.4363 9.2968L9.75559 9.2969C9.33783 9.2969 8.99917 9.63602 8.99918 10.0543C8.99918 10.4727 9.33785 10.8118 9.75561 10.8118L16.3996 10.8117L15.4235 11.7752C15.126 12.0689 15.1226 12.5484 15.4158 12.8463C15.7091 13.1442 16.1881 13.1477 16.4856 12.854L18.7754 10.5936C18.9183 10.4526 18.9994 10.2605 19.0008 10.0596C19.0022 9.85869 18.9239 9.66546 18.783 9.52241L16.4932 7.19692Z" fill="currentcolor" />
  <path d="M9.86362 2.50206C10.8307 2.50206 11.1587 2.50924 11.4075 2.57988C12.0918 2.77414 12.6267 3.30971 12.8207 3.99495C12.8908 4.2424 12.8983 4.56797 12.8984 5.52061C12.8984 5.52735 12.8984 5.53411 12.8984 5.54091C12.9108 5.94482 13.242 6.26844 13.6484 6.26844C14.0548 6.26844 14.3857 5.94482 14.398 5.54091L14.3984 5.42164C14.3988 4.62013 14.399 4.06268 14.2638 3.58531C13.9279 2.39867 13.0017 1.47121 11.8166 1.13482C11.3399 0.999497 10.7832 0.999715 9.98274 1.00003L7.6943 1.00006C6.32671 1.00004 5.22439 1.00002 4.35743 1.11674C3.45732 1.23792 2.69944 1.49716 2.09753 2.09988C1.49561 2.7026 1.23672 3.46148 1.1157 4.3628C0.999141 5.23091 0.999157 6.3347 0.999177 7.7041V12.2959C0.999157 13.6653 0.999141 14.7691 1.1157 15.6372C1.23672 16.5385 1.49561 17.2974 2.09753 17.9001C2.69944 18.5028 3.45732 18.7621 4.35743 18.8833C5.2244 19 6.32672 19 7.69431 18.9999L9.98958 19C10.7837 19.0003 11.336 19.0005 11.8092 18.8673C13.0003 18.532 13.9311 17.5999 14.2659 16.4072C14.399 15.9334 14.3988 15.3804 14.3984 14.5852L14.3984 14.4669C14.3984 14.4656 14.3984 14.4643 14.3984 14.463C14.3984 14.0482 14.0626 13.712 13.6484 13.712C13.2342 13.712 12.8984 14.0482 12.8984 14.463C12.8984 14.4643 12.8984 14.4656 12.8984 14.4669C12.8984 15.4275 12.8914 15.7534 12.8219 16.0007C12.6286 16.6895 12.091 17.2277 11.4032 17.4213C11.1562 17.4909 10.8308 17.4979 9.8714 17.4979H7.74918C6.31376 17.4979 5.31265 17.4963 4.5573 17.3947C3.82352 17.2959 3.43495 17.1152 3.15819 16.838C2.88142 16.5609 2.70098 16.1718 2.60233 15.4371C2.50077 14.6807 2.49918 13.6783 2.49918 12.2409V7.75908C2.49918 6.32175 2.50077 5.31929 2.60233 4.56293C2.70098 3.82818 2.88142 3.43909 3.15819 3.16195C3.43495 2.88482 3.82352 2.70413 4.5573 2.60535C5.31265 2.50366 6.31376 2.50206 7.74918 2.50206H9.86362Z" fill="currentcolor" />
</svg>
