<svg width="20" height="20" viewBox="0 0 20 20" fill="currentcolor" xmlns="http://www.w3.org/2000/svg">
  <path d="M10.6871 1H8.11199C6.64828 0.999984 5.47303 0.999971 4.54964 1.12412C3.59279 1.25276 2.79399 1.52706 2.16052 2.16052C1.52706 2.79398 1.25276 3.59278 1.12412 4.54963C0.999971 5.47302 0.999984 6.64825 1 8.11197V11.888C0.999984 13.3517 0.999971 14.527 1.12412 15.4504C1.25276 16.4072 1.52706 17.206 2.16052 17.8395C2.79399 18.4729 3.59279 18.7472 4.54964 18.8759C5.47303 19 6.64827 19 8.11199 19H10.6871C12.8753 19 14.6492 17.2261 14.6492 15.0379C14.6492 14.6201 14.3106 14.2814 13.8928 14.2814C13.4751 14.2814 13.1364 14.6201 13.1364 15.0379C13.1364 16.3906 12.0398 17.4872 10.6871 17.4872H8.16811C6.63545 17.4872 5.56209 17.4855 4.75122 17.3765C3.96214 17.2704 3.5358 17.0753 3.23027 16.7697C2.92474 16.4642 2.72957 16.0379 2.62348 15.2488C2.51446 14.4379 2.51285 13.3646 2.51285 11.8319V8.1681C2.51285 6.63543 2.51446 5.56208 2.62348 4.75122C2.72957 3.96214 2.92474 3.5358 3.23027 3.23027C3.5358 2.92473 3.96214 2.72956 4.75122 2.62348C5.56209 2.51446 6.63545 2.51285 8.16811 2.51285H10.6871C12.0398 2.51285 13.1364 3.60944 13.1364 4.96215C13.1364 5.37991 13.4751 5.71857 13.8928 5.71857C14.3106 5.71857 14.6492 5.37991 14.6492 4.96215C14.6492 2.77392 12.8753 1 10.6871 1Z" fill="currentcolor" />
  <path d="M16.4923 7.16284C16.199 6.86537 15.7201 6.86199 15.4226 7.1553C15.1251 7.44862 15.1218 7.92755 15.4151 8.22502L16.4355 9.25992L9.75476 9.26002C9.337 9.26003 8.99834 9.59869 8.99835 10.0165C8.99835 10.4342 9.33702 10.7729 9.75478 10.7729L16.3987 10.7728L15.4227 11.735C15.1252 12.0283 15.1217 12.5072 15.415 12.8047C15.7083 13.1022 16.1872 13.1056 16.4847 12.8124L18.7746 10.555C18.9175 10.4142 18.9986 10.2223 19 10.0217C19.0014 9.82107 18.9231 9.62809 18.7822 9.48523L16.4923 7.16284Z" fill="currentcolor" />
</svg>
