<svg width="20" height="20" viewBox="0 0 20 20" fill="currentcolor" xmlns="http://www.w3.org/2000/svg">
  <path d="M12.5816 7.15532C12.2844 6.86197 11.8058 6.86535 11.5127 7.16286L9.22492 9.48525C9.08418 9.62811 9.00592 9.82108 9.00734 10.0217C9.00877 10.2223 9.08975 10.4141 9.2325 10.555L11.5203 12.8123C11.8176 13.1056 12.2961 13.1022 12.5892 12.8047C12.8822 12.5072 12.8788 12.0283 12.5815 11.735L11.6063 10.7728L18.2442 10.7729C18.6617 10.7729 19 10.4342 19 10.0164C19 9.59874 18.6617 9.26002 18.2442 9.26001L11.5696 9.25992L12.5891 8.22499C12.8822 7.92752 12.8788 7.44862 12.5816 7.15532Z" fill="currentcolor" />
  <path d="M9.86359 2.50206C10.8306 2.50206 11.1586 2.50924 11.4075 2.57988C12.0918 2.77414 12.6267 3.30971 12.8207 3.99495C12.8907 4.2424 12.8983 4.56797 12.8984 5.52061C12.8984 5.52735 12.8984 5.53411 12.8984 5.54091C12.9108 5.94482 13.242 6.26844 13.6484 6.26844C14.0548 6.26844 14.3856 5.94482 14.398 5.54091L14.3984 5.42164C14.3987 4.62013 14.3989 4.06268 14.2638 3.58531C13.9279 2.39867 13.0016 1.47121 11.8166 1.13482C11.3399 0.999497 10.7831 0.999715 9.98271 1.00003L7.69427 1.00006C6.32668 1.00004 5.22436 1.00002 4.3574 1.11674C3.45729 1.23792 2.69941 1.49716 2.0975 2.09988C1.49558 2.7026 1.23669 3.46148 1.11567 4.3628C0.999111 5.23091 0.999126 6.3347 0.999146 7.7041V12.2959C0.999126 13.6653 0.999111 14.7691 1.11567 15.6372C1.23669 16.5385 1.49558 17.2974 2.0975 17.9001C2.69941 18.5028 3.45729 18.7621 4.3574 18.8833C5.22437 19 6.32669 19 7.69428 18.9999L9.98955 19C10.7836 19.0003 11.3359 19.0005 11.8091 18.8673C13.0002 18.532 13.9311 17.5999 14.2659 16.4072C14.3989 15.9334 14.3987 15.3804 14.3984 14.5852L14.3984 14.4669L14.3984 14.463C14.3984 14.0482 14.0626 13.712 13.6484 13.712C13.2342 13.712 12.8984 14.0482 12.8984 14.463L12.8984 14.4669C12.8984 15.4275 12.8913 15.7534 12.8219 16.0007C12.6285 16.6895 12.091 17.2277 11.4032 17.4213C11.1562 17.4909 10.8307 17.4979 9.87137 17.4979H7.74915C6.31373 17.4979 5.31262 17.4963 4.55727 17.3947C3.82349 17.2959 3.43492 17.1152 3.15816 16.838C2.88139 16.5609 2.70095 16.1718 2.60229 15.4371C2.50074 14.6807 2.49915 13.6783 2.49915 12.2409V7.75908C2.49915 6.32175 2.50074 5.31929 2.60229 4.56293C2.70095 3.82818 2.88139 3.43909 3.15816 3.16195C3.43492 2.88482 3.82349 2.70413 4.55727 2.60535C5.31262 2.50366 6.31373 2.50206 7.74915 2.50206H9.86359Z" fill="currentcolor" />
</svg>
