<svg width="20" height="20" viewBox="0 0 20 20" fill="currentcolor" xmlns="http://www.w3.org/2000/svg">
  <path fill-rule="evenodd" d="M15.0524 1.04251C15.3469 0.749175 15.8244 0.749175 16.1189 1.04251L18.7788 3.69185C19.0546 3.96656 19.0746 4.40541 18.8249 4.70386L16.165 7.88306C15.8983 8.20175 15.4228 8.24481 15.1028 7.97924C14.7829 7.71366 14.7396 7.24002 15.0063 6.92132L16.6354 4.97413H7.37588C5.82871 4.97413 5.23293 4.98329 4.77169 5.13167C3.77236 5.45314 2.98902 6.23335 2.66626 7.2287C2.5173 7.68811 2.5081 8.28151 2.5081 9.82251C2.5081 10.2374 2.17045 10.5737 1.75395 10.5737C1.33745 10.5737 0.999802 10.2374 0.999802 9.82251C0.999802 9.77117 0.99979 9.72053 0.999779 9.67057C0.999463 8.33385 0.999262 7.48157 1.23097 6.76699C1.70269 5.31225 2.84757 4.17193 4.30813 3.7021C5.02557 3.47131 5.88126 3.47151 7.22333 3.47182C7.27349 3.47184 7.32434 3.47185 7.37588 3.47185H16.4249L15.0524 2.10479C14.7579 1.81145 14.7579 1.33585 15.0524 1.04251Z" fill="currentcolor" />
  <path fill-rule="evenodd" d="M4.94715 18.6025C4.65264 18.8958 4.17514 18.8958 3.88062 18.6025L1.22069 15.9532C0.944881 15.6785 0.924895 15.2396 1.1746 14.9412L3.83453 11.762C4.10117 11.4433 4.57671 11.4002 4.89668 11.6658C5.21665 11.9314 5.25988 12.405 4.99324 12.7237L3.36408 14.6709H12.6236C14.1708 14.6709 14.7666 14.6617 15.2278 14.5134C16.2272 14.1919 17.0105 13.4117 17.3332 12.4163C17.4822 11.9569 17.4914 11.3635 17.4914 9.82251C17.4914 9.40767 17.8291 9.07137 18.2456 9.07137C18.6621 9.07137 18.9997 9.40767 18.9997 9.82251C18.9997 9.87384 18.9997 9.92449 18.9997 9.97445C19 11.3112 19.0002 12.1635 18.7685 12.878C18.2968 14.3328 17.1519 15.4731 15.6914 15.9429C14.9739 16.1737 14.1183 16.1735 12.7762 16.1732C12.726 16.1732 12.6752 16.1732 12.6236 16.1732H3.57462L4.94715 17.5402C5.24166 17.8336 5.24166 18.3092 4.94715 18.6025Z" fill="currentcolor" />
</svg>
