<svg width="20" height="20" viewBox="0 0 20 20" fill="currentcolor" xmlns="http://www.w3.org/2000/svg">
  <path fill-rule="evenodd" d="M11.8923 2H8.10767C6.60268 1.99999 5.41025 1.99998 4.46176 2.10139C3.48916 2.20537 2.68189 2.42327 1.98895 2.92107C1.58715 3.20973 1.23294 3.55727 0.938743 3.95152C0.43139 4.6314 0.209308 5.42348 0.103331 6.37778C-1.82197e-05 7.30841 -1.00746e-05 8.47838 2.04381e-07 9.95504V10.0449C-1.00746e-05 11.5216 -1.82121e-05 12.6916 0.103331 13.6222C0.209308 14.5765 0.43139 15.3686 0.938743 16.0485C1.23294 16.4427 1.58715 16.7903 1.98895 17.0789C2.68189 17.5767 3.48916 17.7946 4.46176 17.8986C5.41025 18 6.60266 18 8.10765 18H11.8923C13.3973 18 14.5897 18 15.5382 17.8986C16.5108 17.7946 17.3181 17.5767 18.011 17.0789C18.4129 16.7903 18.7671 16.4427 19.0613 16.0485C19.5686 15.3686 19.7907 14.5765 19.8967 13.6222C20 12.6916 20 11.5217 20 10.045V9.95505C20 8.47843 20 7.3084 19.8967 6.37778C19.7907 5.42348 19.5686 4.6314 19.0613 3.95152C18.7671 3.55727 18.4129 3.20973 18.011 2.92107C17.3181 2.42327 16.5108 2.20537 15.5382 2.10139C14.5897 1.99998 13.3973 1.99999 11.8923 2ZM2.89564 4.13609C3.28238 3.85825 3.78687 3.68834 4.62801 3.59841C5.48367 3.50693 6.59244 3.50588 8.15348 3.50588H11.8465C13.4076 3.50588 14.5163 3.50693 15.372 3.59841C16.2131 3.68834 16.7176 3.85825 17.1044 4.13609C17.3793 4.33359 17.6216 4.57138 17.8229 4.84113C18.0044 5.08425 18.1406 5.37479 18.2392 5.76925L12.7937 9.14377C11.9835 9.64586 11.4251 9.99077 10.9601 10.2161C10.5113 10.4336 10.2098 10.5085 9.92528 10.5085C9.64075 10.5085 9.33924 10.4336 8.89045 10.2161C8.42546 9.99077 7.86706 9.64586 7.05683 9.14377L1.74146 5.84989C1.84133 5.41391 1.9835 5.10053 2.17707 4.84113C2.37836 4.57138 2.62071 4.33359 2.89564 4.13609ZM1.56125 7.51929C1.53522 8.19412 1.53477 9.00306 1.53477 10C1.53477 11.5317 1.53584 12.6196 1.62907 13.4591C1.72073 14.2844 1.8939 14.7794 2.17707 15.1589C2.37836 15.4286 2.62071 15.6664 2.89564 15.8639C3.28238 16.1417 3.78687 16.3117 4.62801 16.4016C5.48367 16.4931 6.59244 16.4941 8.15348 16.4941H11.8465C13.4076 16.4941 14.5163 16.4931 15.372 16.4016C16.2131 16.3117 16.7176 16.1417 17.1044 15.8639C17.3793 15.6664 17.6216 15.4286 17.8229 15.1589C18.1061 14.7794 18.2793 14.2844 18.3709 13.4591C18.4642 12.6196 18.4652 11.5317 18.4652 10C18.4652 8.95818 18.4647 8.12166 18.4351 7.42896L13.5788 10.4384C12.8114 10.9139 12.1854 11.3019 11.6398 11.5663C11.0698 11.8425 10.5289 12.0144 9.92528 12.0144C9.32165 12.0144 8.78072 11.8425 8.21078 11.5663C7.6652 11.3019 7.03916 10.9139 6.2718 10.4384L1.56125 7.51929Z" fill="currentcolor" />
</svg>
