<svg
  xmlns="http://www.w3.org/2000/svg"
  width="21"
  height="20"
  viewBox="0 0 21 20"
  fill="none"
>
  <path
    fill-rule="evenodd"
    clip-rule="evenodd"
    d="M4.53644 6.9273C4.75405 6.57142 5.22448 6.45603 5.58717 6.66955L5.96452 6.89171C7.12955 7.57759 7.95522 8.06265 8.64709 8.38181C9.32326 8.69372 9.81457 8.819 10.2988 8.819C10.7831 8.819 11.2744 8.69373 11.9505 8.38181C12.6424 8.06265 13.4681 7.57759 14.6331 6.89171L15.0105 6.66955C15.3732 6.45603 15.8436 6.57142 16.0612 6.9273C16.2788 7.28318 16.1612 7.74477 15.7985 7.9583L15.3862 8.20104C14.264 8.86172 13.3724 9.38664 12.6022 9.74193C11.8083 10.1081 11.0873 10.3219 10.2988 10.3219C9.5103 10.3219 8.7893 10.1081 7.99542 9.74193C7.22523 9.38664 6.33364 8.86173 5.21144 8.20104L4.79912 7.9583C4.43643 7.74477 4.31882 7.28318 4.53644 6.9273Z"
    fill="currentColor"
  />
  <path
    fill-rule="evenodd"
    clip-rule="evenodd"
    d="M8.40604 2H12.1916C13.7011 1.99999 14.897 1.99998 15.848 2.10214C16.8232 2.2069 17.6324 2.42646 18.3259 2.92793C18.7179 3.21141 19.0642 3.5512 19.3531 3.93588C19.8642 4.61638 20.088 5.41029 20.1947 6.36722C20.2988 7.30037 20.2988 8.47384 20.2988 9.95493V10.0451C20.2988 11.5262 20.2988 12.6996 20.1947 13.6328C20.088 14.5897 19.8642 15.3836 19.3531 16.0641C19.0642 16.4488 18.7179 16.7886 18.3259 17.0721C17.6324 17.5735 16.8232 17.7931 15.848 17.8979C14.897 18 13.701 18 12.1916 18H8.40606C6.89661 18 5.70068 18 4.74966 17.8979C3.77441 17.7931 2.9653 17.5735 2.27177 17.0721C1.87973 16.7886 1.53343 16.4488 1.24453 16.0641C0.733458 15.3836 0.509694 14.5897 0.402925 13.6328C0.298809 12.6996 0.298818 11.5262 0.298828 10.0451V9.95491C0.298818 8.47383 0.298809 7.30036 0.402925 6.36722C0.509694 5.41029 0.733458 4.61638 1.24453 3.93588C1.53343 3.5512 1.87973 3.21141 2.27177 2.92793C2.9653 2.42646 3.77441 2.2069 4.74966 2.10214C5.70067 1.99998 6.8966 1.99999 8.40604 2ZM4.91635 3.59614C4.07303 3.68673 3.5676 3.85788 3.18044 4.13783C2.9122 4.33179 2.67526 4.56428 2.47759 4.82748C2.19228 5.20737 2.01785 5.7033 1.92553 6.53078C1.8316 7.37259 1.83053 8.46376 1.83053 10C1.83053 11.5362 1.8316 12.6274 1.92553 13.4692C2.01785 14.2967 2.19228 14.7926 2.47759 15.1725C2.67526 15.4357 2.9122 15.6682 3.18044 15.8622C3.5676 16.1421 4.07303 16.3133 4.91635 16.4039C5.77429 16.496 6.88634 16.4971 8.452 16.4971H12.1457C13.7113 16.4971 14.8234 16.496 15.6813 16.4039C16.5246 16.3133 17.0301 16.1421 17.4172 15.8622C17.6855 15.6682 17.9224 15.4357 18.1201 15.1725C18.4054 14.7926 18.5798 14.2967 18.6721 13.4692C18.7661 12.6274 18.7671 11.5362 18.7671 10C18.7671 8.46376 18.7661 7.37259 18.6721 6.53078C18.5798 5.7033 18.4054 5.20737 18.1201 4.82748C17.9224 4.56428 17.6855 4.33179 17.4172 4.13783C17.0301 3.85788 16.5246 3.68673 15.6813 3.59614C14.8234 3.50398 13.7113 3.50293 12.1457 3.50293H8.452C6.88634 3.50293 5.77429 3.50398 4.91635 3.59614Z"
    fill="currentColor"
  />
</svg>
