<svg
  xmlns="http://www.w3.org/2000/svg"
  width="21"
  height="20"
  viewBox="0 0 21 20"
  fill="none"
>
  <path
    fill-rule="evenodd"
    clip-rule="evenodd"
    d="M5.76023 1.65814C5.90442 1.6027 6.06212 1.59312 6.21193 1.63069L14.0068 3.58574L17.6583 2.18184C17.6719 2.17659 17.6856 2.17134 17.6992 2.16608C17.9723 2.06101 18.2495 1.95432 18.4864 1.9013C18.7508 1.84211 19.1366 1.8084 19.4986 2.05812C19.8605 2.30785 19.9672 2.68134 20.0068 2.95022C20.0422 3.19109 20.0421 3.489 20.042 3.78237C20.042 3.79706 20.042 3.76772 20.042 3.78237L20.042 14.038C20.042 14.0463 20.042 14.0547 20.042 14.0632C20.042 14.2047 20.0421 14.3649 20.0268 14.5048C20.0087 14.6716 19.9635 14.8771 19.8286 15.0784C19.6936 15.2797 19.521 15.3992 19.3738 15.479C19.2504 15.5459 19.1024 15.6063 18.9718 15.6596L14.3383 17.5524C14.1903 17.6129 14.027 17.6245 13.8721 17.5856L6.07715 15.6306L2.4257 17.0345C2.41206 17.0397 2.39839 17.045 2.38472 17.0502C2.1117 17.1553 1.83445 17.262 1.5976 17.315C1.33319 17.3742 0.947377 17.4079 0.585416 17.1582C0.223455 16.9085 0.116764 16.535 0.077233 16.2661C0.0418216 16.0252 0.041912 15.7273 0.0420011 15.4339C0.0420056 15.4193 0.0420101 15.4046 0.0420101 15.3899V5.0678C0.0420101 5.0593 0.0420067 5.05072 0.0420033 5.04208C0.0419458 4.89754 0.0418808 4.7342 0.0576317 4.59172C0.0763949 4.422 0.123077 4.21269 0.262736 4.00895C0.402395 3.8052 0.58051 3.68656 0.731763 3.60825C0.858733 3.54251 1.01079 3.48412 1.14534 3.43245C1.15339 3.42936 1.16137 3.42629 1.16928 3.42325L5.76023 1.65814ZM6.78181 14.2513L13.3022 15.8866V4.96505L6.78181 3.32966V14.2513ZM5.27711 3.46053V14.3215L1.88724 15.6249C1.7543 15.676 1.64449 15.7181 1.54861 15.753C1.54675 15.6507 1.54671 15.5327 1.54671 15.3899V5.0678C1.54671 4.99838 1.54673 4.94298 1.54736 4.89523C1.59158 4.87756 1.64313 4.85771 1.70775 4.83287L5.27711 3.46053ZM14.8069 4.89478V15.7311L18.3811 14.271C18.4438 14.2454 18.4938 14.2249 18.5367 14.2067C18.5373 14.1601 18.5373 14.1059 18.5373 14.038V3.82639C18.5373 3.68356 18.5372 3.5656 18.5354 3.4633C18.4395 3.49817 18.3297 3.54034 18.1967 3.59145L14.8069 4.89478Z"
    fill="currentColor"
  />
</svg>
