<svg
  xmlns="http://www.w3.org/2000/svg"
  width="20"
  height="20"
  viewBox="0 0 20 20"
  fill="none"
>
  <path
    d="M9.00867 6.20655C8.55973 6.20655 8.19579 6.57113 8.19579 7.02085C8.19579 7.47058 8.55973 7.83515 9.00867 7.83515H10.9913C11.4403 7.83515 11.8042 7.47058 11.8042 7.02085C11.8042 6.57113 11.4403 6.20655 10.9913 6.20655H9.00867Z"
    fill="currentColor"
  />
  <path
    d="M8.51301 8.68918C8.06407 8.68918 7.70012 9.05375 7.70012 9.50348C7.70012 9.9532 8.06407 10.3178 8.51301 10.3178H11.487C11.9359 10.3178 12.2999 9.9532 12.2999 9.50348C12.2999 9.05375 11.9359 8.68918 11.487 8.68918H8.51301Z"
    fill="currentColor"
  />
  <path
    fill-rule="evenodd"
    clip-rule="evenodd"
    d="M10 0C8.03698 0 6.53097 0.693023 5.55232 2.06999C4.60918 3.397 4.23048 5.25769 4.23048 7.45896C4.23048 9.66323 4.61052 11.6184 5.5343 13.0453C6.49026 14.522 7.98779 15.3658 10 15.3658C12.0122 15.3658 13.5097 14.522 14.4657 13.0453C15.3895 11.6184 15.7695 9.66323 15.7695 7.45896C15.7695 5.25769 15.3908 3.397 14.4477 2.06999C13.469 0.693023 11.963 0 10 0ZM6.78717 2.91961C7.43517 2.00787 8.43728 1.48256 10 1.48256C11.5627 1.48256 12.5648 2.00787 13.2128 2.91961C13.8963 3.88123 14.2627 5.37938 14.2627 7.45896C14.2627 9.53556 13.8976 11.1632 13.1948 12.2488C12.5242 13.2847 11.5136 13.8832 10 13.8832C8.48637 13.8832 7.47583 13.2847 6.80519 12.2488C6.10238 11.1632 5.7373 9.53556 5.7373 7.45896C5.7373 5.37938 6.10372 3.88123 6.78717 2.91961Z"
    fill="currentColor"
  />
  <path
    d="M2.74916 7.94439C2.33277 7.94439 2 8.29579 2 8.72322C2 10.2183 2.28251 12.507 3.42412 14.4492C4.49885 16.2777 6.31034 17.7488 9.18711 17.9817V19.1857C9.18711 19.6354 9.55105 20 10 20C10.4489 20 10.8129 19.6354 10.8129 19.1857V17.9841C13.666 17.7702 15.4835 16.4233 16.5699 14.6366C17.7216 12.7425 18 10.4424 18 8.72322C18 8.29579 17.6672 7.94439 17.2508 7.94439C16.8344 7.94439 16.5017 8.29579 16.5017 8.72322C16.5017 10.3142 16.2363 12.27 15.3034 13.8043C14.4055 15.281 12.8382 16.4562 10 16.4562C7.18926 16.4562 5.61408 15.1877 4.70263 13.637C3.75962 12.0326 3.49832 10.0654 3.49832 8.72322C3.49832 8.29579 3.16555 7.94439 2.74916 7.94439Z"
    fill="currentColor"
  />
</svg>
