<svg width="20" height="20" viewBox="0 0 20 20" fill="currentcolor" xmlns="http://www.w3.org/2000/svg">
  <path fill-rule="evenodd" d="M11.4265 1H8.57353C7.10211 0.999989 5.93326 0.999981 5.00784 1.10937C4.05658 1.22181 3.2687 1.4584 2.60958 1.99932C2.38667 2.18226 2.18226 2.38667 1.99932 2.60958C1.4584 3.2687 1.22181 4.05658 1.10937 5.00784C0.999981 5.93326 0.999989 7.1021 1 8.57352V8.66797C0.999989 10.1394 0.999981 11.3082 1.10937 12.2337C1.22181 13.1849 1.4584 13.9728 1.99932 14.6319C2.18226 14.8548 2.38667 15.0592 2.60958 15.2422C3.2687 15.7831 4.05658 16.0197 5.00784 16.1321C5.93323 16.2415 7.10202 16.2415 8.57337 16.2415H9.27551V17.551H7.2415C6.84137 17.551 6.51701 17.8754 6.51701 18.2755C6.51701 18.6756 6.84137 19 7.2415 19H12.7585C13.1586 19 13.483 18.6756 13.483 18.2755C13.483 17.8754 13.1586 17.551 12.7585 17.551H10.7245V16.2415H11.4265C12.8978 16.2415 14.0668 16.2415 14.9922 16.1321C15.9434 16.0197 16.7313 15.7831 17.3904 15.2422C17.6133 15.0592 17.8177 14.8548 18.0007 14.6319C18.5416 13.9728 18.7782 13.1849 18.8906 12.2337C19 11.3083 19 10.1395 19 8.66814V8.5735C19 7.10216 19 5.93323 18.8906 5.00784C18.7782 4.05658 18.5416 3.2687 18.0007 2.60958C17.8177 2.38667 17.6133 2.18226 17.3904 1.99932C16.7313 1.4584 15.9434 1.22181 14.9922 1.10937C14.0667 0.999981 12.8979 0.999989 11.4265 1ZM5.17793 2.54833C6.0084 2.45017 7.09157 2.44898 8.62075 2.44898H11.3793C12.9084 2.44898 13.9916 2.45017 14.8221 2.54833C15.6365 2.6446 16.113 2.82545 16.4712 3.1194C16.6207 3.24213 16.7579 3.37926 16.8806 3.52881C17.1745 3.88698 17.3554 4.36347 17.4517 5.17793C17.5498 6.0084 17.551 7.09157 17.551 8.62075C17.551 9.51464 17.5506 10.2564 17.5306 10.8846H2.46936C2.44937 10.2564 2.44898 9.51464 2.44898 8.62075C2.44898 7.09157 2.45017 6.0084 2.54833 5.17793C2.6446 4.36347 2.82545 3.88698 3.1194 3.52881C3.24213 3.37926 3.37926 3.24213 3.52881 3.1194C3.88698 2.82545 4.36347 2.6446 5.17793 2.54833ZM3.1194 13.7127C2.85952 13.396 2.68806 12.9869 2.58528 12.3336H17.4147C17.3119 12.9869 17.1405 13.396 16.8806 13.7127C16.7579 13.8622 16.6207 13.9994 16.4712 14.1221C16.113 14.416 15.6365 14.5969 14.8221 14.6932C13.9916 14.7913 12.9084 14.7925 11.3793 14.7925H8.62075C7.09157 14.7925 6.0084 14.7913 5.17793 14.6932C4.36347 14.5969 3.88698 14.416 3.52881 14.1221C3.37926 13.9994 3.24213 13.8622 3.1194 13.7127Z" fill="currentcolor" />
</svg>
