<svg width="20" height="20" viewBox="0 0 20 20" fill="currentcolor" xmlns="http://www.w3.org/2000/svg">
  <path fill-rule="evenodd" d="M8.60836 1.26638C8.2538 0.9498 7.83912 0.979647 7.58562 1.03502C7.36856 1.08244 7.11781 1.18225 6.8901 1.27289L6.84696 1.29005C6.62712 1.37743 6.41143 1.47279 6.20027 1.57574C5.64752 1.84523 5.12582 2.1668 4.6418 2.53393C2.43057 4.21115 1 6.84546 1 9.8112C1 14.898 5.19962 19 10.3531 19C13.5267 19 16.3348 17.446 18.026 15.0672C18.233 14.7761 18.4234 14.4724 18.5957 14.1577L18.6176 14.1177C18.7281 13.916 18.8533 13.6877 18.9237 13.4829C19.0093 13.2342 19.0762 12.8413 18.8161 12.4626C18.543 12.0649 18.1217 12.0026 17.8717 11.9962C17.6473 11.9904 17.3745 12.0261 17.1203 12.0593L17.0744 12.0653C12.2806 12.6904 10.0584 11.3722 9.0675 9.67189C8.01574 7.86708 8.14345 5.31473 8.75508 3.1013L8.76754 3.05626C8.84069 2.79187 8.91699 2.51612 8.94451 2.28716C8.97364 2.04487 8.98139 1.59946 8.60836 1.26638ZM6.87193 2.9466C6.9994 2.88445 7.12884 2.82561 7.26014 2.77019C6.62665 5.10784 6.39604 8.12373 7.74512 10.4387C9.15899 12.8649 12.1114 14.2253 17.1594 13.5928C17.0414 13.7959 16.9142 13.9934 16.7783 14.1846C15.3656 16.1717 13.0166 17.4742 10.3531 17.4742C6.02029 17.4742 2.52959 14.0314 2.52959 9.8112C2.52959 7.34818 3.71556 5.15331 5.56761 3.74853C5.97268 3.44129 6.40932 3.17215 6.87193 2.9466Z" fill="currentcolor" />
</svg>
