<svg
  xmlns="http://www.w3.org/2000/svg"
  width="20"
  height="20"
  viewBox="0 0 20 20"
  fill="none"
>
  <path
    fill-rule="evenodd"
    clip-rule="evenodd"
    d="M4.375 7.5C2.78718 7.5 1.5 8.78718 1.5 10.375C1.5 11.9628 2.78718 13.25 4.375 13.25C4.65206 13.25 4.91876 13.211 5.17052 13.1387C5.56864 13.0244 5.98407 13.2544 6.0984 13.6526C6.21273 14.0507 5.98268 14.4661 5.58455 14.5804C5.19953 14.691 4.79352 14.75 4.375 14.75C1.95875 14.75 0 12.7912 0 10.375C0 7.95875 1.95875 6 4.375 6C4.79352 6 5.19953 6.05898 5.58455 6.16955C5.98268 6.28388 6.21273 6.69931 6.0984 7.09743C5.98407 7.49555 5.56864 7.72561 5.17052 7.61128C4.91876 7.53898 4.65206 7.5 4.375 7.5Z"
    fill="currentColor"
  />
  <path
    fill-rule="evenodd"
    clip-rule="evenodd"
    d="M9.88519 7.5C8.29737 7.5 7.01019 8.78718 7.01019 10.375C7.01019 11.9628 8.29737 13.25 9.88519 13.25C10.1623 13.25 10.4289 13.211 10.6807 13.1387C11.0788 13.0244 11.4943 13.2544 11.6086 13.6526C11.7229 14.0507 11.4929 14.4661 11.0947 14.5804C10.7097 14.691 10.3037 14.75 9.88519 14.75C7.46895 14.75 5.51019 12.7912 5.51019 10.375C5.51019 7.95875 7.46895 6 9.88519 6C10.3037 6 10.7097 6.05898 11.0947 6.16955C11.4929 6.28388 11.7229 6.69931 11.6086 7.09743C11.4943 7.49555 11.0788 7.72561 10.6807 7.61128C10.4289 7.53898 10.1623 7.5 9.88519 7.5Z"
    fill="currentColor"
  />
  <path
    fill-rule="evenodd"
    clip-rule="evenodd"
    d="M15.6141 13.25C17.1846 13.25 18.4578 11.9768 18.4578 10.4062C18.4578 8.83569 17.1846 7.5625 15.6141 7.5625C14.0435 7.5625 12.7703 8.83569 12.7703 10.4062C12.7703 11.9768 14.0435 13.25 15.6141 13.25ZM15.6141 14.75C18.0131 14.75 19.9578 12.8052 19.9578 10.4062C19.9578 8.00726 18.0131 6.0625 15.6141 6.0625C13.2151 6.0625 11.2703 8.00726 11.2703 10.4062C11.2703 12.8052 13.2151 14.75 15.6141 14.75Z"
    fill="currentColor"
  />
</svg>
