<svg
  xmlns="http://www.w3.org/2000/svg"
  width="20"
  height="20"
  viewBox="0 0 20 20"
  fill="none"
>
  <path
    fill-rule="evenodd"
    clip-rule="evenodd"
    d="M4.38425 10.7561C2.79307 10.7561 1.50317 12.0422 1.50317 13.6287C1.50317 15.2151 2.79307 16.5013 4.38425 16.5013C4.66189 16.5013 4.92915 16.4623 5.18144 16.3901C5.58041 16.2758 5.99671 16.5057 6.11129 16.9035C6.22586 17.3013 5.99532 17.7164 5.59635 17.8306C5.21052 17.9411 4.80365 18 4.38425 18C1.96289 18 0 16.0429 0 13.6287C0 11.2144 1.96289 9.2573 4.38425 9.2573C4.80365 9.2573 5.21052 9.31624 5.59635 9.42671C5.99532 9.54095 6.22586 9.95603 6.11129 10.3538C5.99671 10.7516 5.58041 10.9815 5.18144 10.8672C4.92915 10.795 4.66189 10.7561 4.38425 10.7561Z"
    fill="currentColor"
  />
  <path
    fill-rule="evenodd"
    clip-rule="evenodd"
    d="M9.90608 10.7561C8.31491 10.7561 7.02501 12.0422 7.02501 13.6287C7.02501 15.2151 8.31491 16.5013 9.90608 16.5013C10.1837 16.5013 10.451 16.4623 10.7033 16.3901C11.1022 16.2758 11.5185 16.5057 11.6331 16.9035C11.7477 17.3013 11.5172 17.7164 11.1182 17.8306C10.7324 17.9411 10.3255 18 9.90608 18C7.48473 18 5.52184 16.0429 5.52184 13.6287C5.52184 11.2144 7.48473 9.2573 9.90608 9.2573C10.3255 9.2573 10.7324 9.31624 11.1182 9.42671C11.5172 9.54095 11.7477 9.95603 11.6331 10.3538C11.5185 10.7516 11.1022 10.9815 10.7033 10.8672C10.451 10.795 10.1837 10.7561 9.90608 10.7561Z"
    fill="currentColor"
  />
  <path
    fill-rule="evenodd"
    clip-rule="evenodd"
    d="M15.6471 16.5013C17.2209 16.5013 18.4968 15.2291 18.4968 13.6599C18.4968 12.0906 17.2209 10.8185 15.6471 10.8185C14.0732 10.8185 12.7973 12.0906 12.7973 13.6599C12.7973 15.2291 14.0732 16.5013 15.6471 16.5013ZM15.6471 18C18.0511 18 20 16.0569 20 13.6599C20 11.2629 18.0511 9.31975 15.6471 9.31975C13.243 9.31975 11.2941 11.2629 11.2941 13.6599C11.2941 16.0569 13.243 18 15.6471 18Z"
    fill="currentColor"
  />
  <path
    fill-rule="evenodd"
    clip-rule="evenodd"
    d="M0 2.74937C0 2.33551 0.336496 2 0.751585 2H6.76426C7.17935 2 7.51585 2.33551 7.51585 2.74937C7.51585 3.16324 7.17935 3.49875 6.76426 3.49875H0.751585C0.336496 3.49875 0 3.16324 0 2.74937Z"
    fill="currentColor"
  />
  <path
    fill-rule="evenodd"
    clip-rule="evenodd"
    d="M3.00634 5.74687C3.00634 5.333 3.34284 4.9975 3.75792 4.9975H13.278C13.6931 4.9975 14.0296 5.333 14.0296 5.74687C14.0296 6.16074 13.6931 6.49624 13.278 6.49624H3.75792C3.34284 6.49624 3.00634 6.16074 3.00634 5.74687Z"
    fill="currentColor"
  />
  <path
    fill-rule="evenodd"
    clip-rule="evenodd"
    d="M8.01691 2.74937C8.01691 2.33551 8.3534 2 8.76849 2H9.7706C10.1857 2 10.5222 2.33551 10.5222 2.74937C10.5222 3.16324 10.1857 3.49875 9.7706 3.49875H8.76849C8.3534 3.49875 8.01691 3.16324 8.01691 2.74937Z"
    fill="currentColor"
  />
  <path
    fill-rule="evenodd"
    clip-rule="evenodd"
    d="M0 5.74687C0 5.333 0.336496 4.9975 0.751585 4.9975H1.7537C2.16879 4.9975 2.50528 5.333 2.50528 5.74687C2.50528 6.16074 2.16879 6.49624 1.7537 6.49624H0.751585C0.336496 6.49624 0 6.16074 0 5.74687Z"
    fill="currentColor"
  />
</svg>
