<svg
  xmlns="http://www.w3.org/2000/svg"
  width="21"
  height="20"
  viewBox="0 0 21 20"
  fill="none"
>
  <path
    fill-rule="evenodd"
    clip-rule="evenodd"
    d="M4.68902 10.7942C3.10615 10.7942 1.82298 12.0879 1.82298 13.6838C1.82298 15.2797 3.10615 16.5734 4.68902 16.5734C4.96522 16.5734 5.23109 16.5342 5.48206 16.4616C5.87895 16.3467 6.29308 16.5779 6.40706 16.978C6.52103 17.3782 6.29169 17.7957 5.89481 17.9106C5.51099 18.0218 5.10624 18.0811 4.68902 18.0811C2.2803 18.0811 0.327652 16.1123 0.327652 13.6838C0.327652 11.2552 2.2803 9.28651 4.68902 9.28651C5.10624 9.28651 5.51099 9.34579 5.89481 9.45693C6.29169 9.57184 6.52103 9.98938 6.40706 10.3895C6.29308 10.7897 5.87895 11.0209 5.48206 10.906C5.23109 10.8333 4.96522 10.7942 4.68902 10.7942Z"
    fill="currentColor"
  />
  <path
    fill-rule="evenodd"
    clip-rule="evenodd"
    d="M10.1821 10.7942C8.59918 10.7942 7.31601 12.0879 7.31601 13.6838C7.31601 15.2797 8.59918 16.5734 10.1821 16.5734C10.4583 16.5734 10.7241 16.5342 10.9751 16.4616C11.372 16.3467 11.7861 16.5779 11.9001 16.978C12.0141 17.3782 11.7847 17.7957 11.3878 17.9106C11.004 18.0218 10.5993 18.0811 10.1821 18.0811C7.77333 18.0811 5.82068 16.1123 5.82068 13.6838C5.82068 11.2552 7.77333 9.28651 10.1821 9.28651C10.5993 9.28651 11.004 9.34579 11.3878 9.45693C11.7847 9.57184 12.0141 9.98938 11.9001 10.3895C11.7861 10.7897 11.372 11.0209 10.9751 10.906C10.7241 10.8333 10.4583 10.7942 10.1821 10.7942Z"
    fill="currentColor"
  />
  <path
    fill-rule="evenodd"
    clip-rule="evenodd"
    d="M15.8931 16.5734C17.4588 16.5734 18.728 15.2937 18.728 13.7152C18.728 12.1366 17.4588 10.857 15.8931 10.857C14.3274 10.857 13.0582 12.1366 13.0582 13.7152C13.0582 15.2937 14.3274 16.5734 15.8931 16.5734ZM15.8931 18.081C18.2846 18.081 20.2233 16.1264 20.2233 13.7152C20.2233 11.304 18.2846 9.34933 15.8931 9.34933C13.5016 9.34933 11.5629 11.304 11.5629 13.7152C11.5629 16.1264 13.5016 18.081 15.8931 18.081Z"
    fill="currentColor"
  />
  <path
    fill-rule="evenodd"
    clip-rule="evenodd"
    d="M17.1276 2.30184C17.4196 2.00746 17.893 2.00746 18.1849 2.30184L20.0354 4.16754C20.3274 4.46193 20.3274 4.93922 20.0354 5.2336L18.1849 7.0993C17.893 7.39369 17.4196 7.39369 17.1276 7.0993C16.8356 6.80492 16.8356 6.32762 17.1276 6.03324L17.7017 5.45439H1.00206C0.589136 5.45439 0.254395 5.1169 0.254395 4.70057C0.254395 4.28425 0.589136 3.94675 1.00206 3.94675H17.7017L17.1276 3.36791C16.8356 3.07352 16.8356 2.59623 17.1276 2.30184Z"
    fill="currentColor"
  />
</svg>
