<svg width="20" height="20" viewBox="0 0 20 20" fill="currentcolor" xmlns="http://www.w3.org/2000/svg">
  <path fill-rule="evenodd" d="M19 3.65757C19 1.95154 17.4536 0.684366 15.8293 1.06933L7.58568 3.02307C6.41033 3.30163 5.57976 4.3757 5.57976 5.61131V13.171C5.12941 12.9012 4.60541 12.7466 4.04631 12.7466C2.36214 12.7466 1 14.1482 1 15.8733C1 17.5984 2.36214 19 4.04631 19C5.73047 19 7.09261 17.5984 7.09261 15.8733V9.43428L17.4872 6.97075V11.2897C17.0368 11.0199 16.5128 10.8652 15.9537 10.8652C14.2695 10.8652 12.9074 12.2668 12.9074 13.9919C12.9074 15.717 14.2695 17.1186 15.9537 17.1186C17.6379 17.1186 19 15.717 19 13.9919V3.65757ZM16.1702 2.5794C16.8417 2.42026 17.4872 2.94382 17.4872 3.65757V5.37986L7.09261 7.84339V5.61131C7.09261 5.09477 7.43963 4.64858 7.92666 4.53315L16.1702 2.5794ZM14.4202 13.9919C14.4202 13.1193 15.1085 12.4152 15.9537 12.4152C16.7989 12.4152 17.4872 13.1193 17.4872 13.9919C17.4872 14.8645 16.7989 15.5687 15.9537 15.5687C15.1085 15.5687 14.4202 14.8645 14.4202 13.9919ZM2.51285 15.8733C2.51285 15.0007 3.20113 14.2965 4.04631 14.2965C4.89148 14.2965 5.57976 15.0007 5.57976 15.8733C5.57976 16.7459 4.89148 17.45 4.04631 17.45C3.20113 17.45 2.51285 16.7459 2.51285 15.8733Z" fill="currentcolor" />
</svg>
