<svg width="20" height="20" viewBox="0 0 20 20" fill="currentcolor" xmlns="http://www.w3.org/2000/svg">
  <path fill-rule="evenodd" d="M10.8808 4.68734C10.7063 4.66365 10.5014 4.66373 10.3175 4.66381H8.15256C7.96859 4.66373 7.76368 4.66365 7.58925 4.68734C7.38264 4.7154 7.1114 4.78855 6.88253 5.01975C6.65377 5.25086 6.58149 5.52458 6.55375 5.73297C6.53032 5.90904 6.5304 6.11593 6.53047 6.30184V7.62997C6.5304 7.81588 6.53032 8.02278 6.55375 8.19885C6.58149 8.40723 6.65377 8.68096 6.88253 8.91206C7.1114 9.14326 7.38264 9.21641 7.58925 9.24448C7.76368 9.26817 7.9686 9.26808 8.15257 9.26801H10.3174C10.5014 9.26808 10.7063 9.26817 10.8808 9.24448C11.0874 9.21641 11.3586 9.14326 11.5875 8.91206C11.8163 8.68096 11.8885 8.40723 11.9163 8.19885C11.9397 8.02278 11.9396 7.81589 11.9395 7.62999V6.30185C11.9396 6.11594 11.9397 5.90903 11.9163 5.73297C11.8885 5.52458 11.8163 5.25086 11.5875 5.01975C11.3586 4.78855 11.0874 4.7154 10.8808 4.68734ZM8.02944 6.33619C8.02944 6.27603 8.02945 6.22372 8.02976 6.17698C8.07584 6.17668 8.12739 6.17666 8.18665 6.17666H10.2834C10.3426 6.17666 10.3942 6.17668 10.4403 6.17698C10.4406 6.22372 10.4406 6.27603 10.4406 6.33619V7.59563C10.4406 7.65579 10.4406 7.70809 10.4403 7.75484C10.3942 7.75514 10.3426 7.75515 10.2834 7.75515H8.18665C8.12739 7.75515 8.07584 7.75514 8.02975 7.75484C8.02945 7.70809 8.02944 7.65579 8.02944 7.59563V6.33619Z" fill="currentcolor" />
  <path d="M14.0801 4.94381C13.6655 4.94381 13.3306 5.28314 13.3306 5.70024C13.3306 6.11733 13.6655 6.45666 14.0801 6.45666H15.8935C16.3081 6.45666 16.6429 6.11733 16.6429 5.70024C16.6429 5.28314 16.3081 4.94381 15.8935 4.94381H14.0801Z" fill="currentcolor" />
  <path d="M14.0801 7.41167C13.6655 7.41167 13.3306 7.751 13.3306 8.16809C13.3306 8.58519 13.6655 8.92452 14.0801 8.92452H15.8935C16.3081 8.92452 16.6429 8.58519 16.6429 8.16809C16.6429 7.751 16.3081 7.41167 15.8935 7.41167H14.0801Z" fill="currentcolor" />
  <path d="M7.27994 11.0755C6.86536 11.0755 6.53047 11.4148 6.53047 11.8319C6.53047 12.249 6.86536 12.5883 7.27994 12.5883H15.8935C16.3081 12.5883 16.643 12.249 16.643 11.8319C16.643 11.4148 16.3081 11.0755 15.8935 11.0755H7.27994Z" fill="currentcolor" />
  <path d="M7.27994 13.8233C6.86536 13.8233 6.53047 14.1627 6.53047 14.5798C6.53047 14.9969 6.86536 15.3362 7.27994 15.3362H15.8935C16.3081 15.3362 16.643 14.9969 16.643 14.5798C16.643 14.1627 16.3081 13.8233 15.8935 13.8233H7.27994Z" fill="currentcolor" />
  <path fill-rule="evenodd" d="M12.8652 1H10.3083C9.07244 0.999983 8.06913 0.999969 7.27842 1.10736C6.45449 1.21927 5.75017 1.46011 5.18937 2.02663C4.62868 2.59306 4.3904 3.30429 4.27967 4.1363C4.17338 4.93496 4.1734 5.94836 4.17342 7.19696L4.17342 17.4645C3.30816 17.3318 2.63063 16.6366 2.51584 15.7557C2.50058 15.6387 2.49897 15.4873 2.49897 15.0377V6.86849C2.49897 6.32874 2.84082 5.85016 3.34673 5.6798C3.73972 5.54747 3.95117 5.11896 3.82061 4.72326C3.68994 4.32726 3.26563 4.11228 2.87232 4.24473C1.75382 4.62137 1.00001 5.67847 1.00001 6.86849L1.00001 15.0955C0.999944 15.4657 0.999901 15.7245 1.02968 15.953C1.23455 17.5251 2.45927 18.7629 4.0166 18.97C4.06723 18.9767 4.1192 18.982 4.17342 18.986V19L4.92298 19L4.9246 19H12.8652C14.101 19 15.1043 19 15.895 18.8926C16.7189 18.7807 17.4233 18.5399 17.984 17.9734C18.5447 17.4069 18.783 16.6957 18.8937 15.8637C19 15.065 19 14.0516 19 12.803V7.19697C19 5.94837 19 4.93496 18.8937 4.1363C18.783 3.30429 18.5447 2.59306 17.984 2.02663C17.4233 1.46011 16.7189 1.21927 15.895 1.10736C15.1043 0.999969 14.101 0.999983 12.8652 1ZM7.47833 2.6067C8.15743 2.51446 9.05953 2.51285 10.363 2.51285H12.8104C14.1139 2.51285 15.016 2.51446 15.6951 2.6067C16.3525 2.69599 16.6877 2.85754 16.9236 3.09588C17.1596 3.33432 17.3197 3.67321 17.4081 4.3377C17.4995 5.0239 17.501 5.93539 17.501 7.25214V12.7479C17.501 14.0646 17.4995 14.9761 17.4081 15.6623C17.3197 16.3268 17.1596 16.6657 16.9236 16.9041C16.6877 17.1425 16.3525 17.304 15.6951 17.3933C15.016 17.4855 14.1139 17.4872 12.8104 17.4872H5.67237V7.25214C5.67237 5.93539 5.67396 5.0239 5.76529 4.3377C5.85372 3.67321 6.01376 3.33432 6.24979 3.09588C6.48572 2.85754 6.82091 2.69599 7.47833 2.6067Z" fill="currentcolor" />
</svg>
