<svg
  xmlns="http://www.w3.org/2000/svg"
  width="20"
  height="20"
  viewBox="0 0 20 20"
  fill="none"
>
  <path
    fill-rule="evenodd"
    clip-rule="evenodd"
    d="M3.11001 0.285799C2.84572 -0.0395282 2.35961 -0.0954145 2.02425 0.160974C1.6889 0.417362 1.63129 0.888936 1.89558 1.21426L4.55631 4.48948C4.46837 4.87026 4.42197 5.26625 4.42197 5.67276V8.67307C4.42197 9.14409 4.21987 9.59385 3.86416 9.91444L2.38584 11.2468C0.940025 12.5499 1.32546 14.8521 3.09504 15.6688C3.98113 16.0778 4.89734 16.4043 5.83146 16.648C5.85579 16.702 5.88313 16.7606 5.91356 16.8231C6.06595 17.1363 6.3008 17.558 6.63025 17.9842C7.2804 18.8252 8.38395 19.7842 10.0193 19.7842C11.6547 19.7842 12.7583 18.8252 13.4084 17.9842C13.7379 17.558 13.9727 17.1363 14.1251 16.8231C14.155 16.7617 14.1818 16.7041 14.2058 16.651C14.269 16.6345 14.3321 16.6177 14.3951 16.6004L16.9271 19.7172C17.1914 20.0426 17.6775 20.0984 18.0128 19.842C18.3482 19.5857 18.4058 19.1141 18.1415 18.7888L3.11001 0.285799ZM13.3495 15.3134L5.9682 6.22744V8.67307C5.9682 9.56106 5.58719 10.409 4.91659 11.0134L3.43827 12.3457C2.80281 12.9185 2.96361 13.947 3.75935 14.3143C6.7679 15.7029 10.16 16.0389 13.3495 15.3134ZM12.2031 17.0428C10.7538 17.2342 9.28319 17.2332 7.83398 17.0406C7.84495 17.0552 7.85605 17.0697 7.86729 17.0842C8.37667 17.7432 9.07705 18.2842 10.0193 18.2842C10.9616 18.2842 11.662 17.7432 12.1714 17.0842L12.2031 17.0428Z"
    fill="currentColor"
  />
  <path
    d="M16.5458 12.3658C17.1515 12.8929 17.0621 13.818 16.4119 14.2391L17.3712 15.4192C18.7536 14.44 18.9173 12.4144 17.5783 11.2492L16.0401 9.91064C15.6741 9.5922 15.4689 9.13523 15.4776 8.65842L15.5304 5.76822C15.5854 2.75533 13.0828 0.28421 9.9766 0.28421C8.52795 0.28421 7.20883 0.822184 6.21994 1.70342L7.18125 2.8858C7.90334 2.20409 8.88942 1.78421 9.9766 1.78421C12.2182 1.78421 14.0241 3.56745 13.9844 5.74165L13.9316 8.63185C13.9149 9.54395 14.3076 10.4181 15.0076 11.0272L16.5458 12.3658Z"
    fill="currentColor"
  />
</svg>
