<svg
  xmlns="http://www.w3.org/2000/svg"
  width="20"
  height="20"
  viewBox="0 0 20 20"
  fill="none"
>
  <path
    fill-rule="evenodd"
    clip-rule="evenodd"
    d="M5.41658 0.210716C5.7266 0.50284 5.73991 0.989709 5.44631 1.29817C4.71629 2.06513 4.17669 3.0097 3.8981 4.05571C3.78872 4.46637 3.36547 4.71105 2.95274 4.60223C2.54 4.4934 2.29408 4.07228 2.40345 3.66162C2.74976 2.36135 3.41979 1.18988 4.32363 0.240294C4.61723 -0.0681654 5.10656 -0.0814081 5.41658 0.210716Z"
    fill="currentColor"
  />
  <path
    fill-rule="evenodd"
    clip-rule="evenodd"
    d="M14.623 0.210716C14.313 0.50284 14.2997 0.989709 14.5933 1.29817C15.3233 2.06513 15.8629 3.0097 16.1415 4.05571C16.2508 4.46637 16.6741 4.71105 17.0868 4.60223C17.4996 4.4934 17.7455 4.07228 17.6361 3.66162C17.2898 2.36135 16.6198 1.18988 15.7159 0.240294C15.4223 -0.0681654 14.933 -0.0814081 14.623 0.210716Z"
    fill="currentColor"
  />
  <path
    fill-rule="evenodd"
    clip-rule="evenodd"
    d="M9.9766 6.86218e-05C6.90886 6.86218e-05 4.42197 2.47446 4.42197 5.52677V8.604C4.42197 9.08709 4.21987 9.54839 3.86416 9.8772L2.38584 11.2437C0.940025 12.5802 1.32546 14.9414 3.09504 15.7791C3.98113 16.1986 4.89734 16.5334 5.83146 16.7834C5.85579 16.8387 5.88313 16.8988 5.91356 16.963C6.06595 17.2842 6.3008 17.7167 6.63025 18.1538C7.2804 19.0164 8.38395 20 10.0193 20C11.6547 20 12.7583 19.0164 13.4084 18.1538C13.7379 17.7167 13.9727 17.2842 14.1251 16.963C14.155 16.9 14.1818 16.841 14.2058 16.7865C15.1314 16.5388 16.0394 16.2071 16.918 15.7912C18.7056 14.945 19.0518 12.5614 17.5783 11.2462L16.0401 9.87329C15.6741 9.54669 15.4689 9.07801 15.4776 8.58897L15.5304 5.62468C15.5854 2.53454 13.0828 6.86218e-05 9.9766 6.86218e-05ZM12.2031 17.1883C10.7538 17.3846 9.28319 17.3836 7.83398 17.1861C7.84495 17.201 7.85605 17.2159 7.86729 17.2308C8.37667 17.9067 9.07705 18.4615 10.0193 18.4615C10.9616 18.4615 11.662 17.9067 12.1714 17.2308C12.182 17.2166 12.1926 17.2024 12.2031 17.1883ZM16.2537 14.402C12.3107 16.2686 7.70515 16.2578 3.75935 14.3899C2.96361 14.0132 2.80281 12.9582 3.43827 12.3708L4.91659 11.0043C5.58719 10.3844 5.9682 9.51475 5.9682 8.604V5.52677C5.9682 3.32413 7.76282 1.53853 9.9766 1.53853C12.2182 1.53853 14.0241 3.36748 13.9844 5.59742L13.9316 8.56172C13.9149 9.49721 14.3076 10.3937 15.0076 11.0185L16.5458 12.3914C17.1976 12.9732 17.0445 14.0277 16.2537 14.402Z"
    fill="currentColor"
  />
</svg>
