<svg
  xmlns="http://www.w3.org/2000/svg"
  width="20"
  height="20"
  viewBox="0 0 20 20"
  fill="none"
>
  <path
    fill-rule="evenodd"
    clip-rule="evenodd"
    d="M9.9766 0C6.90886 0 4.42197 2.4744 4.42197 5.52672V8.60396C4.42197 9.08705 4.21987 9.54835 3.86416 9.87716L2.38584 11.2437C0.940025 12.5802 1.32546 14.9414 3.09504 15.7791C3.98113 16.1986 4.89734 16.5334 5.83146 16.7834C5.85579 16.8387 5.88313 16.8988 5.91356 16.963C6.06595 17.2842 6.3008 17.7167 6.63025 18.1538C7.2804 19.0164 8.38395 20 10.0193 20C11.6547 20 12.7583 19.0164 13.4084 18.1538C13.7379 17.7167 13.9727 17.2842 14.1251 16.963C14.155 16.9 14.1818 16.8409 14.2058 16.7865C15.1314 16.5388 16.0394 16.2071 16.918 15.7912C18.7056 14.945 19.0518 12.5613 17.5783 11.2461L16.0401 9.87326C15.6741 9.54665 15.4689 9.07797 15.4776 8.58893L15.5304 5.62463C15.5854 2.53448 13.0828 0 9.9766 0ZM12.2031 17.1883C10.7538 17.3846 9.28319 17.3836 7.83398 17.1861C7.84495 17.201 7.85605 17.2159 7.86729 17.2308C8.37667 17.9066 9.07705 18.4615 10.0193 18.4615C10.9616 18.4615 11.662 17.9066 12.1714 17.2308C12.182 17.2166 12.1926 17.2024 12.2031 17.1883ZM16.2537 14.402C12.3107 16.2686 7.70515 16.2578 3.75935 14.3899C2.96361 14.0132 2.80281 12.9582 3.43827 12.3708L4.91659 11.0043C5.58719 10.3844 5.9682 9.51472 5.9682 8.60396V5.52672C5.9682 3.32407 7.76282 1.53846 9.9766 1.53846C12.2182 1.53846 14.0241 3.36743 13.9844 5.59737L13.9316 8.56168C13.9149 9.49717 14.3076 10.3937 15.0076 11.0185L16.5458 12.3914C17.1976 12.9732 17.0445 14.0276 16.2537 14.402Z"
    fill="currentColor"
  />
</svg>
