<svg
  xmlns="http://www.w3.org/2000/svg"
  width="20"
  height="20"
  viewBox="0 0 20 20"
  fill="none"
>
  <path
    fill-rule="evenodd"
    clip-rule="evenodd"
    d="M5.3325 1.25749C5.6035 1.52726 5.60448 1.96563 5.33469 2.23661C4.66386 2.91038 4.15953 3.74822 3.8866 4.68315C3.77945 5.0502 3.39501 5.2609 3.02793 5.15376C2.66085 5.04662 2.45013 4.66221 2.55728 4.29515C2.89655 3.13295 3.52275 2.09388 4.35331 1.25967C4.6231 0.988695 5.0615 0.987717 5.3325 1.25749Z"
    fill="currentColor"
  />
  <path
    fill-rule="evenodd"
    clip-rule="evenodd"
    d="M14.6638 1.25749C14.3928 1.52726 14.3918 1.96563 14.6616 2.23661C15.3325 2.91038 15.8368 3.74822 16.1097 4.68315C16.2169 5.0502 16.6013 5.2609 16.9684 5.15376C17.3355 5.04662 17.5462 4.66221 17.439 4.29515C17.0998 3.13295 16.4736 2.09388 15.643 1.25967C15.3732 0.988695 14.9348 0.987717 14.6638 1.25749Z"
    fill="currentColor"
  />
  <path
    fill-rule="evenodd"
    clip-rule="evenodd"
    d="M10 1C6.81334 1 4.23004 3.58311 4.23004 6.76953V8.34866C4.23004 8.84791 3.97101 9.31141 3.54579 9.57307L2.31292 10.3317C0.321943 11.5568 0.662899 14.5479 2.87852 15.2936L3.72424 15.5783C4.57655 15.8651 5.44361 16.0919 6.31925 16.2587C6.32047 16.2613 6.3217 16.2639 6.32294 16.2666C6.45942 16.5556 6.66974 16.9449 6.96479 17.3383C7.54706 18.1147 8.53539 19 10 19C11.4646 19 12.453 18.1147 13.0352 17.3383C13.3303 16.9449 13.5406 16.5556 13.6771 16.2666C13.6783 16.2639 13.6796 16.2613 13.6808 16.2587C14.5564 16.0919 15.4235 15.8651 16.2757 15.5783L17.1215 15.2936C19.3371 14.5479 19.6781 11.5568 17.6871 10.3317L16.4542 9.57307C16.029 9.31141 15.77 8.84791 15.77 8.34866V6.76953C15.77 3.58311 13.1867 1 10 1ZM11.9242 16.5117C10.6445 16.6375 9.35549 16.6375 8.07579 16.5117C8.53172 17.1181 9.15804 17.6153 10 17.6153C10.842 17.6153 11.4683 17.1181 11.9242 16.5117ZM5.61483 6.76953C5.61483 4.34785 7.57814 2.38469 10 2.38469C12.4219 2.38469 14.3852 4.34785 14.3852 6.76953V8.34866C14.3852 9.32875 14.8937 10.2387 15.7284 10.7523L16.9613 11.511C17.9525 12.1209 17.7828 13.61 16.6797 13.9813L15.834 14.2659C12.049 15.5398 7.951 15.5398 4.16599 14.2659L3.32027 13.9813C2.21721 13.6101 2.04747 12.1209 3.03868 11.511L4.27156 10.7523C5.10633 10.2387 5.61483 9.32875 5.61483 8.34866V6.76953Z"
    fill="currentColor"
  />
</svg>
