<svg
  xmlns="http://www.w3.org/2000/svg"
  width="20"
  height="20"
  viewBox="0 0 20 20"
  fill="none"
>
  <path
    fill-rule="evenodd"
    clip-rule="evenodd"
    d="M7.99976 0.82251C10.9739 0.82251 13.5149 2.67735 14.5289 5.29336C17.1449 6.30741 18.9998 8.84835 18.9998 11.8225C18.9998 15.6885 15.8657 18.8225 11.9998 18.8225C9.02559 18.8225 6.48466 16.9677 5.47061 14.3517C2.8546 13.3376 0.999756 10.7967 0.999756 7.82251C0.999756 3.95652 4.13376 0.82251 7.99976 0.82251ZM13.4837 8.24575C13.4943 8.10606 13.4998 7.96492 13.4998 7.82251C13.4998 7.36157 13.4431 6.91388 13.3362 6.48602C12.9084 6.37921 12.4607 6.32251 11.9998 6.32251C11.8573 6.32251 11.7162 6.32792 11.5765 6.33855L13.4837 8.24575ZM13.0712 9.95459L9.86767 6.75103C9.44071 6.93074 9.04119 7.16281 8.67715 7.43918L12.3831 11.1451C12.6595 10.7811 12.8915 10.3816 13.0712 9.95459ZM11.3224 12.2058L7.61648 8.49983C7.3401 8.86386 7.10803 9.26338 6.92831 9.69034L10.1319 12.894C10.5589 12.7142 10.9584 12.4822 11.3224 12.2058ZM8.42311 13.3065L6.51581 11.3992C6.50517 11.5389 6.49976 11.6801 6.49976 11.8225C6.49976 12.2834 6.55646 12.7311 6.66327 13.159C7.09112 13.2658 7.53882 13.3225 7.99976 13.3225C8.1422 13.3225 8.28338 13.3171 8.42311 13.3065ZM11.9998 4.82251C12.2116 4.82251 12.4213 4.83192 12.6283 4.85035C11.6498 3.32969 9.94241 2.32251 7.99976 2.32251C4.96219 2.32251 2.49976 4.78494 2.49976 7.82251C2.49976 9.76517 3.50693 11.4726 5.0276 12.4511C5.00917 12.244 4.99976 12.0344 4.99976 11.8225C4.99976 7.95652 8.13376 4.82251 11.9998 4.82251ZM14.9998 7.82251C14.9998 7.61066 14.9903 7.401 14.9719 7.19394C16.4926 8.17244 17.4998 9.87985 17.4998 11.8225C17.4998 14.8601 15.0373 17.3225 11.9998 17.3225C10.0571 17.3225 8.34968 16.3153 7.37119 14.7947C7.57825 14.8131 7.7879 14.8225 7.99976 14.8225C11.8657 14.8225 14.9998 11.6885 14.9998 7.82251Z"
    fill="currentColor"
  />
</svg>
