<svg width="20" height="20" viewBox="0 0 20 20" fill="currentcolor" xmlns="http://www.w3.org/2000/svg">
  <path fill-rule="evenodd" d="M10.0962 0.929932C5.03536 0.929932 0.930176 5.0203 0.930176 10.1307C0.930176 14.4342 3.81175 17.9657 8.75857 19.0121C9.80415 19.2333 10.7214 18.7987 11.2674 18.0691C11.8028 17.3537 11.9836 16.3606 11.6599 15.4123C11.1705 13.9787 10.9285 13.0964 10.8763 12.5018C10.8514 12.2174 10.8746 12.0406 10.9113 11.9228C10.9452 11.8142 11.0017 11.7191 11.1071 11.6133C11.428 11.2911 12.0706 11.1008 13.0449 11.114C13.9796 11.1266 15.0362 11.3237 15.9701 11.5597C16.7722 11.7623 17.5979 11.5712 18.1966 11.1074C18.8084 10.6334 19.1994 9.8531 19.0309 8.95058C18.105 3.99197 14.4837 0.929932 10.0962 0.929932ZM2.46957 10.1307C2.46957 5.87622 5.88276 2.47467 10.0962 2.47467C13.6691 2.47467 16.7143 4.93191 17.5178 9.23507C17.5665 9.49579 17.4702 9.71863 17.2558 9.8847C17.0278 10.0613 16.6868 10.1478 16.346 10.0617C15.3622 9.81311 14.1732 9.58436 13.0656 9.56937C11.9977 9.55491 10.8015 9.73506 10.0183 10.5212C9.76019 10.7803 9.55932 11.0857 9.44213 11.4617C9.32779 11.8285 9.30629 12.2204 9.34285 12.6372C9.41371 13.445 9.71974 14.4955 10.2036 15.9129C10.3626 16.3786 10.2647 16.8366 10.0365 17.1416C9.81902 17.4321 9.48787 17.5877 9.07609 17.5006C4.75837 16.5873 2.46957 13.6219 2.46957 10.1307Z" fill="currentcolor" />
  <path fill-rule="evenodd" d="M13.8911 6.51196C14.4413 6.51196 14.8873 6.06425 14.8873 5.51196C14.8873 4.95968 14.4413 4.51196 13.8911 4.51196C13.3409 4.51196 12.8949 4.95968 12.8949 5.51196C12.8949 6.06425 13.3409 6.51196 13.8911 6.51196Z" fill="currentcolor" />
  <path fill-rule="evenodd" d="M10.1594 5.57544C10.7096 5.57544 11.1556 5.12772 11.1556 4.57544C11.1556 4.02315 10.7096 3.57544 10.1594 3.57544C9.60922 3.57544 9.16321 4.02315 9.16321 4.57544C9.16321 5.12772 9.60922 5.57544 10.1594 5.57544Z" fill="currentcolor" />
  <path fill-rule="evenodd" d="M6.42772 6.97998C6.9779 6.97998 7.42391 6.53227 7.42391 5.97998C7.42391 5.4277 6.9779 4.97998 6.42772 4.97998C5.87753 4.97998 5.43152 5.4277 5.43152 5.97998C5.43152 6.53227 5.87753 6.97998 6.42772 6.97998Z" fill="currentcolor" />
  <path fill-rule="evenodd" d="M4.56187 10.2578C5.11205 10.2578 5.55807 9.8101 5.55807 9.25781C5.55807 8.70553 5.11205 8.25781 4.56187 8.25781C4.01169 8.25781 3.56567 8.70553 3.56567 9.25781C3.56567 9.8101 4.01169 10.2578 4.56187 10.2578Z" fill="currentcolor" />
</svg>
