<svg
  xmlns="http://www.w3.org/2000/svg"
  width="20"
  height="20"
  viewBox="0 0 20 20"
  fill="none"
>
  <path
    fill-rule="evenodd"
    clip-rule="evenodd"
    d="M10.0961 0.929932C5.03523 0.929932 0.930054 5.0203 0.930054 10.1307C0.930054 14.4342 3.81163 17.9657 8.75844 19.0121C9.80403 19.2333 10.7213 18.7987 11.2673 18.0691C11.8027 17.3537 11.9835 16.3606 11.6598 15.4123C11.1704 13.9787 10.9284 13.0964 10.8762 12.5018C10.8513 12.2174 10.8745 12.0406 10.9112 11.9228C10.9451 11.8142 11.0015 11.7191 11.1069 11.6133C11.4278 11.2911 12.0705 11.1008 13.0447 11.114C13.9794 11.1266 15.0361 11.3237 15.97 11.5597C16.7721 11.7623 17.5978 11.5712 18.1964 11.1074C18.8083 10.6334 19.1993 9.8531 19.0308 8.95058C18.1048 3.99197 14.4836 0.929932 10.0961 0.929932ZM2.46945 10.1307C2.46945 5.87622 5.88264 2.47467 10.0961 2.47467C13.669 2.47467 16.7142 4.93191 17.5177 9.23507C17.5664 9.49579 17.4701 9.71863 17.2557 9.8847C17.0277 10.0613 16.6867 10.1478 16.3459 10.0617C15.3621 9.81311 14.1731 9.58436 13.0655 9.56937C11.9976 9.55491 10.8013 9.73506 10.0182 10.5212C9.76007 10.7803 9.5592 11.0857 9.44201 11.4617C9.32767 11.8285 9.30617 12.2204 9.34273 12.6372C9.41358 13.445 9.71962 14.4955 10.2035 15.9129C10.3624 16.3786 10.2645 16.8366 10.0363 17.1416C9.8189 17.4321 9.48775 17.5877 9.07597 17.5006C4.75825 16.5873 2.46945 13.6219 2.46945 10.1307Z"
    fill="currentColor"
  />
  <path
    fill-rule="evenodd"
    clip-rule="evenodd"
    d="M13.891 6.51196C14.4412 6.51196 14.8872 6.06425 14.8872 5.51196C14.8872 4.95968 14.4412 4.51196 13.891 4.51196C13.3408 4.51196 12.8948 4.95968 12.8948 5.51196C12.8948 6.06425 13.3408 6.51196 13.891 6.51196Z"
    fill="currentColor"
  />
  <path
    fill-rule="evenodd"
    clip-rule="evenodd"
    d="M10.1593 5.57544C10.7095 5.57544 11.1555 5.12772 11.1555 4.57544C11.1555 4.02315 10.7095 3.57544 10.1593 3.57544C9.6091 3.57544 9.16309 4.02315 9.16309 4.57544C9.16309 5.12772 9.6091 5.57544 10.1593 5.57544Z"
    fill="currentColor"
  />
  <path
    fill-rule="evenodd"
    clip-rule="evenodd"
    d="M6.42759 6.97998C6.97778 6.97998 7.42379 6.53227 7.42379 5.97998C7.42379 5.4277 6.97778 4.97998 6.42759 4.97998C5.87741 4.97998 5.4314 5.4277 5.4314 5.97998C5.4314 6.53227 5.87741 6.97998 6.42759 6.97998Z"
    fill="currentColor"
  />
  <path
    fill-rule="evenodd"
    clip-rule="evenodd"
    d="M4.56175 10.2578C5.11193 10.2578 5.55795 9.8101 5.55795 9.25781C5.55795 8.70553 5.11193 8.25781 4.56175 8.25781C4.01156 8.25781 3.56555 8.70553 3.56555 9.25781C3.56555 9.8101 4.01156 10.2578 4.56175 10.2578Z"
    fill="currentColor"
  />
</svg>
