<svg
  xmlns="http://www.w3.org/2000/svg"
  width="20"
  height="20"
  viewBox="0 0 20 20"
  fill="none"
>
  <path
    fill-rule="evenodd"
    clip-rule="evenodd"
    d="M18.171 1.6526C17.4034 0.964288 16.234 0.739319 15.2734 1.37623C14.3616 1.98082 12.9462 3.07183 11.0635 4.97315C9.41646 6.63659 8.27897 8.17122 7.55047 9.29611C7.18616 9.85864 6.92389 10.3191 6.7511 10.6425C6.73453 10.6735 6.71878 10.7032 6.70384 10.7317C5.23789 10.7549 4.26535 11.3389 3.65486 12.1956C3.0725 13.0128 2.86947 14.0137 2.74609 14.7456C2.65847 15.2653 2.28136 15.8254 1.81713 16.3195L1.79034 16.348C1.58974 16.5614 1.39693 16.7665 1.2671 16.9412C1.19809 17.034 1.11358 17.161 1.05906 17.3124C1.00009 17.4761 0.964309 17.7043 1.05532 17.9499C1.22856 18.4175 1.68659 18.5405 1.85241 18.5812C2.05687 18.6313 2.32346 18.663 2.59187 18.6949L2.63128 18.6996C3.77757 18.8361 5.41025 19 6.67199 19C7.97934 19 9.03237 18.3967 9.74419 17.5973C10.4442 16.8112 10.8539 15.7928 10.8539 14.8655C10.8539 14.5113 10.8101 14.1664 10.7273 13.8366C11.0066 13.6355 11.3593 13.3681 11.7675 13.0307C12.804 12.1739 14.1998 10.8642 15.6604 9.03837C17.3472 6.92985 18.2688 5.39354 18.7602 4.42483C19.2671 3.42558 18.9232 2.32712 18.171 1.6526ZM10.1083 12.4733C10.3151 12.3182 10.5545 12.1312 10.8208 11.9112C11.7901 11.1099 13.1127 9.8707 14.5027 8.13316C16.1358 6.09174 17.0004 4.63884 17.4408 3.77066C17.6006 3.45557 17.5288 3.04676 17.1794 2.73349C16.8223 2.41325 16.3961 2.38888 16.0955 2.58815C15.2787 3.12974 13.9401 4.15397 12.1183 5.99395C10.5508 7.57699 9.47481 9.03092 8.79349 10.083C8.56446 10.4366 8.38013 10.7447 8.23683 10.9968C9.00025 11.2904 9.64813 11.8108 10.1083 12.4733ZM4.20198 14.9854C4.3246 14.2581 4.49056 13.5565 4.86144 13.0361C5.19162 12.5727 5.72893 12.1902 6.79499 12.1902C8.20577 12.1902 9.37795 13.3612 9.37795 14.8655C9.37795 15.3975 9.12748 16.0815 8.63635 16.633C8.15708 17.1713 7.48813 17.5408 6.67199 17.5408C5.55046 17.5408 4.06772 17.3983 2.94145 17.2666C3.454 16.7123 4.04612 15.91 4.20198 14.9854Z"
    fill="currentColor"
  />
</svg>
