<svg width="20" height="20" viewBox="0 0 20 20" fill="currentcolor" xmlns="http://www.w3.org/2000/svg">
  <path d="M16.5079 2.29562C14.8099 0.568127 12.0569 0.568127 10.3589 2.29562L3.66934 9.10136C1.44355 11.3658 1.44355 15.0372 3.66934 17.3017C5.89513 19.5661 9.50385 19.5661 11.7296 17.3017L17.7821 11.1441C18.0726 10.8485 18.0726 10.3692 17.7821 10.0736C17.4915 9.778 17.0204 9.778 16.7299 10.0736L10.6774 16.2312C9.03276 17.9044 6.36622 17.9044 4.72154 16.2312C3.07687 14.5579 3.07687 11.8451 4.72154 10.1718L11.4111 3.3661C12.528 2.22982 14.3388 2.22982 15.4557 3.3661C16.5726 4.50238 16.5726 6.34466 15.4557 7.48095L8.76614 14.2867C8.17704 14.886 7.22194 14.886 6.63284 14.2867C6.04375 13.6874 6.04375 12.7157 6.63284 12.1163L12.6853 5.95876C12.9758 5.66316 12.9758 5.18389 12.6853 4.88828C12.3947 4.59268 11.9236 4.59268 11.6331 4.88828L5.58064 11.0459C4.41043 12.2364 4.41043 14.1666 5.58064 15.3572C6.75085 16.5477 8.64813 16.5477 9.81834 15.3572L16.5079 8.55143C18.2059 6.82393 18.2059 4.02311 16.5079 2.29562Z" fill="currentcolor" />
</svg>
