<svg width="20" height="20" viewBox="0 0 20 20" fill="currentColor" xmlns="http://www.w3.org/2000/svg">
  <path fill-rule="evenodd" d="M8.08797 1.02932C6.09291 0.896764 4.26717 1.24223 3.24447 1.49507L3.1765 1.51173C2.85192 1.59095 2.46943 1.6843 2.13361 2.00844C1.79791 2.33248 1.6911 2.70952 1.60046 3.02944L1.58165 3.09561C1.29366 4.10098 0.900208 5.88906 1.02312 7.88243C1.14655 9.88408 1.79511 12.1352 3.63444 13.9791C5.41894 15.7681 7.3327 16.3984 9.16699 16.1853C9.36849 16.1619 9.56755 16.1285 9.76394 16.0859C9.8354 16.2274 9.93478 16.4067 10.0707 16.6208C10.4035 17.145 10.954 17.8762 11.8477 18.772C12.1509 19.076 12.6425 19.076 12.9457 18.772C13.2488 18.4682 13.2488 17.9756 12.9457 17.6717C12.1255 16.8495 11.6478 16.2062 11.3807 15.7854C11.3308 15.7068 11.2882 15.636 11.2521 15.5731C12.2076 15.1199 13.0715 14.466 13.81 13.7257C14.5258 13.0082 15.1605 12.1725 15.6104 11.2497C15.6657 11.282 15.7266 11.3192 15.7931 11.3616C16.2127 11.6293 16.8544 12.1082 17.6746 12.9305C17.9778 13.2344 18.4695 13.2344 18.7727 12.9305C19.0758 12.6266 19.0758 12.134 18.7727 11.8302C17.8791 10.9343 17.1497 10.3823 16.6268 10.0487C16.4374 9.9279 16.2752 9.83585 16.1425 9.76659C16.1955 9.53838 16.2362 9.30648 16.2634 9.07127C16.4759 7.23259 15.8473 5.31414 14.0628 3.52518C12.3211 1.77909 10.0836 1.1619 8.08797 1.02932ZM7.26772 6.13523L4.0904 2.89688C5.0612 2.68942 6.47974 2.4821 7.98527 2.58212C9.75875 2.69995 11.5807 3.23798 12.9648 4.62547C14.4605 6.12496 14.8718 7.58741 14.721 8.89218C14.5659 10.2347 13.8002 11.5345 12.712 12.6254C11.6237 13.7164 10.3273 14.4839 8.98824 14.6394C7.68692 14.7906 6.22822 14.3783 4.73248 12.8789C3.23426 11.3769 2.68024 9.52797 2.57285 7.78643C2.48052 6.28918 2.72161 4.90275 2.95712 3.96131L6.17835 7.24443C5.64584 8.26126 5.79986 9.55351 6.64145 10.4113C7.67261 11.4622 9.34501 11.4622 10.3762 10.4113C11.4066 9.36103 11.4066 7.6588 10.3762 6.60857C9.53482 5.75105 8.26645 5.59311 7.26772 6.13523ZM7.73213 7.71642C8.16123 7.27908 8.85639 7.27908 9.28549 7.71642C9.71532 8.15451 9.71532 8.86532 9.28549 9.30341C8.85639 9.74076 8.16123 9.74076 7.73212 9.30341C7.3023 8.86532 7.3023 8.15451 7.73213 7.71642Z" fill="currentColor" />
</svg>
