<svg width="20" height="20" viewBox="0 0 20 20" fill="currentcolor" xmlns="http://www.w3.org/2000/svg">
  <path fill-rule="evenodd" d="M3.04491 2.2596L2.89451 2.41005C2.26572 3.03859 1.84956 3.45459 1.55285 3.97785C0.904411 5.12141 0.817952 6.70653 1.33817 7.91383C1.57612 8.46607 1.90854 8.88002 2.40653 9.50014L2.45671 9.56263C3.47966 10.8369 4.76738 12.3348 6.21629 13.7837C7.6652 15.2326 9.16307 16.5203 10.4374 17.5433L10.4999 17.5935C11.12 18.0915 11.5339 18.4239 12.0862 18.6618C13.2935 19.182 14.8786 19.0956 16.0222 18.4471C16.5454 18.1504 16.9614 17.7343 17.59 17.1055L17.7404 16.9551C18.1529 16.5431 18.4721 16.2244 18.6658 15.8661C19.1114 15.0421 19.1114 14.049 18.6658 13.225C18.4721 12.8667 18.1529 12.548 17.7404 12.136L16.7449 11.1405C16.7027 11.0983 16.6687 11.0643 16.6354 11.0333C15.8376 10.2892 14.6593 10.1242 13.6877 10.6205C13.6472 10.6412 13.6045 10.6649 13.5524 10.6938L13.5429 10.6991C13.4576 10.7465 13.4293 10.7621 13.4044 10.775C12.7446 11.1152 11.9505 11.061 11.3431 10.6342C11.3201 10.618 11.2943 10.5988 11.2162 10.5402L11.0863 10.4428C10.9627 10.3501 10.9093 10.31 10.8574 10.2694C10.4376 9.94081 10.0592 9.56243 9.73061 9.14257C9.69002 9.0907 9.64991 9.03727 9.55723 8.91371L9.45982 8.78382C9.40126 8.70574 9.38196 8.67987 9.36581 8.65689C8.93904 8.04952 8.88479 7.25541 9.22501 6.59566C9.23789 6.57069 9.25349 6.54243 9.30089 6.45712L9.30665 6.44674C9.33559 6.39467 9.35888 6.35275 9.37954 6.3123C9.87587 5.34074 9.71084 4.16241 8.9667 3.36458C8.9357 3.33134 8.90122 3.29687 8.85906 3.25471L7.864 2.25959C7.45202 1.84709 7.13327 1.52794 6.77497 1.33418C5.95101 0.888606 4.95791 0.888606 4.13395 1.33418C3.77565 1.52794 3.4569 1.8471 3.04491 2.2596ZM2.87086 4.72522C3.05422 4.40185 3.3135 4.13384 4.03647 3.41086C4.29896 3.14838 4.46926 2.98065 4.5923 2.86855C4.71522 2.75658 4.7878 2.70311 4.85468 2.66694C5.22893 2.46456 5.68 2.46456 6.05424 2.66694C6.12113 2.70311 6.19371 2.75658 6.31662 2.86855C6.43967 2.98065 6.60997 3.14838 6.87246 3.41086L7.77991 4.31832C7.83431 4.37272 7.84809 4.38666 7.85869 4.39802C8.16793 4.72958 8.23651 5.21926 8.03025 5.62302C8.02319 5.63685 8.01377 5.65404 7.9764 5.72129L7.97063 5.73168C7.93122 5.80261 7.9034 5.85268 7.87837 5.90122C7.27974 7.06208 7.37518 8.45931 8.1261 9.52799C8.15749 9.57265 8.19242 9.61923 8.24108 9.6841L8.35051 9.83C8.43633 9.94443 8.48611 10.0108 8.53742 10.0764C8.94165 10.5929 9.40713 11.0584 9.92363 11.4626C9.98921 11.5139 10.0562 11.5641 10.1707 11.65L10.3168 11.7596C10.3816 11.8082 10.4274 11.8425 10.472 11.8739C11.5407 12.6248 12.9379 12.7203 14.0988 12.1216C14.1473 12.0966 14.1982 12.0684 14.2691 12.029L14.2787 12.0236C14.346 11.9863 14.3631 11.9768 14.377 11.9698C14.7807 11.7635 15.2704 11.8321 15.602 12.1413C15.6133 12.1519 15.6273 12.1657 15.6817 12.2201L16.5891 13.1276C16.8516 13.3901 17.0194 13.5604 17.1314 13.6834C17.2434 13.8063 17.2969 13.8789 17.3331 13.9458C17.5354 14.32 17.5354 14.7711 17.3331 15.1453C17.2969 15.2122 17.2434 15.2848 17.1314 15.4077C17.0194 15.5308 16.8516 15.7011 16.5891 15.9635C15.8662 16.6865 15.5982 16.9458 15.2748 17.1291C14.544 17.5436 13.4573 17.6028 12.6857 17.2704C12.3422 17.1223 12.0873 16.9248 11.3859 16.3617C10.1413 15.3627 8.68727 14.1119 7.28767 12.7123C5.88806 11.3127 4.63736 9.85873 3.63826 8.61414C3.07521 7.91274 2.87769 7.65784 2.72964 7.31426C2.39718 6.54267 2.45645 5.45606 2.87086 4.72522Z" fill="currentcolor" />
  <path d="M15.7463 4.24662C15.1101 3.61033 14.2378 3.10712 13.3155 3.04933C12.8979 3.02317 12.5382 3.34047 12.512 3.75805C12.4858 4.17563 12.8031 4.53536 13.2207 4.56152C13.6722 4.58981 14.2165 4.85957 14.675 5.318C15.1334 5.77642 15.4032 6.32081 15.4314 6.77224C15.4576 7.18982 15.8173 7.50713 16.2349 7.48096C16.6525 7.45479 16.9698 7.09507 16.9436 6.67749C16.8858 5.75519 16.3826 4.8829 15.7463 4.24662Z" fill="currentcolor" />
  <path d="M13.7945 6.20556C13.3841 5.79518 12.7957 5.47682 12.1437 5.47682C11.7253 5.47682 11.3861 5.816 11.3861 6.2344C11.3861 6.6528 11.7253 6.99197 12.1437 6.99197C12.303 6.99198 12.5255 7.07929 12.7231 7.27693C12.9207 7.47458 13.0081 7.69706 13.0081 7.85631C13.0081 8.27471 13.3472 8.61388 13.7656 8.61388C14.184 8.61388 14.5232 8.2747 14.5232 7.85631C14.5232 7.20438 14.2049 6.61593 13.7945 6.20556Z" fill="currentcolor" />
</svg>
