<svg
  xmlns="http://www.w3.org/2000/svg"
  width="20"
  height="20"
  viewBox="0 0 20 20"
  fill="none"
>
  <path
    fill-rule="evenodd"
    clip-rule="evenodd"
    d="M4.92517 5.58418C4.8266 5.63003 4.70039 5.70212 4.47701 5.83109L4.1093 6.04339C3.97173 6.12281 3.85747 6.18883 3.75938 6.24793C3.85437 6.31189 3.96516 6.38358 4.09856 6.46983L7.33009 8.5593C7.34199 8.56699 7.35396 8.57472 7.366 8.5825C7.57401 8.71684 7.80052 8.86314 7.96849 9.01583C8.17333 9.20203 8.3871 9.48183 8.40171 9.88811C8.41577 10.2793 8.24143 10.5688 8.04952 10.7746C7.89846 10.9365 7.6916 11.0922 7.50934 11.2294C7.49805 11.2379 7.48685 11.2463 7.47577 11.2546C7.14826 11.5015 6.75113 11.768 6.32401 11.9797C5.90351 12.1882 5.40903 12.3661 4.8971 12.3878C4.42412 12.4078 3.93576 12.2936 3.52758 12.1604C3.10937 12.0239 2.71961 11.8486 2.42747 11.7038C2.35719 11.669 2.30273 11.642 2.25559 11.6196C2.2527 11.6182 2.24987 11.6169 2.24711 11.6156C2.20805 11.6374 2.16294 11.6634 2.1048 11.697L1.88096 11.8262C1.79254 11.8773 1.71861 11.92 1.65448 11.9582C1.70029 12.0062 1.75295 12.0603 1.81518 12.1241C2.50468 12.8313 3.45853 13.6926 4.27777 14.0721C4.8007 14.3143 5.14745 14.4086 5.48251 14.4393C5.83728 14.4718 6.22109 14.4383 6.85513 14.3605C7.3786 14.2964 8.047 14.0357 8.65294 13.7411C9.2417 13.4549 9.69971 13.1727 9.7839 13.1201C9.78831 13.1173 9.79489 13.1132 9.80192 13.1088C9.80594 13.1063 9.81012 13.1038 9.81411 13.1014C9.82393 13.0955 9.83431 13.0895 9.84083 13.0857L16.4427 9.27414C17.361 8.74399 18.0714 7.91711 18.4573 6.9295C18.5983 6.56846 18.3682 6.16978 17.985 6.11142C16.9368 5.95177 15.8654 6.15363 14.9472 6.68378L12.8788 7.87793C12.8642 7.88638 12.8495 7.89492 12.8347 7.9035C12.657 8.00653 12.4673 8.11652 12.257 8.17671C12.0112 8.24711 11.7529 8.26276 11.5003 8.22258C11.2844 8.18821 11.0828 8.10194 10.8939 8.02113C10.8782 8.0144 10.8625 8.00771 10.847 8.00108L5.59169 5.76353C5.35436 5.66248 5.22038 5.60616 5.11699 5.57255C5.07079 5.55753 5.04481 5.55194 5.03149 5.54976C5.02521 5.54874 5.02074 5.54844 5.02074 5.54844L5.01926 5.54842L5.01781 5.54862C5.01781 5.54862 5.0134 5.54946 5.00729 5.55123C4.99433 5.555 4.96922 5.56369 4.92517 5.58418ZM3.81032 4.4837C4.1464 4.28813 4.51004 4.07653 4.92851 4.05117C5.34699 4.0258 5.73352 4.19194 6.09076 4.34548C6.12048 4.35825 6.14999 4.37093 6.1793 4.38341L11.4346 6.62097C11.5594 6.67412 11.6298 6.70388 11.6841 6.72403C11.7178 6.73656 11.7324 6.74038 11.7363 6.74125C11.7722 6.74693 11.8089 6.7447 11.8439 6.73472C11.8476 6.73339 11.8617 6.72783 11.8936 6.71133C11.9451 6.68478 12.0113 6.64673 12.1288 6.57889L14.1972 5.38474C15.4104 4.68428 16.8259 4.41759 18.2108 4.62852C19.5443 4.83162 20.3453 6.21898 19.8544 7.47536C19.3446 8.78022 18.4059 9.87273 17.1927 10.5732L10.587 14.387L10.5792 14.3918C10.471 14.4595 9.96342 14.7719 9.30872 15.0902C8.67119 15.4001 7.81822 15.7537 7.03765 15.8494C6.41483 15.9257 5.88124 15.9821 5.34556 15.933C4.79018 15.8821 4.27344 15.7232 3.64737 15.4332C2.5557 14.9276 1.43628 13.8842 0.741203 13.1713C0.731924 13.1618 0.722577 13.1522 0.713177 13.1426C0.552317 12.9778 0.375635 12.7967 0.251774 12.6214C0.10095 12.408 -0.040938 12.1093 0.0112806 11.7311C0.0645024 11.3457 0.291582 11.0952 0.493722 10.933C0.663519 10.7968 0.887614 10.6675 1.09595 10.5474C1.10767 10.5406 1.11935 10.5339 1.13096 10.5272L1.3548 10.3979C1.36081 10.3945 1.36686 10.391 1.37295 10.3875C1.47929 10.326 1.59668 10.2582 1.70411 10.2081C1.82801 10.1504 1.99464 10.0883 2.19872 10.0818C2.41016 10.0751 2.58708 10.1322 2.71251 10.1821C2.82609 10.2272 2.95368 10.2905 3.07436 10.3503C3.08074 10.3535 3.08711 10.3566 3.09346 10.3598C3.3471 10.4855 3.66668 10.6279 3.99294 10.7344C4.32924 10.8442 4.62047 10.8981 4.83378 10.8891C5.05419 10.8798 5.33436 10.7961 5.65784 10.6358C5.9747 10.4787 6.29087 10.2694 6.57296 10.0568C6.62638 10.0165 6.67335 9.98107 6.71536 9.94896C6.65776 9.91085 6.59221 9.86843 6.51564 9.81892L3.2841 7.72946C3.27112 7.72106 3.25813 7.71267 3.24515 7.70428C2.97189 7.5277 2.7006 7.35239 2.50528 7.18059C2.29284 6.99374 2.01458 6.67786 2.02651 6.20427C2.03844 5.73069 2.33226 5.42923 2.55384 5.2533C2.75756 5.09156 3.03733 4.93013 3.31913 4.76753C3.33252 4.7598 3.34591 4.75208 3.3593 4.74435L3.72701 4.53205C3.7546 4.51612 3.78236 4.49997 3.81032 4.4837Z"
    fill="currentColor"
  />
</svg>
