<svg
  xmlns="http://www.w3.org/2000/svg"
  width="20"
  height="20"
  viewBox="0 0 20 20"
  fill="none"
>
  <path
    fill-rule="evenodd"
    clip-rule="evenodd"
    d="M0.0112915 17.246C0.0112915 16.8318 0.347078 16.496 0.761292 16.496L19.2384 16.496C19.6526 16.496 19.9884 16.8318 19.9884 17.246C19.9884 17.6602 19.6526 17.996 19.2384 17.996L0.761291 17.996C0.347078 17.996 0.0112915 17.6602 0.0112915 17.246Z"
    fill="currentColor"
  />
  <path
    fill-rule="evenodd"
    clip-rule="evenodd"
    d="M4.92493 3.53559C4.82635 3.58145 4.70015 3.65353 4.47677 3.7825L4.10906 3.9948C3.97149 4.07423 3.85723 4.14024 3.75913 4.19934C3.85413 4.26331 3.96492 4.335 4.09831 4.42125L7.32985 6.51071C7.34175 6.51841 7.35372 6.52614 7.36575 6.53391C7.57376 6.66826 7.80027 6.81455 7.96824 6.96724C8.17308 7.15344 8.38686 7.43325 8.40147 7.83952C8.41553 8.23067 8.24119 8.52025 8.04927 8.72598C7.89821 8.88792 7.69135 9.04361 7.5091 9.18078C7.49781 9.18928 7.48661 9.19771 7.47553 9.20606C7.14801 9.4529 6.75089 9.71944 6.32377 9.93115C5.90327 10.1396 5.40878 10.3176 4.89686 10.3392C4.42388 10.3592 3.93551 10.245 3.52734 10.1118C3.10912 9.97534 2.71936 9.80001 2.42723 9.65525C2.35695 9.62043 2.30249 9.59347 2.25534 9.57101C2.25245 9.56964 2.24963 9.5683 2.24687 9.56699C2.20781 9.58881 2.16269 9.61483 2.10455 9.6484L1.88072 9.77763C1.79229 9.82869 1.71837 9.8714 1.65424 9.9096C1.70004 9.95766 1.75271 10.0117 1.81493 10.0755C2.50443 10.7827 3.45829 11.6441 4.27753 12.0235C4.80046 12.2657 5.1472 12.36 5.48227 12.3907C5.83703 12.4232 6.22085 12.3897 6.85488 12.312C7.37836 12.2478 8.04676 11.9871 8.65269 11.6925C9.24146 11.4063 9.69946 11.1241 9.78365 11.0715C9.78806 11.0687 9.79464 11.0646 9.80167 11.0602C9.8057 11.0578 9.80987 11.0552 9.81387 11.0528C9.82368 11.0469 9.83407 11.0409 9.84059 11.0372L16.4425 7.22556C17.3607 6.69541 18.0712 5.86853 18.457 4.88092C18.5981 4.51988 18.3679 4.1212 17.9847 4.06283C16.9365 3.90319 15.8652 4.10504 14.9469 4.63519L12.8786 5.82935C12.8639 5.8378 12.8492 5.84634 12.8344 5.85492C12.6567 5.95794 12.467 6.06793 12.2568 6.12813C12.0109 6.19852 11.7526 6.21418 11.5001 6.17399C11.2841 6.13963 11.0825 6.05336 10.8937 5.97255C10.8779 5.96582 10.8623 5.95912 10.8467 5.9525L5.59144 3.71494C5.35412 3.6139 5.22013 3.55758 5.11674 3.52397C5.07055 3.50895 5.04457 3.50335 5.03125 3.50118C5.02497 3.50016 5.02049 3.49986 5.02049 3.49986L5.01902 3.49983L5.01756 3.50003C5.01756 3.50003 5.01315 3.50087 5.00704 3.50265C4.99408 3.50641 4.96897 3.5151 4.92493 3.53559ZM3.81008 2.43511C4.14615 2.23955 4.5098 2.02795 4.92827 2.00258C5.34674 1.97722 5.73328 2.14335 6.09052 2.29689C6.12023 2.30966 6.14975 2.32235 6.17906 2.33483L11.4344 4.57239C11.5592 4.62554 11.6296 4.6553 11.6838 4.67545C11.7175 4.68797 11.7322 4.6918 11.736 4.69267C11.7719 4.69835 11.8087 4.69612 11.8437 4.68614C11.8474 4.68481 11.8614 4.67924 11.8934 4.66274C11.9448 4.63619 12.0111 4.59815 12.1286 4.53031L14.1969 3.33615C15.4101 2.6357 16.8256 2.369 18.2106 2.57994C19.5441 2.78303 20.3451 4.17039 19.8542 5.42678C19.3444 6.73164 18.4057 7.82414 17.1925 8.5246L10.5867 12.3384L10.579 12.3433C10.4707 12.411 9.96318 12.7233 9.30848 13.0416C8.67094 13.3515 7.81797 13.7051 7.0374 13.8008C6.41459 13.8772 5.881 13.9335 5.34531 13.8844C4.78993 13.8335 4.27319 13.6746 3.64712 13.3846C2.55546 12.879 1.43604 11.8356 0.740959 11.1227C0.73168 11.1132 0.722333 11.1036 0.712933 11.094C0.552073 10.9292 0.375391 10.7482 0.25153 10.5728C0.100706 10.3594 -0.0411821 10.0607 0.0110365 9.68253C0.0642582 9.2971 0.291338 9.04662 0.493478 8.88444C0.663275 8.7482 0.887369 8.61896 1.0957 8.4988C1.10743 8.49203 1.1191 8.4853 1.13072 8.47859L1.35455 8.34936C1.36056 8.34589 1.36662 8.3424 1.3727 8.33888C1.47905 8.27744 1.59644 8.20962 1.70386 8.15955C1.82777 8.1018 1.99439 8.03969 2.19847 8.0332C2.40991 8.02648 2.58684 8.08363 2.71227 8.1335C2.82585 8.17866 2.95344 8.24191 3.07411 8.30174C3.0805 8.3049 3.08687 8.30806 3.09321 8.31121C3.34686 8.43689 3.66644 8.57936 3.9927 8.68583C4.32899 8.79558 4.62022 8.84953 4.83354 8.84052C5.05395 8.83121 5.33412 8.74753 5.6576 8.58719C5.97446 8.43013 6.29062 8.22078 6.57272 8.00817C6.62614 7.96791 6.67311 7.93249 6.71512 7.90038C6.65751 7.86227 6.59196 7.81985 6.51539 7.77034L3.28386 5.68087C3.27087 5.67248 3.25789 5.66409 3.24491 5.6557C2.97165 5.47912 2.70036 5.30381 2.50504 5.13201C2.2926 4.94515 2.01433 4.62928 2.02626 4.15569C2.03819 3.6821 2.33201 3.38064 2.55359 3.20472C2.75731 3.04297 3.03708 2.88155 3.31889 2.71895C3.33228 2.71122 3.34567 2.70349 3.35906 2.69576L3.72677 2.48347C3.75436 2.46754 3.78212 2.45138 3.81008 2.43511Z"
    fill="currentColor"
  />
</svg>
