<svg
  xmlns="http://www.w3.org/2000/svg"
  width="20"
  height="20"
  viewBox="0 0 20 20"
  fill="none"
>
  <path
    fill-rule="evenodd"
    clip-rule="evenodd"
    d="M9.00285 2.88945C8.9016 2.85193 8.7626 2.81342 8.51559 2.74623L8.27982 2.6821C8.12771 2.64073 8.00133 2.60639 7.89113 2.57864C7.91288 2.69176 7.9403 2.82162 7.97335 2.97793L8.69252 6.37937C8.69548 6.39336 8.69847 6.40744 8.70147 6.4216C8.75314 6.66539 8.80952 6.93137 8.82 7.16024C8.83282 7.44017 8.7851 7.7921 8.50849 8.09124C8.24293 8.37842 7.91761 8.4598 7.63685 8.46781C7.41705 8.47407 7.1632 8.43541 6.94067 8.40153C6.92678 8.39941 6.913 8.39731 6.89936 8.39524C6.19552 8.28856 5.16853 8.04812 4.50227 7.42661C4.17759 7.12374 3.93136 6.72468 3.75037 6.36669C3.56485 5.99974 3.42278 5.62506 3.32377 5.33099C3.29852 5.25601 3.2789 5.1978 3.26129 5.14804C3.25997 5.14429 3.25867 5.14065 3.25741 5.13711C3.21463 5.12481 3.16463 5.11119 3.10012 5.09364L2.96642 5.05727C2.86928 5.03085 2.78795 5.00876 2.71656 4.99039C2.71528 5.0563 2.7146 5.13117 2.71384 5.21942C2.70581 6.14886 2.77175 7.3184 3.05161 8.09271C3.2358 8.60231 3.40031 8.89298 3.59713 9.13311C3.80649 9.38855 4.07847 9.62064 4.54858 9.99364C4.92964 10.296 5.53532 10.5668 6.12771 10.775C6.7023 10.9769 7.18949 11.0947 7.28263 11.1165L7.28529 11.1171C7.29362 11.1191 7.30623 11.122 7.3172 11.1248C7.32811 11.1276 7.3395 11.1307 7.34667 11.1326L14.2199 13.0022C15.1665 13.2597 16.1713 13.1824 17.0689 12.7832C17.3749 12.6471 17.4776 12.258 17.2797 11.9849C16.6989 11.1835 15.8668 10.6066 14.9202 10.3491L12.7665 9.76333C12.753 9.75967 12.7395 9.756 12.7258 9.75232C12.5623 9.70809 12.3879 9.66096 12.2271 9.57901C11.9572 9.44148 11.7274 9.23482 11.5603 8.97947C11.4607 8.82732 11.3936 8.65731 11.3306 8.49782C11.3253 8.48453 11.3201 8.47132 11.3149 8.45819L9.34436 3.49139C9.24883 3.2506 9.19438 3.11517 9.14546 3.01767C9.12361 2.97411 9.10932 2.95164 9.1015 2.94062C9.09782 2.93542 9.09489 2.93202 9.09489 2.93202L9.09388 2.93096L9.09271 2.93006C9.09271 2.93006 9.08904 2.92752 9.08351 2.92444C9.07178 2.91789 9.04809 2.90621 9.00285 2.88945ZM8.99277 1.31294C9.36547 1.41294 9.76872 1.52113 10.0799 1.80088C10.391 2.08063 10.5455 2.47393 10.6883 2.83742C10.7002 2.86765 10.712 2.89768 10.7238 2.92742L12.6943 7.89422C12.7361 7.99946 12.7597 8.05868 12.7793 8.10288C12.7914 8.13045 12.7975 8.1416 12.7992 8.14442C12.823 8.1808 12.8558 8.21025 12.8943 8.22986C12.8902 8.2278 12.8968 8.23209 12.9371 8.24478C12.9827 8.25914 13.0434 8.2758 13.1514 8.30516L15.3051 8.89098C16.5779 9.23718 17.6967 10.0128 18.4775 11.0903C19.2402 12.1427 18.8446 13.6416 17.6657 14.1659C16.4588 14.7027 15.1078 14.8065 13.835 14.4603L6.9575 12.5896L6.94816 12.5874C6.82757 12.5592 6.28447 12.4276 5.64117 12.2015C5.01567 11.9816 4.21586 11.6456 3.63282 11.1831C3.17153 10.8171 2.77854 10.4946 2.45398 10.0986C2.11688 9.68735 1.87853 9.22969 1.65552 8.6127C1.27472 7.55912 1.21868 6.14683 1.22681 5.20618C1.22692 5.19279 1.22703 5.1793 1.22714 5.16573C1.22902 4.93455 1.23109 4.68005 1.26654 4.46694C1.30983 4.20672 1.41942 3.89316 1.72071 3.6606C2.02817 3.42327 2.36328 3.40604 2.6194 3.43442C2.83423 3.45822 3.0822 3.52579 3.31252 3.58855C3.32551 3.59209 3.33844 3.59561 3.35131 3.59911L3.48501 3.63548C3.49164 3.63728 3.49831 3.63909 3.50501 3.64091C3.62249 3.67283 3.75198 3.70801 3.86206 3.74864C3.98885 3.79543 4.14885 3.86939 4.2963 4.00929C4.44942 4.15456 4.53368 4.3211 4.58674 4.445C4.63502 4.55774 4.68071 4.69352 4.72411 4.82248C4.72639 4.82925 4.72866 4.836 4.73092 4.84272C4.81604 5.0955 4.93161 5.39698 5.07339 5.67739C5.21969 5.96676 5.37041 6.18626 5.50847 6.31505C5.81681 6.60268 6.4387 6.79908 7.11898 6.90219C7.18152 6.91167 7.2368 6.92003 7.28668 6.92727C7.27317 6.86006 7.25719 6.78435 7.23855 6.69617L6.51937 3.29472C6.51615 3.27951 6.51293 3.2643 6.50971 3.24909C6.44194 2.92897 6.37466 2.61115 6.35817 2.3499C6.34023 2.06575 6.3666 1.64294 6.70695 1.31441C7.04731 0.985877 7.46462 0.980439 7.74328 1.01293C7.99948 1.0428 8.30877 1.12702 8.6203 1.21185C8.6351 1.21588 8.64991 1.21991 8.66471 1.22394L8.90048 1.28807C8.93098 1.29636 8.96177 1.30462 8.99277 1.31294Z"
    fill="currentColor"
  />
  <path
    fill-rule="evenodd"
    clip-rule="evenodd"
    d="M1 18.2452C1 17.8283 1.3329 17.4904 1.74355 17.4904L18.2565 17.4904C18.6671 17.4904 19 17.8283 19 18.2452C19 18.6621 18.6671 19 18.2565 19L1.74355 19C1.3329 19 1 18.6621 1 18.2452Z"
    fill="currentColor"
  />
  <path
    d="M6.71601 13.8856C6.71601 14.4414 6.27214 14.892 5.72461 14.892C5.17708 14.892 4.73322 14.4414 4.73322 13.8856C4.73322 13.3298 5.17708 12.8792 5.72461 12.8792C6.27214 12.8792 6.71601 13.3298 6.71601 13.8856Z"
    fill="currentColor"
  />
  <path
    d="M9.34746 14.609C9.34746 15.1648 8.9036 15.6154 8.35607 15.6154C7.80854 15.6154 7.36467 15.1648 7.36467 14.609C7.36467 14.0531 7.80854 13.6025 8.35607 13.6025C8.9036 13.6025 9.34746 14.0531 9.34746 14.609Z"
    fill="currentColor"
  />
</svg>
