<svg
  xmlns="http://www.w3.org/2000/svg"
  width="20"
  height="20"
  viewBox="0 0 20 20"
  fill="none"
>
  <path
    fill-rule="evenodd"
    clip-rule="evenodd"
    d="M0 17.246C0 16.8318 0.335786 16.496 0.75 16.496H11.3167C11.7309 16.496 12.0667 16.8318 12.0667 17.246C12.0667 17.6602 11.7309 17.996 11.3167 17.996H0.75C0.335786 17.996 0 17.6602 0 17.246Z"
    fill="currentColor"
  />
  <path
    fill-rule="evenodd"
    clip-rule="evenodd"
    d="M4.92896 3.53559C4.83038 3.58145 4.70418 3.65353 4.48079 3.7825L4.11308 3.9948C3.97552 4.07423 3.86126 4.14024 3.76316 4.19934C3.85816 4.26331 3.96895 4.335 4.10234 4.42125L7.33388 6.51071C7.34577 6.51841 7.35775 6.52614 7.36978 6.53391C7.57779 6.66826 7.8043 6.81455 7.97227 6.96724C8.17711 7.15344 8.39089 7.43325 8.40549 7.83952C8.41956 8.23067 8.24522 8.52025 8.0533 8.72598C7.90224 8.88792 7.69538 9.04361 7.51313 9.18078C7.50184 9.18928 7.49064 9.19771 7.47956 9.20606C7.15204 9.4529 6.75491 9.71944 6.3278 9.93115C5.9073 10.1396 5.41281 10.3176 4.90088 10.3392C4.42791 10.3592 3.93954 10.245 3.53137 10.1118C3.11315 9.97534 2.72339 9.80001 2.43126 9.65525C2.36098 9.62043 2.30652 9.59347 2.25937 9.57101C2.25648 9.56964 2.25366 9.5683 2.2509 9.56699C2.21184 9.58881 2.16672 9.61483 2.10858 9.6484L1.88475 9.77763C1.79632 9.82869 1.7224 9.8714 1.65827 9.9096C1.70407 9.95766 1.75673 10.0117 1.81896 10.0755C2.50846 10.7827 3.46232 11.6441 4.28155 12.0235C4.80449 12.2657 5.15123 12.36 5.4863 12.3907C5.84106 12.4232 6.22488 12.3897 6.85891 12.312C7.38238 12.2478 8.05079 11.9871 8.65672 11.6925C9.24549 11.4063 9.70349 11.1241 9.78768 11.0715C9.79209 11.0687 9.79867 11.0646 9.8057 11.0602C9.80973 11.0578 9.8139 11.0552 9.81789 11.0528C9.82771 11.0469 9.83809 11.0409 9.84462 11.0372L16.4465 7.22556C17.3647 6.69541 18.0752 5.86853 18.4611 4.88092C18.6021 4.51988 18.372 4.1212 17.9888 4.06283C16.9405 3.90319 15.8692 4.10504 14.9509 4.63519L12.8826 5.82935C12.868 5.8378 12.8532 5.84634 12.8384 5.85492C12.6607 5.95794 12.471 6.06793 12.2608 6.12813C12.015 6.19852 11.7567 6.21418 11.5041 6.17399C11.2881 6.13963 11.0865 6.05336 10.8977 5.97255C10.882 5.96582 10.8663 5.95912 10.8508 5.9525L5.59547 3.71494C5.35815 3.6139 5.22416 3.55758 5.12077 3.52397C5.07458 3.50895 5.0486 3.50335 5.03528 3.50118C5.029 3.50016 5.02452 3.49986 5.02452 3.49986L5.02305 3.49983L5.02159 3.50003C5.02159 3.50003 5.01718 3.50087 5.01107 3.50265C4.99811 3.50641 4.973 3.5151 4.92896 3.53559ZM3.8141 2.43511C4.15018 2.23955 4.51382 2.02795 4.9323 2.00258C5.35077 1.97722 5.73731 2.14335 6.09455 2.29689C6.12426 2.30966 6.15377 2.32235 6.18309 2.33483L11.4384 4.57239C11.5632 4.62554 11.6336 4.6553 11.6879 4.67545C11.7216 4.68797 11.7362 4.6918 11.7401 4.69267C11.776 4.69835 11.8127 4.69612 11.8477 4.68614C11.8514 4.68481 11.8655 4.67924 11.8974 4.66274C11.9488 4.63619 12.0151 4.59815 12.1326 4.53031L14.2009 3.33615C15.4142 2.6357 16.8297 2.369 18.2146 2.57994C19.5481 2.78303 20.3491 4.17039 19.8582 5.42678C19.3484 6.73164 18.4097 7.82414 17.1965 8.5246L10.5907 12.3384L10.583 12.3433C10.4748 12.411 9.96721 12.7233 9.3125 13.0416C8.67497 13.3515 7.822 13.7051 7.04143 13.8008C6.41862 13.8772 5.88503 13.9335 5.34934 13.8844C4.79396 13.8335 4.27722 13.6746 3.65115 13.3846C2.55948 12.879 1.44007 11.8356 0.744987 11.1227C0.735708 11.1132 0.726362 11.1036 0.716961 11.094C0.556101 10.9292 0.379419 10.7482 0.255558 10.5728C0.104734 10.3594 -0.0371538 10.0607 0.0150648 9.68253C0.0682865 9.2971 0.295366 9.04662 0.497506 8.88444C0.667303 8.7482 0.891398 8.61896 1.09973 8.4988C1.11146 8.49203 1.12313 8.4853 1.13475 8.47859L1.35858 8.34936C1.36459 8.34589 1.37064 8.3424 1.37673 8.33888C1.48308 8.27744 1.60047 8.20962 1.70789 8.15955C1.8318 8.1018 1.99842 8.03969 2.2025 8.0332C2.41394 8.02648 2.59087 8.08363 2.71629 8.1335C2.82987 8.17866 2.95747 8.24191 3.07814 8.30174C3.08453 8.3049 3.0909 8.30806 3.09724 8.31121C3.35088 8.43689 3.67047 8.57936 3.99672 8.68583C4.33302 8.79558 4.62425 8.84953 4.83756 8.84052C5.05797 8.83121 5.33815 8.74753 5.66163 8.58719C5.97848 8.43013 6.29465 8.22078 6.57675 8.00817C6.63017 7.96791 6.67713 7.93249 6.71915 7.90038C6.66154 7.86227 6.59599 7.81985 6.51942 7.77034L3.28789 5.68087C3.2749 5.67248 3.26192 5.66409 3.24894 5.6557C2.97568 5.47912 2.70439 5.30381 2.50907 5.13201C2.29663 4.94515 2.01836 4.62928 2.03029 4.15569C2.04222 3.6821 2.33604 3.38064 2.55762 3.20472C2.76134 3.04297 3.04111 2.88155 3.32292 2.71895C3.3363 2.71122 3.3497 2.70349 3.36308 2.69576L3.73079 2.48347C3.75838 2.46754 3.78615 2.45138 3.8141 2.43511Z"
    fill="currentColor"
  />
  <path
    d="M16.6118 11.2536C16.1908 11.2536 15.8495 11.5949 15.8495 12.0159V13.8645H14.001C13.5799 13.8645 13.2386 14.2058 13.2386 14.6268C13.2386 15.0478 13.5799 15.3891 14.001 15.3891H15.8495V17.2376C15.8495 17.6586 16.1908 17.9999 16.6118 17.9999C17.0328 17.9999 17.3741 17.6586 17.3741 17.2376V15.3891H19.2227C19.6437 15.3891 19.985 15.0478 19.985 14.6268C19.985 14.2058 19.6437 13.8645 19.2227 13.8645H17.3741V12.0159C17.3741 11.5949 17.0328 11.2536 16.6118 11.2536Z"
    fill="currentColor"
  />
</svg>
