<svg
  xmlns="http://www.w3.org/2000/svg"
  width="20"
  height="20"
  viewBox="0 0 20 20"
  fill="none"
>
  <path
    fill-rule="evenodd"
    clip-rule="evenodd"
    d="M2.50318 11.8718C2.4997 11.938 2.49947 12.0258 2.49947 12.18C2.49947 12.1824 2.49947 12.1847 2.49947 12.1869C2.50173 12.1865 2.50401 12.1861 2.50631 12.1857L6.67861 11.4082C6.69139 11.4058 6.70422 11.4034 6.71708 11.401C6.95728 11.3561 7.20952 11.309 7.42373 11.2997C7.67007 11.2889 8.00398 11.3191 8.29912 11.5618C8.59426 11.8044 8.68587 12.1242 8.72071 12.3661C8.751 12.5765 8.7509 12.831 8.75082 13.0733C8.75081 13.0862 8.75081 13.0992 8.75081 13.1121L8.75081 14.1683C8.75081 14.1969 8.7509 14.2257 8.75099 14.2548C8.7521 14.6055 8.75329 14.9845 8.59547 15.3305C8.43766 15.6765 8.14982 15.9259 7.88343 16.1568C7.86137 16.1759 7.83946 16.1949 7.81779 16.2138L6.9751 16.9487C6.94489 16.975 6.92063 16.9962 6.89983 17.0146C6.89961 17.0423 6.8996 17.0743 6.8996 17.1142C6.8996 17.235 6.89963 17.3359 6.90096 17.424C6.98519 17.3959 7.08118 17.3623 7.19611 17.3221L9.41743 16.5441C9.42801 16.5404 9.43946 16.5363 9.45173 16.5319C9.57436 16.488 9.77839 16.415 10.0001 16.415C10.2219 16.415 10.4259 16.488 10.5485 16.5319C10.5608 16.5363 10.5722 16.5404 10.5828 16.5441L12.8041 17.3221C12.9191 17.3623 13.0151 17.3959 13.0993 17.424C13.1006 17.3359 13.1006 17.235 13.1006 17.1142C13.1006 17.0743 13.1006 17.0423 13.1004 17.0146C13.0796 16.9962 13.0554 16.975 13.0251 16.9487L12.1825 16.2138C12.1608 16.1949 12.1389 16.1759 12.1168 16.1568C11.8504 15.9259 11.5626 15.6765 11.4048 15.3305C11.247 14.9845 11.2482 14.6055 11.2493 14.2548C11.2494 14.2257 11.2495 14.1969 11.2495 14.1683L11.2495 13.1121C11.2495 13.0992 11.2494 13.0862 11.2494 13.0733C11.2494 12.831 11.2493 12.5765 11.2796 12.3661C11.3144 12.1242 11.406 11.8044 11.7011 11.5618C11.9963 11.3191 12.3302 11.2889 12.5765 11.2997C12.7907 11.309 13.043 11.3561 13.2832 11.401C13.296 11.4034 13.3089 11.4058 13.3217 11.4082L17.4939 12.1857C17.4962 12.1861 17.4985 12.1865 17.5008 12.1869C17.5008 12.1847 17.5008 12.1824 17.5008 12.18C17.5008 12.0258 17.5005 11.938 17.4971 11.8718C17.4949 11.8307 17.4921 11.8135 17.4912 11.8091C17.4792 11.7674 17.4564 11.7296 17.425 11.6994C17.4215 11.6965 17.4076 11.6859 17.3721 11.6646C17.3149 11.6302 17.237 11.5885 17.0999 11.5154L12.34 8.98005C12.3292 8.97427 12.3183 8.96846 12.3073 8.96263C12.1769 8.89341 12.0386 8.81996 11.9171 8.72522C11.5785 8.46116 11.3501 8.0825 11.2757 7.66183C11.249 7.5109 11.2492 7.35535 11.2494 7.20876C11.2494 7.1964 11.2495 7.18411 11.2495 7.1719L11.2495 5.17414C11.2495 4.257 10.9346 3.36717 10.3566 2.651C10.1738 2.42458 9.82642 2.42458 9.64369 2.651C9.0657 3.36717 8.75081 4.257 8.75081 5.17414L8.75081 7.1719C8.75081 7.18412 8.75082 7.19641 8.75084 7.20876C8.75103 7.35536 8.75124 7.5109 8.72456 7.66183C8.65019 8.0825 8.4218 8.46117 8.08317 8.72522C7.96168 8.81996 7.82335 8.89341 7.69299 8.96263C7.682 8.96847 7.67107 8.97427 7.66021 8.98005L2.90032 11.5154C2.76324 11.5885 2.68535 11.6302 2.62814 11.6646C2.59265 11.6859 2.57872 11.6965 2.5752 11.6994C2.54386 11.7296 2.52106 11.7674 2.50907 11.8091C2.50817 11.8135 2.50533 11.8307 2.50318 11.8718ZM2.50935 11.8078L2.50907 11.8091L2.50935 11.8078ZM17.426 11.7002L17.425 11.6994L17.426 11.7002ZM1.0002 12.1215C0.999719 11.8885 0.999202 11.6404 1.06631 11.4052C1.15033 11.1107 1.31147 10.8436 1.53335 10.6308C1.71059 10.4609 1.93137 10.3439 2.13863 10.234C2.15609 10.2248 2.17345 10.2156 2.19069 10.2064L6.95058 7.67101C7.03673 7.62512 7.0857 7.59893 7.12219 7.57794C7.15489 7.55913 7.15982 7.55445 7.15624 7.55724C7.20462 7.51952 7.23725 7.46543 7.24787 7.40533C7.24709 7.40977 7.24891 7.40326 7.25015 7.3658C7.25153 7.324 7.25162 7.26885 7.25162 7.1719L7.25162 5.17414C7.25162 3.91956 7.68237 2.70233 8.47302 1.72266C9.25592 0.752603 10.7443 0.752603 11.5272 1.72266C12.3179 2.70233 12.7486 3.91956 12.7486 5.17414L12.7486 7.1719C12.7486 7.26885 12.7487 7.324 12.7501 7.3658C12.7513 7.40326 12.7532 7.40977 12.7524 7.40533C12.763 7.46543 12.7956 7.51952 12.844 7.55724C12.8404 7.55445 12.8454 7.55913 12.8781 7.57794C12.9146 7.59893 12.9635 7.62512 13.0497 7.67101L17.8096 10.2064C17.8268 10.2156 17.8441 10.2248 17.8616 10.234C18.0689 10.3439 18.2896 10.4609 18.4669 10.6308C18.6888 10.8436 18.8499 11.1107 18.9339 11.4052C19.001 11.6404 19.0005 11.8885 19 12.1215C19 12.1411 19 12.1606 19 12.18L19 12.1993C19 12.3219 19 12.4512 18.9917 12.562C18.9826 12.6835 18.96 12.8507 18.876 13.0234C18.7183 13.3474 18.4264 13.5875 18.076 13.6812C17.8893 13.7311 17.7193 13.7222 17.5971 13.7086C17.4858 13.6963 17.3576 13.6724 17.236 13.6497L13.0447 12.8686C12.9282 12.8469 12.8329 12.8292 12.7501 12.8153C12.7487 12.8985 12.7486 12.9946 12.7486 13.1121L12.7486 14.1683C12.7486 14.4005 12.7492 14.5308 12.7572 14.6282C12.7608 14.6717 12.765 14.6953 12.7678 14.7072C12.769 14.7129 12.7703 14.7169 12.7703 14.7169L12.7708 14.7183L12.7715 14.7195C12.7715 14.7195 12.7737 14.7231 12.7771 14.7278C12.7844 14.7377 12.7995 14.7565 12.8301 14.7878C12.8985 14.8582 12.9968 14.9446 13.1727 15.098L14.0154 15.8329C14.0255 15.8417 14.0366 15.8512 14.0484 15.8614C14.1661 15.9624 14.3626 16.131 14.4766 16.3661C14.485 16.3835 14.493 16.4011 14.5006 16.4188C14.6034 16.6589 14.6013 16.9166 14.6001 17.0708C14.5999 17.0864 14.5998 17.1009 14.5998 17.1142C14.5998 17.1276 14.5998 17.1409 14.5998 17.1543C14.5999 17.4197 14.6 17.6907 14.5689 17.912C14.5342 18.1582 14.4421 18.4998 14.1244 18.7483C14.0901 18.7751 14.0544 18.8002 14.0174 18.8233C13.6752 19.0374 13.3196 19.0097 13.0738 18.9601C12.8531 18.9155 12.5952 18.8251 12.3429 18.7366C12.3301 18.7322 12.3174 18.7277 12.3047 18.7232L10.0834 17.9452C10.0495 17.9334 10.023 17.9241 10.0001 17.9163C9.97726 17.9241 9.9507 17.9334 9.91688 17.9452L7.69556 18.7232C7.68285 18.7277 7.67011 18.7322 7.65737 18.7366C7.40502 18.8251 7.14719 18.9155 6.92641 18.9601C6.68065 19.0097 6.32503 19.0374 5.98283 18.8233C5.94587 18.8002 5.91015 18.7751 5.87583 18.7483C5.55815 18.4998 5.46602 18.1582 5.43137 17.912C5.40025 17.6907 5.40033 17.4197 5.40041 17.1543C5.40041 17.1409 5.40042 17.1276 5.40042 17.1142C5.40042 17.1009 5.4003 17.0864 5.40017 17.0708C5.39893 16.9166 5.39686 16.659 5.49967 16.4188C5.50726 16.4011 5.51527 16.3835 5.52368 16.3661C5.63768 16.131 5.83417 15.9624 5.95184 15.8614C5.96369 15.8512 5.97475 15.8417 5.98484 15.8329L6.82752 15.098C7.00344 14.9446 7.10172 14.8582 7.1702 14.7878C7.20074 14.7565 7.21584 14.7377 7.22312 14.7278C7.22656 14.7231 7.22876 14.7195 7.22876 14.7195L7.22943 14.7183L7.22992 14.7169C7.22992 14.7169 7.23121 14.7129 7.2325 14.7072C7.23522 14.6953 7.23943 14.6717 7.24302 14.6282C7.25105 14.5308 7.25162 14.4005 7.25162 14.1683L7.25162 13.1121C7.25162 12.9946 7.25158 12.8985 7.25013 12.8153C7.16733 12.8292 7.07206 12.8469 6.95559 12.8686L2.78329 13.6461C2.77694 13.6473 2.77056 13.6485 2.76417 13.6497C2.64261 13.6724 2.51443 13.6963 2.4031 13.7087C2.28093 13.7222 2.11098 13.7311 1.92425 13.6812C1.57386 13.5875 1.28189 13.3474 1.12428 13.0234C1.04027 12.8507 1.01769 12.6835 1.00856 12.562C1.00024 12.4512 1.00026 12.3219 1.00028 12.1993C1.00029 12.1929 1.00029 12.1864 1.00029 12.18C1.00029 12.1606 1.00025 12.1411 1.0002 12.1215Z"
    fill="currentColor"
  />
</svg>
