<svg
  xmlns="http://www.w3.org/2000/svg"
  width="20"
  height="20"
  viewBox="0 0 20 20"
  fill="none"
>
  <path
    fill-rule="evenodd"
    clip-rule="evenodd"
    d="M8.12346 2.49817C8.05723 2.4947 7.96946 2.49447 7.8152 2.49447C7.81288 2.49447 7.81059 2.49447 7.80831 2.49447C7.80873 2.49673 7.80915 2.49901 7.80958 2.5013L8.58708 6.67361C8.58946 6.68639 8.59185 6.69922 8.59426 6.71208C8.6391 6.95228 8.6862 7.20452 8.69557 7.41872C8.70634 7.66507 8.67616 7.99898 8.43347 8.29411C8.19079 8.58925 7.87108 8.68087 7.6291 8.7157C7.41869 8.74599 7.16426 8.7459 6.92198 8.74581C6.90901 8.74581 6.89607 8.7458 6.88318 8.7458H5.82697C5.79835 8.7458 5.7695 8.74589 5.74046 8.74599C5.38972 8.74709 5.01073 8.74828 4.66475 8.59047C4.31876 8.43266 4.06932 8.14482 3.83846 7.87842C3.81935 7.85637 3.80036 7.83446 3.78146 7.81278L3.04657 6.9701C3.02022 6.93988 2.99905 6.91563 2.98062 6.89482C2.95297 6.89461 2.92094 6.8946 2.88105 6.8946C2.76022 6.8946 2.65931 6.89463 2.57123 6.89595C2.59934 6.98018 2.63292 7.07618 2.67317 7.1911L3.45117 9.41243C3.45487 9.423 3.45897 9.43446 3.46336 9.44672C3.50723 9.56936 3.58022 9.77338 3.58022 9.99512C3.58022 10.2169 3.50723 10.4209 3.46336 10.5435C3.45897 10.5558 3.45487 10.5672 3.45117 10.5778L2.67317 12.7991C2.63292 12.9141 2.59934 13.0101 2.57123 13.0943C2.65931 13.0956 2.76022 13.0956 2.88105 13.0956C2.92094 13.0956 2.95297 13.0956 2.98063 13.0954C2.99906 13.0746 3.02022 13.0504 3.04657 13.0201L3.78146 12.1775C3.80036 12.1558 3.81935 12.1339 3.83847 12.1118C4.06932 11.8454 4.31877 11.5576 4.66475 11.3998C5.01073 11.242 5.38971 11.2432 5.74046 11.2443C5.7695 11.2444 5.79835 11.2444 5.82696 11.2444H6.88318C6.89607 11.2444 6.909 11.2444 6.92197 11.2444C7.16426 11.2444 7.41869 11.2443 7.6291 11.2745C7.87108 11.3094 8.19079 11.401 8.43347 11.6961C8.67616 11.9913 8.70634 12.3252 8.69557 12.5715C8.6862 12.7857 8.6391 13.038 8.59425 13.2782C8.59185 13.291 8.58946 13.3039 8.58708 13.3166L7.80958 17.4889C7.80915 17.4912 7.80873 17.4935 7.80831 17.4958C7.81059 17.4958 7.81288 17.4958 7.8152 17.4958C7.96946 17.4958 8.05724 17.4955 8.12346 17.4921C8.16454 17.4899 8.18173 17.4871 8.18617 17.4862C8.22782 17.4742 8.26563 17.4514 8.29582 17.42C8.2987 17.4165 8.30932 17.4026 8.33064 17.3671C8.36502 17.3099 8.40677 17.232 8.47979 17.0949L11.0152 12.335C11.021 12.3242 11.0268 12.3132 11.0326 12.3023C11.1018 12.1719 11.1753 12.0336 11.27 11.9121C11.5341 11.5735 11.9127 11.3451 12.3334 11.2707C12.4843 11.244 12.6399 11.2442 12.7865 11.2444C12.7988 11.2444 12.8111 11.2444 12.8233 11.2444H14.8211C15.7382 11.2444 16.6281 10.9296 17.3442 10.3516C17.5707 10.1688 17.5707 9.82142 17.3442 9.63868C16.6281 9.06069 15.7382 8.7458 14.8211 8.7458H12.8233C12.8111 8.7458 12.7988 8.74582 12.7865 8.74584C12.6399 8.74603 12.4843 8.74623 12.3334 8.71955C11.9127 8.64519 11.5341 8.41679 11.27 8.07816C11.1753 7.95667 11.1018 7.81835 11.0326 7.68799C11.0268 7.677 11.021 7.66607 11.0152 7.65521L8.47979 2.89532C8.40677 2.75823 8.36502 2.68034 8.33064 2.62313C8.30931 2.58765 8.2987 2.57371 8.29582 2.5702C8.26563 2.53886 8.22782 2.51605 8.18617 2.50406C8.18173 2.50317 8.16454 2.50033 8.12346 2.49817ZM8.18739 2.50434L8.18617 2.50406L8.18739 2.50434ZM8.29499 17.421L8.29582 17.42L8.29499 17.421ZM7.87373 0.9952C8.10671 0.994715 8.35487 0.994198 8.59007 1.06131C8.88451 1.14533 9.15166 1.30646 9.3644 1.52835C9.53433 1.70559 9.65134 1.92636 9.7612 2.13363C9.77045 2.15109 9.77965 2.16845 9.78883 2.18568L12.3242 6.94557C12.3701 7.03173 12.3963 7.0807 12.4173 7.11719C12.4361 7.14989 12.4408 7.15482 12.438 7.15124C12.4757 7.19962 12.5298 7.23224 12.5899 7.24287C12.5855 7.24208 12.592 7.24391 12.6294 7.24514C12.6712 7.24652 12.7264 7.24662 12.8233 7.24662H14.8211C16.0757 7.24662 17.2929 7.67737 18.2726 8.46802C19.2426 9.25091 19.2426 10.7393 18.2726 11.5222C17.2929 12.3129 16.0757 12.7436 14.8211 12.7436H12.8233C12.7264 12.7436 12.6712 12.7437 12.6294 12.7451C12.592 12.7463 12.5855 12.7482 12.5899 12.7474C12.5298 12.758 12.4757 12.7906 12.438 12.839C12.4408 12.8354 12.4361 12.8404 12.4173 12.8731C12.3963 12.9095 12.3701 12.9585 12.3242 13.0447L9.78883 17.8046C9.77966 17.8218 9.77046 17.8391 9.7612 17.8566C9.65135 18.0639 9.53433 18.2846 9.3644 18.4619C9.15166 18.6838 8.88451 18.8449 8.59007 18.9289C8.35487 18.996 8.10671 18.9955 7.87373 18.995C7.85411 18.995 7.83459 18.995 7.8152 18.995L7.7959 18.995C7.6733 18.995 7.54401 18.995 7.43328 18.9867C7.31175 18.9776 7.14455 18.955 6.97186 18.871C6.64783 18.7133 6.40776 18.4214 6.31407 18.071C6.26414 17.8843 6.27303 17.7143 6.28659 17.5921C6.29894 17.4808 6.32286 17.3526 6.34554 17.231L7.12659 13.0397C7.14829 12.9232 7.16601 12.8279 7.17997 12.7451C7.09674 12.7437 7.00064 12.7436 6.88318 12.7436H5.82696C5.5947 12.7436 5.46445 12.7442 5.36704 12.7522C5.32359 12.7558 5.29998 12.76 5.28799 12.7628C5.28233 12.764 5.2783 12.7653 5.2783 12.7653L5.27699 12.7658L5.27575 12.7665C5.27575 12.7665 5.27214 12.7687 5.26743 12.7721C5.25749 12.7794 5.23876 12.7945 5.20739 12.8251C5.13707 12.8935 5.05061 12.9918 4.89719 13.1677L4.1623 14.0104C4.1535 14.0205 4.14401 14.0316 4.13384 14.0434C4.03286 14.1611 3.86424 14.3576 3.62909 14.4716C3.61173 14.48 3.59418 14.488 3.57645 14.4956C3.33629 14.5984 3.07868 14.5963 2.92441 14.5951C2.90886 14.5949 2.89437 14.5948 2.88105 14.5948C2.86768 14.5948 2.8543 14.5948 2.8409 14.5948C2.57557 14.5949 2.30449 14.595 2.08328 14.5639C1.83705 14.5292 1.49545 14.4371 1.24696 14.1194C1.22011 14.0851 1.19508 14.0494 1.17195 14.0124C0.95781 13.6702 0.98551 13.3146 1.03516 13.0688C1.07976 12.848 1.17015 12.5902 1.25862 12.3379C1.26308 12.3251 1.26755 12.3124 1.272 12.2997L2.04999 10.0784C2.06184 10.0445 2.07113 10.018 2.07894 9.99512C2.07113 9.97226 2.06184 9.9457 2.04999 9.91188L1.272 7.69055C1.26755 7.67784 1.26308 7.66511 1.25861 7.65237C1.17015 7.40002 1.07976 7.14219 1.03516 6.9214C0.98551 6.67565 0.95781 6.32003 1.17194 5.97783C1.19508 5.94086 1.22012 5.90515 1.24696 5.87083C1.49545 5.55314 1.83705 5.46102 2.08328 5.42637C2.30449 5.39524 2.57557 5.39532 2.8409 5.3954C2.8543 5.39541 2.86768 5.39541 2.88105 5.39541C2.89437 5.39541 2.90886 5.39529 2.9244 5.39517C3.07868 5.39393 3.33629 5.39186 3.57645 5.49467C3.59418 5.50226 3.61173 5.51026 3.62909 5.51868C3.86424 5.63267 4.03286 5.82916 4.13384 5.94683C4.14402 5.95869 4.1535 5.96974 4.1623 5.97983L4.89719 6.82252C5.05061 6.99844 5.13708 7.09672 5.2074 7.16519C5.23876 7.19574 5.25749 7.21084 5.26743 7.21811C5.27214 7.22156 5.27575 7.22375 5.27575 7.22375L5.27699 7.22443L5.27831 7.22492C5.27831 7.22492 5.28233 7.22621 5.288 7.22749C5.29998 7.23022 5.32359 7.23443 5.36704 7.23801C5.46445 7.24604 5.59471 7.24662 5.82697 7.24662H6.88318C7.00064 7.24662 7.09674 7.24658 7.17997 7.24512C7.16601 7.16233 7.14829 7.06705 7.12659 6.95059L6.34909 2.77829C6.34791 2.77193 6.34672 2.76556 6.34553 2.75916C6.32285 2.63761 6.29894 2.50942 6.28659 2.3981C6.27303 2.27592 6.26414 2.10597 6.31407 1.91924C6.40776 1.56886 6.64783 1.27689 6.97186 1.11927C7.14455 1.03527 7.31175 1.01268 7.43328 1.00355C7.54402 0.995232 7.67332 0.995256 7.79593 0.995279C7.80237 0.99528 7.8088 0.995282 7.8152 0.995282C7.83459 0.995282 7.85411 0.995241 7.87373 0.9952Z"
    fill="currentColor"
  />
</svg>
