<svg
  xmlns="http://www.w3.org/2000/svg"
  width="20"
  height="20"
  viewBox="0 0 20 20"
  fill="none"
>
  <path
    fill-rule="evenodd"
    clip-rule="evenodd"
    d="M8.77676 4.58183C8.67551 4.54431 8.53651 4.5058 8.2895 4.43861L8.05373 4.37448C7.90162 4.33311 7.77524 4.29877 7.66504 4.27103C7.68679 4.38415 7.71421 4.514 7.74726 4.67031L8.46643 8.07176C8.46939 8.08575 8.47238 8.09983 8.47538 8.11398C8.52705 8.35778 8.58343 8.62376 8.59391 8.85262C8.60673 9.13256 8.55901 9.48449 8.2824 9.78362C8.01684 10.0708 7.69152 10.1522 7.41076 10.1602C7.19096 10.1665 6.93711 10.1278 6.71458 10.0939C6.70069 10.0918 6.68691 10.0897 6.67327 10.0876C5.96943 9.98094 4.94244 9.74051 4.27618 9.119C3.9515 8.81612 3.70527 8.41706 3.52428 8.05907C3.33876 7.69213 3.19669 7.31744 3.09768 7.02338C3.07243 6.94839 3.05281 6.89018 3.0352 6.84042C3.03388 6.83667 3.03258 6.83303 3.03132 6.82949C2.98854 6.81719 2.93854 6.80357 2.87403 6.78602L2.74033 6.74966C2.64319 6.72323 2.56186 6.70115 2.49047 6.68277C2.48919 6.74868 2.48851 6.82355 2.48775 6.9118C2.47972 7.84124 2.54566 9.01079 2.82552 9.78509C3.00971 10.2947 3.17422 10.5854 3.37104 10.8255C3.5804 11.0809 3.85238 11.313 4.32249 11.686C4.70355 11.9884 5.30923 12.2591 5.90162 12.4674C6.47621 12.6693 6.9634 12.7871 7.05654 12.8089L7.0592 12.8095C7.06753 12.8115 7.08014 12.8144 7.09111 12.8172C7.10202 12.8199 7.11341 12.823 7.12058 12.825L13.9938 14.6946C14.9404 14.952 15.9452 14.8748 16.8428 14.4756C17.1488 14.3395 17.2515 13.9504 17.0536 13.6773C16.4728 12.8759 15.6407 12.299 14.6941 12.0415L12.5404 11.4557C12.5269 11.452 12.5134 11.4484 12.4998 11.4447C12.3362 11.4005 12.1618 11.3533 12.001 11.2714C11.7311 11.1339 11.5013 10.9272 11.3342 10.6719C11.2346 10.5197 11.1675 10.3497 11.1045 10.1902C11.0992 10.1769 11.094 10.1637 11.0888 10.1506L9.11827 5.18378C9.02274 4.94298 8.96829 4.80755 8.91937 4.71006C8.89752 4.66649 8.88323 4.64403 8.87541 4.633C8.87173 4.6278 8.8688 4.62441 8.8688 4.62441L8.86779 4.62334L8.86662 4.62244C8.86662 4.62244 8.86295 4.61991 8.85742 4.61682C8.84569 4.61028 8.822 4.59859 8.77676 4.58183ZM8.76668 3.00533C9.13938 3.10532 9.54263 3.21351 9.85377 3.49326C10.1649 3.77301 10.3194 4.16631 10.4622 4.5298C10.4741 4.56004 10.4859 4.59006 10.4977 4.61981L12.4682 9.5866C12.51 9.69184 12.5336 9.75106 12.5532 9.79526C12.5654 9.82283 12.5714 9.83398 12.5731 9.83681C12.5969 9.87319 12.6297 9.90263 12.6682 9.92224C12.6641 9.92018 12.6707 9.92448 12.711 9.93716C12.7566 9.95152 12.8173 9.96818 12.9253 9.99755L15.079 10.5834C16.3518 10.9296 17.4706 11.7052 18.2514 12.7827C19.0141 13.8351 18.6185 15.334 17.4396 15.8583C16.2327 16.3951 14.8817 16.4989 13.6089 16.1527L6.73141 14.282L6.72207 14.2798C6.60148 14.2516 6.05838 14.12 5.41508 13.8939C4.78958 13.674 3.98977 13.338 3.40673 12.8754C2.94544 12.5094 2.55245 12.187 2.22789 11.791C1.89079 11.3797 1.65244 10.9221 1.42943 10.3051C1.04863 9.2515 0.992591 7.83922 1.00072 6.89857C1.00083 6.88517 1.00094 6.87169 1.00105 6.85812C1.00293 6.62694 1.005 6.37243 1.04045 6.15932C1.08374 5.8991 1.19333 5.58554 1.49462 5.35298C1.80208 5.11565 2.13719 5.09843 2.39331 5.1268C2.60814 5.1506 2.85611 5.21817 3.08643 5.28093C3.09942 5.28447 3.11235 5.28799 3.12522 5.29149L3.25892 5.32786C3.26555 5.32966 3.27222 5.33147 3.27893 5.3333C3.3964 5.36521 3.52589 5.4004 3.63597 5.44102C3.76277 5.48782 3.92276 5.56178 4.07021 5.70167C4.22333 5.84695 4.30759 6.01348 4.36065 6.13738C4.40894 6.25012 4.45463 6.38591 4.49802 6.51486C4.5003 6.52163 4.50257 6.52838 4.50483 6.53511C4.58995 6.78789 4.70552 7.08936 4.8473 7.36977C4.9936 7.65915 5.14432 7.87865 5.28238 8.00744C5.59072 8.29506 6.21262 8.49146 6.89289 8.59458C6.95543 8.60406 7.01071 8.61242 7.06059 8.61966C7.04708 8.55244 7.0311 8.47673 7.01246 8.38855L6.29328 4.98711C6.29006 4.97189 6.28684 4.95668 6.28362 4.94147C6.21585 4.62135 6.14857 4.30354 6.13208 4.04229C6.11414 3.75813 6.14051 3.33532 6.48086 3.00679C6.82122 2.67826 7.23853 2.67282 7.51719 2.70531C7.77339 2.73518 8.08268 2.8194 8.39421 2.90423C8.40901 2.90826 8.42382 2.91229 8.43862 2.91632L8.67439 2.98045C8.70489 2.98875 8.73568 2.99701 8.76668 3.00533Z"
    fill="currentColor"
  />
  <path
    d="M6.48992 15.578C6.48992 16.1338 6.04605 16.5844 5.49852 16.5844C4.95099 16.5844 4.50713 16.1338 4.50713 15.578C4.50713 15.0222 4.95099 14.5716 5.49852 14.5716C6.04605 14.5716 6.48992 15.0222 6.48992 15.578Z"
    fill="currentColor"
  />
  <path
    d="M9.12137 16.3013C9.12137 16.8572 8.67751 17.3077 8.12998 17.3077C7.58245 17.3077 7.13858 16.8572 7.13858 16.3013C7.13858 15.7455 7.58245 15.2949 8.12998 15.2949C8.67751 15.2949 9.12137 15.7455 9.12137 16.3013Z"
    fill="currentColor"
  />
</svg>
