<svg
  xmlns="http://www.w3.org/2000/svg"
  width="20"
  height="20"
  viewBox="0 0 20 20"
  fill="none"
>
  <path
    fill-rule="evenodd"
    clip-rule="evenodd"
    d="M17.5817 3.47886C19.3007 5.59775 19.1745 8.71678 17.2033 10.6889C16.3665 11.5261 15.0097 11.5261 14.1729 10.6889L9.31423 5.82801C8.47741 4.99081 8.47741 3.63344 9.31423 2.79624C11.2855 0.824096 14.4031 0.697918 16.5211 2.41771L17.7185 1.21977C18.0114 0.926743 18.4862 0.926744 18.7791 1.21977C19.072 1.5128 19.072 1.98788 18.7791 2.28091L17.5817 3.47886ZM16.0132 3.99057L16.0114 3.98879L16.0096 3.98701L15.88 3.85737C14.3598 2.33649 11.8951 2.33649 10.3749 3.85738C10.1239 4.10853 10.1239 4.51572 10.3749 4.76687L15.2336 9.62775C15.4846 9.8789 15.8916 9.8789 16.1427 9.62775C17.6629 8.10686 17.6629 5.64102 16.1427 4.12013L16.0132 3.99057Z"
    fill="currentColor"
  />
  <path
    fill-rule="evenodd"
    clip-rule="evenodd"
    d="M8.25526 9.38699C8.54815 9.09396 8.54815 8.61887 8.25526 8.32585C7.96236 8.03282 7.48749 8.03282 7.1946 8.32585L6.01784 9.50314L5.82594 9.31116C4.98912 8.47396 3.63237 8.47396 2.79554 9.31116C0.82434 11.2833 0.698182 14.4022 2.41708 16.5211L1.21967 17.7191C0.926777 18.0121 0.926777 18.4872 1.21967 18.7802C1.51256 19.0733 1.98744 19.0733 2.28033 18.7802L3.47772 17.5823C5.59566 19.3021 8.71336 19.176 10.6846 17.2038C11.5214 16.3666 11.5215 15.0092 10.6846 14.172L10.4927 13.9801L11.6694 12.8028C11.9623 12.5098 11.9623 12.0347 11.6694 11.7417C11.3765 11.4487 10.9017 11.4487 10.6088 11.7417L9.43208 12.9189L7.0785 10.5643L8.25526 9.38699ZM3.98744 16.0112L3.98565 16.0094L3.8562 15.8799C2.336 14.359 2.33601 11.8932 3.8562 10.3723C4.10724 10.1212 4.51425 10.1212 4.76528 10.3723L5.48374 11.0911L5.48749 11.0949L5.49127 11.0986L8.89279 14.5017L8.90168 14.5107L8.91071 14.5196L9.62397 15.2332C9.875 15.4843 9.875 15.8915 9.62397 16.1427C8.10377 17.6636 5.63904 17.6636 4.11884 16.1427L3.98921 16.013L3.98744 16.0112Z"
    fill="currentColor"
  />
</svg>
