<svg width="20" height="20" viewBox="0 0 20 20" fill="currentcolor" xmlns="http://www.w3.org/2000/svg">
  <path d="M14.6153 9.07704C15.1251 9.07704 15.5384 8.66377 15.5384 8.15398C15.5384 7.64419 15.1251 7.23091 14.6153 7.23091C14.1055 7.23091 13.6923 7.64419 13.6923 8.15398C13.6923 8.66377 14.1055 9.07704 14.6153 9.07704Z" fill="currentcolor" />
  <path fill-rule="evenodd" d="M13.5849 0.999838C13.8188 0.999346 14.0703 0.998817 14.3156 1.0709L14.3431 1.07922C14.5872 1.15532 14.7962 1.29528 14.9905 1.42541L15.0379 1.45709L15.0601 1.47192C15.2528 1.60033 15.4363 1.72269 15.5838 1.84159C15.7486 1.97442 15.9093 2.13404 16.0315 2.35495C16.0392 2.36894 16.0468 2.38304 16.0541 2.39724C16.1702 2.62141 16.2138 2.84365 16.2329 3.05446C16.2501 3.24312 16.25 3.46371 16.25 3.69523L16.25 4.76419C16.8017 4.84642 17.2953 5.00599 17.7285 5.33835C17.9538 5.51125 18.1555 5.71294 18.3284 5.93827C18.7036 6.42723 18.8586 6.99322 18.9307 7.63293C19 8.2479 19 9.01613 19 9.95585L19 11.8658C19 12.0666 19.0001 12.2105 18.99 12.3384C18.871 13.8501 17.7259 15.0669 16.2482 15.2951C16.2444 15.752 16.2322 16.1514 16.1936 16.4939C16.1344 17.0191 16.0053 17.5025 15.6817 17.9242C15.5354 18.1148 15.3648 18.2855 15.1741 18.4318C14.7525 18.7553 14.269 18.8845 13.7439 18.9437C13.2434 19.0001 12.6215 19.0001 11.8761 19.0001H8.12386C7.37848 19.0001 6.75662 19.0001 6.25614 18.9437C5.731 18.8845 5.24754 18.7553 4.82591 18.4318C4.63524 18.2855 4.46458 18.1148 4.31828 17.9242C3.99475 17.5025 3.86559 17.0191 3.80638 16.4939C3.76777 16.1514 3.75559 15.752 3.75176 15.2951C2.27407 15.0669 1.129 13.8501 1.01002 12.3384C0.999956 12.2105 0.999975 12.0666 1 11.8658L1.00001 9.95587C0.999988 9.01614 0.999975 8.2479 1.0693 7.63293C1.14142 6.99322 1.29642 6.42723 1.67161 5.93827C1.84451 5.71294 2.0462 5.51125 2.27153 5.33835C2.70467 5.00599 3.19827 4.84642 3.75 4.76419L3.75 4.70055C3.74996 4.03568 3.74993 3.46282 3.81161 3.00407C3.87771 2.51244 4.02677 2.04117 4.40901 1.65893C4.79126 1.27668 5.26252 1.12762 5.75416 1.06152C6.2129 0.999846 6.78577 0.999879 7.45063 0.999916L13.5279 0.999918L13.5849 0.999838ZM13.8318 2.50381C13.7673 2.50019 13.682 2.49992 13.5279 2.49992H7.5C6.77169 2.49992 6.30091 2.50151 5.95403 2.54815C5.62873 2.59188 5.52677 2.66249 5.46967 2.71959C5.41258 2.77668 5.34197 2.87864 5.29823 3.20395C5.2534 3.53741 5.25019 3.98539 5.25001 4.66658H14.75V3.72202C14.75 3.45413 14.7493 3.30262 14.7391 3.18991C14.7345 3.13946 14.7291 3.11231 14.7257 3.09871C14.7241 3.09231 14.7225 3.08803 14.7225 3.08803L14.722 3.08684L14.7188 3.08079L14.7181 3.07972C14.7181 3.07972 14.7154 3.07606 14.7109 3.07116C14.7015 3.06075 14.6819 3.04121 14.6425 3.00943C14.5544 2.9384 14.4287 2.85377 14.2058 2.70517C14.0776 2.61971 14.0065 2.57261 13.9508 2.53985C13.9261 2.5253 13.9118 2.51805 13.9041 2.51447L13.8976 2.5116L13.8966 2.51125L13.8927 2.51006L13.8917 2.50982L13.8847 2.50858C13.8763 2.50731 13.8604 2.50542 13.8318 2.50381ZM3.75287 13.7615C3.75774 13.3503 3.77091 12.9876 3.80638 12.6729C3.86559 12.1477 3.99475 11.6643 4.31828 11.2427C4.46458 11.052 4.63524 10.8813 4.82591 10.735C5.24754 10.4115 5.731 10.2823 6.25614 10.2231C6.75661 10.1667 7.37846 10.1667 8.12384 10.1667H11.8762C12.6215 10.1667 13.2434 10.1667 13.7439 10.2231C14.269 10.2823 14.7525 10.4115 15.1741 10.735C15.3648 10.8813 15.5354 11.052 15.6817 11.2427C16.0053 11.6643 16.1344 12.1477 16.1936 12.6729C16.2291 12.9876 16.2423 13.3503 16.2471 13.7615C16.9297 13.5597 17.4368 12.9548 17.4946 12.2207C17.4994 12.1596 17.5 12.0798 17.5 11.8334V10.0001C17.5 9.00532 17.4989 8.32202 17.4401 7.80097C17.3831 7.29503 17.2798 7.03573 17.1384 6.85142C17.0453 6.73009 16.9367 6.62148 16.8153 6.52838C16.631 6.38695 16.3717 6.28364 15.8658 6.2266C15.3447 6.16786 14.6614 6.16675 13.6667 6.16675H6.33334C5.33857 6.16675 4.65527 6.16786 4.13422 6.2266C3.62829 6.28364 3.36899 6.38695 3.18467 6.52838C3.06334 6.62148 2.95474 6.73009 2.86164 6.85142C2.72021 7.03573 2.6169 7.29503 2.55986 7.80097C2.50112 8.32202 2.50001 9.00532 2.50001 10.0001V11.8334C2.50001 12.0798 2.50059 12.1596 2.5054 12.2207C2.56317 12.9548 3.07028 13.5597 3.75287 13.7615ZM5.73905 11.9251C5.85604 11.8353 6.03281 11.7578 6.42418 11.7137C6.83066 11.6679 7.36737 11.6667 8.16667 11.6667H11.8333C12.6326 11.6667 13.1693 11.6679 13.5758 11.7137C13.9672 11.7578 14.144 11.8353 14.261 11.9251C14.3476 11.9916 14.4252 12.0691 14.4917 12.1558C14.5815 12.2728 14.6589 12.4496 14.7031 12.8409C14.7489 13.2474 14.75 13.7841 14.75 14.5834C14.75 15.3827 14.7489 15.9194 14.7031 16.3259C14.6589 16.7173 14.5815 16.894 14.4917 17.011C14.4252 17.0977 14.3476 17.1753 14.261 17.2418C14.144 17.3315 13.9672 17.409 13.5758 17.4531C13.1693 17.499 12.6326 17.5001 11.8333 17.5001H8.16667C7.36737 17.5001 6.83066 17.499 6.42418 17.4531C6.03281 17.409 5.85604 17.3315 5.73905 17.2418C5.65238 17.1753 5.57481 17.0977 5.50831 17.011C5.41854 16.894 5.34106 16.7173 5.29694 16.3259C5.25112 15.9194 5.25 15.3827 5.25 14.5834C5.25 13.7841 5.25112 13.2474 5.29694 12.8409C5.34106 12.4496 5.41854 12.2728 5.50831 12.1558C5.57481 12.0691 5.65238 11.9916 5.73905 11.9251Z" fill="currentcolor" />
  <path fill-rule="evenodd" d="M6.25 13.5C6.25 13.0858 6.58579 12.75 7 12.75H11.4219C11.8361 12.75 12.1719 13.0858 12.1719 13.5C12.1719 13.9142 11.8361 14.25 11.4219 14.25H7C6.58579 14.25 6.25 13.9142 6.25 13.5Z" fill="currentcolor" />
  <path fill-rule="evenodd" d="M6.25 15.75C6.25 15.3358 6.58579 15 7 15H10C10.4142 15 10.75 15.3358 10.75 15.75C10.75 16.1642 10.4142 16.5 10 16.5H7C6.58579 16.5 6.25 16.1642 6.25 15.75Z" fill="currentcolor" />
</svg>
