<svg
  xmlns="http://www.w3.org/2000/svg"
  width="20"
  height="20"
  viewBox="0 0 20 20"
  fill="none"
>
  <path
    fill-rule="evenodd"
    clip-rule="evenodd"
    d="M3.11023 1.00001C2.81495 0.999941 2.52336 0.999876 2.28199 1.03222C2.0082 1.0689 1.6898 1.15907 1.42471 1.42324C1.15962 1.68742 1.06914 2.00472 1.03233 2.27757C0.999876 2.51811 0.99994 2.80869 1.00001 3.10295V4.87638C0.99994 5.17064 0.999876 5.46123 1.03233 5.70177C1.06914 5.97461 1.15962 6.29192 1.42471 6.55609C1.6898 6.82027 2.0082 6.91044 2.28199 6.94712C2.52336 6.97946 2.81495 6.97939 3.11022 6.97933H4.88979C5.18507 6.97939 5.47666 6.97946 5.71804 6.94712C5.99182 6.91044 6.31023 6.82027 6.57532 6.55609C6.84041 6.29192 6.93089 5.97461 6.9677 5.70177C7.00015 5.46123 7.00008 5.17065 7.00002 4.87639V3.10295C7.00008 2.8087 7.00015 2.51811 6.9677 2.27757C6.93089 2.00472 6.84041 1.68742 6.57532 1.42324C6.31023 1.15907 5.99182 1.0689 5.71804 1.03222C5.47666 0.999876 5.18507 0.999941 4.8898 1.00001H3.11023ZM2.50001 3.1426C2.50001 2.82144 2.50135 2.63727 2.51498 2.50976C2.64294 2.49618 2.82774 2.49484 3.15001 2.49484H4.85001C5.17229 2.49484 5.35709 2.49618 5.48504 2.50976C5.49867 2.63727 5.50001 2.82144 5.50001 3.1426V4.83674C5.50001 5.1579 5.49867 5.34206 5.48504 5.46958C5.35709 5.48316 5.17229 5.4845 4.85001 5.4845H3.15001C2.82774 5.4845 2.64294 5.48316 2.51498 5.46958C2.50135 5.34206 2.50001 5.1579 2.50001 4.83674V3.1426Z"
    fill="currentColor"
  />
  <path
    fill-rule="evenodd"
    clip-rule="evenodd"
    d="M3.11023 13.0207C2.81495 13.0206 2.52336 13.0205 2.28199 13.0529C2.0082 13.0896 1.6898 13.1797 1.42471 13.4439C1.15962 13.7081 1.06914 14.0254 1.03233 14.2982C0.999876 14.5388 0.99994 14.8294 1.00001 15.1236V16.897C0.99994 17.1913 0.999876 17.4819 1.03233 17.7224C1.06914 17.9953 1.15962 18.3126 1.42471 18.5768C1.6898 18.8409 2.0082 18.9311 2.28199 18.9678C2.52336 19.0001 2.81495 19.0001 3.11023 19H4.88979C5.18507 19.0001 5.47666 19.0001 5.71804 18.9678C5.99182 18.9311 6.31023 18.8409 6.57532 18.5768C6.84041 18.3126 6.93089 17.9953 6.9677 17.7224C7.00015 17.4819 7.00008 17.1913 7.00002 16.8971V15.1236C7.00008 14.8294 7.00015 14.5388 6.9677 14.2982C6.93089 14.0254 6.84041 13.7081 6.57532 13.4439C6.31023 13.1797 5.99182 13.0896 5.71804 13.0529C5.47666 13.0205 5.18507 13.0206 4.8898 13.0207H3.11023ZM2.50001 15.1633C2.50001 14.8421 2.50135 14.6579 2.51498 14.5304C2.64294 14.5168 2.82774 14.5155 3.15001 14.5155H4.85001C5.17229 14.5155 5.35709 14.5168 5.48504 14.5304C5.49867 14.6579 5.50001 14.8421 5.50001 15.1633V16.8574C5.50001 17.1786 5.49867 17.3627 5.48504 17.4902C5.35709 17.5038 5.17229 17.5052 4.85001 17.5052H3.15001C2.82774 17.5052 2.64294 17.5038 2.51498 17.4902C2.50135 17.3627 2.50001 17.1786 2.50001 16.8574V15.1633Z"
    fill="currentColor"
  />
  <path
    fill-rule="evenodd"
    clip-rule="evenodd"
    d="M15.1102 1.00001H16.8898C17.1851 0.999941 17.4767 0.999876 17.718 1.03222C17.9918 1.0689 18.3102 1.15907 18.5753 1.42324C18.8404 1.68742 18.9309 2.00472 18.9677 2.27757C19.0001 2.51811 19.0001 2.80869 19 3.10295V4.87638C19.0001 5.17064 19.0001 5.46123 18.9677 5.70177C18.9309 5.97461 18.8404 6.29192 18.5753 6.55609C18.3102 6.82027 17.9918 6.91044 17.718 6.94712C17.4767 6.97946 17.1851 6.97939 16.8898 6.97933H15.1102C14.815 6.97939 14.5234 6.97946 14.282 6.94712C14.0082 6.91044 13.6898 6.82027 13.4247 6.55609C13.1596 6.29192 13.0691 5.97461 13.0323 5.70177C12.9999 5.46123 12.9999 5.17064 13 4.87638V3.10295C12.9999 2.80869 12.9999 2.51811 13.0323 2.27757C13.0691 2.00472 13.1596 1.68742 13.4247 1.42324C13.6898 1.15907 14.0082 1.0689 14.282 1.03222C14.5234 0.999876 14.8149 0.999941 15.1102 1.00001ZM14.515 2.50976C14.5014 2.63727 14.5 2.82144 14.5 3.1426V4.83674C14.5 5.1579 14.5014 5.34206 14.515 5.46958C14.6429 5.48316 14.8277 5.4845 15.15 5.4845H16.85C17.1723 5.4845 17.3571 5.48316 17.485 5.46958C17.4987 5.34206 17.5 5.1579 17.5 4.83674V3.1426C17.5 2.82144 17.4987 2.63727 17.485 2.50976C17.3571 2.49618 17.1723 2.49484 16.85 2.49484H15.15C14.8277 2.49484 14.6429 2.49618 14.515 2.50976Z"
    fill="currentColor"
  />
  <path
    d="M9.11716 1.1479C9 1.26465 9 1.45256 9 1.82838V2.227C9 2.60283 9 2.79074 9.11716 2.90749C9.23431 3.02425 9.42288 3.02425 9.8 3.02425H10.2C10.5771 3.02425 10.7657 3.02425 10.8828 2.90749C11 2.79074 11 2.60283 11 2.227V1.82838C11 1.45256 11 1.26465 10.8828 1.1479C10.7657 1.03114 10.5771 1.03114 10.2 1.03114H9.8C9.42288 1.03114 9.23431 1.03114 9.11716 1.1479Z"
    fill="currentColor"
  />
  <path
    d="M9 5.81459C9 5.43877 9 5.25086 9.11716 5.1341C9.23431 5.01735 9.42288 5.01735 9.8 5.01735H10.2C10.5771 5.01735 10.7657 5.01735 10.8828 5.1341C11 5.25086 11 5.43877 11 5.81459V6.21321C11 6.58904 11 6.77695 10.8828 6.8937C10.7657 7.01045 10.5771 7.01045 10.2 7.01045H9.8C9.42288 7.01045 9.23431 7.01045 9.11716 6.8937C9 6.77695 9 6.58904 9 6.21321V5.81459Z"
    fill="currentColor"
  />
  <path
    d="M9.11716 9.12031C9 9.23707 9 9.42498 9 9.8008V10.1994C9 10.5752 9 10.7632 9.11716 10.8799C9.23431 10.9967 9.42288 10.9967 9.8 10.9967H10.2C10.5771 10.9967 10.7657 10.9967 10.8828 10.8799C11 10.7632 11 10.5752 11 10.1994V9.8008C11 9.42498 11 9.23707 10.8828 9.12031C10.7657 9.00356 10.5771 9.00356 10.2 9.00356H9.8C9.42288 9.00356 9.23431 9.00356 9.11716 9.12031Z"
    fill="currentColor"
  />
  <path
    d="M9 13.787C9 13.4112 9 13.2233 9.11716 13.1065C9.23431 12.9898 9.42288 12.9898 9.8 12.9898H10.2C10.5771 12.9898 10.7657 12.9898 10.8828 13.1065C11 13.2233 11 13.4112 11 13.787V14.1856C11 14.5615 11 14.7494 10.8828 14.8661C10.7657 14.9829 10.5771 14.9829 10.2 14.9829H9.8C9.42288 14.9829 9.23431 14.9829 9.11716 14.8661C9 14.7494 9 14.5615 9 14.1856V13.787Z"
    fill="currentColor"
  />
  <path
    d="M9.11716 17.0927C9 17.2095 9 17.3974 9 17.7732V18.1718C9 18.5477 9 18.7356 9.11716 18.8523C9.23431 18.9691 9.42288 18.9691 9.8 18.9691H10.2C10.5771 18.9691 10.7657 18.9691 10.8828 18.8523C11 18.7356 11 18.5477 11 18.1718V17.7732C11 17.3974 11 17.2095 10.8828 17.0927C10.7657 16.976 10.5771 16.976 10.2 16.976H9.8C9.42288 16.976 9.23431 16.976 9.11716 17.0927Z"
    fill="currentColor"
  />
  <path
    d="M13 17.7732C13 17.3974 13 17.2095 13.1172 17.0927C13.2343 16.976 13.4229 16.976 13.8 16.976H14.2C14.5771 16.976 14.7657 16.976 14.8828 17.0927C15 17.2095 15 17.3974 15 17.7732V18.1718C15 18.5477 15 18.7356 14.8828 18.8523C14.7657 18.9691 14.5771 18.9691 14.2 18.9691H13.8C13.4229 18.9691 13.2343 18.9691 13.1172 18.8523C13 18.7356 13 18.5477 13 18.1718V17.7732Z"
    fill="currentColor"
  />
  <path
    d="M16.9609 17.0927C16.8438 17.2095 16.8438 17.3974 16.8438 17.7732V18.1718C16.8438 18.5477 16.8438 18.7356 16.9609 18.8523C17.0781 18.9691 17.2666 18.9691 17.6437 18.9691H18.0438C18.4209 18.9691 18.6094 18.9691 18.7266 18.8523C18.8438 18.7356 18.8438 18.5477 18.8438 18.1718V17.7732C18.8438 17.3974 18.8438 17.2095 18.7266 17.0927C18.6094 16.976 18.4209 16.976 18.0438 16.976H17.6437C17.2666 16.976 17.0781 16.976 16.9609 17.0927Z"
    fill="currentColor"
  />
  <path
    d="M18.2 9.00356C18.5771 9.00356 18.7657 9.00356 18.8828 9.12031C19 9.23707 19 9.42498 19 9.8008V10.1994C19 10.5752 19 10.7632 18.8828 10.8799C18.7657 10.9967 18.5771 10.9967 18.2 10.9967H17.8C17.4229 10.9967 17.2343 10.9967 17.1172 10.8799C17 10.7632 17 10.5752 17 10.1994V9.8008C17 9.42498 17 9.23707 17.1172 9.12031C17.2343 9.00356 17.4229 9.00356 17.8 9.00356H18.2Z"
    fill="currentColor"
  />
  <path
    d="M18.8828 13.1065C18.7657 12.9898 18.5771 12.9898 18.2 12.9898H17.8C17.4229 12.9898 17.2343 12.9898 17.1172 13.1065C17 13.2233 17 13.4112 17 13.787V14.1856C17 14.5615 17 14.7494 17.1172 14.8661C17.2343 14.9829 17.4229 14.9829 17.8 14.9829H18.2C18.5771 14.9829 18.7657 14.9829 18.8828 14.8661C19 14.7494 19 14.5615 19 14.1856V13.787C19 13.4112 19 13.2233 18.8828 13.1065Z"
    fill="currentColor"
  />
  <path
    d="M14.2 9.00356C14.5771 9.00356 14.7657 9.00356 14.8828 9.12031C15 9.23707 15 9.42498 15 9.8008V10.1994C15 10.5752 15 10.7632 14.8828 10.8799C14.7657 10.9967 14.5771 10.9967 14.2 10.9967H13.8C13.4229 10.9967 13.2343 10.9967 13.1172 10.8799C13 10.7632 13 10.5752 13 10.1994V9.8008C13 9.42498 13 9.23707 13.1172 9.12031C13.2343 9.00356 13.4229 9.00356 13.8 9.00356H14.2Z"
    fill="currentColor"
  />
  <path
    d="M14.8828 13.1065C14.7657 12.9898 14.5771 12.9898 14.2 12.9898H13.8C13.4229 12.9898 13.2343 12.9898 13.1172 13.1065C13 13.2233 13 13.4112 13 13.787V14.1856C13 14.5615 13 14.7494 13.1172 14.8661C13.2343 14.9829 13.4229 14.9829 13.8 14.9829H14.2C14.5771 14.9829 14.7657 14.9829 14.8828 14.8661C15 14.7494 15 14.5615 15 14.1856V13.787C15 13.4112 15 13.2233 14.8828 13.1065Z"
    fill="currentColor"
  />
  <path
    d="M6.2 9.00356C6.57712 9.00356 6.76569 9.00356 6.88284 9.12031C7 9.23707 7 9.42498 7 9.8008V10.1994C7 10.5752 7 10.7632 6.88284 10.8799C6.76569 10.9967 6.57712 10.9967 6.2 10.9967H5.8C5.42288 10.9967 5.23431 10.9967 5.11716 10.8799C5 10.7632 5 10.5752 5 10.1994V9.8008C5 9.42498 5 9.23707 5.11716 9.12031C5.23431 9.00356 5.42288 9.00356 5.8 9.00356H6.2Z"
    fill="currentColor"
  />
  <path
    d="M2.88284 9.12031C2.76569 9.00356 2.57712 9.00356 2.2 9.00356H1.8C1.42288 9.00356 1.23431 9.00356 1.11716 9.12031C1 9.23707 1 9.42498 1 9.8008V10.1994C1 10.5752 1 10.7632 1.11716 10.8799C1.23431 10.9967 1.42288 10.9967 1.8 10.9967H2.2C2.57712 10.9967 2.76569 10.9967 2.88284 10.8799C3 10.7632 3 10.5752 3 10.1994V9.8008C3 9.42498 3 9.23707 2.88284 9.12031Z"
    fill="currentColor"
  />
</svg>
