<svg
  xmlns="http://www.w3.org/2000/svg"
  width="20"
  height="20"
  viewBox="0 0 20 20"
  fill="none"
>
  <path
    fill-rule="evenodd"
    clip-rule="evenodd"
    d="M5.48518 11.6261C4.93282 11.6261 4.48504 12.0692 4.48504 12.6158C4.48504 13.1624 4.93282 13.6055 5.48518 13.6055C6.03755 13.6055 6.48533 13.1624 6.48533 12.6158C6.48533 12.0692 6.03755 11.6261 5.48518 11.6261ZM2.98738 12.6158C2.98738 11.2507 4.10568 10.1441 5.48518 10.1441C6.86468 10.1441 7.98299 11.2507 7.98299 12.6158C7.98299 13.9809 6.86468 15.0875 5.48518 15.0875C4.10568 15.0875 2.98738 13.9809 2.98738 12.6158Z"
    fill="currentColor"
  />
  <path
    fill-rule="evenodd"
    clip-rule="evenodd"
    d="M7.25489 3.41454C7.63069 3.24369 7.79537 2.80371 7.62271 2.43183C7.45006 2.05995 7.00544 1.89699 6.62964 2.06784L2.04985 4.15C1.69841 4.30098 1.38019 4.50613 1.09664 4.78672C0.49566 5.38143 0.23717 6.13022 0.116343 7.01954C0.0809109 7.28033 0.0562679 7.56267 0.0391291 7.8674L0.0207361 8.27833C-2.08132e-05 8.87815 -1.07607e-05 9.55576 5.2413e-07 10.3164V11.3851C-1.95214e-05 12.7363 -3.56734e-05 13.8254 0.116343 14.682C0.23717 15.5713 0.49566 16.3201 1.09664 16.9148C1.69762 17.5095 2.45431 17.7653 3.35301 17.8849C4.21863 18 5.31923 18 6.68469 18H13.3153C14.6808 18 15.7814 18 16.647 17.8849C17.5457 17.7653 18.3024 17.5095 18.9034 16.9148C19.5043 16.3201 19.7628 15.5713 19.8837 14.682C20 13.8254 20 12.7363 20 11.3851V10.3164C20 9.55576 20 8.87814 19.9793 8.27831C19.9793 8.19542 19.9609 7.86742 19.9609 7.86742C19.9437 7.56268 19.9191 7.28034 19.8837 7.01954C19.7628 6.13022 19.5043 5.38143 18.9034 4.78672C18.3024 4.19202 17.5457 3.93623 16.647 3.81666C15.7814 3.7015 14.6808 3.70151 13.3153 3.70153L6.62363 3.70153L7.25489 3.41454ZM18.4176 7.36342C18.4119 7.31359 18.4058 7.26481 18.3994 7.21702C18.3009 6.49204 18.1207 6.10812 17.8444 5.83467C17.568 5.56123 17.1801 5.38294 16.4474 5.28547C15.6933 5.18513 14.6937 5.18356 13.2605 5.18356H6.73947C5.30629 5.18356 4.30674 5.18513 3.55257 5.28547C3.17245 5.33604 2.88512 5.40837 2.65802 5.50445L2.58459 5.53784C2.40986 5.62059 2.27265 5.71889 2.15564 5.83467C1.87931 6.10812 1.69915 6.49204 1.60065 7.21702C1.59415 7.26481 1.58807 7.31359 1.58237 7.36342H18.4176ZM1.50498 8.84545C1.49792 9.29164 1.49766 9.79591 1.49766 10.3707V11.3309C1.49766 12.7491 1.49925 13.7382 1.60065 14.4845C1.69915 15.2095 1.87931 15.5934 2.15564 15.8669C2.43197 16.1403 2.81994 16.3186 3.55257 16.4161C4.30674 16.5164 5.30629 16.518 6.73947 16.518H13.2605C14.6937 16.518 15.6933 16.5164 16.4474 16.4161C17.1801 16.3186 17.568 16.1403 17.8444 15.8669C18.1207 15.5934 18.3009 15.2095 18.3994 14.4845C18.5007 13.7382 18.5023 12.7491 18.5023 11.3309V10.3707C18.5023 9.79591 18.5021 9.29164 18.495 8.84545H1.50498Z"
    fill="currentColor"
  />
  <path
    d="M12.2816 10.4796C11.868 10.4796 11.5328 10.8114 11.5328 11.2206C11.5328 11.6299 11.868 11.9616 12.2816 11.9616H16.2422C16.6558 11.9616 16.9911 11.6299 16.9911 11.2206C16.9911 10.8114 16.6558 10.4796 16.2422 10.4796H12.2816Z"
    fill="currentColor"
  />
  <path
    d="M11.5328 14.0612C11.5328 13.6519 11.868 13.3201 12.2816 13.3201H16.2422C16.6558 13.3201 16.9911 13.6519 16.9911 14.0612C16.9911 14.4704 16.6558 14.8022 16.2422 14.8022H12.2816C11.868 14.8022 11.5328 14.4704 11.5328 14.0612Z"
    fill="currentColor"
  />
</svg>
