<svg
  xmlns="http://www.w3.org/2000/svg"
  width="20"
  height="20"
  viewBox="0 0 20 20"
  fill="none"
>
  <path
    fill-rule="evenodd"
    clip-rule="evenodd"
    d="M10 2.50523C5.86075 2.50523 2.50523 5.86075 2.50523 10C2.50523 14.1392 5.86075 17.4948 10 17.4948C14.1392 17.4948 17.4948 14.1392 17.4948 10C17.4948 5.86075 14.1392 2.50523 10 2.50523ZM1 10C1 5.02944 5.02944 1 10 1C14.9706 1 19 5.02944 19 10C19 14.9706 14.9706 19 10 19C5.02944 19 1 14.9706 1 10Z"
    fill="currentColor"
  />
  <path
    fill-rule="evenodd"
    clip-rule="evenodd"
    d="M9.85251 4.45255C9.91947 4.86278 9.64119 5.24962 9.23096 5.31657C8.28392 5.47114 7.37553 5.91304 6.64434 6.64423C5.91315 7.37542 5.47126 8.2838 5.31668 9.23085C5.24973 9.64108 4.86289 9.91936 4.45266 9.8524C4.04244 9.78545 3.76416 9.39861 3.83111 8.98838C4.03481 7.74037 4.61842 6.54143 5.57998 5.57987C6.54154 4.61831 7.74048 4.0347 8.9885 3.831C9.39872 3.76405 9.78556 4.04232 9.85251 4.45255Z"
    fill="currentColor"
  />
  <path
    fill-rule="evenodd"
    clip-rule="evenodd"
    d="M15.5474 10.1475C15.1372 10.0805 14.7504 10.3588 14.6834 10.769C14.5289 11.7161 14.087 12.6245 13.3558 13.3557C12.6246 14.0869 11.7162 14.5287 10.7691 14.6833C10.3589 14.7503 10.0806 15.1371 10.1476 15.5473C10.2146 15.9576 10.6014 16.2358 11.0116 16.1689C12.2596 15.9652 13.4586 15.3816 14.4201 14.42C15.3817 13.4585 15.9653 12.2595 16.169 11.0115C16.236 10.6013 15.9577 10.2144 15.5474 10.1475Z"
    fill="currentColor"
  />
  <path
    fill-rule="evenodd"
    clip-rule="evenodd"
    d="M9.99996 8.00357C8.89731 8.00357 8.00344 8.89744 8.00344 10.0001C8.00344 11.1027 8.89731 11.9966 9.99996 11.9966C11.1026 11.9966 11.9965 11.1027 11.9965 10.0001C11.9965 8.89744 11.1026 8.00357 9.99996 8.00357ZM6.49822 10.0001C6.49822 8.06612 8.066 6.49834 9.99996 6.49834C11.9339 6.49834 13.5017 8.06612 13.5017 10.0001C13.5017 11.934 11.9339 13.5018 9.99996 13.5018C8.066 13.5018 6.49822 11.934 6.49822 10.0001Z"
    fill="currentColor"
  />
  <path
    d="M10.9164 10.0001C10.9164 10.5062 10.5061 10.9165 9.99999 10.9165C9.49389 10.9165 9.08361 10.5062 9.08361 10.0001C9.08361 9.49401 9.49389 9.08373 9.99999 9.08373C10.5061 9.08373 10.9164 9.49401 10.9164 10.0001Z"
    fill="currentColor"
  />
</svg>
