<svg width="20" height="20" viewBox="0 0 20 20" fill="currentcolor" xmlns="http://www.w3.org/2000/svg">
  <path fill-rule="evenodd" d="M14.0563 1.21891C13.7644 1.51079 13.7644 1.98402 14.0563 2.2759L16.4482 4.66782L10.6595 4.66782C8.59365 4.66781 6.96697 4.66779 5.69604 4.83867C4.39198 5.01399 3.35111 5.38144 2.53237 6.20019C1.71362 7.01893 1.34617 8.0598 1.17085 9.36385C0.999973 10.6348 0.999985 12.2615 1 14.3273V18.2526C1 18.6654 1.33463 19 1.74741 19C2.16018 19 2.49481 18.6654 2.49481 18.2526V14.3841C2.49481 12.249 2.4964 10.7228 2.65233 9.56304C2.80537 8.42474 3.09464 7.75189 3.58936 7.25718C4.08407 6.76246 4.75692 6.47319 5.89522 6.32015C7.05501 6.16422 8.58115 6.16263 10.7163 6.16263H16.4482L14.0563 8.55455C13.7644 8.84643 13.7644 9.31966 14.0563 9.61154C14.3482 9.90342 14.8214 9.90342 15.1133 9.61154L18.7811 5.94372C19.073 5.65184 19.073 5.17861 18.7811 4.88673L15.1133 1.21891C14.8214 0.92703 14.3482 0.92703 14.0563 1.21891Z" fill="currentcolor" />
</svg>
