<svg width="20" height="20" viewBox="0 0 20 20" fill="currentColor" xmlns="http://www.w3.org/2000/svg">
  <path fill-rule="evenodd" d="M9.30034 0.268439C9.67239 0.476658 9.80519 0.947053 9.59697 1.3191L9.0909 2.22335C10.1572 2.07798 11.2694 2.13775 12.373 2.43347C16.8221 3.62562 19.4624 8.19878 18.2703 12.6479C17.5703 15.2603 15.7038 17.249 13.3845 18.2039C12.9903 18.3662 12.5391 18.1782 12.3768 17.7839C12.2145 17.3897 12.4025 16.9385 12.7967 16.7762C14.6903 15.9966 16.2088 14.3763 16.779 12.2483C17.7504 8.62281 15.5989 4.89625 11.9734 3.9248C11.0369 3.67388 10.0947 3.63118 9.1949 3.7682L10.2025 4.59848C10.5316 4.8696 10.5785 5.35613 10.3074 5.68516C10.0363 6.0142 9.54974 6.06114 9.22071 5.79002L7.05252 4.00344C6.76439 3.76602 6.68745 3.35644 6.86978 3.03065L8.24969 0.565067C8.45791 0.193024 8.9283 0.0602191 9.30034 0.268439ZM5.24471 4.72869C5.55426 5.02185 5.56755 5.51046 5.27438 5.82001C4.52337 6.61301 3.95307 7.59897 3.6499 8.73039C2.67845 12.3559 4.82998 16.0825 8.45547 17.0539C8.89243 17.171 9.33012 17.2426 9.76373 17.272C10.1891 17.3007 10.5106 17.6689 10.4818 18.0943C10.453 18.5196 10.0849 18.8411 9.65951 18.8124C9.12661 18.7763 8.58998 18.6883 8.05587 18.5452C3.60674 17.3531 0.966432 12.7799 2.15857 8.33079C2.52984 6.94522 3.23019 5.73317 4.15338 4.75836C4.44655 4.44881 4.93515 4.43552 5.24471 4.72869Z" fill="currentColor" />
</svg>
