<svg
  xmlns="http://www.w3.org/2000/svg"
  width="20"
  height="20"
  viewBox="0 0 20 20"
  fill="none"
>
  <path
    fill-rule="evenodd"
    clip-rule="evenodd"
    d="M3.65992 1.26246C4.07171 1.29754 4.37709 1.65979 4.34202 2.07158L4.26037 3.03003C5.71164 1.83397 7.5493 1.08033 9.57323 0.988843C14.5386 0.764404 18.7458 4.60771 18.9703 9.57311C19.0699 11.7767 18.3675 13.8328 17.1218 15.4558C16.8702 15.7836 16.4004 15.8454 16.0726 15.5938C15.7447 15.3422 15.6829 14.8724 15.9346 14.5446C16.9735 13.1909 17.5583 11.479 17.4752 9.64069C17.2881 5.501 13.7805 2.29681 9.64081 2.48392C7.88669 2.56321 6.30071 3.23819 5.06899 4.30586L6.21349 4.28381C6.62669 4.27585 6.96811 4.60436 6.97607 5.01756C6.98403 5.43076 6.65552 5.77218 6.24231 5.78014L3.3485 5.83589C3.13653 5.83998 2.93277 5.75395 2.78786 5.59919C2.64295 5.44443 2.57049 5.23547 2.58848 5.02422L2.85081 1.94456C2.88588 1.53277 3.24813 1.22739 3.65992 1.26246ZM1.87873 8.23025C2.28898 8.28016 2.5811 8.65319 2.53119 9.06344C2.48142 9.47261 2.46476 9.89182 2.48403 10.3183C2.67115 14.458 6.17872 17.6622 10.3184 17.4751C11.3819 17.427 12.3817 17.1603 13.2781 16.7211C13.6493 16.5393 14.0975 16.6927 14.2794 17.0639C14.4612 17.435 14.3077 17.8832 13.9366 18.0651C12.8592 18.593 11.6585 18.9126 10.386 18.9701C5.42059 19.1946 1.21339 15.3513 0.98895 10.3859C0.965912 9.87618 0.985786 9.37391 1.04554 8.88272C1.09544 8.47247 1.46847 8.18035 1.87873 8.23025Z"
    fill="currentColor"
  />
</svg>
