<svg
  xmlns="http://www.w3.org/2000/svg"
  width="20"
  height="20"
  viewBox="0 0 20 20"
  fill="none"
>
  <path
    fill-rule="evenodd"
    clip-rule="evenodd"
    d="M16.7637 3.14084C16.7093 3.11483 16.6338 3.08759 16.4564 3.02632C15.8709 2.82404 15.0118 2.58483 14.1658 2.54521C13.3051 2.50489 12.6065 2.67591 12.1619 3.1205L10.5762 4.70628C10.5437 4.73872 10.5117 4.77079 10.4801 4.80249C9.92718 5.35653 9.48934 5.79528 8.91439 6.01132C8.33943 6.22735 7.721 6.18547 6.94006 6.1326C6.89538 6.12957 6.85017 6.12651 6.8044 6.12346L5.82516 6.05818C5.29385 6.02276 4.94194 5.99991 4.66705 6.00442C4.40422 6.00872 4.27001 6.03848 4.17213 6.07847C4.02533 6.13845 3.89093 6.22512 3.77573 6.33408C3.69891 6.40675 3.61642 6.51671 3.50405 6.75435C3.38651 7.00289 3.26211 7.33287 3.07514 7.83146C2.84495 8.44532 2.69047 8.85914 2.60442 9.16449C2.54562 9.37312 2.5406 9.46301 2.5392 9.48416C2.54497 9.49887 2.5494 9.50858 2.55246 9.51475C2.5547 9.51927 2.55705 9.52333 2.55705 9.52333L2.55843 9.52549L2.56004 9.52748C2.56004 9.52748 2.56313 9.531 2.56671 9.53456C2.57053 9.53838 2.57615 9.54368 2.58424 9.5507C2.59119 9.55262 2.60028 9.55492 2.61179 9.55745C2.6811 9.57267 2.79476 9.58686 2.97573 9.59404C3.34216 9.60858 3.85549 9.59113 4.59953 9.56507C6.07321 9.51346 7.89918 9.72309 9.08805 10.912C10.2769 12.1008 10.4865 13.9268 10.4349 15.4005C10.4089 16.1445 10.3914 16.6578 10.406 17.0243C10.4131 17.2052 10.4273 17.3189 10.4425 17.3882C10.4451 17.3997 10.4474 17.4088 10.4493 17.4158C10.4563 17.4238 10.4616 17.4295 10.4654 17.4333C10.469 17.4369 10.4725 17.44 10.4725 17.44L10.4745 17.4416L10.4767 17.443C10.4767 17.443 10.4807 17.4453 10.4852 17.4475C10.4914 17.4506 10.5011 17.455 10.5158 17.4608C10.537 17.4594 10.6269 17.4544 10.8355 17.3956C11.1409 17.3095 11.5547 17.1551 12.1685 16.9249C12.6671 16.7379 12.9971 16.6135 13.2457 16.496C13.4833 16.3836 13.5933 16.3011 13.6659 16.2243C13.7749 16.1091 13.8615 15.9747 13.9215 15.8279C13.9615 15.73 13.9913 15.5958 13.9956 15.333C14.0001 15.0581 13.9772 14.7062 13.9418 14.1748L13.8765 13.1956C13.8735 13.1498 13.8704 13.1046 13.8674 13.0599C13.8145 12.279 13.7727 11.6606 13.9887 11.0856C14.2047 10.5107 14.6435 10.0728 15.1975 9.51992C15.2292 9.48829 15.2613 9.45628 15.2937 9.42385L16.8795 7.83807C17.3241 7.39347 17.4951 6.69491 17.4548 5.8342C17.4152 4.9882 17.176 4.12913 16.9737 3.54355C16.9124 3.36617 16.8852 3.29065 16.8592 3.23633C16.844 3.20462 16.8367 3.1956 16.8206 3.17945C16.8044 3.1633 16.7954 3.15602 16.7637 3.14084ZM17.0104 1.58872C17.2956 1.68651 17.6142 1.79576 17.9092 2.09078C18.2042 2.3858 18.3135 2.70439 18.4113 2.98957C18.4172 3.0068 18.4231 3.0239 18.4289 3.04087C18.6525 3.68825 18.9432 4.70564 18.9927 5.76217C19.0415 6.804 18.8608 8.03406 17.9682 8.92673L16.3824 10.5125C15.6849 11.21 15.5138 11.4038 15.4299 11.6271C15.346 11.8505 15.3471 12.109 15.4127 13.0932L15.4801 14.103C15.5129 14.5957 15.5407 15.0117 15.535 15.3582C15.529 15.7239 15.4863 16.0687 15.3468 16.4102C15.2148 16.7331 15.0242 17.0288 14.7844 17.2823C14.5309 17.5502 14.2345 17.7314 13.9038 17.8878C13.5906 18.0359 13.2001 18.1823 12.7378 18.3557L12.6754 18.3791C12.1039 18.5934 11.6287 18.7716 11.2531 18.8775C10.9002 18.9769 10.4525 19.0717 10.0295 18.9223C9.68114 18.7993 9.43972 18.6257 9.21224 18.3345C9.05722 18.1361 8.9813 17.9121 8.93876 17.7184C8.89568 17.5222 8.87634 17.3066 8.86756 17.0853C8.85046 16.6541 8.87048 16.0826 8.89508 15.3804L8.89626 15.3466C8.94495 13.9565 8.70811 12.7094 7.99938 12.0006C7.29064 11.2919 6.04352 11.055 4.65341 11.1037L4.61966 11.1049C3.91743 11.1295 3.34586 11.1495 2.9147 11.1324C2.69344 11.1237 2.47782 11.1043 2.28161 11.0612C2.08787 11.0187 1.8639 10.9428 1.66549 10.7878C1.37433 10.5603 1.2007 10.3189 1.07766 9.97046C0.928302 9.54751 1.02308 9.09976 1.12253 8.74687C1.22838 8.37129 1.40659 7.89609 1.62092 7.32457L1.64432 7.26217C1.81767 6.79986 1.96408 6.40943 2.11221 6.09617C2.26857 5.76553 2.44975 5.46906 2.71774 5.21557C2.97119 4.97584 3.26688 4.78517 3.58983 4.65323C3.93131 4.51371 4.27613 4.47101 4.64182 4.46501C4.98829 4.45933 5.40434 4.48708 5.89698 4.51994L6.90681 4.58726C7.89102 4.65287 8.14952 4.654 8.37286 4.57008C8.59621 4.48617 8.79001 4.31509 9.48748 3.61761L11.0733 2.03183C11.9659 1.13916 13.196 0.958488 14.2378 1.00728C15.2944 1.05676 16.3118 1.34746 16.9591 1.57108C16.9761 1.57694 16.9932 1.58281 17.0104 1.58872Z"
    fill="currentColor"
  />
  <path
    fill-rule="evenodd"
    clip-rule="evenodd"
    d="M5.99275 14.0072C5.4917 13.5061 4.67935 13.5061 4.1783 14.0072C3.93863 14.2469 3.71837 14.6857 3.5595 15.3062C3.45212 15.7256 3.38271 16.1886 3.34625 16.6537C3.81134 16.6172 4.27437 16.5478 4.69375 16.4404C5.3142 16.2816 5.75308 16.0613 5.99275 15.8216C6.4938 15.3206 6.4938 14.5082 5.99275 14.0072ZM3.08963 12.9185C4.19193 11.8162 5.97912 11.8162 7.08142 12.9185C8.18372 14.0208 8.18372 15.808 7.08142 16.9103C6.55685 17.4349 5.80578 17.745 5.07564 17.9319C4.32851 18.1232 3.51115 18.2086 2.76464 18.2224C2.21504 18.2326 1.76736 17.7849 1.77753 17.2353C1.79134 16.4888 1.8767 15.6714 2.06801 14.9243C2.25496 14.1942 2.56507 13.4431 3.08963 12.9185Z"
    fill="currentColor"
  />
  <path
    d="M15.2464 6.20506C14.8456 6.6059 14.1957 6.6059 13.7949 6.20506C13.394 5.80422 13.394 5.15434 13.7949 4.7535C14.1957 4.35267 14.8456 4.35267 15.2464 4.7535C15.6473 5.15434 15.6473 5.80422 15.2464 6.20506Z"
    fill="currentColor"
  />
</svg>
