<svg
  xmlns="http://www.w3.org/2000/svg"
  width="20"
  height="20"
  viewBox="0 0 20 20"
  fill="none"
>
  <path
    fill-rule="evenodd"
    clip-rule="evenodd"
    d="M4.66705 6.33374C4.66705 5.91953 5.00284 5.58374 5.41705 5.58374H11.8332C12.2474 5.58374 12.5832 5.91953 12.5832 6.33374C12.5832 6.74795 12.2474 7.08374 11.8332 7.08374H5.41705C5.00284 7.08374 4.66705 6.74795 4.66705 6.33374Z"
    fill="currentColor"
  />
  <path
    fill-rule="evenodd"
    clip-rule="evenodd"
    d="M4.66705 9.0835C4.66705 8.66928 5.00284 8.3335 5.41705 8.3335H9.08339C9.49761 8.3335 9.83339 8.66928 9.83339 9.0835C9.83339 9.49771 9.49761 9.8335 9.08339 9.8335H5.41705C5.00284 9.8335 4.66705 9.49771 4.66705 9.0835Z"
    fill="currentColor"
  />
  <path
    fill-rule="evenodd"
    clip-rule="evenodd"
    d="M14.583 11.0833C12.6501 11.0833 11.0833 12.6501 11.0833 14.583C11.0833 16.5159 12.6501 18.0828 14.583 18.0828C15.278 18.0828 15.9257 17.8802 16.4702 17.5309L17.7189 18.7796C18.0118 19.0725 18.4867 19.0725 18.7796 18.7796C19.0725 18.4867 19.0725 18.0118 18.7796 17.7189L17.5309 16.4702C17.8802 15.9257 18.0828 15.278 18.0828 14.583C18.0828 12.6501 16.5159 11.0833 14.583 11.0833ZM12.5833 14.583C12.5833 13.4786 13.4786 12.5833 14.583 12.5833C15.6874 12.5833 16.5828 13.4786 16.5828 14.583C16.5828 15.6874 15.6874 16.5828 14.583 16.5828C13.4786 16.5828 12.5833 15.6874 12.5833 14.583Z"
    fill="currentColor"
  />
  <path
    fill-rule="evenodd"
    clip-rule="evenodd"
    d="M13.9364 2.60578C12.9763 2.50176 11.7352 2.50073 10 2.50073C8.46866 2.50073 7.36903 2.50142 6.50849 2.57748C5.65785 2.65266 5.1128 2.797 4.67452 3.04239C3.99033 3.42545 3.42545 3.99033 3.04239 4.67452C2.797 5.1128 2.65266 5.65785 2.57748 6.50849C2.50142 7.36903 2.50073 8.46866 2.50073 10C2.50073 11.5313 2.50142 12.631 2.57748 13.4915C2.65266 14.3421 2.797 14.8872 3.04239 15.3255C3.42545 16.0097 3.99033 16.5746 4.67452 16.9576C5.1128 17.203 5.65785 17.3473 6.50849 17.4225C7.36903 17.4986 8.46866 17.4993 10 17.4993C10.4142 17.4993 10.75 17.8351 10.75 18.2493C10.75 18.6635 10.4142 18.9993 10 18.9993H9.96358C8.47653 18.9993 7.31071 18.9993 6.37643 18.9167C5.42462 18.8326 4.64163 18.6583 3.94174 18.2664C3.01607 17.7482 2.25182 16.9839 1.73356 16.0583C1.3417 15.3584 1.16743 14.5754 1.0833 13.6236C1.00072 12.6893 1.00073 11.5235 1.00073 10.0364V9.96356C1.00073 8.47652 1.00072 7.31071 1.0833 6.37643C1.16743 5.42462 1.3417 4.64163 1.73356 3.94174C2.25182 3.01607 3.01607 2.25182 3.94174 1.73356C4.64163 1.3417 5.42462 1.16743 6.37643 1.0833C7.31071 1.00072 8.47652 1.00073 9.96357 1.00073H10.045C11.7253 1.00072 13.0477 1.00072 14.0979 1.1145C15.1716 1.23083 16.0494 1.47323 16.801 2.01923C17.2537 2.34816 17.6518 2.74631 17.9808 3.19904C18.5268 3.95055 18.7692 4.82842 18.8855 5.90206C18.9993 6.9523 18.9993 8.27465 18.9993 9.955V10C18.9993 10.4142 18.6635 10.75 18.2493 10.75C17.8351 10.75 17.4993 10.4142 17.4993 10C17.4993 8.26482 17.4982 7.02368 17.3942 6.06363C17.2917 5.11762 17.0965 4.53391 16.7672 4.08072C16.5308 3.75533 16.2447 3.46917 15.9193 3.23276C15.4661 2.9035 14.8824 2.70827 13.9364 2.60578Z"
    fill="currentColor"
  />
</svg>
