<svg width="20" height="20" viewBox="0 0 20 20" fill="currentcolor" xmlns="http://www.w3.org/2000/svg">
  <path fill-rule="evenodd" d="M10 2.38462C5.79414 2.38462 2.38462 5.79414 2.38462 10C2.38462 14.2059 5.79414 17.6154 10 17.6154C14.2059 17.6154 17.6154 14.2059 17.6154 10C17.6154 5.79414 14.2059 2.38462 10 2.38462ZM1 10C1 5.02944 5.02944 1 10 1C14.9706 1 19 5.02944 19 10C19 14.9706 14.9706 19 10 19C5.02944 19 1 14.9706 1 10Z" fill="currentcolor" />
  <path fill-rule="evenodd" d="M9.75013 6.00252C7.68038 6.00252 6.00252 7.68038 6.00252 9.75013C6.00252 11.8199 7.68038 13.4977 9.75013 13.4977C10.514 13.4977 11.2244 13.2692 11.8169 12.8768L12.718 13.778C13.0107 14.0707 13.4852 14.0707 13.778 13.778C14.0707 13.4852 14.0707 13.0107 13.778 12.718L12.8768 11.8169C13.2692 11.2244 13.4977 10.514 13.4977 9.75013C13.4977 7.68038 11.8199 6.00252 9.75013 6.00252ZM7.50156 9.75013C7.50156 8.50828 8.50828 7.50156 9.75013 7.50156C10.992 7.50156 11.9987 8.50828 11.9987 9.75013C11.9987 10.992 10.992 11.9987 9.75013 11.9987C8.50828 11.9987 7.50156 10.992 7.50156 9.75013Z" fill="currentcolor" />
</svg>
