<svg
  xmlns="http://www.w3.org/2000/svg"
  width="20"
  height="20"
  viewBox="0 0 20 20"
  fill="none"
>
  <path
    fill-rule="evenodd"
    clip-rule="evenodd"
    d="M11.9059 2C7.94242 2 4.72941 5.17565 4.72941 9.09302C4.72941 13.0104 7.94242 16.186 11.9059 16.186C13.4193 16.186 14.8233 15.723 15.9808 14.9324L18.7007 17.7677C18.9868 18.066 19.4633 18.0785 19.7651 17.7958C20.0669 17.513 20.0796 17.042 19.7935 16.7437L17.1248 13.9617C18.3384 12.6914 19.0823 10.9781 19.0823 9.09302C19.0823 5.17565 15.8693 2 11.9059 2ZM6.23529 9.09302C6.23529 5.99766 8.7741 3.48837 11.9059 3.48837C15.0377 3.48837 17.5765 5.99766 17.5765 9.09302C17.5765 12.1884 15.0377 14.6977 11.9059 14.6977C8.7741 14.6977 6.23529 12.1884 6.23529 9.09302Z"
    fill="currentColor"
  />
  <path
    fill-rule="evenodd"
    clip-rule="evenodd"
    d="M0 17.2558C0 16.8448 0.337103 16.5116 0.752941 16.5116H7.17647C7.5923 16.5116 7.92941 16.8448 7.92941 17.2558C7.92941 17.6668 7.5923 18 7.17647 18H0.752941C0.337103 18 0 17.6668 0 17.2558Z"
    fill="currentColor"
  />
  <path
    fill-rule="evenodd"
    clip-rule="evenodd"
    d="M0 13.6279C0 13.2169 0.337103 12.8837 0.752941 12.8837H3.50588C3.92172 12.8837 4.25882 13.2169 4.25882 13.6279C4.25882 14.0389 3.92172 14.3721 3.50588 14.3721H0.752941C0.337103 14.3721 0 14.0389 0 13.6279Z"
    fill="currentColor"
  />
  <path
    fill-rule="evenodd"
    clip-rule="evenodd"
    d="M0 10C0 9.589 0.337103 9.25581 0.752941 9.25581H2.58823C3.00407 9.25581 3.34117 9.589 3.34117 10C3.34117 10.411 3.00407 10.7442 2.58823 10.7442H0.752941C0.337103 10.7442 0 10.411 0 10Z"
    fill="currentColor"
  />
</svg>
