<svg
  xmlns="http://www.w3.org/2000/svg"
  width="20"
  height="20"
  viewBox="0 0 20 20"
  fill="none"
>
  <path
    fill-rule="evenodd"
    clip-rule="evenodd"
    d="M5.77883 17.3894C6.781 17.4979 8.09172 17.5 10 17.5C11.9083 17.5 13.219 17.4979 14.2212 17.3894C15.1953 17.2838 15.6984 17.0923 16.0572 16.8316C16.3544 16.6157 16.6157 16.3544 16.8316 16.0572C17.0923 15.6984 17.2838 15.1953 17.3894 14.2212C17.4979 13.219 17.5 11.9083 17.5 10C17.5 8.09172 17.4979 6.781 17.3894 5.77883C17.2838 4.80473 17.0923 4.3016 16.8316 3.94275C16.6157 3.64562 16.3544 3.38432 16.0572 3.16844C15.6984 2.90772 15.1953 2.71617 14.2212 2.61064C13.219 2.50206 11.9083 2.5 10 2.5C8.09172 2.5 6.781 2.50206 5.77883 2.61064C4.80473 2.71617 4.3016 2.90772 3.94275 3.16844C3.64562 3.38432 3.38432 3.64562 3.16844 3.94275C2.90772 4.3016 2.71617 4.80473 2.61064 5.77883C2.50206 6.781 2.5 8.09172 2.5 10C2.5 11.9083 2.50206 13.219 2.61064 14.2212C2.71617 15.1953 2.90772 15.6984 3.16844 16.0572C3.38432 16.3544 3.64562 16.6157 3.94275 16.8316C4.3016 17.0923 4.80473 17.2838 5.77883 17.3894ZM1.95491 3.06107C1 4.3754 1 6.25027 1 10C1 13.7497 1 15.6246 1.95491 16.9389C2.26331 17.3634 2.6366 17.7367 3.06107 18.0451C4.3754 19 6.25027 19 10 19C13.7497 19 15.6246 19 16.9389 18.0451C17.3634 17.7367 17.7367 17.3634 18.0451 16.9389C19 15.6246 19 13.7497 19 10C19 6.25027 19 4.3754 18.0451 3.06107C17.7367 2.6366 17.3634 2.26331 16.9389 1.95491C15.6246 1 13.7497 1 10 1C6.25027 1 4.3754 1 3.06107 1.95491C2.6366 2.26331 2.26331 2.6366 1.95491 3.06107Z"
    fill="currentColor"
  />
  <path
    fill-rule="evenodd"
    clip-rule="evenodd"
    d="M13 9.75C11.7412 9.75 10.68 8.90425 10.3535 7.75H6C5.58579 7.75 5.25 7.41421 5.25 7C5.25 6.58579 5.58579 6.25 6 6.25H10.3535C10.68 5.09575 11.7412 4.25 13 4.25C14.5188 4.25 15.75 5.48122 15.75 7C15.75 8.51878 14.5188 9.75 13 9.75ZM11.75 7C11.75 6.30964 12.3096 5.75 13 5.75C13.6904 5.75 14.25 6.30964 14.25 7C14.25 7.69036 13.6904 8.25 13 8.25C12.3096 8.25 11.75 7.69036 11.75 7Z"
    fill="currentColor"
  />
  <path
    fill-rule="evenodd"
    clip-rule="evenodd"
    d="M9.64648 12.25C9.32002 11.0957 8.25878 10.25 7 10.25C5.48122 10.25 4.25 11.4812 4.25 13C4.25 14.5188 5.48122 15.75 7 15.75C8.25878 15.75 9.32002 14.9043 9.64648 13.75H14C14.4142 13.75 14.75 13.4142 14.75 13C14.75 12.5858 14.4142 12.25 14 12.25H9.64648ZM5.75 13C5.75 12.3096 6.30964 11.75 7 11.75C7.69036 11.75 8.25 12.3096 8.25 13C8.25 13.6904 7.69036 14.25 7 14.25C6.30964 14.25 5.75 13.6904 5.75 13Z"
    fill="currentColor"
  />
</svg>
