<svg
  xmlns="http://www.w3.org/2000/svg"
  width="20"
  height="20"
  viewBox="0 0 20 20"
  fill="none"
>
  <path
    fill-rule="evenodd"
    clip-rule="evenodd"
    d="M1 5.35817C1 4.94498 1.33496 4.61001 1.74816 4.61001H8.23481C8.64801 4.61001 8.98297 4.94498 8.98297 5.35817C8.98297 5.77137 8.64801 6.10633 8.23481 6.10633H1.74816C1.33496 6.10633 1 5.77137 1 5.35817Z"
    fill="currentColor"
  />
  <path
    fill-rule="evenodd"
    clip-rule="evenodd"
    d="M19 14.6415C19 15.0547 18.665 15.3896 18.2518 15.3896L11.7652 15.3896C11.352 15.3896 11.017 15.0547 11.017 14.6415C11.017 14.2283 11.352 13.8933 11.7652 13.8933L18.2518 13.8933C18.665 13.8933 19 14.2283 19 14.6415Z"
    fill="currentColor"
  />
  <path
    fill-rule="evenodd"
    clip-rule="evenodd"
    d="M14.6416 2.49632C13.061 2.49632 11.7796 3.77769 11.7796 5.35834C11.7796 6.939 13.061 8.22037 14.6416 8.22037C16.2223 8.22037 17.5037 6.939 17.5037 5.35834C17.5037 3.77769 16.2223 2.49632 14.6416 2.49632ZM10.2833 5.35834C10.2833 2.9513 12.2346 1 14.6416 1C17.0487 1 19 2.9513 19 5.35834C19 7.76539 17.0487 9.71669 14.6416 9.71669C12.2346 9.71669 10.2833 7.76539 10.2833 5.35834Z"
    fill="currentColor"
  />
  <path
    fill-rule="evenodd"
    clip-rule="evenodd"
    d="M5.35836 11.7796C6.93901 11.7796 8.22038 13.061 8.22038 14.6417C8.22038 16.2223 6.93901 17.5037 5.35836 17.5037C3.77771 17.5037 2.49634 16.2223 2.49634 14.6417C2.49634 13.061 3.77771 11.7796 5.35836 11.7796ZM9.7167 14.6417C9.7167 12.2346 7.76541 10.2833 5.35836 10.2833C2.95132 10.2833 1.00002 12.2346 1.00002 14.6417C1.00002 17.0487 2.95132 19 5.35836 19C7.76541 19 9.7167 17.0487 9.7167 14.6417Z"
    fill="currentColor"
  />
</svg>
