<svg
  xmlns="http://www.w3.org/2000/svg"
  width="20"
  height="20"
  viewBox="0 0 20 20"
  fill="none"
>
  <path
    fill-rule="evenodd"
    clip-rule="evenodd"
    d="M15.25 1C17.3211 1 19 2.67893 19 4.75C19 6.82107 17.3211 8.5 15.25 8.5C13.8769 8.5 12.6762 7.76201 12.0228 6.66103L8.32904 8.87728C8.44012 9.23176 8.5 9.60889 8.5 10C8.5 10.3911 8.44012 10.7682 8.32904 11.1227L12.0228 13.339C12.6762 12.238 13.8769 11.5 15.25 11.5C17.3211 11.5 19 13.1789 19 15.25C19 17.3211 17.3211 19 15.25 19C13.1789 19 11.5 17.3211 11.5 15.25C11.5 15.0947 11.5094 14.9416 11.5278 14.7913L7.60155 12.4355C6.91375 13.24 5.89143 13.75 4.75 13.75C2.67893 13.75 1 12.0711 1 10C1 7.92893 2.67893 6.25 4.75 6.25C5.89143 6.25 6.91375 6.75997 7.60155 7.56449L11.5278 5.20875C11.5094 5.0584 11.5 4.9053 11.5 4.75C11.5 2.67893 13.1789 1 15.25 1ZM15.25 2.5C16.4926 2.5 17.5 3.50736 17.5 4.75C17.5 5.99264 16.4926 7 15.25 7C14.0074 7 13 5.99264 13 4.75C13 3.50736 14.0074 2.5 15.25 2.5ZM4.75 7.75C5.99264 7.75 7 8.75736 7 10C7 11.2426 5.99264 12.25 4.75 12.25C3.50736 12.25 2.5 11.2426 2.5 10C2.5 8.75736 3.50736 7.75 4.75 7.75ZM17.5 15.25C17.5 14.0074 16.4926 13 15.25 13C14.0074 13 13 14.0074 13 15.25C13 16.4926 14.0074 17.5 15.25 17.5C16.4926 17.5 17.5 16.4926 17.5 15.25Z"
    fill="currentColor"
  />
</svg>
