<svg
  xmlns="http://www.w3.org/2000/svg"
  width="20"
  height="20"
  viewBox="0 0 20 20"
  fill="none"
>
  <path
    d="M10.5348 1.22155C10.2394 0.926149 9.7605 0.926149 9.4651 1.22155L5.80129 4.88536C5.50589 5.18076 5.50589 5.65971 5.80129 5.95511C6.09669 6.25051 6.57563 6.25051 6.87103 5.95511L9.24355 3.58259V12.7479C9.24355 13.1656 9.58221 13.5043 9.99997 13.5043C10.4177 13.5043 10.7564 13.1656 10.7564 12.7479V3.58259L13.1289 5.95511C13.4243 6.25051 13.9033 6.25051 14.1987 5.95511C14.4941 5.65971 14.4941 5.18076 14.1987 4.88536L10.5348 1.22155Z"
    fill="currentColor"
  />
  <path
    d="M6.33619 9.24358H5.85138C5.23389 9.24357 4.73226 9.24357 4.32322 9.27148C3.90148 9.30025 3.52326 9.3612 3.16325 9.51032C2.3046 9.86599 1.62241 10.5482 1.26675 11.4068C1.11763 11.7668 1.05668 12.1451 1.0279 12.5668C0.999992 12.9758 0.999995 13.4775 1 14.095V14.1486C0.999995 14.7661 0.999992 15.2677 1.0279 15.6768C1.05668 16.0985 1.11763 16.4767 1.26675 16.8367C1.62241 17.6954 2.3046 18.3776 3.16325 18.7333C3.52326 18.8824 3.90148 18.9433 4.32322 18.9721C4.73228 19 5.23395 19 5.85148 19H14.1485C14.7661 19 15.2677 19 15.6768 18.9721C16.0985 18.9433 16.4767 18.8824 16.8367 18.7333C17.6954 18.3776 18.3776 17.6954 18.7333 16.8367C18.8824 16.4767 18.9433 16.0985 18.9721 15.6768C19 15.2677 19 14.7661 19 14.1485V14.0951C19 13.4775 19 12.9759 18.9721 12.5668C18.9433 12.1451 18.8824 11.7668 18.7333 11.4068C18.3776 10.5482 17.6954 9.86599 16.8367 9.51032C16.4767 9.3612 16.0985 9.30025 15.6768 9.27148C15.2677 9.24357 14.7661 9.24357 14.1486 9.24358H13.6638C13.2461 9.24358 12.9074 9.58224 12.9074 10C12.9074 10.4178 13.2461 10.7564 13.6638 10.7564H14.1218C14.7723 10.7564 15.2223 10.7568 15.5738 10.7808C15.9185 10.8043 16.1129 10.848 16.2578 10.908C16.7458 11.1101 17.1334 11.4978 17.3356 11.9858C17.3956 12.1307 17.4392 12.3251 17.4628 12.6698C17.4867 13.0213 17.4872 13.4712 17.4872 14.1218C17.4872 14.7723 17.4867 15.2223 17.4628 15.5738C17.4392 15.9185 17.3956 16.1129 17.3356 16.2578C17.1334 16.7458 16.7458 17.1334 16.2578 17.3356C16.1129 17.3956 15.9185 17.4392 15.5738 17.4628C15.2223 17.4867 14.7723 17.4872 14.1218 17.4872H5.87821C5.22767 17.4872 4.77768 17.4867 4.4262 17.4628C4.08148 17.4392 3.88714 17.3956 3.74219 17.3356C3.25424 17.1334 2.86656 16.7458 2.66444 16.2578C2.6044 16.1129 2.56076 15.9185 2.53724 15.5738C2.51326 15.2223 2.51285 14.7723 2.51285 14.1218C2.51285 13.4712 2.51326 13.0213 2.53724 12.6698C2.56076 12.3251 2.6044 12.1307 2.66444 11.9858C2.86656 11.4978 3.25424 11.1101 3.74219 10.908C3.88714 10.848 4.08148 10.8043 4.4262 10.7808C4.77768 10.7568 5.22767 10.7564 5.87821 10.7564H6.33619C6.75395 10.7564 7.09261 10.4178 7.09261 10C7.09261 9.58224 6.75395 9.24358 6.33619 9.24358Z"
    fill="currentColor"
  />
</svg>
