<svg width="20" height="20" viewBox="0 0 20 20" fill="currentColor" xmlns="http://www.w3.org/2000/svg">
  <path fill-rule="evenodd" d="M7.63964 1.72546L7.5071 1.78509C6.652 2.16943 5.90329 2.51358 5.01769 2.92064L4.59839 3.11333C3.80279 3.47885 3.13032 3.78781 2.6086 4.13088C2.04464 4.50173 1.6136 4.93813 1.32137 5.57517C0.765044 6.78791 1.0281 7.74428 1.38171 9.02992L1.41431 9.14852C2.68131 13.7638 5.9931 16.7233 7.98001 18.1481L8.05309 18.2006C8.65339 18.6319 9.16744 19.0012 10.0003 19C10.8331 18.9988 11.3467 18.6277 11.9464 18.1943L12.0196 18.1415C14.0028 16.711 17.3119 13.7447 18.5827 9.14912L18.6153 9.03134C18.971 7.74755 19.2356 6.79247 18.6796 5.57745C18.1227 4.3604 17.0313 3.85998 15.5464 3.17911L14.9837 2.92066C14.0981 2.51356 13.3494 2.16946 12.4943 1.78509L12.3617 1.72547C11.4234 1.30312 10.7499 1 10.0007 1C9.25148 1 8.57802 1.30311 7.63964 1.72546ZM8.12474 3.20663C9.24899 2.70131 9.61318 2.55416 10.0007 2.55416C10.3882 2.55416 10.7524 2.70131 11.8766 3.20663C12.7255 3.58817 13.4681 3.9295 14.3542 4.33679L14.7244 4.50693C15.6048 4.91146 16.1747 5.18335 16.5628 5.43613C16.9473 5.68655 17.1488 5.91534 17.2943 6.23326C17.4451 6.56271 17.4965 6.82935 17.4635 7.18864C17.43 7.55343 17.3097 8.01266 17.1118 8.72831C15.9791 12.8246 12.9999 15.529 11.1357 16.8737C10.7911 17.1223 10.5851 17.2649 10.4241 17.3462C10.2682 17.4251 10.1563 17.4456 9.99817 17.4458C9.83997 17.4461 9.72806 17.4259 9.57219 17.3476C9.41124 17.2668 9.20519 17.1251 8.86048 16.8779C6.99515 15.5403 4.01524 12.8439 2.88603 8.73055C2.68912 8.01325 2.56941 7.55284 2.53629 7.18747C2.50368 6.8276 2.5553 6.561 2.70607 6.23232C2.84986 5.91886 3.05564 5.68761 3.43822 5.43603C3.85234 5.1637 4.41906 4.90112 5.27699 4.50693L5.64709 4.33683C6.53324 3.92952 7.27585 3.58818 8.12474 3.20663Z" fill="currentColor" />
  <path fill-rule="evenodd" d="M13.4314 6.93004C13.7568 7.18109 13.8171 7.64843 13.5661 7.97386L10.3068 12.1989C10.2999 12.2078 10.293 12.2168 10.2859 12.2259C10.1728 12.3727 10.045 12.5386 9.91747 12.663C9.76712 12.8097 9.52519 12.9925 9.17564 13.0098C8.82609 13.0271 8.56729 12.8691 8.40319 12.738C8.26403 12.6268 8.12039 12.4743 7.99335 12.3394C7.98548 12.331 7.97767 12.3228 7.96993 12.3145L6.48164 10.7361C6.19968 10.437 6.21353 9.966 6.51258 9.68404C6.81164 9.40208 7.28264 9.41593 7.56461 9.71498L9.0529 11.2935C9.06678 11.3082 9.08005 11.3223 9.09277 11.3357C9.1041 11.3211 9.11592 11.3058 9.12828 11.2897L12.3876 7.06473C12.6386 6.73929 13.106 6.67899 13.4314 6.93004Z" fill="currentColor" />
</svg>
