<svg
  xmlns="http://www.w3.org/2000/svg"
  width="20"
  height="20"
  viewBox="0 0 20 20"
  fill="none"
>
  <path
    d="M9.99927 2.49373C11.7344 2.49373 12.9756 2.49476 13.9356 2.59834C14.8816 2.7004 15.4654 2.89481 15.9185 3.22269C16.2439 3.45812 16.5301 3.74308 16.7665 4.06712C17.0958 4.51841 17.291 5.09968 17.3935 6.04173C17.4975 6.99777 17.4985 8.23372 17.4985 9.96165C17.4985 10.3741 17.8343 10.7085 18.2485 10.7085C18.6627 10.7085 18.9985 10.3741 18.9985 9.96165V9.91684C18.9985 8.24351 18.9986 6.92669 18.8848 5.88084C18.7684 4.81169 18.526 3.93749 17.98 3.18912C17.6511 2.73828 17.253 2.3418 16.8002 2.01424C16.0487 1.47052 15.1708 1.22913 14.0972 1.1133C13.047 0.999984 11.7246 0.999991 10.0442 1H9.96283C8.47579 0.999995 7.30998 0.999991 6.37569 1.08222C5.42389 1.166 4.6409 1.33955 3.94101 1.72976C3.01533 2.24586 2.25109 3.00691 1.73282 3.92871C1.34097 4.62568 1.16669 5.4054 1.08257 6.35322C0.99999 7.2836 0.999995 8.44454 1 9.92536V9.99793C0.999995 11.4788 0.99999 12.6397 1.08257 13.5701C1.16669 14.5179 1.34097 15.2976 1.73282 15.9946C2.25109 16.9164 3.01533 17.6774 3.94101 18.1935C4.6409 18.5838 5.42389 18.7573 6.37569 18.8411C7.30998 18.9233 8.47579 18.9233 9.96285 18.9233H9.99927C10.4135 18.9233 10.7493 18.5889 10.7493 18.1764C10.7493 17.764 10.4135 17.4296 9.99927 17.4296C8.46793 17.4296 7.3683 17.4289 6.50776 17.3531C5.65712 17.2783 5.11207 17.1345 4.67379 16.8902C3.98959 16.5087 3.42472 15.9462 3.04165 15.2649C2.79627 14.8284 2.65193 14.2856 2.57674 13.4386C2.50068 12.5816 2.5 11.4866 2.5 9.96165C2.5 8.43671 2.50068 7.34168 2.57674 6.48473C2.65193 5.63765 2.79627 5.09488 3.04165 4.65843C3.42472 3.9771 3.98959 3.41458 4.67379 3.03312C5.11207 2.78876 5.65712 2.64502 6.50776 2.57015C7.3683 2.49441 8.46793 2.49373 9.99927 2.49373Z"
    fill="currentColor"
  />
  <path
    d="M5.41626 5.56385C5.00205 5.56385 4.66626 5.89823 4.66626 6.31072C4.66626 6.7232 5.00205 7.05758 5.41626 7.05758H11.8324C12.2466 7.05758 12.5824 6.7232 12.5824 6.31072C12.5824 5.89823 12.2466 5.56385 11.8324 5.56385H5.41626Z"
    fill="currentColor"
  />
  <path
    d="M5.41626 8.30211C5.00205 8.30211 4.66626 8.63649 4.66626 9.04898C4.66626 9.46146 5.00205 9.79584 5.41626 9.79584H9.0826C9.49681 9.79584 9.8326 9.46146 9.8326 9.04898C9.8326 8.63649 9.49681 8.30211 9.0826 8.30211H5.41626Z"
    fill="currentColor"
  />
  <path
    fill-rule="evenodd"
    clip-rule="evenodd"
    d="M13.8223 10.58C14.0412 10.5132 14.2674 10.4613 14.5103 10.4613C14.7533 10.4613 14.9794 10.5132 15.1983 10.58C15.4079 10.644 15.6565 10.7367 15.9465 10.8448L15.9669 10.8524C16.0754 10.8929 16.1827 10.9323 16.2916 10.9724C16.7478 11.1402 17.2315 11.3181 17.9453 11.6207L17.9691 11.6308C18.0945 11.6839 18.2436 11.747 18.3687 11.8193C18.5241 11.9091 18.6922 12.0391 18.8187 12.2492C19.0341 12.6069 18.995 12.9984 18.9726 13.222L18.9698 13.2502L18.967 13.2803C18.6916 16.3948 16.6688 18.0078 15.5622 18.6621L15.5409 18.6747C15.4276 18.7418 15.2808 18.8288 15.1217 18.8906C14.9251 18.967 14.7299 19 14.5103 19C14.2908 19 14.0956 18.967 13.899 18.8906C13.7399 18.8288 13.5931 18.7418 13.4798 18.6747L13.4585 18.6621C12.3518 18.0078 10.329 16.3948 10.0537 13.2803C10.0521 13.2625 10.0502 13.243 10.0481 13.2221C10.0257 12.9985 9.98653 12.6069 10.202 12.2492C10.3285 12.0391 10.4966 11.9091 10.6519 11.8193C10.7771 11.747 10.9261 11.6839 11.0515 11.6308L11.0754 11.6207C11.7891 11.3181 12.2728 11.1402 12.729 10.9724C12.8379 10.9324 12.9453 10.8929 13.0538 10.8524L13.0741 10.8448C13.3641 10.7367 13.6127 10.644 13.8223 10.58ZM14.2621 12.0081C14.1013 12.0572 13.8957 12.1335 13.5797 12.2513C13.4641 12.2944 13.3522 12.3356 13.2407 12.3766C12.7882 12.5431 12.3406 12.7078 11.663 12.9951C11.6142 13.0157 11.574 13.0328 11.5391 13.048C11.5415 13.0772 11.5445 13.1104 11.5479 13.1493C11.7638 15.5917 13.3305 16.8493 14.2243 17.3777C14.2931 17.4184 14.3383 17.445 14.3778 17.4665C14.4151 17.4868 14.4342 17.4952 14.4441 17.499C14.4516 17.5019 14.4546 17.5026 14.4579 17.5032C14.4625 17.504 14.4776 17.5063 14.5103 17.5063C14.543 17.5063 14.5581 17.504 14.5627 17.5032C14.5661 17.5026 14.5691 17.5019 14.5765 17.499C14.5864 17.4952 14.6056 17.4868 14.6429 17.4665C14.6823 17.445 14.7275 17.4184 14.7964 17.3777C15.6901 16.8493 17.2568 15.5917 17.4728 13.1493C17.4762 13.1104 17.4791 13.0772 17.4815 13.048C17.4467 13.0328 17.4064 13.0157 17.3577 12.9951C16.68 12.7078 16.2325 12.5431 15.78 12.3766C15.6686 12.3357 15.5564 12.2944 15.4409 12.2513C15.125 12.1335 14.9193 12.0572 14.7586 12.0081C14.6023 11.9604 14.539 11.955 14.5103 11.955C14.4817 11.955 14.4184 11.9604 14.2621 12.0081Z"
    fill="currentColor"
  />
</svg>
