<svg width="20" height="20" viewBox="0 0 20 20" fill="currentColor" xmlns="http://www.w3.org/2000/svg">
  <path fill-rule="evenodd" d="M10.0007 1C9.25082 1 8.57687 1.30334 7.63965 1.72516L7.50642 1.7851C6.65176 2.16925 5.90347 2.5132 5.01835 2.92004L4.599 3.11276C3.80408 3.47796 3.13169 3.78688 2.60994 4.12997C2.04571 4.50101 1.61418 4.93782 1.32164 5.57554C0.764869 6.78925 1.02821 7.74668 1.38151 9.03116L1.41426 9.1503C2.68099 13.7646 5.99201 16.7234 7.97823 18.1477L8.05162 18.2004C8.65139 18.6312 9.1663 19.0012 10.0003 19C10.8343 18.9988 11.3487 18.6271 11.9479 18.1941L12.0214 18.141C14.0039 16.711 17.3122 13.7455 18.5828 9.15091L18.6155 9.0326C18.9709 7.74995 19.2358 6.79382 18.6794 5.57782C18.122 4.35976 17.0297 3.85891 15.5465 3.17884L14.9831 2.92006C14.0979 2.51318 13.3496 2.16926 12.4949 1.78509L12.3617 1.72516C11.4245 1.30334 10.7505 1 10.0007 1ZM8.12781 3.2149C8.61826 2.99445 8.96426 2.84185 9.23218 2.73979L9.23218 17.1292C9.12901 17.0591 9.00862 16.9738 8.864 16.8701C7.0001 15.5335 4.02288 12.8395 2.89473 8.72994C2.69789 8.01289 2.57839 7.55321 2.54534 7.18857C2.51283 6.82982 2.56424 6.56423 2.7146 6.23646C2.85784 5.9242 3.06278 5.69374 3.44456 5.44268C3.85807 5.17077 4.42407 4.90849 5.28167 4.51445L5.65161 4.34443C6.53724 3.93736 7.27943 3.59622 8.12781 3.2149ZM10.7693 17.123L10.7693 2.73983C11.0372 2.84188 11.3832 2.99447 11.8736 3.2149C12.7218 3.59616 13.4643 3.93742 14.3497 4.34442L14.7197 4.51446C15.5998 4.91882 16.169 5.1904 16.5565 5.4428C16.9402 5.69267 17.1409 5.92067 17.2858 6.2374C17.4361 6.56594 17.4874 6.83157 17.4545 7.18973C17.421 7.55379 17.3009 8.0123 17.1031 8.72769C15.9714 12.8201 12.995 15.5223 11.1322 16.8659C10.99 16.9685 10.8713 17.0531 10.7693 17.123Z" fill="currentColor" />
</svg>
