<svg width="20" height="20" viewBox="0 0 20 20" fill="currentColor" xmlns="http://www.w3.org/2000/svg">
  <path fill-rule="evenodd" d="M5.47649 12.5371C5.7731 12.8262 6.24793 12.8201 6.53706 12.5235L8.53707 10.4717C8.67595 10.3293 8.75252 10.1375 8.74995 9.93852C8.74737 9.73958 8.66586 9.54982 8.52334 9.41099L6.52336 7.46279C6.22665 7.17376 5.75182 7.17999 5.46279 7.4767C5.17376 7.77341 5.17999 8.24824 5.4767 8.53727L6.93926 9.96196L5.46294 11.4765C5.17381 11.7731 5.17988 12.2479 5.47649 12.5371Z" fill="currentColor" />
  <path fill-rule="evenodd" d="M1 9.89819C1 6.14846 1 4.2736 1.95491 2.95927C2.26331 2.53479 2.6366 2.16151 3.06107 1.85311C4.3754 0.898193 6.25027 0.898193 10 0.898193C13.7497 0.898193 15.6246 0.898193 16.9389 1.85311C17.3634 2.16151 17.7367 2.53479 18.0451 2.95927C19 4.2736 19 6.14846 19 9.89819C19 13.6479 19 15.5228 18.0451 16.8371C17.7367 17.2616 17.3634 17.6349 16.9389 17.9433C15.6246 18.8982 13.7497 18.8982 10 18.8982C6.25027 18.8982 4.3754 18.8982 3.06107 17.9433C2.6366 17.6349 2.26331 17.2616 1.95491 16.8371C1 15.5228 1 13.6479 1 9.89819ZM10 17.3982C8.09172 17.3982 6.781 17.3961 5.77883 17.2876C4.80473 17.182 4.3016 16.9905 3.94275 16.7298C3.64562 16.5139 3.38432 16.2526 3.16844 15.9554C2.90772 15.5966 2.71618 15.0935 2.61064 14.1194C2.50206 13.1172 2.5 11.8065 2.5 9.89819C2.5 7.98991 2.50206 6.67919 2.61064 5.67702C2.71618 4.70292 2.90772 4.19979 3.16844 3.84095C3.38432 3.54381 3.64562 3.28251 3.94275 3.06663C4.3016 2.80592 4.80473 2.61437 5.77883 2.50883C6.781 2.40025 8.09172 2.39819 10 2.39819C10.2563 2.39819 10.5019 2.39823 10.7373 2.39856L10.7373 17.3978C10.5019 17.3982 10.2563 17.3982 10 17.3982ZM12.2373 17.3875L12.2373 2.40893C13.0242 2.42157 13.6695 2.44906 14.2212 2.50883C15.1953 2.61437 15.6984 2.80592 16.0572 3.06663C16.3544 3.28251 16.6157 3.54381 16.8316 3.84095C17.0923 4.19979 17.2838 4.70292 17.3894 5.67702C17.4979 6.67919 17.5 7.98991 17.5 9.89819C17.5 11.8065 17.4979 13.1172 17.3894 14.1194C17.2838 15.0935 17.0923 15.5966 16.8316 15.9554C16.6157 16.2526 16.3544 16.5139 16.0572 16.7298C15.6984 16.9905 15.1953 17.182 14.2212 17.2876C13.6695 17.3473 13.0242 17.3748 12.2373 17.3875Z" fill="currentColor" />
</svg>
