<svg
  xmlns="http://www.w3.org/2000/svg"
  width="20"
  height="20"
  viewBox="0 0 20 20"
  fill="none"
>
  <path
    fill-rule="evenodd"
    clip-rule="evenodd"
    d="M10 17.5C11.9083 17.5 13.219 17.4979 14.2212 17.3894C15.1953 17.2838 15.6984 17.0923 16.0572 16.8316C16.3544 16.6157 16.6157 16.3544 16.8316 16.0572C17.0923 15.6984 17.2838 15.1953 17.3894 14.2212C17.4979 13.219 17.5 11.9083 17.5 10C17.5 8.09172 17.4979 6.781 17.3894 5.77883C17.2838 4.80473 17.0923 4.3016 16.8316 3.94275C16.6157 3.64562 16.3544 3.38432 16.0572 3.16844C15.6984 2.90772 15.1953 2.71617 14.2212 2.61064C13.219 2.50206 11.9083 2.5 10 2.5C9.74368 2.5 9.49815 2.50004 9.2627 2.50036L9.26269 17.4996C9.49815 17.5 9.74368 17.5 10 17.5ZM7.76269 17.4893C6.97575 17.4766 6.33054 17.4491 5.77883 17.3894C4.80473 17.2838 4.3016 17.0923 3.94275 16.8316C3.64562 16.6157 3.38432 16.3544 3.16844 16.0572C2.90772 15.6984 2.71618 15.1953 2.61064 14.2212C2.50206 13.219 2.5 11.9083 2.5 10C2.5 8.09172 2.50206 6.781 2.61064 5.77883C2.71618 4.80473 2.90772 4.3016 3.16844 3.94275C3.38432 3.64562 3.64562 3.38432 3.94275 3.16844C4.3016 2.90772 4.80473 2.71617 5.77883 2.61064C6.33054 2.55086 6.97575 2.52337 7.7627 2.51073L7.76269 17.4893ZM19 10C19 6.25027 19 4.3754 18.0451 3.06107C17.7367 2.6366 17.3634 2.26331 16.9389 1.95491C15.6246 1 13.7497 1 10 1C6.25027 1 4.3754 1 3.06107 1.95491C2.6366 2.26331 2.26331 2.6366 1.95491 3.06107C1 4.3754 1 6.25027 1 10C1 13.7497 1 15.6246 1.95491 16.9389C2.26331 17.3634 2.6366 17.7367 3.06107 18.0451C4.3754 19 6.25027 19 10 19C13.7497 19 15.6246 19 16.9389 18.0451C17.3634 17.7367 17.7367 17.3634 18.0451 16.9389C19 15.6246 19 13.7497 19 10Z"
    fill="currentColor"
  />
  <path
    fill-rule="evenodd"
    clip-rule="evenodd"
    d="M6.88428 5C6.88428 4.58579 6.54849 4.25 6.13428 4.25H4.63428C4.22006 4.25 3.88428 4.58579 3.88428 5C3.88428 5.41421 4.22006 5.75 4.63428 5.75H6.13428C6.54849 5.75 6.88428 5.41421 6.88428 5Z"
    fill="currentColor"
  />
  <path
    fill-rule="evenodd"
    clip-rule="evenodd"
    d="M6.88428 7C6.88428 6.58579 6.54849 6.25 6.13428 6.25H4.63428C4.22006 6.25 3.88428 6.58579 3.88428 7C3.88428 7.41421 4.22006 7.75 4.63428 7.75H6.13428C6.54849 7.75 6.88428 7.41421 6.88428 7Z"
    fill="currentColor"
  />
</svg>
