<svg width="20" height="20" viewBox="0 0 20 20" fill="currentcolor" xmlns="http://www.w3.org/2000/svg">
  <path fill-rule="evenodd" d="M9.94309 5.60511e-07H10.0569C11.4751 -2.05915e-05 12.6183 -3.76478e-05 13.5174 0.119512C14.4508 0.243631 15.2368 0.509163 15.861 1.12651C16.4852 1.74386 16.7537 2.52117 16.8792 3.44436C17 4.33356 17 5.46414 17 6.8668V13.1332C17 14.5359 17 15.6664 16.8792 16.5556C16.7537 17.4788 16.4852 18.2561 15.861 18.8735C15.2368 19.4908 14.4508 19.7564 13.5174 19.8805C12.6183 20 11.4751 20 10.0569 20H9.9431C8.52486 20 7.38171 20 6.48263 19.8805C5.54918 19.7564 4.76324 19.4908 4.13903 18.8735C3.51482 18.2561 3.24634 17.4788 3.12084 16.5556C2.99996 15.6664 2.99998 14.5359 3 13.1332V6.8668C2.99998 5.46414 2.99996 4.33356 3.12084 3.44436C3.24634 2.52117 3.51482 1.74386 4.13903 1.12651C4.76324 0.509163 5.54918 0.243631 6.48263 0.119512C7.38171 -3.76478e-05 8.52485 -2.05915e-05 9.94309 5.60511e-07ZM6.6899 1.64425C5.92895 1.74544 5.52599 1.93051 5.23897 2.21437C4.95196 2.49823 4.76483 2.89676 4.66252 3.64936C4.55721 4.42407 4.55556 5.45086 4.55556 6.92308V13.0769C4.55556 14.5491 4.55721 15.5759 4.66252 16.3506C4.76483 17.1032 4.95196 17.5018 5.23897 17.7856C5.52599 18.0695 5.92895 18.2546 6.6899 18.3557C7.47323 18.4599 8.51142 18.4615 10 18.4615C11.4886 18.4615 12.5268 18.4599 13.3101 18.3557C14.0711 18.2546 14.474 18.0695 14.761 17.7856C15.048 17.5018 15.2352 17.1032 15.3375 16.3506C15.4428 15.5759 15.4444 14.5491 15.4444 13.0769V6.92308C15.4444 5.45086 15.4428 4.42407 15.3375 3.64936C15.2352 2.89676 15.048 2.49823 14.761 2.21437C14.474 1.93051 14.0711 1.74544 13.3101 1.64425C12.5268 1.5401 11.4886 1.53846 10 1.53846C8.51142 1.53846 7.47323 1.5401 6.6899 1.64425Z" fill="currentcolor" />
  <path fill-rule="evenodd" d="M7.14815 16.1345C7.14815 15.7203 7.49638 15.3845 7.92593 15.3845H12.0741C12.5036 15.3845 12.8519 15.7203 12.8519 16.1345C12.8519 16.5487 12.5036 16.8845 12.0741 16.8845H7.92593C7.49638 16.8845 7.14815 16.5487 7.14815 16.1345Z" fill="currentcolor" />
</svg>
