<svg
  xmlns="http://www.w3.org/2000/svg"
  width="20"
  height="20"
  viewBox="0 0 20 20"
  fill="none"
>
  <path
    d="M10 3.46412C9.45999 3.46412 9.02426 3.90997 9.02426 4.4574C9.02426 5.00484 9.45999 5.45068 10 5.45068C10.54 5.45068 10.9758 5.00484 10.9758 4.4574C10.9758 3.90997 10.54 3.46412 10 3.46412Z"
    fill="currentColor"
  />
  <path
    fill-rule="evenodd"
    clip-rule="evenodd"
    d="M9.99999 8.3139C7.58285 8.3139 5.62541 10.3107 5.62541 12.7713C5.62541 15.2319 7.58285 17.2287 9.99999 17.2287C12.4171 17.2287 14.3746 15.2319 14.3746 12.7713C14.3746 10.3107 12.4171 8.3139 9.99999 8.3139ZM7.12373 12.7713C7.12373 11.1505 8.4126 9.83857 9.99999 9.83857C11.5874 9.83857 12.8763 11.1505 12.8763 12.7713C12.8763 14.3921 11.5874 15.704 9.99999 15.704C8.4126 15.704 7.12373 14.3921 7.12373 12.7713Z"
    fill="currentColor"
  />
  <path
    fill-rule="evenodd"
    clip-rule="evenodd"
    d="M10.0563 2.82355e-07H9.94365C8.28232 -1.3896e-05 6.95916 -2.52128e-05 5.92195 0.142103C4.85142 0.288796 3.97415 0.599368 3.28086 1.30597C2.58774 2.01241 2.28325 2.90604 2.13939 3.99655C1.99998 5.05345 1.99999 6.40183 2 8.09529V11.9047C1.99999 13.5982 1.99998 14.9465 2.13939 16.0034C2.28325 17.094 2.58774 17.9876 3.28086 18.694C3.97415 19.4006 4.85142 19.7112 5.92195 19.8579C6.95916 20 8.2823 20 9.94362 20H10.0563C11.7177 20 13.0408 20 14.0781 19.8579C15.1486 19.7112 16.0259 19.4006 16.7191 18.694C17.4123 17.9876 17.7168 17.094 17.8606 16.0034C18 14.9466 18 13.5982 18 11.9048V8.09511C18 6.40174 18 5.05341 17.8606 3.99656C17.7168 2.90604 17.4123 2.01241 16.7191 1.30597C16.0259 0.599368 15.1486 0.288796 14.0781 0.142103C13.0408 -2.51979e-05 11.7177 -1.3896e-05 10.0563 2.82355e-07ZM6.12191 1.65314C7.04754 1.5263 8.26972 1.52468 10 1.52468C11.7303 1.52468 12.9525 1.5263 13.8781 1.65314C14.782 1.777 15.2902 2.00754 15.6588 2.38323C16.0276 2.75908 16.254 3.27753 16.3756 4.1994C16.5001 5.1431 16.5017 6.38905 16.5017 8.15247V11.8475C16.5017 13.611 16.5001 14.8569 16.3756 15.8006C16.254 16.7225 16.0276 17.2409 15.6588 17.6168C15.2902 17.9925 14.782 18.223 13.8781 18.3469C12.9525 18.4737 11.7303 18.4753 10 18.4753C8.26972 18.4753 7.04754 18.4737 6.12191 18.3469C5.21799 18.223 4.70978 17.9925 4.34118 17.6168C3.97241 17.2409 3.746 16.7225 3.62439 15.8006C3.49991 14.8569 3.49832 13.611 3.49832 11.8475V8.15247C3.49832 6.38905 3.49991 5.1431 3.62439 4.1994C3.746 3.27753 3.97241 2.75908 4.34118 2.38323C4.70978 2.00754 5.21799 1.777 6.12191 1.65314Z"
    fill="currentColor"
  />
</svg>
