<svg width="20" height="20" viewBox="0 0 20 20" fill="currentColor" xmlns="http://www.w3.org/2000/svg">
  <path d="M13.2099 7.56915C12.8791 7.31398 12.4041 7.37527 12.1489 7.70605L9.15729 11.5841L7.8025 10.1472C7.51591 9.84325 7.03718 9.82917 6.73322 10.1158C6.42926 10.4024 6.41518 10.8811 6.70177 11.185L8.09909 12.6671C8.21506 12.7902 8.35038 12.9339 8.48268 13.0396C8.64031 13.1655 8.89566 13.3228 9.2425 13.3056C9.58934 13.2884 9.82791 13.1067 9.97233 12.9658C10.0935 12.8476 10.214 12.6913 10.3172 12.5573L13.3468 8.6301C13.6019 8.29933 13.5407 7.82432 13.2099 7.56915Z" fill="currentColor" />
  <path fill-rule="evenodd" d="M10.0456 1H9.95442C8.27568 0.999993 6.95402 0.999987 5.90414 1.11373C4.83065 1.23004 3.95202 1.47249 3.19966 2.01912C2.74664 2.34826 2.34826 2.74664 2.01912 3.19966C1.47249 3.95202 1.23004 4.83065 1.11373 5.90414C0.999987 6.95402 0.999993 8.27568 1 9.95442V10.0456C0.999993 11.7243 0.999987 13.046 1.11373 14.0959C1.23004 15.1693 1.47249 16.048 2.01912 16.8003C2.34826 17.2534 2.74664 17.6517 3.19966 17.9809C3.95202 18.5275 4.83065 18.77 5.90414 18.8863C6.954 19 8.27565 19 9.95436 19H10.0456C11.7244 19 13.046 19 14.0959 18.8863C15.1693 18.77 16.048 18.5275 16.8003 17.9809C17.2534 17.6517 17.6517 17.2534 17.9809 16.8003C18.5275 16.048 18.77 15.1693 18.8863 14.0959C19 13.046 19 11.7244 19 10.0456V9.95436C19 8.27565 19 6.954 18.8863 5.90414C18.77 4.83065 18.5275 3.95202 17.9809 3.19966C17.6517 2.74664 17.2534 2.34826 16.8003 2.01912C16.048 1.47249 15.1693 1.23004 14.0959 1.11373C13.046 0.999987 11.7243 0.999993 10.0456 1ZM6.06709 2.61778C7.02602 2.51389 8.26584 2.51285 10 2.51285C11.7342 2.51285 12.974 2.51389 13.9329 2.61778C14.8777 2.72014 15.4596 2.91501 15.9111 3.24304C16.2357 3.47886 16.5211 3.76431 16.757 4.08889C17.085 4.54038 17.2799 5.12233 17.3822 6.06709C17.4861 7.02602 17.4872 8.26584 17.4872 10C17.4872 11.7342 17.4861 12.974 17.3822 13.9329C17.2799 14.8777 17.085 15.4596 16.757 15.9111C16.5211 16.2357 16.2357 16.5211 15.9111 16.757C15.4596 17.085 14.8777 17.2799 13.9329 17.3822C12.974 17.4861 11.7342 17.4872 10 17.4872C8.26584 17.4872 7.02602 17.4861 6.06709 17.3822C5.12233 17.2799 4.54038 17.085 4.08889 16.757C3.76431 16.5211 3.47886 16.2357 3.24304 15.9111C2.91501 15.4596 2.72014 14.8777 2.61778 13.9329C2.51389 12.974 2.51285 11.7342 2.51285 10C2.51285 8.26584 2.51389 7.02602 2.61778 6.06709C2.72014 5.12233 2.91501 4.54038 3.24304 4.08889C3.47886 3.76431 3.76431 3.47886 4.08889 3.24304C4.54038 2.91501 5.12233 2.72014 6.06709 2.61778Z" fill="currentColor" />
</svg>
