<svg
  xmlns="http://www.w3.org/2000/svg"
  width="20"
  height="20"
  viewBox="0 0 20 20"
  fill="none"
>
  <path
    fill-rule="evenodd"
    clip-rule="evenodd"
    d="M9.95823 1H10.0418C11.737 0.999992 13.0659 0.999986 14.1202 1.11421C15.1961 1.23077 16.0678 1.47291 16.8121 2.01368C17.2627 2.34106 17.6589 2.73731 17.9863 3.18791C18.5271 3.93221 18.7692 4.80394 18.8858 5.87982C19 6.9341 19 8.26296 19 9.95821V10.0418C19 11.737 19 13.0659 18.8858 14.1202C18.7692 15.1961 18.5271 16.0678 17.9863 16.8121C17.6589 17.2627 17.2627 17.6589 16.8121 17.9863C16.0678 18.5271 15.1961 18.7692 14.1202 18.8858C13.0659 19 11.737 19 10.0418 19H9.95821C8.26296 19 6.9341 19 5.87982 18.8858C4.80394 18.7692 3.93221 18.5271 3.18791 17.9863C2.73731 17.6589 2.34106 17.2627 2.01368 16.8121C1.47291 16.0678 1.23077 15.1961 1.11421 14.1202C0.999986 13.0659 0.999992 11.737 1 10.0418V9.95823C0.999992 8.26297 0.999986 6.9341 1.11421 5.87982C1.23077 4.80394 1.47291 3.93221 2.01368 3.18791C2.34106 2.73731 2.73731 2.34106 3.18791 2.01368C3.93221 1.47291 4.80394 1.23077 5.87982 1.11421C6.9341 0.999986 8.26297 0.999992 9.95823 1ZM6.02896 2.49077C5.07089 2.59457 4.47069 2.79316 4.00177 3.13386C3.66872 3.37583 3.37583 3.66872 3.13386 4.00177C2.79316 4.47069 2.59457 5.07089 2.49077 6.02896C2.38557 6.99999 2.38462 8.25393 2.38462 10C2.38462 11.7461 2.38557 13 2.49077 13.971C2.59457 14.9291 2.79316 15.5293 3.13386 15.9982C3.37583 16.3313 3.66872 16.6242 4.00177 16.8661C4.47069 17.2068 5.07089 17.4054 6.02896 17.5092C6.99999 17.6144 8.25393 17.6154 10 17.6154C11.7461 17.6154 13 17.6144 13.971 17.5092C14.9291 17.4054 15.5293 17.2068 15.9982 16.8661C16.3313 16.6242 16.6242 16.3313 16.8661 15.9982C17.2068 15.5293 17.4054 14.9291 17.5092 13.971C17.6144 13 17.6154 11.7461 17.6154 10C17.6154 8.25393 17.6144 6.99999 17.5092 6.02896C17.4054 5.07089 17.2068 4.47069 16.8661 4.00177C16.6242 3.66872 16.3313 3.37583 15.9982 3.13386C15.5293 2.79316 14.9291 2.59457 13.971 2.49077C13 2.38557 11.7461 2.38462 10 2.38462C8.25393 2.38462 6.99999 2.38557 6.02896 2.49077Z"
    fill="currentColor"
  />
  <path
    d="M9.3077 7.38914C9.3077 7.00679 9.61766 6.69684 10 6.69684C10.3824 6.69684 10.6923 7.00679 10.6923 7.38914V9.3077H12.6109C12.9932 9.3077 13.3032 9.61766 13.3032 10C13.3032 10.3824 12.9932 10.6923 12.6109 10.6923H10.6923V12.6109C10.6923 12.9932 10.3824 13.3032 10 13.3032C9.61766 13.3032 9.3077 12.9932 9.3077 12.6109V10.6923H7.38914C7.00679 10.6923 6.69684 10.3824 6.69684 10C6.69684 9.61766 7.00679 9.3077 7.38914 9.3077H9.3077V7.38914Z"
    fill="currentColor"
  />
</svg>
