<svg width="20" height="20" viewBox="0 0 20 20" fill="currentColor" xmlns="http://www.w3.org/2000/svg">
  <path d="M13.7778 2.62018L15.1037 3.24811C15.4281 3.40175 15.4281 3.90998 15.1037 4.06362L13.7778 4.69155C13.6787 4.73847 13.6009 4.82748 13.5618 4.93851L12.8262 7.0289C12.6935 7.40601 12.2106 7.406 12.0779 7.0289L11.3423 4.93851C11.3032 4.82747 11.2254 4.73847 11.1263 4.69155L9.80047 4.06362C9.47607 3.90998 9.47607 3.40175 9.80047 3.24811L11.1263 2.62018C11.2254 2.57325 11.3032 2.48425 11.3423 2.37322L12.0779 0.282832C12.2106 -0.0942778 12.6935 -0.0942768 12.8262 0.282833L13.5618 2.37322C13.6009 2.48425 13.6787 2.57325 13.7778 2.62018Z" fill="currentColor" />
  <path fill-rule="evenodd" d="M6.89139 6.53025C7.28706 5.47075 8.64499 5.47075 9.04066 6.53025L10.5141 10.4757L13.2048 11.6765C14.1745 12.1093 14.1745 13.6263 13.2048 14.0591L10.5141 15.2599L9.04066 19.2054C8.64499 20.2649 7.28706 20.2649 6.89139 19.2054L5.41795 15.2599L2.72722 14.0591C1.75759 13.6263 1.7576 12.1093 2.72722 11.6765L5.41795 10.4757L6.89139 6.53025ZM7.96602 7.6939L6.67025 11.1636C6.55106 11.4828 6.32064 11.7355 6.03094 11.8648L3.78348 12.8678L6.03094 13.8708C6.32064 14.0001 6.55106 14.2528 6.67025 14.572L7.96602 18.0417L9.2618 14.572C9.38099 14.2528 9.61141 14.0001 9.90111 13.8708L12.1486 12.8678L9.90111 11.8648C9.61141 11.7355 9.38099 11.4828 9.2618 11.1636L7.96602 7.6939Z" fill="currentColor" />
  <path d="M17.8225 8.58168L16.8749 8.11049C16.8014 8.0739 16.7442 8.00623 16.7162 7.92263L16.206 6.40035C16.1089 6.1108 15.7383 6.1108 15.6413 6.40035L15.1311 7.92263C15.1031 8.00623 15.0459 8.07391 14.9723 8.11049L14.0248 8.58168C13.7881 8.69939 13.7881 9.0708 14.0248 9.1885L14.9723 9.6597C15.0459 9.69628 15.1031 9.76396 15.1311 9.84755L15.6413 11.3698C15.7383 11.6594 16.1089 11.6594 16.206 11.3698L16.7162 9.84755C16.7442 9.76396 16.8014 9.69628 16.8749 9.6597L17.8225 9.1885C18.0592 9.0708 18.0592 8.69939 17.8225 8.58168Z" fill="currentColor" />
</svg>
