<svg
  xmlns="http://www.w3.org/2000/svg"
  width="20"
  height="20"
  viewBox="0 0 20 20"
  fill="none"
>
  <path
    fill-rule="evenodd"
    clip-rule="evenodd"
    d="M8.8727 7.89074C8.49783 9.01694 7.92549 10.3027 7.06113 11.1353C6.38815 11.7836 5.43926 12.252 4.58734 12.5795C5.43926 12.9071 6.38815 13.3755 7.06113 14.0238C7.92549 14.8563 8.49783 16.1422 8.8727 17.2683C9.24756 16.1422 9.8199 14.8563 10.6843 14.0238C11.3572 13.3755 12.3061 12.9071 13.158 12.5795C12.3061 12.252 11.3572 11.7836 10.6843 11.1353C9.8199 10.3027 9.24756 9.01694 8.8727 7.89074ZM8.32139 5.37103C8.41905 5.28541 8.60705 5.15921 8.8727 5.15921C9.13834 5.15921 9.32634 5.28541 9.424 5.37103C9.52133 5.45636 9.58676 5.55046 9.6268 5.6146C9.7079 5.7445 9.77518 5.90061 9.83192 6.04568C9.94682 6.33945 10.0851 6.76554 10.2547 7.28831L10.2637 7.31585C10.6223 8.42107 11.1122 9.4641 11.726 10.0554C12.2537 10.5637 13.1272 10.9832 14.0116 11.2955L14.0427 11.3065C14.4273 11.4422 14.7571 11.5587 14.9885 11.6603C15.1036 11.7108 15.2435 11.7783 15.3645 11.8679C15.4512 11.9321 15.7454 12.1634 15.7454 12.5795C15.7454 12.9957 15.4512 13.227 15.3645 13.2912C15.2435 13.3808 15.1036 13.4483 14.9885 13.4988C14.7571 13.6004 14.4273 13.7169 14.0427 13.8526L14.0116 13.8636C13.1272 14.1759 12.2537 14.5954 11.726 15.1037C11.1122 15.695 10.6223 16.738 10.2637 17.8432L10.2547 17.8708C10.0851 18.3936 9.94682 18.8196 9.83192 19.1134C9.77518 19.2585 9.7079 19.4146 9.6268 19.5445C9.58676 19.6086 9.52133 19.7027 9.424 19.7881C9.32634 19.8737 9.13834 19.9999 8.8727 19.9999C8.60705 19.9999 8.41905 19.8737 8.32139 19.7881C8.22406 19.7027 8.15864 19.6086 8.11859 19.5445C8.0375 19.4146 7.97021 19.2585 7.91347 19.1134C7.79856 18.8196 7.66027 18.3935 7.49062 17.8707L7.48172 17.8432C7.12305 16.738 6.63323 15.695 6.01941 15.1037C5.49164 14.5954 4.61819 14.1759 3.73378 13.8636L3.7027 13.8527C3.3181 13.7169 2.98835 13.6004 2.75691 13.4988C2.6418 13.4483 2.50188 13.3808 2.38089 13.2912C2.29417 13.227 2 12.9957 2 12.5795C2 12.1634 2.29417 11.9321 2.38089 11.8679C2.50188 11.7783 2.6418 11.7108 2.75691 11.6603C2.98835 11.5586 3.3181 11.4422 3.7027 11.3064L3.73378 11.2955C4.61819 10.9832 5.49164 10.5637 6.01941 10.0554C6.63323 9.4641 7.12305 8.42107 7.48172 7.31585L7.49063 7.28837C7.66028 6.76558 7.79856 6.33946 7.91347 6.04568C7.97021 5.90061 8.0375 5.7445 8.11859 5.6146C8.15864 5.55046 8.22406 5.45636 8.32139 5.37103Z"
    fill="currentColor"
  />
  <path
    d="M16.8203 7.4586C16.9525 7.57696 17.1228 7.67912 17.3057 7.76613C17.7686 7.98629 18 8.09638 18 8.17017C18 8.24395 17.7686 8.35404 17.3057 8.5742C17.1228 8.66121 16.9525 8.76337 16.8203 8.88173C16.6544 9.03031 16.5158 9.23356 16.4012 9.45593C16.1288 9.98417 15.9927 10.2483 15.9204 10.2483C15.8482 10.2483 15.712 9.98417 15.4397 9.45593C15.325 9.23356 15.1865 9.03031 15.0205 8.88173C14.8883 8.76337 14.7181 8.66121 14.5351 8.5742C14.0723 8.35404 13.8408 8.24395 13.8408 8.17017C13.8408 8.09638 14.0723 7.98629 14.5351 7.76613C14.7181 7.67912 14.8883 7.57696 15.0205 7.4586C15.1865 7.31002 15.325 7.10677 15.4397 6.8844C15.712 6.35616 15.8482 6.09204 15.9204 6.09204C15.9927 6.09204 16.1288 6.35616 16.4012 6.8844C16.5158 7.10677 16.6544 7.31002 16.8203 7.4586Z"
    fill="currentColor"
  />
  <path
    d="M14.094 2.10713C14.3652 2.35255 14.7602 2.54461 15.1479 2.68878C15.6293 2.86778 15.87 2.95728 15.87 3.03594C15.87 3.1146 15.6293 3.2041 15.1479 3.38311C14.7602 3.52728 14.3652 3.71933 14.094 3.96475C13.7599 4.26725 13.5117 4.74336 13.3326 5.21702C13.1178 5.78465 13.0105 6.06846 12.9322 6.06846C12.8539 6.06846 12.7466 5.78465 12.5319 5.21702C12.3527 4.74336 12.1046 4.26725 11.7704 3.96475C11.4993 3.71933 11.1042 3.52728 10.7165 3.38311C10.2351 3.2041 9.99439 3.1146 9.99439 3.03594C9.99439 2.95728 10.2351 2.86778 10.7165 2.68878C11.1042 2.54461 11.4993 2.35255 11.7704 2.10713C12.1046 1.80463 12.3527 1.32852 12.5319 0.854857C12.7466 0.287231 12.8539 0.00341797 12.9322 0.00341797C13.0105 0.00341797 13.1178 0.287234 13.3326 0.854858C13.5117 1.32852 13.7599 1.80463 14.094 2.10713Z"
    fill="currentColor"
  />
</svg>
