<svg width="20" height="20" viewBox="0 0 20 20" fill="currentcolor" xmlns="http://www.w3.org/2000/svg">
  <path fill-rule="evenodd" d="M7.48572 16.24C7.48572 15.8258 7.79272 15.49 8.17143 15.49H11.8286C12.2073 15.49 12.5143 15.8258 12.5143 16.24C12.5143 16.6542 12.2073 16.99 11.8286 16.99H8.17143C7.79272 16.99 7.48572 16.6542 7.48572 16.24Z" fill="currentcolor" />
  <path fill-rule="evenodd" d="M11.8731 4.86217e-07H8.12689C6.88408 -1.81321e-05 5.8787 -3.31923e-05 5.08715 0.108339C4.26382 0.221062 3.56529 0.462946 3.00983 1.02859C2.45445 1.59415 2.21703 2.30523 2.10637 3.14337C1.99997 3.94931 1.99998 4.973 2 6.2387V13.7613C1.99998 15.027 1.99997 16.0507 2.10637 16.8566C2.21703 17.6948 2.45445 18.4059 3.00983 18.9714C3.56529 19.5371 4.26382 19.7789 5.08715 19.8917C5.87872 20 6.88411 20 8.12696 20H11.873C13.1159 20 14.1213 20 14.9128 19.8917C15.7362 19.7789 16.4347 19.5371 16.9902 18.9714C17.5456 18.4059 17.783 17.6948 17.8936 16.8566C18 16.0507 18 15.027 18 13.7613V6.23869C18 4.97299 18 3.9493 17.8936 3.14337C17.783 2.30523 17.5456 1.59415 16.9902 1.02859C16.4347 0.462946 15.7362 0.221062 14.9128 0.108339C14.1213 -3.31923e-05 13.1159 -1.81321e-05 11.8731 4.86217e-07ZM5.27854 1.55553C5.96322 1.46179 6.87171 1.46024 8.17939 1.46024H11.8206C13.1283 1.46024 14.0368 1.46179 14.7215 1.55553C15.3854 1.64644 15.7305 1.8118 15.9749 2.0607C16.2194 2.30969 16.3819 2.66136 16.4713 3.33778C16.5633 4.03516 16.5648 4.96045 16.5648 6.29205V13.708C16.5648 15.0396 16.5633 15.9648 16.4713 16.6622C16.3819 17.3386 16.2194 17.6903 15.9749 17.9393C15.7305 18.1882 15.3854 18.3536 14.7215 18.4445C14.0368 18.5382 13.1283 18.5398 11.8206 18.5398H8.17939C6.87171 18.5398 5.96322 18.5382 5.27854 18.4445C4.61458 18.3536 4.26948 18.1882 4.02505 17.9393C3.78055 17.6903 3.61805 17.3386 3.52875 16.6622C3.43667 15.9648 3.43515 15.0396 3.43515 13.708V6.29205C3.43515 4.96045 3.43667 4.03516 3.52875 3.33778C3.61805 2.66136 3.78055 2.30969 4.02505 2.0607C4.26948 1.8118 4.61458 1.64644 5.27854 1.55553Z" fill="currentcolor" />
</svg>
