<svg width="20" height="20" viewBox="0 0 20 20" fill="currentColor" xmlns="http://www.w3.org/2000/svg">
  <path d="M5.65281 6.83287C5.31733 6.53988 4.80358 6.56904 4.50474 6.89845C4.20527 7.22854 4.2354 7.73463 4.57158 8.02822L6.82894 9.99968L4.58207 11.8954C4.24086 12.1832 4.20186 12.6887 4.49556 13.0238C4.78864 13.3582 5.30182 13.396 5.64232 13.1087L8.59595 10.6168C8.77398 10.4666 8.87756 10.248 8.87957 10.0169C8.88159 9.78591 8.78184 9.56558 8.60644 9.4124L5.65281 6.83287Z" fill="currentColor" />
  <path d="M9.39688 11.9683C8.97699 11.9683 8.63454 12.3025 8.63454 12.7174C8.63454 13.1323 8.97699 13.4666 9.39688 13.4666L14.9395 13.4666C15.3594 13.4666 15.7018 13.1323 15.7018 12.7174C15.7018 12.3025 15.3594 11.9683 14.9395 11.9683H9.39688Z" fill="currentColor" />
  <path fill-rule="evenodd" d="M11.8917 2H8.10828C6.63103 1.99999 5.46202 1.99999 4.53058 2.09632C3.57639 2.195 2.7842 2.40146 2.09816 2.87277C1.6281 3.19571 1.21919 3.59689 0.88997 4.05821C0.409354 4.73166 0.198805 5.50942 0.0981859 6.446C-1.39837e-05 7.36007 -7.67667e-06 8.50721 1.39091e-07 9.95644V10.0436C-7.67667e-06 11.4928 -1.39763e-05 12.6399 0.0981859 13.554C0.198805 14.4906 0.409354 15.2683 0.88997 15.9418C1.21919 16.4031 1.6281 16.8043 2.09816 17.1272C2.7842 17.5985 3.57639 17.805 4.53058 17.9037C5.46203 18 6.63106 18 8.10833 18H11.8916C13.3688 18 14.538 18 15.4694 17.9037C16.4236 17.805 17.2158 17.5985 17.9018 17.1272C18.3719 16.8043 18.7808 16.4031 19.11 15.9418C19.5906 15.2683 19.8012 14.4906 19.9018 13.554C20 12.6399 20 11.4928 20 10.0435V9.95651C20 8.50725 20 7.36009 19.9018 6.446C19.8012 5.50942 19.5906 4.73166 19.11 4.05821C18.7808 3.59689 18.3719 3.19571 17.9018 2.87277C17.2158 2.40146 16.4236 2.195 15.4694 2.09632C14.538 1.99999 13.369 1.99999 11.8917 2ZM4.69016 3.58641C5.5325 3.49929 6.62137 3.49832 8.15247 3.49832H11.8475C13.3786 3.49832 14.4675 3.49929 15.3098 3.58641C16.1387 3.67212 16.6406 3.83447 17.0282 4.10076C17.3526 4.32361 17.6347 4.60039 17.8617 4.91853C18.1329 5.29849 18.2982 5.79047 18.3856 6.60332C18.4743 7.42956 18.4753 8.49768 18.4753 10C18.4753 11.5023 18.4743 12.5704 18.3856 13.3967C18.2982 14.2095 18.1329 14.7015 17.8617 15.0815C17.6347 15.3996 17.3526 15.6764 17.0282 15.8992C16.6406 16.1655 16.1387 16.3279 15.3098 16.4136C14.4675 16.5007 13.3786 16.5017 11.8475 16.5017H8.15247C6.62137 16.5017 5.5325 16.5007 4.69016 16.4136C3.86131 16.3279 3.35936 16.1655 2.97176 15.8992C2.64738 15.6764 2.3653 15.3996 2.13826 15.0815C1.8671 14.7015 1.70176 14.2095 1.61444 13.3967C1.52567 12.5704 1.52468 11.5023 1.52468 10C1.52468 8.49768 1.52567 7.42956 1.61444 6.60332C1.70176 5.79047 1.8671 5.29849 2.13826 4.91853C2.3653 4.60039 2.64738 4.32361 2.97176 4.10076C3.35936 3.83447 3.86131 3.67212 4.69016 3.58641Z" fill="currentColor" />
</svg>
