<svg
  xmlns="http://www.w3.org/2000/svg"
  width="20"
  height="20"
  viewBox="0 0 20 20"
  fill="none"
>
  <path
    d="M7.48016 8.92385C7.16195 8.65868 6.68903 8.70167 6.42385 9.01988C6.15868 9.33809 6.20167 9.81101 6.51988 10.0762L9.51988 12.5762C9.83809 12.8414 10.311 12.7984 10.5762 12.4802C10.8414 12.1619 10.7984 11.689 10.4802 11.4239L7.48016 8.92385Z"
    fill="currentColor"
  />
  <path
    fill-rule="evenodd"
    clip-rule="evenodd"
    d="M8.19354 0.769231C8.19354 0.344396 8.54016 0 8.96774 0H11.0323C11.4598 0 11.8064 0.344396 11.8064 0.769231C11.8064 1.19407 11.4598 1.53846 11.0323 1.53846H10.7742V4.13928C11.7049 4.22809 12.589 4.47533 13.3989 4.85355L13.7035 4.33472L13.5905 4.27427C13.2139 4.07292 13.073 3.60643 13.2757 3.23234C13.4783 2.85825 13.9478 2.71822 14.3243 2.91956L15.9411 3.78422C16.3176 3.98556 16.4586 4.45205 16.2559 4.82614C16.0533 5.20023 15.5838 5.34026 15.2073 5.13892L15.0677 5.06429L14.7298 5.63992C16.7128 7.08656 18 9.41955 18 12.0513C18 16.4412 14.4183 20 10 20C5.58172 20 2 16.4412 2 12.0513C2 7.9208 5.1708 4.52617 9.22583 4.13928V1.53846H8.96774C8.54016 1.53846 8.19354 1.19407 8.19354 0.769231ZM10 5.641C6.43687 5.641 3.54839 8.51097 3.54839 12.0513C3.54839 15.5915 6.43687 18.4615 10 18.4615C13.5631 18.4615 16.4516 15.5915 16.4516 12.0513C16.4516 8.51097 13.5631 5.641 10 5.641Z"
    fill="currentColor"
  />
</svg>
