<svg
  xmlns="http://www.w3.org/2000/svg"
  width="20"
  height="20"
  viewBox="0 0 20 20"
  fill="none"
>
  <path
    fill-rule="evenodd"
    clip-rule="evenodd"
    d="M11 10C11 12.2091 9.20914 14 7 14C4.79086 14 3 12.2091 3 10C3 7.79086 4.79086 6 7 6C9.20914 6 11 7.79086 11 10ZM9.5 10C9.5 11.3807 8.38071 12.5 7 12.5C5.61929 12.5 4.5 11.3807 4.5 10C4.5 8.61929 5.61929 7.5 7 7.5C8.38071 7.5 9.5 8.61929 9.5 10Z"
    fill="currentColor"
  />
  <path
    fill-rule="evenodd"
    clip-rule="evenodd"
    d="M0 10C0 6.13401 3.13401 3 7 3H13C16.866 3 20 6.13401 20 10C20 13.866 16.866 17 13 17H7C3.13401 17 0 13.866 0 10ZM7 4.5H13C16.0376 4.5 18.5 6.96243 18.5 10C18.5 13.0376 16.0376 15.5 13 15.5H7C3.96243 15.5 1.5 13.0376 1.5 10C1.5 6.96243 3.96243 4.5 7 4.5Z"
    fill="currentColor"
  />
</svg>
