<svg
  xmlns="http://www.w3.org/2000/svg"
  width="20"
  height="20"
  viewBox="0 0 20 20"
  fill="none"
>
  <path
    fill-rule="evenodd"
    clip-rule="evenodd"
    d="M2.77441 7.22571C2.77441 3.23506 6.00947 0 10.0001 0C11.5775 0 13.0388 0.506286 14.2275 1.36507C14.5643 1.6084 14.6401 2.0787 14.3968 2.41551C14.1534 2.75232 13.6831 2.8281 13.3463 2.58477C12.4055 1.90507 11.2507 1.5047 10.0001 1.5047C6.8405 1.5047 4.27912 4.06608 4.27912 7.22571V7.6685C4.27912 8.08401 3.94228 8.42085 3.52677 8.42085C3.11125 8.42085 2.77441 8.08401 2.77441 7.6685V7.22571ZM15.5461 3.80146C15.9224 3.62519 16.3703 3.78732 16.5466 4.16359C16.9826 5.09426 17.2258 6.13262 17.2258 7.22571V12.7743C17.2258 16.7649 13.9908 20 10.0001 20C9.33621 20 8.69205 19.9103 8.07969 19.7418C7.67906 19.6316 7.44362 19.2175 7.55382 18.8169C7.66402 18.4162 8.07814 18.1808 8.47877 18.291C8.96234 18.424 9.47231 18.4953 10.0001 18.4953C13.1597 18.4953 15.7211 15.9339 15.7211 12.7743V7.22571C15.7211 6.35778 15.5284 5.53696 15.184 4.80193C15.0077 4.42566 15.1699 3.97773 15.5461 3.80146ZM3.52677 10.1332C3.94228 10.1332 4.27912 10.4701 4.27912 10.8856V12.7743C4.27912 14.3825 4.94169 15.8346 6.0107 16.8748C6.30849 17.1646 6.31499 17.6409 6.02521 17.9387C5.73543 18.2365 5.25912 18.243 4.96133 17.9532C3.61322 16.6414 2.77441 14.8051 2.77441 12.7743V10.8856C2.77441 10.4701 3.11125 10.1332 3.52677 10.1332Z"
    fill="currentColor"
  />
  <path
    fill-rule="evenodd"
    clip-rule="evenodd"
    d="M8.68357 3.07761C9.09634 2.93172 9.53981 2.85266 10.0001 2.85266C12.1816 2.85266 13.95 4.62107 13.95 6.80251V13.1975C13.95 13.6578 13.8709 14.1013 13.725 14.514C13.5865 14.9058 13.1567 15.1111 12.7649 14.9727C12.3732 14.8342 12.1679 14.4044 12.3063 14.0126C12.3961 13.7586 12.4453 13.4846 12.4453 13.1975V6.80251C12.4453 5.45209 11.3505 4.35737 10.0001 4.35737C9.71299 4.35737 9.43897 4.40654 9.18501 4.49631C8.79324 4.63477 8.36341 4.42944 8.22494 4.03768C8.08647 3.64592 8.29181 3.21608 8.68357 3.07761ZM7.06037 5.33398C7.4648 5.42929 7.7154 5.83441 7.62009 6.23884C7.57762 6.41907 7.55498 6.60766 7.55498 6.80251V13.1975C7.55498 14.5479 8.6497 15.6426 10.0001 15.6426C10.1398 15.6426 10.2762 15.631 10.4086 15.6088C10.8183 15.54 11.2063 15.8165 11.275 16.2263C11.3438 16.6361 11.0673 17.024 10.6575 17.0928C10.4432 17.1287 10.2236 17.1473 10.0001 17.1473C7.81868 17.1473 6.05028 15.3789 6.05028 13.1975V6.80251C6.05028 6.49061 6.08657 6.18622 6.15551 5.89371C6.25081 5.48927 6.65593 5.23867 7.06037 5.33398Z"
    fill="currentColor"
  />
  <path
    fill-rule="evenodd"
    clip-rule="evenodd"
    d="M10.0001 6.73981C10.4156 6.73981 10.7525 7.07665 10.7525 7.49216L10.7525 12.5078C10.7525 12.9233 10.4156 13.2602 10.0001 13.2602C9.58461 13.2602 9.24777 12.9233 9.24777 12.5078L9.24777 7.49216C9.24777 7.07665 9.58461 6.73981 10.0001 6.73981Z"
    fill="currentColor"
  />
</svg>
