<svg width="20" height="20" viewBox="0 0 20 20" fill="currentcolor" xmlns="http://www.w3.org/2000/svg">
  <path fill-rule="evenodd" d="M10.2415 3.50243C10.8442 3.50243 11.258 3.50285 11.5804 3.52521C11.8959 3.5471 12.0677 3.58738 12.1927 3.64009C12.6136 3.81772 12.9486 4.15298 13.1261 4.57434C13.1787 4.69937 13.219 4.87141 13.2408 5.1872C13.2632 5.50989 13.2636 5.92407 13.2636 6.52727V10.9887C13.2636 11.4036 13.5996 11.7399 14.0141 11.7399C14.4286 11.7399 14.7646 11.4036 14.7646 10.9887V7.52413L16.4653 8.01217C17.0188 8.17101 17.3854 8.27697 17.6617 8.38443C17.9256 8.48702 18.0476 8.56955 18.1291 8.65049C18.2142 8.73502 18.2868 8.83136 18.3445 8.93656C18.3997 9.03728 18.4454 9.17745 18.4712 9.45957C18.4843 9.60271 18.4912 9.76614 18.4949 9.96212L17.0162 9.96213C16.6017 9.96213 16.2657 10.2985 16.2657 10.7133C16.2657 11.1282 16.6017 11.4646 17.0162 11.4646L18.499 11.4645V12.2627C18.499 12.9922 18.4974 13.4637 18.4507 13.8112C18.4069 14.137 18.3363 14.2391 18.2791 14.2963C18.222 14.3535 18.12 14.4242 17.7944 14.468C17.4668 14.5121 17.0287 14.516 16.3676 14.5163C16.0416 13.3724 14.9895 12.5349 13.742 12.5349C12.4945 12.5349 11.4425 13.3724 11.1164 14.5164H7.22419C6.89817 13.3724 5.84609 12.5349 4.59859 12.5349C3.42911 12.5349 2.43137 13.271 2.04255 14.3055C1.71581 14.0841 1.50105 13.7097 1.50105 13.285V10.9887C1.50105 10.5738 1.16503 10.2375 0.75053 10.2375C0.336028 10.2375 7.63471e-06 10.5738 7.63471e-06 10.9887V13.285C7.63471e-06 14.5205 0.818783 15.5645 1.94283 15.9032C2.22909 17.1057 3.3095 18 4.59859 18C5.84601 18 6.89803 17.1626 7.22412 16.0188H11.1165C11.4426 17.1626 12.4946 18 13.742 18C14.9895 18 16.0415 17.1626 16.3676 16.0188C17.0028 16.0187 17.5517 16.0167 17.9945 15.9571C18.4864 15.8909 18.958 15.7416 19.3405 15.3587C19.723 14.9758 19.8722 14.5038 19.9383 14.0114C20.0001 13.5519 20 12.9781 20 12.3122V10.6802C20 10.1457 20 9.69464 19.966 9.32254C19.93 8.92939 19.852 8.56301 19.6601 8.21329C19.5332 7.98186 19.3736 7.76991 19.1863 7.58395C18.9033 7.30293 18.573 7.12694 18.2053 6.98398C17.8573 6.84866 17.4241 6.72434 16.9108 6.57706L14.7636 5.96088C14.7617 5.62702 14.7558 5.33628 14.7383 5.08332C14.711 4.68974 14.653 4.33215 14.5092 3.99069C14.1796 3.20818 13.5576 2.58555 12.7758 2.25566C12.4346 2.11171 12.0774 2.05366 11.6841 2.02638C11.3037 1.99999 10.8377 1.99999 10.268 2H0.75053C0.336028 2 7.63471e-06 2.33633 7.63471e-06 2.75121C7.63471e-06 3.1661 0.336028 3.50243 0.75053 3.50243H10.2415ZM4.59859 16.4976C5.27734 16.4976 5.82757 15.9468 5.82757 15.2675C5.82757 14.5881 5.27734 14.0374 4.59859 14.0374C3.91984 14.0374 3.36961 14.5881 3.36961 15.2675C3.36961 15.9468 3.91984 16.4976 4.59859 16.4976ZM13.742 16.4976C14.4208 16.4976 14.971 15.9468 14.971 15.2675C14.971 14.5881 14.4208 14.0374 13.742 14.0374C13.0633 14.0374 12.5131 14.5881 12.5131 15.2675C12.5131 15.9468 13.0633 16.4976 13.742 16.4976Z" fill="currentcolor" />
  <path d="M1.55027 5.47977C1.55027 5.06489 1.88629 4.72856 2.30079 4.72856H6.00853C6.42303 4.72856 6.75905 5.06489 6.75905 5.47977C6.75905 5.89465 6.42303 6.23098 6.00853 6.23098H2.30079C1.88629 6.23098 1.55027 5.89465 1.55027 5.47977Z" fill="currentcolor" />
  <path d="M0.750522 7.2639C0.33602 7.2639 0 7.60023 0 8.01511C0 8.43 0.33602 8.76633 0.750522 8.76633L5.69418 8.76633C6.10868 8.76633 6.4447 8.43 6.4447 8.01511C6.4447 7.60023 6.10868 7.2639 5.69418 7.2639L0.750522 7.2639Z" fill="currentcolor" />
</svg>
