<svg width="20" height="20" viewBox="0 0 20 20" fill="currentcolor" xmlns="http://www.w3.org/2000/svg">
  <path fill-rule="evenodd" d="M10.2415 3.6428C10.8442 3.6428 11.258 3.64322 11.5804 3.66537C11.8959 3.68704 12.0677 3.72693 12.1927 3.77913C12.6136 3.95505 12.9486 4.28706 13.1261 4.70433C13.1787 4.82816 13.219 4.99852 13.2408 5.31126C13.2632 5.63083 13.2636 6.04099 13.2636 6.63835V11.0566C13.2636 11.4674 13.5996 11.8005 14.0141 11.8005C14.4286 11.8005 14.7646 11.4674 14.7646 11.0566V7.62555L16.4653 8.10887C17.0188 8.26618 17.3854 8.37111 17.6617 8.47752C17.9256 8.57912 18.0476 8.66085 18.1291 8.74101C18.2142 8.82472 18.2868 8.92013 18.3445 9.0243C18.3997 9.12405 18.4454 9.26286 18.4712 9.54225C18.4843 9.68401 18.4912 9.84585 18.4949 10.0399L17.0162 10.0399C16.6017 10.0399 16.2657 10.373 16.2657 10.7839C16.2657 11.1948 16.6017 11.5278 17.0162 11.5278L18.499 11.5278V12.3183C18.499 13.0407 18.4974 13.5077 18.4507 13.8517C18.4069 14.1744 18.3363 14.2755 18.2791 14.3322C18.222 14.3888 18.12 14.4588 17.7944 14.5022C17.4668 14.5459 17.0287 14.5497 16.3677 14.55C16.0416 13.4172 14.9896 12.5879 13.7421 12.5879C12.4946 12.5879 11.4425 13.4172 11.1165 14.5501H7.2241C6.89807 13.4172 5.84601 12.5879 4.59852 12.5879C3.42905 12.5879 2.43134 13.3167 2.0425 14.3412C1.71579 14.122 1.50105 13.7512 1.50105 13.3307L1.50105 11.0566C1.50105 10.6457 1.16502 10.3126 0.750521 10.3126C0.33602 10.3126 0 10.6457 0 11.0566V13.3307C0 14.5541 0.818736 15.588 1.94274 15.9234C2.22898 17.1144 3.3094 18 4.59852 18C5.84595 18 6.89797 17.1707 7.22406 16.0379H11.1165C11.4426 17.1707 12.4947 18 13.7421 18C14.9895 18 16.0415 17.1707 16.3676 16.0379C17.0029 16.0379 17.5518 16.0358 17.9945 15.9768C18.4864 15.9113 18.958 15.7634 19.3405 15.3843C19.723 15.0051 19.8722 14.5376 19.9383 14.05C20.0001 13.5949 20 13.0267 20 12.3672V10.751C20 10.2218 20 9.77505 19.966 9.40654C19.93 9.01721 19.852 8.65438 19.6601 8.30805C19.5332 8.07886 19.3736 7.86896 19.1863 7.68479C18.9033 7.4065 18.573 7.23222 18.2053 7.09064C17.8573 6.95662 17.4241 6.83351 16.9108 6.68765L14.7636 6.07745C14.7617 5.74682 14.7558 5.4589 14.7383 5.20839C14.711 4.81862 14.653 4.46449 14.5092 4.12634C14.1796 3.3514 13.5576 2.73481 12.7758 2.40811C12.4346 2.26556 12.0774 2.20807 11.6841 2.18105C11.3037 2.15492 10.8377 2.15492 10.2681 2.15493H9.01062C8.59612 2.15493 8.2601 2.488 8.2601 2.89886C8.2601 3.30973 8.59612 3.6428 9.01062 3.6428H10.2415ZM4.59852 16.5121C5.27726 16.5121 5.8275 15.9667 5.8275 15.2939C5.8275 14.6211 5.27726 14.0757 4.59852 14.0757C3.91977 14.0757 3.36953 14.6211 3.36953 15.2939C3.36953 15.9667 3.91977 16.5121 4.59852 16.5121ZM13.7421 16.5121C14.4208 16.5121 14.9711 15.9667 14.9711 15.2939C14.9711 14.6211 14.4208 14.0757 13.7421 14.0757C13.0633 14.0757 12.5131 14.6211 12.5131 15.2939C12.5131 15.9667 13.0633 16.5121 13.7421 16.5121Z" fill="currentcolor" />
  <path fill-rule="evenodd" d="M3.78828 4.3713C4.20279 4.3713 4.53881 4.70437 4.53881 5.11524V5.85918H5.28933C5.70383 5.85918 6.03985 6.19225 6.03985 6.60311C6.03985 7.01398 5.70383 7.34705 5.28933 7.34705H3.78828C3.37378 7.34705 3.03776 7.01398 3.03776 6.60311V5.11524C3.03776 4.70437 3.37378 4.3713 3.78828 4.3713Z" fill="currentcolor" />
  <path fill-rule="evenodd" d="M4.25736 3.48788C2.73752 3.48788 1.50544 4.70914 1.50544 6.21565C1.50544 7.72215 2.73752 8.94342 4.25736 8.94342C5.7772 8.94342 7.00928 7.72215 7.00928 6.21565C7.00928 4.70914 5.7772 3.48788 4.25736 3.48788ZM0.00439759 6.21565C0.00439759 3.88741 1.90851 2 4.25736 2C6.60621 2 8.51032 3.88741 8.51032 6.21565C8.51032 8.54388 6.60621 10.4313 4.25736 10.4313C1.90851 10.4313 0.00439759 8.54388 0.00439759 6.21565Z" fill="currentcolor" />
</svg>
