<svg
  xmlns="http://www.w3.org/2000/svg"
  width="20"
  height="20"
  viewBox="0 0 20 20"
  fill="none"
>
  <path
    fill-rule="evenodd"
    clip-rule="evenodd"
    d="M5.70028 2L10.268 2C10.8377 2 11.3037 1.99999 11.6842 2.02638C12.0774 2.05366 12.4346 2.11171 12.7758 2.25566C13.5576 2.58556 14.1796 3.20818 14.5092 3.9907C14.653 4.33215 14.711 4.68974 14.7383 5.08332C14.7558 5.33629 14.7617 5.62703 14.7636 5.96088L16.9108 6.57705C17.4241 6.72434 17.8573 6.84866 18.2053 6.98398C18.573 7.12695 18.9033 7.30293 19.1863 7.58395C19.3736 7.76992 19.5332 7.98187 19.6601 8.21329C19.852 8.56301 19.93 8.92939 19.966 9.32254C20 9.69464 20 10.1457 20 10.6802V12.3122C20 12.9781 20.0001 13.5519 19.9383 14.0114C19.8722 14.5038 19.723 14.9758 19.3405 15.3587C18.958 15.7416 18.4864 15.8909 17.9945 15.9571C17.5517 16.0167 17.0028 16.0187 16.3676 16.0188C16.0415 17.1626 14.9895 18 13.742 18C12.4946 18 11.4426 17.1626 11.1165 16.0188H7.36131C7.03521 17.1626 5.9832 18 4.73577 18C3.46095 18 2.39021 17.1254 2.08981 15.943C0.890869 15.6541 4.33225e-06 14.5737 4.02678e-06 13.285L7.05197e-07 7.70552C-2.23969e-05 6.57088 -4.12752e-05 5.64362 0.0982878 4.91159C0.20107 4.1464 0.423507 3.48299 0.952568 2.95345C1.48163 2.4239 2.14443 2.20126 2.90891 2.09838C3.64027 1.99996 4.56668 1.99998 5.70028 2ZM2.15525 14.3733C2.52527 13.3033 3.54088 12.5349 4.73577 12.5349C5.98328 12.5349 7.03535 13.3724 7.36137 14.5164H11.1164C11.4425 13.3724 12.4945 12.5349 13.742 12.5349C14.9895 12.5349 16.0416 13.3724 16.3676 14.5163C17.0287 14.516 17.4668 14.5121 17.7944 14.468C18.12 14.4242 18.222 14.3535 18.2791 14.2963C18.3363 14.2391 18.4069 14.137 18.4507 13.8112C18.4974 13.4637 18.499 12.9922 18.499 12.2627V11.4645L17.0162 11.4646C16.6017 11.4646 16.2657 11.1282 16.2657 10.7133C16.2657 10.2985 16.6017 9.96213 17.0162 9.96213L18.4949 9.96212C18.4912 9.76614 18.4843 9.60271 18.4712 9.45957C18.4454 9.17745 18.3997 9.03728 18.3445 8.93656C18.2868 8.83136 18.2142 8.73502 18.1291 8.65049C18.0476 8.56955 17.9256 8.48702 17.6617 8.38443C17.3854 8.27698 17.0188 8.17102 16.4653 8.01217L14.7646 7.52413V10.9887C14.7646 11.4036 14.4286 11.7399 14.0141 11.7399C13.5996 11.7399 13.2636 11.4036 13.2636 10.9887V6.52727C13.2636 5.92407 13.2632 5.50989 13.2408 5.1872C13.219 4.87141 13.1787 4.69938 13.1261 4.57434C12.9486 4.15299 12.6136 3.81773 12.1927 3.64009C12.0677 3.58738 11.8959 3.5471 11.5804 3.52521C11.258 3.50285 10.8442 3.50243 10.2415 3.50243H5.75401C4.55346 3.50243 3.72855 3.50402 3.10892 3.58741C2.51089 3.66789 2.21765 3.81195 2.01397 4.01582C1.81029 4.21969 1.66635 4.5132 1.58595 5.11178C1.50264 5.73198 1.50105 6.55765 1.50105 7.7593L1.50105 13.285C1.50105 13.7568 1.76609 14.1665 2.15525 14.3733ZM13.742 16.4976C14.4208 16.4976 14.971 15.9468 14.971 15.2675C14.971 14.5881 14.4208 14.0374 13.742 14.0374C13.0633 14.0374 12.5131 14.5881 12.5131 15.2675C12.5131 15.9468 13.0633 16.4976 13.742 16.4976ZM5.96475 15.2675C5.96475 15.9468 5.41452 16.4976 4.73577 16.4976C4.05703 16.4976 3.50679 15.9468 3.50679 15.2675C3.50679 14.5881 4.05703 14.0374 4.73577 14.0374C5.41452 14.0374 5.96475 14.5881 5.96475 15.2675Z"
    fill="currentColor"
  />
</svg>
