<svg
  xmlns="http://www.w3.org/2000/svg"
  width="20"
  height="20"
  viewBox="0 0 20 20"
  fill="none"
>
  <path
    fill-rule="evenodd"
    clip-rule="evenodd"
    d="M9.80541 1C10.2108 1 10.5395 1.34052 10.5395 1.76058V2.18478C12.8962 2.31635 14.6652 3.08262 15.9608 4.19268C17.3677 5.39818 18.0994 6.90838 18.4807 8.12997L18.4966 8.18079C18.621 8.5788 18.7769 9.28317 18.8105 9.71764C18.8315 9.9889 18.8288 10.5746 18.6752 11.0836C18.6005 11.3313 18.4564 11.6768 18.1554 11.9159C17.7966 12.201 17.357 12.228 16.9483 12.064C16.7011 11.9648 16.4663 11.8445 16.2611 11.7372L16.1718 11.6903C15.9955 11.5979 15.8431 11.5179 15.6913 11.4494C15.3355 11.2888 15.1277 11.2617 14.9628 11.3072C14.6089 11.4049 14.2851 11.6587 14.0263 12.0854C13.768 12.5114 13.3139 12.9407 12.6681 12.9898C12.0405 13.0374 11.4949 12.7039 11.1633 12.2798C10.7374 11.7353 10.2585 11.4881 9.80511 11.4881C9.3517 11.4881 8.8728 11.7352 8.44697 12.2798C8.11537 12.7039 7.56971 13.0374 6.94208 12.9898C6.29626 12.9407 5.84221 12.5114 5.58386 12.0854C5.32504 11.6587 5.00127 11.4049 4.64743 11.3072C4.48792 11.2632 4.31722 11.2856 3.9799 11.4445C3.90172 11.4813 3.80347 11.5324 3.69097 11.5909C3.39917 11.7425 3.01143 11.944 2.6293 12.0762C2.22989 12.2144 1.78294 12.2112 1.40974 11.9194C1.08248 11.6635 0.952349 11.2887 0.893754 11.0313C0.780963 10.5358 0.826215 9.96424 0.843456 9.74647L0.845721 9.71764C0.875511 9.33206 0.975862 8.62129 1.11352 8.18087L1.12936 8.13019C1.51063 6.90861 2.24245 5.39817 3.64937 4.19268C4.94503 3.08252 6.71424 2.31621 9.07132 2.18474V1.76058C9.07132 1.34052 9.39998 1 9.80541 1ZM4.58504 5.36491C5.36848 4.69364 6.40579 4.14576 7.77985 3.87304C6.57223 5.7874 6.23534 7.79607 6.15632 10.4604C5.83424 10.1738 5.45634 9.9563 5.02546 9.83734C4.36692 9.65554 3.80612 9.85538 3.37227 10.0597C3.19338 10.144 3.04373 10.2226 2.90407 10.2959C2.70286 10.4015 2.52239 10.4962 2.30509 10.5814C2.29295 10.4897 2.28736 10.3803 2.28802 10.2603C2.2889 10.1019 2.30005 9.95772 2.30856 9.84766L2.30922 9.83902C2.33492 9.50639 2.4231 8.92843 2.51034 8.64936L2.52633 8.5982C2.85011 7.56074 3.45502 6.33315 4.58504 5.36491ZM9.80511 9.96693C8.95072 9.96693 8.20097 10.3656 7.61308 10.97C7.67545 7.65424 8.06465 5.7374 9.69759 3.75854C9.75585 3.68795 9.85497 3.68795 9.91322 3.75854C11.5463 5.73753 11.9354 7.65447 11.9978 10.9706C11.4098 10.3659 10.6598 9.96693 9.80511 9.96693ZM14.5847 9.83736C14.1541 9.95624 13.7764 10.1735 13.4545 10.4598C13.3754 7.79587 13.0385 5.78737 11.8311 3.87319C13.2047 4.14596 14.2418 4.69376 15.0251 5.36491C16.1551 6.33315 16.7601 7.56097 17.0839 8.59843L17.0999 8.6495C17.2003 8.97095 17.3251 9.55527 17.347 9.83902C17.3522 9.90619 17.3553 10.0413 17.3441 10.2005C17.3347 10.3327 17.317 10.4591 17.2916 10.5642C17.1754 10.51 17.0543 10.448 16.9227 10.3792L16.8407 10.3362C16.6669 10.2449 16.4719 10.1425 16.2777 10.0548C15.8287 9.85218 15.2378 9.65706 14.5847 9.83736Z"
    fill="currentColor"
  />
  <path
    d="M9.80539 12.9157C10.2108 12.9157 10.5395 13.2562 10.5395 13.6763V16.8031C10.5395 18.0164 9.59016 19 8.4191 19C7.61596 19 6.88175 18.5299 6.52258 17.7856L6.45712 17.65C6.27581 17.2743 6.42279 16.8174 6.78542 16.6295C7.14805 16.4417 7.589 16.594 7.77031 16.9697L7.83576 17.1053C7.94624 17.3342 8.17207 17.4788 8.4191 17.4788C8.7793 17.4788 9.0713 17.1763 9.0713 16.8031V13.6763C9.0713 13.2562 9.39996 12.9157 9.80539 12.9157Z"
    fill="currentColor"
  />
</svg>
