<svg width="20" height="20" viewBox="0 0 20 20" fill="currentcolor" xmlns="http://www.w3.org/2000/svg">
  <path fill-rule="evenodd" d="M10.7614 1.76057C10.7614 1.34052 10.4204 1 9.99982 1C9.5792 1 9.23822 1.34052 9.23822 1.76057V1.94988C6.82257 2.08053 5.0644 2.83318 3.80051 3.877C2.4179 5.01886 1.68945 6.45705 1.30523 7.64372L1.28789 7.69722C1.16531 8.07515 1.03747 8.46931 1.00723 8.84659C0.970545 9.30427 1.07257 9.71859 1.33388 10.1448C1.60852 10.5928 1.96246 10.8681 2.41023 11.0405C2.78547 11.1849 3.23588 11.257 3.69402 11.3304L3.75108 11.3395C5.24036 11.5784 7.38275 11.817 10 11.817C12.6172 11.817 14.7596 11.5784 16.2489 11.3395L16.306 11.3304C16.7641 11.257 17.2145 11.1849 17.5898 11.0405C18.0375 10.8681 18.3915 10.5928 18.6661 10.1448C18.9274 9.71859 19.0295 9.30427 18.9928 8.84659C18.9625 8.46932 18.8347 8.07517 18.7121 7.69725L18.6948 7.64372C18.3105 6.45705 17.5821 5.01886 16.1995 3.877C14.9355 2.83312 13.1773 2.08046 10.7614 1.94986V1.76057ZM4.77124 5.04921C3.67588 5.95384 3.07908 7.10939 2.75454 8.11172C2.60729 8.56647 2.53987 8.78949 2.52556 8.96796C2.51627 9.08388 2.52844 9.1801 2.63292 9.35051C2.72408 9.4992 2.80682 9.56289 2.95806 9.62111C3.16626 9.70125 3.45525 9.75141 3.99266 9.83761C5.41375 10.0656 7.47471 10.2959 10 10.2959C12.5253 10.2959 14.5862 10.0656 16.0073 9.83761C16.5448 9.75141 16.8337 9.70125 17.0419 9.62111C17.1932 9.56289 17.2759 9.4992 17.3671 9.35051C17.4716 9.1801 17.4837 9.08388 17.4744 8.96796C17.4601 8.78949 17.3927 8.56647 17.2455 8.11172C16.9209 7.10939 16.3241 5.95384 15.2288 5.04921C14.1439 4.15326 12.5069 3.4508 10 3.4508C7.49312 3.4508 5.85608 4.15326 4.77124 5.04921Z" fill="currentcolor" />
  <path d="M9.99998 12.3662C10.4206 12.3662 10.7616 12.7067 10.7616 13.1267V16.8032C10.7616 18.0164 9.77668 19 8.56176 19C7.72853 19 6.96681 18.5299 6.59418 17.7856L6.52627 17.65C6.33817 17.2743 6.49066 16.8174 6.86687 16.6296C7.24308 16.4417 7.70055 16.594 7.88866 16.9697L7.95656 17.1053C8.07118 17.3343 8.30547 17.4789 8.56176 17.4789C8.93545 17.4789 9.23839 17.1763 9.23839 16.8032V13.1267C9.23839 12.7067 9.57937 12.3662 9.99998 12.3662Z" fill="currentcolor" />
</svg>
