<svg width="20" height="20" viewBox="0 0 20 20" fill="currentcolor" xmlns="http://www.w3.org/2000/svg">
  <path fill-rule="evenodd" d="M5.94372 1.21891C6.2356 1.51079 6.2356 1.98402 5.94372 2.2759L3.5518 4.66782L9.34049 4.66782C11.4064 4.66781 13.033 4.66779 14.304 4.83867C15.608 5.01399 16.6489 5.38144 17.4676 6.20019C18.2864 7.01893 18.6538 8.0598 18.8292 9.36385C19 10.6348 19 12.2615 19 14.3273V18.2526C19 18.6654 18.6654 19 18.2526 19C17.8398 19 17.5052 18.6654 17.5052 18.2526V14.3841C17.5052 12.249 17.5036 10.7228 17.3477 9.56304C17.1946 8.42474 16.9054 7.75189 16.4106 7.25718C15.9159 6.76246 15.2431 6.47319 14.1048 6.32015C12.945 6.16422 11.4188 6.16263 9.28374 6.16263H3.5518L5.94372 8.55455C6.2356 8.84643 6.2356 9.31966 5.94372 9.61154C5.65184 9.90342 5.17861 9.90342 4.88673 9.61154L1.21891 5.94372C0.92703 5.65184 0.92703 5.17861 1.21891 4.88673L4.88673 1.21891C5.17861 0.92703 5.65184 0.92703 5.94372 1.21891Z" fill="currentcolor" />
</svg>
