<svg width="20" height="20" viewBox="0 0 20 20" fill="currentcolor" xmlns="http://www.w3.org/2000/svg">
  <path fill-rule="evenodd" d="M9.67953 2.51579C7.27091 2.51579 5.1265 3.64834 3.75346 5.41076L6.5609 5.20209C6.97926 5.171 7.34368 5.48417 7.37485 5.90159C7.40601 6.31901 7.09213 6.6826 6.67376 6.7137L2.36328 7.03408C2.16002 7.04919 1.95921 6.98217 1.80598 6.84808C1.65274 6.714 1.55995 6.5241 1.54844 6.32107L1.30122 1.95857C1.27754 1.54067 1.59789 1.18273 2.01675 1.1591C2.4356 1.13547 2.79435 1.4551 2.81803 1.87301L2.93961 4.01846C4.59127 2.16716 6.9984 1 9.67953 1C14.6614 1 18.7 5.02944 18.7 10C18.7 14.9706 14.6614 19 9.67953 19C7.48411 19 5.4701 18.2165 3.90602 16.9153C3.58381 16.6472 3.54041 16.1693 3.80908 15.8478C4.07774 15.5264 4.55674 15.4831 4.87895 15.7511C6.18011 16.8336 7.85267 17.4842 9.67953 17.4842C13.8223 17.4842 17.1808 14.1334 17.1808 10C17.1808 5.86658 13.8223 2.51579 9.67953 2.51579Z" fill="currentcolor" />
</svg>
