<svg width="20" height="20" viewBox="0 0 20 20" fill="currentColor" xmlns="http://www.w3.org/2000/svg">
  <path fill-rule="evenodd" d="M9.67955 2.51579C7.27093 2.51579 5.12652 3.64834 3.75348 5.41076L6.56091 5.20209C6.97928 5.171 7.3437 5.48417 7.37486 5.90159C7.40603 6.31901 7.09214 6.6826 6.67378 6.7137L2.36329 7.03408C2.16004 7.04919 1.95923 6.98217 1.80599 6.84808C1.65276 6.714 1.55996 6.5241 1.54846 6.32107L1.30124 1.95857C1.27755 1.54067 1.5979 1.18273 2.01676 1.1591C2.43562 1.13547 2.79437 1.4551 2.81805 1.87301L2.93963 4.01846C4.59129 2.16716 6.99842 1 9.67955 1C14.6614 1 18.7 5.02944 18.7 10C18.7 14.9706 14.6614 19 9.67955 19C7.48412 19 5.47011 18.2165 3.90604 16.9153C3.58383 16.6472 3.54042 16.1693 3.80909 15.8478C4.07776 15.5264 4.55676 15.4831 4.87897 15.7511C6.18012 16.8336 7.85269 17.4842 9.67955 17.4842C13.8224 17.4842 17.1808 14.1334 17.1808 10C17.1808 5.86658 13.8224 2.51579 9.67955 2.51579Z" fill="currentColor" />
</svg>
