<svg width="20" height="20" viewBox="0 0 20 20" fill="currentColor" xmlns="http://www.w3.org/2000/svg">
  <path fill-rule="evenodd" d="M8.2557 1C5.9788 1 3.96094 2.65516 3.96094 4.89783C3.96094 7.14049 5.9788 8.79565 8.2557 8.79565C10.5326 8.79565 12.5505 7.14049 12.5505 4.89783C12.5505 2.65516 10.5326 1 8.2557 1ZM5.43371 4.89783C5.43371 3.65678 6.60326 2.48966 8.2557 2.48966C9.90814 2.48966 11.0777 3.65678 11.0777 4.89783C11.0777 6.13887 9.90814 7.30599 8.2557 7.30599C6.60326 7.30599 5.43371 6.13887 5.43371 4.89783Z" fill="currentColor" />
  <path d="M14.7053 3.00159C14.2986 3.00159 13.9689 3.33128 13.9689 3.73797C13.9689 4.14467 14.2986 4.47436 14.7053 4.47436L18.2636 4.47436C18.6703 4.47436 19 4.14467 19 3.73797C19 3.33128 18.6703 3.00159 18.2636 3.00159H14.7053Z" fill="currentColor" />
  <path fill-rule="evenodd" d="M12.8437 11.0376C10.0273 9.2723 6.48402 9.2723 3.66764 11.0376C2.00965 12.0768 1.00001 13.9249 1.00001 15.9148L1.00001 16.3752C0.999957 16.5522 0.999916 16.6989 1.01413 16.8318C1.1351 17.9632 2.00697 18.8607 3.11628 18.9855C3.24645 19.0001 3.38995 19.0001 3.56222 19H12.9491C13.1214 19.0001 13.2649 19.0001 13.3951 18.9855C14.5044 18.8607 15.3763 17.9632 15.4972 16.8318C15.5115 16.6989 15.5114 16.5522 15.5114 16.3751L15.5114 15.9148C15.5114 13.9249 14.5017 12.0768 12.8437 11.0376ZM4.45138 12.3407C6.78697 10.8768 9.72439 10.8768 12.06 12.3407C13.2725 13.1007 14.0135 14.4543 14.0135 15.9148V16.335C14.0135 16.5711 14.0124 16.6271 14.0082 16.6659C13.9629 17.0894 13.6378 17.4197 13.231 17.4655C13.1939 17.4697 13.1401 17.4708 12.9095 17.4708H3.60185C3.37126 17.4708 3.31742 17.4697 3.28033 17.4655C2.87359 17.4197 2.54842 17.0894 2.50314 16.6659C2.49899 16.6271 2.49787 16.5711 2.49787 16.335V15.9148C2.49787 14.4543 3.23891 13.1007 4.45138 12.3407Z" fill="currentColor" />
</svg>
