<svg width="20" height="20" viewBox="0 0 20 20" fill="currentcolor" xmlns="http://www.w3.org/2000/svg">
  <path fill-rule="evenodd" d="M5.29115 4.3038C5.29115 1.83478 7.49571 0 9.99995 0C12.5042 0 14.7087 1.83478 14.7087 4.3038C14.7087 6.77281 12.5042 8.60759 9.99995 8.60759C7.49571 8.60759 5.29115 6.77281 5.29115 4.3038ZM9.99995 1.51899C8.12423 1.51899 6.77814 2.85788 6.77814 4.3038C6.77814 5.74971 8.12423 7.08861 9.99995 7.08861C11.8757 7.08861 13.2218 5.74971 13.2218 4.3038C13.2218 2.85788 11.8757 1.51899 9.99995 1.51899Z" fill="currentcolor" />
  <path fill-rule="evenodd" d="M4.93265 11.2085C8.04335 9.24169 11.9566 9.24169 15.0673 11.2085C16.8895 12.3606 18 14.4102 18 16.618L18 17.1319C18 17.3339 18.0001 17.4949 17.9847 17.6397C17.854 18.8728 16.9125 19.8486 15.7176 19.9842C15.5773 20.0001 15.4215 20 15.2263 20H4.77366C4.57853 20 4.4227 20.0001 4.28242 19.9842C3.08748 19.8486 2.14596 18.8728 2.01526 17.6397C1.99991 17.4949 1.99995 17.3339 2.00001 17.1318L2.00001 16.618C2.00001 14.4102 3.11054 12.3606 4.93265 11.2085ZM14.2847 12.5274C11.6543 10.8642 8.34571 10.8642 5.71529 12.5274C4.33869 13.3978 3.49833 14.9473 3.49833 16.618V17.0903C3.49833 17.3533 3.49946 17.4221 3.50469 17.4715C3.55925 17.9863 3.95169 18.3907 4.44614 18.4468C4.4935 18.4522 4.55969 18.4533 4.81397 18.4533H15.186C15.4403 18.4533 15.5065 18.4522 15.5539 18.4468C16.0483 18.3907 16.4407 17.9863 16.4953 17.4715C16.5005 17.4221 16.5017 17.3533 16.5017 17.0903V16.618C16.5017 14.9473 15.6613 13.3978 14.2847 12.5274Z" fill="currentcolor" />
</svg>
