<svg width="20" height="20" viewBox="0 0 20 20" fill="currentColor" xmlns="http://www.w3.org/2000/svg">
  <path fill-rule="evenodd" d="M6.9856 2C4.94661 2 3.11164 3.43909 3.11164 5.42052C3.11164 7.40195 4.94661 8.84104 6.9856 8.84104C9.0246 8.84104 10.8596 7.40195 10.8596 5.42052C10.8596 3.43909 9.0246 2 6.9856 2ZM4.63631 5.42052C4.63631 4.45005 5.58898 3.49832 6.9856 3.49832C8.38222 3.49832 9.33489 4.45005 9.33489 5.42052C9.33489 6.39099 8.38222 7.34272 6.9856 7.34272C5.58898 7.34272 4.63631 6.39099 4.63631 5.42052Z" fill="currentColor" />
  <path fill-rule="evenodd" d="M14.6188 4.71906C12.9021 4.71906 11.3283 5.93382 11.3283 7.6387C11.3283 9.34358 12.9021 10.5583 14.6188 10.5583C16.3355 10.5583 17.9093 9.34358 17.9093 7.6387C17.9093 5.93382 16.3355 4.71906 14.6188 4.71906ZM12.853 7.6387C12.853 6.94462 13.5447 6.21738 14.6188 6.21738C15.6929 6.21738 16.3847 6.94462 16.3847 7.6387C16.3847 8.33279 15.6929 9.06002 14.6188 9.06002C13.5447 9.06002 12.853 8.33279 12.853 7.6387Z" fill="currentColor" />
  <path fill-rule="evenodd" d="M2.57519 10.622C0.975955 11.5809 1.74869e-05 13.2877 1.74869e-05 15.1276L7.93508e-06 15.5489C-5.30457e-05 15.7101 -0.000105074 15.8477 0.0138458 15.9725C0.132454 17.0337 0.986169 17.8703 2.0656 17.9864C2.1926 18.0001 2.33263 18 2.49702 18H11.4741C11.6385 18 11.7786 18.0001 11.9056 17.9864C12.985 17.8703 13.8388 17.0337 13.9574 15.9725C13.9713 15.8477 13.9713 15.7101 13.9712 15.5489L13.9712 15.1276C13.9712 13.2877 12.9953 11.5809 11.396 10.622C8.68846 8.99854 5.28275 8.99854 2.57519 10.622ZM1.52469 15.1276C1.52469 13.8108 2.22316 12.5882 3.36932 11.901C5.58926 10.57 8.38195 10.57 10.6019 11.901C11.748 12.5882 12.4465 13.8108 12.4465 15.1276V15.512C12.4465 15.7294 12.4454 15.7771 12.4418 15.8089C12.4014 16.1704 12.1102 16.4571 11.7397 16.497C11.707 16.5005 11.6581 16.5017 11.4367 16.5017H2.53453C2.31311 16.5017 2.26424 16.5005 2.23154 16.497C1.861 16.4571 1.5698 16.1704 1.5294 15.8089C1.52585 15.7771 1.52469 15.7294 1.52469 15.512V15.1276Z" fill="currentColor" />
  <path d="M17.911 11.9276C16.8738 11.3368 15.7027 11.0501 14.5377 11.064C14.4343 11.0653 14.3308 11.0689 14.2275 11.0749C13.8083 11.0991 13.4865 11.4527 13.5114 11.8669C13.5363 12.281 13.8981 12.5948 14.3172 12.5706C14.3968 12.566 14.4766 12.5632 14.5563 12.5622C15.4558 12.5515 16.355 12.7731 17.1465 13.2239C17.9842 13.7011 18.4753 14.5362 18.4753 15.4156L18.4753 15.6773C18.4754 15.7881 18.4744 15.8303 18.471 15.8592C18.4347 16.1676 18.162 16.4556 17.758 16.4969C17.7189 16.5009 17.6663 16.5017 17.5492 16.5017L15.0807 16.5017C14.6608 16.5017 14.3184 16.8359 14.3184 17.2508C14.3184 17.6657 14.6608 18 15.0807 18L17.5639 18C17.6589 18.0001 17.7889 18.0002 17.9157 17.9872C18.9763 17.8788 19.8611 17.0891 19.9855 16.0313C20.0002 15.9067 20.0001 15.7797 20 15.6919V15.6907L20 15.6764L20 15.4156C20 13.9761 19.1962 12.6596 17.911 11.9276Z" fill="currentColor" />
</svg>
