<svg
  xmlns="http://www.w3.org/2000/svg"
  width="20"
  height="20"
  viewBox="0 0 20 20"
  fill="none"
>
  <path
    fill-rule="evenodd"
    clip-rule="evenodd"
    d="M1.83084 11.3994C2.24655 11.3994 2.58356 11.7364 2.58356 12.1521V12.6539C2.58356 13.4671 2.58395 14.04 2.61408 14.4899C2.64378 14.9332 2.69991 15.203 2.78602 15.4153C3.06645 16.1065 3.61472 16.6547 4.30593 16.9352C4.51817 17.0213 4.78795 17.0774 5.23129 17.1071C5.68123 17.1372 6.2541 17.1376 7.06726 17.1376C7.48298 17.1376 7.81998 17.4746 7.81998 17.8904C7.81998 18.3061 7.48298 18.6431 7.06726 18.6431H7.04061C6.26014 18.6431 5.63685 18.6431 5.13069 18.6092C4.6122 18.5744 4.16288 18.5017 3.73998 18.3302C2.67174 17.8968 1.82441 17.0495 1.39102 15.9812C1.21945 15.5583 1.14674 15.109 1.11202 14.5905C1.07812 14.0843 1.07812 13.461 1.07813 12.6806L1.07813 12.1521C1.07813 11.7364 1.41513 11.3994 1.83084 11.3994Z"
    fill="currentColor"
  />
  <path
    fill-rule="evenodd"
    clip-rule="evenodd"
    d="M1.83084 7.88673C2.24655 7.88673 2.58356 7.54973 2.58356 7.13401V6.6322C2.58356 5.81904 2.58395 5.24617 2.61408 4.79624C2.64378 4.35289 2.69991 4.08311 2.78602 3.87087C3.06645 3.17966 3.61472 2.63139 4.30593 2.35096C4.51817 2.26485 4.78795 2.20872 5.23129 2.17902C5.68123 2.14889 6.2541 2.1485 7.06726 2.1485C7.48298 2.1485 7.81998 1.8115 7.81998 1.39578C7.81998 0.980069 7.48298 0.643067 7.06726 0.643067H7.04061C6.26014 0.643062 5.63685 0.643058 5.13069 0.676959C4.6122 0.711685 4.16288 0.784387 3.73998 0.955961C2.67174 1.38935 1.82441 2.23668 1.39102 3.30492C1.21945 3.72782 1.14674 4.17714 1.11202 4.69563C1.07812 5.2018 1.07812 5.82509 1.07813 6.60557L1.07813 7.13401C1.07813 7.54973 1.41513 7.88673 1.83084 7.88673Z"
    fill="currentColor"
  />
  <path
    fill-rule="evenodd"
    clip-rule="evenodd"
    d="M18.3254 11.9012C18.7411 11.9012 19.0781 12.2382 19.0781 12.6539V12.6806C19.0781 13.4611 19.0781 14.0843 19.0442 14.5905C19.0095 15.109 18.9368 15.5583 18.7652 15.9812C18.3318 17.0495 17.4845 17.8968 16.4163 18.3302C15.9934 18.5017 15.5441 18.5744 15.0256 18.6092C14.5194 18.6431 13.8961 18.6431 13.1156 18.6431H12.5872C12.1715 18.6431 11.8345 18.3061 11.8345 17.8904C11.8345 17.4746 12.1715 17.1376 12.5872 17.1376H13.089C13.9021 17.1376 14.475 17.1372 14.925 17.1071C15.3683 17.0774 15.6381 17.0213 15.8503 16.9352C16.5415 16.6547 17.0898 16.1065 17.3702 15.4153C17.4563 15.203 17.5125 14.9332 17.5422 14.4899C17.5723 14.04 17.5727 13.4671 17.5727 12.6539C17.5727 12.2382 17.9097 11.9012 18.3254 11.9012Z"
    fill="currentColor"
  />
  <path
    fill-rule="evenodd"
    clip-rule="evenodd"
    d="M14.925 2.17903C14.475 2.14889 13.9021 2.1485 13.089 2.1485C12.6733 2.1485 12.3363 1.8115 12.3363 1.39578C12.3363 0.980069 12.6733 0.643067 13.089 0.643067L13.1156 0.643067C13.8961 0.643062 14.5194 0.643059 15.0256 0.676959C15.5441 0.711685 15.9934 0.784388 16.4163 0.955961C17.4845 1.38935 18.3318 2.23668 18.7652 3.30492C18.9368 3.72782 19.0095 4.17714 19.0442 4.69563C19.0781 5.20179 19.0781 5.82508 19.0781 6.60555V7.13401C19.0781 7.54973 18.7411 7.88673 18.3254 7.88673C17.9097 7.88673 17.5727 7.54973 17.5727 7.13401V6.6322C17.5727 5.81904 17.5723 5.24617 17.5422 4.79624C17.5125 4.35289 17.4563 4.08311 17.3702 3.87087C17.0898 3.17966 16.5415 2.63139 15.8503 2.35096C15.6381 2.26486 15.3683 2.20872 14.925 2.17903Z"
    fill="currentColor"
  />
  <path
    fill-rule="evenodd"
    clip-rule="evenodd"
    d="M5.06002 6.91447C5.47573 6.91447 5.81274 7.25147 5.81274 7.66719V11.6189C5.81274 12.0347 5.47573 12.3717 5.06002 12.3717C4.64431 12.3717 4.3073 12.0347 4.3073 11.6189V7.66719C4.3073 7.25147 4.64431 6.91447 5.06002 6.91447Z"
    fill="currentColor"
  />
  <path
    fill-rule="evenodd"
    clip-rule="evenodd"
    d="M7.56907 5.72904C7.98479 5.72904 8.32179 6.06604 8.32179 6.48176L8.32179 12.8046C8.32179 13.2203 7.98479 13.5573 7.56907 13.5573C7.15336 13.5573 6.81636 13.2203 6.81636 12.8046L6.81636 6.48176C6.81636 6.06604 7.15336 5.72904 7.56907 5.72904Z"
    fill="currentColor"
  />
  <path
    fill-rule="evenodd"
    clip-rule="evenodd"
    d="M10.0781 4.93859C10.4938 4.93859 10.8308 5.2756 10.8308 5.69131L10.8308 13.5948C10.8308 14.0105 10.4938 14.3475 10.0781 14.3475C9.66241 14.3475 9.32541 14.0105 9.32541 13.5948L9.32541 5.69131C9.32541 5.2756 9.66241 4.93859 10.0781 4.93859Z"
    fill="currentColor"
  />
  <path
    fill-rule="evenodd"
    clip-rule="evenodd"
    d="M12.5872 5.72904C13.0029 5.72904 13.3399 6.06604 13.3399 6.48176V12.8046C13.3399 13.2203 13.0029 13.5573 12.5872 13.5573C12.1715 13.5573 11.8345 13.2203 11.8345 12.8046V6.48176C11.8345 6.06604 12.1715 5.72904 12.5872 5.72904Z"
    fill="currentColor"
  />
  <path
    fill-rule="evenodd"
    clip-rule="evenodd"
    d="M15.0962 6.91447C15.5119 6.91447 15.8489 7.25147 15.8489 7.66719V11.6189C15.8489 12.0347 15.5119 12.3717 15.0962 12.3717C14.6805 12.3717 14.3435 12.0347 14.3435 11.6189V7.66719C14.3435 7.25147 14.6805 6.91447 15.0962 6.91447Z"
    fill="currentColor"
  />
</svg>
