<svg width="20" height="20" viewBox="0 0 20 20" fill="currentColor" xmlns="http://www.w3.org/2000/svg">
  <path fill-rule="evenodd" d="M9.82455 2C9.16028 2 8.51761 2.22985 8.01274 2.64846L6.29714 4.07094C5.79496 4.48732 5.6452 4.60372 5.48045 4.67958C5.31715 4.75477 5.1311 4.79381 4.49531 4.90574L1.23776 2.38483C0.909634 2.1309 0.430982 2.18189 0.167764 2.50016C-0.0965418 2.81975 -0.0424344 3.28626 0.286981 3.54118L0.9661 4.06673C0.971718 4.07108 0.97797 4.07454 0.98464 4.07699C1.04379 4.09877 1.10049 4.12968 1.15258 4.17L18.9487 17.9419C18.9543 17.9462 18.9606 17.9497 18.9673 17.9521C19.2673 18.0626 19.6198 17.9802 19.8322 17.7233C20.0965 17.4037 20.0424 16.9372 19.713 16.6822L17.6281 15.0688C19.0842 13.7899 19.9999 11.9431 19.9999 9.88821C19.9999 6.5371 17.5659 3.74009 14.3191 3.05438C13.9098 2.96795 13.5026 3.2184 13.4122 3.61883C13.3216 4.02003 13.5849 4.41314 13.9947 4.49969C16.5586 5.04117 18.4752 7.25024 18.4752 9.88821C18.4752 11.593 17.6753 13.1185 16.4163 14.131L15.028 13.0566C16.3169 12.5481 17.2287 11.3229 17.2287 9.88821C17.2287 8.39641 16.2428 7.13107 14.8722 6.66246C14.4771 6.52737 14.0413 6.72694 13.9003 7.11287C13.7589 7.4999 13.9694 7.92212 14.3654 8.05752C15.1475 8.3249 15.704 9.0455 15.704 9.88821C15.704 10.7309 15.1475 11.4515 14.3654 11.7189C14.1358 11.7974 13.9686 11.9721 13.8962 12.1808L12.6098 11.1853V4.69645C12.6098 3.2052 11.3607 2 9.82455 2ZM9.00333 3.77292C9.23175 3.58352 9.52303 3.47917 9.82455 3.47917C10.5229 3.47917 11.0852 4.02621 11.0852 4.69645V10.0054L6.00237 6.072C6.04679 6.05456 6.09068 6.03592 6.13419 6.01589C6.50447 5.8454 6.81306 5.5893 7.22166 5.25021L9.00333 3.77292Z" fill="currentColor" />
  <path d="M1.29783 5.82332C1.27399 5.80487 1.24096 5.80388 1.21605 5.82085C1.0794 5.91397 0.951021 6.02055 0.831446 6.14394C0.750684 6.22729 0.674945 6.31507 0.604608 6.40687C0.267014 6.84746 0.126623 7.34324 0.0616986 7.89458C-1.7561e-05 8.41868 -4.92755e-06 9.06583 1.02843e-05 9.84517V9.9314C-4.92755e-06 10.7107 -1.75647e-05 11.3579 0.0616986 11.882C0.126623 12.4333 0.267014 12.9291 0.604608 13.3697C0.674945 13.4615 0.750684 13.5493 0.831446 13.6326C1.21887 14.0324 1.69734 14.2544 2.24574 14.4146C2.76743 14.567 3.42537 14.6827 4.21833 14.8221L4.47679 14.8676C5.12751 14.982 5.31558 15.0211 5.48045 15.097C5.6452 15.1729 5.79496 15.2893 6.29714 15.7056L8.01274 17.1281C8.51761 17.5467 9.16028 17.7766 9.82455 17.7766C11.3607 17.7766 12.6098 16.5714 12.6098 15.0801V14.6113C12.6098 14.5899 12.5999 14.5696 12.5829 14.5565L11.1973 13.4842C11.1763 13.468 11.1479 13.4651 11.1241 13.4767C11.1003 13.4884 11.0852 13.5125 11.0852 13.539V15.0801C11.0852 15.7504 10.5229 16.2974 9.82455 16.2974C9.52303 16.2974 9.23175 16.1931 9.00333 16.0037L7.22168 14.5264C6.81307 14.1873 6.50447 13.9312 6.13419 13.7607C5.764 13.5902 5.36413 13.5201 4.83443 13.4272L4.5338 13.3743C3.68659 13.2253 3.11439 13.1235 2.68536 12.9982C2.2736 12.8779 2.07639 12.7578 1.9423 12.6194C1.90167 12.5775 1.86359 12.5334 1.82823 12.4872C1.71175 12.3352 1.62511 12.1267 1.57652 11.7141C1.52584 11.2838 1.52468 10.7214 1.52468 9.88829C1.52468 9.05518 1.52584 8.49281 1.57652 8.06248C1.62511 7.64983 1.71175 7.44136 1.82823 7.28934C1.86359 7.2432 1.90167 7.19905 1.9423 7.15713C2.04873 7.0473 2.19475 6.94918 2.45533 6.8534C2.47904 6.84469 2.49615 6.82381 2.50001 6.79888C2.50387 6.77395 2.49387 6.7489 2.4739 6.73344L1.29783 5.82332Z" fill="currentColor" />
</svg>
