<svg width="20" height="20" viewBox="0 0 20 20" fill="currentColor" xmlns="http://www.w3.org/2000/svg">
  <path fill-rule="evenodd" d="M11.194 2C10.5379 2 9.90344 2.23339 9.40521 2.65808L7.71255 4.10088C7.21701 4.52327 7.06937 4.64123 6.90702 4.71807C6.74464 4.79493 6.55944 4.8345 5.91731 4.95061L5.66221 4.99673C4.87993 5.13816 4.23068 5.25553 3.71583 5.41015C3.17447 5.57272 2.70221 5.79796 2.31992 6.20351C2.24025 6.28804 2.16553 6.37706 2.09616 6.47015C1.76326 6.91678 1.62486 7.41925 1.56085 7.97813C1.49997 8.50956 1.49998 9.16585 1.5 9.95646V10.0435C1.49998 10.8342 1.49997 11.4904 1.56085 12.0219C1.62486 12.5807 1.76326 13.0832 2.09616 13.5299C2.16553 13.6229 2.24025 13.712 2.31992 13.7965C2.70221 14.202 3.17447 14.4273 3.71583 14.5899C4.23068 14.7445 4.87998 14.8619 5.66227 15.0033L5.91731 15.0494C6.55944 15.1655 6.74464 15.2051 6.90702 15.2819C7.06937 15.3588 7.21701 15.4767 7.71255 15.8991L9.40521 17.3419C9.90344 17.7666 10.5379 18 11.194 18C12.7119 18 13.9429 16.7763 13.9429 15.266V4.73399C13.9429 3.22372 12.7119 2 11.194 2ZM10.385 3.79591C10.6103 3.6039 10.8972 3.49832 11.194 3.49832C11.8808 3.49832 12.4369 4.05188 12.4369 4.73399V15.266C12.4369 15.9481 11.8808 16.5017 11.194 16.5017C10.8972 16.5017 10.6103 16.3961 10.385 16.2041L8.62706 14.7056C8.22403 14.3617 7.91949 14.1019 7.554 13.9289C7.18852 13.7559 6.79373 13.6847 6.27124 13.5905L5.97447 13.5369C5.13854 13.3857 4.57415 13.2825 4.15101 13.1555C3.74504 13.0335 3.55066 12.9118 3.4184 12.7715C3.37832 12.729 3.34073 12.6842 3.30583 12.6374C3.19071 12.4829 3.10512 12.2711 3.05713 11.8522C3.00712 11.4155 3.00598 10.8449 3.00598 10C3.00598 9.15506 3.00712 8.58445 3.05713 8.14778C3.10512 7.72889 3.19071 7.51706 3.30583 7.36261C3.34073 7.31579 3.37832 7.271 3.4184 7.22847C3.55066 7.08816 3.74504 6.96646 4.15101 6.84454C4.57415 6.71747 5.13855 6.61427 5.97447 6.46313L6.27125 6.4095C6.79373 6.31527 7.18852 6.24407 7.554 6.07108C7.91948 5.89808 8.22403 5.63826 8.62705 5.29442L10.385 3.79591Z" fill="currentColor" />
  <path d="M16.175 6.7292C15.7832 6.59149 15.353 6.79558 15.2143 7.18581C15.0755 7.57622 15.2814 8.00418 15.6734 8.14195C16.444 8.4128 16.994 9.14355 16.994 9.99992C16.994 10.8563 16.444 11.587 15.6734 11.8579C15.2814 11.9957 15.0755 12.4236 15.2143 12.814C15.353 13.2043 15.7832 13.4083 16.175 13.2706C17.5283 12.795 18.5 11.5114 18.5 9.99992C18.5 8.48841 17.5283 7.20485 16.175 6.7292Z" fill="currentColor" />
</svg>
