<svg width="20" height="20" viewBox="0 0 20 20" fill="currentcolor" xmlns="http://www.w3.org/2000/svg">
  <path fill-rule="evenodd" d="M9.82459 2C9.16004 2 8.51724 2.23323 8.01239 2.65781L6.29679 4.10061C5.79458 4.52295 5.64484 4.64101 5.48012 4.71793C5.31534 4.79488 5.12739 4.83449 4.47664 4.95058L4.21815 4.99669C3.42521 5.13813 2.76722 5.25549 2.24548 5.41008C1.69696 5.5726 1.21847 5.79775 0.831099 6.2032C0.75035 6.28772 0.674629 6.37674 0.604313 6.46982C0.266885 6.91648 0.126573 7.41904 0.0616754 7.97803C-2.83457e-05 8.50951 -1.52614e-05 9.16584 5.01803e-07 9.95641V10.0436C-1.52614e-05 10.8342 -2.83457e-05 11.4905 0.0616754 12.022C0.126573 12.581 0.266885 13.0835 0.604313 13.5302C0.674629 13.6233 0.75035 13.7123 0.831098 13.7968C1.21847 14.2023 1.69696 14.4274 2.24548 14.5899C2.76723 14.7445 3.42527 14.8619 4.21823 15.0033L4.47664 15.0494C5.12739 15.1655 5.31534 15.2051 5.48012 15.2821C5.64484 15.359 5.79458 15.477 6.29679 15.8994L8.01239 17.3422C8.51724 17.7668 9.16004 18 9.82459 18C11.3617 18 12.6099 16.7771 12.6099 15.266V4.73399C12.6099 3.22292 11.3617 2 9.82459 2ZM9.00373 3.79618C9.23218 3.60406 9.52333 3.49832 9.82459 3.49832C10.5219 3.49832 11.0852 4.05267 11.0852 4.73399V15.266C11.0852 15.9473 10.5219 16.5017 9.82459 16.5017C9.52333 16.5017 9.23218 16.3959 9.00374 16.2038L7.22203 14.7054C6.81346 14.3615 6.50486 14.1017 6.13455 13.9288C5.76429 13.7559 5.36432 13.6847 4.83465 13.5905L4.53397 13.5368C3.68675 13.3857 3.1146 13.2825 2.68562 13.1554C2.27397 13.0334 2.07678 12.9116 1.94264 12.7712C1.902 12.7287 1.8639 12.6839 1.82852 12.6371C1.71187 12.4826 1.62514 12.2709 1.57653 11.8521C1.52584 11.4155 1.52468 10.845 1.52468 10C1.52468 9.15504 1.52584 8.58449 1.57653 8.14788C1.62514 7.7291 1.71187 7.51736 1.82852 7.36294C1.8639 7.31611 1.902 7.27131 1.94264 7.22878C2.07678 7.08837 2.27397 6.96658 2.68562 6.84461C3.1146 6.71751 3.68675 6.61429 4.53397 6.46316L4.83465 6.40955C5.36432 6.3153 5.76429 6.24413 6.13455 6.07122C6.50486 5.89828 6.81346 5.63852 7.22203 5.29461L9.00373 3.79618Z" fill="currentcolor" />
  <path d="M14.3193 3.06951C13.9091 2.98165 13.5023 3.23644 13.4122 3.64144C13.322 4.04684 13.584 4.44551 13.9946 4.53345C16.5579 5.08255 18.4753 7.32309 18.4753 9.99996C18.4753 12.6768 16.5579 14.9174 13.9946 15.4665C13.584 15.5544 13.322 15.9531 13.4122 16.3585C13.5023 16.7635 13.9091 17.0183 14.3193 16.9304C17.5668 16.2348 20 13.3977 20 9.99996C20 6.6022 17.5668 3.76514 14.3193 3.06951Z" fill="currentcolor" />
  <path d="M14.8726 6.72911C14.4766 6.59181 14.0409 6.795 13.9002 7.18556C13.7593 7.57671 13.9687 8.00455 14.3652 8.14203C15.1469 8.41311 15.7041 9.14408 15.7041 9.99992C15.7041 10.8558 15.1469 11.5867 14.3652 11.8578C13.9687 11.9953 13.7593 12.4231 13.9002 12.8143C14.0409 13.2048 14.4766 13.408 14.8726 13.2707C16.2435 12.7953 17.2287 11.512 17.2287 9.99992C17.2287 8.48787 16.2435 7.20455 14.8726 6.72911Z" fill="currentcolor" />
</svg>
