<svg
  xmlns="http://www.w3.org/2000/svg"
  width="20"
  height="20"
  viewBox="0 0 20 20"
  fill="none"
>
  <path
    fill-rule="evenodd"
    clip-rule="evenodd"
    d="M14.5798 1H4.4789C4.07363 0.999994 3.73183 0.999988 3.45046 1.01919C3.15645 1.03925 2.87366 1.08277 2.59782 1.19703C1.96361 1.45973 1.45973 1.96361 1.19703 2.59782C1.08277 2.87366 1.03925 3.15645 1.01919 3.45046C0.999989 3.73183 0.999994 4.07361 1 4.47888V10.9728C0.999986 12.6518 0.999975 13.9889 1.14088 15.0369C1.2863 16.1185 1.59413 17.0048 2.29466 17.7053C2.99519 18.4059 3.88149 18.7137 4.96306 18.8591C6.01113 19 7.34819 19 9.02723 19H11.4233C12.8871 19 14.0531 19 14.977 18.8908C15.9278 18.7784 16.7201 18.5414 17.3839 17.9967C17.6077 17.813 17.813 17.6077 17.9967 17.3839C18.5414 16.7201 18.7784 15.9278 18.8908 14.977C19 14.0531 19 12.8871 19 11.4233V11.3246C19 9.86073 19 8.69475 18.8908 7.77089C18.7784 6.82002 18.5414 6.02772 17.9967 5.36393C17.813 5.14011 17.6077 4.93489 17.3839 4.75121C16.7201 4.20645 15.9278 3.96944 14.977 3.85704C14.0531 3.74784 12.8871 3.74785 11.4232 3.74786L2.51922 3.74786C2.52146 3.67717 2.52447 3.61288 2.52853 3.55344C2.54333 3.33643 2.56954 3.23753 2.59472 3.17676C2.70387 2.91324 2.91324 2.70387 3.17676 2.59472C3.23753 2.56954 3.33643 2.54333 3.55344 2.52853C3.77718 2.51326 4.06712 2.51285 4.50428 2.51285H14.5798C14.9975 2.51285 15.3362 2.17419 15.3362 1.75643C15.3362 1.33866 14.9975 1 14.5798 1ZM2.51285 10.916V5.26071H11.3739C12.8981 5.26071 13.9746 5.26195 14.7994 5.35944C15.6074 5.45495 16.0746 5.63376 16.4242 5.92066C16.5714 6.04147 16.7064 6.17646 16.8272 6.32367C17.1141 6.67325 17.2929 7.14044 17.3884 7.94848C17.4859 8.77322 17.4872 9.84979 17.4872 11.3739C17.4872 12.8981 17.4859 13.9746 17.3884 14.7994C17.2929 15.6074 17.1141 16.0746 16.8272 16.4242C16.7064 16.5714 16.5714 16.7064 16.4242 16.8272C16.0746 17.1141 15.6074 17.2929 14.7994 17.3884C13.9746 17.4859 12.8981 17.4872 11.3739 17.4872H9.08405C7.3355 17.4872 6.10022 17.4855 5.16464 17.3598C4.25085 17.2369 3.737 17.0082 3.3644 16.6356C2.99181 16.263 2.7631 15.7492 2.64024 14.8354C2.51446 13.8998 2.51285 12.6645 2.51285 10.916Z"
    fill="currentColor"
  />
  <path
    d="M15.0001 11.9999C15.0001 12.5522 14.5523 12.9999 14.0001 12.9999C13.4478 12.9999 13.0001 12.5522 13.0001 11.9999C13.0001 11.4476 13.4478 10.9999 14.0001 10.9999C14.5523 10.9999 15.0001 11.4476 15.0001 11.9999Z"
    fill="currentColor"
  />
</svg>
