<svg width="20" height="20" viewBox="0 0 20 20" fill="currentcolor" xmlns="http://www.w3.org/2000/svg">
  <path fill-rule="evenodd" d="M14.5798 1.00012H4.4789C4.07363 1.00012 3.73183 1.00011 3.45046 1.01931C3.15645 1.03937 2.87366 1.08289 2.59782 1.19715C1.96361 1.45985 1.45973 1.96373 1.19703 2.59794C1.08277 2.87379 1.03925 3.15657 1.01919 3.45058C0.999989 3.73195 0.999994 4.07373 1 4.479V10.9729C0.999986 12.6519 0.999975 13.989 1.14088 15.0371C1.2863 16.1186 1.59413 17.0049 2.29466 17.7055C2.99519 18.406 3.88149 18.7138 4.96306 18.8592C6.01113 19.0001 7.34819 19.0001 9.02723 19.0001H11.4233C12.8871 19.0001 14.0531 19.0001 14.977 18.8909C15.9278 18.7785 16.7201 18.5415 17.3839 17.9968C17.6077 17.8131 17.813 17.6079 17.9967 17.3841C18.5414 16.7203 18.7784 15.928 18.8908 14.9771C19 14.0532 19 12.8873 19 11.4234V11.3247C19 9.86086 19 8.69487 18.8908 7.77101C18.7784 6.82014 18.5414 6.02784 17.9967 5.36405C17.813 5.14023 17.6077 4.93501 17.3839 4.75133C16.7201 4.20657 15.9278 3.96956 14.977 3.85717C14.0531 3.74796 12.8871 3.74797 11.4232 3.74798L2.51922 3.74798C2.52146 3.67729 2.52447 3.613 2.52853 3.55356C2.54333 3.33656 2.56954 3.23765 2.59472 3.17688C2.70387 2.91336 2.91324 2.70399 3.17676 2.59484C3.23753 2.56967 3.33643 2.54345 3.55344 2.52865C3.77718 2.51338 4.06712 2.51297 4.50428 2.51297H14.5798C14.9975 2.51297 15.3362 2.17431 15.3362 1.75655C15.3362 1.33879 14.9975 1.00012 14.5798 1.00012ZM2.51285 10.9161V5.26083H11.3739C12.8981 5.26083 13.9746 5.26207 14.7994 5.35956C15.6074 5.45507 16.0746 5.63388 16.4242 5.92078C16.5714 6.04159 16.7064 6.17658 16.8272 6.32379C17.1141 6.67337 17.2929 7.14056 17.3884 7.9486C17.4859 8.77334 17.4872 9.84991 17.4872 11.3741C17.4872 12.8982 17.4859 13.9748 17.3884 14.7995C17.2929 15.6075 17.1141 16.0747 16.8272 16.4243C16.7064 16.5715 16.5714 16.7065 16.4242 16.8273C16.0746 17.1142 15.6074 17.293 14.7994 17.3885C13.9746 17.486 12.8981 17.4873 11.3739 17.4873H9.08405C7.3355 17.4873 6.10022 17.4857 5.16464 17.3599C4.25085 17.237 3.737 17.0083 3.3644 16.6357C2.99181 16.2631 2.7631 15.7493 2.64024 14.8355C2.51446 13.8999 2.51285 12.6646 2.51285 10.9161Z" fill="currentcolor" />
  <path d="M15.0001 12.0001C15.0001 12.5523 14.5523 13.0001 14.0001 13.0001C13.4478 13.0001 13.0001 12.5523 13.0001 12.0001C13.0001 11.4478 13.4478 11.0001 14.0001 11.0001C14.5523 11.0001 15.0001 11.4478 15.0001 12.0001Z" fill="currentcolor" />
</svg>
