<svg width="20" height="20" viewBox="0 0 20 20" fill="currentcolor" xmlns="http://www.w3.org/2000/svg">
  <path fill-rule="evenodd" d="M4.50854 1.00251C3.80602 1.0019 3.2617 1.00142 2.80072 1.17028C2.04121 1.44851 1.44273 2.0472 1.16461 2.80698C0.995801 3.26812 0.996281 3.81264 0.9969 4.5154L0.996976 4.64647L0.9969 4.77753C0.996281 5.4803 0.995801 6.02481 1.16461 6.48596C1.44273 7.24574 2.04121 7.84443 2.80072 8.12265C3.14319 8.24811 3.53167 8.2801 3.99683 8.288C3.98673 8.79249 3.98673 9.35895 3.98673 9.99749V12.9975C3.98673 15.8259 3.98673 17.2401 4.86509 18.1188C5.74346 18.9975 7.15717 18.9975 9.98459 18.9975C12.812 18.9975 14.2257 18.9975 15.1041 18.1188C15.9824 17.2401 15.9824 15.8259 15.9824 12.9975V9.99749C15.9824 9.35912 15.9824 8.79279 15.9723 8.28839C16.4484 8.28119 16.8445 8.2503 17.1929 8.12265C17.9524 7.84443 18.5509 7.24574 18.829 6.48596C18.9979 6.02482 18.9974 5.48031 18.9968 4.77755L18.9967 4.64647L18.9968 4.51541C18.9974 3.81265 18.9979 3.26812 18.829 2.80698C18.5509 2.0472 17.9524 1.44851 17.1929 1.17028C16.732 1.00142 16.1876 1.0019 15.4851 1.00251H4.50854ZM15.8832 6.78794C16.3639 6.78209 16.5419 6.76374 16.6773 6.71412C17.0226 6.58766 17.2946 6.31552 17.421 5.97017C17.4857 5.7935 17.4972 5.54445 17.4972 4.64647C17.4972 3.74848 17.4857 3.49944 17.421 3.32277C17.2946 2.97741 17.0226 2.70528 16.6773 2.57881C16.5007 2.51412 16.2518 2.50259 15.3541 2.50259H4.63955C3.74189 2.50259 3.49293 2.51412 3.31632 2.57881C2.97109 2.70528 2.69906 2.97741 2.57264 3.32277C2.50797 3.49944 2.49644 3.74848 2.49644 4.64647C2.49644 5.54445 2.50797 5.7935 2.57264 5.97017C2.69906 6.31552 2.97109 6.58766 3.31632 6.71412C3.44946 6.76289 3.62371 6.78145 4.08598 6.78763C4.19202 5.92684 4.41137 5.33006 4.86509 4.87617C5.74346 3.99749 7.15717 3.99749 9.98459 3.99749C12.812 3.99749 14.2257 3.99749 15.1041 4.87617C15.5579 5.33011 15.7772 5.92698 15.8832 6.78794ZM14.483 9.99749V12.9975C14.483 14.4541 14.4798 15.3957 14.3866 16.0894C14.2991 16.74 14.1579 16.944 14.0438 17.0582C13.9297 17.1723 13.7258 17.3136 13.0754 17.401C12.3819 17.4943 11.4407 17.4975 9.98459 17.4975C8.52849 17.4975 7.58726 17.4943 6.89375 17.401C6.24337 17.3136 6.03952 17.1723 5.92538 17.0582C5.81123 16.944 5.67006 16.74 5.58262 16.0894C5.48938 15.3957 5.48619 14.4541 5.48619 12.9975V9.99749C5.48619 8.54087 5.48938 7.59931 5.58262 6.90555C5.67006 6.25494 5.81123 6.05102 5.92538 5.93683C6.03952 5.82264 6.24337 5.68142 6.89375 5.59395C7.58726 5.50068 8.52849 5.49749 9.98459 5.49749C11.4407 5.49749 12.3819 5.50068 13.0754 5.59395C13.7258 5.68142 13.9297 5.82264 14.0438 5.93683C14.1579 6.05102 14.2991 6.25494 14.3866 6.90555C14.4798 7.59931 14.483 8.54087 14.483 9.99749Z" fill="currentcolor" />
  <path d="M9.52734 14.7941C9.65913 14.9092 9.83153 14.9789 10.0202 14.9789C10.2389 14.9789 10.4358 14.8852 10.5728 14.7358L12.5279 12.6739C12.8128 12.3734 12.8003 11.8987 12.4999 11.6137C12.1995 11.3286 11.7249 11.3411 11.44 11.6417L10.7699 12.3483L10.7699 9.1579C10.7699 8.74369 10.4342 8.4079 10.0201 8.40791C9.60606 8.40792 9.2704 8.74371 9.2704 9.15792L9.27045 12.3959L8.51998 11.632C8.22973 11.3366 7.75505 11.3325 7.45974 11.6228C7.16443 11.9132 7.16032 12.388 7.45057 12.6835L9.48542 14.7546C9.4954 14.7647 9.50564 14.7746 9.51611 14.7841C9.51982 14.7874 9.52357 14.7908 9.52734 14.7941Z" fill="currentcolor" />
</svg>
