<svg
  xmlns="http://www.w3.org/2000/svg"
  width="20"
  height="20"
  viewBox="0 0 20 20"
  fill="none"
>
  <path
    fill-rule="evenodd"
    clip-rule="evenodd"
    d="M4.5085 1.00251C3.80599 1.0019 3.26167 1.00142 2.80069 1.17028C2.04118 1.44851 1.4427 2.0472 1.16458 2.80698C0.995771 3.26812 0.99625 3.81264 0.996869 4.5154L0.996945 4.64647L0.996869 4.77753C0.99625 5.4803 0.995771 6.02481 1.16458 6.48596C1.4427 7.24574 2.04118 7.84443 2.80069 8.12265C3.14316 8.24811 3.53164 8.2801 3.9968 8.288C3.9867 8.79249 3.9867 9.35895 3.9867 9.99749V12.9975C3.9867 15.8259 3.9867 17.2401 4.86506 18.1188C5.74343 18.9975 7.15714 18.9975 9.98456 18.9975C12.812 18.9975 14.2257 18.9975 15.1041 18.1188C15.9824 17.2401 15.9824 15.8259 15.9824 12.9975V9.99749C15.9824 9.35912 15.9824 8.79279 15.9723 8.28839C16.4484 8.28119 16.8444 8.2503 17.1929 8.12265C17.9524 7.84443 18.5509 7.24574 18.829 6.48596C18.9978 6.02482 18.9973 5.48031 18.9967 4.77755L18.9966 4.64647L18.9967 4.51541C18.9973 3.81265 18.9978 3.26812 18.829 2.80698C18.5509 2.0472 17.9524 1.44851 17.1929 1.17028C16.7319 1.00142 16.1876 1.0019 15.4851 1.00251H4.5085ZM15.8832 6.78794C16.3638 6.78209 16.5418 6.76374 16.6773 6.71412C17.0225 6.58766 17.2946 6.31552 17.421 5.97017C17.4857 5.7935 17.4972 5.54445 17.4972 4.64647C17.4972 3.74848 17.4857 3.49944 17.421 3.32277C17.2946 2.97741 17.0225 2.70528 16.6773 2.57881C16.5007 2.51412 16.2517 2.50259 15.3541 2.50259H4.63952C3.74186 2.50259 3.4929 2.51412 3.31629 2.57881C2.97106 2.70528 2.69903 2.97741 2.57261 3.32277C2.50794 3.49944 2.49641 3.74848 2.49641 4.64647C2.49641 5.54445 2.50794 5.7935 2.57261 5.97017C2.69903 6.31552 2.97106 6.58766 3.31629 6.71412C3.44943 6.76289 3.62368 6.78145 4.08594 6.78763C4.19199 5.92684 4.41134 5.33006 4.86506 4.87617C5.74343 3.99749 7.15714 3.99749 9.98456 3.99749C12.812 3.99749 14.2257 3.99749 15.1041 4.87617C15.5578 5.33011 15.7772 5.92698 15.8832 6.78794ZM14.483 9.99749V12.9975C14.483 14.4541 14.4798 15.3957 14.3865 16.0894C14.2991 16.74 14.1579 16.944 14.0438 17.0582C13.9296 17.1723 13.7258 17.3136 13.0754 17.401C12.3819 17.4943 11.4407 17.4975 9.98456 17.4975C8.52846 17.4975 7.58723 17.4943 6.89372 17.401C6.24334 17.3136 6.03949 17.1723 5.92534 17.0582C5.8112 16.944 5.67003 16.74 5.58259 16.0894C5.48935 15.3957 5.48616 14.4541 5.48616 12.9975V9.99749C5.48616 8.54087 5.48935 7.59931 5.58259 6.90555C5.67003 6.25494 5.8112 6.05102 5.92534 5.93683C6.03949 5.82264 6.24334 5.68142 6.89372 5.59395C7.58723 5.50068 8.52846 5.49749 9.98456 5.49749C11.4407 5.49749 12.3819 5.50068 13.0754 5.59395C13.7258 5.68142 13.9296 5.82264 14.0438 5.93683C14.1579 6.05102 14.2991 6.25494 14.3865 6.90555C14.4798 7.59931 14.483 8.54087 14.483 9.99749Z"
    fill="currentColor"
  />
  <path
    d="M9.52731 14.7941C9.65909 14.9092 9.8315 14.9789 10.0202 14.9789C10.2389 14.9789 10.4357 14.8852 10.5728 14.7358L12.5278 12.6739C12.8128 12.3734 12.8003 11.8987 12.4998 11.6137C12.1994 11.3286 11.7249 11.3411 11.4399 11.6417L10.7699 12.3483L10.7698 9.1579C10.7698 8.74369 10.4342 8.4079 10.0201 8.40791C9.60603 8.40792 9.27037 8.74371 9.27037 9.15792L9.27042 12.3959L8.51995 11.632C8.2297 11.3366 7.75502 11.3325 7.45971 11.6228C7.1644 11.9132 7.16029 12.388 7.45054 12.6835L9.48539 14.7546C9.49537 14.7647 9.5056 14.7746 9.51608 14.7841C9.51979 14.7874 9.52353 14.7908 9.52731 14.7941Z"
    fill="currentColor"
  />
</svg>
