<svg width="20" height="20" viewBox="0 0 20 20" fill="currentColor" xmlns="http://www.w3.org/2000/svg">
  <path d="M5.05024 13.8891C4.75734 14.182 4.75734 14.6569 5.05024 14.9498C5.34313 15.2427 5.818 15.2427 6.1109 14.9498L10 11.0607L13.8891 14.9498C14.182 15.2427 14.6569 15.2427 14.9498 14.9498C15.2427 14.6569 15.2427 14.182 14.9498 13.8891L11.0607 10L14.9497 6.11096C15.2426 5.81806 15.2426 5.34319 14.9497 5.0503C14.6568 4.7574 14.182 4.7574 13.8891 5.0503L10 8.93936L6.11095 5.0503C5.81805 4.7574 5.34318 4.7574 5.05029 5.0503C4.75739 5.34319 4.75739 5.81806 5.05029 6.11096L8.93935 10L5.05024 13.8891Z" fill="currentColor" />
</svg>
