<svg
  xmlns="http://www.w3.org/2000/svg"
  width="20"
  height="20"
  viewBox="0 0 20 20"
  fill="none"
>
  <path
    d="M5.05024 13.8891C4.75734 14.182 4.75734 14.6568 5.05024 14.9497C5.34313 15.2426 5.818 15.2426 6.1109 14.9497L10 11.0606L13.8891 14.9497C14.182 15.2426 14.6569 15.2426 14.9498 14.9497C15.2427 14.6568 15.2427 14.182 14.9498 13.8891L11.0607 9.99996L14.9497 6.1109C15.2426 5.818 15.2426 5.34313 14.9497 5.05024C14.6568 4.75734 14.182 4.75734 13.8891 5.05024L10 8.9393L6.11095 5.05024C5.81805 4.75734 5.34318 4.75734 5.05029 5.05024C4.75739 5.34313 4.75739 5.818 5.05029 6.1109L8.93935 9.99996L5.05024 13.8891Z"
    fill="currentColor"
  />
</svg>
