<svg width="601" height="136" viewBox="0 0 601 136" fill="none" xmlns="http://www.w3.org/2000/svg">
<path d="M580.275 114.803C567.554 114.803 559.942 106.982 557.335 99.2663L568.075 94.8869C569.639 100.205 573.706 104.584 580.275 104.584C585.176 104.584 588.408 101.977 588.408 98.6407C588.408 88.7349 559.734 95.1998 559.734 75.284C559.734 67.0465 566.928 60.5817 578.398 60.5817C588.617 60.5817 597.271 65.7953 599.565 73.4071L588.93 77.8907C587.47 72.8857 582.882 70.2789 578.607 70.2789C574.436 70.2789 571.621 72.0516 571.621 75.0754C571.621 84.3556 600.504 76.9523 600.504 98.4322C600.504 107.504 592.37 114.803 580.275 114.803Z" fill="#FDFFE5"/>
<path d="M500.216 113.969V61.4159H513.354V69.3405C516.691 64.2312 522.634 60.5817 530.038 60.5817C541.507 60.5817 549.223 68.0893 549.223 79.5591V113.969H536.085V82.6872C536.085 76.5352 532.227 72.2601 526.075 72.2601C518.046 72.2601 513.354 79.142 513.354 90.9246V113.969H500.216Z" fill="#FDFFE5"/>
<path d="M462.913 114.803C446.959 114.803 435.49 103.333 435.49 87.6922C435.49 72.0516 446.959 60.5817 462.913 60.5817C478.866 60.5817 490.336 72.0516 490.336 87.6922C490.336 103.333 478.866 114.803 462.913 114.803ZM448.732 87.6922C448.732 97.0766 454.363 103.437 462.913 103.437C471.359 103.437 477.094 97.0766 477.094 87.6922C477.094 78.3078 471.359 71.9473 462.913 71.9473C454.363 71.9473 448.732 78.3078 448.732 87.6922Z" fill="#FDFFE5"/>
<path d="M403.734 114.803C387.989 114.803 377.041 103.75 377.041 87.6922C377.041 71.6345 387.989 60.5817 403.734 60.5817C417.185 60.5817 426.674 67.5679 428.446 78.7249L415.621 81.2274C414.683 75.701 410.303 71.9473 404.151 71.9473C396.018 71.9473 390.7 78.0993 390.7 87.6922C390.7 97.2852 396.018 103.437 404.151 103.437C410.303 103.437 414.37 100.1 415.621 94.4699L428.446 97.0766C426.465 108.129 416.977 114.803 403.734 114.803Z" fill="#FDFFE5"/>
<path d="M353.992 113.969V61.4159H367.13V113.969H353.992ZM353.575 53.6998V40.1446H367.756V53.6998H353.575Z" fill="#FDFFE5"/>
<path d="M290.859 132.946V61.4159H303.997V67.4636C306.917 63.397 312.652 60.5817 319.638 60.5817C334.757 60.5817 344.037 71.6345 344.037 87.6922C344.037 103.75 334.132 114.803 318.699 114.803C312.652 114.803 307.021 112.509 303.997 108.755V132.946H290.859ZM303.163 87.6922C303.163 97.1809 308.689 103.437 317.135 103.437C325.477 103.437 331.003 97.1809 331.003 87.6922C331.003 78.2036 325.477 71.9473 317.135 71.9473C308.689 71.9473 303.163 78.2036 303.163 87.6922Z" fill="#FDFFE5"/>
<path d="M253.556 114.803C237.603 114.803 226.133 103.333 226.133 87.6922C226.133 72.0516 237.603 60.5817 253.556 60.5817C269.51 60.5817 280.979 72.0516 280.979 87.6922C280.979 103.333 269.51 114.803 253.556 114.803ZM239.375 87.6922C239.375 97.0766 245.006 103.437 253.556 103.437C262.002 103.437 267.737 97.0766 267.737 87.6922C267.737 78.3078 262.002 71.9473 253.556 71.9473C245.006 71.9473 239.375 78.3078 239.375 87.6922Z" fill="#FDFFE5"/>
<path d="M168.885 113.969V40.9787H198.289C213.096 40.9787 222.584 49.7375 222.584 63.2928C222.584 76.7437 213.096 85.5025 198.289 85.5025H183.065V113.969H168.885ZM183.065 73.3028H197.038C204.128 73.3028 208.403 69.549 208.403 63.2928C208.403 56.9322 204.128 53.1785 197.038 53.1785H183.065V73.3028Z" fill="#FDFFE5"/>
<path d="M65.7785 126.691C65.5769 126.385 65.3731 126.077 65.1656 125.766C63.6354 123.471 62.8703 122.324 61.7149 122.231C61.5902 122.221 61.4544 122.221 61.3297 122.231C60.1744 122.324 59.3886 123.503 57.8172 125.86L56.9547 127.154C54.9732 130.127 53.9825 131.613 54.2347 132.84C54.3518 133.409 54.6318 133.932 55.0405 134.345C55.9211 135.235 57.7073 135.235 61.2798 135.235C65.1539 135.235 67.091 135.235 67.9709 134.349C68.3907 133.926 68.6567 133.432 68.7786 132.849C69.0339 131.626 67.9488 129.981 65.7785 126.691L65.7785 126.691Z" fill="#FF4949"/>
<g filter="url(#filter0_iiiii_992_11098)">
<path d="M31.6215 113.275C42.0032 123.309 54.6847 126.105 65.9768 124.952C77.1035 123.816 88.9954 117.423 94.4545 111.233C105.841 98.32 109.71 85.1563 109.37 71.969C109.036 59.0066 105.74 44.5852 88.5954 40.3283C86.3947 32.3136 77.4701 26.7747 67.6993 25.353C57.8192 23.9154 48.8521 24.6152 45.4561 25.2115C38.9569 26.3528 30.0486 29.2679 22.0329 37.5975C17.6811 42.1198 14.8255 48.1701 13.0533 53.6105C11.2848 59.0395 10.4181 65.0382 10.3447 68.7175C10.0154 85.2201 19.2507 101.319 31.6215 113.275Z" fill="#FF4949"/>
</g>
<g style="mix-blend-mode:overlay">
<path fill-rule="evenodd" clip-rule="evenodd" d="M32.7882 39.0671C33.8856 40.1393 33.906 41.898 32.8338 42.9954C31.1836 44.6844 29.66 46.5899 28.2993 48.6846C26.9296 50.7929 25.7263 53.0906 24.7255 55.5483C24.1468 56.9692 22.5259 57.6519 21.105 57.0733C19.6841 56.4946 19.0013 54.8737 19.58 53.4528C20.711 50.6755 22.0763 48.0654 23.6403 45.6579C25.194 43.2663 26.9452 41.0724 28.8599 39.1127C29.9321 38.0153 31.6909 37.9949 32.7882 39.0671Z" fill="#FDFFE5"/>
</g>
<path d="M64.6979 125.063C62.9941 125.211 60.095 125.257 58.3352 125.063L57.3645 126.538C59.5485 126.962 64.2743 126.953 65.6056 126.422L64.6979 125.063Z" fill="#E22020"/>
<g style="mix-blend-mode:overlay">
<circle cx="19.7658" cy="62.4949" r="3.29452" transform="rotate(12.6199 19.7658 62.4949)" fill="#FDFFE5"/>
</g>
<g style="mix-blend-mode:overlay" filter="url(#filter1_iiiif_992_11098)">
<path fill-rule="evenodd" clip-rule="evenodd" d="M81.4521 32.1828C83.5097 31.7334 85.5124 33.4141 85.9254 35.9369C86.3504 38.5325 87.0385 40.2594 87.9714 41.0905C88.9792 41.9884 90.9537 42.5117 94.8536 42.3008C96.9476 42.1876 98.0191 42.8238 98.1576 45.3838C98.296 47.9437 97.227 48.7065 95.2679 49.9605C91.2364 52.5411 87.2371 51.3452 83.6053 48.1934C80.1488 45.1938 79.0732 41.2212 78.4745 37.5643C78.0615 35.0416 79.3946 32.6322 81.4521 32.1828Z" fill="#DA8E8E" fill-opacity="0.1"/>
</g>
<g style="mix-blend-mode:overlay" filter="url(#filter2_iiiif_992_11098)">
<path fill-rule="evenodd" clip-rule="evenodd" d="M82.4296 35.6065C83.9172 35.2795 85.366 36.5059 85.6655 38.3459C85.9736 40.239 86.4717 41.4987 87.1466 42.1052C87.8757 42.7603 89.3036 43.1427 92.1235 42.9902C93.6376 42.9083 94.4126 43.3727 94.5136 45.2397C94.6146 47.1067 93.8418 47.6627 92.4256 48.5766C89.5114 50.4572 86.6191 49.5837 83.9919 47.2839C81.4915 45.0951 80.7124 42.1975 80.2783 39.5303C79.9788 37.6903 80.9419 35.9336 82.4296 35.6065Z" fill="#DA8E8E" fill-opacity="0.1"/>
</g>
<g opacity="0.8" filter="url(#filter3_iiif_992_11098)">
<path fill-rule="evenodd" clip-rule="evenodd" d="M84.1525 39.7107C84.8651 39.5626 85.5563 40.1051 85.6962 40.9224C85.8402 41.7633 86.2788 41.9711 86.6006 42.2394C86.9484 42.5293 87.4286 43.0478 88.7786 42.9748C89.5034 42.9356 89.8735 43.1405 89.9184 43.9702C89.9633 44.7999 89.5924 45.0485 88.9129 45.4573C87.5145 46.2987 86.1318 45.9158 84.8786 44.8984C83.686 43.9301 83.3184 42.6435 83.1156 41.4588C82.9756 40.6415 83.4399 39.8588 84.1525 39.7107Z" fill="#910000" fill-opacity="0.75"/>
</g>
<path d="M85.5295 43.5787L103.911 9.07312C105.793 5.53954 110.466 4.66229 113.502 7.27258C116.266 9.64968 116.417 13.8788 113.83 16.4473L86.0278 44.0443L85.5295 43.5787Z" fill="#FDFFE5"/>
<path d="M102.004 16.8121L105.583 10.4039C106.651 8.49149 109.061 7.79714 110.989 8.84654C113.317 10.114 113.8 13.2493 111.959 15.149L106.851 20.4193C105.89 21.4114 104.379 21.6292 103.173 20.9496C101.71 20.1255 101.187 18.275 102.004 16.8121Z" fill="#201F29"/>
<path d="M107.546 15.2395C107.732 21.1301 111.884 31.5669 125.06 27.2665C138.237 22.9662 138.869 42.915 125.875 52.9784C117.234 60.3523 126.758 65.6714 131.076 66.57" stroke="#FDFFE5" stroke-width="3" stroke-linecap="round"/>
<defs>
<filter id="filter0_iiiii_992_11098" x="10.3362" y="-5.49417" width="99.0545" height="150.689" filterUnits="userSpaceOnUse" color-interpolation-filters="sRGB">
<feFlood flood-opacity="0" result="BackgroundImageFix"/>
<feBlend mode="normal" in="SourceGraphic" in2="BackgroundImageFix" result="shape"/>
<feColorMatrix in="SourceAlpha" type="matrix" values="0 0 0 0 0 0 0 0 0 0 0 0 0 0 0 0 0 0 127 0" result="hardAlpha"/>
<feOffset dy="20"/>
<feGaussianBlur stdDeviation="20"/>
<feComposite in2="hardAlpha" operator="arithmetic" k2="-1" k3="1"/>
<feColorMatrix type="matrix" values="0 0 0 0 1 0 0 0 0 1 0 0 0 0 1 0 0 0 0.5 0"/>
<feBlend mode="overlay" in2="shape" result="effect1_innerShadow_992_11098"/>
<feColorMatrix in="SourceAlpha" type="matrix" values="0 0 0 0 0 0 0 0 0 0 0 0 0 0 0 0 0 0 127 0" result="hardAlpha"/>
<feOffset dy="-30"/>
<feGaussianBlur stdDeviation="30"/>
<feComposite in2="hardAlpha" operator="arithmetic" k2="-1" k3="1"/>
<feColorMatrix type="matrix" values="0 0 0 0 0 0 0 0 0 0 0 0 0 0 0 0 0 0 0.5 0"/>
<feBlend mode="overlay" in2="effect1_innerShadow_992_11098" result="effect2_innerShadow_992_11098"/>
<feColorMatrix in="SourceAlpha" type="matrix" values="0 0 0 0 0 0 0 0 0 0 0 0 0 0 0 0 0 0 127 0" result="hardAlpha"/>
<feOffset dy="5"/>
<feGaussianBlur stdDeviation="7.5"/>
<feComposite in2="hardAlpha" operator="arithmetic" k2="-1" k3="1"/>
<feColorMatrix type="matrix" values="0 0 0 0 1 0 0 0 0 1 0 0 0 0 1 0 0 0 0.7 0"/>
<feBlend mode="overlay" in2="effect2_innerShadow_992_11098" result="effect3_innerShadow_992_11098"/>
<feColorMatrix in="SourceAlpha" type="matrix" values="0 0 0 0 0 0 0 0 0 0 0 0 0 0 0 0 0 0 127 0" result="hardAlpha"/>
<feOffset dy="-40"/>
<feGaussianBlur stdDeviation="10"/>
<feComposite in2="hardAlpha" operator="arithmetic" k2="-1" k3="1"/>
<feColorMatrix type="matrix" values="0 0 0 0 0 0 0 0 0 0 0 0 0 0 0 0 0 0 0.15 0"/>
<feBlend mode="overlay" in2="effect3_innerShadow_992_11098" result="effect4_innerShadow_992_11098"/>
<feColorMatrix in="SourceAlpha" type="matrix" values="0 0 0 0 0 0 0 0 0 0 0 0 0 0 0 0 0 0 127 0" result="hardAlpha"/>
<feOffset dy="20"/>
<feGaussianBlur stdDeviation="10"/>
<feComposite in2="hardAlpha" operator="arithmetic" k2="-1" k3="1"/>
<feColorMatrix type="matrix" values="0 0 0 0 1 0 0 0 0 1 0 0 0 0 1 0 0 0 0.25 0"/>
<feBlend mode="overlay" in2="effect4_innerShadow_992_11098" result="effect5_innerShadow_992_11098"/>
</filter>
<filter id="filter1_iiiif_992_11098" x="73.3994" y="25.1101" width="29.7701" height="33.2563" filterUnits="userSpaceOnUse" color-interpolation-filters="sRGB">
<feFlood flood-opacity="0" result="BackgroundImageFix"/>
<feBlend mode="normal" in="SourceGraphic" in2="BackgroundImageFix" result="shape"/>
<feColorMatrix in="SourceAlpha" type="matrix" values="0 0 0 0 0 0 0 0 0 0 0 0 0 0 0 0 0 0 127 0" result="hardAlpha"/>
<feOffset/>
<feGaussianBlur stdDeviation="2"/>
<feComposite in2="hardAlpha" operator="arithmetic" k2="-1" k3="1"/>
<feColorMatrix type="matrix" values="0 0 0 0 1 0 0 0 0 0.282353 0 0 0 0 0.282353 0 0 0 1 0"/>
<feBlend mode="overlay" in2="shape" result="effect1_innerShadow_992_11098"/>
<feColorMatrix in="SourceAlpha" type="matrix" values="0 0 0 0 0 0 0 0 0 0 0 0 0 0 0 0 0 0 127 0" result="hardAlpha"/>
<feOffset dy="7"/>
<feGaussianBlur stdDeviation="10"/>
<feComposite in2="hardAlpha" operator="arithmetic" k2="-1" k3="1"/>
<feColorMatrix type="matrix" values="0 0 0 0 0 0 0 0 0 0 0 0 0 0 0 0 0 0 0.5 0"/>
<feBlend mode="overlay" in2="effect1_innerShadow_992_11098" result="effect2_innerShadow_992_11098"/>
<feColorMatrix in="SourceAlpha" type="matrix" values="0 0 0 0 0 0 0 0 0 0 0 0 0 0 0 0 0 0 127 0" result="hardAlpha"/>
<feOffset dy="-1"/>
<feGaussianBlur stdDeviation="8"/>
<feComposite in2="hardAlpha" operator="arithmetic" k2="-1" k3="1"/>
<feColorMatrix type="matrix" values="0 0 0 0 0.408333 0 0 0 0 0.408333 0 0 0 0 0.408333 0 0 0 0.25 0"/>
<feBlend mode="overlay" in2="effect2_innerShadow_992_11098" result="effect3_innerShadow_992_11098"/>
<feColorMatrix in="SourceAlpha" type="matrix" values="0 0 0 0 0 0 0 0 0 0 0 0 0 0 0 0 0 0 127 0" result="hardAlpha"/>
<feOffset dy="-11"/>
<feGaussianBlur stdDeviation="3.5"/>
<feComposite in2="hardAlpha" operator="arithmetic" k2="-1" k3="1"/>
<feColorMatrix type="matrix" values="0 0 0 0 1 0 0 0 0 1 0 0 0 0 1 0 0 0 0.25 0"/>
<feBlend mode="overlay" in2="effect3_innerShadow_992_11098" result="effect4_innerShadow_992_11098"/>
<feGaussianBlur stdDeviation="2.5" result="effect5_foregroundBlur_992_11098"/>
</filter>
<filter id="filter2_iiiif_992_11098" x="70.2237" y="25.5537" width="34.2987" height="34.0467" filterUnits="userSpaceOnUse" color-interpolation-filters="sRGB">
<feFlood flood-opacity="0" result="BackgroundImageFix"/>
<feBlend mode="normal" in="SourceGraphic" in2="BackgroundImageFix" result="shape"/>
<feColorMatrix in="SourceAlpha" type="matrix" values="0 0 0 0 0 0 0 0 0 0 0 0 0 0 0 0 0 0 127 0" result="hardAlpha"/>
<feOffset/>
<feGaussianBlur stdDeviation="2"/>
<feComposite in2="hardAlpha" operator="arithmetic" k2="-1" k3="1"/>
<feColorMatrix type="matrix" values="0 0 0 0 1 0 0 0 0 0.282353 0 0 0 0 0.282353 0 0 0 1 0"/>
<feBlend mode="overlay" in2="shape" result="effect1_innerShadow_992_11098"/>
<feColorMatrix in="SourceAlpha" type="matrix" values="0 0 0 0 0 0 0 0 0 0 0 0 0 0 0 0 0 0 127 0" result="hardAlpha"/>
<feOffset dy="7"/>
<feGaussianBlur stdDeviation="10"/>
<feComposite in2="hardAlpha" operator="arithmetic" k2="-1" k3="1"/>
<feColorMatrix type="matrix" values="0 0 0 0 0 0 0 0 0 0 0 0 0 0 0 0 0 0 0.5 0"/>
<feBlend mode="overlay" in2="effect1_innerShadow_992_11098" result="effect2_innerShadow_992_11098"/>
<feColorMatrix in="SourceAlpha" type="matrix" values="0 0 0 0 0 0 0 0 0 0 0 0 0 0 0 0 0 0 127 0" result="hardAlpha"/>
<feOffset dy="-1"/>
<feGaussianBlur stdDeviation="8"/>
<feComposite in2="hardAlpha" operator="arithmetic" k2="-1" k3="1"/>
<feColorMatrix type="matrix" values="0 0 0 0 0.408333 0 0 0 0 0.408333 0 0 0 0 0.408333 0 0 0 0.25 0"/>
<feBlend mode="overlay" in2="effect2_innerShadow_992_11098" result="effect3_innerShadow_992_11098"/>
<feColorMatrix in="SourceAlpha" type="matrix" values="0 0 0 0 0 0 0 0 0 0 0 0 0 0 0 0 0 0 127 0" result="hardAlpha"/>
<feOffset dy="-11"/>
<feGaussianBlur stdDeviation="3.5"/>
<feComposite in2="hardAlpha" operator="arithmetic" k2="-1" k3="1"/>
<feColorMatrix type="matrix" values="0 0 0 0 1 0 0 0 0 1 0 0 0 0 1 0 0 0 0.25 0"/>
<feBlend mode="overlay" in2="effect3_innerShadow_992_11098" result="effect4_innerShadow_992_11098"/>
<feGaussianBlur stdDeviation="5" result="effect5_foregroundBlur_992_11098"/>
</filter>
<filter id="filter3_iiif_992_11098" x="78.0907" y="34.6863" width="16.8314" height="18.2321" filterUnits="userSpaceOnUse" color-interpolation-filters="sRGB">
<feFlood flood-opacity="0" result="BackgroundImageFix"/>
<feBlend mode="normal" in="SourceGraphic" in2="BackgroundImageFix" result="shape"/>
<feColorMatrix in="SourceAlpha" type="matrix" values="0 0 0 0 0 0 0 0 0 0 0 0 0 0 0 0 0 0 127 0" result="hardAlpha"/>
<feOffset/>
<feGaussianBlur stdDeviation="2"/>
<feComposite in2="hardAlpha" operator="arithmetic" k2="-1" k3="1"/>
<feColorMatrix type="matrix" values="0 0 0 0 1 0 0 0 0 0.282353 0 0 0 0 0.282353 0 0 0 1 0"/>
<feBlend mode="overlay" in2="shape" result="effect1_innerShadow_992_11098"/>
<feColorMatrix in="SourceAlpha" type="matrix" values="0 0 0 0 0 0 0 0 0 0 0 0 0 0 0 0 0 0 127 0" result="hardAlpha"/>
<feOffset dy="7"/>
<feGaussianBlur stdDeviation="10"/>
<feComposite in2="hardAlpha" operator="arithmetic" k2="-1" k3="1"/>
<feColorMatrix type="matrix" values="0 0 0 0 0 0 0 0 0 0 0 0 0 0 0 0 0 0 0.5 0"/>
<feBlend mode="overlay" in2="effect1_innerShadow_992_11098" result="effect2_innerShadow_992_11098"/>
<feColorMatrix in="SourceAlpha" type="matrix" values="0 0 0 0 0 0 0 0 0 0 0 0 0 0 0 0 0 0 127 0" result="hardAlpha"/>
<feOffset dy="-1"/>
<feGaussianBlur stdDeviation="8"/>
<feComposite in2="hardAlpha" operator="arithmetic" k2="-1" k3="1"/>
<feColorMatrix type="matrix" values="0 0 0 0 0.408333 0 0 0 0 0.408333 0 0 0 0 0.408333 0 0 0 0.25 0"/>
<feBlend mode="overlay" in2="effect2_innerShadow_992_11098" result="effect3_innerShadow_992_11098"/>
<feGaussianBlur stdDeviation="2.5" result="effect4_foregroundBlur_992_11098"/>
</filter>
</defs>
</svg>
