<svg width="601" height="162" viewBox="0 0 601 162" fill="none" xmlns="http://www.w3.org/2000/svg">
<path d="M580.731 128.695C576.108 128.695 571.985 127.945 568.362 126.446C564.801 124.884 561.927 122.76 559.741 120.074L567.987 112.952C569.924 115.013 572.079 116.513 574.453 117.45C576.827 118.324 579.201 118.762 581.575 118.762C582.512 118.762 583.355 118.668 584.105 118.481C584.917 118.231 585.604 117.918 586.166 117.543C586.729 117.106 587.135 116.606 587.385 116.044C587.697 115.419 587.853 114.763 587.853 114.076C587.853 112.702 587.291 111.609 586.166 110.796C585.542 110.484 584.573 110.109 583.262 109.672C581.95 109.172 580.263 108.641 578.201 108.079C575.015 107.267 572.298 106.33 570.049 105.268C567.862 104.143 566.113 102.894 564.801 101.519C563.677 100.208 562.802 98.8019 562.177 97.3026C561.615 95.7408 561.334 94.0229 561.334 92.1487C561.334 89.8997 561.834 87.8694 562.833 86.0577C563.833 84.1836 565.207 82.5905 566.956 81.2786C568.768 79.9667 570.83 78.9672 573.141 78.28C575.453 77.5303 577.889 77.1555 580.45 77.1555C583.012 77.1555 585.51 77.4679 587.947 78.0926C590.383 78.7173 592.632 79.6231 594.694 80.8101C596.818 81.9346 598.661 83.2777 600.223 84.8395L593.101 92.711C591.976 91.6489 590.696 90.6806 589.259 89.806C587.884 88.9314 586.448 88.2442 584.948 87.7445C583.449 87.2447 582.106 86.9948 580.919 86.9948C579.857 86.9948 578.888 87.0885 578.014 87.2759C577.202 87.4633 576.515 87.7445 575.952 88.1193C575.39 88.4941 574.953 88.9939 574.64 89.6186C574.391 90.1809 574.266 90.8056 574.266 91.4928C574.266 92.1799 574.422 92.8359 574.734 93.4606C575.109 94.0853 575.609 94.6163 576.233 95.0536C576.921 95.4285 577.92 95.8658 579.232 96.3655C580.606 96.8653 582.449 97.4276 584.761 98.0523C587.759 98.8644 590.29 99.7702 592.351 100.77C594.475 101.769 596.162 102.925 597.411 104.237C598.473 105.361 599.254 106.642 599.754 108.079C600.254 109.516 600.504 111.109 600.504 112.858C600.504 115.919 599.629 118.668 597.88 121.104C596.193 123.478 593.85 125.352 590.852 126.727C587.853 128.039 584.48 128.695 580.731 128.695Z" fill="#201F29"/>
<path d="M507.633 127.758V78.1863H520.377L520.752 88.3067L518.128 89.4312C518.815 87.1822 520.034 85.1519 521.783 83.3402C523.594 81.4661 525.75 79.9667 528.249 78.8423C530.747 77.7178 533.371 77.1555 536.12 77.1555C539.868 77.1555 542.992 77.9052 545.491 79.4045C548.052 80.9038 549.958 83.184 551.207 86.2451C552.519 89.2438 553.175 92.9608 553.175 97.3963V127.758H539.868V98.4271C539.868 96.1781 539.556 94.304 538.931 92.8047C538.307 91.3053 537.338 90.2121 536.026 89.5249C534.777 88.7752 533.215 88.4629 531.341 88.5878C529.842 88.5878 528.436 88.8377 527.124 89.3375C525.875 89.7748 524.781 90.4307 523.844 91.3053C522.97 92.1799 522.251 93.1795 521.689 94.304C521.189 95.4285 520.939 96.6467 520.939 97.9586V127.758H514.38C512.943 127.758 511.662 127.758 510.538 127.758C509.413 127.758 508.445 127.758 507.633 127.758Z" fill="#201F29"/>
<path d="M473.351 128.695C468.291 128.695 463.762 127.601 459.764 125.415C455.828 123.166 452.705 120.105 450.393 116.232C448.144 112.358 447.02 107.923 447.02 102.925C447.02 97.9273 448.144 93.5231 450.393 89.7123C452.705 85.8391 455.828 82.778 459.764 80.529C463.762 78.28 468.291 77.1555 473.351 77.1555C478.349 77.1555 482.816 78.28 486.752 80.529C490.75 82.778 493.873 85.8391 496.122 89.7123C498.371 93.5231 499.496 97.9273 499.496 102.925C499.496 107.923 498.371 112.358 496.122 116.232C493.873 120.105 490.75 123.166 486.752 125.415C482.816 127.601 478.349 128.695 473.351 128.695ZM473.351 117.075C475.788 117.075 477.974 116.481 479.911 115.294C481.848 114.045 483.347 112.358 484.409 110.234C485.533 108.048 486.096 105.611 486.096 102.925C486.096 100.176 485.533 97.7399 484.409 95.6159C483.347 93.4294 481.848 91.7426 479.911 90.5557C477.974 89.3062 475.788 88.6815 473.351 88.6815C470.853 88.6815 468.635 89.3062 466.698 90.5557C464.762 91.8051 463.231 93.4919 462.107 95.6159C460.982 97.7399 460.451 100.176 460.514 102.925C460.451 105.611 460.982 108.048 462.107 110.234C463.231 112.358 464.762 114.045 466.698 115.294C468.635 116.481 470.853 117.075 473.351 117.075Z" fill="#201F29"/>
<path d="M422.938 128.695C418.19 128.695 413.942 127.57 410.193 125.321C406.445 123.072 403.478 120.011 401.291 116.138C399.167 112.265 398.105 107.86 398.105 102.925C398.105 98.0523 399.167 93.6793 401.291 89.806C403.478 85.8703 406.445 82.778 410.193 80.529C413.942 78.28 418.19 77.1555 422.938 77.1555C427.373 77.1555 431.434 77.9677 435.12 79.5919C438.805 81.2162 441.679 83.4652 443.741 86.3388L436.431 95.1473C435.557 93.9604 434.464 92.8984 433.152 91.9613C431.84 90.9617 430.403 90.1809 428.841 89.6186C427.342 89.0564 425.78 88.7752 424.156 88.7752C421.594 88.7752 419.314 89.4 417.315 90.6494C415.378 91.8364 413.848 93.4919 412.723 95.6159C411.599 97.7399 411.037 100.176 411.037 102.925C411.037 105.611 411.599 108.017 412.723 110.141C413.91 112.202 415.503 113.889 417.503 115.201C419.502 116.45 421.751 117.075 424.249 117.075C425.874 117.075 427.404 116.856 428.841 116.419C430.278 115.919 431.621 115.201 432.871 114.264C434.182 113.327 435.369 112.202 436.431 110.89L443.647 119.699C441.523 122.385 438.587 124.571 434.838 126.258C431.09 127.882 427.123 128.695 422.938 128.695Z" fill="#201F29"/>
<path d="M375.74 127.758V78.1863H389.047V127.758H375.74ZM382.3 67.9722C379.739 67.9722 377.74 67.3475 376.303 66.0981C374.866 64.8486 374.147 63.0682 374.147 60.7567C374.147 58.6327 374.866 56.9147 376.303 55.6028C377.802 54.2284 379.801 53.5413 382.3 53.5413C384.861 53.5413 386.86 54.1972 388.297 55.5091C389.734 56.7586 390.453 58.5078 390.453 60.7567C390.453 62.9432 389.703 64.6924 388.204 66.0044C386.767 67.3163 384.799 67.9722 382.3 67.9722Z" fill="#201F29"/>
<path d="M315.544 148.373V78.1863H328.382L328.756 89.3375L326.32 88.4942C326.757 86.4951 327.819 84.6522 329.506 82.9654C331.255 81.2787 333.411 79.9043 335.972 78.8423C338.533 77.7803 341.22 77.2493 344.031 77.2493C348.341 77.2493 352.152 78.3738 355.463 80.6227C358.837 82.8092 361.492 85.8391 363.428 89.7124C365.427 93.5231 366.427 97.9274 366.427 102.925C366.427 107.86 365.459 112.265 363.522 116.138C361.585 120.011 358.93 123.072 355.557 125.321C352.183 127.508 348.341 128.601 344.031 128.601C341.157 128.601 338.408 128.07 335.785 127.008C333.223 125.883 331.037 124.415 329.225 122.604C327.413 120.792 326.289 118.855 325.852 116.794L328.944 115.482V148.373H315.544ZM341.032 117.169C343.469 117.169 345.624 116.575 347.498 115.388C349.372 114.201 350.84 112.546 351.902 110.422C352.964 108.235 353.495 105.736 353.495 102.925C353.495 100.114 352.964 97.6463 351.902 95.5222C350.84 93.3982 349.372 91.7427 347.498 90.5557C345.686 89.3688 343.531 88.7753 341.032 88.7753C338.533 88.7753 336.347 89.3688 334.473 90.5557C332.598 91.6802 331.13 93.3357 330.068 95.5222C329.006 97.6463 328.475 100.114 328.475 102.925C328.475 105.736 329.006 108.235 330.068 110.422C331.13 112.546 332.598 114.201 334.473 115.388C336.347 116.575 338.533 117.169 341.032 117.169Z" fill="#201F29"/>
<path d="M281.262 128.695C276.202 128.695 271.673 127.601 267.675 125.415C263.739 123.166 260.615 120.105 258.304 116.232C256.055 112.358 254.93 107.923 254.93 102.925C254.93 97.9273 256.055 93.5231 258.304 89.7123C260.615 85.8391 263.739 82.778 267.675 80.529C271.673 78.28 276.202 77.1555 281.262 77.1555C286.26 77.1555 290.727 78.28 294.662 80.529C298.661 82.778 301.784 85.8391 304.033 89.7123C306.282 93.5231 307.407 97.9273 307.407 102.925C307.407 107.923 306.282 112.358 304.033 116.232C301.784 120.105 298.661 123.166 294.662 125.415C290.727 127.601 286.26 128.695 281.262 128.695ZM281.262 117.075C283.699 117.075 285.885 116.481 287.822 115.294C289.758 114.045 291.258 112.358 292.32 110.234C293.444 108.048 294.006 105.611 294.006 102.925C294.006 100.176 293.444 97.7399 292.32 95.6159C291.258 93.4294 289.758 91.7426 287.822 90.5557C285.885 89.3062 283.699 88.6815 281.262 88.6815C278.763 88.6815 276.546 89.3062 274.609 90.5557C272.672 91.8051 271.142 93.4919 270.017 95.6159C268.893 97.7399 268.362 100.176 268.424 102.925C268.362 105.611 268.893 108.048 270.017 110.234C271.142 112.358 272.672 114.045 274.609 115.294C276.546 116.481 278.763 117.075 281.262 117.075Z" fill="#201F29"/>
<path d="M201.653 127.758V62.1624H229.484C233.357 62.1624 236.855 63.0994 239.979 64.9736C243.165 66.7853 245.664 69.2841 247.475 72.4702C249.35 75.6562 250.287 79.2483 250.287 83.2465C250.287 87.3072 249.35 90.9618 247.475 94.2103C245.664 97.4588 243.165 100.051 239.979 101.988C236.855 103.862 233.357 104.799 229.484 104.799H215.709V127.758H201.653ZM215.521 92.1487H227.891C229.39 92.1487 230.733 91.7739 231.92 91.0243C233.107 90.2121 234.044 89.1501 234.731 87.8382C235.481 86.5263 235.856 85.027 235.856 83.3402C235.856 81.6535 235.481 80.1854 234.731 78.936C234.044 77.6241 233.107 76.6245 231.92 75.9374C230.733 75.1877 229.39 74.8129 227.891 74.8129H215.521V92.1487Z" fill="#201F29"/>
<path d="M78.613 151.434C78.1271 150.696 77.6335 149.95 77.1156 149.182C75.4195 146.667 74.5715 145.409 73.2949 145.412C72.0182 145.416 71.1568 146.708 69.4341 149.292L67.6526 151.965C64.9156 156.071 63.5471 158.124 64.3951 159.708C65.2431 161.293 67.7104 161.293 72.6452 161.293H73.4267C78.6936 161.293 81.327 161.293 82.1768 159.716C83.0266 158.139 81.5554 155.904 78.613 151.434L78.613 151.434Z" fill="#FF4949"/>
<g filter="url(#filter0_iiiii_992_11097)">
<path d="M37.6341 135.09C50.0218 147.063 65.1538 150.398 78.6277 149.023C91.9044 147.668 106.094 140.039 112.608 132.652C126.195 117.245 130.812 101.537 130.406 85.802C130.007 70.335 126.074 53.127 105.617 48.0476C102.991 38.4842 92.3418 31.875 80.683 30.1786C68.8938 28.4633 58.1941 29.2984 54.1419 30.0099C46.387 31.3716 35.7573 34.85 26.1929 44.7891C21.0002 50.1852 17.5928 57.4046 15.4782 63.8961C13.3679 70.3742 12.3338 77.532 12.2462 81.9222C11.8533 101.613 22.8731 120.823 37.6341 135.09Z" fill="#FF4949"/>
</g>
<g style="mix-blend-mode:overlay">
<path fill-rule="evenodd" clip-rule="evenodd" d="M39.0264 46.5428C40.3358 47.8221 40.3601 49.9207 39.0808 51.2301C37.1117 53.2455 35.2937 55.5191 33.67 58.0186C32.0357 60.5342 30.5999 63.276 29.4057 66.2085C28.7152 67.9039 26.7811 68.7186 25.0856 68.0282C23.3902 67.3377 22.5755 65.4036 23.266 63.7081C24.6156 60.3942 26.2446 57.2797 28.1108 54.4071C29.9647 51.5533 32.0544 48.9355 34.339 46.5972C35.6184 45.2878 37.717 45.2634 39.0264 46.5428Z" fill="white"/>
</g>
<path d="M77.1017 149.155C75.0687 149.332 71.6094 149.387 69.5095 149.155L68.3513 150.915C70.9573 151.421 76.5963 151.41 78.1848 150.777L77.1017 149.155Z" fill="#E22020"/>
<g style="mix-blend-mode:overlay">
<circle cx="23.4877" cy="74.4974" r="3.9311" transform="rotate(12.6199 23.4877 74.4974)" fill="white"/>
</g>
<g style="mix-blend-mode:overlay" filter="url(#filter1_iiiif_992_11097)">
<path fill-rule="evenodd" clip-rule="evenodd" d="M96.9257 41.2382C99.1793 40.7627 101.367 42.5156 101.813 45.1535C102.271 47.8677 103.02 49.6724 104.039 50.5393C105.14 51.4759 107.3 52.0182 111.57 51.7873C113.862 51.6633 115.034 52.3261 115.178 55.0036C115.323 57.6812 114.151 58.482 112.003 59.799C107.583 62.5091 103.208 61.2686 99.2406 57.9812C95.4647 54.8524 94.2977 50.6995 93.652 46.8756C93.2065 44.2377 94.6722 41.7137 96.9257 41.2382Z" fill="#DA8E8E" fill-opacity="0.1"/>
</g>
<g style="mix-blend-mode:overlay" filter="url(#filter2_iiiif_992_11097)">
<path fill-rule="evenodd" clip-rule="evenodd" d="M98.2595 42.4136C100.035 42.0233 101.763 43.4867 102.121 45.6822C102.488 47.9412 103.083 49.4443 103.888 50.1679C104.758 50.9496 106.462 51.4059 109.827 51.2239C111.633 51.1262 112.558 51.6803 112.679 53.9081C112.799 56.1358 111.877 56.7992 110.187 57.8897C106.71 60.1337 103.259 59.0914 100.124 56.3472C97.1402 53.7355 96.2106 50.278 95.6926 47.0955C95.3352 44.9 96.4845 42.8038 98.2595 42.4136Z" fill="#DA8E8E" fill-opacity="0.1"/>
</g>
<g opacity="0.8" filter="url(#filter3_iiif_992_11097)">
<path fill-rule="evenodd" clip-rule="evenodd" d="M100.315 47.3108C101.166 47.134 101.99 47.7813 102.157 48.7566C102.329 49.76 102.852 50.0079 103.237 50.3281C103.651 50.674 104.225 51.2927 105.835 51.2055C106.7 51.1588 107.142 51.4034 107.195 52.3934C107.249 53.3834 106.806 53.68 105.996 54.1678C104.327 55.1717 102.677 54.7148 101.182 53.5008C99.7587 52.3454 99.3201 50.8103 99.0781 49.3966C98.9111 48.4214 99.465 47.4876 100.315 47.3108Z" fill="#910000" fill-opacity="0.75"/>
</g>
<path d="M101.958 51.926L123.891 10.7532C126.137 6.53689 131.713 5.49013 135.336 8.60479C138.634 11.4412 138.815 16.4875 135.727 19.5523L102.553 52.4816L101.958 51.926Z" fill="#201F29"/>
<path d="M121.705 19.9586L125.975 12.3122C127.249 10.0302 130.125 9.20167 132.425 10.4538C135.204 11.9662 135.779 15.7073 133.583 17.9741L127.488 24.2628C126.341 25.4465 124.538 25.7064 123.099 24.8955C121.354 23.9121 120.73 21.7041 121.705 19.9586Z" fill="#F2F2F2"/>
<path d="M128.229 18.1111C128.451 25.1398 133.405 37.5933 149.127 32.462C164.85 27.3307 165.604 51.1341 150.1 63.142C139.789 71.9407 151.153 78.2875 156.306 79.3598" stroke="#201F29" stroke-width="3" stroke-linecap="round"/>
<defs>
<filter id="filter0_iiiii_992_11097" x="12.236" y="-0.832153" width="118.194" height="170.145" filterUnits="userSpaceOnUse" color-interpolation-filters="sRGB">
<feFlood flood-opacity="0" result="BackgroundImageFix"/>
<feBlend mode="normal" in="SourceGraphic" in2="BackgroundImageFix" result="shape"/>
<feColorMatrix in="SourceAlpha" type="matrix" values="0 0 0 0 0 0 0 0 0 0 0 0 0 0 0 0 0 0 127 0" result="hardAlpha"/>
<feOffset dy="20"/>
<feGaussianBlur stdDeviation="20"/>
<feComposite in2="hardAlpha" operator="arithmetic" k2="-1" k3="1"/>
<feColorMatrix type="matrix" values="0 0 0 0 1 0 0 0 0 1 0 0 0 0 1 0 0 0 0.5 0"/>
<feBlend mode="overlay" in2="shape" result="effect1_innerShadow_992_11097"/>
<feColorMatrix in="SourceAlpha" type="matrix" values="0 0 0 0 0 0 0 0 0 0 0 0 0 0 0 0 0 0 127 0" result="hardAlpha"/>
<feOffset dy="-30"/>
<feGaussianBlur stdDeviation="30"/>
<feComposite in2="hardAlpha" operator="arithmetic" k2="-1" k3="1"/>
<feColorMatrix type="matrix" values="0 0 0 0 0 0 0 0 0 0 0 0 0 0 0 0 0 0 0.5 0"/>
<feBlend mode="overlay" in2="effect1_innerShadow_992_11097" result="effect2_innerShadow_992_11097"/>
<feColorMatrix in="SourceAlpha" type="matrix" values="0 0 0 0 0 0 0 0 0 0 0 0 0 0 0 0 0 0 127 0" result="hardAlpha"/>
<feOffset dy="5"/>
<feGaussianBlur stdDeviation="7.5"/>
<feComposite in2="hardAlpha" operator="arithmetic" k2="-1" k3="1"/>
<feColorMatrix type="matrix" values="0 0 0 0 1 0 0 0 0 1 0 0 0 0 1 0 0 0 0.7 0"/>
<feBlend mode="overlay" in2="effect2_innerShadow_992_11097" result="effect3_innerShadow_992_11097"/>
<feColorMatrix in="SourceAlpha" type="matrix" values="0 0 0 0 0 0 0 0 0 0 0 0 0 0 0 0 0 0 127 0" result="hardAlpha"/>
<feOffset dy="-40"/>
<feGaussianBlur stdDeviation="10"/>
<feComposite in2="hardAlpha" operator="arithmetic" k2="-1" k3="1"/>
<feColorMatrix type="matrix" values="0 0 0 0 0 0 0 0 0 0 0 0 0 0 0 0 0 0 0.15 0"/>
<feBlend mode="overlay" in2="effect3_innerShadow_992_11097" result="effect4_innerShadow_992_11097"/>
<feColorMatrix in="SourceAlpha" type="matrix" values="0 0 0 0 0 0 0 0 0 0 0 0 0 0 0 0 0 0 127 0" result="hardAlpha"/>
<feOffset dy="20"/>
<feGaussianBlur stdDeviation="10"/>
<feComposite in2="hardAlpha" operator="arithmetic" k2="-1" k3="1"/>
<feColorMatrix type="matrix" values="0 0 0 0 1 0 0 0 0 1 0 0 0 0 1 0 0 0 0.25 0"/>
<feBlend mode="overlay" in2="effect4_innerShadow_992_11097" result="effect5_innerShadow_992_11097"/>
</filter>
<filter id="filter1_iiiif_992_11097" x="88.5722" y="34.1604" width="31.6182" height="34.1212" filterUnits="userSpaceOnUse" color-interpolation-filters="sRGB">
<feFlood flood-opacity="0" result="BackgroundImageFix"/>
<feBlend mode="normal" in="SourceGraphic" in2="BackgroundImageFix" result="shape"/>
<feColorMatrix in="SourceAlpha" type="matrix" values="0 0 0 0 0 0 0 0 0 0 0 0 0 0 0 0 0 0 127 0" result="hardAlpha"/>
<feOffset/>
<feGaussianBlur stdDeviation="2"/>
<feComposite in2="hardAlpha" operator="arithmetic" k2="-1" k3="1"/>
<feColorMatrix type="matrix" values="0 0 0 0 1 0 0 0 0 0.282353 0 0 0 0 0.282353 0 0 0 1 0"/>
<feBlend mode="overlay" in2="shape" result="effect1_innerShadow_992_11097"/>
<feColorMatrix in="SourceAlpha" type="matrix" values="0 0 0 0 0 0 0 0 0 0 0 0 0 0 0 0 0 0 127 0" result="hardAlpha"/>
<feOffset dy="7"/>
<feGaussianBlur stdDeviation="10"/>
<feComposite in2="hardAlpha" operator="arithmetic" k2="-1" k3="1"/>
<feColorMatrix type="matrix" values="0 0 0 0 0 0 0 0 0 0 0 0 0 0 0 0 0 0 0.5 0"/>
<feBlend mode="overlay" in2="effect1_innerShadow_992_11097" result="effect2_innerShadow_992_11097"/>
<feColorMatrix in="SourceAlpha" type="matrix" values="0 0 0 0 0 0 0 0 0 0 0 0 0 0 0 0 0 0 127 0" result="hardAlpha"/>
<feOffset dy="-1"/>
<feGaussianBlur stdDeviation="8"/>
<feComposite in2="hardAlpha" operator="arithmetic" k2="-1" k3="1"/>
<feColorMatrix type="matrix" values="0 0 0 0 0.408333 0 0 0 0 0.408333 0 0 0 0 0.408333 0 0 0 0.25 0"/>
<feBlend mode="overlay" in2="effect2_innerShadow_992_11097" result="effect3_innerShadow_992_11097"/>
<feColorMatrix in="SourceAlpha" type="matrix" values="0 0 0 0 0 0 0 0 0 0 0 0 0 0 0 0 0 0 127 0" result="hardAlpha"/>
<feOffset dy="-11"/>
<feGaussianBlur stdDeviation="3.5"/>
<feComposite in2="hardAlpha" operator="arithmetic" k2="-1" k3="1"/>
<feColorMatrix type="matrix" values="0 0 0 0 1 0 0 0 0 1 0 0 0 0 1 0 0 0 0.25 0"/>
<feBlend mode="overlay" in2="effect3_innerShadow_992_11097" result="effect4_innerShadow_992_11097"/>
<feGaussianBlur stdDeviation="2.5" result="effect5_foregroundBlur_992_11097"/>
</filter>
<filter id="filter2_iiiif_992_11097" x="85.6274" y="32.3506" width="37.0616" height="36.7607" filterUnits="userSpaceOnUse" color-interpolation-filters="sRGB">
<feFlood flood-opacity="0" result="BackgroundImageFix"/>
<feBlend mode="normal" in="SourceGraphic" in2="BackgroundImageFix" result="shape"/>
<feColorMatrix in="SourceAlpha" type="matrix" values="0 0 0 0 0 0 0 0 0 0 0 0 0 0 0 0 0 0 127 0" result="hardAlpha"/>
<feOffset/>
<feGaussianBlur stdDeviation="2"/>
<feComposite in2="hardAlpha" operator="arithmetic" k2="-1" k3="1"/>
<feColorMatrix type="matrix" values="0 0 0 0 1 0 0 0 0 0.282353 0 0 0 0 0.282353 0 0 0 1 0"/>
<feBlend mode="overlay" in2="shape" result="effect1_innerShadow_992_11097"/>
<feColorMatrix in="SourceAlpha" type="matrix" values="0 0 0 0 0 0 0 0 0 0 0 0 0 0 0 0 0 0 127 0" result="hardAlpha"/>
<feOffset dy="7"/>
<feGaussianBlur stdDeviation="10"/>
<feComposite in2="hardAlpha" operator="arithmetic" k2="-1" k3="1"/>
<feColorMatrix type="matrix" values="0 0 0 0 0 0 0 0 0 0 0 0 0 0 0 0 0 0 0.5 0"/>
<feBlend mode="overlay" in2="effect1_innerShadow_992_11097" result="effect2_innerShadow_992_11097"/>
<feColorMatrix in="SourceAlpha" type="matrix" values="0 0 0 0 0 0 0 0 0 0 0 0 0 0 0 0 0 0 127 0" result="hardAlpha"/>
<feOffset dy="-1"/>
<feGaussianBlur stdDeviation="8"/>
<feComposite in2="hardAlpha" operator="arithmetic" k2="-1" k3="1"/>
<feColorMatrix type="matrix" values="0 0 0 0 0.408333 0 0 0 0 0.408333 0 0 0 0 0.408333 0 0 0 0.25 0"/>
<feBlend mode="overlay" in2="effect2_innerShadow_992_11097" result="effect3_innerShadow_992_11097"/>
<feColorMatrix in="SourceAlpha" type="matrix" values="0 0 0 0 0 0 0 0 0 0 0 0 0 0 0 0 0 0 127 0" result="hardAlpha"/>
<feOffset dy="-11"/>
<feGaussianBlur stdDeviation="3.5"/>
<feComposite in2="hardAlpha" operator="arithmetic" k2="-1" k3="1"/>
<feColorMatrix type="matrix" values="0 0 0 0 1 0 0 0 0 1 0 0 0 0 1 0 0 0 0.25 0"/>
<feBlend mode="overlay" in2="effect3_innerShadow_992_11097" result="effect4_innerShadow_992_11097"/>
<feGaussianBlur stdDeviation="5" result="effect5_foregroundBlur_992_11097"/>
</filter>
<filter id="filter3_iiif_992_11097" x="94.0484" y="42.2817" width="18.1514" height="19.4363" filterUnits="userSpaceOnUse" color-interpolation-filters="sRGB">
<feFlood flood-opacity="0" result="BackgroundImageFix"/>
<feBlend mode="normal" in="SourceGraphic" in2="BackgroundImageFix" result="shape"/>
<feColorMatrix in="SourceAlpha" type="matrix" values="0 0 0 0 0 0 0 0 0 0 0 0 0 0 0 0 0 0 127 0" result="hardAlpha"/>
<feOffset/>
<feGaussianBlur stdDeviation="2"/>
<feComposite in2="hardAlpha" operator="arithmetic" k2="-1" k3="1"/>
<feColorMatrix type="matrix" values="0 0 0 0 1 0 0 0 0 0.282353 0 0 0 0 0.282353 0 0 0 1 0"/>
<feBlend mode="overlay" in2="shape" result="effect1_innerShadow_992_11097"/>
<feColorMatrix in="SourceAlpha" type="matrix" values="0 0 0 0 0 0 0 0 0 0 0 0 0 0 0 0 0 0 127 0" result="hardAlpha"/>
<feOffset dy="7"/>
<feGaussianBlur stdDeviation="10"/>
<feComposite in2="hardAlpha" operator="arithmetic" k2="-1" k3="1"/>
<feColorMatrix type="matrix" values="0 0 0 0 0 0 0 0 0 0 0 0 0 0 0 0 0 0 0.5 0"/>
<feBlend mode="overlay" in2="effect1_innerShadow_992_11097" result="effect2_innerShadow_992_11097"/>
<feColorMatrix in="SourceAlpha" type="matrix" values="0 0 0 0 0 0 0 0 0 0 0 0 0 0 0 0 0 0 127 0" result="hardAlpha"/>
<feOffset dy="-1"/>
<feGaussianBlur stdDeviation="8"/>
<feComposite in2="hardAlpha" operator="arithmetic" k2="-1" k3="1"/>
<feColorMatrix type="matrix" values="0 0 0 0 0.408333 0 0 0 0 0.408333 0 0 0 0 0.408333 0 0 0 0.25 0"/>
<feBlend mode="overlay" in2="effect2_innerShadow_992_11097" result="effect3_innerShadow_992_11097"/>
<feGaussianBlur stdDeviation="2.5" result="effect4_foregroundBlur_992_11097"/>
</filter>
</defs>
</svg>
