<svg
  xmlns="http://www.w3.org/2000/svg"
  width="20"
  height="20"
  viewBox="0 0 20 20"
  fill="none"
>
  <path
    fill-rule="evenodd"
    clip-rule="evenodd"
    d="M10.0103 3.17676C5.67687 3.17676 2.16394 6.70674 2.16394 11.0612C2.16394 12.9759 2.84313 14.7311 3.97262 16.097L2.36167 17.7033C2.06418 17.9999 2.06418 18.4809 2.36167 18.7775C2.65917 19.0741 3.1415 19.0741 3.43899 18.7775L5.05033 17.1708C6.40208 18.2802 8.12886 18.9456 10.0103 18.9456C11.9342 18.9456 13.6964 18.2498 15.0613 17.095L16.7487 18.7775C17.0461 19.0741 17.5285 19.0741 17.826 18.7775C18.1235 18.4809 18.1235 17.9999 17.826 17.7033L16.1228 16.0051C17.2074 14.6528 17.8567 12.9332 17.8567 11.0612C17.8567 6.70674 14.3437 3.17676 10.0103 3.17676Z"
    fill="currentColor"
    fill-opacity="0.2"
  />
  <path
    d="M2.3839 1.90291C4.02462 0.539891 5.64051 0.99461 6.58674 1.49444C7.02474 1.72582 6.96598 2.31071 6.53551 2.55595C5.83406 2.95558 4.8683 3.54331 4.19446 4.1031C3.52062 4.66289 2.76456 5.50556 2.24208 6.12272C1.92145 6.50144 1.33867 6.44951 1.19481 5.97379C0.884019 4.94606 0.743176 3.26593 2.3839 1.90291Z"
    fill="currentColor"
  />
  <path
    d="M17.6161 1.90291C15.9754 0.539891 14.3595 0.99461 13.4133 1.49444C12.9753 1.72582 13.034 2.31071 13.4645 2.55595C14.1659 2.95558 15.1317 3.54331 15.8055 4.1031C16.4794 4.66289 17.2354 5.50556 17.7579 6.12272C18.0785 6.50144 18.6613 6.44951 18.8052 5.97379C19.116 4.94606 19.2568 3.26593 17.6161 1.90291Z"
    fill="currentColor"
  />
  <path
    d="M10.2364 7.50108C10.2364 7.07962 9.89638 6.73796 9.47692 6.73796C9.05746 6.73796 8.71742 7.07962 8.71742 7.50108V11.0463C8.71672 11.0811 8.7184 11.1158 8.7224 11.1502C8.74768 11.3718 8.86742 11.5645 9.04016 11.6867C9.07585 11.712 9.1138 11.7342 9.15364 11.753L11.1626 12.7623C11.5378 12.9508 11.994 12.798 12.1816 12.421C12.3692 12.0441 12.2171 11.5857 11.8419 11.3972L10.2364 10.5906V7.50108Z"
    fill="currentColor"
  />
</svg>
