<svg
  xmlns="http://www.w3.org/2000/svg"
  width="20"
  height="20"
  viewBox="0 0 20 20"
  fill="none"
>
  <path
    d="M1 15.011L1 15.0723C0.99999 15.6102 0.999981 16.0592 1.03015 16.4259C1.06161 16.8084 1.12966 17.1674 1.30383 17.5065C1.56637 18.0176 1.9824 18.4336 2.49351 18.6962C2.83261 18.8703 3.19161 18.9384 3.57411 18.9699C3.94081 19 4.38977 19 4.92767 19L15.0723 19C15.6102 19 16.0592 19 16.4259 18.9699C16.8084 18.9384 17.1674 18.8703 17.5065 18.6962C18.0176 18.4336 18.4336 18.0176 18.6962 17.5065C18.8703 17.1674 18.9384 16.8084 18.9699 16.4259C19 16.0592 19 15.6102 19 15.0723L19 15.011C19 14.4731 19 14.0241 18.9699 13.6574C18.9384 13.2749 18.8703 12.9159 18.6962 12.5768C18.4336 12.0657 18.0176 11.6497 17.5065 11.3872C17.1674 11.213 16.8084 11.1449 16.4259 11.1135C16.0592 11.0833 15.6102 11.0833 15.0723 11.0833L4.92769 11.0833C4.38978 11.0833 3.94081 11.0833 3.57411 11.1135C3.19161 11.1449 2.83261 11.213 2.49352 11.3872C1.9824 11.6497 1.56637 12.0657 1.30383 12.5768C1.12966 12.9159 1.06161 13.2749 1.03015 13.6574C0.999982 14.0241 0.99999 14.4731 1 15.011Z"
    fill="currentColor"
    fill-opacity="0.2"
  />
  <path
    d="M8.33325 4.92752L8.33325 4.98882C8.33324 5.52671 8.33323 5.9757 8.3634 6.3424C8.39486 6.72489 8.46291 7.0839 8.63708 7.42299C8.89962 7.9341 9.31566 8.35014 9.82677 8.61267C10.1659 8.78685 10.5249 8.85489 10.9074 8.88636C11.2741 8.91652 11.723 8.91651 12.2609 8.9165L15.0722 8.9165C15.6101 8.91651 16.0591 8.91652 16.4258 8.88636C16.8083 8.85489 17.1673 8.78685 17.5064 8.61267C18.0175 8.35014 18.4336 7.9341 18.6961 7.42299C18.8703 7.0839 18.9383 6.72489 18.9698 6.3424C18.9999 5.97569 18.9999 5.52672 18.9999 4.98882L18.9999 4.92752C18.9999 4.38962 18.9999 3.94065 18.9698 3.57394C18.9383 3.19145 18.8703 2.83244 18.6961 2.49335C18.4336 1.98224 18.0175 1.5662 17.5064 1.30367C17.1673 1.12949 16.8083 1.06145 16.4258 1.02998C16.0591 0.999816 15.6101 0.999825 15.0722 0.999836L12.2609 0.999836C11.723 0.999825 11.2741 0.999816 10.9074 1.02998C10.5249 1.06145 10.1659 1.12949 9.82677 1.30367C9.31566 1.5662 8.89962 1.98224 8.63708 2.49335C8.46291 2.83244 8.39486 3.19145 8.3634 3.57394C8.33323 3.94064 8.33324 4.38963 8.33325 4.92752Z"
    fill="currentColor"
  />
</svg>
