<svg width="20" height="20" viewBox="0 0 20 20" fill="currentcolor" xmlns="http://www.w3.org/2000/svg">
  <path d="M19 15.011L19 15.0723C19 15.6102 19 16.0592 18.9699 16.4259C18.9384 16.8084 18.8703 17.1674 18.6962 17.5065C18.4336 18.0176 18.0176 18.4336 17.5065 18.6962C17.1674 18.8703 16.8084 18.9384 16.4259 18.9699C16.0592 19 15.6102 19 15.0723 19L4.92768 19C4.38979 19 3.9408 19 3.5741 18.9699C3.19161 18.9384 2.8326 18.8703 2.49351 18.6962C1.9824 18.4336 1.56637 18.0176 1.30383 17.5065C1.12966 17.1674 1.06161 16.8084 1.03015 16.4259C0.999979 16.0592 0.999988 15.6102 1 15.0723L1 15.011C0.999988 14.4731 0.999979 14.0241 1.03015 13.6574C1.06161 13.2749 1.12966 12.9159 1.30383 12.5768C1.56637 12.0657 1.9824 11.6497 2.49351 11.3872C2.8326 11.213 3.19161 11.1449 3.5741 11.1135C3.94081 11.0833 4.38978 11.0833 4.92768 11.0833L15.0723 11.0833C15.6102 11.0833 16.0592 11.0833 16.4259 11.1135C16.8084 11.1449 17.1674 11.213 17.5065 11.3872C18.0176 11.6497 18.4336 12.0657 18.6962 12.5768C18.8703 12.9159 18.9384 13.2749 18.9699 13.6574C19 14.0241 19 14.4731 19 15.011Z" fill="currentcolor" fill-opacity="0.2" />
  <path d="M11.6667 4.92752L11.6667 4.98882C11.6668 5.52671 11.6668 5.9757 11.6366 6.3424C11.6051 6.72489 11.5371 7.0839 11.3629 7.42299C11.1004 7.9341 10.6843 8.35014 10.1732 8.61267C9.83414 8.78685 9.47514 8.85489 9.09264 8.88636C8.72594 8.91652 8.27698 8.91651 7.73908 8.9165L4.92776 8.9165C4.38987 8.91651 3.94089 8.91652 3.57419 8.88636C3.19169 8.85489 2.83269 8.78685 2.49359 8.61267C1.98248 8.35014 1.56645 7.9341 1.30391 7.42299C1.12973 7.0839 1.06169 6.72489 1.03023 6.3424C1.00006 5.97569 1.00007 5.52672 1.00008 4.98882L1.00008 4.92752C1.00007 4.38962 1.00006 3.94065 1.03023 3.57394C1.06169 3.19145 1.12973 2.83244 1.30391 2.49335C1.56645 1.98224 1.98248 1.5662 2.49359 1.30367C2.83269 1.12949 3.19169 1.06145 3.57419 1.02998C3.94089 0.999816 4.38986 0.999825 4.92777 0.999836L7.73906 0.999836C8.27696 0.999825 8.72594 0.999816 9.09264 1.02998C9.47514 1.06145 9.83414 1.12949 10.1732 1.30367C10.6843 1.5662 11.1004 1.98224 11.3629 2.49335C11.5371 2.83244 11.6051 3.19145 11.6366 3.57394C11.6668 3.94064 11.6668 4.38963 11.6667 4.92752Z" fill="currentcolor" />
</svg>
