<svg
  xmlns="http://www.w3.org/2000/svg"
  width="20"
  height="20"
  viewBox="0 0 20 20"
  fill="none"
>
  <path
    d="M4.98934 1H4.92815C4.39121 0.99999 3.94303 0.999981 3.57695 1.03002C3.19511 1.06135 2.83669 1.12909 2.49799 1.30252C1.98396 1.56574 1.56573 1.98396 1.30252 2.498C1.12909 2.83669 1.06134 3.19512 1.03002 3.57696C0.999981 3.94304 0.99999 4.39121 1 4.92814V12.3221C0.99999 12.859 0.999981 13.3072 1.03002 13.6733C1.06134 14.0551 1.12909 14.4135 1.30252 14.7522C1.56573 15.2663 1.98396 15.6845 2.49799 15.9477C2.83669 16.1211 3.19511 16.1889 3.57695 16.2202C3.94302 16.2503 4.39118 16.2502 4.9281 16.2502H4.98935C5.52627 16.2502 5.97447 16.2503 6.34054 16.2202C6.72238 16.1889 7.0808 16.1211 7.4195 15.9477C7.93353 15.6845 8.35176 15.2663 8.61497 14.7522C8.7884 14.4135 8.85615 14.0551 8.88747 13.6733C8.91751 13.3072 8.9175 12.859 8.91749 12.3221V4.92815C8.9175 4.39121 8.91751 3.94304 8.88747 3.57696C8.85615 3.19512 8.7884 2.83669 8.61497 2.498C8.35176 1.98396 7.93353 1.56574 7.4195 1.30252C7.0808 1.12909 6.72238 1.06135 6.34054 1.03002C5.97446 0.999981 5.52628 0.99999 4.98934 1Z"
    fill="currentColor"
    fill-opacity="0.2"
  />
  <path
    d="M15.0719 5.61925H15.0107C14.4737 5.61924 14.0255 5.61923 13.6595 5.64927C13.2776 5.6806 12.9192 5.74834 12.5805 5.92177C12.0665 6.18499 11.6482 6.60321 11.385 7.11725C11.2116 7.45595 11.1439 7.81437 11.1125 8.19621C11.0825 8.56229 11.0825 9.01046 11.0825 9.5474V12.3584C11.0825 12.8953 11.0825 13.3435 11.1125 13.7096C11.1439 14.0914 11.2116 14.4498 11.385 14.7885C11.6482 15.3026 12.0665 15.7208 12.5805 15.984C12.9192 16.1574 13.2776 16.2252 13.6595 16.2565C14.0255 16.2866 14.4737 16.2865 15.0106 16.2865H15.0719C15.6088 16.2865 16.057 16.2866 16.4231 16.2565C16.8049 16.2252 17.1633 16.1574 17.502 15.984C18.016 15.7208 18.4343 15.3026 18.6975 14.7885C18.8709 14.4498 18.9387 14.0914 18.97 13.7096C19 13.3435 19 12.8953 19 12.3584V9.5474C19 9.01046 19 8.56229 18.97 8.19621C18.9387 7.81437 18.8709 7.45595 18.6975 7.11725C18.4343 6.60321 18.016 6.18499 17.502 5.92177C17.1633 5.74834 16.8049 5.6806 16.4231 5.64927C16.057 5.61923 15.6088 5.61924 15.0719 5.61925Z"
    fill="currentColor"
    fill-opacity="0.2"
  />
  <path
    fill-rule="evenodd"
    clip-rule="evenodd"
    d="M1 18.2493C1 17.8347 1.3361 17.4986 1.75069 17.4986H18.2493C18.6638 17.4986 18.9999 17.8347 18.9999 18.2493C18.9999 18.6639 18.6638 19 18.2493 19H1.75069C1.3361 19 1 18.6639 1 18.2493Z"
    fill="currentColor"
  />
</svg>
