<svg
  xmlns="http://www.w3.org/2000/svg"
  width="20"
  height="20"
  viewBox="0 0 20 20"
  fill="none"
>
  <path
    d="M18.97 3.57695C19 3.94303 19 4.39121 19 4.92815V4.98934C19 5.52628 19 5.97446 18.97 6.34054C18.9387 6.72238 18.8709 7.0808 18.6975 7.4195C18.4343 7.93353 18.016 8.35176 17.502 8.61497C17.1633 8.7884 16.8049 8.85614 16.423 8.88747C16.057 8.91751 15.6088 8.9175 15.0718 8.91749H7.67791C7.14097 8.9175 6.69278 8.91751 6.3267 8.88747C5.94487 8.85614 5.58644 8.7884 5.24774 8.61497C4.73371 8.35176 4.31548 7.93353 4.05226 7.4195C3.87883 7.0808 3.81109 6.72238 3.77976 6.34054C3.74972 5.97447 3.74973 5.52631 3.74974 4.98939V4.92814C3.74973 4.39122 3.74972 3.94302 3.77976 3.57695C3.81109 3.19511 3.87883 2.83669 4.05226 2.49799C4.31548 1.98396 4.73371 1.56573 5.24774 1.30252C5.58644 1.12909 5.94487 1.06134 6.3267 1.03002C6.69279 0.99998 7.14096 0.999989 7.6779 1L15.0718 1C15.6088 0.99999 16.057 0.99998 16.423 1.03002C16.8049 1.06134 17.1633 1.12909 17.502 1.30252C18.016 1.56573 18.4343 1.98396 18.6975 2.49799C18.8709 2.83669 18.9387 3.19511 18.97 3.57695Z"
    fill="currentColor"
    fill-opacity="0.2"
  />
  <path
    d="M14.3507 13.6595C14.3808 14.0255 14.3807 14.4737 14.3807 15.0107V15.0719C14.3807 15.6088 14.3808 16.057 14.3507 16.4231C14.3194 16.8049 14.2516 17.1633 14.0782 17.502C13.815 18.016 13.3968 18.4343 12.8827 18.6975C12.544 18.8709 12.1856 18.9387 11.8038 18.97C11.4377 19 10.9895 19 10.4526 19H7.64161C7.10467 19 6.65648 19 6.2904 18.97C5.90856 18.9387 5.55014 18.8709 5.21144 18.6975C4.6974 18.4343 4.27918 18.016 4.01596 17.502C3.84253 17.1633 3.77478 16.8049 3.74346 16.4231C3.71342 16.057 3.71343 15.6088 3.71344 15.0719L3.71344 15.0106C3.71343 14.4737 3.71342 14.0255 3.74346 13.6595C3.77478 13.2776 3.84253 12.9192 4.01596 12.5805C4.27918 12.0665 4.6974 11.6482 5.21144 11.385C5.55014 11.2116 5.90856 11.1439 6.2904 11.1125C6.65648 11.0825 7.10466 11.0825 7.6416 11.0825L10.4526 11.0825C10.9895 11.0825 11.4377 11.0825 11.8038 11.1125C12.1856 11.1439 12.544 11.2116 12.8827 11.385C13.3968 11.6482 13.815 12.0665 14.0782 12.5805C14.2516 12.9192 14.3194 13.2776 14.3507 13.6595Z"
    fill="currentColor"
    fill-opacity="0.2"
  />
  <path
    fill-rule="evenodd"
    clip-rule="evenodd"
    d="M1.75065 18.9999C2.16525 18.9999 2.50134 18.6638 2.50134 18.2492L2.50134 1.75068C2.50134 1.33609 2.16525 0.999994 1.75065 0.999994C1.33605 0.999994 0.999956 1.33609 0.999956 1.75068L0.999956 18.2492C0.999956 18.6638 1.33605 18.9999 1.75065 18.9999Z"
    fill="currentColor"
  />
</svg>
