<svg
  xmlns="http://www.w3.org/2000/svg"
  width="20"
  height="20"
  viewBox="0 0 20 20"
  fill="none"
>
  <path
    d="M15.0111 19L15.0724 19C15.6103 19 16.0593 19 16.426 18.9699C16.8084 18.9384 17.1675 18.8703 17.5065 18.6962C18.0177 18.4336 18.4337 18.0176 18.6962 17.5065C18.8704 17.1674 18.9384 16.8084 18.9699 16.4259C19.0001 16.0592 19.0001 15.6102 19.0001 15.0723L19.0001 4.92768C19.0001 4.38979 19.0001 3.9408 18.9699 3.5741C18.9385 3.19161 18.8704 2.8326 18.6962 2.49351C18.4337 1.9824 18.0177 1.56637 17.5065 1.30383C17.1675 1.12966 16.8085 1.06161 16.426 1.03015C16.0593 0.999979 15.6103 0.999988 15.0724 1L15.0111 1C14.4732 0.999988 14.0242 0.999979 13.6575 1.03015C13.275 1.06161 12.916 1.12966 12.5769 1.30383C12.0658 1.56637 11.6498 1.9824 11.3872 2.49351C11.213 2.8326 11.145 3.19161 11.1135 3.5741C11.0834 3.94081 11.0834 4.38978 11.0834 4.92768L11.0834 15.0723C11.0834 15.6102 11.0834 16.0592 11.1135 16.4259C11.145 16.8084 11.213 17.1674 11.3872 17.5065C11.6498 18.0176 12.0658 18.4336 12.5769 18.6962C12.916 18.8703 13.275 18.9384 13.6575 18.9699C14.0242 19 14.4732 19 15.0111 19Z"
    fill="currentColor"
    fill-opacity="0.2"
  />
  <path
    d="M4.9277 11.6667L4.989 11.6667C5.5269 11.6668 5.97588 11.6668 6.34258 11.6366C6.72508 11.6051 7.08408 11.5371 7.42317 11.3629C7.93428 11.1004 8.35032 10.6843 8.61285 10.1732C8.78703 9.83414 8.85508 9.47514 8.88654 9.09264C8.91671 8.72594 8.9167 8.27698 8.91669 7.73908L8.91669 4.92776C8.9167 4.38987 8.91671 3.94089 8.88654 3.57419C8.85508 3.19169 8.78703 2.83269 8.61286 2.49359C8.35032 1.98248 7.93428 1.56645 7.42317 1.30391C7.08408 1.12973 6.72508 1.06169 6.34258 1.03023C5.97588 1.00006 5.5269 1.00007 4.989 1.00008L4.9277 1.00008C4.3898 1.00007 3.94083 1.00006 3.57413 1.03023C3.19163 1.06169 2.83263 1.12973 2.49353 1.30391C1.98242 1.56644 1.56639 1.98248 1.30385 2.49359C1.12967 2.83268 1.06163 3.19169 1.03017 3.57419C1 3.94089 1.00001 4.38986 1.00002 4.92777L1.00002 7.73906C1.00001 8.27696 0.999999 8.72594 1.03017 9.09264C1.06163 9.47514 1.12967 9.83414 1.30385 10.1732C1.56638 10.6843 1.98242 11.1004 2.49353 11.3629C2.83262 11.5371 3.19163 11.6051 3.57412 11.6366C3.94082 11.6668 4.38981 11.6668 4.9277 11.6667Z"
    fill="currentColor"
  />
</svg>
