<svg
  xmlns="http://www.w3.org/2000/svg"
  width="20"
  height="20"
  viewBox="0 0 20 20"
  fill="none"
>
  <path
    d="M1.03002 3.57695C0.999985 3.94303 0.999993 4.39121 1 4.92815V4.98934C0.999993 5.52628 0.999985 5.97446 1.03002 6.34054C1.06135 6.72238 1.12909 7.0808 1.30252 7.4195C1.56574 7.93353 1.98397 8.35176 2.498 8.61497C2.8367 8.7884 3.19513 8.85614 3.57696 8.88747C3.94305 8.91751 4.39122 8.9175 4.92817 8.91749H12.3221C12.859 8.9175 13.3072 8.91751 13.6733 8.88747C14.0551 8.85614 14.4136 8.7884 14.7523 8.61497C15.2663 8.35176 15.6845 7.93353 15.9477 7.4195C16.1212 7.0808 16.1889 6.72238 16.2202 6.34054C16.2503 5.97447 16.2503 5.52631 16.2503 4.98939V4.92814C16.2503 4.39122 16.2503 3.94302 16.2202 3.57695C16.1889 3.19511 16.1212 2.83669 15.9477 2.49799C15.6845 1.98396 15.2663 1.56573 14.7523 1.30252C14.4136 1.12909 14.0551 1.06134 13.6733 1.03002C13.3072 0.99998 12.859 0.999989 12.3221 1L4.92816 1C4.39122 0.99999 3.94305 0.99998 3.57696 1.03002C3.19513 1.06134 2.8367 1.12909 2.498 1.30252C1.98397 1.56573 1.56574 1.98396 1.30252 2.49799C1.12909 2.83669 1.06135 3.19511 1.03002 3.57695Z"
    fill="currentColor"
    fill-opacity="0.2"
  />
  <path
    d="M5.64928 13.6595C5.61924 14.0255 5.61925 14.4737 5.61926 15.0107V15.0719C5.61925 15.6088 5.61924 16.057 5.64928 16.4231C5.68061 16.8049 5.74835 17.1633 5.92178 17.502C6.185 18.016 6.60322 18.4343 7.11726 18.6975C7.45596 18.8709 7.81439 18.9387 8.19622 18.97C8.56231 19 9.01049 19 9.54743 19H12.3584C12.8953 19 13.3435 19 13.7096 18.97C14.0914 18.9387 14.4499 18.8709 14.7886 18.6975C15.3026 18.4343 15.7208 18.016 15.984 17.502C16.1575 17.1633 16.2252 16.8049 16.2565 16.4231C16.2866 16.057 16.2866 15.6088 16.2866 15.0719L16.2866 15.0106C16.2866 14.4737 16.2866 14.0255 16.2565 13.6595C16.2252 13.2776 16.1575 12.9192 15.984 12.5805C15.7208 12.0665 15.3026 11.6482 14.7886 11.385C14.4499 11.2116 14.0914 11.1439 13.7096 11.1125C13.3435 11.0825 12.8953 11.0825 12.3584 11.0825L9.54742 11.0825C9.01048 11.0825 8.56231 11.0825 8.19622 11.1125C7.81439 11.1439 7.45596 11.2116 7.11726 11.385C6.60322 11.6482 6.185 12.0665 5.92178 12.5805C5.74835 12.9192 5.68061 13.2776 5.64928 13.6595Z"
    fill="currentColor"
    fill-opacity="0.2"
  />
  <path
    fill-rule="evenodd"
    clip-rule="evenodd"
    d="M18.2494 18.9999C17.8348 18.9999 17.4987 18.6638 17.4987 18.2492L17.4987 1.75068C17.4987 1.33609 17.8348 0.999994 18.2494 0.999994C18.6639 0.999994 19 1.33609 19 1.75068L19 18.2492C19 18.6638 18.6639 18.9999 18.2494 18.9999Z"
    fill="currentColor"
  />
</svg>
