<svg width="20" height="20" viewBox="0 0 20 20" fill="currentcolor" xmlns="http://www.w3.org/2000/svg">
  <path fill-rule="evenodd" d="M10 2.99512C10.4142 2.99512 10.75 3.3309 10.75 3.74512L10.75 16.2549C10.75 16.6691 10.4142 17.0049 10 17.0049C9.58582 17.0049 9.25003 16.6691 9.25003 16.2549L9.25003 3.74512C9.25003 3.3309 9.58582 2.99512 10 2.99512Z" fill="currentcolor" fill-opacity="0.2" />
  <path fill-rule="evenodd" d="M15.2639 10.333C15.5735 10.6082 15.6014 11.0822 15.3262 11.3918L10.5606 16.7532C10.4182 16.9133 10.2142 17.0049 10 17.0049C9.78578 17.0049 9.58178 16.9133 9.43945 16.7532L4.67381 11.3918C4.39862 11.0822 4.42651 10.6082 4.7361 10.333C5.04568 10.0578 5.51974 10.0857 5.79493 10.3953L10 15.126L14.2051 10.3953C14.4803 10.0857 14.9543 10.0578 15.2639 10.333Z" fill="currentcolor" />
</svg>
