<svg width="20" height="20" viewBox="0 0 20 20" fill="currentcolor" xmlns="http://www.w3.org/2000/svg">
  <path fill-rule="evenodd" d="M17.0049 10C17.0049 9.58579 16.6691 9.25 16.2549 9.25H3.74508C3.33086 9.25 2.99508 9.58579 2.99508 10C2.99508 10.4142 3.33086 10.75 3.74508 10.75H16.2549C16.6691 10.75 17.0049 10.4142 17.0049 10Z" fill="currentcolor" fill-opacity="0.2" />
  <path fill-rule="evenodd" d="M9.66699 4.73611C9.39181 4.42652 8.91775 4.39864 8.60816 4.67383L3.24682 9.43947C3.0867 9.58179 2.99509 9.78579 2.99509 10C2.99509 10.2143 3.0867 10.4183 3.24682 10.5606L8.60816 15.3262C8.91775 15.6014 9.39181 15.5735 9.66699 15.2639C9.94218 14.9543 9.9143 14.4803 9.60471 14.2051L4.87399 10L9.60471 5.79494C9.9143 5.51975 9.94218 5.0457 9.66699 4.73611Z" fill="currentcolor" />
</svg>
