<svg width="20" height="20" viewBox="0 0 20 20" fill="currentcolor" xmlns="http://www.w3.org/2000/svg">
  <path fill-rule="evenodd" d="M2.9951 10C2.9951 9.58579 3.33089 9.25 3.7451 9.25H16.2549C16.6691 9.25 17.0049 9.58579 17.0049 10C17.0049 10.4142 16.6691 10.75 16.2549 10.75H3.7451C3.33089 10.75 2.9951 10.4142 2.9951 10Z" fill="currentcolor" fill-opacity="0.2" />
  <path fill-rule="evenodd" d="M10.333 4.73611C10.6082 4.42652 11.0822 4.39864 11.3918 4.67383L16.7532 9.43947C16.9133 9.58179 17.0049 9.78579 17.0049 10C17.0049 10.2143 16.9133 10.4183 16.7532 10.5606L11.3918 15.3262C11.0822 15.6014 10.6082 15.5735 10.333 15.2639C10.0578 14.9543 10.0857 14.4803 10.3953 14.2051L15.126 10L10.3953 5.79494C10.0857 5.51975 10.0578 5.0457 10.333 4.73611Z" fill="currentcolor" />
</svg>
