<svg
  xmlns="http://www.w3.org/2000/svg"
  width="20"
  height="20"
  viewBox="0 0 20 20"
  fill="none"
>
  <path
    fill-rule="evenodd"
    clip-rule="evenodd"
    d="M10.0001 2.99512C10.4143 2.99512 10.7501 3.3309 10.7501 3.74512L10.7501 16.2549C10.7501 16.6691 10.4143 17.0049 10.0001 17.0049C9.58585 17.0049 9.25006 16.6691 9.25006 16.2549L9.25006 3.74512C9.25006 3.3309 9.58585 2.99512 10.0001 2.99512Z"
    fill="currentColor"
    fill-opacity="0.2"
  />
  <path
    fill-rule="evenodd"
    clip-rule="evenodd"
    d="M15.264 10.333C15.5735 10.6082 15.6014 11.0822 15.3262 11.3918L10.5606 16.7532C10.4183 16.9133 10.2143 17.0049 10 17.0049C9.78581 17.0049 9.58181 16.9133 9.43948 16.7532L4.67384 11.3918C4.39865 11.0822 4.42654 10.6082 4.73613 10.333C5.04571 10.0578 5.51977 10.0857 5.79496 10.3953L10 15.126L14.2051 10.3953C14.4803 10.0857 14.9544 10.0578 15.264 10.333Z"
    fill="currentColor"
  />
</svg>
