<svg
  xmlns="http://www.w3.org/2000/svg"
  width="20"
  height="20"
  viewBox="0 0 20 20"
  fill="none"
>
  <path
    fill-rule="evenodd"
    clip-rule="evenodd"
    d="M10 17.0049C9.58579 17.0049 9.25 16.6691 9.25 16.2549L9.25 3.74508C9.25 3.33086 9.58579 2.99508 10 2.99508C10.4142 2.99508 10.75 3.33086 10.75 3.74508L10.75 16.2549C10.75 16.6691 10.4142 17.0049 10 17.0049Z"
    fill="currentColor"
    fill-opacity="0.2"
  />
  <path
    fill-rule="evenodd"
    clip-rule="evenodd"
    d="M4.73611 9.66699C4.42652 9.39181 4.39864 8.91775 4.67383 8.60816L9.43947 3.24682C9.58179 3.0867 9.78579 2.99509 10 2.99509C10.2143 2.99509 10.4183 3.0867 10.5606 3.24682L15.3262 8.60816C15.6014 8.91775 15.5735 9.39181 15.2639 9.66699C14.9543 9.94218 14.4803 9.9143 14.2051 9.60471L10 4.87399L5.79494 9.60471C5.51975 9.9143 5.0457 9.94218 4.73611 9.66699Z"
    fill="currentColor"
  />
</svg>
