<svg width="20" height="20" viewBox="0 0 20 20" fill="currentColor" xmlns="http://www.w3.org/2000/svg">
  <path d="M4.71195 10C5.44797 10.8615 6.32147 11.7672 7.27716 12.7229C8.2329 13.6786 9.13858 14.5521 10.0001 15.2882C10.8616 14.5521 11.7673 13.6787 12.723 12.723C13.6787 11.7672 14.5522 10.8616 15.2882 10C14.5522 9.13851 13.6787 8.23284 12.7229 7.2771C11.7672 6.32142 10.8616 5.44793 10.0001 4.71191C9.13859 5.44796 8.23291 6.32148 7.27717 7.27721C6.32147 8.2329 5.44798 9.13855 4.71195 10Z" fill="currentColor" fill-opacity="0.2" />
  <path d="M13.7164 13.7164C14.59 12.8428 15.4334 11.9752 16.1795 11.1179C16.5525 11.6268 16.8636 12.1198 17.0998 12.5984C17.4869 13.3824 17.6456 14.0755 17.5811 14.7012C17.518 15.3137 17.2332 15.9396 16.5865 16.5864C15.9397 17.2332 15.3138 17.5179 14.7013 17.581C14.0756 17.6455 13.3825 17.4869 12.5984 17.0998C12.1199 16.8635 11.6269 16.5524 11.118 16.1795C11.9753 15.4333 12.8428 14.59 13.7164 13.7164Z" fill="currentColor" fill-opacity="0.2" />
  <path d="M6.28373 6.2838C5.41016 7.15737 4.56679 8.02491 3.82064 8.88218C3.44767 8.37327 3.13653 7.88023 2.90024 7.40164C2.51314 6.61759 2.35453 5.92445 2.41898 5.29882C2.48208 4.68632 2.76685 4.06038 3.41362 3.41362C4.06039 2.76685 4.68633 2.48208 5.29884 2.41898C5.92447 2.35453 6.61761 2.51314 7.40167 2.90024C7.88025 3.13653 8.37331 3.44767 8.88222 3.82064C8.02491 4.56681 7.15734 5.4102 6.28373 6.2838Z" fill="currentColor" fill-opacity="0.2" />
  <path d="M10 10.9366C10.5173 10.9366 10.9366 10.5172 10.9366 9.99995C10.9366 9.48267 10.5173 9.06334 10 9.06334C9.48273 9.06334 9.06339 9.48267 9.06339 9.99995C9.06339 10.5172 9.48273 10.9366 10 10.9366Z" fill="currentColor" />
  <path fill-rule="evenodd" d="M2.90353 10C2.39327 10.667 1.96136 11.3265 1.64047 11.9765C1.18023 12.9086 0.921223 13.8725 1.02143 14.8452C1.12299 15.831 1.58516 16.7448 2.42017 17.5799C3.25518 18.4149 4.16898 18.877 5.15484 18.9786C6.12757 19.0788 7.09141 18.8198 8.0236 18.3596C8.67356 18.0387 9.33307 17.6067 10.0001 17.0965C10.667 17.6067 11.3265 18.0386 11.9764 18.3594C12.9086 18.8197 13.8724 19.0787 14.8452 18.9785C15.831 18.8769 16.7448 18.4148 17.5798 17.5798C18.4148 16.7447 18.877 15.8309 18.9786 14.8451C19.0788 13.8724 18.8198 12.9085 18.3595 11.9763C18.0387 11.3264 17.6068 10.667 17.0965 10C17.6068 9.33305 18.0387 8.67358 18.3595 8.02365C18.8198 7.09146 19.0788 6.12763 18.9786 5.15491C18.877 4.16906 18.4149 3.25525 17.5798 2.42025C16.7448 1.58524 15.831 1.12308 14.8452 1.02152C13.8724 0.921311 12.9086 1.18032 11.9764 1.64055C11.3265 1.96143 10.667 2.39331 10.0001 2.90353C9.33306 2.39326 8.67355 1.96135 8.02358 1.64045C7.09139 1.18021 6.12755 0.921208 5.15482 1.02142C4.16897 1.12297 3.25516 1.58514 2.42015 2.42014C1.58514 3.25515 1.12297 4.16895 1.02142 5.1548C0.921208 6.12753 1.18022 7.09136 1.64045 8.02355C1.96135 8.67351 2.39326 9.33301 2.90353 10ZM4.71189 10C5.44792 10.8615 6.32141 11.7671 7.2771 12.7228C8.23284 13.6786 9.13853 14.5521 10.0001 15.2881C10.8616 14.5521 11.7672 13.6786 12.7229 12.7229C13.6786 11.7672 14.5522 10.8615 15.2882 10C14.5521 9.13848 13.6786 8.2328 12.7229 7.27707C11.7672 6.32139 10.8616 5.4479 10.0001 4.71188C9.13853 5.44792 8.23285 6.32145 7.27712 7.27718C6.32142 8.23287 5.44792 9.13851 4.71189 10ZM3.8206 11.1179C4.56675 11.9752 5.41011 12.8427 6.28368 13.7162C7.15729 14.5899 8.02486 15.4332 8.88218 16.1794C8.37327 16.5524 7.88022 16.8635 7.40164 17.0998C6.61758 17.4869 5.92444 17.6455 5.29881 17.5811C4.6863 17.518 4.06037 17.2332 3.41359 16.5864C2.76682 15.9397 2.48205 15.3137 2.41895 14.7012C2.3545 14.0756 2.51311 13.3825 2.90022 12.5984C3.1365 12.1198 3.44764 11.6268 3.8206 11.1179ZM3.8206 8.88214C4.56675 8.02486 5.41012 7.15732 6.28369 6.28375C7.1573 5.41015 8.02487 4.56676 8.88218 3.82059C8.37327 3.44762 7.88021 3.13648 7.40162 2.90019C6.61757 2.51309 5.92443 2.35448 5.29879 2.41893C4.68629 2.48203 4.06035 2.7668 3.41358 3.41357C2.76681 4.06034 2.48204 4.68627 2.41894 5.29877C2.35449 5.9244 2.5131 6.61754 2.9002 7.40159C3.13649 7.88018 3.44763 8.37323 3.8206 8.88214ZM11.1179 3.8206C11.9752 4.56674 12.8427 5.41009 13.7163 6.28365C14.5899 7.15725 15.4333 8.02482 16.1795 8.88212C16.5524 8.37325 16.8635 7.88024 17.0998 7.4017C17.4869 6.61764 17.6455 5.92451 17.5811 5.29888C17.518 4.68637 17.2332 4.06044 16.5864 3.41367C15.9396 2.7669 15.3137 2.48213 14.7012 2.41903C14.0756 2.35458 13.3824 2.5132 12.5984 2.9003C12.1198 3.13656 11.6268 3.44767 11.1179 3.8206ZM16.1795 11.1179C15.4333 11.9752 14.5899 12.8428 13.7163 13.7164C12.8428 14.5899 11.9752 15.4333 11.1179 16.1794C11.6268 16.5523 12.1198 16.8634 12.5984 17.0997C13.3824 17.4868 14.0756 17.6454 14.7012 17.581C15.3137 17.5179 15.9396 17.2331 16.5864 16.5863C17.2332 15.9396 17.5179 15.3136 17.581 14.7011C17.6455 14.0755 17.4869 13.3824 17.0998 12.5983C16.8635 12.1198 16.5524 11.6268 16.1795 11.1179Z" fill="currentColor" />
</svg>
