<svg width="20" height="20" viewBox="0 0 20 20" fill="currentcolor" xmlns="http://www.w3.org/2000/svg">
  <path fill-rule="evenodd" d="M7.83534 5.14551H12.1647C13.2645 5.14549 14.1552 5.14548 14.8656 5.2337C15.6053 5.32556 16.2357 5.52145 16.7681 5.97391C17.3006 6.42637 17.5903 7.01234 17.7918 7.72031C17.9854 8.40029 18.1171 9.2691 18.2799 10.342L18.6059 12.4913C18.8204 13.9053 18.9923 15.0391 18.9997 15.9358C19.0074 16.8631 18.8428 17.6596 18.2721 18.313C17.7015 18.9663 16.9272 19.2448 15.9963 19.3745C15.0961 19.5 13.9338 19.5 12.4843 19.4999H7.51568C6.0662 19.5 4.90395 19.5 4.00374 19.3745C3.07285 19.2448 2.29853 18.9663 1.72789 18.313C1.15725 17.6596 0.992592 16.8631 1.00025 15.9358C1.00766 15.0391 1.17965 13.9053 1.39414 12.4913L1.72013 10.342C1.88286 9.26911 2.01462 8.40029 2.2082 7.72031C2.40975 7.01234 2.69944 6.42637 3.23188 5.97391C3.76433 5.52145 4.39472 5.32556 5.1344 5.2337C5.84484 5.14548 6.73546 5.14549 7.83534 5.14551Z" fill="currentcolor" fill-opacity="0.2" />
  <path d="M9.99997 1.5C7.53827 1.5 5.54102 3.46865 5.54102 5.89911V8.63329C5.54102 9.05036 5.88353 9.38683 6.30401 9.38683C6.72449 9.38683 7.067 9.05036 7.067 8.63329V5.89911C7.067 4.30279 8.37923 3.00709 9.99997 3.00709C11.6207 3.00709 12.9329 4.3028 12.9329 5.89911V8.63329C12.9329 9.05036 13.2755 9.38683 13.6959 9.38683C14.1164 9.38683 14.4589 9.05036 14.4589 8.63329V5.89911C14.4589 3.46865 12.4617 1.5 9.99997 1.5Z" fill="currentcolor" />
</svg>
