<svg
  xmlns="http://www.w3.org/2000/svg"
  width="20"
  height="21"
  viewBox="0 0 20 21"
  fill="none"
>
  <path
    d="M20 10.0376C20 15.5604 15.5228 20.0376 10 20.0376C4.47715 20.0376 0 15.5604 0 10.0376C0 4.51475 4.47715 0.0375977 10 0.0375977C15.5228 0.0375977 20 4.51475 20 10.0376Z"
    fill="currentColor"
    fill-opacity="0.2"
  />
  <path
    d="M7.00899 6.99952C8.52292 5.34797 8.82679 3.51841 8.75162 2.12437C8.71425 1.43133 8.58376 0.841882 8.46234 0.424131C8.43501 0.330117 8.40803 0.2444 8.38249 0.167725C7.8807 0.249378 7.39144 0.368377 6.91766 0.521775C6.94732 0.603463 6.98386 0.711736 7.02195 0.842782C7.11906 1.17693 7.22392 1.65113 7.2538 2.20514C7.31311 3.30518 7.07904 4.70327 5.90326 5.98594C4.75698 7.23643 3.39703 7.46893 2.2771 7.38319C1.71213 7.33994 1.21721 7.21494 0.863025 7.09984C0.703103 7.04788 0.574088 6.99866 0.482867 6.96136C0.329191 7.43721 0.210212 7.92866 0.128906 8.43272C0.209794 8.46253 0.300278 8.49419 0.399458 8.52641C0.835376 8.66807 1.44996 8.82426 2.1626 8.87882C3.59788 8.98869 5.46557 8.68325 7.00899 6.99952Z"
    fill="currentColor"
  />
  <path
    d="M13.084 19.5531C12.6102 19.7065 12.121 19.8255 11.6192 19.9072C11.5936 19.8305 11.5667 19.7448 11.5393 19.6508C11.4179 19.233 11.2874 18.6435 11.2501 17.9505C11.1749 16.5565 11.4788 14.7269 12.9927 13.0754C14.5361 11.3916 16.4038 11.0862 17.8391 11.1961C18.5517 11.2506 19.1663 11.4068 19.6022 11.5485C19.7014 11.5807 19.7919 11.6124 19.8728 11.6422C19.7915 12.1462 19.6725 12.6377 19.5188 13.1135C19.4276 13.0762 19.2986 13.027 19.1386 12.975C18.7845 12.8599 18.2895 12.7349 17.7246 12.6917C16.6046 12.606 15.2447 12.8385 14.0984 14.0889C12.9226 15.3716 12.6886 16.7697 12.7479 17.8697C12.7777 18.4238 12.8826 18.898 12.9797 19.2321C13.0178 19.3631 13.0544 19.4714 13.084 19.5531Z"
    fill="currentColor"
  />
</svg>
