<svg width="20" height="20" viewBox="0 0 20 20" fill="currentcolor" xmlns="http://www.w3.org/2000/svg">
  <path d="M4.59964 4.59964C-0.532521 9.73181 0.768846 15.3161 2.72637 17.2736C4.68389 19.2312 10.2682 20.5325 15.4004 15.4004C20.5325 10.2682 19.2312 4.68389 17.2736 2.72637C15.3161 0.768846 9.73181 -0.532521 4.59964 4.59964Z" fill="currentcolor" fill-opacity="0.2" />
  <path fill-rule="evenodd" d="M3.79091 15.4165C3.72645 15.9273 3.83969 16.0954 3.87209 16.1278C3.90448 16.1602 4.07263 16.2735 4.58342 16.209C5.06782 16.1479 5.7139 15.9408 6.4824 15.5676C8.01198 14.8246 9.88723 13.4915 11.6893 11.6894C13.4914 9.88733 14.8245 8.01208 15.5675 6.4825C15.9407 5.714 16.1478 5.06792 16.2089 4.58351C16.2734 4.07273 16.1601 3.90458 16.1277 3.87218C16.0953 3.83979 15.9272 3.72655 15.4164 3.79101C14.932 3.85215 14.2859 4.05919 13.5174 4.43246C11.9878 5.17539 10.1126 6.50857 8.31053 8.31063C6.50847 10.1127 5.1753 11.9879 4.43236 13.5175C4.05909 14.286 3.85205 14.9321 3.79091 15.4165ZM3.08434 12.8628C3.91335 11.156 5.3542 9.14759 7.25085 7.25095C9.14749 5.3543 11.1559 3.91345 12.8627 3.08443C13.7124 2.67173 14.5226 2.39331 15.2288 2.30419C15.9085 2.2184 16.665 2.29009 17.1874 2.8125C17.7098 3.33491 17.7815 4.09144 17.6957 4.77117C17.6066 5.47729 17.3282 6.28757 16.9155 7.13725C16.0865 8.84404 14.6456 10.8524 12.749 12.7491C10.8523 14.6457 8.84395 16.0866 7.13716 16.9156C6.28747 17.3283 5.47719 17.6067 4.77107 17.6958C4.09134 17.7816 3.33481 17.7099 2.8124 17.1875C2.28999 16.6651 2.2183 15.9086 2.30409 15.2289C2.39321 14.5227 2.67163 13.7125 3.08434 12.8628Z" fill="currentcolor" />
</svg>
