<svg width="20" height="21" viewBox="0 0 20 21" fill="currentcolor" xmlns="http://www.w3.org/2000/svg">
  <circle cx="10" cy="10.0375" r="10" fill="currentcolor" fill-opacity="0.2" />
  <circle cx="10" cy="10.0375" r="9.25" stroke="currentcolor" stroke-opacity="0.2" stroke-width="1.5" />
  <path fill-rule="evenodd" d="M0.106511 8.57281C0.0363412 9.05089 0 9.53997 0 10.0375C0 10.049 2.05644e-05 10.0604 5.89339e-05 10.0718C0.0329887 10.0758 0.0671954 10.0796 0.102654 10.0831C0.505292 10.123 1.06841 10.1275 1.75416 10.0011C3.00819 9.77 4.62963 9.10937 6.40437 7.50258L8.93935 10.0376L2.41841 16.5585C2.74504 16.9379 3.09966 17.2925 3.47907 17.6192L10 11.0982L12.535 13.6332C10.9282 15.4079 10.2676 17.0294 10.0365 18.2834C9.9101 18.9691 9.91457 19.5323 9.95445 19.9349C9.95796 19.9703 9.96175 20.0046 9.96574 20.0375C9.97715 20.0375 9.98858 20.0375 10 20.0375C10.4976 20.0375 10.9867 20.0012 11.4648 19.931C11.4585 19.8885 11.4524 19.8405 11.4471 19.787C11.4198 19.5105 11.4132 19.0895 11.5116 18.5552C11.6867 17.6051 12.202 16.2543 13.5971 14.6953L16.5209 17.6191C16.9003 17.2925 17.255 16.9379 17.5816 16.5585L14.6578 13.6346C16.2167 12.2395 17.5676 11.7242 18.5177 11.5492C19.052 11.4507 19.473 11.4573 19.7495 11.4847C19.8029 11.49 19.851 11.496 19.8935 11.5023C19.9637 11.0242 20 10.5351 20 10.0375C20 10.0261 20 10.0147 19.9999 10.0033C19.967 9.99927 19.9328 9.99548 19.8974 9.99197C19.4947 9.95209 18.9316 9.94762 18.2459 10.074C16.9918 10.3051 15.3704 10.9657 13.5956 12.5725L11.0607 10.0376L17.5816 3.51661C17.255 3.1372 16.9004 2.78257 16.521 2.45594L10 8.9769L7.46503 6.44191C9.07181 4.66718 9.73244 3.04574 9.96355 1.79172C10.0899 1.10596 10.0855 0.542844 10.0456 0.140206C10.0421 0.104742 10.0383 0.07053 10.0343 0.0375955C10.0229 0.0375572 10.0114 0.0375366 10 0.0375366C9.50243 0.0375366 9.01334 0.0738789 8.53525 0.144051C8.54151 0.186536 8.54758 0.234616 8.55288 0.288058C8.58027 0.56455 8.58685 0.985575 8.48839 1.51986C8.31329 2.46996 7.79803 3.82085 6.40292 5.37981L3.47905 2.45594C3.09964 2.78257 2.74502 3.13719 2.41839 3.5166L5.34226 6.44047C3.7833 7.83558 2.43241 8.35085 1.48231 8.52594C0.948022 8.62441 0.526998 8.61782 0.250505 8.59043C0.197069 8.58514 0.148993 8.57907 0.106511 8.57281Z" fill="currentcolor" />
</svg>
