<svg
  xmlns="http://www.w3.org/2000/svg"
  width="20"
  height="20"
  viewBox="0 0 20 20"
  fill="none"
>
  <path
    d="M6.15796 18.1987C6.15796 19.1499 6.929 19.9209 7.88014 19.9209C8.83127 19.9209 9.60231 19.1499 9.60231 18.1987C9.60231 17.2476 8.83127 16.4766 7.88014 16.4766C6.929 16.4766 6.15796 17.2476 6.15796 18.1987Z"
    fill="currentColor"
  />
  <path
    d="M5.97467 2.62653C5.97467 4.07712 7.15061 5.25305 8.6012 5.25305C10.0518 5.25305 11.2277 4.07712 11.2277 2.62653C11.2277 1.17594 10.0518 0 8.6012 0C7.15061 0 5.97467 1.17594 5.97467 2.62653Z"
    fill="currentColor"
    fill-opacity="0.2"
  />
  <path
    d="M6.3226 4.92033C6.89498 5.55773 7.72545 5.95865 8.64957 5.95865C9.68287 5.95865 10.5991 5.45739 11.1683 4.68475C11.9667 4.88793 13.4743 5.45287 15.3277 7.01354C15.9705 7.55485 15.6607 8.55996 14.836 8.72132C14.5278 8.78161 14.2078 8.70021 13.9605 8.50669C10.6786 5.93832 11.0271 7.35533 11.0424 7.41328L11.0436 7.41797L11.8348 10.8896L13.5367 18.6307C13.6993 19.3704 13.1006 20.0569 12.3456 19.9962C11.8564 19.957 11.4494 19.6086 11.3371 19.1309C10.8664 17.129 9.65921 12.0596 9.50219 12.0526C9.48411 12.0518 9.48293 12.1564 9.48096 12.3314C9.47104 13.2126 9.44102 15.8793 7.1337 15.8793C5.32198 16.0107 4.5673 13.9937 4.25693 12.4846C4.09212 11.6833 4.82208 11.0506 5.62314 11.2167C5.93105 11.2806 6.18619 11.495 6.30202 11.7874L6.98948 13.5226C7.00543 13.5629 7.06493 13.5537 7.06633 13.5104C7.08474 12.9426 7.13749 11.2403 7.14109 10.2716C7.14556 9.06969 7.13081 8.37342 7.1124 7.97011C7.09579 7.6064 6.96184 7.16225 6.60159 7.10943C6.26709 7.06038 5.81175 7.37409 5.46304 9.04395C5.38642 9.41084 5.12612 9.71767 4.76846 9.82973C4.09583 10.0405 3.42343 9.49859 3.56427 8.80793C4.12727 6.04705 5.44447 5.18376 6.3226 4.92033Z"
    fill="currentColor"
    fill-opacity="0.2"
  />
</svg>
