<svg width="20" height="21" viewBox="0 0 20 21" fill="currentcolor" xmlns="http://www.w3.org/2000/svg">
  <path d="M20 10.2047C20 15.7275 15.5228 20.2047 10 20.2047C4.47715 20.2047 0 15.7275 0 10.2047C0 4.68184 4.47715 0.204689 10 0.204689C15.5228 0.204689 20 4.68184 20 10.2047Z" fill="currentcolor" fill-opacity="0.2" />
  <path d="M6.04849 6.46998C6.12037 7.01757 5.73474 7.51974 5.18715 7.59163C4.63956 7.66351 4.13738 7.27787 4.0655 6.73028C3.99362 6.18269 4.37926 5.68052 4.92685 5.60864C5.47443 5.53676 5.97661 5.92239 6.04849 6.46998Z" fill="currentcolor" />
  <path d="M9.35192 4.22667C9.4238 4.77426 9.03817 5.27644 8.49058 5.34832C7.94299 5.4202 7.44081 5.03456 7.36893 4.48698C7.29705 3.93939 7.68269 3.43721 8.23028 3.36533C8.77786 3.29345 9.28004 3.67909 9.35192 4.22667Z" fill="currentcolor" />
  <path d="M9.61221 8.09161C9.68409 8.6392 9.29845 9.14137 8.75087 9.21325C8.20328 9.28513 7.7011 8.8995 7.62922 8.35191C7.55734 7.80432 7.94298 7.30215 8.49057 7.23026C9.03815 7.15838 9.54033 7.54402 9.61221 8.09161Z" fill="currentcolor" />
</svg>
