<svg width="20" height="20" viewBox="0 0 20 20" fill="currentcolor" xmlns="http://www.w3.org/2000/svg">
  <path d="M4.96522 4.96511C2.17619 7.75415 1.18317 10.6849 1.01979 13.0579C0.938552 14.238 1.06255 15.2771 1.26918 16.0895C1.37241 16.4954 1.49822 16.8524 1.63438 17.1468C1.76434 17.4278 1.92525 17.6991 2.11946 17.8934C2.31391 18.0878 2.58506 18.2483 2.86574 18.3776C3.15971 18.513 3.51584 18.6376 3.92055 18.7394C4.73061 18.9431 5.76618 19.063 6.94246 18.9777C9.30782 18.8061 12.2296 17.805 15.0174 15.0173C17.8051 12.2295 18.8062 9.30771 18.9778 6.94235C19.0631 5.76607 18.9432 4.7305 18.7395 3.92044C18.6377 3.51573 18.5131 3.1596 18.3777 2.86564C18.2484 2.58496 18.0879 2.3138 17.8935 2.11935C17.6992 1.92514 17.4279 1.76423 17.1469 1.63427C16.8525 1.49811 16.4955 1.3723 16.0896 1.26907C15.2772 1.06245 14.2381 0.938445 13.058 1.01969C10.685 1.18306 7.75425 2.17608 4.96522 4.96511Z" fill="currentcolor" fill-opacity="0.2" />
  <path fill-rule="evenodd" d="M6.3229 10.5656C6.6158 10.2727 7.09067 10.2727 7.38356 10.5656L9.4167 12.5987C9.70959 12.8916 9.70959 13.3665 9.4167 13.6594C9.12381 13.9523 8.64893 13.9523 8.35604 13.6594L6.3229 11.6262C6.03001 11.3333 6.03001 10.8585 6.3229 10.5656Z" fill="currentcolor" />
  <path fill-rule="evenodd" d="M8.52269 8.36586C8.81558 8.07297 9.29045 8.07297 9.58334 8.36586L11.6165 10.399C11.9094 10.6919 11.9094 11.1668 11.6165 11.4597C11.3236 11.7526 10.8487 11.7526 10.5558 11.4597L8.52269 9.42652C8.22979 9.13363 8.22979 8.65876 8.52269 8.36586Z" fill="currentcolor" />
  <path fill-rule="evenodd" d="M10.5656 6.32296C10.8585 6.03007 11.3333 6.03007 11.6262 6.32296L13.6594 8.3561C13.9523 8.64899 13.9523 9.12386 13.6594 9.41676C13.3665 9.70965 12.8916 9.70965 12.5987 9.41676L10.5656 7.38362C10.2727 7.09073 10.2727 6.61585 10.5656 6.32296Z" fill="currentcolor" />
  <path d="M18.8487 7.982C18.7559 8.52799 18.6174 9.09568 18.4234 9.67795L10.3089 1.56347C10.8926 1.37084 11.4619 1.2339 12.0094 1.14272L18.8487 7.982Z" fill="currentcolor" />
  <path d="M1.56065 10.3117L9.67514 18.4262C9.09287 18.6203 8.52518 18.7588 7.97919 18.8516L1.13989 12.0123C1.23108 11.4647 1.36801 10.8954 1.56065 10.3117Z" fill="currentcolor" />
</svg>
