<svg
  xmlns="http://www.w3.org/2000/svg"
  width="20"
  height="21"
  viewBox="0 0 20 21"
  fill="none"
>
  <path
    d="M20 10.2046C20 15.7274 15.5228 20.2046 10 20.2046C4.47715 20.2046 0 15.7274 0 10.2046C0 4.68174 4.47715 0.20459 10 0.20459C15.5228 0.20459 20 4.68174 20 10.2046Z"
    fill="currentColor"
    fill-opacity="0.2"
  />
  <path
    d="M6.04861 6.46996C6.12049 7.01754 5.73486 7.51972 5.18727 7.5916C4.63968 7.66348 4.13751 7.27785 4.06563 6.73026C3.99375 6.18267 4.37938 5.68049 4.92697 5.60861C5.47456 5.53673 5.97673 5.92237 6.04861 6.46996Z"
    fill="currentColor"
  />
  <path
    d="M9.35204 4.22665C9.42392 4.77424 9.03829 5.27642 8.4907 5.3483C7.94311 5.42018 7.44094 5.03454 7.36906 4.48695C7.29717 3.93937 7.68281 3.43719 8.2304 3.36531C8.77799 3.29343 9.28016 3.67906 9.35204 4.22665Z"
    fill="currentColor"
  />
  <path
    d="M9.61233 8.09159C9.68421 8.63917 9.29858 9.14135 8.75099 9.21323C8.2034 9.28511 7.70122 8.89947 7.62934 8.35189C7.55746 7.8043 7.9431 7.30212 8.49069 7.23024C9.03828 7.15836 9.54045 7.544 9.61233 8.09159Z"
    fill="currentColor"
  />
</svg>
