<svg
  xmlns="http://www.w3.org/2000/svg"
  width="20"
  height="20"
  viewBox="0 0 20 20"
  fill="none"
>
  <path
    d="M4.59964 4.59964C-0.532521 9.73181 0.768846 15.3161 2.72637 17.2736C4.68389 19.2312 10.2682 20.5325 15.4004 15.4004C20.5325 10.2682 19.2312 4.68389 17.2736 2.72637C15.3161 0.768846 9.73181 -0.532521 4.59964 4.59964Z"
    fill="currentColor"
    fill-opacity="0.2"
  />
  <path
    fill-rule="evenodd"
    clip-rule="evenodd"
    d="M3.79091 15.4164C3.72645 15.9272 3.83969 16.0953 3.87209 16.1277C3.90448 16.1601 4.07263 16.2734 4.58342 16.2089C5.06782 16.1478 5.7139 15.9407 6.4824 15.5675C8.01198 14.8245 9.88723 13.4914 11.6893 11.6893C13.4914 9.88723 14.8245 8.01198 15.5675 6.4824C15.9407 5.7139 16.1478 5.06782 16.2089 4.58342C16.2734 4.07263 16.1601 3.90448 16.1277 3.87209C16.0953 3.83969 15.9272 3.72645 15.4164 3.79091C14.932 3.85205 14.2859 4.05909 13.5174 4.43236C11.9878 5.17529 10.1126 6.50847 8.31053 8.31053C6.50847 10.1126 5.1753 11.9878 4.43236 13.5174C4.05909 14.2859 3.85205 14.932 3.79091 15.4164ZM3.08434 12.8627C3.91335 11.1559 5.3542 9.14749 7.25085 7.25085C9.14749 5.3542 11.1559 3.91335 12.8627 3.08434C13.7124 2.67163 14.5226 2.39321 15.2288 2.30409C15.9085 2.2183 16.665 2.28999 17.1874 2.8124C17.7098 3.33481 17.7815 4.09134 17.6957 4.77107C17.6066 5.47719 17.3282 6.28747 16.9155 7.13716C16.0865 8.84395 14.6456 10.8523 12.749 12.749C10.8523 14.6456 8.84395 16.0865 7.13716 16.9155C6.28747 17.3282 5.47719 17.6066 4.77107 17.6957C4.09134 17.7815 3.33481 17.7098 2.8124 17.1874C2.28999 16.665 2.2183 15.9085 2.30409 15.2288C2.39321 14.5226 2.67163 13.7124 3.08434 12.8627Z"
    fill="currentColor"
  />
</svg>
