<svg
  xmlns="http://www.w3.org/2000/svg"
  width="20"
  height="21"
  viewBox="0 0 20 21"
  fill="none"
>
  <path
    d="M9.99631 5.42095C9.8747 5.42095 9.76092 5.44719 9.65767 5.50185C9.55501 5.5562 9.47202 5.63277 9.41092 5.73053L9.40972 5.73253C9.35274 5.82749 9.32545 5.93377 9.32545 6.04782C9.32545 6.16544 9.35178 6.27468 9.40937 6.37066L9.41534 6.37901C9.4771 6.46548 9.55901 6.53439 9.6576 6.58659L9.66307 6.58916C9.76517 6.63721 9.87702 6.66003 9.99631 6.66003C10.1156 6.66003 10.2275 6.63734 10.3296 6.58929L10.335 6.58647C10.4341 6.53396 10.5153 6.46397 10.5729 6.37471C10.6369 6.27826 10.6672 6.16766 10.6672 6.04782C10.6672 5.93271 10.6369 5.82599 10.575 5.73143C10.5184 5.63275 10.4373 5.55601 10.335 5.50185C10.2317 5.44719 10.1179 5.42095 9.99631 5.42095Z"
    fill="currentColor"
    fill-opacity="0.2"
  />
  <path
    d="M9.99631 7.51785C9.86067 7.51785 9.73467 7.54627 9.62129 7.60594C9.51015 7.66443 9.41982 7.74503 9.35337 7.84774C9.2844 7.95432 9.25213 8.07702 9.25213 8.21071C9.25213 8.33712 9.28565 8.45437 9.35337 8.55902C9.41982 8.66173 9.51015 8.74233 9.62129 8.80082C9.73467 8.86049 9.86067 8.88891 9.99631 8.88891C10.1299 8.88891 10.2542 8.86387 10.3666 8.81067L10.3713 8.80815C10.4825 8.74966 10.5728 8.66906 10.6393 8.56636C10.7076 8.4607 10.7405 8.34075 10.7405 8.21071C10.7405 8.07798 10.7087 7.95608 10.6407 7.85004C10.5787 7.74568 10.4899 7.66448 10.3787 7.60594C10.2646 7.54588 10.1359 7.51785 9.99631 7.51785Z"
    fill="currentColor"
    fill-opacity="0.2"
  />
  <path
    fill-rule="evenodd"
    clip-rule="evenodd"
    d="M10 20.0376C15.5228 20.0376 20 15.5604 20 10.0376C20 4.51475 15.5228 0.0375977 10 0.0375977C4.47715 0.0375977 0 4.51475 0 10.0376C0 15.5604 4.47715 20.0376 10 20.0376ZM8.9118 4.3472C9.24508 4.19629 9.60913 4.12506 9.99633 4.12506C10.3835 4.12506 10.7476 4.19629 11.0809 4.34719C11.4103 4.49151 11.6879 4.69941 11.8996 4.97526C12.1232 5.26663 12.2344 5.60546 12.2344 5.97451C12.2344 6.16157 12.2055 6.34378 12.1436 6.51754C12.0897 6.67747 12.0087 6.82459 11.9046 6.95832C11.9243 6.97828 11.9435 6.99878 11.9622 7.01981C12.1186 7.18504 12.2337 7.38003 12.3107 7.59737C12.3906 7.81798 12.425 8.05944 12.425 8.31336C12.425 8.70693 12.3066 9.06821 12.0713 9.38194L12.0685 9.38562C11.8402 9.6837 11.5363 9.90831 11.1739 10.0663C10.8122 10.2262 10.4172 10.3021 9.99633 10.3021C9.57493 10.3021 9.17957 10.226 8.81744 10.0657L8.81185 10.0633C8.45613 9.89998 8.15766 9.67353 7.93151 9.37827L7.92874 9.37466C7.69447 9.0623 7.575 8.7038 7.575 8.31336C7.575 8.06658 7.60636 7.83194 7.67806 7.61603C7.74834 7.39957 7.85443 7.20312 8.00138 7.03518C8.0276 7.00538 8.05536 6.97583 8.08342 6.94789C7.9931 6.82015 7.91798 6.68512 7.85882 6.54315L7.85031 6.52273C7.78715 6.34727 7.75829 6.16314 7.75829 5.97451C7.75829 5.60546 7.86945 5.26663 8.09306 4.97526C8.30475 4.69942 8.58233 4.49151 8.9118 4.3472Z"
    fill="currentColor"
    fill-opacity="0.2"
  />
  <mask id="path-2-inside-1_886_2511" fill="currentColor">
    <path
      d="M9.99631 5.42095C9.8747 5.42095 9.76092 5.44719 9.65767 5.50185C9.55501 5.5562 9.47202 5.63277 9.41092 5.73053L9.40972 5.73253C9.35274 5.82749 9.32545 5.93377 9.32545 6.04782C9.32545 6.16544 9.35178 6.27468 9.40937 6.37066L9.41534 6.37901C9.4771 6.46548 9.55901 6.53439 9.6576 6.58659L9.66307 6.58916C9.76517 6.63721 9.87702 6.66003 9.99631 6.66003C10.1156 6.66003 10.2275 6.63734 10.3296 6.58929L10.335 6.58647C10.4341 6.53396 10.5153 6.46397 10.5729 6.37471C10.6369 6.27826 10.6672 6.16766 10.6672 6.04782C10.6672 5.93271 10.6369 5.82599 10.575 5.73143C10.5184 5.63275 10.4373 5.55601 10.335 5.50185C10.2317 5.44719 10.1179 5.42095 9.99631 5.42095Z"
    />
    <path
      d="M9.99631 7.51786C9.86067 7.51786 9.73467 7.54627 9.62129 7.60594C9.51015 7.66443 9.41982 7.74503 9.35337 7.84774C9.2844 7.95432 9.25213 8.07702 9.25213 8.21071C9.25213 8.33712 9.28565 8.45437 9.35337 8.55902C9.41982 8.66173 9.51015 8.74233 9.62129 8.80082C9.73467 8.86049 9.86067 8.88891 9.99631 8.88891C10.1299 8.88891 10.2542 8.86387 10.3666 8.81067L10.3713 8.80815C10.4825 8.74966 10.5728 8.66906 10.6393 8.56636C10.7076 8.4607 10.7405 8.34075 10.7405 8.21071C10.7405 8.07798 10.7087 7.95608 10.6407 7.85004C10.5787 7.74568 10.4899 7.66448 10.3787 7.60594C10.2646 7.54588 10.1359 7.51786 9.99631 7.51786Z"
    />
    <path
      fill-rule="evenodd"
      clip-rule="evenodd"
      d="M10 12.1782C12.6492 12.1782 14.7969 10.0306 14.7969 7.38135C14.7969 4.73211 12.6492 2.58447 10 2.58447C7.35076 2.58447 5.20312 4.73211 5.20312 7.38135C5.20312 10.0306 7.35076 12.1782 10 12.1782ZM8.9118 4.3472C9.24508 4.19629 9.60913 4.12506 9.99633 4.12506C10.3835 4.12506 10.7476 4.19629 11.0809 4.34719C11.4103 4.49151 11.6879 4.69941 11.8996 4.97526C12.1232 5.26663 12.2344 5.60546 12.2344 5.97451C12.2344 6.16157 12.2055 6.34378 12.1436 6.51754C12.0897 6.67747 12.0087 6.82459 11.9046 6.95832C11.9243 6.97828 11.9435 6.99878 11.9622 7.01981C12.1186 7.18504 12.2337 7.38003 12.3107 7.59737C12.3906 7.81798 12.425 8.05944 12.425 8.31336C12.425 8.70693 12.3066 9.06821 12.0713 9.38194L12.0685 9.38562C11.8402 9.6837 11.5363 9.90831 11.1739 10.0663C10.8122 10.2262 10.4172 10.3021 9.99633 10.3021C9.57493 10.3021 9.17957 10.226 8.81744 10.0657L8.81185 10.0633C8.45613 9.89998 8.15766 9.67353 7.93151 9.37827L7.92874 9.37466C7.69447 9.0623 7.575 8.7038 7.575 8.31336C7.575 8.06658 7.60636 7.83194 7.67806 7.61603C7.74834 7.39957 7.85443 7.20312 8.00138 7.03518C8.0276 7.00538 8.05536 6.97583 8.08342 6.94789C7.9931 6.82015 7.91798 6.68512 7.85882 6.54315L7.85031 6.52273C7.78715 6.34727 7.75829 6.16314 7.75829 5.97451C7.75829 5.60546 7.86945 5.26663 8.09306 4.97526C8.30475 4.69942 8.58233 4.49151 8.9118 4.3472Z"
    />
  </mask>
  <path
    d="M9.99631 5.42095C9.8747 5.42095 9.76092 5.44719 9.65767 5.50185C9.55501 5.5562 9.47202 5.63277 9.41092 5.73053L9.40972 5.73253C9.35274 5.82749 9.32545 5.93377 9.32545 6.04782C9.32545 6.16544 9.35178 6.27468 9.40937 6.37066L9.41534 6.37901C9.4771 6.46548 9.55901 6.53439 9.6576 6.58659L9.66307 6.58916C9.76517 6.63721 9.87702 6.66003 9.99631 6.66003C10.1156 6.66003 10.2275 6.63734 10.3296 6.58929L10.335 6.58647C10.4341 6.53396 10.5153 6.46397 10.5729 6.37471C10.6369 6.27826 10.6672 6.16766 10.6672 6.04782C10.6672 5.93271 10.6369 5.82599 10.575 5.73143C10.5184 5.63275 10.4373 5.55601 10.335 5.50185C10.2317 5.44719 10.1179 5.42095 9.99631 5.42095Z"
    fill="currentColor"
  />
  <path
    d="M9.99631 7.51786C9.86067 7.51786 9.73467 7.54627 9.62129 7.60594C9.51015 7.66443 9.41982 7.74503 9.35337 7.84774C9.2844 7.95432 9.25213 8.07702 9.25213 8.21071C9.25213 8.33712 9.28565 8.45437 9.35337 8.55902C9.41982 8.66173 9.51015 8.74233 9.62129 8.80082C9.73467 8.86049 9.86067 8.88891 9.99631 8.88891C10.1299 8.88891 10.2542 8.86387 10.3666 8.81067L10.3713 8.80815C10.4825 8.74966 10.5728 8.66906 10.6393 8.56636C10.7076 8.4607 10.7405 8.34075 10.7405 8.21071C10.7405 8.07798 10.7087 7.95608 10.6407 7.85004C10.5787 7.74568 10.4899 7.66448 10.3787 7.60594C10.2646 7.54588 10.1359 7.51786 9.99631 7.51786Z"
    fill="currentColor"
  />
  <path
    fill-rule="evenodd"
    clip-rule="evenodd"
    d="M10 12.1782C12.6492 12.1782 14.7969 10.0306 14.7969 7.38135C14.7969 4.73211 12.6492 2.58447 10 2.58447C7.35076 2.58447 5.20312 4.73211 5.20312 7.38135C5.20312 10.0306 7.35076 12.1782 10 12.1782ZM8.9118 4.3472C9.24508 4.19629 9.60913 4.12506 9.99633 4.12506C10.3835 4.12506 10.7476 4.19629 11.0809 4.34719C11.4103 4.49151 11.6879 4.69941 11.8996 4.97526C12.1232 5.26663 12.2344 5.60546 12.2344 5.97451C12.2344 6.16157 12.2055 6.34378 12.1436 6.51754C12.0897 6.67747 12.0087 6.82459 11.9046 6.95832C11.9243 6.97828 11.9435 6.99878 11.9622 7.01981C12.1186 7.18504 12.2337 7.38003 12.3107 7.59737C12.3906 7.81798 12.425 8.05944 12.425 8.31336C12.425 8.70693 12.3066 9.06821 12.0713 9.38194L12.0685 9.38562C11.8402 9.6837 11.5363 9.90831 11.1739 10.0663C10.8122 10.2262 10.4172 10.3021 9.99633 10.3021C9.57493 10.3021 9.17957 10.226 8.81744 10.0657L8.81185 10.0633C8.45613 9.89998 8.15766 9.67353 7.93151 9.37827L7.92874 9.37466C7.69447 9.0623 7.575 8.7038 7.575 8.31336C7.575 8.06658 7.60636 7.83194 7.67806 7.61603C7.74834 7.39957 7.85443 7.20312 8.00138 7.03518C8.0276 7.00538 8.05536 6.97583 8.08342 6.94789C7.9931 6.82015 7.91798 6.68512 7.85882 6.54315L7.85031 6.52273C7.78715 6.34727 7.75829 6.16314 7.75829 5.97451C7.75829 5.60546 7.86945 5.26663 8.09306 4.97526C8.30475 4.69942 8.58233 4.49151 8.9118 4.3472Z"
    fill="currentColor"
  />
  <path
    d="M8.9118 4.3472L9.51362 5.72118L9.52209 5.71746L9.53052 5.71365L8.9118 4.3472ZM11.0809 4.34719L10.4621 5.71365L10.4706 5.71746L10.479 5.72117L11.0809 4.34719ZM11.8996 4.97526L10.7096 5.88848L10.7096 5.88849L11.8996 4.97526ZM12.1436 6.51754L10.7305 6.01445L10.7264 6.02613L10.7224 6.03788L12.1436 6.51754ZM11.9046 6.95832L10.7209 6.03702L9.91312 7.07483L10.8364 8.01137L11.9046 6.95832ZM11.9622 7.01981L10.8418 8.01715L10.857 8.03426L10.8727 8.05089L11.9622 7.01981ZM12.3107 7.59737L10.8968 8.09823L10.9004 8.10815L12.3107 7.59737ZM12.0713 9.38194L10.8712 8.48197L10.8712 8.48207L12.0713 9.38194ZM12.0685 9.38562L13.2593 10.2977L13.264 10.2916L13.2686 10.2855L12.0685 9.38562ZM11.1739 10.0663L10.5744 8.69131L10.5676 8.69433L11.1739 10.0663ZM8.81744 10.0657L9.42456 8.69409L9.42437 8.69401L8.81744 10.0657ZM8.81185 10.0633L8.1861 11.4265L8.19548 11.4308L8.20492 11.435L8.81185 10.0633ZM7.93151 9.37827L6.74062 10.2903L6.74069 10.2904L7.93151 9.37827ZM7.92874 9.37466L6.72874 10.2747L6.73327 10.2807L6.73785 10.2867L7.92874 9.37466ZM7.67806 7.61603L9.10166 8.08876L9.10476 8.07922L7.67806 7.61603ZM8.00138 7.03518L6.8753 6.04424L6.87251 6.04743L8.00138 7.03518ZM8.08342 6.94789L9.14178 8.01084L10.0398 7.11666L9.30818 6.08189L8.08342 6.94789ZM7.85882 6.54315L6.4742 7.12005L6.47421 7.12007L7.85882 6.54315ZM7.85031 6.52273L6.43898 7.03081L6.45149 7.06555L6.46569 7.09963L7.85031 6.52273ZM8.09306 4.97526L9.28303 5.88849L9.28303 5.88849L8.09306 4.97526ZM9.65767 5.50185L10.3595 6.82753L10.3595 6.82753L9.65767 5.50185ZM9.41092 5.73053L8.13893 4.93553L8.13168 4.94712L8.12464 4.95885L9.41092 5.73053ZM9.40972 5.73253L10.696 6.50427L10.696 6.50421L9.40972 5.73253ZM9.40937 6.37066L8.12313 7.14241L8.15395 7.19378L8.18878 7.24253L9.40937 6.37066ZM9.41534 6.37901L10.6359 5.50716L10.6359 5.50715L9.41534 6.37901ZM9.6576 6.58659L8.95578 7.91228L8.98694 7.92877L9.01884 7.94379L9.6576 6.58659ZM9.66307 6.58916L9.02431 7.94636L9.02437 7.94639L9.66307 6.58916ZM10.3296 6.58929L10.9683 7.94652L11.0003 7.93148L11.0315 7.91494L10.3296 6.58929ZM10.335 6.58647L9.63313 5.26078L9.63306 5.26082L10.335 6.58647ZM10.5729 6.37471L9.32323 5.54507L9.3179 5.55309L9.31268 5.56118L10.5729 6.37471ZM10.575 5.73143L9.27358 6.4773L9.29566 6.51583L9.31998 6.55298L10.575 5.73143ZM10.335 5.50185L9.63312 6.82753L9.63312 6.82753L10.335 5.50185ZM9.62129 7.60594L8.92267 6.27856L8.92266 6.27856L9.62129 7.60594ZM9.35337 7.84774L8.09401 7.03286L8.09401 7.03286L9.35337 7.84774ZM9.35337 8.55902L8.09401 9.3739L8.09401 9.3739L9.35337 8.55902ZM9.62129 8.80082L8.92267 10.1282L8.92267 10.1282L9.62129 8.80082ZM10.3666 8.81067L11.0087 10.1663L11.0372 10.1528L11.0651 10.1381L10.3666 8.81067ZM10.3713 8.80815L11.0699 10.1356L11.07 10.1355L10.3713 8.80815ZM10.6393 8.56636L11.8986 9.38123L11.8986 9.38123L10.6393 8.56636ZM10.6407 7.85004L9.35113 8.61613L9.36407 8.63792L9.37774 8.65926L10.6407 7.85004ZM10.3787 7.60594L9.68005 8.93332L9.68005 8.93332L10.3787 7.60594ZM13.2969 7.38135C13.2969 9.20216 11.8208 10.6782 10 10.6782V13.6782C13.4777 13.6782 16.2969 10.859 16.2969 7.38135H13.2969ZM10 4.08447C11.8208 4.08447 13.2969 5.56053 13.2969 7.38135H16.2969C16.2969 3.90368 13.4777 1.08447 10 1.08447V4.08447ZM6.70312 7.38135C6.70312 5.56053 8.17919 4.08447 10 4.08447V1.08447C6.52233 1.08447 3.70312 3.90368 3.70312 7.38135H6.70312ZM10 10.6782C8.17919 10.6782 6.70312 9.20216 6.70312 7.38135H3.70312C3.70312 10.859 6.52233 13.6782 10 13.6782V10.6782ZM9.99633 2.62506C9.42264 2.62506 8.84385 2.73136 8.29308 2.98075L9.53052 5.71365C9.64631 5.66122 9.79562 5.62506 9.99633 5.62506V2.62506ZM11.6996 2.98074C11.1488 2.73136 10.57 2.62506 9.99633 2.62506V5.62506C10.197 5.62506 10.3464 5.66122 10.4621 5.71365L11.6996 2.98074ZM13.0896 4.06203C12.7078 3.5646 12.2186 3.20795 11.6827 2.97321L10.479 5.72117C10.6021 5.77506 10.668 5.83423 10.7096 5.88848L13.0896 4.06203ZM13.7344 5.97451C13.7344 5.28716 13.5214 4.6247 13.0896 4.06203L10.7096 5.88849C10.7221 5.90473 10.7259 5.91445 10.7278 5.92C10.7298 5.92601 10.7344 5.94216 10.7344 5.97451H13.7344ZM13.5567 7.02063C13.6811 6.67126 13.7344 6.31736 13.7344 5.97451H10.7344C10.7344 5.99076 10.7331 6.00125 10.7322 6.0069C10.7317 6.00977 10.7313 6.01168 10.731 6.01276C10.7307 6.01383 10.7305 6.01435 10.7305 6.01445L13.5567 7.02063ZM13.0883 7.87963C13.2894 7.6213 13.4538 7.32624 13.5649 6.99719L10.7224 6.03788C10.7236 6.03417 10.7249 6.03157 10.7255 6.03058C10.7259 6.02969 10.7249 6.03187 10.7209 6.03702L13.0883 7.87963ZM13.0826 6.02247C13.047 5.98248 13.0104 5.9434 12.9728 5.90527L10.8364 8.01137C10.8381 8.01315 10.8399 8.01507 10.8418 8.01715L13.0826 6.02247ZM13.7246 7.09652C13.5837 6.69859 13.3638 6.3186 13.0516 5.98873L10.8727 8.05089C10.8743 8.05252 10.8767 8.0553 10.8801 8.061C10.8837 8.06694 10.8898 8.07858 10.8968 8.09822L13.7246 7.09652ZM13.925 8.31336C13.925 7.92749 13.8731 7.50645 13.7211 7.08659L10.9004 8.10815C10.9081 8.12952 10.925 8.19139 10.925 8.31336H13.925ZM13.2713 10.2819C13.7048 9.70386 13.925 9.02557 13.925 8.31336H10.925C10.925 8.38828 10.9083 8.43256 10.8712 8.48197L13.2713 10.2819ZM13.2686 10.2855L13.2714 10.2818L10.8712 8.48207L10.8684 8.48574L13.2686 10.2855ZM11.7735 11.4413C12.3352 11.1963 12.8554 10.8251 13.2593 10.2977L10.8777 8.4735C10.825 8.54233 10.7373 8.62029 10.5744 8.69133L11.7735 11.4413ZM9.99633 11.8021C10.6 11.8021 11.2051 11.6925 11.7803 11.4383L10.5676 8.69433C10.4192 8.75988 10.2344 8.80212 9.99633 8.80212V11.8021ZM8.21032 11.4374C8.78616 11.6923 9.39191 11.8021 9.99633 11.8021V8.80212C9.75795 8.80212 9.57298 8.75978 9.42456 8.69409L8.21032 11.4374ZM8.20492 11.435L8.21051 11.4375L9.42437 8.69401L9.41878 8.69153L8.20492 11.435ZM6.74069 10.2904C7.13449 10.8045 7.63812 11.175 8.1861 11.4265L9.4376 8.70001C9.27413 8.62498 9.18083 8.54254 9.12232 8.46616L6.74069 10.2904ZM6.73785 10.2867L6.74062 10.2903L9.12239 8.46625L9.11963 8.46264L6.73785 10.2867ZM6.075 8.31336C6.075 9.02829 6.2997 9.70261 6.72874 10.2747L9.12874 8.47466C9.08925 8.422 9.075 8.37931 9.075 8.31336H6.075ZM6.2545 7.1433C6.12186 7.54273 6.075 7.9423 6.075 8.31336H9.075C9.075 8.19087 9.09087 8.12115 9.10163 8.08875L6.2545 7.1433ZM6.87251 6.04743C6.57655 6.38567 6.37681 6.76646 6.25137 7.15284L9.10476 8.07922C9.11257 8.05515 9.11969 8.04044 9.12394 8.03274C9.12609 8.02885 9.1277 8.02639 9.12864 8.02504C9.12957 8.02371 9.1301 8.0231 9.13024 8.02294L6.87251 6.04743ZM7.02506 5.88493C6.97319 5.93657 6.92288 5.99018 6.8753 6.04425L9.12745 8.02612C9.13232 8.02058 9.13752 8.01508 9.14178 8.01084L7.02506 5.88493ZM6.47421 7.12007C6.57719 7.36723 6.70663 7.59888 6.85866 7.81389L9.30818 6.08189C9.27957 6.04142 9.25876 6.00301 9.24344 5.96623L6.47421 7.12007ZM6.46569 7.09963L6.4742 7.12005L9.24345 5.96625L9.23494 5.94582L6.46569 7.09963ZM6.25829 5.97451C6.25829 6.31718 6.31099 6.67527 6.43898 7.03081L9.26164 6.01465C9.26219 6.01615 9.2615 6.01481 9.26059 6.00928C9.25965 6.00356 9.25829 5.9923 9.25829 5.97451H6.25829ZM6.9031 4.06203C6.47128 4.6247 6.25829 5.28716 6.25829 5.97451H9.25829C9.25829 5.94216 9.26288 5.92601 9.26488 5.92C9.26673 5.91445 9.27056 5.90473 9.28303 5.88849L6.9031 4.06203ZM8.30998 2.97322C7.77407 3.20795 7.28484 3.5646 6.9031 4.06203L9.28303 5.88849C9.32466 5.83423 9.39058 5.77506 9.51362 5.72118L8.30998 2.97322ZM10.3595 6.82753C10.227 6.89766 10.0963 6.92095 9.99631 6.92095V3.92095C9.65307 3.92095 9.29479 3.99672 8.95584 4.17617L10.3595 6.82753ZM10.6829 6.52553C10.6011 6.6565 10.4854 6.7609 10.3595 6.82753L8.95584 4.17617C8.62467 4.35149 8.34298 4.60905 8.13893 4.93553L10.6829 6.52553ZM10.696 6.50421L10.6972 6.5022L8.12464 4.95885L8.12344 4.96085L10.696 6.50421ZM10.8255 6.04782C10.8255 6.18127 10.7909 6.34607 10.696 6.50427L8.12348 4.96079C7.9146 5.30892 7.82545 5.68628 7.82545 6.04782H10.8255ZM10.6956 5.59892C10.7989 5.77099 10.8255 5.93742 10.8255 6.04782H7.82545C7.82545 6.39346 7.90471 6.77837 8.12313 7.14241L10.6956 5.59892ZM10.6359 5.50715L10.63 5.4988L8.18878 7.24253L8.19474 7.25088L10.6359 5.50715ZM10.3594 5.26091C10.4432 5.30528 10.5478 5.38371 10.6359 5.50716L8.19474 7.25087C8.40644 7.54726 8.67477 7.76351 8.95578 7.91228L10.3594 5.26091ZM10.3018 5.23197L10.2964 5.2294L9.01884 7.94379L9.02431 7.94636L10.3018 5.23197ZM9.99631 5.16003C10.0716 5.16003 10.1816 5.17539 10.3018 5.23194L9.02437 7.94639C9.34873 8.09903 9.68245 8.16003 9.99631 8.16003V5.16003ZM9.69092 5.23206C9.81214 5.17502 9.92236 5.16003 9.99631 5.16003V8.16003C10.3089 8.16003 10.6429 8.09966 10.9683 7.94652L9.69092 5.23206ZM9.63306 5.26082L9.62772 5.26364L11.0315 7.91494L11.0368 7.91212L9.63306 5.26082ZM9.31268 5.56118C9.41474 5.40308 9.54124 5.30943 9.63313 5.26078L11.0368 7.91215C11.327 7.75849 11.6158 7.52487 11.8331 7.18825L9.31268 5.56118ZM9.16717 6.04782C9.16717 5.90633 9.20627 5.72125 9.32323 5.54507L11.8226 7.20436C12.0676 6.83527 12.1672 6.429 12.1672 6.04782H9.16717ZM9.31998 6.55298C9.21294 6.38947 9.16717 6.20752 9.16717 6.04782H12.1672C12.1672 5.65791 12.0608 5.26251 11.83 4.90988L9.31998 6.55298ZM9.63312 6.82753C9.49774 6.75586 9.36517 6.63711 9.27358 6.4773L11.8764 4.98556C11.6717 4.62839 11.3768 4.35616 11.0368 4.17617L9.63312 6.82753ZM9.99631 6.92095C9.8963 6.92095 9.76558 6.89766 9.63312 6.82753L11.0368 4.17617C10.6978 3.99672 10.3396 3.92095 9.99631 3.92095V6.92095ZM10.3199 8.93332C10.1934 8.99988 10.0749 9.01786 9.99631 9.01786V6.01786C9.64644 6.01786 9.2759 6.09265 8.92267 6.27856L10.3199 8.93332ZM10.6127 8.66262C10.5308 8.7892 10.4223 8.87945 10.3199 8.93331L8.92266 6.27856C8.59804 6.44942 8.30883 6.70086 8.09401 7.03286L10.6127 8.66262ZM10.7521 8.21071C10.7521 8.3255 10.7216 8.49442 10.6127 8.66261L8.09401 7.03286C7.84725 7.41422 7.75213 7.82854 7.75213 8.21071H10.7521ZM10.6127 7.74415C10.7082 7.89164 10.7521 8.05937 10.7521 8.21071H7.75213C7.75213 8.61487 7.86314 9.01709 8.09401 9.3739L10.6127 7.74415ZM10.3199 7.47344C10.4223 7.52732 10.5308 7.61756 10.6127 7.74415L8.09401 9.3739C8.30883 9.70589 8.59804 9.95734 8.92267 10.1282L10.3199 7.47344ZM9.99631 7.38891C10.0749 7.38891 10.1934 7.40688 10.3199 7.47344L8.92267 10.1282C9.2759 10.3141 9.64644 10.3889 9.99631 10.3889V7.38891ZM9.72443 7.45506C9.84027 7.40019 9.94035 7.38891 9.99631 7.38891V10.3889C10.3195 10.3889 10.6682 10.3276 11.0087 10.1663L9.72443 7.45506ZM9.67282 7.48072L9.66804 7.48324L11.0651 10.1381L11.0699 10.1356L9.67282 7.48072ZM9.37991 7.75148C9.46182 7.62489 9.57037 7.53465 9.67271 7.48078L11.07 10.1355C11.3946 9.96467 11.6838 9.71323 11.8986 9.38123L9.37991 7.75148ZM9.24049 8.21071C9.24049 8.07783 9.27753 7.9097 9.3799 7.75148L11.8986 9.38123C12.1377 9.01171 12.2405 8.60367 12.2405 8.21071H9.24049ZM9.37774 8.65926C9.27053 8.49192 9.24049 8.3245 9.24049 8.21071H12.2405C12.2405 7.83145 12.1468 7.42024 11.9037 7.04081L9.37774 8.65926ZM9.68005 8.93332C9.56896 8.87485 9.44311 8.77097 9.35113 8.61613L11.9304 7.08394C11.7144 6.72039 11.4108 6.45411 11.0773 6.27856L9.68005 8.93332ZM9.99631 9.01786C9.93272 9.01786 9.81436 9.00401 9.68005 8.93332L11.0773 6.27856C10.7148 6.08775 10.3391 6.01786 9.99631 6.01786V9.01786Z"
    fill="currentColor"
    mask="url(#path-2-inside-1_886_2511)"
  />
</svg>
