<svg width="20" height="21" viewBox="0 0 20 21" fill="currentcolor" xmlns="http://www.w3.org/2000/svg">
  <path d="M20 10.0375C20 15.5604 15.5228 20.0375 10 20.0375C4.47715 20.0375 0 15.5604 0 10.0375C0 4.51469 4.47715 0.0375366 10 0.0375366C15.5228 0.0375366 20 4.51469 20 10.0375Z" fill="currentcolor" fill-opacity="0.2" />
  <path d="M7.00899 6.99961C8.52292 5.34806 8.82679 3.51851 8.75162 2.12446C8.71425 1.43142 8.58376 0.841973 8.46234 0.424223C8.43501 0.330208 8.40803 0.244491 8.38249 0.167816C7.8807 0.249469 7.39144 0.368469 6.91766 0.521867C6.94732 0.603554 6.98386 0.711827 7.02195 0.842874C7.11906 1.17702 7.22392 1.65122 7.2538 2.20523C7.31311 3.30527 7.07904 4.70336 5.90326 5.98603C4.75698 7.23652 3.39703 7.46902 2.2771 7.38328C1.71213 7.34003 1.21721 7.21503 0.863025 7.09994C0.703103 7.04797 0.574088 6.99875 0.482867 6.96145C0.329191 7.43731 0.210212 7.92875 0.128906 8.43281C0.209794 8.46262 0.300278 8.49428 0.399458 8.52651C0.835376 8.66816 1.44996 8.82435 2.1626 8.87891C3.59788 8.98878 5.46557 8.68335 7.00899 6.99961Z" fill="currentcolor" />
  <path d="M13.084 19.5532C12.6102 19.7066 12.121 19.8256 11.6192 19.9073C11.5936 19.8306 11.5667 19.7449 11.5393 19.6508C11.4179 19.2331 11.2874 18.6436 11.2501 17.9506C11.1749 16.5566 11.4788 14.727 12.9927 13.0755C14.5361 11.3917 16.4038 11.0863 17.8391 11.1962C18.5517 11.2507 19.1663 11.4069 19.6022 11.5486C19.7014 11.5808 19.7919 11.6124 19.8728 11.6423C19.7915 12.1463 19.6725 12.6378 19.5188 13.1136C19.4276 13.0763 19.2986 13.0271 19.1386 12.9751C18.7845 12.86 18.2895 12.735 17.7246 12.6918C16.6046 12.606 15.2447 12.8385 14.0984 14.089C12.9226 15.3717 12.6886 16.7698 12.7479 17.8698C12.7777 18.4238 12.8826 18.898 12.9797 19.2322C13.0178 19.3632 13.0544 19.4715 13.084 19.5532Z" fill="currentcolor" />
</svg>
