<svg
  xmlns="http://www.w3.org/2000/svg"
  width="20"
  height="20"
  viewBox="0 0 20 20"
  fill="none"
>
  <path
    d="M4.96511 4.96522C2.17608 7.75425 1.18306 10.685 1.01969 13.058C0.938445 14.2381 1.06245 15.2772 1.26907 16.0896C1.3723 16.4955 1.49811 16.8525 1.63427 17.1469C1.76423 17.4279 1.92514 17.6992 2.11935 17.8935C2.3138 18.0879 2.58496 18.2484 2.86564 18.3777C3.1596 18.5131 3.51574 18.6377 3.92044 18.7395C4.7305 18.9432 5.76607 19.0631 6.94236 18.9778C9.30771 18.8062 12.2295 17.8051 15.0173 15.0174C17.805 12.2296 18.8061 9.30782 18.9777 6.94246C19.063 5.76617 18.9431 4.73061 18.7394 3.92055C18.6376 3.51584 18.513 3.15971 18.3776 2.86574C18.2483 2.58506 18.0878 2.31391 17.8934 2.11946C17.6991 1.92525 17.4278 1.76434 17.1468 1.63438C16.8524 1.49822 16.4954 1.37241 16.0895 1.26918C15.2771 1.06255 14.238 0.938551 13.0579 1.01979C10.6849 1.18317 7.75415 2.17619 4.96511 4.96522Z"
    fill="currentColor"
    fill-opacity="0.2"
  />
  <path
    fill-rule="evenodd"
    clip-rule="evenodd"
    d="M6.3228 10.5657C6.61569 10.2728 7.09056 10.2728 7.38346 10.5657L9.41659 12.5988C9.70949 12.8917 9.70949 13.3666 9.41659 13.6595C9.1237 13.9524 8.64883 13.9524 8.35593 13.6595L6.3228 11.6263C6.0299 11.3335 6.0299 10.8586 6.3228 10.5657Z"
    fill="currentColor"
  />
  <path
    fill-rule="evenodd"
    clip-rule="evenodd"
    d="M8.52258 8.36597C8.81547 8.07308 9.29034 8.07308 9.58324 8.36597L11.6164 10.3991C11.9093 10.692 11.9093 11.1669 11.6164 11.4598C11.3235 11.7527 10.8486 11.7527 10.5557 11.4598L8.52258 9.42663C8.22969 9.13374 8.22969 8.65886 8.52258 8.36597Z"
    fill="currentColor"
  />
  <path
    fill-rule="evenodd"
    clip-rule="evenodd"
    d="M10.5655 6.32307C10.8584 6.03017 11.3332 6.03017 11.6261 6.32307L13.6593 8.3562C13.9521 8.6491 13.9521 9.12397 13.6593 9.41686C13.3664 9.70976 12.8915 9.70976 12.5986 9.41686L10.5655 7.38373C10.2726 7.09084 10.2726 6.61596 10.5655 6.32307Z"
    fill="currentColor"
  />
  <path
    d="M18.8486 7.98211C18.7558 8.5281 18.6173 9.09579 18.4233 9.67806L10.3088 1.56358C10.8925 1.37094 11.4618 1.23401 12.0093 1.14282L18.8486 7.98211Z"
    fill="currentColor"
  />
  <path
    d="M1.56054 10.3118L9.67503 18.4263C9.09276 18.6204 8.52508 18.7589 7.97909 18.8517L1.13979 12.0124C1.23097 11.4648 1.36791 10.8955 1.56054 10.3118Z"
    fill="currentColor"
  />
</svg>
