<svg width="20" height="21" viewBox="0 0 20 21" fill="currentcolor" xmlns="http://www.w3.org/2000/svg">
  <path d="M9.99631 5.42089C9.8747 5.42089 9.76092 5.44713 9.65767 5.50179C9.55501 5.55614 9.47202 5.63271 9.41092 5.73047L9.40972 5.73247C9.35274 5.82743 9.32545 5.93371 9.32545 6.04776C9.32545 6.16538 9.35178 6.27462 9.40937 6.3706L9.41534 6.37895C9.4771 6.46542 9.55901 6.53433 9.6576 6.58653L9.66307 6.5891C9.76517 6.63715 9.87702 6.65997 9.99631 6.65997C10.1156 6.65997 10.2275 6.63728 10.3296 6.58923L10.335 6.58641C10.4341 6.5339 10.5153 6.46391 10.5729 6.37465C10.6369 6.27819 10.6672 6.1676 10.6672 6.04776C10.6672 5.93265 10.6369 5.82593 10.575 5.73137C10.5184 5.63269 10.4373 5.55595 10.335 5.50179C10.2317 5.44713 10.1179 5.42089 9.99631 5.42089Z" fill="currentcolor" fill-opacity="0.2" />
  <path d="M9.99631 7.51779C9.86067 7.51779 9.73467 7.5462 9.62129 7.60588C9.51015 7.66437 9.41982 7.74497 9.35337 7.84768C9.2844 7.95426 9.25213 8.07695 9.25213 8.21065C9.25213 8.33706 9.28565 8.45431 9.35337 8.55896C9.41982 8.66166 9.51015 8.74227 9.62129 8.80076C9.73467 8.86043 9.86067 8.88884 9.99631 8.88884C10.1299 8.88884 10.2542 8.86381 10.3666 8.81061L10.3713 8.80809C10.4825 8.7496 10.5728 8.669 10.6393 8.56629C10.7076 8.46064 10.7405 8.34069 10.7405 8.21065C10.7405 8.07792 10.7087 7.95602 10.6407 7.84997C10.5787 7.74562 10.4899 7.66441 10.3787 7.60588C10.2646 7.54582 10.1359 7.51779 9.99631 7.51779Z" fill="currentcolor" fill-opacity="0.2" />
  <path fill-rule="evenodd" d="M10 20.0375C15.5228 20.0375 20 15.5604 20 10.0375C20 4.51469 15.5228 0.0375366 10 0.0375366C4.47715 0.0375366 0 4.51469 0 10.0375C0 15.5604 4.47715 20.0375 10 20.0375ZM8.9118 4.34714C9.24508 4.19623 9.60913 4.125 9.99633 4.125C10.3835 4.125 10.7476 4.19623 11.0809 4.34713C11.4103 4.49145 11.6879 4.69935 11.8996 4.9752C12.1232 5.26657 12.2344 5.6054 12.2344 5.97445C12.2344 6.16151 12.2055 6.34372 12.1436 6.51748C12.0897 6.67741 12.0087 6.82453 11.9046 6.95826C11.9243 6.97822 11.9435 6.99871 11.9622 7.01975C12.1186 7.18498 12.2337 7.37997 12.3107 7.59731C12.3906 7.81792 12.425 8.05938 12.425 8.3133C12.425 8.70686 12.3066 9.06815 12.0713 9.38188L12.0685 9.38556C11.8402 9.68364 11.5363 9.90825 11.1739 10.0662C10.8122 10.2261 10.4172 10.3021 9.99633 10.3021C9.57493 10.3021 9.17957 10.226 8.81744 10.0657L8.81185 10.0632C8.45613 9.89992 8.15766 9.67347 7.93151 9.37821L7.92874 9.3746C7.69447 9.06224 7.575 8.70374 7.575 8.3133C7.575 8.06652 7.60636 7.83188 7.67806 7.61597C7.74834 7.39951 7.85443 7.20306 8.00138 7.03512C8.0276 7.00532 8.05536 6.97577 8.08342 6.94783C7.9931 6.82009 7.91798 6.68506 7.85882 6.54309L7.85031 6.52267C7.78715 6.34721 7.75829 6.16308 7.75829 5.97445C7.75829 5.6054 7.86945 5.26657 8.09306 4.9752C8.30475 4.69936 8.58233 4.49145 8.9118 4.34714Z" fill="currentcolor" fill-opacity="0.2" />
  <mask id="path-2-inside-1_787_402" fill="currentcolor">
    <path d="M9.99631 5.42089C9.8747 5.42089 9.76092 5.44713 9.65767 5.50179C9.55501 5.55614 9.47202 5.63271 9.41092 5.73047L9.40972 5.73247C9.35274 5.82743 9.32545 5.93371 9.32545 6.04776C9.32545 6.16538 9.35178 6.27462 9.40937 6.3706L9.41534 6.37895C9.4771 6.46542 9.55901 6.53433 9.6576 6.58653L9.66307 6.5891C9.76517 6.63715 9.87702 6.65997 9.99631 6.65997C10.1156 6.65997 10.2275 6.63728 10.3296 6.58923L10.335 6.58641C10.4341 6.5339 10.5153 6.46391 10.5729 6.37465C10.6369 6.27819 10.6672 6.1676 10.6672 6.04776C10.6672 5.93265 10.6369 5.82593 10.575 5.73137C10.5184 5.63269 10.4373 5.55595 10.335 5.50179C10.2317 5.44713 10.1179 5.42089 9.99631 5.42089Z" />
    <path d="M9.99631 7.51779C9.86067 7.51779 9.73467 7.5462 9.62129 7.60588C9.51015 7.66437 9.41982 7.74497 9.35337 7.84768C9.2844 7.95426 9.25213 8.07695 9.25213 8.21065C9.25213 8.33706 9.28565 8.45431 9.35337 8.55896C9.41982 8.66166 9.51015 8.74227 9.62129 8.80076C9.73467 8.86043 9.86067 8.88884 9.99631 8.88884C10.1299 8.88884 10.2542 8.86381 10.3666 8.81061L10.3713 8.80809C10.4825 8.7496 10.5728 8.669 10.6393 8.56629C10.7076 8.46064 10.7405 8.34069 10.7405 8.21065C10.7405 8.07792 10.7087 7.95602 10.6407 7.84997C10.5787 7.74562 10.4899 7.66441 10.3787 7.60588C10.2646 7.54582 10.1359 7.51779 9.99631 7.51779Z" />
    <path fill-rule="evenodd" d="M10 12.1782C12.6492 12.1782 14.7969 10.0305 14.7969 7.38129C14.7969 4.73205 12.6492 2.58441 10 2.58441C7.35076 2.58441 5.20312 4.73205 5.20312 7.38129C5.20312 10.0305 7.35076 12.1782 10 12.1782ZM8.9118 4.34714C9.24508 4.19623 9.60913 4.125 9.99633 4.125C10.3835 4.125 10.7476 4.19623 11.0809 4.34713C11.4103 4.49145 11.6879 4.69935 11.8996 4.9752C12.1232 5.26657 12.2344 5.6054 12.2344 5.97445C12.2344 6.16151 12.2055 6.34372 12.1436 6.51748C12.0897 6.67741 12.0087 6.82453 11.9046 6.95826C11.9243 6.97822 11.9435 6.99871 11.9622 7.01975C12.1186 7.18498 12.2337 7.37997 12.3107 7.59731C12.3906 7.81792 12.425 8.05938 12.425 8.3133C12.425 8.70686 12.3066 9.06815 12.0713 9.38188L12.0685 9.38556C11.8402 9.68364 11.5363 9.90825 11.1739 10.0662C10.8122 10.2261 10.4172 10.3021 9.99633 10.3021C9.57493 10.3021 9.17957 10.226 8.81744 10.0657L8.81185 10.0632C8.45613 9.89992 8.15766 9.67347 7.93151 9.37821L7.92874 9.3746C7.69447 9.06224 7.575 8.70374 7.575 8.3133C7.575 8.06652 7.60636 7.83188 7.67806 7.61597C7.74834 7.39951 7.85443 7.20306 8.00138 7.03512C8.0276 7.00532 8.05536 6.97577 8.08342 6.94783C7.9931 6.82009 7.91798 6.68506 7.85882 6.54309L7.85031 6.52267C7.78715 6.34721 7.75829 6.16308 7.75829 5.97445C7.75829 5.6054 7.86945 5.26657 8.09306 4.9752C8.30475 4.69936 8.58233 4.49145 8.9118 4.34714Z" />
  </mask>
  <path d="M9.99631 5.42089C9.8747 5.42089 9.76092 5.44713 9.65767 5.50179C9.55501 5.55614 9.47202 5.63271 9.41092 5.73047L9.40972 5.73247C9.35274 5.82743 9.32545 5.93371 9.32545 6.04776C9.32545 6.16538 9.35178 6.27462 9.40937 6.3706L9.41534 6.37895C9.4771 6.46542 9.55901 6.53433 9.6576 6.58653L9.66307 6.5891C9.76517 6.63715 9.87702 6.65997 9.99631 6.65997C10.1156 6.65997 10.2275 6.63728 10.3296 6.58923L10.335 6.58641C10.4341 6.5339 10.5153 6.46391 10.5729 6.37465C10.6369 6.27819 10.6672 6.1676 10.6672 6.04776C10.6672 5.93265 10.6369 5.82593 10.575 5.73137C10.5184 5.63269 10.4373 5.55595 10.335 5.50179C10.2317 5.44713 10.1179 5.42089 9.99631 5.42089Z" fill="currentcolor" />
  <path d="M9.99631 7.51779C9.86067 7.51779 9.73467 7.5462 9.62129 7.60588C9.51015 7.66437 9.41982 7.74497 9.35337 7.84768C9.2844 7.95426 9.25213 8.07695 9.25213 8.21065C9.25213 8.33706 9.28565 8.45431 9.35337 8.55896C9.41982 8.66166 9.51015 8.74227 9.62129 8.80076C9.73467 8.86043 9.86067 8.88884 9.99631 8.88884C10.1299 8.88884 10.2542 8.86381 10.3666 8.81061L10.3713 8.80809C10.4825 8.7496 10.5728 8.669 10.6393 8.56629C10.7076 8.46064 10.7405 8.34069 10.7405 8.21065C10.7405 8.07792 10.7087 7.95602 10.6407 7.84997C10.5787 7.74562 10.4899 7.66441 10.3787 7.60588C10.2646 7.54582 10.1359 7.51779 9.99631 7.51779Z" fill="currentcolor" />
  <path fill-rule="evenodd" d="M10 12.1782C12.6492 12.1782 14.7969 10.0305 14.7969 7.38129C14.7969 4.73205 12.6492 2.58441 10 2.58441C7.35076 2.58441 5.20312 4.73205 5.20312 7.38129C5.20312 10.0305 7.35076 12.1782 10 12.1782ZM8.9118 4.34714C9.24508 4.19623 9.60913 4.125 9.99633 4.125C10.3835 4.125 10.7476 4.19623 11.0809 4.34713C11.4103 4.49145 11.6879 4.69935 11.8996 4.9752C12.1232 5.26657 12.2344 5.6054 12.2344 5.97445C12.2344 6.16151 12.2055 6.34372 12.1436 6.51748C12.0897 6.67741 12.0087 6.82453 11.9046 6.95826C11.9243 6.97822 11.9435 6.99871 11.9622 7.01975C12.1186 7.18498 12.2337 7.37997 12.3107 7.59731C12.3906 7.81792 12.425 8.05938 12.425 8.3133C12.425 8.70686 12.3066 9.06815 12.0713 9.38188L12.0685 9.38556C11.8402 9.68364 11.5363 9.90825 11.1739 10.0662C10.8122 10.2261 10.4172 10.3021 9.99633 10.3021C9.57493 10.3021 9.17957 10.226 8.81744 10.0657L8.81185 10.0632C8.45613 9.89992 8.15766 9.67347 7.93151 9.37821L7.92874 9.3746C7.69447 9.06224 7.575 8.70374 7.575 8.3133C7.575 8.06652 7.60636 7.83188 7.67806 7.61597C7.74834 7.39951 7.85443 7.20306 8.00138 7.03512C8.0276 7.00532 8.05536 6.97577 8.08342 6.94783C7.9931 6.82009 7.91798 6.68506 7.85882 6.54309L7.85031 6.52267C7.78715 6.34721 7.75829 6.16308 7.75829 5.97445C7.75829 5.6054 7.86945 5.26657 8.09306 4.9752C8.30475 4.69936 8.58233 4.49145 8.9118 4.34714Z" fill="currentcolor" />
  <path d="M8.9118 4.34714L9.51362 5.72111L9.52209 5.7174L9.53052 5.71359L8.9118 4.34714ZM11.0809 4.34713L10.4621 5.71358L10.4706 5.7174L10.479 5.72111L11.0809 4.34713ZM11.8996 4.9752L10.7096 5.88842L10.7096 5.88843L11.8996 4.9752ZM12.1436 6.51748L10.7305 6.01438L10.7264 6.02607L10.7224 6.03782L12.1436 6.51748ZM11.9046 6.95826L10.7209 6.03696L9.91312 7.07477L10.8364 8.01131L11.9046 6.95826ZM11.9622 7.01975L10.8418 8.01709L10.857 8.0342L10.8727 8.05083L11.9622 7.01975ZM12.3107 7.59731L10.8968 8.09817L10.9004 8.10809L12.3107 7.59731ZM12.0713 9.38188L10.8712 8.48191L10.8712 8.482L12.0713 9.38188ZM12.0685 9.38556L13.2593 10.2977L13.264 10.2916L13.2686 10.2854L12.0685 9.38556ZM11.1739 10.0662L10.5744 8.69125L10.5676 8.69427L11.1739 10.0662ZM8.81744 10.0657L9.42456 8.69403L9.42437 8.69394L8.81744 10.0657ZM8.81185 10.0632L8.1861 11.4264L8.19548 11.4307L8.20492 11.4349L8.81185 10.0632ZM7.93151 9.37821L6.74062 10.2902L6.74069 10.2903L7.93151 9.37821ZM7.92874 9.3746L6.72874 10.2746L6.73327 10.2806L6.73785 10.2866L7.92874 9.3746ZM7.67806 7.61597L9.10166 8.0887L9.10476 8.07916L7.67806 7.61597ZM8.00138 7.03512L6.8753 6.04418L6.87251 6.04737L8.00138 7.03512ZM8.08342 6.94783L9.14178 8.01078L10.0398 7.1166L9.30818 6.08183L8.08342 6.94783ZM7.85882 6.54309L6.4742 7.11999L6.47421 7.12001L7.85882 6.54309ZM7.85031 6.52267L6.43898 7.03075L6.45149 7.06549L6.46569 7.09957L7.85031 6.52267ZM8.09306 4.9752L9.28303 5.88843L9.28303 5.88842L8.09306 4.9752ZM9.65767 5.50179L10.3595 6.82747L10.3595 6.82747L9.65767 5.50179ZM9.41092 5.73047L8.13893 4.93546L8.13168 4.94706L8.12464 4.95879L9.41092 5.73047ZM9.40972 5.73247L10.696 6.50421L10.696 6.50414L9.40972 5.73247ZM9.40937 6.3706L8.12313 7.14234L8.15395 7.19372L8.18878 7.24247L9.40937 6.3706ZM9.41534 6.37895L10.6359 5.5071L10.6359 5.50709L9.41534 6.37895ZM9.6576 6.58653L8.95578 7.91221L8.98694 7.92871L9.01884 7.94373L9.6576 6.58653ZM9.66307 6.5891L9.02431 7.9463L9.02437 7.94633L9.66307 6.5891ZM10.3296 6.58923L10.9683 7.94646L11.0003 7.93142L11.0315 7.91488L10.3296 6.58923ZM10.335 6.58641L9.63313 5.26072L9.63306 5.26076L10.335 6.58641ZM10.5729 6.37465L9.32323 5.54501L9.3179 5.55303L9.31268 5.56112L10.5729 6.37465ZM10.575 5.73137L9.27358 6.47724L9.29566 6.51577L9.31998 6.55292L10.575 5.73137ZM10.335 5.50179L9.63312 6.82747L9.63312 6.82747L10.335 5.50179ZM9.62129 7.60588L8.92267 6.2785L8.92266 6.2785L9.62129 7.60588ZM9.35337 7.84768L8.09401 7.0328L8.09401 7.0328L9.35337 7.84768ZM9.35337 8.55896L8.09401 9.37384L8.09401 9.37384L9.35337 8.55896ZM9.62129 8.80076L8.92267 10.1281L8.92267 10.1281L9.62129 8.80076ZM10.3666 8.81061L11.0087 10.1662L11.0372 10.1527L11.0651 10.138L10.3666 8.81061ZM10.3713 8.80809L11.0699 10.1355L11.07 10.1355L10.3713 8.80809ZM10.6393 8.56629L11.8986 9.38117L11.8986 9.38117L10.6393 8.56629ZM10.6407 7.84997L9.35113 8.61607L9.36407 8.63786L9.37774 8.6592L10.6407 7.84997ZM10.3787 7.60588L9.68005 8.93325L9.68005 8.93326L10.3787 7.60588ZM13.2969 7.38129C13.2969 9.2021 11.8208 10.6782 10 10.6782V13.6782C13.4777 13.6782 16.2969 10.859 16.2969 7.38129H13.2969ZM10 4.08441C11.8208 4.08441 13.2969 5.56047 13.2969 7.38129H16.2969C16.2969 3.90362 13.4777 1.08441 10 1.08441V4.08441ZM6.70312 7.38129C6.70312 5.56047 8.17919 4.08441 10 4.08441V1.08441C6.52233 1.08441 3.70312 3.90362 3.70312 7.38129H6.70312ZM10 10.6782C8.17919 10.6782 6.70312 9.2021 6.70312 7.38129H3.70312C3.70312 10.859 6.52233 13.6782 10 13.6782V10.6782ZM9.99633 2.625C9.42264 2.625 8.84385 2.7313 8.29308 2.98069L9.53052 5.71359C9.64631 5.66116 9.79562 5.625 9.99633 5.625V2.625ZM11.6996 2.98068C11.1488 2.7313 10.57 2.625 9.99633 2.625V5.625C10.197 5.625 10.3464 5.66116 10.4621 5.71358L11.6996 2.98068ZM13.0896 4.06197C12.7078 3.56454 12.2186 3.20789 11.6827 2.97315L10.479 5.72111C10.6021 5.775 10.668 5.83417 10.7096 5.88842L13.0896 4.06197ZM13.7344 5.97445C13.7344 5.2871 13.5214 4.62463 13.0896 4.06197L10.7096 5.88843C10.7221 5.90467 10.7259 5.91439 10.7278 5.91994C10.7298 5.92595 10.7344 5.94209 10.7344 5.97445H13.7344ZM13.5567 7.02057C13.6811 6.6712 13.7344 6.3173 13.7344 5.97445H10.7344C10.7344 5.99069 10.7331 6.00119 10.7322 6.00684C10.7317 6.00971 10.7313 6.01162 10.731 6.0127C10.7307 6.01377 10.7305 6.01429 10.7305 6.01438L13.5567 7.02057ZM13.0883 7.87956C13.2894 7.62124 13.4538 7.32618 13.5649 6.99713L10.7224 6.03782C10.7236 6.03411 10.7249 6.03151 10.7255 6.03052C10.7259 6.02963 10.7249 6.03181 10.7209 6.03696L13.0883 7.87956ZM13.0826 6.02241C13.047 5.98242 13.0104 5.94334 12.9728 5.90521L10.8364 8.01131C10.8381 8.01309 10.8399 8.01501 10.8418 8.01709L13.0826 6.02241ZM13.7246 7.09646C13.5837 6.69853 13.3638 6.31854 13.0516 5.98867L10.8727 8.05083C10.8743 8.05246 10.8767 8.05524 10.8801 8.06094C10.8837 8.06688 10.8898 8.07852 10.8968 8.09816L13.7246 7.09646ZM13.925 8.3133C13.925 7.92742 13.8731 7.50639 13.7211 7.08653L10.9004 8.10809C10.9081 8.12946 10.925 8.19133 10.925 8.3133H13.925ZM13.2713 10.2819C13.7048 9.7038 13.925 9.02551 13.925 8.3133H10.925C10.925 8.38822 10.9083 8.4325 10.8712 8.48191L13.2713 10.2819ZM13.2686 10.2854L13.2714 10.2818L10.8712 8.482L10.8684 8.48568L13.2686 10.2854ZM11.7735 11.4412C12.3352 11.1963 12.8554 10.825 13.2593 10.2977L10.8777 8.47344C10.825 8.54226 10.7373 8.62023 10.5744 8.69127L11.7735 11.4412ZM9.99633 11.8021C10.6 11.8021 11.2051 11.6925 11.7803 11.4382L10.5676 8.69427C10.4192 8.75982 10.2344 8.80206 9.99633 8.80206V11.8021ZM8.21032 11.4373C8.78616 11.6922 9.39191 11.8021 9.99633 11.8021V8.80206C9.75795 8.80206 9.57298 8.75972 9.42456 8.69403L8.21032 11.4373ZM8.20492 11.4349L8.21051 11.4374L9.42437 8.69394L9.41878 8.69147L8.20492 11.4349ZM6.74069 10.2903C7.13449 10.8045 7.63812 11.1749 8.1861 11.4264L9.4376 8.69995C9.27413 8.62492 9.18083 8.54248 9.12232 8.46609L6.74069 10.2903ZM6.73785 10.2866L6.74062 10.2902L9.12239 8.46619L9.11963 8.46257L6.73785 10.2866ZM6.075 8.3133C6.075 9.02823 6.2997 9.70255 6.72874 10.2746L9.12874 8.4746C9.08925 8.42194 9.075 8.37925 9.075 8.3133H6.075ZM6.2545 7.14324C6.12186 7.54267 6.075 7.94223 6.075 8.3133H9.075C9.075 8.19081 9.09087 8.12108 9.10163 8.08869L6.2545 7.14324ZM6.87251 6.04737C6.57655 6.38561 6.37681 6.7664 6.25137 7.15278L9.10476 8.07916C9.11257 8.05509 9.11969 8.04038 9.12394 8.03268C9.12609 8.02879 9.1277 8.02633 9.12864 8.02498C9.12957 8.02365 9.1301 8.02304 9.13024 8.02288L6.87251 6.04737ZM7.02506 5.88487C6.97319 5.93651 6.92288 5.99012 6.8753 6.04419L9.12745 8.02606C9.13232 8.02052 9.13752 8.01502 9.14178 8.01078L7.02506 5.88487ZM6.47421 7.12001C6.57719 7.36717 6.70663 7.59882 6.85866 7.81383L9.30818 6.08183C9.27957 6.04136 9.25876 6.00295 9.24344 5.96617L6.47421 7.12001ZM6.46569 7.09957L6.4742 7.11999L9.24345 5.96619L9.23494 5.94576L6.46569 7.09957ZM6.25829 5.97445C6.25829 6.31712 6.31099 6.67521 6.43898 7.03075L9.26164 6.01458C9.26219 6.01609 9.2615 6.01475 9.26059 6.00922C9.25965 6.0035 9.25829 5.99224 9.25829 5.97445H6.25829ZM6.9031 4.06197C6.47128 4.62463 6.25829 5.2871 6.25829 5.97445H9.25829C9.25829 5.9421 9.26288 5.92595 9.26488 5.91994C9.26673 5.91439 9.27056 5.90467 9.28303 5.88843L6.9031 4.06197ZM8.30998 2.97316C7.77407 3.20789 7.28484 3.56454 6.9031 4.06197L9.28303 5.88842C9.32466 5.83417 9.39058 5.775 9.51362 5.72111L8.30998 2.97316ZM10.3595 6.82747C10.227 6.89759 10.0963 6.92089 9.99631 6.92089V3.92089C9.65307 3.92089 9.29479 3.99666 8.95584 4.17611L10.3595 6.82747ZM10.6829 6.52547C10.6011 6.65644 10.4854 6.76084 10.3595 6.82747L8.95584 4.17611C8.62467 4.35143 8.34298 4.60899 8.13893 4.93546L10.6829 6.52547ZM10.696 6.50414L10.6972 6.50214L8.12464 4.95879L8.12344 4.96079L10.696 6.50414ZM10.8255 6.04776C10.8255 6.18121 10.7909 6.34601 10.696 6.50421L8.12348 4.96073C7.9146 5.30886 7.82545 5.68621 7.82545 6.04776H10.8255ZM10.6956 5.59886C10.7989 5.77093 10.8255 5.93736 10.8255 6.04776H7.82545C7.82545 6.3934 7.90471 6.77831 8.12313 7.14234L10.6956 5.59886ZM10.6359 5.50709L10.63 5.49873L8.18878 7.24247L8.19474 7.25082L10.6359 5.50709ZM10.3594 5.26085C10.4432 5.30522 10.5478 5.38365 10.6359 5.5071L8.19474 7.25081C8.40644 7.5472 8.67477 7.76344 8.95578 7.91221L10.3594 5.26085ZM10.3018 5.23191L10.2964 5.22933L9.01884 7.94373L9.02431 7.9463L10.3018 5.23191ZM9.99631 5.15997C10.0716 5.15997 10.1816 5.17533 10.3018 5.23188L9.02437 7.94633C9.34873 8.09897 9.68245 8.15997 9.99631 8.15997V5.15997ZM9.69092 5.232C9.81214 5.17496 9.92236 5.15997 9.99631 5.15997V8.15997C10.3089 8.15997 10.6429 8.0996 10.9683 7.94646L9.69092 5.232ZM9.63306 5.26076L9.62772 5.26358L11.0315 7.91488L11.0368 7.91206L9.63306 5.26076ZM9.31268 5.56112C9.41474 5.40302 9.54124 5.30937 9.63313 5.26072L11.0368 7.91209C11.327 7.75843 11.6158 7.52481 11.8331 7.18819L9.31268 5.56112ZM9.16717 6.04776C9.16717 5.90627 9.20627 5.72118 9.32323 5.54501L11.8226 7.2043C12.0676 6.83521 12.1672 6.42894 12.1672 6.04776H9.16717ZM9.31998 6.55292C9.21294 6.38941 9.16717 6.20746 9.16717 6.04776H12.1672C12.1672 5.65785 12.0608 5.26245 11.83 4.90982L9.31998 6.55292ZM9.63312 6.82747C9.49774 6.7558 9.36517 6.63705 9.27358 6.47724L11.8764 4.9855C11.6717 4.62832 11.3768 4.3561 11.0368 4.17611L9.63312 6.82747ZM9.99631 6.92089C9.8963 6.92089 9.76558 6.89759 9.63312 6.82747L11.0368 4.17611C10.6978 3.99666 10.3396 3.92089 9.99631 3.92089V6.92089ZM10.3199 8.93326C10.1934 8.99982 10.0749 9.01779 9.99631 9.01779V6.01779C9.64644 6.01779 9.2759 6.09259 8.92267 6.2785L10.3199 8.93326ZM10.6127 8.66255C10.5308 8.78914 10.4223 8.87938 10.3199 8.93325L8.92266 6.2785C8.59804 6.44936 8.30883 6.7008 8.09401 7.0328L10.6127 8.66255ZM10.7521 8.21065C10.7521 8.32543 10.7216 8.49436 10.6127 8.66255L8.09401 7.0328C7.84725 7.41416 7.75213 7.82847 7.75213 8.21065H10.7521ZM10.6127 7.74409C10.7082 7.89158 10.7521 8.05931 10.7521 8.21065H7.75213C7.75213 8.61481 7.86314 9.01703 8.09401 9.37384L10.6127 7.74409ZM10.3199 7.47338C10.4223 7.52725 10.5308 7.6175 10.6127 7.74409L8.09401 9.37384C8.30883 9.70583 8.59804 9.95728 8.92267 10.1281L10.3199 7.47338ZM9.99631 7.38884C10.0749 7.38884 10.1934 7.40682 10.3199 7.47338L8.92267 10.1281C9.2759 10.314 9.64644 10.3888 9.99631 10.3888V7.38884ZM9.72443 7.455C9.84027 7.40013 9.94035 7.38884 9.99631 7.38884V10.3888C10.3195 10.3888 10.6682 10.3275 11.0087 10.1662L9.72443 7.455ZM9.67282 7.48066L9.66804 7.48318L11.0651 10.138L11.0699 10.1355L9.67282 7.48066ZM9.37991 7.75142C9.46182 7.62483 9.57037 7.53459 9.67271 7.48072L11.07 10.1355C11.3946 9.96461 11.6838 9.71317 11.8986 9.38117L9.37991 7.75142ZM9.24049 8.21065C9.24049 8.07777 9.27753 7.90964 9.3799 7.75142L11.8986 9.38117C12.1377 9.01165 12.2405 8.60361 12.2405 8.21065H9.24049ZM9.37774 8.6592C9.27053 8.49186 9.24049 8.32444 9.24049 8.21065H12.2405C12.2405 7.83139 12.1468 7.42018 11.9037 7.04075L9.37774 8.6592ZM9.68005 8.93326C9.56896 8.87478 9.44311 8.77091 9.35113 8.61607L11.9304 7.08388C11.7144 6.72033 11.4108 6.45404 11.0773 6.2785L9.68005 8.93326ZM9.99631 9.01779C9.93272 9.01779 9.81436 9.00394 9.68005 8.93325L11.0773 6.2785C10.7148 6.08769 10.3391 6.01779 9.99631 6.01779V9.01779Z" fill="currentcolor" mask="url(#path-2-inside-1_787_402)" />
</svg>
