<svg
  xmlns="http://www.w3.org/2000/svg"
  width="20"
  height="21"
  viewBox="0 0 20 21"
  fill="none"
>
  <circle cx="10" cy="10.0376" r="10" fill="currentColor" fill-opacity="0.2" />
  <circle
    cx="10"
    cy="10.0376"
    r="9.25"
    stroke="currentColor"
    stroke-opacity="0.2"
    stroke-width="1.5"
  />
  <path
    fill-rule="evenodd"
    clip-rule="evenodd"
    d="M0.106511 8.57287C0.0363412 9.05095 0 9.54003 0 10.0376C0 10.049 2.05644e-05 10.0605 5.89339e-05 10.0719C0.0329887 10.0759 0.0671954 10.0797 0.102654 10.0832C0.505292 10.1231 1.06841 10.1275 1.75416 10.0012C3.00819 9.77006 4.62963 9.10943 6.40437 7.50264L8.93935 10.0376L2.41841 16.5586C2.74504 16.938 3.09966 17.2926 3.47907 17.6192L10 11.0983L12.535 13.6333C10.9282 15.408 10.2676 17.0294 10.0365 18.2834C9.9101 18.9692 9.91457 19.5323 9.95445 19.935C9.95796 19.9704 9.96175 20.0046 9.96574 20.0375C9.97715 20.0376 9.98858 20.0376 10 20.0376C10.4976 20.0376 10.9867 20.0013 11.4648 19.9311C11.4585 19.8886 11.4524 19.8405 11.4471 19.7871C11.4198 19.5106 11.4132 19.0896 11.5116 18.5553C11.6867 17.6052 12.202 16.2543 13.5971 14.6954L16.5209 17.6192C16.9003 17.2926 17.255 16.938 17.5816 16.5585L14.6578 13.6347C16.2167 12.2396 17.5676 11.7243 18.5177 11.5492C19.052 11.4508 19.473 11.4573 19.7495 11.4847C19.8029 11.49 19.851 11.4961 19.8935 11.5023C19.9637 11.0243 20 10.5352 20 10.0376C20 10.0262 20 10.0147 19.9999 10.0033C19.967 9.99933 19.9328 9.99554 19.8974 9.99203C19.4947 9.95215 18.9316 9.94768 18.2459 10.0741C16.9918 10.3052 15.3704 10.9658 13.5956 12.5726L11.0607 10.0376L17.5816 3.51667C17.255 3.13726 16.9004 2.78263 16.521 2.456L10 8.97696L7.46503 6.44198C9.07181 4.66724 9.73244 3.0458 9.96355 1.79178C10.0899 1.10602 10.0855 0.542905 10.0456 0.140267C10.0421 0.104803 10.0383 0.0705911 10.0343 0.0376565C10.0229 0.0376182 10.0114 0.0375977 10 0.0375977C9.50243 0.0375977 9.01334 0.0739399 8.53525 0.144112C8.54151 0.186597 8.54758 0.234677 8.55288 0.288119C8.58027 0.564611 8.58685 0.985636 8.48839 1.51992C8.31329 2.47002 7.79803 3.82091 6.40292 5.37987L3.47905 2.456C3.09964 2.78263 2.74502 3.13725 2.41839 3.51666L5.34226 6.44053C3.7833 7.83564 2.43241 8.35091 1.48231 8.526C0.948022 8.62447 0.526998 8.61788 0.250505 8.59049C0.197069 8.5852 0.148993 8.57913 0.106511 8.57287Z"
    fill="currentColor"
  />
</svg>
