<svg width="20" height="20" viewBox="0 0 20 20" fill="currentcolor" xmlns="http://www.w3.org/2000/svg">
  <circle cx="10" cy="10" r="10" fill="currentcolor" fill-opacity="0.2" />
  <path d="M12.2417 7.72625L11.7437 7.37054C10.9017 6.7691 10.4807 6.46838 9.99998 6.46838C9.51929 6.46838 9.09828 6.7691 8.25627 7.37054L7.75827 7.72625C6.95351 8.30108 6.55113 8.58849 6.39145 9.0222C6.23176 9.4559 6.35169 9.93562 6.59155 10.8951L6.64344 11.1026C6.91627 12.1939 7.05269 12.7396 7.45958 13.0573C7.86647 13.375 8.42894 13.375 9.55387 13.375H10.4461C11.571 13.375 12.1335 13.375 12.5404 13.0573C12.9473 12.7396 13.0837 12.1939 13.3565 11.1026L13.4084 10.8951C13.6483 9.93562 13.7682 9.4559 13.6085 9.0222C13.4488 8.58849 13.0465 8.30108 12.2417 7.72625Z" fill="currentcolor" />
  <path fill-rule="evenodd" d="M10 20C15.5228 20 20 15.5228 20 10C20 4.47717 15.5228 0 10 0C4.47716 0 0 4.47717 0 10C0 15.5228 4.47716 20 10 20ZM10 18.5C10.5592 18.5 11.1058 18.446 11.6349 18.3429C12.0308 18.2658 12.3155 17.9293 12.3655 17.5291L12.4679 16.7098C12.5322 16.1952 12.5894 15.7371 12.6853 15.3729C12.7895 14.9768 12.9644 14.5856 13.3362 14.2924C13.708 13.9991 14.1292 13.92 14.5386 13.9109C14.9151 13.9025 15.3739 13.9536 15.8894 14.0109L16.7475 14.1062C17.1454 14.1504 17.5363 13.9553 17.7057 13.5926C18.2153 12.5014 18.5 11.2839 18.5 10C18.4999 9.97444 18.4836 9.95177 18.4593 9.94368L17.3396 9.57043C16.7704 9.3808 16.2699 9.21399 15.8907 9.02521C15.4817 8.82166 15.0938 8.53601 14.8905 8.04535C14.6873 7.55469 14.7596 7.07843 14.9049 6.64526C15.0396 6.24365 15.2755 5.77179 15.5439 5.23523L15.7975 4.72798C15.9872 4.34866 15.9206 3.88649 15.6018 3.60689C15.1613 3.22061 14.6805 2.87912 14.1666 2.58955C13.8501 2.41124 13.4609 2.44962 13.1653 2.66074L11.8008 3.63538C11.4899 3.85754 11.2075 4.05927 10.9534 4.2005C10.6744 4.35553 10.366 4.47534 10 4.47534C9.63406 4.47534 9.32564 4.35553 9.04662 4.2005C8.79254 4.05927 8.51013 3.85754 8.19919 3.63538L6.83467 2.66074C6.53909 2.44962 6.14986 2.41124 5.8334 2.58955C5.31948 2.87912 4.83872 3.22061 4.39822 3.60688C4.07937 3.88649 4.01286 4.34866 4.20251 4.72798L4.45613 5.23523C4.72447 5.77179 4.96043 6.24365 5.09512 6.64526C5.24037 7.07843 5.31273 7.55469 5.10948 8.04535C4.90625 8.53601 4.51833 8.82166 4.10934 9.02521C3.73007 9.21399 3.22957 9.3808 2.66043 9.57043L1.5407 9.94368C1.51644 9.95177 1.50006 9.97444 1.5 10C1.5 11.2839 1.78467 12.5014 2.29433 13.5926C2.46372 13.9553 2.85462 14.1504 3.25247 14.1062L4.11058 14.0109C4.62605 13.9536 5.08492 13.9025 5.46141 13.9109C5.87086 13.92 6.29201 13.9991 6.66379 14.2924C7.03557 14.5856 7.21051 14.9768 7.31473 15.3729C7.41055 15.7371 7.46779 16.1952 7.53207 16.7098L7.63448 17.5291C7.68451 17.9293 7.96918 18.2658 8.36512 18.3429C8.89418 18.446 9.44078 18.5 10 18.5Z" fill="currentcolor" />
</svg>
