<svg width="20" height="20" viewBox="0 0 20 20" fill="currentColor" xmlns="http://www.w3.org/2000/svg">
  <path d="M4.45741 9.25085C4.03752 9.25085 3.69507 9.58514 3.69507 10C3.69507 10.4149 4.03752 10.7492 4.45741 10.7492L19.2377 10.7492C19.6575 10.7492 20 10.4149 20 10C20 9.58514 19.6575 9.25085 19.2377 9.25085H4.45741Z" fill="currentColor" fill-opacity="0.2" />
  <path d="M0.762337 2C0.342448 2 0 2.33428 0 2.74916C0 3.16403 0.342448 3.49832 0.762337 3.49832L19.2376 3.49832C19.6575 3.49832 20 3.16404 20 2.74916C20 2.33429 19.6575 2 19.2376 2H0.762337Z" fill="currentColor" />
  <path d="M0.762337 16.5017C0.342448 16.5017 0 16.836 0 17.2508C0 17.6657 0.342448 18 0.762337 18L19.2376 18C19.6575 18 20 17.6657 20 17.2508C20 16.836 19.6575 16.5017 19.2376 16.5017L0.762337 16.5017Z" fill="currentColor" />
</svg>
