<svg width="20" height="20" viewBox="0 0 20 20" fill="currentcolor" xmlns="http://www.w3.org/2000/svg">
  <path fill-rule="evenodd" d="M16.2791 9.99998C16.2791 9.62127 15.9667 9.31427 15.5814 9.31427L0.697657 9.31427C0.312343 9.31427 -1.71388e-05 9.62128 -1.71051e-05 9.99999C-1.70715e-05 10.3787 0.312343 10.6857 0.697657 10.6857L15.5814 10.6857C15.9667 10.6857 16.2791 10.3787 16.2791 9.99998Z" fill="currentcolor" fill-opacity="0.2" />
  <path fill-rule="evenodd" d="M20 17.3143C20 16.9356 19.6876 16.6286 19.3023 16.6286L0.697674 16.6286C0.312357 16.6286 -3.09739e-08 16.9356 5.69048e-09 17.3143C4.23548e-08 17.693 0.312357 18 0.697674 18L19.3023 18C19.6876 18 20 17.693 20 17.3143Z" fill="currentcolor" />
  <path fill-rule="evenodd" d="M20 2.68571C20 2.307 19.6876 2 19.3023 2L0.697674 2C0.312357 2 -3.35217e-08 2.30701 0 2.68572C3.35217e-08 3.06443 0.312357 3.37143 0.697674 3.37143L19.3023 3.37143C19.6876 3.37143 20 3.06442 20 2.68571Z" fill="currentcolor" />
</svg>
