<svg width="20" height="20" viewBox="0 0 20 20" fill="currentColor" xmlns="http://www.w3.org/2000/svg">
  <path d="M0 10C0 7.19974 0 5.79961 0.544967 4.73005C1.02433 3.78924 1.78924 3.02433 2.73005 2.54497C3.79961 2 5.19974 2 8 2H12C14.8003 2 16.2004 2 17.27 2.54497C18.2108 3.02433 18.9757 3.78924 19.455 4.73005C20 5.79961 20 7.19974 20 10C20 12.8003 20 14.2004 19.455 15.27C18.9757 16.2108 18.2108 16.9757 17.27 17.455C16.2004 18 14.8003 18 12 18H8C5.19974 18 3.79961 18 2.73005 17.455C1.78924 16.9757 1.02433 16.2108 0.544967 15.27C0 14.2004 0 12.8003 0 10Z" fill="currentColor" fill-opacity="0.2" />
  <path d="M18.5 10.5V9.5C18.5 9.03406 18.5 8.80109 18.5761 8.61732C18.6776 8.37229 18.8723 8.17761 19.1173 8.07612C19.3011 8 19.5341 8 20 8V12C19.5341 12 19.3011 12 19.1173 11.9239C18.8723 11.8224 18.6776 11.6277 18.5761 11.3827C18.5 11.1989 18.5 10.9659 18.5 10.5Z" fill="currentColor" />
  <path fill-rule="evenodd" d="M5.5 6.81799C5.91421 6.81799 6.25 7.15378 6.25 7.56799L6.25 12.568C6.25 12.9822 5.91421 13.318 5.5 13.318C5.08579 13.318 4.75 12.9822 4.75 12.568L4.75 7.56799C4.75 7.15378 5.08579 6.81799 5.5 6.81799Z" fill="currentColor" />
  <path fill-rule="evenodd" d="M10 6.81799C10.4142 6.81799 10.75 7.15378 10.75 7.56799V12.568C10.75 12.9822 10.4142 13.318 10 13.318C9.58579 13.318 9.25 12.9822 9.25 12.568V7.56799C9.25 7.15378 9.58579 6.81799 10 6.81799Z" fill="currentColor" />
</svg>
