<svg width="20" height="20" viewBox="0 0 20 20" fill="currentColor" xmlns="http://www.w3.org/2000/svg">
  <rect y="2" width="20" height="16" rx="5" fill="currentColor" fill-opacity="0.2" />
  <path d="M6.25 7.5C6.25 7.08579 5.91421 6.75 5.5 6.75C5.08579 6.75 4.75 7.08579 4.75 7.5V12.5C4.75 12.9142 5.08579 13.25 5.5 13.25C5.91421 13.25 6.25 12.9142 6.25 12.5L6.25 7.5Z" fill="currentColor" />
  <path d="M18.5 9.5V10.5C18.5 10.9659 18.5 11.1989 18.5761 11.3827C18.6776 11.6277 18.8723 11.8224 19.1173 11.9239C19.3011 12 19.5341 12 20 12V8C19.5341 8 19.3011 8 19.1173 8.07612C18.8723 8.17761 18.6776 8.37229 18.5761 8.61732C18.5 8.80109 18.5 9.03406 18.5 9.5Z" fill="currentColor" />
  <path d="M10 6.75C10.4142 6.75 10.75 7.08579 10.75 7.5L10.75 12.5C10.75 12.9142 10.4142 13.25 10 13.25C9.58579 13.25 9.25 12.9142 9.25 12.5L9.25 7.5C9.25 7.08579 9.58579 6.75 10 6.75Z" fill="currentColor" />
  <path d="M15.25 7.5C15.25 7.08579 14.9142 6.75 14.5 6.75C14.0858 6.75 13.75 7.08579 13.75 7.5V12.5C13.75 12.9142 14.0858 13.25 14.5 13.25C14.9142 13.25 15.25 12.9142 15.25 12.5V7.5Z" fill="currentColor" />
</svg>
