<svg width="20" height="20" viewBox="0 0 20 20" fill="currentColor" xmlns="http://www.w3.org/2000/svg">
  <path d="M11.3797 2.92682H8.69537C7.24014 2.9268 6.07124 2.92678 5.16132 3.05435C4.21904 3.18646 3.43221 3.46974 2.83731 4.13218C2.24241 4.79463 2.04167 5.61104 2.00603 6.56789C1.97161 7.49188 2.08941 8.66233 2.23607 10.1195L2.63949 14.1283C2.76108 15.3367 2.85939 16.3138 3.03679 17.0797C3.22136 17.8765 3.51088 18.5394 4.07844 19.0556C4.646 19.5719 5.33047 19.795 6.13671 19.8996C6.91167 20 7.88745 20 9.0942 20H11.0947C12.3344 20 13.3359 20 14.1291 19.8959C14.9539 19.7875 15.6525 19.5562 16.225 19.0201C16.7975 18.4841 17.0772 17.7995 17.2441 16.9794C17.4045 16.1907 17.4768 15.1853 17.5662 13.9409L17.8544 9.9317C17.9567 8.50915 18.0389 7.36534 17.9806 6.46337C17.9202 5.52856 17.704 4.73407 17.1119 4.09346C16.5197 3.45285 15.748 3.17842 14.826 3.05035C13.9363 2.92678 12.7968 2.9268 11.3797 2.92682Z" fill="currentColor" fill-opacity="0.2" />
  <path d="M10.9642 6.47518e-07H8.95174C8.39311 -1.55569e-05 7.91861 -2.9318e-05 7.5332 0.0401866C7.12674 0.0825988 6.7378 0.175983 6.38632 0.418303C6.14425 0.585198 5.935 0.795798 5.76917 1.03943C5.52841 1.39318 5.43562 1.78463 5.39348 2.19371C5.36838 2.43736 5.35905 2.71634 5.35559 3.02948C5.78591 2.97927 6.27019 2.95362 6.81101 2.94051C6.81482 2.7016 6.82284 2.50883 6.83976 2.34462C6.86972 2.05382 6.92112 1.93643 6.96875 1.86646C7.03304 1.77199 7.11418 1.69033 7.20805 1.62562C7.27757 1.57769 7.3942 1.52595 7.68314 1.4958C7.98465 1.46434 8.38304 1.46342 8.98864 1.46342H10.9273C11.5329 1.46342 11.9313 1.46434 12.2328 1.4958C12.5218 1.52595 12.6384 1.57769 12.7079 1.62562C12.8018 1.69033 12.8829 1.77199 12.9472 1.86646C12.9949 1.93643 13.0463 2.05382 13.0762 2.34462C13.0931 2.50817 13.1011 2.70003 13.1049 2.9376C13.6451 2.94878 14.1293 2.97152 14.5603 3.0178C14.5567 2.7094 14.5473 2.43433 14.5225 2.19371C14.4804 1.78463 14.3876 1.39318 14.1468 1.03943C13.981 0.795798 13.7717 0.585198 13.5297 0.418303C13.1782 0.175983 12.7892 0.0825988 12.3828 0.0401866C11.9974 -2.9318e-05 11.5229 -1.55569e-05 10.9642 6.47518e-07Z" fill="currentColor" />
  <path d="M7.99643 7.98779C8.39795 7.98779 8.72344 8.31539 8.72344 8.7195V13.5976C8.72344 14.0017 8.39795 14.3293 7.99643 14.3293C7.59491 14.3293 7.26941 14.0017 7.26941 13.5976V8.7195C7.26941 8.31539 7.59491 7.98779 7.99643 7.98779Z" fill="currentColor" />
  <path d="M12.6009 8.7195C12.6009 8.31539 12.2754 7.98779 11.8739 7.98779C11.4723 7.98779 11.1469 8.31539 11.1469 8.7195V13.5976C11.1469 14.0017 11.4723 14.3293 11.8739 14.3293C12.2754 14.3293 12.6009 14.0017 12.6009 13.5976V8.7195Z" fill="currentColor" />
</svg>
