<svg width="20" height="20" viewBox="0 0 20 20" fill="currentcolor" xmlns="http://www.w3.org/2000/svg">
  <path d="M10.9452 2.21272C10.9459 2.10156 10.9473 2.00326 10.9497 1.91586C10.9513 1.85614 10.9535 1.80147 10.9563 1.75129" fill="currentcolor" />
  <path fill-rule="evenodd" d="M12.4842 0.938214L16.7703 4.31362C17.0562 4.53873 17.3403 4.76237 17.542 4.97651C17.7623 5.21043 18.0414 5.59514 17.9949 6.13649C17.9483 6.67829 17.6078 7.00505 17.3506 7.1942C17.1155 7.36715 16.7977 7.53392 16.4781 7.70163L12.1004 10L16.4781 12.2984C16.7977 12.4661 17.1155 12.6329 17.3506 12.8058C17.6078 12.9949 17.9483 13.3217 17.9949 13.8635C18.0414 14.4049 17.7623 14.7896 17.542 15.0235C17.3403 15.2376 17.0562 15.4613 16.7702 15.6864L12.4843 19.0617C12.1358 19.3363 11.8036 19.598 11.5167 19.7617C11.2239 19.9288 10.7191 20.1458 10.1817 19.8636C9.64717 19.583 9.51135 19.034 9.46328 18.69C9.41601 18.3518 9.41607 17.9164 9.41614 17.4583L9.41614 11.4093L3.20763 14.6689C2.79184 14.8872 2.29062 14.7074 2.08691 14.2796C1.88472 13.855 2.04621 13.3346 2.4582 13.1183L8.39756 10L2.4582 6.8817C2.04621 6.66539 1.88472 6.145 2.08691 5.72038C2.29062 5.29257 2.79184 5.11278 3.20763 5.33108L9.41614 8.59069L9.41614 2.5417C9.41607 2.08361 9.41601 1.64823 9.46328 1.31001C9.51135 0.966021 9.64717 0.417024 10.1817 0.136364C10.7191 -0.145785 11.2239 0.0711962 11.5167 0.238318C11.8036 0.402008 12.1358 0.663719 12.4842 0.938214ZM10.9473 17.9778C10.948 18.0149 10.9488 18.0503 10.9497 18.0841C10.9513 18.1438 10.9535 18.1985 10.9562 18.2486C10.9519 18.1701 10.9491 18.0806 10.9473 17.9778ZM10.9452 2.21272C10.9464 2.02559 10.9494 1.87489 10.9563 1.75129L10.9452 2.21272ZM10.9563 1.75129C10.9563 1.75129 10.9563 1.7513 10.9563 1.75129C11.1151 1.86181 11.3218 2.02335 11.6118 2.25174L15.8081 5.55645C16.0477 5.74517 16.2133 5.87681 16.3298 5.97998C16.1976 6.0596 16.0122 6.158 15.7443 6.29866L10.9443 8.81877V2.60216C10.9443 2.22153 10.9452 1.95101 10.9563 1.75129ZM10.9443 11.1812L15.7443 13.7013C16.0122 13.842 16.1976 13.9404 16.3298 14.02C16.2133 14.1231 16.0477 14.2548 15.8081 14.4435L11.6118 17.7482C11.3218 17.9766 11.1151 18.1381 10.9562 18.2486C10.9452 18.0489 10.9443 17.7784 10.9443 17.3978V11.1812Z" fill="currentcolor" />
  <path d="M15.7443 13.7013L10.9443 11.1812V17.3978C10.9443 17.7784 10.9453 18.0489 10.9564 18.2486C11.1152 18.1381 11.3218 17.9766 11.6118 17.7482L15.8081 14.4435C16.0477 14.2548 16.2133 14.1231 16.3298 14.02C16.1976 13.9404 16.0122 13.842 15.7443 13.7013Z" fill="currentcolor" fill-opacity="0.2" />
  <path d="M10.9443 2.60216V8.81877L15.7443 6.29866C16.0122 6.158 16.1976 6.0596 16.3298 5.97998C16.2133 5.87681 16.0477 5.74517 15.8081 5.55645L11.6118 2.25174C11.3218 2.02335 11.1152 1.86186 10.9564 1.75134C10.9453 1.95107 10.9443 2.22151 10.9443 2.60216Z" fill="currentcolor" fill-opacity="0.2" />
</svg>
