<svg
  xmlns="http://www.w3.org/2000/svg"
  width="20"
  height="20"
  viewBox="0 0 20 20"
  fill="none"
>
  <path
    fill-rule="evenodd"
    clip-rule="evenodd"
    d="M11.9251 1H10.9031C9.42954 0.999984 8.25353 0.999972 7.33119 1.12494C6.37834 1.25405 5.59363 1.52789 4.97284 2.15353C4.35205 2.77917 4.08033 3.57001 3.95222 4.5303C3.82822 5.45984 3.82823 6.64502 3.82825 8.13011V9.16012C3.82823 10.6452 3.82822 11.8304 3.95222 12.7599C4.08033 13.7202 4.35205 14.5111 4.97284 15.1367C5.59363 15.7623 6.37834 16.0362 7.33119 16.1653C8.25353 16.2903 9.42954 16.2903 10.9031 16.2902H11.9251C13.3987 16.2903 14.5747 16.2903 15.4971 16.1653C16.4499 16.0362 17.2346 15.7623 17.8554 15.1367C18.4762 14.5111 18.7479 13.7202 18.876 12.7599C19 11.8304 19 10.6452 19 9.16016V8.13012C19 6.64505 19 5.45983 18.876 4.5303C18.7479 3.57001 18.4762 2.77917 17.8554 2.15353C17.2346 1.52789 16.4499 1.25405 15.4971 1.12494C14.5747 0.999972 13.3987 0.999984 11.9251 1Z"
    fill="currentColor"
    fill-opacity="0.2"
  />
  <path
    d="M8.14034 4.60795C7.72419 4.60795 7.38684 4.94793 7.38684 5.36732C7.38684 5.78672 7.72419 6.1267 8.14034 6.1267H14.5272C14.9433 6.1267 15.2807 5.78672 15.2807 5.36732C15.2807 4.94793 14.9433 4.60795 14.5272 4.60795H8.14034Z"
    fill="currentColor"
  />
  <path
    d="M8.14034 7.36653C7.72419 7.36653 7.38684 7.70652 7.38684 8.12591C7.38684 8.5453 7.72419 8.88529 8.14034 8.88529H14.5272C14.9433 8.88529 15.2807 8.5453 15.2807 8.12591C15.2807 7.70652 14.9433 7.36653 14.5272 7.36653H8.14034Z"
    fill="currentColor"
  />
  <path
    d="M7.38684 10.8845C7.38684 10.4651 7.72419 10.1251 8.14034 10.1251H11.79C12.2061 10.1251 12.5434 10.4651 12.5434 10.8845C12.5434 11.3039 12.2061 11.6439 11.79 11.6439H8.14034C7.72419 11.6439 7.38684 11.3039 7.38684 10.8845Z"
    fill="currentColor"
  />
  <path
    d="M1.75349 3.68848C1.33735 3.68848 1 4.02846 1 4.44785V7.26514C0.999991 9.81631 0.999983 11.8086 1.20715 13.3615C1.41881 14.9481 1.85906 16.1892 2.82412 17.1618C3.78917 18.1344 5.02071 18.5781 6.59501 18.7914C8.13587 19.0002 10.1127 19.0002 12.644 19.0002H15.4396C15.8557 19.0002 16.1931 18.6602 16.1931 18.2408C16.1931 17.8214 15.8557 17.4814 15.4396 17.4814H12.7023C10.1004 17.4814 8.2247 17.4798 6.79581 17.2862C5.38863 17.0955 4.5281 16.7313 3.88972 16.0879C3.25133 15.4445 2.88989 14.5773 2.7007 13.1591C2.50859 11.7191 2.50699 9.82875 2.50699 7.20644V4.44785C2.50699 4.02846 2.16964 3.68848 1.75349 3.68848Z"
    fill="currentColor"
  />
</svg>
