<svg
  xmlns="http://www.w3.org/2000/svg"
  width="20"
  height="20"
  viewBox="0 0 20 20"
  fill="none"
>
  <path
    fill-rule="evenodd"
    clip-rule="evenodd"
    d="M11.8976 1H10.8716C9.39231 0.999984 8.21171 0.999972 7.28579 1.12446C6.32924 1.25306 5.54148 1.52584 4.91827 2.14904C4.29506 2.77225 4.02229 3.56001 3.89368 4.51657C3.7692 5.44249 3.76921 6.62307 3.76923 8.10238V9.12838C3.76921 10.6077 3.7692 11.7883 3.89368 12.7142C4.02229 13.6708 4.29506 14.4585 4.91827 15.0817C5.54148 15.7049 6.32924 15.9777 7.28579 16.1063C8.21172 16.2308 9.3923 16.2308 10.8716 16.2308H11.8976C13.3769 16.2308 14.5575 16.2308 15.4834 16.1063C16.44 15.9777 17.2277 15.7049 17.851 15.0817C18.4742 14.4585 18.7469 13.6708 18.8755 12.7142C19 11.7883 19 10.6077 19 9.12843V8.10239C19 6.6231 19 5.44248 18.8755 4.51657C18.7469 3.56001 18.4742 2.77225 17.851 2.14904C17.2277 1.52584 16.44 1.25306 15.4834 1.12446C14.5575 0.999972 13.3769 0.999984 11.8976 1Z"
    fill="currentColor"
    fill-opacity="0.2"
  />
  <path
    d="M1.75642 3.7478C1.33866 3.7478 1 4.08647 1 4.50423V7.31056C0.99999 9.8518 0.999983 11.8363 1.20795 13.3832C1.42044 14.9636 1.8624 16.1999 2.83121 17.1687C3.80002 18.1375 5.03635 18.5795 6.61677 18.792C8.16365 19 10.1482 19 12.6895 18.9999H15.4957C15.9135 18.9999 16.2521 18.6613 16.2521 18.2435C16.2521 17.8258 15.9135 17.4871 15.4957 17.4871H12.7479C10.1357 17.4871 8.25279 17.4855 6.81836 17.2926C5.40569 17.1027 4.54183 16.7399 3.90096 16.099C3.26009 15.4581 2.89724 14.5942 2.70731 13.1816C2.51446 11.7472 2.51285 9.86419 2.51285 7.25209V4.50423C2.51285 4.08647 2.17419 3.7478 1.75642 3.7478Z"
    fill="currentColor"
  />
  <path
    fill-rule="evenodd"
    clip-rule="evenodd"
    d="M10.6924 5.15384C9.16302 5.15384 7.92319 6.39367 7.92319 7.92307C7.92319 9.45248 9.16302 10.6923 10.6924 10.6923C12.2218 10.6923 13.4617 9.45248 13.4617 7.92307C13.4617 6.39367 12.2218 5.15384 10.6924 5.15384ZM6.53857 7.92307C6.53857 5.62897 8.39831 3.76923 10.6924 3.76923C12.9865 3.76923 14.8463 5.62897 14.8463 7.92307C14.8463 8.82019 14.5619 9.65088 14.0783 10.3299L15.5666 11.8181C15.8369 12.0885 15.8369 12.5269 15.5666 12.7972C15.2962 13.0676 14.8579 13.0676 14.5875 12.7972L13.0993 11.309C12.4202 11.7925 11.5895 12.0769 10.6924 12.0769C8.39831 12.0769 6.53857 10.2172 6.53857 7.92307Z"
    fill="currentColor"
  />
</svg>
