<svg width="20" height="20" viewBox="0 0 20 20" fill="currentColor" xmlns="http://www.w3.org/2000/svg">
  <path fill-rule="evenodd" d="M11.9251 1H10.9031C9.42954 0.999984 8.25353 0.999972 7.33119 1.12494C6.37834 1.25405 5.59363 1.52789 4.97284 2.15353C4.35205 2.77917 4.08033 3.57001 3.95222 4.5303C3.82822 5.45984 3.82823 6.64502 3.82825 8.13011V9.16012C3.82823 10.6452 3.82822 11.8304 3.95222 12.7599C4.08033 13.7202 4.35205 14.5111 4.97284 15.1367C5.59363 15.7623 6.37834 16.0362 7.33119 16.1653C8.25353 16.2903 9.42954 16.2903 10.9031 16.2902H11.9251C13.3987 16.2903 14.5747 16.2903 15.4971 16.1653C16.4499 16.0362 17.2346 15.7623 17.8554 15.1367C18.4762 14.5111 18.7479 13.7202 18.876 12.7599C19 11.8304 19 10.6452 19 9.16016V8.13012C19 6.64505 19 5.45983 18.876 4.5303C18.7479 3.57001 18.4762 2.77917 17.8554 2.15353C17.2346 1.52789 16.4499 1.25405 15.4971 1.12494C14.5747 0.999972 13.3987 0.999984 11.9251 1Z" fill="currentColor" fill-opacity="0.2" />
  <path d="M8.14034 4.60782C7.72419 4.60782 7.38684 4.94781 7.38684 5.3672C7.38684 5.78659 7.72419 6.12658 8.14034 6.12658H14.5272C14.9433 6.12658 15.2807 5.78659 15.2807 5.3672C15.2807 4.94781 14.9433 4.60782 14.5272 4.60782H8.14034Z" fill="currentColor" />
  <path d="M8.14034 7.36641C7.72419 7.36641 7.38684 7.7064 7.38684 8.12579C7.38684 8.54518 7.72419 8.88517 8.14034 8.88517H14.5272C14.9433 8.88517 15.2807 8.54518 15.2807 8.12579C15.2807 7.7064 14.9433 7.36641 14.5272 7.36641H8.14034Z" fill="currentColor" />
  <path d="M7.38684 10.8844C7.38684 10.465 7.72419 10.125 8.14034 10.125H11.79C12.2061 10.125 12.5434 10.465 12.5434 10.8844C12.5434 11.3038 12.2061 11.6438 11.79 11.6438H8.14034C7.72419 11.6438 7.38684 11.3038 7.38684 10.8844Z" fill="currentColor" />
  <path d="M1.75349 3.68835C1.33735 3.68835 1 4.02834 1 4.44773V7.26502C0.999991 9.81618 0.999983 11.8084 1.20715 13.3613C1.41881 14.9479 1.85906 16.1891 2.82412 17.1617C3.78917 18.1343 5.02071 18.578 6.59501 18.7913C8.13587 19.0001 10.1127 19.0001 12.644 19H15.4396C15.8557 19 16.1931 18.6601 16.1931 18.2407C16.1931 17.8213 15.8557 17.4813 15.4396 17.4813H12.7023C10.1004 17.4813 8.2247 17.4797 6.79581 17.2861C5.38863 17.0954 4.5281 16.7311 3.88972 16.0878C3.25133 15.4444 2.88989 14.5771 2.7007 13.159C2.50859 11.7189 2.50699 9.82863 2.50699 7.20632V4.44773C2.50699 4.02834 2.16964 3.68835 1.75349 3.68835Z" fill="currentColor" />
</svg>
