<svg width="20" height="20" viewBox="0 0 20 20" fill="currentcolor" xmlns="http://www.w3.org/2000/svg">
  <path d="M5.7528 2.47338L3.30112 3.62648C2.183 4.15237 1.62394 4.41531 1.31197 4.90752C1 5.39972 1 6.01882 1 7.25701V12.743C1 13.9812 1 14.6003 1.31197 15.0925C1.62394 15.5847 2.183 15.8476 3.30112 16.3735L5.7528 17.5266C7.84123 18.5089 8.88544 19 10 19C11.1146 19 12.1588 18.5089 14.2472 17.5266L16.6989 16.3735C17.817 15.8476 18.3761 15.5847 18.688 15.0925C19 14.6003 19 13.9812 19 12.743V7.25701C19 6.01882 19 5.39972 18.688 4.90752C18.3761 4.41531 17.817 4.15237 16.6989 3.62648L14.2472 2.47338C12.1588 1.49113 11.1146 1 10 1C8.88544 1 7.84123 1.49113 5.7528 2.47338Z" fill="currentcolor" fill-opacity="0.2" />
  <path fill-rule="evenodd" d="M18.0991 4.34156L11.242 7.17226C10.4342 7.50573 10.2174 7.58101 10.0046 7.58101C9.7918 7.58101 9.57494 7.50573 8.76715 7.17226L1.91002 4.34155C1.64441 4.51373 1.45584 4.6878 1.31654 4.90759C1.19022 5.10689 1.11505 5.32699 1.07031 5.60058C1.1157 5.63282 1.1654 5.66048 1.21902 5.68261L8.30708 8.60874C8.65272 8.75181 8.95955 8.87882 9.25458 8.96559V18.9263C9.50938 18.9755 9.75522 19 10.0046 19C10.2539 19 10.4998 18.9755 10.7546 18.9263V8.9656C11.0496 8.87883 11.3564 8.75182 11.7021 8.60875L18.7902 5.68261C18.8438 5.66048 18.8935 5.63283 18.9388 5.6006C18.8941 5.327 18.8189 5.10689 18.6926 4.90759C18.5533 4.68781 18.3647 4.51374 18.0991 4.34156Z" fill="currentcolor" />
</svg>
