<svg width="20" height="20" viewBox="0 0 20 20" fill="currentColor" xmlns="http://www.w3.org/2000/svg">
  <path fill-rule="evenodd" d="M11.5434 3.80518H8.45656C7.03152 3.80517 5.90251 3.80516 5.00712 3.90865C4.08838 4.01485 3.32921 4.23761 2.68706 4.74525C2.40391 4.96909 2.14899 5.22732 1.92802 5.51415C1.42689 6.16463 1.20698 6.93366 1.10215 7.86434C0.999982 8.77136 0.99999 9.91502 1 11.3586V11.4466C0.99999 12.8901 0.999982 14.0338 1.10215 14.9408C1.20698 15.8715 1.42689 16.6405 1.92802 17.291C2.14899 17.5778 2.40391 17.8361 2.68706 18.0599C3.32921 18.5676 4.08838 18.7903 5.00712 18.8965C5.90252 19 7.03152 19 8.45655 19H11.5434C12.9685 19 14.0975 19 14.9929 18.8965C15.9116 18.7903 16.6708 18.5676 17.3129 18.0599C17.5961 17.8361 17.851 17.5778 18.072 17.291C18.5731 16.6405 18.793 15.8715 18.8979 14.9408C19 14.0338 19 12.8901 19 11.4466V11.3586C19 9.91504 19 8.77136 18.8979 7.86434C18.793 6.93366 18.5731 6.16463 18.072 5.51415C17.851 5.22732 17.5961 4.96909 17.3129 4.74525C16.6708 4.23761 15.9116 4.01485 14.9929 3.90865C14.0975 3.80516 12.9685 3.80517 11.5434 3.80518Z" fill="currentColor" fill-opacity="0.2" />
  <path d="M9.99999 8.48053C10.3823 8.48053 10.6923 8.79451 10.6923 9.18183V9.4156L18.9871 9.4156C18.9965 9.84526 18.9989 10.3117 18.9995 10.8182L10.6923 10.8182V11.052C10.6923 11.4393 10.3823 11.7533 9.99999 11.7533C9.61764 11.7533 9.30768 11.4393 9.30768 11.052V10.8182L1 10.8182C1.00062 10.3117 1.00303 9.84526 1.01243 9.4156L9.30768 9.4156V9.18183C9.30768 8.79451 9.61764 8.48053 9.99999 8.48053Z" fill="currentColor" />
  <path fill-rule="evenodd" d="M8.98914 1.00003H11.0109C11.5259 0.999778 11.9055 0.999595 12.2358 1.08114C13.2577 1.3334 14.0556 2.14162 14.3046 3.17677C14.3531 3.37842 14.3723 3.59817 14.3799 3.85515C13.9622 3.82854 13.5013 3.81612 12.9927 3.81033C12.9869 3.66642 12.9768 3.58152 12.9593 3.50885C12.8328 2.9828 12.4273 2.57206 11.908 2.44386C11.7614 2.40768 11.5644 2.40266 10.9231 2.40266H9.07695C8.43562 2.40266 8.23861 2.40768 8.09204 2.44386C7.57273 2.57206 7.16726 2.9828 7.04071 3.50885C7.02323 3.58152 7.01311 3.66642 7.00734 3.81033C6.49873 3.81612 6.03787 3.82854 5.62018 3.85515C5.62774 3.59817 5.64695 3.37842 5.69546 3.17677C5.94449 2.14162 6.74234 1.3334 7.76421 1.08114C8.09456 0.999595 8.47413 0.999778 8.98914 1.00003Z" fill="currentColor" />
</svg>
