<svg width="20" height="20" viewBox="0 0 20 20" fill="currentcolor" xmlns="http://www.w3.org/2000/svg">
  <path d="M2.5904e-05 9.94839V10.0516C1.17121e-05 11.7318 4.47035e-07 13.0627 0.142478 14.1042C0.289108 15.1762 0.598054 16.0438 1.29421 16.728C1.99036 17.4122 2.8731 17.7159 3.96373 17.86C5.02345 18 6.37752 18 8.08704 18H11.913C13.6225 18 14.9766 18 16.0363 17.86C17.127 17.7159 18.0097 17.4122 18.7058 16.728C19.402 16.0438 19.7109 15.1762 19.8576 14.1042C20.0001 13.0627 20 11.7318 20 10.0516V9.94841C20 8.65929 20.003 7.61943 19.9387 6.71448L0.0612882 6.71448C-0.00305485 7.61942 1.50832e-05 8.65927 2.5904e-05 9.94839Z" fill="currentcolor" fill-opacity="0.2" />
  <path fill-rule="evenodd" d="M8.08706 2H11.9129C13.6225 1.99999 14.9766 1.99998 16.0363 2.14001C17.1269 2.28413 18.0097 2.58778 18.7058 3.27199C19.402 3.95621 19.7109 4.82382 19.8575 5.89575C19.8925 6.151 19.9188 6.42362 19.9387 6.71449H0.0612793C0.0811776 6.42362 0.107536 6.151 0.142452 5.89575C0.289082 4.82382 0.598028 3.95621 1.29418 3.27199C1.99033 2.58778 2.87308 2.28413 3.9637 2.14001C5.02343 1.99998 6.37752 1.99999 8.08706 2Z" fill="currentcolor" />
  <path d="M4.85523 4.51438C4.85523 5.01933 4.43875 5.42867 3.925 5.42867C3.41125 5.42867 2.99477 5.01933 2.99477 4.51438C2.99477 4.00944 3.41125 3.6001 3.925 3.6001C4.43875 3.6001 4.85523 4.00944 4.85523 4.51438Z" fill="currentcolor" />
  <path d="M7.64594 4.51438C7.64594 5.01933 7.22946 5.42867 6.71571 5.42867C6.20196 5.42867 5.78548 5.01933 5.78548 4.51438C5.78548 4.00944 6.20196 3.6001 6.71571 3.6001C7.22946 3.6001 7.64594 4.00944 7.64594 4.51438Z" fill="currentcolor" />
</svg>
