<svg
  xmlns="http://www.w3.org/2000/svg"
  width="20"
  height="20"
  viewBox="0 0 20 20"
  fill="none"
>
  <path
    d="M2.64957e-05 9.94849V10.0517C1.23037e-05 11.7319 1.04308e-06 13.0627 0.142478 14.1043C0.289109 15.1762 0.598055 16.0438 1.29421 16.728C1.99036 17.4122 2.8731 17.7159 3.96373 17.86C5.02345 18 6.37752 18 8.08704 18H11.913C13.6225 18 14.9766 18 16.0363 17.86C17.127 17.7159 18.0097 17.4122 18.7058 16.728C19.402 16.0438 19.7109 15.1762 19.8576 14.1043C20.0001 13.0627 20 11.7319 20 10.0517V9.94851C20 8.6594 20.0031 7.61943 19.9387 6.71448H0.0612885C-0.00305459 7.61942 1.56748e-05 8.65938 2.64957e-05 9.94849Z"
    fill="currentColor"
    fill-opacity="0.2"
  />
  <path
    fill-rule="evenodd"
    clip-rule="evenodd"
    d="M8.08706 2H11.9129C13.6225 1.99999 14.9766 1.99998 16.0363 2.14001C17.1269 2.28413 18.0097 2.58777 18.7058 3.27199C19.402 3.9562 19.7109 4.8238 19.8575 5.89572C19.8925 6.15097 19.9188 6.42358 19.9387 6.71446H0.0612793C0.0811776 6.42358 0.107536 6.15097 0.142452 5.89572C0.289082 4.8238 0.598028 3.9562 1.29418 3.27199C1.99033 2.58777 2.87308 2.28413 3.9637 2.14001C5.02342 1.99998 6.37753 1.99999 8.08706 2ZM6.69491 3.75C6.27317 3.75 5.93127 4.08579 5.93127 4.5C5.93127 4.91421 6.27317 5.25 6.69491 5.25H16.3676C16.7894 5.25 17.1313 4.91421 17.1313 4.5C17.1313 4.08579 16.7894 3.75 16.3676 3.75H6.69491ZM3.86877 5.5C4.42106 5.5 4.86877 5.05228 4.86877 4.5C4.86877 3.94772 4.42106 3.5 3.86877 3.5C3.31649 3.5 2.86877 3.94772 2.86877 4.5C2.86877 5.05228 3.31649 5.5 3.86877 5.5Z"
    fill="currentColor"
  />
</svg>
