<svg
  xmlns="http://www.w3.org/2000/svg"
  width="20"
  height="20"
  viewBox="0 0 20 20"
  fill="none"
>
  <path
    d="M10.2526 0C8.08492 0 6.26103 0.73745 4.97701 2.01729C3.69446 3.29566 3 5.06613 3 7.0405C3 8.82388 3.7118 10.1101 4.50898 11.1731C4.77428 11.5269 5.06529 11.876 5.33738 12.2024C5.45932 12.3486 5.57747 12.4904 5.6878 12.6259C6.06026 13.0835 6.3757 13.5072 6.60768 13.9494L6.61884 13.9707C6.89346 14.4941 7.11405 14.9146 7.29612 15.2206C7.38903 15.3767 7.48332 15.5227 7.5808 15.647C7.6737 15.7654 7.80173 15.9065 7.973 16.01C8.24297 16.1733 8.54002 16.2205 8.7969 16.2413C9.0498 16.2617 9.36452 16.2617 9.72496 16.2617H10.7804C11.1407 16.2617 11.455 16.2617 11.7076 16.2414C11.9638 16.2208 12.2604 16.174 12.53 16.0117C12.7013 15.9085 12.8295 15.7677 12.9224 15.6499C13.02 15.526 13.1147 15.3803 13.2082 15.2243C13.3914 14.9186 13.6138 14.4983 13.891 13.9747L13.9022 13.9536C14.1352 13.5132 14.4512 13.0899 14.8239 12.6315C14.9309 12.4999 15.045 12.3628 15.1625 12.2213C15.4377 11.8903 15.7323 11.5359 16.0015 11.1751C16.7967 10.1094 17.5055 8.82018 17.5055 7.0405C17.5055 5.06612 16.811 3.29564 15.5284 2.01728C14.2443 0.737448 12.4204 0 10.2526 0Z"
    fill="currentColor"
    fill-opacity="0.2"
  />
  <path
    d="M10.2528 19.9999C12.026 19.9999 12.7726 19.4789 12.8732 17.5086C12.8872 17.2337 12.662 17.0092 12.3867 17.0092H8.11878C7.8435 17.0092 7.61824 17.2337 7.63228 17.5086C7.73289 19.4789 8.47964 19.9999 10.2528 19.9999Z"
    fill="currentColor"
  />
  <path
    fill-rule="evenodd"
    clip-rule="evenodd"
    d="M10.9579 16.2615C10.9854 16.1836 11.0004 16.0997 11.0004 16.0124V12.6555C11.4151 12.5295 11.7756 12.3235 12.0382 12.1485C12.2559 12.0033 12.4358 11.8593 12.5617 11.7514C12.6251 11.6971 12.6758 11.651 12.7119 11.6174C12.7299 11.6005 12.7444 11.5867 12.755 11.5764L12.768 11.5637L12.7724 11.5594L12.774 11.5578L12.7749 11.5569C13.0669 11.2649 13.0672 10.7912 12.7752 10.4993C12.4836 10.2077 12.0113 10.2073 11.7192 10.4979L11.7181 10.499L11.7151 10.5019C11.7106 10.5062 11.7027 10.5138 11.6916 10.5242C11.6692 10.545 11.6343 10.5769 11.5886 10.616C11.4964 10.695 11.3649 10.8002 11.2087 10.9043C10.8721 11.1287 10.5264 11.2772 10.2527 11.2772C9.97902 11.2772 9.63333 11.1287 9.29674 10.9043C9.1406 10.8002 9.00901 10.695 8.91687 10.616C8.87119 10.5769 8.83622 10.545 8.81388 10.5242C8.80274 10.5138 8.79481 10.5062 8.79034 10.5019L8.78628 10.4979C8.49419 10.2073 8.02181 10.2077 7.73028 10.4993C7.4383 10.7912 7.4383 11.2646 7.73028 11.5566L7.7315 11.5578L7.7331 11.5594L7.73741 11.5637L7.75045 11.5764C7.76107 11.5867 7.77553 11.6005 7.79359 11.6174C7.82966 11.651 7.88037 11.6971 7.94372 11.7514C8.06965 11.8593 8.24958 12.0033 8.46728 12.1485C8.72984 12.3235 9.09038 12.5295 9.50506 12.6555V16.0121C9.50506 16.0995 9.52007 16.1835 9.54765 16.2615C9.60542 16.2616 9.66455 16.2616 9.72496 16.2616H10.7804C10.8409 16.2616 10.9 16.2616 10.9579 16.2615ZM7.73741 11.5637C7.75045 11.5764 7.73028 11.5566 7.73028 11.5566L7.73741 11.5637Z"
    fill="currentColor"
  />
</svg>
