<svg width="20" height="20" viewBox="0 0 20 20" fill="currentColor" xmlns="http://www.w3.org/2000/svg">
  <path d="M10 0C7.86832 0 5.8783 0.592081 4.40489 1.81008C2.91249 3.04378 2 4.88161 2 7.22892C2 8.3768 2.19233 9.268 2.53071 10.0066C2.86784 10.7424 3.32881 11.2795 3.79262 11.7412C3.98635 11.934 4.17671 12.1121 4.36193 12.2854C5.08456 12.9615 5.72895 13.5645 6.18985 14.6822L6.20101 14.7093C6.35556 15.0841 6.4878 15.4049 6.61138 15.6493C6.73318 15.8901 6.89806 16.1669 7.16335 16.3503C7.41118 16.5216 7.67785 16.5787 7.92019 16.6034C8.14691 16.6266 8.42255 16.6265 8.72666 16.6265H11.2733C11.5774 16.6265 11.8531 16.6266 12.0798 16.6034C12.3221 16.5787 12.5888 16.5216 12.8366 16.3503C13.1019 16.1669 13.2668 15.8901 13.3886 15.6493C13.5122 15.4048 13.6444 15.0842 13.799 14.7093L13.8102 14.6822C14.2711 13.5645 14.9154 12.9615 15.6381 12.2854C15.8233 12.1121 16.0136 11.934 16.2074 11.7412C16.6712 11.2795 17.1322 10.7424 17.4693 10.0066C17.8077 9.268 18 8.3768 18 7.22892C18 2.8469 14.285 0 10 0Z" fill="currentColor" fill-opacity="0.2" />
  <path d="M7.02207 4.5748C7.27268 4.27547 7.24566 3.81865 6.96172 3.55446C6.67779 3.29026 6.24446 3.31875 5.99386 3.61807C5.61207 4.07408 5.27624 4.57412 4.99409 5.11016C4.71007 5.64976 4.48045 6.22583 4.31316 6.83008C4.20706 7.21333 4.41576 7.61469 4.7793 7.72655C5.14284 7.8384 5.52357 7.61839 5.62967 7.23514C5.76804 6.73532 5.95804 6.25856 6.19327 5.81166C6.42698 5.36764 6.70536 4.95309 7.02207 4.5748Z" fill="currentColor" />
  <path d="M7.26596 17.9783C7.25717 18.0249 7.25717 18.0808 7.25717 18.1928C7.25717 18.5287 7.25717 18.6967 7.28353 18.8363C7.39174 19.4098 7.81702 19.8582 8.36105 19.9723C8.49353 20 8.65284 20 8.97146 20H11.0286C11.3472 20 11.5065 20 11.639 19.9723C12.183 19.8582 12.6083 19.4098 12.7165 18.8363C12.7429 18.6967 12.7429 18.5287 12.7429 18.1928C12.7429 18.0808 12.7429 18.0249 12.7341 17.9783C12.698 17.7871 12.5563 17.6377 12.3749 17.5997C12.3308 17.5904 12.2777 17.5904 12.1715 17.5904H7.8286C7.7224 17.5904 7.66929 17.5904 7.62513 17.5997C7.44379 17.6377 7.30203 17.7871 7.26596 17.9783Z" fill="currentColor" />
</svg>
