<svg
  xmlns="http://www.w3.org/2000/svg"
  width="20"
  height="20"
  viewBox="0 0 20 20"
  fill="none"
>
  <path
    fill-rule="evenodd"
    clip-rule="evenodd"
    d="M10.0516 2.90109e-07H9.94842C8.26819 -1.41594e-05 6.93732 -2.56002e-05 5.89575 0.142452C4.82382 0.289082 3.95621 0.598028 3.27199 1.29418C2.58778 1.99033 2.28413 2.87308 2.14001 3.9637C1.99998 5.02343 1.99999 6.37749 2 8.08702V11.9129C1.99999 13.6225 1.99998 14.9766 2.14001 16.0363C2.28413 17.1269 2.58778 18.0097 3.27199 18.7058C3.95621 19.402 4.82382 19.7109 5.89575 19.8575C6.93731 20 8.26816 20 9.94838 20H10.0516C11.7318 20 13.0627 20 14.1043 19.8575C15.1762 19.7109 16.0438 19.402 16.728 18.7058C17.4122 18.0097 17.7159 17.1269 17.86 16.0363C18 14.9766 18 13.6225 18 11.913V8.08706C18 6.37754 18 5.02343 17.86 3.9637C17.7159 2.87308 17.4122 1.99033 16.728 1.29418C16.0438 0.598028 15.1762 0.289082 14.1043 0.142452C13.0627 -2.56002e-05 11.7318 -1.41594e-05 10.0516 2.90109e-07Z"
    fill="currentColor"
    fill-opacity="0.2"
  />
  <path
    fill-rule="evenodd"
    clip-rule="evenodd"
    d="M5.42857 5.34884C5.42857 4.47181 5.42857 4.03329 5.69636 3.76083C5.96415 3.48837 6.39515 3.48837 7.25714 3.48837H12.7429C13.6049 3.48837 14.0359 3.48837 14.3036 3.76083C14.5714 4.03329 14.5714 4.47181 14.5714 5.34884V6.27907C14.5714 7.1561 14.5714 7.59462 14.3036 7.86708C14.0359 8.13953 13.6049 8.13953 12.7429 8.13953H7.25714C6.39515 8.13953 5.96415 8.13953 5.69636 7.86708C5.42857 7.59462 5.42857 7.1561 5.42857 6.27907V5.34884ZM5.42857 11.6744C5.42857 11.3236 5.42857 11.1482 5.53569 11.0392C5.6428 10.9302 5.8152 10.9302 6.16 10.9302H6.52571C6.87051 10.9302 7.04291 10.9302 7.15003 11.0392C7.25714 11.1482 7.25714 11.3236 7.25714 11.6744V12.0465C7.25714 12.3973 7.25714 12.5727 7.15003 12.6817C7.04291 12.7907 6.87051 12.7907 6.52571 12.7907H6.16C5.8152 12.7907 5.6428 12.7907 5.53569 12.6817C5.42857 12.5727 5.42857 12.3973 5.42857 12.0465V11.6744ZM5.53569 14.7601C5.42857 14.8691 5.42857 15.0445 5.42857 15.3953V15.7674C5.42857 16.1183 5.42857 16.2937 5.53569 16.4026C5.6428 16.5116 5.8152 16.5116 6.16 16.5116H6.52571C6.87051 16.5116 7.04291 16.5116 7.15003 16.4026C7.25714 16.2937 7.25714 16.1183 7.25714 15.7674V15.3953C7.25714 15.0445 7.25714 14.8691 7.15003 14.7601C7.04291 14.6512 6.87051 14.6512 6.52571 14.6512H6.16C5.8152 14.6512 5.6428 14.6512 5.53569 14.7601ZM9.08571 11.6744C9.08571 11.3236 9.08571 11.1482 9.19283 11.0392C9.29994 10.9302 9.47234 10.9302 9.81714 10.9302H10.1829C10.5277 10.9302 10.7001 10.9302 10.8072 11.0392C10.9143 11.1482 10.9143 11.3236 10.9143 11.6744V12.0465C10.9143 12.3973 10.9143 12.5727 10.8072 12.6817C10.7001 12.7907 10.5277 12.7907 10.1829 12.7907H9.81714C9.47234 12.7907 9.29994 12.7907 9.19283 12.6817C9.08571 12.5727 9.08571 12.3973 9.08571 12.0465V11.6744ZM9.19283 14.7601C9.08571 14.8691 9.08571 15.0445 9.08571 15.3953V15.7674C9.08571 16.1183 9.08571 16.2937 9.19283 16.4026C9.29994 16.5116 9.47234 16.5116 9.81714 16.5116H10.1829C10.5277 16.5116 10.7001 16.5116 10.8072 16.4026C10.9143 16.2937 10.9143 16.1183 10.9143 15.7674V15.3953C10.9143 15.0445 10.9143 14.8691 10.8072 14.7601C10.7001 14.6512 10.5277 14.6512 10.1829 14.6512H9.81714C9.47234 14.6512 9.29994 14.6512 9.19283 14.7601ZM12.7429 11.6744C12.7429 11.3236 12.7429 11.1482 12.85 11.0392C12.9571 10.9302 13.1295 10.9302 13.4743 10.9302H13.84C14.1848 10.9302 14.3572 10.9302 14.4643 11.0392C14.5714 11.1482 14.5714 11.3236 14.5714 11.6744V12.0465C14.5714 12.3973 14.5714 12.5727 14.4643 12.6817C14.3572 12.7907 14.1848 12.7907 13.84 12.7907H13.4743C13.1295 12.7907 12.9571 12.7907 12.85 12.6817C12.7429 12.5727 12.7429 12.3973 12.7429 12.0465V11.6744ZM12.85 14.7601C12.7429 14.8691 12.7429 15.0445 12.7429 15.3953V15.7674C12.7429 16.1183 12.7429 16.2937 12.85 16.4026C12.9571 16.5116 13.1295 16.5116 13.4743 16.5116H13.84C14.1848 16.5116 14.3572 16.5116 14.4643 16.4026C14.5714 16.2937 14.5714 16.1183 14.5714 15.7674V15.3953C14.5714 15.0445 14.5714 14.8691 14.4643 14.7601C14.3572 14.6512 14.1848 14.6512 13.84 14.6512H13.4743C13.1295 14.6512 12.9571 14.6512 12.85 14.7601Z"
    fill="currentColor"
  />
</svg>
