<svg
  xmlns="http://www.w3.org/2000/svg"
  width="20"
  height="20"
  viewBox="0 0 20 20"
  fill="none"
>
  <path
    d="M10.4992 1.91663H9.50074C7.99503 1.91662 6.80902 1.91661 5.86225 2.0106C4.89491 2.10662 4.0966 2.30659 3.39702 2.75945C2.77508 3.16206 2.2454 3.69174 1.8428 4.31368C1.38993 5.01326 1.18997 5.81157 1.09394 6.77891C0.999956 7.72567 0.999962 8.91169 0.99997 10.4174V10.4992C0.999962 12.0049 0.999956 13.1909 1.09394 14.1377C1.18997 15.105 1.38993 15.9033 1.8428 16.6029C2.2454 17.2248 2.77508 17.7545 3.39702 18.1571C4.0966 18.61 4.89491 18.81 5.86225 18.906C6.80901 19 7.99501 19 9.5007 19H10.4992C12.0049 19 13.1909 19 14.1377 18.906C15.105 18.81 15.9033 18.61 16.6029 18.1571C17.2249 17.7545 17.7545 17.2248 18.1571 16.6029C18.61 15.9033 18.81 15.105 18.906 14.1377C19 13.1909 19 12.0049 19 10.4991V10.4174C19 8.91171 19 7.72568 18.906 6.77891C18.81 5.81157 18.61 5.01326 18.1571 4.31368C17.7545 3.69174 17.2249 3.16206 16.6029 2.75945C15.9033 2.30659 15.105 2.10662 14.1377 2.0106C13.1909 1.91661 12.0049 1.91662 10.4992 1.91663Z"
    fill="currentColor"
    fill-opacity="0.2"
  />
  <path
    fill-rule="evenodd"
    clip-rule="evenodd"
    d="M6.33334 0.999878C6.74756 0.999878 7.08334 1.33566 7.08334 1.74988V3.57898C7.08334 3.99319 6.74756 4.32898 6.33334 4.32898C5.91913 4.32898 5.58334 3.99319 5.58334 3.57898V1.74988C5.58334 1.33566 5.91913 0.999878 6.33334 0.999878Z"
    fill="currentColor"
  />
  <path
    fill-rule="evenodd"
    clip-rule="evenodd"
    d="M13.6666 0.999878C14.0808 0.999878 14.4166 1.33566 14.4166 1.74988V3.58321C14.4166 3.99743 14.0808 4.33321 13.6666 4.33321C13.2524 4.33321 12.9166 3.99743 12.9166 3.58321V1.74988C12.9166 1.33566 13.2524 0.999878 13.6666 0.999878Z"
    fill="currentColor"
  />
  <path
    d="M18.837 6.39707C18.3679 6.35961 17.7762 6.31594 17.0857 6.27229C15.2621 6.157 12.7457 6.04163 9.97584 6.04163C7.20599 6.04163 4.68962 6.157 2.86602 6.27229C2.17544 6.31594 1.5837 6.35962 1.11458 6.39708C1.09751 6.52141 1.08269 6.64862 1.06976 6.77891C1.03556 7.12341 1.01381 7.49959 0.999969 7.91132C1.49163 7.87075 2.15808 7.82004 2.96066 7.7693C4.76207 7.65542 7.24569 7.54163 9.97584 7.54163C12.706 7.54163 15.1896 7.65542 16.991 7.7693C17.7935 7.82003 18.46 7.87074 18.9516 7.91131C18.9378 7.49958 18.916 7.1234 18.8818 6.77891C18.8689 6.64862 18.8541 6.5214 18.837 6.39707Z"
    fill="currentColor"
  />
  <path
    d="M7.24993 10.9956C7.24993 11.5019 6.83952 11.9123 6.33326 11.9123C5.827 11.9123 5.4166 11.5019 5.4166 10.9956C5.4166 10.4894 5.827 10.079 6.33326 10.079C6.83952 10.079 7.24993 10.4894 7.24993 10.9956Z"
    fill="currentColor"
  />
  <path
    d="M7.24993 14.6622C7.24993 15.1684 6.83952 15.5788 6.33326 15.5788C5.827 15.5788 5.4166 15.1684 5.4166 14.6622C5.4166 14.1559 5.827 13.7455 6.33326 13.7455C6.83952 13.7455 7.24993 14.1559 7.24993 14.6622Z"
    fill="currentColor"
  />
  <path
    d="M14.5833 10.9956C14.5833 11.5019 14.1729 11.9123 13.6666 11.9123C13.1604 11.9123 12.75 11.5019 12.75 10.9956C12.75 10.4894 13.1604 10.079 13.6666 10.079C14.1729 10.079 14.5833 10.4894 14.5833 10.9956Z"
    fill="currentColor"
  />
  <path
    d="M14.5833 14.6622C14.5833 15.1684 14.1729 15.5788 13.6666 15.5788C13.1604 15.5788 12.75 15.1684 12.75 14.6622C12.75 14.1559 13.1604 13.7455 13.6666 13.7455C14.1729 13.7455 14.5833 14.1559 14.5833 14.6622Z"
    fill="currentColor"
  />
  <path
    d="M10.9167 10.9956C10.9167 11.5019 10.5063 11.9123 10 11.9123C9.49375 11.9123 9.08334 11.5019 9.08334 10.9956C9.08334 10.4894 9.49375 10.079 10 10.079C10.5063 10.079 10.9167 10.4894 10.9167 10.9956Z"
    fill="currentColor"
  />
  <path
    d="M10.9167 14.6622C10.9167 15.1684 10.5063 15.5788 10 15.5788C9.49375 15.5788 9.08334 15.1684 9.08334 14.6622C9.08334 14.1559 9.49375 13.7455 10 13.7455C10.5063 13.7455 10.9167 14.1559 10.9167 14.6622Z"
    fill="currentColor"
  />
</svg>
