<svg width="20" height="20" viewBox="0 0 20 20" fill="currentcolor" xmlns="http://www.w3.org/2000/svg">
  <path d="M10.4992 1.91669H9.50074C7.99503 1.91668 6.80902 1.91667 5.86225 2.01066C4.89491 2.10669 4.0966 2.30665 3.39702 2.75951C2.77508 3.16212 2.2454 3.6918 1.8428 4.31374C1.38993 5.01332 1.18997 5.81163 1.09394 6.77897C0.999956 7.72574 0.999962 8.91175 0.99997 10.4175V10.4992C0.999962 12.005 0.999956 13.191 1.09394 14.1377C1.18997 15.1051 1.38993 15.9034 1.8428 16.603C2.2454 17.2249 2.77508 17.7546 3.39702 18.1572C4.0966 18.6101 4.89491 18.81 5.86225 18.906C6.80901 19 7.99501 19 9.5007 19H10.4992C12.0049 19 13.1909 19 14.1377 18.906C15.105 18.81 15.9033 18.6101 16.6029 18.1572C17.2249 17.7546 17.7545 17.2249 18.1571 16.603C18.61 15.9034 18.81 15.1051 18.906 14.1377C19 13.191 19 12.0049 19 10.4992V10.4175C19 8.91177 19 7.72574 18.906 6.77897C18.81 5.81163 18.61 5.01332 18.1571 4.31374C17.7545 3.6918 17.2249 3.16212 16.6029 2.75951C15.9033 2.30665 15.105 2.10669 14.1377 2.01066C13.1909 1.91667 12.0049 1.91668 10.4992 1.91669Z" fill="currentcolor" fill-opacity="0.2" />
  <path fill-rule="evenodd" d="M6.33334 0.999939C6.74756 0.999939 7.08334 1.33573 7.08334 1.74994V3.57904C7.08334 3.99325 6.74756 4.32904 6.33334 4.32904C5.91913 4.32904 5.58334 3.99325 5.58334 3.57904V1.74994C5.58334 1.33573 5.91913 0.999939 6.33334 0.999939Z" fill="currentcolor" />
  <path fill-rule="evenodd" d="M13.6666 0.999939C14.0808 0.999939 14.4166 1.33573 14.4166 1.74994V3.58327C14.4166 3.99749 14.0808 4.33327 13.6666 4.33327C13.2524 4.33327 12.9166 3.99749 12.9166 3.58327V1.74994C12.9166 1.33573 13.2524 0.999939 13.6666 0.999939Z" fill="currentcolor" />
  <path d="M18.837 6.39713C18.3679 6.35968 17.7762 6.316 17.0857 6.27235C15.2621 6.15706 12.7457 6.04169 9.97584 6.04169C7.20599 6.04169 4.68962 6.15706 2.86602 6.27235C2.17544 6.31601 1.5837 6.35968 1.11458 6.39714C1.09751 6.52147 1.08269 6.64868 1.06976 6.77897C1.03556 7.12347 1.01381 7.49965 0.999969 7.91138C1.49163 7.87081 2.15808 7.8201 2.96066 7.76936C4.76207 7.65548 7.24569 7.54169 9.97584 7.54169C12.706 7.54169 15.1896 7.65548 16.991 7.76936C17.7935 7.82009 18.46 7.8708 18.9516 7.91137C18.9378 7.49964 18.916 7.12347 18.8818 6.77897C18.8689 6.64868 18.8541 6.52146 18.837 6.39713Z" fill="currentcolor" />
  <path d="M7.24993 10.9957C7.24993 11.502 6.83952 11.9124 6.33326 11.9124C5.827 11.9124 5.4166 11.502 5.4166 10.9957C5.4166 10.4894 5.827 10.079 6.33326 10.079C6.83952 10.079 7.24993 10.4894 7.24993 10.9957Z" fill="currentcolor" />
  <path d="M7.24993 14.6622C7.24993 15.1685 6.83952 15.5789 6.33326 15.5789C5.827 15.5789 5.4166 15.1685 5.4166 14.6622C5.4166 14.156 5.827 13.7455 6.33326 13.7455C6.83952 13.7455 7.24993 14.156 7.24993 14.6622Z" fill="currentcolor" />
  <path d="M14.5833 10.9957C14.5833 11.502 14.1729 11.9124 13.6666 11.9124C13.1604 11.9124 12.75 11.502 12.75 10.9957C12.75 10.4894 13.1604 10.079 13.6666 10.079C14.1729 10.079 14.5833 10.4894 14.5833 10.9957Z" fill="currentcolor" />
  <path d="M14.5833 14.6622C14.5833 15.1685 14.1729 15.5789 13.6666 15.5789C13.1604 15.5789 12.75 15.1685 12.75 14.6622C12.75 14.156 13.1604 13.7455 13.6666 13.7455C14.1729 13.7455 14.5833 14.156 14.5833 14.6622Z" fill="currentcolor" />
  <path d="M10.9167 10.9957C10.9167 11.502 10.5063 11.9124 10 11.9124C9.49375 11.9124 9.08334 11.502 9.08334 10.9957C9.08334 10.4894 9.49375 10.079 10 10.079C10.5063 10.079 10.9167 10.4894 10.9167 10.9957Z" fill="currentcolor" />
  <path d="M10.9167 14.6622C10.9167 15.1685 10.5063 15.5789 10 15.5789C9.49375 15.5789 9.08334 15.1685 9.08334 14.6622C9.08334 14.156 9.49375 13.7455 10 13.7455C10.5063 13.7455 10.9167 14.156 10.9167 14.6622Z" fill="currentcolor" />
</svg>
