<svg
  xmlns="http://www.w3.org/2000/svg"
  width="20"
  height="20"
  viewBox="0 0 20 20"
  fill="none"
>
  <path
    d="M5.5833 1.62465C4.73977 1.73039 4.02822 1.93212 3.39705 2.33872C2.77511 2.73936 2.24543 3.26646 1.84283 3.88536C1.45034 4.48871 1.24781 5.16586 1.13828 5.96234C1.60966 5.92424 2.21187 5.87933 2.91958 5.83444C4.72848 5.71969 7.23003 5.60488 9.99993 5.60488C12.7699 5.60488 15.2509 5.7197 17.0395 5.83447C17.772 5.88147 18.3888 5.9285 18.8625 5.96771C18.7531 5.1689 18.5505 4.49006 18.1572 3.88536C17.7546 3.26646 17.2249 2.73936 16.6029 2.33872C15.9717 1.9321 15.2601 1.73037 14.4165 1.62463V3.15846C14.4165 3.57065 14.0808 3.9048 13.6665 3.9048C13.2523 3.9048 12.9165 3.57065 12.9165 3.15846V1.52123C12.2176 1.49999 11.4179 1.5 10.4992 1.5H9.50078C8.58201 1.5 7.78228 1.49999 7.0833 1.52124V3.15846C7.0833 3.57065 6.74751 3.9048 6.3333 3.9048C5.91908 3.9048 5.5833 3.57065 5.5833 3.15846V1.62465Z"
    fill="currentColor"
    fill-opacity="0.2"
  />
  <path
    d="M18.9761 7.47531C18.4887 7.43349 17.7959 7.37879 16.943 7.32406C15.1778 7.21079 12.73 7.09756 9.99993 7.09756C7.26983 7.09756 4.80124 7.21079 3.015 7.3241C2.19201 7.3763 1.51459 7.42848 1.02405 7.46949C0.999991 8.18484 0.999995 9.00795 1 9.95931V10.0407C0.999993 11.5391 0.999986 12.7193 1.09397 13.6614C1.19 14.6241 1.38996 15.4185 1.84283 16.1146C2.24543 16.7335 2.77511 17.2606 3.39705 17.6613C4.09663 18.1119 4.89494 18.3109 5.86228 18.4065C6.80904 18.5 7.99504 18.5 9.50073 18.5H10.4993C10.5029 18.5 10.5065 18.5 10.5101 18.5C10.4096 18.2446 10.3548 17.9663 10.3558 17.6752L10.3605 16.2231C10.363 15.4727 10.6637 14.7536 11.197 14.2229L14.6666 10.7702C15.7818 9.66044 17.59 9.66044 18.7052 10.7702L18.9987 11.0623C19 10.7392 19 10.399 19 10.0407V9.95935C19 9.01055 19 8.18931 18.9761 7.47531Z"
    fill="currentColor"
    fill-opacity="0.2"
  />
  <path
    d="M14.4629 18.3694C14.6735 18.3055 14.8673 18.1908 15.0258 18.033L18.4954 14.5803C19.0249 14.0535 19.0249 13.1992 18.4954 12.6724L17.6446 11.8257C17.1152 11.2988 16.2568 11.2988 15.7273 11.8257L12.2577 15.2784C12.0045 15.5303 11.8618 15.8717 11.8606 16.228L11.8558 17.6801C11.8545 18.0964 12.194 18.4343 12.6124 18.4329L13.8855 18.4288C13.9715 18.422 14.0555 18.4146 14.1378 18.4065C14.2483 18.3955 14.3567 18.3833 14.4629 18.3694Z"
    fill="currentColor"
  />
</svg>
