<svg width="20" height="20" viewBox="0 0 20 20" fill="currentcolor" xmlns="http://www.w3.org/2000/svg">
  <path d="M5.58338 1.62525V3.16659C5.58338 3.5808 5.91917 3.91659 6.33338 3.91659C6.7476 3.91659 7.08338 3.5808 7.08338 3.16659V1.52134C7.78234 1.49999 8.58203 1.5 9.50075 1.5H10.4992C11.418 1.5 12.2177 1.49999 12.9167 1.52134V3.16659C12.9167 3.5808 13.2525 3.91659 13.6667 3.91659C14.0809 3.91659 14.4167 3.5808 14.4167 3.16659V1.62526C15.2602 1.73152 15.9718 1.93424 16.6029 2.34283C17.2249 2.74543 17.7546 3.27512 18.1572 3.89705C18.5494 4.50288 18.7519 5.18276 18.8615 5.98232C18.3911 5.94443 17.7939 5.9 17.0944 5.85559C15.2785 5.7403 12.7699 5.62492 10 5.62492C7.2302 5.62492 4.71382 5.74029 2.89023 5.85558C2.19966 5.89924 1.60793 5.94291 1.1388 5.98037C1.24846 5.18165 1.45097 4.50239 1.84283 3.89705C2.24543 3.27512 2.77512 2.74543 3.39705 2.34283C4.02825 1.93423 4.73981 1.73151 5.58338 1.62525Z" fill="currentcolor" fill-opacity="0.2" />
  <path d="M1.02419 7.49461C0.999992 8.21442 0.999996 9.0429 1 10.0007V10.0826C0.999993 11.5883 0.999987 12.7743 1.09397 13.7211C1.19 14.6884 1.38996 15.4867 1.84283 16.1863C2.24543 16.8082 2.77512 17.3379 3.39705 17.7405C4.09663 18.1934 4.89495 18.3933 5.86228 18.4894C6.80904 18.5833 7.99504 18.5833 9.50073 18.5833H10.4993C11.1283 18.5833 11.7015 18.5833 12.2247 18.5765C10.8502 17.7071 9.9375 16.1737 9.9375 14.427C9.9375 11.7174 12.1341 9.52075 14.8437 9.52075C16.5903 9.52075 18.1238 10.4334 18.9932 11.8079C19 11.2846 19 10.7115 19 10.0825V10.0008C19 9.04387 19 8.21605 18.9759 7.49672C18.4847 7.4558 17.8125 7.40421 16.9994 7.35258C15.2059 7.23871 12.7302 7.12492 10 7.12492C7.2699 7.12492 4.78627 7.23871 2.98487 7.35259C2.1823 7.40333 1.51585 7.45404 1.02419 7.49461Z" fill="currentcolor" fill-opacity="0.2" />
  <path fill-rule="evenodd" d="M14.8438 11.0208C12.9625 11.0208 11.4375 12.5458 11.4375 14.427C11.4375 16.3082 12.9625 17.8333 14.8438 17.8333C16.725 17.8333 18.25 16.3082 18.25 14.427C18.25 12.5458 16.725 11.0208 14.8438 11.0208ZM15.0312 13.2239C15.0312 12.8097 14.6955 12.4739 14.2812 12.4739C13.867 12.4739 13.5312 12.8097 13.5312 13.2239V14.7239C13.5312 15.1381 13.867 15.4739 14.2812 15.4739H15.7812C16.1955 15.4739 16.5312 15.1381 16.5312 14.7239C16.5312 14.3097 16.1955 13.9739 15.7812 13.9739H15.0312V13.2239Z" fill="currentcolor" />
</svg>
