<svg width="20" height="20" viewBox="0 0 20 20" fill="currentcolor" xmlns="http://www.w3.org/2000/svg">
  <path d="M10.4992 1.91669H9.50078C7.99507 1.91668 6.80905 1.91667 5.86228 2.01066C4.89494 2.10669 4.09663 2.30665 3.39705 2.75951C2.77511 3.16212 2.24543 3.6918 1.84283 4.31374C1.38996 5.01332 1.19 5.81163 1.09397 6.77897C0.999987 7.72574 0.999993 8.91175 1 10.4175V10.4992C0.999993 12.005 0.999987 13.191 1.09397 14.1377C1.19 15.1051 1.38996 15.9034 1.84283 16.603C2.24543 17.2249 2.77511 17.7546 3.39705 18.1572C4.09663 18.6101 4.89494 18.81 5.86228 18.906C6.80904 19 7.99504 19 9.50073 19H10.4993C12.005 19 13.191 19 14.1377 18.906C15.1051 18.81 15.9034 18.6101 16.6029 18.1572C17.2249 17.7546 17.7546 17.2249 18.1572 16.603C18.61 15.9034 18.81 15.1051 18.906 14.1377C19 13.191 19 12.0049 19 10.4992V10.4175C19 8.91177 19 7.72574 18.906 6.77897C18.81 5.81163 18.61 5.01332 18.1572 4.31374C17.7546 3.6918 17.2249 3.16212 16.6029 2.75951C15.9034 2.30665 15.1051 2.10669 14.1377 2.01066C13.191 1.91667 12.0049 1.91668 10.4992 1.91669Z" fill="currentcolor" fill-opacity="0.2" />
  <path fill-rule="evenodd" d="M6.33337 0.999939C6.74759 0.999939 7.08337 1.33573 7.08337 1.74994V3.57904C7.08337 3.99325 6.74759 4.32904 6.33337 4.32904C5.91916 4.32904 5.58337 3.99325 5.58337 3.57904V1.74994C5.58337 1.33573 5.91916 0.999939 6.33337 0.999939Z" fill="currentcolor" />
  <path fill-rule="evenodd" d="M13.6666 0.999939C14.0808 0.999939 14.4166 1.33573 14.4166 1.74994V3.58327C14.4166 3.99749 14.0808 4.33327 13.6666 4.33327C13.2524 4.33327 12.9166 3.99749 12.9166 3.58327V1.74994C12.9166 1.33573 13.2524 0.999939 13.6666 0.999939Z" fill="currentcolor" />
  <path d="M18.837 6.39713C18.3679 6.35968 17.7762 6.316 17.0857 6.27235C15.2621 6.15706 12.7457 6.04169 9.97587 6.04169C7.20602 6.04169 4.68965 6.15706 2.86605 6.27235C2.17547 6.31601 1.58373 6.35968 1.11461 6.39714C1.09754 6.52147 1.08272 6.64868 1.06979 6.77897C1.03559 7.12347 1.01384 7.49965 1 7.91138C1.49166 7.87081 2.15811 7.8201 2.96069 7.76936C4.7621 7.65548 7.24572 7.54169 9.97587 7.54169C12.706 7.54169 15.1896 7.65548 16.9911 7.76936C17.7936 7.82009 18.46 7.8708 18.9516 7.91137C18.9378 7.49964 18.916 7.12347 18.8818 6.77897C18.8689 6.64868 18.8541 6.52146 18.837 6.39713Z" fill="currentcolor" />
</svg>
