<svg
  xmlns="http://www.w3.org/2000/svg"
  width="20"
  height="20"
  viewBox="0 0 20 20"
  fill="none"
>
  <path
    d="M10.4992 1.91675H9.50078C7.99507 1.91674 6.80905 1.91673 5.86228 2.01072C4.89494 2.10675 4.09663 2.30671 3.39705 2.75957C2.77511 3.16218 2.24543 3.69186 1.84283 4.3138C1.38996 5.01338 1.19 5.81169 1.09397 6.77903C0.999987 7.7258 0.999993 8.91181 1 10.4175V10.4993C0.999993 12.005 0.999987 13.191 1.09397 14.1378C1.19 15.1051 1.38996 15.9035 1.84283 16.603C2.24543 17.225 2.77511 17.7547 3.39705 18.1573C4.09663 18.6101 4.89494 18.8101 5.86228 18.9061C6.80904 19.0001 7.99504 19.0001 9.50073 19.0001H10.4993C12.005 19.0001 13.191 19.0001 14.1377 18.9061C15.1051 18.8101 15.9034 18.6101 16.6029 18.1573C17.2249 17.7547 17.7546 17.225 18.1572 16.603C18.61 15.9035 18.81 15.1051 18.906 14.1378C19 13.191 19 12.005 19 10.4993V10.4176C19 8.91183 19 7.7258 18.906 6.77903C18.81 5.81169 18.61 5.01338 18.1572 4.3138C17.7546 3.69186 17.2249 3.16218 16.6029 2.75957C15.9034 2.30671 15.1051 2.10675 14.1377 2.01072C13.191 1.91673 12.0049 1.91674 10.4992 1.91675Z"
    fill="currentColor"
    fill-opacity="0.2"
  />
  <path
    fill-rule="evenodd"
    clip-rule="evenodd"
    d="M6.33337 1C6.74759 1 7.08337 1.33579 7.08337 1.75V3.5791C7.08337 3.99332 6.74759 4.3291 6.33337 4.3291C5.91916 4.3291 5.58337 3.99332 5.58337 3.5791V1.75C5.58337 1.33579 5.91916 1 6.33337 1Z"
    fill="currentColor"
  />
  <path
    fill-rule="evenodd"
    clip-rule="evenodd"
    d="M13.6666 1C14.0808 1 14.4166 1.33579 14.4166 1.75V3.58333C14.4166 3.99755 14.0808 4.33333 13.6666 4.33333C13.2524 4.33333 12.9166 3.99755 12.9166 3.58333V1.75C12.9166 1.33579 13.2524 1 13.6666 1Z"
    fill="currentColor"
  />
  <path
    d="M18.837 6.3972C18.3679 6.35974 17.7762 6.31606 17.0857 6.27241C15.2621 6.15712 12.7457 6.04175 9.97587 6.04175C7.20602 6.04175 4.68965 6.15712 2.86605 6.27241C2.17547 6.31607 1.58373 6.35974 1.11461 6.3972C1.09754 6.52153 1.08272 6.64874 1.06979 6.77903C1.03559 7.12353 1.01384 7.49971 1 7.91144C1.49166 7.87087 2.15811 7.82016 2.96069 7.76942C4.7621 7.65554 7.24572 7.54175 9.97587 7.54175C12.706 7.54175 15.1896 7.65554 16.9911 7.76942C17.7936 7.82015 18.46 7.87086 18.9516 7.91143C18.9378 7.4997 18.916 7.12353 18.8818 6.77903C18.8689 6.64874 18.8541 6.52152 18.837 6.3972Z"
    fill="currentColor"
  />
</svg>
