<svg width="20" height="20" viewBox="0 0 20 20" fill="currentColor" xmlns="http://www.w3.org/2000/svg">
  <path d="M10.4992 1.91667H9.50074C7.99503 1.91666 6.80902 1.91666 5.86225 2.01064C4.89491 2.10667 4.0966 2.30663 3.39702 2.7595C2.77508 3.1621 2.2454 3.69179 1.8428 4.31372C1.38993 5.0133 1.18997 5.81162 1.09394 6.77895C0.999956 7.72572 0.999962 8.91174 0.99997 10.4174V10.4992C0.999962 12.0049 0.999956 13.191 1.09394 14.1377C1.18997 15.1051 1.38993 15.9034 1.8428 16.603C2.2454 17.2249 2.77508 17.7546 3.39702 18.1572C4.0966 18.61 4.89491 18.81 5.86225 18.906C6.80901 19 7.99501 19 9.5007 19H10.4992C12.0049 19 13.1909 19 14.1377 18.906C15.105 18.81 15.9033 18.61 16.6029 18.1572C17.2249 17.7546 17.7545 17.2249 18.1571 16.603C18.61 15.9034 18.81 15.1051 18.906 14.1377C19 13.1909 19 12.0049 19 10.4992V10.4175C19 8.91176 19 7.72573 18.906 6.77895C18.81 5.81162 18.61 5.0133 18.1571 4.31372C17.7545 3.69179 17.2249 3.1621 16.6029 2.7595C15.9033 2.30663 15.105 2.10667 14.1377 2.01064C13.1909 1.91666 12.0049 1.91666 10.4992 1.91667Z" fill="currentColor" fill-opacity="0.2" />
  <path fill-rule="evenodd" d="M6.33334 0.999924C6.74756 0.999924 7.08334 1.33571 7.08334 1.74992V3.57903C7.08334 3.99324 6.74756 4.32903 6.33334 4.32903C5.91913 4.32903 5.58334 3.99324 5.58334 3.57903V1.74992C5.58334 1.33571 5.91913 0.999924 6.33334 0.999924Z" fill="currentColor" />
  <path fill-rule="evenodd" d="M13.6666 0.999924C14.0808 0.999924 14.4166 1.33571 14.4166 1.74992V3.58326C14.4166 3.99747 14.0808 4.33326 13.6666 4.33326C13.2524 4.33326 12.9166 3.99747 12.9166 3.58326V1.74992C12.9166 1.33571 13.2524 0.999924 13.6666 0.999924Z" fill="currentColor" />
  <path d="M18.837 6.39712C18.3679 6.35966 17.7762 6.31599 17.0857 6.27233C15.2621 6.15705 12.7457 6.04167 9.97584 6.04167C7.20599 6.04167 4.68962 6.15705 2.86602 6.27233C2.17544 6.31599 1.5837 6.35967 1.11458 6.39713C1.09751 6.52145 1.08269 6.64867 1.06976 6.77895C1.03556 7.12345 1.01381 7.49963 0.999969 7.91136C1.49163 7.87079 2.15808 7.82008 2.96066 7.76934C4.76207 7.65546 7.24569 7.54167 9.97584 7.54167C12.706 7.54167 15.1896 7.65546 16.991 7.76934C17.7935 7.82008 18.46 7.87078 18.9516 7.91135C18.9378 7.49963 18.916 7.12345 18.8818 6.77895C18.8689 6.64866 18.8541 6.52145 18.837 6.39712Z" fill="currentColor" />
  <path d="M7.24993 10.9957C7.24993 11.502 6.83952 11.9124 6.33326 11.9124C5.827 11.9124 5.4166 11.502 5.4166 10.9957C5.4166 10.4894 5.827 10.079 6.33326 10.079C6.83952 10.079 7.24993 10.4894 7.24993 10.9957Z" fill="currentColor" />
  <path d="M7.24993 14.6622C7.24993 15.1685 6.83952 15.5789 6.33326 15.5789C5.827 15.5789 5.4166 15.1685 5.4166 14.6622C5.4166 14.1559 5.827 13.7455 6.33326 13.7455C6.83952 13.7455 7.24993 14.1559 7.24993 14.6622Z" fill="currentColor" />
  <path d="M14.5833 10.9957C14.5833 11.502 14.1729 11.9124 13.6666 11.9124C13.1604 11.9124 12.75 11.502 12.75 10.9957C12.75 10.4894 13.1604 10.079 13.6666 10.079C14.1729 10.079 14.5833 10.4894 14.5833 10.9957Z" fill="currentColor" />
  <path d="M14.5833 14.6622C14.5833 15.1685 14.1729 15.5789 13.6666 15.5789C13.1604 15.5789 12.75 15.1685 12.75 14.6622C12.75 14.1559 13.1604 13.7455 13.6666 13.7455C14.1729 13.7455 14.5833 14.1559 14.5833 14.6622Z" fill="currentColor" />
  <path d="M10.9167 10.9957C10.9167 11.502 10.5063 11.9124 10 11.9124C9.49375 11.9124 9.08334 11.502 9.08334 10.9957C9.08334 10.4894 9.49375 10.079 10 10.079C10.5063 10.079 10.9167 10.4894 10.9167 10.9957Z" fill="currentColor" />
  <path d="M10.9167 14.6622C10.9167 15.1685 10.5063 15.5789 10 15.5789C9.49375 15.5789 9.08334 15.1685 9.08334 14.6622C9.08334 14.1559 9.49375 13.7455 10 13.7455C10.5063 13.7455 10.9167 14.1559 10.9167 14.6622Z" fill="currentColor" />
</svg>
