<svg
  xmlns="http://www.w3.org/2000/svg"
  width="20"
  height="20"
  viewBox="0 0 20 20"
  fill="none"
>
  <path
    d="M20 10.8564V9.74828C20 9.13398 20 8.82683 19.9705 8.55624C19.7553 6.58605 18.3968 4.92889 16.507 4.33154C16.2475 4.2495 15.9463 4.18926 15.3439 4.06878C15.2973 4.05947 15.2741 4.05481 15.2515 4.04919C15.0906 4.00914 14.9422 3.92971 14.8196 3.81806C14.8024 3.80237 14.7856 3.78558 14.752 3.75199L14.691 3.69099C14.1802 3.18015 13.9247 2.92473 13.6389 2.72438C13.1596 2.38848 12.6125 2.16185 12.036 2.06047C11.6922 2 11.331 2 10.6086 2H9.39142C8.66898 2 8.30777 2 7.96396 2.06047C7.38755 2.16185 6.84041 2.38848 6.36114 2.72438C6.07527 2.92473 5.81985 3.18015 5.30901 3.69099L5.24801 3.75199L5.24799 3.75201C5.21442 3.78558 5.19762 3.80238 5.18041 3.81806C5.05784 3.92971 4.90943 4.00914 4.74854 4.04919C4.72594 4.05481 4.70265 4.05947 4.65608 4.06878L4.65608 4.06878L4.65607 4.06879C4.0537 4.18926 3.75251 4.2495 3.49298 4.33154C1.60323 4.92889 0.244696 6.58605 0.0295482 8.55624C0 8.82683 0 9.13398 0 9.74829V10.8564C0 12.852 0 13.8498 0.280783 14.652C0.783377 16.0877 1.91226 17.2166 3.34803 17.7192C4.15016 18 5.14798 18 7.14363 18H12.8564C14.852 18 15.8498 18 16.652 17.7192C18.0877 17.2166 19.2166 16.0877 19.7192 14.652C20 13.8498 20 12.852 20 10.8564Z"
    fill="currentColor"
    fill-opacity="0.2"
  />
  <path
    d="M10 8.25C8.48122 8.25 7.25 9.48122 7.25 11C7.25 12.5188 8.48122 13.75 10 13.75C11.5188 13.75 12.75 12.5188 12.75 11C12.75 9.48122 11.5188 8.25 10 8.25ZM6.75 11C6.75 9.20507 8.20507 7.75 10 7.75C11.7949 7.75 13.25 9.20507 13.25 11C13.25 12.7949 11.7949 14.25 10 14.25C8.20507 14.25 6.75 12.7949 6.75 11ZM15.5 8C15.5 8.27614 15.2761 8.5 15 8.5C14.7239 8.5 14.5 8.27614 14.5 8C14.5 7.72386 14.7239 7.5 15 7.5C15.2761 7.5 15.5 7.72386 15.5 8Z"
    stroke="currentColor"
  />
</svg>
