<svg
  xmlns="http://www.w3.org/2000/svg"
  width="20"
  height="20"
  viewBox="0 0 20 20"
  fill="none"
>
  <path
    fill-rule="evenodd"
    clip-rule="evenodd"
    d="M10 0C5.58311 0 2 3.57441 2 7.98675C2 12.3991 5.58311 15.9735 10 15.9735C14.4169 15.9735 18 12.3991 18 7.98675C18 3.57441 14.4169 0 10 0Z"
    fill="currentColor"
    fill-opacity="0.2"
  />
  <path
    d="M4.17884 15.4964C4.09517 15.6572 4.0198 15.8105 3.95348 15.9566C3.64993 16.6257 3.46133 17.3001 3.65287 17.9816C3.77336 18.4103 3.99553 18.8036 4.3005 19.1281C4.7853 19.6439 5.46021 19.8304 6.18987 19.9156C6.912 20 7.8537 20 9.01859 20L11.0209 20C12.1894 20 13.1347 20.0001 13.8596 19.9142C14.5931 19.8274 15.2705 19.6373 15.7556 19.1139C16.0427 18.804 16.2551 18.4325 16.3765 18.0279C16.5815 17.3443 16.4018 16.664 16.1046 15.9877C16.0326 15.8239 15.9495 15.6513 15.8562 15.4692C14.2413 16.7312 12.2079 17.4832 9.99999 17.4832C7.80799 17.4832 5.78802 16.7421 4.17884 15.4964Z"
    fill="currentColor"
  />
  <path
    d="M11.8113 7.98684C11.8113 8.98733 11.0004 9.79838 9.99998 9.79838C8.9996 9.79838 8.18864 8.98733 8.18864 7.98684C8.18864 6.98635 8.9996 6.17529 9.99998 6.17529C11.0004 6.17529 11.8113 6.98635 11.8113 7.98684Z"
    fill="currentColor"
  />
</svg>
