<svg
  xmlns="http://www.w3.org/2000/svg"
  width="20"
  height="22"
  viewBox="0 0 20 22"
  fill="none"
>
  <path
    d="M4.81547 3.16928C3.12179 4.62459 2.04907 6.78032 2.04907 9.18689C2.04907 13.5717 5.6102 17.1238 10 17.1238C11.7331 17.1238 13.337 16.5701 14.6436 15.6302L4.81547 3.16928Z"
    fill="currentColor"
    fill-opacity="0.2"
  />
  <path
    d="M15.7749 14.6424C17.1236 13.2203 17.9509 11.3003 17.9509 9.18689C17.9509 4.80209 14.3898 1.25 10 1.25C8.55911 1.25 7.20749 1.6327 6.04179 2.30193L15.7749 14.6424Z"
    fill="currentColor"
    fill-opacity="0.2"
  />
  <path
    d="M2.2294 1.09554C2.55473 0.839156 3.0263 0.895042 3.28269 1.22037L11.3143 11.4091L11.313 11.4099L17.8647 19.7233C18.1211 20.0487 18.0652 20.5202 17.7399 20.7766C17.4146 21.033 16.943 20.9771 16.6866 20.6518L16.0379 19.8286C15.9458 19.9765 15.8395 20.1159 15.7203 20.2445C15.2382 20.7646 14.5649 20.9536 13.8359 21.0399C13.1155 21.1252 12.176 21.1251 11.0147 21.1251H9.02463C7.86689 21.1251 6.93097 21.1252 6.21326 21.0413C5.48808 20.9565 4.81731 20.7712 4.33548 20.2586C4.03238 19.9362 3.81158 19.5453 3.69182 19.1193C3.50146 18.442 3.6889 17.7719 3.99059 17.107C4.0565 16.9617 4.13142 16.8094 4.21457 16.6497C5.81388 17.8875 7.82146 18.624 10 18.624C11.5412 18.624 12.9967 18.2554 14.2827 17.6015L9.64883 11.7216C8.42498 11.5343 7.48755 10.4771 7.48755 9.20087C7.48755 9.1299 7.49045 9.05961 7.49613 8.9901L2.10458 2.14883C1.84819 1.82351 1.90408 1.35193 2.2294 1.09554Z"
    fill="currentColor"
  />
  <path
    d="M12.588 9.20087C12.588 9.59122 12.5003 9.96109 12.3435 10.2918L9.51409 6.70446C9.68312 6.66918 9.85828 6.65063 10.0378 6.65063C11.4462 6.65063 12.588 7.79241 12.588 9.20087Z"
    fill="currentColor"
  />
</svg>
