<svg width="20" height="20" viewBox="0 0 20 20" fill="currentColor" xmlns="http://www.w3.org/2000/svg">
  <path d="M2.34945 2.33334C2.75837 2.33334 2.99936 2.33462 3.17342 2.35613C3.25268 2.36593 3.2929 2.37745 3.31137 2.38429C3.31977 2.3874 3.32368 2.38985 3.32392 2.38999C3.32412 2.39024 3.32649 2.39323 3.33061 2.40087C3.33976 2.41781 3.35618 2.45509 3.37529 2.53002C3.41724 2.69456 3.44599 2.92563 3.49254 3.31796L4.20245 9.30117C4.28704 10.0143 4.35794 10.612 4.47848 11.0848C4.60611 11.5854 4.80845 12.0303 5.21419 12.3798C5.27125 12.4289 5.32979 12.474 5.38974 12.5153C5.91321 13 6.69417 13 8.23269 13H13.9099C13.9287 13 13.9474 13 13.966 13H14.2621C14.9702 13 15.565 13 16.0447 12.9422C16.5533 12.8809 17.0162 12.7467 17.4146 12.4207C17.8131 12.0947 18.0263 11.6759 18.1725 11.2015C18.3105 10.754 18.4082 10.1874 18.5246 9.51293L18.6937 8.53314C18.8522 7.61474 18.9833 6.85535 18.9985 6.24888C19.0144 5.61282 18.9085 5.0231 18.4769 4.53109C18.0453 4.03907 17.4604 3.84128 16.8081 3.75187C16.1862 3.66662 15.389 3.66664 14.4248 3.66667L4.92362 3.66667L4.8599 3.1296C4.81922 2.78638 4.78157 2.46874 4.71592 2.21125C4.64326 1.92624 4.51749 1.63142 4.24267 1.3947C3.96784 1.15797 3.65023 1.07087 3.34874 1.03359C3.07637 0.999922 2.74531 0.999961 2.38758 1L1.69034 1.00001C1.30907 1.00001 1 1.29848 1 1.66667C1 2.03486 1.30907 2.33334 1.69034 2.33334H2.34945Z" fill="currentColor" fill-opacity="0.2" />
  <path d="M9 17C9 18.1046 8.10457 19 7 19C5.89543 19 5 18.1046 5 17C5 15.8954 5.89543 15 7 15C8.10457 15 9 15.8954 9 17Z" fill="currentColor" />
  <path d="M17 17C17 18.1046 16.1046 19 15 19C13.8954 19 13 18.1046 13 17C13 15.8954 13.8954 15 15 15C16.1046 15 17 15.8954 17 17Z" fill="currentColor" />
</svg>
