<svg width="20" height="20" viewBox="0 0 20 20" fill="currentColor" xmlns="http://www.w3.org/2000/svg">
  <path fill-rule="evenodd" d="M8.52286 1.66186C8.63968 2.06671 8.40619 2.48961 8.00134 2.60644C4.83815 3.51922 2.52592 6.43663 2.52592 9.89211C2.52592 14.0795 5.92045 17.474 10.1078 17.474C13.5633 17.474 16.4807 15.1618 17.3935 11.9986C17.5103 11.5938 17.9332 11.3603 18.3381 11.4771C18.7429 11.5939 18.9764 12.0168 18.8596 12.4217C17.7634 16.2205 14.2612 19 10.1078 19C5.07771 19 1 14.9222 1 9.89211C1 5.73874 3.77947 2.23653 7.57828 1.14034C7.98313 1.02351 8.40603 1.257 8.52286 1.66186Z" fill="currentColor" />
  <path d="M11.287 1.01743L11.261 1.01535C11.1479 1.00626 10.9903 0.993585 10.849 1.00378C10.6623 1.01725 10.4148 1.07405 10.1968 1.27549C9.9721 1.48312 9.89999 1.73445 9.87376 1.91482C9.85324 2.05593 9.85341 2.21689 9.85354 2.33739L9.85355 8.40133C9.85346 8.60999 9.85338 8.83562 9.87898 9.02607C9.90898 9.24919 9.98612 9.53422 10.226 9.77409C10.4659 10.014 10.7509 10.0911 10.974 10.1211C11.1645 10.1467 11.3901 10.1466 11.5987 10.1465L17.6627 10.1466C17.7832 10.1467 17.9441 10.1469 18.0853 10.1263C18.2656 10.1001 18.5169 10.028 18.7246 9.80328C18.926 9.58526 18.9828 9.3378 18.9963 9.15106C19.0065 9.00979 18.9938 8.85226 18.9847 8.73915L18.9826 8.7131C18.6581 4.61218 15.3879 1.34199 11.287 1.01743Z" fill="currentColor" fill-opacity="0.2" />
</svg>
