<svg
  xmlns="http://www.w3.org/2000/svg"
  width="20"
  height="20"
  viewBox="0 0 20 20"
  fill="none"
>
  <path
    fill-rule="evenodd"
    clip-rule="evenodd"
    d="M12.8199 1.5H7.18012C5.91773 1.49998 4.9002 1.49997 4.09992 1.60756C3.26905 1.71927 2.56948 1.95825 2.01386 2.51386C1.45825 3.06948 1.21927 3.76905 1.10756 4.59992C0.999967 5.4002 0.999982 6.41772 1 7.6801V13.3199C0.999982 14.5823 0.999967 15.5998 1.10756 16.4001C1.21927 17.2309 1.45825 17.9305 2.01386 18.4861C2.56948 19.0418 3.26905 19.2807 4.09992 19.3924C4.9002 19.5 5.91773 19.5 7.18012 19.5H12.8199C14.0823 19.5 15.0998 19.5 15.9001 19.3924C16.7309 19.2807 17.4305 19.0418 17.9861 18.4861C18.5418 17.9305 18.7807 17.2309 18.8924 16.4001C19 15.5998 19 14.5823 19 13.3199V7.68012C19 6.41773 19 5.4002 18.8924 4.59992C18.7807 3.76905 18.5418 3.06948 17.9861 2.51386C17.4305 1.95825 16.7309 1.71927 15.9001 1.60756C15.0998 1.49997 14.0823 1.49998 12.8199 1.5Z"
    fill="currentColor"
    fill-opacity="0.2"
  />
  <path
    fill-rule="evenodd"
    clip-rule="evenodd"
    d="M15.804 6.38451C15.9871 6.51201 16.104 6.71442 16.1228 6.93676L16.372 9.8819C16.407 10.2946 16.1007 10.6575 15.6879 10.6925C15.2752 10.7274 14.9123 10.4211 14.8774 10.0084L14.8091 9.20162L12.3143 12.9438C11.3981 14.3182 9.36264 14.2697 8.51282 12.8534L7.95184 11.9184C7.66856 11.4463 6.99009 11.4301 6.68468 11.8882L4.99948 14.416C4.76972 14.7607 4.30407 14.8538 3.95942 14.624C3.61477 14.3943 3.52164 13.9286 3.75141 13.584L5.4366 11.0562C6.35283 9.68184 8.38825 9.73028 9.23807 11.1466L9.79906 12.0816C10.0823 12.5537 10.7608 12.5699 11.0662 12.1118L13.6341 8.25996L12.7268 8.51098C12.3276 8.62143 11.9144 8.38734 11.804 7.98813C11.6935 7.58891 11.9276 7.17574 12.3268 7.06529L15.1755 6.27716C15.3905 6.21766 15.6209 6.25701 15.804 6.38451Z"
    fill="currentColor"
  />
</svg>
