<svg width="20" height="20" viewBox="0 0 20 20" fill="currentColor" xmlns="http://www.w3.org/2000/svg">
  <path fill-rule="evenodd" d="M12.8199 1H7.18012C5.91773 0.999982 4.9002 0.999967 4.09992 1.10756C3.26905 1.21927 2.56948 1.45825 2.01386 2.01386C1.45825 2.56948 1.21927 3.26905 1.10756 4.09992C0.999967 4.9002 0.999982 5.91772 1 7.1801V12.8199C0.999982 14.0823 0.999967 15.0998 1.10756 15.9001C1.21927 16.7309 1.45825 17.4305 2.01386 17.9861C2.56948 18.5418 3.26905 18.7807 4.09992 18.8924C4.9002 19 5.91773 19 7.18012 19H12.8199C14.0823 19 15.0998 19 15.9001 18.8924C16.7309 18.7807 17.4305 18.5418 17.9861 17.9861C18.5418 17.4305 18.7807 16.7309 18.8924 15.9001C19 15.0998 19 14.0823 19 12.8199V7.18012C19 5.91773 19 4.9002 18.8924 4.09992C18.7807 3.26905 18.5418 2.56948 17.9861 2.01386C17.4305 1.45825 16.7309 1.21927 15.9001 1.10756C15.0998 0.999967 14.0823 0.999982 12.8199 1Z" fill="currentColor" fill-opacity="0.2" />
  <path fill-rule="evenodd" d="M15.8041 14.1155C15.9872 13.988 16.1041 13.7856 16.1229 13.5632L16.3721 10.6181C16.4071 10.2054 16.1008 9.84246 15.6881 9.80753C15.2753 9.7726 14.9124 10.0789 14.8775 10.4916L14.8092 11.2984L12.3144 7.55618C11.3982 6.18183 9.36276 6.23027 8.51294 7.64664L7.95196 8.58161C7.66868 9.05373 6.99021 9.06988 6.6848 8.61176L4.99961 6.08397C4.76984 5.73932 4.30419 5.64619 3.95954 5.87596C3.6149 6.10572 3.52177 6.57137 3.75153 6.91602L5.43672 9.44381C6.35295 10.8182 8.38837 10.7697 9.2382 9.35335L9.79918 8.41838C10.0825 7.94626 10.7609 7.93011 11.0663 8.38823L13.6342 12.24L12.7269 11.989C12.3277 11.8786 11.9145 12.1127 11.8041 12.5119C11.6936 12.9111 11.9277 13.3243 12.3269 13.4347L15.1756 14.2228C15.3906 14.2823 15.621 14.243 15.8041 14.1155Z" fill="currentColor" />
</svg>
