<svg
  xmlns="http://www.w3.org/2000/svg"
  width="20"
  height="20"
  viewBox="0 0 20 20"
  fill="none"
>
  <path
    fill-rule="evenodd"
    clip-rule="evenodd"
    d="M7.18012 1H12.8199C14.0823 0.999981 15.0998 0.999966 15.9001 1.10756C16.7309 1.21927 17.4305 1.45825 17.9861 2.01386C18.5418 2.56948 18.7807 3.26905 18.8924 4.09992C19 4.9002 19 5.91773 19 7.18012V12.8199C19 14.0823 19 15.0998 18.8924 15.9001C18.7807 16.7309 18.5418 17.4305 17.9861 17.9861C17.4305 18.5418 16.7309 18.7807 15.9001 18.8924C15.0998 19 14.0823 19 12.8199 19H7.18012C5.91773 19 4.9002 19 4.09992 18.8924C3.26905 18.7807 2.56948 18.5418 2.01386 17.9861C1.45825 17.4305 1.21927 16.7309 1.10756 15.9001C0.999966 15.0998 0.999981 14.0823 1 12.8199V7.18012C0.999981 5.91773 0.999966 4.9002 1.10756 4.09992C1.21927 3.26905 1.45825 2.56948 2.01386 2.01386C2.56948 1.45825 3.26905 1.21927 4.09992 1.10756C4.9002 0.999966 5.91773 0.999981 7.18012 1Z"
    fill="currentColor"
    fill-opacity="0.2"
  />
  <path
    fill-rule="evenodd"
    clip-rule="evenodd"
    d="M16.444 5.89564C16.7778 6.14088 16.8496 6.6103 16.6044 6.94411L13.2865 11.4602C13.0633 11.764 12.8756 12.0194 12.7114 12.2164C12.5438 12.4175 12.3579 12.6113 12.124 12.7528C11.3548 13.2184 10.3823 13.1813 9.65079 12.6586C9.42832 12.4996 9.25779 12.2922 9.10594 12.0789C8.95718 11.87 8.78953 11.6011 8.59009 11.2811L8.57782 11.2614C8.34699 10.8911 8.19193 10.643 8.06383 10.4633C7.93463 10.2821 7.87481 10.2323 7.8552 10.2187C7.59848 10.0412 7.25862 10.0412 7.0019 10.2187C6.98229 10.2323 6.92247 10.2821 6.79328 10.4633C6.66517 10.643 6.51011 10.8911 6.27928 11.2614L4.63644 13.8968C4.41732 14.2483 3.95473 14.3556 3.60322 14.1365C3.25171 13.9174 3.14439 13.4548 3.36352 13.1033L5.01897 10.4477C5.23392 10.1028 5.41347 9.81481 5.5718 9.59267C5.73214 9.36772 5.91285 9.14815 6.14861 8.98507C6.91876 8.45237 7.93834 8.45237 8.70849 8.98507C8.94426 9.14815 9.12496 9.36772 9.2853 9.59267C9.44363 9.81481 9.62318 10.1028 9.83813 10.4477L9.85075 10.4679C10.0657 10.8127 10.2091 11.0421 10.3279 11.209C10.4467 11.3758 10.5025 11.4236 10.5229 11.4382C10.7668 11.6124 11.0909 11.6248 11.3473 11.4696C11.3688 11.4566 11.4281 11.4132 11.5592 11.2559C11.6904 11.0985 11.8508 10.8808 12.0914 10.5533L15.3956 6.05599C15.6408 5.72219 16.1102 5.65039 16.444 5.89564Z"
    fill="currentColor"
  />
</svg>
