<svg
  xmlns="http://www.w3.org/2000/svg"
  width="20"
  height="20"
  viewBox="0 0 20 20"
  fill="none"
>
  <path
    fill-rule="evenodd"
    clip-rule="evenodd"
    d="M10 1C5.02944 1 1 5.02944 1 10C1 14.9706 5.02944 19 10 19C14.9706 19 19 14.9706 19 10C19 5.02944 14.9706 1 10 1Z"
    fill="currentColor"
    fill-opacity="0.2"
  />
  <path
    d="M11.8318 6.95374C11.414 6.95374 11.0754 7.2924 11.0754 7.71016V12.2899C11.0754 12.7077 11.414 13.0463 11.8318 13.0463C12.2496 13.0463 12.5882 12.7077 12.5882 12.2899V7.71016C12.5882 7.2924 12.2496 6.95374 11.8318 6.95374Z"
    fill="currentColor"
  />
  <path
    d="M8.16805 6.95374C7.75028 6.95374 7.41162 7.2924 7.41162 7.71016V12.2899C7.41162 12.7077 7.75028 13.0463 8.16805 13.0463C8.58581 13.0463 8.92447 12.7077 8.92447 12.2899V7.71016C8.92447 7.2924 8.58581 6.95374 8.16805 6.95374Z"
    fill="currentColor"
  />
</svg>
