<svg width="20" height="20" viewBox="0 0 20 20" fill="currentColor" xmlns="http://www.w3.org/2000/svg">
  <path d="M10 1C5.02944 1 1 5.02944 1 10C1 14.9706 5.02944 19 10 19C14.9706 19 19 14.9706 19 10C19 5.02944 14.9706 1 10 1Z" fill="currentColor" fill-opacity="0.2" />
  <path d="M13.2349 7.55024C12.9015 7.29309 12.4229 7.35486 12.1657 7.6882L9.15078 11.5964L7.78546 10.1484C7.49664 9.84203 7.01419 9.82784 6.70786 10.1167C6.40154 10.4055 6.38735 10.8879 6.67617 11.1943L8.08436 12.6878C8.20123 12.8119 8.3376 12.9567 8.47093 13.0632C8.62979 13.1901 8.88712 13.3486 9.23666 13.3313C9.5862 13.314 9.82663 13.1309 9.97217 12.9889C10.0943 12.8697 10.2157 12.7122 10.3198 12.5772L13.3729 8.61944C13.63 8.2861 13.5682 7.8074 13.2349 7.55024Z" fill="currentColor" />
</svg>
