<svg
  xmlns="http://www.w3.org/2000/svg"
  width="20"
  height="20"
  viewBox="0 0 20 20"
  fill="none"
>
  <path
    d="M10 1C5.02944 1 1 5.02944 1 10C1 14.9706 5.02944 19 10 19C14.9706 19 19 14.9706 19 10C19 5.02944 14.9706 1 10 1Z"
    fill="currentColor"
    fill-opacity="0.2"
  />
  <path
    d="M7.9653 7.12908C7.64437 6.86163 7.1674 6.90499 6.89995 7.22593C6.63251 7.54686 6.67587 8.02384 6.9968 8.29128L9.04734 10.0001L6.9968 11.7088C6.67587 11.9763 6.63251 12.4533 6.89995 12.7742C7.1674 13.0951 7.64437 13.1385 7.9653 12.871L10.7132 10.5812C10.8856 10.4374 10.9853 10.2246 10.9853 10.0001C10.9853 9.77557 10.8856 9.56268 10.7132 9.41896L7.9653 7.12908Z"
    fill="currentColor"
  />
  <path
    d="M12.5188 6.95374C12.101 6.95374 11.7623 7.2924 11.7623 7.71016V12.2899C11.7623 12.7077 12.101 13.0463 12.5188 13.0463C12.9365 13.0463 13.2752 12.7077 13.2752 12.2899V7.71016C13.2752 7.2924 12.9365 6.95374 12.5188 6.95374Z"
    fill="currentColor"
  />
</svg>
