<svg
  xmlns="http://www.w3.org/2000/svg"
  width="20"
  height="20"
  viewBox="0 0 20 20"
  fill="none"
>
  <path
    d="M10 1C14.9706 1 19 5.02944 19 10C19 14.9706 14.9706 19 10 19C5.02944 19 1 14.9706 1 10C1 5.02944 5.02944 1 10 1Z"
    fill="currentColor"
    fill-opacity="0.2"
  />
  <path
    d="M12.0347 7.12902C12.3556 6.86157 12.8326 6.90493 13.1 7.22587C13.3675 7.5468 13.3241 8.02377 13.0032 8.29122L10.9527 10L13.0032 11.7088C13.3241 11.9762 13.3675 12.4532 13.1 12.7741C12.8326 13.0951 12.3556 13.1384 12.0347 12.871L9.28684 10.5811C9.11438 10.4374 9.01466 10.2245 9.01466 10C9.01466 9.77551 9.11438 9.56262 9.28684 9.4189L12.0347 7.12902Z"
    fill="currentColor"
  />
  <path
    d="M7.48124 6.95367C7.89901 6.95367 8.23767 7.29234 8.23767 7.7101V12.2899C8.23767 12.7076 7.89901 13.0463 7.48124 13.0463C7.06348 13.0463 6.72482 12.7076 6.72482 12.2899V7.7101C6.72482 7.29234 7.06348 6.95367 7.48124 6.95367Z"
    fill="currentColor"
  />
</svg>
