<svg width="20" height="20" viewBox="0 0 20 20" fill="currentColor" xmlns="http://www.w3.org/2000/svg">
  <path d="M10 1C5.02944 1 1 5.02944 1 10C1 14.9706 5.02944 19 10 19C14.9706 19 19 14.9706 19 10C19 5.02944 14.9706 1 10 1Z" fill="currentColor" fill-opacity="0.2" />
  <path d="M9.99998 6.62683C9.57897 6.62683 9.23768 6.96813 9.23768 7.38914V9.23768H7.38914C6.96813 9.23768 6.62683 9.57898 6.62683 9.99999C6.62683 10.421 6.96813 10.7623 7.38914 10.7623H9.23768V12.6108C9.23768 13.0319 9.57897 13.3732 9.99998 13.3732C10.421 13.3732 10.7623 13.0319 10.7623 12.6109V10.7623H12.6108C13.0319 10.7623 13.3732 10.421 13.3732 9.99999C13.3732 9.57898 13.0319 9.23768 12.6109 9.23768H10.7623V7.38914C10.7623 6.96813 10.421 6.62683 9.99998 6.62683Z" fill="currentColor" />
</svg>
