<svg width="20" height="20" viewBox="0 0 20 20" fill="currentcolor" xmlns="http://www.w3.org/2000/svg">
  <path fill-rule="evenodd" d="M10 1C5.02944 1 1 5.02944 1 10C1 14.9706 5.02944 19 10 19C14.9706 19 19 14.9706 19 10C19 5.02944 14.9706 1 10 1Z" fill="currentcolor" fill-opacity="0.2" />
  <path fill-rule="evenodd" d="M9.95443 6.53845C9.34073 6.53842 8.81191 6.53839 8.38846 6.59532C7.93464 6.65634 7.49963 6.79393 7.14679 7.14677C6.79395 7.49962 6.65635 7.93463 6.59534 8.38845C6.53841 8.81189 6.53844 9.34067 6.53847 9.95437V10.0456C6.53844 10.6593 6.53841 11.1881 6.59534 11.6115C6.65635 12.0654 6.79395 12.5004 7.14679 12.8532C7.49963 13.2061 7.93464 13.3436 8.38846 13.4047C8.81192 13.4616 9.34071 13.4616 9.95444 13.4615H10.0456C10.6593 13.4616 11.1881 13.4616 11.6116 13.4047C12.0654 13.3436 12.5004 13.2061 12.8532 12.8532C13.2061 12.5004 13.3437 12.0654 13.4047 11.6115C13.4616 11.1881 13.4616 10.6593 13.4615 10.0456V9.95442C13.4616 9.3407 13.4616 8.8119 13.4047 8.38845C13.3437 7.93463 13.2061 7.49962 12.8532 7.14677C12.5004 6.79393 12.0654 6.65634 11.6116 6.59532C11.1881 6.53839 10.6593 6.53842 10.0456 6.53845H9.95443Z" fill="currentcolor" />
</svg>
