<svg width="20" height="20" viewBox="0 0 20 20" fill="currentcolor" xmlns="http://www.w3.org/2000/svg">
  <path d="M10 1C14.9706 1 19 5.02944 19 10C19 14.9706 14.9706 19 10 19C5.02944 19 1 14.9706 1 10C1 5.02944 5.02944 1 10 1Z" fill="currentcolor" fill-opacity="0.2" />
  <path d="M12.0346 7.12896C12.3555 6.86151 12.8325 6.90487 13.0999 7.22581C13.3674 7.54674 13.324 8.02371 13.0031 8.29116L10.9525 9.99994L13.0031 11.7087C13.324 11.9762 13.3674 12.4531 13.0999 12.7741C12.8325 13.095 12.3555 13.1384 12.0346 12.8709L9.28672 10.581C9.11426 10.4373 9.01454 10.2244 9.01454 9.99994C9.01454 9.77545 9.11426 9.56255 9.28672 9.41884L12.0346 7.12896Z" fill="currentcolor" />
  <path d="M7.48112 6.95361C7.89888 6.95361 8.23755 7.29228 8.23755 7.71004V12.2898C8.23755 12.7076 7.89888 13.0462 7.48112 13.0462C7.06336 13.0462 6.7247 12.7076 6.7247 12.2898V7.71004C6.7247 7.29228 7.06336 6.95361 7.48112 6.95361Z" fill="currentcolor" />
</svg>
