<svg width="20" height="20" viewBox="0 0 20 20" fill="currentColor" xmlns="http://www.w3.org/2000/svg">
  <path d="M10 1C5.02944 1 1 5.02944 1 10C1 14.9706 5.02944 19 10 19C14.9706 19 19 14.9706 19 10C19 5.02944 14.9706 1 10 1Z" fill="currentColor" fill-opacity="0.2" />
  <path d="M12.3667 7.63323C12.0713 7.33783 11.5924 7.33783 11.297 7.63323L9.99995 8.93027L8.70292 7.63323C8.40752 7.33783 7.92857 7.33783 7.63317 7.63323C7.33777 7.92864 7.33777 8.40758 7.63317 8.70298L8.93021 10L7.63317 11.297C7.33777 11.5924 7.33777 12.0714 7.63317 12.3668C7.92857 12.6622 8.40752 12.6622 8.70292 12.3668L9.99995 11.0698L11.297 12.3668C11.5924 12.6622 12.0713 12.6622 12.3667 12.3668C12.6621 12.0714 12.6621 11.5924 12.3667 11.297L11.0697 10L12.3667 8.70298C12.6621 8.40758 12.6621 7.92864 12.3667 7.63323Z" fill="currentColor" />
</svg>
