<svg width="20" height="20" viewBox="0 0 20 20" fill="currentcolor" xmlns="http://www.w3.org/2000/svg">
  <path fill-rule="evenodd" d="M10 1C5.02944 1 1 5.02944 1 10C1 14.9706 5.02944 19 10 19C14.9706 19 19 14.9706 19 10C19 5.02944 14.9706 1 10 1Z" fill="currentcolor" fill-opacity="0.2" />
  <path fill-rule="evenodd" d="M11.2999 7.61464C10.7073 7.21953 10.1982 6.88011 9.7749 6.68017C9.33996 6.47475 8.79393 6.31828 8.2522 6.60821C7.71046 6.89814 7.53777 7.43925 7.46743 7.91509C7.39896 8.37825 7.399 8.99008 7.39904 9.70231V10.2976C7.399 11.0099 7.39896 11.6217 7.46743 12.0849C7.53777 12.5607 7.71046 13.1018 8.2522 13.3917C8.79393 13.6817 9.33996 13.5252 9.7749 13.3198C10.1982 13.1198 10.7073 12.7804 11.2999 12.3853L11.7523 12.0837C12.2368 11.7608 12.6634 11.4764 12.9622 11.2064C13.2798 10.9193 13.5811 10.5363 13.5811 9.99998C13.5811 9.46363 13.2798 9.08061 12.9622 8.79355C12.6634 8.52353 12.2368 8.23917 11.7523 7.91625L11.2999 7.61464Z" fill="currentcolor" />
</svg>
