<svg
  xmlns="http://www.w3.org/2000/svg"
  width="20"
  height="20"
  viewBox="0 0 20 20"
  fill="none"
>
  <path
    fill-rule="evenodd"
    clip-rule="evenodd"
    d="M10 1C5.02944 1 1 5.02944 1 10C1 14.9706 5.02944 19 10 19C14.9706 19 19 14.9706 19 10C19 5.02944 14.9706 1 10 1Z"
    fill="currentColor"
    fill-opacity="0.2"
  />
  <path
    fill-rule="evenodd"
    clip-rule="evenodd"
    d="M9.95442 6.53845C9.34072 6.53842 8.81189 6.53839 8.38845 6.59532C7.93463 6.65634 7.49962 6.79393 7.14677 7.14677C6.79393 7.49962 6.65634 7.93463 6.59532 8.38845C6.53839 8.81189 6.53842 9.34067 6.53845 9.95437V10.0456C6.53842 10.6593 6.53839 11.1881 6.59532 11.6115C6.65634 12.0654 6.79393 12.5004 7.14677 12.8532C7.49962 13.2061 7.93463 13.3436 8.38845 13.4047C8.8119 13.4616 9.3407 13.4616 9.95442 13.4615H10.0456C10.6593 13.4616 11.1881 13.4616 11.6115 13.4047C12.0654 13.3436 12.5004 13.2061 12.8532 12.8532C13.2061 12.5004 13.3436 12.0654 13.4047 11.6115C13.4616 11.1881 13.4616 10.6593 13.4615 10.0456V9.95442C13.4616 9.3407 13.4616 8.8119 13.4047 8.38845C13.3436 7.93463 13.2061 7.49962 12.8532 7.14677C12.5004 6.79393 12.0654 6.65634 11.6115 6.59532C11.1881 6.53839 10.6593 6.53842 10.0456 6.53845H9.95442Z"
    fill="currentColor"
  />
</svg>
