<svg width="20" height="20" viewBox="0 0 20 20" fill="currentcolor" xmlns="http://www.w3.org/2000/svg">
  <path d="M10 1C5.02944 1 1 5.02944 1 10C1 14.9706 5.02944 19 10 19C14.9706 19 19 14.9706 19 10C19 5.02944 14.9706 1 10 1Z" fill="currentcolor" fill-opacity="0.2" />
  <path fill-rule="evenodd" d="M10 5.625C10.4142 5.625 10.75 5.96079 10.75 6.375L10.75 10.375C10.75 10.7892 10.4142 11.125 10 11.125C9.58579 11.125 9.25 10.7892 9.25 10.375L9.25 6.375C9.25 5.96079 9.58579 5.625 10 5.625Z" fill="currentcolor" />
  <path d="M11 13.375C11 13.9273 10.5523 14.375 10 14.375C9.44772 14.375 9 13.9273 9 13.375C9 12.8227 9.44772 12.375 10 12.375C10.5523 12.375 11 12.8227 11 13.375Z" fill="currentcolor" />
</svg>
