<svg width="20" height="20" viewBox="0 0 20 20" fill="currentcolor" xmlns="http://www.w3.org/2000/svg">
  <path d="M7.69442 7.21069e-07H12.3056C12.5015 -1.04014e-05 12.6815 -2.06173e-05 12.8326 0.0104718C12.9951 0.0217467 13.1737 0.047433 13.3551 0.123919C13.7472 0.289142 14.0587 0.606054 14.2211 1.00494C14.2757 1.13906 14.3039 1.27164 14.3195 1.39748C14.7808 1.40367 15.1392 1.42708 15.4588 1.5142C16.6419 1.83676 17.5661 2.77705 17.8831 3.98085C18.0004 4.42612 18.0002 4.94533 18 5.70622L18 13.772C18 15.0441 18 16.0696 17.8934 16.876C17.7828 17.7134 17.5461 18.4184 16.9958 18.9783C16.4454 19.5382 15.7525 19.779 14.9296 19.8916C14.1369 20 13.1291 20 11.8787 20H8.12127C6.87091 20 5.86308 20 5.07043 19.8916C4.24748 19.779 3.55457 19.5382 3.00424 18.9783C2.45392 18.4184 2.21722 17.7134 2.10658 16.876C2.00001 16.0696 2.00003 15.0441 2.00004 13.772L2.00002 5.70623C1.99978 4.94533 1.99961 4.42612 2.11687 3.98086C2.4339 2.77705 3.35806 1.83676 4.54122 1.5142C4.86081 1.42707 5.21916 1.40367 5.68048 1.39747C5.69611 1.27163 5.72437 1.13906 5.77897 1.00494C5.94136 0.606054 6.25284 0.289142 6.64488 0.123919C6.82637 0.047433 7.00496 0.0217467 7.16738 0.0104718C7.31852 -2.06173e-05 7.49852 -1.04015e-05 7.69442 7.21069e-07Z" fill="currentcolor" fill-opacity="0.2" />
  <path fill-rule="evenodd" d="M7.04713 1.53614C7.07024 1.48141 7.11311 1.43779 7.1669 1.41427C7.17363 1.41254 7.1996 1.40686 7.2607 1.40262C7.35945 1.39576 7.49189 1.39539 7.71427 1.39539H12.2857C12.5081 1.39539 12.6405 1.39576 12.7393 1.40262C12.8004 1.40686 12.8263 1.41254 12.833 1.41427C12.8868 1.43779 12.9297 1.48141 12.9528 1.53614C12.9545 1.54298 12.9601 1.5694 12.9643 1.63157C12.971 1.73204 12.9714 1.8668 12.9714 2.09306C12.9714 2.31932 12.971 2.45408 12.9643 2.55455C12.9601 2.61672 12.9545 2.64314 12.9528 2.64998C12.9297 2.70471 12.8868 2.74833 12.833 2.77185C12.8263 2.77359 12.8004 2.77926 12.7393 2.7835C12.6405 2.79036 12.5081 2.79074 12.2857 2.79074H7.71427C7.49189 2.79074 7.35945 2.79036 7.2607 2.7835C7.1996 2.77926 7.17363 2.77359 7.1669 2.77185C7.11311 2.74833 7.07024 2.70471 7.04713 2.64998C7.04542 2.64314 7.03984 2.61672 7.03567 2.55455C7.02894 2.45408 7.02856 2.31932 7.02856 2.09306C7.02856 1.8668 7.02894 1.73204 7.03567 1.63157C7.03984 1.5694 7.04542 1.54298 7.04713 1.53614ZM6.07861 9.07627C6.07861 8.65638 6.41289 8.31393 6.82777 8.31393H13.1722C13.5871 8.31393 13.9214 8.65638 13.9214 9.07627C13.9214 9.49616 13.5871 9.83861 13.1722 9.83861H6.82777C6.41289 9.83861 6.07861 9.49616 6.07861 9.07627ZM6.07861 12.7713C6.07861 12.3515 6.41289 12.009 6.82777 12.009H13.1722C13.5871 12.009 13.9214 12.3515 13.9214 12.7713C13.9214 13.1912 13.5871 13.5337 13.1722 13.5337H6.82777C6.41289 13.5337 6.07861 13.1912 6.07861 12.7713Z" fill="currentcolor" />
</svg>
