<svg width="20" height="20" viewBox="0 0 20 20" fill="currentcolor" xmlns="http://www.w3.org/2000/svg">
  <path fill-rule="evenodd" d="M8.25011 6.44727H6.30265C5.265 6.44724 4.40999 6.44723 3.73333 6.5382C3.02318 6.63368 2.39697 6.8417 1.8957 7.34297C1.39444 7.84423 1.18641 8.47044 1.09093 9.18059C0.999961 9.85724 0.999979 10.7122 1 11.7499V13.6974C0.999979 14.735 0.999961 15.59 1.09093 16.2667C1.18641 16.9768 1.39444 17.603 1.8957 18.1043C2.39697 18.6056 3.02318 18.8136 3.73333 18.9091C4.41 19 5.265 19 6.30267 19H8.25009C9.28776 19 10.1428 19 10.8194 18.9091C11.5296 18.8136 12.1558 18.6056 12.6571 18.1043C13.1583 17.603 13.3664 16.9768 13.4618 16.2667C13.5528 15.59 13.5528 14.735 13.5528 13.6973V11.7499C13.5528 10.7123 13.5528 9.85725 13.4618 9.18059C13.3664 8.47044 13.1583 7.84423 12.6571 7.34297C12.1558 6.8417 11.5296 6.63368 10.8194 6.5382C10.1428 6.44723 9.28777 6.44724 8.25011 6.44727ZM3.9357 8.04337C4.49931 7.96759 5.25172 7.96598 6.35688 7.96598H8.19589C9.30105 7.96598 10.0535 7.96759 10.6171 8.04337C11.1588 8.1162 11.4111 8.24479 11.5832 8.41686C11.7552 8.58893 11.8838 8.84124 11.9567 9.38296C12.0324 9.94657 12.0341 10.699 12.0341 11.8041V13.6431C12.0341 14.7483 12.0324 15.5007 11.9567 16.0643C11.8838 16.606 11.7552 16.8583 11.5832 17.0304C11.4111 17.2025 11.1588 17.3311 10.6171 17.4039C10.0535 17.4797 9.30105 17.4813 8.19589 17.4813H6.35688C5.25172 17.4813 4.49931 17.4797 3.9357 17.4039C3.39398 17.3311 3.14167 17.2025 2.9696 17.0304C2.79753 16.8583 2.66894 16.606 2.59611 16.0643C2.52033 15.5007 2.51872 14.7483 2.51872 13.6431V11.8041C2.51872 10.699 2.52033 9.94657 2.59611 9.38296C2.66894 8.84124 2.79753 8.58893 2.9696 8.41686C3.14167 8.24479 3.39398 8.1162 3.9357 8.04337Z" fill="currentcolor" />
  <path fill-rule="evenodd" d="M11.8245 1H13.7622C14.8039 0.999978 15.6551 0.99996 16.3271 1.09031C17.0296 1.18475 17.6386 1.38914 18.1247 1.87528C18.6108 2.36141 18.8152 2.97043 18.9097 3.67289C19 4.34492 19 5.19613 19 6.23777V8.17551C19 9.21715 19 10.0684 18.9097 10.7404C18.8152 11.4428 18.6108 12.0519 18.1247 12.538C17.6386 13.0241 17.0296 13.2285 16.3271 13.323C15.6551 13.4133 14.8039 13.4133 13.7622 13.4133H11.8245C10.7828 13.4133 9.93161 13.4133 9.25958 13.323C8.55712 13.2285 7.9481 13.0241 7.46197 12.538C6.97583 12.0519 6.77144 11.4428 6.677 10.7404C6.58665 10.0684 6.58666 9.21715 6.58669 8.17551V6.23777C6.58666 5.19613 6.58665 4.34492 6.677 3.67289C6.77144 2.97043 6.97583 2.36141 7.46197 1.87528C7.9481 1.38914 8.55712 1.18475 9.25958 1.09031C9.93161 0.99996 10.7828 0.999978 11.8245 1Z" fill="currentcolor" fill-opacity="0.2" />
</svg>
