<svg
  xmlns="http://www.w3.org/2000/svg"
  width="20"
  height="20"
  viewBox="0 0 20 20"
  fill="none"
>
  <path
    d="M3.49941 5.8422C3.65003 4.39879 4.53184 3.22109 5.65694 2.40733C6.89137 1.51451 8.49043 1 10 1C11.8272 1 13.2758 1.60955 14.2626 2.66393C15.0965 3.55496 15.5521 4.71135 15.668 5.95644C17.1783 6.2897 19 7.64873 19 10.2625C19 11.1308 18.8902 11.8661 18.5671 12.537C18.2435 13.209 17.7393 13.7474 17.073 14.2785C16.9695 14.3611 16.8589 14.4395 16.7422 14.5141C16.8005 14.2445 16.8311 13.9649 16.8311 13.6782C16.8311 11.4704 15.0123 9.68063 12.7687 9.68063C11.5352 9.68063 10.5352 10.6646 10.5352 11.8784C10.5352 12.4112 10.7278 12.8997 11.0483 13.2801H1.9583C1.30051 12.4042 1 11.4079 1 10.2625C1 8.39523 2.00018 6.75892 3.49941 5.8422Z"
    fill="currentColor"
    fill-opacity="0.2"
  />
  <path
    fill-rule="evenodd"
    clip-rule="evenodd"
    d="M12.0239 11.8784C12.0239 11.4738 12.3572 11.1458 12.7684 11.1458C14.1897 11.1458 15.3418 12.2795 15.3418 13.6781C15.3418 15.0767 14.1897 16.2104 12.7684 16.2104H1.79479C1.38361 16.2104 1.05029 15.8824 1.05029 15.4778C1.05029 15.0732 1.38361 14.7452 1.79479 14.7452H12.7684C13.3673 14.7452 13.8529 14.2675 13.8529 13.6781C13.8529 13.0887 13.3673 12.611 12.7684 12.611C12.3572 12.611 12.0239 12.283 12.0239 11.8784Z"
    fill="currentColor"
  />
  <path
    fill-rule="evenodd"
    clip-rule="evenodd"
    d="M1.05029 18.2673C1.05029 17.8627 1.38361 17.5347 1.79479 17.5347H18.2552C18.6664 17.5347 18.9997 17.8627 18.9997 18.2673C18.9997 18.6719 18.6664 18.9999 18.2552 18.9999H1.79479C1.38361 18.9999 1.05029 18.6719 1.05029 18.2673Z"
    fill="currentColor"
  />
</svg>
