<svg width="20" height="20" viewBox="0 0 20 20" fill="currentColor" xmlns="http://www.w3.org/2000/svg">
  <path d="M9.83258 2C8.00657 2 6.37894 2.48491 5.28687 3.7791C4.66431 4.51688 4.25773 5.46857 4.06763 6.63743C3.11166 6.7797 2.28566 7.15123 1.62529 7.73683C0.535565 8.70317 0 10.1612 0 11.8255C0 14.0241 0.642821 15.6105 1.79294 16.6325C2.92483 17.6383 4.44012 18 6 18C6.0744 18 6.14848 17.9986 6.22223 17.9958V18H15.3214L15.3333 18L15.5556 18V17.9968C16.6709 17.9637 17.7623 17.6751 18.5974 16.9333C19.5063 16.1261 20 14.8834 20 13.2C20 11.9374 19.63 10.7139 18.8053 9.86363C18.1803 9.21916 17.3445 8.84101 16.3414 8.79259C16.547 6.95522 16.0932 5.28907 15.0109 4.05501C13.8532 2.73475 12.0566 2 9.83258 2Z" fill="currentColor" fill-opacity="0.2" />
  <path d="M9.54262 14.1362C9.67445 14.2513 9.84692 14.321 10.0357 14.321C10.2545 14.321 10.4514 14.2273 10.5885 14.0779L12.5442 12.016C12.8293 11.7155 12.8167 11.2408 12.5162 10.9557C12.2157 10.6707 11.741 10.6832 11.4559 10.9837L10.7856 11.6904L10.7856 8.49999C10.7856 8.08578 10.4498 7.74999 10.0356 7.75C9.62136 7.75001 9.28558 8.0858 9.28559 8.50001L9.28564 11.7379L8.5349 10.9741C8.24455 10.6787 7.76969 10.6746 7.47428 10.9649C7.17886 11.2553 7.17475 11.7301 7.4651 12.0256L9.50068 14.0967C9.51066 14.1068 9.5209 14.1166 9.53139 14.1262C9.5351 14.1295 9.53884 14.1329 9.54262 14.1362Z" fill="currentColor" />
</svg>
