<svg
  xmlns="http://www.w3.org/2000/svg"
  width="20"
  height="20"
  viewBox="0 0 20 20"
  fill="none"
>
  <path
    d="M5.17827 3.51418C3.92497 4.39264 2.94657 5.66317 2.78505 7.21858C1.1151 8.20156 0 9.9636 0 11.9751C0 13.6957 0.650453 15.1017 2.12529 16.2805C2.97092 16.9563 4.23846 17.3727 5.58002 17.6279C6.94621 17.8879 8.49642 18 10 18C11.5074 18 13.0578 17.8781 14.4228 17.6136C15.7636 17.3537 17.0236 16.9381 17.8645 16.2885C18.6051 15.7164 19.163 15.1383 19.5207 14.4185C19.8779 13.6997 20 12.9107 20 11.9751C20 9.155 17.9621 7.69729 16.2871 7.34967C16.1623 6.00099 15.6563 4.7494 14.7269 3.78712C13.6343 2.65572 12.029 2 10 2C8.32434 2 6.54865 2.55366 5.17827 3.51418Z"
    fill="currentColor"
    fill-opacity="0.2"
  />
</svg>
