<svg
  xmlns="http://www.w3.org/2000/svg"
  width="20"
  height="20"
  viewBox="0 0 20 20"
  fill="none"
>
  <path
    d="M9.83258 2C8.00657 2 6.37894 2.48491 5.28687 3.7791C4.66431 4.51688 4.25773 5.46857 4.06763 6.63743C3.11166 6.77971 2.28566 7.15123 1.62529 7.73683C0.535565 8.70317 0 10.1612 0 11.8255C0 14.0241 0.642821 15.6105 1.79294 16.6325C2.92483 17.6383 4.44012 18 6 18C6.07438 18 6.14844 17.9986 6.22217 17.9958V18H15.3207L15.3333 18L15.3496 18H15.5555V17.9968C16.6708 17.9637 17.7622 17.6751 18.5974 16.9333C19.5063 16.1261 20 14.8834 20 13.2C20 11.9374 19.63 10.7139 18.8053 9.86363C18.1803 9.21916 17.3445 8.84101 16.3414 8.79259C16.547 6.95522 16.0932 5.28907 15.0109 4.05501C13.8532 2.73475 12.0566 2 9.83258 2Z"
    fill="currentColor"
    fill-opacity="0.2"
  />
  <path
    d="M13.2349 8.80036C12.9015 8.54321 12.4229 8.60498 12.1657 8.93833L9.15078 12.8465L7.78546 11.3985C7.49664 11.0922 7.01419 11.078 6.70786 11.3668C6.40154 11.6556 6.38735 12.1381 6.67617 12.4444L8.08438 13.938C8.20125 14.062 8.33761 14.2068 8.47093 14.3133C8.62979 14.4403 8.88712 14.5987 9.23666 14.5814C9.58621 14.5641 9.82663 14.381 9.97217 14.239C10.0943 14.1199 10.2157 13.9623 10.3198 13.8273L13.3729 9.86957C13.63 9.53622 13.5682 9.05752 13.2349 8.80036Z"
    fill="currentColor"
  />
</svg>
