<svg
  xmlns="http://www.w3.org/2000/svg"
  width="20"
  height="20"
  viewBox="0 0 20 20"
  fill="none"
>
  <path
    d="M3.50654 5.92771C3.65192 4.45899 4.53247 3.25928 5.66044 2.42978C6.89379 1.5228 8.49191 1 10 1C11.8261 1 13.2708 1.61918 14.2542 2.68751C15.0907 3.59615 15.5461 4.77799 15.6584 6.05149C17.1659 6.37973 19 7.75619 19 10.4191C19 11.3026 18.8901 12.0476 18.5687 12.7263C18.2467 13.406 17.7446 13.9519 17.078 14.4921C16.6918 14.8051 16.2074 15.0606 15.6651 15.2684C15.5544 14.0963 14.568 13.1792 13.3675 13.1792C12.665 13.1792 12.0359 13.4933 11.6126 13.9886C11.1893 13.4933 10.5601 13.1792 9.8576 13.1792C9.15512 13.1792 8.52593 13.4933 8.10263 13.9887C7.67932 13.4933 7.05014 13.1792 6.34765 13.1792C5.18062 13.1792 4.21591 14.0459 4.06133 15.171C3.62615 14.9815 3.23535 14.755 2.91276 14.4845C1.58541 13.3715 1 12.0438 1 10.4191C1 8.51973 2.00359 6.8559 3.50654 5.92771Z"
    fill="currentColor"
    fill-opacity="0.2"
  />
  <path
    d="M7.22502 15.4883C7.22502 15.9732 6.83215 16.3662 6.34753 16.3662C5.86291 16.3662 5.47005 15.9732 5.47005 15.4883C5.47005 15.0034 5.86291 14.6104 6.34753 14.6104C6.83215 14.6104 7.22502 15.0034 7.22502 15.4883Z"
    fill="currentColor"
  />
  <path
    d="M10.735 15.4883C10.735 15.9732 10.3421 16.3662 9.85748 16.3662C9.37286 16.3662 8.98 15.9732 8.98 15.4883C8.98 15.0034 9.37286 14.6104 9.85748 14.6104C10.3421 14.6104 10.735 15.0034 10.735 15.4883Z"
    fill="currentColor"
  />
  <path
    d="M14.2449 15.4883C14.2449 15.9732 13.852 16.3662 13.3674 16.3662C12.8828 16.3662 12.4899 15.9732 12.4899 15.4883C12.4899 15.0034 12.8828 14.6104 13.3674 14.6104C13.852 14.6104 14.2449 15.0034 14.2449 15.4883Z"
    fill="currentColor"
  />
  <path
    d="M6.34774 18.122C6.34774 18.6068 5.95488 18.9999 5.47026 18.9999C4.98564 18.9999 4.59277 18.6068 4.59277 18.122C4.59277 17.6371 4.98564 17.244 5.47026 17.244C5.95488 17.244 6.34774 17.6371 6.34774 18.122Z"
    fill="currentColor"
  />
  <path
    d="M9.85766 18.122C9.85766 18.6068 9.4648 18.9999 8.98018 18.9999C8.49556 18.9999 8.10269 18.6068 8.10269 18.122C8.10269 17.6371 8.49556 17.244 8.98018 17.244C9.4648 17.244 9.85766 17.6371 9.85766 18.122Z"
    fill="currentColor"
  />
  <path
    d="M13.3676 18.122C13.3676 18.6068 12.9747 18.9999 12.4901 18.9999C12.0055 18.9999 11.6126 18.6068 11.6126 18.122C11.6126 17.6371 12.0055 17.244 12.4901 17.244C12.9747 17.244 13.3676 17.6371 13.3676 18.122Z"
    fill="currentColor"
  />
</svg>
