<svg width="20" height="20" viewBox="0 0 20 20" fill="currentcolor" xmlns="http://www.w3.org/2000/svg">
  <path d="M9.83258 2C8.00657 2 6.37894 2.48491 5.28687 3.7791C4.66431 4.51688 4.25773 5.46857 4.06763 6.63743C3.11166 6.7797 2.28566 7.15123 1.62529 7.73683C0.535565 8.70317 0 10.1612 0 11.8255C0 14.0241 0.642821 15.6105 1.79294 16.6325C2.92483 17.6383 4.44012 18 6 18C6.0744 18 6.14848 17.9986 6.22223 17.9958V18H15.3214L15.3333 18L15.5556 18V17.9968C16.6709 17.9637 17.7623 17.6751 18.5974 16.9333C19.5063 16.1261 20 14.8834 20 13.2C20 11.9374 19.63 10.7139 18.8053 9.86363C18.1803 9.21916 17.3445 8.84101 16.3414 8.79259C16.547 6.95522 16.0932 5.28907 15.0109 4.05501C13.8532 2.73475 12.0566 2 9.83258 2Z" fill="currentcolor" fill-opacity="0.2" />
  <path d="M9.54262 7.81385C9.67445 7.69875 9.84692 7.62903 10.0357 7.62903C10.2545 7.62903 10.4514 7.72272 10.5885 7.87215L12.5442 9.93399C12.8293 10.2345 12.8167 10.7092 12.5162 10.9943C12.2157 11.2793 11.741 11.2668 11.4559 10.9663L10.7856 10.2596L10.7856 13.45C10.7856 13.8642 10.4498 14.2 10.0356 14.2C9.62136 14.2 9.28558 13.8642 9.28559 13.45L9.28564 10.2121L8.5349 10.9759C8.24455 11.2713 7.76969 11.2754 7.47428 10.9851C7.17886 10.6947 7.17475 10.2199 7.4651 9.92447L9.50068 7.85337C9.51066 7.84321 9.5209 7.83338 9.53139 7.82386C9.5351 7.82049 9.53884 7.81715 9.54262 7.81385Z" fill="currentcolor" />
</svg>
