<svg
  xmlns="http://www.w3.org/2000/svg"
  width="20"
  height="20"
  viewBox="0 0 20 20"
  fill="none"
>
  <path
    d="M5.66044 2.41375C4.53247 3.23395 3.65192 4.42021 3.50654 5.87246C2.00359 6.79024 1 8.43541 1 10.3135C1 11.92 1.58541 13.2328 2.91276 14.3333C3.2963 14.6513 3.77628 14.9078 4.31261 15.1145C4.42057 14.8568 4.56402 14.6677 4.63726 14.5758C4.8402 14.3211 5.13461 14.0443 5.39051 13.8037L8.10291 11.2503C8.39611 10.974 8.71372 10.6748 8.99861 10.4709C9.24336 10.2957 9.98118 9.8026 10.8747 10.1646C11.8314 10.5521 11.9509 11.4849 11.9755 11.7956C12.0017 12.1269 11.9748 12.536 11.949 12.9037C12.3001 12.9039 12.6718 12.9072 12.9727 12.9461C13.2337 12.9798 14.125 13.1094 14.5209 13.983C14.7949 14.5876 14.6467 15.1171 14.4612 15.4724C15.4845 15.2274 16.4227 14.866 17.078 14.3408C17.7446 13.8066 18.2467 13.2669 18.5687 12.5948C18.8901 11.9237 19 11.1871 19 10.3135C19 7.68044 17.1659 6.31941 15.6584 5.99485C15.5461 4.73563 15.0907 3.56705 14.2542 2.66859C13.2708 1.61223 11.8261 1 10 1C8.49191 1 6.89379 1.51693 5.66044 2.41375Z"
    fill="currentColor"
    fill-opacity="0.2"
  />
  <path
    d="M10.4745 13.4815L10.5134 12.9236C10.5756 12.0313 10.6067 11.5852 10.3324 11.4741C10.058 11.3629 9.71731 11.6837 9.03595 12.3251L6.42769 14.7804C5.82217 15.3505 5.5194 15.6355 5.63058 15.8758C5.74176 16.1161 6.17638 16.1161 7.04561 16.1161H7.47418C7.92891 16.1161 8.15627 16.1161 8.28484 16.2492C8.41341 16.3824 8.38521 16.5886 8.32881 17.001L8.26961 17.4339C8.1404 18.3788 8.07579 18.8513 8.35205 18.9748C8.6283 19.0983 8.99662 18.7616 9.73326 18.0883L12.3868 15.6628C13.0125 15.0908 13.3254 14.8048 13.2153 14.5618C13.1052 14.3188 12.6627 14.3188 11.7778 14.3188H11.334C10.9038 14.3188 10.6886 14.3188 10.561 14.1945C10.4334 14.0702 10.4471 13.874 10.4745 13.4815Z"
    fill="currentColor"
  />
</svg>
