<svg
  xmlns="http://www.w3.org/2000/svg"
  width="20"
  height="20"
  viewBox="0 0 20 20"
  fill="none"
>
  <path
    d="M8.82023 8.6521C7.81293 8.6521 6.87735 8.90517 6.11767 9.45868C5.53619 9.88236 5.08986 10.4589 4.79581 11.1652C3.59501 10.9486 2.65365 11.2777 1.99778 11.9174C1.27566 12.6217 1 13.6076 1 14.2877C1 15.5897 1.60964 16.7982 2.9102 17.7041C3.64762 18.2177 4.74183 18.5293 5.89391 18.7204C7.07094 18.9155 8.40774 18.9999 9.70553 18.9999C11.0063 18.9999 12.3433 18.9082 13.5193 18.7095C14.6714 18.515 15.7588 18.2037 16.4912 17.7107C17.1307 17.2801 17.6353 16.8314 17.9653 16.2526C18.3003 15.665 18.4111 15.0223 18.4111 14.2877C18.4111 12.9733 17.6075 11.5343 16.4657 10.729C15.8787 10.315 15.1643 10.0408 14.3817 10.0658C13.8668 10.0822 13.3543 10.2272 12.8608 10.5085C12.4983 9.91915 12.0296 9.48245 11.4595 9.1825C10.6683 8.76619 9.75331 8.6521 8.82023 8.6521Z"
    fill="currentColor"
    fill-opacity="0.2"
  />
  <path
    fill-rule="evenodd"
    clip-rule="evenodd"
    d="M9.56389 3.8973C8.90127 4.91351 8.75786 6.12144 9.0716 7.21471C9.1842 7.60708 8.95799 8.0166 8.56635 8.12941C8.17471 8.24221 7.76594 8.01559 7.65334 7.62322C7.2269 6.13727 7.41988 4.4821 8.32843 3.08874C8.55277 2.74469 8.80979 2.43354 9.09308 2.15706C9.10217 2.14818 9.11139 2.13917 9.12071 2.13006C9.25814 1.99573 9.41946 1.83805 9.57333 1.73035C9.7557 1.60269 10.095 1.42708 10.5093 1.57038C10.966 1.72833 11.107 2.14592 11.1576 2.32911C11.2113 2.52331 11.2447 2.77281 11.2766 3.01114C11.2784 3.02439 11.2802 3.03761 11.2819 3.05079C11.4347 4.18906 12.0658 5.26031 13.1086 5.94276C14.1514 6.62521 15.3841 6.7738 16.4859 6.45661C16.4987 6.45294 16.5115 6.44925 16.5243 6.44555C16.755 6.37906 16.9965 6.30945 17.1955 6.28066C17.3833 6.2535 17.8217 6.21507 18.1495 6.5706C18.447 6.89314 18.4228 7.27495 18.3794 7.49356C18.3428 7.678 18.2635 7.88935 18.1959 8.06939C18.1913 8.08161 18.1868 8.09369 18.1823 8.1056C18.0434 8.47659 17.8623 8.8374 17.638 9.18145C17.5015 9.39066 17.353 9.58777 17.1938 9.77234C16.9273 10.0812 16.4613 10.1152 16.153 9.84823C15.8447 9.58127 15.8108 9.11446 16.0773 8.80558C16.1935 8.67087 16.3023 8.5266 16.4025 8.37289C16.494 8.23252 16.5755 8.08875 16.6472 7.94236C15.2124 8.28492 13.6391 8.05587 12.3015 7.1805C10.964 6.30514 10.1225 4.95378 9.85909 3.49982C9.75409 3.62441 9.65542 3.75694 9.56389 3.8973Z"
    fill="currentColor"
  />
</svg>
