<svg width="20" height="20" viewBox="0 0 20 20" fill="currentcolor" xmlns="http://www.w3.org/2000/svg">
  <path fill-rule="evenodd" d="M11.9515 5.26573C11.2417 5.28516 10.6042 5.58622 10.1325 6.06499C9.84052 6.36129 9.37327 6.35493 9.08884 6.05079C8.80441 5.74665 8.81051 5.2599 9.10247 4.96359C9.82973 4.2255 10.8172 3.75859 11.9127 3.7286C14.2236 3.66534 16.1462 5.56559 16.2069 7.97292C16.2176 8.39738 15.896 8.75052 15.4885 8.76168C15.0811 8.77283 14.7421 8.43777 14.7314 8.01331C14.6921 6.45491 13.4475 5.22478 11.9515 5.26573Z" fill="currentcolor" />
  <path fill-rule="evenodd" d="M18.9998 7.65524C19.0077 8.07978 18.6837 8.43058 18.2762 8.43879L17.5868 8.45267C17.1792 8.46088 16.8425 8.12337 16.8346 7.69884C16.8267 7.27431 17.1507 6.9235 17.5582 6.9153L18.2476 6.90141C18.6552 6.89321 18.9919 7.23071 18.9998 7.65524Z" fill="currentcolor" />
  <path fill-rule="evenodd" d="M11.9885 3.25569C11.581 3.2639 11.2442 2.9264 11.2364 2.50186L11.223 1.78369C11.2152 1.35916 11.5391 1.00835 11.9467 1.00015C12.3542 0.99194 12.6909 1.32944 12.6988 1.75397L12.7121 2.47215C12.72 2.89668 12.396 3.24749 11.9885 3.25569Z" fill="currentcolor" />
  <path fill-rule="evenodd" d="M15.3877 4.5276C15.0939 4.23321 15.0849 3.7465 15.3675 3.44051L15.8455 2.92287C16.1281 2.61688 16.5953 2.60747 16.8891 2.90186C17.1828 3.19625 17.1918 3.68295 16.9092 3.98894L16.4312 4.50658C16.1486 4.81258 15.6814 4.82199 15.3877 4.5276Z" fill="currentcolor" />
  <path fill-rule="evenodd" d="M7.07092 3.09945C7.35352 2.79346 7.82072 2.78405 8.11446 3.07844L8.61136 3.57645C8.90509 3.87084 8.91412 4.35754 8.63153 4.66354C8.34893 4.96953 7.88173 4.97894 7.58799 4.68455L7.09109 4.18654C6.79736 3.89215 6.78833 3.40545 7.07092 3.09945Z" fill="currentcolor" />
  <path d="M8.56304 6.71021C7.54679 6.71021 6.30389 7.04746 5.29645 7.73407C4.40804 8.33956 3.64406 9.2645 3.46202 10.5141C1.91938 11.1222 1 12.442 1 13.8526C1 15.3611 1.59799 16.5743 2.88389 17.5666C3.6203 18.1349 4.71423 18.48 5.86392 18.6912C7.03813 18.9069 8.37083 19 9.66384 19C10.96 19 12.2929 18.8988 13.4661 18.6792C14.6156 18.4641 15.7026 18.1196 16.4341 17.574C17.0726 17.0978 17.5701 16.6054 17.8934 15.9773C18.2193 15.3439 18.3277 14.6516 18.3277 13.8526C18.3277 12.4349 17.594 11.0367 16.4622 10.2386C15.5333 9.58358 14.3486 9.34189 13.1148 9.77784C12.8618 8.85987 12.309 8.15529 11.6261 7.66099C10.709 6.99709 9.56366 6.71021 8.56304 6.71021Z" fill="currentcolor" fill-opacity="0.2" />
</svg>
