<svg width="20" height="20" viewBox="0 0 20 20" fill="currentColor" xmlns="http://www.w3.org/2000/svg">
  <path d="M10 1C5.02944 1 1 5.02944 1 10C1 14.9706 5.02944 19 10 19C14.9706 19 19 14.9706 19 10C19 5.02944 14.9706 1 10 1Z" fill="currentColor" fill-opacity="0.2" />
  <path fill-rule="evenodd" d="M14.125 8.21875C14.5392 8.21875 14.875 8.55454 14.875 8.96875C14.875 9.38296 14.5392 9.71875 14.125 9.71875L11.0312 9.71875C10.617 9.71875 10.2812 9.38296 10.2812 8.96875L10.2813 5.875C10.2813 5.46079 10.617 5.125 11.0313 5.125C11.4455 5.125 11.7813 5.46079 11.7813 5.875L11.7812 7.15809L13.5947 5.34467C13.8876 5.05178 14.3624 5.05178 14.6553 5.34467C14.9482 5.63756 14.9482 6.11244 14.6553 6.40533L12.8419 8.21875H14.125Z" fill="currentColor" />
  <path fill-rule="evenodd" d="M5.875 11.7813C5.46079 11.7813 5.125 11.4455 5.125 11.0313C5.125 10.617 5.46079 10.2813 5.875 10.2813H8.96875C9.38296 10.2813 9.71875 10.617 9.71875 11.0313V14.125C9.71875 14.5392 9.38296 14.875 8.96875 14.875C8.55454 14.875 8.21875 14.5392 8.21875 14.125V12.8419L6.40533 14.6553C6.11244 14.9482 5.63756 14.9482 5.34467 14.6553C5.05178 14.3624 5.05178 13.8876 5.34467 13.5947L7.15809 11.7813H5.875Z" fill="currentColor" />
</svg>
