<svg
  xmlns="http://www.w3.org/2000/svg"
  width="20"
  height="20"
  viewBox="0 0 20 20"
  fill="none"
>
  <path
    fill-rule="evenodd"
    clip-rule="evenodd"
    d="M9.96367 1H10.0366C11.524 0.999995 12.69 0.99999 13.6245 1.0826C14.5765 1.16677 15.3597 1.34112 16.0597 1.73315C16.9849 2.2513 17.7488 3.01521 18.267 3.94043C18.659 4.64044 18.8334 5.42359 18.9175 6.37561C19.0001 7.31008 19.0001 8.47613 19.0001 9.96349V10.0365C19.0001 11.5239 19.0001 12.6899 18.9175 13.6244C18.8334 14.5764 18.659 15.3596 18.267 16.0596C17.7488 16.9848 16.9849 17.7487 16.0597 18.2669C15.3597 18.6589 14.5765 18.8332 13.6245 18.9174C12.69 19 11.524 19 10.0366 19H9.54179C9.12757 19 8.79179 18.6642 8.79179 18.25C8.79179 17.8358 9.12757 17.5 9.54179 17.5H10.0001C11.5318 17.5 12.6317 17.4993 13.4924 17.4232C14.3432 17.348 14.8884 17.2036 15.3268 16.9581C16.0106 16.5751 16.5753 16.0105 16.9582 15.3266C17.2037 14.8883 17.3481 14.3431 17.4233 13.4923C17.4994 12.6316 17.5001 11.5317 17.5001 10C17.5001 8.46831 17.4994 7.36843 17.4233 6.5077C17.3481 5.65688 17.2037 5.11172 16.9582 4.67336C16.5753 3.9895 16.0106 3.42487 15.3268 3.04189C14.8884 2.7964 14.3432 2.65199 13.4924 2.57678C12.6317 2.50068 11.5318 2.5 10.0001 2.5C8.46843 2.5 7.36855 2.50068 6.50782 2.57678C5.657 2.65199 5.11184 2.7964 4.67348 3.04189C3.98962 3.42487 3.42499 3.9895 3.04201 4.67336C2.79652 5.11172 2.65212 5.65688 2.5769 6.5077C2.50081 7.36843 2.50012 8.46831 2.50012 10V10.4583C2.50012 10.8725 2.16434 11.2083 1.75012 11.2083C1.33591 11.2083 1.00012 10.8725 1.00012 10.4583L1.00012 9.96355C1.00012 8.47617 1.00011 7.3101 1.08273 6.37561C1.16689 5.42359 1.34124 4.64044 1.73327 3.94043C2.25142 3.01521 3.01533 2.2513 3.94055 1.73315C4.64056 1.34112 5.42372 1.16677 6.37573 1.0826C7.31022 0.99999 8.47629 0.999995 9.96367 1Z"
    fill="currentColor"
    fill-opacity="0.2"
  />
  <path
    d="M9.5614 10.6082C9.49619 10.5611 9.43886 10.5038 9.39176 10.4386C9.37412 10.4142 9.35813 10.389 9.34379 10.3631C9.28411 10.2555 9.25012 10.1317 9.25012 9.99988V6.33321C9.25012 5.919 9.58591 5.58321 10.0001 5.58321C10.4143 5.58321 10.7501 5.919 10.7501 6.33321V8.18922L14.0532 4.88617C14.3461 4.59328 14.8209 4.59328 15.1138 4.88617C15.4067 5.17907 15.4067 5.65394 15.1138 5.94683L11.8108 9.24988L13.6668 9.24988C14.081 9.24988 14.4168 9.58567 14.4168 9.99988C14.4168 10.4141 14.081 10.7499 13.6668 10.7499L10.0001 10.7499C9.83631 10.7499 9.68476 10.6974 9.5614 10.6082Z"
    fill="currentColor"
  />
  <path
    d="M4.53063 11.9999H4.46962C4.00543 11.9999 3.61108 11.9999 3.28782 12.027C2.94835 12.0556 2.6198 12.118 2.3077 12.2825C1.87051 12.513 1.51323 12.8703 1.28278 13.3075C1.11827 13.6196 1.05582 13.9481 1.02728 14.2876C1.0001 14.6108 1.00011 15.0052 1.00012 15.4694V15.5304C1.00011 15.9946 1.0001 16.3889 1.02728 16.7122C1.05582 17.0517 1.11827 17.3802 1.28278 17.6923C1.51323 18.1295 1.87051 18.4868 2.3077 18.7172C2.6198 18.8817 2.94835 18.9442 3.28782 18.9727C3.61108 18.9999 4.0054 18.9999 4.46959 18.9999H4.53064C4.99483 18.9999 5.38917 18.9999 5.71243 18.9727C6.0519 18.9442 6.38044 18.8817 6.69255 18.7172C7.12974 18.4868 7.48702 18.1295 7.71746 17.6923C7.88198 17.3802 7.94443 17.0517 7.97297 16.7122C8.00015 16.3889 8.00014 15.9946 8.00012 15.5304V15.4694C8.00014 15.0052 8.00015 14.6108 7.97297 14.2876C7.94443 13.9481 7.88198 13.6196 7.71746 13.3075C7.48702 12.8703 7.12974 12.513 6.69255 12.2825C6.38044 12.118 6.0519 12.0556 5.71243 12.027C5.38917 11.9999 4.99482 11.9999 4.53063 11.9999Z"
    fill="currentColor"
  />
</svg>
