<svg
  xmlns="http://www.w3.org/2000/svg"
  width="20"
  height="20"
  viewBox="0 0 20 20"
  fill="none"
>
  <path
    fill-rule="evenodd"
    clip-rule="evenodd"
    d="M10.9633 1H9.03667C7.55729 0.999992 6.39207 0.999986 5.4649 1.09822C4.51701 1.19866 3.73851 1.408 3.06653 1.88097C2.60345 2.2069 2.20068 2.61177 1.87643 3.07725C1.40591 3.75273 1.19765 4.53527 1.09773 5.48809C1 6.42008 1.00001 7.59135 1.00002 9.07843L1.00001 11.2929C0.999875 12.2881 0.999792 12.9066 1.11819 13.4356C1.52917 15.2719 2.95573 16.7059 4.78248 17.119C5.30876 17.238 5.92413 17.2379 6.91415 17.2378L7.01654 17.2378C7.27879 17.2378 7.34964 17.2391 7.41181 17.247C7.65952 17.2786 7.89034 17.3901 8.06963 17.5648C8.11462 17.6086 8.15992 17.6635 8.32372 17.8693L8.42847 18.0009C8.56425 18.1715 8.68654 18.3252 8.79614 18.4457C8.91134 18.5724 9.05075 18.7065 9.23299 18.8053C9.71172 19.0649 10.2883 19.0649 10.767 18.8053C10.9493 18.7064 11.0887 18.5724 11.2039 18.4457C11.3135 18.3252 11.4357 18.1716 11.5715 18.001L11.6763 17.8693C11.8401 17.6635 11.8854 17.6086 11.9304 17.5648C12.1097 17.3901 12.3405 17.2786 12.5882 17.247C12.6504 17.2391 12.7212 17.2378 12.9835 17.2378L13.0859 17.2378C14.0759 17.2379 14.6912 17.238 15.2175 17.119C17.0443 16.7059 18.4708 15.2719 18.8818 13.4356C19.0002 12.9066 19.0001 12.2881 19 11.2929L19 9.0784C19 7.59134 19 6.42007 18.9023 5.48809C18.8023 4.53527 18.5941 3.75273 18.1236 3.07725C17.7993 2.61177 17.3965 2.2069 16.9335 1.88097C16.2615 1.408 15.483 1.19866 14.5351 1.09822C13.6079 0.999986 12.4427 0.999992 10.9633 1Z"
    fill="currentColor"
    fill-opacity="0.2"
  />
  <path
    d="M6.31165 10.5849C6.8644 10.5849 7.3125 10.1362 7.3125 9.5828C7.3125 9.02935 6.8644 8.58069 6.31165 8.58069C5.75889 8.58069 5.31079 9.02935 5.31079 9.5828C5.31079 10.1362 5.75889 10.5849 6.31165 10.5849Z"
    fill="currentColor"
  />
  <path
    d="M9.99988 10.5849C10.5526 10.5849 11.0007 10.1362 11.0007 9.5828C11.0007 9.02935 10.5526 8.58069 9.99988 8.58069C9.44712 8.58069 8.99902 9.02935 8.99902 9.5828C8.99902 10.1362 9.44712 10.5849 9.99988 10.5849Z"
    fill="currentColor"
  />
  <path
    d="M13.6923 10.5849C14.245 10.5849 14.6931 10.1362 14.6931 9.5828C14.6931 9.02935 14.245 8.58069 13.6923 8.58069C13.1395 8.58069 12.6914 9.02935 12.6914 9.5828C12.6914 10.1362 13.1395 10.5849 13.6923 10.5849Z"
    fill="currentColor"
  />
</svg>
