<svg width="20" height="20" viewBox="0 0 20 20" fill="currentcolor" xmlns="http://www.w3.org/2000/svg">
  <path fill-rule="evenodd" d="M10 1C5.07278 1 1 4.90905 1 9.82904C1 11.8117 1.66655 13.6392 2.78481 15.108C2.97686 15.3602 3.05199 15.5828 3.04014 15.7596C2.99212 16.4767 2.75103 17.1842 2.14218 17.8171C1.97001 17.9961 1.91144 18.263 1.99171 18.5029C2.07199 18.7428 2.27676 18.9128 2.51781 18.9397C4.34215 19.1431 5.95038 18.7981 6.90387 18.4104C7.15368 18.3088 7.40112 18.287 7.6085 18.3429C8.37087 18.5485 9.17294 18.6581 10 18.6581C14.9272 18.6581 19 14.749 19 9.82904C19 4.90905 14.9272 1 10 1Z" fill="currentcolor" fill-opacity="0.2" />
  <path d="M7 10C7 10.5523 6.55228 11 6 11C5.44772 11 5 10.5523 5 10C5 9.44772 5.44772 9 6 9C6.55228 9 7 9.44772 7 10Z" fill="currentcolor" />
  <path d="M11 10C11 10.5523 10.5523 11 10 11C9.44772 11 9 10.5523 9 10C9 9.44772 9.44772 9 10 9C10.5523 9 11 9.44772 11 10Z" fill="currentcolor" />
  <path d="M14 11C14.5523 11 15 10.5523 15 10C15 9.44772 14.5523 9 14 9C13.4477 9 13 9.44772 13 10C13 10.5523 13.4477 11 14 11Z" fill="currentcolor" />
</svg>
