<svg width="20" height="20" viewBox="0 0 20 20" fill="currentColor" xmlns="http://www.w3.org/2000/svg">
  <path d="M10 1C5.07278 1 1 4.90903 1 9.829C1 11.8117 1.66655 13.6391 2.78481 15.1079C2.97686 15.3602 3.05199 15.5827 3.04014 15.7595C2.99212 16.4767 2.75103 17.1841 2.14218 17.817C1.97001 17.996 1.91144 18.2629 1.99171 18.5028C2.07199 18.7427 2.27676 18.9127 2.51781 18.9396C4.34215 19.143 5.95038 18.7981 6.90387 18.4103C7.15368 18.3087 7.40112 18.2869 7.6085 18.3428C8.37087 18.5485 9.17294 18.658 10 18.658C14.9272 18.658 19 14.749 19 9.829C19 4.90903 14.9272 1 10 1Z" fill="currentColor" fill-opacity="0.2" />
</svg>
