<svg
  xmlns="http://www.w3.org/2000/svg"
  width="20"
  height="20"
  viewBox="0 0 20 20"
  fill="none"
>
  <path
    fill-rule="evenodd"
    clip-rule="evenodd"
    d="M10 1C5.07278 1 1 4.90904 1 9.82904C1 11.8117 1.66655 13.6392 2.78481 15.108C2.97686 15.3602 3.05199 15.5828 3.04014 15.7596C2.99212 16.4767 2.75103 17.1842 2.14218 17.8171C1.97001 17.9961 1.91144 18.263 1.99171 18.5029C2.07199 18.7428 2.27676 18.9128 2.51781 18.9397C4.34215 19.1431 5.95038 18.7981 6.90387 18.4104C7.15368 18.3088 7.40112 18.287 7.6085 18.3429C8.37087 18.5485 9.17294 18.6581 10 18.6581C14.9272 18.6581 19 14.749 19 9.82904C19 4.90904 14.9272 1 10 1Z"
    fill="currentColor"
    fill-opacity="0.2"
  />
  <path
    d="M6.6769 8.09125C6.29135 8.09125 5.98438 8.41806 5.98438 8.81416C5.98438 9.21026 6.29135 9.53708 6.6769 9.53708H13.3229C13.7084 9.53708 14.0154 9.21026 14.0154 8.81416C14.0154 8.41806 13.7084 8.09125 13.3229 8.09125H6.6769Z"
    fill="currentColor"
  />
  <path
    d="M6.6769 10.705C6.29135 10.705 5.98438 11.0318 5.98438 11.4279C5.98438 11.824 6.29135 12.1508 6.6769 12.1508H10.8306C11.2162 12.1508 11.5232 11.824 11.5232 11.4279C11.5232 11.0318 11.2162 10.705 10.8306 10.705H6.6769Z"
    fill="currentColor"
  />
</svg>
