<svg width="20" height="20" viewBox="0 0 20 20" fill="currentColor" xmlns="http://www.w3.org/2000/svg">
  <path d="M10 1C5.02944 1 1 5.02944 1 10C1 14.9706 5.02944 19 10 19C14.9706 19 19 14.9706 19 10C19 5.02944 14.9706 1 10 1Z" fill="currentColor" fill-opacity="0.2" />
  <path d="M7.89081 9.40734C8.04991 9.16868 8.12946 9.04936 8.23743 8.95789C8.34539 8.86643 8.47618 8.80758 8.73774 8.68988L12.4255 7.03039C13.5099 6.54239 14.0522 6.29839 14.2915 6.488C14.3436 6.5293 14.3871 6.58054 14.4192 6.63876C14.5669 6.90603 14.2371 7.40076 13.5774 8.39022L12.109 10.5929C11.9499 10.8315 11.8703 10.9509 11.7624 11.0423C11.6544 11.1338 11.5236 11.1926 11.2621 11.3104L7.81864 12.8599C6.5271 13.4411 5.88133 13.7317 5.63694 13.4432C5.39256 13.1547 5.78536 12.5655 6.57098 11.3871L7.89081 9.40734Z" fill="currentColor" />
</svg>
