<svg
  xmlns="http://www.w3.org/2000/svg"
  width="20"
  height="20"
  viewBox="0 0 20 20"
  fill="none"
>
  <path
    fill-rule="evenodd"
    clip-rule="evenodd"
    d="M19.989 11.087L19.9895 11.0774C19.9903 11.0592 19.9914 11.0333 19.9925 11.0001C19.9949 10.9337 19.9975 10.8384 19.9989 10.7181C20.0018 10.4778 19.9999 10.1371 19.981 9.72919C19.9434 8.91704 19.838 7.82101 19.5617 6.71441C19.2873 5.61583 18.8311 4.45141 18.0561 3.55053C17.2606 2.62565 16.1442 2 14.646 2C13.5857 2 12.8785 2.38939 12.2823 2.71763C12.2422 2.73969 12.2026 2.76147 12.1635 2.78284C11.5637 3.11038 10.9894 3.39532 9.99996 3.39532C9.01058 3.39532 8.43629 3.11038 7.83647 2.78285C7.79734 2.76148 7.75777 2.7397 7.71771 2.71764C7.12153 2.38939 6.41427 2 5.35396 2C3.85578 2 2.73943 2.62565 1.94385 3.55053C1.16893 4.45141 0.712679 5.61583 0.438331 6.71441C0.161979 7.82101 0.0565592 8.91704 0.0190009 9.72919C0.000135733 10.1371 -0.00179345 10.4778 0.00106443 10.7181C0.00249448 10.8384 0.00512627 10.9337 0.0074581 11.0001C0.00862429 11.0333 0.00971627 11.0592 0.010547 11.0774L0.0110081 11.087C0.0144351 13.8179 0.825369 16.1139 2.13055 17.2523C2.80725 17.8426 3.64963 18.1405 4.54672 17.9353C5.41786 17.736 6.20026 17.0935 6.86133 16.1101C7.4141 15.2879 7.89345 14.9342 8.33156 14.7606C8.7947 14.577 9.29237 14.5579 10 14.5579C10.7079 14.5579 11.2198 14.577 11.6905 14.7615C12.1327 14.9349 12.6082 15.2857 13.1309 16.0984L13.1347 16.1043L13.1387 16.1101C13.7997 17.0935 14.5821 17.736 15.4533 17.9353C16.3504 18.1405 17.1928 17.8426 17.8695 17.2523C19.1746 16.1139 19.9856 13.8179 19.989 11.087Z"
    fill="currentColor"
    fill-opacity="0.2"
  />
  <path
    fill-rule="evenodd"
    clip-rule="evenodd"
    d="M5.35391 6.65096C5.7388 6.65096 6.05081 6.96331 6.05081 7.34862L6.05081 10.1393C6.05081 10.5246 5.7388 10.8369 5.35391 10.8369C4.96901 10.8369 4.657 10.5246 4.657 10.1393L4.657 7.34862C4.657 6.96331 4.96901 6.65096 5.35391 6.65096Z"
    fill="currentColor"
  />
  <path
    fill-rule="evenodd"
    clip-rule="evenodd"
    d="M7.44463 8.74394C7.44463 9.12925 7.13261 9.4416 6.74772 9.4416L3.96009 9.4416C3.5752 9.4416 3.26318 9.12925 3.26318 8.74394C3.26318 8.35863 3.5752 8.04628 3.96009 8.04628L6.74772 8.04628C7.13261 8.04628 7.44463 8.35863 7.44463 8.74394Z"
    fill="currentColor"
  />
  <path
    d="M13.531 8.79916C13.531 9.26153 13.1565 9.63635 12.6947 9.63635C12.2328 9.63635 11.8584 9.26153 11.8584 8.79916C11.8584 8.33679 12.2328 7.96197 12.6947 7.96197C13.1565 7.96197 13.531 8.33679 13.531 8.79916Z"
    fill="currentColor"
  />
  <path
    d="M15.2035 7.12479C15.2035 7.58716 14.8291 7.96198 14.3672 7.96198C13.9054 7.96198 13.5309 7.58716 13.5309 7.12479C13.5309 6.66242 13.9054 6.2876 14.3672 6.2876C14.8291 6.2876 15.2035 6.66242 15.2035 7.12479Z"
    fill="currentColor"
  />
  <path
    d="M16.8761 8.79916C16.8761 9.26153 16.5017 9.63635 16.0398 9.63635C15.5779 9.63635 15.2035 9.26153 15.2035 8.79916C15.2035 8.33679 15.5779 7.96197 16.0398 7.96197C16.5017 7.96197 16.8761 8.33679 16.8761 8.79916Z"
    fill="currentColor"
  />
  <path
    d="M15.2035 10.4735C15.2035 10.9359 14.8291 11.3107 14.3672 11.3107C13.9054 11.3107 13.5309 10.9359 13.5309 10.4735C13.5309 10.0112 13.9054 9.63634 14.3672 9.63634C14.8291 9.63634 15.2035 10.0112 15.2035 10.4735Z"
    fill="currentColor"
  />
</svg>
