<svg width="20" height="20" viewBox="0 0 20 20" fill="currentColor" xmlns="http://www.w3.org/2000/svg">
  <path fill-rule="evenodd" d="M7.33182 1H7.22094C5.96755 0.999982 4.95017 0.999967 4.14836 1.10777C3.31301 1.22008 2.59895 1.46177 2.03036 2.03036C1.46177 2.59895 1.22008 3.313 1.10777 4.14836C0.999967 4.95016 0.999982 5.96752 1 7.22091V8.25131C0.999982 9.5047 0.999967 10.5221 1.10777 11.3239C1.22008 12.1592 1.46177 12.8733 2.03036 13.4419C2.59895 14.0105 3.31301 14.2522 4.14836 14.3645C4.95016 14.4723 5.96752 14.4723 7.22089 14.4722H7.33185C8.58523 14.4723 9.60261 14.4723 10.4044 14.3645C11.2398 14.2522 11.9538 14.0105 12.5224 13.4419C13.091 12.8733 13.3327 12.1592 13.445 11.3239C13.5528 10.5221 13.5528 9.50472 13.5528 8.25133V7.22093C13.5528 5.96755 13.5528 4.95016 13.445 4.14836C13.3327 3.313 13.091 2.59895 12.5224 2.03036C11.9538 1.46177 11.2398 1.22008 10.4044 1.10777C9.6026 0.999967 8.58522 0.999982 7.33182 1ZM4.35073 2.61293C5.03954 2.52033 5.9545 2.51871 7.27638 2.51871C8.59826 2.51871 9.51323 2.52033 10.202 2.61293C10.869 2.7026 11.2091 2.86486 11.4485 3.10425C11.6879 3.34364 11.8502 3.68379 11.9398 4.35072C12.0324 5.03953 12.0341 5.95449 12.0341 7.27637V8.19587C12.0341 9.51775 12.0324 10.4327 11.9398 11.1215C11.8502 11.7884 11.6879 12.1286 11.4485 12.368C11.2091 12.6074 10.869 12.7696 10.202 12.8593C9.51323 12.9519 8.59826 12.9535 7.27638 12.9535C5.9545 12.9535 5.03954 12.9519 4.35073 12.8593C3.6838 12.7696 3.34365 12.6074 3.10425 12.368C2.86486 12.1286 2.7026 11.7884 2.61294 11.1215C2.52033 10.4327 2.51872 9.51775 2.51872 8.19587V7.27637C2.51872 5.95449 2.52033 5.03953 2.61294 4.35072C2.7026 3.68379 2.86486 3.34364 3.10425 3.10425C3.34365 2.86486 3.6838 2.7026 4.35073 2.61293Z" fill="currentColor" />
  <path d="M12.8438 5.66724C14.1013 5.66722 15.1149 5.6672 15.9121 5.77438C16.7397 5.88566 17.4366 6.12371 17.99 6.67717C18.5435 7.23064 18.7816 7.9275 18.8928 8.75515C19 9.55233 19 10.5659 19 11.8234V11.8234V12.8438V12.8439C19 14.1013 19 15.1149 18.8928 15.9121C18.7816 16.7398 18.5435 17.4366 17.99 17.9901C17.4366 18.5435 16.7397 18.7816 15.9121 18.8929C15.1149 19.0001 14.1013 19 12.8438 19H12.7429C11.4854 19 10.4718 19.0001 9.67459 18.8929C8.84694 18.7816 8.15007 18.5435 7.59661 17.9901C7.04314 17.4366 6.80509 16.7398 6.69381 15.9121C6.58664 15.1149 6.58665 14.1013 6.58667 12.8438V12.8438V11.8234V11.8234C6.58665 10.5659 6.58664 9.55233 6.69381 8.75515C6.80509 7.9275 7.04314 7.23064 7.59661 6.67717C8.15007 6.12371 8.84694 5.88566 9.67459 5.77438C10.4718 5.6672 11.4854 5.66722 12.7429 5.66724H12.7429H12.8438H12.8438Z" fill="currentColor" fill-opacity="0.2" />
</svg>
