<svg
  xmlns="http://www.w3.org/2000/svg"
  width="20"
  height="20"
  viewBox="0 0 20 20"
  fill="none"
>
  <path
    d="M5.38463 0.929932C4.96361 0.929932 4.62232 1.27123 4.62232 1.69224L4.62232 10.9757C4.62229 11.8012 4.62227 12.4966 4.69671 13.0503C4.77566 13.6375 4.95069 14.178 5.38632 14.6136C5.82194 15.0492 6.3624 15.2243 6.94962 15.3032C7.5033 15.3777 8.19868 15.3777 9.02423 15.3776L18.3077 15.3776C18.7287 15.3776 19.07 15.0363 19.07 14.6153C19.07 14.1943 18.7287 13.853 18.3077 13.853H9.07693C8.18504 13.853 7.59289 13.8514 7.15278 13.7922C6.73466 13.736 6.56954 13.6407 6.46438 13.5356C6.35923 13.4304 6.26394 13.2653 6.20773 12.8472C6.14855 12.407 6.14693 11.8149 6.14693 10.923V1.69224C6.14693 1.27123 5.80564 0.929932 5.38463 0.929932Z"
    fill="currentColor"
  />
  <path
    d="M14.6154 19.07C15.0364 19.07 15.3777 18.7287 15.3777 18.3077L15.3777 9.02425C15.3778 8.19869 15.3778 7.5033 15.3034 6.94963C15.2244 6.3624 15.0494 5.82195 14.6137 5.38632C14.1781 4.95069 13.6377 4.77566 13.0504 4.69671C12.4968 4.62227 11.8014 4.62229 10.9759 4.62232L1.69236 4.62232C1.27135 4.62232 0.930054 4.96362 0.930054 5.38463C0.930054 5.80564 1.27135 6.14693 1.69236 6.14693L10.9231 6.14693C11.815 6.14693 12.4072 6.14855 12.8473 6.20773C13.2654 6.26394 13.4305 6.35923 13.5357 6.46439C13.6408 6.56954 13.7361 6.73466 13.7923 7.15278C13.8515 7.5929 13.8531 8.18504 13.8531 9.07693L13.8531 18.3077C13.8531 18.7287 14.1944 19.07 14.6154 19.07Z"
    fill="currentColor"
    fill-opacity="0.2"
  />
</svg>
