<svg width="20" height="20" viewBox="0 0 20 20" fill="currentcolor" xmlns="http://www.w3.org/2000/svg">
  <path d="M5.38463 0.929932C4.96361 0.929932 4.62232 1.27123 4.62232 1.69224L4.62232 10.9757C4.62229 11.8012 4.62227 12.4966 4.69671 13.0503C4.77566 13.6375 4.95069 14.178 5.38632 14.6136C5.82194 15.0492 6.3624 15.2243 6.94962 15.3032C7.5033 15.3777 8.19868 15.3777 9.02423 15.3776L18.3077 15.3776C18.7287 15.3776 19.07 15.0363 19.07 14.6153C19.07 14.1943 18.7287 13.853 18.3077 13.853H9.07693C8.18504 13.853 7.59289 13.8514 7.15278 13.7922C6.73466 13.736 6.56954 13.6407 6.46438 13.5356C6.35923 13.4304 6.26394 13.2653 6.20773 12.8472C6.14855 12.407 6.14693 11.8149 6.14693 10.923V1.69224C6.14693 1.27123 5.80564 0.929932 5.38463 0.929932Z" fill="currentcolor" />
  <path d="M14.6153 19.0701C15.0363 19.0701 15.3776 18.7288 15.3776 18.3078L15.3776 9.02431C15.3777 8.19875 15.3777 7.50336 15.3032 6.94969C15.2243 6.36246 15.0492 5.82201 14.6136 5.38638C14.178 4.95075 13.6375 4.77572 13.0503 4.69677C12.4967 4.62233 11.8013 4.62235 10.9757 4.62238L1.69224 4.62238C1.27123 4.62238 0.929932 4.96368 0.929932 5.38469C0.929932 5.8057 1.27123 6.14699 1.69224 6.14699L10.923 6.147C11.8149 6.147 12.407 6.14862 12.8472 6.20779C13.2653 6.264 13.4304 6.35929 13.5356 6.46445C13.6407 6.5696 13.736 6.73472 13.7922 7.15284C13.8514 7.59296 13.853 8.1851 13.853 9.07699L13.853 18.3078C13.853 18.7288 14.1943 19.0701 14.6153 19.0701Z" fill="currentcolor" fill-opacity="0.2" />
</svg>
