<svg
  xmlns="http://www.w3.org/2000/svg"
  width="20"
  height="20"
  viewBox="0 0 20 20"
  fill="none"
>
  <path
    fill-rule="evenodd"
    clip-rule="evenodd"
    d="M2.16217 3.51351C2.16217 2.79195 2.76819 1.92042 4.2471 1.18097C5.6775 0.465762 7.71033 0 10 0C12.2897 0 14.3225 0.465762 15.7529 1.18097C17.2318 1.92042 17.8378 2.79195 17.8378 3.51351C17.8378 4.23508 17.2318 5.10661 15.7529 5.84606C14.3225 6.56126 12.2897 7.02703 10 7.02703C7.71033 7.02703 5.6775 6.56126 4.2471 5.84606C2.76819 5.10661 2.16217 4.23508 2.16217 3.51351ZM2.16217 6.44023V10C2.16217 10.7216 2.76819 11.5931 4.2471 12.3325C5.6775 13.0477 7.71033 13.5135 10 13.5135C12.2897 13.5135 14.3225 13.0477 15.7529 12.3325C17.2318 11.5931 17.8378 10.7216 17.8378 10V6.44023C17.4306 6.7651 16.9685 7.0513 16.4781 7.29648C14.7783 8.14638 12.4868 8.64865 10 8.64865C7.51317 8.64865 5.22167 8.14638 3.52188 7.29648C3.03151 7.0513 2.56947 6.7651 2.16217 6.44023ZM2.16217 12.9267V16.4865C2.16217 17.2081 2.76819 18.0796 4.2471 18.819C5.6775 19.5342 7.71033 20 10 20C12.2897 20 14.3225 19.5342 15.7529 18.819C17.2318 18.0796 17.8378 17.208 17.8378 16.4865V12.9267C17.4306 13.2516 16.9685 13.5378 16.4781 13.783C14.7783 14.6329 12.4868 15.1351 10 15.1351C7.51317 15.1351 5.22167 14.6329 3.52188 13.783C3.03151 13.5378 2.56947 13.2516 2.16217 12.9267Z"
    fill="currentColor"
    fill-opacity="0.2"
  />
  <path
    fill-rule="evenodd"
    clip-rule="evenodd"
    d="M4.5946 11.0811C5.19167 11.0811 5.67568 10.5971 5.67568 10C5.67568 9.40294 5.19167 8.91892 4.5946 8.91892C3.99754 8.91892 3.51352 9.40294 3.51352 10C3.51352 10.5971 3.99754 11.0811 4.5946 11.0811ZM8.91893 12.1622C9.51599 12.1622 10 11.6781 10 11.0811C10 10.484 9.51599 10 8.91893 10C8.32186 10 7.83785 10.484 7.83785 11.0811C7.83785 11.6781 8.32186 12.1622 8.91893 12.1622ZM5.67568 16.4865C5.67568 17.0835 5.19167 17.5676 4.5946 17.5676C3.99754 17.5676 3.51352 17.0835 3.51352 16.4865C3.51352 15.8894 3.99754 15.4054 4.5946 15.4054C5.19167 15.4054 5.67568 15.8894 5.67568 16.4865ZM8.91893 18.6486C9.51599 18.6486 10 18.1646 10 17.5676C10 16.9705 9.51599 16.4865 8.91893 16.4865C8.32186 16.4865 7.83785 16.9705 7.83785 17.5676C7.83785 18.1646 8.32186 18.6486 8.91893 18.6486Z"
    fill="currentColor"
  />
</svg>
