<svg
  xmlns="http://www.w3.org/2000/svg"
  width="20"
  height="20"
  viewBox="0 0 20 20"
  fill="none"
>
  <path
    d="M3.99893 9.99786C3.99893 7.17152 3.99893 5.75834 4.87642 4.87987C4.87722 4.87908 4.87801 4.87828 4.8788 4.87749C5.75727 4 7.17045 4 9.99679 4C12.8231 4 14.2363 4 15.1148 4.87749C15.1156 4.87828 15.1164 4.87908 15.1172 4.87987C15.9947 5.75834 15.9947 7.17152 15.9947 9.99786V13.0021C15.9947 15.8285 15.9947 17.2417 15.1172 18.1201C15.1164 18.1209 15.1156 18.1217 15.1148 18.1225C14.2363 19 12.8231 19 9.99679 19C7.17045 19 5.75727 19 4.8788 18.1225C4.87801 18.1217 4.87722 18.1209 4.87642 18.1201C3.99893 17.2417 3.99893 15.8285 3.99893 13.0021V9.99786Z"
    fill="currentColor"
    fill-opacity="0.2"
  />
  <path
    d="M4.51171 1.00007C3.80919 0.999454 3.26487 0.998975 2.80389 1.16784C2.04439 1.44606 1.4459 2.04476 1.16778 2.80454C0.998975 3.26568 0.999455 3.8102 1.00007 4.51296L1.00015 4.64403L1.00007 4.77509C0.999455 5.47786 0.998975 6.02237 1.16778 6.48352C1.4459 7.24329 2.04439 7.84199 2.80389 8.12021C3.14937 8.24677 3.54164 8.27821 4.01224 8.28576C4.02377 7.7099 4.04847 7.21477 4.10136 6.78535C3.62994 6.77933 3.4538 6.76088 3.3195 6.71168C2.97427 6.58522 2.70223 6.31308 2.57581 5.96773C2.51114 5.79106 2.49962 5.54201 2.49962 4.64403C2.49962 3.74604 2.51114 3.497 2.57581 3.32033C2.70223 2.97497 2.97427 2.70284 3.3195 2.57637C3.49611 2.51168 3.74506 2.50015 4.64273 2.50015H15.3573C16.2549 2.50015 16.5039 2.51168 16.6805 2.57637C17.0257 2.70284 17.2978 2.97497 17.4242 3.32032C17.4889 3.497 17.5004 3.74604 17.5004 4.64403C17.5004 5.54201 17.4889 5.79106 17.4242 5.96773C17.2978 6.31308 17.0257 6.58522 16.6805 6.71168C16.5462 6.76088 16.3701 6.77933 15.8986 6.78535C15.9515 7.21477 15.9762 7.7099 15.9878 8.28576C16.4584 8.27821 16.8506 8.24677 17.1961 8.12021C17.9556 7.84199 18.5541 7.24329 18.8322 6.48352C19.001 6.02238 19.0005 5.47787 18.9999 4.77511L18.9999 4.64403L18.9999 4.51297C19.0005 3.81021 19.001 3.26568 18.8322 2.80454C18.5541 2.04476 17.9556 1.44606 17.1961 1.16784C16.7351 0.998975 16.1908 0.999454 15.4883 1.00007H4.51171Z"
    fill="currentColor"
  />
  <path
    d="M10.454 8.59524C10.3223 8.48014 10.1498 8.41041 9.96116 8.41042C9.74246 8.41042 9.54562 8.5041 9.40857 8.65354L7.45353 10.7154C7.16857 11.0159 7.1811 11.4906 7.48151 11.7757C7.78193 12.0607 8.25647 12.0482 8.54143 11.7477L9.21147 11.041L9.21152 14.2314C9.21152 14.6456 9.54719 14.9814 9.96126 14.9814C10.3753 14.9814 10.711 14.6456 10.711 14.2314L10.7109 10.9935L11.4614 11.7573C11.7516 12.0527 12.2263 12.0568 12.5216 11.7665C12.817 11.4761 12.8211 11.0013 12.5308 10.7059L10.496 8.63476C10.486 8.6246 10.4757 8.61476 10.4653 8.60524C10.4616 8.60187 10.4578 8.59854 10.454 8.59524Z"
    fill="currentColor"
  />
</svg>
