<svg width="20" height="20" viewBox="0 0 20 20" fill="currentColor" xmlns="http://www.w3.org/2000/svg">
  <path d="M16.375 3.12386L16.375 11.1239C16.375 11.9523 17.0466 12.6239 17.875 12.6239C18.7034 12.6239 19.375 11.9523 19.375 11.1239L19.375 3.12386C19.375 2.29543 18.7034 1.62386 17.875 1.62386C17.0466 1.62386 16.375 2.29543 16.375 3.12386Z" fill="currentColor" />
  <path d="M9.5814 18.2978C10.5034 19.609 12.9929 19.8573 13.4803 18.2978C13.8052 17.2581 12.9929 16.7383 13.4803 15.1788C13.7922 14.1805 14.5036 13.0999 14.9752 12.4513C15.2595 12.0603 15.4297 11.5959 15.4297 11.115L15.4297 4.25912C15.4297 3.60641 15.1231 2.98653 14.6209 2.5608C13.4969 1.60796 12.2288 0.623718 8.60668 0.623693C4.70782 0.623664 1.78367 1.66331 0.808958 7.9013C0.318721 11.0387 0.809102 12.5797 2.27103 13.0995C3.54159 13.5513 5.48684 12.9447 7.08035 12.3611C8.44893 11.86 9.34784 12.681 9.10284 14.0991C8.8601 15.504 8.76603 17.1382 9.5814 18.2978Z" fill="currentColor" fill-opacity="0.2" />
</svg>
