<svg
  xmlns="http://www.w3.org/2000/svg"
  width="20"
  height="20"
  viewBox="0 0 20 20"
  fill="none"
>
  <path
    d="M16.375 3.12384L16.375 11.1238C16.375 11.9523 17.0466 12.6238 17.875 12.6238C18.7034 12.6238 19.375 11.9523 19.375 11.1238L19.375 3.12384C19.375 2.29541 18.7034 1.62384 17.875 1.62384C17.0466 1.62384 16.375 2.29541 16.375 3.12384Z"
    fill="currentColor"
  />
  <path
    d="M9.5814 18.2978C10.5034 19.609 12.9929 19.8572 13.4803 18.2978C13.8052 17.2581 12.9929 16.7383 13.4803 15.1788C13.7922 14.1805 14.5036 13.0998 14.9752 12.4513C15.2595 12.0603 15.4297 11.5959 15.4297 11.1149L15.4297 4.2591C15.4297 3.6064 15.1231 2.98652 14.6209 2.56079C13.4969 1.60794 12.2288 0.623703 8.60668 0.623678C4.70782 0.623649 1.78367 1.66329 0.808958 7.90128C0.318721 11.0387 0.809102 12.5796 2.27103 13.0995C3.54159 13.5512 5.48684 12.9447 7.08035 12.3611C8.44893 11.8599 9.34784 12.681 9.10284 14.099C8.8601 15.504 8.76603 17.1382 9.5814 18.2978Z"
    fill="currentColor"
    fill-opacity="0.2"
  />
</svg>
