<svg width="20" height="20" viewBox="0 0 20 20" fill="currentColor" xmlns="http://www.w3.org/2000/svg">
  <path d="M7.65401 13.2485C7.07595 12.6704 6.78692 12.3814 6.41938 12.2291C6.05184 12.0769 5.64309 12.0769 4.82558 12.0769H4.4264C3.89442 12.0769 3.44261 12.0769 3.07558 12.1149C2.68853 12.1551 2.31816 12.2434 1.98346 12.4727C1.75295 12.6306 1.55369 12.8298 1.39578 13.0604C1.16651 13.3951 1.07815 13.7654 1.03802 14.1525C0.99997 14.5195 0.999984 14.9713 1 15.5032V15.5736C0.999984 16.1056 0.99997 16.5574 1.03802 16.9244C1.07815 17.3115 1.16651 17.6818 1.39578 18.0165C1.55369 18.247 1.75295 18.4463 1.98346 18.6042C2.31816 18.8335 2.68853 18.9218 3.07558 18.962C3.44262 19 3.89439 19 4.42639 19H15.5736C16.1056 19 16.5574 19 16.9244 18.962C17.3115 18.9218 17.6818 18.8335 18.0165 18.6042C18.2471 18.4463 18.4463 18.247 18.6042 18.0165C18.8335 17.6818 18.9219 17.3115 18.962 16.9244C19 16.5574 19 16.1056 19 15.5736V15.5033C19 14.9713 19 14.5195 18.962 14.1525C18.9219 13.7654 18.8335 13.3951 18.6042 13.0604C18.4463 12.8298 18.2471 12.6306 18.0165 12.4727C17.6818 12.2434 17.3115 12.1551 16.9244 12.1149C16.5574 12.0769 16.1056 12.0769 15.5736 12.0769H15.1744C14.3569 12.0769 13.9481 12.0769 13.5806 12.2291C13.213 12.3814 12.924 12.6704 12.3459 13.2485L10.4895 15.1049C10.2191 15.3753 9.7808 15.3753 9.51044 15.1049L7.65401 13.2485Z" fill="currentColor" fill-opacity="0.2" />
  <path d="M10.07 1C9.64896 1 9.30766 1.33997 9.30766 1.75935V10.9601L6.9167 8.57842C6.619 8.28187 6.13633 8.28187 5.83863 8.57842C5.54093 8.87497 5.54093 9.35576 5.83863 9.65231L9.53094 13.3303C9.82864 13.6269 10.3113 13.6269 10.609 13.3303L14.3013 9.65231C14.599 9.35576 14.599 8.87497 14.3013 8.57842C14.0036 8.28187 13.5209 8.28187 13.2232 8.57842L10.8323 10.9601V1.75935C10.8323 1.33997 10.491 1 10.07 1Z" fill="currentColor" />
  <path d="M15.4957 14.5103C14.9515 14.5103 14.5103 14.9515 14.5103 15.4957C14.5103 16.04 14.9515 16.4811 15.4957 16.4811C16.04 16.4811 16.4811 16.04 16.4811 15.4957C16.4811 14.9515 16.04 14.5103 15.4957 14.5103Z" fill="currentColor" />
</svg>
