<svg
  xmlns="http://www.w3.org/2000/svg"
  width="20"
  height="20"
  viewBox="0 0 20 20"
  fill="none"
>
  <path
    d="M15.1569 2.54498C14.6611 2.10091 14.2339 1.71828 13.8504 1.45768C13.4394 1.17838 12.9879 0.974256 12.4463 1.00263C11.9047 1.03101 11.4773 1.28119 11.098 1.6019C10.7442 1.90115 10.3597 2.32629 9.91355 2.81972L2.19989 11.3491C1.77836 11.8144 1.44496 12.1824 1.2613 12.643C1.07764 13.1035 1.0667 13.5989 1.05288 14.2252L1.01007 16.0937C0.998592 16.5914 0.98822 17.0414 1.03113 17.4028C1.07792 17.7968 1.20094 18.2183 1.56533 18.5447C1.92971 18.871 2.36384 18.9485 2.76258 18.9534C3.12816 18.9579 3.57678 18.9004 4.07291 18.8368L5.93575 18.5982C6.5602 18.5187 7.05409 18.4559 7.49501 18.2258C7.93594 17.9956 8.2687 17.627 8.68941 17.161L16.403 8.63154C16.8492 8.13816 17.2337 7.71306 17.4956 7.33142C17.7763 6.92243 17.9814 6.47315 17.9529 5.93418C17.9243 5.39522 17.6729 4.96986 17.3507 4.59246C17.05 4.24031 16.6227 3.85774 16.1269 3.41372L15.1569 2.54498Z"
    fill="currentColor"
    fill-opacity="0.2"
  />
  <path
    fill-rule="evenodd"
    clip-rule="evenodd"
    d="M10.4723 18.2512C10.4723 17.8377 10.8092 17.5024 11.2247 17.5024L18.2476 17.5024C18.6632 17.5024 19 17.8377 19 18.2512C19 18.6648 18.6632 19 18.2476 19L11.2247 19C10.8092 19 10.4723 18.6648 10.4723 18.2512Z"
    fill="currentColor"
  />
</svg>
