<svg width="20" height="20" viewBox="0 0 20 20" fill="currentcolor" xmlns="http://www.w3.org/2000/svg">
  <path d="M12.6712 1.92416C11.8384 1.89098 10.8795 1.89098 9.77753 1.89099H9.66947C7.90458 1.89098 6.50651 1.89097 5.40623 2.0273C4.27532 2.16743 3.35184 2.46213 2.60112 3.12937C2.48289 3.23445 2.36999 3.34515 2.26284 3.46109C1.58242 4.19727 1.2819 5.10287 1.139 6.21187C0.999976 7.29084 0.999986 8.66182 1 10.3925V10.4985C0.999986 12.2292 0.999976 13.6002 1.139 14.6791C1.2819 15.7881 1.58242 16.6937 2.26284 17.4299C2.36999 17.5459 2.48289 17.6566 2.60112 17.7616C3.35184 18.4289 4.27532 18.7236 5.40623 18.8637C6.50651 19 7.90456 19 9.66943 19H9.77749C11.5424 19 12.9405 19 14.0408 18.8637C15.1717 18.7236 16.0951 18.4289 16.8459 17.7616C16.9641 17.6566 17.077 17.5459 17.1842 17.4299C17.8646 16.6937 18.1651 15.7881 18.308 14.6791C18.447 13.6002 18.447 12.2292 18.447 10.4985V10.3926C18.447 9.18281 18.447 8.14876 18.3995 7.26739L14.8241 10.7736L14.7291 10.867C14.3434 11.247 13.929 11.6553 13.4005 11.9148C13.2473 11.99 13.0889 12.0543 12.9265 12.1074C12.3656 12.2904 11.7781 12.289 11.2314 12.2877L11.0969 12.2875L11.0397 12.2875C10.6967 12.2876 10.3252 12.2878 10.0076 12.2533C9.64219 12.2136 9.16659 12.1136 8.72013 11.7859C8.52403 11.642 8.34995 11.4713 8.20319 11.279C7.86908 10.8412 7.76705 10.3748 7.7266 10.0165C7.69143 9.70498 7.69155 9.34072 7.69166 9.00434L7.69167 8.94826L7.69146 8.81634C7.69016 8.28022 7.68876 7.70417 7.8754 7.15414C7.92947 6.99481 7.99508 6.83947 8.07174 6.68932C8.33638 6.17097 8.75275 5.76461 9.14024 5.38641L9.23551 5.29329L12.6712 1.92416Z" fill="currentcolor" fill-opacity="0.2" />
  <path d="M14.2399 2.19611C14.9283 1.51319 15.2725 1.17173 15.6717 1.05912C15.9333 0.985349 16.2073 0.980531 16.4664 1.04515C16.8619 1.14379 17.1941 1.47336 17.8585 2.1325C18.5229 2.79165 18.8551 3.12122 18.9545 3.51354C19.0197 3.77056 19.0148 4.04247 18.9404 4.30194C18.8269 4.698 18.4827 5.03947 17.7944 5.72239L13.8253 9.66001C13.2638 10.2171 12.983 10.4956 12.6337 10.6548C12.6024 10.6691 12.5708 10.6826 12.5388 10.6953C12.1826 10.8373 11.7924 10.8451 11.0121 10.8608C10.1061 10.879 9.65311 10.8881 9.36435 10.63C9.33937 10.6077 9.31559 10.5841 9.29308 10.5593C9.03287 10.2728 9.04205 9.82341 9.06042 8.92459C9.07624 8.15047 9.08415 7.7634 9.22728 7.40998C9.24011 7.3783 9.25372 7.34693 9.2681 7.31587C9.42854 6.96933 9.7093 6.6908 10.2708 6.13373L14.2399 2.19611Z" fill="currentcolor" />
</svg>
