<svg
  xmlns="http://www.w3.org/2000/svg"
  width="20"
  height="20"
  viewBox="0 0 20 20"
  fill="none"
>
  <path
    d="M9 10C9 9.44772 9.44772 9 10 9C10.5523 9 11 9.44772 11 10C11 10.5523 10.5523 11 10 11C9.44772 11 9 10.5523 9 10Z"
    fill="currentColor"
  />
  <path
    d="M10 4C9.44772 4 9 4.44772 9 5C9 5.55228 9.44772 6 10 6C10.5523 6 11 5.55228 11 5C11 4.44772 10.5523 4 10 4Z"
    fill="currentColor"
    fill-opacity="0.2"
  />
  <path
    d="M10 14C9.44772 14 9 14.4477 9 15C9 15.5523 9.44772 16 10 16C10.5523 16 11 15.5523 11 15C11 14.4477 10.5523 14 10 14Z"
    fill="currentColor"
    fill-opacity="0.2"
  />
</svg>
