<svg width="20" height="20" viewBox="0 0 20 20" fill="currentcolor" xmlns="http://www.w3.org/2000/svg">
  <path d="M1.56527 13.4092C1.75971 13.1219 2.02019 12.7906 2.33324 12.3926L6.71711 6.81812L7.8552 7.81442L3.46072 13.4024C3.12589 13.8282 2.9007 14.1153 2.74174 14.3502C2.58662 14.5794 2.53181 14.7065 2.50761 14.7984C2.41915 15.1341 2.45637 15.4943 2.61114 15.8003C2.65348 15.884 2.73287 15.9947 2.9309 16.1808C3.13384 16.3715 3.41201 16.5972 3.82539 16.9316C4.11233 17.1637 4.19041 17.2237 4.26869 17.2671C4.37915 17.3285 4.4976 17.3712 4.61992 17.3936C4.7066 17.4095 4.80218 17.4121 5.15982 17.4121L9.81932 17.4121L13.4906 12.8318L14.6347 13.8214L11.7566 17.4121L17.8325 17.4121C18.2358 17.4121 18.5628 17.7675 18.5628 18.206C18.5628 18.6445 18.2358 18.9999 17.8325 18.9999L5.11068 19C4.82462 19.0001 4.59942 19.0002 4.37679 18.9593C4.10767 18.9099 3.84709 18.8161 3.60406 18.6811C3.40301 18.5694 3.22237 18.4231 2.99294 18.2374L2.93202 18.1881C2.54558 17.8755 2.22401 17.6154 1.97579 17.3821C1.71809 17.14 1.49307 16.8852 1.3313 16.5654C0.990789 15.8921 0.908916 15.0997 1.10353 14.3611C1.19599 14.0102 1.36341 13.7075 1.56527 13.4092Z" fill="currentcolor" fill-opacity="0.2" />
  <path d="M18.4701 8.90278C18.1411 9.44698 17.6482 10.0618 17.0563 10.8002L14.6349 13.8212L13.4908 12.8316L7.85538 7.81423L6.71729 6.81793L9.28725 3.54999C9.84413 2.84182 10.309 2.25068 10.7365 1.83395C11.1881 1.39379 11.675 1.06925 12.2895 1.00956C12.9039 0.949879 13.4361 1.17544 13.9523 1.5216C14.441 1.84933 14.9948 2.34153 15.6584 2.93116L16.5024 3.68112C17.2 4.30093 17.7808 4.81698 18.1893 5.29334C18.62 5.79562 18.9382 6.34168 18.9923 7.03712C19.0464 7.73256 18.8171 8.32897 18.4701 8.90278Z" fill="currentcolor" />
</svg>
