<svg
  xmlns="http://www.w3.org/2000/svg"
  width="20"
  height="20"
  viewBox="0 0 20 20"
  fill="none"
>
  <path
    d="M10 1C5.02944 1 1 5.02944 1 10C1 14.9706 5.02944 19 10 19C14.9706 19 19 14.9706 19 10C19 5.02944 14.9706 1 10 1Z"
    fill="currentColor"
    fill-opacity="0.2"
  />
  <path
    fill-rule="evenodd"
    clip-rule="evenodd"
    d="M11.0312 6.625C10.617 6.625 10.2812 6.28921 10.2812 5.875C10.2812 5.46079 10.617 5.125 11.0312 5.125H14.125C14.5392 5.125 14.875 5.46079 14.875 5.875V8.96875C14.875 9.38296 14.5392 9.71875 14.125 9.71875C13.7108 9.71875 13.375 9.38296 13.375 8.96875V7.68566L11.5616 9.49908C11.2687 9.79197 10.7938 9.79197 10.5009 9.49908C10.208 9.20619 10.208 8.73131 10.5009 8.43842L12.3143 6.625H11.0312Z"
    fill="currentColor"
  />
  <path
    fill-rule="evenodd"
    clip-rule="evenodd"
    d="M8.96875 13.375C9.38296 13.375 9.71875 13.7108 9.71875 14.125C9.71875 14.5392 9.38296 14.875 8.96875 14.875H5.875C5.46079 14.875 5.125 14.5392 5.125 14.125L5.125 11.0312C5.125 10.617 5.46079 10.2812 5.875 10.2812C6.28921 10.2812 6.625 10.617 6.625 11.0312L6.625 12.3143L8.43842 10.5009C8.73131 10.208 9.20619 10.208 9.49908 10.5009C9.79197 10.7938 9.79197 11.2687 9.49908 11.5616L7.68566 13.375H8.96875Z"
    fill="currentColor"
  />
</svg>
