<svg
  xmlns="http://www.w3.org/2000/svg"
  width="20"
  height="20"
  viewBox="0 0 20 20"
  fill="none"
>
  <path
    fill-rule="evenodd"
    clip-rule="evenodd"
    d="M1.75272 11.7563C2.16843 11.7563 2.50543 12.0933 2.50543 12.5091V13.0109C2.50543 13.824 2.50582 14.3969 2.53596 14.8468C2.56565 15.2902 2.62179 15.56 2.70789 15.7722C2.98832 16.4634 3.53659 17.0117 4.22781 17.2921C4.44004 17.3782 4.70982 17.4343 5.15317 17.464C5.6031 17.4942 6.17598 17.4946 6.98914 17.4946C7.40485 17.4946 7.74185 17.8316 7.74185 18.2473C7.74185 18.663 7.40485 19 6.98914 19H6.96249C6.18201 19 5.55873 19 5.05257 18.9661C4.53407 18.9314 4.08476 18.8587 3.66185 18.6871C2.59361 18.2537 1.74628 17.4064 1.31289 16.3381C1.14132 15.9152 1.06862 15.4659 1.03389 14.9474C0.999992 14.4413 0.999996 13.818 1 13.0375L1 12.5091C1 12.0933 1.337 11.7563 1.75272 11.7563Z"
    fill="currentColor"
    fill-opacity="0.2"
  />
  <path
    fill-rule="evenodd"
    clip-rule="evenodd"
    d="M1.75272 8.24366C2.16843 8.24366 2.50543 7.90666 2.50543 7.49095V6.98914C2.50543 6.17598 2.50582 5.6031 2.53596 5.15317C2.56565 4.70982 2.62179 4.44004 2.70789 4.22781C2.98832 3.53659 3.53659 2.98832 4.22781 2.70789C4.44004 2.62179 4.70982 2.56565 5.15317 2.53596C5.6031 2.50582 6.17598 2.50543 6.98914 2.50543C7.40485 2.50543 7.74185 2.16843 7.74185 1.75272C7.74185 1.337 7.40485 1 6.98914 1H6.96249C6.18201 0.999996 5.55873 0.999992 5.05257 1.03389C4.53407 1.06862 4.08476 1.14132 3.66185 1.31289C2.59361 1.74628 1.74628 2.59361 1.31289 3.66185C1.14132 4.08476 1.06862 4.53407 1.03389 5.05257C0.999992 5.55873 0.999996 6.18202 1 6.9625L1 7.49095C1 7.90666 1.337 8.24366 1.75272 8.24366Z"
    fill="currentColor"
    fill-opacity="0.2"
  />
  <path
    fill-rule="evenodd"
    clip-rule="evenodd"
    d="M18.2473 12.2581C18.663 12.2581 19 12.5951 19 13.0109V13.0375C19 13.818 19 14.4413 18.9661 14.9474C18.9314 15.4659 18.8587 15.9152 18.6871 16.3381C18.2537 17.4064 17.4064 18.2537 16.3381 18.6871C15.9152 18.8587 15.4659 18.9314 14.9474 18.9661C14.4413 19 13.818 19 13.0375 19H12.5091C12.0933 19 11.7563 18.663 11.7563 18.2473C11.7563 17.8316 12.0933 17.4946 12.5091 17.4946H13.0109C13.824 17.4946 14.3969 17.4942 14.8468 17.464C15.2902 17.4343 15.56 17.3782 15.7722 17.2921C16.4634 17.0117 17.0117 16.4634 17.2921 15.7722C17.3782 15.56 17.4343 15.2902 17.464 14.8468C17.4942 14.3969 17.4946 13.824 17.4946 13.0109C17.4946 12.5951 17.8316 12.2581 18.2473 12.2581Z"
    fill="currentColor"
    fill-opacity="0.2"
  />
  <path
    fill-rule="evenodd"
    clip-rule="evenodd"
    d="M14.8468 2.53596C14.3969 2.50582 13.824 2.50543 13.0109 2.50543C12.5951 2.50543 12.2581 2.16843 12.2581 1.75272C12.2581 1.337 12.5951 1 13.0109 1L13.0375 1C13.818 0.999996 14.4413 0.999992 14.9474 1.03389C15.4659 1.06862 15.9152 1.14132 16.3381 1.31289C17.4064 1.74628 18.2537 2.59361 18.6871 3.66185C18.8587 4.08476 18.9314 4.53407 18.9661 5.05257C19 5.55873 19 6.18201 19 6.96249V7.49095C19 7.90666 18.663 8.24366 18.2473 8.24366C17.8316 8.24366 17.4946 7.90666 17.4946 7.49095V6.98914C17.4946 6.17598 17.4942 5.6031 17.464 5.15317C17.4343 4.70982 17.3782 4.44004 17.2921 4.22781C17.0117 3.53659 16.4634 2.98832 15.7722 2.70789C15.56 2.62179 15.2902 2.56565 14.8468 2.53596Z"
    fill="currentColor"
    fill-opacity="0.2"
  />
  <path
    d="M7.51603 6.98922C7.51603 7.5435 7.06669 7.99284 6.51241 7.99284C5.95813 7.99284 5.50879 7.5435 5.50879 6.98922C5.50879 6.43493 5.95813 5.9856 6.51241 5.9856C7.06669 5.9856 7.51603 6.43493 7.51603 6.98922Z"
    fill="currentColor"
  />
  <path
    d="M14.4892 6.98922C14.4892 7.5435 14.0399 7.99284 13.4856 7.99284C12.9313 7.99284 12.4819 7.5435 12.4819 6.98922C12.4819 6.43493 12.9313 5.9856 13.4856 5.9856C14.0399 5.9856 14.4892 6.43493 14.4892 6.98922Z"
    fill="currentColor"
  />
  <path
    fill-rule="evenodd"
    clip-rule="evenodd"
    d="M6.01036 12.5281C6.319 12.2496 6.79496 12.274 7.07346 12.5826C8.6389 14.3175 11.3613 14.3175 12.9267 12.5826C13.2052 12.274 13.6812 12.2496 13.9898 12.5281C14.2985 12.8066 14.3229 13.2825 14.0444 13.5912C11.8811 15.9886 8.11906 15.9886 5.95578 13.5912C5.67729 13.2825 5.70172 12.8066 6.01036 12.5281Z"
    fill="currentColor"
  />
  <path
    fill-rule="evenodd"
    clip-rule="evenodd"
    d="M10.0001 6.73831C10.4158 6.73831 10.7528 7.07531 10.7528 7.49103V9.4604C10.7528 9.47043 10.7528 9.48044 10.7528 9.49042C10.7529 9.75286 10.7529 10.0019 10.7317 10.2135C10.7081 10.4499 10.6538 10.6986 10.5097 10.9433C10.3656 11.1879 10.1743 11.3559 9.97898 11.4911C9.80413 11.6122 9.58628 11.7329 9.35671 11.86C9.34797 11.8649 9.33922 11.8697 9.33045 11.8746L9.20447 11.9444C8.84083 12.1459 8.38273 12.0144 8.18126 11.6508C7.97979 11.2871 8.11124 10.829 8.47487 10.6276L8.60086 10.5578C8.86608 10.4108 9.01654 10.3265 9.12197 10.2535C9.16925 10.2207 9.19259 10.2001 9.20362 10.1892C9.20879 10.184 9.2118 10.1803 9.2118 10.1803L9.21266 10.1791L9.21331 10.1777C9.21331 10.1777 9.21512 10.1733 9.2171 10.1663C9.22132 10.1513 9.22804 10.1209 9.23376 10.0637C9.24652 9.9361 9.24739 9.76361 9.24739 9.4604V7.49103C9.24739 7.07531 9.58439 6.73831 10.0001 6.73831Z"
    fill="currentColor"
  />
</svg>
