<svg width="20" height="20" viewBox="0 0 20 20" fill="currentColor" xmlns="http://www.w3.org/2000/svg">
  <path fill-rule="evenodd" d="M10 1C5.02944 1 1 5.02944 1 10C1 14.9706 5.02944 19 10 19C14.9706 19 19 14.9706 19 10C19 5.02944 14.9706 1 10 1Z" fill="currentColor" fill-opacity="0.2" />
  <path d="M6.30772 7.39154C5.88671 7.39154 5.54541 7.73284 5.54541 8.15385C5.54541 8.57486 5.88671 8.91616 6.30772 8.91616H8.15387C8.57488 8.91616 8.91618 8.57486 8.91618 8.15385C8.91618 7.73284 8.57488 7.39154 8.15387 7.39154H6.30772Z" fill="currentColor" />
  <path d="M11.8462 7.39154C11.4252 7.39154 11.0839 7.73284 11.0839 8.15385C11.0839 8.57486 11.4252 8.91616 11.8462 8.91616H13.6923C14.1133 8.91616 14.4546 8.57486 14.4546 8.15385C14.4546 7.73284 14.1133 7.39154 13.6923 7.39154H11.8462Z" fill="currentColor" />
  <path d="M8.15391 12.93C7.7329 12.93 7.3916 13.2713 7.3916 13.6923C7.3916 14.1133 7.7329 14.4546 8.15391 14.4546H11.8462C12.2672 14.4546 12.6085 14.1133 12.6085 13.6923C12.6085 13.2713 12.2672 12.93 11.8462 12.93H8.15391Z" fill="currentColor" />
</svg>
