<svg width="20" height="20" viewBox="0 0 20 20" fill="currentColor" xmlns="http://www.w3.org/2000/svg">
  <path fill-rule="evenodd" d="M10 1C5.02944 1 1 5.02944 1 10C1 14.9706 5.02944 19 10 19C14.9706 19 19 14.9706 19 10C19 5.02944 14.9706 1 10 1Z" fill="currentColor" fill-opacity="0.2" />
  <path d="M8.46333 8.38462C8.46333 8.9379 8.01481 9.38643 7.46152 9.38643C6.90824 9.38643 6.45972 8.9379 6.45972 8.38462C6.45972 7.83134 6.90824 7.38281 7.46152 7.38281C8.01481 7.38281 8.46333 7.83134 8.46333 8.38462Z" fill="currentColor" />
  <path d="M6.94208 11.8848C6.70854 11.5345 6.23525 11.4399 5.88495 11.6734C5.53464 11.9069 5.43999 12.3802 5.67352 12.7305C7.73176 15.8179 12.2685 15.8179 14.3267 12.7305C14.5602 12.3802 14.4656 11.9069 14.1153 11.6734C13.765 11.4399 13.2917 11.5345 13.0581 11.8848C11.6034 14.067 8.39684 14.067 6.94208 11.8848Z" fill="currentColor" />
  <path d="M12.7693 7.13202C12.0926 7.13203 11.4913 7.47368 11.0366 8.00435C10.7627 8.32406 10.7998 8.8053 11.1195 9.07923C11.4392 9.35316 11.9204 9.31605 12.1944 8.99634C12.4317 8.71932 12.638 8.65664 12.7693 8.65663C12.9006 8.65663 13.1069 8.7193 13.3443 8.99632C13.6182 9.31604 14.0994 9.35316 14.4191 9.07924C14.7389 8.80532 14.776 8.32409 14.5021 8.00437C14.0474 7.47366 13.4461 7.13201 12.7693 7.13202Z" fill="currentColor" />
</svg>
