<svg
  xmlns="http://www.w3.org/2000/svg"
  width="20"
  height="21"
  viewBox="0 0 20 21"
  fill="none"
>
  <path
    d="M13.3064 1.90227C12.8552 1.44231 12.4981 1.07828 12.0332 0.882366C11.5684 0.686454 11.0629 0.686946 10.4242 0.687569L9.94835 0.68764C8.26813 0.687625 6.93728 0.687613 5.89572 0.83009C4.8238 0.97672 3.9562 1.28566 3.27198 1.98181C2.58777 2.67796 2.28412 3.56069 2.14001 4.65131C1.99997 5.71104 1.99999 7.0651 2 8.77462V12.6005C1.99999 14.31 1.99997 15.6641 2.14001 16.7238C2.28412 17.8144 2.58777 18.6972 3.27198 19.3933C3.9562 20.0895 4.8238 20.3984 5.89572 20.545C6.93726 20.6875 8.26808 20.6875 9.94826 20.6875H10.0515C11.7317 20.6875 13.0626 20.6875 14.1041 20.545C15.1761 20.3984 16.0437 20.0895 16.7279 19.3933C17.4121 18.6972 17.7157 17.8144 17.8599 16.7238C17.9999 15.6641 17.9999 14.3101 17.9999 12.6006L17.9999 8.3955C18.0005 7.74565 18.001 7.23131 17.8085 6.75834C17.6159 6.28537 17.2581 5.92203 16.8061 5.46295L13.3064 1.90227Z"
    fill="currentColor"
    fill-opacity="0.2"
  />
  <path
    d="M17.9877 7.66418C17.9691 7.33448 17.9228 7.03908 17.8085 6.75826C17.6159 6.28528 17.2581 5.92195 16.806 5.46287L13.3064 1.90219C12.8552 1.44223 12.4981 1.0782 12.0332 0.882283C11.7572 0.76596 11.4669 0.718877 11.1428 0.699951L11.1428 3.29397C11.1428 4.12976 11.1428 4.82671 11.2159 5.37999C11.2931 5.96398 11.4628 6.49123 11.8792 6.91492C12.2957 7.33861 12.8139 7.51133 13.3879 7.58984C13.9316 7.66423 14.6166 7.66421 15.4381 7.66418L17.9877 7.66418Z"
    fill="currentColor"
  />
  <path
    d="M12.6839 11.2912C12.3398 11.0557 11.8739 11.1496 11.6435 11.4993L9.12422 15.3235L7.82638 13.9206C7.54251 13.6137 7.06773 13.5994 6.76653 13.8889C6.46601 14.1776 6.45218 14.6595 6.73541 14.9656L8.07881 16.4179C8.20101 16.5501 8.34164 16.7023 8.47838 16.8131C8.6396 16.9437 8.90635 17.1106 9.26681 17.0802C9.62721 17.0499 9.8634 16.8408 10.0014 16.6851C10.1184 16.553 10.2326 16.3794 10.3319 16.2285L12.8881 12.3483C13.118 11.9993 13.0272 11.5261 12.6839 11.2912Z"
    fill="currentColor"
  />
</svg>
