<svg width="20" height="20" viewBox="0 0 20 20" fill="currentcolor" xmlns="http://www.w3.org/2000/svg">
  <path d="M8.69573 1.0001C9.19147 0.99976 9.58218 0.999494 9.95568 1.10594C10.1591 1.16392 10.3552 1.24508 10.5401 1.34782C10.8796 1.53642 11.1557 1.81263 11.506 2.1631L14.3526 5.00721L14.3829 5.03937C14.3731 5.02836 14.363 5.01763 14.3526 5.00721L14.4384 5.09288C14.9348 5.58787 15.3277 5.97962 15.5391 6.4896C15.7505 6.99957 15.75 7.55413 15.7493 8.25483L15.7492 11.712C15.7492 11.8226 15.7492 11.9311 15.7492 12.0375H6.21074C5.04781 12.0375 4.46635 12.0375 4.10508 12.4086C3.7438 12.7797 3.7438 13.3771 3.7438 14.5718V18.5887C3.64114 18.5435 3.54056 18.4936 3.44179 18.4385C2.67194 18.0085 2.03652 17.3736 1.60617 16.6045C1.27761 16.0172 1.13501 15.3659 1.06672 14.593C0.999989 13.8377 0.999994 12.8979 1 11.712V8.56399C0.999992 7.2695 0.999986 6.24375 1.07899 5.4223C1.15989 4.58117 1.32904 3.87603 1.71762 3.25089C2.10449 2.6285 2.62982 2.10364 3.25276 1.71712C3.87846 1.32888 4.58423 1.15988 5.42612 1.07906C6.24831 1.00012 7.27497 1.00013 8.57062 1.00014L8.69573 1.0001Z" fill="currentcolor" fill-opacity="0.2" />
  <path fill-rule="evenodd" d="M15.7328 7.37416C15.7088 7.0571 15.6565 6.76896 15.5424 6.49381C15.331 5.98384 14.9381 5.59208 14.4417 5.09709L14.3559 5.01143L11.5093 2.16731C11.159 1.81684 10.8829 1.54063 10.5434 1.35203C10.3585 1.24929 10.1624 1.16813 9.95898 1.11015C9.76103 1.05374 9.55826 1.0273 9.33757 1.01495C9.32464 1.0711 9.31669 1.12052 9.31127 1.15904C9.28025 1.37947 9.28034 1.6619 9.28043 1.93793L9.28044 2.75869C9.28041 3.65986 9.28038 4.41133 9.36066 5.0079C9.44539 5.63757 9.63179 6.20607 10.089 6.66291C10.5463 7.11975 11.1153 7.30597 11.7455 7.39063C12.3426 7.47084 13.0948 7.47081 13.9967 7.47078L14.6955 7.47079C14.9608 7.47089 15.2357 7.47098 15.4514 7.44034C15.5203 7.43055 15.6214 7.4128 15.7328 7.37416ZM14.3559 5.01143C14.3663 5.02184 14.3764 5.03257 14.3862 5.04358L14.3559 5.01143Z" fill="currentcolor" />
  <path d="M14.6441 15.8375V16.73C14.6441 17.1071 14.5976 17.4377 14.5044 17.7218C14.4137 18.0034 14.2838 18.2397 14.1147 18.4307C13.9481 18.6192 13.7459 18.7613 13.5081 18.8568C13.2728 18.9523 13.0118 19 12.7251 19C12.4383 19 12.1761 18.9523 11.9383 18.8568C11.703 18.7613 11.4996 18.6192 11.328 18.4307C11.1589 18.2397 11.0278 18.0034 10.9347 17.7218C10.8415 17.4377 10.795 17.1071 10.795 16.73V15.8375C10.795 15.4506 10.8403 15.1127 10.931 14.8237C11.0217 14.5323 11.1528 14.2899 11.3244 14.0964C11.4959 13.9005 11.6994 13.7536 11.9346 13.6557C12.1699 13.5553 12.431 13.5051 12.7177 13.5051C13.0045 13.5051 13.2655 13.5553 13.5008 13.6557C13.7361 13.7536 13.9395 13.9005 14.1111 14.0964C14.2826 14.2899 14.4137 14.5323 14.5044 14.8237C14.5976 15.1127 14.6441 15.4506 14.6441 15.8375ZM13.5743 16.73V15.8301C13.5743 15.5755 13.5559 15.3588 13.5192 15.18C13.4824 14.9988 13.4272 14.8506 13.3537 14.7356C13.2802 14.6205 13.1907 14.536 13.0853 14.4821C12.98 14.4282 12.8574 14.4013 12.7177 14.4013C12.578 14.4013 12.4542 14.4282 12.3464 14.4821C12.241 14.536 12.1515 14.6205 12.078 14.7356C12.0069 14.8506 11.953 14.9988 11.9163 15.18C11.8819 15.3588 11.8648 15.5755 11.8648 15.8301V16.73C11.8648 16.9749 11.8832 17.1843 11.9199 17.3581C11.9567 17.532 12.0118 17.674 12.0854 17.7842C12.1589 17.8944 12.2484 17.9764 12.3537 18.0303C12.4616 18.0817 12.5854 18.1075 12.7251 18.1075C12.8623 18.1075 12.9836 18.0817 13.089 18.0303C13.1969 17.9764 13.2863 17.8944 13.3574 17.7842C13.4285 17.674 13.4824 17.532 13.5192 17.3581C13.5559 17.1843 13.5743 16.9749 13.5743 16.73Z" fill="currentcolor" />
  <path d="M18.541 13.5785H18.23C18.0782 13.5785 18.0023 13.5785 17.9477 13.6215C17.893 13.6645 17.8752 13.7383 17.8397 13.8857L17.362 15.8656C17.2069 16.5083 17.1294 16.8297 16.9712 16.8296C16.813 16.8296 16.7357 16.5081 16.5812 15.8652L16.1054 13.886C16.0699 13.7384 16.0522 13.6646 15.9975 13.6216C15.9428 13.5785 15.8669 13.5785 15.7149 13.5785H15.4142C15.1696 13.5785 15.0473 13.5785 14.9871 13.6585C14.9268 13.7384 14.9606 13.8559 15.0283 14.0907L16.3376 18.6363C16.3778 18.776 16.3979 18.8459 16.4516 18.8862C16.5052 18.9266 16.5779 18.9266 16.7235 18.9266H17.2224C17.3676 18.9266 17.4403 18.9266 17.4938 18.8863C17.5474 18.8461 17.5676 18.7764 17.6081 18.637L18.9267 14.0914C18.9949 13.8563 19.029 13.7387 18.9688 13.6586C18.9086 13.5785 18.7861 13.5785 18.541 13.5785Z" fill="currentcolor" />
  <path d="M5.58747 13.5785C5.39818 13.5785 5.30353 13.5785 5.24472 13.6373C5.18591 13.696 5.18591 13.7906 5.18591 13.9797V18.5254C5.18591 18.7145 5.18591 18.809 5.24472 18.8678C5.30353 18.9266 5.39818 18.9266 5.58747 18.9266H5.82477C6.01407 18.9266 6.10871 18.9266 6.16752 18.8678C6.22633 18.809 6.22633 18.7145 6.22633 18.5254V17.1047L6.16395 15.5302L7.11383 18.6424C7.15563 18.7793 7.17652 18.8478 7.22976 18.8872C7.283 18.9266 7.35464 18.9266 7.49793 18.9266H7.7024C7.84837 18.9266 7.92135 18.9266 7.97506 18.886C8.02876 18.8455 8.04872 18.7754 8.08865 18.6351L9.05341 15.2451L8.98361 17.1047V18.5254C8.98361 18.7145 8.98361 18.809 9.04242 18.8678C9.10123 18.9266 9.19587 18.9266 9.38517 18.9266H9.61879C9.80809 18.9266 9.90274 18.9266 9.96154 18.8678C10.0203 18.809 10.0203 18.7145 10.0203 18.5254V13.9797C10.0203 13.7906 10.0203 13.696 9.96154 13.6373C9.90274 13.5785 9.80809 13.5785 9.61879 13.5785H8.99276C8.84847 13.5785 8.77632 13.5785 8.72291 13.6183C8.66949 13.6582 8.64894 13.7273 8.60784 13.8654L7.98924 15.9451C7.83272 16.4713 7.75445 16.7344 7.60474 16.7345C7.45502 16.7345 7.37652 16.4715 7.21951 15.9454L6.59861 13.8651C6.55742 13.7271 6.53682 13.658 6.48343 13.6183C6.43003 13.5785 6.35795 13.5785 6.2138 13.5785H5.58747Z" fill="currentcolor" />
</svg>
