<svg
  xmlns="http://www.w3.org/2000/svg"
  width="20"
  height="20"
  viewBox="0 0 20 20"
  fill="none"
>
  <path
    d="M8.65983 1.00004C9.15327 0.9997 9.54215 0.999434 9.91391 1.10562C10.1164 1.16347 10.3116 1.24443 10.4956 1.34692C10.8335 1.53507 11.1083 1.81062 11.457 2.16025L14.2903 4.99752L14.3205 5.0296C14.3107 5.01861 14.3007 5.00792 14.2903 4.99752L14.3757 5.08298C14.8698 5.57678 15.2608 5.9676 15.4713 6.47635C15.6817 6.9851 15.6812 7.53832 15.6805 8.23734L15.6804 11.6862C15.6804 11.8588 15.6804 12.0263 15.6802 12.1887H9.40456C8.54044 12.1887 8.10838 12.1887 7.83994 12.559C7.57149 12.9292 7.57149 13.5251 7.57149 14.7169V19C6.72653 18.9976 6.02399 18.9863 5.43428 18.9342C4.66432 18.8661 4.01544 18.724 3.4304 18.3965C2.66414 17.9676 2.03168 17.3342 1.60335 16.5669C1.27631 15.9811 1.13438 15.3313 1.06641 14.5603C0.999989 13.8067 0.999994 12.8692 1 11.6862V8.54575C0.999992 7.25438 0.999986 6.23109 1.07862 5.41161C1.15914 4.5725 1.3275 3.86906 1.71427 3.24542C2.09934 2.62453 2.62222 2.10093 3.24226 1.71533C3.86504 1.32803 4.56751 1.15944 5.40547 1.07881C6.22383 1.00006 7.2457 1.00007 8.53531 1.00008L8.65983 1.00004Z"
    fill="currentColor"
    fill-opacity="0.2"
  />
  <path
    d="M12.6112 18.5997V18.5135C12.6112 18.3248 12.6112 18.2304 12.5527 18.1718C12.4942 18.1132 12.3999 18.1132 12.2115 18.1132H10.4117L12.5192 14.3831C12.5449 14.3375 12.5578 14.3147 12.5644 14.2897C12.571 14.2646 12.571 14.2384 12.571 14.186V14.065C12.571 13.8764 12.571 13.782 12.5124 13.7234C12.4539 13.6648 12.3597 13.6648 12.1713 13.6648H9.5383C9.34988 13.6648 9.25568 13.6648 9.19714 13.7234C9.13861 13.782 9.13861 13.8764 9.13861 14.065V14.155C9.13861 14.3437 9.13861 14.438 9.19714 14.4966C9.25568 14.5552 9.34988 14.5552 9.5383 14.5552H11.3421L9.21383 18.2587C9.18735 18.3048 9.17411 18.3278 9.16734 18.3532C9.16057 18.3786 9.16057 18.4052 9.16057 18.4583V18.5997C9.16057 18.7884 9.16057 18.8827 9.2191 18.9414C9.27763 19 9.37184 19 9.56025 19H12.2115C12.3999 19 12.4942 19 12.5527 18.9414C12.6112 18.8827 12.6112 18.7884 12.6112 18.5997Z"
    fill="currentColor"
  />
  <path
    d="M14.0685 13.6648C14.2569 13.6648 14.3511 13.6648 14.4096 13.7234C14.4682 13.782 14.4682 13.8764 14.4682 14.065V18.5997C14.4682 18.7884 14.4682 18.8827 14.4096 18.9414C14.3511 19 14.2569 19 14.0685 19H13.803C13.6146 19 13.5204 19 13.4619 18.9414C13.4033 18.8827 13.4033 18.7884 13.4033 18.5997V14.065C13.4033 13.8764 13.4033 13.782 13.4619 13.7234C13.5204 13.6648 13.6146 13.6648 13.803 13.6648H14.0685Z"
    fill="currentColor"
  />
  <path
    fill-rule="evenodd"
    clip-rule="evenodd"
    d="M16.5264 17.1202H17.2728C17.6314 17.1202 17.94 17.0506 18.1986 16.9113C18.4572 16.7721 18.6548 16.5767 18.7914 16.3251C18.9305 16.071 19 15.7718 19 15.4273C19 15.0853 18.9305 14.7824 18.7914 14.5186C18.6548 14.2523 18.4572 14.0434 18.1986 13.892C17.94 13.7405 17.6314 13.6648 17.2728 13.6648H15.8575C15.6691 13.6648 15.5749 13.6648 15.5164 13.7234C15.4579 13.782 15.4579 13.8764 15.4579 14.065V18.5997C15.4579 18.7884 15.4579 18.8827 15.5164 18.9414C15.5749 19 15.6691 19 15.8575 19H16.1267C16.3151 19 16.4093 19 16.4678 18.9414C16.5264 18.8827 16.5264 18.7884 16.5264 18.5997V17.1202ZM17.2728 16.2298H16.5264V14.9555C16.5264 14.7668 16.5264 14.6724 16.5849 14.6138C16.6434 14.5552 16.7376 14.5552 16.926 14.5552H17.2728C17.4265 14.5552 17.5497 14.5967 17.6424 14.6798C17.7376 14.7629 17.8071 14.8716 17.851 15.0059C17.8973 15.1378 17.9205 15.2807 17.9205 15.4346C17.9205 15.5861 17.8986 15.7229 17.8547 15.845C17.8107 15.9647 17.74 16.0588 17.6424 16.1272C17.5473 16.1956 17.4241 16.2298 17.2728 16.2298Z"
    fill="currentColor"
  />
  <path
    fill-rule="evenodd"
    clip-rule="evenodd"
    d="M15.6641 7.35881C15.6402 7.04251 15.5881 6.75507 15.4746 6.48058C15.2641 5.97184 14.8731 5.58102 14.379 5.08722L14.2936 5.00176L11.4603 2.16448C11.1116 1.81485 10.8368 1.5393 10.4989 1.35116C10.3149 1.24867 10.1197 1.16771 9.91719 1.10986C9.72017 1.05358 9.51834 1.02721 9.29869 1.01489C9.28582 1.0709 9.27791 1.12021 9.27251 1.15863C9.24163 1.37854 9.24172 1.66029 9.24181 1.93565L9.24182 2.75444C9.24179 3.65345 9.24176 4.40311 9.32167 4.99824C9.40601 5.6264 9.59153 6.19354 10.0466 6.64928C10.5018 7.10501 11.0681 7.29079 11.6954 7.37525C12.2897 7.45526 13.0384 7.45524 13.9361 7.45521L14.6316 7.45522C14.8957 7.45531 15.1693 7.4554 15.384 7.42483C15.4526 7.41507 15.5532 7.39737 15.6641 7.35881ZM14.2936 5.00176C14.304 5.01215 14.314 5.02285 14.3238 5.03384L14.2936 5.00176Z"
    fill="currentColor"
  />
</svg>
