<svg
  xmlns="http://www.w3.org/2000/svg"
  width="20"
  height="20"
  viewBox="0 0 20 20"
  fill="none"
>
  <path
    d="M8.69574 1.00004C9.19149 0.999699 9.58219 0.999432 9.95569 1.10588C10.1591 1.16386 10.3553 1.24502 10.5402 1.34775C10.8796 1.53636 11.1557 1.81257 11.506 2.16304L14.3526 5.00715L14.3829 5.03931C14.3731 5.0283 14.363 5.01757 14.3526 5.00715L14.4384 5.09282C14.9348 5.58781 15.3277 5.97956 15.5391 6.48954C15.7505 6.99951 15.75 7.55407 15.7493 8.25477L15.7493 11.7119C15.7493 11.8225 15.7493 11.931 15.7492 12.0374H6.21075C5.04783 12.0374 4.46637 12.0374 4.10509 12.4085C3.74382 12.7797 3.74382 13.377 3.74382 14.5717V18.5887C3.64115 18.5435 3.54057 18.4936 3.4418 18.4384C2.67195 18.0084 2.03653 17.3736 1.60619 16.6044C1.27762 16.0172 1.13502 15.3658 1.06674 14.593C1 13.8376 1.00001 12.8978 1.00002 11.7119V8.56393C1.00001 7.26944 1 6.24369 1.07901 5.42224C1.15991 4.58111 1.32905 3.87597 1.71764 3.25083C2.10451 2.62844 2.62983 2.10358 3.25278 1.71705C3.87848 1.32882 4.58425 1.15982 5.42613 1.079C6.24832 1.00006 7.27499 1.00007 8.57064 1.00008L8.69574 1.00004Z"
    fill="currentColor"
    fill-opacity="0.2"
  />
  <path
    fill-rule="evenodd"
    clip-rule="evenodd"
    d="M15.7328 7.3741C15.7088 7.05703 15.6565 6.7689 15.5424 6.49375C15.331 5.98378 14.9381 5.59202 14.4417 5.09703L14.3559 5.01136L11.5093 2.16725C11.159 1.81678 10.8829 1.54057 10.5435 1.35197C10.3586 1.24923 10.1624 1.16807 9.95899 1.11009C9.76105 1.05368 9.55827 1.02724 9.33759 1.01489C9.32466 1.07104 9.31671 1.12046 9.31129 1.15898C9.28026 1.37941 9.28035 1.66184 9.28044 1.93787L9.28045 2.75863C9.28042 3.6598 9.2804 4.41127 9.36067 5.00783C9.44541 5.63751 9.6318 6.20601 10.089 6.66285C10.5463 7.11969 11.1153 7.30591 11.7455 7.39057C12.3426 7.47078 13.0948 7.47075 13.9968 7.47072L14.6955 7.47073C14.9608 7.47082 15.2357 7.47092 15.4514 7.44028C15.5203 7.43049 15.6214 7.41274 15.7328 7.3741ZM14.3559 5.01136C14.3663 5.02178 14.3764 5.03251 14.3862 5.04352L14.3559 5.01136Z"
    fill="currentColor"
  />
  <path
    d="M14.6441 15.8374V16.73C14.6441 17.1071 14.5976 17.4377 14.5044 17.7217C14.4138 18.0033 14.2839 18.2396 14.1147 18.4306C13.9481 18.6192 13.7459 18.7612 13.5081 18.8567C13.2729 18.9522 13.0118 19 12.7251 19C12.4383 19 12.1761 18.9522 11.9383 18.8567C11.703 18.7612 11.4996 18.6192 11.3281 18.4306C11.1589 18.2396 11.0278 18.0033 10.9347 17.7217C10.8415 17.4377 10.795 17.1071 10.795 16.73V15.8374C10.795 15.4505 10.8403 15.1126 10.931 14.8236C11.0217 14.5322 11.1528 14.2898 11.3244 14.0964C11.4959 13.9005 11.6994 13.7536 11.9347 13.6556C12.1699 13.5552 12.431 13.505 12.7177 13.505C13.0045 13.505 13.2655 13.5552 13.5008 13.6556C13.7361 13.7536 13.9395 13.9005 14.1111 14.0964C14.2826 14.2898 14.4138 14.5322 14.5044 14.8236C14.5976 15.1126 14.6441 15.4505 14.6441 15.8374ZM13.5743 16.73V15.8301C13.5743 15.5754 13.5559 15.3587 13.5192 15.1799C13.4824 14.9987 13.4273 14.8506 13.3537 14.7355C13.2802 14.6204 13.1908 14.5359 13.0854 14.482C12.98 14.4282 12.8574 14.4012 12.7177 14.4012C12.578 14.4012 12.4542 14.4282 12.3464 14.482C12.241 14.5359 12.1516 14.6204 12.078 14.7355C12.007 14.8506 11.953 14.9987 11.9163 15.1799C11.882 15.3587 11.8648 15.5754 11.8648 15.8301V16.73C11.8648 16.9749 11.8832 17.1842 11.9199 17.3581C11.9567 17.5319 12.0119 17.674 12.0854 17.7842C12.1589 17.8944 12.2484 17.9764 12.3538 18.0303C12.4616 18.0817 12.5854 18.1074 12.7251 18.1074C12.8623 18.1074 12.9836 18.0817 13.089 18.0303C13.1969 17.9764 13.2863 17.8944 13.3574 17.7842C13.4285 17.674 13.4824 17.5319 13.5192 17.3581C13.5559 17.1842 13.5743 16.9749 13.5743 16.73Z"
    fill="currentColor"
  />
  <path
    d="M18.5411 13.5785H18.2301C18.0783 13.5785 18.0024 13.5785 17.9477 13.6215C17.893 13.6645 17.8753 13.7382 17.8397 13.8857L17.362 15.8655C17.2069 16.5083 17.1294 16.8296 16.9712 16.8296C16.813 16.8295 16.7357 16.5081 16.5812 15.8652L16.1054 13.886C16.0699 13.7384 16.0522 13.6646 15.9975 13.6215C15.9428 13.5785 15.8669 13.5785 15.715 13.5785H15.4142C15.1696 13.5785 15.0473 13.5785 14.9871 13.6584C14.9268 13.7384 14.9607 13.8558 15.0283 14.0906L16.3376 18.6362C16.3778 18.776 16.3979 18.8458 16.4516 18.8862C16.5052 18.9265 16.578 18.9265 16.7235 18.9265H17.2224C17.3676 18.9265 17.4403 18.9265 17.4939 18.8863C17.5474 18.8461 17.5677 18.7764 17.6081 18.637L18.9267 14.0914C18.995 13.8562 19.0291 13.7387 18.9688 13.6586C18.9086 13.5785 18.7861 13.5785 18.5411 13.5785Z"
    fill="currentColor"
  />
  <path
    d="M5.58749 13.5785C5.39819 13.5785 5.30354 13.5785 5.24474 13.6372C5.18593 13.696 5.18593 13.7905 5.18593 13.9797V18.5253C5.18593 18.7144 5.18593 18.809 5.24474 18.8677C5.30354 18.9265 5.39819 18.9265 5.58749 18.9265H5.82478C6.01408 18.9265 6.10873 18.9265 6.16754 18.8677C6.22634 18.809 6.22634 18.7144 6.22634 18.5253V17.1046L6.16396 15.5302L7.11385 18.6423C7.15564 18.7793 7.17654 18.8477 7.22978 18.8871C7.28302 18.9265 7.35466 18.9265 7.49794 18.9265H7.70241C7.84838 18.9265 7.92137 18.9265 7.97507 18.886C8.02878 18.8454 8.04874 18.7753 8.08866 18.635L9.05342 15.2451L8.98363 17.1046V18.5253C8.98363 18.7144 8.98363 18.809 9.04243 18.8677C9.10124 18.9265 9.19589 18.9265 9.38519 18.9265H9.61881C9.8081 18.9265 9.90275 18.9265 9.96156 18.8677C10.0204 18.809 10.0204 18.7144 10.0204 18.5253V13.9797C10.0204 13.7905 10.0204 13.696 9.96156 13.6372C9.90275 13.5785 9.8081 13.5785 9.61881 13.5785H8.99277C8.84848 13.5785 8.77634 13.5785 8.72292 13.6183C8.66951 13.6581 8.64895 13.7272 8.60785 13.8654L7.98926 15.945C7.83273 16.4712 7.75447 16.7343 7.60475 16.7344C7.45504 16.7345 7.37653 16.4714 7.21952 15.9454L6.59863 13.865C6.55743 13.727 6.53683 13.658 6.48344 13.6182C6.43005 13.5785 6.35797 13.5785 6.21381 13.5785H5.58749Z"
    fill="currentColor"
  />
</svg>
