<svg
  xmlns="http://www.w3.org/2000/svg"
  width="20"
  height="20"
  viewBox="0 0 20 20"
  fill="none"
>
  <path
    d="M8.64889 1.00516C9.14254 1.00483 9.53158 1.00456 9.9035 1.11072C10.1061 1.16855 10.3014 1.24948 10.4855 1.35194C10.8235 1.54003 11.0984 1.8155 11.4472 2.16502L14.2817 5.00143L14.3119 5.0335C14.3022 5.02252 14.2921 5.01183 14.2817 5.00143L14.3672 5.08686C14.8615 5.58052 15.2527 5.97121 15.4632 6.47981C15.6737 6.9884 15.6732 7.54146 15.6725 8.24026L15.6725 11.688C15.6725 11.8497 15.6725 12.0068 15.6723 12.1594H6.85942C5.76533 12.1594 5.21828 12.1594 4.87839 12.5296C4.53849 12.8997 4.53849 13.4954 4.53849 14.6869V18.8066C4.13429 18.7196 3.76453 18.5906 3.41726 18.3963C2.65068 17.9675 2.01795 17.3344 1.58944 16.5673C1.26227 15.9816 1.12027 15.3321 1.05228 14.5613C0.985828 13.808 0.985834 12.8707 0.98584 11.688V8.54858C0.985832 7.2576 0.985826 6.23463 1.0645 5.4154C1.14505 4.57654 1.31348 3.87331 1.70041 3.24986C2.08564 2.62916 2.60874 2.10572 3.22904 1.72024C3.85208 1.33306 4.55485 1.16452 5.39317 1.08391C6.21186 1.00519 7.23417 1.00519 8.52432 1.0052L8.64889 1.00516Z"
    fill="currentColor"
    fill-opacity="0.2"
  />
  <path
    fill-rule="evenodd"
    clip-rule="evenodd"
    d="M15.6561 7.36201C15.6322 7.04581 15.5801 6.75846 15.4665 6.48405C15.256 5.97545 14.8648 5.58476 14.3705 5.09111L14.285 5.00567L11.4505 2.16926C11.1017 1.81974 10.8268 1.54427 10.4888 1.35618C10.3046 1.25372 10.1094 1.17279 9.90678 1.11496C9.70967 1.0587 9.50776 1.03233 9.28801 1.02002C9.27514 1.07601 9.26722 1.1253 9.26182 1.16372C9.23093 1.38355 9.23102 1.66522 9.23111 1.9405L9.23112 2.75903C9.23109 3.65777 9.23106 4.4072 9.311 5.00215C9.39537 5.63013 9.58098 6.19709 10.0363 6.65269C10.4916 7.10829 11.0582 7.29401 11.6857 7.37844C12.2803 7.45843 13.0293 7.45841 13.9274 7.45838L14.6232 7.45838C14.8874 7.45848 15.1611 7.45857 15.3759 7.42801C15.4445 7.41825 15.5451 7.40055 15.6561 7.36201ZM14.285 5.00567C14.2954 5.01606 14.3055 5.02676 14.3152 5.03774L14.285 5.00567Z"
    fill="currentColor"
  />
  <path
    fill-rule="evenodd"
    clip-rule="evenodd"
    d="M18.9858 17.2248V17.6241C18.9858 17.6492 18.9858 17.6618 18.9847 17.6724C18.9747 17.7661 18.9007 17.8401 18.8071 17.8501C18.7965 17.8512 18.784 17.8512 18.7589 17.8512C18.7337 17.8512 18.7212 17.8512 18.7106 17.8524C18.617 17.8623 18.543 17.9364 18.533 18.0301C18.5319 18.0407 18.5319 18.0532 18.5319 18.0783V18.605C18.5319 18.7936 18.5319 18.8879 18.4733 18.9465C18.4148 19.0051 18.3205 19.0051 18.132 19.0051H17.9031C17.7146 19.0051 17.6203 19.0051 17.5618 18.9465C17.5032 18.8879 17.5032 18.7936 17.5032 18.605V18.2513C17.5032 18.0627 17.5032 17.9684 17.4447 17.9098C17.3861 17.8512 17.2919 17.8512 17.1034 17.8512H16.1039C15.9272 17.8512 15.8389 17.8512 15.7814 17.7976C15.7238 17.7439 15.7175 17.6558 15.705 17.4795L15.6918 17.293C15.6878 17.2373 15.6858 17.2094 15.6914 17.1824C15.6969 17.1554 15.7098 17.1306 15.7354 17.081L17.3841 13.888C17.4385 13.7826 17.4658 13.7299 17.5137 13.7008C17.5615 13.6716 17.6208 13.6716 17.7394 13.6716H18.132C18.3205 13.6716 18.4148 13.6716 18.4733 13.7302C18.5319 13.7888 18.5319 13.8831 18.5319 14.0717V16.7706C18.5319 16.7957 18.5319 16.8083 18.533 16.8189C18.543 16.9126 18.617 16.9866 18.7106 16.9966C18.7212 16.9977 18.7337 16.9977 18.7589 16.9977C18.784 16.9977 18.7965 16.9977 18.8071 16.9988C18.9007 17.0088 18.9747 17.0829 18.9847 17.1766C18.9858 17.1871 18.9858 17.1997 18.9858 17.2248ZM17.4776 15.2321L16.8895 16.5453C16.8216 16.6969 16.7877 16.7726 16.7989 16.8338C16.8085 16.8861 16.8385 16.9324 16.8822 16.9625C16.9334 16.9977 17.0164 16.9977 17.1823 16.9977C17.2953 16.9977 17.3517 16.9977 17.3948 16.9756C17.4318 16.9565 17.462 16.9263 17.4811 16.8892C17.5032 16.8461 17.5032 16.7896 17.5032 16.6766V15.2385C17.5032 15.2243 17.4843 15.2196 17.4776 15.2321Z"
    fill="currentColor"
  />
  <path
    fill-rule="evenodd"
    clip-rule="evenodd"
    d="M12.4666 19.0051H12.1974C12.0089 19.0051 11.9147 19.0051 11.8561 18.9465C11.7975 18.8879 11.7975 18.7936 11.7975 18.605V14.0717C11.7975 13.8831 11.7975 13.7888 11.8561 13.7302C11.9147 13.6716 12.0089 13.6716 12.1974 13.6716H13.6133C13.972 13.6716 14.2808 13.7473 14.5395 13.8987C14.7982 14.0501 14.9958 14.2589 15.1325 14.5251C15.2716 14.7888 15.3412 15.0917 15.3412 15.4335C15.3412 15.7779 15.2716 16.077 15.1325 16.331C14.9958 16.5826 14.7982 16.7779 14.5395 16.9171C14.2808 17.0563 13.972 17.1259 13.6133 17.1259H13.2663C13.0778 17.1259 12.9836 17.1259 12.925 17.1845C12.8665 17.2431 12.8665 17.3374 12.8665 17.526V18.605C12.8665 18.7936 12.8665 18.8879 12.8079 18.9465C12.7494 19.0051 12.6551 19.0051 12.4666 19.0051ZM13.6133 16.2358C13.7646 16.2358 13.8878 16.2016 13.983 16.1332C14.0806 16.0648 14.1514 15.9708 14.1953 15.8511C14.2393 15.729 14.2612 15.5923 14.2612 15.4409C14.2612 15.287 14.2381 15.1442 14.1917 15.0123C14.1478 14.878 14.0782 14.7693 13.983 14.6863C13.8903 14.6032 13.767 14.5617 13.6133 14.5617H13.2663C13.0778 14.5617 12.9836 14.5617 12.925 14.6203C12.8665 14.6789 12.8665 14.7732 12.8665 14.9618V15.8357C12.8665 16.0243 12.8665 16.1186 12.925 16.1772C12.9836 16.2358 13.0778 16.2358 13.2663 16.2358H13.6133Z"
    fill="currentColor"
  />
  <path
    d="M6.43364 13.6716C6.24514 13.6716 6.1509 13.6716 6.09234 13.7302C6.03378 13.7888 6.03378 13.8831 6.03378 14.0717V18.605C6.03378 18.7936 6.03378 18.8879 6.09234 18.9465C6.1509 19.0051 6.24514 19.0051 6.43364 19.0051H6.66993C6.85842 19.0051 6.95267 19.0051 7.01122 18.9465C7.06978 18.8879 7.06978 18.7936 7.06978 18.605V17.1882L7.00767 15.618L7.95352 18.7217C7.99513 18.8583 8.01594 18.9266 8.06896 18.9658C8.12197 19.0051 8.19331 19.0051 8.33598 19.0051H8.53958C8.68493 19.0051 8.75761 19.0051 8.81109 18.9647C8.86456 18.9243 8.88444 18.8543 8.92419 18.7144L9.88486 15.3337L9.81536 17.1882V18.605C9.81536 18.7936 9.81536 18.8879 9.87391 18.9465C9.93247 19.0051 10.0267 19.0051 10.2152 19.0051H10.4478C10.6363 19.0051 10.7306 19.0051 10.7891 18.9465C10.8477 18.8879 10.8477 18.7936 10.8477 18.605V14.0717C10.8477 13.8831 10.8477 13.7888 10.7891 13.7302C10.7306 13.6716 10.6363 13.6716 10.4478 13.6716H9.82446C9.68079 13.6716 9.60895 13.6716 9.55576 13.7113C9.50257 13.751 9.48211 13.8199 9.44118 13.9577L8.82521 16.0317C8.66935 16.5565 8.59142 16.8189 8.44234 16.819C8.29326 16.819 8.21509 16.5567 8.05874 16.0321L7.44048 13.9574C7.39946 13.8197 7.37895 13.7509 7.32579 13.7112C7.27262 13.6716 7.20085 13.6716 7.0573 13.6716H6.43364Z"
    fill="currentColor"
  />
</svg>
