<svg width="20" height="20" viewBox="0 0 20 20" fill="currentcolor" xmlns="http://www.w3.org/2000/svg">
  <path d="M13.3064 1.21477C12.8552 0.754808 12.4981 0.390778 12.0332 0.194866C11.5684 -0.00104614 11.0629 -0.000553505 10.4242 6.8874e-05L9.94835 0.0001399C8.26813 0.000125152 6.93728 0.000113398 5.89572 0.14259C4.8238 0.28922 3.9562 0.598164 3.27198 1.29431C2.58777 1.99046 2.28412 2.87319 2.14001 3.96381C1.99997 5.02354 1.99999 6.3776 2 8.08712V11.913C1.99999 13.6225 1.99997 14.9766 2.14001 16.0363C2.28412 17.1269 2.58777 18.0097 3.27198 18.7058C3.9562 19.402 4.8238 19.7109 5.89572 19.8575C6.93726 20 8.26808 20 9.94826 20H10.0515C11.7317 20 13.0626 20 14.1041 19.8575C15.1761 19.7109 16.0437 19.402 16.7279 18.7058C17.4121 18.0097 17.7157 17.1269 17.8599 16.0363C17.9999 14.9766 17.9999 13.6226 17.9999 11.9131L17.9999 7.708C18.0005 7.05815 18.001 6.54381 17.8085 6.07084C17.6159 5.59787 17.2581 5.23453 16.8061 4.77545L13.3064 1.21477Z" fill="currentcolor" fill-opacity="0.2" />
  <path d="M17.9423 6.55193C17.9139 6.3849 17.8715 6.2256 17.8085 6.07074C17.6159 5.59777 17.2581 5.23444 16.806 4.77536L13.3064 1.21468C12.8552 0.754713 12.4981 0.390683 12.0332 0.19477C11.8803 0.130341 11.7231 0.0871539 11.5581 0.0582275L11.5581 2.39181C11.5581 3.1874 11.5581 3.85086 11.6277 4.37754C11.7011 4.93346 11.8627 5.43537 12.2591 5.83869C12.6555 6.24201 13.1488 6.40642 13.6952 6.48116C14.2129 6.55198 14.8649 6.55195 15.6469 6.55193L17.9423 6.55193Z" fill="currentcolor" />
  <path fill-rule="evenodd" d="M6.80261 9.77637C7.20222 9.66738 7.61453 9.90299 7.72352 10.3026L8.49994 13.1495L9.27637 10.3026C9.36536 9.97631 9.66173 9.74994 9.99994 9.74994C10.3382 9.74994 10.6345 9.97631 10.7235 10.3026L11.4999 13.1495L12.2764 10.3026C12.3854 9.90299 12.7977 9.66738 13.1973 9.77637C13.5969 9.88536 13.8325 10.2977 13.7235 10.6973L12.2235 16.1973C12.1345 16.5236 11.8382 16.7499 11.4999 16.7499C11.1617 16.7499 10.8654 16.5236 10.7764 16.1973L9.99994 13.3504L9.22352 16.1973C9.13453 16.5236 8.83816 16.7499 8.49994 16.7499C8.16173 16.7499 7.86536 16.5236 7.77637 16.1973L6.27637 10.6973C6.16738 10.2977 6.40299 9.88536 6.80261 9.77637Z" fill="currentcolor" />
</svg>
