<svg
  xmlns="http://www.w3.org/2000/svg"
  width="20"
  height="20"
  viewBox="0 0 20 20"
  fill="none"
>
  <path
    d="M8.66488 1.00004C9.1587 0.9997 9.54789 0.999434 9.91994 1.10564C10.1226 1.16349 10.318 1.24446 10.5021 1.34696C10.8403 1.53514 11.1153 1.81072 11.4642 2.1604L14.2998 4.99804L14.33 5.03012C14.3202 5.01914 14.3102 5.00844 14.2998 4.99804L14.3853 5.08351C14.8797 5.57738 15.2711 5.96824 15.4817 6.47706C15.6923 6.98587 15.6918 7.53917 15.6911 8.23828L15.691 11.6875C15.691 11.8273 15.691 11.9636 15.6909 12.0966H7.11169C6.03757 12.0966 5.50051 12.0966 5.16682 12.4669C4.83313 12.8372 4.83313 13.4332 4.83313 14.6251V18.8622C4.31731 18.7773 3.85741 18.6371 3.43133 18.3988C2.66447 17.9698 2.03152 17.3364 1.60284 16.5689C1.27555 15.983 1.13351 15.3332 1.06549 14.562C0.999012 13.8084 0.999017 12.8708 0.999024 11.6876V8.54673C0.999016 7.25519 0.99901 6.23177 1.07771 5.41219C1.15829 4.57296 1.32679 3.86943 1.71386 3.24571C2.09923 2.62474 2.62252 2.10107 3.24304 1.71542C3.86631 1.32807 4.56934 1.15946 5.40796 1.07882C6.22696 1.00006 7.24964 1.00007 8.54026 1.00008L8.66488 1.00004Z"
    fill="currentColor"
    fill-opacity="0.2"
  />
  <path
    fill-rule="evenodd"
    clip-rule="evenodd"
    d="M15.6745 7.35964C15.6507 7.0433 15.5985 6.75582 15.4849 6.48129C15.2743 5.97248 14.8829 5.58161 14.3885 5.08775L14.3029 5.00228L11.4674 2.16463C11.1184 1.81496 10.8434 1.53937 10.5053 1.3512C10.3211 1.2487 10.1258 1.16772 9.92312 1.10987C9.72594 1.05359 9.52395 1.02721 9.30413 1.01489C9.29125 1.07091 9.28333 1.12022 9.27793 1.15865C9.24702 1.37858 9.24711 1.66037 9.2472 1.93577L9.24721 2.75466C9.24718 3.65379 9.24716 4.40355 9.32712 4.99876C9.41153 5.627 9.5972 6.19421 10.0527 6.65001C10.5081 7.10581 11.0749 7.29161 11.7027 7.37607C12.2975 7.4561 13.0467 7.45607 13.9452 7.45604L14.6412 7.45605C14.9055 7.45615 15.1793 7.45624 15.3942 7.42567C15.4629 7.4159 15.5635 7.3982 15.6745 7.35964ZM14.3029 5.00228C14.3133 5.01267 14.3234 5.02337 14.3332 5.03436L14.3029 5.00228Z"
    fill="currentColor"
  />
  <path
    d="M18.601 16.1588C18.7895 16.1588 18.8838 16.1588 18.9424 16.2174C19.001 16.276 19.001 16.3703 19.001 16.559V18.1682C19.001 18.2483 19.001 18.2883 18.983 18.3279C18.9649 18.3675 18.9387 18.3903 18.8862 18.4359C18.8264 18.4879 18.7551 18.5443 18.6724 18.605C18.5304 18.7086 18.3438 18.8001 18.1127 18.8796C17.8841 18.9567 17.6048 18.9952 17.275 18.9952C16.9838 18.9952 16.719 18.9495 16.4807 18.8579C16.2448 18.7664 16.0414 18.6279 15.8705 18.4424C15.702 18.2545 15.5732 18.0208 15.4841 17.7414C15.3951 17.4596 15.3505 17.1259 15.3505 16.7405V15.8444C15.3505 15.4638 15.3926 15.1326 15.4769 14.8507C15.5636 14.5665 15.6887 14.3304 15.8524 14.1425C16.0161 13.9546 16.2111 13.8149 16.4374 13.7234C16.666 13.6318 16.9236 13.5861 17.2101 13.5861C17.6048 13.5861 17.9286 13.6523 18.1813 13.7848C18.4365 13.9173 18.6291 14.1136 18.7591 14.3738C18.8385 14.5299 18.8989 14.7074 18.9402 14.9061C18.9787 15.0911 18.9979 15.1836 18.9379 15.2575C18.8779 15.3313 18.7747 15.3313 18.5684 15.3313H18.3462C18.1834 15.3313 18.102 15.3313 18.0481 15.29C17.9943 15.2487 17.9689 15.1542 17.9181 14.9653C17.9026 14.9076 17.8844 14.8562 17.8636 14.811C17.8082 14.6857 17.73 14.5966 17.6289 14.5436C17.5278 14.4882 17.3966 14.4605 17.2353 14.4605C17.0957 14.4605 16.9741 14.4858 16.8706 14.5364C16.7671 14.5845 16.6805 14.664 16.6107 14.7748C16.5409 14.8857 16.4891 15.0278 16.4554 15.2012C16.4217 15.3747 16.4049 15.5866 16.4049 15.8372V16.7405C16.4049 16.9886 16.4241 17.2006 16.4626 17.3764C16.5011 17.5523 16.5577 17.6956 16.6323 17.8064C16.7094 17.9172 16.8056 17.9979 16.9212 18.0485C17.0391 18.0967 17.1776 18.1208 17.3364 18.1208C17.464 18.1208 17.5663 18.1075 17.6433 18.081C17.7204 18.0546 17.7818 18.0269 17.8275 17.9979C17.8509 17.9827 17.8626 17.9751 17.8691 17.97C17.9172 17.9327 17.9409 17.8891 17.946 17.8284C17.9466 17.8201 17.9466 17.8088 17.9466 17.7862V17.3349C17.9466 17.1682 17.9466 17.0848 17.9001 17.0291C17.8925 17.0199 17.884 17.0115 17.8749 17.0039C17.8192 16.9573 17.7359 16.9573 17.5693 16.9573C17.4027 16.9573 17.3194 16.9573 17.2637 16.9107C17.2546 16.9031 17.2462 16.8947 17.2386 16.8855C17.192 16.8298 17.192 16.7464 17.192 16.5797V16.558C17.192 16.3703 17.192 16.2765 17.25 16.2179L17.2511 16.2168C17.3096 16.1588 17.4034 16.1588 17.591 16.1588H18.601Z"
    fill="currentColor"
  />
  <path
    d="M14.0285 13.6641C14.217 13.6641 14.3113 13.6641 14.3699 13.7227C14.4285 13.7814 14.4285 13.8757 14.4285 14.0644V18.5997C14.4285 18.7884 14.4285 18.8827 14.3699 18.9414C14.3113 19 14.217 19 14.0285 19H13.6389C13.5188 19 13.4588 19 13.4105 18.9702C13.3622 18.9403 13.3353 18.8866 13.2814 18.7792L12.476 17.1726C12.1762 16.5745 12.0263 16.2755 11.8724 16.312C11.7185 16.3485 11.7185 16.683 11.7185 17.3521V18.5997C11.7185 18.7884 11.7185 18.8827 11.6599 18.9414C11.6013 19 11.5071 19 11.3185 19H11.1004C10.9119 19 10.8176 19 10.759 18.9414C10.7004 18.8827 10.7004 18.7884 10.7004 18.5997V14.0644C10.7004 13.8757 10.7004 13.7814 10.759 13.7227C10.8176 13.6641 10.9119 13.6641 11.1004 13.6641H11.4751C11.5953 13.6641 11.6554 13.6641 11.7037 13.694C11.752 13.7239 11.779 13.7777 11.8328 13.8852L12.6527 15.5245C12.9525 16.1239 13.1024 16.4235 13.2564 16.3871C13.4104 16.3507 13.4104 16.0156 13.4104 15.3453V14.0644C13.4104 13.8757 13.4104 13.7814 13.469 13.7227C13.5276 13.6641 13.6218 13.6641 13.8104 13.6641H14.0285Z"
    fill="currentColor"
  />
  <path
    fill-rule="evenodd"
    clip-rule="evenodd"
    d="M8.27246 17.0419H7.52539V18.5216C7.52539 18.7103 7.52539 18.8047 7.46681 18.8633C7.40823 18.9219 7.31395 18.9219 7.12539 18.9219H6.85605C6.66749 18.9219 6.57321 18.9219 6.51463 18.8633C6.45605 18.8047 6.45605 18.7103 6.45605 18.5216V13.9864C6.45605 13.7977 6.45605 13.7033 6.51463 13.6447C6.57321 13.5861 6.66749 13.5861 6.85605 13.5861H8.27246C8.63135 13.5861 8.94019 13.6618 9.19897 13.8133C9.45776 13.9648 9.65552 14.1736 9.79224 14.4399C9.9314 14.7038 10.001 15.0068 10.001 15.3488C10.001 15.6933 9.9314 15.9926 9.79224 16.2467C9.65552 16.4983 9.45776 16.6938 9.19897 16.833C8.94019 16.9723 8.63135 17.0419 8.27246 17.0419ZM7.52539 16.1514H8.27246C8.42383 16.1514 8.54712 16.1172 8.64233 16.0488C8.73999 15.9804 8.81079 15.8863 8.85474 15.7666C8.89868 15.6444 8.92065 15.5076 8.92065 15.3561C8.92065 15.2022 8.89746 15.0593 8.85107 14.9274C8.80713 14.793 8.73755 14.6843 8.64233 14.6012C8.54956 14.5181 8.42627 14.4766 8.27246 14.4766H7.92539C7.73683 14.4766 7.64255 14.4766 7.58397 14.5352C7.52539 14.5938 7.52539 14.6882 7.52539 14.8769V16.1514Z"
    fill="currentColor"
  />
</svg>
