<svg width="20" height="20" viewBox="0 0 20 20" fill="currentcolor" xmlns="http://www.w3.org/2000/svg">
  <path d="M8.66871 1.00004C9.16271 0.9997 9.55205 0.999434 9.92424 1.10559C10.127 1.16342 10.3224 1.24436 10.5066 1.34681C10.8449 1.5349 11.12 1.81037 11.4691 2.15989L14.3057 4.99631L14.3359 5.02837C14.3262 5.01739 14.3161 5.0067 14.3057 4.99631L14.3912 5.08174C14.8859 5.57539 15.2774 5.96609 15.488 6.47468C15.6987 6.98327 15.6982 7.53633 15.6975 8.23514L15.6975 11.6829C15.6975 11.8226 15.6975 11.9589 15.6973 12.0918H8.03228C7.04243 12.0918 6.54751 12.0918 6.24 12.4619C5.9325 12.8321 5.9325 13.4278 5.9325 14.6192V18.9621C5.75986 18.9534 5.59568 18.9425 5.43942 18.9287C4.66857 18.8607 4.01893 18.7186 3.43321 18.3912C2.66607 17.9624 2.03288 17.3293 1.60404 16.5622C1.27663 15.9765 1.13453 15.3269 1.06649 14.5562C0.999989 13.8028 0.999994 12.8656 1 11.6829V8.54346C0.999992 7.25247 0.999986 6.2295 1.07871 5.41027C1.15933 4.57141 1.32788 3.86818 1.7151 3.24473C2.10061 2.62403 2.6241 2.10059 3.24485 1.71511C3.86836 1.32793 4.57165 1.15939 5.41058 1.07878C6.22988 1.00006 7.25294 1.00007 8.54404 1.00008L8.66871 1.00004Z" fill="currentcolor" fill-opacity="0.2" />
  <path fill-rule="evenodd" d="M15.6811 7.35688C15.6572 7.04068 15.605 6.75333 15.4913 6.47892C15.2807 5.97033 14.8892 5.57963 14.3945 5.08598L14.309 5.00055L11.4724 2.16413C11.1233 1.81461 10.8482 1.53914 10.5099 1.35105C10.3257 1.2486 10.1303 1.16766 9.92753 1.10983C9.73028 1.05357 9.52822 1.0272 9.30831 1.01489C9.29543 1.07089 9.2875 1.12018 9.2821 1.15859C9.25119 1.37843 9.25128 1.66009 9.25137 1.93537L9.25137 2.75391C9.25135 3.65264 9.25132 4.40208 9.33132 4.99703C9.41575 5.625 9.60149 6.19196 10.0571 6.64756C10.5128 7.10316 11.0798 7.28889 11.7078 7.37331C12.3028 7.4533 13.0523 7.45328 13.9511 7.45325L14.6474 7.45326C14.9118 7.45335 15.1857 7.45344 15.4007 7.42288C15.4694 7.41312 15.5701 7.39542 15.6811 7.35688ZM14.309 5.00055C14.3194 5.01094 14.3295 5.02163 14.3392 5.03261L14.309 5.00055Z" fill="currentcolor" />
  <path d="M17.9446 17.5435C17.9446 17.4495 17.9361 17.364 17.9193 17.2869C17.9024 17.2098 17.8663 17.1387 17.8108 17.0736C17.7578 17.0086 17.6795 16.9435 17.5759 16.8785C17.4747 16.8134 17.3422 16.746 17.1783 16.6761C16.9831 16.5942 16.794 16.5074 16.6108 16.4159C16.4277 16.3219 16.2626 16.2135 16.1156 16.0906C15.9686 15.9677 15.8518 15.8231 15.765 15.6569C15.6807 15.4882 15.6385 15.2906 15.6385 15.0642C15.6385 14.8425 15.6783 14.6413 15.7578 14.4606C15.8397 14.2799 15.9554 14.1257 16.1048 13.998C16.2542 13.8679 16.4289 13.7679 16.6289 13.698C16.8313 13.6281 17.0566 13.5932 17.3048 13.5932C17.6422 13.5932 17.9337 13.6631 18.1795 13.8028C18.4277 13.9426 18.6193 14.1341 18.7542 14.3775C18.8309 14.5133 18.8861 14.6603 18.92 14.8186C18.9555 14.9845 18.9732 15.0674 18.9132 15.1417C18.8531 15.2159 18.7554 15.2159 18.5601 15.2159H18.305C18.1457 15.2159 18.0661 15.2159 18.0149 15.1807C17.9636 15.1455 17.9223 15.0377 17.8397 14.822C17.7988 14.7064 17.7325 14.616 17.641 14.5509C17.5494 14.4859 17.4313 14.4534 17.2867 14.4534C17.1518 14.4534 17.0397 14.4811 16.9506 14.5365C16.8638 14.5895 16.7988 14.663 16.7554 14.7569C16.7144 14.8485 16.694 14.9521 16.694 15.0678C16.694 15.1545 16.7144 15.2328 16.7554 15.3027C16.7988 15.3702 16.8578 15.4316 16.9325 15.487C17.0072 15.54 17.0952 15.5918 17.1964 15.6424C17.3 15.693 17.4132 15.7424 17.5361 15.7906C17.7747 15.8846 17.9855 15.9882 18.1687 16.1014C18.3518 16.2123 18.5048 16.3375 18.6277 16.4773C18.7506 16.6146 18.8434 16.77 18.906 16.9435C18.9687 17.117 19 17.3146 19 17.5363C19 17.7555 18.9614 17.9555 18.8843 18.1362C18.8096 18.3145 18.7 18.4687 18.5554 18.5988C18.4108 18.7265 18.2361 18.8253 18.0313 18.8952C17.8289 18.9651 17.6024 19 17.3518 19C17.1084 19 16.8783 18.9663 16.6614 18.8988C16.4446 18.8289 16.253 18.7241 16.0867 18.5844C15.9229 18.4422 15.7939 18.2627 15.7 18.0459C15.6506 17.9306 15.6142 17.8044 15.5907 17.6672C15.5615 17.4963 15.547 17.4109 15.6069 17.3399C15.6669 17.2688 15.7643 17.2688 15.9592 17.2688H16.2179C16.3869 17.2688 16.4713 17.2688 16.5253 17.3104C16.5793 17.352 16.6068 17.4565 16.6619 17.6654C16.6629 17.6694 16.664 17.6733 16.665 17.6772C16.6964 17.788 16.7446 17.8772 16.8096 17.9447C16.8747 18.0097 16.9542 18.0591 17.0482 18.0928C17.1446 18.1242 17.2542 18.1398 17.3771 18.1398C17.5169 18.1398 17.6277 18.1133 17.7096 18.0603C17.794 18.0073 17.8542 17.9362 17.8904 17.8471C17.9265 17.7579 17.9446 17.6567 17.9446 17.5435Z" fill="currentcolor" />
  <path d="M8.4332 13.6664C8.56124 13.6664 8.62526 13.6664 8.67538 13.6995C8.72551 13.7326 8.7507 13.7914 8.80107 13.9091L9.08224 14.566C9.24285 14.9413 9.32315 15.1289 9.45641 15.1277C9.58966 15.1265 9.66667 14.9375 9.82068 14.5595L10.0831 13.9156C10.1322 13.7949 10.1568 13.7345 10.2075 13.7005C10.2581 13.6664 10.3233 13.6664 10.4536 13.6664H10.728C11.0152 13.6664 11.1588 13.6664 11.2176 13.7604C11.2764 13.8544 11.2135 13.9835 11.0878 14.2417L10.1673 16.1324C10.1254 16.2184 10.1044 16.2615 10.1045 16.3076C10.1045 16.3537 10.1254 16.3967 10.1673 16.4827L11.1133 18.4247C11.239 18.6829 11.3019 18.812 11.2432 18.906C11.1844 19 11.0408 19 10.7535 19H10.4294C10.3001 19 10.2354 19 10.185 18.9664C10.1346 18.9328 10.1097 18.8731 10.06 18.7537L9.77364 18.0662C9.61632 17.6885 9.53765 17.4997 9.40425 17.4997C9.27085 17.4997 9.19219 17.6885 9.03486 18.0662L8.7485 18.7537C8.69877 18.8731 8.67391 18.9328 8.6235 18.9664C8.57309 19 8.50843 19 8.37911 19H8.08302C7.79483 19 7.65074 19 7.592 18.9057C7.53327 18.8114 7.5968 18.6821 7.72386 18.4235L8.68688 16.4632C8.72971 16.376 8.75113 16.3324 8.751 16.2857C8.75088 16.2389 8.72923 16.1954 8.68593 16.1085L7.75797 14.2449C7.62885 13.9856 7.56429 13.8559 7.62295 13.7612C7.68162 13.6664 7.82647 13.6664 8.11618 13.6664H8.4332Z" fill="currentcolor" />
  <path d="M14.9854 18.5999V18.5136C14.9854 18.325 14.9854 18.2307 14.9268 18.1721C14.8682 18.1135 14.7739 18.1135 14.5853 18.1135H13.1692H13.0987V14.0666C13.0987 13.8779 13.0987 13.7836 13.0401 13.725C12.9815 13.6664 12.8872 13.6664 12.6986 13.6664H12.4255C12.2369 13.6664 12.1425 13.6664 12.0839 13.725C12.0253 13.7836 12.0253 13.8779 12.0253 14.0666V18.5999C12.0253 18.7885 12.0253 18.8828 12.0839 18.9414C12.1425 19 12.2369 19 12.4255 19H12.6986H12.917H13.1692H14.5853C14.7739 19 14.8682 19 14.9268 18.9414C14.9854 18.8828 14.9854 18.7885 14.9854 18.5999Z" fill="currentcolor" />
</svg>
