<svg
  xmlns="http://www.w3.org/2000/svg"
  width="20"
  height="20"
  viewBox="0 0 20 20"
  fill="none"
>
  <path
    d="M8.69196 1.00004C9.18746 0.9997 9.57797 0.999434 9.95129 1.10559C10.1546 1.16342 10.3507 1.24436 10.5355 1.34681C10.8747 1.5349 11.1507 1.81037 11.5008 2.15989L14.346 4.99631L14.3764 5.02837C14.3666 5.01739 14.3565 5.0067 14.346 4.99631L14.4318 5.08174C14.928 5.57539 15.3206 5.96609 15.532 6.47468C15.7433 6.98327 15.7428 7.53633 15.7421 8.23514L15.742 11.6829C15.742 11.8335 15.742 11.9802 15.7419 12.123H7.49016C6.44455 12.123 5.92175 12.123 5.59692 12.4932C5.27209 12.8633 5.27209 13.459 5.27209 14.6505V18.9112C4.57726 18.8371 3.98173 18.6928 3.44059 18.3912C2.67112 17.9624 2.03601 17.3293 1.60588 16.5622C1.27747 15.9765 1.13494 15.3269 1.06669 14.5562C0.999989 13.8028 0.999994 12.8656 1 11.6829V8.54346C0.999992 7.25247 0.999986 6.2295 1.07895 5.41027C1.15981 4.57141 1.32888 3.86818 1.71727 3.24474C2.10395 2.62403 2.62902 2.10059 3.25166 1.71511C3.87705 1.32793 4.58248 1.15939 5.42395 1.07878C6.24574 1.00006 7.2719 1.00007 8.56691 1.00008L8.69196 1.00004Z"
    fill="currentColor"
    fill-opacity="0.2"
  />
  <path
    fill-rule="evenodd"
    clip-rule="evenodd"
    d="M15.7256 7.35688C15.7016 7.04068 15.6493 6.75333 15.5353 6.47892C15.3239 5.97033 14.9313 5.57963 14.4351 5.08598L14.3493 5.00055L11.5041 2.16413C11.154 1.81461 10.878 1.53914 10.5388 1.35105C10.354 1.2486 10.1579 1.16766 9.95459 1.10983C9.75674 1.05357 9.55406 1.0272 9.33349 1.01489C9.32057 1.07089 9.31262 1.12018 9.3072 1.15859C9.27619 1.37843 9.27628 1.66009 9.27637 1.93537L9.27638 2.75391C9.27635 3.65264 9.27633 4.40208 9.35656 4.99703C9.44126 5.625 9.62756 6.19196 10.0846 6.64756C10.5416 7.10316 11.1103 7.28889 11.7403 7.37331C12.3371 7.4533 13.0888 7.45328 13.9904 7.45325L14.6888 7.45326C14.954 7.45335 15.2287 7.45344 15.4443 7.42288C15.5132 7.41312 15.6142 7.39542 15.7256 7.35688ZM14.3493 5.00055C14.3598 5.01094 14.3699 5.02163 14.3797 5.03261L14.3493 5.00055Z"
    fill="currentColor"
  />
  <path
    d="M18.5413 13.5932H18.2304C18.0787 13.5932 18.0028 13.5932 17.9482 13.6361C17.8936 13.679 17.8758 13.7525 17.8402 13.8995L17.3628 15.874C17.2078 16.515 17.1303 16.8356 16.9722 16.8355C16.8141 16.8354 16.7368 16.5148 16.5824 15.8737L16.1068 13.8999C16.0714 13.7527 16.0536 13.6791 15.999 13.6361C15.9443 13.5932 15.8684 13.5932 15.7165 13.5932H15.4159C15.1715 13.5932 15.0492 13.5932 14.989 13.6729C14.9288 13.7527 14.9626 13.8698 15.0302 14.1039L16.3389 18.6373C16.3791 18.7766 16.3992 18.8463 16.4528 18.8865C16.5064 18.9267 16.5791 18.9267 16.7246 18.9267H17.2233C17.3684 18.9267 17.441 18.9267 17.4946 18.8866C17.5481 18.8465 17.5683 18.777 17.6088 18.638L18.9268 14.1047C18.9949 13.8702 19.029 13.753 18.9688 13.6731C18.9086 13.5932 18.7862 13.5932 18.5413 13.5932Z"
    fill="currentColor"
  />
  <path
    d="M13.3597 17.5237C13.3597 17.4285 13.3511 17.3418 13.334 17.2637C13.3168 17.1855 13.2801 17.1135 13.2237 17.0475C13.1698 16.9816 13.0902 16.9157 12.9849 16.8497C12.882 16.7838 12.7472 16.7154 12.5807 16.6446C12.3822 16.5616 12.1899 16.4736 12.0038 16.3808C11.8176 16.2856 11.6498 16.1757 11.5003 16.0512C11.3509 15.9266 11.2321 15.7801 11.1439 15.6116C11.0582 15.4406 11.0153 15.2404 11.0153 15.0108C11.0153 14.7861 11.0557 14.5822 11.1366 14.3991C11.2198 14.2159 11.3374 14.0596 11.4893 13.9302C11.6412 13.7983 11.8188 13.697 12.0221 13.6262C12.2279 13.5553 12.457 13.5199 12.7093 13.5199C13.0522 13.5199 13.3487 13.5907 13.5985 13.7324C13.8508 13.874 14.0456 14.0682 14.1828 14.3148C14.2616 14.454 14.3181 14.6048 14.3524 14.7672C14.3876 14.9335 14.4051 15.0166 14.3449 15.0907C14.2847 15.1647 14.1867 15.1647 13.9909 15.1647H13.7206C13.5597 15.1647 13.4793 15.1647 13.4277 15.129C13.3761 15.0933 13.3359 14.9861 13.2555 14.7718C13.2547 14.7696 13.2539 14.7675 13.2531 14.7654C13.2115 14.6482 13.1441 14.5566 13.051 14.4907C12.9579 14.4247 12.8379 14.3917 12.6909 14.3917C12.5537 14.3917 12.4398 14.4198 12.3492 14.476C12.261 14.5297 12.1948 14.6042 12.1507 14.6995C12.1091 14.7923 12.0883 14.8973 12.0883 15.0145C12.0883 15.1024 12.1091 15.1818 12.1507 15.2526C12.1948 15.321 12.2549 15.3832 12.3308 15.4394C12.4067 15.4931 12.4961 15.5456 12.599 15.5969C12.7044 15.6482 12.8195 15.6983 12.9444 15.7471C13.187 15.8424 13.4013 15.9474 13.5875 16.0621C13.7737 16.1745 13.9292 16.3015 14.0542 16.4431C14.1791 16.5823 14.2734 16.7398 14.3371 16.9157C14.4008 17.0915 14.4327 17.2917 14.4327 17.5164C14.4327 17.7386 14.3935 17.9413 14.3151 18.1245C14.2391 18.3052 14.1277 18.4615 13.9807 18.5934C13.8337 18.7228 13.6561 18.8229 13.4479 18.8938C13.2421 18.9646 13.0118 19 12.757 19C12.5096 19 12.2757 18.9658 12.0552 18.8974C11.8347 18.8266 11.64 18.7204 11.4709 18.5787C11.3044 18.4346 11.1733 18.2527 11.0778 18.0329C11.0269 17.9146 10.9896 17.7849 10.9658 17.6438C10.937 17.4726 10.9225 17.387 10.9827 17.3162C11.0428 17.2453 11.1405 17.2453 11.3358 17.2453H11.6097C11.7798 17.2453 11.8648 17.2453 11.9191 17.2873C11.9734 17.3292 12.0003 17.4335 12.0543 17.6421C12.0558 17.6479 12.0573 17.6536 12.0589 17.6593C12.0907 17.7716 12.1397 17.862 12.2059 17.9304C12.272 17.9963 12.3528 18.0464 12.4484 18.0805C12.5464 18.1123 12.6578 18.1282 12.7828 18.1282C12.9248 18.1282 13.0375 18.1013 13.1208 18.0476C13.2066 17.9939 13.2678 17.9218 13.3046 17.8314C13.3413 17.7411 13.3597 17.6385 13.3597 17.5237Z"
    fill="currentColor"
  />
  <path
    d="M9.24294 17.5369C9.27863 17.341 9.29647 17.2431 9.35232 17.1966C9.40817 17.1501 9.49519 17.1501 9.66924 17.1501H9.93217C10.1331 17.1501 10.2336 17.1501 10.2937 17.2216C10.3539 17.293 10.338 17.3829 10.3061 17.5627C10.2662 17.7886 10.1994 17.9893 10.106 18.1648C9.95898 18.4383 9.74953 18.6459 9.47761 18.7875C9.20814 18.9292 8.88232 19 8.50017 19C8.20375 19 7.94041 18.9512 7.71013 18.8535C7.47986 18.7533 7.28388 18.6068 7.1222 18.4139C6.96052 18.221 6.83804 17.9829 6.75474 17.6996C6.6739 17.4139 6.63348 17.0854 6.63348 16.7142V15.8094C6.63348 15.4382 6.67635 15.1097 6.76209 14.824C6.85028 14.5383 6.97522 14.2989 7.1369 14.106C7.30103 13.9107 7.49823 13.7641 7.72851 13.6664C7.96123 13.5663 8.22335 13.5163 8.51487 13.5163C8.90437 13.5163 9.23019 13.5895 9.4923 13.736C9.75442 13.8826 9.95653 14.0963 10.0986 14.3771C10.1891 14.5513 10.257 14.7499 10.3023 14.9729C10.3402 15.1591 10.3591 15.2523 10.2989 15.3257C10.2387 15.3991 10.1351 15.3991 9.92789 15.3991H9.67648C9.50163 15.3991 9.41421 15.3991 9.35819 15.3521C9.30217 15.3051 9.28525 15.2075 9.25142 15.0122C9.2376 14.9325 9.21991 14.8624 9.19834 14.802C9.14934 14.6555 9.07095 14.5529 8.96317 14.4943C8.85538 14.4333 8.70595 14.4027 8.51487 14.4027C8.37278 14.4027 8.2503 14.4284 8.14741 14.4797C8.04452 14.5285 7.96001 14.6079 7.89386 14.7178C7.82772 14.8277 7.77873 14.9717 7.74688 15.15C7.71748 15.3283 7.70279 15.5456 7.70279 15.8021V16.7142C7.70279 16.9657 7.71626 17.1806 7.74321 17.3589C7.77015 17.5347 7.81302 17.6788 7.87182 17.7912C7.93061 17.9035 8.01023 17.9853 8.11066 18.0366C8.21355 18.0879 8.34339 18.1135 8.50017 18.1135C8.68145 18.1135 8.82721 18.0866 8.93744 18.0329C9.05013 17.9792 9.13342 17.8827 9.18731 17.7435C9.20997 17.685 9.22851 17.6162 9.24294 17.5369Z"
    fill="currentColor"
  />
</svg>
