<svg
  xmlns="http://www.w3.org/2000/svg"
  width="20"
  height="20"
  viewBox="0 0 20 20"
  fill="none"
>
  <path
    d="M8.66445 1.00004C9.15828 0.9997 9.54747 0.999434 9.91952 1.10562C10.1222 1.16346 10.3175 1.24442 10.5017 1.34691C10.8398 1.53505 11.1148 1.81059 11.4638 2.16021L14.2993 4.99741L14.3296 5.02949C14.3198 5.0185 14.3097 5.0078 14.2993 4.99741L14.3849 5.08286C14.8793 5.57665 15.2707 5.96746 15.4813 6.47619C15.6919 6.98493 15.6913 7.53814 15.6907 8.23713L15.6906 11.6858C15.6906 11.8097 15.6906 11.9309 15.6905 12.0494H9.63989C8.795 12.0494 8.37255 12.0494 8.11007 12.4196C7.8476 12.7899 7.8476 13.3858 7.8476 14.5775V19C6.87919 18.999 6.08878 18.9913 5.43637 18.9337C4.6658 18.8656 4.01641 18.7235 3.43091 18.396C2.66404 17.9671 2.03109 17.3338 1.60242 16.5665C1.27513 15.9807 1.13308 15.3309 1.06506 14.5599C0.998585 13.8064 0.99859 12.8689 0.998596 11.6859V8.54554C0.998589 7.2542 0.998583 6.23094 1.07728 5.41149C1.15787 4.5724 1.32636 3.86897 1.71343 3.24535C2.0988 2.62448 2.62209 2.1009 3.24262 1.71531C3.86589 1.32802 4.56892 1.15943 5.40754 1.0788C6.22653 1.00006 7.24921 1.00007 8.53984 1.00008L8.66445 1.00004Z"
    fill="currentColor"
    fill-opacity="0.2"
  />
  <path
    fill-rule="evenodd"
    clip-rule="evenodd"
    d="M15.6742 7.35863C15.6504 7.04234 15.5982 6.75491 15.4846 6.48043C15.2739 5.97169 14.8826 5.58089 14.3882 5.0871L14.3026 5.00165L11.4671 2.16445C11.1181 1.81483 10.8431 1.53929 10.505 1.35115C10.3208 1.24866 10.1255 1.1677 9.92281 1.10986C9.72564 1.05358 9.52365 1.02721 9.30382 1.01489C9.29094 1.0709 9.28302 1.1202 9.27762 1.15863C9.24672 1.37853 9.24681 1.66027 9.2469 1.93563L9.2469 2.75439C9.24688 3.65337 9.24685 4.40301 9.32682 4.99813C9.41122 5.62627 9.59689 6.19339 10.0524 6.64912C10.5078 7.10484 11.0746 7.29062 11.7024 7.37507C12.2972 7.45508 13.0464 7.45505 13.9449 7.45502L14.6409 7.45503C14.9052 7.45513 15.179 7.45522 15.3939 7.42465C15.4626 7.41489 15.5632 7.39719 15.6742 7.35863ZM14.3026 5.00165C14.313 5.01204 14.3231 5.02274 14.3329 5.03372L14.3026 5.00165Z"
    fill="currentColor"
  />
  <path
    d="M16.4534 18.9267H16.7167C16.9094 18.9267 17.0058 18.9267 17.0646 18.8663C17.1235 18.806 17.1212 18.7096 17.1166 18.5168L17.074 16.7465H18.3963C18.5849 16.7465 18.6792 16.7465 18.7377 16.6879C18.7963 16.6293 18.7963 16.5349 18.7963 16.3463V16.26C18.7963 16.0713 18.7963 15.977 18.7377 15.9184C18.6792 15.8598 18.5849 15.8598 18.3963 15.8598H17.0527V14.482H18.6014C18.79 14.482 18.8842 14.482 18.9428 14.4234C19.0014 14.3648 19.0014 14.2705 19.0014 14.0818V13.9919C19.0014 13.8032 19.0014 13.7089 18.9428 13.6503C18.8842 13.5916 18.79 13.5916 18.6014 13.5916H16.4534C16.2648 13.5916 16.1706 13.5916 16.112 13.6503C16.0534 13.7089 16.0534 13.8032 16.0534 13.9919V18.5264C16.0534 18.7151 16.0534 18.8094 16.112 18.8681C16.1706 18.9267 16.2648 18.9267 16.4534 18.9267Z"
    fill="currentColor"
  />
  <path
    d="M14.6628 13.5916C14.8514 13.5916 14.9456 13.5916 15.0042 13.6503C15.0628 13.7089 15.0628 13.8032 15.0628 13.9919V18.5264C15.0628 18.7151 15.0628 18.8094 15.0042 18.8681C14.9456 18.9267 14.8514 18.9267 14.6628 18.9267H14.3971C14.2086 18.9267 14.1143 18.9267 14.0557 18.8681C13.9971 18.8094 13.9971 18.7151 13.9971 18.5264V13.9919C13.9971 13.8032 13.9971 13.7089 14.0557 13.6503C14.1143 13.5916 14.2086 13.5916 14.3971 13.5916H14.6628Z"
    fill="currentColor"
  />
  <path
    d="M12.7019 16.1236C12.8904 16.1236 12.9847 16.1236 13.0433 16.1822C13.1019 16.2408 13.1019 16.3351 13.1019 16.5238V18.1636C13.1019 18.2436 13.1019 18.2837 13.0839 18.3232C13.0659 18.3627 13.0397 18.3856 12.9872 18.4313C12.9262 18.4844 12.8533 18.5421 12.7686 18.6042C12.6246 18.7093 12.4354 18.8021 12.201 18.8827C11.9691 18.9609 11.6859 19 11.3514 19C11.056 19 10.7874 18.9535 10.5457 18.8607C10.3065 18.7679 10.1002 18.6274 9.92682 18.4393C9.75592 18.2488 9.62531 18.0118 9.53497 17.7285C9.44464 17.4427 9.39948 17.1044 9.39948 16.7135V15.8048C9.39948 15.4188 9.4422 15.083 9.52765 14.7972C9.61554 14.5089 9.74249 14.2695 9.90851 14.079C10.0745 13.8884 10.2723 13.7468 10.5018 13.6539C10.7337 13.5611 10.9949 13.5147 11.2855 13.5147C11.6859 13.5147 12.0142 13.5819 12.2706 13.7162C12.5294 13.8506 12.7247 14.0497 12.8565 14.3135C12.9379 14.4734 12.9996 14.6554 13.0415 14.8593C13.0796 15.0445 13.0986 15.1372 13.0386 15.2108C12.9786 15.2845 12.8755 15.2845 12.6692 15.2845H12.4326C12.2693 15.2845 12.1877 15.2845 12.1337 15.2429C12.0798 15.2014 12.0549 15.1071 12.005 14.9184C11.9889 14.8579 11.97 14.804 11.9483 14.7568C11.8922 14.6298 11.8128 14.5394 11.7103 14.4857C11.6077 14.4295 11.4747 14.4014 11.3111 14.4014C11.1695 14.4014 11.0462 14.4271 10.9412 14.4784C10.8362 14.5272 10.7484 14.6078 10.6776 14.7202C10.6068 14.8326 10.5543 14.9767 10.5201 15.1526C10.4859 15.3285 10.4688 15.5434 10.4688 15.7975V16.7135C10.4688 16.9651 10.4883 17.1801 10.5274 17.3584C10.5665 17.5367 10.6238 17.6821 10.6995 17.7944C10.7776 17.9068 10.8753 17.9886 10.9925 18.0399C11.1121 18.0888 11.2525 18.1132 11.4136 18.1132C11.543 18.1132 11.6468 18.0998 11.7249 18.0729C11.803 18.046 11.8653 18.018 11.9117 17.9886C11.9367 17.9724 11.9492 17.9643 11.9563 17.9586C12.0031 17.9217 12.0263 17.879 12.0317 17.8197C12.0325 17.8106 12.0325 17.7984 12.0325 17.7739V17.3163C12.0325 17.1444 12.0325 17.0584 11.9832 17.0019C11.9773 16.9951 11.9709 16.9887 11.964 16.9827C11.9075 16.9334 11.8216 16.9334 11.6498 16.9334C11.4781 16.9334 11.3922 16.9334 11.3357 16.884C11.3288 16.8781 11.3224 16.8716 11.3165 16.8648C11.2672 16.8083 11.2672 16.7223 11.2672 16.5505V16.5238C11.2672 16.3351 11.2672 16.2408 11.3257 16.1822C11.3843 16.1236 11.4786 16.1236 11.6672 16.1236H12.7019Z"
    fill="currentColor"
  />
</svg>
