<svg width="20" height="20" viewBox="0 0 20 20" fill="currentcolor" xmlns="http://www.w3.org/2000/svg">
  <path d="M13.3064 1.21477C12.8552 0.754808 12.4981 0.390778 12.0332 0.194866C11.5684 -0.00104614 11.0629 -0.000553505 10.4242 6.8874e-05L9.94835 0.0001399C8.26813 0.000125152 6.93728 0.000113398 5.89572 0.14259C4.8238 0.28922 3.9562 0.598164 3.27198 1.29431C2.58777 1.99046 2.28412 2.87319 2.14001 3.96381C1.99997 5.02354 1.99999 6.3776 2 8.08712V11.913C1.99999 13.6225 1.99997 14.9766 2.14001 16.0363C2.28412 17.1269 2.58777 18.0097 3.27198 18.7058C3.9562 19.402 4.8238 19.7109 5.89572 19.8575C6.93726 20 8.26808 20 9.94826 20H10.0515C11.7317 20 13.0626 20 14.1041 19.8575C15.1761 19.7109 16.0437 19.402 16.7279 18.7058C17.4121 18.0097 17.7157 17.1269 17.8599 16.0363C17.9999 14.9766 17.9999 13.6226 17.9999 11.9131L17.9999 7.708C18.0005 7.05815 18.001 6.54381 17.8085 6.07084C17.6159 5.59787 17.2581 5.23453 16.8061 4.77545L13.3064 1.21477Z" fill="currentcolor" fill-opacity="0.2" />
  <path d="M17.9423 6.55199C17.9139 6.38496 17.8715 6.22567 17.8085 6.07081C17.6159 5.59783 17.2581 5.2345 16.8061 4.77542L13.3064 1.21474C12.8552 0.754774 12.4981 0.390744 12.0332 0.194831C11.8804 0.130402 11.7231 0.087215 11.5581 0.0582886L11.5581 2.39187C11.5581 3.18746 11.5581 3.85092 11.6277 4.3776C11.7011 4.93352 11.8627 5.43543 12.2591 5.83875C12.6555 6.24207 13.1488 6.40648 13.6952 6.48123C14.2129 6.55204 14.8649 6.55202 15.6469 6.55199L17.9423 6.55199Z" fill="currentcolor" />
  <path d="M12 12C12.4142 12 12.75 12.3358 12.75 12.75C12.75 13.1642 12.4142 13.5 12 13.5H8C7.58579 13.5 7.25 13.1642 7.25 12.75C7.25 12.3358 7.58579 12 8 12H12Z" fill="currentcolor" />
</svg>
