<svg width="20" height="20" viewBox="0 0 20 20" fill="currentcolor" xmlns="http://www.w3.org/2000/svg">
  <path d="M13.3064 1.21477C12.8552 0.754808 12.4981 0.390778 12.0332 0.194866C11.5684 -0.00104614 11.0629 -0.000553505 10.4242 6.8874e-05L9.94835 0.0001399C8.26813 0.000125152 6.93728 0.000113398 5.89572 0.14259C4.8238 0.28922 3.9562 0.598164 3.27198 1.29431C2.58777 1.99046 2.28412 2.87319 2.14001 3.96381C1.99997 5.02354 1.99999 6.3776 2 8.08712V11.913C1.99999 13.6225 1.99997 14.9766 2.14001 16.0363C2.28412 17.1269 2.58777 18.0097 3.27198 18.7058C3.9562 19.402 4.8238 19.7109 5.89572 19.8575C6.93726 20 8.26808 20 9.94826 20H10.0515C11.7317 20 13.0626 20 14.1041 19.8575C15.1761 19.7109 16.0437 19.402 16.7279 18.7058C17.4121 18.0097 17.7157 17.1269 17.8599 16.0363C17.9999 14.9766 17.9999 13.6226 17.9999 11.9131L17.9999 7.708C18.0005 7.05815 18.001 6.54381 17.8085 6.07084C17.6159 5.59787 17.2581 5.23453 16.8061 4.77545L13.3064 1.21477Z" fill="currentcolor" fill-opacity="0.2" />
  <path d="M17.9423 6.55193C17.9139 6.3849 17.8715 6.2256 17.8085 6.07074C17.6159 5.59777 17.2581 5.23444 16.806 4.77536L13.3064 1.21468C12.8552 0.754713 12.4981 0.390683 12.0332 0.19477C11.8803 0.130341 11.7231 0.0871539 11.5581 0.0582275L11.5581 2.39181C11.5581 3.1874 11.5581 3.85086 11.6277 4.37754C11.7011 4.93346 11.8627 5.43537 12.2591 5.83869C12.6555 6.24201 13.1488 6.40642 13.6952 6.48116C14.2129 6.55198 14.8649 6.55195 15.6469 6.55193L17.9423 6.55193Z" fill="currentcolor" />
  <path d="M11.3934 10.0589C11.637 9.72393 12.1061 9.64987 12.4411 9.8935C12.776 10.1371 12.8501 10.6062 12.6065 10.9412L10.9274 13.25L12.6066 15.5589C12.8502 15.8939 12.7762 16.363 12.4412 16.6066C12.1062 16.8502 11.6371 16.7762 11.3935 16.4412L9.99998 14.5251L8.60648 16.4412C8.36285 16.7762 7.89379 16.8502 7.5588 16.6066C7.22381 16.363 7.14975 15.8939 7.39338 15.5589L9.07261 13.25L7.39348 10.9412C7.14986 10.6062 7.22392 10.1371 7.55891 9.8935C7.8939 9.64987 8.36296 9.72393 8.60659 10.0589L9.99998 11.9748L11.3934 10.0589Z" fill="currentcolor" />
</svg>
