<svg width="20" height="20" viewBox="0 0 20 20" fill="currentcolor" xmlns="http://www.w3.org/2000/svg">
  <path d="M8.6517 1.00541C9.14552 1.00507 9.53471 1.00481 9.90676 1.11093C10.1094 1.16874 10.3048 1.24966 10.489 1.35209C10.8271 1.54012 11.1021 1.81551 11.451 2.16493L14.2866 5.00054L14.3168 5.0326C14.3071 5.02162 14.297 5.01093 14.2866 5.00054L14.3721 5.08595C14.8666 5.57946 15.2579 5.97004 15.4685 6.47849C15.6791 6.98694 15.6786 7.53984 15.6779 8.23845L15.6778 11.6852C15.6778 11.809 15.6778 11.9301 15.6778 12.0486H7.2342C6.17333 12.0486 5.6429 12.0486 5.31333 12.4186C4.98376 12.7886 4.98376 13.3842 4.98376 14.5753V18.8796C4.40077 18.7981 3.88881 18.6547 3.41815 18.3916C2.65129 17.9629 2.01833 17.33 1.58966 16.5631C1.26237 15.9776 1.12032 15.3282 1.05231 14.5577C0.985828 13.8046 0.985834 12.8676 0.98584 11.6852V8.54668C0.985832 7.25606 0.985826 6.23338 1.06453 5.41439C1.14511 4.57577 1.3136 3.87274 1.70067 3.24947C2.08604 2.62894 2.60933 2.10565 3.22986 1.72028C3.85313 1.33321 4.55616 1.16472 5.39478 1.08413C6.21378 1.00543 7.23646 1.00544 8.52708 1.00545L8.6517 1.00541Z" fill="currentcolor" fill-opacity="0.2" />
  <path fill-rule="evenodd" d="M15.6614 7.36045C15.6376 7.04434 15.5854 6.75706 15.4718 6.48273C15.2612 5.97429 14.8699 5.5837 14.3754 5.09019L14.2899 5.00478L11.4543 2.16918C11.1054 1.81975 10.8304 1.54436 10.4922 1.35633C10.3081 1.2539 10.1127 1.17299 9.91006 1.11518C9.71288 1.05893 9.51089 1.03257 9.29106 1.02026C9.27819 1.07624 9.27026 1.12552 9.26486 1.16392C9.23396 1.38369 9.23405 1.66528 9.23414 1.94048L9.23415 2.75878C9.23412 3.65726 9.23409 4.40648 9.31406 5.00126C9.39847 5.62906 9.58414 6.19586 10.0396 6.65133C10.4951 7.1068 11.0619 7.29247 11.6897 7.37687C12.2845 7.45684 13.0337 7.45682 13.9322 7.45679L14.6282 7.4568C14.8925 7.45689 15.1663 7.45698 15.3812 7.42643C15.4498 7.41667 15.5505 7.39898 15.6614 7.36045ZM14.2899 5.00478C14.3003 5.01517 14.3104 5.02586 14.3201 5.03684L14.2899 5.00478Z" fill="currentcolor" />
  <path d="M17.8759 17.5357C17.9114 17.3398 17.9292 17.2419 17.9849 17.1954C18.0405 17.1489 18.1273 17.1489 18.3007 17.1489H18.5628C18.763 17.1489 18.8631 17.1489 18.9231 17.2204C18.983 17.2918 18.9672 17.3817 18.9355 17.5614C18.8956 17.7872 18.8291 17.9879 18.736 18.1633C18.5895 18.4368 18.3807 18.6443 18.1097 18.7859C17.8412 18.9275 17.5165 18.9983 17.1356 18.9983C16.8402 18.9983 16.5778 18.9495 16.3483 18.8518C16.1188 18.7517 15.9235 18.6052 15.7623 18.4124C15.6012 18.2195 15.4791 17.9814 15.3961 17.6982C15.3156 17.4126 15.2753 17.0842 15.2753 16.7131V15.8086C15.2753 15.4375 15.318 15.1091 15.4034 14.8235C15.4913 14.5378 15.6158 14.2986 15.777 14.1057C15.9406 13.9104 16.1371 13.7639 16.3666 13.6663C16.5985 13.5662 16.8597 13.5161 17.1503 13.5161C17.5385 13.5161 17.8632 13.5894 18.1244 13.7358C18.3856 13.8823 18.587 14.0959 18.7286 14.3767C18.8188 14.5509 18.8865 14.7494 18.9317 14.9724C18.9694 15.1585 18.9883 15.2516 18.9283 15.325C18.8682 15.3984 18.765 15.3984 18.5585 15.3984H18.3079C18.1337 15.3984 18.0466 15.3984 17.9907 15.3514C17.9349 15.3044 17.918 15.2068 17.8843 15.0117C17.8706 14.932 17.8529 14.8619 17.8314 14.8015C17.7826 14.655 17.7045 14.5525 17.597 14.4939C17.4896 14.4329 17.3407 14.4023 17.1503 14.4023C17.0087 14.4023 16.8866 14.428 16.7841 14.4792C16.6815 14.5281 16.5973 14.6074 16.5314 14.7173C16.4655 14.8271 16.4166 14.9712 16.3849 15.1494C16.3556 15.3276 16.3409 15.5449 16.3409 15.8013V16.7131C16.3409 16.9646 16.3544 17.1794 16.3812 17.3577C16.4081 17.5334 16.4508 17.6775 16.5094 17.7898C16.568 17.9021 16.6473 17.9839 16.7474 18.0352C16.85 18.0864 16.9794 18.1121 17.1356 18.1121C17.3163 18.1121 17.4615 18.0852 17.5714 18.0315C17.6837 17.9778 17.7667 17.8813 17.8204 17.7422C17.843 17.6837 17.8615 17.6149 17.8759 17.5357Z" fill="currentcolor" />
  <path d="M14.5154 15.8452V16.7351C14.5154 17.1111 14.469 17.4407 14.3762 17.7239C14.2859 18.0046 14.1565 18.2402 13.988 18.4307C13.822 18.6187 13.6206 18.7603 13.3838 18.8555C13.1494 18.9507 12.8894 18.9983 12.6038 18.9983C12.3181 18.9983 12.0569 18.9507 11.8201 18.8555C11.5857 18.7603 11.3831 18.6187 11.2122 18.4307C11.0437 18.2402 10.9131 18.0046 10.8203 17.7239C10.7275 17.4407 10.6812 17.1111 10.6812 16.7351V15.8452C10.6812 15.4595 10.7263 15.1226 10.8167 14.8345C10.907 14.5439 11.0376 14.3022 11.2085 14.1094C11.3794 13.9141 11.582 13.7676 11.8164 13.6699C12.0508 13.5698 12.3108 13.5198 12.5964 13.5198C12.8821 13.5198 13.1421 13.5698 13.3765 13.6699C13.6108 13.7676 13.8135 13.9141 13.9844 14.1094C14.1553 14.3022 14.2859 14.5439 14.3762 14.8345C14.469 15.1226 14.5154 15.4595 14.5154 15.8452ZM13.4497 16.7351V15.8379C13.4497 15.584 13.4314 15.3679 13.3948 15.1897C13.3582 15.009 13.3032 14.8613 13.23 14.7466C13.1567 14.6318 13.0676 14.5476 12.9626 14.4939C12.8577 14.4402 12.7356 14.4133 12.5964 14.4133C12.4573 14.4133 12.334 14.4402 12.2266 14.4939C12.1216 14.5476 12.0325 14.6318 11.9592 14.7466C11.8884 14.8613 11.8347 15.009 11.7981 15.1897C11.7639 15.3679 11.7468 15.584 11.7468 15.8379V16.7351C11.7468 16.9792 11.7651 17.188 11.8018 17.3613C11.8384 17.5347 11.8933 17.6763 11.9666 17.7861C12.0398 17.896 12.1289 17.9778 12.2339 18.0315C12.3413 18.0828 12.4646 18.1084 12.6038 18.1084C12.7405 18.1084 12.8613 18.0828 12.9663 18.0315C13.0737 17.9778 13.1628 17.896 13.2336 17.7861C13.3044 17.6763 13.3582 17.5347 13.3948 17.3613C13.4314 17.188 13.4497 16.9792 13.4497 16.7351Z" fill="currentcolor" />
  <path fill-rule="evenodd" d="M7.84497 18.925H6.85337C6.66481 18.925 6.57053 18.925 6.51195 18.8665C6.45337 18.8079 6.45337 18.7136 6.45337 18.525V13.993C6.45337 13.8045 6.45337 13.7102 6.51195 13.6516C6.57053 13.593 6.66481 13.593 6.85337 13.593H7.85962C8.16724 13.593 8.44678 13.6431 8.69824 13.7432C8.94971 13.8433 9.16577 13.9897 9.34644 14.1826C9.5271 14.373 9.66626 14.6086 9.76392 14.8894C9.86157 15.1702 9.9104 15.49 9.9104 15.8489V16.6729C9.9104 17.0342 9.86157 17.354 9.76392 17.6323C9.66626 17.9106 9.5271 18.1462 9.34644 18.3391C9.16821 18.5295 8.95215 18.6748 8.69824 18.7749C8.44434 18.875 8.15991 18.925 7.84497 18.925ZM7.84497 18.0388C8.10376 18.0388 8.30518 17.9924 8.44922 17.8997C8.59326 17.8069 8.69458 17.6604 8.75317 17.4602C8.81421 17.26 8.84473 16.9976 8.84473 16.6729V15.8416C8.84473 15.595 8.82886 15.3862 8.79712 15.2153C8.76538 15.042 8.71167 14.9028 8.63599 14.7979C8.5603 14.6904 8.45898 14.6111 8.33203 14.5598C8.20508 14.5085 8.04761 14.4829 7.85962 14.4829C7.73508 14.4829 7.67281 14.4829 7.62642 14.5097C7.59598 14.5272 7.5707 14.5525 7.55313 14.583C7.52637 14.6294 7.52637 14.6916 7.52637 14.8162V17.7202C7.52637 17.8309 7.52637 17.8863 7.54767 17.9286C7.56698 17.967 7.59814 17.9982 7.63655 18.0175C7.67893 18.0388 7.73428 18.0388 7.84497 18.0388Z" fill="currentcolor" />
</svg>
