<svg
  xmlns="http://www.w3.org/2000/svg"
  width="20"
  height="20"
  viewBox="0 0 20 20"
  fill="none"
>
  <path
    d="M8.66083 1.00004C9.15433 0.9997 9.54326 0.999434 9.91507 1.10562C10.1176 1.16346 10.3128 1.24442 10.4969 1.34691C10.8348 1.53505 11.1096 1.81059 11.4583 2.16021L14.292 4.99739L14.3222 5.02947C14.3125 5.01848 14.3024 5.00779 14.292 4.99739L14.3775 5.08285C14.8716 5.57663 15.2627 5.96743 15.4732 6.47617C15.6836 6.9849 15.6831 7.53811 15.6824 8.2371L15.6824 11.6858C15.6824 11.8475 15.6824 12.0046 15.6822 12.1573H6.87188C5.7781 12.1573 5.23121 12.1573 4.89142 12.5276C4.55162 12.8978 4.55162 13.4937 4.55162 14.6855V18.8063C4.14754 18.7193 3.77789 18.5902 3.43071 18.3959C2.66435 17.967 2.03182 17.3337 1.60342 16.5664C1.27635 15.9806 1.1344 15.3308 1.06642 14.5598C0.999989 13.8063 0.999994 12.8688 1 11.6858V8.54551C0.999992 7.25417 0.999986 6.23092 1.07863 5.41147C1.15917 4.57238 1.32755 3.86896 1.71437 3.24534C2.09948 2.62447 2.62243 2.10089 3.24255 1.71531C3.86541 1.32802 4.56798 1.15943 5.40605 1.0788C6.22451 1.00006 7.24652 1.00007 8.53629 1.00008L8.66083 1.00004Z"
    fill="currentColor"
    fill-opacity="0.2"
  />
  <path
    fill-rule="evenodd"
    clip-rule="evenodd"
    d="M15.666 7.35861C15.6422 7.04232 15.59 6.75489 15.4765 6.4804C15.266 5.97167 14.8749 5.58087 14.3808 5.08709L14.2953 5.00163L11.4616 2.16445C11.1129 1.81483 10.8381 1.53929 10.5002 1.35114C10.3161 1.24866 10.1209 1.1677 9.91837 1.10986C9.72133 1.05358 9.51947 1.02721 9.29979 1.01489C9.28692 1.0709 9.279 1.1202 9.2736 1.15863C9.24272 1.37853 9.24281 1.66027 9.2429 1.93562L9.24291 2.75438C9.24288 3.65336 9.24285 4.403 9.32277 4.99811C9.40712 5.62625 9.59267 6.19337 10.0478 6.64909C10.503 7.10481 11.0694 7.29059 11.6968 7.37504C12.2912 7.45505 13.0399 7.45503 13.9378 7.455L14.6334 7.45501C14.8975 7.4551 15.1711 7.45519 15.3859 7.42462C15.4545 7.41486 15.5551 7.39716 15.666 7.35861ZM14.2953 5.00163C14.3057 5.01202 14.3158 5.02272 14.3255 5.0337L14.2953 5.00163Z"
    fill="currentColor"
  />
  <path
    fill-rule="evenodd"
    clip-rule="evenodd"
    d="M12.4689 18.9267H12.1998C12.0114 18.9267 11.9171 18.9267 11.8586 18.8681C11.8 18.8095 11.8 18.7152 11.8 18.5265V13.9919C11.8 13.8033 11.8 13.7089 11.8586 13.6503C11.9171 13.5917 12.0113 13.5917 12.1998 13.5917H13.6153C13.9739 13.5917 14.2826 13.6674 14.5412 13.8189C14.7998 13.9703 14.9974 14.1792 15.134 14.4455C15.2731 14.7093 15.3426 15.0122 15.3426 15.3542C15.3426 15.6986 15.2731 15.9978 15.134 16.2519C14.9974 16.5035 14.7998 16.6989 14.5412 16.8381C14.2826 16.9774 13.9739 17.047 13.6153 17.047H13.2684C13.08 17.047 12.9858 17.047 12.9272 17.1056C12.8687 17.1642 12.8687 17.2586 12.8687 17.4472V18.5265C12.8687 18.7152 12.8687 18.8095 12.8101 18.8681C12.7516 18.9267 12.6574 18.9267 12.4689 18.9267ZM13.6153 16.1566C13.7665 16.1566 13.8897 16.1224 13.9849 16.054C14.0825 15.9856 14.1532 15.8916 14.1972 15.7719C14.2411 15.6497 14.263 15.5129 14.263 15.3615C14.263 15.2076 14.2399 15.0647 14.1935 14.9328C14.1496 14.7984 14.08 14.6897 13.9849 14.6067C13.8922 14.5236 13.769 14.4821 13.6153 14.4821H13.2684C13.08 14.4821 12.9858 14.4821 12.9272 14.5407C12.8687 14.5993 12.8687 14.6937 12.8687 14.8823V15.7564C12.8687 15.9451 12.8687 16.0394 12.9272 16.098C12.9858 16.1566 13.08 16.1566 13.2684 16.1566H13.6153Z"
    fill="currentColor"
  />
  <path
    d="M6.4377 13.5917C6.24926 13.5917 6.15504 13.5917 6.0965 13.6503C6.03796 13.7089 6.03796 13.8033 6.03796 13.9919V18.5265C6.03796 18.7152 6.03796 18.8095 6.0965 18.8681C6.15504 18.9267 6.24926 18.9267 6.4377 18.9267H6.67392C6.86236 18.9267 6.95658 18.9267 7.01512 18.8681C7.07366 18.8095 7.07366 18.7152 7.07366 18.5265V17.1093L7.01157 15.5387L7.95714 18.6432C7.99875 18.7798 8.01955 18.8481 8.07255 18.8874C8.12554 18.9267 8.19686 18.9267 8.3395 18.9267H8.54304C8.68834 18.9267 8.761 18.9267 8.81446 18.8863C8.86792 18.8459 8.88779 18.7759 8.92753 18.6359L9.88792 15.2543L9.81844 17.1093V18.5265C9.81844 18.7152 9.81844 18.8095 9.87698 18.8681C9.93552 18.9267 10.0297 18.9267 10.2182 18.9267H10.4507C10.6392 18.9267 10.7334 18.9267 10.7919 18.8681C10.8505 18.8095 10.8505 18.7152 10.8505 18.5265V13.9919C10.8505 13.8033 10.8505 13.7089 10.7919 13.6503C10.7334 13.5917 10.6392 13.5917 10.4507 13.5917H9.82754C9.68391 13.5917 9.61209 13.5917 9.55892 13.6314C9.50575 13.6711 9.48529 13.7401 9.44437 13.8779L8.82858 15.9525C8.67277 16.4774 8.59486 16.7399 8.44582 16.7399C8.29678 16.74 8.21863 16.4776 8.06234 15.9528L7.44425 13.8776C7.40325 13.7399 7.38274 13.671 7.32959 13.6314C7.27644 13.5917 7.20469 13.5917 7.06119 13.5917H6.4377Z"
    fill="currentColor"
  />
  <path
    d="M17.3458 15.7865H17.1372C17.0541 15.7865 17.0126 15.7865 16.9793 15.7987C16.924 15.819 16.8805 15.8626 16.8603 15.9179C16.8481 15.9512 16.8481 15.9928 16.8481 16.076V16.2181C16.8481 16.4067 16.8481 16.5011 16.9066 16.5597C16.9652 16.6183 17.0594 16.6183 17.2478 16.6183H17.3495C17.4812 16.6183 17.5935 16.6464 17.6862 16.7026C17.7789 16.7563 17.8496 16.8418 17.8984 16.9591C17.9472 17.0739 17.9716 17.2253 17.9716 17.4134C17.9716 17.56 17.9485 17.6882 17.9021 17.7982C17.8557 17.9081 17.7886 17.9936 17.7008 18.0546C17.613 18.1157 17.5093 18.1462 17.3897 18.1462C17.2873 18.1462 17.1946 18.1169 17.1116 18.0583C17.0311 17.9997 16.9677 17.9191 16.9213 17.8165C16.8388 17.6295 16.7975 17.536 16.7598 17.5055C16.7454 17.4938 16.7422 17.4917 16.7257 17.4832C16.6827 17.4611 16.6176 17.4611 16.4874 17.4611H16.2268C16.0311 17.4611 15.9332 17.4611 15.8732 17.5347C15.8133 17.6084 15.8304 17.6919 15.8647 17.8588C15.8859 17.9621 15.916 18.0579 15.9551 18.1462C16.0405 18.3392 16.1564 18.4992 16.3028 18.6262C16.4492 18.7533 16.6139 18.8473 16.7969 18.9084C16.9823 18.9695 17.1714 19 17.3641 19C17.5959 19 17.8106 18.9658 18.0082 18.8974C18.2059 18.8266 18.3791 18.724 18.5279 18.5896C18.6767 18.4553 18.7926 18.2904 18.8756 18.0949C18.9585 17.8995 19 17.6772 19 17.4281C19 17.2253 18.9695 17.0397 18.9085 16.8711C18.8475 16.7026 18.7548 16.5572 18.6304 16.4351C18.6127 16.4174 18.5943 16.4002 18.5752 16.3837C18.4594 16.2838 18.4465 16.068 18.5535 15.9588C18.6755 15.8317 18.7682 15.6888 18.8317 15.53C18.8975 15.3713 18.9305 15.2064 18.9305 15.0354C18.9305 14.7032 18.8646 14.4247 18.7329 14.2C18.6011 13.9728 18.4181 13.8018 18.1839 13.687C17.9497 13.5697 17.6776 13.5111 17.3678 13.5111C17.0921 13.5111 16.8408 13.5722 16.6139 13.6943C16.387 13.8164 16.2064 13.9862 16.0722 14.2036C16.0026 14.3165 15.951 14.4396 15.9175 14.5729C15.8769 14.7345 15.8566 14.8153 15.9166 14.8924C15.9766 14.9694 16.0746 14.9694 16.2707 14.9694H16.5749C16.673 14.9694 16.722 14.9694 16.7556 14.9569C16.7911 14.9438 16.7951 14.9413 16.8227 14.9155C16.8489 14.8909 16.8889 14.8108 16.9689 14.6507C17.0152 14.5603 17.0762 14.4906 17.1519 14.4418C17.2275 14.3929 17.3092 14.3685 17.3971 14.3685C17.5117 14.3685 17.6069 14.3978 17.6825 14.4565C17.7582 14.5151 17.8143 14.5957 17.8509 14.6983C17.8875 14.8009 17.9058 14.9206 17.9058 15.0574C17.9058 15.2039 17.8862 15.3322 17.8472 15.4421C17.8082 15.552 17.7472 15.6375 17.6642 15.6986C17.5813 15.7572 17.4751 15.7865 17.3458 15.7865Z"
    fill="currentColor"
  />
</svg>
