<svg width="20" height="20" viewBox="0 0 20 20" fill="currentcolor" xmlns="http://www.w3.org/2000/svg">
  <path d="M8.65275 1.00327C9.14619 1.00293 9.53507 1.00267 9.90683 1.10883C10.1093 1.16667 10.3045 1.24761 10.4886 1.35007C10.8264 1.53818 11.1012 1.81366 11.4499 2.16322L14.2832 4.99984L14.3134 5.03191C14.3037 5.02093 14.2936 5.01023 14.2832 4.99984L14.3687 5.08528C14.8627 5.57897 15.2538 5.96969 15.4642 6.47832C15.6746 6.98696 15.6741 7.54006 15.6734 8.23891L15.6734 11.6869C15.6734 11.8108 15.6734 11.9319 15.6733 12.0504H8.09826C7.11601 12.0504 6.62489 12.0504 6.31975 12.4206C6.0146 12.7907 6.0146 13.3865 6.0146 14.5781V18.9712C5.80716 18.9619 5.61166 18.9496 5.4272 18.9333C4.65724 18.8652 4.00836 18.7231 3.42332 18.3957C2.65706 17.9669 2.0246 17.3337 1.59627 16.5666C1.26923 15.9809 1.1273 15.3312 1.05933 14.5604C0.992909 13.807 0.992914 12.8697 0.99292 11.6869V8.54726C0.992912 7.25618 0.992906 6.23312 1.07154 5.41384C1.15206 4.57491 1.32042 3.87163 1.70719 3.24814C2.09226 2.62739 2.61514 2.10391 3.23518 1.7184C3.85796 1.33119 4.56043 1.16264 5.39839 1.08202C6.21675 1.0033 7.23862 1.0033 8.52823 1.00331L8.65275 1.00327Z" fill="currentcolor" fill-opacity="0.2" />
  <path d="M17.9245 17.5269C17.9245 17.4316 17.9159 17.3449 17.8989 17.2668C17.8818 17.1886 17.8452 17.1166 17.7891 17.0506C17.7354 16.9847 17.6561 16.9187 17.5512 16.8528C17.4488 16.7869 17.3146 16.7185 17.1487 16.6476C16.9511 16.5646 16.7596 16.4767 16.5742 16.3839C16.3888 16.2886 16.2217 16.1787 16.0729 16.0542C15.9241 15.9296 15.8058 15.7831 15.718 15.6146C15.6326 15.4436 15.5899 15.2433 15.5899 15.0138C15.5899 14.7891 15.6301 14.5851 15.7106 14.402C15.7936 14.2188 15.9107 14.0625 16.0619 13.933C16.2132 13.8012 16.39 13.6998 16.5925 13.629C16.7974 13.5582 17.0255 13.5227 17.2768 13.5227C17.6183 13.5227 17.9135 13.5936 18.1623 13.7352C18.4136 13.8769 18.6075 14.071 18.7441 14.3177C18.8226 14.4569 18.8789 14.6077 18.9131 14.7702C18.9481 14.9364 18.9656 15.0196 18.9056 15.0936C18.8456 15.1676 18.7481 15.1676 18.553 15.1676H18.2839C18.1237 15.1676 18.0436 15.1676 17.9922 15.1319C17.9408 15.0962 17.9008 14.9891 17.8208 14.7747C17.82 14.7726 17.8192 14.7704 17.8184 14.7683C17.7769 14.6511 17.7098 14.5595 17.6171 14.4936C17.5244 14.4276 17.4049 14.3946 17.2585 14.3946C17.1219 14.3946 17.0085 14.4227 16.9182 14.4789C16.8304 14.5326 16.7645 14.6071 16.7206 14.7024C16.6791 14.7952 16.6584 14.9002 16.6584 15.0174C16.6584 15.1053 16.6791 15.1847 16.7206 15.2555C16.7645 15.3239 16.8243 15.3862 16.8999 15.4424C16.9755 15.4961 17.0646 15.5486 17.167 15.5999C17.2719 15.6512 17.3866 15.7013 17.511 15.7501C17.7525 15.8454 17.966 15.9504 18.1514 16.0652C18.3368 16.1775 18.4917 16.3045 18.6161 16.4462C18.7405 16.5854 18.8344 16.7429 18.8978 16.9187C18.9613 17.0946 18.993 17.2949 18.993 17.5195C18.993 17.7418 18.9539 17.9445 18.8759 18.1277C18.8003 18.3084 18.6893 18.4647 18.5429 18.5966C18.3965 18.726 18.2197 18.8262 18.0123 18.897C17.8074 18.9678 17.5781 19.0032 17.3244 19.0032C17.078 19.0032 16.845 18.969 16.6255 18.9007C16.4059 18.8298 16.212 18.7236 16.0436 18.5819C15.8778 18.4378 15.7472 18.2559 15.6521 18.0361C15.6015 17.9178 15.5643 17.7881 15.5406 17.6469C15.5119 17.4757 15.4975 17.3901 15.5574 17.3193C15.6173 17.2484 15.7145 17.2484 15.9091 17.2484H16.1819C16.3512 17.2484 16.4359 17.2484 16.4899 17.2904C16.5439 17.3323 16.5708 17.4366 16.6245 17.6452C16.626 17.651 16.6275 17.6567 16.6291 17.6624C16.6608 17.7748 16.7096 17.8651 16.7755 17.9335C16.8413 17.9995 16.9219 18.0495 17.017 18.0837C17.1146 18.1155 17.2256 18.1313 17.35 18.1313C17.4915 18.1313 17.6037 18.1045 17.6866 18.0507C17.772 17.997 17.833 17.925 17.8696 17.8346C17.9062 17.7442 17.9245 17.6417 17.9245 17.5269Z" fill="currentcolor" />
  <path d="M10.6354 18.5298V18.4436C10.6354 18.2549 10.6354 18.1606 10.5769 18.102C10.5183 18.0434 10.4241 18.0434 10.2357 18.0434H8.65211V16.6183H9.92469C10.1131 16.6183 10.2073 16.6183 10.2658 16.5597C10.3244 16.5011 10.3244 16.4068 10.3244 16.2182V16.1576C10.3244 15.9689 10.3244 15.8746 10.2658 15.816C10.2073 15.7574 10.1131 15.7574 9.92469 15.7574H8.65211V14.4862H10.2284C10.4168 14.4862 10.511 14.4862 10.5696 14.4276C10.6281 14.369 10.6281 14.2747 10.6281 14.0861V13.9962C10.6281 13.8075 10.6281 13.7132 10.5696 13.6546C10.511 13.596 10.4168 13.596 10.2284 13.596H7.97964C7.79123 13.596 7.69702 13.596 7.63849 13.6546C7.57996 13.7132 7.57996 13.8075 7.57996 13.9962V18.5298C7.57996 18.7184 7.57996 18.8128 7.63849 18.8714C7.69702 18.93 7.79123 18.93 7.97964 18.93H10.2357C10.4241 18.93 10.5183 18.93 10.5769 18.8714C10.6354 18.8128 10.6354 18.7184 10.6354 18.5298Z" fill="currentcolor" />
  <path fill-rule="evenodd" d="M12.4045 17.0506H13.151C13.5096 17.0506 13.8182 16.981 14.0768 16.8418C14.3354 16.7026 14.533 16.5072 14.6696 16.2557C14.8086 16.0017 14.8782 15.7025 14.8782 15.3581C14.8782 15.0162 14.8086 14.7134 14.6696 14.4496C14.533 14.1834 14.3354 13.9746 14.0768 13.8231C13.8182 13.6717 13.5096 13.596 13.151 13.596H11.7357C11.5473 13.596 11.4531 13.596 11.3946 13.6546C11.336 13.7132 11.336 13.8075 11.336 13.9962V18.5298C11.336 18.7184 11.336 18.8128 11.3946 18.8714C11.4531 18.93 11.5473 18.93 11.7357 18.93H12.0048C12.1933 18.93 12.2875 18.93 12.346 18.8714C12.4045 18.8128 12.4045 18.7184 12.4045 18.5298V17.0506ZM13.151 16.1604H12.4045V14.8864C12.4045 14.6977 12.4045 14.6034 12.4631 14.5448C12.5216 14.4862 12.6158 14.4862 12.8042 14.4862H13.151C13.3047 14.4862 13.4279 14.5277 13.5206 14.6108C13.6157 14.6938 13.6853 14.8025 13.7292 14.9368C13.7755 15.0687 13.7987 15.2116 13.7987 15.3654C13.7987 15.5169 13.7767 15.6536 13.7328 15.7758C13.6889 15.8954 13.6182 15.9895 13.5206 16.0578C13.4255 16.1262 13.3023 16.1604 13.151 16.1604Z" fill="currentcolor" />
  <path fill-rule="evenodd" d="M15.657 7.36059C15.6332 7.04436 15.5811 6.75699 15.4675 6.48256C15.2571 5.97393 14.8661 5.58321 14.372 5.08952L14.2866 5.00408L11.4532 2.16745C11.1046 1.8179 10.8298 1.54242 10.4919 1.35431C10.3079 1.25185 10.1127 1.1709 9.91018 1.11307C9.71315 1.05681 9.51132 1.03044 9.29167 1.01813C9.2788 1.07413 9.27089 1.12342 9.26549 1.16183C9.23461 1.38169 9.2347 1.66337 9.23479 1.93868L9.2348 2.75727C9.23477 3.65607 9.23475 4.40556 9.31465 5.00056C9.39899 5.62858 9.58451 6.19558 10.0396 6.65122C10.4947 7.10685 11.0611 7.29259 11.6884 7.37702C12.2827 7.45702 13.0313 7.45699 13.9291 7.45696L14.6246 7.45697C14.8887 7.45706 15.1623 7.45716 15.377 7.4266C15.4456 7.41684 15.5462 7.39914 15.657 7.36059ZM14.2866 5.00408C14.2969 5.01447 14.307 5.02517 14.3168 5.03615L14.2866 5.00408Z" fill="currentcolor" />
</svg>
