<svg
  xmlns="http://www.w3.org/2000/svg"
  width="20"
  height="20"
  viewBox="0 0 20 20"
  fill="none"
>
  <path
    d="M8.66357 1.00004C9.15725 0.9997 9.54632 0.999434 9.91826 1.10559C10.1209 1.16342 10.3162 1.24436 10.5003 1.34681C10.8383 1.5349 11.1132 1.81037 11.4621 2.15989L14.2968 4.99631L14.327 5.02837C14.3172 5.01739 14.3072 5.0067 14.2968 4.99631L14.3823 5.08174C14.8766 5.57539 15.2678 5.96609 15.4783 6.47468C15.6889 6.98327 15.6884 7.53633 15.6877 8.23514L15.6876 11.6829C15.6876 11.7932 15.6876 11.9014 15.6876 12.0075H7.99798C7.00319 12.0075 6.50579 12.0075 6.19675 12.3777C5.8877 12.7478 5.8877 13.3435 5.8877 14.535V18.96C5.73031 18.9517 5.58004 18.9414 5.43645 18.9287C4.66611 18.8607 4.01691 18.7186 3.43158 18.3912C2.66495 17.9624 2.03218 17.3293 1.60364 16.5622C1.27645 15.9765 1.13444 15.3269 1.06645 14.5562C0.999989 13.8028 0.999994 12.8656 1 11.6829V8.54346C0.999992 7.25247 0.999986 6.2295 1.07866 5.41027C1.15922 4.57141 1.32766 3.86818 1.71462 3.24474C2.09988 2.62403 2.62301 2.10059 3.24335 1.71511C3.86644 1.32793 4.56926 1.15939 5.40763 1.07878C6.22638 1.00006 7.24875 1.00007 8.53899 1.00008L8.66357 1.00004Z"
    fill="currentColor"
    fill-opacity="0.2"
  />
  <path
    fill-rule="evenodd"
    clip-rule="evenodd"
    d="M15.6712 7.35688C15.6474 7.04068 15.5953 6.75333 15.4817 6.47892C15.2711 5.97033 14.8799 5.57963 14.3856 5.08598L14.3001 5.00055L11.4654 2.16413C11.1165 1.81461 10.8416 1.53914 10.5036 1.35105C10.3195 1.2486 10.1242 1.16766 9.92157 1.10983C9.72445 1.05357 9.52253 1.0272 9.30276 1.01489C9.28989 1.07089 9.28197 1.12018 9.27657 1.15859C9.24568 1.37843 9.24577 1.66009 9.24586 1.93537L9.24587 2.75391C9.24584 3.65264 9.24581 4.40208 9.32575 4.99703C9.41013 5.625 9.59575 6.19196 10.0511 6.64756C10.5064 7.10316 11.073 7.28889 11.7007 7.37331C12.2953 7.4533 13.0443 7.45328 13.9425 7.45325L14.6383 7.45326C14.9025 7.45335 15.1762 7.45344 15.3911 7.42288C15.4597 7.41312 15.5603 7.39542 15.6712 7.35688ZM14.3001 5.00055C14.3105 5.01094 14.3206 5.02163 14.3303 5.03261L14.3001 5.00055Z"
    fill="currentColor"
  />
  <path
    d="M16.4528 19H16.716C16.9087 19 17.005 19 17.0638 18.9397C17.1227 18.8794 17.1204 18.783 17.1157 18.5903L17.0732 16.8204H18.3951C18.5836 16.8204 18.6779 16.8204 18.7364 16.7618C18.795 16.7032 18.795 16.6089 18.795 16.4203V16.3341C18.795 16.1454 18.795 16.0511 18.7364 15.9925C18.6779 15.9339 18.5836 15.9339 18.3951 15.9339H17.0519V14.5566H18.6001C18.7886 14.5566 18.8829 14.5566 18.9415 14.498C19 14.4394 19 14.3451 19 14.1565V14.0666C19 13.8779 19 13.7836 18.9415 13.725C18.8829 13.6664 18.7886 13.6664 18.6001 13.6664H16.4528C16.2643 13.6664 16.17 13.6664 16.1115 13.725C16.0529 13.7836 16.0529 13.8779 16.0529 14.0666V18.5999C16.0529 18.7885 16.0529 18.8828 16.1115 18.9414C16.17 19 16.2643 19 16.4528 19Z"
    fill="currentColor"
  />
  <path
    fill-rule="evenodd"
    clip-rule="evenodd"
    d="M8.07118 19H7.80192C7.61341 19 7.51916 19 7.4606 18.9414C7.40204 18.8828 7.40204 18.7885 7.40204 18.5999V14.0666C7.40204 13.8779 7.40204 13.7836 7.4606 13.725C7.51916 13.6664 7.61341 13.6664 7.80192 13.6664H9.2179C9.57668 13.6664 9.88543 13.7422 10.1441 13.8936C10.4029 14.045 10.6005 14.2538 10.7372 14.52C10.8763 14.7837 10.9459 15.0865 10.9459 15.4284C10.9459 15.7728 10.8763 16.0719 10.7372 16.3259C10.6005 16.5774 10.4029 16.7728 10.1441 16.912C9.88543 17.0512 9.57668 17.1208 9.2179 17.1208H8.87094C8.68243 17.1208 8.58818 17.1208 8.52962 17.1794C8.47106 17.238 8.47106 17.3323 8.47106 17.5209V18.5999C8.47106 18.7885 8.47106 18.8828 8.41249 18.9414C8.35393 19 8.25968 19 8.07118 19ZM9.2179 16.2307C9.36923 16.2307 9.49248 16.1965 9.58767 16.1281C9.68529 16.0597 9.75607 15.9657 9.8 15.846C9.84394 15.7239 9.8659 15.5872 9.8659 15.4357C9.8659 15.2819 9.84272 15.139 9.79634 15.0072C9.75241 14.8728 9.68285 14.7642 9.58767 14.6811C9.49492 14.5981 9.37167 14.5566 9.2179 14.5566H8.87094C8.68243 14.5566 8.58818 14.5566 8.52962 14.6152C8.47106 14.6738 8.47106 14.7681 8.47106 14.9567V15.8305C8.47106 16.0192 8.47106 16.1135 8.52962 16.1721C8.58818 16.2307 8.68243 16.2307 8.87094 16.2307H9.2179Z"
    fill="currentColor"
  />
  <path
    fill-rule="evenodd"
    clip-rule="evenodd"
    d="M13.1296 19H12.1383C11.9498 19 11.8555 19 11.797 18.9414C11.7384 18.8828 11.7384 18.7885 11.7384 18.5999V14.0666C11.7384 13.8779 11.7384 13.7836 11.797 13.725C11.8555 13.6664 11.9498 13.6664 12.1383 13.6664H13.1442C13.4517 13.6664 13.7312 13.7165 13.9826 13.8166C14.234 13.9168 14.45 14.0633 14.6306 14.2562C14.8112 14.4467 14.9503 14.6824 15.048 14.9632C15.1456 15.244 15.1944 15.564 15.1944 15.9229V16.7472C15.1944 17.1086 15.1456 17.4285 15.048 17.7069C14.9503 17.9853 14.8112 18.221 14.6306 18.4139C14.4524 18.6044 14.2364 18.7497 13.9826 18.8498C13.7288 18.9499 13.4444 19 13.1296 19ZM13.1296 18.1135C13.3883 18.1135 13.5896 18.0671 13.7336 17.9743C13.8776 17.8815 13.9789 17.735 14.0375 17.5347C14.0985 17.3345 14.129 17.072 14.129 16.7472V15.9156C14.129 15.669 14.1132 15.4602 14.0814 15.2892C14.0497 15.1158 13.996 14.9766 13.9204 14.8716C13.8447 14.7642 13.7434 14.6848 13.6165 14.6335C13.4896 14.5822 13.3322 14.5566 13.1442 14.5566C13.0197 14.5566 12.9575 14.5566 12.9111 14.5834C12.8807 14.6009 12.8554 14.6262 12.8378 14.6567C12.8111 14.7031 12.8111 14.7654 12.8111 14.8899V17.7948C12.8111 17.9055 12.8111 17.9609 12.8324 18.0033C12.8517 18.0417 12.8828 18.0729 12.9212 18.0922C12.9636 18.1135 13.0189 18.1135 13.1296 18.1135Z"
    fill="currentColor"
  />
</svg>
