<svg
  xmlns="http://www.w3.org/2000/svg"
  width="20"
  height="20"
  viewBox="0 0 20 20"
  fill="none"
>
  <path
    d="M8.65275 1.00321C9.14619 1.00287 9.53507 1.00261 9.90683 1.10877C10.1093 1.1666 10.3045 1.24755 10.4886 1.35001C10.8264 1.53812 11.1012 1.8136 11.4499 2.16315L14.2832 4.99978L14.3134 5.03185C14.3037 5.02087 14.2936 5.01017 14.2832 4.99978L14.3687 5.08522C14.8627 5.5789 15.2538 5.96963 15.4642 6.47826C15.6746 6.98689 15.6741 7.53999 15.6734 8.23885L15.6734 11.6869C15.6734 11.8107 15.6734 11.9318 15.6733 12.0504H8.09826C7.11601 12.0504 6.62489 12.0504 6.31975 12.4205C6.0146 12.7907 6.0146 13.3865 6.0146 14.578V18.9711C5.80716 18.9618 5.61166 18.9495 5.4272 18.9332C4.65724 18.8652 4.00836 18.7231 3.42332 18.3957C2.65706 17.9668 2.0246 17.3337 1.59627 16.5665C1.26923 15.9808 1.1273 15.3312 1.05933 14.5603C0.992909 13.807 0.992914 12.8697 0.99292 11.6869V8.54719C0.992912 7.25611 0.992906 6.23306 1.07154 5.41377C1.15206 4.57485 1.32042 3.87157 1.70719 3.24808C2.09226 2.62733 2.61514 2.10385 3.23518 1.71834C3.85796 1.33113 4.56043 1.16258 5.39839 1.08196C6.21675 1.00324 7.23862 1.00324 8.52823 1.00325L8.65275 1.00321Z"
    fill="currentColor"
    fill-opacity="0.2"
  />
  <path
    d="M17.9244 17.5268C17.9244 17.4316 17.9159 17.3449 17.8988 17.2667C17.8817 17.1886 17.8451 17.1165 17.789 17.0506C17.7354 16.9846 17.6561 16.9187 17.5512 16.8527C17.4487 16.7868 17.3145 16.7184 17.1487 16.6476C16.9511 16.5645 16.7596 16.4766 16.5742 16.3838C16.3888 16.2886 16.2217 16.1787 16.0728 16.0541C15.924 15.9296 15.8057 15.783 15.7179 15.6145C15.6325 15.4435 15.5898 15.2433 15.5898 15.0137C15.5898 14.789 15.6301 14.5851 15.7106 14.4019C15.7935 14.2187 15.9106 14.0624 16.0619 13.933C16.2131 13.8011 16.39 13.6997 16.5925 13.6289C16.7974 13.5581 17.0255 13.5227 17.2767 13.5227C17.6183 13.5227 17.9134 13.5935 18.1623 13.7352C18.4135 13.8768 18.6075 14.071 18.7441 14.3176C18.8225 14.4568 18.8788 14.6076 18.913 14.7701C18.948 14.9364 18.9655 15.0195 18.9055 15.0935C18.8456 15.1676 18.748 15.1676 18.553 15.1676H18.2839C18.1236 15.1676 18.0435 15.1676 17.9921 15.1319C17.9407 15.0962 17.9007 14.989 17.8207 14.7746C17.8199 14.7725 17.8191 14.7704 17.8183 14.7682C17.7768 14.651 17.7097 14.5594 17.617 14.4935C17.5243 14.4275 17.4048 14.3946 17.2584 14.3946C17.1218 14.3946 17.0084 14.4227 16.9181 14.4788C16.8303 14.5326 16.7644 14.6071 16.7205 14.7023C16.6791 14.7951 16.6583 14.9001 16.6583 15.0174C16.6583 15.1053 16.6791 15.1847 16.7205 15.2555C16.7644 15.3239 16.8242 15.3861 16.8998 15.4423C16.9755 15.496 17.0645 15.5486 17.167 15.5998C17.2719 15.6511 17.3865 15.7012 17.5109 15.75C17.7524 15.8453 17.9659 15.9503 18.1513 16.0651C18.3367 16.1774 18.4916 16.3044 18.616 16.4461C18.7404 16.5853 18.8343 16.7428 18.8978 16.9187C18.9612 17.0945 18.9929 17.2948 18.9929 17.5195C18.9929 17.7417 18.9539 17.9444 18.8758 18.1276C18.8002 18.3083 18.6892 18.4646 18.5428 18.5965C18.3965 18.726 18.2196 18.8261 18.0122 18.8969C17.8073 18.9678 17.578 19.0032 17.3243 19.0032C17.0779 19.0032 16.8449 18.969 16.6254 18.9006C16.4058 18.8298 16.2119 18.7235 16.0436 18.5819C15.8777 18.4378 15.7472 18.2558 15.652 18.036C15.6014 17.9177 15.5642 17.788 15.5405 17.6469C15.5118 17.4757 15.4975 17.3901 15.5573 17.3192C15.6172 17.2484 15.7145 17.2484 15.909 17.2484H16.1818C16.3511 17.2484 16.4358 17.2484 16.4898 17.2903C16.5439 17.3322 16.5707 17.4366 16.6245 17.6452C16.626 17.651 16.6275 17.6567 16.6291 17.6624C16.6608 17.7747 16.7096 17.8651 16.7754 17.9334C16.8413 17.9994 16.9218 18.0495 17.0169 18.0836C17.1145 18.1154 17.2255 18.1313 17.3499 18.1313C17.4914 18.1313 17.6036 18.1044 17.6866 18.0507C17.772 17.9969 17.8329 17.9249 17.8695 17.8345C17.9061 17.7442 17.9244 17.6416 17.9244 17.5268Z"
    fill="currentColor"
  />
  <path
    d="M10.6354 18.5298V18.4435C10.6354 18.2549 10.6354 18.1605 10.5768 18.1019C10.5183 18.0434 10.4241 18.0434 10.2357 18.0434H8.65205V16.6183H9.92463C10.113 16.6183 10.2073 16.6183 10.2658 16.5597C10.3243 16.5011 10.3243 16.4068 10.3243 16.2181V16.1575C10.3243 15.9689 10.3243 15.8746 10.2658 15.816C10.2073 15.7574 10.113 15.7574 9.92463 15.7574H8.65205V14.4862H10.2283C10.4168 14.4862 10.511 14.4862 10.5695 14.4276C10.628 14.369 10.628 14.2746 10.628 14.086V13.9961C10.628 13.8075 10.628 13.7132 10.5695 13.6546C10.511 13.596 10.4168 13.596 10.2283 13.596H7.97958C7.79117 13.596 7.69696 13.596 7.63843 13.6546C7.57989 13.7132 7.5799 13.8075 7.5799 13.9961V18.5298C7.5799 18.7184 7.57989 18.8127 7.63843 18.8713C7.69696 18.9299 7.79117 18.9299 7.97958 18.9299H10.2357C10.4241 18.9299 10.5183 18.9299 10.5768 18.8713C10.6354 18.8127 10.6354 18.7184 10.6354 18.5298Z"
    fill="currentColor"
  />
  <path
    fill-rule="evenodd"
    clip-rule="evenodd"
    d="M12.4045 17.0506H13.151C13.5096 17.0506 13.8182 16.981 14.0767 16.8417C14.3353 16.7025 14.5329 16.5072 14.6695 16.2556C14.8086 16.0016 14.8781 15.7024 14.8781 15.3581C14.8781 15.0161 14.8086 14.7133 14.6695 14.4495C14.5329 14.1833 14.3353 13.9745 14.0767 13.8231C13.8182 13.6717 13.5096 13.596 13.151 13.596H11.7357C11.5472 13.596 11.453 13.596 11.3945 13.6546C11.336 13.7132 11.336 13.8075 11.336 13.9961V18.5298C11.336 18.7184 11.336 18.8127 11.3945 18.8713C11.453 18.9299 11.5472 18.9299 11.7357 18.9299H12.0048C12.1932 18.9299 12.2874 18.9299 12.3459 18.8713C12.4045 18.8127 12.4045 18.7184 12.4045 18.5298V17.0506ZM13.151 16.1603H12.4045V14.8863C12.4045 14.6977 12.4045 14.6034 12.463 14.5448C12.5215 14.4862 12.6157 14.4862 12.8042 14.4862H13.151C13.3046 14.4862 13.4278 14.5277 13.5205 14.6107C13.6157 14.6938 13.6852 14.8024 13.7291 14.9368C13.7755 15.0686 13.7986 15.2115 13.7986 15.3654C13.7986 15.5168 13.7767 15.6536 13.7328 15.7757C13.6889 15.8954 13.6181 15.9894 13.5205 16.0578C13.4254 16.1262 13.3022 16.1603 13.151 16.1603Z"
    fill="currentColor"
  />
  <path
    fill-rule="evenodd"
    clip-rule="evenodd"
    d="M15.657 7.36053C15.6332 7.0443 15.581 6.75693 15.4675 6.4825C15.257 5.97387 14.866 5.58315 14.3719 5.08946L14.2865 5.00402L11.4532 2.16739C11.1045 1.81784 10.8297 1.54236 10.4919 1.35425C10.3078 1.25179 10.1126 1.17084 9.91011 1.11301C9.71309 1.05675 9.51126 1.03038 9.29161 1.01807C9.27874 1.07407 9.27083 1.12336 9.26543 1.16177C9.23455 1.38163 9.23464 1.66331 9.23473 1.93862L9.23474 2.75721C9.23471 3.65601 9.23468 4.4055 9.31459 5.0005C9.39893 5.62852 9.58445 6.19552 10.0396 6.65116C10.4947 7.10679 11.061 7.29253 11.6883 7.37696C12.2826 7.45696 13.0313 7.45693 13.9291 7.4569L14.6245 7.45691C14.8886 7.457 15.1622 7.4571 15.3769 7.42654C15.4455 7.41677 15.5461 7.39908 15.657 7.36053ZM14.2865 5.00402C14.2969 5.01441 14.307 5.0251 14.3167 5.03609L14.2865 5.00402Z"
    fill="currentColor"
  />
</svg>
