<svg width="20" height="20" viewBox="0 0 20 20" fill="currentcolor" xmlns="http://www.w3.org/2000/svg">
  <path d="M8.66439 1.00004C9.15822 0.9997 9.5474 0.999434 9.91945 1.10562C10.1221 1.16346 10.3175 1.24442 10.5016 1.34691C10.8398 1.53505 11.1148 1.81059 11.4637 2.16021L14.2993 4.99741L14.3295 5.02949C14.3198 5.0185 14.3097 5.0078 14.2993 4.99741L14.3848 5.08286C14.8793 5.57665 15.2706 5.96746 15.4812 6.47619C15.6918 6.98493 15.6913 7.53814 15.6906 8.23713L15.6905 11.6858C15.6905 11.8097 15.6905 11.9309 15.6905 12.0494H9.63983C8.79494 12.0494 8.37249 12.0494 8.11001 12.4196C7.84753 12.7899 7.84753 13.3858 7.84753 14.5775V19C6.87913 18.999 6.08872 18.9913 5.4363 18.9337C4.66574 18.8656 4.01634 18.7235 3.43085 18.396C2.66398 17.9671 2.03103 17.3338 1.60236 16.5665C1.27506 15.9807 1.13302 15.3309 1.065 14.5599C0.998524 13.8064 0.998529 12.8689 0.998535 11.6859V8.54554C0.998528 7.2542 0.998522 6.23094 1.07722 5.41149C1.1578 4.5724 1.3263 3.86897 1.71337 3.24535C2.09874 2.62448 2.62203 2.1009 3.24256 1.71531C3.86583 1.32802 4.56886 1.15943 5.40748 1.0788C6.22647 1.00006 7.24915 1.00007 8.53978 1.00008L8.66439 1.00004Z" fill="currentcolor" fill-opacity="0.2" />
  <path fill-rule="evenodd" d="M15.6741 7.35863C15.6503 7.04234 15.5981 6.75491 15.4845 6.48043C15.2739 5.97169 14.8826 5.58089 14.3881 5.0871L14.3026 5.00165L11.467 2.16445C11.1181 1.81483 10.8431 1.53929 10.5049 1.35115C10.3208 1.24866 10.1254 1.1677 9.92275 1.10986C9.72557 1.05358 9.52359 1.02721 9.30376 1.01489C9.29088 1.0709 9.28296 1.1202 9.27756 1.15863C9.24666 1.37853 9.24675 1.66027 9.24684 1.93563L9.24684 2.75439C9.24681 3.65337 9.24679 4.40301 9.32676 4.99813C9.41116 5.62627 9.59683 6.19339 10.0523 6.64912C10.5078 7.10484 11.0746 7.29062 11.7024 7.37507C12.2971 7.45508 13.0464 7.45505 13.9449 7.45502L14.6409 7.45503C14.9052 7.45513 15.179 7.45522 15.3939 7.42465C15.4625 7.41489 15.5632 7.39719 15.6741 7.35863ZM14.3026 5.00165C14.313 5.01204 14.323 5.02274 14.3328 5.03372L14.3026 5.00165Z" fill="currentcolor" />
  <path d="M16.4533 18.9267H16.7166C16.9094 18.9267 17.0057 18.9267 17.0646 18.8663C17.1234 18.806 17.1211 18.7096 17.1165 18.5168L17.074 16.7465H18.3963C18.5848 16.7465 18.6791 16.7465 18.7377 16.6879C18.7963 16.6293 18.7963 16.5349 18.7963 16.3463V16.26C18.7963 16.0713 18.7963 15.977 18.7377 15.9184C18.6791 15.8598 18.5848 15.8598 18.3963 15.8598H17.0527V14.482H18.6013C18.7899 14.482 18.8842 14.482 18.9428 14.4234C19.0013 14.3648 19.0013 14.2705 19.0013 14.0818V13.9919C19.0013 13.8032 19.0013 13.7089 18.9428 13.6503C18.8842 13.5916 18.7899 13.5916 18.6013 13.5916H16.4533C16.2648 13.5916 16.1705 13.5916 16.1119 13.6503C16.0533 13.7089 16.0533 13.8032 16.0533 13.9919V18.5264C16.0533 18.7151 16.0533 18.8094 16.1119 18.8681C16.1705 18.9267 16.2648 18.9267 16.4533 18.9267Z" fill="currentcolor" />
  <path d="M14.6627 13.5916C14.8513 13.5916 14.9456 13.5916 15.0042 13.6503C15.0627 13.7089 15.0627 13.8032 15.0627 13.9919V18.5264C15.0627 18.7151 15.0627 18.8094 15.0042 18.8681C14.9456 18.9267 14.8513 18.9267 14.6627 18.9267H14.3971C14.2085 18.9267 14.1142 18.9267 14.0556 18.8681C13.9971 18.8094 13.9971 18.7151 13.9971 18.5264V13.9919C13.9971 13.8032 13.9971 13.7089 14.0556 13.6503C14.1142 13.5916 14.2085 13.5916 14.3971 13.5916H14.6627Z" fill="currentcolor" />
  <path d="M12.7018 16.1236C12.8904 16.1236 12.9846 16.1236 13.0432 16.1822C13.1018 16.2408 13.1018 16.3351 13.1018 16.5238V18.1636C13.1018 18.2436 13.1018 18.2837 13.0838 18.3232C13.0659 18.3627 13.0396 18.3856 12.9871 18.4313C12.9261 18.4844 12.8532 18.5421 12.7686 18.6042C12.6245 18.7093 12.4353 18.8021 12.2009 18.8827C11.969 18.9609 11.6858 19 11.3513 19C11.0559 19 10.7874 18.9535 10.5457 18.8607C10.3064 18.7679 10.1001 18.6274 9.92676 18.4393C9.75586 18.2488 9.62524 18.0118 9.53491 17.7285C9.44458 17.4427 9.39941 17.1044 9.39941 16.7135V15.8048C9.39941 15.4188 9.44214 15.083 9.52759 14.7972C9.61548 14.5089 9.74243 14.2695 9.90845 14.079C10.0745 13.8884 10.2722 13.7468 10.5017 13.6539C10.7336 13.5611 10.9949 13.5147 11.2854 13.5147C11.6858 13.5147 12.0142 13.5819 12.2705 13.7162C12.5293 13.8506 12.7246 14.0497 12.8564 14.3135C12.9378 14.4734 12.9995 14.6554 13.0414 14.8593C13.0795 15.0445 13.0986 15.1372 13.0385 15.2108C12.9785 15.2845 12.8754 15.2845 12.6691 15.2845H12.4325C12.2692 15.2845 12.1876 15.2845 12.1337 15.2429C12.0798 15.2014 12.0548 15.1071 12.0049 14.9184C11.9889 14.8579 11.97 14.804 11.9482 14.7568C11.8921 14.6298 11.8127 14.5394 11.7102 14.4857C11.6077 14.4295 11.4746 14.4014 11.311 14.4014C11.1694 14.4014 11.0461 14.4271 10.9412 14.4784C10.8362 14.5272 10.7483 14.6078 10.6775 14.7202C10.6067 14.8326 10.5542 14.9767 10.52 15.1526C10.4858 15.3285 10.4688 15.5434 10.4688 15.7975V16.7135C10.4688 16.9651 10.4883 17.1801 10.5273 17.3584C10.5664 17.5367 10.6238 17.6821 10.6995 17.7944C10.7776 17.9068 10.8752 17.9886 10.9924 18.0399C11.1121 18.0888 11.2524 18.1132 11.4136 18.1132C11.543 18.1132 11.6467 18.0998 11.7249 18.0729C11.803 18.046 11.8652 18.018 11.9116 17.9886C11.9366 17.9724 11.9491 17.9643 11.9563 17.9586C12.0031 17.9217 12.0262 17.879 12.0316 17.8197C12.0325 17.8106 12.0325 17.7984 12.0325 17.7739V17.3163C12.0325 17.1444 12.0325 17.0584 11.9832 17.0019C11.9772 16.9951 11.9708 16.9887 11.964 16.9827C11.9075 16.9334 11.8216 16.9334 11.6498 16.9334C11.478 16.9334 11.3921 16.9334 11.3356 16.884C11.3288 16.8781 11.3224 16.8716 11.3164 16.8648C11.2671 16.8083 11.2671 16.7223 11.2671 16.5505V16.5238C11.2671 16.3351 11.2671 16.2408 11.3257 16.1822C11.3842 16.1236 11.4785 16.1236 11.6671 16.1236H12.7018Z" fill="currentcolor" />
</svg>
