<svg
  xmlns="http://www.w3.org/2000/svg"
  width="20"
  height="20"
  viewBox="0 0 20 20"
  fill="none"
>
  <path
    d="M13.3064 1.21477C12.8552 0.754808 12.4981 0.390778 12.0332 0.194866C11.5684 -0.00104614 11.0629 -0.000553505 10.4242 6.8874e-05L9.94835 0.0001399C8.26813 0.000125152 6.93728 0.000113398 5.89572 0.14259C4.8238 0.28922 3.9562 0.598164 3.27198 1.29431C2.58777 1.99046 2.28412 2.87319 2.14001 3.96381C1.99997 5.02354 1.99999 6.3776 2 8.08712V11.913C1.99999 13.6225 1.99997 14.9766 2.14001 16.0363C2.28412 17.1269 2.58777 18.0097 3.27198 18.7058C3.9562 19.402 4.8238 19.7109 5.89572 19.8575C6.93726 20 8.26808 20 9.94826 20H10.0515C11.7317 20 13.0626 20 14.1041 19.8575C15.1761 19.7109 16.0437 19.402 16.7279 18.7058C17.4121 18.0097 17.7157 17.1269 17.8599 16.0363C17.9999 14.9766 17.9999 13.6226 17.9999 11.9131L17.9999 7.708C18.0005 7.05815 18.001 6.54381 17.8085 6.07084C17.6159 5.59787 17.2581 5.23453 16.8061 4.77545L13.3064 1.21477Z"
    fill="currentColor"
    fill-opacity="0.2"
  />
  <path
    d="M17.9423 6.5518C17.9139 6.38477 17.8715 6.22548 17.8085 6.07062C17.6159 5.59765 17.2581 5.23432 16.806 4.77524L13.3064 1.21455C12.8552 0.754591 12.4981 0.390561 12.0332 0.194648C11.8803 0.130219 11.7231 0.0870318 11.5581 0.0581055L11.5581 2.39168C11.5581 3.18728 11.5581 3.85074 11.6277 4.37742C11.7011 4.93334 11.8627 5.43524 12.2591 5.83857C12.6555 6.24189 13.1488 6.4063 13.6952 6.48104C14.2129 6.55185 14.8649 6.55183 15.6469 6.55181L17.9423 6.5518Z"
    fill="currentColor"
  />
  <path
    d="M11.3934 10.0588C11.637 9.72381 12.1061 9.64975 12.4411 9.89338C12.776 10.137 12.8501 10.6061 12.6065 10.9411L10.9274 13.2499L12.6066 15.5588C12.8502 15.8938 12.7762 16.3629 12.4412 16.6065C12.1062 16.8501 11.6371 16.776 11.3935 16.4411L9.99998 14.525L8.60648 16.4411C8.36285 16.776 7.89379 16.8501 7.5588 16.6065C7.22381 16.3629 7.14975 15.8938 7.39338 15.5588L9.07261 13.2499L7.39348 10.9411C7.14986 10.6061 7.22392 10.137 7.55891 9.89338C7.8939 9.64975 8.36296 9.72381 8.60659 10.0588L9.99998 11.9747L11.3934 10.0588Z"
    fill="currentColor"
  />
</svg>
