<svg
  xmlns="http://www.w3.org/2000/svg"
  width="20"
  height="20"
  viewBox="0 0 20 20"
  fill="none"
>
  <path
    d="M8.65983 1.00004C9.15327 0.9997 9.54215 0.999434 9.91391 1.10559C10.1164 1.16342 10.3116 1.24436 10.4956 1.34681C10.8335 1.5349 11.1083 1.81037 11.457 2.15989L14.2903 4.99631L14.3205 5.02837C14.3107 5.01739 14.3007 5.0067 14.2903 4.99631L14.3757 5.08174C14.8698 5.57539 15.2608 5.96609 15.4713 6.47468C15.6817 6.98327 15.6812 7.53633 15.6805 8.23514L15.6804 11.6829C15.6804 11.8555 15.6804 12.023 15.6802 12.1853H7.56386C6.53172 12.1853 6.01565 12.1853 5.69501 12.5555C5.37437 12.9256 5.37437 13.5213 5.37437 14.7128V18.9232C4.63057 18.8531 4.0002 18.7101 3.4304 18.3912C2.66414 17.9624 2.03168 17.3293 1.60335 16.5622C1.27631 15.9765 1.13438 15.3269 1.06641 14.5562C0.999989 13.8028 0.999994 12.8656 1 11.6829V8.54346C0.999992 7.25247 0.999986 6.2295 1.07862 5.41027C1.15914 4.57141 1.3275 3.86818 1.71427 3.24474C2.09934 2.62403 2.62222 2.10059 3.24226 1.71511C3.86504 1.32793 4.56751 1.15939 5.40547 1.07878C6.22383 1.00006 7.2457 1.00007 8.53531 1.00008L8.65983 1.00004Z"
    fill="currentColor"
    fill-opacity="0.2"
  />
  <path
    fill-rule="evenodd"
    clip-rule="evenodd"
    d="M15.6641 7.35688C15.6402 7.04068 15.5881 6.75333 15.4746 6.47892C15.2641 5.97033 14.8731 5.57963 14.379 5.08598L14.2936 5.00055L11.4603 2.16413C11.1116 1.81461 10.8368 1.53914 10.4989 1.35105C10.3149 1.2486 10.1197 1.16766 9.91721 1.10983C9.72019 1.05357 9.51835 1.0272 9.2987 1.01489C9.28583 1.07089 9.27792 1.12018 9.27252 1.15859C9.24164 1.37843 9.24173 1.66009 9.24182 1.93537L9.24183 2.75391C9.2418 3.65264 9.24178 4.40208 9.32168 4.99703C9.40602 5.625 9.59154 6.19196 10.0467 6.64756C10.5018 7.10316 11.0681 7.28889 11.6954 7.37331C12.2897 7.4533 13.0384 7.45328 13.9361 7.45325L14.6316 7.45326C14.8957 7.45335 15.1693 7.45345 15.384 7.42288C15.4526 7.41312 15.5532 7.39543 15.6641 7.35688ZM14.2936 5.00055C14.304 5.01094 14.314 5.02163 14.3238 5.03261L14.2936 5.00055Z"
    fill="currentColor"
  />
  <path
    fill-rule="evenodd"
    clip-rule="evenodd"
    d="M7.95291 17.1208H8.69939C9.058 17.1208 9.36659 17.0512 9.62518 16.912C9.88376 16.7728 10.0814 16.5774 10.218 16.3259C10.357 16.0719 10.4265 15.7728 10.4265 15.4284C10.4265 15.0865 10.357 14.7837 10.218 14.52C10.0814 14.2538 9.88376 14.045 9.62518 13.8936C9.36659 13.7422 9.058 13.6664 8.69939 13.6664H7.2841C7.09569 13.6664 7.00148 13.6664 6.94295 13.725C6.88441 13.7836 6.88441 13.8779 6.88441 14.0666V18.5999C6.88441 18.7885 6.88441 18.8828 6.94295 18.9414C7.00148 19 7.09569 19 7.2841 19H7.55322C7.74164 19 7.83585 19 7.89438 18.9414C7.95291 18.8828 7.95291 18.7885 7.95291 18.5999V17.1208ZM8.69939 16.2307H7.95291V14.9567C7.95291 14.7681 7.95291 14.6738 8.01144 14.6152C8.06997 14.5566 8.16418 14.5566 8.3526 14.5566H8.69939C8.85308 14.5566 8.97627 14.5981 9.06898 14.6811C9.16412 14.7642 9.23364 14.8728 9.27755 15.0072C9.3239 15.139 9.34708 15.2819 9.34708 15.4358C9.34708 15.5872 9.32512 15.7239 9.28121 15.846C9.2373 15.9657 9.16655 16.0597 9.06898 16.1281C8.97384 16.1965 8.85064 16.2307 8.69939 16.2307Z"
    fill="currentColor"
  />
  <path
    fill-rule="evenodd"
    clip-rule="evenodd"
    d="M12.2871 17.1208H13.0336C13.3922 17.1208 13.7008 17.0512 13.9594 16.912C14.218 16.7728 14.4156 16.5774 14.5522 16.3259C14.6913 16.0719 14.7608 15.7728 14.7608 15.4284C14.7608 15.0865 14.6913 14.7837 14.5522 14.52C14.4156 14.2538 14.218 14.045 13.9594 13.8936C13.7008 13.7422 13.3922 13.6664 13.0336 13.6664H11.6183C11.4299 13.6664 11.3357 13.6664 11.2772 13.725C11.2187 13.7836 11.2187 13.8779 11.2187 14.0666V18.5999C11.2187 18.7885 11.2187 18.8828 11.2772 18.9414C11.3357 19 11.4299 19 11.6183 19H11.8875C12.0759 19 12.1701 19 12.2286 18.9414C12.2871 18.8828 12.2871 18.7885 12.2871 18.5999V17.1208ZM13.0336 16.2307H12.2871V14.9567C12.2871 14.7681 12.2871 14.6738 12.3457 14.6152C12.4042 14.5566 12.4984 14.5566 12.6868 14.5566H13.0336C13.1873 14.5566 13.3105 14.5981 13.4032 14.6811C13.4984 14.7642 13.5679 14.8728 13.6118 15.0072C13.6581 15.139 13.6813 15.2819 13.6813 15.4358C13.6813 15.5872 13.6594 15.7239 13.6154 15.846C13.5715 15.9657 13.5008 16.0597 13.4032 16.1281C13.3081 16.1965 13.1849 16.2307 13.0336 16.2307Z"
    fill="currentColor"
  />
  <path
    d="M17.0102 18.9952H17.2757C17.4641 18.9952 17.5583 18.9952 17.6168 18.9366C17.6754 18.878 17.6754 18.7837 17.6754 18.5951V14.9519C17.6754 14.7633 17.6754 14.669 17.7339 14.6104C17.7924 14.5518 17.8866 14.5518 18.075 14.5518H18.6003C18.7887 14.5518 18.8829 14.5518 18.9415 14.4932C19 14.4346 19 14.3403 19 14.1517V14.0618C19 13.8732 19 13.7789 18.9415 13.7203C18.8829 13.6617 18.7887 13.6617 18.6003 13.6617H15.7112C15.5228 13.6617 15.4286 13.6617 15.37 13.7203C15.3115 13.7789 15.3115 13.8732 15.3115 14.0618V14.1517C15.3115 14.3403 15.3115 14.4346 15.37 14.4932C15.4286 14.5518 15.5228 14.5518 15.7112 14.5518H16.2108C16.3993 14.5518 16.4935 14.5518 16.552 14.6104C16.6105 14.669 16.6105 14.7633 16.6105 14.9519V18.5951C16.6105 18.7837 16.6105 18.878 16.6691 18.9366C16.7276 18.9952 16.8218 18.9952 17.0102 18.9952Z"
    fill="currentColor"
  />
</svg>
