<svg width="20" height="20" viewBox="0 0 20 20" fill="currentcolor" xmlns="http://www.w3.org/2000/svg">
  <path d="M7.64133 0.000422764C7.19708 -0.0101359 6.85547 0.178242 6.57322 0.43582C6.33316 0.654902 6.0934 0.965376 5.84408 1.28822L5.81338 1.32797C4.28465 3.30661 2 7.02833 2 11.6556C2 16.2641 5.58172 20 10 20C14.4183 20 18 16.2641 18 11.6556C18 8.60063 16.6492 5.86444 15.6153 4.29633L15.5974 4.26919C15.5135 4.14166 15.4092 3.98316 15.3003 3.86443C15.1648 3.71664 14.9233 3.52006 14.5682 3.5355C14.2061 3.55124 13.9802 3.77783 13.8605 3.93385C13.7612 4.06317 13.6684 4.23282 13.5919 4.37276L12.846 5.73431C12.778 5.85846 12.7216 5.96126 12.6712 6.04952C12.6115 5.96779 12.5443 5.87232 12.4632 5.75701L9.43983 1.4567C9.18491 1.09398 8.94627 0.754419 8.70929 0.512399C8.43806 0.23539 8.09883 0.0112962 7.64133 0.000422764Z" fill="currentcolor" fill-opacity="0.2" />
  <path d="M9.99993 16.0636C11.9716 16.0636 13.5699 14.5891 13.5699 12.7702C13.5699 11.7265 13.0321 11.0136 12.6382 10.6314C12.4797 10.4776 12.4005 10.4007 12.2687 10.4085C12.1368 10.4163 12.0576 10.5138 11.899 10.7088L11.4219 11.2957C11.1803 11.5928 11.0595 11.7414 10.9118 11.7374C10.7641 11.7334 10.6483 11.574 10.4166 11.2553C10.0903 10.8065 9.59995 10.1719 8.95682 9.45024C8.62361 9.07638 8.45701 8.88945 8.21008 8.90849C7.96316 8.92752 7.83299 9.12881 7.57264 9.53137C7.06097 10.3226 6.42993 11.5464 6.42993 12.7702C6.42993 14.5891 8.02828 16.0636 9.99993 16.0636Z" fill="currentcolor" />
</svg>
