<svg width="20" height="20" viewBox="0 0 20 20" fill="currentcolor" xmlns="http://www.w3.org/2000/svg">
  <path fill-rule="evenodd" d="M12.6034 1H8.10238C6.62307 0.999984 5.44249 0.999971 4.51656 1.12446C3.56001 1.25306 2.77225 1.52584 2.14904 2.14904C1.52584 2.77225 1.25306 3.56001 1.12446 4.51656C0.999971 5.44249 0.999984 6.62306 1 8.10238V11.8976C0.999984 13.3769 0.999971 14.5575 1.12446 15.4834C1.25306 16.44 1.52584 17.2277 2.14904 17.8509C2.77225 18.4742 3.56001 18.7469 4.51656 18.8755C5.44249 19 6.62307 19 8.10239 19H11.8976C13.3769 19 14.5575 19 15.4834 18.8755C16.44 18.7469 17.2277 18.4742 17.8509 17.8509C18.4741 17.2277 18.7469 16.44 18.8755 15.4834C19 14.5575 19 13.3769 19 11.8976L19 8.63464C19.0001 7.58937 19.0002 6.94485 18.8469 6.32049C18.822 6.2193 18.7942 6.11885 18.7635 6.01929C18.5737 5.40503 18.242 4.85241 17.7041 3.95615L17.6422 3.85288C17.3047 3.29046 17.0288 2.83053 16.7678 2.47028C16.4953 2.09418 16.2125 1.78766 15.8424 1.54976C15.7334 1.47968 15.6205 1.41578 15.5043 1.35835C15.1099 1.16341 14.7015 1.07855 14.2389 1.03843C13.7956 0.999985 13.2594 0.999992 12.6034 1Z" fill="currentcolor" fill-opacity="0.2" />
  <path fill-rule="evenodd" d="M7.23074 4.69232C6.84839 4.69232 6.53844 5.00228 6.53844 5.38463C6.53844 5.76698 6.84839 6.07694 7.23074 6.07694L12.7692 6.07694C13.1516 6.07694 13.4615 5.76698 13.4615 5.38463C13.4615 5.00228 13.1516 4.69232 12.7692 4.69232H7.23074ZM15.1346 18.8906C14.692 18.944 14.1935 18.9713 13.6346 18.9853V15.8462C13.6346 14.8822 13.633 14.2346 13.568 13.7516C13.506 13.2901 13.3988 13.0926 13.2685 12.9623C13.1381 12.832 12.9406 12.7248 12.4792 12.6627C11.9961 12.5978 11.3486 12.5962 10.3846 12.5962H9.15381C8.1898 12.5962 7.54224 12.5978 7.0592 12.6627C6.59774 12.7248 6.40025 12.832 6.26993 12.9623C6.13961 13.0926 6.03239 13.2901 5.97035 13.7516C5.90541 14.2346 5.90381 14.8822 5.90381 15.8462V18.9853C5.34485 18.9713 4.84635 18.944 4.40381 18.8906L4.40381 15.7942C4.40378 14.8957 4.40376 14.1465 4.48372 13.5517C4.56813 12.9239 4.7538 12.3571 5.20927 11.9016C5.66474 11.4462 6.23154 11.2605 6.85933 11.1761C7.45411 11.0961 8.20331 11.0962 9.10178 11.0962H10.4366C11.335 11.0962 12.0843 11.0961 12.6791 11.1761C13.3068 11.2605 13.8736 11.4462 14.3291 11.9016C14.7846 12.3571 14.9703 12.9239 15.0547 13.5517C15.1346 14.1465 15.1346 14.8957 15.1346 15.7942L15.1346 18.8906Z" fill="currentcolor" />
</svg>
