<svg
  xmlns="http://www.w3.org/2000/svg"
  width="20"
  height="20"
  viewBox="0 0 20 20"
  fill="none"
>
  <path
    d="M16.0495 12.5242C16.4504 12.8646 17.0046 13.1432 17.5763 13.3651C18.5241 13.7331 18.9981 13.917 18.9981 14.0648C18.9981 14.2125 18.5241 14.3965 17.5763 14.7644C17.0046 14.9864 16.4504 15.2649 16.0495 15.6053C15.5032 16.0692 15.087 16.7791 14.7769 17.5044C14.3507 18.5014 14.1376 18.9999 13.9951 18.9999C13.8526 18.9999 13.6395 18.5014 13.2133 17.5044C12.9033 16.7791 12.487 16.0692 11.9408 15.6053C11.5398 15.2649 10.9856 14.9864 10.4139 14.7644C9.46611 14.3965 8.99219 14.2125 8.99219 14.0648C8.99219 13.917 9.46611 13.7331 10.4139 13.3651C10.9856 13.1432 11.5398 12.8646 11.9408 12.5242C12.487 12.0604 12.9033 11.3504 13.2133 10.6251C13.6395 9.62814 13.8526 9.12964 13.9951 9.12964C14.1376 9.12964 14.3507 9.62814 14.7769 10.6251C15.087 11.3504 15.5032 12.0604 16.0495 12.5242Z"
    fill="currentColor"
  />
  <path
    d="M7.70927 1.03745C7.33044 0.999971 6.87384 0.999985 6.33694 1H5.70202C4.80279 0.999973 4.05291 0.999949 3.45762 1.07997C2.82929 1.16444 2.26201 1.35025 1.80615 1.80605C1.35029 2.26185 1.16446 2.82907 1.07998 3.45732C0.999949 4.05253 0.999973 4.80229 1 5.70142V12.2978C0.999982 13.6663 0.999967 14.7695 1.11663 15.6371C1.23775 16.5379 1.49686 17.2963 2.09929 17.8987C2.70172 18.501 3.46025 18.7601 4.36112 18.8812C5.22883 18.9978 6.3321 18.9978 7.70086 18.9978H12.226C12.1138 18.7514 11.9884 18.4582 11.8524 18.1399L11.833 18.0945C11.5588 17.4531 11.2549 16.9923 10.9691 16.7496C10.7545 16.5674 10.3796 16.3614 9.8707 16.1639L9.82164 16.1448C9.39002 15.9773 8.996 15.8244 8.7134 15.6926C8.5741 15.6277 8.3734 15.5283 8.18892 15.392C8.09566 15.3231 7.94651 15.2016 7.81036 15.0187C7.66989 14.8301 7.49102 14.5032 7.49102 14.0649C7.49102 13.6265 7.66989 13.2996 7.81036 13.111C7.94651 12.9282 8.09566 12.8066 8.18892 12.7377C8.3734 12.6014 8.5741 12.502 8.7134 12.4371C8.99601 12.3054 9.38999 12.1524 9.82163 11.9849L9.8707 11.9659C10.3796 11.7683 10.7545 11.5623 10.9691 11.3801C11.2549 11.1374 11.5588 10.6767 11.833 10.0352L11.8524 9.98978C12.0488 9.53023 12.223 9.12286 12.3673 8.83349C12.4384 8.69106 12.5404 8.49804 12.6713 8.32333C12.7364 8.23641 12.8523 8.09423 13.0241 7.96237C13.1931 7.83262 13.5278 7.62863 13.9952 7.62863C14.4627 7.62863 14.7974 7.83262 14.9664 7.96237C15.1382 8.09423 15.2541 8.23641 15.3192 8.32333C15.4501 8.49804 15.5521 8.69106 15.6231 8.83349C15.7675 9.12287 15.9417 9.53025 16.1381 9.98981L16.1575 10.0352C16.4317 10.6767 16.7356 11.1374 17.0214 11.3801C17.236 11.5623 17.6109 11.7683 18.1198 11.9659L18.1688 11.9849C18.4732 12.103 18.7589 12.2139 19 12.3152C19 12.3094 19 12.3036 19 12.2978V10.9077C19 9.53914 19 8.43601 18.8834 7.56841C18.7623 6.66764 18.5031 5.90921 17.9007 5.30685C17.2983 4.70449 16.5398 4.44541 15.6389 4.3243C14.7712 4.20766 13.6679 4.20767 12.2992 4.20769L11.6199 4.2077C11.3219 4.2077 11.1525 4.20685 11.0271 4.19444C10.9709 4.18888 10.9409 4.18235 10.9262 4.17824C10.9193 4.17632 10.9149 4.17454 10.9149 4.17454L10.9135 4.1739L10.9123 4.17304C10.9123 4.17304 10.9086 4.17009 10.9035 4.16505C10.8926 4.15429 10.8721 4.13156 10.8394 4.08552C10.7664 3.9828 10.6816 3.83616 10.5337 3.57741L10.4121 3.36466C10.1457 2.89853 9.91921 2.50212 9.69872 2.19182C9.46383 1.86129 9.2031 1.57959 8.84495 1.37177C8.48679 1.16395 8.11283 1.07737 7.70927 1.03745Z"
    fill="currentColor"
    fill-opacity="0.2"
  />
</svg>
