<svg
  xmlns="http://www.w3.org/2000/svg"
  width="20"
  height="20"
  viewBox="0 0 20 20"
  fill="none"
>
  <path
    d="M7.5594 2.18869C7.08892 1.99899 6.57813 1.99946 5.93269 2.00007L4.37569 2.00013C3.53886 2.00011 2.84104 2.00009 2.28706 2.0732C1.70234 2.15037 1.17442 2.32012 0.7502 2.73655C0.325978 3.15297 0.153046 3.67119 0.0744319 4.24516C-4.72963e-05 4.78895 -2.53403e-05 5.47394 9.85126e-07 6.29538V11.8788C-1.66797e-05 13.1291 -3.09199e-05 14.137 0.108532 14.9296C0.221246 15.7526 0.462378 16.4455 1.023 16.9958C1.58362 17.5461 2.2895 17.7828 3.12786 17.8935C3.93535 18 4.96204 18 6.23581 18H7.07731C7.77643 18 8.34862 18 8.82105 17.957C9.31504 17.9121 9.74976 17.817 10.1668 17.5996C10.5839 17.3822 10.9076 17.082 11.2223 16.7054C11.5232 16.3453 11.8436 15.8801 12.2352 15.3115L17.1109 8.2329C17.1891 8.11949 17.2308 7.98573 17.2308 7.84882L17.2308 7.76788C17.231 7.19624 17.2311 6.80659 17.161 6.46785C16.882 5.11825 15.8075 4.06347 14.4326 3.78961C14.0876 3.72087 13.6906 3.72097 13.1083 3.72112L9.89059 3.72113C9.69163 3.72113 9.58049 3.72068 9.49711 3.7145C9.45997 3.71175 9.43967 3.70851 9.42927 3.7064C9.42433 3.7054 9.4217 3.70467 9.42074 3.70438L9.41955 3.70399L9.41842 3.70345C9.41753 3.70298 9.41513 3.70169 9.41091 3.699C9.402 3.69333 9.38524 3.68162 9.35685 3.65795C9.29312 3.60482 9.21375 3.52844 9.07223 3.39116L8.8515 3.17694C8.39285 2.73117 8.02987 2.37839 7.5594 2.18869Z"
    fill="currentColor"
    fill-opacity="0.2"
  />
  <path
    d="M19.8841 10.6771C20.0603 9.93561 20.0769 9.21907 19.6378 8.5857C19.1988 7.95232 18.5137 7.7044 17.7464 7.59318C17.0054 7.48579 16.0323 7.48581 14.8407 7.48584L6.88631 7.48584C6.33692 7.48582 5.87095 7.48581 5.48676 7.52575C5.07784 7.56827 4.70053 7.66066 4.34706 7.8829C3.99359 8.10514 3.75031 8.40294 3.53996 8.74977C3.34234 9.07563 3.14749 9.49113 2.91776 9.98099L2.02061 11.8939C1.49419 13.0163 1.06589 13.9294 0.846317 14.6672C0.619932 15.4279 0.562029 16.1723 0.998922 16.8419C1.43582 17.5114 2.14881 17.7711 2.94741 17.8873C3.72197 18.0001 4.74609 18.0001 6.00482 18H12.8194C13.7065 18 14.4291 18.0001 15.0167 17.9365C15.6302 17.8702 16.1622 17.7293 16.6461 17.4061C17.13 17.0829 17.4588 16.6488 17.7468 16.113C18.0227 15.5998 18.288 14.94 18.6136 14.1299L18.9192 13.3697C19.3566 12.2816 19.7139 11.3931 19.8841 10.6771Z"
    fill="currentColor"
  />
</svg>
