<svg width="20" height="20" viewBox="0 0 20 20" fill="currentcolor" xmlns="http://www.w3.org/2000/svg">
  <path d="M7.55255 2.20344C7.06698 1.9989 6.53539 1.99942 5.86385 2.00007L4.37024 2.00015C3.53444 2.00012 2.83749 2.0001 2.28421 2.07321C1.70021 2.15038 1.17296 2.32013 0.749265 2.73656C0.325572 3.15298 0.152855 3.6712 0.0743391 4.24518C-4.72367e-05 4.78896 -2.53087e-05 5.47395 9.83898e-07 6.2954V11.8788C-1.66589e-05 13.1291 -3.08827e-05 14.137 0.108396 14.9296C0.22097 15.7526 0.461802 16.4455 1.02172 16.9958C1.58165 17.5461 2.28665 17.7828 3.12396 17.8935C3.93044 18 4.95585 18 6.22803 18H13.772C15.0442 18 16.0696 18 16.8761 17.8935C17.7134 17.7828 18.4184 17.5461 18.9783 16.9958C19.5382 16.4455 19.779 15.7526 19.8916 14.9296C20 14.137 20 13.1292 20 11.8789V9.94992C20 8.69958 20 7.69171 19.8916 6.89908C19.779 6.07613 19.5382 5.38322 18.9783 4.8329C18.4184 4.28258 17.7134 4.04588 16.8761 3.93524C16.0696 3.82867 15.0442 3.82868 13.772 3.8287L9.91141 3.8287C9.70434 3.8287 9.58847 3.82822 9.50167 3.82155C9.46298 3.81858 9.44188 3.81508 9.43111 3.81281C9.42601 3.81173 9.42332 3.81094 9.42234 3.81064L9.42113 3.81022L9.41999 3.80965C9.41909 3.80916 9.41665 3.80778 9.41234 3.8049C9.40324 3.7988 9.38611 3.7862 9.35724 3.76072C9.29246 3.70354 9.21158 3.62077 9.06877 3.47339L8.86701 3.26506C8.40436 2.78667 8.03813 2.40797 7.55255 2.20344Z" fill="currentcolor" fill-opacity="0.2" />
  <path d="M10.75 10.25H12C12.4142 10.25 12.75 10.5858 12.75 11C12.75 11.4142 12.4142 11.75 12 11.75H10.75H9.25H8C7.58579 11.75 7.25 11.4142 7.25 11C7.25 10.5858 7.58579 10.25 8 10.25H9.25H10.75Z" fill="currentcolor" />
</svg>
