<svg width="20" height="20" viewBox="0 0 20 20" fill="currentColor" xmlns="http://www.w3.org/2000/svg">
  <path d="M6.50498 1H5.33662C4.50727 0.999975 3.81566 0.999953 3.26664 1.07377C2.68714 1.15168 2.16394 1.32307 1.7435 1.7435C1.32307 2.16394 1.15168 2.68714 1.07377 3.26664C0.999953 3.81566 0.999975 4.50724 1 5.33659V12.8199C0.999983 14.0823 0.999969 15.0998 1.10756 15.9001C1.21927 16.731 1.45825 17.4305 2.01386 17.9861C2.56948 18.5418 3.26906 18.7807 4.09993 18.8924C4.9002 19 5.91773 19 7.18012 19H12.8199C14.0823 19 15.0998 19 15.9001 18.8924C16.731 18.7807 17.4305 18.5418 17.9861 17.9861C18.5418 17.4305 18.7807 16.731 18.8924 15.9001C19 15.0998 19 14.0823 19 12.8199V10.4109C19 9.1485 19 8.13097 18.8924 7.33069C18.7807 6.49983 18.5418 5.80025 17.9861 5.24463C17.4305 4.68902 16.731 4.45004 15.9001 4.33833C15.0998 4.23074 14.0823 4.23075 12.8199 4.23077L11.5329 4.23077C11.258 4.23077 11.1018 4.22999 10.9861 4.21855C10.9343 4.21342 10.9067 4.2074 10.8931 4.2036C10.8867 4.20183 10.8836 4.20058 10.8826 4.20019L10.8814 4.1996L10.8803 4.19881C10.8795 4.19819 10.8768 4.19608 10.8721 4.19143C10.8621 4.18151 10.8432 4.16054 10.813 4.11807C10.7457 4.02333 10.6675 3.88807 10.5311 3.64939L10.2635 3.18117C10.0179 2.7512 9.80893 2.38555 9.60556 2.09934C9.38893 1.79445 9.14847 1.53462 8.81814 1.34292C8.48782 1.15123 8.14292 1.07137 7.77072 1.03454C7.42133 0.999974 7.00016 0.999986 6.50498 1Z" fill="currentColor" fill-opacity="0.2" />
  <path d="M9.5425 15.6363C9.67433 15.7514 9.8468 15.8211 10.0356 15.8211C10.2543 15.8211 10.4512 15.7274 10.5883 15.578L12.5441 13.5162C12.8291 13.2156 12.8166 12.7409 12.5161 12.4559C12.2156 12.1708 11.7409 12.1833 11.4558 12.4839L10.7855 13.1905L10.7855 10.0001C10.7855 9.5859 10.4497 9.25012 10.0355 9.25012C9.62124 9.25013 9.28546 9.58592 9.28547 10.0001L9.28551 13.2381L8.53478 12.4742C8.24443 12.1788 7.76957 12.1747 7.47415 12.4651C7.17874 12.7554 7.17463 13.2303 7.46498 13.5257L9.50056 15.5968C9.51054 15.6069 9.52078 15.6168 9.53127 15.6263C9.53498 15.6297 9.53872 15.633 9.5425 15.6363Z" fill="currentColor" />
</svg>
