<svg
  xmlns="http://www.w3.org/2000/svg"
  width="20"
  height="20"
  viewBox="0 0 20 20"
  fill="none"
>
  <path
    d="M7.55255 2.20344C7.06698 1.9989 6.53539 1.99942 5.86385 2.00007L4.37024 2.00015C3.53444 2.00012 2.83749 2.0001 2.28421 2.07321C1.70021 2.15038 1.17296 2.32013 0.749265 2.73656C0.325572 3.15298 0.152855 3.6712 0.0743391 4.24518C-4.72367e-05 4.78896 -2.53087e-05 5.47395 9.83898e-07 6.2954V11.8788C-1.66589e-05 13.1291 -3.08827e-05 14.137 0.108396 14.9296C0.22097 15.7526 0.461802 16.4455 1.02172 16.9958C1.58165 17.5461 2.28665 17.7828 3.12396 17.8935C3.93044 18 4.95585 18 6.22803 18H13.772C15.0442 18 16.0696 18 16.8761 17.8935C17.7134 17.7828 18.4184 17.5461 18.9783 16.9958C19.5382 16.4455 19.779 15.7526 19.8916 14.9296C20 14.137 20 13.1292 20 11.8789V9.94992C20 8.69958 20 7.69171 19.8916 6.89908C19.779 6.07613 19.5382 5.38322 18.9783 4.8329C18.4184 4.28258 17.7134 4.04588 16.8761 3.93524C16.0696 3.82867 15.0442 3.82868 13.772 3.8287L9.91141 3.8287C9.70434 3.8287 9.58847 3.82822 9.50167 3.82155C9.46298 3.81858 9.44188 3.81508 9.43111 3.81281C9.42601 3.81173 9.42332 3.81094 9.42234 3.81064L9.42113 3.81022L9.41999 3.80965C9.41909 3.80916 9.41665 3.80778 9.41234 3.8049C9.40324 3.7988 9.38611 3.7862 9.35724 3.76072C9.29246 3.70354 9.21158 3.62077 9.06877 3.47339L8.86701 3.26506C8.40436 2.78667 8.03813 2.40797 7.55255 2.20344Z"
    fill="currentColor"
    fill-opacity="0.2"
  />
  <path
    d="M9.5425 14.3862C9.67433 14.5013 9.8468 14.571 10.0356 14.571C10.2543 14.571 10.4512 14.4773 10.5883 14.3279L12.5441 12.266C12.8291 11.9655 12.8166 11.4908 12.5161 11.2057C12.2156 10.9207 11.7409 10.9332 11.4558 11.2337L10.7855 11.9404L10.7855 8.74999C10.7855 8.33578 10.4497 7.99999 10.0355 8C9.62124 8.00001 9.28546 8.3358 9.28547 8.75001L9.28551 11.9879L8.53478 11.2241C8.24443 10.9287 7.76957 10.9246 7.47415 11.2149C7.17874 11.5053 7.17463 11.9801 7.46498 12.2756L9.50056 14.3467C9.51054 14.3568 9.52078 14.3666 9.53127 14.3762C9.53498 14.3795 9.53872 14.3829 9.5425 14.3862Z"
    fill="currentColor"
  />
</svg>
