<svg
  xmlns="http://www.w3.org/2000/svg"
  width="20"
  height="20"
  viewBox="0 0 20 20"
  fill="none"
>
  <path
    fill-rule="evenodd"
    clip-rule="evenodd"
    d="M3.39411 8.35302H1.63237C1.22167 8.35302 0.888733 8.0207 0.888733 7.61075C0.888733 7.20081 1.22167 6.86849 1.63237 6.86849L3.34255 6.86848C4.29838 6.86848 4.94045 6.86691 5.41939 6.80263C5.87694 6.74123 6.07276 6.63511 6.20197 6.50614C6.33118 6.37717 6.4375 6.18171 6.49901 5.725C6.56341 5.24695 6.56498 4.60606 6.56498 3.65199V1.74227C6.56498 1.33232 6.89792 1 7.30862 1C7.71933 1 8.05226 1.33232 8.05226 1.74227L8.05227 3.70345C8.05229 4.59267 8.05232 5.33417 7.97303 5.92281C7.88934 6.54414 7.70525 7.10509 7.25364 7.55587C6.80203 8.00664 6.24004 8.1904 5.61757 8.27393C5.02783 8.35307 4.28497 8.35305 3.39411 8.35302Z"
    fill="currentColor"
  />
  <path
    fill-rule="evenodd"
    clip-rule="evenodd"
    d="M16.3834 11.8401L18.1451 11.8401C18.5558 11.8401 18.8887 12.1725 18.8887 12.5824C18.8887 12.9923 18.5558 13.3247 18.1451 13.3247H16.4349C15.4791 13.3247 14.837 13.3262 14.3581 13.3905C13.9005 13.4519 13.7047 13.558 13.5755 13.687C13.4463 13.816 13.34 14.0114 13.2785 14.4681C13.2141 14.9462 13.2125 15.5871 13.2125 16.5412V18.2482C13.2125 18.6581 12.8795 18.9904 12.4688 18.9904C12.0581 18.9904 11.7252 18.6581 11.7252 18.2482L11.7252 16.4897C11.7252 15.6005 11.7251 14.859 11.8044 14.2703C11.8881 13.649 12.0722 13.0881 12.5238 12.6373C12.9754 12.1865 13.5374 12.0028 14.1599 11.9192C14.7496 11.8401 15.4925 11.8401 16.3834 11.8401Z"
    fill="currentColor"
  />
  <path
    fill-rule="evenodd"
    clip-rule="evenodd"
    d="M16.3834 8.35302L18.1451 8.35302C18.5558 8.35302 18.8887 8.0207 18.8887 7.61075C18.8887 7.20081 18.5558 6.86849 18.1451 6.86849H16.4349C15.4791 6.86849 14.837 6.86691 14.3581 6.80264C13.9005 6.74123 13.7047 6.63512 13.5755 6.50614C13.4463 6.37717 13.34 6.18171 13.2785 5.72501C13.2141 5.24695 13.2125 4.60606 13.2125 3.65199V1.74227C13.2125 1.33233 12.8795 1 12.4688 1C12.0581 1 11.7252 1.33233 11.7252 1.74227L11.7252 3.70345C11.7252 4.59267 11.7251 5.33417 11.8044 5.92282C11.8881 6.54414 12.0722 7.10509 12.5238 7.55587C12.9754 8.00664 13.5374 8.1904 14.1599 8.27393C14.7496 8.35307 15.4925 8.35305 16.3834 8.35302Z"
    fill="currentColor"
    fill-opacity="0.2"
  />
  <path
    fill-rule="evenodd"
    clip-rule="evenodd"
    d="M3.3941 11.8401L1.63237 11.8401C1.22167 11.8401 0.888733 12.1725 0.888733 12.5824C0.888733 12.9923 1.22167 13.3247 1.63237 13.3247L3.34254 13.3247C4.29838 13.3247 4.94045 13.3262 5.41939 13.3905C5.87694 13.4519 6.07276 13.558 6.20197 13.687C6.33118 13.816 6.4375 14.0114 6.49901 14.4682C6.56341 14.9462 6.56498 15.5871 6.56498 16.5412V18.2577C6.56498 18.6677 6.89792 19 7.30862 19C7.71933 19 8.05226 18.6677 8.05226 18.2577L8.05227 16.4897C8.05229 15.6005 8.05232 14.859 7.97303 14.2703C7.88934 13.649 7.70525 13.0881 7.25364 12.6373C6.80203 12.1865 6.24004 12.0028 5.61757 11.9192C5.02783 11.8401 4.28496 11.8401 3.3941 11.8401Z"
    fill="currentColor"
    fill-opacity="0.2"
  />
</svg>
