<svg
  xmlns="http://www.w3.org/2000/svg"
  width="20"
  height="20"
  viewBox="0 0 20 20"
  fill="none"
>
  <path
    fill-rule="evenodd"
    clip-rule="evenodd"
    d="M5.6009 1L6.66532 1C7.08082 1 7.41765 1.33779 7.41765 1.75446C7.41765 2.17114 7.08082 2.50893 6.66532 2.50893H5.65306C4.68605 2.50893 4.03648 2.51053 3.55195 2.57586C3.08905 2.63827 2.89094 2.74613 2.76022 2.87722C2.6295 3.00831 2.52194 3.20698 2.45971 3.67119C2.39456 4.1571 2.39297 4.80851 2.39297 5.77826V6.79339C2.39297 7.21007 2.05614 7.54786 1.64064 7.54786C1.22514 7.54786 0.888308 7.21007 0.888308 6.79339L0.888307 5.72595C0.888277 4.82213 0.888253 4.06845 0.968467 3.47013C1.05313 2.8386 1.23938 2.26843 1.69627 1.81025C2.15315 1.35207 2.72171 1.1653 3.35145 1.08039C3.94808 0.999947 4.69963 0.999972 5.6009 1Z"
    fill="currentColor"
  />
  <path
    fill-rule="evenodd"
    clip-rule="evenodd"
    d="M14.1757 19H13.0604C12.6449 19 12.308 18.6622 12.308 18.2455C12.308 17.8289 12.6449 17.4911 13.0604 17.4911H14.1236C15.0906 17.4911 15.7401 17.4895 16.2247 17.4241C16.6876 17.3617 16.8857 17.2539 17.0164 17.1228C17.1471 16.9917 17.2547 16.793 17.3169 16.3288C17.382 15.8429 17.3836 15.1915 17.3836 14.2217V13.2066C17.3836 12.7899 17.7205 12.4521 18.136 12.4521C18.5515 12.4521 18.8883 12.7899 18.8883 13.2066V14.2741C18.8883 15.1779 18.8884 15.9316 18.8081 16.5299C18.7235 17.1614 18.5372 17.7316 18.0803 18.1898C17.6235 18.6479 17.0549 18.8347 16.4252 18.9196C15.8285 19.0001 15.077 19 14.1757 19Z"
    fill="currentColor"
  />
  <path
    fill-rule="evenodd"
    clip-rule="evenodd"
    d="M14.1757 1L13.0604 1C12.6449 1 12.3081 1.33779 12.3081 1.75446C12.3081 2.17114 12.6449 2.50893 13.0604 2.50893H14.1236C15.0906 2.50893 15.7401 2.51053 16.2247 2.57586C16.6876 2.63827 16.8857 2.74613 17.0164 2.87722C17.1471 3.00831 17.2547 3.20698 17.3169 3.67119C17.3821 4.1571 17.3837 4.80851 17.3837 5.77826V6.79339C17.3837 7.21007 17.7205 7.54786 18.136 7.54786C18.5515 7.54786 18.8883 7.21007 18.8883 6.79339V5.72595C18.8883 4.82213 18.8884 4.06845 18.8082 3.47013C18.7235 2.8386 18.5372 2.26843 18.0804 1.81025C17.6235 1.35207 17.0549 1.1653 16.4252 1.08039C15.8285 0.999947 15.077 0.999972 14.1757 1Z"
    fill="currentColor"
    fill-opacity="0.2"
  />
  <path
    fill-rule="evenodd"
    clip-rule="evenodd"
    d="M5.79578 18.8114H6.8093C7.2248 18.8114 7.56163 18.4736 7.56163 18.0569C7.56163 17.6402 7.2248 17.3025 6.8093 17.3025H5.84794C4.88094 17.3025 4.23137 17.3009 3.74683 17.2355C3.28394 17.1731 3.08583 17.0653 2.95511 16.9342C2.82438 16.8031 2.71683 16.6044 2.65459 16.1402C2.58945 15.6543 2.58785 15.0029 2.58785 14.0331V13.018C2.58785 12.6013 2.25102 12.2635 1.83552 12.2635C1.42002 12.2635 1.08319 12.6013 1.08319 13.018L1.08319 14.0854C1.08316 14.9893 1.08314 15.7429 1.16335 16.3413C1.24802 16.9728 1.43427 17.543 1.89115 18.0011C2.34804 18.4593 2.9166 18.6461 3.54634 18.731C4.14297 18.8114 4.89451 18.8114 5.79578 18.8114Z"
    fill="currentColor"
    fill-opacity="0.2"
  />
</svg>
