<svg
  xmlns="http://www.w3.org/2000/svg"
  width="20"
  height="20"
  viewBox="0 0 20 20"
  fill="none"
>
  <path
    fill-rule="evenodd"
    clip-rule="evenodd"
    d="M5.81395 6.57153C2.603 6.57153 0 9.12991 0 12.2858C0 15.4417 2.603 18.0001 5.81395 18.0001H14.186C17.397 18.0001 20 15.4417 20 12.2858C20 9.12991 17.397 6.57153 14.186 6.57153H5.81395Z"
    fill="currentColor"
    fill-opacity="0.2"
  />
  <path
    d="M13.8953 13.7429C13.8953 14.2952 13.4398 14.7429 12.8779 14.7429C12.316 14.7429 11.8605 14.2952 11.8605 13.7429C11.8605 13.1906 12.316 12.7429 12.8779 12.7429C13.4398 12.7429 13.8953 13.1906 13.8953 13.7429Z"
    fill="currentColor"
  />
  <path
    d="M15.7558 11C15.7558 11.5523 15.3003 12 14.7384 12C14.1765 12 13.7209 11.5523 13.7209 11C13.7209 10.4477 14.1765 10 14.7384 10C15.3003 10 15.7558 10.4477 15.7558 11Z"
    fill="currentColor"
  />
  <path
    d="M6.51161 10.9143C6.51161 10.5356 6.19926 10.2286 5.81394 10.2286C5.42863 10.2286 5.11627 10.5356 5.11627 10.9143V11.6H4.41859C4.03328 11.6 3.72092 11.907 3.72092 12.2857C3.72092 12.6644 4.03328 12.9714 4.41859 12.9714H5.11627V13.6571C5.11627 14.0358 5.42863 14.3428 5.81394 14.3428C6.19925 14.3428 6.51161 14.0358 6.51161 13.6571V12.9714H7.20929C7.5946 12.9714 7.90696 12.6644 7.90696 12.2857C7.90696 11.907 7.5946 11.6 7.20929 11.6H6.51161V10.9143Z"
    fill="currentColor"
  />
  <path
    fill-rule="evenodd"
    clip-rule="evenodd"
    d="M8.13956 2C8.52487 2 8.83723 2.307 8.83723 2.68571C8.83723 3.15547 8.83782 3.4641 8.85663 3.68591C8.86116 3.73935 8.86639 3.78088 8.87136 3.81258C9.00413 3.82711 9.19967 3.82857 9.53489 3.82857C10.0577 3.82857 10.5051 4.01035 10.8116 4.38343C11.0892 4.7212 11.183 5.1354 11.2175 5.47462C11.2529 5.8229 11.234 6.18723 11.2119 6.4917L11.206 6.57143H9.80637C9.81126 6.51018 9.81599 6.45059 9.8201 6.39401C9.84158 6.09848 9.85176 5.83424 9.82905 5.6111C9.80542 5.37888 9.7538 5.2788 9.72615 5.24515C9.71767 5.23483 9.71074 5.22925 9.69659 5.22319C9.67928 5.21577 9.63187 5.2 9.53489 5.2L9.49248 5.20001C9.18073 5.20008 8.8741 5.20015 8.62598 5.16403C8.34677 5.12337 8.00146 5.01902 7.75584 4.69714C7.54218 4.41714 7.48941 4.07481 7.4661 3.7998C7.44186 3.51394 7.44187 3.14725 7.44188 2.71576V2.68571C7.44188 2.307 7.75424 2 8.13956 2Z"
    fill="currentColor"
  />
</svg>
