<svg width="20" height="20" viewBox="0 0 20 20" fill="currentcolor" xmlns="http://www.w3.org/2000/svg">
  <path fill-rule="evenodd" d="M5.81395 6.57141C2.603 6.57141 0 9.12978 0 12.2857C0 15.4416 2.603 18 5.81395 18H14.186C17.397 18 20 15.4416 20 12.2857C20 9.12978 17.397 6.57141 14.186 6.57141H5.81395Z" fill="currentcolor" fill-opacity="0.2" />
  <path d="M13.8954 13.7429C13.8954 14.2952 13.4398 14.7429 12.8779 14.7429C12.316 14.7429 11.8605 14.2952 11.8605 13.7429C11.8605 13.1906 12.316 12.7429 12.8779 12.7429C13.4398 12.7429 13.8954 13.1906 13.8954 13.7429Z" fill="currentcolor" />
  <path d="M15.7558 11C15.7558 11.5523 15.3003 12 14.7384 12C14.1765 12 13.721 11.5523 13.721 11C13.721 10.4477 14.1765 10 14.7384 10C15.3003 10 15.7558 10.4477 15.7558 11Z" fill="currentcolor" />
  <path d="M6.51165 10.9143C6.51165 10.5356 6.19929 10.2286 5.81397 10.2286C5.42866 10.2286 5.1163 10.5356 5.1163 10.9143V11.6H4.41862C4.03331 11.6 3.72095 11.907 3.72095 12.2857C3.72095 12.6644 4.03331 12.9714 4.41862 12.9714H5.1163V13.6571C5.1163 14.0358 5.42866 14.3428 5.81397 14.3428C6.19929 14.3428 6.51165 14.0358 6.51165 13.6571V12.9714H7.20932C7.59463 12.9714 7.90699 12.6644 7.90699 12.2857C7.90699 11.907 7.59463 11.6 7.20932 11.6H6.51165V10.9143Z" fill="currentcolor" />
  <path fill-rule="evenodd" d="M8.13959 2C8.5249 2 8.83726 2.307 8.83726 2.68571C8.83726 3.15547 8.83785 3.4641 8.85666 3.68591C8.86119 3.73935 8.86643 3.78088 8.87139 3.81258C9.00416 3.82711 9.1997 3.82857 9.53492 3.82857C10.0578 3.82857 10.5051 4.01035 10.8117 4.38343C11.0893 4.7212 11.183 5.1354 11.2175 5.47462C11.2529 5.8229 11.2341 6.18723 11.2119 6.4917L11.206 6.57143H9.8064C9.8113 6.51018 9.81602 6.45059 9.82014 6.39401C9.84161 6.09848 9.85179 5.83424 9.82908 5.6111C9.80545 5.37888 9.75383 5.2788 9.72618 5.24515C9.7177 5.23483 9.71077 5.22925 9.69662 5.22319C9.67931 5.21577 9.6319 5.2 9.53492 5.2L9.49251 5.20001C9.18076 5.20008 8.87413 5.20015 8.62601 5.16403C8.3468 5.12337 8.00149 5.01902 7.75587 4.69714C7.54221 4.41714 7.48945 4.07481 7.46613 3.7998C7.44189 3.51394 7.4419 3.14725 7.44191 2.71576V2.68571C7.44191 2.307 7.75427 2 8.13959 2Z" fill="currentcolor" />
</svg>
