<svg
  xmlns="http://www.w3.org/2000/svg"
  width="20"
  height="20"
  viewBox="0 0 20 20"
  fill="none"
>
  <path
    fill-rule="evenodd"
    clip-rule="evenodd"
    d="M17.5299 3.43226C17.0805 3.37289 16.4781 3.37143 15.5814 3.37143H15.0498C14.6645 3.37143 14.3521 3.06443 14.3521 2.68572C14.3521 2.30701 14.6645 2 15.0498 2L15.6298 2C16.4655 1.99998 17.1625 1.99995 17.7158 2.07306C18.2998 2.15023 18.827 2.31999 19.2507 2.73642C19.6744 3.15285 19.8471 3.67107 19.9256 4.24505C20 4.78884 20 5.47383 20 6.29528V13.7047C20 14.5261 20 15.2112 19.9256 15.755C19.8471 16.3289 19.6744 16.8472 19.2507 17.2636C18.827 17.68 18.2998 17.8498 17.7158 17.9269C17.1625 18 16.4655 18 15.6297 18H15.0806C14.4577 18 13.938 18 13.5172 17.958C13.0768 17.9139 12.6681 17.8182 12.2997 17.5763C12.0204 17.3928 11.7805 17.1571 11.5939 16.8826C11.3478 16.5205 11.2504 16.1188 11.2056 15.6859C11.1673 15.3167 11.1632 14.87 11.1628 14.3429H8.83716C8.83674 14.87 8.83265 15.3167 8.79444 15.6859C8.74963 16.1188 8.65222 16.5205 8.40609 16.8826C8.21945 17.1571 7.97962 17.3928 7.7003 17.5763C7.33193 17.8182 6.92321 17.9139 6.48277 17.958C6.062 18 5.54224 18 4.91937 18H4.37024C3.53444 18 2.83749 18 2.28421 17.9269C1.70021 17.8498 1.17296 17.68 0.749265 17.2636C0.325572 16.8472 0.152855 16.3289 0.0743391 15.755C-4.72292e-05 15.2112 -2.53087e-05 14.5262 9.83897e-07 13.7047V6.29532C-2.53087e-05 5.47386 -4.72367e-05 4.78884 0.0743391 4.24505C0.152855 3.67107 0.325572 3.15285 0.749265 2.73642C1.17296 2.31999 1.70021 2.15023 2.28421 2.07306C2.83749 1.99995 3.53442 1.99998 4.37021 2L4.95017 2C5.33548 2 5.64784 2.30701 5.64784 2.68572C5.64784 3.06443 5.33548 3.37143 4.95017 3.37143H4.41861C3.52185 3.37143 2.91947 3.37289 2.47013 3.43226C2.04087 3.48899 1.85715 3.58702 1.73593 3.70617C1.6147 3.82531 1.51496 4.00588 1.45724 4.42779C1.39683 4.86942 1.39535 5.46148 1.39535 6.34286V10.2286H4.9194C5.54225 10.2286 6.06201 10.2285 6.48277 10.2706C6.92321 10.3147 7.33193 10.4104 7.7003 10.6523C7.97962 10.8357 8.21945 11.0715 8.40609 11.346C8.65222 11.708 8.74963 12.1098 8.79444 12.5426C8.80819 12.6755 8.81752 12.8184 8.82385 12.9714H11.1761C11.1825 12.8184 11.1918 12.6755 11.2056 12.5426C11.2504 12.1098 11.3478 11.708 11.5939 11.346C11.7805 11.0715 12.0204 10.8357 12.2997 10.6523C12.6681 10.4104 13.0768 10.3147 13.5172 10.2706C13.938 10.2285 14.4577 10.2286 15.0806 10.2286H18.6046V6.34286C18.6046 5.46148 18.6032 4.86942 18.5427 4.42779C18.485 4.00588 18.3853 3.82531 18.2641 3.70617C18.1428 3.58702 17.9591 3.48899 17.5299 3.43226ZM18.6046 11.6H15.1163C14.4485 11.6 14.0002 11.6008 13.6584 11.635C13.3283 11.668 13.1758 11.7264 13.0749 11.7926C12.9479 11.876 12.8389 11.9831 12.7541 12.1079C12.6867 12.2071 12.6273 12.357 12.5937 12.6814C12.559 13.0174 12.5581 13.458 12.5581 14.1143C12.5581 14.7706 12.559 15.2112 12.5937 15.5471C12.6273 15.8716 12.6867 16.0215 12.7541 16.1207C12.8389 16.2454 12.9479 16.3526 13.0749 16.436C13.1758 16.5022 13.3283 16.5606 13.6584 16.5936C14.0002 16.6277 14.4485 16.6286 15.1163 16.6286H15.5814C16.4781 16.6286 17.0805 16.6271 17.5299 16.5677C17.9591 16.511 18.1428 16.413 18.2641 16.2938C18.3853 16.1747 18.485 15.9941 18.5427 15.5722C18.6032 15.1306 18.6046 14.5385 18.6046 13.6571V11.6ZM1.39535 11.6V13.6571C1.39535 14.5385 1.39683 15.1306 1.45724 15.5722C1.51496 15.9941 1.6147 16.1747 1.73593 16.2938C1.85715 16.413 2.04087 16.511 2.47013 16.5677C2.91947 16.6271 3.52185 16.6286 4.41861 16.6286H4.88372C5.55148 16.6286 5.99979 16.6277 6.34156 16.5936C6.67167 16.5606 6.8242 16.5022 6.92508 16.436C7.05205 16.3526 7.16106 16.2454 7.2459 16.1207C7.31331 16.0215 7.37267 15.8716 7.40625 15.5471C7.44102 15.2112 7.44186 14.7706 7.44186 14.1143C7.44186 13.458 7.44102 13.0174 7.40625 12.6814C7.37267 12.357 7.31331 12.2071 7.2459 12.1079C7.16106 11.9831 7.05205 11.876 6.92508 11.7926C6.8242 11.7264 6.67167 11.668 6.34156 11.635C5.99979 11.6008 5.55148 11.6 4.88372 11.6H1.39535Z"
    fill="currentColor"
  />
  <path
    fill-rule="evenodd"
    clip-rule="evenodd"
    d="M1.40002 11.6V13.6571C1.40002 14.5385 1.40151 15.1306 1.46192 15.5722C1.51963 15.9941 1.61937 16.1747 1.7406 16.2938C1.86182 16.413 2.04554 16.511 2.47481 16.5677C2.92414 16.6271 3.52653 16.6285 4.42328 16.6285H4.8884C5.55615 16.6285 6.00446 16.6277 6.34623 16.5935C6.67634 16.5605 6.82887 16.5022 6.92976 16.4359C7.05672 16.3526 7.16573 16.2454 7.25057 16.1206C7.31798 16.0215 7.37734 15.8716 7.41092 15.5471C7.44569 15.2112 7.44654 14.7706 7.44654 14.1143C7.44654 13.4579 7.44569 13.0173 7.41092 12.6814C7.37734 12.357 7.31798 12.207 7.25057 12.1079C7.16573 11.9831 7.05672 11.876 6.92976 11.7926C6.82887 11.7263 6.67634 11.668 6.34623 11.635C6.00446 11.6008 5.55615 11.6 4.8884 11.6H1.40002Z"
    fill="currentColor"
    fill-opacity="0.2"
  />
  <path
    fill-rule="evenodd"
    clip-rule="evenodd"
    d="M18.6 11.6V13.6571C18.6 14.5385 18.5985 15.1306 18.5381 15.5722C18.4804 15.9941 18.3806 16.1747 18.2594 16.2938C18.1382 16.413 17.9545 16.511 17.5252 16.5677C17.0759 16.6271 16.4735 16.6285 15.5767 16.6285H15.1116C14.4438 16.6285 13.9955 16.6277 13.6538 16.5935C13.3237 16.5605 13.1711 16.5022 13.0702 16.4359C12.9433 16.3526 12.8343 16.2454 12.7494 16.1206C12.682 16.0215 12.6227 15.8716 12.5891 15.5471C12.5543 15.2112 12.5535 14.7706 12.5535 14.1143C12.5535 13.4579 12.5543 13.0173 12.5891 12.6814C12.6227 12.357 12.682 12.207 12.7494 12.1079C12.8343 11.9831 12.9433 11.876 13.0702 11.7926C13.1711 11.7263 13.3237 11.668 13.6538 11.635C13.9955 11.6008 14.4438 11.6 15.1116 11.6H18.6Z"
    fill="currentColor"
    fill-opacity="0.2"
  />
</svg>
