<svg
  xmlns="http://www.w3.org/2000/svg"
  width="20"
  height="20"
  viewBox="0 0 20 20"
  fill="none"
>
  <path
    d="M10 1C5.02944 1 1 5.02594 1 9.99219C1 14.9584 5.02944 18.9844 10 18.9844C14.9706 18.9844 19 14.9584 19 9.99219C19 5.02594 14.9706 1 10 1Z"
    fill="currentColor"
    fill-opacity="0.2"
  />
  <path
    fill-rule="evenodd"
    clip-rule="evenodd"
    d="M6.25001 9.97102C4.78536 9.79241 3.54852 9.52973 2.56852 9.26825C1.97451 9.10976 1.47505 8.95176 1.07666 8.81329C1.02609 9.19911 1 9.59262 1 9.99222C1 10.1191 1.00263 10.2454 1.00784 10.3709C1.35092 10.4819 1.74289 10.5992 2.18152 10.7162C3.27519 11.008 4.65952 11.2985 6.29988 11.486C6.41477 13.1962 6.72312 14.777 7.17269 16.0298C7.46054 16.8319 7.82049 17.5397 8.25663 18.0614C8.6881 18.5776 9.2736 19 10 19C10.7264 19 11.3119 18.5776 11.7434 18.0614C12.1795 17.5397 12.5395 16.8319 12.8273 16.0298C13.2769 14.777 13.5852 13.1962 13.7001 11.486C15.3405 11.2985 16.7248 11.008 17.8185 10.7162C18.2571 10.5992 18.6491 10.4819 18.9922 10.371C18.9974 10.2454 19 10.1191 19 9.99222C19 9.59262 18.9739 9.19911 18.9233 8.8133C18.525 8.95177 18.0255 9.10977 17.4315 9.26825C16.4515 9.52973 15.2147 9.79241 13.75 9.97103C13.7479 7.70548 13.4036 5.56419 12.8271 3.96186C12.5391 3.1615 12.179 2.4555 11.7426 1.93518C11.3105 1.42015 10.7252 1 10 1C9.2748 1 8.68946 1.42015 8.25744 1.93518C7.821 2.4555 7.46086 3.1615 7.1729 3.96186C6.59639 5.56419 6.25214 7.70547 6.25001 9.97102ZM7.75 9.99219C7.75 7.85113 8.07698 5.87934 8.58446 4.46885C8.83939 3.76031 9.1257 3.2333 9.40709 2.89784C9.6929 2.5571 9.89677 2.4987 10 2.4987C10.1032 2.4987 10.3071 2.5571 10.5929 2.89784C10.8743 3.2333 11.1606 3.76031 11.4155 4.46885C11.923 5.87934 12.25 7.85113 12.25 9.99219C12.25 10.0334 12.2499 10.0746 12.2496 10.1157C11.5412 10.1663 10.7905 10.1952 10 10.1952C9.2095 10.1952 8.45879 10.1663 7.75036 10.1157C7.75012 10.0746 7.75 10.0334 7.75 9.99219ZM12.1862 11.6223C12.0677 13.1231 11.791 14.4772 11.4153 15.5239C11.1603 16.2346 10.8738 16.7637 10.5921 17.1007C10.3057 17.4432 10.102 17.5013 10 17.5013C9.89798 17.5013 9.69426 17.4432 9.4079 17.1007C9.12621 16.7637 8.83971 16.2346 8.58467 15.5239C8.20902 14.4772 7.93231 13.1231 7.81378 11.6223C8.50632 11.668 9.23574 11.6939 10 11.6939C10.7643 11.6939 11.4937 11.668 12.1862 11.6223Z"
    fill="currentColor"
  />
</svg>
