<svg width="20" height="20" viewBox="0 0 20 20" fill="currentColor" xmlns="http://www.w3.org/2000/svg">
  <path d="M14.8045 1H14.8877C15.6109 0.999982 16.2142 0.999966 16.6982 1.05717C17.2067 1.11728 17.6728 1.24867 18.0719 1.57621C18.2004 1.68169 18.3183 1.79955 18.4237 1.92808C18.7513 2.32718 18.8827 2.79328 18.9428 3.30179C19 3.78574 19 4.38896 19 5.11208V5.19547C19 5.9186 19 6.52196 18.9428 7.00591C18.8827 7.51442 18.7513 7.98052 18.4237 8.37962C18.3183 8.50815 18.2004 8.62601 18.0719 8.73149C17.6728 9.05902 17.2067 9.19042 16.6982 9.25053C16.2142 9.30773 15.6109 9.30772 14.8877 9.3077H14.8045C14.0813 9.30772 13.478 9.30773 12.9941 9.25053C12.4855 9.19042 12.0194 9.05902 11.6203 8.73149C11.4918 8.62601 11.374 8.50815 11.2685 8.37962C10.9409 7.98052 10.8095 7.51442 10.7494 7.00591C10.6922 6.52193 10.6922 5.91866 10.6923 5.19547V5.11223C10.6922 4.38904 10.6922 3.78577 10.7494 3.30179C10.8095 2.79328 10.9409 2.32718 11.2685 1.92808C11.374 1.79955 11.4918 1.68169 11.6203 1.57621C12.0194 1.24867 12.4855 1.11728 12.9941 1.05717C13.478 0.999966 14.0813 0.999982 14.8045 1Z" fill="currentColor" fill-opacity="0.2" />
  <path d="M5.11223 10.6923H5.19547C5.91866 10.6922 6.52193 10.6922 7.00591 10.7494C7.51442 10.8095 7.98052 10.9409 8.37962 11.2685C8.50815 11.374 8.62601 11.4918 8.73149 11.6203C9.05902 12.0194 9.19042 12.4855 9.25053 12.9941C9.30773 13.478 9.30772 14.0813 9.3077 14.8045V14.8877C9.30772 15.6109 9.30773 16.2142 9.25053 16.6982C9.19042 17.2067 9.05902 17.6728 8.73149 18.0719C8.62601 18.2004 8.50815 18.3183 8.37962 18.4237C7.98052 18.7513 7.51442 18.8827 7.00591 18.9428C6.52193 19 5.91866 19 5.19547 19H5.11223C4.38904 19 3.78577 19 3.30179 18.9428C2.79328 18.8827 2.32718 18.7513 1.92808 18.4237C1.79955 18.3183 1.68169 18.2004 1.57621 18.0719C1.24867 17.6728 1.11728 17.2067 1.05717 16.6982C0.999965 16.2142 0.999981 15.6109 1 14.8878V14.8045C0.999981 14.0813 0.999965 13.478 1.05717 12.9941C1.11728 12.4855 1.24867 12.0194 1.57621 11.6203C1.68169 11.4918 1.79955 11.374 1.92808 11.2685C2.32718 10.9409 2.79328 10.8095 3.30179 10.7494C3.78577 10.6922 4.38904 10.6922 5.11223 10.6923Z" fill="currentColor" fill-opacity="0.2" />
  <path d="M5.11223 1H5.19547C5.91863 0.999982 6.52195 0.999966 7.00591 1.05717C7.51442 1.11728 7.98052 1.24867 8.37962 1.57621C8.50815 1.68169 8.62601 1.79955 8.73149 1.92808C9.05902 2.32718 9.19042 2.79328 9.25053 3.30179C9.30773 3.78577 9.30772 4.38904 9.3077 5.11223V5.19547C9.30772 5.91866 9.30773 6.52193 9.25053 7.00591C9.19042 7.51442 9.05902 7.98052 8.73149 8.37962C8.62601 8.50815 8.50815 8.62601 8.37962 8.73149C7.98052 9.05902 7.51442 9.19042 7.00591 9.25053C6.52193 9.30773 5.91866 9.30772 5.19547 9.3077H5.11223C4.38904 9.30772 3.78577 9.30773 3.30179 9.25053C2.79328 9.19042 2.32718 9.05902 1.92808 8.73149C1.79955 8.62601 1.68169 8.50815 1.57621 8.37962C1.24867 7.98052 1.11728 7.51442 1.05717 7.00591C0.999966 6.52195 0.999982 5.91867 1 5.19552V5.1122C0.999982 4.38905 0.999966 3.78575 1.05717 3.30179C1.11728 2.79328 1.24867 2.32718 1.57621 1.92808C1.68169 1.79955 1.79955 1.68169 1.92808 1.57621C2.32718 1.24867 2.79328 1.11728 3.30179 1.05717C3.78575 0.999966 4.38907 0.999982 5.11223 1Z" fill="currentColor" />
  <path d="M14.8045 10.6923H14.8877C15.6109 10.6922 16.2142 10.6922 16.6982 10.7494C17.2067 10.8095 17.6728 10.9409 18.0719 11.2685C18.2004 11.374 18.3183 11.4918 18.4237 11.6203C18.7513 12.0194 18.8827 12.4855 18.9428 12.9941C19 13.478 19 14.0813 19 14.8045V14.8877C19 15.6109 19 16.2142 18.9428 16.6982C18.8827 17.2067 18.7513 17.6728 18.4237 18.0719C18.3183 18.2004 18.2004 18.3183 18.0719 18.4237C17.6728 18.7513 17.2067 18.8827 16.6982 18.9428C16.2142 19 15.6109 19 14.8877 19H14.8045C14.0813 19 13.478 19 12.9941 18.9428C12.4855 18.8827 12.0194 18.7513 11.6203 18.4237C11.4918 18.3183 11.374 18.2004 11.2685 18.0719C10.9409 17.6728 10.8095 17.2067 10.7494 16.6982C10.6922 16.2142 10.6922 15.6109 10.6923 14.8877V14.8045C10.6922 14.0813 10.6922 13.478 10.7494 12.9941C10.8095 12.4855 10.9409 12.0194 11.2685 11.6203C11.374 11.4918 11.4918 11.374 11.6203 11.2685C12.0194 10.9409 12.4855 10.8095 12.9941 10.7494C13.478 10.6922 14.0813 10.6922 14.8045 10.6923Z" fill="currentColor" />
</svg>
