<svg width="20" height="20" viewBox="0 0 20 20" fill="currentcolor" xmlns="http://www.w3.org/2000/svg">
  <path d="M5.22418 1H5.15082C4.50956 0.999986 3.97442 0.999974 3.5403 1.04233C3.08626 1.08664 2.66379 1.18284 2.27876 1.42665C1.93522 1.6442 1.6442 1.93522 1.42665 2.27876C1.18284 2.66379 1.08664 3.08626 1.04233 3.5403C0.999974 3.97442 0.999986 4.50954 1 5.1508V5.22418C0.999986 5.86544 0.999974 6.40059 1.04233 6.83471C1.08664 7.28874 1.18284 7.71121 1.42665 8.09624C1.6442 8.43978 1.93522 8.7308 2.27876 8.94835C2.66379 9.19217 3.08626 9.28837 3.5403 9.33267C3.97442 9.37503 4.50956 9.37502 5.15083 9.375H5.22418C5.86545 9.37502 6.40058 9.37503 6.83471 9.33267C7.28874 9.28837 7.71121 9.19217 8.09624 8.94835C8.43978 8.7308 8.7308 8.43978 8.94835 8.09624C9.19217 7.71121 9.28837 7.28874 9.33267 6.83471C9.37503 6.40058 9.37502 5.86545 9.375 5.22418V5.15083C9.37502 4.50956 9.37503 3.97442 9.33267 3.5403C9.28837 3.08626 9.19217 2.66379 8.94835 2.27876C8.7308 1.93522 8.43978 1.6442 8.09624 1.42665C7.71121 1.18284 7.28874 1.08664 6.83471 1.04233C6.40059 0.999974 5.86544 0.999986 5.22418 1Z" fill="currentcolor" fill-opacity="0.2" />
  <path d="M5.22418 10.625H5.15082C4.50957 10.625 3.97441 10.625 3.5403 10.6673C3.08626 10.7116 2.66379 10.8078 2.27876 11.0517C1.93522 11.2692 1.6442 11.5602 1.42665 11.9038C1.18284 12.2888 1.08664 12.7113 1.04233 13.1653C0.999974 13.5994 0.999986 14.1345 1 14.7758V14.8492C0.999986 15.4904 0.999974 16.0256 1.04233 16.4597C1.08664 16.9137 1.18284 17.3362 1.42665 17.7212C1.6442 18.0648 1.93522 18.3558 2.27876 18.5733C2.66379 18.8172 3.08626 18.9134 3.5403 18.9577C3.9744 19 4.50951 19 5.15074 19H5.22418C5.86541 19 6.4006 19 6.83471 18.9577C7.28874 18.9134 7.71121 18.8172 8.09624 18.5733C8.43978 18.3558 8.7308 18.0648 8.94835 17.7212C9.19217 17.3362 9.28837 16.9137 9.33267 16.4597C9.37503 16.0256 9.37502 15.4904 9.375 14.8492V14.7758C9.37502 14.1346 9.37503 13.5994 9.33267 13.1653C9.28837 12.7113 9.19217 12.2888 8.94835 11.9038C8.7308 11.5602 8.43978 11.2692 8.09624 11.0517C7.71121 10.8078 7.28874 10.7116 6.83471 10.6673C6.40059 10.625 5.86544 10.625 5.22418 10.625Z" fill="currentcolor" fill-opacity="0.2" />
  <path d="M14.8492 10.625H14.7758C14.1346 10.625 13.5994 10.625 13.1653 10.6673C12.7113 10.7116 12.2888 10.8078 11.9038 11.0517C11.5602 11.2692 11.2692 11.5602 11.0517 11.9038C10.8078 12.2888 10.7116 12.7113 10.6673 13.1653C10.625 13.5994 10.625 14.1345 10.625 14.7758V14.8492C10.625 15.4904 10.625 16.0256 10.6673 16.4597C10.7116 16.9137 10.8078 17.3362 11.0517 17.7212C11.2692 18.0648 11.5602 18.3558 11.9038 18.5733C12.2888 18.8172 12.7113 18.9134 13.1653 18.9577C13.5994 19 14.1345 19 14.7758 19H14.8492C15.4904 19 16.0256 19 16.4597 18.9577C16.9137 18.9134 17.3362 18.8172 17.7212 18.5733C18.0648 18.3558 18.3558 18.0648 18.5733 17.7212C18.8172 17.3362 18.9134 16.9137 18.9577 16.4597C19 16.0256 19 15.4905 19 14.8492V14.7758C19 14.1346 19 13.5994 18.9577 13.1653C18.9134 12.7113 18.8172 12.2888 18.5733 11.9038C18.3558 11.5602 18.0648 11.2692 17.7212 11.0517C17.3362 10.8078 16.9137 10.7116 16.4597 10.6673C16.0256 10.625 15.4904 10.625 14.8492 10.625Z" fill="currentcolor" fill-opacity="0.2" />
  <path d="M15.5625 1.75C15.5625 1.33579 15.2267 1 14.8125 1C14.3983 1 14.0625 1.33579 14.0625 1.75V4.4375H11.375C10.9608 4.4375 10.625 4.77329 10.625 5.1875C10.625 5.60171 10.9608 5.9375 11.375 5.9375H14.0625V8.625C14.0625 9.03921 14.3983 9.375 14.8125 9.375C15.2267 9.375 15.5625 9.03921 15.5625 8.625V5.9375H18.25C18.6642 5.9375 19 5.60171 19 5.1875C19 4.77329 18.6642 4.4375 18.25 4.4375H15.5625V1.75Z" fill="currentcolor" />
</svg>
