<svg width="20" height="20" viewBox="0 0 20 20" fill="currentcolor" xmlns="http://www.w3.org/2000/svg">
  <path d="M10.0001 0.930054C4.99083 0.930054 0.930054 4.99083 0.930054 10.0001V15H2.45467V10.0001C2.45467 5.83285 5.83285 2.45467 10.0001 2.45467C14.1673 2.45467 17.5454 5.83285 17.5454 10.0001V15H19.0701V10.0001C19.0701 4.99083 15.0093 0.930054 10.0001 0.930054Z" fill="currentcolor" fill-opacity="0.2" />
  <path d="M6.93005 12.9376C6.93005 11.7055 5.9313 10.7068 4.69928 10.7068C2.6176 10.7068 0.930054 12.3943 0.930054 14.476V15.2308C0.930054 17.3125 2.6176 19.0001 4.69928 19.0001C5.9313 19.0001 6.93005 18.0013 6.93005 16.7693V12.9376Z" fill="currentcolor" />
  <path d="M13.0701 12.9376C13.0701 11.7055 14.0688 10.7068 15.3008 10.7068C17.3825 10.7068 19.0701 12.3943 19.0701 14.476V15.2308C19.0701 17.3125 17.3825 19.0001 15.3008 19.0001C14.0688 19.0001 13.0701 18.0013 13.0701 16.7693V12.9376Z" fill="currentcolor" />
</svg>
