<svg
  xmlns="http://www.w3.org/2000/svg"
  width="20"
  height="20"
  viewBox="0 0 20 20"
  fill="none"
>
  <path
    d="M10.0001 0.930054C4.99083 0.930054 0.930054 4.99083 0.930054 10.0001V15H2.45467V10.0001C2.45467 5.83285 5.83285 2.45467 10.0001 2.45467C14.1673 2.45467 17.5454 5.83285 17.5454 10.0001V15H19.0701V10.0001C19.0701 4.99083 15.0093 0.930054 10.0001 0.930054Z"
    fill="currentColor"
    fill-opacity="0.2"
  />
  <path
    d="M6.93005 12.9375C6.93005 11.7055 5.9313 10.7067 4.69928 10.7067C2.6176 10.7067 0.930054 12.3943 0.930054 14.476V15.2308C0.930054 17.3125 2.6176 19 4.69928 19C5.9313 19 6.93005 18.0012 6.93005 16.7692V12.9375Z"
    fill="currentColor"
  />
  <path
    d="M13.0701 12.9375C13.0701 11.7055 14.0688 10.7067 15.3008 10.7067C17.3825 10.7067 19.0701 12.3943 19.0701 14.476V15.2308C19.0701 17.3125 17.3825 19 15.3008 19C14.0688 19 13.0701 18.0012 13.0701 16.7692V12.9375Z"
    fill="currentColor"
  />
</svg>
