<svg width="20" height="20" viewBox="0 0 20 20" fill="currentcolor" xmlns="http://www.w3.org/2000/svg">
  <path fill-rule="evenodd" d="M1.33354 6.6521C1 7.51344 1 8.48765 1 10.4361C1 13.8006 1 15.4829 1.78613 16.7059C2.17705 17.3141 2.6966 17.8304 3.30866 18.2188C4.53951 19 6.23249 19 9.61843 19H10.3816C13.7675 19 15.4605 19 16.6913 18.2188C17.3034 17.8304 17.823 17.3141 18.2139 16.7059C19 15.4829 19 13.8006 19 10.4361C19 8.48765 19 7.51344 18.6665 6.6521C18.4983 6.21784 18.2696 5.8092 17.987 5.43817C17.4265 4.70225 16.5936 4.18835 14.9278 3.16056L14.7475 3.04932C12.7009 1.78656 11.6775 1.15517 10.5545 1.03065C10.186 0.989784 9.81402 0.989784 9.44549 1.03065C8.32248 1.15517 7.29915 1.78656 5.25249 3.04932L5.0722 3.16056C3.40637 4.18835 2.57345 4.70225 2.01299 5.43817C1.73042 5.8092 1.5017 6.21784 1.33354 6.6521Z" fill="currentcolor" fill-opacity="0.2" />
  <path fill-rule="evenodd" d="M6.25 14.25C6.25 13.8358 6.58579 13.5 7 13.5H13C13.4142 13.5 13.75 13.8358 13.75 14.25C13.75 14.6642 13.4142 15 13 15H7C6.58579 15 6.25 14.6642 6.25 14.25Z" fill="currentcolor" />
</svg>
