<svg width="20" height="20" viewBox="0 0 20 20" fill="currentcolor" xmlns="http://www.w3.org/2000/svg">
  <path d="M11.0838 1.1033C10.3678 0.965576 9.63208 0.965576 8.91611 1.1033C7.87612 1.30337 6.92955 1.8902 5.39094 2.84406L5.12863 3.00663C3.74132 3.86604 2.88746 4.39498 2.27914 5.14348C1.85978 5.65948 1.53377 6.2445 1.31576 6.87227C0.999522 7.7829 0.999687 8.78591 0.999954 10.4155L0.99997 11.0592C0.999959 12.5517 0.999951 13.7342 1.10455 14.6737C1.21184 15.6373 1.43677 16.4356 1.95009 17.1167C2.21689 17.4707 2.53227 17.7855 2.88696 18.0517C3.5694 18.5641 4.36928 18.7885 5.33475 18.8956C6.27603 19 7.46085 19 8.95628 19H11.0436C12.539 19 13.7238 19 14.6651 18.8956C15.6306 18.7885 16.4305 18.5641 17.1129 18.0517C17.4676 17.7855 17.783 17.4707 18.0498 17.1167C18.5631 16.4356 18.788 15.6373 18.8953 14.6737C18.9999 13.7342 18.9999 12.5517 18.9999 11.0592L18.9999 10.4155C19.0002 8.7859 19.0004 7.7829 18.6841 6.87227C18.4661 6.2445 18.1401 5.65948 17.7207 5.14348C17.1124 4.39498 16.2586 3.86603 14.8713 3.00662L14.6089 2.84406C13.0703 1.8902 12.1238 1.30337 11.0838 1.1033Z" fill="currentcolor" fill-opacity="0.2" />
  <path fill-rule="evenodd" d="M12.7508 18.9219V13.6784C12.7508 12.162 11.5192 10.9328 9.99984 10.9328C8.48051 10.9328 7.24884 12.162 7.24884 13.6784V18.9219C7.93461 18.9409 8.71657 18.9409 9.61261 18.9409H10.3871C11.2831 18.9409 12.0651 18.9409 12.7508 18.9219Z" fill="currentcolor" />
</svg>
