<svg width="20" height="20" viewBox="0 0 20 20" fill="currentcolor" xmlns="http://www.w3.org/2000/svg">
  <rect x="1" y="1" width="18" height="18" rx="5" fill="currentcolor" fill-opacity="0.2" />
  <path d="M7.05005 9.90002C8.29269 9.90002 9.30005 8.89267 9.30005 7.65002C9.30005 6.40738 8.29269 5.40002 7.05005 5.40002C5.80741 5.40002 4.80005 6.40738 4.80005 7.65002C4.80005 8.89267 5.80741 9.90002 7.05005 9.90002Z" fill="currentcolor" />
  <path d="M9.99996 19.0015C6.25024 19.0015 4.37537 19.0015 3.06105 18.0466C2.3571 17.5351 2.42571 16.5399 3.01666 15.9012L4.45575 14.3459C5.21668 13.4804 6.50506 13.3438 7.42722 14.0308C9.01001 15.2099 11.2262 14.9486 12.4978 13.4329L13.7126 11.985C14.188 11.4183 14.5173 11.0266 14.7997 10.7381C15.0748 10.457 15.2682 10.3137 15.4532 10.2246C15.7852 10.0647 16.1505 9.98816 16.518 10.0015C16.7229 10.0089 16.9567 10.0627 17.3197 10.21C17.6923 10.3613 18.1487 10.5884 18.8079 10.9173C18.9256 10.9761 19 11.0983 19 11.2298C18.9996 14.7969 18.9813 15.6518 18.0451 16.9404C17.7367 17.3649 17.3634 17.7382 16.9389 18.0466C15.6246 19.0015 13.7497 19.0015 9.99996 19.0015Z" fill="currentcolor" />
</svg>
