<svg
  xmlns="http://www.w3.org/2000/svg"
  width="20"
  height="20"
  viewBox="0 0 20 20"
  fill="none"
>
  <path
    d="M2.09143 5.90776L1.30696 10.145L1.30696 10.1451C1.16722 10.8998 1.09735 11.2773 1.05663 11.6583C1.04606 11.7573 1.04992 11.7038 1.0423 11.803H4.58965C5.26685 11.803 5.60545 11.803 5.86377 11.9839C6.12209 12.1648 6.2378 12.4831 6.46923 13.1195L6.51177 13.2365C6.7432 13.8729 6.85892 14.1911 7.11723 14.372C7.37555 14.553 7.71415 14.553 8.39136 14.553H11.5896C12.2669 14.553 12.6055 14.553 12.8638 14.372C13.1221 14.1911 13.2378 13.8729 13.4692 13.2365L13.5118 13.1195C13.7432 12.4831 13.8589 12.1648 14.1172 11.9839C14.3755 11.803 14.7142 11.803 15.3914 11.803H18.9578C18.9502 11.7038 18.954 11.7573 18.9434 11.6583C18.9027 11.2773 18.8328 10.8998 18.6931 10.145L17.9086 5.90776C17.4741 3.56081 17.2569 2.38733 16.423 1.69366C15.5891 1 14.3957 1 12.0089 1H7.99118C5.60434 1 4.41093 1 3.57705 1.69366C2.74318 2.38733 2.52593 3.5608 2.09143 5.90776Z"
    fill="currentColor"
    fill-opacity="0.2"
  />
  <path
    d="M1.04221 11.803C1.03164 11.9019 1.03694 11.8563 1.02933 11.9555C1 12.3376 1 12.7214 1 13.4891C1 15.8451 1 17.0231 1.62517 17.8331C1.78186 18.0361 1.96393 18.2181 2.16692 18.3748C2.97685 19 4.15487 19 6.51092 19H13.4891C15.8451 19 17.0231 19 17.8331 18.3748C18.0361 18.2181 18.2181 18.0361 18.3748 17.8331C19 17.0231 19 15.8451 19 13.4891C19 12.7214 19 12.3376 18.9707 11.9555C18.9631 11.8563 18.9684 11.9019 18.9578 11.803L15.3913 11.803C14.7141 11.803 14.3755 11.803 14.1172 11.9839C13.8589 12.1648 13.7432 12.4831 13.5117 13.1195L13.4692 13.2365C13.2378 13.8729 13.1221 14.1911 12.8637 14.372C12.6054 14.553 12.2668 14.553 11.5896 14.553H8.39133C7.71413 14.553 7.37553 14.553 7.11721 14.372C6.85889 14.1911 6.74317 13.8729 6.51175 13.2365L6.46921 13.1195C6.23778 12.4831 6.12207 12.1648 5.86375 11.9839C5.60543 11.803 5.26683 11.803 4.58962 11.803H1.04221Z"
    fill="currentColor"
  />
</svg>
