<svg width="20" height="20" viewBox="0 0 20 20" fill="currentcolor" xmlns="http://www.w3.org/2000/svg">
  <path d="M2.01062 5.90776L1.22615 10.145L1.22615 10.1451C1.08641 10.8998 1.01654 11.2773 0.97582 11.6583C0.96525 11.7573 0.969106 11.7038 0.961492 11.803H4.50884C5.18604 11.803 5.52464 11.803 5.78296 11.9839C6.04128 12.1648 6.15699 12.4831 6.38842 13.1195L6.43096 13.2365C6.66238 13.8729 6.7781 14.1911 7.03642 14.372C7.29474 14.553 7.63334 14.553 8.31054 14.553H11.5088C12.186 14.553 12.5246 14.553 12.783 14.372C13.0413 14.1911 13.157 13.8729 13.3884 13.2365L13.431 13.1195C13.6624 12.4831 13.7781 12.1648 14.0364 11.9839C14.2947 11.803 14.6333 11.803 15.3105 11.803H18.877C18.8694 11.7038 18.8732 11.7573 18.8626 11.6583C18.8219 11.2773 18.752 10.8998 18.6123 10.145L17.8278 5.90776C17.3933 3.56081 17.1761 2.38733 16.3422 1.69366C15.5083 1 14.3149 1 11.9281 1H7.91037C5.52353 1 4.33012 1 3.49624 1.69366C2.66237 2.38733 2.44512 3.5608 2.01062 5.90776Z" fill="currentcolor" fill-opacity="0.2" />
  <path d="M5.35266 12.5982L5.78294 11.9839L5.35267 12.5982L5.35368 12.5991C5.35433 12.5997 5.35717 12.6025 5.36224 12.609C5.37316 12.623 5.39361 12.6532 5.42388 12.7142C5.49103 12.8496 5.56206 13.0417 5.68356 13.3758L5.72609 13.4928L5.73788 13.5252C5.84338 13.8154 5.94262 14.0884 6.05171 14.3084C6.17327 14.5534 6.33712 14.7979 6.60612 14.9863C6.87513 15.1748 7.16092 15.2452 7.43276 15.2757C7.67671 15.3031 7.96719 15.303 8.27602 15.303L8.31052 15.303H11.5088L11.5433 15.303C11.8521 15.303 12.1426 15.3031 12.3866 15.2757C12.6584 15.2452 12.9442 15.1748 13.2132 14.9863C13.4822 14.7979 13.6461 14.5534 13.7676 14.3084C13.8767 14.0885 13.9759 13.8155 14.0814 13.5252L14.0932 13.4928L14.1358 13.3758C14.2573 13.0417 14.3283 12.8496 14.3955 12.7142C14.4257 12.6532 14.4462 12.623 14.4571 12.609C14.4622 12.6025 14.465 12.5997 14.4657 12.5991L14.4667 12.5982L14.4678 12.5976C14.4686 12.5972 14.4722 12.5954 14.4801 12.5929C14.497 12.5874 14.5323 12.5785 14.6 12.5709C14.7502 12.5541 14.955 12.553 15.3105 12.553L18.165 12.553C18.1691 12.7876 18.1692 13.079 18.1692 13.4891C18.1692 14.6846 18.1681 15.5182 18.0958 16.1565C18.0253 16.7795 17.8951 17.1225 17.7003 17.3748C17.5828 17.5271 17.4462 17.6636 17.294 17.7811C17.0417 17.9759 16.6987 18.1061 16.0757 18.1766C15.4374 18.2489 14.6038 18.25 13.4083 18.25H6.43011C5.23456 18.25 4.40095 18.2489 3.76269 18.1766C3.13966 18.1061 2.7967 17.9759 2.54438 17.7811L2.08611 18.3748L2.54438 17.7811C2.39213 17.6636 2.25558 17.5271 2.13807 17.3748C1.94331 17.1225 1.81311 16.7795 1.74257 16.1565C1.67031 15.5182 1.66919 14.6846 1.66919 13.4891C1.66919 13.079 1.66933 12.7877 1.67335 12.553H4.50881C4.86434 12.553 5.06917 12.5541 5.21934 12.5709C5.28702 12.5785 5.32235 12.5874 5.33926 12.5929C5.34711 12.5954 5.35071 12.5972 5.35152 12.5976L5.35266 12.5982Z" fill="currentcolor" stroke="currentcolor" stroke-width="1.5" />
</svg>
