<svg
  xmlns="http://www.w3.org/2000/svg"
  width="20"
  height="20"
  viewBox="0 0 20 20"
  fill="none"
>
  <path
    d="M9.89536 4.18563C8.44482 4.18563 7.46993 3.1582 7.00032 2.51221C6.7814 2.21106 6.44462 2 6.07668 2H4.28398C3.065 2 1.97191 2.76449 1.53433 3.92306L0.0988124 7.72379C-0.218789 8.56469 0.258062 9.49896 1.11638 9.71747L1.92685 9.95734C2.59333 10.1546 3.29247 9.77346 3.50084 9.09929L3.91638 7.75489V16C3.91638 17.1046 4.79569 18 5.88039 18H14.0943C15.179 18 16.0583 17.1046 16.0583 16V7.75489L16.4282 8.91791C16.664 9.65947 17.4833 10.0244 18.1781 9.69751L19.0438 9.29024C19.825 8.99193 20.2071 8.09308 19.8862 7.30883L18.4694 3.84615C18.012 2.72821 16.9393 2 15.75 2H13.7623C13.3695 2 13.0146 2.24034 12.7899 2.56849C12.3465 3.21608 11.427 4.18563 9.89536 4.18563Z"
    fill="currentColor"
    fill-opacity="0.2"
  />
  <path
    fill-rule="evenodd"
    clip-rule="evenodd"
    d="M11.4693 8.05786C11.2057 8.05786 10.9588 8.10996 10.7316 8.21665C10.5017 8.32319 10.3066 8.48931 10.1458 8.70852C9.98407 8.92914 9.86251 9.20521 9.77609 9.52973L9.77579 9.53086C9.69094 9.85698 9.65033 10.241 9.65033 10.6797V11.668C9.65033 12.0214 9.67665 12.3398 9.73079 12.6209C9.78456 12.8974 9.86228 13.1431 9.96641 13.3551L9.96789 13.358C10.0739 13.5653 10.202 13.7423 10.3541 13.8853L10.357 13.888C10.511 14.027 10.6837 14.1316 10.8745 14.2003C11.0632 14.2683 11.2633 14.3016 11.4732 14.3016C11.737 14.3016 11.9831 14.2494 12.2085 14.1422C12.4376 14.0331 12.6323 13.8661 12.7928 13.6471L12.7936 13.646C12.9551 13.4228 13.0753 13.1453 13.1592 12.8204C13.2439 12.4919 13.2845 12.1068 13.2845 11.668V10.6797C13.2845 10.3289 13.2583 10.0137 13.2041 9.735C13.1504 9.45595 13.0713 9.20952 12.9639 8.999C12.8605 8.78892 12.7333 8.61088 12.5799 8.46951C12.4296 8.32862 12.2566 8.22469 12.0625 8.15855C11.8746 8.09105 11.6764 8.05786 11.4693 8.05786ZM11.3548 9.40277C11.388 9.37934 11.4231 9.36802 11.4655 9.36802C11.5043 9.36802 11.5342 9.37659 11.5594 9.39058L11.5656 9.39378C11.5872 9.40475 11.6155 9.42704 11.6475 9.47238C11.6761 9.51279 11.7048 9.57377 11.7288 9.66246C11.7531 9.75269 11.7733 9.86871 11.788 10.0128L11.7884 10.0162C11.8051 10.1573 11.8138 10.3247 11.8138 10.5196V11.8204C11.8138 12.0668 11.8013 12.2714 11.7775 12.4358L11.7772 12.4383C11.7555 12.6026 11.7244 12.7231 11.6884 12.8064C11.6521 12.8907 11.6142 12.9348 11.5832 12.9572C11.5502 12.9803 11.5153 12.9915 11.4732 12.9915C11.4339 12.9915 11.4007 12.9839 11.3711 12.9704C11.3487 12.957 11.3229 12.9339 11.2957 12.8938C11.2679 12.8489 11.238 12.7822 11.2086 12.6884C11.1821 12.5931 11.1598 12.4741 11.1429 12.3297C11.1285 12.1848 11.121 12.0152 11.121 11.8204V10.5196C11.121 10.2757 11.1323 10.0748 11.1536 9.91504C11.1776 9.75155 11.2108 9.63398 11.2478 9.55461L11.2486 9.55289C11.2884 9.46535 11.3269 9.42248 11.3548 9.40277Z"
    fill="currentColor"
  />
  <path
    d="M9.24909 8.42213C9.24909 8.25762 9.11813 8.12427 8.95659 8.12427C8.91845 8.12427 8.88067 8.13186 8.8454 8.14663L7.0992 8.87744C6.96446 8.93383 6.89708 8.96203 6.84691 9.00767C6.7976 9.05254 6.76021 9.10935 6.73821 9.17285C6.71582 9.23745 6.71582 9.31163 6.71582 9.45998V9.79547C6.71582 10.0759 6.99206 10.269 7.24902 10.1683C7.50598 10.0676 7.78222 10.2607 7.78222 10.5411V13.4766C7.78222 13.8024 7.78222 13.9652 7.86986 14.0753C7.88707 14.097 7.90646 14.1167 7.9277 14.1342C8.03583 14.2235 8.19577 14.2235 8.51565 14.2235C8.83553 14.2235 8.99547 14.2235 9.10361 14.1342C9.12485 14.1167 9.14423 14.097 9.16145 14.0753C9.24909 13.9652 9.24909 13.8024 9.24909 13.4766V8.42213Z"
    fill="currentColor"
  />
</svg>
