<svg
  xmlns="http://www.w3.org/2000/svg"
  width="20"
  height="20"
  viewBox="0 0 20 20"
  fill="none"
>
  <path
    fill-rule="evenodd"
    clip-rule="evenodd"
    d="M11.0052 2.60581C9.48946 1.06051 6.77761 1.12726 4.94167 2.99893C3.10574 4.8706 3.04027 7.63524 4.55605 9.18053C6.07184 10.7258 8.78369 10.6591 10.6196 8.78741C12.4556 6.91574 12.521 4.1511 11.0052 2.60581ZM3.89165 1.92847C6.19742 -0.422177 9.8553 -0.707444 12.0553 1.53535C14.0861 3.60574 14.0038 6.9427 12.1653 9.29266L16.3321 13.5407C16.7976 14.0151 17.1986 14.4239 17.4766 14.7953C17.7745 15.1933 18 15.636 18 16.1816C18 16.7271 17.7745 17.1698 17.4766 17.5679C17.1986 17.9392 16.7976 18.348 16.3321 18.8225L15.3946 19.7783C15.1046 20.0739 14.6345 20.0739 14.3446 19.7783C14.0546 19.4827 14.0546 19.0034 14.3446 18.7078L15.2476 17.7873C15.7574 17.2675 16.0858 16.9304 16.296 16.6496C16.4931 16.3862 16.515 16.2631 16.515 16.1816C16.515 16.1001 16.4931 15.9769 16.296 15.7136C16.1002 15.4519 15.8017 15.1415 15.3496 14.68L13.6273 16.4358C13.3374 16.7314 12.8673 16.7314 12.5773 16.4358C12.2873 16.1402 12.2873 15.6609 12.5773 15.3653L14.2996 13.6095L11.1152 10.3631C8.81014 12.2374 5.53689 12.3214 3.50603 10.251C1.30606 8.0082 1.58588 4.27912 3.89165 1.92847Z"
    fill="currentColor"
    fill-opacity="0.2"
  />
  <path
    fill-rule="evenodd"
    clip-rule="evenodd"
    d="M11.0052 2.60581C9.48946 1.06051 6.77761 1.12726 4.94167 2.99893C3.10574 4.8706 3.04027 7.63524 4.55605 9.18053C6.07184 10.7258 8.78369 10.6591 10.6196 8.78741C12.4556 6.91574 12.521 4.1511 11.0052 2.60581ZM3.89165 1.92847C6.19742 -0.422177 9.8553 -0.707444 12.0553 1.53535C14.2552 3.77814 13.9754 7.50722 11.6696 9.85787C9.36388 12.2085 5.706 12.4938 3.50603 10.251C1.30606 8.0082 1.58588 4.27912 3.89165 1.92847Z"
    fill="currentColor"
  />
</svg>
