<svg width="21" height="20" viewBox="0 0 21 20" fill="currentcolor" xmlns="http://www.w3.org/2000/svg">
  <path fill-rule="evenodd" d="M13.6426 3H7.95749C6.46671 2.99998 5.27698 2.99997 4.34388 3.12178C3.37991 3.24762 2.58604 3.51453 1.958 4.12433C1.32996 4.73414 1.05507 5.50496 0.925472 6.44094C0.80002 7.34695 0.800033 8.50214 0.800049 9.94964V10.0504C0.800033 11.4979 0.80002 12.653 0.925472 13.5591C1.05507 14.495 1.32996 15.2659 1.958 15.8757C2.58604 16.4855 3.37991 16.7524 4.34388 16.8782C5.27698 17 6.46671 17 7.9575 17H13.6426C15.1334 17 16.3231 17 17.2562 16.8782C18.2202 16.7524 19.0141 16.4855 19.6421 15.8757C20.2701 15.2659 20.545 14.495 20.6746 13.5591C20.8001 12.653 20.8001 11.4979 20.8 10.0503V9.94965C20.8001 8.50215 20.8001 7.34696 20.6746 6.44094C20.545 5.50496 20.2701 4.73414 19.6421 4.12433C19.0141 3.51453 18.2202 3.24762 17.2562 3.12178C16.3231 2.99997 15.1334 2.99998 13.6426 3Z" fill="currentcolor" fill-opacity="0.2" />
  <path fill-rule="evenodd" d="M7.19535 12.7097C7.19535 12.3356 7.50771 12.0323 7.89302 12.0323L13.4744 12.0323C13.8597 12.0323 14.1721 12.3356 14.1721 12.7097C14.1721 13.0838 13.8597 13.3871 13.4744 13.3871L7.89302 13.3871C7.50771 13.3871 7.19535 13.0838 7.19535 12.7097Z" fill="currentcolor" />
  <path d="M4.63721 12.7097C4.63721 12.4128 4.63721 12.2643 4.72167 12.1644C4.73713 12.1461 4.75441 12.1293 4.77325 12.1143C4.87616 12.0323 5.02907 12.0323 5.33488 12.0323C5.64069 12.0323 5.7936 12.0323 5.89652 12.1143C5.91536 12.1293 5.93263 12.1461 5.94809 12.1644C6.03256 12.2643 6.03256 12.4128 6.03256 12.7097C6.03256 13.0066 6.03256 13.1551 5.94809 13.255C5.93263 13.2733 5.91536 13.2901 5.89652 13.3051C5.7936 13.3871 5.64069 13.3871 5.33488 13.3871C5.02907 13.3871 4.87616 13.3871 4.77325 13.3051C4.75441 13.2901 4.73713 13.2733 4.72167 13.255C4.63721 13.1551 4.63721 13.0066 4.63721 12.7097Z" fill="currentcolor" />
  <path d="M4.63721 10C4.63721 9.70308 4.63721 9.55461 4.72167 9.45468C4.73713 9.43639 4.75441 9.41961 4.77325 9.4046C4.87616 9.32259 5.02907 9.32259 5.33488 9.32259C5.64069 9.32259 5.7936 9.32259 5.89652 9.4046C5.91536 9.41961 5.93263 9.43639 5.94809 9.45468C6.03256 9.55461 6.03256 9.70308 6.03256 10C6.03256 10.2969 6.03256 10.4454 5.94809 10.5453C5.93263 10.5636 5.91536 10.5804 5.89652 10.5954C5.7936 10.6774 5.64069 10.6774 5.33488 10.6774C5.02907 10.6774 4.87616 10.6774 4.77325 10.5954C4.75441 10.5804 4.73713 10.5636 4.72167 10.5453C4.63721 10.4454 4.63721 10.2969 4.63721 10Z" fill="currentcolor" />
  <path d="M4.63721 7.29033C4.63721 6.9934 4.63721 6.84493 4.72167 6.74501C4.73713 6.72671 4.75441 6.70994 4.77325 6.69492C4.87616 6.61292 5.02907 6.61292 5.33488 6.61292C5.64069 6.61292 5.7936 6.61292 5.89652 6.69492C5.91536 6.70994 5.93263 6.72671 5.94809 6.74501C6.03256 6.84493 6.03256 6.9934 6.03256 7.29033C6.03256 7.58727 6.03256 7.73574 5.94809 7.83566C5.93263 7.85396 5.91536 7.87073 5.89652 7.88574C5.7936 7.96775 5.64069 7.96775 5.33488 7.96775C5.02907 7.96775 4.87616 7.96775 4.77325 7.88574C4.75441 7.87073 4.73713 7.85396 4.72167 7.83566C4.63721 7.73574 4.63721 7.58727 4.63721 7.29033Z" fill="currentcolor" />
  <path d="M7.19535 7.29033C7.19535 6.9934 7.19535 6.84493 7.27981 6.74501C7.29527 6.72671 7.31255 6.70994 7.33139 6.69492C7.4343 6.61292 7.58721 6.61292 7.89302 6.61292C8.19883 6.61292 8.35174 6.61292 8.45466 6.69492C8.4735 6.70994 8.49077 6.72671 8.50623 6.74501C8.5907 6.84493 8.5907 6.9934 8.5907 7.29033C8.5907 7.58727 8.5907 7.73574 8.50623 7.83566C8.49077 7.85396 8.4735 7.87073 8.45466 7.88574C8.35174 7.96775 8.19883 7.96775 7.89302 7.96775C7.58721 7.96775 7.4343 7.96775 7.33139 7.88574C7.31255 7.87073 7.29527 7.85396 7.27981 7.83566C7.19535 7.73574 7.19535 7.58727 7.19535 7.29033Z" fill="currentcolor" />
  <path d="M7.19535 10C7.19535 9.70308 7.19535 9.55461 7.27981 9.45468C7.29527 9.43639 7.31255 9.41961 7.33139 9.4046C7.4343 9.32259 7.58721 9.32259 7.89302 9.32259C8.19883 9.32259 8.35174 9.32259 8.45466 9.4046C8.4735 9.41961 8.49077 9.43639 8.50623 9.45468C8.5907 9.55461 8.5907 9.70308 8.5907 10C8.5907 10.2969 8.5907 10.4454 8.50623 10.5453C8.49077 10.5636 8.4735 10.5804 8.45466 10.5954C8.35174 10.6774 8.19883 10.6774 7.89302 10.6774C7.58721 10.6774 7.4343 10.6774 7.33139 10.5954C7.31255 10.5804 7.29527 10.5636 7.27981 10.5453C7.19535 10.4454 7.19535 10.2969 7.19535 10Z" fill="currentcolor" />
  <path d="M9.98604 7.29033C9.98604 6.9934 9.98604 6.84493 10.0705 6.74501C10.086 6.72671 10.1032 6.70994 10.1221 6.69492C10.225 6.61292 10.3779 6.61292 10.6837 6.61292C10.9895 6.61292 11.1424 6.61292 11.2454 6.69492C11.2642 6.70994 11.2815 6.72671 11.2969 6.74501C11.3814 6.84493 11.3814 6.9934 11.3814 7.29033C11.3814 7.58727 11.3814 7.73574 11.2969 7.83566C11.2815 7.85396 11.2642 7.87073 11.2454 7.88574C11.1424 7.96775 10.9895 7.96775 10.6837 7.96775C10.3779 7.96775 10.225 7.96775 10.1221 7.88574C10.1032 7.87073 10.086 7.85396 10.0705 7.83566C9.98604 7.73574 9.98604 7.58727 9.98604 7.29033Z" fill="currentcolor" />
  <path d="M9.98604 10C9.98604 9.70308 9.98604 9.55461 10.0705 9.45468C10.086 9.43639 10.1032 9.41961 10.1221 9.4046C10.225 9.32259 10.3779 9.32259 10.6837 9.32259C10.9895 9.32259 11.1424 9.32259 11.2454 9.4046C11.2642 9.41961 11.2815 9.43639 11.2969 9.45468C11.3814 9.55461 11.3814 9.70308 11.3814 10C11.3814 10.2969 11.3814 10.4454 11.2969 10.5453C11.2815 10.5636 11.2642 10.5804 11.2454 10.5954C11.1424 10.6774 10.9895 10.6774 10.6837 10.6774C10.3779 10.6774 10.225 10.6774 10.1221 10.5954C10.1032 10.5804 10.086 10.5636 10.0705 10.5453C9.98604 10.4454 9.98604 10.2969 9.98604 10Z" fill="currentcolor" />
  <path d="M12.7767 10C12.7767 9.70308 12.7767 9.55461 12.8612 9.45468C12.8767 9.43639 12.8939 9.41961 12.9128 9.4046C13.0157 9.32259 13.1686 9.32259 13.4744 9.32259C13.7802 9.32259 13.9331 9.32259 14.036 9.4046C14.0549 9.41961 14.0722 9.43639 14.0876 9.45468C14.1721 9.55461 14.1721 9.70308 14.1721 10C14.1721 10.2969 14.1721 10.4454 14.0876 10.5453C14.0722 10.5636 14.0549 10.5804 14.036 10.5954C13.9331 10.6774 13.7802 10.6774 13.4744 10.6774C13.1686 10.6774 13.0157 10.6774 12.9128 10.5954C12.8939 10.5804 12.8767 10.5636 12.8612 10.5453C12.7767 10.4454 12.7767 10.2969 12.7767 10Z" fill="currentcolor" />
  <path d="M15.5674 10C15.5674 9.70308 15.5674 9.55461 15.6519 9.45468C15.6674 9.43639 15.6846 9.41961 15.7035 9.4046C15.8064 9.32259 15.9593 9.32259 16.2651 9.32259C16.5709 9.32259 16.7238 9.32259 16.8267 9.4046C16.8456 9.41961 16.8629 9.43639 16.8783 9.45468C16.9628 9.55461 16.9628 9.70308 16.9628 10C16.9628 10.2969 16.9628 10.4454 16.8783 10.5453C16.8629 10.5636 16.8456 10.5804 16.8267 10.5954C16.7238 10.6774 16.5709 10.6774 16.2651 10.6774C15.9593 10.6774 15.8064 10.6774 15.7035 10.5954C15.6846 10.5804 15.6674 10.5636 15.6519 10.5453C15.5674 10.4454 15.5674 10.2969 15.5674 10Z" fill="currentcolor" />
  <path d="M15.5674 12.7097C15.5674 12.4128 15.5674 12.2643 15.6519 12.1644C15.6674 12.1461 15.6846 12.1293 15.7035 12.1143C15.8064 12.0323 15.9593 12.0323 16.2651 12.0323C16.5709 12.0323 16.7238 12.0323 16.8267 12.1143C16.8456 12.1293 16.8629 12.1461 16.8783 12.1644C16.9628 12.2643 16.9628 12.4128 16.9628 12.7097C16.9628 13.0066 16.9628 13.1551 16.8783 13.255C16.8629 13.2733 16.8456 13.2901 16.8267 13.3051C16.7238 13.3871 16.5709 13.3871 16.2651 13.3871C15.9593 13.3871 15.8064 13.3871 15.7035 13.3051C15.6846 13.2901 15.6674 13.2733 15.6519 13.255C15.5674 13.1551 15.5674 13.0066 15.5674 12.7097Z" fill="currentcolor" />
  <path d="M12.7767 7.29033C12.7767 6.9934 12.7767 6.84493 12.8612 6.74501C12.8767 6.72671 12.8939 6.70994 12.9128 6.69492C13.0157 6.61292 13.1686 6.61292 13.4744 6.61292C13.7802 6.61292 13.9331 6.61292 14.036 6.69492C14.0549 6.70994 14.0722 6.72671 14.0876 6.74501C14.1721 6.84493 14.1721 6.9934 14.1721 7.29033C14.1721 7.58727 14.1721 7.73574 14.0876 7.83566C14.0722 7.85396 14.0549 7.87073 14.036 7.88574C13.9331 7.96775 13.7802 7.96775 13.4744 7.96775C13.1686 7.96775 13.0157 7.96775 12.9128 7.88574C12.8939 7.87073 12.8767 7.85396 12.8612 7.83566C12.7767 7.73574 12.7767 7.58727 12.7767 7.29033Z" fill="currentcolor" />
  <path d="M15.5674 7.29033C15.5674 6.9934 15.5674 6.84493 15.6519 6.74501C15.6674 6.72671 15.6846 6.70994 15.7035 6.69492C15.8064 6.61292 15.9593 6.61292 16.2651 6.61292C16.5709 6.61292 16.7238 6.61292 16.8267 6.69492C16.8456 6.70994 16.8629 6.72671 16.8783 6.74501C16.9628 6.84493 16.9628 6.9934 16.9628 7.29033C16.9628 7.58727 16.9628 7.73574 16.8783 7.83566C16.8629 7.85396 16.8456 7.87073 16.8267 7.88574C16.7238 7.96775 16.5709 7.96775 16.2651 7.96775C15.9593 7.96775 15.8064 7.96775 15.7035 7.88574C15.6846 7.87073 15.6674 7.85396 15.6519 7.83566C15.5674 7.73574 15.5674 7.58727 15.5674 7.29033Z" fill="currentcolor" />
</svg>
