<svg
  xmlns="http://www.w3.org/2000/svg"
  width="21"
  height="20"
  viewBox="0 0 21 20"
  fill="none"
>
  <path
    fill-rule="evenodd"
    clip-rule="evenodd"
    d="M13.6425 3H7.95743C6.46665 2.99998 5.27692 2.99997 4.34381 3.12178C3.37985 3.24762 2.58598 3.51453 1.95794 4.12433C1.3299 4.73414 1.05501 5.50496 0.925411 6.44094C0.799959 7.34695 0.799972 8.50214 0.799988 9.94964V10.0504C0.799972 11.4979 0.799959 12.653 0.925411 13.5591C1.05501 14.495 1.3299 15.2659 1.95794 15.8757C2.58598 16.4855 3.37985 16.7524 4.34381 16.8782C5.27692 17 6.46665 17 7.95744 17H13.6425C15.1333 17 16.3231 17 17.2562 16.8782C18.2201 16.7524 19.014 16.4855 19.642 15.8757C20.2701 15.2659 20.545 14.495 20.6746 13.5591C20.8 12.653 20.8 11.4979 20.8 10.0503V9.94965C20.8 8.50215 20.8 7.34696 20.6746 6.44094C20.545 5.50496 20.2701 4.73414 19.642 4.12433C19.014 3.51453 18.2201 3.24762 17.2562 3.12178C16.3231 2.99997 15.1333 2.99998 13.6425 3Z"
    fill="currentColor"
    fill-opacity="0.2"
  />
  <path
    fill-rule="evenodd"
    clip-rule="evenodd"
    d="M7.19533 12.7096C7.19533 12.3354 7.50769 12.0321 7.89301 12.0321L13.4744 12.0322C13.8597 12.0322 14.1721 12.3354 14.1721 12.7096C14.1721 13.0837 13.8597 13.387 13.4744 13.387L7.89301 13.387C7.50769 13.387 7.19533 13.0837 7.19533 12.7096Z"
    fill="currentColor"
  />
  <path
    d="M4.63719 12.7096C4.63719 12.4126 4.63719 12.2642 4.72165 12.1642C4.73712 12.1459 4.75439 12.1292 4.77323 12.1142C4.87615 12.0321 5.02905 12.0321 5.33487 12.0321C5.64068 12.0321 5.79358 12.0321 5.8965 12.1142C5.91534 12.1292 5.93262 12.1459 5.94808 12.1642C6.03254 12.2642 6.03254 12.4126 6.03254 12.7096C6.03254 13.0065 6.03254 13.155 5.94808 13.2549C5.93262 13.2732 5.91534 13.29 5.8965 13.305C5.79358 13.387 5.64068 13.387 5.33487 13.387C5.02905 13.387 4.87615 13.387 4.77323 13.305C4.75439 13.29 4.73712 13.2732 4.72165 13.2549C4.63719 13.155 4.63719 13.0065 4.63719 12.7096Z"
    fill="currentColor"
  />
  <path
    d="M4.63719 9.99989C4.63719 9.70296 4.63719 9.55449 4.72165 9.45456C4.73712 9.43627 4.75439 9.41949 4.77323 9.40448C4.87615 9.32247 5.02905 9.32247 5.33487 9.32247C5.64068 9.32247 5.79358 9.32247 5.8965 9.40448C5.91534 9.41949 5.93262 9.43627 5.94808 9.45456C6.03254 9.55449 6.03254 9.70296 6.03254 9.99989C6.03254 10.2968 6.03254 10.4453 5.94808 10.5452C5.93262 10.5635 5.91534 10.5803 5.8965 10.5953C5.79358 10.6773 5.64068 10.6773 5.33487 10.6773C5.02905 10.6773 4.87615 10.6773 4.77323 10.5953C4.75439 10.5803 4.73712 10.5635 4.72165 10.5452C4.63719 10.4453 4.63719 10.2968 4.63719 9.99989Z"
    fill="currentColor"
  />
  <path
    d="M4.63719 7.29021C4.63719 6.99328 4.63719 6.84481 4.72165 6.74488C4.73712 6.72659 4.75439 6.70982 4.77323 6.6948C4.87615 6.61279 5.02905 6.61279 5.33487 6.61279C5.64068 6.61279 5.79358 6.61279 5.8965 6.6948C5.91534 6.70982 5.93262 6.72659 5.94808 6.74488C6.03254 6.84481 6.03254 6.99328 6.03254 7.29021C6.03254 7.58715 6.03254 7.73561 5.94808 7.83554C5.93262 7.85384 5.91534 7.87061 5.8965 7.88562C5.79358 7.96763 5.64068 7.96763 5.33487 7.96763C5.02905 7.96763 4.87615 7.96763 4.77323 7.88562C4.75439 7.87061 4.73712 7.85384 4.72165 7.83554C4.63719 7.73561 4.63719 7.58715 4.63719 7.29021Z"
    fill="currentColor"
  />
  <path
    d="M7.19533 7.29021C7.19533 6.99328 7.19533 6.84481 7.27979 6.74488C7.29525 6.72659 7.31253 6.70982 7.33137 6.6948C7.43429 6.61279 7.58719 6.61279 7.89301 6.61279C8.19882 6.61279 8.35172 6.61279 8.45464 6.6948C8.47348 6.70982 8.49076 6.72659 8.50622 6.74488C8.59068 6.84481 8.59068 6.99328 8.59068 7.29021C8.59068 7.58715 8.59068 7.73561 8.50622 7.83554C8.49076 7.85384 8.47348 7.87061 8.45464 7.88562C8.35172 7.96763 8.19882 7.96763 7.89301 7.96763C7.58719 7.96763 7.43429 7.96763 7.33137 7.88562C7.31253 7.87061 7.29525 7.85384 7.27979 7.83554C7.19533 7.73561 7.19533 7.58715 7.19533 7.29021Z"
    fill="currentColor"
  />
  <path
    d="M7.19533 9.99989C7.19533 9.70296 7.19533 9.55449 7.27979 9.45456C7.29525 9.43627 7.31253 9.41949 7.33137 9.40448C7.43429 9.32247 7.58719 9.32247 7.89301 9.32247C8.19882 9.32247 8.35172 9.32247 8.45464 9.40448C8.47348 9.41949 8.49076 9.43627 8.50622 9.45456C8.59068 9.55449 8.59068 9.70296 8.59068 9.99989C8.59068 10.2968 8.59068 10.4453 8.50622 10.5452C8.49076 10.5635 8.47348 10.5803 8.45464 10.5953C8.35172 10.6773 8.19882 10.6773 7.89301 10.6773C7.58719 10.6773 7.43429 10.6773 7.33137 10.5953C7.31253 10.5803 7.29525 10.5635 7.27979 10.5452C7.19533 10.4453 7.19533 10.2968 7.19533 9.99989Z"
    fill="currentColor"
  />
  <path
    d="M9.98603 7.29021C9.98603 6.99328 9.98603 6.84481 10.0705 6.74488C10.086 6.72659 10.1032 6.70982 10.1221 6.6948C10.225 6.61279 10.3779 6.61279 10.6837 6.61279C10.9895 6.61279 11.1424 6.61279 11.2453 6.6948C11.2642 6.70982 11.2815 6.72659 11.2969 6.74488C11.3814 6.84481 11.3814 6.99328 11.3814 7.29021C11.3814 7.58715 11.3814 7.73561 11.2969 7.83554C11.2815 7.85384 11.2642 7.87061 11.2453 7.88562C11.1424 7.96763 10.9895 7.96763 10.6837 7.96763C10.3779 7.96763 10.225 7.96763 10.1221 7.88562C10.1032 7.87061 10.086 7.85384 10.0705 7.83554C9.98603 7.73561 9.98603 7.58715 9.98603 7.29021Z"
    fill="currentColor"
  />
  <path
    d="M9.98603 9.99989C9.98603 9.70296 9.98603 9.55449 10.0705 9.45456C10.086 9.43627 10.1032 9.41949 10.1221 9.40448C10.225 9.32247 10.3779 9.32247 10.6837 9.32247C10.9895 9.32247 11.1424 9.32247 11.2453 9.40448C11.2642 9.41949 11.2815 9.43627 11.2969 9.45456C11.3814 9.55449 11.3814 9.70296 11.3814 9.99989C11.3814 10.2968 11.3814 10.4453 11.2969 10.5452C11.2815 10.5635 11.2642 10.5803 11.2453 10.5953C11.1424 10.6773 10.9895 10.6773 10.6837 10.6773C10.3779 10.6773 10.225 10.6773 10.1221 10.5953C10.1032 10.5803 10.086 10.5635 10.0705 10.5452C9.98603 10.4453 9.98603 10.2968 9.98603 9.99989Z"
    fill="currentColor"
  />
  <path
    d="M12.7767 9.99989C12.7767 9.70296 12.7767 9.55449 12.8612 9.45456C12.8766 9.43627 12.8939 9.41949 12.9128 9.40448C13.0157 9.32247 13.1686 9.32247 13.4744 9.32247C13.7802 9.32247 13.9331 9.32247 14.036 9.40448C14.0549 9.41949 14.0722 9.43627 14.0876 9.45456C14.1721 9.55449 14.1721 9.70296 14.1721 9.99989C14.1721 10.2968 14.1721 10.4453 14.0876 10.5452C14.0722 10.5635 14.0549 10.5803 14.036 10.5953C13.9331 10.6773 13.7802 10.6773 13.4744 10.6773C13.1686 10.6773 13.0157 10.6773 12.9128 10.5953C12.8939 10.5803 12.8766 10.5635 12.8612 10.5452C12.7767 10.4453 12.7767 10.2968 12.7767 9.99989Z"
    fill="currentColor"
  />
  <path
    d="M15.5674 9.99989C15.5674 9.70296 15.5674 9.55449 15.6519 9.45456C15.6673 9.43627 15.6846 9.41949 15.7035 9.40448C15.8064 9.32247 15.9593 9.32247 16.2651 9.32247C16.5709 9.32247 16.7238 9.32247 16.8267 9.40448C16.8456 9.41949 16.8629 9.43627 16.8783 9.45456C16.9628 9.55449 16.9628 9.70296 16.9628 9.99989C16.9628 10.2968 16.9628 10.4453 16.8783 10.5452C16.8629 10.5635 16.8456 10.5803 16.8267 10.5953C16.7238 10.6773 16.5709 10.6773 16.2651 10.6773C15.9593 10.6773 15.8064 10.6773 15.7035 10.5953C15.6846 10.5803 15.6673 10.5635 15.6519 10.5452C15.5674 10.4453 15.5674 10.2968 15.5674 9.99989Z"
    fill="currentColor"
  />
  <path
    d="M15.5674 12.7096C15.5674 12.4126 15.5674 12.2642 15.6519 12.1642C15.6673 12.1459 15.6846 12.1292 15.7035 12.1142C15.8064 12.0321 15.9593 12.0321 16.2651 12.0321C16.5709 12.0321 16.7238 12.0321 16.8267 12.1142C16.8456 12.1292 16.8629 12.1459 16.8783 12.1642C16.9628 12.2642 16.9628 12.4126 16.9628 12.7096C16.9628 13.0065 16.9628 13.155 16.8783 13.2549C16.8629 13.2732 16.8456 13.29 16.8267 13.305C16.7238 13.387 16.5709 13.387 16.2651 13.387C15.9593 13.387 15.8064 13.387 15.7035 13.305C15.6846 13.29 15.6673 13.2732 15.6519 13.2549C15.5674 13.155 15.5674 13.0065 15.5674 12.7096Z"
    fill="currentColor"
  />
  <path
    d="M12.7767 7.29021C12.7767 6.99328 12.7767 6.84481 12.8612 6.74488C12.8766 6.72659 12.8939 6.70982 12.9128 6.6948C13.0157 6.61279 13.1686 6.61279 13.4744 6.61279C13.7802 6.61279 13.9331 6.61279 14.036 6.6948C14.0549 6.70982 14.0722 6.72659 14.0876 6.74488C14.1721 6.84481 14.1721 6.99328 14.1721 7.29021C14.1721 7.58715 14.1721 7.73561 14.0876 7.83554C14.0722 7.85384 14.0549 7.87061 14.036 7.88562C13.9331 7.96763 13.7802 7.96763 13.4744 7.96763C13.1686 7.96763 13.0157 7.96763 12.9128 7.88562C12.8939 7.87061 12.8766 7.85384 12.8612 7.83554C12.7767 7.73561 12.7767 7.58715 12.7767 7.29021Z"
    fill="currentColor"
  />
  <path
    d="M15.5674 7.29021C15.5674 6.99328 15.5674 6.84481 15.6519 6.74488C15.6673 6.72659 15.6846 6.70982 15.7035 6.6948C15.8064 6.61279 15.9593 6.61279 16.2651 6.61279C16.5709 6.61279 16.7238 6.61279 16.8267 6.6948C16.8456 6.70982 16.8629 6.72659 16.8783 6.74488C16.9628 6.84481 16.9628 6.99328 16.9628 7.29021C16.9628 7.58715 16.9628 7.73561 16.8783 7.83554C16.8629 7.85384 16.8456 7.87061 16.8267 7.88562C16.7238 7.96763 16.5709 7.96763 16.2651 7.96763C15.9593 7.96763 15.8064 7.96763 15.7035 7.88562C15.6846 7.87061 15.6673 7.85384 15.6519 7.83554C15.5674 7.73561 15.5674 7.58715 15.5674 7.29021Z"
    fill="currentColor"
  />
</svg>
