<svg
  xmlns="http://www.w3.org/2000/svg"
  width="20"
  height="21"
  viewBox="0 0 20 21"
  fill="none"
>
  <path
    fill-rule="evenodd"
    clip-rule="evenodd"
    d="M15.5891 10.5829C15.7628 10.2046 16.2111 10.0355 16.5939 10.2051C16.9789 10.3757 17.1519 10.8243 16.9803 11.207L16.9794 11.209L16.9783 11.2113L16.9759 11.2166L16.9693 11.2306C16.9642 11.2413 16.9577 11.2548 16.9496 11.2708C16.9335 11.3028 16.9111 11.3452 16.8822 11.3959C16.8245 11.497 16.7397 11.6325 16.6243 11.7861C16.3945 12.0919 16.0357 12.479 15.5176 12.8031C14.9873 13.1349 14.4371 13.287 14.0335 13.3584C13.8291 13.3946 13.6548 13.4114 13.5285 13.4191C13.4651 13.423 13.4133 13.4246 13.3751 13.4253C13.356 13.4256 13.3403 13.4257 13.3282 13.4256L13.3128 13.4255L13.3072 13.4254L13.305 13.4254L13.3035 13.4253C13.3035 13.4253 13.3035 13.4253 13.3128 13.4255L13.3035 13.4253C12.8821 13.416 12.5477 13.0689 12.557 12.65C12.5663 12.2324 12.9133 11.9012 13.3329 11.9083L13.3497 11.9081C13.3667 11.9078 13.3956 11.907 13.4344 11.9046C13.5124 11.8998 13.628 11.8889 13.7661 11.8645C14.0477 11.8147 14.3931 11.7138 14.7047 11.5189C15.0286 11.3163 15.2558 11.0719 15.4016 10.878C15.4739 10.7816 15.5243 10.7002 15.5548 10.6469C15.57 10.6203 15.58 10.601 15.5852 10.5907L15.5891 10.5829ZM13.3329 11.9083L13.3353 11.9083L13.3365 11.9083"
    fill="currentColor"
  />
  <path
    d="M8.47269 1.38213C9.79763 0.591294 11.5166 1.01799 12.3121 2.33519L12.8233 3.18175C11.8702 3.20484 10.913 3.46557 10.0445 3.98395C9.1757 4.50252 8.49408 5.2202 8.02553 6.04602L7.51402 5.19905C6.71854 3.88185 7.14775 2.17296 8.47269 1.38213Z"
    fill="currentColor"
  />
  <path
    d="M10.0383 3.99903C12.546 2.50218 15.7937 3.15363 17.5458 5.47135C18.3462 6.53006 18.061 8.05964 16.9089 8.74729L11.0241 12.2598C9.872 12.9475 8.37994 12.4787 7.81624 11.2788C6.58219 8.65181 7.53046 5.49589 10.0383 3.99903Z"
    fill="currentColor"
    fill-opacity="0.2"
  />
  <path
    d="M7.33085 4.83263C7.11071 4.29777 7.07005 3.72255 7.1897 3.18335L7.02027 3.27153C5.27952 4.17751 4.20896 5.2092 3.07143 6.9631C2.27493 8.19118 2.00262 9.68717 2.00002 11.1702C1.9974 12.6592 2.26647 14.1999 2.61589 15.5763C2.96626 16.9564 3.40386 18.196 3.7529 19.0892C3.80524 19.2232 3.85566 19.3495 3.90357 19.4675H2.76808C2.3466 19.4675 2.00493 19.8072 2.00493 20.2262C2.00493 20.6452 2.3466 20.9849 2.76808 20.9849H12.1845C12.606 20.9849 12.9477 20.6452 12.9477 20.2262C12.9477 19.8072 12.606 19.4675 12.1845 19.4675H5.55698C5.45687 19.2365 5.32469 18.9213 5.17559 18.5397C4.84189 17.6858 4.42649 16.5077 4.09577 15.205C3.7641 13.8985 3.52399 12.4913 3.5263 11.1729C3.52863 9.84859 3.77536 8.67782 4.35418 7.78536C5.27503 6.36556 6.08741 5.5456 7.33085 4.83263Z"
    fill="currentColor"
    fill-opacity="0.2"
  />
</svg>
