<svg
  xmlns="http://www.w3.org/2000/svg"
  width="20"
  height="21"
  viewBox="0 0 20 21"
  fill="none"
>
  <path
    fill-rule="evenodd"
    clip-rule="evenodd"
    d="M4.41092 10.5829C4.2372 10.2046 3.78888 10.0355 3.40605 10.2051C3.02109 10.3757 2.84814 10.8243 3.01974 11.207L3.02063 11.209L3.02166 11.2113L3.02411 11.2166L3.03067 11.2306C3.03576 11.2413 3.0423 11.2548 3.05039 11.2708C3.06655 11.3028 3.08888 11.3452 3.11781 11.3959C3.17553 11.497 3.26029 11.6325 3.37567 11.7861C3.60548 12.0919 3.96431 12.479 4.48239 12.8031C5.01274 13.1349 5.56292 13.287 5.96645 13.3584C6.17088 13.3946 6.34524 13.4114 6.47154 13.4191C6.53489 13.423 6.58673 13.4246 6.6249 13.4253C6.644 13.4256 6.65972 13.4257 6.6718 13.4256L6.68719 13.4255L6.69278 13.4254L6.69504 13.4254L6.6965 13.4253C6.6965 13.4253 6.6965 13.4253 6.68719 13.4255L6.6965 13.4253C7.11787 13.416 7.45233 13.0689 7.44299 12.65C7.43368 12.2324 7.0867 11.9012 6.66713 11.9083L6.65031 11.9081C6.63327 11.9078 6.60438 11.907 6.56559 11.9046C6.4876 11.8998 6.37203 11.8889 6.2339 11.8645C5.95233 11.8147 5.60691 11.7138 5.29528 11.5189C4.97138 11.3163 4.74418 11.0719 4.59844 10.878C4.52605 10.7816 4.47566 10.7002 4.44519 10.6469C4.43001 10.6203 4.41997 10.601 4.4148 10.5907L4.41092 10.5829ZM6.66713 11.9083L6.66468 11.9083L6.66354 11.9083"
    fill="currentColor"
  />
  <path
    d="M11.5273 1.38213C10.2024 0.591294 8.48343 1.01799 7.68795 2.33519L7.17669 3.18175C8.1298 3.20484 9.08703 3.46557 9.95551 3.98395C10.8243 4.50252 11.5059 5.2202 11.9745 6.04602L12.486 5.19905C13.2815 3.88185 12.8523 2.17296 11.5273 1.38213Z"
    fill="currentColor"
  />
  <path
    d="M9.96175 3.99903C7.45396 2.50218 4.20633 3.15363 2.45417 5.47135C1.65381 6.53006 1.93905 8.05964 3.09112 8.74729L8.97593 12.2598C10.128 12.9475 11.6201 12.4787 12.1838 11.2788C13.4178 8.65181 12.4695 5.49589 9.96175 3.99903Z"
    fill="currentColor"
    fill-opacity="0.2"
  />
  <path
    d="M12.6691 4.83263C12.8893 4.29777 12.9299 3.72255 12.8103 3.18335L12.9797 3.27153C14.7205 4.17751 15.791 5.2092 16.9286 6.9631C17.7251 8.19118 17.9974 9.68717 18 11.1702C18.0026 12.6592 17.7335 14.1999 17.3841 15.5763C17.0337 16.9564 16.5961 18.196 16.2471 19.0892C16.1948 19.2232 16.1443 19.3495 16.0964 19.4675H17.2319C17.6534 19.4675 17.9951 19.8072 17.9951 20.2262C17.9951 20.6452 17.6534 20.9849 17.2319 20.9849H7.81549C7.39402 20.9849 7.05235 20.6452 7.05235 20.2262C7.05235 19.8072 7.39402 19.4675 7.81549 19.4675H14.443C14.5431 19.2365 14.6753 18.9213 14.8244 18.5397C15.1581 17.6858 15.5735 16.5077 15.9042 15.205C16.2359 13.8985 16.476 12.4913 16.4737 11.1729C16.4714 9.84859 16.2246 8.67782 15.6458 7.78536C14.725 6.36556 13.9126 5.5456 12.6691 4.83263Z"
    fill="currentColor"
    fill-opacity="0.2"
  />
</svg>
