<svg
  xmlns="http://www.w3.org/2000/svg"
  width="20"
  height="21"
  viewBox="0 0 20 21"
  fill="none"
>
  <path
    d="M11.5273 1.38213C10.2024 0.591294 8.48343 1.01799 7.68795 2.33519L7.1767 3.18175C8.12981 3.20484 9.08703 3.46557 9.95552 3.98395C10.8243 4.50252 11.5059 5.2202 11.9745 6.04602L12.486 5.19905C13.2815 3.88185 12.8523 2.17296 11.5273 1.38213Z"
    fill="currentColor"
  />
  <path
    d="M9.96175 3.99903C7.45396 2.50218 4.20633 3.15363 2.45417 5.47135C1.65381 6.53006 1.93905 8.05964 3.09112 8.74729L8.97593 12.2598C10.128 12.9475 11.6201 12.4787 12.1838 11.2788C13.4178 8.65181 12.4695 5.49589 9.96175 3.99903Z"
    fill="currentColor"
    fill-opacity="0.2"
  />
  <path
    d="M12.6691 4.83263C12.8893 4.29777 12.9299 3.72255 12.8103 3.18335L12.9797 3.27153C14.7205 4.17751 15.791 5.2092 16.9286 6.9631C17.7251 8.19118 17.9974 9.68717 18 11.1702C18.0026 12.6592 17.7335 14.1999 17.3841 15.5763C17.0337 16.9564 16.5961 18.196 16.2471 19.0892C16.1948 19.2232 16.1443 19.3495 16.0964 19.4675H17.2319C17.6534 19.4675 17.9951 19.8072 17.9951 20.2262C17.9951 20.6452 17.6534 20.9849 17.2319 20.9849H7.81549C7.39402 20.9849 7.05235 20.6452 7.05235 20.2262C7.05235 19.8072 7.39402 19.4675 7.81549 19.4675H14.443C14.5431 19.2365 14.6753 18.9213 14.8244 18.5397C15.1581 17.6858 15.5735 16.5077 15.9042 15.205C16.2359 13.8985 16.476 12.4913 16.4737 11.1729C16.4714 9.84859 16.2246 8.67782 15.6458 7.78536C14.725 6.36556 13.9126 5.5456 12.6691 4.83263Z"
    fill="currentColor"
    fill-opacity="0.2"
  />
</svg>
