<svg
  xmlns="http://www.w3.org/2000/svg"
  width="20"
  height="21"
  viewBox="0 0 20 21"
  fill="none"
>
  <path
    d="M8.47268 1.38213C9.79762 0.591294 11.5166 1.01799 12.312 2.33519L12.8233 3.18175C11.8702 3.20484 10.913 3.46557 10.0445 3.98395C9.1757 4.50252 8.49408 5.2202 8.02552 6.04602L7.51402 5.19905C6.71853 3.88185 7.14774 2.17296 8.47268 1.38213Z"
    fill="currentColor"
  />
  <path
    d="M10.0383 3.99903C12.546 2.50218 15.7937 3.15363 17.5458 5.47135C18.3462 6.53006 18.061 8.05964 16.9089 8.74729L11.0241 12.2598C9.872 12.9475 8.37994 12.4787 7.81624 11.2788C6.58219 8.65181 7.53046 5.49589 10.0383 3.99903Z"
    fill="currentColor"
    fill-opacity="0.2"
  />
  <path
    d="M7.33085 4.83263C7.11071 4.29777 7.07005 3.72255 7.1897 3.18335L7.02027 3.27153C5.27952 4.17751 4.20896 5.2092 3.07143 6.9631C2.27493 8.19118 2.00262 9.68717 2.00002 11.1702C1.9974 12.6592 2.26647 14.1999 2.61589 15.5763C2.96626 16.9564 3.40386 18.196 3.7529 19.0892C3.80524 19.2232 3.85566 19.3495 3.90357 19.4675H2.76808C2.3466 19.4675 2.00493 19.8072 2.00493 20.2262C2.00493 20.6452 2.3466 20.9849 2.76808 20.9849H12.1845C12.606 20.9849 12.9477 20.6452 12.9477 20.2262C12.9477 19.8072 12.606 19.4675 12.1845 19.4675H5.55698C5.45687 19.2365 5.32469 18.9213 5.17559 18.5397C4.84189 17.6858 4.42649 16.5077 4.09577 15.205C3.7641 13.8985 3.52399 12.4913 3.5263 11.1729C3.52863 9.84859 3.77536 8.67782 4.35418 7.78536C5.27503 6.36556 6.08741 5.5456 7.33085 4.83263Z"
    fill="currentColor"
    fill-opacity="0.2"
  />
</svg>
