<svg
  xmlns="http://www.w3.org/2000/svg"
  width="20"
  height="20"
  viewBox="0 0 20 20"
  fill="none"
>
  <path
    d="M0 16.6285C0 15.8711 0.639593 15.2571 1.42857 15.2571H18.5714C19.3604 15.2571 20 15.8711 20 16.6285C20 17.3859 19.3604 17.9999 18.5714 17.9999H1.42857C0.639594 17.9999 0 17.3859 0 16.6285Z"
    fill="currentColor"
    fill-opacity="0.2"
  />
  <path
    d="M11.9619 2H8.03818C6.73968 1.99998 5.6862 1.99997 4.85605 2.10711C3.99158 2.21869 3.25279 2.45872 2.66425 3.02371C2.07531 3.58909 1.82474 4.29947 1.70833 5.13069C1.59665 5.92818 1.59666 6.93997 1.59668 8.18604V13.27C1.59668 13.69 1.95054 14.0257 2.38097 14.0257C2.8114 14.0257 3.16525 13.69 3.16525 13.27V8.24143C3.16525 6.92695 3.16693 6.01747 3.26281 5.33285C3.3556 4.67031 3.52342 4.33247 3.77136 4.09445C4.0197 3.85605 4.37279 3.69442 5.06433 3.60516C5.77818 3.51302 6.72625 3.51143 8.09525 3.51143H11.9048C13.2738 3.51143 14.2219 3.51302 14.9357 3.60516C15.6272 3.69442 15.9803 3.85605 16.2287 4.09445C16.4766 4.33247 16.6444 4.67031 16.7372 5.33285C16.8331 6.01747 16.8348 6.92695 16.8348 8.24143V13.27C16.8348 13.69 17.1886 14.0257 17.6191 14.0257C18.0495 14.0257 18.4033 13.69 18.4033 13.27V8.18599C18.4034 6.93994 18.4034 5.92817 18.2917 5.13069C18.1753 4.29947 17.9247 3.58909 17.3358 3.02371C16.7472 2.45872 16.0084 2.21869 15.144 2.10711C14.3138 1.99997 13.2603 1.99998 11.9619 2Z"
    fill="currentColor"
  />
</svg>
