<svg width="20" height="20" viewBox="0 0 20 20" fill="currentcolor" xmlns="http://www.w3.org/2000/svg">
  <path d="M10 1C9.72112 1 9.47769 1.06932 9.24753 1.16311C9.03745 1.24872 8.80061 1.37139 8.53947 1.50665L2.80429 4.47667C2.35474 4.70941 1.94839 4.91978 1.66061 5.12672C1.36301 5.34072 1.0015 5.68467 1 6.22729C0.998511 6.76992 1.35813 7.11579 1.65454 7.33137C1.94118 7.53984 2.34637 7.75238 2.79463 7.98751L8.52916 10.9963C8.79101 11.1338 9.02849 11.2582 9.23938 11.3453C9.47178 11.4412 9.71783 11.5121 10 11.5121C10.2822 11.5121 10.5282 11.4412 10.7606 11.3453C10.9728 11.2577 11.2119 11.1322 11.4756 10.9938L17.2054 7.98751C17.6536 7.75238 18.0588 7.53984 18.3455 7.33137C18.6419 7.11579 19.0015 6.76992 19 6.22729C18.9985 5.68466 18.637 5.34072 18.3394 5.12672C18.0516 4.91979 17.6453 4.70941 17.1957 4.47668L11.4605 1.50666C11.1994 1.3714 10.9625 1.24872 10.7525 1.16311C10.5223 1.06932 10.2789 1 10 1Z" fill="currentcolor" fill-opacity="0.2" />
  <path d="M2.14772 9.65418C1.77012 9.45424 1.29866 9.5929 1.09475 9.96573C0.890475 10.3392 1.03308 10.8043 1.41131 11.0046L8.49508 14.7554C8.75679 14.894 8.99789 15.0217 9.2128 15.1112C9.44994 15.2099 9.70533 15.2847 9.99992 15.2847C10.2945 15.2847 10.5499 15.2099 10.787 15.1112C11.002 15.0217 11.2431 14.894 11.5048 14.7554L18.5886 11.0046C18.9668 10.8043 19.1094 10.3392 18.9051 9.96573C18.7012 9.5929 18.2298 9.45424 17.8522 9.65418L10.7955 13.3907C10.4981 13.5481 10.3213 13.6408 10.1815 13.6991C10.0564 13.7511 10.0147 13.7517 9.99992 13.7517C9.98511 13.7517 9.9434 13.7511 9.81838 13.6991C9.67851 13.6408 9.50178 13.5481 9.20435 13.3907L2.14772 9.65418Z" fill="currentcolor" />
  <path d="M2.14772 13.3694C1.77012 13.1694 1.29866 13.3081 1.09475 13.6809C0.890475 14.0544 1.03308 14.5195 1.41131 14.7197L8.49505 18.4706C8.75677 18.6092 8.99788 18.7369 9.2128 18.8264C9.44994 18.9251 9.70533 18.9999 9.99992 18.9999C10.2945 18.9999 10.5499 18.9251 10.787 18.8264C11.0019 18.7369 11.243 18.6092 11.5047 18.4706L18.5886 14.7197C18.9668 14.5195 19.1094 14.0544 18.9051 13.6809C18.7012 13.3081 18.2298 13.1694 17.8522 13.3694L10.7955 17.1058C10.4981 17.2633 10.3213 17.356 10.1815 17.4143C10.0564 17.4663 10.0147 17.4669 9.99992 17.4669C9.98511 17.4669 9.9434 17.4663 9.81838 17.4143C9.67851 17.356 9.50178 17.2633 9.20435 17.1058L2.14772 13.3694Z" fill="currentcolor" />
</svg>
