<svg
  xmlns="http://www.w3.org/2000/svg"
  width="20"
  height="20"
  viewBox="0 0 20 20"
  fill="none"
>
  <path
    d="M10 4.64819C9.72112 4.64819 9.47769 4.71798 9.24753 4.8124C9.03745 4.89859 8.80061 5.02209 8.53947 5.15826L2.80429 8.1483C2.35474 8.3826 1.94839 8.5944 1.66061 8.80273C1.36301 9.01817 1.0015 9.36443 1 9.91072C0.998511 10.457 1.35813 10.8052 1.65454 11.0222C1.94117 11.2321 2.34636 11.4461 2.79462 11.6828L8.52916 14.7119C8.79101 14.8503 9.02849 14.9756 9.23938 15.0632C9.47178 15.1598 9.71783 15.2312 10 15.2312C10.2822 15.2312 10.5282 15.1598 10.7606 15.0632C10.9728 14.975 11.2119 14.8487 11.4756 14.7094L17.2054 11.6828C17.6536 11.4461 18.0588 11.2321 18.3455 11.0222C18.6419 10.8052 19.0015 10.457 19 9.91072C18.9985 9.36443 18.637 9.01816 18.3394 8.80273C18.0516 8.5944 17.6453 8.38261 17.1957 8.1483L11.4605 5.15826C11.1994 5.02209 10.9625 4.89859 10.7525 4.8124C10.5223 4.71798 10.2789 4.64819 10 4.64819Z"
    fill="currentColor"
    fill-opacity="0.2"
  />
  <path
    d="M2.14801 13.3326C1.77011 13.1311 1.29854 13.271 1.09477 13.6461C0.890783 14.0216 1.03298 14.4894 1.41125 14.691L8.49501 18.4671C8.75671 18.6067 8.99784 18.7352 9.21276 18.8253C9.44992 18.9247 9.70536 19 10 19C10.2947 19 10.5502 18.9247 10.7873 18.8253C11.0022 18.7352 11.2434 18.6067 11.5051 18.4671L18.5889 14.691C18.9671 14.4894 19.1093 14.0216 18.9053 13.6461C18.7016 13.271 18.23 13.1311 17.8521 13.3326L10.7954 17.0942C10.498 17.2527 10.3213 17.3461 10.1814 17.4047C10.0564 17.4571 10.0148 17.4577 10 17.4577C9.98531 17.4577 9.94365 17.4571 9.81865 17.4047C9.67878 17.3461 9.50206 17.2527 9.20464 17.0942L2.14801 13.3326Z"
    fill="currentColor"
  />
  <path
    d="M16.3285 1C15.8995 1 15.5506 1.34466 15.5506 1.77119V2.87118L14.4394 2.87118C14.0104 2.87118 13.6615 3.21584 13.6615 3.64237C13.6615 4.06891 14.0104 4.41356 14.4394 4.41356H15.5506V5.51377C15.5506 5.9403 15.8995 6.28496 16.3285 6.28496C16.7575 6.28496 17.1064 5.9403 17.1064 5.51377V4.41356H18.2176C18.6466 4.41356 18.9955 4.06891 18.9955 3.64237C18.9955 3.21584 18.6466 2.87118 18.2176 2.87118L17.1064 2.87118V1.77119C17.1064 1.34466 16.7575 1 16.3285 1Z"
    fill="currentColor"
  />
</svg>
