<svg width="20" height="20" viewBox="0 0 20 20" fill="currentcolor" xmlns="http://www.w3.org/2000/svg">
  <path d="M8 18.9914C8.59245 19 9.2415 19 9.9531 19H10.0469C11.7663 19 13.1206 19 14.1937 18.879C15.2916 18.7553 16.1877 18.4969 16.946 17.9151C17.31 17.6358 17.6358 17.31 17.9151 16.946C18.4969 16.1877 18.7553 15.2916 18.879 14.1937C19 13.1206 19 11.7663 19 10.0469V9.9531C19 9.2415 19 8.59245 18.9914 8H8V18.9914Z" fill="currentcolor" fill-opacity="0.2" />
  <path d="M18.9391 6.5C18.9234 6.25657 18.9038 6.02559 18.879 5.80634C18.7553 4.70838 18.4969 3.81227 17.9151 3.054C17.6358 2.69001 17.31 2.3642 16.946 2.0849C16.1877 1.50306 15.2916 1.24474 14.1937 1.12096C13.1206 0.999983 11.7663 0.999991 10.0469 1H9.95311C9.24151 0.999996 8.59246 0.999993 8 1.00857V6.5H18.9391Z" fill="currentcolor" fill-opacity="0.2" />
  <path d="M6.5 1.06104C6.25657 1.07668 6.02558 1.09635 5.80634 1.12107C4.70838 1.24485 3.81227 1.50317 3.054 2.085C2.69001 2.3643 2.3642 2.69012 2.0849 3.05411C1.50306 3.81237 1.24474 4.70848 1.12096 5.80644C0.999984 6.87955 0.999991 8.23376 1 9.9532V10.047C0.999991 11.7664 0.999984 13.1207 1.12096 14.1938C1.24474 15.2917 1.50306 16.1878 2.0849 16.9461C2.3642 17.3101 2.69001 17.6359 3.054 17.9152C3.81227 18.497 4.70838 18.7554 5.80634 18.8791C6.02559 18.9039 6.25657 18.9235 6.5 18.9392V1.06104Z" fill="currentcolor" />
</svg>
