<svg width="20" height="20" viewBox="0 0 20 20" fill="currentcolor" xmlns="http://www.w3.org/2000/svg">
  <path d="M1.00857 8C0.999993 8.59245 0.999996 9.2415 1 9.95309V10.0469C0.999991 11.7663 0.999983 13.1206 1.12096 14.1937C1.24474 15.2916 1.50306 16.1877 2.0849 16.946C2.3642 17.31 2.69001 17.6358 3.054 17.9151C3.81227 18.4969 4.70838 18.7553 5.80634 18.879C6.02557 18.9038 6.25654 18.9234 6.49996 18.9391L6.49996 8L1.00857 8Z" fill="currentcolor" fill-opacity="0.2" />
  <path d="M7.99996 18.9914C8.59242 19 9.24148 19 9.9531 19H10.0469C11.7663 19 13.1206 19 14.1937 18.879C15.2916 18.7553 16.1877 18.4969 16.946 17.9151C17.31 17.6358 17.6358 17.31 17.9151 16.946C18.4969 16.1877 18.7553 15.2916 18.879 14.1937C19 13.1206 19 11.7663 19 10.0469V9.9531C19 9.2415 19 8.59245 18.9914 8L7.99996 8L7.99996 18.9914Z" fill="currentcolor" fill-opacity="0.2" />
  <path d="M9.9531 1H10.0469C11.7663 0.999991 13.1205 0.999984 14.1936 1.12096C15.2916 1.24474 16.1877 1.50306 16.946 2.0849C17.31 2.3642 17.6358 2.69001 17.9151 3.054C18.4969 3.81227 18.7552 4.70838 18.879 5.80634C18.9037 6.02559 18.9234 6.25657 18.9391 6.5L1.06091 6.5C1.07656 6.25657 1.09623 6.02559 1.12094 5.80634C1.24472 4.70838 1.50304 3.81227 2.08488 3.054C2.36418 2.69001 2.68999 2.3642 3.05399 2.0849C3.81225 1.50306 4.70836 1.24474 5.80632 1.12096C6.87943 0.999984 8.23367 0.999991 9.9531 1Z" fill="currentcolor" />
</svg>
