<svg width="20" height="20" viewBox="0 0 20 20" fill="currentcolor" xmlns="http://www.w3.org/2000/svg">
  <path fill-rule="evenodd" d="M16.364 16.364C19.8787 12.8492 19.8787 7.15076 16.364 3.63604C12.8492 0.12132 7.15076 0.12132 3.63604 3.63604C0.12132 7.15076 0.12132 12.8492 3.63604 16.364C7.15076 19.8787 12.8492 19.8787 16.364 16.364ZM16.8559 13.0459C16.4923 13.8648 15.9747 14.6319 15.3033 15.3033C14.64 15.9666 13.8835 16.4796 13.0758 16.8425L12.3052 14.4554C13.3187 13.962 14.1446 13.1447 14.6489 12.1376L16.8559 13.0459ZM16.8414 6.92182C16.4786 6.11507 15.9659 5.35931 15.3033 4.6967C14.6369 4.03034 13.8764 3.51558 13.0645 3.15243L12.3234 5.24408C13.3468 5.74738 14.1773 6.58157 14.6759 7.60766L16.8414 6.92182ZM6.94887 3.14647L7.78145 5.25562C6.76649 5.76122 5.9434 6.59311 5.44892 7.61454L3.16063 6.91723C3.52332 6.1122 4.03534 5.35806 4.6967 4.6967C5.36672 4.02668 6.13196 3.50994 6.94887 3.14647ZM3.14628 13.0507C3.50976 13.8678 4.02657 14.6332 4.6967 15.3033C5.36355 15.9702 6.12474 16.4852 6.9373 16.8484L7.80169 14.445C6.79495 13.9491 5.97515 13.1328 5.47475 12.1287L3.14628 13.0507ZM13.6165 9.1195C13.664 9.35339 13.6891 9.59604 13.6891 9.8453C13.6891 10.0946 13.664 10.3372 13.6165 10.5711C13.5916 10.6942 13.5604 10.8149 13.5232 10.9331C13.1694 12.0597 12.2785 12.9506 11.1518 13.3045C10.8094 13.412 10.4442 13.4703 10.0641 13.4703C9.68391 13.4703 9.31876 13.412 8.97631 13.3045C7.84967 12.9506 6.95876 12.0597 6.6049 10.9331C6.49734 10.5906 6.43907 10.2255 6.43908 9.8453C6.43907 9.46513 6.49734 9.09999 6.6049 8.75754C6.95876 7.6309 7.84967 6.73999 8.97631 6.38613C9.31876 6.27857 9.68391 6.2203 10.0641 6.2203C10.4442 6.2203 10.8094 6.27857 11.1518 6.38613C12.2785 6.73999 13.1694 7.6309 13.5232 8.75754C13.5604 8.87567 13.5916 8.99643 13.6165 9.1195Z" fill="currentcolor" />
  <path d="M15.3033 15.3033C15.9748 14.6319 16.4923 13.8648 16.8559 13.0459L14.6489 12.1376C14.1446 13.1447 13.3187 13.962 12.3053 14.4554L13.0759 16.8425C13.8835 16.4796 14.6401 15.9666 15.3033 15.3033Z" fill="currentcolor" fill-opacity="0.2" />
  <path d="M15.3033 4.69672C15.9659 5.35933 16.4787 6.11509 16.8415 6.92184L14.6759 7.60768C14.1773 6.58159 13.3468 5.7474 12.3234 5.2441L13.0645 3.15245C13.8764 3.5156 14.637 4.03036 15.3033 4.69672Z" fill="currentcolor" fill-opacity="0.2" />
  <path d="M7.78147 5.25564L6.94889 3.14648C6.13199 3.50996 5.36674 4.0267 4.69672 4.69672C4.03536 5.35808 3.52334 6.11222 3.16065 6.91725L5.44894 7.61456C5.94342 6.59313 6.76652 5.76124 7.78147 5.25564Z" fill="currentcolor" fill-opacity="0.2" />
  <path d="M4.69672 15.3033C4.02659 14.6332 3.50978 13.8678 3.1463 13.0507L5.47477 12.1287C5.97518 13.1328 6.79498 13.9491 7.80171 14.445L6.93733 16.8484C6.12476 16.4852 5.36358 15.9702 4.69672 15.3033Z" fill="currentcolor" fill-opacity="0.2" />
</svg>
