<svg width="20" height="20" viewBox="0 0 20 20" fill="currentColor" xmlns="http://www.w3.org/2000/svg">
  <path d="M9.24996 4.39993C5.15704 4.39993 1.67247 7.378 1.03446 11.4213C0.769312 13.1016 2.06795 14.6214 3.76893 14.6214L16.2311 14.6214C17.9321 14.6214 19.2307 13.1016 18.9655 11.4213C18.3275 7.378 14.843 4.39993 10.75 4.39993H9.24996Z" fill="currentColor" />
  <path d="M10.7332 3.12675C10.7332 2.7122 10.3972 2.37613 9.98265 2.37613C9.56813 2.37613 9.2321 2.7122 9.2321 3.12675V4.39993C9.23487 4.39993 9.23765 4.39993 9.24043 4.39993H10.7332V3.12675Z" fill="currentColor" />
  <path d="M11.7163 14.6214H13.2256C13.0979 16.3009 11.6948 17.6239 9.98271 17.6239C8.27065 17.6239 6.86756 16.3009 6.73981 14.6214H8.24916C8.37056 15.4702 9.10044 16.1226 9.98271 16.1226C10.865 16.1226 11.5949 15.4702 11.7163 14.6214Z" fill="currentColor" />
</svg>
