<svg width="20" height="20" viewBox="0 0 20 20" fill="currentColor" xmlns="http://www.w3.org/2000/svg">
  <path d="M9.24996 3.02379C5.15704 3.02379 1.67247 6.00186 1.03446 10.0451C0.769312 11.7255 2.06795 13.2453 3.76893 13.2453L16.2311 13.2453C17.9321 13.2453 19.2307 11.7255 18.9655 10.0451C18.3275 6.00186 14.843 3.02379 10.75 3.02379H9.24996Z" fill="currentColor" />
  <path fill-rule="evenodd" d="M6.51998 15.9597C6.81308 16.2529 6.81308 16.7282 6.51998 17.0213L6.01961 17.5217C5.7265 17.8148 5.25128 17.8148 4.95817 17.5217C4.66507 17.2286 4.66507 16.7533 4.95817 16.4602L5.45854 15.9597C5.75165 15.6666 6.22687 15.6666 6.51998 15.9597Z" fill="currentColor" />
  <path fill-rule="evenodd" d="M13.467 15.9597C13.1739 16.2529 13.1739 16.7282 13.467 17.0213L13.9674 17.5217C14.2605 17.8148 14.7357 17.8148 15.0288 17.5217C15.3219 17.2286 15.3219 16.7533 15.0288 16.4602L14.5285 15.9597C14.2353 15.6666 13.7601 15.6666 13.467 15.9597Z" fill="currentColor" />
  <path fill-rule="evenodd" d="M9.99225 16.9984C10.4068 16.9984 10.7428 17.3344 10.7428 17.749V18.2494C10.7428 18.6639 10.4068 19 9.99225 19C9.57773 19 9.2417 18.6639 9.2417 18.2494V17.749C9.2417 17.3344 9.57773 16.9984 9.99225 16.9984Z" fill="currentColor" />
  <path d="M10.7332 1.75062C10.7332 1.33606 10.3972 1 9.98266 1C9.56814 1 9.23211 1.33606 9.23211 1.75062V3.0238C9.23488 3.02379 9.23766 3.02379 9.24044 3.02379H10.7332V1.75062Z" fill="currentColor" />
  <path d="M11.7163 13.2453H13.2256C13.0979 14.9248 11.6948 16.2477 9.98272 16.2477C8.27066 16.2477 6.86757 14.9248 6.73982 13.2453H8.24917C8.37057 14.094 9.10045 14.7465 9.98272 14.7465C10.865 14.7465 11.5949 14.094 11.7163 13.2453Z" fill="currentColor" />
</svg>
