<svg width="20" height="20" viewBox="0 0 20 20" fill="currentcolor" xmlns="http://www.w3.org/2000/svg">
  <path d="M9.99922 2.94592C7.31889 2.94592 5.37821 3.70774 3.99585 4.85293C2.62435 5.98912 1.86221 7.45278 1.43853 8.76557L1.41817 8.82863C1.22814 9.41698 1.04976 9.96925 1.00914 10.4704C0.96153 11.0576 1.09709 11.5819 1.48317 12.1047C1.89489 12.6622 2.42692 12.9318 3.06203 13.0539C3.62528 13.1623 4.32025 13.1622 5.10909 13.1621H14.8906C15.6796 13.1622 16.3747 13.1623 16.938 13.0539C17.5732 12.9317 18.1053 12.662 18.517 12.1044C18.9031 11.5815 19.0386 11.0571 18.9908 10.4697C18.95 9.96853 18.7715 9.4162 18.5812 8.82777L18.5609 8.76472C18.1368 7.45201 17.3743 5.98857 16.0026 4.85258C14.62 3.7076 12.6793 2.94592 9.99922 2.94592Z" fill="currentcolor" fill-opacity="0.2" />
  <path fill-rule="evenodd" d="M13.4124 16.2948C13.1243 16.5798 13.1243 17.0418 13.4124 17.3268L13.9042 17.8133C14.1924 18.0983 14.6595 18.0983 14.9476 17.8133C15.2357 17.5283 15.2357 17.0663 14.9476 16.7813L14.4558 16.2948C14.1676 16.0098 13.7005 16.0098 13.4124 16.2948Z" fill="currentcolor" />
  <path fill-rule="evenodd" d="M6.58605 16.2948C6.87418 16.5798 6.87418 17.0418 6.58605 17.3268L6.0942 17.8133C5.80607 18.0983 5.33893 18.0983 5.05081 17.8133C4.76269 17.5283 4.76269 17.0663 5.05081 16.7813L5.54267 16.2948C5.83079 16.0098 6.29793 16.0098 6.58605 16.2948Z" fill="currentcolor" />
  <path fill-rule="evenodd" d="M9.99921 17.0541C10.4067 17.0541 10.737 17.3808 10.737 17.7838V18.2703C10.737 18.6733 10.4067 19 9.99921 19C9.59175 19 9.26143 18.6733 9.26143 18.2703V17.7838C9.26143 17.3808 9.59175 17.0541 9.99921 17.0541Z" fill="currentcolor" />
  <path d="M10.737 1.72973C10.737 1.32671 10.4067 1 9.99924 1C9.59177 1 9.26145 1.32671 9.26145 1.72973V2.9659C9.50092 2.9527 9.74681 2.94595 9.99925 2.94595C10.2517 2.94595 10.4976 2.9527 10.737 2.9659V1.72973Z" fill="currentcolor" />
  <path d="M12.0913 13.1622H13.6068C13.5463 13.4716 13.4388 13.8591 13.2451 14.2534C13.019 14.7137 12.6671 15.1994 12.1228 15.5688C11.5727 15.9421 10.8706 16.1662 9.99924 16.1662C9.12792 16.1662 8.42576 15.9421 7.8757 15.5688C7.33133 15.1994 6.97952 14.7137 6.75337 14.2534C6.55972 13.8591 6.45215 13.4716 6.3917 13.1622H7.9072C7.94949 13.3087 8.00583 13.4634 8.0806 13.6156C8.22336 13.9062 8.42488 14.1716 8.71051 14.3654C8.99047 14.5554 9.39498 14.7068 9.99924 14.7068C10.6035 14.7068 11.008 14.5554 11.288 14.3654C11.5736 14.1716 11.7751 13.9062 11.9179 13.6156C11.9926 13.4634 12.049 13.3087 12.0913 13.1622Z" fill="currentcolor" />
</svg>
