<svg width="20" height="20" viewBox="0 0 20 20" fill="currentcolor" xmlns="http://www.w3.org/2000/svg">
  <path d="M9.99922 3.96741C7.31889 3.96741 5.37821 4.73763 3.99585 5.89547C2.62435 7.0442 1.86221 8.52402 1.43853 9.8513L1.41817 9.91505C1.22814 10.5099 1.04976 11.0683 1.00914 11.5749C0.96153 12.1687 1.09709 12.6988 1.48317 13.2273C1.89489 13.7909 2.42692 14.0635 3.06203 14.187C3.62528 14.2966 4.32025 14.2965 5.10909 14.2964H14.8906C15.6796 14.2965 16.3747 14.2966 16.938 14.187C17.5732 14.0634 18.1053 13.7908 18.517 13.227C18.9031 12.6983 19.0386 12.1681 18.9908 11.5743C18.95 11.0675 18.7715 10.5091 18.5812 9.91419L18.5609 9.85044C18.1368 8.52324 17.3743 7.04365 16.0026 5.89511C14.62 4.73749 12.6793 3.96741 9.99922 3.96741Z" fill="currentcolor" fill-opacity="0.2" />
  <path d="M10.737 2.73779C10.737 2.33032 10.4067 2 9.99923 2C9.59176 2 9.26144 2.33032 9.26144 2.73779V3.98761C9.50091 3.97426 9.7468 3.96743 9.99924 3.96743C10.2517 3.96743 10.4975 3.97426 10.737 3.9876V2.73779Z" fill="currentcolor" />
  <path d="M12.0913 14.2964H13.6068C13.5463 14.6093 13.4387 15.001 13.2451 15.3997C13.0189 15.8651 12.6671 16.3562 12.1228 16.7297C11.5727 17.1071 10.8705 17.3337 9.99923 17.3337C9.12791 17.3337 8.42575 17.1071 7.87569 16.7297C7.33132 16.3562 6.97951 15.8651 6.75336 15.3997C6.55971 15.001 6.45214 14.6093 6.39169 14.2964H7.90719C7.94947 14.4445 8.00582 14.6009 8.08059 14.7549C8.22335 15.0487 8.42487 15.317 8.7105 15.5129C8.99046 15.705 9.39497 15.8581 9.99923 15.8581C10.6035 15.8581 11.008 15.705 11.288 15.5129C11.5736 15.317 11.7751 15.0487 11.9179 14.7549C11.9926 14.6009 12.049 14.4445 12.0913 14.2964Z" fill="currentcolor" />
</svg>
