<svg width="20" height="20" viewBox="0 0 20 20" fill="currentcolor" xmlns="http://www.w3.org/2000/svg">
  <path d="M9.24996 3.0238C5.15704 3.0238 1.67247 6.00187 1.03446 10.0451C0.769312 11.7255 2.06795 13.2453 3.76893 13.2453L16.2311 13.2453C17.9321 13.2453 19.2307 11.7255 18.9655 10.0451C18.3275 6.00187 14.843 3.0238 10.75 3.0238H9.24996Z" fill="currentcolor" />
  <path fill-rule="evenodd" d="M6.51996 15.9598C6.81307 16.2529 6.81307 16.7282 6.51996 17.0213L6.01959 17.5217C5.72649 17.8148 5.25127 17.8148 4.95816 17.5217C4.66505 17.2286 4.66505 16.7533 4.95816 16.4602L5.45852 15.9598C5.75163 15.6666 6.22685 15.6666 6.51996 15.9598Z" fill="currentcolor" />
  <path fill-rule="evenodd" d="M13.467 15.9598C13.1739 16.2529 13.1739 16.7282 13.467 17.0213L13.9674 17.5217C14.2605 17.8148 14.7357 17.8148 15.0288 17.5217C15.3219 17.2286 15.3219 16.7533 15.0288 16.4602L14.5284 15.9598C14.2353 15.6666 13.7601 15.6666 13.467 15.9598Z" fill="currentcolor" />
  <path fill-rule="evenodd" d="M9.99223 16.9984C10.4067 16.9984 10.7428 17.3344 10.7428 17.749V18.2494C10.7428 18.6639 10.4067 19 9.99223 19C9.57771 19 9.24168 18.6639 9.24168 18.2494V17.749C9.24168 17.3344 9.57771 16.9984 9.99223 16.9984Z" fill="currentcolor" />
  <path d="M10.7332 1.75062C10.7332 1.33606 10.3972 1 9.98264 1C9.56812 1 9.23209 1.33606 9.23209 1.75062V3.0238C9.23487 3.02379 9.23765 3.02379 9.24042 3.02379H10.7332V1.75062Z" fill="currentcolor" />
  <path d="M11.7162 13.2453H13.2256C13.0979 14.9248 11.6948 16.2477 9.9827 16.2477C8.27064 16.2477 6.86755 14.9248 6.7398 13.2453H8.24916C8.37055 14.094 9.10044 14.7465 9.9827 14.7465C10.865 14.7465 11.5949 14.094 11.7162 13.2453Z" fill="currentcolor" />
</svg>
