<svg width="20" height="20" viewBox="0 0 20 20" fill="currentcolor" xmlns="http://www.w3.org/2000/svg">
  <path d="M3.625 16.8762V8.87616C3.625 8.04773 2.95343 7.37616 2.125 7.37616C1.29657 7.37616 0.625 8.04773 0.625 8.87616V16.8762C0.625 17.7046 1.29657 18.3762 2.125 18.3762C2.95343 18.3762 3.625 17.7046 3.625 16.8762Z" fill="currentcolor" />
  <path d="M10.4186 1.70221C9.49665 0.391013 7.0071 0.142763 6.51974 1.70225C6.19483 2.74192 7.0071 3.26173 6.51974 4.8212C6.20777 5.81947 5.4964 6.90016 5.0248 7.54871C4.74049 7.93969 4.57031 8.40411 4.57031 8.88507V15.7409C4.57031 16.3936 4.87694 17.0135 5.37912 17.4392C6.50307 18.3921 7.77118 19.3763 11.3933 19.3763C15.2922 19.3764 18.2163 18.3367 19.191 12.0987C19.6813 8.96129 19.1909 7.42036 17.729 6.90053C16.4584 6.44875 14.5132 7.05533 12.9197 7.63888C11.5511 8.14006 10.6522 7.319 10.8972 5.90095C11.1399 4.49602 11.234 2.86181 10.4186 1.70221Z" fill="currentcolor" fill-opacity="0.2" />
</svg>
