<svg width="20" height="20" viewBox="0 0 20 20" fill="currentcolor" xmlns="http://www.w3.org/2000/svg">
  <path fill-rule="evenodd" d="M13.7485 2.50042C13.3342 2.50042 12.9983 2.16454 12.9983 1.75021C12.9983 1.33588 13.3342 1 13.7485 1H18.2498C18.6641 1 19 1.33588 19 1.75021V6.25149C19 6.66582 18.6641 7.0017 18.2498 7.0017C17.8355 7.0017 17.4996 6.66582 17.4996 6.25149V3.56139L10.778 10.283C10.4851 10.5759 10.0101 10.5759 9.71708 10.283C9.4241 9.98998 9.4241 9.51497 9.71708 9.222L16.4386 2.50042H13.7485Z" fill="currentcolor" />
  <path d="M14.9484 8.2345C15.0039 8.96813 15.0039 9.87069 15.0039 10.9977V12.9983C15.0039 15.8275 15.0039 17.2421 14.125 18.1211C13.2461 19 11.8315 19 9.00225 19H7.00169C4.17247 19 2.75785 19 1.87893 18.1211C1 17.2421 1 15.8275 1 12.9983V10.9977C1 8.1685 1 6.75389 1.87893 5.87496C2.75785 4.99603 4.17247 4.99603 7.00169 4.99603H9.00225C10.1293 4.99603 11.0319 4.99603 11.7655 5.0516L8.65608 8.16104C7.77716 9.03997 7.77716 10.465 8.65608 11.3439C9.53501 12.2229 10.96 12.2229 11.839 11.3439L14.9484 8.2345Z" fill="currentcolor" fill-opacity="0.2" />
</svg>
