<svg
  xmlns="http://www.w3.org/2000/svg"
  width="20"
  height="20"
  viewBox="0 0 20 20"
  fill="none"
>
  <path
    fill-rule="evenodd"
    clip-rule="evenodd"
    d="M13.7485 2.50042C13.3342 2.50042 12.9983 2.16454 12.9983 1.75021C12.9983 1.33588 13.3342 1 13.7485 1H18.2498C18.6641 1 19 1.33588 19 1.75021V6.25149C19 6.66582 18.6641 7.0017 18.2498 7.0017C17.8354 7.0017 17.4996 6.66582 17.4996 6.25149V3.56139L10.778 10.283C10.485 10.5759 10.01 10.5759 9.71705 10.283C9.42407 9.98998 9.42407 9.51497 9.71705 9.222L16.4386 2.50042H13.7485Z"
    fill="currentColor"
  />
  <path
    d="M14.9484 8.23456C15.0039 8.9682 15.0039 9.87075 15.0039 10.9978V12.9984C15.0039 15.8276 15.0039 17.2422 14.125 18.1211C13.2461 19.0001 11.8315 19.0001 9.00225 19.0001H7.00169C4.17247 19.0001 2.75785 19.0001 1.87893 18.1211C1 17.2422 1 15.8276 1 12.9984V10.9978C1 8.16857 1 6.75395 1.87893 5.87502C2.75785 4.99609 4.17247 4.99609 7.00169 4.99609H9.00225C10.1293 4.99609 11.0319 4.99609 11.7655 5.05166L8.65608 8.1611C7.77716 9.04003 7.77716 10.4651 8.65608 11.344C9.53501 12.2229 10.96 12.2229 11.839 11.344L14.9484 8.23456Z"
    fill="currentColor"
    fill-opacity="0.2"
  />
</svg>
