<svg width="20" height="20" viewBox="0 0 20 20" fill="currentcolor" xmlns="http://www.w3.org/2000/svg">
  <path fill-rule="evenodd" d="M16.9905 2.88446C17.0111 2.90502 17.0319 2.92585 17.053 2.94697C17.0741 2.96809 17.095 2.98892 17.1155 3.00947C17.6655 3.55925 18.0155 3.90917 18.2572 4.27094C19.2476 5.75312 19.2476 7.68593 18.2572 9.1681C18.0155 9.52987 17.6655 9.8798 17.1155 10.4296C17.095 10.4501 17.0741 10.471 17.053 10.4921L15.0847 12.4604C14.813 12.7321 14.3724 12.7321 14.1006 12.4604C13.8288 12.1886 13.8288 11.748 14.1006 11.4762L16.0689 9.50793C16.7022 8.87463 16.9446 8.62745 17.1 8.39487C17.7776 7.38075 17.7776 6.0583 17.1 5.04418C16.9446 4.81159 16.7022 4.56442 16.0689 3.93112C15.4356 3.29781 15.1884 3.05541 14.9558 2.9C13.9417 2.22239 12.6193 2.22239 11.6051 2.9C11.3725 3.05541 11.1254 3.29781 10.4921 3.93112L8.52379 5.8994C8.25202 6.17117 7.81141 6.17117 7.53964 5.8994C7.26788 5.62764 7.26788 5.18702 7.53964 4.91526L9.50793 2.94697C9.52905 2.92585 9.54988 2.90502 9.57043 2.88446C10.1202 2.33452 10.4701 1.9845 10.8319 1.74277C12.3141 0.75241 14.2469 0.75241 15.7291 1.74277C16.0908 1.9845 16.4408 2.33452 16.9905 2.88446ZM5.8994 7.53964C6.17117 7.8114 6.17117 8.25202 5.8994 8.52378L3.93112 10.4921C3.29781 11.1254 3.05541 11.3725 2.9 11.6051C2.22239 12.6193 2.22239 13.9417 2.9 14.9558C3.05541 15.1884 3.29781 15.4356 3.93112 16.0689C4.56442 16.7022 4.81159 16.9446 5.04418 17.1C6.0583 17.7776 7.38075 17.7776 8.39487 17.1C8.62745 16.9446 8.87463 16.7022 9.50793 16.0689L11.4762 14.1006C11.748 13.8288 12.1886 13.8288 12.4604 14.1006C12.7321 14.3724 12.7321 14.813 12.4604 15.0847L10.4921 17.053C10.471 17.0741 10.4501 17.095 10.4296 17.1155C9.8798 17.6655 9.52987 18.0155 9.1681 18.2572C7.68593 19.2476 5.75312 19.2476 4.27094 18.2572C3.90917 18.0155 3.55925 17.6655 3.00949 17.1155C2.98893 17.095 2.9681 17.0742 2.94697 17.053C2.92585 17.0319 2.90501 17.0111 2.88445 16.9905C2.33452 16.4407 1.98449 16.0908 1.74277 15.7291C0.75241 14.2469 0.752411 12.3141 1.74277 10.8319C1.9845 10.4701 2.33452 10.1202 2.88446 9.57043C2.90502 9.54988 2.92585 9.52905 2.94697 9.50793L4.91526 7.53964C5.18702 7.26788 5.62764 7.26788 5.8994 7.53964Z" fill="currentcolor" fill-opacity="0.2" />
  <path fill-rule="evenodd" d="M12.4603 7.53962C12.7321 7.81138 12.7321 8.252 12.4603 8.52376L8.52376 12.4603C8.252 12.7321 7.81138 12.7321 7.53962 12.4603C7.26785 12.1886 7.26785 11.748 7.53962 11.4762L11.4762 7.53962C11.748 7.26785 12.1886 7.26785 12.4603 7.53962Z" fill="currentcolor" />
</svg>
