<svg
  xmlns="http://www.w3.org/2000/svg"
  width="20"
  height="20"
  viewBox="0 0 20 20"
  fill="none"
>
  <rect
    x="1.69238"
    y="6.09058"
    width="16.6154"
    height="12.2172"
    rx="4"
    fill="currentColor"
    fill-opacity="0.2"
  />
  <path
    d="M11.9999 12.0001C11.9999 13.1046 11.1045 14.0001 9.99991 14.0001C8.89534 14.0001 7.99991 13.1046 7.99991 12.0001C7.99991 10.8955 8.89534 10.0001 9.99991 10.0001C11.1045 10.0001 11.9999 10.8955 11.9999 12.0001Z"
    fill="currentColor"
  />
  <path
    fill-rule="evenodd"
    clip-rule="evenodd"
    d="M9.99991 2.44238C7.86511 2.44238 6.13452 4.17297 6.13452 6.30777H4.63452C4.63452 3.34455 7.03669 0.942383 9.99991 0.942383C11.1245 0.942383 12.1703 1.2892 13.0334 1.88175C13.3749 2.11618 13.4617 2.58306 13.2273 2.92455C12.9928 3.26603 12.526 3.35281 12.1845 3.11838C11.5633 2.69189 10.8118 2.44238 9.99991 2.44238Z"
    fill="currentColor"
  />
</svg>
