<svg width="20" height="20" viewBox="0 0 20 20" fill="currentcolor" xmlns="http://www.w3.org/2000/svg">
  <rect x="1.69238" y="6.09052" width="16.6154" height="12.2172" rx="4" fill="currentcolor" fill-opacity="0.2" />
  <path fill-rule="evenodd" d="M10 2.44232C7.86524 2.44232 6.13464 4.17291 6.13464 6.30771H4.63464C4.63464 3.34449 7.03681 0.942322 10 0.942322C12.9632 0.942322 15.3654 3.34449 15.3654 6.30771H13.8654C13.8654 4.17291 12.1348 2.44232 10 2.44232Z" fill="currentcolor" />
  <path d="M12 12C12 13.1046 11.1046 14 10 14C8.89546 14 8.00003 13.1046 8.00003 12C8.00003 10.8954 8.89546 10 10 10C11.1046 10 12 10.8954 12 12Z" fill="currentcolor" />
</svg>
