<svg
  xmlns="http://www.w3.org/2000/svg"
  width="20"
  height="20"
  viewBox="0 0 20 20"
  fill="none"
>
  <path
    d="M8.52168 2.57988C8.77222 2.50924 9.10241 2.50206 10.076 2.50206H12.2046C13.6497 2.50206 14.6575 2.50366 15.4179 2.60535C16.1567 2.70413 16.5478 2.88482 16.8265 3.16195C17.1051 3.43909 17.2867 3.82818 17.3861 4.56293C17.4883 5.31929 17.4899 6.32175 17.4899 7.75908V12.2409C17.4899 13.6783 17.4883 14.6807 17.3861 15.4371C17.2867 16.1718 17.1051 16.5609 16.8265 16.838C16.5478 17.1152 16.1567 17.2959 15.4179 17.3947C14.6575 17.4963 13.6497 17.4979 12.2046 17.4979H10.0681C9.10231 17.4979 8.7747 17.4909 8.52601 17.4213C7.83358 17.2277 7.29244 16.6895 7.09778 16.0007C7.02787 15.7534 7.02076 15.4275 7.02076 14.4669C7.02077 14.4656 7.02077 14.4643 7.02077 14.463C7.02077 14.0482 6.68273 13.712 6.26573 13.712C5.84873 13.712 5.51069 14.0482 5.51069 14.463C5.51069 14.4643 5.51069 14.4656 5.5107 14.4669L5.51065 14.5852C5.51034 15.3804 5.51012 15.9334 5.64405 16.4072C5.98115 17.5999 6.91823 18.532 8.11733 18.8673C8.59372 19.0005 9.1497 19.0003 9.94912 19L12.2598 18.9999C13.6366 19 14.7464 19 15.6192 18.8833C16.5253 18.7621 17.2883 18.5028 17.8943 17.9001C18.5002 17.2974 18.7608 16.5385 18.8827 15.6372C19 14.7691 19 13.6653 19 12.2959V7.70413C19 6.33473 19 5.23091 18.8827 4.3628C18.7608 3.46148 18.5002 2.7026 17.8943 2.09988C17.2883 1.49716 16.5253 1.23792 15.6192 1.11674C14.7464 1.00002 13.6366 1.00004 12.2599 1.00006L9.95604 1.00003C9.15022 0.999715 8.58977 0.999497 8.10983 1.13482C6.91681 1.47121 5.98436 2.39867 5.64617 3.58531C5.51011 4.06268 5.51033 4.62013 5.51065 5.42164L5.51068 5.54091C5.52315 5.94482 5.85663 6.26844 6.26573 6.26844C6.67483 6.26844 7.00794 5.94482 7.02041 5.54091L7.02076 5.52031L7.02077 5.51744L7.02077 5.51446C7.0209 4.56656 7.02863 4.24187 7.099 3.99495C7.2943 3.30971 7.83275 2.77414 8.52168 2.57988Z"
    fill="currentColor"
    fill-opacity="0.2"
  />
  <path
    d="M8.54767 7.16284C8.25225 6.86536 7.76989 6.86198 7.47028 7.15529C7.17068 7.44861 7.16727 7.92754 7.46269 8.22501L8.49041 9.25991L1.76184 9.26001C1.34109 9.26002 1 9.59869 1.00001 10.0164C1.00002 10.4342 1.34111 10.7729 1.76186 10.7729L8.45342 10.7728L7.47035 11.735C7.17071 12.0283 7.16726 12.5072 7.46264 12.8047C7.75803 13.1022 8.24039 13.1056 8.54003 12.8124L10.8463 10.555C10.9902 10.4141 11.0718 10.2223 11.0733 10.0217C11.0747 9.82106 10.9958 9.62809 10.8539 9.48522L8.54767 7.16284Z"
    fill="currentColor"
  />
</svg>
