<svg width="20" height="20" viewBox="0 0 20 20" fill="currentcolor" xmlns="http://www.w3.org/2000/svg">
  <path d="M10.6925 0.929932H8.09739C6.62228 0.929916 5.43789 0.929903 4.50731 1.05501C3.54302 1.18466 2.738 1.46109 2.09961 2.09948C1.46121 2.73787 1.18478 3.54288 1.05514 4.50717C0.930025 5.43774 0.930038 6.62212 0.930054 8.09721V11.9026C0.930038 13.3777 0.930025 14.5621 1.05514 15.4927C1.18478 16.457 1.46121 17.262 2.09961 17.9004C2.738 18.5388 3.54302 18.8152 4.50731 18.9448C5.43791 19.07 6.62231 19.0699 8.09746 19.0699H10.6925C12.8978 19.0699 14.6855 17.2822 14.6855 15.077C14.6855 14.656 14.3442 14.3147 13.9232 14.3147C13.5022 14.3147 13.1609 14.656 13.1609 15.077C13.1609 16.4402 12.0558 17.5453 10.6925 17.5453H8.15394C6.60935 17.5453 5.52764 17.5437 4.71047 17.4338C3.91525 17.3269 3.48559 17.1302 3.17768 16.8223C2.86977 16.5144 2.67308 16.0848 2.56616 15.2895C2.4563 14.4724 2.45468 13.3907 2.45468 11.8461V8.15378C2.45468 6.6092 2.4563 5.5275 2.56616 4.71032C2.67308 3.91511 2.86977 3.48545 3.17768 3.17754C3.48559 2.86964 3.91525 2.67295 4.71047 2.56603C5.52764 2.45617 6.60935 2.45455 8.15394 2.45455H10.6925C12.0558 2.45455 13.1609 3.55967 13.1609 4.9229C13.1609 5.34391 13.5022 5.6852 13.9232 5.6852C14.3442 5.6852 14.6855 5.34391 14.6855 4.9229C14.6855 2.71764 12.8978 0.929932 10.6925 0.929932Z" fill="currentcolor" fill-opacity="0.2" />
  <path d="M16.5429 7.14078C16.2473 6.84099 15.7646 6.83759 15.4649 7.13318C15.1651 7.42878 15.1617 7.91143 15.4573 8.21122L16.4856 9.25417L9.7529 9.25427C9.33189 9.25428 8.99059 9.59558 8.9906 10.0166C8.99061 10.4376 9.33191 10.7789 9.75292 10.7789L16.4486 10.7788L15.4649 11.7485C15.1651 12.0441 15.1616 12.5267 15.4572 12.8265C15.7528 13.1264 16.2354 13.1298 16.5353 12.8342L18.8429 10.5593C18.9869 10.4174 19.0686 10.2241 19.0701 10.0219C19.0715 9.81968 18.9926 9.62521 18.8506 9.48124L16.5429 7.14078Z" fill="currentcolor" />
</svg>
