<svg width="20" height="20" viewBox="0 0 20 20" fill="currentcolor" xmlns="http://www.w3.org/2000/svg">
  <path d="M11.4783 2.57988C11.2278 2.50924 10.8976 2.50206 9.92403 2.50206H7.79537C6.35031 2.50206 5.34247 2.50366 4.58204 2.60535C3.84333 2.70413 3.45215 2.88482 3.17352 3.16195C2.8949 3.43909 2.71324 3.82818 2.61392 4.56293C2.51169 5.31929 2.51008 6.32175 2.51008 7.75908V12.2409C2.51008 13.6783 2.51169 14.6807 2.61392 15.4371C2.71324 16.1718 2.8949 16.5609 3.17352 16.838C3.45215 17.1152 3.84333 17.2959 4.58204 17.3947C5.34247 17.4963 6.35031 17.4979 7.79537 17.4979H9.93186C10.8977 17.4979 11.2253 17.4909 11.474 17.4213C12.1664 17.2277 12.7075 16.6895 12.9022 16.0007C12.9721 15.7534 12.9792 15.4275 12.9792 14.4669C12.9792 14.4656 12.9792 14.4643 12.9792 14.463C12.9792 14.0482 13.3173 13.712 13.7343 13.712C14.1513 13.712 14.4893 14.0482 14.4893 14.463C14.4893 14.4643 14.4893 14.4656 14.4893 14.4669L14.4893 14.5852C14.4896 15.3804 14.4899 15.9334 14.3559 16.4072C14.0188 17.5999 13.0817 18.532 11.8827 18.8673C11.4063 19.0005 10.8503 19.0003 10.0509 19L7.74014 18.9999C6.36335 19 5.25362 19 4.38082 18.8833C3.47467 18.7621 2.7117 18.5028 2.10573 17.9001C1.49977 17.2974 1.23914 16.5385 1.11731 15.6372C0.999965 14.7691 0.999981 13.6653 1 12.2959V7.70413C0.999981 6.33473 0.999965 5.23091 1.11731 4.3628C1.23914 3.46148 1.49977 2.7026 2.10573 2.09988C2.7117 1.49716 3.47467 1.23792 4.38082 1.11674C5.25362 1.00002 6.36335 1.00004 7.74013 1.00006L10.0439 1.00003C10.8498 0.999715 11.4102 0.999497 11.8902 1.13482C13.0832 1.47121 14.0156 2.39867 14.3538 3.58531C14.4899 4.06268 14.4896 4.62013 14.4893 5.42164L14.4893 5.54091C14.4768 5.94482 14.1434 6.26844 13.7343 6.26844C13.3252 6.26844 12.992 5.94482 12.9796 5.54091L12.9792 5.52031L12.9792 5.51744L12.9792 5.51446C12.9791 4.56656 12.9714 4.24187 12.901 3.99495C12.7057 3.30971 12.1672 2.77414 11.4783 2.57988Z" fill="currentcolor" />
  <path d="M11.4523 7.16284C11.7478 6.86536 12.2301 6.86198 12.5297 7.15529C12.8293 7.44861 12.8327 7.92754 12.5373 8.22501L11.5096 9.25991L18.2382 9.26001C18.6589 9.26002 19 9.59869 19 10.0164C19 10.4342 18.6589 10.7729 18.2382 10.7729L11.5466 10.7728L12.5297 11.735C12.8293 12.0283 12.8328 12.5072 12.5374 12.8047C12.242 13.1022 11.7596 13.1056 11.46 12.8124L9.15372 10.555C9.00982 10.4141 8.92817 10.2223 8.92673 10.0217C8.9253 9.82106 9.0042 9.62809 9.14607 9.48522L11.4523 7.16284Z" fill="currentcolor" />
</svg>
