<svg
  xmlns="http://www.w3.org/2000/svg"
  width="20"
  height="20"
  viewBox="0 0 20 20"
  fill="none"
>
  <path
    d="M16.4934 7.19707C16.2002 6.8992 15.7215 6.89582 15.4242 7.18952C15.1268 7.48323 15.1235 7.9628 15.4166 8.26067L16.4366 9.29695L9.75877 9.29705C9.34119 9.29706 9.00268 9.63618 9.00269 10.0545C9.00269 10.4728 9.34121 10.8119 9.7588 10.8119L16.3999 10.8118L15.4242 11.7753C15.1269 12.069 15.1234 12.5486 15.4166 12.8465C15.7098 13.1444 16.1885 13.1478 16.4859 12.8541L18.7747 10.5938C18.9176 10.4527 18.9986 10.2606 19 10.0597C19.0014 9.85885 18.9231 9.66562 18.7823 9.52256L16.4934 7.19707Z"
    fill="currentColor"
  />
  <path
    d="M11.4039 2.57988C11.1551 2.50924 10.8273 2.50206 9.86063 2.50206H7.7471C6.3123 2.50206 5.31162 2.50366 4.55659 2.60535C3.82313 2.70413 3.43473 2.88482 3.15808 3.16195C2.88144 3.43909 2.70107 3.82818 2.60246 4.56293C2.50095 5.31929 2.49936 6.32175 2.49936 7.75908V12.2409C2.49936 13.6783 2.50095 14.6807 2.60246 15.4371C2.70107 16.1718 2.88144 16.5609 3.15808 16.838C3.43473 17.1152 3.82313 17.2959 4.55659 17.3947C5.31162 17.4963 6.3123 17.4979 7.7471 17.4979H9.8684C10.8274 17.4979 11.1526 17.4909 11.3996 17.4213C12.0871 17.2277 12.6244 16.6895 12.8176 16.0007C12.8871 15.7534 12.8941 15.4275 12.8941 14.4669C12.8941 14.4656 12.8941 14.4643 12.8941 14.463C12.8941 14.0482 13.2298 13.712 13.6438 13.712C14.0578 13.712 14.3935 14.0482 14.3935 14.463C14.3935 14.4643 14.3935 14.4656 14.3935 14.4669L14.3935 14.5852C14.3938 15.3804 14.394 15.9334 14.261 16.4072C13.9263 17.5999 12.9959 18.532 11.8053 18.8673C11.3323 19.0005 10.7803 19.0003 9.98656 19L7.69225 18.9999C6.32525 19 5.2234 19 4.35681 18.8833C3.45708 18.7621 2.69954 18.5028 2.09788 17.9001C1.49622 17.2974 1.23744 16.5385 1.11647 15.6372C0.999965 14.7691 0.999981 13.6653 1 12.2959V7.70413C0.999981 6.33473 0.999965 5.23091 1.11647 4.3628C1.23744 3.46148 1.49622 2.7026 2.09788 2.09988C2.69954 1.49716 3.45708 1.23792 4.35681 1.11674C5.2234 1.00002 6.32524 1.00004 7.69224 1.00006L9.9797 1.00003C10.7798 0.999715 11.3363 0.999497 11.8128 1.13482C12.9973 1.47121 13.9232 2.39867 14.2589 3.58531C14.394 4.06268 14.3938 4.62013 14.3935 5.42164L14.3935 5.54091C14.3811 5.94482 14.05 6.26844 13.6438 6.26844C13.2376 6.26844 12.9068 5.94482 12.8945 5.54091L12.8941 5.52031L12.8941 5.51744L12.8941 5.51446C12.894 4.56656 12.8863 4.24187 12.8164 3.99495C12.6225 3.30971 12.0879 2.77414 11.4039 2.57988Z"
    fill="currentColor"
    fill-opacity="0.2"
  />
</svg>
