<svg width="20" height="20" viewBox="0 0 20 20" fill="currentcolor" xmlns="http://www.w3.org/2000/svg">
  <path d="M10.6872 1H8.11205C6.64832 0.999984 5.47306 0.999971 4.54966 1.12412C3.59281 1.25276 2.794 1.52706 2.16053 2.16052C1.52706 2.79398 1.25276 3.59278 1.12412 4.54963C0.999971 5.47302 0.999984 6.64825 1 8.11197V11.888C0.999984 13.3517 0.999971 14.527 1.12412 15.4504C1.25276 16.4072 1.52706 17.206 2.16053 17.8395C2.794 18.4729 3.59281 18.7472 4.54966 18.8759C5.47308 19 6.64835 19 8.11211 19H10.6872C12.8754 19 14.6494 17.2261 14.6494 15.0379C14.6494 14.6201 14.3107 14.2814 13.8929 14.2814C13.4752 14.2814 13.1365 14.6201 13.1365 15.0379C13.1365 16.3906 12.0399 17.4872 10.6872 17.4872H8.16816C6.63549 17.4872 5.56213 17.4855 4.75125 17.3765C3.96217 17.2704 3.53582 17.0753 3.23029 16.7697C2.92475 16.4642 2.72958 16.0379 2.62349 15.2488C2.51447 14.4379 2.51286 13.3646 2.51286 11.8319V8.1681C2.51286 6.63543 2.51447 5.56208 2.62349 4.75122C2.72958 3.96214 2.92475 3.5358 3.23029 3.23027C3.53582 2.92473 3.96217 2.72956 4.75125 2.62348C5.56213 2.51446 6.63549 2.51285 8.16816 2.51285H10.6872C12.0399 2.51285 13.1365 3.60944 13.1365 4.96215C13.1365 5.37991 13.4752 5.71857 13.8929 5.71857C14.3107 5.71857 14.6494 5.37991 14.6494 4.96215C14.6494 2.77392 12.8754 1 10.6872 1Z" fill="currentcolor" fill-opacity="0.2" />
  <path d="M11.506 7.16284C11.7993 6.86536 12.2782 6.86198 12.5757 7.15529C12.8732 7.44861 12.8766 7.92754 12.5833 8.22501L11.5628 9.25991L18.2436 9.26001C18.6614 9.26002 19 9.59869 19 10.0164C19 10.4342 18.6613 10.7729 18.2436 10.7729L11.5996 10.7728L12.5756 11.735C12.8732 12.0283 12.8766 12.5072 12.5833 12.8047C12.29 13.1022 11.8111 13.1056 11.5136 12.8124L9.22368 10.555C9.0808 10.4141 8.99973 10.2223 8.99831 10.0217C8.99689 9.82106 9.07522 9.62809 9.21609 9.48522L11.506 7.16284Z" fill="currentcolor" />
</svg>
