<svg
  xmlns="http://www.w3.org/2000/svg"
  width="21"
  height="20"
  viewBox="0 0 21 20"
  fill="none"
>
  <path
    d="M12.1916 2H8.40604C6.89661 1.99999 5.70067 1.99998 4.74966 2.10214C3.77441 2.2069 2.9653 2.42646 2.27177 2.92793C1.87973 3.21141 1.53343 3.5512 1.24453 3.93588C0.733458 4.61638 0.509694 5.41029 0.402925 6.36722C0.29881 7.30036 0.298818 8.47382 0.298828 9.9549V10.0451C0.298818 11.5262 0.29881 12.6996 0.402925 13.6328C0.509694 14.5897 0.733458 15.3836 1.24453 16.0641C1.53343 16.4488 1.87973 16.7886 2.27177 17.0721C2.9653 17.5735 3.77441 17.7931 4.74966 17.8979C5.70067 18 6.89661 18 8.40605 18H12.1916C13.701 18 14.897 18 15.848 17.8979C16.8232 17.7931 17.6324 17.5735 18.3259 17.0721C18.7179 16.7886 19.0642 16.4488 19.3531 16.0641C19.8642 15.3836 20.088 14.5897 20.1947 13.6328C20.2988 12.6996 20.2988 11.5262 20.2988 10.0451V9.95493C20.2988 8.47384 20.2988 7.30037 20.1947 6.36722C20.088 5.41029 19.8642 4.61638 19.3531 3.93588C19.0642 3.5512 18.7179 3.21141 18.3259 2.92793C17.6324 2.42646 16.8232 2.2069 15.848 2.10214C14.897 1.99998 13.701 1.99999 12.1916 2Z"
    fill="currentColor"
    fill-opacity="0.2"
  />
  <path
    fill-rule="evenodd"
    clip-rule="evenodd"
    d="M4.5824 6.92733C4.80001 6.57145 5.27045 6.45605 5.63314 6.66958L6.01049 6.89174C7.17551 7.57762 8.00118 8.06268 8.69306 8.38184C9.36923 8.69375 9.86053 8.81903 10.3448 8.81903C10.829 8.81903 11.3203 8.69375 11.9965 8.38184C12.6884 8.06268 13.5141 7.57762 14.6791 6.89174L15.0564 6.66958C15.4191 6.45605 15.8896 6.57145 16.1072 6.92733C16.3248 7.28321 16.2072 7.7448 15.8445 7.95833L15.4322 8.20106C14.31 8.86175 13.4184 9.38667 12.6482 9.74195C11.8543 10.1082 11.1333 10.322 10.3448 10.322C9.55627 10.322 8.83526 10.1082 8.04138 9.74195C7.2712 9.38667 6.37961 8.86176 5.2574 8.20107L4.84508 7.95833C4.48239 7.7448 4.36478 7.28321 4.5824 6.92733Z"
    fill="currentColor"
  />
</svg>
