<svg
  xmlns="http://www.w3.org/2000/svg"
  width="20"
  height="20"
  viewBox="0 0 20 20"
  fill="none"
>
  <path
    d="M19.6788 5.22129C19.6788 5.22129 19.7907 5.42353 19.8967 6.37783C20 7.30845 20 8.47847 20 9.95509V10.0451C20 11.5217 20 12.6916 19.8967 13.6222C19.7907 14.5765 19.5686 15.3686 19.0613 16.0485C18.7671 16.4427 18.4129 16.7903 18.011 17.0789C17.3181 17.5767 16.5108 17.7946 15.5382 17.8986C14.5898 18 13.3974 18 11.8924 18H11.8923H8.10765H8.1076C6.60264 18 5.41024 18 4.46176 17.8986C3.48916 17.7946 2.68189 17.5767 1.98895 17.0789C1.58715 16.7903 1.23294 16.4427 0.938743 16.0485C0.43139 15.3686 0.209308 14.5765 0.103331 13.6222C-1.7828e-05 12.6916 -9.94697e-06 11.5216 0 10.045V10.045V9.95508V9.95507C-9.94697e-06 8.47842 -1.78367e-05 7.30846 0.103331 6.37783C0.209308 5.42353 0.262759 5.44052 0.262759 5.44052L6.29006 9.49428C7.95847 10.6164 8.79268 11.1775 9.73802 11.1806C10.6834 11.1838 11.5214 10.6283 13.1976 9.51729L19.6788 5.22129Z"
    fill="currentColor"
    fill-opacity="0.2"
  />
  <path
    d="M8.10761 2H11.8923C13.3973 1.99999 14.5897 1.99998 15.5382 2.10139C16.5108 2.20537 17.3181 2.42327 18.011 2.92107C18.4128 3.20973 18.767 3.55726 19.0612 3.95151C19.5686 4.63139 19.6787 5.22133 19.6787 5.22133L13.1975 9.51721C11.5214 10.6282 10.6833 11.1837 9.73796 11.1805C8.79263 11.1774 7.95842 10.6163 6.29 9.49421L6.29 9.4942L0.262695 5.44045C0.262695 5.44045 0.431333 4.63139 0.938686 3.95151C1.23288 3.55726 1.58709 3.20973 1.9889 2.92107C2.68183 2.42327 3.4891 2.20537 4.46171 2.10139C5.41019 1.99998 6.60263 1.99999 8.10761 2H8.10761Z"
    fill="currentColor"
  />
</svg>
