<svg
  xmlns="http://www.w3.org/2000/svg"
  width="20"
  height="20"
  viewBox="0 0 20 20"
  fill="none"
>
  <path
    d="M15.1615 14.0104V5.10212C15.1615 4.25049 15.1615 3.82467 15.3634 3.49713C15.5653 3.1696 15.9217 3.01722 16.6346 2.71246L19.2215 1.6064C19.6201 1.43601 20.0002 1.72767 20.0002 2.20382V15.1873C20.0002 15.4526 19.8633 15.6798 19.643 15.7798L18.3205 16.3806C16.8904 17.0303 16.1753 17.3551 15.6684 16.9748C15.1615 16.5945 15.1615 15.7331 15.1615 14.0104Z"
    fill="currentColor"
  />
  <path
    d="M4.83895 14.0081V4.995C4.83895 3.30588 4.83895 2.46132 4.3419 2.07998C3.84485 1.69864 3.13795 2.00087 1.72416 2.60533L0.368499 3.18494L0.346331 3.19559C0.136306 3.29656 0.000244141 3.52722 0.000244141 3.78235V16.9064C0.000244141 17.3622 0.37338 17.6765 0.755051 17.514L3.36593 16.3977C4.07875 16.093 4.43516 15.9406 4.63705 15.6131C4.83895 15.2855 4.83895 14.8597 4.83895 14.0081Z"
    fill="currentColor"
  />
  <path
    d="M14.0145 14.6697C14.0145 16.1785 14.0145 16.9329 13.5734 17.3171C13.1323 17.7014 12.4763 17.5184 11.1643 17.1525L7.72339 16.1928C6.88892 15.9601 6.47168 15.8437 6.22876 15.4966C5.98584 15.1495 5.98584 14.6697 5.98584 13.7101V4.44015C5.98584 2.93137 5.98584 2.17697 6.42694 1.79275C6.86805 1.40852 7.52406 1.59149 8.8361 1.95743L12.277 2.9171C13.1114 3.14984 13.5287 3.26621 13.7716 3.61331C14.0145 3.96041 14.0145 4.44022 14.0145 5.39983V14.6697Z"
    fill="currentColor"
    fill-opacity="0.2"
  />
</svg>
