<svg width="20" height="20" viewBox="0 0 20 20" fill="currentColor" xmlns="http://www.w3.org/2000/svg">
  <path fill-rule="evenodd" d="M1.99522 14.6277C1.45815 13.9733 1.22199 13.1899 1.1095 12.2382C1.08629 12.0418 1.06801 11.8344 1.05359 11.6154H18.9464C18.9319 11.8344 18.9136 12.0418 18.8904 12.2382C18.7779 13.1899 18.5418 13.9733 18.0047 14.6277C17.8225 14.8497 17.6189 15.0533 17.3969 15.2355C16.7425 15.7725 15.9591 16.0087 15.0074 16.1212C14.0805 16.2308 12.9087 16.2308 11.4297 16.2307H10.6923V17.6154H12.7692C13.1515 17.6154 13.4615 17.9253 13.4615 18.3077C13.4615 18.69 13.1515 19 12.7692 19H7.23072C6.84837 19 6.53841 18.69 6.53841 18.3077C6.53841 17.9253 6.84837 17.6154 7.23072 17.6154H9.30765V16.2307H8.5701C7.09113 16.2308 5.91944 16.2308 4.99249 16.1212C4.04083 16.0087 3.25741 15.7725 2.603 15.2355C2.38099 15.0533 2.17742 14.8497 1.99522 14.6277Z" fill="currentColor" />
  <path d="M11.4298 1H8.57024H8.57022C7.09122 0.999989 5.91951 0.999981 4.99254 1.10955C4.04087 1.22204 3.25746 1.4582 2.60305 1.99526C2.38103 2.17746 2.17746 2.38103 1.99526 2.60305C1.4582 3.25746 1.22204 4.04087 1.10955 4.99254C0.999981 5.91951 0.999989 7.09122 1 8.57022V8.57024V8.66053C0.999989 10.1395 1.05361 11.6154 1.05361 11.6154H18.9464C18.9464 11.6154 19 10.1396 19 8.66066V8.5702C19 7.09125 19 5.91948 18.8904 4.99254C18.778 4.04087 18.5418 3.25746 18.0047 2.60305C17.8225 2.38103 17.619 2.17746 17.397 1.99526C16.7425 1.4582 15.9591 1.22204 15.0075 1.10955C14.0805 0.999981 12.9088 0.999989 11.4298 1H11.4298Z" fill="currentColor" fill-opacity="0.2" />
</svg>
