<svg
  xmlns="http://www.w3.org/2000/svg"
  width="20"
  height="20"
  viewBox="0 0 20 20"
  fill="none"
>
  <path
    fill-rule="evenodd"
    clip-rule="evenodd"
    d="M1.99528 14.6278C1.45821 13.9734 1.22206 13.19 1.10957 12.2383C1.08635 12.0419 1.06807 11.8345 1.05365 11.6155H18.9464C18.932 11.8345 18.9137 12.0419 18.8905 12.2383C18.778 13.19 18.5418 13.9734 18.0048 14.6278C17.8226 14.8498 17.619 15.0534 17.397 15.2356C16.7426 15.7727 15.9591 16.0088 15.0075 16.1213C14.0805 16.2309 12.9088 16.2309 11.4298 16.2309H10.6923V17.6155H12.7692C13.1516 17.6155 13.4616 17.9254 13.4616 18.3078C13.4616 18.6901 13.1516 19.0001 12.7692 19.0001H7.23078C6.84843 19.0001 6.53848 18.6901 6.53848 18.3078C6.53848 17.9254 6.84843 17.6155 7.23078 17.6155H9.30771V16.2309H8.57016C7.09119 16.2309 5.91951 16.2309 4.99255 16.1213C4.04089 16.0088 3.25747 15.7727 2.60306 15.2356C2.38105 15.0534 2.17748 14.8498 1.99528 14.6278Z"
    fill="currentColor"
  />
  <path
    d="M11.4298 1H8.57024H8.57022C7.09122 0.999989 5.91951 0.999981 4.99254 1.10955C4.04087 1.22204 3.25746 1.4582 2.60305 1.99526C2.38103 2.17746 2.17746 2.38103 1.99526 2.60305C1.4582 3.25746 1.22204 4.04087 1.10955 4.99254C0.999981 5.91951 0.999989 7.09122 1 8.57022V8.57024V8.66053C0.999989 10.1395 1.05361 11.6154 1.05361 11.6154H18.9464C18.9464 11.6154 19 10.1396 19 8.66066V8.5702C19 7.09125 19 5.91948 18.8904 4.99254C18.778 4.04087 18.5418 3.25746 18.0047 2.60305C17.8225 2.38103 17.619 2.17746 17.397 1.99526C16.7425 1.4582 15.9591 1.22204 15.0075 1.10955C14.0805 0.999981 12.9088 0.999989 11.4298 1H11.4298Z"
    fill="currentColor"
    fill-opacity="0.2"
  />
</svg>
