<svg
  xmlns="http://www.w3.org/2000/svg"
  width="20"
  height="20"
  viewBox="0 0 20 20"
  fill="none"
>
  <path
    fill-rule="evenodd"
    clip-rule="evenodd"
    d="M16.8732 2.22079C17.1652 1.9264 17.6386 1.9264 17.9305 2.22079L19.781 4.08649C20.073 4.38087 20.073 4.85817 19.781 5.15255L17.9305 7.01825C17.6386 7.31264 17.1652 7.31264 16.8732 7.01825C16.5812 6.72387 16.5812 6.24658 16.8732 5.95219L17.4473 5.37334H0.747664C0.33474 5.37334 0 5.03584 0 4.61952C0 4.2032 0.33474 3.8657 0.747664 3.8657H17.4473L16.8732 3.28685C16.5812 2.99246 16.5812 2.51517 16.8732 2.22079Z"
    fill="currentColor"
  />
  <path
    d="M19.969 13.6341C19.969 16.0453 18.0303 18 15.6388 18C13.2473 18 11.3086 16.0453 11.3086 13.6341C11.3086 11.2229 13.2473 9.26825 15.6388 9.26825C18.0303 9.26825 19.969 11.2229 19.969 13.6341Z"
    fill="currentColor"
    fill-opacity="0.2"
  />
  <path
    d="M11.7971 9.86481C11.1554 9.48562 10.4082 9.26825 9.61069 9.26825C7.21918 9.26825 5.28047 11.2229 5.28047 13.6341C5.28047 16.0453 7.21918 18 9.61069 18C10.4082 18 11.1554 17.7826 11.7971 17.4034C10.8496 16.4338 10.2649 15.1028 10.2649 13.6341C10.2649 12.1654 10.8496 10.8344 11.7971 9.86481Z"
    fill="currentColor"
    fill-opacity="0.2"
  />
  <path
    d="M6.1014 9.63499C5.56892 9.39915 4.98036 9.26825 4.36147 9.26825C1.96995 9.26825 0.03125 11.2229 0.03125 13.6341C0.03125 16.0453 1.96995 18 4.36147 18C4.98036 18 5.56892 17.8691 6.1014 17.6332C5.01428 16.6499 4.33038 15.2225 4.33038 13.6341C4.33038 12.0457 5.01428 10.6183 6.1014 9.63499Z"
    fill="currentColor"
    fill-opacity="0.2"
  />
</svg>
