<svg
  xmlns="http://www.w3.org/2000/svg"
  width="20"
  height="20"
  viewBox="0 0 20 20"
  fill="none"
>
  <path
    fill-rule="evenodd"
    clip-rule="evenodd"
    d="M0.0065918 2.74937C0.0065918 2.33551 0.342378 2 0.756592 2H6.75659C7.17081 2 7.50659 2.33551 7.50659 2.74937C7.50659 3.16324 7.17081 3.49875 6.75659 3.49875H0.756592C0.342378 3.49875 0.0065918 3.16324 0.0065918 2.74937Z"
    fill="currentColor"
  />
  <path
    fill-rule="evenodd"
    clip-rule="evenodd"
    d="M3.00659 5.74687C3.00659 5.333 3.34238 4.9975 3.75659 4.9975H13.2566C13.6708 4.9975 14.0066 5.333 14.0066 5.74687C14.0066 6.16074 13.6708 6.49624 13.2566 6.49624H3.75659C3.34238 6.49624 3.00659 6.16074 3.00659 5.74687Z"
    fill="currentColor"
  />
  <path
    fill-rule="evenodd"
    clip-rule="evenodd"
    d="M8.00659 2.74937C8.00659 2.33551 8.34238 2 8.75659 2H9.75659C10.1708 2 10.5066 2.33551 10.5066 2.74937C10.5066 3.16324 10.1708 3.49875 9.75659 3.49875H8.75659C8.34238 3.49875 8.00659 3.16324 8.00659 2.74937Z"
    fill="currentColor"
  />
  <path
    fill-rule="evenodd"
    clip-rule="evenodd"
    d="M0.0065918 5.74687C0.0065918 5.333 0.342378 4.9975 0.756592 4.9975H1.75659C2.17081 4.9975 2.50659 5.333 2.50659 5.74687C2.50659 6.16074 2.17081 6.49624 1.75659 6.49624H0.756592C0.342378 6.49624 0.0065918 6.16074 0.0065918 5.74687Z"
    fill="currentColor"
  />
  <path
    d="M20.0001 13.6599C20.0001 16.0569 18.0553 18 15.6563 18C13.2573 18 11.3126 16.0569 11.3126 13.6599C11.3126 11.2629 13.2573 9.31976 15.6563 9.31976C18.0553 9.31976 20.0001 11.2629 20.0001 13.6599Z"
    fill="currentColor"
    fill-opacity="0.2"
  />
  <path
    d="M11.8026 9.91281C11.1589 9.53586 10.4094 9.31976 9.60938 9.31976C7.21039 9.31976 5.26562 11.2629 5.26562 13.6599C5.26562 16.0569 7.21039 18 9.60938 18C10.4094 18 11.1589 17.7839 11.8026 17.407C10.8521 16.4431 10.2656 15.1199 10.2656 13.6599C10.2656 12.1999 10.8521 10.8767 11.8026 9.91281Z"
    fill="currentColor"
    fill-opacity="0.2"
  />
  <path
    d="M6.08912 9.68435C5.55497 9.44989 4.96457 9.31976 4.34375 9.31976C1.94476 9.31976 0 11.2629 0 13.6599C0 16.0569 1.94476 18 4.34375 18C4.96457 18 5.55497 17.8699 6.08912 17.6354C4.9986 16.6579 4.31256 15.2389 4.31256 13.6599C4.31256 12.0808 4.9986 10.6619 6.08912 9.68435Z"
    fill="currentColor"
    fill-opacity="0.2"
  />
</svg>
