<svg
  xmlns="http://www.w3.org/2000/svg"
  width="20"
  height="20"
  viewBox="0 0 20 20"
  fill="none"
>
  <path
    d="M20 10.3438C20 12.7427 18.0552 14.6875 15.6562 14.6875C13.2573 14.6875 11.3125 12.7427 11.3125 10.3438C11.3125 7.94476 13.2573 6 15.6562 6C18.0552 6 20 7.94476 20 10.3438Z"
    fill="currentColor"
  />
  <path
    d="M11.8026 6.59354C11.1589 6.21627 10.4094 6 9.60938 6C7.21039 6 5.26562 7.94476 5.26562 10.3438C5.26562 12.7427 7.21039 14.6875 9.60938 14.6875C10.4094 14.6875 11.1589 14.4712 11.8026 14.094C10.8521 13.1293 10.2656 11.805 10.2656 10.3438C10.2656 8.8825 10.8521 7.55824 11.8026 6.59354Z"
    fill="currentColor"
    fill-opacity="0.2"
  />
  <path
    d="M6.08912 6.36489C5.55497 6.13024 4.96457 6 4.34375 6C1.94476 6 0 7.94476 0 10.3438C0 12.7427 1.94476 14.6875 4.34375 14.6875C4.96457 14.6875 5.55497 14.5573 6.08912 14.3226C4.9986 13.3443 4.31256 11.9241 4.31256 10.3438C4.31256 8.76337 4.9986 7.34323 6.08912 6.36489Z"
    fill="currentColor"
    fill-opacity="0.2"
  />
</svg>
