<svg width="20" height="20" viewBox="0 0 20 20" fill="currentcolor" xmlns="http://www.w3.org/2000/svg">
  <path fill-rule="evenodd" d="M9.87605 1H12.5727C13.8855 0.999981 14.9438 0.999966 15.7761 1.10752C16.6402 1.21918 17.3677 1.45806 17.9456 2.01345C18.5234 2.56885 18.7719 3.26814 18.8881 4.09868C19 4.89863 19 5.91575 19 7.17764V12.8151C19 14.077 19 15.0941 18.8881 15.8941C18.7719 16.7246 18.5234 17.4239 17.9456 17.9793C17.3677 18.5347 16.6402 18.7736 15.7761 18.8852C14.9438 18.9928 13.8855 18.9928 12.5727 18.9928H3.44873L3.44873 7.17763C3.44871 5.91575 3.4487 4.89863 3.56059 4.09868C3.67677 3.26814 3.92531 2.56885 4.50315 2.01345C5.08099 1.45806 5.80855 1.21918 6.67265 1.10752C7.50494 0.999966 8.56317 0.999981 9.87605 1Z" fill="currentcolor" fill-opacity="0.2" />
  <path d="M2.48875 4.25214C2.8261 4.16867 3.23164 4.16698 3.54375 4.18254C3.46878 4.97086 3.46879 5.96413 3.4688 7.18749V18.9903C3.40888 18.986 3.35325 18.9796 3.29989 18.9704C2.11293 18.7661 1.17891 17.5445 1.02264 15.9922C0.999924 15.7666 0.999957 15.5098 1 15.1328L1.00001 6.85406C1.00001 5.75565 1.49202 4.49875 2.48875 4.25214Z" fill="currentcolor" />
  <path fill-rule="evenodd" d="M7.34088 5.01158C7.35027 5.01158 7.35962 5.01159 7.36892 5.01159H9.25133C9.26063 5.01159 9.26998 5.01158 9.27937 5.01158C9.44634 5.01152 9.62688 5.01145 9.77928 5.03114C9.95782 5.05421 10.1859 5.11354 10.3778 5.29803C10.5698 5.48252 10.6315 5.70174 10.6555 5.87334C10.676 6.01982 10.6759 6.19335 10.6759 6.35383C10.6759 6.36285 10.6759 6.37184 10.6759 6.38078V7.45657C10.6759 7.4655 10.6759 7.47449 10.6759 7.48352C10.6759 7.644 10.676 7.81753 10.6555 7.96401C10.6315 8.1356 10.5698 8.35482 10.3778 8.53931C10.1859 8.7238 9.95782 8.78313 9.77928 8.8062C9.62688 8.8259 9.44634 8.82583 9.27937 8.82576C9.26998 8.82576 9.26063 8.82576 9.25133 8.82576H7.36892C7.35962 8.82576 7.35027 8.82576 7.34088 8.82576C7.17391 8.82583 6.99337 8.8259 6.84097 8.8062C6.66244 8.78313 6.43436 8.7238 6.24241 8.53931C6.05047 8.35482 5.98874 8.1356 5.96473 7.96401C5.94425 7.81753 5.94432 7.644 5.94438 7.48352C5.94439 7.47449 5.94439 7.4655 5.94439 7.45657V6.38078C5.94439 6.37184 5.94439 6.36285 5.94438 6.35383C5.94432 6.19334 5.94425 6.01981 5.96473 5.87334C5.98874 5.70174 6.05047 5.48252 6.24241 5.29803C6.43436 5.11354 6.66244 5.05421 6.84097 5.03114C6.99337 5.01145 7.17391 5.01152 7.34088 5.01158Z" fill="currentcolor" />
  <path fill-rule="evenodd" d="M13.1444 5.66491C13.1444 5.28271 13.4667 4.97288 13.8644 4.97288H15.7844C16.182 4.97288 16.5044 5.28271 16.5044 5.66491C16.5044 6.04711 16.182 6.35694 15.7844 6.35694H13.8644C13.4667 6.35694 13.1444 6.04711 13.1444 5.66491Z" fill="currentcolor" />
  <path fill-rule="evenodd" d="M13.1444 8.15096C13.1444 7.76876 13.4667 7.45893 13.8644 7.45893H15.7844C16.182 7.45893 16.5044 7.76876 16.5044 8.15096C16.5044 8.53316 16.182 8.84299 15.7844 8.84299H13.8644C13.4667 8.84299 13.1444 8.53316 13.1444 8.15096Z" fill="currentcolor" />
  <path fill-rule="evenodd" d="M5.94437 11.8418C5.94437 11.4596 6.26673 11.1498 6.66437 11.1498H15.7844C16.182 11.1498 16.5044 11.4596 16.5044 11.8418C16.5044 12.224 16.182 12.5338 15.7844 12.5338H6.66437C6.26673 12.5338 5.94437 12.224 5.94437 11.8418Z" fill="currentcolor" />
  <path fill-rule="evenodd" d="M5.94437 14.6099C5.94437 14.2277 6.26673 13.9179 6.66437 13.9179H15.7844C16.182 13.9179 16.5044 14.2277 16.5044 14.6099C16.5044 14.9921 16.182 15.3019 15.7844 15.3019H6.66437C6.26673 15.3019 5.94437 14.9921 5.94437 14.6099Z" fill="currentcolor" />
</svg>
