<svg
  xmlns="http://www.w3.org/2000/svg"
  width="20"
  height="20"
  viewBox="0 0 20 20"
  fill="none"
>
  <path
    fill-rule="evenodd"
    clip-rule="evenodd"
    d="M9.87605 1H12.5727C13.8855 0.999981 14.9438 0.999966 15.7761 1.10752C16.6402 1.21918 17.3677 1.45806 17.9456 2.01345C18.5234 2.56885 18.7719 3.26814 18.8881 4.09868C19 4.89863 19 5.91575 19 7.17764V12.8151C19 14.077 19 15.0941 18.8881 15.8941C18.7719 16.7246 18.5234 17.4239 17.9456 17.9793C17.3677 18.5347 16.6402 18.7736 15.7761 18.8852C14.9438 18.9928 13.8855 18.9928 12.5727 18.9928H3.44873L3.44873 7.17763C3.44871 5.91575 3.4487 4.89863 3.56059 4.09868C3.67677 3.26814 3.92531 2.56885 4.50315 2.01345C5.08099 1.45806 5.80855 1.21918 6.67265 1.10752C7.50494 0.999966 8.56317 0.999981 9.87605 1Z"
    fill="currentColor"
    fill-opacity="0.2"
  />
  <path
    d="M2.48875 4.25226C2.8261 4.16879 3.23164 4.1671 3.54375 4.18267C3.46878 4.97099 3.46879 5.96425 3.4688 7.18762V18.9905C3.40888 18.9861 3.35325 18.9797 3.29989 18.9706C2.11293 18.7662 1.17891 17.5447 1.02264 15.9923C0.999924 15.7667 0.999957 15.5099 1 15.1329L1.00001 6.85418C1.00001 5.75577 1.49202 4.49887 2.48875 4.25226Z"
    fill="currentColor"
  />
  <path
    fill-rule="evenodd"
    clip-rule="evenodd"
    d="M7.34088 5.0117C7.35027 5.0117 7.35962 5.01171 7.36892 5.01171H9.25133C9.26063 5.01171 9.26998 5.0117 9.27937 5.0117C9.44634 5.01164 9.62688 5.01157 9.77928 5.03126C9.95782 5.05433 10.1859 5.11367 10.3778 5.29816C10.5698 5.48264 10.6315 5.70186 10.6555 5.87346C10.676 6.01994 10.6759 6.19347 10.6759 6.35395C10.6759 6.36298 10.6759 6.37196 10.6759 6.3809V7.45669C10.6759 7.46563 10.6759 7.47461 10.6759 7.48364C10.6759 7.64412 10.676 7.81765 10.6555 7.96413C10.6315 8.13573 10.5698 8.35494 10.3778 8.53943C10.1859 8.72392 9.95782 8.78325 9.77928 8.80632C9.62688 8.82602 9.44634 8.82595 9.27937 8.82589C9.26998 8.82588 9.26063 8.82588 9.25133 8.82588H7.36892C7.35962 8.82588 7.35027 8.82588 7.34088 8.82589C7.17391 8.82595 6.99337 8.82602 6.84097 8.80632C6.66244 8.78325 6.43436 8.72392 6.24241 8.53943C6.05047 8.35494 5.98874 8.13573 5.96473 7.96413C5.94425 7.81765 5.94432 7.64412 5.94438 7.48364C5.94439 7.47461 5.94439 7.46563 5.94439 7.45669V6.3809C5.94439 6.37196 5.94439 6.36297 5.94438 6.35395C5.94432 6.19347 5.94425 6.01994 5.96473 5.87346C5.98874 5.70186 6.05047 5.48264 6.24241 5.29816C6.43436 5.11367 6.66244 5.05433 6.84097 5.03126C6.99337 5.01157 7.17391 5.01164 7.34088 5.0117Z"
    fill="currentColor"
  />
  <path
    fill-rule="evenodd"
    clip-rule="evenodd"
    d="M13.1444 5.66503C13.1444 5.28284 13.4667 4.973 13.8644 4.973H15.7844C16.182 4.973 16.5044 5.28284 16.5044 5.66503C16.5044 6.04723 16.182 6.35706 15.7844 6.35706H13.8644C13.4667 6.35706 13.1444 6.04723 13.1444 5.66503Z"
    fill="currentColor"
  />
  <path
    fill-rule="evenodd"
    clip-rule="evenodd"
    d="M13.1444 8.15108C13.1444 7.76889 13.4667 7.45905 13.8644 7.45905H15.7844C16.182 7.45905 16.5044 7.76889 16.5044 8.15108C16.5044 8.53328 16.182 8.84311 15.7844 8.84311H13.8644C13.4667 8.84311 13.1444 8.53328 13.1444 8.15108Z"
    fill="currentColor"
  />
  <path
    fill-rule="evenodd"
    clip-rule="evenodd"
    d="M5.94437 11.8419C5.94437 11.4597 6.26673 11.1499 6.66437 11.1499H15.7844C16.182 11.1499 16.5044 11.4597 16.5044 11.8419C16.5044 12.2241 16.182 12.5339 15.7844 12.5339H6.66437C6.26673 12.5339 5.94437 12.2241 5.94437 11.8419Z"
    fill="currentColor"
  />
  <path
    fill-rule="evenodd"
    clip-rule="evenodd"
    d="M5.94437 14.61C5.94437 14.2278 6.26673 13.918 6.66437 13.918H15.7844C16.182 13.918 16.5044 14.2278 16.5044 14.61C16.5044 14.9922 16.182 15.3021 15.7844 15.3021H6.66437C6.26673 15.3021 5.94437 14.9922 5.94437 14.61Z"
    fill="currentColor"
  />
</svg>
