<svg width="20" height="20" viewBox="0 0 20 20" fill="currentcolor" xmlns="http://www.w3.org/2000/svg">
  <path d="M13.3064 18.7852C12.8552 19.2452 12.4981 19.6092 12.0332 19.8051C11.5684 20.001 11.0629 20.0006 10.4242 19.9999L9.94835 19.9999C8.26813 19.9999 6.93728 19.9999 5.89572 19.8574C4.8238 19.7108 3.9562 19.4018 3.27198 18.7057C2.58777 18.0095 2.28412 17.1268 2.14001 16.0362C1.99997 14.9765 1.99999 13.6224 2 11.9129L2 8.087C1.99998 6.37747 1.99997 5.02339 2.14001 3.96367C2.28412 2.87305 2.58777 1.99032 3.27198 1.29417C3.95619 0.598024 4.8238 0.289079 5.89572 0.14245C6.93726 -2.52272e-05 8.26808 -1.38994e-05 9.94826 -6.94859e-07L10.0515 -7.03885e-07C11.7317 -1.42022e-05 13.0626 -2.57627e-05 14.1041 0.142449C15.1761 0.289079 16.0437 0.598023 16.7279 1.29417C17.4121 1.99032 17.7157 2.87305 17.8599 3.96367C17.9999 5.02338 17.9999 6.37743 17.9999 8.08694L17.9999 12.292C18.0005 12.9419 18.001 13.4562 17.8085 13.9292C17.6159 14.4021 17.2581 14.7655 16.8061 15.2245L13.3064 18.7852Z" fill="currentcolor" fill-opacity="0.2" />
  <path d="M17.9423 13.4481C17.9139 13.6151 17.8715 13.7744 17.8085 13.9293C17.6159 14.4022 17.2581 14.7656 16.8061 15.2246L13.3064 18.7853C12.8552 19.2453 12.4981 19.6093 12.0332 19.8052C11.8804 19.8697 11.7231 19.9128 11.5581 19.9418L11.5581 17.6082C11.5581 16.8126 11.5581 16.1491 11.6277 15.6225C11.7011 15.0665 11.8627 14.5646 12.2591 14.1613C12.6555 13.758 13.1488 13.5936 13.6952 13.5188C14.2129 13.448 14.8649 13.448 15.6469 13.4481L17.9423 13.4481Z" fill="currentcolor" />
  <path d="M12 8.00006C12.4142 8.00006 12.75 7.66427 12.75 7.25006C12.75 6.83584 12.4142 6.50006 12 6.50006L8 6.50006C7.58579 6.50006 7.25 6.83584 7.25 7.25006C7.25 7.66427 7.58579 8.00006 8 8.00006L12 8.00006Z" fill="currentcolor" />
</svg>
