<svg width="20" height="20" viewBox="0 0 20 20" fill="currentcolor" xmlns="http://www.w3.org/2000/svg">
  <path fill-rule="evenodd" d="M4.23004 6.7695C4.23004 3.58309 6.81334 1 10 1C13.1867 1 15.77 3.58309 15.77 6.7695V8.34862C15.77 8.84786 16.029 9.31137 16.4542 9.57302L17.6871 10.3317C19.6781 11.5568 19.3371 14.5479 17.1215 15.2936L16.2757 15.5782C12.2041 16.9486 7.79585 16.9485 3.72424 15.5782L2.87852 15.2936C0.662899 14.5479 0.321943 11.5568 2.31292 10.3317L3.54579 9.57302C3.97101 9.31137 4.23004 8.84786 4.23004 8.34862V6.7695Z" fill="currentcolor" fill-opacity="0.2" />
  <path fill-rule="evenodd" d="M5.33255 1.25757C5.60355 1.52734 5.60453 1.9657 5.33474 2.23668C4.66391 2.91045 4.15958 3.74828 3.88665 4.68321C3.7795 5.05026 3.39506 5.26096 3.02798 5.15382C2.6609 5.04668 2.45019 4.66227 2.55734 4.29522C2.89661 3.13302 3.5228 2.09396 4.35336 1.25975C4.62315 0.988775 5.06155 0.987797 5.33255 1.25757Z" fill="currentcolor" />
  <path fill-rule="evenodd" d="M14.6639 1.25757C14.3929 1.52734 14.3919 1.9657 14.6617 2.23668C15.3325 2.91045 15.8369 3.74828 16.1098 4.68321C16.2169 5.05026 16.6014 5.26096 16.9684 5.15382C17.3355 5.04668 17.5462 4.66227 17.4391 4.29522C17.0998 3.13302 16.4736 2.09396 15.6431 1.25975C15.3733 0.988775 14.9349 0.987797 14.6639 1.25757Z" fill="currentcolor" />
  <path d="M6.30385 16.2627L6.30568 16.2665C6.44216 16.5556 6.65249 16.9449 6.94754 17.3383C7.52981 18.1147 8.51814 19 9.98276 19C11.4474 19 12.4357 18.1147 13.018 17.3383C13.313 16.9449 13.5234 16.5556 13.6598 16.2665L13.6617 16.2627C13.079 16.3736 12.4925 16.4579 11.9041 16.5156C11.4484 17.1203 10.8229 17.6153 9.98276 17.6153C9.14259 17.6153 8.51714 17.1203 8.06146 16.5156C7.47301 16.4579 6.88653 16.3736 6.30385 16.2627Z" fill="currentcolor" />
</svg>
