<svg
  xmlns="http://www.w3.org/2000/svg"
  width="20"
  height="20"
  viewBox="0 0 20 20"
  fill="none"
>
  <path
    fill-rule="evenodd"
    clip-rule="evenodd"
    d="M4.42197 5.52672C4.42197 2.4744 6.90886 0 9.9766 0C13.0828 0 15.5854 2.53448 15.5304 5.62463L15.4776 8.58893C15.4689 9.07798 15.6741 9.54666 16.0401 9.87326L17.5783 11.2461C19.0518 12.5613 18.7056 14.945 16.918 15.7912C12.5519 17.8581 7.45834 17.8447 3.09504 15.7791C1.32546 14.9414 0.940025 12.5802 2.38584 11.2437L3.86416 9.87716C4.21987 9.54835 4.42197 9.08706 4.42197 8.60396V5.52672Z"
    fill="currentColor"
    fill-opacity="0.2"
  />
  <path
    d="M5.83221 16.7834C5.85655 16.8388 5.88389 16.8989 5.91433 16.9631C6.06672 17.2842 6.30156 17.7168 6.63101 18.1539C7.28116 19.0165 8.38472 20.0001 10.0201 20.0001C11.6555 20.0001 12.759 19.0165 13.4092 18.1539C13.7386 17.7168 13.9735 17.2842 14.1258 16.9631C14.1557 16.9001 14.1826 16.841 14.2066 16.7865C13.5465 16.9632 12.8775 17.0971 12.2038 17.1883C12.1934 17.2025 12.1828 17.2167 12.1721 17.2309C11.6627 17.9067 10.9624 18.4616 10.0201 18.4616C9.07781 18.4616 8.37743 17.9067 7.86805 17.2309C7.85682 17.216 7.84571 17.201 7.83474 17.1861C7.16116 17.0943 6.49222 16.9601 5.83221 16.7834Z"
    fill="currentColor"
  />
</svg>
