<svg
  xmlns="http://www.w3.org/2000/svg"
  width="20"
  height="20"
  viewBox="0 0 20 20"
  fill="none"
>
  <path
    d="M4.42197 5.5267C4.42197 2.47439 6.90886 0 9.9766 0C13.0828 0 15.5854 2.53447 15.5304 5.62461L15.4776 8.5889C15.4689 9.07794 15.6741 9.54662 16.0401 9.87323L17.5783 11.2461C19.0518 12.5613 18.7056 14.945 16.918 15.7912C12.5519 17.858 7.45834 17.8446 3.09504 15.779C1.32546 14.9413 0.940025 12.5802 2.38584 11.2437L3.86416 9.87713C4.21987 9.54832 4.42197 9.08702 4.42197 8.60393V5.5267Z"
    fill="currentColor"
    fill-opacity="0.2"
  />
  <path
    fill-rule="evenodd"
    clip-rule="evenodd"
    d="M5.41668 0.210716C5.7267 0.50284 5.74 0.989709 5.4464 1.29817C4.71639 2.06513 4.17678 3.0097 3.89819 4.05571C3.78882 4.46637 3.36557 4.71105 2.95283 4.60223C2.5401 4.4934 2.29418 4.07228 2.40355 3.66162C2.74986 2.36135 3.41988 1.18988 4.32373 0.240294C4.61733 -0.0681654 5.10666 -0.0814081 5.41668 0.210716Z"
    fill="currentColor"
  />
  <path
    fill-rule="evenodd"
    clip-rule="evenodd"
    d="M14.6231 0.210716C14.3131 0.50284 14.2997 0.989709 14.5933 1.29817C15.3234 2.06513 15.863 3.0097 16.1416 4.05571C16.2509 4.46637 16.6742 4.71105 17.0869 4.60223C17.4997 4.4934 17.7456 4.07228 17.6362 3.66162C17.2899 2.36135 16.6199 1.18988 15.716 0.240294C15.4224 -0.0681654 14.9331 -0.0814081 14.6231 0.210716Z"
    fill="currentColor"
  />
  <path
    d="M5.8314 16.7834C5.85574 16.8387 5.88308 16.8988 5.91352 16.963C6.06591 17.2842 6.30075 17.7167 6.6302 18.1538C7.28035 19.0164 8.38391 20 10.0193 20C11.6547 20 12.7582 19.0164 13.4084 18.1538C13.7378 17.7167 13.9727 17.2842 14.125 16.963C14.1549 16.9 14.1818 16.841 14.2058 16.7865C13.5457 16.9631 12.8767 17.097 12.203 17.1883C12.1926 17.2024 12.182 17.2166 12.1713 17.2308C11.6619 17.9067 10.9616 18.4615 10.0193 18.4615C9.077 18.4615 8.37662 17.9067 7.86724 17.2308C7.85601 17.2159 7.8449 17.201 7.83393 17.1861C7.16036 17.0943 6.49141 16.96 5.8314 16.7834Z"
    fill="currentColor"
  />
</svg>
