<svg
  xmlns="http://www.w3.org/2000/svg"
  width="20"
  height="20"
  viewBox="0 0 20 20"
  fill="none"
>
  <path
    d="M5.2213 2.88324C4.71397 3.69629 4.42197 4.6499 4.42197 5.66967V8.66998C4.42197 9.14099 4.21987 9.59075 3.86416 9.91135L2.38584 11.2437C0.940025 12.5468 1.32546 14.849 3.09504 15.6657C7.1411 17.5332 11.8151 17.6803 15.9547 16.085L5.2213 2.88324Z"
    fill="currentColor"
    fill-opacity="0.2"
  />
  <path
    d="M17.3769 15.412C18.7541 14.4313 18.9155 12.4098 17.5783 11.2461L16.0401 9.90754C15.6741 9.5891 15.4689 9.13214 15.4776 8.65532L15.5304 5.76513C15.5854 2.75224 13.0828 0.281128 9.9766 0.281128C8.53048 0.281128 7.21343 0.817227 6.22512 1.69574L17.3769 15.412Z"
    fill="currentColor"
    fill-opacity="0.2"
  />
  <path
    fill-rule="evenodd"
    clip-rule="evenodd"
    d="M2.02413 0.157922C2.35949 -0.0984662 2.84559 -0.04258 3.10988 0.282747L18.1414 18.7857C18.4057 19.111 18.3481 19.5826 18.0127 19.839C17.6774 20.0954 17.1912 20.0395 16.927 19.7142L1.89546 1.21121C1.63117 0.885884 1.68878 0.41431 2.02413 0.157922Z"
    fill="currentColor"
  />
  <path
    d="M12.2037 17.0396C12.8774 16.9507 13.5464 16.8201 14.2065 16.6479C14.1825 16.701 14.1556 16.7586 14.1257 16.82C13.9734 17.1332 13.7385 17.5549 13.4091 17.9811C12.7589 18.8221 11.6554 19.7811 10.02 19.7811C8.38461 19.7811 7.28106 18.8221 6.63091 17.9811C6.30146 17.5549 6.06661 17.1332 5.91422 16.82C5.88379 16.7575 5.85644 16.6988 5.83211 16.6449C6.49212 16.8171 7.16106 16.948 7.83464 17.0375C7.84561 17.0521 7.85671 17.0666 7.86795 17.0811C8.37733 17.7401 9.07771 18.2811 10.02 18.2811C10.9623 18.2811 11.6626 17.7401 12.172 17.0811C12.1827 17.0673 12.1933 17.0535 12.2037 17.0396Z"
    fill="currentColor"
  />
</svg>
