<svg width="20" height="20" viewBox="0 0 20 20" fill="currentcolor" xmlns="http://www.w3.org/2000/svg">
  <path d="M5.11391 3.6988C4.55397 4.58774 4.23004 5.6402 4.23004 6.7683V8.34709C4.23004 8.84623 3.97101 9.30964 3.54579 9.57124L2.31292 10.3297C0.321943 11.5546 0.662899 14.5451 2.87852 15.2906L3.72424 15.5752C7.79585 16.9452 12.2041 16.9452 16.2757 15.5752L16.7817 15.4049L5.11391 3.6988Z" fill="currentcolor" fill-opacity="0.2" />
  <path d="M5.99217 2.61862L18.0774 14.7436C19.3858 13.5899 19.3435 11.3488 17.6871 10.3297L16.4542 9.57124C16.029 9.30964 15.77 8.84623 15.77 8.34709V6.7683C15.77 3.58256 13.1867 1 10 1C8.44305 1 7.03013 1.61649 5.99217 2.61862Z" fill="currentcolor" fill-opacity="0.2" />
  <path d="M6.32113 16.2632L6.32296 16.2671C6.45944 16.5562 6.66976 16.9454 6.96481 17.3387C7.54708 18.1149 8.53542 19 10 19C11.4647 19 12.453 18.1149 13.0353 17.3387C13.3303 16.9454 13.5406 16.5562 13.6771 16.2671L13.679 16.2632C13.0963 16.3741 12.5098 16.4584 11.9213 16.5162C11.4657 17.1207 10.8402 17.6156 10 17.6156C9.15986 17.6156 8.53442 17.1207 8.07874 16.5162C7.49029 16.4584 6.90381 16.3741 6.32113 16.2632Z" fill="currentcolor" />
  <path fill-rule="evenodd" d="M2.01105 1.56689C2.28193 1.29705 2.72033 1.29783 2.99024 1.56863L18.0492 16.6771C18.3191 16.9479 18.3183 17.3862 18.0474 17.656C17.7765 17.9258 17.3381 17.925 17.0682 17.6542L2.0093 2.5458C1.73938 2.275 1.74017 1.83672 2.01105 1.56689Z" fill="currentcolor" />
</svg>
