<svg
  xmlns="http://www.w3.org/2000/svg"
  width="20"
  height="20"
  viewBox="0 0 20 20"
  fill="none"
>
  <path
    fill-rule="evenodd"
    clip-rule="evenodd"
    d="M4.23004 6.77068C4.23004 3.58362 6.81334 1 10 1C13.1867 1 15.77 3.58362 15.77 6.77068V8.35013C15.77 8.84948 16.029 9.31308 16.4542 9.57478L17.6871 10.3336C19.6781 11.5589 19.3371 14.5507 17.1215 15.2965L16.2757 15.5812C12.2041 16.9518 7.79585 16.9518 3.72424 15.5812L2.87852 15.2965C0.662899 14.5507 0.321943 11.5589 2.31292 10.3336L3.54579 9.57478C3.97101 9.31308 4.23004 8.84948 4.23004 8.35013V6.77068Z"
    fill="currentColor"
    fill-opacity="0.2"
  />
  <path
    d="M6.32104 16.2621L6.32288 16.266C6.45936 16.5551 6.66968 16.9445 6.96473 17.338C7.547 18.1145 8.53533 19 9.99996 19C11.4646 19 12.4529 18.1145 13.0352 17.338C13.3302 16.9445 13.5406 16.5551 13.677 16.266L13.6789 16.2621C13.0962 16.373 12.5097 16.4574 11.9213 16.5151C11.4656 17.1199 10.8401 17.615 9.99996 17.615C9.15978 17.615 8.53434 17.1199 8.07865 16.5151C7.4902 16.4574 6.90373 16.373 6.32104 16.2621Z"
    fill="currentColor"
  />
</svg>
