<svg
  xmlns="http://www.w3.org/2000/svg"
  width="20"
  height="20"
  viewBox="0 0 20 20"
  fill="none"
>
  <path
    fill-rule="evenodd"
    clip-rule="evenodd"
    d="M14.5292 5.4709C13.7447 5.16683 12.8919 5.00004 12 5.00004C8.13402 5.00004 5.00001 8.13409 5.00001 12.0001C5.00001 12.892 5.16679 13.7449 5.47086 14.5293C2.85485 13.5152 1 10.9743 1 8.00008C1 4.13404 4.13401 1 8.00001 1C10.9742 1 13.5151 2.85486 14.5292 5.4709Z"
    fill="currentColor"
  />
  <path
    fill-rule="evenodd"
    clip-rule="evenodd"
    d="M5 12C5 12.2119 5.00941 12.4215 5.02784 12.6286C5.08697 13.2932 5.23897 13.931 5.47079 14.5291C6.48484 17.1451 9.02584 19 12 19C15.866 19 19 15.866 19 12C19 8.13401 15.866 5 12 5C8.13401 5 5 8.13401 5 12ZM12 17.5C15.0376 17.5 17.5 15.0376 17.5 12C17.5 10.0573 16.4928 8.34992 14.9722 7.37143C14.9906 7.57849 15 7.78815 15 8.00001C15 11.866 11.866 15 8 15C7.78815 15 7.5785 14.9906 7.37144 14.9722C8.34993 16.4928 10.0573 17.5 12 17.5ZM12 6.5C12.4609 6.5 12.9086 6.5567 13.3365 6.66351C13.4433 7.09137 13.5 7.53907 13.5 8.00001C13.5 8.14241 13.4946 8.28355 13.484 8.42323L11.5768 6.51604C11.7164 6.50541 11.8576 6.5 12 6.5ZM9.86792 6.92852C9.44095 7.10823 9.04143 7.3403 8.67739 7.61667L12.3833 11.3226C12.6597 10.9586 12.8918 10.559 13.0715 10.1321L9.86792 6.92852ZM11.3227 12.3833L7.61672 8.67732C7.34035 9.04135 7.10828 9.44087 6.92855 9.86783L10.1322 13.0715C10.5591 12.8917 10.9586 12.6597 11.3227 12.3833ZM8.42336 13.484L6.51605 11.5767C6.50542 11.7164 6.5 11.8576 6.5 12C6.5 12.4609 6.5567 12.9086 6.66351 13.3365C7.09137 13.4433 7.53906 13.5 8 13.5C8.14245 13.5 8.28363 13.4946 8.42336 13.484Z"
    fill="currentColor"
    fill-opacity="0.2"
  />
</svg>
