<svg
  xmlns="http://www.w3.org/2000/svg"
  width="20"
  height="20"
  viewBox="0 0 20 20"
  fill="none"
>
  <path
    d="M12.3483 14.1381C11.5237 14.3143 10.6361 14.3773 9.8045 14.3641C8.86164 14.3491 7.96654 14.0994 7.28499 13.7003C6.8511 13.4463 6.41419 13.073 6.17829 12.5938H2.75004C2.43505 12.5938 2.15363 12.397 2.04556 12.1011C1.93749 11.8053 2.0258 11.4734 2.26663 11.2704L3.18599 10.4953C2.80831 10.4564 2.51374 10.1373 2.51374 9.7493C2.51374 8.42574 3.50881 7.51339 4.62109 6.95585C5.76228 6.38381 7.24656 6.05922 8.72722 5.97703C10.2102 5.89472 11.7615 6.05152 13.0442 6.50255C14.3064 6.94634 15.4646 7.73655 15.8523 9.02492C15.9749 9.43201 16.012 9.86704 15.961 10.3234C15.8963 11.095 15.7248 11.9737 14.9635 12.7682C14.447 13.3073 13.7758 13.6448 13.2782 13.8438C13.0224 13.9461 12.7956 14.0183 12.6314 14.0653C12.549 14.0889 12.4816 14.1064 12.4331 14.1183C12.4089 14.1243 12.3893 14.1289 12.375 14.1322L12.3574 14.1361L12.3516 14.1374L12.3495 14.1379L12.3483 14.1381Z"
    fill="currentColor"
    fill-opacity="0.2"
  />
  <path
    fill-rule="evenodd"
    clip-rule="evenodd"
    d="M13.75 0C12.5074 0 11.5 1.00736 11.5 2.25C11.5 2.82579 11.7173 3.35262 12.0731 3.75019C12.3766 4.08929 12.7829 4.33682 13.2449 4.44292C14.3739 4.8005 14.972 5.31375 15.2739 5.81039C15.5784 6.31137 15.6399 6.89125 15.5156 7.48766C15.4673 7.71949 15.4071 7.89899 15.3455 8.03744C15.5671 8.32816 15.7412 8.65613 15.8522 9.02492C15.9124 9.22482 15.952 9.43146 15.9706 9.64406C16.0054 9.61687 16.0405 9.58758 16.0759 9.55603C16.4557 9.21659 16.8029 8.66356 16.9841 7.79359C17.1687 6.90747 17.0975 5.92273 16.5557 5.03129C16.2745 4.56859 15.8822 4.15684 15.3744 3.80685C15.5932 3.5786 15.7644 3.30433 15.872 3H17.25C17.6642 3 18 2.66421 18 2.25C18 1.83579 17.6642 1.5 17.25 1.5H15.872C15.5631 0.626106 14.7297 0 13.75 0ZM13 2.25C13 1.83579 13.3358 1.5 13.75 1.5C14.1642 1.5 14.5 1.83579 14.5 2.25C14.5 2.66421 14.1642 3 13.75 3C13.6956 3 13.6434 2.99433 13.5936 2.98382C13.4365 2.95067 13.2961 2.86751 13.1908 2.74981C13.0716 2.61663 13 2.44257 13 2.25Z"
    fill="currentColor"
  />
  <path
    d="M12.6811 14.0508C12.664 14.0559 12.6473 14.0607 12.6313 14.0653C12.5489 14.0889 12.4815 14.1064 12.433 14.1183C12.4088 14.1243 12.3892 14.1289 12.3749 14.1322L12.3573 14.1361L12.3515 14.1374L12.3494 14.1379L12.3481 14.1381C11.8769 14.2388 11.3849 14.3026 10.8946 14.3362C10.6872 14.8745 10.4984 15.5522 10.5 16.2518C10.5013 16.8318 10.6413 17.6482 10.7653 18.2701C10.781 18.349 10.7967 18.4258 10.8122 18.5001H10.0962C10.062 18.3447 10.0242 18.1665 9.98637 17.9768C9.86092 17.3476 9.75094 16.664 9.75001 16.2484C9.74852 15.5834 10.0226 14.8667 10.2684 14.3634C10.1123 14.3664 9.9574 14.3665 9.80437 14.3641C9.41944 14.358 9.04247 14.3127 8.68473 14.2342C8.45483 14.8065 8.24838 15.5227 8.25001 16.2518C8.25131 16.8318 8.39132 17.6482 8.51532 18.2701C8.57944 18.5917 8.64335 18.8806 8.6912 19.0891C8.71516 19.1935 8.73519 19.2781 8.74931 19.337L8.76585 19.4053L8.77036 19.4237L8.77212 19.4308C8.85517 19.7653 9.15542 20.0001 9.50001 20.0001H13.25C13.6642 20.0001 14 19.6643 14 19.2501C14 18.8359 13.6642 18.5001 13.25 18.5001H12.3462C12.312 18.3447 12.2742 18.1665 12.2364 17.9768C12.1109 17.3476 12.0009 16.664 12 16.2484C11.9989 15.7473 12.1562 15.2017 12.355 14.7243C12.4687 14.451 12.5885 14.2177 12.6811 14.0508Z"
    fill="currentColor"
  />
</svg>
