<svg width="20" height="20" viewBox="0 0 20 20" fill="currentcolor" xmlns="http://www.w3.org/2000/svg">
  <path d="M18.1735 1.6337C17.4314 0.966193 16.2993 0.748319 15.367 1.36111C14.4495 1.96421 12.999 3.07496 11.0547 5.04468C9.3961 6.72499 8.04349 8.55331 7.30884 9.65349C9.59362 9.79653 11.4419 11.3953 12.0569 13.5138C12.9698 12.5426 14.2656 11.0694 15.5867 9.28558C17.2082 7.09638 18.1698 5.52804 18.7111 4.54928C19.2702 3.53837 18.9782 2.35753 18.1735 1.6337Z" fill="currentcolor" />
  <path d="M6.81369 19C5.52448 19 3.89091 18.8589 2.52502 18.7097C2.43533 18.6999 2.39049 18.695 2.38275 18.694C1.80802 18.6182 1.56626 18.0404 1.91579 17.5779C1.9205 17.5717 1.96346 17.5174 2.04939 17.4089C2.54592 16.7815 3.01154 16.0013 3.15528 15.1459C3.31535 14.1934 3.54296 13.1839 4.09065 12.413C4.60855 11.6839 5.44751 11.1204 6.97435 11.1204C9.07196 11.1204 10.7863 12.8622 10.7863 15.0602C10.7863 15.8746 10.4121 16.8705 9.70833 17.6633C9.01266 18.4469 8.0247 19 6.81369 19Z" fill="currentcolor" fill-opacity="0.2" />
</svg>
