<svg width="20" height="20" viewBox="0 0 20 20" fill="currentColor" xmlns="http://www.w3.org/2000/svg">
  <path fill-rule="evenodd" d="M10.0961 1C5.07394 1 1 5.05893 1 10.1308C1 14.3976 3.85475 17.9034 8.77288 18.9437C9.78942 19.1588 10.6801 18.737 11.2112 18.0273C11.7327 17.3304 11.9098 16.3615 11.5935 15.435C11.1044 14.0021 10.8594 13.1123 10.8064 12.508C10.7809 12.2176 10.8041 12.0311 10.8443 11.9021C10.882 11.7814 10.9449 11.6767 11.0573 11.5639C11.3992 11.2207 12.067 11.0308 13.0456 11.044C13.9882 11.0568 15.0509 11.2553 15.9871 11.4919C16.7681 11.6892 17.5717 11.5029 18.1535 11.0522C18.7475 10.5921 19.125 9.83692 18.9619 8.96349C18.0415 4.03437 14.4462 1 10.0961 1Z" fill="currentColor" fill-opacity="0.2" />
  <path fill-rule="evenodd" d="M13.8909 6.51196C14.441 6.51196 14.887 6.06425 14.887 5.51196C14.887 4.95968 14.441 4.51196 13.8909 4.51196C13.3407 4.51196 12.8947 4.95968 12.8947 5.51196C12.8947 6.06425 13.3407 6.51196 13.8909 6.51196Z" fill="currentColor" />
  <path fill-rule="evenodd" d="M10.1592 5.57544C10.7093 5.57544 11.1554 5.12772 11.1554 4.57544C11.1554 4.02315 10.7093 3.57544 10.1592 3.57544C9.60898 3.57544 9.16296 4.02315 9.16296 4.57544C9.16296 5.12772 9.60898 5.57544 10.1592 5.57544Z" fill="currentColor" />
  <path fill-rule="evenodd" d="M6.42747 6.97998C6.97766 6.97998 7.42367 6.53227 7.42367 5.97998C7.42367 5.4277 6.97766 4.97998 6.42747 4.97998C5.87729 4.97998 5.43127 5.4277 5.43127 5.97998C5.43127 6.53227 5.87729 6.97998 6.42747 6.97998Z" fill="currentColor" />
  <path fill-rule="evenodd" d="M4.56163 10.2578C5.11181 10.2578 5.55782 9.8101 5.55782 9.25781C5.55782 8.70553 5.11181 8.25781 4.56163 8.25781C4.01144 8.25781 3.56543 8.70553 3.56543 9.25781C3.56543 9.8101 4.01144 10.2578 4.56163 10.2578Z" fill="currentColor" />
</svg>
