<svg width="20" height="20" viewBox="0 0 20 20" fill="currentColor" xmlns="http://www.w3.org/2000/svg">
  <path fill-rule="evenodd" d="M15.1253 3.18719C13.9516 2.01339 12.0484 2.01339 10.8747 3.18719L4.00814 10.0537C2.29258 11.7693 2.29259 14.5507 4.00814 16.2663C5.72369 17.9818 8.50515 17.9818 10.2207 16.2663L16.4333 10.0537C16.7041 9.78282 17.1433 9.78282 17.4142 10.0537C17.6851 10.3246 17.6851 10.7638 17.4142 11.0346L11.2016 17.2472C8.94432 19.5045 5.28451 19.5045 3.02721 17.2472C0.769902 14.9899 0.769901 11.3301 3.02721 9.07277L9.89372 2.20626C11.6093 0.490705 14.3907 0.490705 16.1063 2.20626C17.8218 3.92181 17.8218 6.70327 16.1063 8.41882L9.23977 15.2853C8.06597 16.4591 6.16286 16.4591 4.98907 15.2853C3.81527 14.1115 3.81527 12.2084 4.98907 11.0346L11.2016 4.82207C11.4725 4.55119 11.9117 4.55119 12.1826 4.82207C12.4534 5.09295 12.4534 5.53212 12.1826 5.803L5.97 12.0156C5.33795 12.6476 5.33795 13.6724 5.97 14.3044C6.60204 14.9364 7.62679 14.9364 8.25884 14.3044L15.1253 7.43789C16.2991 6.26409 16.2991 4.36098 15.1253 3.18719Z" fill="currentColor" fill-opacity="0.2" />
  <path d="M16.1063 2.20625C17.8219 3.9218 17.8219 6.70326 16.1063 8.41881L9.23982 15.2853C8.06602 16.4591 6.16292 16.4591 4.98912 15.2853C3.81532 14.1115 3.81532 12.2084 4.98912 11.0346L11.2017 4.82206C11.4726 4.55119 11.9117 4.55119 12.1826 4.82206C12.4535 5.09294 12.4535 5.53212 12.1826 5.80299L5.97005 12.0156C5.33801 12.6476 5.338 13.6723 5.97005 14.3044C6.6021 14.9364 7.62684 14.9364 8.25889 14.3044L15.1254 7.43788C16.2992 6.26408 16.2992 4.36098 15.1254 3.18718L16.1063 2.20625Z" fill="currentColor" />
</svg>
