<svg
  xmlns="http://www.w3.org/2000/svg"
  width="20"
  height="20"
  viewBox="0 0 20 20"
  fill="none"
>
  <path
    d="M7.08942 3.82597L9.8217 2.90111C14.4074 1.34891 16.7002 0.572813 18.0342 1.52443C18.3042 1.71707 18.5408 1.95144 18.7356 2.21935C19.698 3.5428 18.9301 5.82962 17.3943 10.4033L16.4982 13.0719C15.4267 16.2626 14.891 17.858 14.1148 18.4539C13.1324 19.2081 11.8201 19.321 10.7903 18.7398C9.97658 18.2806 9.32966 16.7836 8.03583 13.7897C7.87483 13.4171 7.79433 13.2308 7.68407 13.0688C7.53593 12.8511 7.34758 12.6643 7.12833 12.5177C6.96516 12.4085 6.7781 12.3293 6.40397 12.1708C3.4861 10.9346 2.02717 10.3165 1.56258 9.5408C0.938027 8.49812 1.04915 7.14534 1.84142 6.14616C2.43078 5.40287 3.98366 4.87724 7.08942 3.82597Z"
    fill="currentColor"
    fill-opacity="0.2"
  />
  <path
    fill-rule="evenodd"
    clip-rule="evenodd"
    d="M8.18685 14.1389C8.14519 14.0425 8.10292 13.9447 8.06002 13.8454C7.86894 13.4033 7.7734 13.1822 7.63452 12.9947C7.51206 12.8294 7.36505 12.6836 7.19854 12.5623C7.00969 12.4248 6.7877 12.3307 6.34372 12.1426C6.242 12.0995 6.1418 12.0571 6.04321 12.0153L11.1356 8.65938C11.4084 8.47957 11.7314 8.80372 11.5506 9.07589L8.18685 14.1389Z"
    fill="currentColor"
  />
</svg>
