<svg width="20" height="20" viewBox="0 0 20 20" fill="currentcolor" xmlns="http://www.w3.org/2000/svg">
  <path fill-rule="evenodd" d="M2.12104 1.99665C1.79634 2.31008 1.69308 2.67453 1.60131 2.99844L1.58348 3.06114C1.29444 4.07018 0.899972 5.86368 1.02317 7.86164C1.14684 9.86722 1.79622 12.1178 3.63449 13.9606C5.41988 15.7505 7.328 16.3758 9.15244 16.1639C10.9423 15.956 12.5431 14.9554 13.7901 13.7053C15.0371 12.4551 16.0352 10.8503 16.2426 9.056C16.454 7.227 15.8302 5.31411 14.0449 3.52426C12.3057 1.78076 10.0696 1.16234 8.06846 1.02939C6.06787 0.896471 4.23573 1.24298 3.20873 1.49688L3.14429 1.51267C2.81558 1.5929 2.44584 1.68315 2.12104 1.99665Z" fill="currentcolor" fill-opacity="0.2" />
  <path fill-rule="evenodd" d="M7.23372 6.19222L2.74995 1.62231C2.5366 1.69583 2.3203 1.80415 2.12093 1.99658C1.9207 2.18985 1.80468 2.40252 1.72363 2.61313L6.23449 7.21064C5.68305 8.21597 5.8266 9.51073 6.66514 10.3654C7.67689 11.3966 9.31725 11.3966 10.329 10.3654C11.3407 9.3342 11.3407 7.66233 10.329 6.63115C9.49045 5.77651 8.22011 5.63019 7.23372 6.19222ZM16.1094 9.802C15.9961 10.2717 15.8306 10.7258 15.6236 11.1612C15.6963 11.2023 15.7805 11.2525 15.8757 11.3132C16.3033 11.586 16.9539 12.0719 17.7838 12.9039C18.062 13.1828 18.5131 13.1828 18.7913 12.9039C19.0695 12.625 19.0695 12.1728 18.7913 11.8939C17.894 10.9944 17.1629 10.4414 16.6406 10.1082C16.4276 9.9723 16.2495 9.87312 16.1094 9.802ZM11.1637 15.5851C10.7267 15.787 10.2712 15.9466 9.80029 16.0531C9.87237 16.2002 9.9783 16.3955 10.1302 16.6348C10.4626 17.1585 11.0142 17.8914 11.9115 18.7909C12.1897 19.0698 12.6407 19.0698 12.9189 18.7909C13.1971 18.512 13.1971 18.0598 12.9189 17.7809C12.0891 16.949 11.6044 16.2967 11.3323 15.868C11.2631 15.7592 11.2077 15.6646 11.1637 15.5851Z" fill="currentcolor" />
</svg>
