<svg
  xmlns="http://www.w3.org/2000/svg"
  width="20"
  height="20"
  viewBox="0 0 20 20"
  fill="none"
>
  <path
    fill-rule="evenodd"
    clip-rule="evenodd"
    d="M2.12104 1.99665C1.79634 2.31008 1.69308 2.67453 1.60131 2.99844L1.58348 3.06114C1.29444 4.07018 0.899972 5.86368 1.02317 7.86164C1.14684 9.86722 1.79622 12.1178 3.63449 13.9606C5.41988 15.7505 7.328 16.3758 9.15244 16.1639C10.9423 15.956 12.5431 14.9554 13.7901 13.7053C15.0371 12.4551 16.0352 10.8503 16.2426 9.056C16.454 7.227 15.8302 5.31411 14.0449 3.52426C12.3057 1.78076 10.0696 1.16234 8.06846 1.02939C6.06787 0.896471 4.23573 1.24298 3.20873 1.49688L3.14429 1.51267C2.81558 1.5929 2.44584 1.68315 2.12104 1.99665Z"
    fill="currentColor"
    fill-opacity="0.2"
  />
  <path
    fill-rule="evenodd"
    clip-rule="evenodd"
    d="M7.23385 6.19222L2.75007 1.62231C2.53672 1.69583 2.32042 1.80415 2.12105 1.99658C1.92082 2.18985 1.8048 2.40252 1.72375 2.61313L6.23461 7.21064C5.68317 8.21597 5.82673 9.51073 6.66527 10.3654C7.67701 11.3966 9.31737 11.3966 10.3291 10.3654C11.3409 9.3342 11.3409 7.66233 10.3291 6.63115C9.49057 5.77651 8.22023 5.63019 7.23385 6.19222ZM16.1096 9.802C15.9962 10.2717 15.8307 10.7258 15.6237 11.1612C15.6965 11.2023 15.7806 11.2525 15.8758 11.3132C16.3034 11.586 16.954 12.0719 17.7839 12.9039C18.0621 13.1828 18.5132 13.1828 18.7914 12.9039C19.0696 12.625 19.0696 12.1728 18.7914 11.8939C17.8941 10.9944 17.1631 10.4414 16.6407 10.1082C16.4277 9.9723 16.2497 9.87312 16.1096 9.802ZM11.1638 15.5851C10.7268 15.787 10.2713 15.9466 9.80042 16.0531C9.87249 16.2002 9.97842 16.3955 10.1304 16.6348C10.4628 17.1585 11.0144 17.8914 11.9116 18.7909C12.1898 19.0698 12.6409 19.0698 12.9191 18.7909C13.1973 18.512 13.1973 18.0598 12.9191 17.7809C12.0892 16.949 11.6045 16.2967 11.3324 15.868C11.2633 15.7592 11.2078 15.6646 11.1638 15.5851Z"
    fill="currentColor"
  />
</svg>
