<svg
  xmlns="http://www.w3.org/2000/svg"
  width="20"
  height="20"
  viewBox="0 0 20 20"
  fill="none"
>
  <path
    d="M6.70253 7.81948L5.39437 7.81948C4.94736 7.81948 4.72385 7.81948 4.52661 7.72937C4.32936 7.63925 4.18172 7.46969 3.88646 7.13057L3.0279 6.1445C2.88028 5.97496 2.80645 5.89016 2.70783 5.84511C2.6092 5.80005 2.49745 5.80005 2.27394 5.80005L2.18967 5.80005C1.54313 5.80005 1.21985 5.80005 1.06979 6.01444C0.919733 6.22883 1.02743 6.53682 1.24282 7.15279L2.12024 9.662C2.17876 9.82935 2.20802 9.91305 2.20802 10C2.20802 10.087 2.17876 10.1707 2.12026 10.338L1.24282 12.8473C1.02743 13.4633 0.919733 13.7713 1.06979 13.9856C1.21986 14.2 1.54312 14.2 2.18967 14.2L2.27395 14.2C2.49745 14.2 2.6092 14.2 2.70783 14.155C2.80645 14.1099 2.88027 14.0251 3.0279 13.8556L3.88646 12.8695C4.18173 12.5304 4.32936 12.3608 4.52661 12.2707C4.72385 12.1806 4.94736 12.1806 5.39437 12.1806L6.70253 12.1806C6.99463 12.1806 7.21065 12.1806 7.37188 12.2065L12.604 12.2065C12.7153 12.1806 12.8375 12.1806 13.082 12.1806L15.2578 12.1806C16.4404 12.1806 17.5878 11.7739 18.5113 11.0274C19.1629 10.5007 19.1629 9.49938 18.5113 8.97269C17.5878 8.22618 16.4404 7.81948 15.2578 7.81948L13.082 7.81948C12.8375 7.81948 12.7153 7.81948 12.604 7.79356L7.37187 7.79359C7.21064 7.81951 6.99463 7.81948 6.70253 7.81948Z"
    fill="currentColor"
    fill-opacity="0.2"
  />
  <path
    d="M9.06408 18.132L11.8254 12.9396C11.9411 12.722 11.999 12.6133 12.0743 12.5265C12.2132 12.3663 12.3985 12.2543 12.604 12.2065L7.37183 12.2065C7.52013 12.2303 7.62208 12.2761 7.69423 12.364C7.84481 12.5474 7.79301 12.8258 7.6894 13.3827L6.82595 18.0237C6.76203 18.3673 6.73007 18.5391 6.78011 18.6725C6.81965 18.7778 6.89277 18.8669 6.98795 18.9256C7.10844 19 7.28144 19 7.6274 19C7.99085 19 8.1726 19 8.33353 18.9431C8.46196 18.8977 8.57993 18.8265 8.68028 18.7336C8.80601 18.6173 8.89204 18.4555 9.06408 18.132Z"
    fill="currentColor"
  />
  <path
    d="M9.06408 1.86793L11.8255 7.06036C11.9411 7.27791 11.999 7.38669 12.0743 7.4735C12.2132 7.63369 12.3985 7.74564 12.604 7.79349L7.37183 7.79349C7.52013 7.76964 7.62208 7.72386 7.69423 7.63598C7.84481 7.45255 7.79301 7.17411 7.6894 6.61724L6.82595 1.97624C6.76203 1.63268 6.73007 1.46089 6.78012 1.3275C6.81965 1.22213 6.89277 1.13306 6.98795 1.07434C7.10844 1 7.28144 1 7.6274 1C7.99085 1 8.1726 1 8.33353 1.05684C8.46196 1.10221 8.57993 1.17348 8.68028 1.26632C8.80601 1.38265 8.89204 1.54442 9.06408 1.86793Z"
    fill="currentColor"
  />
</svg>
