<svg
  xmlns="http://www.w3.org/2000/svg"
  width="20"
  height="20"
  viewBox="0 0 20 20"
  fill="none"
>
  <path
    d="M6.75944 7.54953C5.96933 7.44171 4.98272 7.20254 4.41278 6.67228C3.88321 6.17959 3.50935 5.24576 3.31006 4.64246C3.21379 4.35101 3.16565 4.20529 3.07478 4.11874C2.98392 4.03218 2.8484 3.99542 2.57736 3.92189L2.2473 3.83235C1.71796 3.68874 1.45329 3.61694 1.26009 3.7647C1.06689 3.91245 1.06289 4.17991 1.05489 4.71482C1.03933 5.7545 1.0967 7.25715 1.47759 8.30819C1.9283 9.55188 2.36943 9.9604 3.40036 10.7762C4.47167 11.624 6.52774 12.1198 6.75099 12.1718L6.77224 12.1768L6.79149 12.182L14.399 14.2458C15.6273 14.579 16.9311 14.4791 18.0958 13.9624C18.9176 13.5979 19.1934 12.5558 18.6617 11.8241C17.9082 10.787 16.8285 10.0405 15.6002 9.70728L13.2163 9.06057C12.939 8.98534 12.8004 8.94773 12.6826 8.87683C12.5753 8.8122 12.481 8.72763 12.4046 8.62756C12.3209 8.51776 12.2673 8.38295 12.16 8.11334L9.93936 2.53092C9.75787 2.07468 9.66712 1.84656 9.49216 1.68966C9.31719 1.53276 9.08256 1.46911 8.61332 1.34181L8.0828 1.19788C7.38177 1.0077 7.03126 0.912613 6.82984 1.10651C6.62843 1.30041 6.70459 1.65963 6.85689 2.37807L7.71658 6.43332C7.8354 6.99383 7.89481 7.27409 7.71994 7.46541C7.54507 7.65674 7.28319 7.621 6.75944 7.54953Z"
    fill="currentColor"
    fill-opacity="0.2"
  />
  <path
    fill-rule="evenodd"
    clip-rule="evenodd"
    d="M1 18.2472C1 17.8315 1.3329 17.4944 1.74355 17.4944L18.2565 17.4944C18.6671 17.4944 19 17.8315 19 18.2472C19 18.663 18.6671 19.0001 18.2565 19.0001L1.74355 19C1.3329 19 1 18.663 1 18.2472Z"
    fill="currentColor"
  />
  <path
    d="M6.71601 13.7996C6.71601 14.354 6.27214 14.8034 5.72461 14.8034C5.17708 14.8034 4.73322 14.354 4.73322 13.7996C4.73322 13.2453 5.17708 12.7959 5.72461 12.7959C6.27214 12.7959 6.71601 13.2453 6.71601 13.7996Z"
    fill="currentColor"
  />
  <path
    d="M9.69019 14.5211C9.69019 15.0754 9.24633 15.5248 8.6988 15.5248C8.15126 15.5248 7.7074 15.0754 7.7074 14.5211C7.7074 13.9667 8.15126 13.5173 8.6988 13.5173C9.24633 13.5173 9.69019 13.9667 9.69019 14.5211Z"
    fill="currentColor"
  />
</svg>
