<svg width="20" height="20" viewBox="0 0 20 20" fill="currentcolor" xmlns="http://www.w3.org/2000/svg">
  <path d="M6.70253 7.81942L5.39437 7.81942C4.94736 7.81942 4.72385 7.81942 4.52661 7.72931C4.32936 7.63919 4.18172 7.46963 3.88646 7.13051L3.0279 6.14444C2.88028 5.9749 2.80645 5.8901 2.70783 5.84504C2.6092 5.79999 2.49745 5.79999 2.27394 5.79999L2.18967 5.79999C1.54313 5.79999 1.21985 5.79999 1.06979 6.01438C0.919733 6.22877 1.02743 6.53676 1.24282 7.15273L2.12024 9.66194C2.17876 9.82929 2.20802 9.91299 2.20802 9.99998C2.20802 10.087 2.17876 10.1706 2.12026 10.338L1.24282 12.8472C1.02743 13.4632 0.919733 13.7712 1.06979 13.9856C1.21986 14.2 1.54312 14.2 2.18967 14.2L2.27395 14.2C2.49745 14.2 2.6092 14.2 2.70783 14.1549C2.80645 14.1099 2.88027 14.0251 3.0279 13.8555L3.88646 12.8695C4.18173 12.5303 4.32936 12.3608 4.52661 12.2707C4.72385 12.1806 4.94736 12.1806 5.39437 12.1806L6.70253 12.1806C6.99463 12.1806 7.21065 12.1806 7.37188 12.2065L12.604 12.2065C12.7153 12.1805 12.8375 12.1806 13.082 12.1806L15.2578 12.1806C16.4404 12.1806 17.5878 11.7739 18.5113 11.0273C19.1629 10.5007 19.1629 9.49932 18.5113 8.97263C17.5878 8.22612 16.4404 7.81942 15.2578 7.81942L13.082 7.81942C12.8375 7.81942 12.7153 7.81942 12.604 7.7935L7.37187 7.79353C7.21064 7.81945 6.99463 7.81942 6.70253 7.81942Z" fill="currentcolor" />
  <path d="M9.06411 18.132L11.8255 12.9396C11.9412 12.722 11.999 12.6133 12.0743 12.5265C12.2133 12.3663 12.3986 12.2543 12.604 12.2065L7.37186 12.2065C7.52016 12.2303 7.62211 12.2761 7.69426 12.364C7.84484 12.5474 7.79304 12.8258 7.68943 13.3827L6.82598 18.0237C6.76206 18.3673 6.7301 18.5391 6.78015 18.6725C6.81968 18.7778 6.8928 18.8669 6.98798 18.9256C7.10847 19 7.28147 19 7.62743 19C7.99088 19 8.17263 19 8.33356 18.9431C8.46199 18.8977 8.57996 18.8265 8.68031 18.7336C8.80604 18.6173 8.89207 18.4555 9.06411 18.132Z" fill="currentcolor" />
  <path d="M9.06411 1.86793L11.8255 7.06036C11.9412 7.27791 11.999 7.38669 12.0743 7.4735C12.2133 7.63369 12.3986 7.74564 12.604 7.79349L7.37186 7.79349C7.52016 7.76964 7.62211 7.72386 7.69426 7.63598C7.84484 7.45255 7.79304 7.17411 7.68944 6.61724L6.82598 1.97624C6.76206 1.63268 6.7301 1.46089 6.78015 1.3275C6.81968 1.22213 6.8928 1.13306 6.98798 1.07434C7.10847 1 7.28147 1 7.62743 1C7.99088 1 8.17264 1 8.33356 1.05684C8.46199 1.10221 8.57996 1.17348 8.68031 1.26632C8.80604 1.38265 8.89207 1.54442 9.06411 1.86793Z" fill="currentcolor" />
</svg>
