<svg
  xmlns="http://www.w3.org/2000/svg"
  width="20"
  height="20"
  viewBox="0 0 20 20"
  fill="none"
>
  <path
    d="M6.76591 9.28732C5.9758 9.17951 4.98919 8.94033 4.41925 8.41008C3.88968 7.91738 3.51582 6.98356 3.31653 6.38025C3.22026 6.0888 3.17212 5.94308 3.08125 5.85653C2.99039 5.76998 2.85487 5.73321 2.58383 5.65968L2.25377 5.57014C1.72443 5.42654 1.45976 5.35474 1.26656 5.50249C1.07336 5.65024 1.06936 5.9177 1.06136 6.45261C1.0458 7.4923 1.10317 8.99494 1.48406 10.046C1.93477 11.2897 2.3759 11.6982 3.40683 12.514C4.47814 13.3618 6.53421 13.8576 6.75746 13.9096L6.77871 13.9146L6.79796 13.9198L14.4055 15.9836C15.6338 16.3168 16.9375 16.2169 18.1023 15.7002C18.9241 15.3357 19.1998 14.2936 18.6682 13.5619C17.9146 12.5248 16.8349 11.7783 15.6066 11.4451L13.2228 10.7984C12.9455 10.7231 12.8068 10.6855 12.6891 10.6146C12.5817 10.55 12.4874 10.4654 12.4111 10.3654C12.3274 10.2556 12.2737 10.1207 12.1665 9.85114L9.94583 4.26871C9.76434 3.81247 9.67359 3.58435 9.49862 3.42745C9.32366 3.27055 9.08903 3.2069 8.61978 3.0796L8.08927 2.93568C7.38824 2.7455 7.03773 2.65041 6.83631 2.8443C6.6349 3.0382 6.71106 3.39742 6.86336 4.11586L7.72304 8.17111C7.84187 8.73163 7.90128 9.01188 7.72641 9.20321C7.55154 9.39453 7.28966 9.35879 6.76591 9.28732Z"
    fill="currentColor"
    fill-opacity="0.2"
  />
  <path
    d="M6.72244 15.5372C6.72244 16.0915 6.27858 16.5409 5.73105 16.5409C5.18352 16.5409 4.73965 16.0915 4.73965 15.5372C4.73965 14.9828 5.18352 14.5334 5.73105 14.5334C6.27858 14.5334 6.72244 14.9828 6.72244 15.5372Z"
    fill="currentColor"
  />
  <path
    d="M9.69663 16.2586C9.69663 16.813 9.25276 17.2624 8.70523 17.2624C8.1577 17.2624 7.71384 16.813 7.71384 16.2586C7.71384 15.7043 8.1577 15.2549 8.70523 15.2549C9.25276 15.2549 9.69663 15.7043 9.69663 16.2586Z"
    fill="currentColor"
  />
</svg>
