<svg width="20" height="20" viewBox="0 0 20 20" fill="currentcolor" xmlns="http://www.w3.org/2000/svg">
  <path d="M7.81948 13.2975V14.6056C7.81948 15.0526 7.81948 15.2761 7.72937 15.4734C7.63925 15.6706 7.46969 15.8183 7.13057 16.1135L6.1445 16.9721C5.97496 17.1197 5.89016 17.1936 5.84511 17.2922C5.80005 17.3908 5.80005 17.5026 5.80005 17.7261V17.8103C5.80005 18.4569 5.80005 18.7801 6.01444 18.9302C6.22883 19.0803 6.53682 18.9726 7.15279 18.7572L9.662 17.8798C9.82935 17.8212 9.91305 17.792 10 17.792C10.087 17.792 10.1707 17.8212 10.338 17.8797L12.8473 18.7572C13.4633 18.9726 13.7713 19.0803 13.9856 18.9302C14.2 18.7801 14.2 18.4569 14.2 17.8103V17.7261C14.2 17.5025 14.2 17.3908 14.155 17.2922C14.1099 17.1935 14.0251 17.1197 13.8556 16.9721L12.8695 16.1135C12.5304 15.8183 12.3608 15.6706 12.2707 15.4734C12.1806 15.2761 12.1806 15.0526 12.1806 14.6056L12.1806 13.2975C12.1806 13.0054 12.1806 12.7893 12.2065 12.6281L12.2065 7.39601C12.1806 7.28469 12.1806 7.16246 12.1806 6.91804V4.74223C12.1806 3.55959 11.7739 2.41216 11.0274 1.48867C10.5007 0.83711 9.49938 0.83711 8.97269 1.48867C8.22618 2.41216 7.81948 3.55959 7.81948 4.74223V6.91804C7.81948 7.16246 7.81948 7.28467 7.79356 7.39599L7.79359 12.6281C7.81951 12.7894 7.81948 13.0054 7.81948 13.2975Z" fill="currentcolor" />
  <path d="M18.1321 10.9359L12.9397 8.17452C12.7221 8.05883 12.6133 8.00097 12.5265 7.92568C12.3663 7.78674 12.2544 7.60143 12.2065 7.39601L12.2065 12.6281C12.2304 12.4798 12.2761 12.3779 12.364 12.3057C12.5475 12.1552 12.8259 12.207 13.3828 12.3106L18.0238 13.174C18.3673 13.2379 18.5391 13.2699 18.6725 13.2199C18.7779 13.1803 18.867 13.1072 18.9257 13.012C19 12.8915 19 12.7185 19 12.3726C19 12.0091 19 11.8274 18.9432 11.6664C18.8978 11.538 18.8265 11.42 18.7337 11.3197C18.6174 11.194 18.4556 11.1079 18.1321 10.9359Z" fill="currentcolor" />
  <path d="M1.86799 10.9359L7.06042 8.17452C7.27797 8.05883 7.38675 8.00097 7.47356 7.92568C7.63376 7.78674 7.74571 7.60143 7.79355 7.39601L7.79355 12.6281C7.7697 12.4798 7.72393 12.3779 7.63604 12.3057C7.45261 12.1552 7.17417 12.207 6.6173 12.3106L1.97631 13.174C1.63274 13.2379 1.46095 13.2699 1.32756 13.2199C1.2222 13.1803 1.13312 13.1072 1.0744 13.012C1.00006 12.8915 1.00006 12.7185 1.00006 12.3726C1.00006 12.0091 1.00006 11.8274 1.05691 11.6664C1.10227 11.538 1.17355 11.42 1.26639 11.3197C1.38271 11.194 1.54448 11.1079 1.86799 10.9359Z" fill="currentcolor" />
</svg>
