<svg
  xmlns="http://www.w3.org/2000/svg"
  width="21"
  height="20"
  viewBox="0 0 21 20"
  fill="none"
>
  <path
    d="M6.91058 8.3347C6.24584 8.84926 5.3248 9.42626 4.50267 9.46118C3.74433 9.49339 2.77471 9.07694 2.18977 8.78202C1.91724 8.64462 1.78098 8.57591 1.65526 8.57963C1.52954 8.58334 1.40723 8.65433 1.16263 8.79631L0.795966 9.00913C0.318744 9.28613 0.0801329 9.42463 0.0463029 9.66674C0.0124728 9.90886 0.197131 10.101 0.566446 10.4854C1.31202 11.2614 2.467 12.3431 3.52897 12.8376C4.76811 13.4146 5.39141 13.3867 6.74685 13.2196C8.15723 13.0458 10.039 11.8808 10.2376 11.7559L10.256 11.7444L10.2734 11.7342L17.3925 7.602C18.5419 6.93488 19.4311 5.89437 19.9141 4.65161C20.2548 3.77479 19.6988 2.80657 18.7731 2.66483C17.4611 2.46394 16.1202 2.71794 14.9708 3.38506L12.7402 4.67978C12.4648 4.83966 12.3271 4.9196 12.1788 4.95311C12.0744 4.97671 11.9669 4.98326 11.8604 4.97251C11.7093 4.95725 11.5629 4.89461 11.2703 4.76935L5.52805 2.31139C5.07848 2.11896 4.8537 2.02274 4.61905 2.03704C4.38439 2.05133 4.17281 2.17414 3.74966 2.41976L3.16765 2.75758C2.53547 3.12452 2.21939 3.30798 2.21235 3.58893C2.20531 3.86987 2.5118 4.06911 3.1248 4.46758L6.80528 6.86006C7.28323 7.17075 7.5222 7.32609 7.5328 7.58546C7.54341 7.84484 7.33247 8.00813 6.91058 8.3347Z"
    fill="currentColor"
    fill-opacity="0.2"
  />
  <path
    fill-rule="evenodd"
    clip-rule="evenodd"
    d="M0.0150756 17.2838C0.0150757 16.8686 0.349903 16.532 0.762934 16.532L19.2328 16.532C19.6458 16.532 19.9807 16.8686 19.9807 17.2838C19.9807 17.6991 19.6458 18.0357 19.2328 18.0357L0.762934 18.0357C0.349903 18.0357 0.0150756 17.6991 0.0150756 17.2838Z"
    fill="currentColor"
  />
</svg>
