<svg
  xmlns="http://www.w3.org/2000/svg"
  width="20"
  height="20"
  viewBox="0 0 20 20"
  fill="none"
>
  <path
    d="M6.8955 8.29906C6.23076 8.81361 5.30972 9.39061 4.48759 9.42553C3.72926 9.45775 2.75963 9.04129 2.17469 8.74638C1.90216 8.60897 1.7659 8.54027 1.64018 8.54398C1.51446 8.5477 1.39216 8.61869 1.14755 8.76067L0.78089 8.97349C0.303668 9.25049 0.0650572 9.38899 0.0312272 9.6311C-0.0026029 9.87321 0.182055 10.0654 0.551371 10.4498C1.29694 11.2258 2.45192 12.3075 3.5139 12.802C4.75303 13.379 5.37634 13.351 6.73178 13.184C8.14215 13.0102 10.024 11.8452 10.2225 11.7203L10.2409 11.7088L10.2583 11.6986L17.3774 7.56636C18.5268 6.89924 19.4161 5.85873 19.899 4.61597C20.2398 3.73915 19.6837 2.77093 18.7581 2.62919C17.446 2.42829 16.1051 2.6823 14.9558 3.34942L12.7252 4.64413C12.4497 4.80402 12.312 4.88396 12.1637 4.91747C12.0593 4.94107 11.9518 4.94762 11.8454 4.93687C11.6942 4.9216 11.5479 4.85897 11.2552 4.7337L5.51297 2.27575C5.06341 2.08331 4.83862 1.98709 4.60397 2.00139C4.36932 2.01569 4.15774 2.1385 3.73458 2.38411L3.15257 2.72194C2.5204 3.08887 2.20431 3.27234 2.19727 3.55329C2.19023 3.83423 2.49673 4.03347 3.10972 4.43194L6.7902 6.82442C7.26815 7.1351 7.50712 7.29045 7.51773 7.54982C7.52834 7.80919 7.31739 7.97248 6.8955 8.29906Z"
    fill="currentColor"
    fill-opacity="0.2"
  />
  <path
    fill-rule="evenodd"
    clip-rule="evenodd"
    d="M0 17.2482C0 16.833 0.334828 16.4964 0.747859 16.4964H11.2843C11.6974 16.4964 12.0322 16.833 12.0322 17.2482C12.0322 17.6635 11.6974 18.0001 11.2843 18.0001H0.747859C0.334828 18.0001 0 17.6635 0 17.2482Z"
    fill="currentColor"
  />
  <path
    fill-rule="evenodd"
    clip-rule="evenodd"
    d="M19.6592 12.3291C19.9611 12.5632 20.017 12.9991 19.7842 13.3025L16.7609 17.2426C16.7545 17.2509 16.748 17.2594 16.7415 17.2678C16.6366 17.4047 16.518 17.5595 16.3997 17.6755C16.2603 17.8122 16.0358 17.9827 15.7116 17.9989C15.3874 18.015 15.1473 17.8676 14.9951 17.7454C14.866 17.6417 14.7328 17.4995 14.6149 17.3737C14.6076 17.3659 14.6004 17.3581 14.5932 17.3505L13.2127 15.8785C12.9511 15.5996 12.964 15.1603 13.2414 14.8974C13.5188 14.6344 13.9557 14.6474 14.2172 14.9262L15.5977 16.3983C15.6106 16.412 15.6229 16.4251 15.6347 16.4377C15.6452 16.424 15.6562 16.4097 15.6677 16.3948L18.691 12.4547C18.9239 12.1512 19.3574 12.095 19.6592 12.3291Z"
    fill="currentColor"
  />
</svg>
