<svg
  xmlns="http://www.w3.org/2000/svg"
  width="20"
  height="20"
  viewBox="0 0 20 20"
  fill="none"
>
  <path
    d="M6.8955 8.29754C6.23076 8.81197 5.30972 9.38883 4.48759 9.42374C3.72926 9.45595 2.75963 9.03959 2.17469 8.74475C1.90216 8.60738 1.7659 8.53869 1.64018 8.5424C1.51446 8.54612 1.39216 8.61709 1.14755 8.75904L0.78089 8.97181C0.303668 9.24874 0.0650572 9.3872 0.0312272 9.62926C-0.00260289 9.87131 0.182055 10.0635 0.551371 10.4478C1.29694 11.2236 2.45192 12.305 3.5139 12.7994C4.75303 13.3762 5.37634 13.3483 6.73178 13.1813C8.14215 13.0075 10.024 11.8428 10.2225 11.7179L10.2409 11.7064L10.2583 11.6962L17.3774 7.56501C18.5268 6.89805 19.4161 5.8578 19.899 4.61534C20.2398 3.73873 19.6837 2.77074 18.7581 2.62903C17.446 2.42819 16.1051 2.68213 14.9557 3.34909L12.7252 4.64349C12.4497 4.80334 12.312 4.88326 12.1637 4.91676C12.0593 4.94036 11.9518 4.94691 11.8454 4.93616C11.6942 4.9209 11.5479 4.85828 11.2552 4.73304L5.51297 2.27568C5.06341 2.08329 4.83862 1.9871 4.60397 2.00139C4.36931 2.01569 4.15774 2.13846 3.73458 2.38402L3.15257 2.72176C2.5204 3.08861 2.20431 3.27203 2.19727 3.55291C2.19023 3.83379 2.49673 4.03298 3.10972 4.43135L6.7902 6.82325C7.26815 7.13386 7.50712 7.28917 7.51773 7.54848C7.52833 7.80779 7.31739 7.97104 6.8955 8.29754Z"
    fill="currentColor"
    fill-opacity="0.2"
  />
  <path
    fill-rule="evenodd"
    clip-rule="evenodd"
    d="M0 17.2443C0 16.8292 0.334828 16.4926 0.747859 16.4926H11.2843C11.6974 16.4926 12.0322 16.8292 12.0322 17.2443C12.0322 17.6595 11.6974 17.996 11.2843 17.996H0.747859C0.334828 17.996 0 17.6595 0 17.2443Z"
    fill="currentColor"
  />
  <path
    d="M19.7978 14.0961C20.0674 13.8251 20.0674 13.3858 19.7978 13.1148C19.5282 12.8439 19.0911 12.8439 18.8215 13.1148L17.4688 14.4745L16.116 13.1149C15.8465 12.8439 15.4094 12.8439 15.1398 13.1149C14.8702 13.3858 14.8702 13.8251 15.1398 14.0961L16.4925 15.4558L15.1398 16.8154C14.8702 17.0864 14.8702 17.5257 15.1398 17.7967C15.4094 18.0676 15.8465 18.0676 16.116 17.7967L17.4688 16.437L18.8215 17.7967C19.0911 18.0676 19.5282 18.0676 19.7978 17.7967C20.0674 17.5257 20.0674 17.0864 19.7978 16.8154L18.4451 15.4558L19.7978 14.0961Z"
    fill="currentColor"
  />
</svg>
