<svg
  xmlns="http://www.w3.org/2000/svg"
  width="20"
  height="20"
  viewBox="0 0 20 20"
  fill="none"
>
  <path
    d="M6.8955 8.29757C6.23076 8.812 5.30972 9.38887 4.48759 9.42378C3.72926 9.45598 2.75963 9.03963 2.17469 8.74478C1.90216 8.60741 1.7659 8.53872 1.64018 8.54244C1.51446 8.54615 1.39216 8.61712 1.14755 8.75907L0.78089 8.97184C0.303668 9.24877 0.0650572 9.38724 0.0312272 9.6293C-0.0026029 9.87135 0.182055 10.0635 0.551371 10.4478C1.29694 11.2236 2.45192 12.3051 3.5139 12.7994C4.75303 13.3763 5.37634 13.3484 6.73178 13.1813C8.14215 13.0076 10.024 11.8429 10.2225 11.718L10.2409 11.7065L10.2583 11.6963L17.3774 7.56504C18.5268 6.89808 19.4161 5.85781 19.899 4.61535C20.2398 3.73874 19.6837 2.77074 18.7581 2.62904C17.446 2.42819 16.1051 2.68213 14.9558 3.3491L12.7252 4.64351C12.4497 4.80335 12.312 4.88328 12.1637 4.91678C12.0593 4.94037 11.9518 4.94692 11.8454 4.93617C11.6942 4.92091 11.5479 4.85829 11.2552 4.73306L5.51297 2.27568C5.06341 2.08329 4.83862 1.9871 4.60397 2.00139C4.36932 2.01569 4.15774 2.13847 3.73458 2.38402L3.15257 2.72176C2.5204 3.08861 2.20431 3.27204 2.19727 3.55292C2.19023 3.8338 2.49673 4.03299 3.10972 4.43136L6.7902 6.82328C7.26815 7.13389 7.50712 7.28919 7.51773 7.54851C7.52834 7.80782 7.31739 7.97107 6.8955 8.29757Z"
    fill="currentColor"
    fill-opacity="0.2"
  />
  <path
    fill-rule="evenodd"
    clip-rule="evenodd"
    d="M0 17.2444C0 16.8292 0.334828 16.4927 0.747859 16.4927H11.2843C11.6974 16.4927 12.0322 16.8292 12.0322 17.2444C12.0322 17.6595 11.6974 17.9961 11.2843 17.9961H0.747859C0.334828 17.9961 0 17.6595 0 17.2444Z"
    fill="currentColor"
  />
  <path
    d="M16.6099 11.2385C16.1901 11.2385 15.8498 11.5806 15.8498 12.0025V13.8552H14.0065C13.5867 13.8552 13.2464 14.1973 13.2464 14.6192C13.2464 15.0412 13.5867 15.3833 14.0065 15.3833H15.8498V17.236C15.8498 17.6579 16.1901 18 16.6099 18C17.0297 18 17.37 17.6579 17.37 17.236V15.3833H19.2133C19.6331 15.3833 19.9734 15.0412 19.9734 14.6192C19.9734 14.1973 19.6331 13.8552 19.2133 13.8552H17.37V12.0025C17.37 11.5806 17.0297 11.2385 16.6099 11.2385Z"
    fill="currentColor"
  />
</svg>
