<svg
  xmlns="http://www.w3.org/2000/svg"
  width="20"
  height="20"
  viewBox="0 0 20 20"
  fill="none"
>
  <path
    d="M5.82583 9.31116C4.98901 8.47397 3.63225 8.47397 2.79543 9.31116C0.689448 11.4181 0.689444 14.8341 2.79543 16.941L3.05806 17.2038C5.16405 19.3107 8.57853 19.3107 10.6845 17.2038C11.5213 16.3666 11.5213 15.0092 10.6845 14.172L5.82583 9.31116Z"
    fill="currentColor"
    fill-opacity="0.2"
  />
  <path
    d="M9.31414 5.82801C8.47732 4.99082 8.47732 3.63346 9.31414 2.79626C11.4201 0.689334 14.8346 0.689331 16.9406 2.79626L17.2032 3.05901C19.3092 5.16594 19.3092 8.58194 17.2032 10.6889C16.3664 11.5261 15.0096 11.5261 14.1728 10.6889L9.31414 5.82801Z"
    fill="currentColor"
    fill-opacity="0.2"
  />
  <path
    d="M8.25526 9.38705C8.54815 9.09402 8.54815 8.61894 8.25526 8.32591C7.96236 8.03289 7.48749 8.03289 7.1946 8.32591L6.01778 9.50326L7.07844 10.5644L8.25526 9.38705Z"
    fill="currentColor"
  />
  <path
    d="M10.4927 13.9802L9.43202 12.919L10.6088 11.7417C10.9017 11.4487 11.3765 11.4487 11.6694 11.7417C11.9623 12.0348 11.9623 12.5099 11.6694 12.8029L10.4927 13.9802Z"
    fill="currentColor"
  />
  <path
    d="M2.41702 16.5212C2.53454 16.6661 2.6607 16.8063 2.79547 16.9411L3.05811 17.2039C3.19283 17.3387 3.33291 17.4648 3.47766 17.5824L2.28033 18.7802C1.98744 19.0733 1.51256 19.0733 1.21967 18.7802C0.926777 18.4872 0.926777 18.0121 1.21967 17.7191L2.41702 16.5212Z"
    fill="currentColor"
  />
  <path
    d="M16.5209 2.41782C16.6657 2.53539 16.8059 2.6616 16.9406 2.79643L17.2033 3.05918C17.338 3.19397 17.4641 3.33412 17.5816 3.47894L18.7791 2.2809C19.072 1.98788 19.072 1.51279 18.7791 1.21977C18.4862 0.926744 18.0113 0.926744 17.7184 1.21977L16.5209 2.41782Z"
    fill="currentColor"
  />
</svg>
