<svg width="20" height="20" viewBox="0 0 20 20" fill="currentcolor" xmlns="http://www.w3.org/2000/svg">
  <path fill-rule="evenodd" d="M10 3.125C10.4142 3.125 10.75 3.46079 10.75 3.875V9.375H16.25C16.6642 9.375 17 9.71079 17 10.125C17 10.5392 16.6642 10.875 16.25 10.875H10.75V16.375C10.75 16.7892 10.4142 17.125 10 17.125C9.58579 17.125 9.25 16.7892 9.25 16.375V10.875H3.75C3.33579 10.875 3 10.5392 3 10.125C3 9.71079 3.33579 9.375 3.75 9.375H9.25V3.875C9.25 3.46079 9.58579 3.125 10 3.125Z" fill="currentcolor" fill-opacity="0.2" />
</svg>
