<svg width="20" height="20" viewBox="0 0 20 20" fill="currentColor" xmlns="http://www.w3.org/2000/svg">
  <path fill-rule="evenodd" d="M13.7419 4.69254H6.25814C5.21246 4.69252 4.35793 4.6925 3.68329 4.7832C2.97811 4.87801 2.36672 5.08319 1.8787 5.57121C1.39068 6.05922 1.18549 6.6706 1.09068 7.37578C0.99998 8.05041 0.999998 8.90491 1.00002 9.95059L1.00001 11.906C0.999909 12.2768 0.999837 12.5427 1.03696 12.7771C1.24027 14.0608 2.24704 15.0675 3.53071 15.2708C3.76507 15.3079 4.031 15.3079 4.40179 15.3078L5.15386 15.3078V14.6155C5.15386 13.7256 5.15533 13.1279 5.21527 12.682C5.27254 12.256 5.37152 12.0737 5.49181 11.9535C5.6121 11.8332 5.79441 11.7342 6.22037 11.6769C6.66625 11.617 7.264 11.6155 8.15385 11.6155H11.8461C12.736 11.6155 13.3338 11.617 13.7796 11.6769C14.2056 11.7342 14.3879 11.8332 14.5082 11.9535C14.6285 12.0737 14.7275 12.256 14.7847 12.682C14.8447 13.1279 14.8461 13.7256 14.8461 14.6155V15.3078L15.5982 15.3078C15.969 15.3079 16.2349 15.3079 16.4693 15.2708C17.753 15.0675 18.7597 14.0608 18.963 12.7771C19.0002 12.5427 19.0001 12.2768 19 11.9061L19 9.95059C19 8.90493 19 8.0504 18.9093 7.37578C18.8145 6.6706 18.6093 6.05922 18.1213 5.57121C17.6333 5.08319 17.0219 4.87801 16.3167 4.7832C15.6421 4.6925 14.7875 4.69252 13.7419 4.69254Z" fill="currentColor" fill-opacity="0.2" />
  <path fill-rule="evenodd" d="M13.8834 2.38855C13.8222 2.38502 13.7412 2.38476 13.5949 2.38476H7.23078C6.5585 2.38476 6.12393 2.38623 5.80373 2.42927C5.50345 2.46965 5.40933 2.53482 5.35663 2.58753C5.30393 2.64023 5.23875 2.73434 5.19838 3.03462C5.15533 3.35481 5.15386 3.78938 5.15386 4.46165V4.69242H14.8461V3.60354C14.8461 3.34906 14.8455 3.20513 14.8355 3.09819C14.831 3.05035 14.8258 3.02469 14.8224 3.01192C14.8209 3.00591 14.8194 3.00191 14.8194 3.00191L14.8188 3.00064L14.8181 2.99948C14.8181 2.99948 14.8156 2.99602 14.8115 2.99139C14.8027 2.98153 14.7842 2.96294 14.7469 2.93268C14.6635 2.86507 14.5441 2.78466 14.3323 2.6435L14.2349 2.57854C14.1132 2.49738 14.0456 2.45266 13.9927 2.42164C13.9692 2.40787 13.9556 2.40104 13.9484 2.39768C13.9449 2.39608 13.9422 2.395 13.9422 2.395L13.9403 2.39442C13.9403 2.39442 13.9374 2.39379 13.9336 2.39321C13.9257 2.39198 13.9106 2.39013 13.8834 2.38855ZM13.649 1.00008C13.8711 0.9996 14.11 0.999083 14.3425 1.06947C14.5749 1.13986 14.7735 1.27282 14.958 1.3964L15.0029 1.42649L15.1215 1.50553C15.3045 1.62749 15.4789 1.74372 15.6186 1.85691C15.7748 1.98348 15.9265 2.13589 16.0396 2.34731C16.1528 2.55872 16.1954 2.76947 16.2141 2.96965C16.2308 3.14866 16.2308 3.35819 16.2308 3.5781L16.2308 4.7722C15.57 4.69245 14.7436 4.69252 13.7419 4.69254H6.25814C5.25638 4.69252 4.43004 4.69245 3.76925 4.77219L3.76925 4.41608C3.76921 3.80236 3.76918 3.27358 3.82612 2.85013C3.88713 2.39631 4.02472 1.96131 4.37756 1.60847C4.73041 1.25563 5.16542 1.11804 5.61923 1.05702C6.04269 1.00009 6.57148 1.00012 7.1852 1.00016L13.5949 1.00016L13.649 1.00008ZM15.5384 8.15398C15.5384 8.66377 15.1252 9.07705 14.6154 9.07705C14.1056 9.07705 13.6923 8.66377 13.6923 8.15398C13.6923 7.64419 14.1056 7.23092 14.6154 7.23092C15.1252 7.23092 15.5384 7.64419 15.5384 8.15398ZM11.8941 10.2309H8.10585C7.27649 10.2309 6.5849 10.2308 6.03588 10.3046C5.45638 10.3826 4.93318 10.5539 4.51274 10.9744C4.09231 11.3948 3.92092 11.918 3.84301 12.4975C3.7692 13.0465 3.76922 13.7381 3.76925 14.5674V14.6634C3.76922 15.4928 3.7692 16.1844 3.84301 16.7334C3.92092 17.3129 4.09231 17.8361 4.51274 18.2565C4.93318 18.6769 5.45637 18.8483 6.03588 18.9262C6.58488 19 7.27644 19 8.10577 19H11.8941C12.7235 19 13.4151 19 13.9641 18.9262C14.5436 18.8483 15.0668 18.6769 15.4873 18.2565C15.9077 17.8361 16.0791 17.3129 16.157 16.7334C16.2308 16.1844 16.2308 15.4928 16.2308 14.6635V14.5674C16.2308 13.7381 16.2308 13.0465 16.157 12.4975C16.0791 11.918 15.9077 11.3948 15.4873 10.9744C15.0668 10.5539 14.5436 10.3826 13.9641 10.3046C13.4151 10.2308 12.7235 10.2309 11.8941 10.2309ZM5.49181 11.9535C5.6121 11.8332 5.79441 11.7342 6.22037 11.6769C6.66625 11.617 7.264 11.6155 8.15385 11.6155H11.8461C12.736 11.6155 13.3338 11.617 13.7796 11.6769C14.2056 11.7342 14.3879 11.8332 14.5082 11.9535C14.6285 12.0737 14.7275 12.256 14.7847 12.682C14.8447 13.1279 14.8461 13.7256 14.8461 14.6155C14.8461 15.5053 14.8447 16.103 14.7847 16.5489C14.7275 16.9749 14.6285 17.1572 14.5082 17.2775C14.3879 17.3977 14.2056 17.4967 13.7796 17.554C13.3337 17.6139 12.736 17.6154 11.8461 17.6154H8.15385C7.264 17.6154 6.66625 17.6139 6.22037 17.554C5.79441 17.4967 5.6121 17.3977 5.49181 17.2775C5.37152 17.1572 5.27255 16.9749 5.21528 16.5489C5.15533 16.103 5.15386 15.5053 5.15386 14.6155C5.15386 13.7256 5.15533 13.1279 5.21527 12.682C5.27254 12.256 5.37152 12.0737 5.49181 11.9535Z" fill="currentColor" />
  <path fill-rule="evenodd" d="M6.25 13.5C6.25 13.0858 6.58579 12.75 7 12.75H11.4219C11.8361 12.75 12.1719 13.0858 12.1719 13.5C12.1719 13.9142 11.8361 14.25 11.4219 14.25H7C6.58579 14.25 6.25 13.9142 6.25 13.5Z" fill="currentColor" />
  <path fill-rule="evenodd" d="M6.25 15.75C6.25 15.3358 6.58579 15 7 15H10C10.4142 15 10.75 15.3358 10.75 15.75C10.75 16.1642 10.4142 16.5 10 16.5H7C6.58579 16.5 6.25 16.1642 6.25 15.75Z" fill="currentColor" />
</svg>
