<svg
  xmlns="http://www.w3.org/2000/svg"
  width="20"
  height="20"
  viewBox="0 0 20 20"
  fill="none"
>
  <path
    fill-rule="evenodd"
    clip-rule="evenodd"
    d="M3.11023 1.00001H4.8898C5.18507 0.999941 5.47666 0.999876 5.71804 1.03222C5.99182 1.0689 6.31023 1.15907 6.57532 1.42324C6.84041 1.68742 6.93089 2.00472 6.9677 2.27757C7.00015 2.51811 7.00008 2.80869 7.00002 3.10295V4.87638C7.00008 5.17064 7.00015 5.46123 6.9677 5.70177C6.93089 5.97461 6.84041 6.29192 6.57532 6.55609C6.31023 6.82027 5.99182 6.91044 5.71804 6.94712C5.47666 6.97946 5.18508 6.97939 4.8898 6.97933H3.11023C2.81496 6.97939 2.52336 6.97946 2.28199 6.94712C2.0082 6.91044 1.6898 6.82027 1.42471 6.55609C1.15962 6.29192 1.06914 5.97461 1.03233 5.70177C0.999876 5.46123 0.99994 5.17064 1.00001 4.87638V3.10295C0.99994 2.80869 0.999876 2.51811 1.03233 2.27757C1.06914 2.00472 1.15962 1.68742 1.42471 1.42324C1.6898 1.15907 2.0082 1.0689 2.28199 1.03222C2.52336 0.999876 2.81495 0.999941 3.11023 1.00001ZM2.51498 2.50976C2.50135 2.63727 2.50001 2.82144 2.50001 3.1426V4.83674C2.50001 5.1579 2.50135 5.34206 2.51498 5.46958C2.64294 5.48316 2.82774 5.4845 3.15001 5.4845H4.85001C5.17229 5.4845 5.35709 5.48316 5.48504 5.46958C5.49867 5.34206 5.50001 5.1579 5.50001 4.83674V3.1426C5.50001 2.82144 5.49867 2.63727 5.48504 2.50976C5.35709 2.49618 5.17229 2.49484 4.85001 2.49484H3.15001C2.82774 2.49484 2.64294 2.49618 2.51498 2.50976Z"
    fill="currentColor"
  />
  <path
    fill-rule="evenodd"
    clip-rule="evenodd"
    d="M3.11023 13.0207H4.8898C5.18507 13.0206 5.47666 13.0205 5.71804 13.0529C5.99182 13.0896 6.31023 13.1797 6.57532 13.4439C6.84041 13.7081 6.93089 14.0254 6.9677 14.2982C7.00015 14.5388 7.00008 14.8294 7.00002 15.1236V16.897C7.00008 17.1913 7.00015 17.4819 6.9677 17.7224C6.93089 17.9953 6.84041 18.3126 6.57532 18.5768C6.31023 18.8409 5.99182 18.9311 5.71804 18.9678C5.47666 19.0001 5.18507 19.0001 4.88979 19H3.11023C2.81495 19.0001 2.52336 19.0001 2.28199 18.9678C2.0082 18.9311 1.6898 18.8409 1.42471 18.5768C1.15962 18.3126 1.06914 17.9953 1.03233 17.7224C0.999876 17.4819 0.99994 17.1913 1.00001 16.897V15.1236C0.99994 14.8294 0.999876 14.5388 1.03233 14.2982C1.06914 14.0254 1.15962 13.7081 1.42471 13.4439C1.6898 13.1797 2.0082 13.0896 2.28199 13.0529C2.52336 13.0205 2.81495 13.0206 3.11023 13.0207ZM2.51498 14.5304C2.50135 14.6579 2.50001 14.8421 2.50001 15.1633V16.8574C2.50001 17.1786 2.50135 17.3627 2.51498 17.4902C2.64294 17.5038 2.82774 17.5052 3.15001 17.5052H4.85001C5.17229 17.5052 5.35709 17.5038 5.48504 17.4902C5.49867 17.3627 5.50001 17.1786 5.50001 16.8574V15.1633C5.50001 14.8421 5.49867 14.6579 5.48504 14.5304C5.35709 14.5168 5.17229 14.5155 4.85001 14.5155H3.15001C2.82774 14.5155 2.64294 14.5168 2.51498 14.5304Z"
    fill="currentColor"
  />
  <path
    fill-rule="evenodd"
    clip-rule="evenodd"
    d="M15.1102 1.00001C14.8149 0.999941 14.5234 0.999876 14.282 1.03222C14.0082 1.0689 13.6898 1.15907 13.4247 1.42324C13.1596 1.68742 13.0691 2.00472 13.0323 2.27757C12.9999 2.51811 12.9999 2.80869 13 3.10295V4.87638C12.9999 5.17064 12.9999 5.46123 13.0323 5.70177C13.0691 5.97461 13.1596 6.29192 13.4247 6.55609C13.6898 6.82027 14.0082 6.91044 14.282 6.94712C14.5234 6.97946 14.8149 6.97939 15.1102 6.97933H16.8898C17.1851 6.97939 17.4767 6.97946 17.718 6.94712C17.9918 6.91044 18.3102 6.82027 18.5753 6.55609C18.8404 6.29192 18.9309 5.97461 18.9677 5.70177C19.0001 5.46123 19.0001 5.17064 19 4.87638V3.10295C19.0001 2.80869 19.0001 2.51811 18.9677 2.27757C18.9309 2.00472 18.8404 1.68742 18.5753 1.42324C18.3102 1.15907 17.9918 1.0689 17.718 1.03222C17.4767 0.999876 17.1851 0.999941 16.8898 1.00001H15.1102ZM14.5 3.1426C14.5 2.82144 14.5014 2.63727 14.515 2.50976C14.6429 2.49618 14.8277 2.49484 15.15 2.49484H16.85C17.1723 2.49484 17.3571 2.49618 17.485 2.50976C17.4987 2.63727 17.5 2.82144 17.5 3.1426V4.83674C17.5 5.1579 17.4987 5.34206 17.485 5.46958C17.3571 5.48316 17.1723 5.4845 16.85 5.4845H15.15C14.8277 5.4845 14.6429 5.48316 14.515 5.46958C14.5014 5.34206 14.5 5.1579 14.5 4.83674V3.1426Z"
    fill="currentColor"
  />
  <path
    d="M9 1.82849C9 1.45267 9 1.26476 9.11716 1.148C9.23431 1.03125 9.42288 1.03125 9.8 1.03125H10.2C10.5771 1.03125 10.7657 1.03125 10.8828 1.148C11 1.26476 11 1.45267 11 1.82849V2.22711C11 2.60294 11 2.79085 10.8828 2.9076C10.7657 3.02435 10.5771 3.02435 10.2 3.02435H9.8C9.42288 3.02435 9.23431 3.02435 9.11716 2.9076C9 2.79085 9 2.60294 9 2.22711V1.82849Z"
    fill="currentColor"
    fill-opacity="0.2"
  />
  <path
    d="M9 5.8147C9 5.43888 9 5.25097 9.11716 5.13421C9.23431 5.01746 9.42288 5.01746 9.8 5.01746H10.2C10.5771 5.01746 10.7657 5.01746 10.8828 5.13421C11 5.25097 11 5.43888 11 5.8147V6.21332C11 6.58914 11 6.77706 10.8828 6.89381C10.7657 7.01056 10.5771 7.01056 10.2 7.01056H9.8C9.42288 7.01056 9.23431 7.01056 9.11716 6.89381C9 6.77706 9 6.58914 9 6.21332V5.8147Z"
    fill="currentColor"
    fill-opacity="0.2"
  />
  <path
    d="M9 9.80091C9 9.42509 9 9.23717 9.11716 9.12042C9.23431 9.00367 9.42288 9.00367 9.8 9.00367H10.2C10.5771 9.00367 10.7657 9.00367 10.8828 9.12042C11 9.23717 11 9.42509 11 9.80091V10.1995C11 10.5754 11 10.7633 10.8828 10.88C10.7657 10.9968 10.5771 10.9968 10.2 10.9968H9.8C9.42288 10.9968 9.23431 10.9968 9.11716 10.88C9 10.7633 9 10.5754 9 10.1995V9.80091Z"
    fill="currentColor"
    fill-opacity="0.2"
  />
  <path
    d="M9 13.7871C9 13.4113 9 13.2234 9.11716 13.1066C9.23431 12.9899 9.42288 12.9899 9.8 12.9899H10.2C10.5771 12.9899 10.7657 12.9899 10.8828 13.1066C11 13.2234 11 13.4113 11 13.7871V14.1857C11 14.5616 11 14.7495 10.8828 14.8662C10.7657 14.983 10.5771 14.983 10.2 14.983H9.8C9.42288 14.983 9.23431 14.983 9.11716 14.8662C9 14.7495 9 14.5616 9 14.1857V13.7871Z"
    fill="currentColor"
    fill-opacity="0.2"
  />
  <path
    d="M9 17.7733C9 17.3975 9 17.2096 9.11716 17.0928C9.23431 16.9761 9.42288 16.9761 9.8 16.9761H10.2C10.5771 16.9761 10.7657 16.9761 10.8828 17.0928C11 17.2096 11 17.3975 11 17.7733V18.1719C11 18.5478 11 18.7357 10.8828 18.8524C10.7657 18.9692 10.5771 18.9692 10.2 18.9692H9.8C9.42288 18.9692 9.23431 18.9692 9.11716 18.8524C9 18.7357 9 18.5478 9 18.1719V17.7733Z"
    fill="currentColor"
    fill-opacity="0.2"
  />
  <path
    d="M13 17.7733C13 17.3975 13 17.2096 13.1172 17.0928C13.2343 16.9761 13.4229 16.9761 13.8 16.9761H14.2C14.5771 16.9761 14.7657 16.9761 14.8828 17.0928C15 17.2096 15 17.3975 15 17.7733V18.1719C15 18.5478 15 18.7357 14.8828 18.8524C14.7657 18.9692 14.5771 18.9692 14.2 18.9692H13.8C13.4229 18.9692 13.2343 18.9692 13.1172 18.8524C13 18.7357 13 18.5478 13 18.1719V17.7733Z"
    fill="currentColor"
    fill-opacity="0.2"
  />
  <path
    d="M16.8438 17.7733C16.8438 17.3975 16.8438 17.2096 16.9609 17.0928C17.0781 16.9761 17.2666 16.9761 17.6437 16.9761H18.0438C18.4209 16.9761 18.6094 16.9761 18.7266 17.0928C18.8438 17.2096 18.8438 17.3975 18.8438 17.7733V18.1719C18.8438 18.5478 18.8438 18.7357 18.7266 18.8524C18.6094 18.9692 18.4209 18.9692 18.0438 18.9692H17.6437C17.2666 18.9692 17.0781 18.9692 16.9609 18.8524C16.8438 18.7357 16.8438 18.5478 16.8438 18.1719V17.7733Z"
    fill="currentColor"
    fill-opacity="0.2"
  />
  <path
    d="M18.2 9.00367C18.5771 9.00367 18.7657 9.00367 18.8828 9.12042C19 9.23717 19 9.42509 19 9.80091V10.1995C19 10.5754 19 10.7633 18.8828 10.88C18.7657 10.9968 18.5771 10.9968 18.2 10.9968H17.8C17.4229 10.9968 17.2343 10.9968 17.1172 10.88C17 10.7633 17 10.5754 17 10.1995V9.80091C17 9.42509 17 9.23717 17.1172 9.12042C17.2343 9.00367 17.4229 9.00367 17.8 9.00367H18.2Z"
    fill="currentColor"
    fill-opacity="0.2"
  />
  <path
    d="M18.2 12.9899C18.5771 12.9899 18.7657 12.9899 18.8828 13.1066C19 13.2234 19 13.4113 19 13.7871V14.1857C19 14.5616 19 14.7495 18.8828 14.8662C18.7657 14.983 18.5771 14.983 18.2 14.983H17.8C17.4229 14.983 17.2343 14.983 17.1172 14.8662C17 14.7495 17 14.5616 17 14.1857V13.7871C17 13.4113 17 13.2234 17.1172 13.1066C17.2343 12.9899 17.4229 12.9899 17.8 12.9899H18.2Z"
    fill="currentColor"
    fill-opacity="0.2"
  />
  <path
    d="M14.2 9.00367C14.5771 9.00367 14.7657 9.00367 14.8828 9.12042C15 9.23717 15 9.42509 15 9.80091V10.1995C15 10.5754 15 10.7633 14.8828 10.88C14.7657 10.9968 14.5771 10.9968 14.2 10.9968H13.8C13.4229 10.9968 13.2343 10.9968 13.1172 10.88C13 10.7633 13 10.5754 13 10.1995V9.80091C13 9.42509 13 9.23717 13.1172 9.12042C13.2343 9.00367 13.4229 9.00367 13.8 9.00367H14.2Z"
    fill="currentColor"
    fill-opacity="0.2"
  />
  <path
    d="M14.2 12.9899C14.5771 12.9899 14.7657 12.9899 14.8828 13.1066C15 13.2234 15 13.4113 15 13.7871V14.1857C15 14.5616 15 14.7495 14.8828 14.8662C14.7657 14.983 14.5771 14.983 14.2 14.983H13.8C13.4229 14.983 13.2343 14.983 13.1172 14.8662C13 14.7495 13 14.5616 13 14.1857V13.7871C13 13.4113 13 13.2234 13.1172 13.1066C13.2343 12.9899 13.4229 12.9899 13.8 12.9899H14.2Z"
    fill="currentColor"
    fill-opacity="0.2"
  />
  <path
    d="M6.2 9.00367C6.57712 9.00367 6.76569 9.00367 6.88284 9.12042C7 9.23717 7 9.42509 7 9.80091V10.1995C7 10.5754 7 10.7633 6.88284 10.88C6.76569 10.9968 6.57712 10.9968 6.2 10.9968H5.8C5.42288 10.9968 5.23431 10.9968 5.11716 10.88C5 10.7633 5 10.5754 5 10.1995V9.80091C5 9.42509 5 9.23717 5.11716 9.12042C5.23431 9.00367 5.42288 9.00367 5.8 9.00367H6.2Z"
    fill="currentColor"
    fill-opacity="0.2"
  />
  <path
    d="M2.2 9.00367C2.57712 9.00367 2.76569 9.00367 2.88284 9.12042C3 9.23717 3 9.42509 3 9.80091V10.1995C3 10.5754 3 10.7633 2.88284 10.88C2.76569 10.9968 2.57712 10.9968 2.2 10.9968H1.8C1.42288 10.9968 1.23431 10.9968 1.11716 10.88C1 10.7633 1 10.5754 1 10.1995L1 9.80091C1 9.42509 1 9.23717 1.11716 9.12042C1.23431 9.00367 1.42288 9.00367 1.8 9.00367H2.2Z"
    fill="currentColor"
    fill-opacity="0.2"
  />
</svg>
