<svg
  xmlns="http://www.w3.org/2000/svg"
  width="20"
  height="20"
  viewBox="0 0 20 20"
  fill="none"
>
  <path
    d="M7.25489 3.41454C7.63069 3.24369 7.79537 2.80371 7.62271 2.43183C7.45006 2.05995 7.00544 1.89699 6.62964 2.06784L2.04982 4.15001C1.69839 4.301 1.38018 4.50614 1.09664 4.78672C0.49566 5.38143 0.237171 6.13022 0.116343 7.01954C-3.47474e-05 7.87612 -1.90178e-05 8.96522 5.0374e-07 10.3164V11.3851C-1.90178e-05 12.7363 -3.47474e-05 13.8254 0.116343 14.682C0.237171 15.5713 0.495661 16.3201 1.09664 16.9148C1.69762 17.5095 2.45431 17.7653 3.35301 17.8849C4.21862 18 5.31922 18 6.68468 18H13.3153C14.6808 18 15.7814 18 16.647 17.8849C17.5457 17.7653 18.3024 17.5095 18.9034 16.9148C19.5043 16.3201 19.7628 15.5713 19.8837 14.682C20 13.8254 20 12.7363 20 11.3851V10.3164C20 8.96523 20 7.87612 19.8837 7.01954C19.7628 6.13022 19.5043 5.38143 18.9034 4.78672C18.3024 4.19202 17.5457 3.93623 16.647 3.81666C15.7814 3.7015 14.6808 3.70151 13.3153 3.70153H6.68468C6.66427 3.70153 6.64392 3.70153 6.62363 3.70153L7.25489 3.41454Z"
    fill="currentColor"
    fill-opacity="0.2"
  />
  <path
    d="M4.0551 6.29431C3.38717 6.29431 2.8457 6.83012 2.8457 7.49108C2.8457 8.15204 3.38717 8.68785 4.0551 8.68785H15.9451C16.613 8.68785 17.1545 8.15204 17.1545 7.49108C17.1545 6.83012 16.613 6.29431 15.9451 6.29431H4.0551Z"
    fill="currentColor"
  />
  <path
    d="M5.03575 10.9511C3.82622 10.9511 2.8457 11.9214 2.8457 13.1183C2.8457 14.3152 3.82622 15.2855 5.03575 15.2855C6.24528 15.2855 7.2258 14.3152 7.2258 13.1183C7.2258 11.9214 6.24528 10.9511 5.03575 10.9511Z"
    fill="currentColor"
  />
  <path
    d="M16.4049 11.1697L12.757 11.1697C12.343 11.1697 12.0074 11.5018 12.0074 11.9115C12.0074 12.3212 12.343 12.6533 12.757 12.6533L16.4049 12.6533C16.8189 12.6533 17.1545 12.3212 17.1545 11.9115C17.1545 11.5018 16.8189 11.1697 16.4049 11.1697Z"
    fill="currentColor"
  />
  <path
    d="M12.757 13.8019C12.343 13.8019 12.0074 14.134 12.0074 14.5437C12.0074 14.9534 12.343 15.2855 12.757 15.2855H16.4049C16.8189 15.2855 17.1545 14.9534 17.1545 14.5437C17.1545 14.134 16.8189 13.8019 16.4049 13.8019H12.757Z"
    fill="currentColor"
  />
</svg>
