<svg
  xmlns="http://www.w3.org/2000/svg"
  width="20"
  height="20"
  viewBox="0 0 20 20"
  fill="none"
>
  <path
    fill-rule="evenodd"
    clip-rule="evenodd"
    d="M1 10C1 5.02944 5.02944 1 10 1C14.9706 1 19 5.02944 19 10C19 14.9706 14.9706 19 10 19C5.02944 19 1 14.9706 1 10ZM10.9164 9.99999C10.9164 10.5061 10.5061 10.9164 10 10.9164C9.49389 10.9164 9.08362 10.5061 9.08362 9.99999C9.08362 9.49389 9.49389 9.08362 10 9.08362C10.5061 9.08362 10.9164 9.49389 10.9164 9.99999Z"
    fill="currentColor"
    fill-opacity="0.2"
  />
  <path
    d="M9.23108 5.31631C9.64131 5.24936 9.91959 4.86252 9.85263 4.45229C9.78568 4.04207 9.39884 3.76379 8.98861 3.83074C7.7406 4.03444 6.54166 4.61805 5.5801 5.57961C4.61854 6.54117 4.03493 7.74011 3.83123 8.98813C3.76428 9.39835 4.04255 9.78519 4.45278 9.85215C4.86301 9.9191 5.24985 9.64082 5.3168 9.23059C5.47137 8.28355 5.91327 7.37516 6.64446 6.64397C7.37565 5.91278 8.28403 5.47089 9.23108 5.31631Z"
    fill="currentColor"
  />
  <path
    d="M14.6835 10.7689C14.7505 10.3587 15.1373 10.0804 15.5476 10.1474C15.9578 10.2143 16.2361 10.6011 16.1691 11.0114C15.9654 12.2594 15.3818 13.4583 14.4202 14.4199C13.4587 15.3814 12.2598 15.9651 11.0117 16.1688C10.6015 16.2357 10.2147 15.9574 10.1477 15.5472C10.0808 15.137 10.359 14.7501 10.7693 14.6832C11.7163 14.5286 12.6247 14.0867 13.3559 13.3555C14.0871 12.6243 14.529 11.7159 14.6835 10.7689Z"
    fill="currentColor"
  />
  <path
    fill-rule="evenodd"
    clip-rule="evenodd"
    d="M10.0001 6.4982C8.06612 6.4982 6.49834 8.06599 6.49834 9.99995C6.49834 11.9339 8.06612 13.5017 10.0001 13.5017C11.934 13.5017 13.5018 11.9339 13.5018 9.99995C13.5018 8.06599 11.934 6.4982 10.0001 6.4982ZM10.9165 9.99999C10.9165 10.5061 10.5062 10.9164 10.0001 10.9164C9.49402 10.9164 9.08374 10.5061 9.08374 9.99999C9.08374 9.49389 9.49402 9.08362 10.0001 9.08362C10.5062 9.08362 10.9165 9.49389 10.9165 9.99999Z"
    fill="currentColor"
  />
</svg>
