<svg width="20" height="20" viewBox="0 0 20 20" fill="currentcolor" xmlns="http://www.w3.org/2000/svg">
  <path fill-rule="evenodd" d="M14.0563 1.21891C13.7644 1.51079 13.7644 1.98402 14.0563 2.2759L16.4482 4.66782H8.16609C4.20837 4.66782 1 7.87619 1 11.8339C1 15.7916 4.20837 19 8.16609 19H18.2526C18.6654 19 19 18.6654 19 18.2526C19 17.8398 18.6654 17.5052 18.2526 17.5052H8.16609C5.03393 17.5052 2.49481 14.9661 2.49481 11.8339C2.49481 8.70175 5.03393 6.16263 8.16609 6.16263H16.4482L14.0563 8.55455C13.7644 8.84643 13.7644 9.31966 14.0563 9.61154C14.3482 9.90342 14.8214 9.90342 15.1133 9.61154L18.7811 5.94372C19.073 5.65184 19.073 5.17861 18.7811 4.88673L15.1133 1.21891C14.8214 0.92703 14.3482 0.92703 14.0563 1.21891Z" fill="currentcolor" fill-opacity="0.2" />
</svg>
