<svg
  xmlns="http://www.w3.org/2000/svg"
  width="20"
  height="20"
  viewBox="0 0 20 20"
  fill="none"
>
  <path
    fill-rule="evenodd"
    clip-rule="evenodd"
    d="M10.3113 2.96587C12.3658 2.96587 14.2158 3.84432 15.504 5.24756L13.3601 5.08804C12.818 5.04771 12.3459 5.45388 12.3055 5.99524C12.2651 6.5366 12.6718 7.00815 13.2138 7.04848L17.4024 7.36012C17.6657 7.37971 17.9259 7.29279 18.1245 7.11889C18.323 6.94499 18.4432 6.6987 18.4581 6.43539L18.6984 2.19201C18.729 1.65001 18.314 1.1858 17.7713 1.15515C17.2286 1.12451 16.7638 1.53904 16.7331 2.08103L16.6471 3.60028C15.0199 1.99328 12.7822 1 10.3113 1C5.33449 1 1.29995 5.02944 1.29995 10C1.29995 14.9706 5.33449 19 10.3113 19C12.5044 19 14.5167 18.2164 16.0791 16.9152C16.4966 16.5676 16.5528 15.9477 16.2047 15.5308C15.8567 15.1139 15.236 15.0577 14.8186 15.4054C13.5968 16.4228 12.0268 17.0341 10.3113 17.0341C6.42158 17.0341 3.26831 13.8848 3.26831 10C3.26831 6.11516 6.42158 2.96587 10.3113 2.96587Z"
    fill="currentColor"
    fill-opacity="0.2"
  />
</svg>
