<svg
  xmlns="http://www.w3.org/2000/svg"
  width="20"
  height="20"
  viewBox="0 0 20 20"
  fill="none"
>
  <path
    fill-rule="evenodd"
    clip-rule="evenodd"
    d="M3.70122 1.28225C4.12633 1.31846 4.4416 1.69244 4.40539 2.11755L4.21662 4.3337L6.24456 4.29463C6.67114 4.28642 7.02361 4.62556 7.03183 5.05213C7.04005 5.4787 6.7009 5.83117 6.27432 5.83939L3.38898 5.89498C3.17014 5.89919 2.95979 5.81038 2.81018 5.65062C2.66058 5.49085 2.58578 5.27512 2.60435 5.05703L2.86591 1.98642C2.90212 1.56131 3.2761 1.24604 3.70122 1.28225Z"
    fill="currentColor"
  />
  <path
    fill-rule="evenodd"
    clip-rule="evenodd"
    d="M1.92609 8.2297C2.34962 8.28122 2.6512 8.66633 2.59968 9.08985C2.55023 9.49637 2.53367 9.91288 2.55282 10.3366C2.73873 14.4496 6.22369 17.6331 10.3367 17.4472C11.3933 17.3994 12.3867 17.1345 13.2773 16.6981C13.6605 16.5104 14.1232 16.6688 14.311 17.052C14.4987 17.4351 14.3403 17.8979 13.9571 18.0856C12.8796 18.6135 11.6789 18.9331 10.4065 18.9907C5.44102 19.2151 1.23378 15.3718 1.00934 10.4064C0.986298 9.89673 1.00617 9.39448 1.06592 8.90328C1.11744 8.47975 1.50255 8.17818 1.92609 8.2297Z"
    fill="currentColor"
    fill-opacity="0.2"
  />
  <path
    d="M5.1766 4.31521C6.39235 3.28208 7.94679 2.6304 9.66329 2.55281C13.7763 2.36691 17.2613 5.55041 17.4472 9.66336C17.5297 11.4898 16.9487 13.1906 15.9165 14.5355C15.6567 14.874 15.7205 15.359 16.059 15.6187C16.3974 15.8785 16.8824 15.8147 17.1422 15.4762C18.3878 13.8532 19.0903 11.7972 18.9907 9.5936C18.7662 4.62821 14.559 0.784912 9.59353 1.00935C7.59204 1.09982 5.77271 1.83784 4.32908 3.01088L4.2164 4.33371L5.1766 4.31521Z"
    fill="currentColor"
    fill-opacity="0.2"
  />
</svg>
