<svg width="20" height="20" viewBox="0 0 20 20" fill="currentcolor" xmlns="http://www.w3.org/2000/svg">
  <path d="M6.83228 3.74883C6.73478 3.91523 6.70232 4.118 6.75404 4.31469C6.70675 4.13355 6.72774 3.93562 6.82476 3.76227L6.83228 3.74883Z" fill="currentcolor" fill-opacity="0.2" />
  <path d="M9.06926 4.47411C9.93805 4.34178 10.8478 4.383 11.752 4.62527C15.2522 5.56314 17.3294 9.16091 16.3915 12.6611C15.841 14.7156 14.3749 16.2799 12.5469 17.0325C12.1663 17.1892 11.9847 17.6248 12.1414 18.0054C12.2981 18.386 12.7337 18.5675 13.1143 18.4108C15.3535 17.489 17.1555 15.569 17.8313 13.0469C18.9822 8.75154 16.4331 4.33642 12.1378 3.18548C11.0723 2.89999 9.99865 2.84228 8.96926 2.98259L8.42953 3.94697L9.06926 4.47411Z" fill="currentcolor" fill-opacity="0.2" />
  <path d="M5.28448 6.45498C5.56752 6.15612 5.55469 5.68441 5.25583 5.40137C4.95698 5.11834 4.48526 5.13116 4.20223 5.43002C3.31094 6.37114 2.63479 7.5413 2.27636 8.87898C1.12542 13.1744 3.67448 17.5895 7.96984 18.7404C8.48549 18.8786 9.00358 18.9635 9.51806 18.9983C9.92873 19.0261 10.2842 18.7157 10.312 18.305C10.3397 17.8944 10.0294 17.5389 9.61868 17.5111C9.20005 17.4828 8.77749 17.4137 8.35563 17.3006C4.85544 16.3627 2.77827 12.765 3.71615 9.26477C4.00883 8.17246 4.55942 7.22057 5.28448 6.45498Z" fill="currentcolor" fill-opacity="0.2" />
  <path fill-rule="evenodd" d="M9.17139 1.09506C9.53057 1.29608 9.65879 1.75022 9.45776 2.10941L8.4296 3.94652L10.0424 5.27546C10.3601 5.53721 10.4054 6.00692 10.1436 6.32458C9.88188 6.64224 9.41217 6.68757 9.0945 6.42581L7.00124 4.70098C6.72308 4.47177 6.6488 4.07634 6.82483 3.76181L8.15704 1.38144C8.35806 1.02225 8.8122 0.894037 9.17139 1.09506Z" fill="currentcolor" />
</svg>
