<svg
  xmlns="http://www.w3.org/2000/svg"
  width="20"
  height="20"
  viewBox="0 0 20 20"
  fill="none"
>
  <path
    d="M18.3848 2.06272C18.0974 1.77528 17.787 1.66885 17.5091 1.57357L17.4592 1.55639C16.8284 1.33852 15.8372 1.0553 14.8079 1.00709C13.7928 0.959556 12.5944 1.13558 11.7247 2.00529L10.1797 3.55027C9.50021 4.2298 9.31139 4.39648 9.09379 4.47823C8.8762 4.55999 8.62435 4.55889 7.66547 4.49497L7.66423 4.49489L6.6816 4.42938C6.20166 4.39737 5.79629 4.37034 5.45874 4.37587C5.10246 4.38171 4.76651 4.42331 4.43381 4.55924C4.11917 4.68779 3.83109 4.87355 3.58417 5.10712C3.32307 5.35408 3.14654 5.64293 2.99421 5.96506C2.84989 6.27026 2.70725 6.65065 2.53836 7.10106L2.51557 7.16183C2.30675 7.71866 2.13312 8.18164 2.02999 8.54756C1.9331 8.89137 1.84076 9.32761 1.98628 9.73967C2.10615 10.0791 2.27531 10.3143 2.55899 10.536C2.75229 10.687 2.9705 10.761 3.15925 10.8024C3.35042 10.8444 3.56048 10.8632 3.77606 10.8718C4.19612 10.8884 4.75296 10.8689 5.43712 10.8449L5.47004 10.8438C6.82438 10.7964 8.03942 11.0271 8.72992 11.7176C9.42042 12.4081 9.65116 13.6231 9.60373 14.9775L9.60258 15.0103C9.57861 15.6945 9.5591 16.2514 9.57576 16.6715C9.58432 16.887 9.60316 17.0971 9.64513 17.2883C9.68657 17.477 9.76055 17.6952 9.91157 17.8885C10.1332 18.1722 10.3684 18.3414 10.7079 18.4612C11.1199 18.6068 11.5562 18.5144 11.9 18.4175C12.2659 18.3144 12.7288 18.1408 13.2856 17.932L13.3465 17.9092C13.7969 17.7403 14.1773 17.5976 14.4825 17.4533C14.8046 17.301 15.0934 17.1245 15.3404 16.8634C15.574 16.6164 15.7597 16.3284 15.8883 16.0137C16.0242 15.681 16.0658 15.3451 16.0717 14.9888C16.0772 14.6512 16.0502 14.2459 16.0181 13.7659L15.9526 12.7821C15.8886 11.8232 15.8875 11.5713 15.9693 11.3537C16.051 11.1361 16.2177 10.9473 16.8973 10.2678L18.4422 8.7228C19.3119 7.85309 19.488 6.65468 19.4404 5.63966C19.3922 4.61031 19.109 3.61909 18.8911 2.98836L18.874 2.93839C18.7787 2.66054 18.6722 2.35015 18.3848 2.06272Z"
    fill="currentColor"
    fill-opacity="0.2"
  />
  <path
    d="M14.3764 6.07112C14.7669 6.46164 15.4001 6.46164 15.7906 6.07112C16.1811 5.6806 16.1811 5.04743 15.7906 4.65691C15.4001 4.26638 14.7669 4.26638 14.3764 4.65691C13.9859 5.04743 13.9859 5.6806 14.3764 6.07112Z"
    fill="currentColor"
  />
  <path
    fill-rule="evenodd"
    clip-rule="evenodd"
    d="M7.83569 12.6119C6.76175 11.5379 5.02055 11.5379 3.94661 12.6119C3.43553 13.1229 3.1334 13.8547 2.95126 14.566C2.76488 15.294 2.68171 16.0903 2.66826 16.8176C2.65835 17.353 3.09451 17.7892 3.62997 17.7793C4.35727 17.7659 5.15361 17.6827 5.88152 17.4963C6.59287 17.3142 7.32462 17.012 7.83569 16.501C8.90964 15.427 8.90964 13.6858 7.83569 12.6119ZM5.00727 13.6725C5.49542 13.1844 6.28688 13.1844 6.77503 13.6725C7.26319 14.1607 7.26319 14.9521 6.77503 15.4403C6.54153 15.6738 6.11394 15.8884 5.50945 16.0432C5.10087 16.1478 4.64974 16.2154 4.19662 16.2509C4.23214 15.7978 4.29977 15.3467 4.40438 14.9381C4.55916 14.3336 4.77376 13.906 5.00727 13.6725Z"
    fill="currentColor"
  />
</svg>
