<svg
  xmlns="http://www.w3.org/2000/svg"
  width="20"
  height="20"
  viewBox="0 0 20 20"
  fill="none"
>
  <path
    d="M11.9235 2C7.9542 2 4.73642 5.17874 4.73642 9.0999C4.73642 13.0211 7.9542 16.1998 11.9235 16.1998C15.8929 16.1998 19.1107 13.0211 19.1107 9.0999C19.1107 5.17874 15.8929 2 11.9235 2Z"
    fill="currentColor"
    fill-opacity="0.2"
  />
  <path
    fill-rule="evenodd"
    clip-rule="evenodd"
    d="M0 17.2551C0 16.8437 0.337604 16.5102 0.754059 16.5102H7.18712C7.60358 16.5102 7.94118 16.8437 7.94118 17.2551C7.94118 17.6665 7.60358 18 7.18712 18H0.754059C0.337604 18 0 17.6665 0 17.2551Z"
    fill="currentColor"
  />
  <path
    fill-rule="evenodd"
    clip-rule="evenodd"
    d="M0 13.6236C0 13.2122 0.337604 12.8787 0.754059 12.8787H3.51109C3.92754 12.8787 4.26514 13.2122 4.26514 13.6236C4.26514 14.035 3.92754 14.3686 3.51109 14.3686H0.754059C0.337604 14.3686 0 14.035 0 13.6236Z"
    fill="currentColor"
  />
  <path
    fill-rule="evenodd"
    clip-rule="evenodd"
    d="M0 9.99222C0 9.58082 0.337604 9.24731 0.754059 9.24731H2.59208C3.00853 9.24731 3.34614 9.58082 3.34614 9.99222C3.34614 10.4036 3.00853 10.7371 2.59208 10.7371H0.754059C0.337604 10.7371 0 10.4036 0 9.99222Z"
    fill="currentColor"
  />
  <path
    d="M15.9749 14.9295C16.3906 14.6457 16.7746 14.3197 17.1205 13.9578L19.7931 16.7425C20.0797 17.041 20.067 17.5125 19.7648 17.7955C19.4625 18.0786 18.9853 18.066 18.6987 17.7675L15.9749 14.9295Z"
    fill="currentColor"
  />
</svg>
