<svg width="20" height="20" viewBox="0 0 20 20" fill="currentcolor" xmlns="http://www.w3.org/2000/svg">
  <path d="M9.99426 0.994263C5.0237 0.994263 0.994263 5.0237 0.994263 9.99426C0.994263 14.9648 5.0237 18.9943 9.99426 18.9943C14.9648 18.9943 18.9943 14.9648 18.9943 9.99426C18.9943 5.0237 14.9648 0.994263 9.99426 0.994263Z" fill="currentcolor" fill-opacity="0.2" />
  <path fill-rule="evenodd" d="M9.74444 5.99681C7.67469 5.99681 5.99683 7.67467 5.99683 9.74442C5.99683 11.8142 7.67469 13.492 9.74444 13.492C10.5083 13.492 11.2187 13.2635 11.8111 12.8711L12.7122 13.7722C13.0049 14.0649 13.4795 14.0649 13.7722 13.7722C14.0649 13.4795 14.0649 13.0049 13.7722 12.7122L12.8711 11.8112C13.2635 11.2187 13.492 10.5083 13.492 9.74442C13.492 7.67467 11.8142 5.99681 9.74444 5.99681ZM7.49587 9.74442C7.49587 8.50257 8.50259 7.49586 9.74444 7.49586C10.9863 7.49586 11.993 8.50257 11.993 9.74442C11.993 10.9863 10.9863 11.993 9.74444 11.993C8.50259 11.993 7.49587 10.9863 7.49587 9.74442Z" fill="currentcolor" />
</svg>
