<svg
  xmlns="http://www.w3.org/2000/svg"
  width="20"
  height="20"
  viewBox="0 0 20 20"
  fill="none"
>
  <path
    fill-rule="evenodd"
    clip-rule="evenodd"
    d="M9.96308 1H10.0369C11.543 0.999995 12.7236 0.99999 13.6691 1.08517C14.6324 1.17195 15.424 1.35178 16.1292 1.7559C17.0095 2.26044 17.7396 2.99046 18.2441 3.87084C18.6482 4.57599 18.828 5.36756 18.9148 6.33088C19 7.27636 19 8.45705 19 9.9631V10.0369C19 10.8637 19 11.5925 18.9859 12.2381C18.1463 10.6683 16.491 9.60021 14.5862 9.60021C11.8325 9.60021 9.60015 11.8326 9.60015 14.5863C9.60015 16.491 10.6682 18.1463 12.238 18.9859C11.5924 19 10.8637 19 10.0369 19H9.9631C8.45705 19 7.27636 19 6.33088 18.9148C5.36756 18.828 4.57599 18.6482 3.87084 18.2441C2.99046 17.7396 2.26044 17.0095 1.7559 16.1292C1.35178 15.424 1.17195 14.6324 1.08517 13.6691C0.99999 12.7236 0.999995 11.543 1 10.0369V9.96308C0.999995 8.45705 0.99999 7.27636 1.08517 6.33088C1.17195 5.36756 1.35178 4.57599 1.7559 3.87084C2.26044 2.99046 2.99046 2.26044 3.87084 1.7559C4.57599 1.35178 5.36756 1.17195 6.33088 1.08517C7.27636 0.99999 8.45705 0.999995 9.96308 1ZM4.28996 6.0278C4.28996 5.61647 4.62342 5.28301 5.03475 5.28301H10.4624C10.8738 5.28301 11.2072 5.61647 11.2072 6.0278C11.2072 6.43914 10.8738 6.77259 10.4624 6.77259H5.03475C4.62342 6.77259 4.28996 6.43914 4.28996 6.0278ZM5.03475 8.03475C4.62342 8.03475 4.28996 8.3682 4.28996 8.77954C4.28996 9.19087 4.62342 9.52433 5.03475 9.52433H7.71068C8.12202 9.52433 8.45547 9.19087 8.45547 8.77954C8.45547 8.3682 8.12202 8.03475 7.71068 8.03475H5.03475Z"
    fill="currentColor"
    fill-opacity="0.2"
  />
  <path
    fill-rule="evenodd"
    clip-rule="evenodd"
    d="M14.5837 11.084C12.6509 11.084 11.084 12.6509 11.084 14.5837C11.084 16.5166 12.6509 18.0835 14.5837 18.0835C15.2787 18.0835 15.9264 17.8809 16.4709 17.5316L17.7196 18.7803C18.0125 19.0732 18.4874 19.0732 18.7803 18.7803C19.0732 18.4874 19.0732 18.0125 18.7803 17.7196L17.5316 16.4709C17.8809 15.9264 18.0835 15.2787 18.0835 14.5837C18.0835 12.6509 16.5166 11.084 14.5837 11.084ZM12.584 14.5837C12.584 13.4793 13.4793 12.584 14.5837 12.584C15.6882 12.584 16.5835 13.4793 16.5835 14.5837C16.5835 15.6882 15.6882 16.5835 14.5837 16.5835C13.4793 16.5835 12.584 15.6882 12.584 14.5837Z"
    fill="currentColor"
  />
</svg>
