<svg width="20" height="20" viewBox="0 0 20 20" fill="currentColor" xmlns="http://www.w3.org/2000/svg">
  <rect x="1" y="1" width="18" height="18" rx="5" fill="currentColor" fill-opacity="0.2" />
  <path d="M13 9C14.1046 9 15 8.10457 15 7C15 5.89543 14.1046 5 13 5C12.1557 5 11.4335 5.5232 11.1401 6.26307C11.0947 6.25449 11.0479 6.25 11 6.25H6C5.58579 6.25 5.25 6.58579 5.25 7C5.25 7.41421 5.58579 7.75 6 7.75H11C11.0479 7.75 11.0947 7.74551 11.1401 7.73693C11.4335 8.4768 12.1557 9 13 9Z" fill="currentColor" />
  <path d="M8.85986 13.7369C8.56645 14.4768 7.84433 15 7 15C5.89543 15 5 14.1046 5 13C5 11.8954 5.89543 11 7 11C7.84432 11 8.56645 11.5232 8.85986 12.2631C8.90526 12.2545 8.9521 12.25 9 12.25H14C14.4142 12.25 14.75 12.5858 14.75 13C14.75 13.4142 14.4142 13.75 14 13.75H9C8.9521 13.75 8.90526 13.7455 8.85986 13.7369Z" fill="currentColor" />
</svg>
