<svg
  xmlns="http://www.w3.org/2000/svg"
  width="20"
  height="20"
  viewBox="0 0 20 20"
  fill="none"
>
  <path
    d="M8.5 10C8.5 7.92893 6.82107 6.25 4.75 6.25C2.67893 6.25 1 7.92893 1 10C1 12.0711 2.67893 13.75 4.75 13.75C6.82107 13.75 8.5 12.0711 8.5 10Z"
    fill="currentColor"
    fill-opacity="0.2"
  />
  <path
    d="M19 4.75C19 2.67893 17.3211 1 15.25 1C13.1789 1 11.5 2.67893 11.5 4.75C11.5 6.82107 13.1789 8.5 15.25 8.5C17.3211 8.5 19 6.82107 19 4.75Z"
    fill="currentColor"
    fill-opacity="0.2"
  />
  <path
    d="M19 15.25C19 13.1789 17.3211 11.5 15.25 11.5C13.1789 11.5 11.5 13.1789 11.5 15.25C11.5 17.3211 13.1789 19 15.25 19C17.3211 19 19 17.3211 19 15.25Z"
    fill="currentColor"
    fill-opacity="0.2"
  />
  <path
    d="M11.5278 5.20874L7.60156 7.56448C7.92606 7.94405 8.1761 8.38919 8.32906 8.87727L12.0228 6.66102C11.7646 6.2259 11.5919 5.7341 11.5278 5.20874Z"
    fill="currentColor"
  />
  <path
    d="M7.60156 12.4355C7.92606 12.0559 8.1761 11.6108 8.32906 11.1227L12.0228 13.339C11.7646 13.7741 11.5919 14.2659 11.5278 14.7912L7.60156 12.4355Z"
    fill="currentColor"
  />
</svg>
