<svg
  xmlns="http://www.w3.org/2000/svg"
  width="20"
  height="20"
  viewBox="0 0 20 20"
  fill="none"
>
  <path
    d="M6.33619 9.24365H5.85139C5.23391 9.24365 4.73226 9.24364 4.32322 9.27155C3.90148 9.30033 3.52326 9.36128 3.16325 9.5104C2.3046 9.86606 1.62241 10.5483 1.26675 11.4069C1.11763 11.7669 1.05668 12.1451 1.0279 12.5669C0.999992 12.9759 0.999995 13.4776 1 14.0951V14.1487C0.999995 14.7662 0.999992 15.2678 1.0279 15.6769C1.05668 16.0986 1.11763 16.4768 1.26675 16.8368C1.62241 17.6955 2.3046 18.3777 3.16325 18.7333C3.52326 18.8824 3.90148 18.9434 4.32322 18.9722C4.7323 19.0001 5.23398 19.0001 5.85154 19.0001H14.1485C14.766 19.0001 15.2677 19.0001 15.6768 18.9722C16.0985 18.9434 16.4767 18.8824 16.8367 18.7333C17.6954 18.3777 18.3776 17.6955 18.7333 16.8368C18.8824 16.4768 18.9433 16.0986 18.9721 15.6769C19 15.2678 19 14.7661 19 14.1486V14.0951C19 13.4776 19 12.9759 18.9721 12.5669C18.9433 12.1451 18.8824 11.7669 18.7333 11.4069C18.3776 10.5483 17.6954 9.86606 16.8367 9.5104C16.4767 9.36128 16.0985 9.30033 15.6768 9.27155C15.2677 9.24364 14.7661 9.24365 14.1486 9.24365H13.6638C13.246 9.24365 12.9074 9.58231 12.9074 10.0001C12.9074 10.4178 13.246 10.7565 13.6638 10.7565H14.1218C14.7723 10.7565 15.2223 10.7569 15.5738 10.7809C15.9185 10.8044 16.1129 10.8481 16.2578 10.9081C16.7458 11.1102 17.1334 11.4979 17.3356 11.9858C17.3956 12.1308 17.4392 12.3251 17.4628 12.6698C17.4867 13.0213 17.4872 13.4713 17.4872 14.1219C17.4872 14.7724 17.4867 15.2224 17.4628 15.5739C17.4392 15.9186 17.3956 16.1129 17.3356 16.2579C17.1334 16.7458 16.7458 17.1335 16.2578 17.3356C16.1129 17.3957 15.9185 17.4393 15.5738 17.4628C15.2223 17.4868 14.7723 17.4872 14.1218 17.4872H5.87821C5.22767 17.4872 4.77768 17.4868 4.4262 17.4628C4.08148 17.4393 3.88714 17.3957 3.74219 17.3356C3.25424 17.1335 2.86656 16.7458 2.66444 16.2579C2.6044 16.1129 2.56076 15.9186 2.53724 15.5739C2.51326 15.2224 2.51285 14.7724 2.51285 14.1219C2.51285 13.4713 2.51326 13.0213 2.53724 12.6698C2.56076 12.3251 2.6044 12.1308 2.66444 11.9858C2.86656 11.4979 3.25424 11.1102 3.74219 10.9081C3.88714 10.8481 4.08148 10.8044 4.4262 10.7809C4.77768 10.7569 5.22767 10.7565 5.87821 10.7565H6.33619C6.75395 10.7565 7.09261 10.4178 7.09261 10.0001C7.09261 9.58231 6.75395 9.24365 6.33619 9.24365Z"
    fill="currentColor"
    fill-opacity="0.2"
  />
  <path
    d="M10.5348 1.22155C10.2394 0.926149 9.76048 0.926149 9.46508 1.22155L5.80126 4.88536C5.50586 5.18076 5.50586 5.6597 5.80126 5.95511C6.09667 6.25051 6.57561 6.25051 6.87101 5.95511L9.24352 3.58259V12.7478C9.24352 13.1656 9.58219 13.5043 9.99995 13.5043C10.4177 13.5043 10.7564 13.1656 10.7564 12.7478V3.58259L13.1289 5.95511C13.4243 6.25051 13.9032 6.25051 14.1986 5.95511C14.494 5.6597 14.494 5.18076 14.1986 4.88536L10.5348 1.22155Z"
    fill="currentColor"
  />
</svg>
