<svg
  xmlns="http://www.w3.org/2000/svg"
  width="20"
  height="20"
  viewBox="0 0 20 20"
  fill="none"
>
  <path
    d="M12.3615 1.7299C11.4063 1.29996 10.7399 1 10 1L9.99951 19C10.8162 19.0011 11.3189 18.6406 11.927 18.2037L11.9954 18.1546C13.9919 16.7228 17.3143 13.7522 18.5849 9.12337L18.6154 9.01257C18.9735 7.71045 19.2325 6.76893 18.6825 5.56994C18.3946 4.94244 17.9705 4.51197 17.4105 4.14372C16.8892 3.80089 16.2155 3.49135 15.4102 3.12136L14.9921 2.92917C14.0996 2.51893 13.3454 2.17224 12.484 1.78504L12.3615 1.7299Z"
    fill="currentColor"
    fill-opacity="0.2"
  />
  <path
    d="M7.63849 1.7299C8.59368 1.29996 9.2601 1 10 1L9.99953 19C9.18287 19.0011 8.68108 18.6406 8.07298 18.2037L8.00458 18.1546C6.00805 16.7228 2.68564 13.7522 1.41504 9.12337L1.38459 9.01257C1.02647 7.71045 0.767526 6.76893 1.3175 5.56994C1.60533 4.94244 2.02953 4.51197 2.58948 4.14372C3.11079 3.80089 3.78448 3.49135 4.58976 3.12136L5.00792 2.92917C5.90036 2.51893 6.65456 2.17224 7.51594 1.78504L7.63849 1.7299Z"
    fill="currentColor"
  />
</svg>
