<svg
  xmlns="http://www.w3.org/2000/svg"
  width="20"
  height="20"
  viewBox="0 0 20 20"
  fill="none"
>
  <path
    fill-rule="evenodd"
    clip-rule="evenodd"
    d="M5.40899 1.15858C6.07119 0.999766 6.84991 0.999858 8.12738 1.00001L8.30596 1.00002C10.6143 1.00001 12.4234 0.999996 13.8348 1.18976C15.2796 1.384 16.4196 1.78934 17.3144 2.68415C18.2092 3.57896 18.6146 4.71899 18.8088 6.16372C18.9986 7.57521 18.9986 9.38425 18.9986 11.6926L18.9986 11.8357C18.2125 11.4933 17.6806 11.2925 17.1782 11.1027C17.0298 11.0467 16.8839 10.9916 16.7348 10.9341L16.714 10.9261C16.4196 10.8126 16.1667 10.7151 15.9531 10.6478C15.7295 10.5773 15.4985 10.5228 15.2493 10.5228C15.0001 10.5228 14.7691 10.5773 14.5455 10.6478C14.3318 10.7151 14.079 10.8126 13.7846 10.9261L13.7638 10.9341C13.6147 10.9916 13.4688 11.0467 13.3204 11.1027C12.8061 11.2969 12.2609 11.5028 11.4439 11.8602L11.4205 11.8705C11.2967 11.9245 11.1503 11.9885 11.0275 12.0609C10.8758 12.1503 10.7103 12.2795 10.5853 12.4874C10.3733 12.84 10.4073 13.2299 10.4268 13.4535C10.4286 13.4743 10.4304 13.4947 10.4318 13.5125C10.6433 16.3041 12.0833 18.0257 13.2764 18.986C12.8804 18.9987 12.4222 18.9986 11.8712 18.9986L9.96286 18.9986C8.47581 18.9986 7.31 18.9986 6.37571 18.916C5.42391 18.8319 4.64092 18.6576 3.94102 18.2657C3.01535 17.7475 2.2511 16.9832 1.73284 16.0575C1.34099 15.3577 1.16671 14.5747 1.08259 13.6229C1.00001 12.6886 1.00001 11.5228 1.00002 10.0357L1.00001 8.12738C0.999858 6.84991 0.999766 6.07119 1.15858 5.40899C1.66308 3.30547 3.30547 1.66308 5.40899 1.15858ZM4.66635 6.33302C4.66635 5.91881 5.00214 5.58302 5.41635 5.58302H11.8324C12.2467 5.58302 12.5824 5.91881 12.5824 6.33302C12.5824 6.74724 12.2467 7.08302 11.8324 7.08302H5.41635C5.00214 7.08302 4.66635 6.74724 4.66635 6.33302ZM4.66635 9.08278C4.66635 8.66856 5.00214 8.33278 5.41635 8.33278H9.08269C9.49691 8.33278 9.83269 8.66856 9.83269 9.08278C9.83269 9.49699 9.49691 9.83278 9.08269 9.83278H5.41635C5.00214 9.83278 4.66635 9.49699 4.66635 9.08278Z"
    fill="currentColor"
    fill-opacity="0.2"
  />
  <path
    d="M14.3034 12.3336C14.6244 12.2098 14.833 12.1298 14.9963 12.0783C15.1547 12.0284 15.2193 12.0227 15.2493 12.0227C15.2793 12.0227 15.3439 12.0284 15.5023 12.0783C15.6656 12.1298 15.8742 12.2098 16.1953 12.3336C16.3563 12.3957 16.5093 12.4535 16.6619 12.5111C17.1707 12.7033 17.6748 12.8937 18.4536 13.2344C18.5032 13.2561 18.544 13.2739 18.5792 13.2897C18.577 13.321 18.5743 13.3567 18.5711 13.399C18.3523 16.2864 16.5326 17.7422 15.5483 18.3282C15.4773 18.3705 15.4299 18.3986 15.3884 18.4214C15.349 18.443 15.3279 18.4525 15.3163 18.4571C15.3071 18.4607 15.3032 18.4616 15.2999 18.4622C15.2954 18.463 15.2808 18.4653 15.2493 18.4653C15.2178 18.4653 15.2033 18.463 15.1988 18.4622C15.1954 18.4616 15.1915 18.4607 15.1824 18.4571C15.1707 18.4525 15.1497 18.443 15.1102 18.4214C15.0687 18.3986 15.0213 18.3705 14.9504 18.3282C13.966 17.7422 12.1463 16.2864 11.9275 13.399C11.9243 13.3567 11.9216 13.321 11.9194 13.2897C11.9547 13.2739 11.9954 13.2561 12.0451 13.2344C12.8239 12.8937 13.3279 12.7033 13.8367 12.5111C13.9893 12.4535 14.1423 12.3957 14.3034 12.3336Z"
    fill="currentColor"
  />
</svg>
