<svg width="20" height="20" viewBox="0 0 20 20" fill="currentColor" xmlns="http://www.w3.org/2000/svg">
  <path d="M7.63898 2.22991C8.59423 1.79997 9.2607 1.5 10.0007 1.5C10.7407 1.5 11.4071 1.79997 12.3624 2.22991C12.4027 2.24806 12.4436 2.26644 12.485 2.28505C13.3465 2.67227 14.1006 3.01893 14.9932 3.42921C15.1147 3.48503 15.2387 3.54202 15.3658 3.60046C15.4263 3.62824 15.4861 3.65567 15.5453 3.68279C17.0551 4.37509 18.133 4.86936 18.6834 6.0722C19.2331 7.27346 18.9727 8.21365 18.6124 9.51386C18.6024 9.55025 18.5922 9.58692 18.582 9.62389C17.3075 14.2329 13.9874 17.2105 11.9944 18.6481C11.9714 18.6647 11.9485 18.6812 11.9258 18.6976C11.3183 19.1366 10.8169 19.4989 10.0002 19.5001C9.18347 19.5012 8.68164 19.1407 8.0735 18.7038C8.05085 18.6875 8.02806 18.6712 8.0051 18.6547C6.00841 17.2229 2.68576 14.2522 1.41507 9.62341C1.40485 9.58619 1.39469 9.54926 1.38461 9.51262C1.02647 8.21048 0.767509 7.26896 1.31752 6.06997C1.60538 5.44246 2.0296 5.01199 2.58959 4.64374C3.11094 4.3009 3.78468 3.99137 4.59002 3.62137C4.60514 3.61442 4.62031 3.60745 4.63553 3.60046C4.76272 3.54202 4.88673 3.48502 5.00818 3.42919C5.90075 3.01892 6.65493 2.67226 7.51642 2.28505C7.5578 2.26644 7.59865 2.24806 7.63898 2.22991Z" fill="currentColor" fill-opacity="0.2" />
  <path fill-rule="evenodd" d="M13.4581 7.40617C13.7861 7.65917 13.8468 8.13014 13.5938 8.45811L10.3092 12.716C10.3023 12.725 10.2953 12.7341 10.2882 12.7432C10.1742 12.8911 10.0453 13.0584 9.91685 13.1837C9.76533 13.3315 9.52152 13.5158 9.16925 13.5332C8.81699 13.5506 8.55617 13.3914 8.3908 13.2593C8.25056 13.1472 8.1058 12.9935 7.97777 12.8576C7.96984 12.8492 7.96197 12.8408 7.95417 12.8326L6.45431 11.2418C6.17015 10.9404 6.18411 10.4657 6.48549 10.1816C6.78687 9.89743 7.26154 9.91139 7.54569 10.2128L9.04556 11.8035C9.05955 11.8184 9.07292 11.8326 9.08574 11.8461C9.09716 11.8314 9.10906 11.8159 9.12152 11.7998L12.4062 7.5419C12.6592 7.21394 13.1301 7.15317 13.4581 7.40617Z" fill="currentColor" />
</svg>
