<svg
  xmlns="http://www.w3.org/2000/svg"
  width="20"
  height="20"
  viewBox="0 0 20 20"
  fill="none"
>
  <path
    d="M18.0453 3.06107C19.0002 4.3754 19.0002 6.25027 19.0002 10C19.0002 13.7497 19.0002 15.6246 18.0453 16.9389C17.7369 17.3634 17.3636 17.7367 16.9392 18.0451C15.6248 19 13.75 19 10.0002 19C8.51269 18.9971 8.51269 18.9971 8.51269 18.9971L8.5127 1.00273C8.97326 1 9.46785 1 10.0002 1C13.75 1 15.6248 1 16.9392 1.95492C17.3636 2.26331 17.7369 2.6366 18.0453 3.06107Z"
    fill="currentColor"
    fill-opacity="0.2"
  />
  <path
    d="M8.51269 18.9944C5.72927 18.9779 4.18883 18.8616 3.06107 18.0422C2.6366 17.7338 2.26331 17.3605 1.95491 16.9361C1 15.6217 1 13.7469 1 9.99714C1 6.24741 1 4.37254 1.95491 3.05822C2.26331 2.63374 2.6366 2.26046 3.06107 1.95206C4.18883 1.1327 5.72927 1.01651 8.5127 1L8.51269 18.9944Z"
    fill="currentColor"
  />
</svg>
