<svg width="20" height="20" viewBox="0 0 20 20" fill="currentcolor" xmlns="http://www.w3.org/2000/svg">
  <path d="M1.95491 3.06107C1 4.3754 1 6.25027 1 10C1 13.7497 1 15.6246 1.95491 16.9389C2.26331 17.3634 2.6366 17.7367 3.06107 18.0451C4.3754 19 6.25027 19 10 19C11.4875 18.9971 11.4875 18.9971 11.4875 18.9971L11.4875 1.00273C11.027 1 10.5324 1 10 1C6.25027 1 4.3754 1 3.06107 1.95492C2.6366 2.26331 2.26331 2.6366 1.95491 3.06107Z" fill="currentcolor" fill-opacity="0.2" />
  <path fill-rule="evenodd" d="M11.4875 18.9944C14.271 18.9779 15.8114 18.8616 16.9392 18.0422C17.3636 17.7338 17.7369 17.3605 18.0453 16.9361C19.0002 15.6217 19.0002 13.7469 19.0002 9.99714C19.0002 6.24741 19.0002 4.37254 18.0453 3.05822C17.7369 2.63374 17.3636 2.26046 16.9392 1.95206C15.8114 1.1327 14.271 1.01651 11.4875 1V18.9944ZM13.3533 4.99731C13.3533 4.5831 13.6891 4.24731 14.1033 4.24731H15.6033C16.0175 4.24731 16.3533 4.5831 16.3533 4.99731C16.3533 5.41153 16.0175 5.74731 15.6033 5.74731H14.1033C13.6891 5.74731 13.3533 5.41153 13.3533 4.99731ZM14.1033 6.24731C13.6891 6.24731 13.3533 6.5831 13.3533 6.99731C13.3533 7.41153 13.6891 7.74731 14.1033 7.74731H15.6033C16.0175 7.74731 16.3533 7.41153 16.3533 6.99731C16.3533 6.5831 16.0175 6.24731 15.6033 6.24731H14.1033Z" fill="currentcolor" />
</svg>
