<svg width="20" height="20" viewBox="0 0 20 20" fill="currentcolor" xmlns="http://www.w3.org/2000/svg">
  <path fill-rule="evenodd" d="M10.0569 5.38413e-07H9.94309C8.52486 -2.00532e-05 7.3817 -3.66494e-05 6.48263 0.119512C5.54918 0.243632 4.76324 0.509164 4.13903 1.12651C3.51482 1.74386 3.24634 2.52117 3.12084 3.44436C2.99996 4.33355 2.99998 5.46413 3 6.86678V13.1332C2.99998 14.5359 2.99996 15.6664 3.12084 16.5556C3.24634 17.4788 3.51482 18.2561 4.13903 18.8735C4.76324 19.4908 5.54918 19.7564 6.48263 19.8805C7.38171 20 8.52486 20 9.9431 20H10.0569C11.4751 20 12.6183 20 13.5174 19.8805C14.4508 19.7564 15.2368 19.4908 15.861 18.8735C16.4852 18.2561 16.7537 17.4788 16.8792 16.5556C17 15.6664 17 14.5359 17 13.1332V6.8668C17 5.46415 17 4.33356 16.8792 3.44436C16.7537 2.52117 16.4852 1.74386 15.861 1.12651C15.2368 0.509164 14.4508 0.243632 13.5174 0.119512C12.6183 -3.66569e-05 11.4751 -2.00532e-05 10.0569 5.38413e-07Z" fill="currentcolor" fill-opacity="0.2" />
  <path fill-rule="evenodd" d="M7.14819 16.1345C7.14819 15.7203 7.49642 15.3845 7.92597 15.3845H12.0741C12.5037 15.3845 12.8519 15.7203 12.8519 16.1345C12.8519 16.5487 12.5037 16.8845 12.0741 16.8845H7.92597C7.49642 16.8845 7.14819 16.5487 7.14819 16.1345Z" fill="currentcolor" />
</svg>
