<svg width="20" height="20" viewBox="0 0 20 20" fill="currentcolor" xmlns="http://www.w3.org/2000/svg">
  <path fill-rule="evenodd" d="M10.0516 2.90109e-07H9.94842C8.26819 -1.41594e-05 6.93732 -2.56002e-05 5.89575 0.142452C4.82382 0.289082 3.95621 0.598028 3.27199 1.29418C2.58778 1.99033 2.28413 2.87308 2.14001 3.9637C1.99997 5.02343 1.99999 6.3775 2 8.08704V11.9129C1.99999 13.6225 1.99997 14.9766 2.14001 16.0363C2.28413 17.1269 2.58778 18.0097 3.27199 18.7058C3.95621 19.402 4.82382 19.7109 5.89575 19.8575C6.93731 20 8.26816 20 9.94838 20H10.0516C11.7318 20 13.0627 20 14.1043 19.8575C15.1762 19.7109 16.0438 19.402 16.728 18.7058C17.4122 18.0097 17.7159 17.1269 17.86 16.0363C18 14.9766 18 13.6225 18 11.913V8.08706C18 6.37754 18 5.02343 17.86 3.9637C17.7159 2.87308 17.4122 1.99033 16.728 1.29418C16.0438 0.598028 15.1762 0.289082 14.1043 0.142452C13.0627 -2.56002e-05 11.7318 -1.41594e-05 10.0516 2.90109e-07Z" fill="currentcolor" fill-opacity="0.2" />
  <path d="M9.99996 3.46411C9.45995 3.46411 9.02422 3.90996 9.02422 4.45739C9.02422 5.00483 9.45995 5.45067 9.99996 5.45067C10.54 5.45067 10.9757 5.00483 10.9757 4.45739C10.9757 3.90996 10.54 3.46411 9.99996 3.46411Z" fill="currentcolor" />
  <path fill-rule="evenodd" d="M9.99995 8.31388C7.58281 8.31388 5.62537 10.3107 5.62537 12.7713C5.62537 15.2319 7.58281 17.2287 9.99995 17.2287C12.4171 17.2287 14.3745 15.2319 14.3745 12.7713C14.3745 10.3107 12.4171 8.31388 9.99995 8.31388ZM7.12369 12.7713C7.12369 11.1504 8.41256 9.83856 9.99995 9.83856C11.5873 9.83856 12.8762 11.1504 12.8762 12.7713C12.8762 14.3921 11.5873 15.704 9.99995 15.704C8.41256 15.704 7.12369 14.3921 7.12369 12.7713Z" fill="currentcolor" />
</svg>
