<svg width="20" height="20" viewBox="0 0 20 20" fill="currentcolor" xmlns="http://www.w3.org/2000/svg">
  <path fill-rule="evenodd" d="M14.9619 3.23006L13.5713 2.60562C13.4674 2.55896 13.3857 2.47045 13.3447 2.36003L12.5731 0.281261C12.4339 -0.093753 11.9275 -0.093754 11.7883 0.28126L11.0167 2.36003C10.9757 2.47045 10.8941 2.55896 10.7901 2.60562L9.39948 3.23006C9.05922 3.38285 9.05922 3.88825 9.39948 4.04104L10.7901 4.66548C10.8941 4.71215 10.9757 4.80065 11.0167 4.91107L11.7883 6.98984C11.9275 7.36486 12.4339 7.36486 12.5731 6.98984L13.3447 4.91107C13.3857 4.80065 13.4674 4.71215 13.5713 4.66548L14.9619 4.04104C15.3022 3.88825 15.3022 3.38285 14.9619 3.23006ZM17.8137 8.534L16.8198 8.06542C16.7427 8.02905 16.6827 7.96175 16.6533 7.87861L16.1182 6.36479C16.0164 6.07685 15.6277 6.07685 15.5259 6.36479L14.9907 7.87861C14.9614 7.96175 14.9014 8.02905 14.8242 8.06542L13.8304 8.534C13.5821 8.65106 13.5821 9.0204 13.8304 9.13745L14.8242 9.60603C14.9014 9.64241 14.9614 9.70971 14.9907 9.79284L15.5259 11.3067C15.6277 11.5946 16.0164 11.5946 16.1182 11.3067L16.6533 9.79284C16.6827 9.70971 16.7427 9.64241 16.8198 9.60603L17.8137 9.13745C18.0619 9.0204 18.0619 8.65106 17.8137 8.534Z" fill="currentcolor" fill-opacity="0.2" />
  <path d="M10.371 11.3568L13.4899 12.6848C13.9248 12.8699 13.9248 13.5191 13.4899 13.7043L10.371 15.0322C10.241 15.0876 10.1376 15.1957 10.0842 15.3323L8.39009 19.6599C8.21261 20.1133 7.6035 20.1133 7.42601 19.6599L5.73192 15.3323C5.67846 15.1957 5.5751 15.0876 5.44515 15.0322L2.3262 13.7043C1.89127 13.5191 1.89127 12.8699 2.3262 12.6848L5.44515 11.3568C5.5751 11.3015 5.67846 11.1934 5.73192 11.0568L7.42601 6.72911C7.6035 6.27572 8.21261 6.27572 8.39009 6.72911L10.0842 11.0568C10.1376 11.1934 10.241 11.3015 10.371 11.3568Z" fill="currentcolor" />
</svg>
