<svg width="20" height="20" viewBox="0 0 20 20" fill="currentColor" xmlns="http://www.w3.org/2000/svg">
  <path d="M9.5484 1.04802C9.84609 0.983992 10.1539 0.983992 10.4516 1.04802C11.1138 1.19047 11.5418 1.71292 11.8774 2.26471C12.2169 2.82301 12.5741 3.6082 13.013 4.57277L13.013 4.57283L13.034 4.61898C13.3301 5.2699 13.4006 5.38912 13.4881 5.46687C13.5222 5.49716 13.5591 5.52414 13.5982 5.54743C13.6987 5.60722 13.8331 5.63783 14.5394 5.72029L14.7123 5.74047C15.7058 5.85645 16.5148 5.95088 17.1183 6.09312C17.7139 6.23349 18.3128 6.46182 18.6587 7.00476C18.8592 7.31946 18.9758 7.68086 18.9973 8.05412C19.0344 8.6981 18.6832 9.23726 18.2833 9.70332C17.8781 10.1756 17.2787 10.7308 16.5426 11.4127L16.5074 11.4453C15.9576 11.9546 15.8619 12.065 15.8156 12.1773C15.7924 12.2334 15.7764 12.2922 15.7678 12.3523C15.7506 12.4726 15.7768 12.6168 15.9908 13.3376L16.0349 13.4861C16.3762 14.636 16.6531 15.5684 16.7701 16.2879C16.8854 16.9965 16.8931 17.7507 16.3854 18.3175C16.2571 18.4608 16.1104 18.5863 15.9492 18.6907C15.3116 19.1034 14.5737 18.9739 13.8978 18.7448C13.2117 18.5121 12.3426 18.0862 11.2708 17.5611L10.9424 17.4002C10.271 17.0712 10.1367 17.0239 10.0119 17.0229L9.9951 17.023C9.87029 17.0249 9.73637 17.0734 9.06759 17.4077L8.77201 17.5555L8.77192 17.5555C7.68942 18.0968 6.81211 18.5354 6.11951 18.776C5.4379 19.0128 4.69217 19.1488 4.04782 18.7301C3.89518 18.6309 3.75556 18.5128 3.63227 18.3784C3.11181 17.8113 3.11652 17.0482 3.23087 16.3314C3.34707 15.603 3.62524 14.6573 3.96848 13.4904L4.01356 13.3371C4.22544 12.6167 4.25124 12.4727 4.23381 12.3525C4.22515 12.2928 4.20913 12.2344 4.18613 12.1787C4.13981 12.0666 4.04423 11.9563 3.49512 11.4477L3.45991 11.415C2.72271 10.7321 2.12245 10.1761 1.71673 9.70313C1.31634 9.23635 0.964855 8.69631 1.00282 8.05136C1.02467 7.68 1.14069 7.32047 1.33978 7.00709C1.68556 6.46285 2.28516 6.23397 2.88156 6.09332C3.48589 5.95079 4.29609 5.85622 5.29114 5.74007L5.46057 5.72029C6.16688 5.63783 6.30126 5.60722 6.40174 5.54743C6.44089 5.52414 6.47776 5.49716 6.51185 5.46687C6.59938 5.38912 6.66981 5.2699 6.96596 4.61898L6.98695 4.57285L6.98695 4.57284C7.4258 3.60823 7.78303 2.82302 8.12259 2.26471C8.45818 1.71292 8.88613 1.19047 9.5484 1.04802Z" fill="currentColor" fill-opacity="0.2" />
</svg>
