<svg
  xmlns="http://www.w3.org/2000/svg"
  width="20"
  height="20"
  viewBox="0 0 20 20"
  fill="none"
>
  <path
    fill-rule="evenodd"
    clip-rule="evenodd"
    d="M11.8787 4.88328e-07H8.12126C6.8709 -1.81878e-05 5.86305 -3.3237e-05 5.0704 0.108395C4.24744 0.220968 3.55453 0.4618 3.00421 1.02172C2.45388 1.58164 2.21718 2.28664 2.10654 3.12395C1.99997 3.93043 1.99998 4.95584 2 6.22801V13.772C1.99998 15.0441 1.99997 16.0696 2.10654 16.876C2.21718 17.7134 2.45388 18.4184 3.00421 18.9783C3.55453 19.5382 4.24744 19.779 5.0704 19.8916C5.86306 20 6.87089 20 8.12126 20H11.8787C13.1291 20 14.1369 20 14.9296 19.8916C15.7526 19.779 16.4455 19.5382 16.9958 18.9783C17.5461 18.4184 17.7828 17.7134 17.8935 16.876C18 16.0696 18 15.0442 18 13.772V6.22803C18 4.95585 18 3.93044 17.8935 3.12395C17.7828 2.28664 17.5461 1.58164 16.9958 1.02172C16.4455 0.4618 15.7526 0.220968 14.9296 0.108395C14.1369 -3.32445e-05 13.1291 -1.81878e-05 11.8787 4.88328e-07Z"
    fill="currentColor"
    fill-opacity="0.2"
  />
  <path
    fill-rule="evenodd"
    clip-rule="evenodd"
    d="M7.48572 16.5116C7.48572 16.1263 7.79272 15.814 8.17143 15.814H11.8286C12.2073 15.814 12.5143 16.1263 12.5143 16.5116C12.5143 16.897 12.2073 17.2093 11.8286 17.2093H8.17143C7.79272 17.2093 7.48572 16.897 7.48572 16.5116Z"
    fill="currentColor"
  />
</svg>
