<svg width="20" height="20" viewBox="0 0 20 20" fill="currentColor" xmlns="http://www.w3.org/2000/svg">
  <path d="M11.901 2H8.09897C6.60812 1.99999 5.43386 1.99999 4.4995 2.09679C3.54426 2.19575 2.75973 2.40202 2.08253 2.86807C1.61587 3.18923 1.20997 3.58817 0.883211 4.04683C0.409035 4.71242 0.199163 5.48351 0.0984739 6.42237C-1.41263e-05 7.34071 -7.80638e-06 8.49484 1.42424e-07 9.96013V10.0399C-7.80638e-06 11.5052 -1.41263e-05 12.6593 0.0984739 13.5776C0.199163 14.5165 0.409035 15.2876 0.883211 15.9532C1.20997 16.4118 1.61587 16.8108 2.08253 17.1319C2.75973 17.598 3.54426 17.8043 4.4995 17.9032C5.43386 18 6.60811 18 8.09894 18H11.9011C13.3919 18 14.5661 18 15.5005 17.9032C16.4557 17.8043 17.2403 17.598 17.9175 17.1319C18.3841 16.8108 18.79 16.4118 19.1168 15.9532C19.591 15.2876 19.8008 14.5165 19.9015 13.5776C20 12.6593 20 11.5052 20 10.0399V9.96011C20 8.49482 20 7.34071 19.9015 6.42237C19.8008 5.48351 19.591 4.71242 19.1168 4.04683C18.79 3.58817 18.3841 3.18923 17.9175 2.86807C17.2403 2.40202 16.4557 2.19575 15.5005 2.09679C14.5661 1.99999 13.3919 1.99999 11.901 2Z" fill="currentColor" fill-opacity="0.2" />
  <path d="M8.54094 10.5689C8.70482 10.4304 8.79988 10.2291 8.80173 10.0167C8.80358 9.80425 8.71204 9.60139 8.55059 9.46015L5.57629 6.85804C5.26711 6.58755 4.79337 6.61462 4.51816 6.9185C4.24295 7.22238 4.27049 7.688 4.57967 7.95849L6.91411 10.0008L4.58932 11.9656C4.27548 12.2309 4.23983 12.6959 4.50971 13.0044C4.77959 13.3129 5.25279 13.3479 5.56663 13.0827L8.54094 10.5689Z" fill="currentColor" />
  <path d="M9.39262 12.0557C9.00731 12.0557 8.69495 12.3627 8.69495 12.7414C8.69495 13.1201 9.00731 13.4271 9.39262 13.4271L14.974 13.4271C15.3593 13.4271 15.6717 13.1201 15.6717 12.7414C15.6717 12.3627 15.3593 12.0557 14.974 12.0557L9.39262 12.0557Z" fill="currentColor" />
</svg>
