<svg
  xmlns="http://www.w3.org/2000/svg"
  width="20"
  height="20"
  viewBox="0 0 20 20"
  fill="none"
>
  <path
    fill-rule="evenodd"
    clip-rule="evenodd"
    d="M15.5459 3.80141C15.9222 3.62514 16.3701 3.78727 16.5464 4.16354C16.9824 5.09421 17.2256 6.13258 17.2256 7.22566V12.7743C17.2256 16.7649 13.9906 20 9.9999 20C9.33599 20 8.69184 19.9103 8.07947 19.7418C7.67883 19.6316 7.44339 19.2175 7.5536 18.8169C7.6638 18.4162 8.07791 18.1808 8.47855 18.291C8.96212 18.424 9.47209 18.4953 9.9999 18.4953C13.1595 18.4953 15.7209 15.9339 15.7209 12.7743V7.22566C15.7209 6.35774 15.5282 5.53691 15.1838 4.80188C15.0075 4.42561 15.1697 3.97768 15.5459 3.80141Z"
    fill="currentColor"
  />
  <path
    fill-rule="evenodd"
    clip-rule="evenodd"
    d="M2.77417 7.22573C2.77417 3.23507 6.00924 0 9.9999 0C11.5772 0 13.0386 0.506287 14.2273 1.36508C14.5641 1.60841 14.6399 2.0787 14.3966 2.41551C14.1532 2.75233 13.6829 2.82811 13.3461 2.58478C12.4053 1.90508 11.2505 1.50471 9.9999 1.50471C6.84027 1.50471 4.27888 4.0661 4.27888 7.22573V7.66852C4.27888 8.08403 3.94204 8.42087 3.52652 8.42087C3.11101 8.42087 2.77417 8.08403 2.77417 7.66852V7.22573Z"
    fill="currentColor"
  />
  <path
    fill-rule="evenodd"
    clip-rule="evenodd"
    d="M7.06014 5.33397C7.46457 5.42928 7.71517 5.8344 7.61986 6.23883C7.57739 6.41906 7.55475 6.60765 7.55475 6.8025V13.1975C7.55475 14.5479 8.64948 15.6427 9.9999 15.6427C10.1396 15.6427 10.276 15.631 10.4083 15.6088C10.8181 15.5401 11.2061 15.8165 11.2748 16.2263C11.3435 16.6361 11.0671 17.024 10.6573 17.0928C10.443 17.1287 10.2233 17.1474 9.9999 17.1474C7.81845 17.1474 6.05004 15.379 6.05004 13.1975V6.8025C6.05004 6.4906 6.08634 6.18621 6.15527 5.8937C6.25058 5.48926 6.6557 5.23866 7.06014 5.33397Z"
    fill="currentColor"
  />
  <path
    fill-rule="evenodd"
    clip-rule="evenodd"
    d="M3.52652 10.1334C3.94204 10.1334 4.27888 10.4702 4.27888 10.8857V12.7744C4.27888 14.3826 4.94145 15.8348 6.01047 16.875C6.30826 17.1648 6.31476 17.6411 6.02498 17.9389C5.7352 18.2367 5.25888 18.2432 4.96109 17.9534C3.61298 16.6416 2.77417 14.8053 2.77417 12.7744V10.8857C2.77417 10.4702 3.11101 10.1334 3.52652 10.1334Z"
    fill="currentColor"
    fill-opacity="0.2"
  />
  <path
    fill-rule="evenodd"
    clip-rule="evenodd"
    d="M8.68331 3.07773C9.09608 2.93184 9.53955 2.85278 9.99986 2.85278C12.1813 2.85278 13.9497 4.62119 13.9497 6.80264V13.1976C13.9497 13.658 13.8707 14.1014 13.7248 14.5142C13.5863 14.906 13.1565 15.1113 12.7647 14.9728C12.3729 14.8344 12.1676 14.4045 12.3061 14.0128C12.3958 13.7588 12.445 13.4848 12.445 13.1976V6.80264C12.445 5.45222 11.3503 4.35749 9.99986 4.35749C9.71273 4.35749 9.43871 4.40667 9.18474 4.49643C8.79298 4.6349 8.36314 4.42956 8.22468 4.0378C8.08621 3.64604 8.29154 3.2162 8.68331 3.07773Z"
    fill="currentColor"
    fill-opacity="0.2"
  />
  <path
    fill-rule="evenodd"
    clip-rule="evenodd"
    d="M9.9999 6.73994C10.4154 6.73994 10.7523 7.07678 10.7523 7.4923L10.7523 12.508C10.7523 12.9235 10.4154 13.2603 9.9999 13.2603C9.58439 13.2603 9.24755 12.9235 9.24755 12.508L9.24755 7.4923C9.24755 7.07678 9.58439 6.73994 9.9999 6.73994Z"
    fill="currentColor"
    fill-opacity="0.2"
  />
</svg>
