<svg
  xmlns="http://www.w3.org/2000/svg"
  width="20"
  height="20"
  viewBox="0 0 20 20"
  fill="none"
>
  <path
    d="M10 1C8.95234 1 8.19142 1.68007 7.52025 2.62156C6.85566 3.55383 6.15113 4.92659 5.26082 6.66136L3.02784 11.0122C2.24521 12.5371 1.62159 13.7521 1.28769 14.7309C0.946902 15.7298 0.843262 16.6639 1.34382 17.5083C1.84439 18.3526 2.70327 18.6924 3.72841 18.8478C4.73283 19 6.07675 19 7.76335 19H12.2366C13.9232 19 15.2672 19 16.2716 18.8478C17.2967 18.6924 18.1556 18.3526 18.6562 17.5083C19.1567 16.6639 19.0531 15.7298 18.7123 14.7309C18.3784 13.7521 17.7548 12.5371 16.9722 11.0122L14.7392 6.6614C13.8489 4.92661 13.1443 3.55384 12.4797 2.62156C11.8086 1.68007 11.0477 1 10 1Z"
    fill="currentColor"
    fill-opacity="0.2"
  />
  <path
    fill-rule="evenodd"
    clip-rule="evenodd"
    d="M10 6.6875C10.4142 6.6875 10.75 7.02329 10.75 7.4375V11.4375C10.75 11.8517 10.4142 12.1875 10 12.1875C9.58579 12.1875 9.25 11.8517 9.25 11.4375V7.4375C9.25 7.02329 9.58579 6.6875 10 6.6875Z"
    fill="currentColor"
  />
  <path
    d="M11 14.4375C11 14.9898 10.5523 15.4375 10 15.4375C9.44772 15.4375 9 14.9898 9 14.4375C9 13.8852 9.44772 13.4375 10 13.4375C10.5523 13.4375 11 13.8852 11 14.4375Z"
    fill="currentColor"
  />
</svg>
