<svg width="20" height="20" viewBox="0 0 20 20" fill="currentcolor" xmlns="http://www.w3.org/2000/svg">
  <path fill-rule="evenodd" d="M10.7764 2H5C2.64298 2 1.46447 2 0.732233 2.73223C0 3.46447 0 4.64298 0 7L2.50729e-06 13.76C2.75056e-06 14.901 0.853128 15.8428 1.95631 15.9822C2.26888 17.1445 3.33005 18 4.59104 18C5.84558 18 6.90235 17.1532 7.22092 16H11.0982C11.4168 17.1532 12.4736 18 13.7281 18C14.9747 18 16.026 17.164 16.3518 16.022C16.9867 16.022 17.5352 16.0199 17.9776 15.9604C18.4692 15.8943 18.9405 15.7452 19.3227 15.363C19.705 14.9807 19.854 14.5095 19.9201 14.0178C19.9818 13.5591 19.9818 12.9863 19.9817 12.3214L19.9817 10.6921C19.9817 10.1585 19.9817 9.70809 19.9477 9.33657C19.9118 8.94406 19.8339 8.57827 19.6421 8.22912C19.5152 7.99806 19.3557 7.78645 19.1686 7.60079C18.8858 7.32022 18.5557 7.14452 18.1883 7.00179C17.8405 6.86669 17.4076 6.74257 16.8947 6.59553L15 6.0523C14.9995 4.55406 14.9871 3.78463 14.6423 3.21144C14.4318 2.86137 14.1386 2.56822 13.7886 2.35766C13.1939 2 12.3881 2 10.7764 2ZM15 7.61274V12.8578C15.651 13.2014 16.1461 13.8007 16.3519 14.522C17.0125 14.5217 17.4503 14.5178 17.7777 14.4738C18.103 14.43 18.205 14.3594 18.2621 14.3023C18.3191 14.2452 18.3898 14.1433 18.4335 13.818C18.4801 13.4711 18.4817 13.0003 18.4817 12.272V11.4751L17 11.4751C16.5858 11.4751 16.25 11.1393 16.25 10.7251C16.25 10.3109 16.5858 9.97513 17 9.97513L18.4776 9.97512C18.474 9.77945 18.4671 9.61629 18.454 9.47338C18.4282 9.19172 18.3826 9.05178 18.3273 8.95121C18.2697 8.84619 18.1972 8.75 18.1121 8.66561C18.0307 8.5848 17.9087 8.5024 17.6451 8.39998C17.3689 8.2927 17.0026 8.18691 16.4495 8.02832L15 7.61274ZM4.59104 16.5C4.18532 16.5 3.82555 16.3033 3.60193 16C3.4517 15.7963 3.36292 15.5444 3.36292 15.2719C3.36292 14.5936 3.91277 14.0438 4.59104 14.0438C5.26931 14.0438 5.81917 14.5936 5.81917 15.2719C5.81917 15.5444 5.73038 15.7963 5.58015 16C5.35653 16.3033 4.99676 16.5 4.59104 16.5ZM13.7281 16.5C13.321 16.5 12.9602 16.3019 12.7368 15.9969C12.5879 15.7937 12.5 15.5431 12.5 15.2719C12.5 14.5936 13.0499 14.0438 13.7281 14.0438C14.2774 14.0438 14.7425 14.4044 14.8995 14.9018C14.9364 15.0186 14.9563 15.1429 14.9563 15.2719C14.9563 15.9502 14.4064 16.5 13.7281 16.5Z" fill="currentcolor" fill-opacity="0.2" />
  <path fill-rule="evenodd" d="M2.3125 5.04956C2.3125 4.63535 2.58588 4.29956 2.92311 4.29956H6.79834C7.13557 4.29956 7.40895 4.63535 7.40895 5.04956C7.40895 5.46377 7.13557 5.79956 6.79834 5.79956H2.92311C2.58588 5.79956 2.3125 5.46377 2.3125 5.04956Z" fill="currentcolor" />
  <path d="M4.85418e-07 8.30875C0.0126154 8.30956 0.0253246 8.30997 0.0381184 8.30997L5.64938 8.30997C6.01561 8.30997 6.3125 7.97418 6.3125 7.55997C6.3125 7.14575 6.01561 6.80997 5.64938 6.80997H0.0381185C0.0253294 6.80997 0.0126248 6.81038 1.452e-05 6.81118C0 6.87327 0 6.9362 0 7L4.85418e-07 8.30875Z" fill="currentcolor" />
  <path fill-rule="evenodd" d="M4.59104 16.5C5.26931 16.5 5.81917 15.9502 5.81917 15.2719C5.81917 14.5936 5.26931 14.0438 4.59104 14.0438C3.91277 14.0438 3.36292 14.5936 3.36292 15.2719C3.36292 15.9502 3.91277 16.5 4.59104 16.5ZM4.59104 18C6.09774 18 7.31917 16.7786 7.31917 15.2719C7.31917 13.7652 6.09774 12.5438 4.59104 12.5438C3.08434 12.5438 1.86292 13.7652 1.86292 15.2719C1.86292 16.7786 3.08434 18 4.59104 18Z" fill="currentcolor" />
  <path fill-rule="evenodd" d="M13.7281 16.5C14.4064 16.5 14.9563 15.9502 14.9563 15.2719C14.9563 14.5936 14.4064 14.0438 13.7281 14.0438C13.0498 14.0438 12.5 14.5936 12.5 15.2719C12.5 15.9502 13.0498 16.5 13.7281 16.5ZM13.7281 18C15.2348 18 16.4562 16.7786 16.4562 15.2719C16.4562 13.7652 15.2348 12.5438 13.7281 12.5438C12.2214 12.5438 11 13.7652 11 15.2719C11 16.7786 12.2214 18 13.7281 18Z" fill="currentcolor" />
</svg>
