<svg width="20" height="20" viewBox="0 0 20 20" fill="currentcolor" xmlns="http://www.w3.org/2000/svg">
  <path fill-rule="evenodd" d="M6.94371 2C7.79592 2.88244 8.3201 4.08319 8.3201 5.40625C8.3201 8.1159 6.12149 10.3125 3.40936 10.3125C2.08509 10.3125 0.883246 9.78879 0 8.93737L1.79035e-06 13.76C2.03384e-06 14.901 0.853907 15.8428 1.9581 15.9822C2.27096 17.1445 3.33309 18 4.59524 18C5.85093 18 6.90866 17.1532 7.22753 16H11.1084C11.4273 17.1532 12.485 18 13.7407 18C14.9884 18 16.0406 17.164 16.3668 16.022C17.0022 16.022 17.5512 16.0199 17.994 15.9604C18.4861 15.8943 18.9578 15.7452 19.3404 15.363C19.723 14.9807 19.8722 14.5095 19.9383 14.0178C20.0001 13.5591 20 12.9863 20 12.3214L20 10.6921C20 10.1585 20 9.70809 19.966 9.33657C19.93 8.94406 19.852 8.57827 19.6601 8.22912C19.5331 7.99806 19.3734 7.78645 19.1861 7.60079C18.9031 7.32022 18.5726 7.14452 18.2049 7.00179C17.8569 6.86669 17.4236 6.74258 16.9102 6.59555L15.0137 6.0523C15.0133 4.55406 15.0008 3.78463 14.6557 3.21144C14.445 2.86137 14.1516 2.56822 13.8012 2.35766C13.206 2 12.3994 2 10.7862 2H6.94371ZM15.0137 12.8578V7.61274L16.4645 8.02832C17.0182 8.18691 17.3848 8.2927 17.6612 8.39998C17.9251 8.5024 18.0472 8.5848 18.1287 8.66561C18.2138 8.75 18.2864 8.84619 18.3441 8.95121C18.3994 9.05178 18.445 9.19172 18.4709 9.47338C18.484 9.61629 18.4909 9.77945 18.4945 9.97512L17.0155 9.97513C16.601 9.97513 16.2649 10.3109 16.2649 10.7251C16.2649 11.1393 16.601 11.4751 17.0156 11.4751L18.4986 11.4751V12.272C18.4986 13.0003 18.497 13.4711 18.4504 13.818C18.4066 14.1433 18.3359 14.2452 18.2788 14.3023C18.2216 14.3594 18.1196 14.43 17.794 14.4738C17.4662 14.5178 17.028 14.5217 16.3668 14.522C16.1609 13.8007 15.6653 13.2014 15.0137 12.8578ZM3.60522 16C3.82905 16.3033 4.18915 16.5 4.59524 16.5C5.00133 16.5 5.36143 16.3033 5.58525 16C5.73562 15.7963 5.82449 15.5444 5.82449 15.2719C5.82449 14.5936 5.27413 14.0438 4.59524 14.0438C3.91634 14.0438 3.36599 14.5936 3.36599 15.2719C3.36599 15.5444 3.45486 15.7963 3.60522 16ZM12.7484 15.9969C12.9721 16.3019 13.3332 16.5 13.7407 16.5C14.4196 16.5 14.9699 15.9502 14.9699 15.2719C14.9699 15.1429 14.95 15.0186 14.9131 14.9018C14.756 14.4044 14.2905 14.0438 13.7407 14.0438C13.0618 14.0438 12.5114 14.5936 12.5114 15.2719C12.5114 15.5431 12.5994 15.7937 12.7484 15.9969Z" fill="currentcolor" fill-opacity="0.2" />
  <path fill-rule="evenodd" d="M0.0300232 4.95195C0.121673 4.26487 0.418325 3.64255 0.85652 3.14838C1.36323 2.57695 2.05921 2.17687 2.84632 2.0462C2.88224 2.04024 2.91835 2.03483 2.95464 2.03C3.16548 2.01876 3.39178 2.01172 3.63511 2.00732C5.4128 2.12344 6.8187 3.6008 6.8187 5.40622C6.8187 7.28744 5.29227 8.81247 3.40933 8.81247C1.60226 8.81247 0.123546 7.40786 0.00732422 5.6318C0.0117282 5.38869 0.0187685 5.1626 0.0300232 4.95195ZM3.59701 4.2031C3.59701 3.89716 3.41366 3.634 3.15075 3.51733C3.0577 3.47604 2.9547 3.4531 2.84632 3.4531C2.50322 3.4531 2.21389 3.68306 2.1243 3.99713C2.10563 4.06258 2.09564 4.13167 2.09564 4.2031V5.7031C2.09564 6.11731 2.43173 6.4531 2.84632 6.4531H4.34769C4.76229 6.4531 5.09838 6.11731 5.09838 5.7031C5.09838 5.28889 4.76229 4.9531 4.34769 4.9531H3.59701V4.2031Z" fill="currentcolor" />
  <path fill-rule="evenodd" d="M4.59521 16.5C5.2741 16.5 5.82446 15.9501 5.82446 15.2719C5.82446 14.5936 5.2741 14.0437 4.59521 14.0437C3.91631 14.0437 3.36596 14.5936 3.36596 15.2719C3.36596 15.9501 3.91631 16.5 4.59521 16.5ZM4.59521 18C6.10329 18 7.32583 16.7786 7.32583 15.2719C7.32583 13.7652 6.10329 12.5437 4.59521 12.5437C3.08713 12.5437 1.86459 13.7652 1.86459 15.2719C1.86459 16.7786 3.08713 18 4.59521 18Z" fill="currentcolor" />
  <path fill-rule="evenodd" d="M13.7407 16.5C14.4195 16.5 14.9699 15.9501 14.9699 15.2719C14.9699 14.5936 14.4195 14.0437 13.7407 14.0437C13.0618 14.0437 12.5114 14.5936 12.5114 15.2719C12.5114 15.9501 13.0618 16.5 13.7407 16.5ZM13.7407 18C15.2487 18 16.4713 16.7786 16.4713 15.2719C16.4713 13.7652 15.2487 12.5437 13.7407 12.5437C12.2326 12.5437 11.01 13.7652 11.01 15.2719C11.01 16.7786 12.2326 18 13.7407 18Z" fill="currentcolor" />
</svg>
