<svg
  xmlns="http://www.w3.org/2000/svg"
  width="20"
  height="20"
  viewBox="0 0 20 20"
  fill="none"
>
  <path
    fill-rule="evenodd"
    clip-rule="evenodd"
    d="M4.60462 16.5C5.28491 16.5 5.83639 15.9501 5.83639 15.2718C5.83639 14.5936 5.28491 14.0437 4.60462 14.0437C3.92434 14.0437 3.37286 14.5936 3.37286 15.2718C3.37286 15.9501 3.92434 16.5 4.60462 16.5ZM4.60462 18C6.11579 18 7.34084 16.7785 7.34084 15.2718C7.34084 13.7651 6.11579 12.5437 4.60462 12.5437C3.09345 12.5437 1.86841 13.7651 1.86841 15.2718C1.86841 16.7785 3.09345 18 4.60462 18Z"
    fill="currentColor"
  />
  <path
    fill-rule="evenodd"
    clip-rule="evenodd"
    d="M13.728 16.5C14.4083 16.5 14.9598 15.9501 14.9598 15.2718C14.9598 14.5936 14.4083 14.0437 13.728 14.0437C13.0477 14.0437 12.4963 14.5936 12.4963 15.2718C12.4963 15.9501 13.0477 16.5 13.728 16.5ZM13.728 18C15.2392 18 16.4642 16.7785 16.4642 15.2718C16.4642 13.7651 15.2392 12.5437 13.728 12.5437C12.2169 12.5437 10.9918 13.7651 10.9918 15.2718C10.9918 16.7785 12.2169 18 13.728 18Z"
    fill="currentColor"
  />
  <path
    d="M10.5453 2H5.01483C2.65082 2 1.46881 2 0.734405 2.73223C0 3.46447 0 4.64298 0 7L2.46803e-06 13.6586C2.70499e-06 14.778 0.840689 15.7016 1.92689 15.836C1.88851 15.654 1.86832 15.4653 1.86832 15.2719C1.86832 13.7652 3.09336 12.5438 4.60453 12.5438C6.1157 12.5438 7.34075 13.7652 7.34075 15.2719C7.34075 15.4713 7.3193 15.6656 7.27857 15.8529H11.0539C11.0132 15.6656 10.9917 15.4713 10.9917 15.2719C10.9917 13.7652 12.2168 12.5438 13.7279 12.5438C14.0843 12.5438 14.4247 12.6117 14.7369 12.7352V7.53651L16.4573 8.02829C17.012 8.18688 17.3795 8.29267 17.6564 8.39995C17.9209 8.50237 18.0432 8.58477 18.1249 8.66558C18.2102 8.74997 18.2829 8.84616 18.3407 8.95118C18.3961 9.05175 18.4418 9.19169 18.4677 9.47335C18.4808 9.61626 18.4878 9.77942 18.4914 9.97509L17.0094 9.9751C16.594 9.9751 16.2572 10.3109 16.2572 10.7251C16.2572 11.1393 16.594 11.4751 17.0094 11.4751L18.4955 11.4751V12.272C18.4955 13.0003 18.4939 13.4711 18.4472 13.8179C18.4033 14.1432 18.3325 14.2452 18.2752 14.3023C18.218 14.3594 18.1157 14.43 17.7894 14.4737C17.4611 14.5178 17.022 14.5217 16.3595 14.522C16.4276 14.7602 16.4642 15.0118 16.4642 15.2719C16.4642 15.532 16.4276 15.7837 16.3594 16.022C16.9961 16.0219 17.5462 16.0198 17.9899 15.9604C18.483 15.8943 18.9557 15.7452 19.339 15.363C19.7224 14.9807 19.8719 14.5094 19.9382 14.0178C20.0001 13.5591 20 12.9862 20 12.3213L20 10.692C20 10.1584 20 9.70805 19.9659 9.33654C19.9298 8.94403 19.8517 8.57824 19.6594 8.22909C19.5321 7.99803 19.3722 7.78642 19.1845 7.60076C18.9009 7.32019 18.5697 7.14449 18.2012 7.00176C17.8525 6.86667 17.4183 6.74255 16.9039 6.59552L14.7369 5.97607C14.7363 4.54079 14.7219 3.79909 14.396 3.24144C14.1778 2.86806 13.8663 2.55745 13.4918 2.3399C12.9067 2 12.1196 2 10.5453 2Z"
    fill="currentColor"
    fill-opacity="0.2"
  />
</svg>
