<svg
  xmlns="http://www.w3.org/2000/svg"
  width="20"
  height="20"
  viewBox="0 0 20 20"
  fill="none"
>
  <path
    fill-rule="evenodd"
    clip-rule="evenodd"
    d="M9.9855 12.9157C10.3909 12.9157 10.7196 13.2562 10.7196 13.6763V16.8031C10.7196 18.0164 9.77026 19 8.59921 19C7.79607 19 7.06186 18.5299 6.70268 17.7856L6.63723 17.65C6.45592 17.2743 6.6029 16.8174 6.96553 16.6295C7.32815 16.4417 7.7691 16.594 7.95042 16.9697L8.01587 17.1053C8.12634 17.3342 8.35218 17.4788 8.59921 17.4788C8.95941 17.4788 9.2514 17.1763 9.2514 16.8031V13.6763C9.2514 13.2562 9.58007 12.9157 9.9855 12.9157Z"
    fill="currentColor"
  />
  <path
    fill-rule="evenodd"
    clip-rule="evenodd"
    d="M9.98551 1C10.3909 1 10.7196 1.34052 10.7196 1.76058V2.69017C10.7196 3.11023 10.3909 3.45075 9.98551 3.45075C9.58009 3.45075 9.25142 3.11023 9.25142 2.69017V1.76058C9.25142 1.34052 9.58009 1 9.98551 1Z"
    fill="currentColor"
  />
  <path
    d="M3.82954 4.1926C5.25632 2.97009 7.25733 2.16455 9.98525 2.16455C12.7132 2.16455 14.7142 2.97009 16.141 4.1926C17.5479 5.39809 18.2796 6.9083 18.6609 8.12988L18.6768 8.1807C18.8012 8.57872 18.9571 9.28308 18.9907 9.71756C19.0116 9.98881 19.009 10.5745 18.8554 11.0836C18.7806 11.3312 18.6365 11.6767 18.3356 11.9158C17.9767 12.2009 17.5372 12.228 17.1285 12.064C16.8812 11.9648 16.6465 11.8444 16.4413 11.7371L16.3519 11.6903C16.1756 11.5977 16.0233 11.5179 15.8715 11.4493C15.5157 11.2887 15.3079 11.2616 15.1429 11.3071C14.7891 11.4048 14.4653 11.6586 14.2065 12.0853C13.9481 12.5113 13.4941 12.9407 12.8483 12.9897C12.2207 13.0373 11.675 12.7038 11.3434 12.2798C10.9176 11.7352 10.4387 11.488 9.98529 11.488C9.53188 11.488 9.05298 11.7352 8.62714 12.2797C8.29555 12.7038 7.74988 13.0373 7.12226 12.9897C6.47643 12.9407 6.02238 12.5113 5.76403 12.0853C5.50522 11.6586 5.18144 11.4048 4.8276 11.3071C4.66809 11.2631 4.49739 11.2855 4.16008 11.4444C4.0819 11.4812 3.98365 11.5323 3.87114 11.5908L3.87113 11.5908C3.57933 11.7424 3.19162 11.9439 2.80948 12.0761C2.41007 12.2144 1.96312 12.2112 1.58992 11.9193C1.26266 11.6634 1.13252 11.2886 1.07393 11.0312C0.961138 10.5357 1.00639 9.96416 1.02363 9.74638L1.0259 9.71756C1.05569 9.33198 1.15604 8.62121 1.2937 8.18079L1.30953 8.13011C1.69081 6.90853 2.42263 5.39809 3.82954 4.1926Z"
    fill="currentColor"
    fill-opacity="0.2"
  />
</svg>
