<svg
  xmlns="http://www.w3.org/2000/svg"
  width="20"
  height="20"
  viewBox="0 0 20 20"
  fill="none"
>
  <path
    d="M17.9468 12.6527C19.2222 13.3442 20.0001 14.5747 20.0001 15.9008L20.0001 16.1997C20.0001 16.3131 20.0002 16.4145 19.9888 16.5067C19.8923 17.2876 19.1972 17.9043 18.317 17.9899C18.2131 18 18.0988 18 17.9709 17.9999L14.6065 17.9999C14.4479 17.9999 14.3686 17.9999 14.3356 17.9548C14.3025 17.9096 14.2989 17.8191 14.3926 17.6933C15.5249 16.1735 15.1048 13.4285 14.1691 12.0365C14.0771 11.8997 14.0566 11.8168 14.0911 11.7678C14.1257 11.7189 14.2082 11.7221 14.3733 11.7285C15.4863 11.7716 16.9602 12.1178 17.9468 12.6527Z"
    fill="currentColor"
  />
  <path
    d="M14.4484 4.7428C12.7424 4.7428 11.1953 5.94692 11.1953 7.61798C11.1953 9.28905 12.7424 10.4932 14.4484 10.4932C16.1543 10.4932 17.7014 9.28905 17.7014 7.61798C17.7014 5.94692 16.1543 4.7428 14.4484 4.7428Z"
    fill="currentColor"
  />
  <path
    d="M6.98481 2C4.95347 2 3.14255 3.43033 3.14255 5.38045C3.14255 7.33056 4.95347 8.7609 6.98481 8.7609C9.01615 8.7609 10.8271 7.33056 10.8271 5.38045C10.8271 3.43033 9.01615 2 6.98481 2Z"
    fill="currentColor"
    fill-opacity="0.2"
  />
  <path
    d="M11.403 10.6874C8.69072 9.06311 5.27896 9.06311 2.56673 10.6874C0.972399 11.6423 1.66926e-05 13.3414 1.66926e-05 15.1725L8.18454e-06 15.5944C-5.37627e-05 15.7595 -0.000104643 15.895 0.0135496 16.017C0.129598 17.0541 0.965198 17.873 2.02345 17.9867C2.14796 18.0001 2.28622 18.0001 2.45468 18H11.515C11.6835 18.0001 11.8217 18.0001 11.9462 17.9867C13.0045 17.873 13.8401 17.0541 13.9561 16.017C13.9698 15.895 13.9697 15.7595 13.9697 15.5944L13.9697 15.1725C13.9697 13.3414 12.9973 11.6423 11.403 10.6874Z"
    fill="currentColor"
    fill-opacity="0.2"
  />
</svg>
