<svg width="20" height="20" viewBox="0 0 20 20" fill="currentcolor" xmlns="http://www.w3.org/2000/svg">
  <path fill-rule="evenodd" d="M10 0C7.47385 0 5.25 1.83479 5.25 4.3038C5.25 6.77281 7.47385 8.6076 10 8.6076C12.5261 8.6076 14.75 6.77281 14.75 4.3038C14.75 1.83479 12.5261 0 10 0Z" fill="currentcolor" fill-opacity="0.2" />
  <path d="M15.7219 20H4.27814C4.01982 20 3.89067 20 3.78199 19.9879C2.85001 19.8844 2.11412 19.1392 2.01192 18.1955C2 18.0854 2 17.9546 2 17.693V17.183C2 15.0888 3.07623 13.1455 4.84083 12.0535C8.00799 10.0935 11.992 10.0935 15.1592 12.0535C16.9238 13.1455 18 15.0888 18 17.183V17.693C18 17.9546 18 18.0854 17.9881 18.1955C17.8859 19.1392 17.15 19.8844 16.218 19.9879C16.1093 20 15.9802 20 15.7219 20Z" fill="currentcolor" />
</svg>
