<svg
  xmlns="http://www.w3.org/2000/svg"
  width="20"
  height="20"
  viewBox="0 0 20 20"
  fill="none"
>
  <path
    d="M8.19999 1C5.92645 1 3.92499 2.65131 3.92499 4.87343C3.92499 7.09554 5.92645 8.74685 8.19999 8.74685C10.4735 8.74685 12.475 7.09554 12.475 4.87343C12.475 2.65131 10.4735 1 8.19999 1Z"
    fill="currentColor"
    fill-opacity="0.2"
  />
  <path
    d="M18.2608 3.0094H14.6886C14.2803 3.0094 13.9493 3.34037 13.9493 3.74865C13.9493 4.15693 14.2803 4.4879 14.6886 4.4879L18.2608 4.4879C18.6691 4.4879 19.0001 4.15693 19.0001 3.74865C19.0001 3.34037 18.6691 3.0094 18.2608 3.0094Z"
    fill="currentColor"
  />
  <path
    d="M3.05032 19H13.3497C13.5822 19 13.6984 19 13.7962 18.9891C14.635 18.896 15.2973 18.2253 15.3893 17.3759C15.4 17.2769 15.4 17.1592 15.4 16.9237V16.4647C15.4 14.5799 14.4314 12.831 12.8433 11.8481C9.99281 10.0841 6.40719 10.0841 3.55675 11.8481C1.96861 12.831 1 14.5799 1 16.4647V16.9237C1 17.1592 1 17.2769 1.01073 17.3759C1.10271 18.2253 1.76501 18.896 2.60379 18.9891C2.7016 19 2.81784 19 3.05032 19Z"
    fill="currentColor"
  />
</svg>
