<svg
  xmlns="http://www.w3.org/2000/svg"
  width="20"
  height="20"
  viewBox="0 0 20 20"
  fill="none"
>
  <path
    d="M8.20004 1C5.92651 1 3.92505 2.65131 3.92505 4.87343C3.92505 7.09554 5.92651 8.74685 8.20004 8.74685C10.4736 8.74685 12.475 7.09554 12.475 4.87343C12.475 2.65131 10.4736 1 8.20004 1Z"
    fill="currentColor"
    fill-opacity="0.2"
  />
  <path
    d="M18.7263 1.32223C18.4084 1.06251 17.941 1.11067 17.6823 1.42979L15.9789 3.53096L15.1605 2.81211C14.852 2.54117 14.3832 2.57255 14.1133 2.88219C13.8434 3.19184 13.8747 3.66251 14.1831 3.93345L15.044 4.6897C15.155 4.78725 15.2876 4.90387 15.4155 4.98863C15.5701 5.09107 15.809 5.21078 16.1182 5.18451C16.4274 5.15825 16.6429 4.99993 16.7782 4.87287C16.8901 4.76775 17.0013 4.63043 17.0943 4.51557L18.8334 2.37032C19.0922 2.05119 19.0442 1.58195 18.7263 1.32223Z"
    fill="currentColor"
  />
  <path
    d="M3.05032 19.0001H13.3497C13.5821 19.0001 13.6984 19.0001 13.7962 18.9892C14.635 18.8961 15.2973 18.2254 15.3892 17.376C15.4 17.2769 15.4 17.1592 15.4 16.9238V16.4647C15.4 14.58 14.4314 12.831 12.8432 11.8482C9.99279 10.0842 6.40718 10.0842 3.55674 11.8482C1.9686 12.831 1 14.58 1 16.4647V16.9238C1 17.1592 1 17.2769 1.01073 17.376C1.10271 18.2254 1.76501 18.8961 2.60378 18.9892C2.7016 19.0001 2.81784 19.0001 3.05032 19.0001Z"
    fill="currentColor"
  />
</svg>
