<svg
  xmlns="http://www.w3.org/2000/svg"
  width="20"
  height="20"
  viewBox="0 0 20 20"
  fill="none"
>
  <path
    fill-rule="evenodd"
    clip-rule="evenodd"
    d="M8.19999 1C5.92645 1 3.92499 2.65131 3.92499 4.87343C3.92499 7.09554 5.92645 8.74685 8.19999 8.74685C10.4735 8.74685 12.475 7.09554 12.475 4.87343C12.475 2.65131 10.4735 1 8.19999 1Z"
    fill="currentColor"
    fill-opacity="0.2"
  />
  <path
    d="M15.7801 1.90003C15.7801 1.48858 16.1137 1.15503 16.5251 1.15503C16.9366 1.15503 17.2701 1.48858 17.2701 1.90003V2.95503L18.3251 2.95503C18.7366 2.95503 19.0701 3.28858 19.0701 3.70003C19.0701 4.11149 18.7366 4.44504 18.3251 4.44504L17.2701 4.44504V5.50004C17.2701 5.91149 16.9366 6.24504 16.5251 6.24504C16.1137 6.24504 15.7801 5.91149 15.7801 5.50004V4.44504L14.7251 4.44503C14.3137 4.44503 13.9801 4.11149 13.9801 3.70003C13.9801 3.28858 14.3137 2.95503 14.7251 2.95503L15.7801 2.95503V1.90003Z"
    fill="currentColor"
  />
  <path
    d="M3.05032 19.0001H13.3497C13.5822 19.0001 13.6984 19.0001 13.7962 18.9892C14.635 18.8961 15.2973 18.2254 15.3893 17.376C15.4 17.2769 15.4 17.1592 15.4 16.9238V16.4647C15.4 14.58 14.4314 12.831 12.8433 11.8482C9.99281 10.0842 6.40719 10.0842 3.55675 11.8482C1.96861 12.831 1 14.58 1 16.4647V16.9238C1 17.1592 1 17.2769 1.01073 17.376C1.10271 18.2254 1.76501 18.8961 2.60379 18.9892C2.7016 19.0001 2.81784 19.0001 3.05032 19.0001Z"
    fill="currentColor"
  />
</svg>
