<svg
  xmlns="http://www.w3.org/2000/svg"
  width="20"
  height="20"
  viewBox="0 0 20 20"
  fill="none"
>
  <path
    fill-rule="evenodd"
    clip-rule="evenodd"
    d="M1.75272 11.7563C2.16843 11.7563 2.50543 12.0933 2.50543 12.5091V13.0109C2.50543 13.824 2.50582 14.3969 2.53596 14.8468C2.56565 15.2902 2.62179 15.56 2.70789 15.7722C2.98832 16.4634 3.53659 17.0117 4.22781 17.2921C4.44004 17.3782 4.70982 17.4343 5.15317 17.464C5.6031 17.4942 6.17598 17.4946 6.98914 17.4946C7.40485 17.4946 7.74185 17.8316 7.74185 18.2473C7.74185 18.663 7.40485 19 6.98914 19H6.96249C6.18201 19 5.55873 19 5.05257 18.9661C4.53407 18.9314 4.08476 18.8587 3.66185 18.6871C2.59361 18.2537 1.74628 17.4064 1.31289 16.3381C1.14132 15.9152 1.06862 15.4659 1.03389 14.9474C0.999992 14.4413 0.999996 13.818 1 13.0375L1 12.5091C1 12.0933 1.337 11.7563 1.75272 11.7563Z"
    fill="currentColor"
    fill-opacity="0.2"
  />
  <path
    fill-rule="evenodd"
    clip-rule="evenodd"
    d="M1.75272 8.24366C2.16843 8.24366 2.50543 7.90666 2.50543 7.49095V6.98914C2.50543 6.17598 2.50582 5.6031 2.53596 5.15317C2.56565 4.70982 2.62179 4.44004 2.70789 4.22781C2.98832 3.53659 3.53659 2.98832 4.22781 2.70789C4.44004 2.62179 4.70982 2.56565 5.15317 2.53596C5.6031 2.50582 6.17598 2.50543 6.98914 2.50543C7.40485 2.50543 7.74185 2.16843 7.74185 1.75272C7.74185 1.337 7.40485 1 6.98914 1H6.96249C6.18201 0.999996 5.55873 0.999992 5.05257 1.03389C4.53407 1.06862 4.08476 1.14132 3.66185 1.31289C2.59361 1.74628 1.74628 2.59361 1.31289 3.66185C1.14132 4.08476 1.06862 4.53407 1.03389 5.05257C0.999992 5.55873 0.999996 6.18202 1 6.9625L1 7.49095C1 7.90666 1.337 8.24366 1.75272 8.24366Z"
    fill="currentColor"
    fill-opacity="0.2"
  />
  <path
    fill-rule="evenodd"
    clip-rule="evenodd"
    d="M18.2473 12.2581C18.663 12.2581 19 12.5951 19 13.0109V13.0375C19 13.818 19 14.4413 18.9661 14.9474C18.9314 15.4659 18.8587 15.9152 18.6871 16.3381C18.2537 17.4064 17.4064 18.2537 16.3381 18.6871C15.9152 18.8587 15.4659 18.9314 14.9474 18.9661C14.4413 19 13.818 19 13.0375 19H12.5091C12.0933 19 11.7563 18.663 11.7563 18.2473C11.7563 17.8316 12.0933 17.4946 12.5091 17.4946H13.0109C13.824 17.4946 14.3969 17.4942 14.8468 17.464C15.2902 17.4343 15.56 17.3782 15.7722 17.2921C16.4634 17.0117 17.0117 16.4634 17.2921 15.7722C17.3782 15.56 17.4343 15.2902 17.464 14.8468C17.4942 14.3969 17.4946 13.824 17.4946 13.0109C17.4946 12.5951 17.8316 12.2581 18.2473 12.2581Z"
    fill="currentColor"
    fill-opacity="0.2"
  />
  <path
    fill-rule="evenodd"
    clip-rule="evenodd"
    d="M14.8468 2.53596C14.3969 2.50582 13.824 2.50543 13.0109 2.50543C12.5951 2.50543 12.2581 2.16843 12.2581 1.75272C12.2581 1.337 12.5951 1 13.0109 1L13.0375 1C13.818 0.999996 14.4413 0.999992 14.9474 1.03389C15.4659 1.06862 15.9152 1.14132 16.3381 1.31289C17.4064 1.74628 18.2537 2.59361 18.6871 3.66185C18.8587 4.08476 18.9314 4.53407 18.9661 5.05257C19 5.55873 19 6.18201 19 6.96249V7.49095C19 7.90666 18.663 8.24366 18.2473 8.24366C17.8316 8.24366 17.4946 7.90666 17.4946 7.49095V6.98914C17.4946 6.17598 17.4942 5.6031 17.464 5.15317C17.4343 4.70982 17.3782 4.44004 17.2921 4.22781C17.0117 3.53659 16.4634 2.98832 15.7722 2.70789C15.56 2.62179 15.2902 2.56565 14.8468 2.53596Z"
    fill="currentColor"
    fill-opacity="0.2"
  />
  <path
    fill-rule="evenodd"
    clip-rule="evenodd"
    d="M4.98196 7.27153C5.39768 7.27153 5.73468 7.60854 5.73468 8.02425V11.976C5.73468 12.3917 5.39768 12.7287 4.98196 12.7287C4.56625 12.7287 4.22925 12.3917 4.22925 11.976V8.02425C4.22925 7.60854 4.56625 7.27153 4.98196 7.27153Z"
    fill="currentColor"
  />
  <path
    fill-rule="evenodd"
    clip-rule="evenodd"
    d="M7.49102 6.0861C7.90673 6.0861 8.24373 6.42311 8.24373 6.83882L8.24373 13.1616C8.24373 13.5773 7.90673 13.9143 7.49102 13.9143C7.0753 13.9143 6.7383 13.5773 6.7383 13.1616L6.7383 6.83882C6.7383 6.42311 7.0753 6.0861 7.49102 6.0861Z"
    fill="currentColor"
  />
  <path
    fill-rule="evenodd"
    clip-rule="evenodd"
    d="M10.0001 5.29565C10.4158 5.29565 10.7528 5.63266 10.7528 6.04837L10.7528 13.9519C10.7528 14.3676 10.4158 14.7046 10.0001 14.7046C9.58435 14.7046 9.24735 14.3676 9.24735 13.9519L9.24735 6.04837C9.24735 5.63266 9.58435 5.29565 10.0001 5.29565Z"
    fill="currentColor"
  />
  <path
    fill-rule="evenodd"
    clip-rule="evenodd"
    d="M12.5091 6.0861C12.9248 6.0861 13.2618 6.42311 13.2618 6.83882V13.1616C13.2618 13.5773 12.9248 13.9143 12.5091 13.9143C12.0934 13.9143 11.7564 13.5773 11.7564 13.1616L11.7564 6.83882C11.7564 6.42311 12.0934 6.0861 12.5091 6.0861Z"
    fill="currentColor"
  />
  <path
    fill-rule="evenodd"
    clip-rule="evenodd"
    d="M15.0182 7.27153C15.4339 7.27153 15.7709 7.60854 15.7709 8.02425V11.976C15.7709 12.3917 15.4339 12.7287 15.0182 12.7287C14.6025 12.7287 14.2655 12.3917 14.2655 11.976V8.02425C14.2655 7.60854 14.6025 7.27153 15.0182 7.27153Z"
    fill="currentColor"
  />
</svg>
