<svg
  xmlns="http://www.w3.org/2000/svg"
  width="20"
  height="20"
  viewBox="0 0 20 20"
  fill="none"
>
  <path
    fill-rule="evenodd"
    clip-rule="evenodd"
    d="M5.47814 15.2649C5.65439 15.3473 5.8133 15.474 6.31596 15.8975L8.04358 17.3529C8.53924 17.7705 9.17053 18 9.82336 18C11.3337 18 12.5582 16.7966 12.5582 15.3121V4.68791C12.5582 3.20342 11.3337 2 9.82336 2C9.17053 2 8.53924 2.22953 8.04358 2.6471L6.31596 4.10253C5.8133 4.52599 5.65439 4.65267 5.47814 4.73512C5.3019 4.81757 5.10165 4.85891 4.45029 4.97531L4.19382 5.02114C3.3922 5.16437 2.73276 5.2822 2.21112 5.43702C1.6649 5.59914 1.19597 5.82155 0.817571 6.21829C0.738115 6.3016 0.663612 6.38934 0.594432 6.48108C0.264967 6.91796 0.126218 7.41121 0.0616411 7.9684C-2.91839e-05 8.50051 -1.5773e-05 9.15927 5.277e-07 9.96005V10.0399C-1.5773e-05 10.8407 -2.91839e-05 11.4995 0.0616411 12.0316C0.126218 12.5888 0.264967 13.082 0.594432 13.5189C0.663613 13.6107 0.738117 13.6984 0.817569 13.7817C1.19597 14.1785 1.6649 14.4009 2.21111 14.563C2.73275 14.7178 3.39219 14.8356 4.1938 14.9789L4.45029 15.0247C5.10165 15.1411 5.3019 15.1824 5.47814 15.2649Z"
    fill="currentColor"
    fill-opacity="0.2"
  />
  <path
    d="M14.3193 3.06945C13.9091 2.98159 13.5023 3.23638 13.4122 3.64138C13.322 4.04678 13.584 4.44545 13.9946 4.53339C16.5579 5.08249 18.4753 7.32303 18.4753 9.9999C18.4753 12.6768 16.5579 14.9173 13.9946 15.4664C13.584 15.5544 13.322 15.953 13.4122 16.3584C13.5023 16.7634 13.9091 17.0182 14.3193 16.9304C17.5667 16.2347 20 13.3977 20 9.9999C20 6.60214 17.5667 3.76508 14.3193 3.06945Z"
    fill="currentColor"
  />
  <path
    d="M14.8725 6.72905C14.4766 6.59175 14.0409 6.79494 13.9002 7.1855C13.7593 7.57665 13.9687 8.00449 14.3652 8.14197C15.1468 8.41305 15.7041 9.14403 15.7041 9.99986C15.7041 10.8557 15.1468 11.5867 14.3652 11.8577C13.9687 11.9952 13.7593 12.4231 13.9002 12.8142C14.0409 13.2048 14.4766 13.408 14.8725 13.2707C16.2435 12.7952 17.2287 11.5119 17.2287 9.99986C17.2287 8.48782 16.2435 7.20449 14.8725 6.72905Z"
    fill="currentColor"
  />
</svg>
