<svg
  xmlns="http://www.w3.org/2000/svg"
  width="20"
  height="20"
  viewBox="0 0 20 20"
  fill="none"
>
  <path
    fill-rule="evenodd"
    clip-rule="evenodd"
    d="M6.95447 15.2649C7.12857 15.3473 7.28555 15.474 7.78209 15.8975L9.4887 17.3529C9.97833 17.7705 10.6019 18 11.2468 18C12.7388 18 13.9484 16.7966 13.9484 15.3121V4.68791C13.9484 3.20342 12.7388 2 11.2468 2C10.6019 2 9.97833 2.22953 9.4887 2.6471L7.7821 4.10253C7.28555 4.52599 7.12857 4.65267 6.95447 4.73512C6.78037 4.81757 6.58256 4.85891 5.93912 4.97531L5.68577 5.02114C4.8939 5.16437 4.24248 5.2822 3.72719 5.43702C3.18762 5.59914 2.72439 5.82155 2.35059 6.21829C2.2721 6.3016 2.19851 6.38934 2.13017 6.48108C1.80471 6.91796 1.66765 7.41121 1.60386 7.9684C1.54294 8.50051 1.54295 9.15927 1.54297 9.96005V10.0399C1.54295 10.8407 1.54294 11.4995 1.60386 12.0316C1.66765 12.5888 1.80471 13.082 2.13017 13.5189C2.19851 13.6107 2.27211 13.6984 2.35059 13.7817C2.72439 14.1785 3.18762 14.4009 3.72719 14.563C4.24248 14.7178 4.89389 14.8356 5.68576 14.9789L5.93912 15.0247C6.58256 15.1411 6.78037 15.1824 6.95447 15.2649Z"
    fill="currentColor"
    fill-opacity="0.2"
  />
  <path
    d="M16.1749 6.72914C15.7831 6.59143 15.3529 6.79552 15.2142 7.18575C15.0754 7.57616 15.2813 8.00412 15.6733 8.14189C16.4439 8.41274 16.9939 9.14349 16.9939 9.99986C16.9939 10.8562 16.4439 11.587 15.6733 11.8578C15.2813 11.9956 15.0754 12.4236 15.2142 12.814C15.3529 13.2042 15.7831 13.4083 16.1749 13.2706C17.5282 12.7949 18.4999 11.5114 18.4999 9.99986C18.4999 8.48835 17.5282 7.20479 16.1749 6.72914Z"
    fill="currentColor"
  />
</svg>
