<svg width="20" height="20" viewBox="0 0 20 20" fill="currentcolor" xmlns="http://www.w3.org/2000/svg">
  <path d="M6.31593 15.7017C5.81328 15.2842 5.65437 15.1593 5.47812 15.078C5.30188 14.9967 5.10163 14.956 4.45027 14.8412L4.19379 14.796C3.39218 14.6548 2.73274 14.5387 2.21111 14.386C1.6649 14.2262 1.19596 14.0069 0.817567 13.6157C0.738115 13.5336 0.663612 13.4471 0.594431 13.3567C0.264967 12.9259 0.126218 12.4396 0.0616418 11.8903C-2.7407e-05 11.3657 -1.48189e-05 10.7162 4.79883e-07 9.92673V9.84794C-1.48189e-05 9.05845 -2.74144e-05 8.40894 0.0616418 7.88433C0.126218 7.33499 0.264967 6.84869 0.594431 6.41796C0.66361 6.32752 0.738113 6.24101 0.817569 6.15887C0.934532 6.03797 1.06015 5.93348 1.19402 5.8421L12.5581 14.6517V15.1246C12.5581 16.5882 11.3337 17.7746 9.82333 17.7746C9.1705 17.7746 8.53921 17.5483 8.04355 17.1366L6.31593 15.7017Z" fill="currentcolor" fill-opacity="0.2" />
  <path d="M12.5581 11.2305L4.45027 4.9334C5.10163 4.81864 5.30188 4.77788 5.47812 4.69659C5.65437 4.61531 5.81328 4.49041 6.31594 4.07291L8.04355 2.63798C8.53921 2.22629 9.1705 2 9.82333 2C11.3337 2 12.5581 3.18647 12.5581 4.65005V11.2305Z" fill="currentcolor" fill-opacity="0.2" />
  <path d="M16.4279 15.92L15.2394 14.9987C17.228 14.1024 18.6046 12.1499 18.6046 9.88727C18.6046 7.19103 16.6493 4.93574 14.0372 4.38313C13.6607 4.30349 13.4222 3.94321 13.5044 3.57843C13.5866 3.21365 13.9584 2.98249 14.3348 3.06213C17.5742 3.74746 19.9999 6.54207 19.9999 9.88727C19.9999 12.4609 18.5638 14.7083 16.4279 15.92Z" fill="currentcolor" fill-opacity="0.2" />
  <path d="M13.9934 7.11159C14.1218 6.75956 14.5204 6.57505 14.8836 6.69947C16.2376 7.16319 17.2093 8.41438 17.2093 9.88723C17.2093 11.3467 16.2551 12.5886 14.9204 13.0622C14.9082 13.0665 14.8959 13.0708 14.8836 13.075C14.5204 13.1994 14.1218 13.0149 13.9934 12.6629C13.9515 12.5481 13.9435 12.4296 13.9644 12.3178C14.0075 12.0867 14.1738 11.884 14.4187 11.8002C15.2325 11.5214 15.8139 10.7692 15.8139 9.88723C15.8139 9.00521 15.2325 8.25304 14.4187 7.9743C14.0554 7.84987 13.865 7.46362 13.9934 7.11159Z" fill="currentcolor" fill-opacity="0.2" />
  <path fill-rule="evenodd" d="M0.152908 2.47909C0.393611 2.18754 0.832651 2.14027 1.13353 2.37351L19.7381 16.796C20.039 17.0293 20.0878 17.4547 19.8471 17.7463C19.6064 18.0378 19.1674 18.0851 18.8665 17.8518L0.261866 3.42933C-0.039014 3.19609 -0.0877962 2.77065 0.152908 2.47909Z" fill="currentcolor" />
</svg>
