<svg width="20" height="20" viewBox="0 0 20 20" fill="currentcolor" xmlns="http://www.w3.org/2000/svg">
  <path fill-rule="evenodd" d="M10.5908 2.31288L11.5568 2.71537C11.7209 2.78375 11.7209 3.01623 11.5568 3.0846L10.5908 3.4871C10.5335 3.51099 10.4905 3.56016 10.4745 3.62018L10.1931 4.67531C10.1403 4.87327 9.85943 4.87327 9.80664 4.67531L9.52527 3.62018C9.50927 3.56016 9.46628 3.51099 9.40895 3.4871L8.44296 3.0846C8.27886 3.01623 8.27886 2.78375 8.44296 2.71537L9.40895 2.31288C9.46628 2.28899 9.50927 2.23981 9.52527 2.1798L9.80664 1.12466C9.85943 0.926707 10.1403 0.926707 10.1931 1.12466L10.4745 2.1798C10.4905 2.23981 10.5335 2.28899 10.5908 2.31288ZM7.00184 3.67728L8.32618 4.22259C8.57388 4.32459 8.57388 4.67541 8.32618 4.7774L7.00184 5.32272C6.92122 5.35592 6.85903 5.42254 6.83146 5.50525L6.28448 7.14618C6.19331 7.41969 5.80644 7.41969 5.71527 7.14618L5.16829 5.50525C5.14072 5.42254 5.07853 5.35592 4.99791 5.32272L3.67357 4.7774C3.42587 4.67541 3.42587 4.32459 3.67357 4.22259L4.99791 3.67728C5.07853 3.64408 5.14072 3.57745 5.16829 3.49474L5.71527 1.85381C5.80644 1.5803 6.19331 1.5803 6.28448 1.85381L6.83146 3.49474C6.85903 3.57745 6.92122 3.64408 7.00184 3.67728ZM18.8717 14.7252L16.7623 13.8023C16.686 13.769 16.6271 13.7055 16.5995 13.627L15.7829 11.3048C15.6889 11.0375 15.3109 11.0375 15.2169 11.3048L14.4003 13.627C14.3727 13.7055 14.3138 13.769 14.2375 13.8023L12.1281 14.7252C11.8884 14.83 11.8884 15.17 12.1281 15.2749L14.2375 16.1978C14.3138 16.2311 14.3727 16.2946 14.4003 16.3731L15.2169 18.6952C15.3109 18.9625 15.6889 18.9625 15.7829 18.6952L16.5995 16.3731C16.6271 16.2946 16.686 16.2311 16.7623 16.1978L18.8717 15.2749C19.1113 15.17 19.1113 14.83 18.8717 14.7252ZM17.221 1.43537C16.6157 0.830058 15.6343 0.830059 15.029 1.43537L10.8217 5.64266L14.3572 9.17819L18.5645 4.9709C19.1698 4.36559 19.1698 3.38419 18.5645 2.77887L17.221 1.43537Z" fill="currentcolor" fill-opacity="0.2" />
  <path fill-rule="evenodd" d="M14.3573 9.1782L12.5151 7.33597L10.8218 5.64267L1.59405 14.8705C0.901263 15.5633 0.720737 16.7549 1.48799 17.5221L2.47793 18.5121C3.24518 19.2793 4.4368 19.0988 5.12958 18.406L14.3573 9.1782Z" fill="currentcolor" />
</svg>
