<svg
  xmlns="http://www.w3.org/2000/svg"
  width="20"
  height="20"
  viewBox="0 0 20 20"
  fill="none"
>
  <path
    fill-rule="evenodd"
    clip-rule="evenodd"
    d="M17.1852 1.45322C16.5817 0.848925 15.6032 0.848926 14.9996 1.45322L10.8047 5.65345L14.3298 9.18305L18.5248 4.98282C19.1283 4.37853 19.1283 3.39877 18.5248 2.79447L17.1852 1.45322Z"
    fill="currentColor"
    fill-opacity="0.2"
  />
  <path
    d="M6.17841 4.9266C6.42703 5.15209 6.7893 5.32855 7.14484 5.46101C7.58627 5.62548 7.80699 5.70772 7.80699 5.77999C7.80699 5.85226 7.58627 5.93449 7.14484 6.09896C6.7893 6.23143 6.42703 6.40789 6.17841 6.63338C5.87197 6.91131 5.64443 7.34877 5.48014 7.78397C5.28325 8.3055 5.1848 8.56627 5.11302 8.56627C5.04123 8.56627 4.94279 8.3055 4.7459 7.78397C4.5816 7.34877 4.35406 6.91131 4.04762 6.63338C3.799 6.40789 3.43674 6.23143 3.0812 6.09896C2.63976 5.93449 2.41904 5.85226 2.41904 5.77999C2.41904 5.70772 2.63976 5.62548 3.0812 5.46101C3.43674 5.32855 3.799 5.15209 4.04762 4.9266C4.35406 4.64866 4.5816 4.21121 4.7459 3.77601C4.94279 3.25447 5.04123 2.99371 5.11302 2.99371C5.1848 2.99371 5.28325 3.25448 5.48014 3.77601C5.64443 4.21121 5.87197 4.64866 6.17841 4.9266Z"
    fill="currentColor"
  />
  <path
    d="M9.74518 3.4122C9.90692 3.55889 10.1426 3.67368 10.3739 3.75986C10.661 3.86685 10.8046 3.92035 10.8046 3.96736C10.8046 4.01438 10.661 4.06787 10.3739 4.17487C10.1426 4.26104 9.90692 4.37583 9.74518 4.52252C9.54583 4.70333 9.3978 4.98791 9.29093 5.27102C9.16284 5.6103 9.0988 5.77994 9.0521 5.77994C9.0054 5.77994 8.94136 5.6103 8.81328 5.27102C8.7064 4.98791 8.55837 4.70333 8.35902 4.52252C8.19729 4.37583 7.96162 4.26104 7.73033 4.17487C7.44316 4.06787 7.29957 4.01438 7.29957 3.96736C7.29957 3.92035 7.44316 3.86685 7.73033 3.75986C7.96162 3.67368 8.19729 3.55889 8.35902 3.4122C8.55838 3.23139 8.7064 2.94681 8.81328 2.6637C8.94136 2.32442 9.0054 2.15479 9.0521 2.15479C9.0988 2.15479 9.16284 2.32443 9.29093 2.6637C9.39781 2.94681 9.54583 3.23139 9.74518 3.4122Z"
    fill="currentColor"
  />
  <path
    d="M16.7086 13.7373C17.0793 14.0735 17.6351 14.3299 18.1618 14.5154C18.7206 14.7122 19 14.8106 19 14.9025C19 14.9944 18.7206 15.0928 18.1618 15.2896C17.6351 15.4751 17.0793 15.7315 16.7086 16.0677C16.2523 16.4815 15.9242 17.1544 15.6964 17.7998C15.4626 18.4624 15.3457 18.7937 15.254 18.7937C15.1623 18.7937 15.0454 18.4624 14.8116 17.7998C14.5838 17.1544 14.2556 16.4815 13.7994 16.0677C13.4287 15.7315 12.8729 15.4751 12.3462 15.2896C11.7874 15.0928 11.508 14.9944 11.508 14.9025C11.508 14.8106 11.7874 14.7122 12.3462 14.5154C12.8729 14.3299 13.4287 14.0735 13.7994 13.7373C14.2556 13.3235 14.5838 12.6506 14.8116 12.0052C15.0454 11.3426 15.1623 11.0113 15.254 11.0113C15.3457 11.0113 15.4626 11.3426 15.6964 12.0052C15.9242 12.6506 16.2523 13.3235 16.7086 13.7373Z"
    fill="currentColor"
  />
  <path
    fill-rule="evenodd"
    clip-rule="evenodd"
    d="M14.3298 9.1829L10.8046 5.6533L1.60399 14.8656C0.913237 15.5573 0.733241 16.7469 1.49824 17.5128L2.48528 18.5011C3.25028 19.2671 4.43839 19.0869 5.12915 18.3952L14.3298 9.1829Z"
    fill="currentColor"
  />
</svg>
