<svg width="20" height="20" viewBox="0 0 20 20" fill="currentcolor" xmlns="http://www.w3.org/2000/svg">
  <path d="M2 9.9984C2 8.13741 2 7.20692 2.24472 6.45388C2.73931 4.93193 3.93273 3.7387 5.45492 3.24419C6.20808 2.99951 7.13872 2.99951 9 2.99951H11C12.8613 2.99951 13.7919 2.99951 14.5451 3.24419C16.0673 3.7387 17.2607 4.93193 17.7553 6.45388C18 7.20692 18 8.13741 18 9.9984C18 11.8594 18 12.7899 17.7553 13.5429C17.2607 15.0649 16.0673 16.2581 14.5451 16.7526C13.7919 16.9973 12.8613 16.9973 11 16.9973H9C7.13872 16.9973 6.20808 16.9973 5.45492 16.7526C3.93273 16.2581 2.73931 15.0649 2.24472 13.5429C2 12.7899 2 11.8594 2 9.9984Z" fill="currentcolor" fill-opacity="0.2" />
  <path d="M6.11548 3.09515C6.77573 2.99952 7.63909 2.99952 8.99995 2.99952H10.9999C12.3608 2.99952 13.2242 2.99952 13.8844 3.09515L13.4144 1.45033C13.2149 0.752268 13.1152 0.403238 12.8478 0.201619C12.5805 0 12.2175 0 11.4913 0H8.50855C7.78244 0 7.41939 0 7.15205 0.201619C6.88472 0.403238 6.78498 0.752268 6.5855 1.45033L6.11548 3.09515Z" fill="currentcolor" />
  <path d="M10.7547 7.23439C10.7547 6.80962 10.4168 6.46528 9.99995 6.46528C9.58314 6.46528 9.24524 6.80962 9.24524 7.23439V10.3108C9.24524 10.7356 9.58314 11.0799 9.99995 11.0799L12.2638 11.0802C12.6807 11.0803 13.0187 10.7361 13.0188 10.3113C13.0189 9.88655 12.6812 9.5421 12.2643 9.54196L10.7547 9.54171V7.23439Z" fill="currentcolor" />
  <path d="M6.11548 16.9048C6.77573 17.0005 7.63909 17.0005 8.99995 17.0005H10.9999C12.3608 17.0005 13.2242 17.0005 13.8844 16.9048L13.4144 18.5497C13.2149 19.2477 13.1152 19.5968 12.8478 19.7984C12.5805 20 12.2175 20 11.4913 20H8.50855C7.78244 20 7.41939 20 7.15205 19.7984C6.88472 19.5968 6.78498 19.2477 6.5855 18.5497L6.11548 16.9048Z" fill="currentcolor" />
</svg>
