<svg width="20" height="20" viewBox="0 0 20 20" fill="currentcolor" xmlns="http://www.w3.org/2000/svg">
  <path d="M3.99902 9.99786C3.99902 7.17152 3.99902 5.75834 4.87652 4.87987C4.87731 4.87908 4.8781 4.87828 4.87889 4.87749C5.75737 4 7.17054 4 9.99688 4C12.8232 4 14.2364 4 15.1149 4.87749C15.1157 4.87828 15.1165 4.87908 15.1173 4.87987C15.9947 5.75834 15.9947 7.17152 15.9947 9.99786V13.0021C15.9947 15.8285 15.9947 17.2417 15.1173 18.1201C15.1165 18.1209 15.1157 18.1217 15.1149 18.1225C14.2364 19 12.8232 19 9.99688 19C7.17054 19 5.75737 19 4.87889 18.1225C4.8781 18.1217 4.87731 18.1209 4.87652 18.1201C3.99902 17.2417 3.99902 15.8285 3.99902 13.0021V9.99786Z" fill="currentcolor" fill-opacity="0.2" />
  <path d="M9.53955 14.7966C9.67133 14.9117 9.84374 14.9814 10.0324 14.9814C10.2511 14.9814 10.448 14.8877 10.585 14.7383L12.5401 12.6765C12.825 12.3759 12.8125 11.9012 12.5121 11.6162C12.2117 11.3311 11.7371 11.3436 11.4522 11.6442L10.7821 12.3508L10.7821 9.16041C10.7821 8.7462 10.4464 8.41041 10.0323 8.41042C9.61826 8.41043 9.2826 8.74622 9.28261 9.16043L9.28265 12.3984L8.53218 11.6345C8.24194 11.3391 7.76725 11.335 7.47194 11.6254C7.17663 11.9157 7.17252 12.3906 7.46277 12.686L9.49762 14.7571C9.5076 14.7672 9.51784 14.7771 9.52832 14.7866C9.53203 14.79 9.53577 14.7933 9.53955 14.7966Z" fill="currentcolor" />
  <path d="M4.51171 1.00007C3.80919 0.999454 3.26487 0.998975 2.80389 1.16784C2.04439 1.44606 1.4459 2.04476 1.16778 2.80454C0.998975 3.26568 0.999455 3.8102 1.00007 4.51296L1.00015 4.64403L1.00007 4.77509C0.999455 5.47786 0.998975 6.02237 1.16778 6.48352C1.4459 7.24329 2.04439 7.84199 2.80389 8.12021C3.14937 8.24677 3.54164 8.27821 4.01224 8.28576C4.02377 7.7099 4.04847 7.21477 4.10136 6.78535C3.62994 6.77933 3.4538 6.76088 3.3195 6.71168C2.97427 6.58522 2.70223 6.31308 2.57581 5.96773C2.51114 5.79106 2.49962 5.54201 2.49962 4.64403C2.49962 3.74604 2.51114 3.497 2.57581 3.32033C2.70223 2.97497 2.97427 2.70284 3.3195 2.57637C3.49611 2.51168 3.74506 2.50015 4.64273 2.50015H15.3573C16.2549 2.50015 16.5039 2.51168 16.6805 2.57637C17.0257 2.70284 17.2978 2.97497 17.4242 3.32032C17.4889 3.497 17.5004 3.74604 17.5004 4.64403C17.5004 5.54201 17.4889 5.79106 17.4242 5.96773C17.2978 6.31308 17.0257 6.58522 16.6805 6.71168C16.5462 6.76088 16.3701 6.77933 15.8986 6.78535C15.9515 7.21477 15.9762 7.7099 15.9878 8.28576C16.4584 8.27821 16.8506 8.24677 17.1961 8.12021C17.9556 7.84199 18.5541 7.24329 18.8322 6.48352C19.001 6.02238 19.0005 5.47787 18.9999 4.77511L18.9999 4.64403L18.9999 4.51297C19.0005 3.81021 19.001 3.26568 18.8322 2.80454C18.5541 2.04476 17.9556 1.44606 17.1961 1.16784C16.7351 0.998975 16.1908 0.999454 15.4883 1.00007H4.51171Z" fill="currentcolor" />
</svg>
