<svg width="20" height="20" viewBox="0 0 20 20" fill="currentColor" xmlns="http://www.w3.org/2000/svg">
  <path d="M1.91174 10.3699C1.91174 5.87601 5.55368 2.23299 10.0462 2.23299C14.5388 2.23299 18.1807 5.87601 18.1807 10.3699C18.1807 14.8638 14.5388 18.5068 10.0462 18.5068C5.55368 18.5068 1.91174 14.8638 1.91174 10.3699Z" fill="currentColor" fill-opacity="0.2" />
  <path fill-rule="evenodd" d="M14.1529 1.36945C13.9484 1.72308 14.0692 2.17558 14.4227 2.38015C15.7481 3.14707 16.8536 4.25288 17.6203 5.57866C17.8248 5.93229 18.2771 6.05314 18.6307 5.84857C18.9842 5.64401 19.105 5.1915 18.9005 4.83787C18.0042 3.28802 16.7127 1.99608 15.1633 1.09954C14.8098 0.894972 14.3574 1.01581 14.1529 1.36945Z" fill="currentColor" />
  <path fill-rule="evenodd" d="M5.84712 1.36945C6.05162 1.72308 5.93082 2.17558 5.57729 2.38015C4.2519 3.14707 3.14643 4.25288 2.37974 5.57866C2.17523 5.93229 1.72286 6.05314 1.36934 5.84857C1.01581 5.64401 0.895004 5.1915 1.09951 4.83787C1.99578 3.28802 3.28733 1.99608 4.83672 1.09954C5.19025 0.894972 5.64262 1.01581 5.84712 1.36945Z" fill="currentColor" />
  <path fill-rule="evenodd" d="M10.0462 6.26894C10.4546 6.26894 10.7857 6.60012 10.7857 7.00866V10.8341L12.9457 11.9144C13.311 12.0971 13.4591 12.5414 13.2764 12.9068C13.0938 13.2722 12.6496 13.4204 12.2843 13.2376L9.7155 11.9529C9.46497 11.8276 9.30672 11.5714 9.30672 11.2912V7.00866C9.30672 6.60012 9.6378 6.26894 10.0462 6.26894Z" fill="currentColor" />
  <path d="M3.90584 15.707C3.88346 15.7248 3.86186 15.744 3.84119 15.7646L1.86919 17.7372C1.5804 18.0261 1.5804 18.4945 1.86919 18.7833C2.15798 19.0722 2.62621 19.0722 2.915 18.7833L4.887 16.8108C4.91485 16.7829 4.94002 16.7534 4.96251 16.7225C4.58057 16.4162 4.22684 16.0762 3.90584 15.707Z" fill="currentColor" />
  <path d="M15.0178 16.8108L16.9898 18.7833C17.2786 19.0722 17.7468 19.0722 18.0356 18.7833C18.3244 18.4945 18.3244 18.0261 18.0356 17.7372L16.1019 15.8029C15.772 16.1706 15.4091 16.5081 15.0178 16.8108Z" fill="currentColor" />
</svg>
