<svg width="20" height="20" viewBox="0 0 20 20" fill="currentColor" xmlns="http://www.w3.org/2000/svg">
  <path d="M8.5 1C8.0037 1.00009 7.58579 1.00176 7.24073 1.03015C6.85824 1.06161 6.49923 1.12966 6.16014 1.30383C5.64903 1.56637 5.23299 1.9824 4.97046 2.49351C4.79628 2.83261 4.72824 3.19161 4.69677 3.57411C4.66661 3.94081 4.66662 4.38979 4.66663 4.92768V4.98899C4.66662 5.52688 4.66661 5.97586 4.69677 6.34256C4.72824 6.72506 4.79628 7.08406 4.97046 7.42315C5.23299 7.93426 5.64903 8.3503 6.16014 8.61284C6.49923 8.78701 6.85824 8.85506 7.24073 8.88652C7.58579 8.91491 8.0037 8.91657 8.5 8.91666V1Z" fill="currentColor" fill-opacity="0.2" />
  <path d="M8.5 11.0833H4.92769C4.3898 11.0832 3.9408 11.0832 3.57411 11.1134C3.19161 11.1449 2.83261 11.2129 2.49352 11.3871C1.9824 11.6496 1.56637 12.0657 1.30383 12.5768C1.12966 12.9159 1.06161 13.2749 1.03015 13.6574C0.999982 14.0241 0.99999 14.473 1 15.0109V15.0722C0.99999 15.6101 0.999982 16.0591 1.03015 16.4258C1.06161 16.8083 1.12966 17.1673 1.30383 17.5064C1.56637 18.0175 1.9824 18.4336 2.49352 18.6961C2.83261 18.8703 3.19161 18.9383 3.57411 18.9698C3.94081 18.9999 4.38978 18.9999 4.92768 18.9999H8.5V11.0833Z" fill="currentColor" fill-opacity="0.2" />
  <path d="M10 18.9999V11.0833H15.0723C15.6102 11.0832 16.0592 11.0832 16.4259 11.1134C16.8084 11.1449 17.1674 11.2129 17.5065 11.3871C18.0176 11.6496 18.4336 12.0657 18.6962 12.5768C18.8703 12.9159 18.9384 13.2749 18.9699 13.6574C19 14.0241 19 14.473 19 15.0109V15.0722C19 15.6101 19 16.0591 18.9699 16.4258C18.9384 16.8083 18.8703 17.1673 18.6962 17.5064C18.4336 18.0175 18.0176 18.4336 17.5065 18.6961C17.1674 18.8703 16.8084 18.9383 16.4259 18.9698C16.0592 18.9999 15.6102 18.9999 15.0723 18.9999H10Z" fill="currentColor" fill-opacity="0.2" />
  <path d="M10 8.91667V1H11.4056C11.9435 0.99999 12.3925 0.999981 12.7592 1.03015C13.1417 1.06161 13.5007 1.12966 13.8398 1.30383C14.3509 1.56637 14.7669 1.9824 15.0295 2.49351C15.2036 2.83261 15.2717 3.19161 15.3031 3.57411C15.3333 3.94081 15.3333 4.38978 15.3333 4.92769V4.98898C15.3333 5.52689 15.3333 5.97586 15.3031 6.34256C15.2717 6.72506 15.2036 7.08406 15.0295 7.42315C14.7669 7.93426 14.3509 8.3503 13.8398 8.61284C13.5007 8.78701 13.1417 8.85506 12.7592 8.88652C12.3925 8.91669 11.9435 8.91668 11.4056 8.91667H10Z" fill="currentColor" fill-opacity="0.2" />
  <path fill-rule="evenodd" d="M10.75 0.25C11.1642 0.25 11.5 0.585786 11.5 1V19C11.5 19.4142 11.1642 19.75 10.75 19.75C10.3358 19.75 10 19.4142 10 19V1C10 0.585786 10.3358 0.25 10.75 0.25Z" fill="currentColor" />
</svg>
