<svg width="20" height="20" viewBox="0 0 20 20" fill="currentColor" xmlns="http://www.w3.org/2000/svg">
  <path fill-rule="evenodd" d="M17.0049 10C17.0049 9.58579 16.6691 9.25 16.2549 9.25H3.74505C3.33083 9.25 2.99505 9.58579 2.99505 10C2.99505 10.4142 3.33083 10.75 3.74505 10.75H16.2549C16.6691 10.75 17.0049 10.4142 17.0049 10Z" fill="currentColor" fill-opacity="0.2" />
  <path fill-rule="evenodd" d="M9.66696 4.73611C9.39178 4.42652 8.91772 4.39864 8.60813 4.67383L3.24679 9.43947C3.08667 9.58179 2.99506 9.78579 2.99506 10C2.99506 10.2143 3.08667 10.4183 3.24679 10.5606L8.60813 15.3262C8.91772 15.6014 9.39178 15.5735 9.66696 15.2639C9.94215 14.9543 9.91427 14.4803 9.60468 14.2051L4.87396 10L9.60468 5.79494C9.91427 5.51975 9.94215 5.0457 9.66696 4.73611Z" fill="currentColor" />
</svg>
