<svg width="20" height="20" viewBox="0 0 20 20" fill="currentColor" xmlns="http://www.w3.org/2000/svg">
  <rect y="2" width="20" height="16" rx="5" fill="currentColor" fill-opacity="0.2" />
  <path d="M6.25 7.63562C6.25 7.22141 5.91421 6.88562 5.5 6.88562C5.08579 6.88562 4.75 7.22141 4.75 7.63562V12.6356C4.75 13.0498 5.08579 13.3856 5.5 13.3856C5.91421 13.3856 6.25 13.0498 6.25 12.6356L6.25 7.63562Z" fill="currentColor" />
  <path d="M18.5 9.5V10.5C18.5 10.9659 18.5 11.1989 18.5761 11.3827C18.6776 11.6277 18.8723 11.8224 19.1173 11.9239C19.3011 12 19.5341 12 20 12V8C19.5341 8 19.3011 8 19.1173 8.07612C18.8723 8.17761 18.6776 8.37229 18.5761 8.61732C18.5 8.80109 18.5 9.03406 18.5 9.5Z" fill="currentColor" />
</svg>
