<svg width="20" height="20" viewBox="0 0 20 20" fill="currentColor" xmlns="http://www.w3.org/2000/svg">
  <rect y="2.20361" width="20" height="16" rx="5" fill="currentColor" fill-opacity="0.2" />
  <path fill-rule="evenodd" d="M11.3262 7.68377C11.5913 7.36556 11.5484 6.89264 11.2301 6.62747C10.9119 6.36229 10.439 6.40529 10.1738 6.72349L7.67384 9.72349C7.48754 9.94706 7.44738 10.2582 7.57082 10.5217C7.69425 10.7853 7.959 10.9536 8.25001 10.9536H10.1487L8.67384 12.7235C8.40867 13.0417 8.45166 13.5146 8.76987 13.7798C9.08808 14.045 9.561 14.002 9.82617 13.6838L12.3262 10.6838C12.5125 10.4602 12.5526 10.1491 12.4292 9.88552C12.3058 9.62198 12.041 9.45363 11.75 9.45363H9.85129L11.3262 7.68377ZM18.5 9.70361V10.7036C18.5 11.1696 18.5 11.4025 18.5761 11.5863C18.6776 11.8313 18.8723 12.026 19.1173 12.1275C19.3011 12.2036 19.5341 12.2036 20 12.2036V8.20361C19.5341 8.20361 19.3011 8.20361 19.1173 8.27973C18.8723 8.38123 18.6776 8.5759 18.5761 8.82093C18.5 9.0047 18.5 9.23767 18.5 9.70361Z" fill="currentColor" />
</svg>
