<svg width="20" height="20" viewBox="0 0 20 20" fill="currentColor" xmlns="http://www.w3.org/2000/svg">
  <path d="M5.58337 1.62464V3.15424C5.58337 3.56644 5.91916 3.90059 6.33337 3.90059C6.74759 3.90059 7.08337 3.56644 7.08337 3.15424V1.52124C7.78234 1.49999 8.58204 1.5 9.50078 1.5H10.4992C11.418 1.5 12.2177 1.49999 12.9166 1.52124V3.15846C12.9166 3.57065 13.2524 3.9048 13.6666 3.9048C14.0808 3.9048 14.4166 3.57065 14.4166 3.15846V1.62464C15.2602 1.73038 15.9718 1.93211 16.6029 2.33872C17.2249 2.73936 17.7546 3.26646 18.1572 3.88536C18.61 4.58153 18.81 5.37595 18.906 6.33856C19 7.28072 19 8.46096 19 9.95935V10.0407C19 10.8563 19 11.5778 18.9848 12.2178C18.1429 10.6512 16.483 9.58537 14.5729 9.58537C11.8115 9.58537 9.57288 11.813 9.57288 14.561C9.57288 16.1633 10.334 17.5887 11.5161 18.4988C11.1954 18.5 10.8578 18.5 10.5025 18.5H9.50073C7.99504 18.5 6.80904 18.5 5.86228 18.4065C4.89494 18.3109 4.09663 18.1119 3.39705 17.6613C2.77511 17.2606 2.24543 16.7335 1.84283 16.1146C1.38996 15.4185 1.19 14.6241 1.09397 13.6614C0.999987 12.7193 0.999993 11.5391 1 10.0407V9.95931C0.999995 9.00527 0.999991 8.18021 1.02425 7.46346C1.51349 7.42343 2.17123 7.37379 2.96069 7.32412C4.7621 7.2108 7.24572 7.09756 9.97587 7.09756C12.706 7.09756 15.1896 7.2108 16.9911 7.32412C17.7936 7.37461 18.46 7.42507 18.9516 7.46544C18.9378 7.05572 18.916 6.68138 18.8818 6.33856C18.8689 6.20891 18.8541 6.08231 18.837 5.95859C18.3679 5.92132 17.7762 5.87786 17.0857 5.83441C15.2621 5.71969 12.7457 5.60488 9.97587 5.60488C7.20602 5.60488 4.68965 5.71969 2.86605 5.83441C2.18742 5.87711 1.60423 5.91982 1.13906 5.95666C1.24878 5.16264 1.45127 4.48727 1.84283 3.88536C2.24543 3.26646 2.77511 2.73936 3.39705 2.33872C4.02824 1.93211 4.73981 1.73038 5.58337 1.62464Z" fill="currentColor" fill-opacity="0.2" />
  <path fill-rule="evenodd" d="M14.4958 11.131C12.6168 11.131 11.0935 12.6793 11.0935 14.5891C11.0935 16.4989 12.6168 18.0472 14.4958 18.0472C15.1715 18.0472 15.8012 17.847 16.3306 17.5018L17.0992 18.283C17.3839 18.5723 17.8455 18.5723 18.1303 18.283C18.415 17.9936 18.415 17.5244 18.1303 17.235L17.3616 16.4538C17.7012 15.9157 17.8982 15.2758 17.8982 14.5891C17.8982 12.6793 16.3749 11.131 14.4958 11.131ZM12.5516 14.5891C12.5516 13.4978 13.4221 12.6131 14.4958 12.6131C15.5696 12.6131 16.44 13.4978 16.44 14.5891C16.44 15.6804 15.5696 16.5651 14.4958 16.5651C13.4221 16.5651 12.5516 15.6804 12.5516 14.5891Z" fill="currentColor" />
</svg>
