<svg width="20" height="20" viewBox="0 0 20 20" fill="currentColor" xmlns="http://www.w3.org/2000/svg">
  <path d="M12.8199 1H7.18012C5.91773 0.999982 4.9002 0.999967 4.09992 1.10756C3.26905 1.21927 2.56948 1.45825 2.01386 2.01386C1.45825 2.56948 1.21927 3.26905 1.10756 4.09992C0.999967 4.9002 0.999982 5.91772 1 7.1801V12.8199C0.999982 14.0823 0.999967 15.0998 1.10756 15.9001C1.21927 16.731 1.45825 17.4305 2.01386 17.9861C2.56948 18.5418 3.26905 18.7807 4.09992 18.8924C4.9002 19 5.91773 19 7.18012 19H12.8199C14.0823 19 15.0998 19 15.9001 18.8924C16.731 18.7807 17.4305 18.5418 17.9861 17.9861C18.5418 17.4305 18.7807 16.731 18.8924 15.9001C19 15.0998 19 14.0823 19 12.8199V7.18012C19 5.91773 19 4.9002 18.8924 4.09992C18.7807 3.26905 18.5418 2.56948 17.9861 2.01386C17.4305 1.45825 16.731 1.21927 15.9001 1.10756C15.0998 0.999967 14.0823 0.999982 12.8199 1Z" fill="currentColor" fill-opacity="0.2" />
  <path d="M5.16319 10.9617C4.74218 10.9617 4.40088 11.303 4.40088 11.724V15.4163C4.40088 15.8373 4.74218 16.1786 5.16319 16.1786C5.5842 16.1786 5.92549 15.8373 5.92549 15.4163V11.724C5.92549 11.303 5.5842 10.9617 5.16319 10.9617Z" fill="currentColor" />
  <path d="M8.3878 6.34619C7.96678 6.34619 7.62549 6.68749 7.62549 7.1085L7.62549 15.4162C7.62549 15.8372 7.96679 16.1785 8.3878 16.1785C8.80881 16.1785 9.1501 15.8372 9.1501 15.4162L9.1501 7.1085C9.1501 6.68749 8.80881 6.34619 8.3878 6.34619Z" fill="currentColor" />
  <path d="M11.6124 8.19238C11.1914 8.19238 10.8501 8.53368 10.8501 8.95469L10.8501 15.4162C10.8501 15.8372 11.1914 16.1785 11.6124 16.1785C12.0334 16.1785 12.3747 15.8372 12.3747 15.4162L12.3747 8.95469C12.3747 8.53368 12.0334 8.19238 11.6124 8.19238Z" fill="currentColor" />
  <path d="M14.837 4.5C14.416 4.5 14.0747 4.8413 14.0747 5.26231L14.0747 15.4162C14.0747 15.8372 14.416 16.1785 14.837 16.1785C15.258 16.1785 15.5993 15.8372 15.5993 15.4162L15.5993 5.26231C15.5993 4.8413 15.258 4.5 14.837 4.5Z" fill="currentColor" />
</svg>
