<svg width="20" height="20" viewBox="0 0 20 20" fill="currentColor" xmlns="http://www.w3.org/2000/svg">
  <path d="M10 1C14.9706 1 19 5.02944 19 10C19 14.9706 14.9706 19 10 19C5.02944 19 1 14.9706 1 10C1 5.02944 5.02944 1 10 1Z" fill="currentColor" fill-opacity="0.2" />
  <path d="M12.0346 7.12902C12.3555 6.86157 12.8325 6.90493 13.0999 7.22587C13.3674 7.5468 13.324 8.02377 13.0031 8.29122L10.9525 10L13.0031 11.7088C13.324 11.9762 13.3674 12.4532 13.0999 12.7741C12.8325 13.0951 12.3555 13.1384 12.0346 12.871L9.28672 10.5811C9.11426 10.4374 9.01454 10.2245 9.01454 10C9.01454 9.77551 9.11426 9.56262 9.28672 9.4189L12.0346 7.12902Z" fill="currentColor" />
  <path d="M7.48112 6.95367C7.89888 6.95367 8.23755 7.29234 8.23755 7.7101V12.2899C8.23755 12.7076 7.89888 13.0463 7.48112 13.0463C7.06336 13.0463 6.7247 12.7076 6.7247 12.2899V7.7101C6.7247 7.29234 7.06336 6.95367 7.48112 6.95367Z" fill="currentColor" />
</svg>
