<svg width="20" height="20" viewBox="0 0 20 20" fill="currentColor" xmlns="http://www.w3.org/2000/svg">
  <path d="M5.67304 2.34476C4.56054 3.11563 3.66571 4.24295 3.50129 5.64191C2.01351 6.52113 1 8.09574 1 9.9165C1 11.4812 1.60217 12.7524 2.9355 13.8059C3.70034 14.4102 4.84031 14.779 6.04015 15.0047C7.26425 15.2349 8.65305 15.3342 10 15.3342C11.3504 15.3342 12.7394 15.2262 13.9623 14.9919C15.1618 14.7621 16.2946 14.394 17.0547 13.8135C17.7198 13.3056 18.2299 12.786 18.559 12.1312C18.889 11.4746 19 10.7562 19 9.9165C19 8.45125 18.3759 7.37124 17.5481 6.67044C16.9722 6.1829 16.2973 5.87777 15.6665 5.74402C15.5424 4.55019 15.0812 3.44421 14.2497 2.59305C13.2585 1.57851 11.8137 1 10 1C8.5005 1 6.90717 1.4896 5.67304 2.34476Z" fill="currentColor" fill-opacity="0.2" />
  <path fill-rule="evenodd" d="M5.65648 16.1587C6.05081 16.2901 6.26393 16.7163 6.13249 17.1106L5.67433 18.4852C5.5429 18.8795 5.11668 19.0926 4.72235 18.9612C4.32802 18.8297 4.11491 18.4035 4.24634 18.0092L4.7045 16.6347C4.83594 16.2404 5.26215 16.0273 5.65648 16.1587Z" fill="currentColor" />
  <path fill-rule="evenodd" d="M10.2383 16.1587C10.6326 16.2901 10.8458 16.7163 10.7143 17.1106L10.2562 18.4852C10.1247 18.8795 9.69851 19.0926 9.30418 18.9612C8.90985 18.8297 8.69673 18.4035 8.82817 18.0092L9.28633 16.6347C9.41776 16.2404 9.84398 16.0273 10.2383 16.1587Z" fill="currentColor" />
  <path fill-rule="evenodd" d="M14.8201 16.1587C15.2145 16.2901 15.4276 16.7163 15.2961 17.1106L14.838 18.4852C14.7066 18.8795 14.2803 19.0926 13.886 18.9612C13.4917 18.8297 13.2786 18.4035 13.41 18.0092L13.8682 16.6347C13.9996 16.2404 14.4258 16.0273 14.8201 16.1587Z" fill="currentColor" />
</svg>
