<svg width="20" height="20" viewBox="0 0 20 20" fill="currentColor" xmlns="http://www.w3.org/2000/svg">
  <path fill-rule="evenodd" d="M9.96367 1H10.0366C11.524 0.999995 12.69 0.99999 13.6245 1.0826C14.5765 1.16677 15.3597 1.34112 16.0597 1.73315C16.9849 2.2513 17.7488 3.01521 18.267 3.94043C18.659 4.64044 18.8334 5.42359 18.9175 6.37561C19.0001 7.31008 19.0001 8.47613 19.0001 9.96349V10.0365C19.0001 11.5239 19.0001 12.6899 18.9175 13.6244C18.8334 14.5764 18.659 15.3596 18.267 16.0596C17.7488 16.9848 16.9849 17.7487 16.0597 18.2669C15.3597 18.6589 14.5765 18.8332 13.6245 18.9174C12.69 19 11.524 19 10.0366 19H9.54179C9.12757 19 8.79179 18.6642 8.79179 18.25C8.79179 17.8358 9.12757 17.5 9.54179 17.5H10.0001C11.5318 17.5 12.6317 17.4993 13.4924 17.4232C14.3432 17.348 14.8884 17.2036 15.3268 16.9581C16.0106 16.5751 16.5753 16.0105 16.9582 15.3266C17.2037 14.8883 17.3481 14.3431 17.4233 13.4923C17.4994 12.6316 17.5001 11.5317 17.5001 10C17.5001 8.46831 17.4994 7.36843 17.4233 6.5077C17.3481 5.65688 17.2037 5.11172 16.9582 4.67336C16.5753 3.9895 16.0106 3.42487 15.3268 3.04189C14.8884 2.7964 14.3432 2.65199 13.4924 2.57678C12.6317 2.50068 11.5318 2.5 10.0001 2.5C8.46843 2.5 7.36855 2.50068 6.50782 2.57678C5.657 2.65199 5.11184 2.7964 4.67348 3.04189C3.98962 3.42487 3.42499 3.9895 3.04201 4.67336C2.79652 5.11172 2.65212 5.65688 2.5769 6.5077C2.50081 7.36843 2.50012 8.46831 2.50012 10V10.4583C2.50012 10.8725 2.16434 11.2083 1.75012 11.2083C1.33591 11.2083 1.00012 10.8725 1.00012 10.4583L1.00012 9.96355C1.00012 8.47617 1.00011 7.3101 1.08273 6.37561C1.16689 5.42359 1.34124 4.64044 1.73327 3.94043C2.25142 3.01521 3.01533 2.2513 3.94055 1.73315C4.64056 1.34112 5.42372 1.16677 6.37573 1.0826C7.31022 0.99999 8.47629 0.999995 9.96367 1Z" fill="currentColor" fill-opacity="0.2" />
  <path d="M9.5614 10.6084C9.49619 10.5613 9.43886 10.5039 9.39176 10.4387C9.37412 10.4143 9.35813 10.3891 9.34379 10.3632C9.28411 10.2556 9.25012 10.1318 9.25012 10V6.33333C9.25012 5.91912 9.58591 5.58333 10.0001 5.58333C10.4143 5.58333 10.7501 5.91912 10.7501 6.33333V8.18934L14.0532 4.8863C14.3461 4.5934 14.8209 4.5934 15.1138 4.8863C15.4067 5.17919 15.4067 5.65406 15.1138 5.94696L11.8108 9.25L13.6668 9.25C14.081 9.25 14.4168 9.58579 14.4168 10C14.4168 10.4142 14.081 10.75 13.6668 10.75L10.0001 10.75C9.83631 10.75 9.68476 10.6975 9.5614 10.6084Z" fill="currentColor" />
  <path d="M4.53063 12H4.46962C4.00543 12 3.61108 12 3.28782 12.0272C2.94835 12.0557 2.6198 12.1182 2.3077 12.2827C1.87051 12.5131 1.51323 12.8704 1.28278 13.3076C1.11827 13.6197 1.05582 13.9482 1.02728 14.2877C1.0001 14.611 1.00011 15.0053 1.00012 15.4695V15.5305C1.00011 15.9947 1.0001 16.3891 1.02728 16.7123C1.05582 17.0518 1.11827 17.3803 1.28278 17.6924C1.51323 18.1296 1.87051 18.4869 2.3077 18.7173C2.6198 18.8819 2.94835 18.9443 3.28782 18.9729C3.61108 19 4.0054 19 4.46959 19H4.53064C4.99483 19 5.38917 19 5.71243 18.9729C6.0519 18.9443 6.38044 18.8819 6.69255 18.7173C7.12974 18.4869 7.48702 18.1296 7.71746 17.6924C7.88198 17.3803 7.94443 17.0518 7.97297 16.7123C8.00015 16.3891 8.00014 15.9947 8.00012 15.5305V15.4695C8.00014 15.0053 8.00015 14.611 7.97297 14.2877C7.94443 13.9482 7.88198 13.6197 7.71746 13.3076C7.48702 12.8704 7.12974 12.5131 6.69255 12.2827C6.38044 12.1182 6.0519 12.0557 5.71243 12.0272C5.38917 12 4.99482 12 4.53063 12Z" fill="currentColor" />
</svg>
