<svg width="20" height="20" viewBox="0 0 20 20" fill="currentColor" xmlns="http://www.w3.org/2000/svg">
  <path fill-rule="evenodd" d="M3.94934 1.40735C5.91428 0.65187 8.25986 0.89808 10 2.56094C11.7401 0.89808 14.0857 0.65187 16.0507 1.40735C18.2415 2.24968 20 4.34818 20 7.10947C20 9.21775 19.0492 11.1183 17.7471 12.7876C16.4452 14.4566 14.743 15.9568 13.1361 17.2718L13.0997 17.3016C12.4983 17.7938 11.9933 18.2071 11.5438 18.4913C11.0678 18.7922 10.577 19 10 19C9.423 19 8.93222 18.7922 8.45616 18.4913C8.0067 18.2071 7.50171 17.7938 6.90027 17.3016L6.86386 17.2718C5.25702 15.9568 3.55481 14.4566 2.25293 12.7876C0.950832 11.1183 0 9.21775 0 7.10947C0 4.34818 1.75851 2.24968 3.94934 1.40735Z" fill="currentColor" fill-opacity="0.2" />
  <path fill-rule="evenodd" d="M8.94239 6.02944C9.24505 6.01713 9.52691 6.17968 9.66238 6.44467L11.4604 9.96177L11.8499 9.00949C11.9667 8.72386 12.2496 8.53657 12.5641 8.53657H15.1282C15.553 8.53657 15.8974 8.8734 15.8974 9.2889C15.8974 9.70441 15.553 10.0412 15.1282 10.0412H13.0849L12.2527 12.0761C12.1402 12.3512 11.8731 12.5361 11.5704 12.5484C11.2678 12.5607 10.9859 12.3981 10.8504 12.1331L9.0524 8.61604L8.66293 9.56831C8.54611 9.85394 8.26326 10.0412 7.94872 10.0412H5.38462C4.95978 10.0412 4.61539 9.70441 4.61539 9.2889C4.61539 8.8734 4.95978 8.53657 5.38462 8.53657H7.42792L8.26015 6.50171C8.37265 6.22664 8.63974 6.04175 8.94239 6.02944Z" fill="currentColor" />
</svg>
