<svg width="21" height="20" viewBox="0 0 21 20" fill="currentColor" xmlns="http://www.w3.org/2000/svg">
  <path fill-rule="evenodd" d="M13.6426 3H7.95749C6.46671 2.99998 5.27698 2.99997 4.34388 3.12178C3.37991 3.24762 2.58604 3.51453 1.958 4.12433C1.32996 4.73414 1.05507 5.50496 0.925472 6.44094C0.80002 7.34695 0.800033 8.50214 0.800049 9.94964V10.0504C0.800033 11.4979 0.80002 12.653 0.925472 13.5591C1.05507 14.495 1.32996 15.2659 1.958 15.8757C2.58604 16.4855 3.37991 16.7524 4.34388 16.8782C5.27698 17 6.46671 17 7.9575 17H13.6426C15.1334 17 16.3231 17 17.2562 16.8782C18.2202 16.7524 19.0141 16.4855 19.6421 15.8757C20.2701 15.2659 20.545 14.495 20.6746 13.5591C20.8001 12.653 20.8001 11.4979 20.8 10.0503V9.94965C20.8001 8.50215 20.8001 7.34696 20.6746 6.44094C20.545 5.50496 20.2701 4.73414 19.6421 4.12433C19.0141 3.51453 18.2202 3.24762 17.2562 3.12178C16.3231 2.99997 15.1334 2.99998 13.6426 3Z" fill="currentColor" fill-opacity="0.2" />
  <path fill-rule="evenodd" d="M7.19535 12.7096C7.19535 12.3355 7.50771 12.0322 7.89302 12.0322L13.4744 12.0322C13.8597 12.0322 14.1721 12.3355 14.1721 12.7096C14.1721 13.0838 13.8597 13.3871 13.4744 13.3871L7.89302 13.387C7.50771 13.387 7.19535 13.0838 7.19535 12.7096Z" fill="currentColor" />
  <path d="M4.63721 12.7096C4.63721 12.4127 4.63721 12.2642 4.72167 12.1643C4.73713 12.146 4.75441 12.1292 4.77325 12.1142C4.87616 12.0322 5.02907 12.0322 5.33488 12.0322C5.64069 12.0322 5.7936 12.0322 5.89652 12.1142C5.91536 12.1292 5.93263 12.146 5.94809 12.1643C6.03256 12.2642 6.03256 12.4127 6.03256 12.7096C6.03256 13.0066 6.03256 13.155 5.94809 13.255C5.93263 13.2733 5.91536 13.29 5.89652 13.305C5.7936 13.387 5.64069 13.387 5.33488 13.387C5.02907 13.387 4.87616 13.387 4.77325 13.305C4.75441 13.29 4.73713 13.2733 4.72167 13.255C4.63721 13.155 4.63721 13.0066 4.63721 12.7096Z" fill="currentColor" />
  <path d="M4.63721 9.99995C4.63721 9.70302 4.63721 9.55455 4.72167 9.45462C4.73713 9.43633 4.75441 9.41955 4.77325 9.40454C4.87616 9.32253 5.02907 9.32253 5.33488 9.32253C5.64069 9.32253 5.7936 9.32253 5.89652 9.40454C5.91536 9.41955 5.93263 9.43633 5.94809 9.45462C6.03256 9.55455 6.03256 9.70302 6.03256 9.99995C6.03256 10.2969 6.03256 10.4454 5.94809 10.5453C5.93263 10.5636 5.91536 10.5803 5.89652 10.5954C5.7936 10.6774 5.64069 10.6774 5.33488 10.6774C5.02907 10.6774 4.87616 10.6774 4.77325 10.5954C4.75441 10.5803 4.73713 10.5636 4.72167 10.5453C4.63721 10.4454 4.63721 10.2969 4.63721 9.99995Z" fill="currentColor" />
  <path d="M4.63721 7.29027C4.63721 6.99334 4.63721 6.84487 4.72167 6.74494C4.73713 6.72665 4.75441 6.70988 4.77325 6.69486C4.87616 6.61285 5.02907 6.61285 5.33488 6.61285C5.64069 6.61285 5.7936 6.61285 5.89652 6.69486C5.91536 6.70988 5.93263 6.72665 5.94809 6.74494C6.03256 6.84487 6.03256 6.99334 6.03256 7.29027C6.03256 7.58721 6.03256 7.73567 5.94809 7.8356C5.93263 7.8539 5.91536 7.87067 5.89652 7.88568C5.7936 7.96769 5.64069 7.96769 5.33488 7.96769C5.02907 7.96769 4.87616 7.96769 4.77325 7.88568C4.75441 7.87067 4.73713 7.8539 4.72167 7.8356C4.63721 7.73567 4.63721 7.58721 4.63721 7.29027Z" fill="currentColor" />
  <path d="M7.19535 7.29027C7.19535 6.99334 7.19535 6.84487 7.27981 6.74494C7.29527 6.72665 7.31255 6.70988 7.33139 6.69486C7.4343 6.61285 7.58721 6.61285 7.89302 6.61285C8.19883 6.61285 8.35174 6.61285 8.45466 6.69486C8.4735 6.70988 8.49077 6.72665 8.50623 6.74494C8.5907 6.84487 8.5907 6.99334 8.5907 7.29027C8.5907 7.58721 8.5907 7.73567 8.50623 7.8356C8.49077 7.8539 8.4735 7.87067 8.45466 7.88568C8.35174 7.96769 8.19883 7.96769 7.89302 7.96769C7.58721 7.96769 7.4343 7.96769 7.33139 7.88568C7.31255 7.87067 7.29527 7.8539 7.27981 7.8356C7.19535 7.73567 7.19535 7.58721 7.19535 7.29027Z" fill="currentColor" />
  <path d="M7.19535 9.99995C7.19535 9.70302 7.19535 9.55455 7.27981 9.45462C7.29527 9.43633 7.31255 9.41955 7.33139 9.40454C7.4343 9.32253 7.58721 9.32253 7.89302 9.32253C8.19883 9.32253 8.35174 9.32253 8.45466 9.40454C8.4735 9.41955 8.49077 9.43633 8.50623 9.45462C8.5907 9.55455 8.5907 9.70302 8.5907 9.99995C8.5907 10.2969 8.5907 10.4454 8.50623 10.5453C8.49077 10.5636 8.4735 10.5803 8.45466 10.5954C8.35174 10.6774 8.19883 10.6774 7.89302 10.6774C7.58721 10.6774 7.4343 10.6774 7.33139 10.5954C7.31255 10.5803 7.29527 10.5636 7.27981 10.5453C7.19535 10.4454 7.19535 10.2969 7.19535 9.99995Z" fill="currentColor" />
  <path d="M9.98604 7.29027C9.98604 6.99334 9.98604 6.84487 10.0705 6.74494C10.086 6.72665 10.1032 6.70988 10.1221 6.69486C10.225 6.61285 10.3779 6.61285 10.6837 6.61285C10.9895 6.61285 11.1424 6.61285 11.2454 6.69486C11.2642 6.70988 11.2815 6.72665 11.2969 6.74494C11.3814 6.84487 11.3814 6.99334 11.3814 7.29027C11.3814 7.58721 11.3814 7.73567 11.2969 7.8356C11.2815 7.8539 11.2642 7.87067 11.2454 7.88568C11.1424 7.96769 10.9895 7.96769 10.6837 7.96769C10.3779 7.96769 10.225 7.96769 10.1221 7.88568C10.1032 7.87067 10.086 7.8539 10.0705 7.8356C9.98604 7.73567 9.98604 7.58721 9.98604 7.29027Z" fill="currentColor" />
  <path d="M9.98604 9.99995C9.98604 9.70302 9.98604 9.55455 10.0705 9.45462C10.086 9.43633 10.1032 9.41955 10.1221 9.40454C10.225 9.32253 10.3779 9.32253 10.6837 9.32253C10.9895 9.32253 11.1424 9.32253 11.2454 9.40454C11.2642 9.41955 11.2815 9.43633 11.2969 9.45462C11.3814 9.55455 11.3814 9.70302 11.3814 9.99995C11.3814 10.2969 11.3814 10.4454 11.2969 10.5453C11.2815 10.5636 11.2642 10.5803 11.2454 10.5954C11.1424 10.6774 10.9895 10.6774 10.6837 10.6774C10.3779 10.6774 10.225 10.6774 10.1221 10.5954C10.1032 10.5803 10.086 10.5636 10.0705 10.5453C9.98604 10.4454 9.98604 10.2969 9.98604 9.99995Z" fill="currentColor" />
  <path d="M12.7767 9.99995C12.7767 9.70302 12.7767 9.55455 12.8612 9.45462C12.8767 9.43633 12.8939 9.41955 12.9128 9.40454C13.0157 9.32253 13.1686 9.32253 13.4744 9.32253C13.7802 9.32253 13.9331 9.32253 14.036 9.40454C14.0549 9.41955 14.0722 9.43633 14.0876 9.45462C14.1721 9.55455 14.1721 9.70302 14.1721 9.99995C14.1721 10.2969 14.1721 10.4454 14.0876 10.5453C14.0722 10.5636 14.0549 10.5803 14.036 10.5954C13.9331 10.6774 13.7802 10.6774 13.4744 10.6774C13.1686 10.6774 13.0157 10.6774 12.9128 10.5954C12.8939 10.5803 12.8767 10.5636 12.8612 10.5453C12.7767 10.4454 12.7767 10.2969 12.7767 9.99995Z" fill="currentColor" />
  <path d="M15.5674 9.99995C15.5674 9.70302 15.5674 9.55455 15.6519 9.45462C15.6674 9.43633 15.6846 9.41955 15.7035 9.40454C15.8064 9.32253 15.9593 9.32253 16.2651 9.32253C16.5709 9.32253 16.7238 9.32253 16.8267 9.40454C16.8456 9.41955 16.8629 9.43633 16.8783 9.45462C16.9628 9.55455 16.9628 9.70302 16.9628 9.99995C16.9628 10.2969 16.9628 10.4454 16.8783 10.5453C16.8629 10.5636 16.8456 10.5803 16.8267 10.5954C16.7238 10.6774 16.5709 10.6774 16.2651 10.6774C15.9593 10.6774 15.8064 10.6774 15.7035 10.5954C15.6846 10.5803 15.6674 10.5636 15.6519 10.5453C15.5674 10.4454 15.5674 10.2969 15.5674 9.99995Z" fill="currentColor" />
  <path d="M15.5674 12.7096C15.5674 12.4127 15.5674 12.2642 15.6519 12.1643C15.6674 12.146 15.6846 12.1292 15.7035 12.1142C15.8064 12.0322 15.9593 12.0322 16.2651 12.0322C16.5709 12.0322 16.7238 12.0322 16.8267 12.1142C16.8456 12.1292 16.8629 12.146 16.8783 12.1643C16.9628 12.2642 16.9628 12.4127 16.9628 12.7096C16.9628 13.0066 16.9628 13.155 16.8783 13.255C16.8629 13.2733 16.8456 13.29 16.8267 13.305C16.7238 13.387 16.5709 13.387 16.2651 13.387C15.9593 13.387 15.8064 13.387 15.7035 13.305C15.6846 13.29 15.6674 13.2733 15.6519 13.255C15.5674 13.155 15.5674 13.0066 15.5674 12.7096Z" fill="currentColor" />
  <path d="M12.7767 7.29027C12.7767 6.99334 12.7767 6.84487 12.8612 6.74494C12.8767 6.72665 12.8939 6.70988 12.9128 6.69486C13.0157 6.61285 13.1686 6.61285 13.4744 6.61285C13.7802 6.61285 13.9331 6.61285 14.036 6.69486C14.0549 6.70988 14.0722 6.72665 14.0876 6.74494C14.1721 6.84487 14.1721 6.99334 14.1721 7.29027C14.1721 7.58721 14.1721 7.73567 14.0876 7.8356C14.0722 7.8539 14.0549 7.87067 14.036 7.88568C13.9331 7.96769 13.7802 7.96769 13.4744 7.96769C13.1686 7.96769 13.0157 7.96769 12.9128 7.88568C12.8939 7.87067 12.8767 7.8539 12.8612 7.8356C12.7767 7.73567 12.7767 7.58721 12.7767 7.29027Z" fill="currentColor" />
  <path d="M15.5674 7.29027C15.5674 6.99334 15.5674 6.84487 15.6519 6.74494C15.6674 6.72665 15.6846 6.70988 15.7035 6.69486C15.8064 6.61285 15.9593 6.61285 16.2651 6.61285C16.5709 6.61285 16.7238 6.61285 16.8267 6.69486C16.8456 6.70988 16.8629 6.72665 16.8783 6.74494C16.9628 6.84487 16.9628 6.99334 16.9628 7.29027C16.9628 7.58721 16.9628 7.73567 16.8783 7.8356C16.8629 7.8539 16.8456 7.87067 16.8267 7.88568C16.7238 7.96769 16.5709 7.96769 16.2651 7.96769C15.9593 7.96769 15.8064 7.96769 15.7035 7.88568C15.6846 7.87067 15.6674 7.8539 15.6519 7.8356C15.5674 7.73567 15.5674 7.58721 15.5674 7.29027Z" fill="currentColor" />
</svg>
