<svg width="20" height="20" viewBox="0 0 20 20" fill="currentColor" xmlns="http://www.w3.org/2000/svg">
  <path d="M10 3.70532C9.72112 3.70532 9.47769 3.77511 9.24753 3.86953C9.03745 3.95572 8.80061 4.07922 8.53947 4.21539L2.80429 7.20543C2.35474 7.43973 1.94839 7.65153 1.66061 7.85986C1.36301 8.07529 1.0015 8.42156 1 8.96785C0.998511 9.51413 1.35813 9.86233 1.65454 10.0794C1.94117 10.2892 2.34636 10.5032 2.79462 10.7399L8.52916 13.769C8.79101 13.9074 9.02849 14.0327 9.23938 14.1203C9.47178 14.2169 9.71783 14.2883 10 14.2883C10.2822 14.2883 10.5282 14.2169 10.7606 14.1203C10.9728 14.0322 11.2119 13.9059 11.4756 13.7665L17.2054 10.7399C17.6536 10.5032 18.0588 10.2892 18.3455 10.0794C18.6419 9.86233 19.0015 9.51413 19 8.96784C18.9985 8.42156 18.637 8.07529 18.3394 7.85986C18.0516 7.65153 17.6453 7.43974 17.1957 7.20543L11.4605 4.21539C11.1994 4.07922 10.9625 3.95572 10.7525 3.86953C10.5223 3.77511 10.2789 3.70532 10 3.70532Z" fill="currentColor" fill-opacity="0.2" />
  <path d="M14.4393 2C14.0103 2 13.6614 2.34191 13.6614 2.76504C13.6614 3.18818 14.0103 3.53008 14.4393 3.53008L18.2176 3.53008C18.6465 3.53008 18.9954 3.18818 18.9954 2.76504C18.9954 2.34191 18.6465 2 18.2176 2H14.4393Z" fill="currentColor" />
  <path d="M2.14789 12.3777C1.76999 12.1779 1.29842 12.3167 1.09465 12.6888C0.890661 13.0613 1.03286 13.5253 1.41113 13.7254L8.49489 17.4713C8.7566 17.6097 8.99771 17.7373 9.21264 17.8267C9.44979 17.9253 9.70524 18 9.99991 18C10.2946 18 10.55 17.9253 10.7872 17.8267C11.0021 17.7373 11.2432 17.6097 11.5049 17.4713L18.5888 13.7254C18.967 13.5253 19.1092 13.0613 18.9052 12.6888C18.7015 12.3167 18.2299 12.1779 17.852 12.3777L10.7953 16.1094C10.4979 16.2666 10.3212 16.3592 10.1813 16.4174C10.0563 16.4694 10.0146 16.4699 9.99991 16.4699C9.98518 16.4699 9.94353 16.4694 9.81853 16.4174C9.67866 16.3592 9.50194 16.2666 9.20452 16.1093L2.14789 12.3777Z" fill="currentColor" />
</svg>
