<svg width="20" height="20" viewBox="0 0 20 20" fill="currentColor" xmlns="http://www.w3.org/2000/svg">
  <path fill-rule="evenodd" d="M16.3669 3.35638C12.8522 -0.158343 7.15369 -0.158343 3.63897 3.35638C0.12425 6.87109 0.12425 12.5696 3.63897 16.0843C7.15369 19.599 12.8522 19.599 16.3669 16.0843C19.8816 12.5696 19.8816 6.87109 16.3669 3.35638ZM13.0698 2.87382C11.1031 1.99331 8.83485 2.00261 6.87453 2.90171L7.93666 4.35306C9.2587 3.8448 10.7297 3.84271 12.053 4.3468L13.0698 2.87382ZM3.18438 6.59178C2.27579 8.57265 2.27578 10.8679 3.18435 12.8488L4.63578 11.7866C4.12542 10.4591 4.12542 8.98144 4.63578 7.65395L3.18438 6.59178ZM6.87448 16.5389C8.85536 17.4475 11.1506 17.4475 13.1315 16.5389L12.0694 15.0875C10.7419 15.5979 9.26416 15.5979 7.93666 15.0875L6.87448 16.5389ZM16.8216 12.8487C17.7207 10.8884 17.73 8.62022 16.8495 6.65353L15.3765 7.67032C15.8806 8.99358 15.8785 10.4646 15.3702 11.7866L16.8216 12.8487ZM12.3465 6.17361C12.5798 6.32818 12.8017 6.50856 13.0082 6.71509C13.2147 6.92162 13.3951 7.14351 13.5497 7.37682C13.631 7.49958 13.7053 7.6256 13.7725 7.75433C14.4132 8.98181 14.4132 10.4588 13.7725 11.6863C13.5777 12.0595 13.3232 12.4105 13.0082 12.7255C12.6932 13.0405 12.3422 13.295 11.969 13.4898C10.7415 14.1305 9.26452 14.1305 8.03704 13.4898C7.66384 13.295 7.31282 13.0405 6.9978 12.7255C6.68279 12.4105 6.42835 12.0595 6.23355 11.6863C5.59283 10.4588 5.59283 8.98181 6.23355 7.75432C6.42835 7.38112 6.68279 7.0301 6.9978 6.71509C7.31282 6.40008 7.66384 6.14563 8.03704 5.95083C9.26453 5.31011 10.7415 5.31011 11.969 5.95083C12.0977 6.01802 12.2237 6.09228 12.3465 6.17361Z" fill="currentColor" />
  <path d="M6.87453 2.90171C8.83485 2.00261 11.1031 1.99331 13.0698 2.87382L12.053 4.3468C10.7297 3.84271 9.2587 3.8448 7.93666 4.35306L6.87453 2.90171Z" fill="currentColor" fill-opacity="0.2" />
  <path d="M3.18435 12.8488C2.27578 10.8679 2.27579 8.57265 3.18438 6.59178L4.63578 7.65395C4.12542 8.98144 4.12542 10.4591 4.63578 11.7866L3.18435 12.8488Z" fill="currentColor" fill-opacity="0.2" />
  <path d="M13.1315 16.5389C11.1506 17.4475 8.85536 17.4475 6.87448 16.5389L7.93666 15.0875C9.26416 15.5979 10.7419 15.5979 12.0694 15.0875L13.1315 16.5389Z" fill="currentColor" fill-opacity="0.2" />
  <path d="M16.8495 6.65353C17.73 8.62022 17.7207 10.8884 16.8216 12.8487L15.3702 11.7866C15.8785 10.4646 15.8806 8.99358 15.3765 7.67032L16.8495 6.65353Z" fill="currentColor" fill-opacity="0.2" />
</svg>
