<svg width="20" height="20" viewBox="0 0 20 20" fill="currentColor" xmlns="http://www.w3.org/2000/svg">
  <path d="M3.625 16.8761V8.87613C3.625 8.0477 2.95343 7.37613 2.125 7.37613C1.29657 7.37613 0.625 8.0477 0.625 8.87613V16.8761C0.625 17.7046 1.29657 18.3761 2.125 18.3761C2.95343 18.3761 3.625 17.7046 3.625 16.8761Z" fill="currentColor" />
  <path d="M10.4186 1.70218C9.49665 0.390982 7.0071 0.142733 6.51974 1.70222C6.19483 2.74189 7.0071 3.2617 6.51974 4.82117C6.20777 5.81944 5.4964 6.90013 5.0248 7.54868C4.74049 7.93966 4.57031 8.40408 4.57031 8.88503V15.7409C4.57031 16.3936 4.87694 17.0135 5.37912 17.4392C6.50307 18.392 7.77118 19.3763 11.3933 19.3763C15.2922 19.3763 18.2163 18.3367 19.191 12.0987C19.6813 8.96126 19.1909 7.42033 17.729 6.9005C16.4584 6.44872 14.5132 7.0553 12.9197 7.63885C11.5511 8.14003 10.6522 7.31897 10.8972 5.90092C11.1399 4.49599 11.234 2.86178 10.4186 1.70218Z" fill="currentColor" fill-opacity="0.2" />
</svg>
