<svg width="20" height="20" viewBox="0 0 20 20" fill="currentColor" xmlns="http://www.w3.org/2000/svg">
  <path fill-rule="evenodd" d="M15.0524 1.04251C15.3469 0.749175 15.8244 0.749175 16.1189 1.04251L18.7789 3.69185C19.0547 3.96656 19.0746 4.40541 18.8249 4.70386L16.165 7.88306C15.8984 8.20175 15.4228 8.24481 15.1029 7.97924C14.7829 7.71366 14.7397 7.24002 15.0063 6.92132L16.6355 4.97413H7.37589C5.82872 4.97413 5.23294 4.98329 4.7717 5.13167C3.77236 5.45314 2.98902 6.23335 2.66627 7.2287C2.5173 7.68811 2.5081 8.28151 2.5081 9.82251C2.5081 10.2374 2.17045 10.5737 1.75395 10.5737C1.33745 10.5737 0.999802 10.2374 0.999802 9.82251C0.999802 9.77117 0.99979 9.72053 0.999779 9.67057C0.999463 8.33385 0.999262 7.48157 1.23097 6.76699C1.70269 5.31225 2.84758 4.17193 4.30814 3.7021C5.02557 3.47131 5.88126 3.47151 7.22334 3.47182C7.2735 3.47184 7.32435 3.47185 7.37589 3.47185H16.4249L15.0524 2.10479C14.7579 1.81145 14.7579 1.33585 15.0524 1.04251Z" fill="currentColor" />
  <path fill-rule="evenodd" d="M4.94712 18.6025C4.65261 18.8958 4.17511 18.8958 3.8806 18.6025L1.22066 15.9532C0.944851 15.6785 0.924864 15.2396 1.17457 14.9412L3.83451 11.762C4.10115 11.4433 4.57669 11.4002 4.89666 11.6658C5.21662 11.9314 5.25985 12.405 4.99321 12.7237L3.36405 14.6709H12.6236C14.1708 14.6709 14.7666 14.6617 15.2278 14.5134C16.2271 14.1919 17.0105 13.4117 17.3332 12.4163C17.4822 11.9569 17.4914 11.3635 17.4914 9.82251C17.4914 9.40767 17.8291 9.07137 18.2456 9.07137C18.6621 9.07137 18.9997 9.40767 18.9997 9.82251C18.9997 9.87385 18.9997 9.92449 18.9997 9.97445C19 11.3112 19.0002 12.1635 18.7685 12.878C18.2968 14.3328 17.1519 15.4731 15.6914 15.9429C14.9739 16.1737 14.1182 16.1735 12.7762 16.1732C12.726 16.1732 12.6752 16.1732 12.6236 16.1732H3.57459L4.94712 17.5402C5.24164 17.8336 5.24164 18.3092 4.94712 18.6025Z" fill="currentColor" fill-opacity="0.2" />
</svg>
