<svg width="21" height="20" viewBox="0 0 21 20" fill="currentColor" xmlns="http://www.w3.org/2000/svg">
  <path d="M12.1915 2H8.40592C6.89649 1.99999 5.70055 1.99998 4.74954 2.10214C3.77429 2.2069 2.96518 2.42646 2.27165 2.92793C1.87961 3.21141 1.53331 3.5512 1.24441 3.93588C0.733336 4.61638 0.509572 5.41029 0.402803 6.36722C0.298688 7.30036 0.298696 8.47382 0.298706 9.9549V10.0451C0.298696 11.5262 0.298688 12.6996 0.402803 13.6328C0.509572 14.5897 0.733336 15.3836 1.24441 16.0641C1.53331 16.4488 1.87961 16.7886 2.27165 17.0721C2.96518 17.5735 3.77429 17.7931 4.74954 17.8979C5.70055 18 6.89648 18 8.40593 18H12.1915C13.7009 18 14.8969 18 15.8479 17.8979C16.8231 17.7931 17.6322 17.5735 18.3258 17.0721C18.7178 16.7886 19.0641 16.4488 19.353 16.0641C19.8641 15.3836 20.0878 14.5897 20.1946 13.6328C20.2987 12.6996 20.2987 11.5262 20.2987 10.0451V9.95493C20.2987 8.47384 20.2987 7.30037 20.1946 6.36722C20.0878 5.41029 19.8641 4.61638 19.353 3.93588C19.0641 3.5512 18.7178 3.21141 18.3258 2.92793C17.6322 2.42646 16.8231 2.2069 15.8479 2.10214C14.8969 1.99998 13.7009 1.99999 12.1915 2Z" fill="currentColor" fill-opacity="0.2" />
  <path fill-rule="evenodd" d="M4.58252 6.9273C4.80014 6.57142 5.27057 6.45602 5.63326 6.66955L6.01061 6.89171C7.17563 7.57759 8.00131 8.06265 8.69318 8.38181C9.36935 8.69372 9.86065 8.819 10.3449 8.819C10.8292 8.819 11.3205 8.69372 11.9966 8.38181C12.6885 8.06265 13.5142 7.57759 14.6792 6.89171L15.0566 6.66955C15.4192 6.45602 15.8897 6.57142 16.1073 6.9273C16.3249 7.28318 16.2073 7.74477 15.8446 7.9583L15.4323 8.20103C14.3101 8.86172 13.4185 9.38664 12.6483 9.74192C11.8544 10.1081 11.1334 10.3219 10.3449 10.3219C9.55639 10.3219 8.83538 10.1081 8.04151 9.74192C7.27132 9.38664 6.37973 8.86173 5.25752 8.20104L4.84521 7.9583C4.48251 7.74477 4.36491 7.28318 4.58252 6.9273Z" fill="currentColor" />
</svg>
