<svg width="20" height="20" viewBox="0 0 20 20" fill="currentColor" xmlns="http://www.w3.org/2000/svg">
  <path d="M15.1615 14.0104V5.10212C15.1615 4.25049 15.1615 3.82467 15.3634 3.49713C15.5653 3.1696 15.9217 3.01722 16.6346 2.71246L19.2215 1.6064C19.6201 1.43601 20.0002 1.72767 20.0002 2.20382V15.1873C20.0002 15.4526 19.8633 15.6798 19.643 15.7798L18.3205 16.3806C16.8904 17.0303 16.1753 17.3551 15.6684 16.9748C15.1615 16.5945 15.1615 15.7331 15.1615 14.0104Z" fill="currentColor" />
  <path d="M4.83895 14.0081V4.995C4.83895 3.30588 4.83895 2.46132 4.3419 2.07998C3.84485 1.69864 3.13795 2.00087 1.72416 2.60533L0.368499 3.18494L0.346331 3.19559C0.136306 3.29656 0.000244141 3.52722 0.000244141 3.78235V16.9064C0.000244141 17.3622 0.37338 17.6765 0.755051 17.514L3.36593 16.3977C4.07875 16.093 4.43516 15.9406 4.63705 15.6131C4.83895 15.2855 4.83895 14.8597 4.83895 14.0081Z" fill="currentColor" />
  <path d="M14.0146 14.6698C14.0146 16.1785 14.0146 16.9329 13.5735 17.3172C13.1324 17.7014 12.4764 17.5184 11.1644 17.1525L7.72351 16.1928C6.88904 15.9601 6.4718 15.8437 6.22888 15.4966C5.98596 15.1495 5.98596 14.6697 5.98596 13.7101V4.44017C5.98596 2.93138 5.98596 2.17699 6.42707 1.79276C6.86817 1.40854 7.52419 1.59151 8.83622 1.95744L12.2771 2.91712C13.1116 3.14986 13.5288 3.26623 13.7717 3.61333C14.0146 3.96042 14.0146 4.44023 14.0146 5.39984V14.6698Z" fill="currentColor" fill-opacity="0.2" />
</svg>
