<svg width="20" height="20" viewBox="0 0 20 20" fill="currentColor" xmlns="http://www.w3.org/2000/svg">
  <path d="M15.5 7.5C15.5 12.2794 13.866 15.5 10 15.5C6.13401 15.5 4.5 12.2794 4.5 7.5C4.5 2.72061 6.13401 0 10 0C13.866 0 15.5 2.72061 15.5 7.5Z" fill="currentColor" fill-opacity="0.2" />
  <path d="M8.19574 6.50864C8.19574 6.05891 8.55968 5.69434 9.00862 5.69434H10.9913C11.4402 5.69434 11.8042 6.05891 11.8042 6.50864C11.8042 6.95836 11.4402 7.32294 10.9913 7.32294H9.00862C8.55968 7.32294 8.19574 6.95836 8.19574 6.50864Z" fill="currentColor" />
  <path d="M7.70007 8.99126C7.70007 8.54153 8.06402 8.17696 8.51296 8.17696H11.4869C11.9359 8.17696 12.2998 8.54153 12.2998 8.99126C12.2998 9.44098 11.9359 9.80556 11.4869 9.80556H8.51296C8.06402 9.80556 7.70007 9.44098 7.70007 8.99126Z" fill="currentColor" />
  <path d="M2.68571 9C3.06442 9 3.37143 9.28782 3.37143 9.64286C3.37143 10.8652 3.6359 12.6607 4.59596 14.1282C5.52705 15.5514 7.13812 16.7143 10 16.7143C12.887 16.7143 14.4908 15.6381 15.4096 14.2806C16.3603 12.8758 16.6286 11.0897 16.6286 9.64286C16.6286 9.28782 16.9356 9 17.3143 9C17.693 9 18 9.28782 18 9.64286C18 11.196 17.7197 13.2671 16.5676 14.9694C15.475 16.5838 13.6424 17.7991 10.7497 17.9774C10.7499 17.9849 10.75 17.9924 10.75 18V19.25C10.75 19.6642 10.4142 20 10 20C9.58579 20 9.25 19.6642 9.25 19.25V18C9.25 17.9918 9.25013 17.9837 9.25039 17.9756C6.33582 17.7815 4.50873 16.454 3.4269 14.8004C2.2841 13.0536 2 10.992 2 9.64286C2 9.28782 2.307 9 2.68571 9Z" fill="currentColor" />
</svg>
