<svg width="20" height="20" viewBox="0 0 20 20" fill="currentColor" xmlns="http://www.w3.org/2000/svg">
  <path fill-rule="evenodd" d="M17.6154 6.8586V14.0229H19V3.60816C19 1.93162 17.4814 0.690903 15.8907 1.06789L7.58302 3.03684C7.43905 3.07096 7.30032 3.11728 7.16779 3.17457C6.24002 3.57565 5.61536 4.51488 5.61536 5.57711V15.919H6.99997V9.37448L17.6154 6.8586Z" fill="currentColor" fill-opacity="0.2" />
  <path fill-rule="evenodd" d="M16 10.9419C14.3431 10.9419 13 12.3213 13 14.0229C13 15.7245 14.3431 17.104 16 17.104C17.6569 17.104 19 15.7245 19 14.0229C19 12.3213 17.6569 10.9419 16 10.9419ZM4 12.8379C2.34315 12.8379 1 14.2173 1 15.919C1 17.6206 2.34315 19 4 19C5.65685 19 7 17.6206 7 15.919C7 14.2173 5.65685 12.8379 4 12.8379Z" fill="currentColor" />
</svg>
