<svg width="20" height="20" viewBox="0 0 20 20" fill="currentColor" xmlns="http://www.w3.org/2000/svg">
  <path d="M6.83228 3.74877C6.73478 3.91517 6.70232 4.11794 6.75404 4.31463C6.70675 4.13349 6.72774 3.93556 6.82476 3.7622L6.83228 3.74877Z" fill="currentColor" fill-opacity="0.2" />
  <path d="M9.06926 4.47405C9.93805 4.34172 10.8478 4.38293 11.752 4.62521C15.2522 5.56308 17.3294 9.16085 16.3915 12.6611C15.841 14.7155 14.3749 16.2798 12.5469 17.0324C12.1663 17.1891 11.9847 17.6247 12.1414 18.0053C12.2981 18.386 12.7337 18.5675 13.1143 18.4108C15.3535 17.4889 17.1555 15.569 17.8313 13.0468C18.9822 8.75147 16.4331 4.33636 12.1378 3.18542C11.0723 2.89993 9.99865 2.84222 8.96926 2.98253L8.42953 3.94691L9.06926 4.47405Z" fill="currentColor" fill-opacity="0.2" />
  <path d="M5.28448 6.45492C5.56752 6.15606 5.55469 5.68435 5.25583 5.40131C4.95698 5.11828 4.48526 5.1311 4.20223 5.42996C3.31094 6.37107 2.63479 7.54124 2.27636 8.87892C1.12542 13.1743 3.67448 17.5894 7.96984 18.7403C8.48549 18.8785 9.00358 18.9634 9.51806 18.9983C9.92873 19.026 10.2842 18.7157 10.312 18.305C10.3397 17.8943 10.0294 17.5389 9.61868 17.5111C9.20005 17.4828 8.77749 17.4136 8.35563 17.3006C4.85544 16.3627 2.77827 12.7649 3.71615 9.26471C4.00883 8.1724 4.55942 7.22051 5.28448 6.45492Z" fill="currentColor" fill-opacity="0.2" />
  <path fill-rule="evenodd" d="M9.17139 1.09506C9.53057 1.29608 9.65879 1.75022 9.45776 2.10941L8.4296 3.94652L10.0424 5.27546C10.3601 5.53721 10.4054 6.00692 10.1436 6.32458C9.88188 6.64224 9.41217 6.68757 9.0945 6.42581L7.00124 4.70098C6.72308 4.47177 6.6488 4.07634 6.82483 3.76181L8.15704 1.38144C8.35806 1.02225 8.8122 0.894037 9.17139 1.09506Z" fill="currentColor" />
</svg>
