<svg width="20" height="20" viewBox="0 0 20 20" fill="currentColor" xmlns="http://www.w3.org/2000/svg">
  <path d="M1.95491 3.06107C1 4.3754 1 6.25027 1 10C1 13.7497 1 15.6246 1.95491 16.9389C2.26331 17.3634 2.6366 17.7367 3.06107 18.0451C4.3754 19 6.25027 19 10 19C11.4875 18.9971 11.4875 18.9971 11.4875 18.9971L11.4875 1.00273C11.027 1 10.5324 1 10 1C6.25027 1 4.3754 1 3.06107 1.95492C2.6366 2.26331 2.26331 2.6366 1.95491 3.06107Z" fill="currentColor" fill-opacity="0.2" />
  <path d="M11.4875 18.9944C14.271 18.9779 15.8114 18.8616 16.9392 18.0422C17.3636 17.7338 17.7369 17.3605 18.0453 16.9361C19.0002 15.6217 19.0002 13.7469 19.0002 9.99714C19.0002 6.24741 19.0002 4.37254 18.0453 3.05822C17.7369 2.63374 17.3636 2.26046 16.9392 1.95206C15.8114 1.1327 14.271 1.01651 11.4875 1L11.4875 18.9944Z" fill="currentColor" />
  <path fill-rule="evenodd" d="M5.45085 12.5603C5.74746 12.8494 6.2223 12.8433 6.51143 12.5467L8.51144 10.4949C8.65031 10.3525 8.72689 10.1607 8.72431 9.96172C8.72174 9.76278 8.64022 9.57301 8.49771 9.43419L6.49773 7.48599C6.20102 7.19696 5.72618 7.20319 5.43716 7.49989C5.14813 7.7966 5.15436 8.27144 5.45107 8.56046L6.91362 9.98516L5.4373 11.4997C5.14818 11.7963 5.15424 12.2711 5.45085 12.5603Z" fill="currentColor" />
</svg>
