<svg width="20" height="20" viewBox="0 0 20 20" fill="currentColor" xmlns="http://www.w3.org/2000/svg">
  <path d="M10.0418 1H9.95823C8.26297 0.999993 6.9341 0.999987 5.87982 1.11421C4.80394 1.23077 3.93221 1.47291 3.18791 2.01368C2.73731 2.34106 2.34106 2.73731 2.01368 3.18791C1.47291 3.93221 1.23077 4.80394 1.11421 5.87982C0.999987 6.9341 0.999993 8.26297 1 9.95823V10.0418C0.999993 11.737 0.999987 13.0659 1.11421 14.1202C1.23077 15.1961 1.47291 16.0678 2.01368 16.8121C2.34106 17.2627 2.73731 17.6589 3.18791 17.9863C3.93221 18.5271 4.80394 18.7692 5.87982 18.8858C6.93409 19 8.26292 19 9.95814 19H10.0418C11.737 19 13.0659 19 14.1202 18.8858C15.1961 18.7692 16.0678 18.5271 16.8121 17.9863C17.2627 17.6589 17.6589 17.2627 17.9863 16.8121C18.5271 16.0678 18.7692 15.1961 18.8858 14.1202C19 13.0659 19 11.7371 19 10.0419V9.95821C19 8.26299 19 6.93409 18.8858 5.87982C18.7692 4.80394 18.5271 3.93221 17.9863 3.18791C17.6589 2.73731 17.2627 2.34106 16.8121 2.01368C16.0678 1.47291 15.1961 1.23077 14.1202 1.11421C13.0659 0.999987 11.737 0.999993 10.0418 1Z" fill="currentColor" fill-opacity="0.2" />
  <path fill-rule="evenodd" d="M13.1921 7.60567C13.4948 7.83921 13.5509 8.27395 13.3174 8.57669L10.2854 12.507C10.279 12.5153 10.2725 12.5237 10.266 12.5322C10.1608 12.6687 10.0418 12.8231 9.92323 12.9388C9.78337 13.0752 9.55831 13.2453 9.23315 13.2614C8.90798 13.2775 8.66723 13.1305 8.51457 13.0085C8.38512 12.9051 8.2515 12.7632 8.13332 12.6378C8.12599 12.63 8.11873 12.6223 8.11153 12.6146L6.72705 11.1462C6.46475 10.868 6.47764 10.4299 6.75583 10.1676C7.03402 9.9053 7.47218 9.91818 7.73448 10.1964L9.11897 11.6648C9.13188 11.6785 9.14423 11.6916 9.15606 11.7041C9.1666 11.6905 9.17759 11.6762 9.18909 11.6613L12.2211 7.73096C12.4546 7.42823 12.8893 7.37213 13.1921 7.60567Z" fill="currentColor" />
</svg>
