<svg width="20" height="20" viewBox="0 0 20 20" fill="currentColor" xmlns="http://www.w3.org/2000/svg">
  <path d="M10.0418 1H9.95823C8.26297 0.999992 6.9341 0.999986 5.87982 1.11421C4.80394 1.23077 3.93221 1.47291 3.18791 2.01368C2.73731 2.34106 2.34106 2.73731 2.01368 3.18791C1.47291 3.93221 1.23077 4.80394 1.11421 5.87982C0.999986 6.9341 0.999992 8.26297 1 9.95823V10.0418C0.999992 11.737 0.999986 13.0659 1.11421 14.1202C1.23077 15.1961 1.47291 16.0678 2.01368 16.8121C2.34106 17.2627 2.73731 17.6589 3.18791 17.9863C3.93221 18.5271 4.80394 18.7692 5.87982 18.8858C6.9341 19 8.26296 19 9.95821 19H10.0418C11.737 19 13.0659 19 14.1202 18.8858C15.1961 18.7692 16.0678 18.5271 16.8121 17.9863C17.2627 17.6589 17.6589 17.2627 17.9863 16.8121C18.5271 16.0678 18.7692 15.1961 18.8858 14.1202C19 13.0659 19 11.737 19 10.0418V9.95821C19 8.26296 19 6.9341 18.8858 5.87982C18.7692 4.80394 18.5271 3.93221 17.9863 3.18791C17.6589 2.73731 17.2627 2.34106 16.8121 2.01368C16.0678 1.47291 15.1961 1.23077 14.1202 1.11421C13.0659 0.999986 11.737 0.999992 10.0418 1Z" fill="currentColor" fill-opacity="0.2" />
  <path d="M12.3357 8.64339C12.6061 8.37303 12.6061 7.93468 12.3357 7.66432C12.0653 7.39396 11.627 7.39396 11.3566 7.66432L10 9.02094L8.64339 7.66433C8.37303 7.39396 7.93468 7.39396 7.66432 7.66433C7.39396 7.93469 7.39396 8.37303 7.66432 8.6434L9.02094 10L7.66432 11.3566C7.39396 11.627 7.39396 12.0653 7.66432 12.3357C7.93468 12.6061 8.37303 12.6061 8.64339 12.3357L10 10.9791L11.3566 12.3357C11.627 12.6061 12.0653 12.6061 12.3357 12.3357C12.6061 12.0653 12.6061 11.627 12.3357 11.3566L10.9791 10L12.3357 8.64339Z" fill="currentColor" />
</svg>
