<svg width="20" height="20" viewBox="0 0 20 20" fill="currentColor" xmlns="http://www.w3.org/2000/svg">
  <path d="M9.99995 4.69231C7.0686 4.69231 4.69226 7.06864 4.69226 10C4.69226 12.9314 7.0686 15.3077 9.99995 15.3077C12.9313 15.3077 15.3076 12.9314 15.3076 10C15.3076 7.06864 12.9313 4.69231 9.99995 4.69231Z" fill="currentColor" fill-opacity="0.2" />
  <path d="M9.30769 2.61538C9.30769 2.99774 9.61765 3.30769 10 3.30769C10.3824 3.30769 10.6923 2.99774 10.6923 2.61538V1.69231C10.6923 1.30996 10.3824 1 10 1C9.61765 1 9.30769 1.30996 9.30769 1.69231V2.61538Z" fill="currentColor" />
  <path d="M2.61538 10.6923C2.99774 10.6923 3.30769 10.3824 3.30769 10C3.30769 9.61765 2.99774 9.30769 2.61538 9.30769H1.69231C1.30996 9.30769 1 9.61765 1 10C1 10.3824 1.30996 10.6923 1.69231 10.6923H2.61538Z" fill="currentColor" />
  <path d="M18.3077 10.6923C18.69 10.6923 19 10.3824 19 10C19 9.61765 18.69 9.30769 18.3077 9.30769H17.3846C17.0023 9.30769 16.6923 9.61765 16.6923 10C16.6923 10.3824 17.0023 10.6923 17.3846 10.6923H18.3077Z" fill="currentColor" />
  <path d="M10 19C9.61765 19 9.30769 18.69 9.30769 18.3077V17.3846C9.30769 17.0023 9.61765 16.6923 10 16.6923C10.3824 16.6923 10.6923 17.0023 10.6923 17.3846V18.3077C10.6923 18.69 10.3824 19 10 19Z" fill="currentColor" />
  <path d="M3.63599 16.3639C3.36563 16.0935 3.36563 15.6552 3.63599 15.3848L4.2887 14.7321C4.55907 14.4618 4.99741 14.4618 5.26778 14.7321C5.53814 15.0025 5.53814 15.4408 5.26778 15.7112L4.61506 16.3639C4.3447 16.6343 3.90635 16.6343 3.63599 16.3639Z" fill="currentColor" />
  <path d="M14.7322 4.28876C14.4618 4.55912 14.4618 4.99746 14.7322 5.26783C15.0025 5.53819 15.4409 5.53819 15.7113 5.26783L16.364 4.61511C16.6343 4.34475 16.6343 3.9064 16.364 3.63604C16.0936 3.36568 15.6553 3.36568 15.3849 3.63604L14.7322 4.28876Z" fill="currentColor" />
  <path d="M3.63598 3.63599C3.90635 3.36563 4.34469 3.36563 4.61505 3.63599L5.26777 4.2887C5.53813 4.55907 5.53813 4.99741 5.26777 5.26778C4.9974 5.53814 4.55906 5.53814 4.2887 5.26778L3.63598 4.61506C3.36562 4.3447 3.36562 3.90635 3.63598 3.63599Z" fill="currentColor" />
  <path d="M15.7112 14.7321C15.4409 14.4617 15.0025 14.4617 14.7322 14.7321C14.4618 15.0024 14.4618 15.4408 14.7322 15.7111L15.3849 16.3639C15.6553 16.6342 16.0936 16.6342 16.364 16.3639C16.6343 16.0935 16.6343 15.6551 16.364 15.3848L15.7112 14.7321Z" fill="currentColor" />
</svg>
