<svg width="20" height="20" viewBox="0 0 20 20" fill="currentColor" xmlns="http://www.w3.org/2000/svg">
  <path d="M18 11.8988C18 16.373 14.4183 20 10 20C5.58172 20 2 16.373 2 11.8988C2 7.42455 5.58172 3.79749 10 3.79749C14.4183 3.79749 18 7.42455 18 11.8988Z" fill="currentColor" fill-opacity="0.2" />
  <path d="M9 0C8.58579 0 8.25 0.340037 8.25 0.759494C8.25 1.17895 8.58579 1.51899 9 1.51899H9.25V3.83262C9.49692 3.80937 9.74709 3.79749 10 3.79749C10.2529 3.79749 10.5031 3.80937 10.75 3.83262V1.51899H11C11.4142 1.51899 11.75 1.17895 11.75 0.759494C11.75 0.340037 11.4142 0 11 0H9Z" fill="currentColor" />
  <path d="M14.9094 5.00015L14.7086 5.34867C14.3057 5.0511 13.8742 4.79073 13.4191 4.57257L13.5878 4.27982L13.4783 4.22013C13.1135 4.02133 12.977 3.56075 13.1733 3.1914C13.3696 2.82204 13.8244 2.68378 14.1892 2.88258L15.7555 3.73629C16.1202 3.93508 16.2567 4.39566 16.0604 4.76502C15.8641 5.13437 15.4093 5.27264 15.0446 5.07384L14.9094 5.00015Z" fill="currentColor" />
  <path d="M7.48016 8.92385C7.16195 8.65868 6.68903 8.70167 6.42385 9.01988C6.15868 9.33809 6.20167 9.81101 6.51988 10.0762L9.51988 12.5762C9.83809 12.8414 10.311 12.7984 10.5762 12.4802C10.8414 12.1619 10.7984 11.689 10.4802 11.4239L7.48016 8.92385Z" fill="currentColor" />
</svg>
