<svg width="20" height="20" viewBox="0 0 20 20" fill="currentColor" xmlns="http://www.w3.org/2000/svg">
  <path fill-rule="evenodd" d="M10.0001 12.3662C10.4207 12.3662 10.7617 12.7067 10.7617 13.1267V16.8032C10.7617 18.0164 9.77678 19 8.56185 19C7.72862 19 6.96691 18.5299 6.59428 17.7856L6.52637 17.65C6.33827 17.2743 6.49076 16.8174 6.86697 16.6296C7.24318 16.4417 7.70065 16.594 7.88875 16.9697L7.95666 17.1053C8.07127 17.3343 8.30557 17.4789 8.56185 17.4789C8.93555 17.4789 9.23848 17.1763 9.23848 16.8032V13.1267C9.23848 12.7067 9.57946 12.3662 10.0001 12.3662Z" fill="currentColor" />
  <path fill-rule="evenodd" d="M9.99991 1C10.4205 1 10.7615 1.34052 10.7615 1.76057V2.69015C10.7615 3.1102 10.4205 3.45072 9.99991 3.45072C9.57929 3.45072 9.23832 3.1102 9.23832 2.69015V1.76057C9.23832 1.34052 9.57929 1 9.99991 1Z" fill="currentColor" />
  <path d="M10 1.92966C7.18728 1.92966 5.19363 2.72645 3.80051 3.877C2.4179 5.01886 1.68945 6.45705 1.30523 7.64372L1.28789 7.69721C1.16531 8.07515 1.03747 8.46931 1.00723 8.84659C0.970545 9.30427 1.07257 9.71859 1.33388 10.1448C1.60852 10.5928 1.96246 10.8681 2.41023 11.0405C2.78547 11.1849 3.23588 11.257 3.69402 11.3304L3.75108 11.3395C5.24036 11.5784 7.38275 11.817 10 11.817C12.6172 11.817 14.7596 11.5784 16.2489 11.3395L16.306 11.3304C16.7641 11.257 17.2145 11.1849 17.5898 11.0405C18.0375 10.8681 18.3915 10.5928 18.6661 10.1448C18.9274 9.71859 19.0295 9.30427 18.9928 8.84659C18.9625 8.46932 18.8347 8.07517 18.7121 7.69724L18.6948 7.64372C18.3105 6.45705 17.5821 5.01886 16.1995 3.877C14.8064 2.72645 12.8127 1.92966 10 1.92966Z" fill="currentColor" fill-opacity="0.2" />
</svg>
