<svg width="20" height="20" viewBox="0 0 20 20" fill="currentColor" xmlns="http://www.w3.org/2000/svg">
  <path d="M8.20004 1C5.92651 1 3.92505 2.65131 3.92505 4.87343C3.92505 7.09554 5.92651 8.74685 8.20004 8.74685C10.4736 8.74685 12.475 7.09554 12.475 4.87343C12.475 2.65131 10.4736 1 8.20004 1Z" fill="currentColor" fill-opacity="0.2" />
  <path d="M18.7263 1.32217C18.4084 1.06245 17.941 1.11061 17.6823 1.42973L15.9789 3.5309L15.1605 2.81205C14.852 2.54111 14.3832 2.57248 14.1133 2.88213C13.8434 3.19178 13.8747 3.66245 14.1831 3.93339L15.044 4.68963C15.155 4.78718 15.2876 4.90381 15.4155 4.98856C15.5701 5.09101 15.809 5.21072 16.1182 5.18445C16.4274 5.15818 16.6429 4.99987 16.7782 4.8728C16.8901 4.76769 17.0013 4.63037 17.0943 4.51551L18.8334 2.37025C19.0922 2.05113 19.0442 1.58189 18.7263 1.32217Z" fill="currentColor" />
  <path d="M3.05032 19H13.3497C13.5821 19 13.6984 19 13.7962 18.9891C14.635 18.896 15.2973 18.2253 15.3892 17.3759C15.4 17.2769 15.4 17.1592 15.4 16.9237V16.4647C15.4 14.5799 14.4314 12.831 12.8432 11.8481C9.99279 10.0841 6.40718 10.0841 3.55674 11.8481C1.9686 12.831 1 14.5799 1 16.4647V16.9237C1 17.1592 1 17.2769 1.01073 17.3759C1.10271 18.2253 1.76501 18.896 2.60378 18.9891C2.7016 19 2.81784 19 3.05032 19Z" fill="currentColor" />
</svg>
