<svg width="20" height="20" viewBox="0 0 20 20" fill="currentColor" xmlns="http://www.w3.org/2000/svg">
  <path fill-rule="evenodd" d="M6.95435 15.2649C7.12845 15.3473 7.28543 15.474 7.78197 15.8975L9.48858 17.3529C9.97821 17.7705 10.6018 18 11.2467 18C12.7387 18 13.9482 16.7966 13.9482 15.3121V4.68791C13.9482 3.20342 12.7387 2 11.2467 2C10.6018 2 9.97821 2.22953 9.48858 2.6471L7.78197 4.10253C7.28543 4.52599 7.12845 4.65267 6.95435 4.73512C6.78025 4.81757 6.58244 4.85891 5.939 4.97531L5.68565 5.02114C4.89378 5.16437 4.24236 5.2822 3.72707 5.43702C3.1875 5.59914 2.72427 5.82155 2.35047 6.21829C2.27198 6.3016 2.19839 6.38934 2.13005 6.48108C1.80459 6.91796 1.66753 7.41121 1.60374 7.9684C1.54282 8.50051 1.54283 9.15927 1.54285 9.96005V10.0399C1.54283 10.8407 1.54282 11.4995 1.60374 12.0316C1.66753 12.5888 1.80459 13.082 2.13005 13.5189C2.19839 13.6107 2.27198 13.6984 2.35047 13.7817C2.72426 14.1785 3.1875 14.4009 3.72706 14.563C4.24235 14.7178 4.89377 14.8356 5.68563 14.9789L5.939 15.0247C6.58244 15.1411 6.78025 15.1824 6.95435 15.2649Z" fill="currentColor" fill-opacity="0.2" />
  <path d="M16.175 6.72914C15.7833 6.59143 15.353 6.79552 15.2143 7.18575C15.0756 7.57616 15.2814 8.00412 15.6734 8.14189C16.444 8.41274 16.9941 9.14349 16.9941 9.99986C16.9941 10.8562 16.444 11.587 15.6734 11.8578C15.2814 11.9956 15.0756 12.4236 15.2143 12.814C15.353 13.2042 15.7833 13.4083 16.175 13.2706C17.5283 12.7949 18.5 11.5114 18.5 9.99986C18.5 8.48835 17.5283 7.20479 16.175 6.72914Z" fill="currentColor" />
</svg>
