<svg width="20" height="20" viewBox="0 0 20 20" fill="currentColor" xmlns="http://www.w3.org/2000/svg">
  <path d="M14.6154 1H4.43823C4.02796 0.999994 3.68546 0.999988 3.40428 1.01917C3.11157 1.03914 2.83509 1.0822 2.56704 1.19323C1.94504 1.45087 1.45087 1.94504 1.19323 2.56704C1.0822 2.83509 1.03914 3.11157 1.01917 3.40428C0.999989 3.68546 0.999994 4.02794 1 4.43821V10.9752C0.999986 12.6715 0.999975 14.0152 1.14136 15.0668C1.28686 16.149 1.59343 17.025 2.28423 17.7158C2.97502 18.4066 3.85097 18.7131 4.93321 18.8586C5.98477 19 7.3284 19 9.02475 19H11.4298C12.9088 19 14.0805 19 15.0075 18.8904C15.9591 18.778 16.7425 18.5418 17.397 18.0047C17.619 17.8225 17.8225 17.619 18.0047 17.397C18.5418 16.7425 18.778 15.9591 18.8904 15.0075C19 14.0805 19 12.9088 19 11.4298V11.3394C19 9.86045 19 8.68873 18.8904 7.76177C18.778 6.8101 18.5418 6.02669 18.0047 5.37228C17.8225 5.15027 17.619 4.94669 17.397 4.76449C16.7425 4.22743 15.9591 3.99127 15.0075 3.87878C14.0805 3.76921 12.9088 3.76922 11.4298 3.76923L2.38909 3.76923C2.39146 3.66838 2.39507 3.57929 2.40058 3.49853C2.41574 3.27632 2.44295 3.16812 2.47245 3.0969C2.58956 2.81418 2.81418 2.58956 3.0969 2.47245C3.16812 2.44295 3.27632 2.41574 3.49853 2.40058C3.72696 2.38499 4.02197 2.38462 4.46154 2.38462H14.6154C14.9977 2.38462 15.3077 2.07466 15.3077 1.69231C15.3077 1.30996 14.9977 1 14.6154 1Z" fill="currentColor" fill-opacity="0.2" />
  <path d="M14.6154 1C14.9977 1 15.3077 1.30996 15.3077 1.69231C15.3077 2.07466 14.9977 2.38462 14.6154 2.38462H4.46151C4.02193 2.38462 3.72693 2.38499 3.4985 2.40058C3.27629 2.41574 3.16809 2.44295 3.09687 2.47245C2.81415 2.58956 2.58952 2.81418 2.47242 3.0969C2.44292 3.16812 2.41571 3.27632 2.40054 3.49853C2.39503 3.57929 2.39142 3.66838 2.38906 3.76923H1.00415C1.00692 3.63761 1.01151 3.5161 1.01914 3.40428C1.03911 3.11157 1.08217 2.83509 1.1932 2.56704C1.45084 1.94504 1.94501 1.45087 2.567 1.19323C2.83505 1.0822 3.11154 1.03914 3.40425 1.01917C3.68543 0.999988 4.02792 0.999994 4.43819 1H14.6154Z" fill="currentColor" />
  <path d="M16 12C16 12.5523 15.5523 13 15 13C14.4477 13 14 12.5523 14 12C14 11.4477 14.4477 11 15 11C15.5523 11 16 11.4477 16 12Z" fill="currentColor" />
</svg>
