<svg width="20" height="20" viewBox="0 0 20 20" fill="currentColor" xmlns="http://www.w3.org/2000/svg">
  <path fill-rule="evenodd" d="M0 10C0 7.19974 0 5.79961 0.545269 4.73005C1.0249 3.78924 1.79023 3.02433 2.73156 2.54497C3.80171 2 5.20261 2 8.00442 2H12.0066C14.8084 2 16.2093 2 17.2795 2.54497C18.2208 3.02433 18.9862 3.78924 19.4658 4.73005C19.8624 5.50797 19.9705 6.46078 20 8C19.5412 8.00001 19.3103 8.0006 19.1279 8.07612C18.8827 8.17761 18.6879 8.37229 18.5864 8.61732C18.5102 8.80109 18.5102 9.03406 18.5102 9.5V10.5C18.5102 10.9659 18.5102 11.1989 18.5864 11.3827C18.6879 11.6277 18.8827 11.8224 19.1279 11.9239C19.3103 11.9994 19.5412 12 20 12C19.9705 13.5392 19.8624 14.492 19.4658 15.27C18.9862 16.2108 18.2208 16.9757 17.2795 17.455C16.2093 18 14.8084 18 12.0066 18H8.00442C5.20261 18 3.80171 18 2.73156 17.455C1.79023 16.9757 1.0249 16.2108 0.545269 15.27C0 14.2004 0 12.8003 0 10ZM6.25345 7.5C6.25345 7.08579 5.91748 6.75 5.50304 6.75C5.0886 6.75 4.75262 7.08579 4.75262 7.5L4.75263 12.5C4.75263 12.9142 5.0886 13.25 5.50304 13.25C5.91748 13.25 6.25345 12.9142 6.25345 12.5L6.25345 7.5ZM10.0055 6.75C10.42 6.75 10.7559 7.08579 10.7559 7.5V12.5C10.7559 12.9142 10.42 13.25 10.0055 13.25C9.59108 13.25 9.25511 12.9142 9.25511 12.5V7.5C9.25511 7.08579 9.59108 6.75 10.0055 6.75ZM15.2584 7.5C15.2584 7.08579 14.9225 6.75 14.508 6.75C14.0936 6.75 13.7576 7.08579 13.7576 7.5V12.5C13.7576 12.9142 14.0936 13.25 14.508 13.25C14.9225 13.25 15.2584 12.9142 15.2584 12.5V7.5Z" fill="currentColor" />
</svg>
