<svg width="20" height="21" viewBox="0 0 20 21" fill="currentColor" xmlns="http://www.w3.org/2000/svg">
  <path d="M11.7624 1.71036C11.3844 1.41032 11.0182 1.11965 10.7004 0.935237C10.3789 0.748698 9.79063 0.482043 9.14997 0.791536C8.50931 1.10103 8.35252 1.72763 8.29882 2.09542C8.24573 2.45901 8.24583 2.92653 8.24594 3.40911L8.24595 7.34134L10.2459 8.3993V3.47426C10.2459 3.32191 10.246 3.18563 10.2468 3.06208C10.3442 3.1382 10.4509 3.22289 10.5703 3.31758L14.5151 6.44771C14.6041 6.51832 14.683 6.58092 14.7538 6.6379C14.6737 6.68095 14.5847 6.72805 14.4843 6.78117L10.8356 8.71124L12.9743 9.84254L15.4701 8.52229C15.7917 8.35231 16.1242 8.1766 16.3719 7.99459C16.6476 7.79206 17.0225 7.43643 17.0765 6.85241C17.1304 6.26839 16.8269 5.85011 16.593 5.60051C16.3828 5.37622 16.0882 5.1426 15.8031 4.9166L11.7624 1.71036Z" fill="currentColor" />
  <path fill-rule="evenodd" d="M16.1028 13.1944L2.23283 5.85744C1.77696 5.70469 1.26444 5.89968 1.03227 6.33857C0.774028 6.82676 0.960436 7.43186 1.44862 7.69011L7.10733 10.6835L1.44862 13.6768C0.960436 13.9351 0.774028 14.5402 1.03227 15.0283C1.29051 15.5165 1.89562 15.7029 2.38381 15.4447L8.24595 12.3437L8.24594 17.9578C8.24583 18.4404 8.24573 18.9079 8.29882 19.2715C8.35252 19.6393 8.50931 20.2659 9.14997 20.5754C9.79063 20.8849 10.3789 20.6182 10.7004 20.4317C11.0182 20.2473 11.3844 19.9566 11.7624 19.6566L15.8031 16.4503C16.0882 16.2243 16.3828 15.9907 16.593 15.7664C16.8269 15.5168 17.1304 15.0985 17.0765 14.5145C17.0225 13.9305 16.6476 13.5749 16.3719 13.3723C16.2903 13.3123 16.1994 13.253 16.1028 13.1944ZM14.4843 14.5858L10.2459 12.3437V17.8927C10.2459 18.045 10.246 18.1813 10.2468 18.3048C10.3442 18.2287 10.4509 18.144 10.5703 18.0493L14.5151 14.9192C14.6041 14.8486 14.683 14.786 14.7538 14.729C14.6737 14.686 14.5847 14.6389 14.4843 14.5858Z" fill="currentColor" />
</svg>
