<svg width="20" height="20" viewBox="0 0 20 20" fill="currentColor" xmlns="http://www.w3.org/2000/svg">
  <path d="M3.29139 3.63941L5.72846 2.48809C7.82841 1.49603 8.87838 1 10 1C11.1216 1 12.1716 1.49603 14.2715 2.48809L16.7086 3.63941C17.3231 3.92973 17.7681 4.13994 18.0957 4.35242L11.2375 7.19618C10.4297 7.53113 10.2128 7.60675 10 7.60675C9.78722 7.60675 9.57036 7.53113 8.76258 7.19618L1.90432 4.35242C2.2319 4.13994 2.67686 3.92973 3.29139 3.63941Z" fill="currentColor" />
  <path d="M1.06415 5.61637C1 6.01527 1 6.52811 1 7.25613V12.8172C1 14.0487 1 14.6645 1.31053 15.1546C1.62106 15.6448 2.17784 15.9078 3.29139 16.4339L5.72847 17.5852C7.36142 18.3567 8.35947 18.8282 9.25001 18.9997V8.99748C8.95498 8.91032 8.64815 8.78275 8.30251 8.63904L1.21445 5.69991C1.1602 5.67741 1.10996 5.64924 1.06415 5.61637Z" fill="currentColor" />
  <path d="M10.75 18.9997C11.6406 18.8281 12.6386 18.3566 14.2715 17.5852L16.7086 16.4339C17.8222 15.9078 18.3789 15.6448 18.6895 15.1546C19 14.6645 19 14.0487 19 12.8172V7.25613C19 6.52812 19 6.01529 18.9359 5.61638C18.89 5.64925 18.8398 5.67742 18.7856 5.69991L11.6975 8.63904C11.3519 8.78275 11.045 8.91032 10.75 8.99748V18.9997Z" fill="currentColor" />
</svg>
