<svg width="20" height="20" viewBox="0 0 20 20" fill="currentColor" xmlns="http://www.w3.org/2000/svg">
  <path fill-rule="evenodd" d="M3.28414 0.228029C3.02144 -0.0446813 2.5886 -0.0792882 2.28434 0.159455C1.96067 0.413424 1.90507 0.880549 2.16015 1.20281L3.79556 3.26892C2.714 4.61345 2.06719 6.31869 2.06719 8.17452C2.06719 12.518 5.61015 16.0366 9.97753 16.0366C11.172 16.0366 12.3048 15.7734 13.3203 15.3021L14.2653 16.496C12.9792 17.1522 11.5216 17.5225 9.97753 17.5225C7.81011 17.5225 5.81278 16.7929 4.22163 15.5668C4.1389 15.725 4.06437 15.8759 3.99879 16.0198C3.69865 16.6784 3.51216 17.3422 3.70156 18.0131C3.8207 18.4351 4.04038 18.8223 4.34193 19.1417C4.82129 19.6494 5.48864 19.833 6.21012 19.9169C6.92416 20 7.8553 20 9.00713 20H10.9871C12.1424 20 13.0771 20 13.7938 19.9155C14.5191 19.8301 15.189 19.6429 15.6686 19.1277C15.7944 18.9925 15.9057 18.8455 16.0011 18.689L16.6678 19.5312C16.9228 19.8535 17.392 19.9088 17.7157 19.6548C18.0393 19.4009 18.0949 18.9338 17.8399 18.6115L16.2081 16.55C16.2067 16.5458 16.2053 16.5416 16.2039 16.5375L15.5463 15.7073L15.543 15.7097L14.6186 14.5419L14.6215 14.5398L11.3109 10.3607L11.3097 10.3615L3.28414 0.228029ZM7.47796 8.18837C7.47796 8.10348 7.48217 8.01957 7.49038 7.93683L9.67078 10.6915C8.43242 10.5241 7.47796 9.46723 7.47796 8.18837Z" fill="currentColor" />
  <path d="M12.3231 9.23918C12.4703 8.91921 12.5524 8.56333 12.5524 8.18837C12.5524 6.7932 11.4164 5.6622 10.0152 5.6622C9.84806 5.6622 9.68472 5.67828 9.52663 5.70898L6.06547 1.33975C7.21931 0.685977 8.55467 0.312514 9.97752 0.312514C14.3449 0.312514 17.8879 3.83109 17.8879 8.17452C17.8879 10.2573 17.0732 12.1505 15.7435 13.5569L12.3231 9.23918Z" fill="currentColor" />
</svg>
