<svg width="20" height="20" viewBox="0 0 20 20" fill="currentColor" xmlns="http://www.w3.org/2000/svg">
  <path fill-rule="evenodd" d="M0 10C0 9.25279 0 8.5907 0.00962822 8H19.9904C20 8.5907 20 9.25279 20 10C20 13.2792 20 14.9188 19.1862 16.0811C18.8851 16.5111 18.5111 16.8851 18.0811 17.1862C16.9188 18 15.2792 18 12 18H8C4.72077 18 3.08116 18 1.91891 17.1862C1.48891 16.8851 1.1149 16.5111 0.813816 16.0811C0 14.9188 0 13.2792 0 10ZM4 12.25C3.58579 12.25 3.25 12.5858 3.25 13C3.25 13.4142 3.58579 13.75 4 13.75H6C6.41421 13.75 6.75 13.4142 6.75 13C6.75 12.5858 6.41421 12.25 6 12.25H4ZM9 12.25C8.58579 12.25 8.25 12.5858 8.25 13C8.25 13.4142 8.58579 13.75 9 13.75H13C13.4142 13.75 13.75 13.4142 13.75 13C13.75 12.5858 13.4142 12.25 13 12.25H9Z" fill="currentColor" />
  <path d="M19.8795 6H0.120511C0.227785 5.11949 0.430552 4.46626 0.813816 3.91891C1.1149 3.48891 1.48891 3.1149 1.91891 2.81382C3.08116 2 4.72077 2 8 2H12C15.2792 2 16.9188 2 18.0811 2.81382C18.5111 3.1149 18.8851 3.48891 19.1862 3.91891C19.5694 4.46626 19.7722 5.1195 19.8795 6Z" fill="currentColor" />
</svg>
