<svg width="20" height="20" viewBox="0 0 20 20" fill="currentColor" xmlns="http://www.w3.org/2000/svg">
  <path d="M2.34945 2.32304C2.75837 2.32304 2.99936 2.32431 3.17342 2.34566C3.25268 2.35538 3.2929 2.36681 3.31137 2.3736C3.31977 2.37669 3.32368 2.37912 3.32392 2.37925C3.32412 2.3795 3.32649 2.38246 3.33061 2.39005C3.33976 2.40686 3.35618 2.44385 3.37529 2.5182C3.41724 2.68148 3.44599 2.91076 3.49254 3.30006L4.20245 9.23705C4.28704 9.94466 4.35794 10.5378 4.47848 11.0069C4.60611 11.5036 4.80845 11.9451 5.21419 12.2919C5.27125 12.3406 5.32979 12.3854 5.38974 12.4264C5.91321 12.9073 6.69417 12.9073 8.23269 12.9073H13.9099C13.9287 12.9073 13.9474 12.9073 13.966 12.9073H14.2621C14.9702 12.9073 15.565 12.9074 16.0447 12.85C16.5533 12.7891 17.0162 12.656 17.4146 12.3325C17.8131 12.009 18.0263 11.5934 18.1725 11.1227C18.3105 10.6787 18.4082 10.1165 18.5246 9.44718L18.6937 8.47496C18.8522 7.56365 18.9833 6.81013 18.9985 6.20834C19.0144 5.57719 18.9085 4.99203 18.4769 4.50381C18.0453 4.0156 17.4604 3.81933 16.8081 3.73061C16.1862 3.64602 15.389 3.64605 14.4248 3.64607L4.92362 3.64607L4.8599 3.11315C4.81922 2.77258 4.78157 2.4574 4.71592 2.2019C4.64326 1.91909 4.51749 1.62655 4.24267 1.39165C3.96784 1.15675 3.65023 1.07032 3.34874 1.03334C3.07637 0.999923 2.74531 0.999961 2.38758 1L1.69034 1.00001C1.30907 1.00001 1 1.29618 1 1.66152C1 2.02687 1.30907 2.32304 1.69034 2.32304H2.34945Z" fill="currentColor" />
  <path fill-rule="evenodd" d="M6.85999 14.7531C5.6781 14.7531 4.71999 15.7038 4.71999 16.8765C4.71999 18.0493 5.6781 19 6.85999 19C8.04188 19 8.99999 18.0493 8.99999 16.8765C8.99999 15.7038 8.04188 14.7531 6.85999 14.7531ZM6.33332 16.8765C6.33332 16.5879 6.56912 16.3539 6.85999 16.3539C7.15086 16.3539 7.38665 16.5879 7.38665 16.8765C7.38665 17.1652 7.15086 17.3991 6.85999 17.3991C6.56912 17.3991 6.33332 17.1652 6.33332 16.8765Z" fill="currentColor" />
  <path fill-rule="evenodd" d="M14.86 14.7531C13.6781 14.7531 12.72 15.7038 12.72 16.8765C12.72 18.0493 13.6781 19 14.86 19C16.0419 19 17 18.0493 17 16.8765C17 15.7038 16.0419 14.7531 14.86 14.7531ZM14.3333 16.8765C14.3333 16.5879 14.5691 16.3539 14.86 16.3539C15.1509 16.3539 15.3867 16.5879 15.3867 16.8765C15.3867 17.1652 15.1509 17.3991 14.86 17.3991C14.5691 17.3991 14.3333 17.1652 14.3333 16.8765Z" fill="currentColor" />
</svg>
