<svg width="20" height="20" viewBox="0 0 20 20" fill="currentColor" xmlns="http://www.w3.org/2000/svg">
  <path fill-rule="evenodd" d="M12.8199 1H7.18012C5.91773 0.999982 4.9002 0.999967 4.09992 1.10756C3.26905 1.21927 2.56948 1.45825 2.01386 2.01386C1.45825 2.56948 1.21927 3.26905 1.10756 4.09992C0.999967 4.9002 0.999982 5.91772 1 7.1801V12.8199C0.999982 14.0823 0.999967 15.0998 1.10756 15.9001C1.21927 16.731 1.45825 17.4305 2.01386 17.9861C2.56948 18.5418 3.26905 18.7807 4.09992 18.8924C4.9002 19 5.91773 19 7.18012 19H12.8199C14.0823 19 15.0998 19 15.9001 18.8924C16.731 18.7807 17.4305 18.5418 17.9861 17.9861C18.5418 17.4305 18.7807 16.731 18.8924 15.9001C19 15.0998 19 14.0823 19 12.8199V7.18012C19 5.91773 19 4.9002 18.8924 4.09992C18.7807 3.26905 18.5418 2.56948 17.9861 2.01386C17.4305 1.45825 16.731 1.21927 15.9001 1.10756C15.0998 0.999967 14.0823 0.999982 12.8199 1ZM16.6044 6.94411C16.8496 6.6103 16.7778 6.14089 16.444 5.89564C16.1102 5.65039 15.6408 5.72219 15.3956 6.05599L12.0914 10.5533C11.8508 10.8808 11.6904 11.0985 11.5592 11.2559C11.4281 11.4132 11.3688 11.4566 11.3473 11.4696C11.0909 11.6248 10.7668 11.6124 10.5229 11.4382C10.5025 11.4236 10.4467 11.3758 10.3279 11.209C10.2091 11.0421 10.0657 10.8127 9.85075 10.4679L9.83813 10.4477C9.62319 10.1028 9.44363 9.81481 9.2853 9.59267C9.12496 9.36772 8.94426 9.14815 8.70849 8.98508C7.93834 8.45237 6.91876 8.45237 6.14861 8.98508C5.91285 9.14815 5.73214 9.36772 5.57181 9.59267C5.41347 9.8148 5.23393 10.1028 5.01898 10.4477L3.36352 13.1033C3.14439 13.4548 3.25172 13.9174 3.60322 14.1365C3.95473 14.3556 4.41732 14.2483 4.63644 13.8968L6.27928 11.2614C6.51011 10.8911 6.66517 10.643 6.79328 10.4633C6.92247 10.2821 6.9823 10.2323 7.0019 10.2187C7.25862 10.0412 7.59848 10.0412 7.8552 10.2187C7.87481 10.2323 7.93463 10.2821 8.06383 10.4633C8.19193 10.643 8.34699 10.8911 8.57782 11.2614L8.59009 11.2811C8.78952 11.601 8.95719 11.87 9.10594 12.0789C9.25779 12.2922 9.42832 12.4996 9.65079 12.6586C10.3823 13.1813 11.3548 13.2184 12.124 12.7528C12.3579 12.6113 12.5438 12.4175 12.7114 12.2164C12.8756 12.0194 13.0632 11.764 13.2864 11.4602L16.6044 6.94411Z" fill="currentColor" />
</svg>
