<svg width="20" height="20" viewBox="0 0 20 20" fill="currentColor" xmlns="http://www.w3.org/2000/svg">
  <path fill-rule="evenodd" d="M1 10C1 5.02944 5.02944 1 10 1C14.9706 1 19 5.02944 19 10C19 14.9706 14.9706 19 10 19C5.02944 19 1 14.9706 1 10ZM9.75358 6.6803C10.1769 6.88024 10.686 7.21966 11.2786 7.61477L11.731 7.91638C12.2155 8.2393 12.6421 8.52366 12.9409 8.79368C13.2585 9.08074 13.5598 9.46376 13.5598 10.0001C13.5598 10.5365 13.2585 10.9195 12.9409 11.2065C12.6421 11.4766 12.2155 11.7609 11.731 12.0838L11.2786 12.3854C10.686 12.7806 10.1769 13.12 9.75358 13.3199C9.31864 13.5253 8.77261 13.6818 8.23088 13.3919C7.68914 13.1019 7.51645 12.5608 7.44611 12.085C7.37764 11.6218 7.37768 11.01 7.37772 10.2978V9.70244C7.37768 8.99021 7.37764 8.37838 7.44611 7.91522C7.51645 7.43938 7.68914 6.89827 8.23088 6.60834C8.77262 6.31841 9.31864 6.47488 9.75358 6.6803Z" fill="currentColor" />
</svg>
