<svg width="20" height="20" viewBox="0 0 20 20" fill="currentColor" xmlns="http://www.w3.org/2000/svg">
  <path fill-rule="evenodd" d="M12.3056 4.93301e-07H7.69442C7.49857 -8.13829e-06 7.31849 -1.607e-05 7.16738 0.0104741C7.00496 0.021749 6.82637 0.0474353 6.64488 0.123922C6.25284 0.289144 5.94136 0.606056 5.77897 1.00494C5.72437 1.13906 5.69611 1.27164 5.68048 1.39748C5.21916 1.40367 4.86081 1.42708 4.54122 1.51421C3.35806 1.83677 2.4339 2.77705 2.11687 3.98086C1.99961 4.42612 1.99978 4.94533 2.00002 5.70623L2.00004 13.772C2.00003 15.0442 2.00001 16.0696 2.10658 16.876C2.21722 17.7134 2.45392 18.4184 3.00424 18.9783C3.55457 19.5382 4.24748 19.779 5.07043 19.8916C5.86307 20 6.87088 20 8.12121 20H11.8787C13.1291 20 14.1369 20 14.9296 19.8916C15.7525 19.779 16.4454 19.5382 16.9958 18.9783C17.5461 18.4184 17.7828 17.7134 17.8934 16.876C18 16.0696 18 15.0442 18 13.772L18 5.70623C18.0002 4.94535 18.0004 4.42612 17.8831 3.98086C17.5661 2.77705 16.6419 1.83677 15.4588 1.51421C15.1392 1.42708 14.7808 1.40367 14.3195 1.39748C14.3039 1.27164 14.2757 1.13906 14.2211 1.00494C14.0587 0.606056 13.7472 0.289144 13.3551 0.123922C13.1737 0.0474353 12.9951 0.021749 12.8326 0.0104741C12.6815 -1.607e-05 12.5015 -8.13828e-06 12.3056 4.93301e-07ZM7.04726 1.5361C7.07037 1.48137 7.11324 1.43775 7.16703 1.41424C7.17376 1.4125 7.19972 1.40682 7.26083 1.40258C7.35957 1.39573 7.49202 1.39535 7.7144 1.39535H12.2858C12.5082 1.39535 12.6406 1.39573 12.7394 1.40258C12.8005 1.40682 12.8265 1.4125 12.8332 1.41424C12.887 1.43775 12.9298 1.48137 12.953 1.5361C12.9547 1.54294 12.9602 1.56936 12.9644 1.63153C12.9711 1.73201 12.9715 1.86676 12.9715 2.09302C12.9715 2.31929 12.9711 2.45404 12.9644 2.55452C12.9602 2.61668 12.9547 2.6431 12.953 2.64994C12.9298 2.70467 12.887 2.7483 12.8332 2.77181C12.8265 2.77355 12.8005 2.77922 12.7394 2.78347C12.6406 2.79032 12.5082 2.7907 12.2858 2.7907H7.7144C7.49202 2.7907 7.35957 2.79032 7.26083 2.78347C7.19973 2.77922 7.17376 2.77355 7.16703 2.77181C7.11324 2.7483 7.07037 2.70467 7.04726 2.64995C7.04555 2.6431 7.03997 2.61668 7.0358 2.55452C7.02906 2.45404 7.02869 2.31929 7.02869 2.09302C7.02869 1.86676 7.02906 1.73201 7.0358 1.63153C7.03997 1.56937 7.04555 1.54295 7.04726 1.5361ZM11.8989 9.30392C12.1515 8.97024 12.6225 8.90797 12.9505 9.16585C13.2777 9.42316 13.338 9.9013 13.0859 10.2343L10.0882 14.195C9.98603 14.3301 9.86684 14.4877 9.7469 14.607C9.60407 14.749 9.36776 14.9326 9.02392 14.9499C8.68005 14.9673 8.42705 14.8083 8.27111 14.6814C8.14017 14.5747 8.00628 14.4299 7.89153 14.3057L6.50885 12.811C6.22561 12.5048 6.23945 12.023 6.53997 11.7342C6.84117 11.4448 7.31595 11.4591 7.59982 11.7659L8.93942 13.214L11.8989 9.30392Z" fill="currentColor" />
</svg>
