<svg width="20" height="20" viewBox="0 0 20 20" fill="currentColor" xmlns="http://www.w3.org/2000/svg">
  <path fill-rule="evenodd" d="M12.3056 6.52347e-07H7.69442C7.49853 -9.75034e-06 7.31851 -1.93082e-05 7.16738 0.0104725C7.00496 0.0217473 6.82636 0.0474336 6.64488 0.12392C6.25283 0.289143 5.94136 0.606054 5.77897 1.00494C5.72436 1.13906 5.6961 1.27163 5.68048 1.39747C5.21916 1.40367 4.86081 1.42707 4.54122 1.5142C3.35806 1.83676 2.4339 2.77705 2.11687 3.98085C1.99961 4.42612 1.99978 4.94533 2.00002 5.70623L2.00004 13.772C2.00003 15.0441 2.00001 16.0696 2.10658 16.876C2.21722 17.7133 2.45392 18.4183 3.00424 18.9783C3.55456 19.5382 4.24747 19.779 5.07042 19.8916C5.86306 20 6.87087 20 8.12121 20H11.8787C13.1291 20 14.1369 20 14.9296 19.8916C15.7525 19.779 16.4454 19.5382 16.9957 18.9783C17.5461 18.4183 17.7828 17.7133 17.8934 16.876C18 16.0696 18 15.0441 17.9999 13.772L18 5.70622C18.0002 4.94534 18.0004 4.42611 17.8831 3.98085C17.5661 2.77705 16.6419 1.83676 15.4588 1.5142C15.1392 1.42708 14.7808 1.40367 14.3195 1.39748C14.3039 1.27164 14.2756 1.13906 14.221 1.00494C14.0587 0.606054 13.7472 0.289143 13.3551 0.12392C13.1736 0.0474336 12.9951 0.0217473 12.8326 0.0104725C12.6815 -1.93072e-05 12.5015 -9.75034e-06 12.3056 6.52347e-07ZM7.04713 1.53611C7.07025 1.48138 7.11312 1.43776 7.16691 1.41424C7.17364 1.41251 7.1996 1.40683 7.26071 1.40259C7.35945 1.39573 7.4919 1.39536 7.71428 1.39536H12.2857C12.5081 1.39536 12.6405 1.39573 12.7393 1.40259C12.8004 1.40683 12.8263 1.41251 12.8331 1.41424C12.8868 1.43776 12.9297 1.48138 12.9528 1.53611C12.9545 1.54295 12.9601 1.56937 12.9643 1.63154C12.971 1.73201 12.9714 1.86677 12.9714 2.09303C12.9714 2.31929 12.971 2.45405 12.9643 2.55452C12.9601 2.61669 12.9545 2.64311 12.9528 2.64995C12.9297 2.70468 12.8868 2.7483 12.8331 2.77182C12.8263 2.77356 12.8004 2.77923 12.7393 2.78347C12.6405 2.79033 12.5081 2.7907 12.2857 2.7907H7.71428C7.4919 2.7907 7.35945 2.79033 7.26071 2.78347C7.1996 2.77923 7.17364 2.77356 7.16691 2.77182C7.11312 2.7483 7.07025 2.70468 7.04713 2.64995C7.04543 2.64311 7.03985 2.61669 7.03568 2.55452C7.02894 2.45405 7.02857 2.31929 7.02857 2.09303C7.02857 1.86677 7.02894 1.73201 7.03568 1.63154C7.03985 1.56937 7.04543 1.54295 7.04713 1.53611Z" fill="currentColor" />
</svg>
