<svg width="20" height="20" viewBox="0 0 20 20" fill="currentColor" xmlns="http://www.w3.org/2000/svg">
  <path d="M3.50129 5.64191C3.66571 4.24295 4.56054 3.11563 5.67304 2.34476C6.90717 1.4896 8.5005 1 10 1C11.8137 1 13.2585 1.57851 14.2497 2.59305C15.0812 3.44421 15.5424 4.55019 15.6665 5.74402C16.2973 5.87777 16.9722 6.1829 17.5481 6.67044C18.3759 7.37124 19 8.45125 19 9.9165C19 10.7562 18.889 11.4746 18.559 12.1312C18.2299 12.786 17.7198 13.3056 17.0547 13.8135C16.2946 14.394 15.1618 14.7621 13.9623 14.9919C12.7394 15.2262 11.3504 15.3342 10 15.3342C8.65305 15.3342 7.26425 15.2349 6.04015 15.0047C4.84031 14.779 3.70034 14.4102 2.9355 13.8059C1.60217 12.7524 1 11.4812 1 9.9165C1 8.09574 2.01351 6.52113 3.50129 5.64191Z" fill="currentColor" />
  <path d="M6.1324 17.1106C6.26383 16.7163 6.05072 16.2901 5.65639 16.1587C5.26206 16.0273 4.83584 16.2404 4.70441 16.6347L4.24625 18.0092C4.11481 18.4035 4.32793 18.8297 4.72226 18.9612C5.11659 19.0926 5.5428 18.8795 5.67424 18.4852L6.1324 17.1106Z" fill="currentColor" />
  <path d="M10.2382 16.1587C10.6325 16.2901 10.8457 16.7163 10.7142 17.1106L10.2561 18.4852C10.1246 18.8795 9.69842 19.0926 9.30409 18.9612C8.90976 18.8297 8.69664 18.4035 8.82807 18.0092L9.28624 16.6347C9.41767 16.2404 9.84389 16.0273 10.2382 16.1587Z" fill="currentColor" />
  <path d="M15.2961 17.1106C15.4275 16.7163 15.2144 16.2901 14.82 16.1587C14.4257 16.0273 13.9995 16.2404 13.8681 16.6347L13.4099 18.0092C13.2785 18.4035 13.4916 18.8297 13.8859 18.9612C14.2802 19.0926 14.7065 18.8795 14.8379 18.4852L15.2961 17.1106Z" fill="currentColor" />
</svg>
