<svg width="20" height="20" viewBox="0 0 20 20" fill="currentColor" xmlns="http://www.w3.org/2000/svg">
  <path fill-rule="evenodd" d="M1 9.82904C1 4.90904 5.07278 1 10 1C14.9272 1 19 4.90904 19 9.82904C19 14.749 14.9272 18.6581 10 18.6581C9.17294 18.6581 8.37087 18.5485 7.6085 18.3429C7.40112 18.287 7.15368 18.3088 6.90387 18.4104C5.95038 18.7981 4.34215 19.1431 2.51781 18.9397C2.27676 18.9128 2.07199 18.7428 1.99171 18.5029C1.91144 18.263 1.97001 17.9961 2.14218 17.8171C2.75103 17.1842 2.99212 16.4767 3.04014 15.7596C3.05199 15.5828 2.97686 15.3602 2.78481 15.108C1.66655 13.6392 1 11.8117 1 9.82904ZM6 10.9999C6.55228 10.9999 7 10.5522 7 9.99994C7 9.44766 6.55228 8.99994 6 8.99994C5.44772 8.99994 5 9.44766 5 9.99994C5 10.5522 5.44772 10.9999 6 10.9999ZM10 10.9999C10.5523 10.9999 11 10.5522 11 9.99994C11 9.44766 10.5523 8.99994 10 8.99994C9.44772 8.99994 9 9.44766 9 9.99994C9 10.5522 9.44772 10.9999 10 10.9999ZM15 9.99994C15 10.5522 14.5523 10.9999 14 10.9999C13.4477 10.9999 13 10.5522 13 9.99994C13 9.44766 13.4477 8.99994 14 8.99994C14.5523 8.99994 15 9.44766 15 9.99994Z" fill="currentColor" />
</svg>
