<svg width="20" height="20" viewBox="0 0 20 20" fill="currentColor" xmlns="http://www.w3.org/2000/svg">
  <path fill-rule="evenodd" d="M6.42423 12.2437C6.7635 12.3837 7.0303 12.6495 7.56389 13.181L9.51044 15.12C9.7808 15.3893 10.2191 15.3893 10.4895 15.12L12.4361 13.181C12.9696 12.6495 13.2364 12.3837 13.5757 12.2437C13.915 12.1038 14.2923 12.1038 15.0469 12.1038H15.5736C16.1056 12.1037 16.5574 12.1037 16.9244 12.1416C17.3115 12.1816 17.6818 12.2696 18.0165 12.498C18.2471 12.6553 18.4463 12.8538 18.6042 13.0834C18.8335 13.4168 18.9219 13.7858 18.962 14.1713C19 14.5369 19 14.9869 19 15.5169V15.5869C19 16.1168 19 16.5669 18.962 16.9325C18.9219 17.318 18.8335 17.687 18.6042 18.0204C18.4463 18.25 18.2471 18.4485 18.0165 18.6058C17.6818 18.8342 17.3115 18.9222 16.9244 18.9622C16.5574 19.0001 16.1056 19 15.5736 19H4.42639C3.89439 19 3.44262 19.0001 3.07559 18.9622C2.68853 18.9222 2.31816 18.8342 1.98346 18.6058C1.75295 18.4485 1.55369 18.25 1.39578 18.0204C1.16651 17.687 1.07815 17.318 1.03802 16.9325C0.999971 16.5669 0.999985 16.1168 1 15.5869V15.5168C0.999985 14.9869 0.999971 14.5369 1.03802 14.1713C1.07815 13.7858 1.16651 13.4168 1.39578 13.0834C1.55369 12.8538 1.75295 12.6553 1.98346 12.498C2.31816 12.2696 2.68853 12.1816 3.07559 12.1416C3.4426 12.1037 3.89441 12.1037 4.42638 12.1038H4.95304C5.70765 12.1038 6.08496 12.1038 6.42423 12.2437ZM15.5385 16.4714C16.0483 16.4714 16.4615 16.0597 16.4615 15.5519C16.4615 15.0441 16.0483 14.6324 15.5385 14.6324C15.0287 14.6324 14.6154 15.0441 14.6154 15.5519C14.6154 16.0597 15.0287 16.4714 15.5385 16.4714Z" fill="currentColor" />
  <path d="M9.9999 1C9.57889 1 9.2376 1.33997 9.2376 1.75935V10.9601L6.84663 8.57842C6.54893 8.28187 6.06626 8.28187 5.76856 8.57842C5.47086 8.87497 5.47086 9.35576 5.76856 9.65231L9.46087 13.3303C9.75857 13.6269 10.2412 13.6269 10.5389 13.3303L14.2312 9.65231C14.5289 9.35576 14.5289 8.87497 14.2312 8.57842C13.9335 8.28187 13.4509 8.28187 13.1532 8.57842L10.7622 10.9601V1.75935C10.7622 1.33997 10.4209 1 9.9999 1Z" fill="currentColor" />
</svg>
