<svg width="20" height="20" viewBox="0 0 20 20" fill="currentColor" xmlns="http://www.w3.org/2000/svg">
  <path fill-rule="evenodd" d="M10.4242 0.00011465C10.6836 -0.000138151 10.9211 -0.000369546 11.1427 0.0125739L11.1427 2.60666C11.1427 3.44245 11.1427 4.1394 11.2158 4.69268C11.2929 5.27668 11.4627 5.80393 11.8791 6.22762C12.2955 6.65132 12.8138 6.82403 13.3877 6.90255C13.9315 6.97694 14.6166 6.97691 15.438 6.97689L17.9877 6.97689C18.0004 7.20245 18.0002 7.44406 17.9999 7.70804L17.9999 11.9131C17.9999 13.6226 17.9999 14.9767 17.8599 16.0364C17.7157 17.127 17.4121 18.0097 16.7279 18.7059C16.0437 19.402 15.1761 19.711 14.1041 19.8576C13.0626 20.0001 11.7317 20.0001 10.0515 20H9.94832C8.26813 20.0001 6.93726 20.0001 5.89572 19.8576C4.8238 19.711 3.9562 19.402 3.27198 18.7059C2.58777 18.0097 2.28412 17.127 2.14001 16.0364C1.99998 14.9767 1.99999 13.6226 2 11.9131V8.08716C1.99999 6.37764 1.99998 5.02358 2.14001 3.96386C2.28412 2.87324 2.58777 1.9905 3.27198 1.29436C3.9562 0.598209 4.8238 0.289265 5.89572 0.142636C6.93728 0.000159174 8.26813 0.000170928 9.94835 0.000185676L10.4242 0.00011465ZM11.8 12.3001H7.80005C7.38584 12.3001 7.05005 12.6359 7.05005 13.0501C7.05005 13.4643 7.38584 13.8001 7.80005 13.8001H11.8C12.2143 13.8001 12.55 13.4643 12.55 13.0501C12.55 12.6359 12.2143 12.3001 11.8 12.3001Z" fill="currentColor" />
  <path d="M13.3064 1.21482C13.0218 0.924647 12.7746 0.672657 12.5142 0.476969L12.5141 2.5583C12.5141 3.45505 12.5156 4.05743 12.575 4.50676C12.6317 4.93603 12.7297 5.11975 12.8489 5.24097C12.968 5.3622 13.1486 5.46194 13.5705 5.51965C14.0121 5.58006 14.6042 5.58155 15.4855 5.58155H17.5312C17.3389 5.31659 17.0912 5.0651 16.8061 4.7755L13.3064 1.21482Z" fill="currentColor" />
</svg>
