<svg width="20" height="20" viewBox="0 0 20 20" fill="currentColor" xmlns="http://www.w3.org/2000/svg">
  <path fill-rule="evenodd" d="M8.10238 1H12.6034C13.2593 0.999993 13.7956 0.999987 14.2389 1.03843C14.7015 1.07855 15.1099 1.16341 15.5043 1.35835C15.6205 1.41578 15.7334 1.47968 15.8424 1.54976C16.2125 1.78766 16.4953 2.09419 16.7678 2.47029C17.0288 2.83052 17.3047 3.29048 17.6422 3.85289L17.7041 3.95615C18.242 4.85242 18.5737 5.40503 18.7635 6.01929C18.7942 6.11886 18.822 6.2193 18.8469 6.32049C19.0002 6.94486 19.0001 7.58937 19 8.63464L19 11.8976C19 13.3769 19 14.5575 18.8755 15.4834C18.7469 16.44 18.4741 17.2278 17.8509 17.851C17.2277 18.4742 16.44 18.7469 15.4834 18.8755C15.4258 18.8833 15.3672 18.8906 15.3077 18.8974L15.3077 15.4904C15.3077 14.6611 15.3077 13.9695 15.2339 13.4205C15.156 12.841 14.9846 12.3178 14.5642 11.8973C14.1437 11.4769 13.6205 11.3055 13.041 11.2276C12.492 11.1538 11.8004 11.1538 10.9711 11.1538H9.02888C8.19953 11.1538 7.50795 11.1538 6.95893 11.2276C6.37943 11.3055 5.85623 11.4769 5.43579 11.8973C5.01536 12.3178 4.84397 12.841 4.76606 13.4205C4.69224 13.9695 4.69227 14.6611 4.69229 15.4905L4.69229 18.8974C4.63273 18.8905 4.57415 18.8833 4.51657 18.8755C3.56001 18.7469 2.77225 18.4742 2.14904 17.851C1.52584 17.2278 1.25306 16.44 1.12446 15.4834C0.999972 14.5575 0.999985 13.3769 1 11.8976V8.10237C0.999985 6.62307 0.999972 5.44249 1.12446 4.51657C1.25306 3.56002 1.52584 2.77225 2.14904 2.14904C2.77225 1.52584 3.56001 1.25306 4.51657 1.12446C5.44248 0.999972 6.62308 0.999985 8.10238 1ZM6.49573 5.42024C6.49573 5.00248 6.83439 4.66382 7.25215 4.66382L12.7479 4.66382C13.1656 4.66382 13.5043 5.00248 13.5043 5.42024C13.5043 5.83801 13.1656 6.17667 12.7479 6.17667L7.25215 6.17667C6.83439 6.17667 6.49573 5.83801 6.49573 5.42024Z" fill="currentColor" />
  <path d="M6.07691 18.9838C6.6791 19 7.35235 19 8.10239 19H11.8976C12.6476 19 13.3209 19 13.9231 18.9838V15.5385C13.9231 14.6486 13.9216 14.0509 13.8616 13.605C13.8044 13.179 13.7054 12.9967 13.5851 12.8764C13.4648 12.7561 13.2825 12.6572 12.8565 12.5999C12.4107 12.5399 11.8129 12.5385 10.9231 12.5385H9.07691C8.18705 12.5385 7.5893 12.5399 7.14342 12.5999C6.71746 12.6572 6.53515 12.7561 6.41486 12.8764C6.29457 12.9967 6.1956 13.179 6.13833 13.605C6.07838 14.0509 6.07691 14.6486 6.07691 15.5385V18.9838Z" fill="currentColor" />
</svg>
