<svg width="20" height="20" viewBox="0 0 20 20" fill="currentColor" xmlns="http://www.w3.org/2000/svg">
  <path d="M4.95017 2C5.33548 2 5.64784 2.30701 5.64784 2.68572C5.64784 3.06443 5.33548 3.37143 4.95017 3.37143H4.41861C3.52185 3.37143 2.91947 3.37289 2.47013 3.43226C2.04087 3.48899 1.85715 3.58702 1.73592 3.70617C1.6147 3.82531 1.51496 4.00588 1.45724 4.42779C1.39683 4.86942 1.39535 5.46148 1.39535 6.34286V10.2286H4.9194C5.54225 10.2286 6.06201 10.2285 6.48277 10.2706C6.92321 10.3147 7.33193 10.4104 7.7003 10.6523C7.97962 10.8357 8.21945 11.0715 8.40609 11.346C8.65222 11.708 8.74963 12.1098 8.79444 12.5426C8.80819 12.6755 8.81752 12.8184 8.82385 12.9714H11.1761C11.1825 12.8184 11.1918 12.6755 11.2056 12.5426C11.2504 12.1098 11.3478 11.708 11.5939 11.346C11.7805 11.0715 12.0204 10.8357 12.2997 10.6523C12.6681 10.4104 13.0768 10.3147 13.5172 10.2706C13.938 10.2285 14.4577 10.2286 15.0806 10.2286H18.6046V6.34286C18.6046 5.46148 18.6032 4.86942 18.5427 4.42779C18.485 4.00588 18.3853 3.82531 18.2641 3.70617C18.1428 3.58702 17.9591 3.48899 17.5299 3.43226C17.0805 3.37289 16.4781 3.37143 15.5814 3.37143H15.0498C14.6645 3.37143 14.3521 3.06443 14.3521 2.68572C14.3521 2.30701 14.6645 2 15.0498 2L15.6298 2C16.4655 1.99998 17.1625 1.99995 17.7158 2.07306C18.2998 2.15023 18.827 2.31999 19.2507 2.73642C19.6744 3.15285 19.8471 3.67107 19.9256 4.24505C20 4.78883 20 5.47381 20 6.29525V13.7047C20 14.5261 20 15.2112 19.9256 15.755C19.8471 16.3289 19.6744 16.8472 19.2507 17.2636C18.827 17.68 18.2998 17.8498 17.7158 17.9269C17.1625 18 16.4655 18 15.6297 18H15.0806C14.4577 18 13.938 18 13.5172 17.958C13.0768 17.9139 12.6681 17.8182 12.2997 17.5763C12.0204 17.3928 11.7805 17.1571 11.5939 16.8826C11.3478 16.5205 11.2504 16.1188 11.2056 15.6859C11.1673 15.3167 11.1632 14.87 11.1628 14.3429H8.83716C8.83674 14.87 8.83265 15.3167 8.79444 15.6859C8.74963 16.1188 8.65222 16.5205 8.40609 16.8826C8.21945 17.1571 7.97962 17.3928 7.7003 17.5763C7.33193 17.8182 6.92321 17.9139 6.48277 17.958C6.062 18 5.54224 18 4.91937 18H4.37024C3.53444 18 2.83749 18 2.28421 17.9269C1.70021 17.8498 1.17296 17.68 0.749265 17.2636C0.325572 16.8472 0.152855 16.3289 0.074339 15.755C-4.72963e-05 15.2112 -2.53726e-05 14.5262 9.87628e-07 13.7047V6.29532C-2.53726e-05 5.47386 -4.72888e-05 4.78884 0.074339 4.24505C0.152855 3.67107 0.325572 3.15285 0.749265 2.73642C1.17296 2.31999 1.70021 2.15023 2.28421 2.07306C2.83749 1.99995 3.53442 1.99998 4.37021 2L4.95017 2Z" fill="currentColor" />
</svg>
