<svg width="20" height="20" viewBox="0 0 20 20" fill="currentColor" xmlns="http://www.w3.org/2000/svg">
  <path d="M7.23563 1.10964C6.13086 0.888773 4.98702 1.00838 3.94934 1.40735C1.75851 2.24968 0 4.34818 0 7.10947C0 9.21776 0.950832 11.1183 2.25293 12.7876C3.55481 14.4566 5.25702 15.9568 6.86386 17.2718L6.90027 17.3016C7.50171 17.7938 8.0067 18.2071 8.45616 18.4913C8.93222 18.7923 9.423 19 10 19C10.577 19 11.0678 18.7923 11.5438 18.4913C11.9933 18.2071 12.4983 17.7938 13.0997 17.3016L13.1361 17.2718C14.743 15.9568 16.4452 14.4566 17.7471 12.7876C19.0492 11.1183 20 9.21776 20 7.10947C20 4.34818 18.2415 2.24968 16.0507 1.40735C14.2097 0.699553 12.0347 0.870991 10.3365 2.26291L13.1398 5.35636C13.2823 5.51367 13.3511 5.72214 13.3294 5.93127C13.3078 6.1404 13.1976 6.33112 13.0257 6.45724L9.63264 8.94611L11.5696 10.8405C11.87 11.1343 11.87 11.6107 11.5696 11.9045C11.2692 12.1983 10.7821 12.1983 10.4817 11.9045L7.91763 9.39669C7.75995 9.24247 7.67846 9.02892 7.69426 8.81138C7.71007 8.59383 7.82163 8.3937 8.00002 8.26284L11.4348 5.74337L7.23563 1.10964Z" fill="currentColor" />
</svg>
