<svg width="20" height="20" viewBox="0 0 20 20" fill="currentColor" xmlns="http://www.w3.org/2000/svg">
  <path fill-rule="evenodd" d="M16.3669 3.35639C12.8522 -0.158326 7.15369 -0.158326 3.63897 3.35639C0.12425 6.87111 0.12425 12.5696 3.63897 16.0843C7.15369 19.599 12.8522 19.599 16.3669 16.0843C19.8816 12.5696 19.8816 6.87111 16.3669 3.35639ZM13.0698 2.87383C11.1031 1.99333 8.83485 2.00262 6.87453 2.90173L7.93666 4.35308C9.2587 3.84482 10.7297 3.84273 12.053 4.34682L13.0698 2.87383ZM3.18438 6.59179C2.27579 8.57267 2.27578 10.868 3.18435 12.8488L4.63578 11.7867C4.12542 10.4592 4.12542 8.98146 4.63578 7.65396L3.18438 6.59179ZM6.87448 16.539C8.85536 17.4475 11.1506 17.4475 13.1315 16.5389L12.0694 15.0875C10.7419 15.5979 9.26416 15.5979 7.93666 15.0875L6.87448 16.539ZM16.8216 12.8488C17.7207 10.8884 17.73 8.62024 16.8495 6.65355L15.3765 7.67033C15.8806 8.9936 15.8785 10.4646 15.3702 11.7867L16.8216 12.8488ZM12.3465 6.17362C12.5798 6.3282 12.8017 6.50858 13.0082 6.71511C13.2147 6.92163 13.3951 7.14352 13.5497 7.37684C13.631 7.4996 13.7053 7.62562 13.7725 7.75434C14.4132 8.98183 14.4132 10.4588 13.7725 11.6863C13.5777 12.0595 13.3232 12.4105 13.0082 12.7255C12.6932 13.0405 12.3422 13.295 11.969 13.4898C10.7415 14.1305 9.26453 14.1305 8.03704 13.4898C7.66384 13.295 7.31282 13.0405 6.9978 12.7255C6.68279 12.4105 6.42835 12.0595 6.23355 11.6863C5.59283 10.4588 5.59283 8.98183 6.23355 7.75434C6.42835 7.38114 6.68279 7.03012 6.9978 6.71511C7.31282 6.40009 7.66384 6.14565 8.03704 5.95085C9.26453 5.31013 10.7415 5.31013 11.969 5.95085C12.0977 6.01804 12.2237 6.09229 12.3465 6.17362Z" fill="currentColor" />
</svg>
