<svg width="20" height="20" viewBox="0 0 20 20" fill="currentColor" xmlns="http://www.w3.org/2000/svg">
  <path fill-rule="evenodd" d="M8.12886 1L10.6666 1C12.9013 1 14.7129 2.8132 14.7129 5.04989C14.7129 5.54695 14.3103 5.94989 13.8137 5.94989C13.317 5.94989 12.9144 5.54695 12.9144 5.04989C12.9144 3.80731 11.908 2.8 10.6666 2.8H8.19363C6.6846 2.8 5.64329 2.80191 4.8601 2.9073C4.10278 3.00921 3.72281 3.1928 3.45684 3.45901C3.19086 3.72523 3.00743 4.10553 2.90562 4.86352C2.80032 5.6474 2.79841 6.68963 2.79841 8.2V11.8C2.79841 13.3104 2.80032 14.3526 2.90562 15.1365C3.00743 15.8945 3.19086 16.2748 3.45684 16.541C3.72281 16.8072 4.10278 16.9908 4.8601 17.0927C5.64329 17.1981 6.6846 17.2 8.19363 17.2H10.6666C11.908 17.2 12.9144 16.1927 12.9144 14.9501C12.9144 14.4531 13.317 14.0501 13.8137 14.0501C14.3103 14.0501 14.7129 14.4531 14.7129 14.9501C14.7129 17.1868 12.9013 19 10.6666 19H8.12888C6.70035 19 5.53752 19 4.62047 18.8766C3.66372 18.7479 2.84099 18.4702 2.18517 17.8138C1.52935 17.1574 1.25188 16.3339 1.12324 15.3763C0.99995 14.4585 0.999973 13.2946 1 11.8648V8.13517C0.999973 6.70538 0.99995 5.54154 1.12324 4.62367C1.25188 3.66608 1.52935 2.84262 2.18517 2.18622C2.84099 1.52982 3.66372 1.2521 4.62047 1.12335C5.53752 0.99995 6.70033 0.999973 8.12886 1Z" fill="currentColor" />
  <path fill-rule="evenodd" d="M8.86806 10.0224C8.86636 9.78369 8.95949 9.55409 9.12694 9.38411L11.3749 7.10217C11.7236 6.74823 12.2929 6.74421 12.6466 7.09319C13.0002 7.44218 13.0042 8.01201 12.6555 8.36596L11.9166 9.11603L18.1008 9.11612C18.5974 9.11613 19 9.51908 19 10.0161C19 10.5132 18.5974 10.9161 18.1008 10.9161L11.9603 10.916L12.6465 11.5931C13.0002 11.9421 13.0042 12.5119 12.6556 12.8659C12.307 13.2198 11.7376 13.2239 11.384 12.875L9.13597 10.6569C8.96612 10.4893 8.86975 10.2611 8.86806 10.0224Z" fill="currentColor" />
</svg>
