<svg width="20" height="20" viewBox="0 0 20 20" fill="currentColor" xmlns="http://www.w3.org/2000/svg">
  <path d="M8.10767 2H11.8923C13.3973 1.99999 14.5897 1.99998 15.5382 2.10139C16.5108 2.20537 17.3181 2.42327 18.011 2.92107C18.4129 3.20973 18.7671 3.55727 19.0613 3.95152C19.2545 4.21048 19.4064 4.48573 19.5262 4.78001C19.4771 4.79869 19.4292 4.82265 19.3833 4.85203L12.8296 9.05152C12.0091 9.57729 11.4433 9.93866 10.9714 10.1752C10.5159 10.4036 10.2093 10.4828 9.9192 10.484C9.6291 10.4853 9.32179 10.4088 8.86418 10.1845C8.39013 9.95213 7.82104 9.59576 6.99574 9.07725L0.412106 4.94096C0.54025 4.58545 0.710673 4.25715 0.938743 3.95152C1.23294 3.55727 1.58715 3.20973 1.98895 2.92107C2.68189 2.42327 3.48916 2.20537 4.46176 2.10139C5.41025 1.99998 6.60268 1.99999 8.10767 2Z" fill="currentColor" />
  <path d="M0.0879784 6.52547C-1.70228e-05 7.43138 -9.35041e-06 8.55545 1.98367e-07 9.95504V10.0449C-9.87623e-06 11.5216 -1.80138e-05 12.6916 0.103331 13.6222C0.209308 14.5765 0.43139 15.3686 0.938743 16.0485C1.23294 16.4427 1.58715 16.7903 1.98895 17.0789C2.68189 17.5767 3.48916 17.7946 4.46176 17.8986C5.41025 18 6.60266 18 8.10764 18H11.8923C13.3973 18 14.5898 18 15.5382 17.8986C16.5108 17.7946 17.3181 17.5767 18.011 17.0789C18.4129 16.7903 18.7671 16.4427 19.0613 16.0485C19.5686 15.3686 19.7907 14.5765 19.8967 13.6222C20 12.6916 20 11.5217 20 10.045V9.95505C20 8.47843 20 7.3084 19.8967 6.37778C19.8947 6.36029 19.8927 6.34286 19.8907 6.32548L13.634 10.3347C12.8567 10.8327 12.2229 11.2389 11.6697 11.5162C11.0919 11.8059 10.542 11.9872 9.9261 11.9899C9.31017 11.9926 8.75868 11.8162 8.17822 11.5316C7.62249 11.2592 6.98497 10.8586 6.20318 10.3675L0.0879784 6.52547Z" fill="currentColor" />
</svg>
