<svg width="20" height="20" viewBox="0 0 20 20" fill="currentColor" xmlns="http://www.w3.org/2000/svg">
  <path fill-rule="evenodd" d="M2.54497 2.73005C2 3.79961 2 5.19974 2 8V12C2 14.8003 2 16.2004 2.54497 17.27C3.02433 18.2108 3.78924 18.9757 4.73005 19.455C5.79961 20 7.19974 20 10 20C12.8003 20 14.2004 20 15.27 19.455C16.2108 18.9757 16.9757 18.2108 17.455 17.27C18 16.2004 18 14.8003 18 12V8C18 5.19974 18 3.79961 17.455 2.73005C16.9757 1.78924 16.2108 1.02433 15.27 0.544967C14.2004 0 12.8003 0 10 0C7.19974 0 5.79961 0 4.73005 0.544967C3.78924 1.02433 3.02433 1.78924 2.54497 2.73005ZM10.75 5C10.75 4.58579 10.4142 4.25 10 4.25C9.58579 4.25 9.25 4.58579 9.25 5V8C9.25 8.41421 9.58579 8.75 10 8.75C10.4142 8.75 10.75 8.41421 10.75 8V5Z" fill="currentColor" />
</svg>
