<svg width="20" height="20" viewBox="0 0 20 20" fill="currentColor" xmlns="http://www.w3.org/2000/svg">
  <path fill-rule="evenodd" d="M10.4242 19.9999C10.6836 20.0002 10.9211 20.0004 11.1427 19.9875L11.1427 17.3934C11.1427 16.5576 11.1427 15.8606 11.2158 15.3074C11.2929 14.7234 11.4627 14.1961 11.8791 13.7724C12.2955 13.3487 12.8138 13.176 13.3877 13.0975C13.9315 13.0231 14.6166 13.0231 15.438 13.0232L17.9877 13.0232C18.0004 12.7976 18.0002 12.556 17.9999 12.292L17.9999 8.08696C17.9999 6.37744 17.9999 5.02339 17.8599 3.96367C17.7157 2.87305 17.4121 1.99032 16.7279 1.29417C16.0437 0.598025 15.1761 0.28908 14.1041 0.142451C13.0626 -2.38553e-05 11.7317 -1.22949e-05 10.0515 1.20346e-06L9.94831 1.21248e-06C8.26812 -1.19921e-05 6.93726 -2.33198e-05 5.89572 0.142452C4.8238 0.289081 3.95619 0.598026 3.27198 1.29417C2.58777 1.99032 2.28412 2.87305 2.14001 3.96367C1.99997 5.02339 1.99999 6.37747 2 8.08699L2 11.9129C1.99999 13.6224 1.99998 14.9765 2.14001 16.0362C2.28412 17.1268 2.58777 18.0095 3.27198 18.7057C3.9562 19.4018 4.8238 19.7108 5.89572 19.8574C6.93728 19.9999 8.26813 19.9999 9.94835 19.9999L10.4242 19.9999ZM11.8 7.69995L7.80005 7.69995C7.38583 7.69995 7.05005 7.36416 7.05005 6.94995C7.05005 6.53574 7.38583 6.19995 7.80005 6.19995L11.8 6.19995C12.2143 6.19995 12.55 6.53574 12.55 6.94995C12.55 7.36416 12.2143 7.69995 11.8 7.69995Z" fill="currentColor" />
  <path d="M13.3064 18.7852C13.0218 19.0754 12.7746 19.3274 12.5142 19.5231L12.5141 17.4417C12.5141 16.545 12.5156 15.9426 12.575 15.4933C12.6317 15.064 12.7297 14.8803 12.8489 14.7591C12.968 14.6378 13.1486 14.5381 13.5705 14.4804C14.0121 14.42 14.6042 14.4185 15.4855 14.4185L17.5312 14.4185C17.3389 14.6835 17.0912 14.9349 16.8061 15.2245L13.3064 18.7852Z" fill="currentColor" />
</svg>
