<svg width="20" height="20" viewBox="0 0 20 20" fill="currentColor" xmlns="http://www.w3.org/2000/svg">
  <path fill-rule="evenodd" d="M10 1C6.81334 1 4.23004 3.58362 4.23004 6.77068V8.35013C4.23004 8.84948 3.97101 9.31308 3.54579 9.57478L2.31292 10.3336C0.321943 11.5589 0.662899 14.5507 2.87852 15.2965L3.72424 15.5812C4.57715 15.8683 5.44484 16.0953 6.32111 16.2621L6.32294 16.266C6.45942 16.5552 6.66974 16.9445 6.96479 17.338C7.54706 18.1146 8.53539 19 10 19C11.4646 19 12.453 18.1146 13.0352 17.338C13.3303 16.9445 13.5406 16.5552 13.6771 16.266L13.6789 16.2621C14.5552 16.0953 15.4228 15.8683 16.2757 15.5812L17.1215 15.2965C19.3371 14.5507 19.6781 11.5589 17.6871 10.3336L16.4542 9.57478C16.029 9.31308 15.77 8.84948 15.77 8.35013V6.77068C15.77 3.58362 13.1867 1 10 1ZM11.9213 16.5151C10.6436 16.6405 9.35648 16.6405 8.07872 16.5151C8.5344 17.1199 9.15984 17.615 10 17.615C10.8402 17.615 11.4656 17.1199 11.9213 16.5151Z" fill="currentColor" />
</svg>
