<svg width="20" height="20" viewBox="0 0 20 20" fill="currentColor" xmlns="http://www.w3.org/2000/svg">
  <path fill-rule="evenodd" d="M14.7756 1.28402C14.3969 1.66271 14.3969 2.27669 14.7756 2.65538L16.6892 4.56902H9.21549C5.23049 4.56902 2 7.79951 2 11.7845C2 15.7695 5.23048 19 9.21549 19H19.0303C19.5659 19 20 18.5659 20 18.0303C20 17.4948 19.5659 17.0606 19.0303 17.0606H9.21549C6.30158 17.0606 3.93939 14.6984 3.93939 11.7845C3.93939 8.87061 6.30158 6.50842 9.21549 6.50842H16.6892L14.7756 8.42207C14.3969 8.80076 14.3969 9.41473 14.7756 9.79342C15.1543 10.1721 15.7683 10.1721 16.147 9.79342L19.716 6.2244C20.0947 5.84571 20.0947 5.23173 19.716 4.85304L16.147 1.28402C15.7683 0.905327 15.1543 0.905327 14.7756 1.28402Z" fill="currentColor" />
</svg>
