<svg width="20" height="20" viewBox="0 0 20 20" fill="currentColor" xmlns="http://www.w3.org/2000/svg">
  <path fill-rule="evenodd" d="M9.47037 0.321322C9.95263 0.59123 10.1248 1.20099 9.85488 1.68325L9.59903 2.14039C10.5168 2.07016 11.4616 2.15135 12.4002 2.40283C16.8591 3.59759 19.5052 8.1808 18.3104 12.6397C17.6089 15.258 15.7379 17.2511 13.4141 18.2078C12.903 18.4182 12.3182 18.1745 12.1078 17.6634C11.8974 17.1524 12.1411 16.5675 12.6522 16.3571C14.424 15.6276 15.844 14.1121 16.3773 12.1217C17.286 8.73046 15.2734 5.24467 11.8822 4.33599C11.206 4.15479 10.5267 4.08964 9.86501 4.12827L10.3844 4.55623C10.8109 4.90767 10.8718 5.53834 10.5203 5.96485C10.1689 6.39137 9.5382 6.45223 9.11168 6.10078L7.00376 4.36386C6.63027 4.05611 6.53054 3.52518 6.76689 3.10287L8.10844 0.705831C8.37834 0.223565 8.9881 0.0514142 9.47037 0.321322ZM5.57732 4.69424C5.97859 5.07427 5.99581 5.70762 5.61579 6.10889C4.91355 6.85038 4.38018 7.7723 4.09647 8.83109C3.18779 12.2223 5.20031 15.7081 8.59155 16.6168C9.00062 16.7264 9.41011 16.7934 9.81558 16.8208C10.367 16.8582 10.7837 17.3354 10.7464 17.8868C10.7091 18.4382 10.2319 18.8549 9.68048 18.8176C9.14631 18.7815 8.60857 18.6933 8.07357 18.55C3.61466 17.3552 0.968555 12.772 2.16332 8.3131C2.53529 6.92486 3.23724 5.70987 4.16267 4.73271C4.5427 4.33144 5.17606 4.31422 5.57732 4.69424Z" fill="currentColor" />
</svg>
