<svg width="20" height="20" viewBox="0 0 20 20" fill="currentColor" xmlns="http://www.w3.org/2000/svg">
  <path fill-rule="evenodd" d="M9.95823 1H10.0418C11.737 0.999993 13.0659 0.999987 14.1202 1.11421C15.1961 1.23077 16.0678 1.47291 16.8121 2.01368C17.2627 2.34106 17.6589 2.73731 17.9863 3.18791C18.5271 3.93221 18.7692 4.80394 18.8858 5.87982C19 6.93409 19 8.26299 19 9.95821V10.0419C19 11.7371 19 13.0659 18.8858 14.1202C18.7692 15.1961 18.5271 16.0678 17.9863 16.8121C17.6589 17.2627 17.2627 17.6589 16.8121 17.9863C16.0678 18.5271 15.1961 18.7692 14.1202 18.8858C13.0659 19 11.737 19 10.0418 19H9.95814C8.26292 19 6.93408 19 5.87982 18.8858C4.80394 18.7692 3.93221 18.5271 3.18791 17.9863C2.73731 17.6589 2.34106 17.2627 2.01368 16.8121C1.47291 16.0678 1.23077 15.1961 1.11421 14.1202C0.999987 13.0659 0.999993 11.737 1 10.0418V9.95823C0.999993 8.26297 0.999987 6.9341 1.11421 5.87982C1.23077 4.80394 1.47291 3.93221 2.01368 3.18791C2.34106 2.73731 2.73731 2.34106 3.18791 2.01368C3.93221 1.47291 4.80394 1.23077 5.87982 1.11421C6.9341 0.999987 8.26297 0.999993 9.95823 1ZM13.3174 8.57672C13.5509 8.27398 13.4948 7.83924 13.1921 7.60569C12.8893 7.37215 12.4546 7.42825 12.2211 7.73099L9.15606 11.7041L7.73448 10.1964C7.47218 9.91821 7.03402 9.90532 6.75583 10.1676C6.47764 10.4299 6.46475 10.8681 6.72705 11.1463L8.13332 12.6378C8.2515 12.7633 8.38512 12.9051 8.51457 13.0086C8.66723 13.1305 8.90798 13.2775 9.23315 13.2614C9.55831 13.2453 9.78337 13.0753 9.92323 12.9388C10.0418 12.8231 10.1608 12.6687 10.266 12.5322L13.3174 8.57672Z" fill="currentColor" />
</svg>
