<svg width="20" height="20" viewBox="0 0 20 20" fill="currentColor" xmlns="http://www.w3.org/2000/svg">
  <path fill-rule="evenodd" d="M9.95823 1H10.0418C11.737 0.999993 13.0659 0.999987 14.1202 1.11421C15.1961 1.23078 16.0678 1.47291 16.8121 2.01368C17.2627 2.34106 17.6589 2.73731 17.9863 3.18791C18.5271 3.93221 18.7692 4.80394 18.8858 5.87982C19 6.9341 19 8.26296 19 9.95821V10.0418C19 11.737 19 13.0659 18.8858 14.1202C18.7692 15.1961 18.5271 16.0678 17.9863 16.8121C17.6589 17.2627 17.2627 17.6589 16.8121 17.9863C16.0678 18.5271 15.1961 18.7692 14.1202 18.8858C13.0659 19 11.737 19 10.0418 19H9.95821C8.26296 19 6.9341 19 5.87982 18.8858C4.80394 18.7692 3.93221 18.5271 3.18791 17.9863C2.73731 17.6589 2.34106 17.2627 2.01368 16.8121C1.47291 16.0678 1.23078 15.1961 1.11421 14.1202C0.999987 13.0659 0.999993 11.737 1 10.0418V9.95823C0.999993 8.26297 0.999987 6.9341 1.11421 5.87982C1.23078 4.80394 1.47291 3.93221 2.01368 3.18791C2.34106 2.73731 2.73731 2.34106 3.18791 2.01368C3.93221 1.47291 4.80394 1.23078 5.87982 1.11421C6.9341 0.999987 8.26297 0.999993 9.95823 1ZM10 6.69683C9.61766 6.69683 9.3077 7.00679 9.3077 7.38914V9.3077H7.38915C7.0068 9.3077 6.69684 9.61766 6.69684 10C6.69684 10.3824 7.00679 10.6923 7.38915 10.6923H9.3077V12.6109C9.3077 12.9932 9.61766 13.3032 10 13.3032C10.3824 13.3032 10.6923 12.9932 10.6923 12.6109V10.6923H12.6109C12.9932 10.6923 13.3032 10.3824 13.3032 10C13.3032 9.61766 12.9932 9.3077 12.6109 9.3077H10.6923V7.38914C10.6923 7.00679 10.3824 6.69683 10 6.69683Z" fill="currentColor" />
</svg>
