<svg width="20" height="20" viewBox="0 0 20 20" fill="currentColor" xmlns="http://www.w3.org/2000/svg">
  <path d="M9.24358 1.75642C9.24358 1.33866 9.58224 1 10 1C10.4178 1 10.7564 1.33866 10.7564 1.75642V2.67238C10.7564 3.09014 10.4178 3.4288 10 3.4288C9.58224 3.4288 9.24358 3.09014 9.24358 2.67238V1.75642Z" fill="currentColor" />
  <path d="M3.63598 3.63599C3.93138 3.34059 4.41033 3.34059 4.70573 3.63599L5.3534 4.28367C5.64881 4.57907 5.64881 5.05801 5.3534 5.35341C5.058 5.64882 4.57906 5.64882 4.28366 5.35341L3.63598 4.70574C3.34058 4.41033 3.34058 3.93139 3.63598 3.63599Z" fill="currentColor" />
  <path d="M16.364 3.63604C16.0686 3.34064 15.5896 3.34064 15.2942 3.63604L14.6465 4.28372C14.3511 4.57912 14.3511 5.05806 14.6465 5.35346C14.9419 5.64887 15.4209 5.64887 15.7163 5.35346L16.364 4.70579C16.6594 4.41039 16.6594 3.93144 16.364 3.63604Z" fill="currentColor" />
  <path d="M1 10C1 9.58224 1.33866 9.24358 1.75642 9.24358H2.67238C3.09014 9.24358 3.4288 9.58224 3.4288 10C3.4288 10.4178 3.09014 10.7564 2.67238 10.7564H1.75642C1.33866 10.7564 1 10.4178 1 10Z" fill="currentColor" />
  <path d="M17.3276 9.24358C16.9099 9.24358 16.5712 9.58224 16.5712 10C16.5712 10.4178 16.9099 10.7564 17.3276 10.7564H18.2436C18.6613 10.7564 19 10.4178 19 10C19 9.58224 18.6613 9.24358 18.2436 9.24358H17.3276Z" fill="currentColor" />
  <path d="M14.6465 14.6464C14.9419 14.351 15.4209 14.351 15.7163 14.6464L16.364 15.2941C16.6594 15.5895 16.6594 16.0685 16.364 16.3639C16.0686 16.6593 15.5896 16.6593 15.2942 16.3639L14.6465 15.7162C14.3511 15.4208 14.3511 14.9418 14.6465 14.6464Z" fill="currentColor" />
  <path d="M5.35341 14.6465C5.05801 14.3511 4.57907 14.3511 4.28367 14.6465L3.63599 15.2942C3.34059 15.5896 3.34059 16.0685 3.63599 16.3639C3.93139 16.6593 4.41033 16.6593 4.70574 16.3639L5.35341 15.7162C5.64882 15.4208 5.64882 14.9419 5.35341 14.6465Z" fill="currentColor" />
  <path d="M9.24358 17.3276C9.24358 16.9099 9.58224 16.5712 10 16.5712C10.4178 16.5712 10.7564 16.9099 10.7564 17.3276V18.2436C10.7564 18.6613 10.4178 19 10 19C9.58224 19 9.24358 18.6613 9.24358 18.2436V17.3276Z" fill="currentColor" />
  <path d="M9.99995 4.69226C7.0686 4.69226 4.69226 7.0686 4.69226 9.99995C4.69226 12.9313 7.0686 15.3076 9.99995 15.3076C12.9313 15.3076 15.3076 12.9313 15.3076 9.99995C15.3076 7.0686 12.9313 4.69226 9.99995 4.69226Z" fill="currentColor" />
</svg>
