<svg width="20" height="20" viewBox="0 0 20 20" fill="currentColor" xmlns="http://www.w3.org/2000/svg">
  <path d="M5.25 4.3038C5.25 1.83479 7.47385 0 10 0C12.5261 0 14.75 1.83479 14.75 4.3038C14.75 6.77281 12.5261 8.6076 10 8.6076C7.47385 8.6076 5.25 6.77281 5.25 4.3038Z" fill="currentColor" />
  <path d="M3.78199 19.9879C3.89067 20 4.01982 20 4.27814 20H15.7219C15.9802 20 16.1093 20 16.218 19.9879C17.15 19.8844 17.8859 19.1392 17.9881 18.1954C18 18.0854 18 17.9546 18 17.693V17.1829C18 15.0887 16.9238 13.1455 15.1592 12.0535C11.992 10.0935 8.00799 10.0935 4.84083 12.0535C3.07623 13.1455 2 15.0887 2 17.1829V17.693C2 17.9546 2 18.0854 2.01192 18.1954C2.11412 19.1392 2.85001 19.8844 3.78199 19.9879Z" fill="currentColor" />
</svg>
