<svg width="20" height="20" viewBox="0 0 20 20" fill="currentColor" xmlns="http://www.w3.org/2000/svg">
  <path d="M8.17209 1C5.90737 1 3.91366 2.65131 3.91366 4.87343C3.91366 7.09554 5.90737 8.74685 8.17209 8.74685C10.4368 8.74685 12.4305 7.09554 12.4305 4.87343C12.4305 2.65131 10.4368 1 8.17209 1Z" fill="currentColor" />
  <path d="M3.04238 19C2.8108 19 2.695 19 2.59757 18.9891C1.76204 18.896 1.10231 18.2253 1.01068 17.3759C1 17.2769 1 17.1591 1 16.9237V16.4647C1 14.5799 1.96485 12.8309 3.54684 11.8481C6.38623 10.0841 9.95795 10.0841 12.7973 11.8481C14.3793 12.8309 15.3442 14.5799 15.3442 16.4647V16.9237C15.3442 17.1591 15.3442 17.2769 15.3335 17.3759C15.2419 18.2253 14.5821 18.896 13.7466 18.9891C13.6492 19 13.5334 19 13.3018 19H3.04238Z" fill="currentColor" />
  <path d="M17.6823 1.42973C17.941 1.11061 18.4084 1.06245 18.7263 1.32217C19.0442 1.58189 19.0922 2.05113 18.8334 2.37025L17.0943 4.51551C17.0013 4.63037 16.8901 4.76769 16.7782 4.8728C16.643 4.99987 16.4274 5.15818 16.1182 5.18445C15.809 5.21072 15.5701 5.09101 15.4155 4.98856C15.2876 4.90381 15.155 4.78718 15.044 4.68963L14.1831 3.93339C13.8747 3.66245 13.8434 3.19178 14.1133 2.88213C14.3832 2.57248 14.8521 2.54111 15.1605 2.81205L15.9789 3.5309L17.6823 1.42973Z" fill="currentColor" />
</svg>
