<svg width="20" height="20" viewBox="0 0 20 20" fill="currentColor" xmlns="http://www.w3.org/2000/svg">
  <path d="M6.31596 15.8975C5.8133 15.474 5.65439 15.3473 5.47814 15.2649C5.3019 15.1824 5.10165 15.1411 4.45029 15.0247L4.19381 14.9789C3.39219 14.8356 2.73275 14.7178 2.21112 14.563C1.6649 14.4009 1.19597 14.1785 0.81757 13.7817C0.738118 13.6984 0.663614 13.6107 0.594433 13.5189C0.264968 13.082 0.126219 12.5888 0.0616422 12.0316C-2.72393e-05 11.4995 -1.47305e-05 10.8408 4.75521e-07 10.04V9.96007C-1.47305e-05 9.1593 -2.72356e-05 8.50051 0.0616422 7.9684C0.126219 7.41121 0.264968 6.91796 0.594433 6.48108C0.663613 6.38934 0.738116 6.3016 0.817572 6.21829C1.19597 5.82155 1.66491 5.59914 2.21112 5.43702C2.73276 5.2822 3.3922 5.16437 4.19382 5.02114L4.45029 4.97531C5.10165 4.85891 5.3019 4.81757 5.47814 4.73512C5.65439 4.65267 5.8133 4.52599 6.31596 4.10253L8.04358 2.6471C8.53924 2.22953 9.17053 2 9.82336 2C11.3337 2 12.5582 3.20342 12.5582 4.68791V15.3121C12.5582 16.7966 11.3337 18 9.82336 18C9.17053 18 8.53924 17.7705 8.04358 17.3529L6.31596 15.8975Z" fill="currentColor" />
  <path d="M13.4122 3.64138C13.5023 3.23638 13.9091 2.98159 14.3193 3.06945C17.5667 3.76508 20 6.60214 20 9.9999C20 13.3977 17.5667 16.2347 14.3193 16.9304C13.9091 17.0182 13.5023 16.7634 13.4122 16.3584C13.322 15.953 13.584 15.5544 13.9946 15.4664C16.5579 14.9173 18.4753 12.6768 18.4753 9.9999C18.4753 7.32303 16.5579 5.08249 13.9946 4.53339C13.584 4.44545 13.322 4.04678 13.4122 3.64138Z" fill="currentColor" />
  <path d="M13.9002 7.1855C14.0409 6.79494 14.4766 6.59175 14.8725 6.72905C16.2435 7.20449 17.2287 8.48782 17.2287 9.99986C17.2287 11.5119 16.2435 12.7952 14.8725 13.2707C14.4766 13.408 14.0409 13.2048 13.9002 12.8142C13.7593 12.4231 13.9687 11.9952 14.3652 11.8577C15.1468 11.5867 15.7041 10.8557 15.7041 9.99986C15.7041 9.14403 15.1468 8.41305 14.3652 8.14197C13.9687 8.00449 13.7593 7.57665 13.9002 7.1855Z" fill="currentColor" />
</svg>
