<svg width="22" height="20" viewBox="0 0 22 20" fill="currentColor" xmlns="http://www.w3.org/2000/svg">
  <path d="M6.47812 15.078C6.65436 15.1593 6.81328 15.2842 7.31593 15.7017L9.04355 17.1366C9.53921 17.5483 10.1705 17.7746 10.8233 17.7746C12.3337 17.7746 13.5581 16.5881 13.5581 15.1246V14.6517L2.19402 5.84209C2.06014 5.93347 1.93453 6.03796 1.81757 6.15887C1.73811 6.241 1.66361 6.32751 1.59443 6.41795C1.26497 6.84868 1.12622 7.33498 1.06164 7.88432C0.99997 8.40894 0.999984 9.05842 1 9.84793V9.92667C0.999984 10.7162 0.99997 11.3657 1.06164 11.8903C1.12622 12.4396 1.26497 12.9259 1.59443 13.3566C1.66361 13.4471 1.73811 13.5336 1.81757 13.6157C2.19596 14.0069 2.6649 14.2262 3.21111 14.386C3.73274 14.5386 4.39218 14.6548 5.19379 14.796L5.45027 14.8412C6.10163 14.956 6.30188 14.9967 6.47812 15.078Z" fill="currentColor" />
  <path d="M1.78073 3.92022L1.21892 3.4847C0.8872 3.22755 0.832714 2.75696 1.09887 2.43458C1.36393 2.11352 1.84593 2.06209 2.17636 2.31824L5.53136 4.91907C6.11871 4.81507 6.30941 4.7744 6.47812 4.69659C6.65436 4.6153 6.81328 4.4904 7.31594 4.07291L9.04355 2.63798C9.53921 2.22629 10.1705 2 10.8233 2C12.3337 2 13.5581 3.18647 13.5581 4.65004V11.1415L14.9234 12.1999C14.9964 11.9895 15.1648 11.8131 15.3959 11.734C16.1834 11.4642 16.7439 10.7373 16.7439 9.88725C16.7439 9.03716 16.1834 8.31026 15.3959 8.04054C14.9971 7.90396 14.7852 7.47804 14.9276 7.08763C15.0696 6.69832 15.5084 6.49701 15.9063 6.63327C17.2865 7.10599 18.2792 8.38239 18.2792 9.88725C18.2792 11.3345 17.3611 12.5704 16.0631 13.0834L17.4612 14.1672C18.7291 13.1458 19.5346 11.6068 19.5346 9.88725C19.5346 7.22621 17.6045 4.99781 15.0227 4.4516C14.6099 4.36428 14.3449 3.96774 14.4361 3.56303C14.5271 3.15909 14.9372 2.90645 15.3493 2.99364C18.6189 3.68535 21.0699 6.50682 21.0699 9.88725C21.0699 11.9603 20.1477 13.8231 18.6814 15.1132L20.781 16.7407C21.1127 16.9979 21.1672 17.4685 20.901 17.7909C20.7244 18.0047 20.4516 18.099 20.1914 18.0623L2.13353 4.06366C2.02807 3.98191 1.90564 3.93461 1.78073 3.92022Z" fill="currentColor" />
</svg>
