<svg width="20" height="20" viewBox="0 0 20 20" fill="currentColor" xmlns="http://www.w3.org/2000/svg">
  <path fill-rule="evenodd" d="M8.69804 2.93803e-06H11.3019C11.6213 -3.69818e-05 11.9212 -7.44574e-05 12.1725 0.0291703C12.4524 0.0617408 12.7467 0.137041 13.0213 0.338802C13.296 0.540563 13.4591 0.801281 13.5779 1.06163C13.6846 1.29534 13.7794 1.58531 13.8803 1.89408L14.2417 2.99893C14.278 3.0097 14.3139 3.02097 14.3495 3.03276C15.9578 3.5654 17.2188 4.85062 17.7414 6.4899C18.0005 7.30254 18.0003 8.27536 18 9.83832V10.1617C18.0003 11.7246 18.0005 12.6974 17.7414 13.5101C17.2188 15.1494 15.9578 16.4346 14.3495 16.9672C14.3139 16.979 14.278 16.9903 14.2417 17.001L13.8804 18.1058C13.7795 18.4146 13.6847 18.7046 13.578 18.9384C13.4591 19.1987 13.296 19.4594 13.0213 19.6612C12.7467 19.863 12.4524 19.9383 12.1725 19.9708C11.9212 20.0001 11.6213 20 11.3019 20H8.69807C8.37868 20 8.07877 20.0001 7.82744 19.9708C7.54754 19.9383 7.25328 19.863 6.97864 19.6612C6.70399 19.4594 6.54085 19.1987 6.42202 18.9384C6.31533 18.7046 6.22054 18.4146 6.11958 18.1058L5.75827 17.001C5.722 16.9903 5.68609 16.979 5.6505 16.9672C4.04215 16.4346 2.78119 15.1494 2.25861 13.5101C1.99954 12.6974 1.99973 11.7246 2.00002 10.1616V9.83835C1.99973 8.27536 1.99954 7.30255 2.25861 6.4899C2.78119 4.85062 4.04215 3.5654 5.6505 3.03276C5.68608 3.02098 5.72199 3.00972 5.75824 2.99896L6.11952 1.89424C6.22049 1.5854 6.3153 1.29539 6.42199 1.06163C6.54082 0.801282 6.70396 0.540563 6.9786 0.338802C7.25325 0.137041 7.54751 0.0617408 7.82741 0.0291703C8.07873 -7.44574e-05 8.37865 -3.69818e-05 8.69804 2.93803e-06ZM7.41989 17.2167L7.54029 17.5849C7.65648 17.9402 7.72467 18.145 7.7906 18.2895C7.82035 18.3546 7.84079 18.3869 7.85173 18.4018C7.8568 18.4087 7.86025 18.4123 7.86025 18.4123L7.86121 18.4131L7.8623 18.4138C7.8623 18.4138 7.86672 18.416 7.87476 18.4187C7.89214 18.4246 7.92859 18.4341 7.99866 18.4423C8.15397 18.4604 8.36617 18.4615 8.7336 18.4615H11.2664C11.6338 18.4615 11.846 18.4604 12.0013 18.4423C12.0714 18.4341 12.1078 18.4246 12.1252 18.4187C12.1333 18.416 12.1377 18.4138 12.1377 18.4138L12.1388 18.4131L12.1397 18.4123C12.1397 18.4123 12.1407 18.4113 12.1424 18.4093C12.1439 18.4075 12.1459 18.405 12.1482 18.4018C12.1592 18.3869 12.1796 18.3546 12.2094 18.2895C12.2753 18.145 12.3435 17.9402 12.4597 17.5849L12.5801 17.2167C12.1426 17.231 11.645 17.2309 11.0644 17.2308H8.93573C8.3551 17.2309 7.85739 17.231 7.41989 17.2167ZM12.4597 2.4151L12.5801 2.78325C12.1425 2.76899 11.6449 2.76909 11.0642 2.7692H8.93576C8.35506 2.76909 7.8574 2.76899 7.41986 2.78325L7.54026 2.4151C7.65645 2.05982 7.72464 1.85501 7.79057 1.71055C7.82032 1.64537 7.84076 1.61315 7.8517 1.5982C7.85677 1.59128 7.86022 1.58771 7.86022 1.58771L7.86118 1.58687L7.86227 1.5862C7.86227 1.5862 7.86668 1.58399 7.87473 1.58128C7.8921 1.57543 7.92856 1.56586 7.99863 1.5577C8.15394 1.53963 8.36614 1.53847 8.73357 1.53847H11.2663C11.6338 1.53847 11.846 1.53963 12.0013 1.5577C12.0714 1.56586 12.1078 1.57543 12.1252 1.58128C12.1332 1.58399 12.1376 1.5862 12.1376 1.5862L12.1387 1.58687L12.1397 1.58771C12.1397 1.58771 12.1432 1.59128 12.1482 1.5982C12.1592 1.61315 12.1796 1.64537 12.2093 1.71055C12.2753 1.85501 12.3435 2.05982 12.4597 2.4151ZM9.99995 6.37256C10.4168 6.37256 10.7547 6.71695 10.7547 7.14179V9.44948L12.2643 9.44973C12.6812 9.44987 13.0189 9.79438 13.0188 10.2192C13.0187 10.644 12.6807 10.9883 12.2638 10.9882L9.99995 10.9879C9.58314 10.9879 9.24524 10.6435 9.24524 10.2187V7.14179C9.24524 6.71695 9.58314 6.37256 9.99995 6.37256Z" fill="currentColor" />
</svg>
