<svg width="20" height="20" viewBox="0 0 20 20" fill="currentColor" xmlns="http://www.w3.org/2000/svg">
  <path d="M15.1265 13.7124C15.517 14.1029 15.517 14.736 15.1265 15.1266C14.736 15.5171 14.1028 15.5171 13.7123 15.1266L10 11.4143L6.2877 15.1266C5.89717 15.5171 5.26401 15.5171 4.87349 15.1266C4.48296 14.736 4.48296 14.1029 4.87349 13.7124L8.58578 10.0001L4.87346 6.28773C4.48294 5.89721 4.48294 5.26405 4.87346 4.87352C5.26398 4.483 5.89715 4.483 6.28767 4.87352L10 8.58584L13.7123 4.87352C14.1028 4.483 14.736 4.483 15.1265 4.87352C15.5171 5.26405 15.5171 5.89721 15.1265 6.28773L11.4142 10.0001L15.1265 13.7124Z" fill="currentColor" />
</svg>
