<svg
  xmlns="http://www.w3.org/2000/svg"
  width="20"
  height="20"
  viewBox="0 0 20 20"
  fill="none"
>
  <path
    d="M5.84712 1.36945C6.05162 1.72308 5.93082 2.17559 5.57729 2.38015C4.2519 3.14708 3.14643 4.25288 2.37974 5.57867C2.17523 5.9323 1.72286 6.05314 1.36934 5.84858C1.01581 5.64401 0.895004 5.19151 1.09951 4.83787C1.99578 3.28802 3.28733 1.99608 4.83672 1.09954C5.19025 0.894972 5.64262 1.01581 5.84712 1.36945Z"
    fill="currentColor"
  />
  <path
    d="M14.1529 1.36945C13.9484 1.72308 14.0692 2.17559 14.4227 2.38015C15.7481 3.14708 16.8536 4.25288 17.6203 5.57867C17.8248 5.9323 18.2771 6.05314 18.6307 5.84858C18.9842 5.64401 19.105 5.19151 18.9005 4.83787C18.0042 3.28802 16.7127 1.99608 15.1633 1.09954C14.8098 0.894972 14.3574 1.01581 14.1529 1.36945Z"
    fill="currentColor"
  />
  <path
    fill-rule="evenodd"
    clip-rule="evenodd"
    d="M1.91174 10.3699C1.91174 5.87602 5.55367 2.23299 10.0462 2.23299C14.5388 2.23299 18.1807 5.87602 18.1807 10.3699C18.1807 12.458 17.3944 14.3624 16.1019 15.8029L18.0356 17.7372C18.3244 18.0261 18.3244 18.4945 18.0356 18.7833C17.7468 19.0722 17.2786 19.0722 16.9898 18.7833L15.0178 16.8108C13.643 17.8741 11.9185 18.5069 10.0462 18.5069C8.12268 18.5069 6.35507 17.839 4.96251 16.7225C4.94002 16.7533 4.91485 16.7829 4.887 16.8108L2.915 18.7833C2.62621 19.0722 2.15798 19.0722 1.86919 18.7833C1.5804 18.4945 1.5804 18.0261 1.86919 17.7372L3.84119 15.7646C3.86186 15.7439 3.88346 15.7247 3.90584 15.707C2.66374 14.2783 1.91174 12.412 1.91174 10.3699ZM10.7857 7.00867C10.7857 6.60013 10.4546 6.26895 10.0462 6.26895C9.6378 6.26895 9.30672 6.60013 9.30672 7.00867V11.2913C9.30672 11.5715 9.46497 11.8276 9.7155 11.9529L12.2843 13.2377C12.6496 13.4204 13.0938 13.2723 13.2764 12.9069C13.4591 12.5415 13.311 12.0971 12.9457 11.9144L10.7857 10.8341V7.00867Z"
    fill="currentColor"
  />
  <path
    d="M5.84712 1.36945C6.05162 1.72308 5.93082 2.17559 5.57729 2.38015C4.2519 3.14708 3.14643 4.25288 2.37974 5.57867C2.17523 5.9323 1.72286 6.05314 1.36934 5.84858C1.01581 5.64401 0.895004 5.19151 1.09951 4.83787C1.99578 3.28802 3.28733 1.99608 4.83672 1.09954C5.19025 0.894972 5.64262 1.01581 5.84712 1.36945Z"
    fill="currentColor"
  />
  <path
    d="M14.1529 1.36945C13.9484 1.72308 14.0692 2.17559 14.4227 2.38015C15.7481 3.14708 16.8536 4.25288 17.6203 5.57867C17.8248 5.9323 18.2771 6.05314 18.6307 5.84858C18.9842 5.64401 19.105 5.19151 18.9005 4.83787C18.0042 3.28802 16.7127 1.99608 15.1633 1.09954C14.8098 0.894972 14.3574 1.01581 14.1529 1.36945Z"
    fill="currentColor"
  />
  <path
    fill-rule="evenodd"
    clip-rule="evenodd"
    d="M1.91174 10.3699C1.91174 5.87602 5.55367 2.23299 10.0462 2.23299C14.5388 2.23299 18.1807 5.87602 18.1807 10.3699C18.1807 12.458 17.3944 14.3624 16.1019 15.8029L18.0356 17.7372C18.3244 18.0261 18.3244 18.4945 18.0356 18.7833C17.7468 19.0722 17.2786 19.0722 16.9898 18.7833L15.0178 16.8108C13.643 17.8741 11.9185 18.5069 10.0462 18.5069C8.12268 18.5069 6.35507 17.839 4.96251 16.7225C4.94002 16.7533 4.91485 16.7829 4.887 16.8108L2.915 18.7833C2.62621 19.0722 2.15798 19.0722 1.86919 18.7833C1.5804 18.4945 1.5804 18.0261 1.86919 17.7372L3.84119 15.7646C3.86186 15.7439 3.88346 15.7247 3.90584 15.707C2.66374 14.2783 1.91174 12.412 1.91174 10.3699ZM10.7857 7.00867C10.7857 6.60013 10.4546 6.26895 10.0462 6.26895C9.6378 6.26895 9.30672 6.60013 9.30672 7.00867V11.2913C9.30672 11.5715 9.46497 11.8276 9.7155 11.9529L12.2843 13.2377C12.6496 13.4204 13.0938 13.2723 13.2764 12.9069C13.4591 12.5415 13.311 12.0971 12.9457 11.9144L10.7857 10.8341V7.00867Z"
    fill="currentColor"
  />
</svg>
