<svg
  xmlns="http://www.w3.org/2000/svg"
  width="20"
  height="20"
  viewBox="0 0 20 20"
  fill="none"
>
  <path
    d="M17.4161 2.20346C15.7754 0.839685 14.1595 1.29466 13.2132 1.79477C12.7752 2.02627 12.834 2.61149 13.2645 2.85686C13.9659 3.25671 14.9317 3.84477 15.6055 4.40487C16.2794 4.96497 17.0354 5.80811 17.5579 6.42561C17.8785 6.80454 18.4613 6.75258 18.6052 6.27659C18.916 5.2483 19.0568 3.56724 17.4161 2.20346Z"
    fill="currentColor"
  />
  <path
    d="M2.18389 2.20346C3.82461 0.839685 5.4405 1.29466 6.38673 1.79477C6.82473 2.02627 6.76597 2.61149 6.3355 2.85686C5.63405 3.25671 4.66829 3.84477 3.99445 4.40487C3.32061 4.96497 2.56455 5.80811 2.04207 6.42561C1.72144 6.80454 1.13865 6.75258 0.994793 6.27659C0.684007 5.2483 0.543164 3.56724 2.18389 2.20346Z"
    fill="currentColor"
  />
  <path
    fill-rule="evenodd"
    clip-rule="evenodd"
    d="M9.78327 3.47806C5.44883 3.47806 1.93506 7.01052 1.93506 11.368C1.93506 13.2868 2.6164 15.0457 3.74912 16.4133L2.17424 17.9966C1.87763 18.2948 1.87763 18.7782 2.17424 19.0764C2.47084 19.3746 2.95173 19.3746 3.24834 19.0764L4.82888 17.4875C6.17995 18.5943 7.90452 19.258 9.78327 19.258C11.7131 19.258 13.4802 18.5578 14.8469 17.3963L16.5182 19.0764C16.8148 19.3746 17.2957 19.3746 17.5923 19.0764C17.8889 18.7782 17.8889 18.2948 17.5923 17.9966L15.9074 16.3027C16.9861 14.9514 17.6315 13.2355 17.6315 11.368C17.6315 7.01052 14.1177 3.47806 9.78327 3.47806ZM9.27693 7.04127C9.6964 7.04127 10.0364 7.38312 10.0364 7.80482V10.8961L11.6419 11.7031C12.0171 11.8917 12.1692 12.3504 11.9816 12.7275C11.794 13.1047 11.3378 13.2576 10.9626 13.069L8.95292 12.0588C8.91573 12.0411 8.8802 12.0205 8.84662 11.9973C8.67063 11.8754 8.5483 11.6809 8.5225 11.4567C8.51844 11.4221 8.51672 11.3872 8.51743 11.352V7.80482C8.51743 7.38312 8.85747 7.04127 9.27693 7.04127Z"
    fill="currentColor"
  />
</svg>
