<svg
  xmlns="http://www.w3.org/2000/svg"
  width="20"
  height="20"
  viewBox="0 0 20 20"
  fill="none"
>
  <path
    d="M10.9433 12.3924C10.9433 12.8434 10.5306 13.209 10.0216 13.209C9.5125 13.209 9.09983 12.8434 9.09983 12.3924C9.09983 11.9414 9.5125 11.5758 10.0216 11.5758C10.5306 11.5758 10.9433 11.9414 10.9433 12.3924Z"
    fill="currentColor"
  />
  <path
    fill-rule="evenodd"
    clip-rule="evenodd"
    d="M6.05391 5.58252H13.9461C15.0238 5.58249 15.9137 5.58247 16.6061 5.68085C17.3313 5.78391 17.9812 6.0121 18.4538 6.58119C18.9263 7.15027 19.0289 7.82817 18.9937 8.55609C18.96 9.25099 18.792 10.1202 18.5884 11.173L18.1242 13.5742C17.907 14.6979 17.7309 15.6088 17.4995 16.3209C17.2584 17.0628 16.9322 17.6742 16.3617 18.1429C15.7913 18.6116 15.1262 18.8148 14.3482 18.9101C13.6015 19.0017 12.6689 19.0017 11.5186 19.0017H8.4814C7.33105 19.0017 6.39846 19.0017 5.65177 18.9101C4.87384 18.8148 4.20867 18.6116 3.63825 18.1429C3.06782 17.6742 2.74158 17.0628 2.50052 16.3209C2.26913 15.6088 2.09303 14.6978 1.87581 13.5741L1.41159 11.173C1.20804 10.1202 1.03996 9.25099 1.00633 8.55609C0.97111 7.82817 1.07367 7.15027 1.54624 6.58119C2.01881 6.0121 2.66867 5.78391 3.39395 5.68085C4.08631 5.58247 4.97623 5.58249 6.05391 5.58252ZM5.45328 8.81188C6.64765 7.97991 8.25751 7.48914 10 7.48914C11.7425 7.48914 13.3524 7.97991 14.5467 8.81188C15.7387 9.6422 16.5724 10.8611 16.5724 12.2921C16.5724 13.7231 15.7387 14.942 14.5467 15.7723C13.3524 16.6043 11.7425 17.0951 10 17.0951C8.25751 17.0951 6.64765 16.6043 5.45328 15.7723C4.26128 14.942 3.42762 13.7231 3.42762 12.2921C3.42762 10.8611 4.26128 9.6422 5.45328 8.81188Z"
    fill="currentColor"
  />
  <path
    fill-rule="evenodd"
    clip-rule="evenodd"
    d="M2.37622 1.74829C2.37622 1.33408 2.71379 0.998291 3.1302 0.998291L16.9129 0.998292C17.3293 0.998292 17.6669 1.33408 17.6669 1.74829C17.6669 2.16251 17.3293 2.49829 16.9129 2.49829L3.1302 2.49829C2.71379 2.49829 2.37622 2.1625 2.37622 1.74829Z"
    fill="currentColor"
  />
  <path
    fill-rule="evenodd"
    clip-rule="evenodd"
    d="M1.87219 4.03784C1.87219 3.62363 2.20976 3.28784 2.62618 3.28784L17.3738 3.28784C17.7902 3.28784 18.1278 3.62363 18.1278 4.03784C18.1278 4.45206 17.7902 4.78784 17.3738 4.78784L2.62618 4.78784C2.20976 4.78784 1.87219 4.45206 1.87219 4.03784Z"
    fill="currentColor"
  />
</svg>
