<svg width="20" height="20" viewBox="0 0 20 20" fill="currentColor" xmlns="http://www.w3.org/2000/svg">
  <path d="M18.97 3.57695C19 3.94303 19 4.39121 19 4.92815V4.98934C19 5.52628 19 5.97446 18.97 6.34054C18.9387 6.72238 18.8709 7.0808 18.6975 7.4195C18.4343 7.93353 18.016 8.35176 17.502 8.61497C17.1633 8.7884 16.8049 8.85614 16.423 8.88747C16.057 8.91751 15.6088 8.9175 15.0718 8.91749H7.6779C7.14097 8.9175 6.69278 8.91751 6.3267 8.88747C5.94486 8.85614 5.58643 8.7884 5.24774 8.61497C4.7337 8.35176 4.31547 7.93353 4.05226 7.4195C3.87882 7.0808 3.81108 6.72238 3.77975 6.34054C3.74972 5.97447 3.74972 5.52631 3.74974 4.98939V4.92814C3.74972 4.39122 3.74972 3.94302 3.77975 3.57695C3.81108 3.19511 3.87882 2.83669 4.05226 2.49799C4.31547 1.98396 4.7337 1.56573 5.24774 1.30252C5.58643 1.12909 5.94486 1.06134 6.3267 1.03002C6.69278 0.99998 7.14095 0.999989 7.67789 1L15.0718 1C15.6088 0.99999 16.057 0.99998 16.423 1.03002C16.8049 1.06134 17.1633 1.12909 17.502 1.30252C18.016 1.56573 18.4343 1.98396 18.6975 2.49799C18.8709 2.83669 18.9387 3.19511 18.97 3.57695Z" fill="currentColor" />
  <path d="M14.3507 13.6595C14.3808 14.0255 14.3808 14.4737 14.3808 15.0107V15.0719C14.3808 15.6088 14.3808 16.057 14.3507 16.4231C14.3194 16.8049 14.2517 17.1633 14.0782 17.502C13.815 18.016 13.3968 18.4343 12.8828 18.6975C12.5441 18.8709 12.1856 18.9387 11.8038 18.97C11.4377 19 10.9895 19 10.4526 19H7.64162C7.10468 19 6.65649 19 6.29041 18.97C5.90857 18.9387 5.55015 18.8709 5.21145 18.6975C4.69741 18.4343 4.27918 18.016 4.01597 17.502C3.84254 17.1633 3.77479 16.8049 3.74346 16.4231C3.71343 16.057 3.71344 15.6088 3.71345 15.0719V15.0106C3.71344 14.4737 3.71343 14.0255 3.74346 13.6595C3.77479 13.2776 3.84254 12.9192 4.01597 12.5805C4.27918 12.0665 4.69741 11.6482 5.21145 11.385C5.55015 11.2116 5.90857 11.1439 6.29041 11.1125C6.65649 11.0825 7.10467 11.0825 7.64161 11.0825H10.4526C10.9895 11.0825 11.4377 11.0825 11.8038 11.1125C12.1856 11.1439 12.5441 11.2116 12.8828 11.385C13.3968 11.6482 13.815 12.0665 14.0782 12.5805C14.2517 12.9192 14.3194 13.2776 14.3507 13.6595Z" fill="currentColor" />
  <path fill-rule="evenodd" d="M1.75069 18.9999C2.16529 18.9999 2.50139 18.6638 2.50139 18.2493L2.50139 1.75069C2.50139 1.3361 2.16529 1 1.75069 1C1.3361 1 1 1.3361 1 1.75069L1 18.2493C1 18.6638 1.3361 18.9999 1.75069 18.9999Z" fill="currentColor" />
</svg>
