<svg
  xmlns="http://www.w3.org/2000/svg"
  width="20"
  height="20"
  viewBox="0 0 20 20"
  fill="none"
>
  <path
    d="M1 15.0111V15.0724C0.99999 15.6103 0.999979 16.0592 1.03015 16.4259C1.06161 16.8084 1.12966 17.1674 1.30383 17.5065C1.56637 18.0176 1.9824 18.4337 2.49352 18.6962C2.83261 18.8704 3.19161 18.9384 3.57411 18.9699C3.94081 19.0001 4.38977 19.0001 4.92766 19H15.0723C15.6102 19.0001 16.0592 19.0001 16.4259 18.9699C16.8084 18.9384 17.1674 18.8704 17.5065 18.6962C18.0176 18.4337 18.4336 18.0176 18.6962 17.5065C18.8703 17.1674 18.9384 16.8084 18.9699 16.4259C19 16.0592 19 15.6103 19 15.0724L19 15.0111C19 14.4732 19 14.0242 18.9699 13.6575C18.9384 13.275 18.8703 12.916 18.6962 12.5769C18.4336 12.0658 18.0176 11.6497 17.5065 11.3872C17.1674 11.213 16.8084 11.145 16.4259 11.1135C16.0592 11.0834 15.6102 11.0834 15.0723 11.0834L4.92769 11.0834C4.38978 11.0834 3.94081 11.0834 3.57411 11.1135C3.19161 11.145 2.83261 11.213 2.49352 11.3872C1.9824 11.6497 1.56637 12.0658 1.30383 12.5769C1.12966 12.916 1.06161 13.275 1.03015 13.6575C0.999981 14.0242 0.99999 14.4732 1 15.0111Z"
    fill="currentColor"
  />
  <path
    d="M8.33325 4.92756V4.98886C8.33324 5.52676 8.33323 5.97574 8.3634 6.34244C8.39486 6.72493 8.46291 7.08394 8.63708 7.42303C8.89962 7.93414 9.31566 8.35018 9.82677 8.61271C10.1659 8.78689 10.5249 8.85493 10.9074 8.8864C11.2741 8.91656 11.723 8.91656 12.2609 8.91655H15.0722C15.6101 8.91656 16.0591 8.91656 16.4258 8.8864C16.8083 8.85493 17.1673 8.78689 17.5064 8.61271C18.0175 8.35018 18.4336 7.93414 18.6961 7.42303C18.8703 7.08394 18.9383 6.72493 18.9698 6.34244C18.9999 5.97574 18.9999 5.52676 18.9999 4.98886L18.9999 4.92756C18.9999 4.38966 18.9999 3.94069 18.9698 3.57398C18.9383 3.19149 18.8703 2.83248 18.6961 2.49339C18.4336 1.98228 18.0175 1.56624 17.5064 1.30371C17.1673 1.12953 16.8083 1.06149 16.4258 1.03002C16.0591 0.999858 15.6101 0.999868 15.0722 0.999878L12.2609 0.999878C11.723 0.999867 11.2741 0.999858 10.9074 1.03002C10.5249 1.06149 10.1659 1.12953 9.82677 1.30371C9.31566 1.56624 8.89962 1.98228 8.63708 2.49339C8.46291 2.83248 8.39486 3.19149 8.3634 3.57398C8.33323 3.94068 8.33324 4.38967 8.33325 4.92756Z"
    fill="currentColor"
  />
</svg>
