<svg
  xmlns="http://www.w3.org/2000/svg"
  width="20"
  height="20"
  viewBox="0 0 20 20"
  fill="none"
>
  <path
    d="M19 15.0111V15.0724C19 15.6103 19 16.0592 18.9699 16.4259C18.9384 16.8084 18.8703 17.1674 18.6962 17.5065C18.4336 18.0176 18.0176 18.4337 17.5065 18.6962C17.1674 18.8704 16.8084 18.9384 16.4259 18.9699C16.0592 19.0001 15.6102 19.0001 15.0723 19H4.92768C4.38979 19.0001 3.94081 19.0001 3.57411 18.9699C3.19161 18.9384 2.8326 18.8704 2.49351 18.6962C1.9824 18.4337 1.56637 18.0176 1.30383 17.5065C1.12966 17.1674 1.06161 16.8084 1.03015 16.4259C0.99998 16.0592 0.999989 15.6103 1 15.0724L1 15.0111C0.999989 14.4732 0.999979 14.0242 1.03015 13.6575C1.06161 13.275 1.12966 12.916 1.30383 12.5769C1.56637 12.0658 1.9824 11.6497 2.49351 11.3872C2.8326 11.213 3.19161 11.145 3.5741 11.1135C3.94081 11.0834 4.38978 11.0834 4.92769 11.0834L15.0723 11.0834C15.6102 11.0834 16.0592 11.0834 16.4259 11.1135C16.8084 11.145 17.1674 11.213 17.5065 11.3872C18.0176 11.6497 18.4336 12.0658 18.6962 12.5769C18.8703 12.916 18.9384 13.275 18.9699 13.6575C19 14.0242 19 14.4732 19 15.0111Z"
    fill="currentColor"
  />
  <path
    d="M11.6667 4.92756V4.98886C11.6668 5.52676 11.6668 5.97574 11.6366 6.34244C11.6051 6.72493 11.5371 7.08394 11.3629 7.42303C11.1004 7.93414 10.6843 8.35018 10.1732 8.61271C9.83414 8.78689 9.47514 8.85493 9.09264 8.8864C8.72594 8.91656 8.27698 8.91656 7.73908 8.91655H4.92776C4.38987 8.91656 3.94089 8.91656 3.57419 8.8864C3.19169 8.85493 2.83269 8.78689 2.49359 8.61271C1.98248 8.35018 1.56645 7.93414 1.30391 7.42303C1.12974 7.08394 1.06169 6.72493 1.03023 6.34244C1.00006 5.97574 1.00007 5.52676 1.00008 4.98886L1.00008 4.92756C1.00007 4.38966 1.00006 3.94069 1.03023 3.57398C1.06169 3.19149 1.12974 2.83248 1.30391 2.49339C1.56645 1.98228 1.98248 1.56624 2.49359 1.30371C2.83269 1.12953 3.19169 1.06149 3.57419 1.03002C3.94089 0.999858 4.38986 0.999868 4.92777 0.999878L7.73906 0.999878C8.27696 0.999867 8.72594 0.999858 9.09264 1.03002C9.47514 1.06149 9.83414 1.12953 10.1732 1.30371C10.6843 1.56624 11.1004 1.98228 11.3629 2.49339C11.5371 2.83248 11.6051 3.19149 11.6366 3.57398C11.6668 3.94068 11.6668 4.38967 11.6667 4.92756Z"
    fill="currentColor"
  />
</svg>
