<svg width="20" height="20" viewBox="0 0 20 20" fill="currentcolor" xmlns="http://www.w3.org/2000/svg">
  <path d="M19 15.011V15.0723C19 15.6102 19 16.0592 18.9699 16.4259C18.9384 16.8084 18.8703 17.1674 18.6962 17.5065C18.4336 18.0176 18.0176 18.4336 17.5065 18.6962C17.1674 18.8704 16.8084 18.9384 16.4259 18.9699C16.0592 19 15.6102 19 15.0723 19H4.92768C4.38979 19 3.94081 19 3.57411 18.9699C3.19161 18.9384 2.8326 18.8704 2.49351 18.6962C1.9824 18.4336 1.56637 18.0176 1.30383 17.5065C1.12966 17.1674 1.06161 16.8084 1.03015 16.4259C0.99998 16.0592 0.999989 15.6102 1 15.0723L1 15.011C0.999989 14.4731 0.999979 14.0242 1.03015 13.6574C1.06161 13.275 1.12966 12.916 1.30383 12.5769C1.56637 12.0657 1.9824 11.6497 2.49351 11.3872C2.8326 11.213 3.19161 11.145 3.5741 11.1135C3.94081 11.0833 4.38978 11.0833 4.92769 11.0833L15.0723 11.0833C15.6102 11.0833 16.0592 11.0833 16.4259 11.1135C16.8084 11.145 17.1674 11.213 17.5065 11.3872C18.0176 11.6497 18.4336 12.0657 18.6962 12.5769C18.8703 12.9159 18.9384 13.275 18.9699 13.6574C19 14.0241 19 14.4731 19 15.011Z" fill="currentcolor" />
  <path d="M11.6667 4.92753V4.98883C11.6668 5.52673 11.6668 5.97571 11.6366 6.34241C11.6051 6.7249 11.5371 7.08391 11.3629 7.423C11.1004 7.93411 10.6843 8.35015 10.1732 8.61268C9.83414 8.78686 9.47514 8.8549 9.09264 8.88637C8.72594 8.91653 8.27698 8.91653 7.73908 8.91652H4.92776C4.38987 8.91653 3.94089 8.91653 3.57419 8.88637C3.19169 8.8549 2.83269 8.78686 2.49359 8.61268C1.98248 8.35015 1.56645 7.93411 1.30391 7.423C1.12974 7.08391 1.06169 6.7249 1.03023 6.34241C1.00006 5.97571 1.00007 5.52673 1.00008 4.98883L1.00008 4.92753C1.00007 4.38963 1.00006 3.94066 1.03023 3.57395C1.06169 3.19146 1.12974 2.83245 1.30391 2.49336C1.56645 1.98225 1.98248 1.56621 2.49359 1.30368C2.83269 1.1295 3.19169 1.06146 3.57419 1.02999C3.94089 0.999828 4.38986 0.999837 4.92777 0.999848L7.73906 0.999848C8.27696 0.999837 8.72594 0.999828 9.09264 1.02999C9.47514 1.06146 9.83414 1.1295 10.1732 1.30368C10.6843 1.56621 11.1004 1.98225 11.3629 2.49336C11.5371 2.83245 11.6051 3.19146 11.6366 3.57395C11.6668 3.94065 11.6668 4.38964 11.6667 4.92753Z" fill="currentcolor" />
</svg>
