<svg width="20" height="20" viewBox="0 0 20 20" fill="currentcolor" xmlns="http://www.w3.org/2000/svg">
  <path d="M19.75 10.75C19.75 11.1642 19.4142 11.5 19 11.5C18.9999 11.9963 18.9982 12.4141 18.9699 12.7592C18.9384 13.1417 18.8703 13.5007 18.6962 13.8398C18.4336 14.3509 18.0176 14.7669 17.5065 15.0295C17.1674 15.2036 16.8084 15.2717 16.4259 15.3031C16.0592 15.3333 15.6102 15.3333 15.0723 15.3333L15.011 15.3333C14.4731 15.3333 14.0241 15.3333 13.6574 15.3031C13.2749 15.2717 12.9159 15.2036 12.5768 15.0295C12.0657 14.7669 11.6497 14.3509 11.3872 13.8398C11.213 13.5007 11.1449 13.1417 11.1135 12.7592C11.0851 12.4141 11.0834 11.9963 11.0833 11.5L8.91675 11.5L8.91675 15.0724C8.91676 15.6102 8.91677 16.0592 8.8866 16.4259C8.85514 16.8084 8.78709 17.1674 8.61292 17.5065C8.35038 18.0176 7.93434 18.4336 7.42323 18.6962C7.08414 18.8703 6.72514 18.9384 6.34264 18.9699C5.97594 19 5.52696 19 4.98906 19L4.92776 19C4.38986 19 3.94089 19 3.57419 18.9699C3.19169 18.9384 2.83269 18.8703 2.49359 18.6962C1.98248 18.4336 1.56645 18.0176 1.30391 17.5065C1.12974 17.1674 1.06169 16.8084 1.03023 16.4259C1.00006 16.0592 1.00007 15.6102 1.00008 15.0723L1 11.5C0.585786 11.5 0.25 11.1642 0.25 10.75C0.25 10.3358 0.585867 10 1.00008 10L19 10C19.4142 10 19.75 10.3358 19.75 10.75Z" fill="currentcolor" />
  <path d="M19 8.5C18.9999 8.0037 18.9982 7.5858 18.9699 7.24073C18.9384 6.85824 18.8703 6.49923 18.6962 6.16014C18.4336 5.64903 18.0176 5.23299 17.5065 4.97046C17.1674 4.79628 16.8084 4.72824 16.4259 4.69677C16.0592 4.66661 15.6102 4.66662 15.0723 4.66663L15.011 4.66663C14.4731 4.66662 14.0241 4.66661 13.6574 4.69677C13.2749 4.72824 12.9159 4.79628 12.5768 4.97046C12.0657 5.23299 11.6497 5.64903 11.3872 6.16014C11.213 6.49923 11.1449 6.85824 11.1135 7.24073C11.0851 7.58579 11.0834 8.0037 11.0833 8.5L19 8.5Z" fill="currentcolor" />
  <path d="M8.91675 8.5L8.91675 4.92769C8.91676 4.38978 8.91677 3.94081 8.8866 3.57411C8.85514 3.19161 8.78709 2.83261 8.61292 2.49351C8.35038 1.9824 7.93434 1.56637 7.42323 1.30383C7.08414 1.12966 6.72514 1.06161 6.34264 1.03015C5.97595 0.999982 5.52698 0.99999 4.9891 1L4.92776 1C4.38988 0.99999 3.94088 0.999982 3.57419 1.03015C3.19169 1.06161 2.83269 1.12966 2.4936 1.30383C1.98248 1.56637 1.56645 1.9824 1.30391 2.49351C1.12974 2.83261 1.06169 3.19161 1.03023 3.57411C1.00006 3.94081 1.00007 4.38978 1.00008 4.92768L1.00008 8.5L8.91675 8.5Z" fill="currentcolor" />
</svg>
