<svg width="20" height="20" viewBox="0 0 20 20" fill="currentColor" xmlns="http://www.w3.org/2000/svg">
  <path d="M4.98899 1H4.92768C4.38979 0.99999 3.94081 0.999981 3.57411 1.03015C3.19161 1.06161 2.83261 1.12966 2.49351 1.30383C1.9824 1.56637 1.56637 1.9824 1.30383 2.49351C1.12966 2.83261 1.06161 3.19161 1.03015 3.57411C0.999981 3.94081 0.99999 4.38977 1 4.92767V15.0723C0.99999 15.6102 0.999981 16.0592 1.03015 16.4259C1.06161 16.8084 1.12966 17.1674 1.30383 17.5065C1.56637 18.0176 1.9824 18.4336 2.49351 18.6962C2.83261 18.8703 3.19161 18.9384 3.57411 18.9699C3.94081 19 4.38978 19 4.92769 19H4.98898C5.52689 19 5.97586 19 6.34256 18.9699C6.72506 18.9384 7.08406 18.8703 7.42315 18.6962C7.93426 18.4336 8.3503 18.0176 8.61284 17.5065C8.78701 17.1674 8.85506 16.8084 8.88652 16.4259C8.91669 16.0592 8.91668 15.6102 8.91667 15.0723V4.92769C8.91668 4.38978 8.91669 3.94081 8.88652 3.57411C8.85506 3.19161 8.78701 2.83261 8.61284 2.49351C8.3503 1.9824 7.93426 1.56637 7.42315 1.30383C7.08406 1.12966 6.72506 1.06161 6.34256 1.03015C5.97586 0.999981 5.52688 0.99999 4.98899 1Z" fill="currentColor" />
  <path d="M15.0724 8.33325H15.0111C14.4732 8.33324 14.0242 8.33323 13.6575 8.3634C13.275 8.39486 12.916 8.46291 12.5769 8.63708C12.0658 8.89962 11.6497 9.31566 11.3872 9.82677C11.213 10.1659 11.145 10.5249 11.1135 10.9074C11.0834 11.2741 11.0834 11.723 11.0834 12.2609V15.0722C11.0834 15.6101 11.0834 16.0591 11.1135 16.4258C11.145 16.8083 11.213 17.1673 11.3872 17.5064C11.6497 18.0175 12.0658 18.4336 12.5769 18.6961C12.916 18.8703 13.275 18.9383 13.6575 18.9698C14.0242 18.9999 14.4732 18.9999 15.0111 18.9999H15.0724C15.6103 18.9999 16.0592 18.9999 16.4259 18.9698C16.8084 18.9383 17.1674 18.8703 17.5065 18.6961C18.0176 18.4336 18.4337 18.0175 18.6962 17.5064C18.8704 17.1673 18.9384 16.8083 18.9699 16.4258C19.0001 16.0591 19.0001 15.6101 19 15.0722V12.2609C19.0001 11.723 19.0001 11.2741 18.9699 10.9074C18.9384 10.5249 18.8704 10.1659 18.6962 9.82677C18.4337 9.31566 18.0176 8.89962 17.5065 8.63708C17.1674 8.46291 16.8084 8.39486 16.4259 8.3634C16.0592 8.33323 15.6103 8.33324 15.0724 8.33325Z" fill="currentColor" />
</svg>
