<svg width="20" height="20" viewBox="0 0 20 20" fill="currentColor" xmlns="http://www.w3.org/2000/svg">
  <path d="M1 15.011V15.0723C0.99999 15.6102 0.999979 16.0592 1.03015 16.4259C1.06161 16.8084 1.12966 17.1674 1.30383 17.5065C1.56637 18.0176 1.9824 18.4336 2.49352 18.6962C2.83261 18.8704 3.19161 18.9384 3.57411 18.9699C3.94081 19 4.38977 19 4.92766 19H15.0723C15.6102 19 16.0592 19 16.4259 18.9699C16.8084 18.9384 17.1674 18.8704 17.5065 18.6962C18.0176 18.4336 18.4336 18.0176 18.6962 17.5065C18.8703 17.1674 18.9384 16.8084 18.9699 16.4259C19 16.0592 19 15.6102 19 15.0723L19 15.011C19 14.4731 19 14.0242 18.9699 13.6574C18.9384 13.275 18.8703 12.916 18.6962 12.5769C18.4336 12.0657 18.0176 11.6497 17.5065 11.3872C17.1674 11.213 16.8084 11.145 16.4259 11.1135C16.0592 11.0833 15.6102 11.0833 15.0723 11.0833L4.92769 11.0833C4.38978 11.0833 3.94081 11.0833 3.57411 11.1135C3.19161 11.145 2.83261 11.213 2.49352 11.3872C1.9824 11.6497 1.56637 12.0657 1.30383 12.5769C1.12966 12.9159 1.06161 13.275 1.03015 13.6574C0.999981 14.0241 0.99999 14.4731 1 15.011Z" fill="currentColor" />
  <path d="M8.33325 4.92753V4.98883C8.33324 5.52673 8.33323 5.97571 8.3634 6.34241C8.39486 6.7249 8.46291 7.08391 8.63708 7.423C8.89962 7.93411 9.31566 8.35015 9.82677 8.61268C10.1659 8.78686 10.5249 8.8549 10.9074 8.88637C11.2741 8.91653 11.723 8.91653 12.2609 8.91652H15.0722C15.6101 8.91653 16.0591 8.91653 16.4258 8.88637C16.8083 8.8549 17.1673 8.78686 17.5064 8.61268C18.0175 8.35015 18.4336 7.93411 18.6961 7.423C18.8703 7.08391 18.9383 6.7249 18.9698 6.34241C18.9999 5.97571 18.9999 5.52673 18.9999 4.98883L18.9999 4.92753C18.9999 4.38963 18.9999 3.94066 18.9698 3.57395C18.9383 3.19146 18.8703 2.83245 18.6961 2.49336C18.4336 1.98225 18.0175 1.56621 17.5064 1.30368C17.1673 1.1295 16.8083 1.06146 16.4258 1.02999C16.0591 0.999828 15.6101 0.999837 15.0722 0.999848L12.2609 0.999848C11.723 0.999837 11.2741 0.999828 10.9074 1.02999C10.5249 1.06146 10.1659 1.1295 9.82677 1.30368C9.31566 1.56621 8.89962 1.98225 8.63708 2.49336C8.46291 2.83245 8.39486 3.19146 8.3634 3.57395C8.33323 3.94065 8.33324 4.38964 8.33325 4.92753Z" fill="currentColor" />
</svg>
