<svg
  xmlns="http://www.w3.org/2000/svg"
  width="20"
  height="20"
  viewBox="0 0 20 20"
  fill="none"
>
  <path
    d="M15.0107 19L15.0719 19C15.6088 19 16.057 19 16.4231 18.97C16.8049 18.9387 17.1633 18.8709 17.502 18.6975C18.016 18.4343 18.4343 18.016 18.6975 17.502C18.8709 17.1633 18.9387 16.8049 18.97 16.423C19 16.057 19 15.6088 19 15.0719L19 7.67793C19 7.14099 19 6.69281 18.97 6.32673C18.9387 5.94489 18.8709 5.58646 18.6975 5.24777C18.4343 4.73373 18.016 4.3155 17.502 4.05229C17.1633 3.87886 16.8049 3.81111 16.4231 3.77978C16.057 3.74975 15.6088 3.74976 15.0719 3.74977L15.0107 3.74977C14.4737 3.74976 14.0255 3.74975 13.6595 3.77978C13.2776 3.81111 12.9192 3.87886 12.5805 4.05229C12.0665 4.3155 11.6482 4.73373 11.385 5.24776C11.2116 5.58646 11.1439 5.94489 11.1125 6.32672C11.0825 6.69281 11.0825 7.14098 11.0825 7.67792L11.0825 15.0718C11.0825 15.6088 11.0825 16.057 11.1125 16.423C11.1439 16.8049 11.2116 17.1633 11.385 17.502C11.6482 18.016 12.0665 18.4343 12.5805 18.6975C12.9192 18.8709 13.2776 18.9387 13.6595 18.97C14.0255 19 14.4737 19 15.0107 19Z"
    fill="currentColor"
  />
  <path
    d="M4.92815 14.3807L4.98934 14.3807C5.52628 14.3808 5.97446 14.3808 6.34054 14.3507C6.72238 14.3194 7.0808 14.2517 7.4195 14.0782C7.93353 13.815 8.35176 13.3968 8.61497 12.8828C8.7884 12.5441 8.85615 12.1856 8.88747 11.8038C8.91751 11.4377 8.9175 10.9895 8.91749 10.4526L8.91749 7.64163C8.9175 7.10469 8.91751 6.6565 8.88747 6.29042C8.85615 5.90859 8.7884 5.55016 8.61497 5.21146C8.35176 4.69743 7.93353 4.2792 7.4195 4.01598C7.0808 3.84255 6.72238 3.77481 6.34054 3.74348C5.97447 3.71345 5.52631 3.71345 4.98939 3.71346L4.92814 3.71346C4.39122 3.71345 3.94302 3.71345 3.57695 3.74348C3.19512 3.77481 2.83669 3.84255 2.49799 4.01598C1.98396 4.2792 1.56573 4.69743 1.30252 5.21146C1.12909 5.55016 1.06135 5.90858 1.03002 6.29042C0.99998 6.6565 0.99999 7.10468 1 7.64162L1 10.4526C0.999989 10.9895 0.99998 11.4377 1.03002 11.8038C1.06134 12.1856 1.12909 12.5441 1.30252 12.8828C1.56573 13.3968 1.98396 13.815 2.49799 14.0782C2.83669 14.2517 3.19511 14.3194 3.57695 14.3507C3.94303 14.3808 4.39121 14.3808 4.92815 14.3807Z"
    fill="currentColor"
  />
  <path
    fill-rule="evenodd"
    clip-rule="evenodd"
    d="M19 1.75069C19 2.16529 18.6639 2.50138 18.2493 2.50138L1.75075 2.50138C1.33615 2.50138 1.00006 2.16529 1.00006 1.75069C1.00006 1.33609 1.33615 0.999998 1.75075 0.999998L18.2493 1C18.6639 1 19 1.3361 19 1.75069Z"
    fill="currentColor"
  />
</svg>
