<svg
  xmlns="http://www.w3.org/2000/svg"
  width="20"
  height="20"
  viewBox="0 0 20 20"
  fill="none"
>
  <path
    fill-rule="evenodd"
    clip-rule="evenodd"
    d="M15.1798 10.141C15.5736 10.495 15.609 11.1049 15.259 11.5032L10.713 16.6762C10.5319 16.8821 10.2725 17 10 17C9.72752 17 9.46805 16.8821 9.28703 16.6762L4.74096 11.5032C4.39095 11.1049 4.42642 10.495 4.82018 10.141C5.21395 9.78699 5.8169 9.82286 6.16691 10.2211L9.04607 13.4973L9.04607 3.96486C9.04607 3.43198 9.47316 3 10 3C10.5268 3 10.9539 3.43198 10.9539 3.96486L10.9539 13.4973L13.8331 10.2211C14.1831 9.82286 14.7861 9.78699 15.1798 10.141Z"
    fill="currentColor"
  />
</svg>
