<svg
  xmlns="http://www.w3.org/2000/svg"
  width="20"
  height="20"
  viewBox="0 0 20 20"
  fill="none"
>
  <path
    fill-rule="evenodd"
    clip-rule="evenodd"
    d="M9.85899 4.82018C9.50496 4.42642 8.8951 4.39095 8.49682 4.74096L3.32384 9.28703C3.11786 9.46805 3 9.72752 3 10C3 10.2725 3.11786 10.5319 3.32384 10.713L8.49682 15.259C8.8951 15.609 9.50496 15.5736 9.85899 15.1798C10.213 14.7861 10.1771 14.1831 9.77886 13.8331L6.50265 10.9539H16.0351C16.568 10.9539 17 10.5268 17 10C17 9.47316 16.568 9.04607 16.0351 9.04607H6.50265L9.77886 6.16691C10.1771 5.8169 10.213 5.21395 9.85899 4.82018Z"
    fill="currentColor"
  />
</svg>
