<svg width="20" height="20" viewBox="0 0 20 20" fill="currentcolor" xmlns="http://www.w3.org/2000/svg">
  <path fill-rule="evenodd" d="M4.82018 9.85899C4.42642 9.50496 4.39095 8.8951 4.74096 8.49682L9.28703 3.32384C9.46805 3.11786 9.72752 3 10 3C10.2725 3 10.5319 3.11786 10.713 3.32384L15.259 8.49682C15.609 8.8951 15.5736 9.50496 15.1798 9.85899C14.7861 10.213 14.1831 10.1771 13.8331 9.77886L10.9539 6.50265L10.9539 16.0351C10.9539 16.568 10.5268 17 10 17C9.47316 17 9.04607 16.568 9.04607 16.0351L9.04607 6.50265L6.16691 9.77886C5.8169 10.1771 5.21395 10.213 4.82018 9.85899Z" fill="currentcolor" />
</svg>
