<svg width="20" height="20" viewBox="0 0 20 20" fill="currentColor" xmlns="http://www.w3.org/2000/svg">
  <path fill-rule="evenodd" d="M8.06958 1.64269C7.13727 1.18239 6.16749 0.920417 5.1851 1.02162C4.18838 1.1243 3.2674 1.59168 2.42954 2.42953C1.59168 3.26739 1.1243 4.18837 1.02162 5.18508C0.920416 6.16747 1.1824 7.13725 1.64269 8.06955C1.9569 8.70596 2.3768 9.35015 2.87095 10C2.3768 10.6499 1.95691 11.294 1.64271 11.9304C1.18241 12.8628 0.920431 13.8325 1.02163 14.8149C1.12431 15.8116 1.5917 16.7326 2.42955 17.5705C3.26741 18.4083 4.1884 18.8757 5.18512 18.9784C6.1675 19.0796 7.13729 18.8176 8.0696 18.3573C8.70601 18.0431 9.3502 17.6232 10.0001 17.1291C10.6499 17.6232 11.294 18.043 11.9304 18.3572C12.8627 18.8175 13.8325 19.0795 14.8149 18.9783C15.8116 18.8756 16.7326 18.4082 17.5704 17.5704C18.4083 16.7325 18.8757 15.8115 18.9784 14.8148C19.0796 13.8324 18.8176 12.8627 18.3573 11.9303C18.0431 11.294 17.6232 10.6498 17.1291 10C17.6232 9.35018 18.0431 8.70603 18.3573 8.06965C18.8176 7.13735 19.0796 6.16757 18.9784 5.18518C18.8757 4.18847 18.4083 3.26749 17.5705 2.42963C16.7326 1.59178 15.8116 1.1244 14.8149 1.02172C13.8325 0.920519 12.8627 1.1825 11.9304 1.64279C11.294 1.95698 10.6499 2.37684 10.0001 2.87095C9.3502 2.3768 8.706 1.95689 8.06958 1.64269ZM5.3422 2.54654C5.94585 2.48435 6.62026 2.63678 7.39093 3.01727C7.83933 3.23865 8.30177 3.52747 8.77956 3.8732C7.9484 4.60095 7.10817 5.41842 6.26326 6.26332C5.41838 7.10819 4.60094 7.94839 3.87321 8.77952C3.52748 8.30173 3.23866 7.8393 3.01728 7.3909C2.63679 6.62023 2.48436 5.94583 2.54654 5.34217C2.60726 4.75283 2.88108 4.14597 3.51353 3.51352C4.14598 2.88107 4.75285 2.60725 5.3422 2.54654ZM12.6091 3.01737C13.3797 2.63688 14.0541 2.48445 14.6578 2.54664C15.2471 2.60735 15.854 2.88117 16.4865 3.51362C17.1189 4.14607 17.3927 4.75294 17.4535 5.34228C17.5156 5.94593 17.3632 6.62034 16.9827 7.391C16.7614 7.83936 16.4726 8.30176 16.1269 8.77951C15.3991 7.94835 14.5816 7.10812 13.7367 6.26322C12.8919 5.41836 12.0517 4.60093 11.2206 3.87321C11.6983 3.52752 12.1607 3.23874 12.6091 3.01737ZM9.14011 10.0002C9.14011 9.52529 9.52511 9.1403 10 9.1403C10.475 9.1403 10.86 9.52529 10.86 10.0002C10.86 10.4751 10.475 10.8601 10 10.8601C9.52511 10.8601 9.14011 10.4751 9.14011 10.0002ZM3.0173 12.6091C3.23868 12.1607 3.52749 11.6983 3.87321 11.2205C4.60094 12.0516 5.41837 12.8918 6.26324 13.7367C7.10816 14.5816 7.94839 15.3991 8.77956 16.1268C8.30177 16.4725 7.83934 16.7613 7.39094 16.9827C6.62028 17.3632 5.94586 17.5157 5.34221 17.4535C4.75287 17.3928 4.146 17.1189 3.51354 16.4865C2.88109 15.854 2.60727 15.2472 2.54656 14.6578C2.48437 14.0542 2.6368 13.3798 3.0173 12.6091ZM13.7368 13.7368C14.5817 12.8919 15.3991 12.0517 16.1269 11.2205C16.4726 11.6983 16.7613 12.1606 16.9827 12.609C17.3632 13.3797 17.5156 14.0541 17.4534 14.6577C17.3927 15.2471 17.1189 15.8539 16.4865 16.4864C15.854 17.1188 15.2471 17.3927 14.6578 17.4534C14.0541 17.5155 13.3797 17.3631 12.6091 16.9826C12.1607 16.7613 11.6983 16.4725 11.2206 16.1268C12.0517 15.3991 12.8919 14.5816 13.7368 13.7368Z" fill="currentColor" />
</svg>
