<svg
  xmlns="http://www.w3.org/2000/svg"
  width="20"
  height="20"
  viewBox="0 0 20 20"
  fill="none"
>
  <path
    fill-rule="evenodd"
    clip-rule="evenodd"
    d="M14.8656 5.23376C14.7005 5.21326 14.5257 5.19753 14.3407 5.18545C14.0256 3.09981 12.2022 1.5 9.99998 1.5C7.79777 1.5 5.97439 3.09981 5.65921 5.18545C5.4743 5.19753 5.29948 5.21326 5.13439 5.23376C4.39471 5.32562 3.76432 5.52151 3.23188 5.97397C2.69943 6.42643 2.40975 7.0124 2.2082 7.72037C2.01462 8.40035 1.88286 9.26916 1.72013 10.3421L1.39414 12.4914C1.17965 13.9053 1.00766 15.0391 1.00025 15.9359C0.992592 16.8631 1.15725 17.6597 1.72789 18.313C2.29853 18.9664 3.07284 19.2449 4.00373 19.3746C4.90392 19.5 6.06615 19.5 7.5156 19.5H12.4843C13.9337 19.5 15.096 19.5 15.9962 19.3746C16.9271 19.2449 17.7014 18.9664 18.2721 18.313C18.8427 17.6597 19.0074 16.8631 18.9997 15.9359C18.9923 15.0391 18.8203 13.9054 18.6058 12.4914L18.2798 10.3421C18.1171 9.26916 17.9853 8.40035 17.7918 7.72037C17.5902 7.0124 17.3005 6.42643 16.7681 5.97397C16.2356 5.52151 15.6052 5.32562 14.8656 5.23376ZM7.8352 5.14557C7.57051 5.14557 7.31794 5.14556 7.07708 5.14679C7.38947 3.83983 8.57956 2.86709 9.99998 2.86709C11.4204 2.86709 12.6105 3.83983 12.9229 5.14679C12.682 5.14556 12.4294 5.14557 12.1646 5.14557H7.8352ZM6.30397 9.56326C6.81427 9.56326 7.22796 9.15522 7.22796 8.65187C7.22796 8.14852 6.81427 7.74048 6.30397 7.74048C5.79366 7.74048 5.37998 8.14852 5.37998 8.65187C5.37998 9.15522 5.79366 9.56326 6.30397 9.56326ZM13.6959 9.56326C14.2062 9.56326 14.6199 9.15522 14.6199 8.65187C14.6199 8.14852 14.2062 7.74048 13.6959 7.74048C13.1856 7.74048 12.7719 8.14852 12.7719 8.65187C12.7719 9.15522 13.1856 9.56326 13.6959 9.56326Z"
    fill="currentColor"
  />
</svg>
