<svg
  xmlns="http://www.w3.org/2000/svg"
  width="20"
  height="21"
  viewBox="0 0 20 21"
  fill="none"
>
  <path
    d="M9.29896 18.1475C9.22404 18.554 9.1901 18.9242 9.18174 19.2519C7.48294 19.1031 5.91655 18.4954 4.60603 17.5529L10.0001 12.1589L11.5124 13.6712C10.1474 15.3377 9.5317 16.8845 9.29896 18.1475ZM7.87876 10.0376L2.4847 15.4316C1.54226 14.1211 0.93453 12.5547 0.785734 10.8559C1.11341 10.8475 1.48364 10.8136 1.89015 10.7387C3.15306 10.5059 4.69991 9.89023 6.36641 8.5252L7.87876 10.0376ZM15.3941 17.5529C14.4474 18.2337 13.3674 18.7397 12.2009 19.0243C12.2118 18.9208 12.2275 18.8096 12.2493 18.6912C12.3769 17.9987 12.7258 16.9984 13.6471 15.8059L15.3941 17.5529ZM18.9868 12.2383C18.7022 13.4048 18.1962 14.4849 17.5154 15.4316L15.7685 13.6846C16.9609 12.7633 17.9612 12.4144 18.6537 12.2867C18.7722 12.2649 18.8834 12.2492 18.9868 12.2383ZM12.1214 10.0376L17.5154 4.6435C18.4579 5.95402 19.0656 7.5204 19.2144 9.2192C18.8867 9.22755 18.5165 9.2615 18.11 9.33642C16.8471 9.56916 15.3002 10.1849 13.6337 11.5499L12.1214 10.0376ZM10.8184 0.823209C12.5172 0.972003 14.0836 1.57973 15.3941 2.52218L10.0001 7.91623L8.48773 6.40388C9.85275 4.73738 10.4684 3.19054 10.7012 1.92763C10.7761 1.52112 10.81 1.15089 10.8184 0.823209ZM7.75087 1.38392C7.62324 2.07643 7.2743 3.07673 6.353 4.26915L4.60602 2.52217C5.55274 1.84137 6.63279 1.33539 7.79926 1.05078C7.78838 1.15426 7.7727 1.26547 7.75087 1.38392ZM2.4847 4.64349L4.23168 6.39047C3.03925 7.31178 2.03895 7.66073 1.34643 7.78835C1.22799 7.81018 1.11678 7.82586 1.0133 7.83675C1.29791 6.67027 1.80389 5.59022 2.4847 4.64349Z"
    fill="currentColor"
    stroke="currentColor"
    stroke-width="1.5"
  />
</svg>
