<svg
  xmlns="http://www.w3.org/2000/svg"
  width="20"
  height="20"
  viewBox="0 0 20 20"
  fill="none"
>
  <path
    d="M2.4316 16.9468C0.647058 14.7534 -0.285474 9.46822 4.5914 4.59134C9.46836 -0.285614 14.7536 0.647028 16.947 2.43162C16.4587 2.14483 15.8582 2.11184 15.3061 2.18153C14.59 2.27191 13.7678 2.55435 12.9049 2.97345C11.1718 3.81526 9.13187 5.27864 7.20528 7.20523C5.27868 9.13183 3.81531 11.1717 2.9735 12.9049C2.5544 13.7677 2.27195 14.59 2.18158 15.306C2.11189 15.8582 2.14487 16.4585 2.4316 16.9468Z"
    fill="currentColor"
  />
  <path
    d="M3.03671 17.5519C5.23016 19.3364 10.5153 20.2689 15.3921 15.3921C20.269 10.5151 19.3364 5.22995 17.5519 3.03655C17.8387 3.52482 17.8716 4.12525 17.802 4.67741C17.7116 5.39346 17.4291 6.21574 17.01 7.07859C16.1682 8.81173 14.7049 10.8516 12.7783 12.7782C10.8517 14.7048 8.81177 16.1682 7.07863 17.01C6.21578 17.4291 5.39351 17.7115 4.67745 17.8019C4.12534 17.8716 3.52496 17.8386 3.03671 17.5519Z"
    fill="currentColor"
  />
  <path
    d="M3.75832 16.2252C3.72223 16.1891 3.60742 16.0144 3.67307 15.4943C3.73537 15.0006 3.94621 14.3431 4.32575 13.5617C5.08122 12.0063 6.43658 10.1 8.26829 8.26824C10.1 6.43653 12.0063 5.08117 13.5617 4.3257C14.3431 3.94616 15.0007 3.73533 15.4943 3.67302C16.0144 3.60738 16.1891 3.72218 16.2252 3.75827C16.2613 3.79437 16.3761 3.96905 16.3105 4.48916C16.2482 4.98281 16.0373 5.64037 15.6578 6.42178C14.9023 7.97715 13.547 9.88349 11.7152 11.7152C9.88354 13.5469 7.9772 14.9023 6.42182 15.6577C5.64041 16.0373 4.98285 16.2481 4.4892 16.3104C3.96909 16.3761 3.79441 16.2613 3.75832 16.2252Z"
    fill="currentColor"
  />
</svg>
