<svg
  xmlns="http://www.w3.org/2000/svg"
  width="20"
  height="21"
  viewBox="0 0 20 21"
  fill="none"
>
  <path
    d="M7.00816 6.99968C8.52209 5.34812 8.82596 3.51857 8.75079 2.12452C8.71342 1.43149 8.58293 0.842034 8.46151 0.424284C8.43418 0.330269 8.4072 0.244552 8.38166 0.167877C8.90843 0.0821609 9.44901 0.0375977 10 0.0375977C15.5228 0.0375977 20 4.51475 20 10.0376C20 10.5838 19.9562 11.1199 19.8719 11.6423C19.791 11.6125 19.7006 11.5808 19.6014 11.5486C19.1655 11.407 18.5509 11.2508 17.8382 11.1962C16.403 11.0863 14.5353 11.3918 12.9918 13.0755C11.4779 14.7271 11.1741 16.5566 11.2492 17.9507C11.2866 18.6437 11.4171 19.2332 11.5385 19.6509C11.5658 19.7449 11.5928 19.8306 11.6183 19.9073C11.0916 19.993 10.551 20.0376 10 20.0376C4.47715 20.0376 0 15.5604 0 10.0376C0 9.49135 0.0438001 8.95534 0.128075 8.43287C0.208963 8.46268 0.299448 8.49434 0.398627 8.52657C0.834545 8.66822 1.44913 8.82441 2.16177 8.87897C3.59705 8.98885 5.46474 8.68341 7.00816 6.99968Z"
    fill="currentColor"
  />
  <path
    d="M0.482036 6.96151C1.46584 3.9152 3.87151 1.50793 6.91683 0.521928C6.94649 0.603615 6.98303 0.711888 7.02111 0.842935C7.11823 1.17708 7.22309 1.65128 7.25296 2.20529C7.31228 3.30533 7.07821 4.70342 5.90243 5.98609C4.75615 7.23658 3.3962 7.46908 2.27626 7.38334C1.7113 7.34009 1.21638 7.21509 0.862194 7.1C0.702272 7.04803 0.573257 6.99881 0.482036 6.96151Z"
    fill="currentColor"
  />
  <path
    d="M13.0832 19.5533C16.1285 18.5673 18.5342 16.16 19.518 13.1137C19.4267 13.0764 19.2977 13.0272 19.1378 12.9752C18.7836 12.8601 18.2887 12.7351 17.7237 12.6918C16.6038 12.6061 15.2439 12.8386 14.0976 14.0891C12.9218 15.3718 12.6877 16.7699 12.747 17.8699C12.7769 18.4239 12.8818 18.8981 12.9789 19.2323C13.017 19.3633 13.0535 19.4716 13.0832 19.5533Z"
    fill="currentColor"
  />
</svg>
