<svg width="20" height="20" viewBox="0 0 20 20" fill="currentcolor" xmlns="http://www.w3.org/2000/svg">
  <path d="M6.5491 18.1989C6.5491 19.15 7.32015 19.921 8.27128 19.921C9.22241 19.921 9.99346 19.15 9.99346 18.1989C9.99346 17.2477 9.22241 16.4767 8.27128 16.4767C7.32015 16.4767 6.5491 17.2477 6.5491 18.1989Z" fill="currentcolor" />
  <path d="M6.36578 2.62653C6.36578 4.07712 7.54172 5.25305 8.99231 5.25305C10.4429 5.25305 11.6188 4.07712 11.6188 2.62653C11.6188 1.17594 10.4429 0 8.99231 0C7.54172 0 6.36578 1.17594 6.36578 2.62653Z" fill="currentcolor" />
  <path d="M6.71372 4.92033C7.28609 5.55773 8.11657 5.95865 9.04068 5.95865C10.074 5.95865 10.9902 5.45739 11.5595 4.68475C12.3578 4.88793 13.8654 5.45287 15.7188 7.01354C16.3617 7.55485 16.0518 8.55996 15.2271 8.72132C14.9189 8.78161 14.5989 8.70021 14.3516 8.50669C11.0697 5.93832 11.4182 7.35533 11.4335 7.41328L11.4347 7.41797L12.226 10.8896L13.9278 18.6307C14.0904 19.3704 13.4917 20.0569 12.7367 19.9962C12.2475 19.957 11.8406 19.6086 11.7282 19.1309C11.2576 17.129 10.0503 12.0596 9.89331 12.0526C9.87522 12.0518 9.87404 12.1564 9.87207 12.3314C9.86215 13.2126 9.83213 15.8793 7.52481 15.8793C5.71309 16.0107 4.95842 13.9937 4.64805 12.4846C4.48323 11.6833 5.21319 11.0506 6.01425 11.2167C6.32217 11.2806 6.5773 11.495 6.69313 11.7874L7.38059 13.5226C7.39655 13.5629 7.45604 13.5537 7.45744 13.5104C7.47585 12.9426 7.52861 11.2403 7.53221 10.2716C7.53667 9.06969 7.52193 8.37342 7.50351 7.97011C7.4869 7.6064 7.35295 7.16225 6.99271 7.10943C6.65821 7.06038 6.20286 7.37409 5.85415 9.04395C5.77753 9.41084 5.51723 9.71767 5.15957 9.82973C4.48694 10.0405 3.81454 9.49859 3.95538 8.80793C4.51838 6.04705 5.83558 5.18376 6.71372 4.92033Z" fill="currentcolor" />
</svg>
