<svg width="20" height="20" viewBox="0 0 20 20" fill="currentcolor" xmlns="http://www.w3.org/2000/svg">
  <path d="M2.43153 16.9468C0.646997 14.7534 -0.285535 9.46821 4.59134 4.59134C9.4683 -0.285621 14.7535 0.64702 16.9469 2.43161C16.4586 2.14482 15.8582 2.11183 15.306 2.18152C14.59 2.2719 13.7677 2.55435 12.9048 2.97344C11.1717 3.81526 9.13181 5.27863 7.20522 7.20522C5.27862 9.13182 3.81525 11.1717 2.97344 12.9049C2.55434 13.7677 2.27189 14.59 2.18152 15.306C2.11183 15.8581 2.14481 16.4585 2.43153 16.9468Z" fill="currentcolor" />
  <path d="M3.03665 17.5519C5.2301 19.3364 10.5152 20.2689 15.3921 15.392C20.269 10.5151 19.3364 5.22994 17.5518 3.03655C17.8386 3.52481 17.8716 4.12525 17.8019 4.6774C17.7115 5.39346 17.4291 6.21573 17.01 7.07858C16.1682 8.81172 14.7048 10.8516 12.7782 12.7782C10.8516 14.7048 8.81171 16.1682 7.07857 17.01C6.21572 17.4291 5.39345 17.7115 4.67739 17.8019C4.12528 17.8716 3.5249 17.8386 3.03665 17.5519Z" fill="currentcolor" />
  <path d="M3.75826 16.2252C3.72216 16.1891 3.60736 16.0144 3.67301 15.4943C3.73531 15.0006 3.94615 14.3431 4.32569 13.5617C5.08116 12.0063 6.43652 10.0999 8.26823 8.26823C10.0999 6.43652 12.0063 5.08117 13.5617 4.3257C14.3431 3.94615 15.0006 3.73532 15.4943 3.67302C16.0144 3.60737 16.1891 3.72217 16.2252 3.75827C16.2612 3.79436 16.376 3.96904 16.3104 4.48915C16.2481 4.9828 16.0373 5.64036 15.6577 6.42177C14.9023 7.97715 13.5469 9.88348 11.7152 11.7152C9.88347 13.5469 7.97714 14.9023 6.42176 15.6577C5.64035 16.0373 4.98279 16.2481 4.48914 16.3104C3.96903 16.3761 3.79435 16.2613 3.75826 16.2252Z" fill="currentcolor" />
</svg>
