<svg width="20" height="21" viewBox="0 0 20 21" fill="currentcolor" xmlns="http://www.w3.org/2000/svg">
  <path fill-rule="evenodd" d="M10 20.0375C15.5228 20.0375 20 15.5604 20 10.0375C20 4.51469 15.5228 0.0375366 10 0.0375366C4.47715 0.0375366 0 4.51469 0 10.0375C0 15.5604 4.47715 20.0375 10 20.0375ZM10 12.1782C12.6492 12.1782 14.7969 10.0305 14.7969 7.38129C14.7969 4.73205 12.6492 2.58441 10 2.58441C7.35076 2.58441 5.20312 4.73205 5.20312 7.38129C5.20312 10.0305 7.35076 12.1782 10 12.1782Z" fill="currentcolor" />
  <path fill-rule="evenodd" d="M9.99632 4.125C9.60877 4.125 9.24439 4.19629 8.91082 4.34733C8.58105 4.49178 8.30323 4.69987 8.09135 4.97596C7.86754 5.26759 7.75628 5.60672 7.75628 5.9761C7.75628 6.1649 7.78516 6.34919 7.84838 6.5248L7.8569 6.54525C7.91611 6.68734 7.9913 6.82249 8.0817 6.95035C8.05361 6.97831 8.02583 7.00789 7.99958 7.03772C7.8525 7.20581 7.74632 7.40244 7.67598 7.61908C7.60422 7.83519 7.57282 8.07004 7.57282 8.31704C7.57282 8.70782 7.6924 9.06665 7.92688 9.37928L7.92965 9.3829C8.156 9.67842 8.45474 9.90507 8.81077 10.0685L8.81638 10.071C9.17883 10.2314 9.57454 10.3076 9.99632 10.3076C10.4176 10.3076 10.8129 10.2316 11.175 10.0715C11.5376 9.91341 11.8418 9.6886 12.0703 9.39025L12.0731 9.38657C12.3086 9.07256 12.4271 8.71095 12.4271 8.31704C12.4271 8.06289 12.3927 7.82122 12.3128 7.60041C12.2357 7.38287 12.1204 7.18771 11.9639 7.02233C11.9452 7.00128 11.926 6.98076 11.9063 6.96079C12.0104 6.82694 12.0915 6.67969 12.1455 6.51961C12.2074 6.3457 12.2364 6.16333 12.2364 5.9761C12.2364 5.60672 12.1251 5.26759 11.9013 4.97596C11.6894 4.69987 11.4116 4.49177 11.0818 4.34733C10.7482 4.19629 10.3839 4.125 9.99632 4.125ZM9.65735 5.50302C9.76069 5.44831 9.87458 5.42205 9.9963 5.42205C10.118 5.42205 10.2319 5.44831 10.3352 5.50302C10.4376 5.55723 10.5189 5.63403 10.5755 5.7328C10.6374 5.82745 10.6678 5.93427 10.6678 6.04948C10.6678 6.16942 10.6375 6.28012 10.5734 6.37666C10.5157 6.466 10.4345 6.53605 10.3352 6.5886L10.3299 6.59143C10.2277 6.63952 10.1157 6.66223 9.9963 6.66223C9.8769 6.66223 9.76495 6.63939 9.66276 6.5913L9.65729 6.58873C9.5586 6.53648 9.47662 6.46751 9.4148 6.38097L9.40883 6.37261C9.35119 6.27654 9.32484 6.1672 9.32484 6.04948C9.32484 5.93533 9.35215 5.82895 9.40918 5.7339L9.41039 5.7319C9.47154 5.63406 9.55461 5.55741 9.65735 5.50302ZM9.62094 7.60898C9.73442 7.54926 9.86054 7.52082 9.9963 7.52082C10.136 7.52082 10.2648 7.54887 10.379 7.60898C10.4903 7.66757 10.5793 7.74885 10.6413 7.8533C10.7093 7.95944 10.7411 8.08144 10.7411 8.2143C10.7411 8.34445 10.7082 8.46451 10.6398 8.57026C10.5733 8.67305 10.4829 8.75373 10.3717 8.81227L10.3669 8.81479C10.2545 8.86804 10.13 8.8931 9.9963 8.8931C9.86054 8.8931 9.73442 8.86466 9.62094 8.80493C9.5097 8.74639 9.41929 8.66571 9.35278 8.56292C9.285 8.45817 9.25145 8.34082 9.25145 8.2143C9.25145 8.08048 9.28375 7.95767 9.35278 7.851C9.41929 7.7482 9.5097 7.66753 9.62094 7.60898Z" fill="currentcolor" />
</svg>
