<svg
  xmlns="http://www.w3.org/2000/svg"
  width="20"
  height="21"
  viewBox="0 0 20 21"
  fill="none"
>
  <path
    fill-rule="evenodd"
    clip-rule="evenodd"
    d="M10 20.0376C15.5228 20.0376 20 15.5604 20 10.0376C20 4.51475 15.5228 0.0375977 10 0.0375977C4.47715 0.0375977 0 4.51475 0 10.0376C0 15.5604 4.47715 20.0376 10 20.0376ZM10 12.1782C12.6492 12.1782 14.7969 10.0306 14.7969 7.38135C14.7969 4.73211 12.6492 2.58447 10 2.58447C7.35076 2.58447 5.20312 4.73211 5.20312 7.38135C5.20312 10.0306 7.35076 12.1782 10 12.1782Z"
    fill="currentColor"
  />
  <path
    fill-rule="evenodd"
    clip-rule="evenodd"
    d="M9.99632 4.12506C9.60877 4.12506 9.24439 4.19635 8.91082 4.3474C8.58105 4.49184 8.30323 4.69993 8.09135 4.97602C7.86754 5.26765 7.75628 5.60678 7.75628 5.97616C7.75628 6.16496 7.78516 6.34925 7.84838 6.52487L7.8569 6.54531C7.91611 6.6874 7.9913 6.82256 8.0817 6.95041C8.05361 6.97837 8.02583 7.00795 7.99958 7.03778C7.8525 7.20587 7.74632 7.4025 7.67598 7.61914C7.60422 7.83525 7.57282 8.0701 7.57282 8.3171C7.57282 8.70788 7.6924 9.06671 7.92688 9.37934L7.92965 9.38296C8.156 9.67848 8.45474 9.90513 8.81077 10.0686L8.81638 10.071C9.17883 10.2315 9.57454 10.3076 9.99632 10.3076C10.4176 10.3076 10.8129 10.2316 11.175 10.0716C11.5376 9.91348 11.8418 9.68866 12.0703 9.39031L12.0731 9.38663C12.3086 9.07262 12.4271 8.71101 12.4271 8.3171C12.4271 8.06295 12.3927 7.82128 12.3128 7.60047C12.2357 7.38293 12.1204 7.18777 11.9639 7.02239C11.9452 7.00134 11.926 6.98082 11.9063 6.96085C12.0104 6.827 12.0915 6.67975 12.1455 6.51967C12.2074 6.34576 12.2364 6.16339 12.2364 5.97616C12.2364 5.60678 12.1251 5.26765 11.9013 4.97602C11.6894 4.69993 11.4116 4.49183 11.0818 4.34739C10.7482 4.19635 10.3839 4.12506 9.99632 4.12506ZM9.65735 5.50308C9.76069 5.44837 9.87458 5.42211 9.9963 5.42211C10.118 5.42211 10.2319 5.44837 10.3352 5.50308C10.4376 5.55729 10.5189 5.6341 10.5755 5.73286C10.6374 5.82751 10.6678 5.93433 10.6678 6.04954C10.6678 6.16949 10.6375 6.28018 10.5734 6.37672C10.5157 6.46606 10.4345 6.53611 10.3352 6.58866L10.3299 6.59149C10.2277 6.63958 10.1157 6.66229 9.9963 6.66229C9.8769 6.66229 9.76495 6.63945 9.66276 6.59136L9.65729 6.58879C9.5586 6.53654 9.47662 6.46757 9.4148 6.38103L9.40883 6.37267C9.35119 6.2766 9.32484 6.16726 9.32484 6.04954C9.32484 5.93539 9.35215 5.82901 9.40918 5.73396L9.41039 5.73196C9.47154 5.63412 9.55461 5.55748 9.65735 5.50308ZM9.62094 7.60904C9.73442 7.54932 9.86054 7.52088 9.9963 7.52088C10.136 7.52088 10.2648 7.54893 10.379 7.60904C10.4903 7.66763 10.5793 7.74891 10.6413 7.85336C10.7093 7.9595 10.7411 8.0815 10.7411 8.21436C10.7411 8.34451 10.7082 8.46457 10.6398 8.57032C10.5733 8.67311 10.4829 8.75379 10.3717 8.81233L10.3669 8.81485C10.2545 8.8681 10.13 8.89316 9.9963 8.89316C9.86054 8.89316 9.73442 8.86472 9.62094 8.80499C9.5097 8.74645 9.41929 8.66577 9.35278 8.56298C9.285 8.45823 9.25145 8.34088 9.25145 8.21436C9.25145 8.08054 9.28375 7.95774 9.35278 7.85106C9.41929 7.74826 9.5097 7.66759 9.62094 7.60904Z"
    fill="currentColor"
  />
</svg>
