<svg width="20" height="20" viewBox="0 0 20 20" fill="currentcolor" xmlns="http://www.w3.org/2000/svg">
  <path fill-rule="evenodd" d="M20 10C20 15.5228 15.5228 20 10 20C4.47715 20 2.36348e-07 15.5228 0 10C-3.99596e-08 4.47715 4.47715 1.07552e-07 10 0C15.5228 3.40221e-08 20 4.47715 20 10ZM9.35201 4.02199C9.42389 4.56958 9.03826 5.07176 8.49067 5.14364C7.94308 5.21552 7.4409 4.82988 7.36902 4.28229C7.29714 3.73471 7.68278 3.23253 8.23037 3.16065C8.77796 3.08877 9.28013 3.47441 9.35201 4.02199ZM6.04858 6.2653C6.12046 6.81289 5.73483 7.31506 5.18724 7.38694C4.63965 7.45882 4.13748 7.07319 4.0656 6.5256C3.99372 5.97801 4.37935 5.47584 4.92694 5.40396C5.47453 5.33208 5.9767 5.71771 6.04858 6.2653ZM8.75096 9.00857C9.29854 8.93669 9.68418 8.43451 9.6123 7.88693C9.54042 7.33934 9.03825 6.9537 8.49066 7.02558C7.94307 7.09746 7.55743 7.59964 7.62931 8.14723C7.70119 8.69482 8.20337 9.08045 8.75096 9.00857Z" fill="currentcolor" />
</svg>
