<svg
  xmlns="http://www.w3.org/2000/svg"
  width="20"
  height="20"
  viewBox="0 0 20 20"
  fill="none"
>
  <path
    fill-rule="evenodd"
    clip-rule="evenodd"
    d="M1.57193 10.2964C2.13853 8.57949 3.18728 6.73725 4.97149 4.95304C6.75568 3.16885 8.5979 2.1201 10.3148 1.5535L18.4244 9.66306C17.8535 11.3759 16.8017 13.2149 15.0175 14.9991C13.2334 16.7832 11.3943 17.8351 9.68146 18.406L1.57193 10.2964ZM7.31678 10.6218C7.02406 10.3291 6.54948 10.3291 6.25676 10.6218C5.96405 10.9145 5.96405 11.3891 6.25676 11.6818L8.28866 13.7137C8.58138 14.0065 9.05596 14.0065 9.34868 13.7137C9.64139 13.421 9.64139 12.9464 9.34868 12.6537L7.31678 10.6218ZM8.44853 8.43013C8.74124 8.13741 9.21583 8.13741 9.50855 8.43013L11.5404 10.462C11.8332 10.7547 11.8332 11.2293 11.5404 11.522C11.2477 11.8148 10.7731 11.8148 10.4804 11.522L8.44853 9.49014C8.15581 9.19743 8.15581 8.72284 8.44853 8.43013ZM11.7103 6.2284C11.4175 5.93568 10.943 5.93568 10.6502 6.2284C10.3575 6.52111 10.3575 6.9957 10.6502 7.28841L12.6821 9.32031C12.9749 9.61303 13.4494 9.61303 13.7422 9.32031C14.0349 9.0276 14.0349 8.55301 13.7422 8.2603L11.7103 6.2284Z"
    fill="currentColor"
  />
  <path
    d="M1.15143 11.996C1.09177 12.3542 1.05171 12.7032 1.02846 13.0409C0.947268 14.2203 1.07119 15.2588 1.27769 16.0707C1.38086 16.4763 1.50659 16.8331 1.64267 17.1273C1.77255 17.4082 1.93336 17.6793 2.12746 17.8734C2.32179 18.0678 2.59278 18.2282 2.87329 18.3574C3.16707 18.4927 3.52299 18.6173 3.92745 18.719C4.73702 18.9225 5.77196 19.0423 6.94753 18.9571C7.28331 18.9327 7.6303 18.8916 7.98654 18.8311L1.15143 11.996Z"
    fill="currentColor"
  />
  <path
    d="M18.8495 7.96814C18.9101 7.61189 18.9512 7.26487 18.9755 6.92908C19.0608 5.75351 18.941 4.71857 18.7374 3.909C18.6357 3.50454 18.5112 3.14863 18.3758 2.85484C18.2466 2.57433 18.0862 2.30334 17.8919 2.10901C17.6978 1.91492 17.4266 1.75411 17.1458 1.62422C16.8515 1.48815 16.4947 1.36241 16.0891 1.25924C15.2772 1.05275 14.2388 0.92882 13.0594 1.01001C12.7217 1.03326 12.3727 1.07333 12.0143 1.13299L18.8495 7.96814Z"
    fill="currentColor"
  />
</svg>
