<svg width="20" height="20" viewBox="0 0 20 20" fill="currentcolor" xmlns="http://www.w3.org/2000/svg">
  <path fill-rule="evenodd" d="M1.57203 10.2964C2.13863 8.57941 3.18738 6.73718 4.9716 4.95296C6.75579 3.16877 8.598 2.12002 10.3149 1.55342L18.4245 9.66298C17.8537 11.3758 16.8018 13.2149 15.0176 14.999C13.2335 16.7832 11.3944 17.835 9.68157 18.4059L1.57203 10.2964ZM7.31689 10.6218C7.02417 10.329 6.54959 10.329 6.25687 10.6218C5.96416 10.9145 5.96416 11.3891 6.25687 11.6818L8.28877 13.7137C8.58149 14.0064 9.05607 14.0064 9.34879 13.7137C9.6415 13.421 9.6415 12.9464 9.34879 12.6537L7.31689 10.6218ZM8.44864 8.43005C8.74135 8.13734 9.21594 8.13734 9.50865 8.43005L11.5406 10.462C11.8333 10.7547 11.8333 11.2293 11.5406 11.522C11.2478 11.8147 10.7733 11.8147 10.4805 11.522L8.44864 9.49007C8.15592 9.19735 8.15592 8.72277 8.44864 8.43005ZM11.7104 6.22832C11.4177 5.93561 10.9431 5.93561 10.6504 6.22832C10.3576 6.52104 10.3576 6.99562 10.6504 7.28834L12.6823 9.32024C12.975 9.61295 13.4496 9.61295 13.7423 9.32024C14.035 9.02752 14.035 8.55294 13.7423 8.26022L11.7104 6.22832Z" fill="currentcolor" />
  <path d="M1.15154 11.9959C1.09188 12.3542 1.05182 12.7032 1.02857 13.0409C0.947375 14.2202 1.0713 15.2587 1.2778 16.0706C1.38097 16.4762 1.5067 16.833 1.64278 17.1272C1.77266 17.4081 1.93347 17.6793 2.12756 17.8733C2.32189 18.0677 2.59289 18.2281 2.87339 18.3573C3.16718 18.4926 3.5231 18.6172 3.92756 18.7189C4.73713 18.9224 5.77206 19.0423 6.94764 18.957C7.28341 18.9326 7.63041 18.8915 7.98665 18.831L1.15154 11.9959Z" fill="currentcolor" />
  <path d="M18.8496 7.96807C18.9102 7.61181 18.9513 7.2648 18.9756 6.929C19.0609 5.75343 18.9411 4.71849 18.7375 3.90892C18.6358 3.50447 18.5113 3.14855 18.3759 2.85476C18.2467 2.57425 18.0863 2.30326 17.892 2.10893C17.6979 1.91484 17.4267 1.75403 17.1459 1.62415C16.8516 1.48807 16.4949 1.36234 16.0892 1.25917C15.2773 1.05267 14.2389 0.928744 13.0595 1.00994C12.7218 1.03319 12.3728 1.07325 12.0145 1.13292L18.8496 7.96807Z" fill="currentcolor" />
</svg>
