<svg
  xmlns="http://www.w3.org/2000/svg"
  width="20"
  height="20"
  viewBox="0 0 20 20"
  fill="none"
>
  <path
    d="M6.54919 18.1989C6.54919 19.15 7.32024 19.921 8.27137 19.921C9.2225 19.921 9.99355 19.15 9.99355 18.1989C9.99355 17.2477 9.2225 16.4767 8.27137 16.4767C7.32024 16.4767 6.54919 17.2477 6.54919 18.1989Z"
    fill="currentColor"
  />
  <path
    d="M6.36588 2.62653C6.36588 4.07712 7.54181 5.25305 8.9924 5.25305C10.443 5.25305 11.6189 4.07712 11.6189 2.62653C11.6189 1.17594 10.443 0 8.9924 0C7.54181 0 6.36588 1.17594 6.36588 2.62653Z"
    fill="currentColor"
  />
  <path
    d="M6.71381 4.92033C7.28619 5.55773 8.11666 5.95865 9.04077 5.95865C10.0741 5.95865 10.9903 5.45739 11.5595 4.68475C12.3579 4.88793 13.8655 5.45287 15.7189 7.01354C16.3617 7.55485 16.0519 8.55996 15.2272 8.72132C14.919 8.78161 14.599 8.70021 14.3517 8.50669C11.0698 5.93832 11.4183 7.35533 11.4336 7.41328L11.4348 7.41797L12.226 10.8896L13.9279 18.6307C14.0905 19.3704 13.4918 20.0569 12.7368 19.9962C12.2476 19.957 11.8406 19.6086 11.7283 19.1309C11.2577 17.129 10.0504 12.0596 9.8934 12.0526C9.87531 12.0518 9.87414 12.1564 9.87216 12.3314C9.86225 13.2126 9.83223 15.8793 7.5249 15.8793C5.71318 16.0107 4.95851 13.9937 4.64814 12.4846C4.48333 11.6833 5.21329 11.0506 6.01434 11.2167C6.32226 11.2806 6.57739 11.495 6.69322 11.7874L7.38068 13.5226C7.39664 13.5629 7.45613 13.5537 7.45754 13.5104C7.47594 12.9426 7.5287 11.2403 7.5323 10.2716C7.53676 9.06969 7.52202 8.37342 7.5036 7.97011C7.48699 7.6064 7.35304 7.16225 6.9928 7.10943C6.6583 7.06038 6.20295 7.37409 5.85424 9.04395C5.77763 9.41084 5.51732 9.71767 5.15967 9.82973C4.48703 10.0405 3.81463 9.49859 3.95547 8.80793C4.51847 6.04705 5.83567 5.18376 6.71381 4.92033Z"
    fill="currentColor"
  />
</svg>
