<svg width="20" height="21" viewBox="0 0 20 21" fill="currentcolor" xmlns="http://www.w3.org/2000/svg">
  <path d="M9.29884 18.1474C9.22392 18.5539 9.18998 18.9241 9.18162 19.2518C7.48281 19.103 5.91643 18.4953 4.60591 17.5529L9.99996 12.1588L11.5123 13.6712C10.1473 15.3376 9.53158 16.8845 9.29884 18.1474ZM7.87864 10.0375L2.48458 15.4315C1.54213 14.121 0.934408 12.5546 0.785612 10.8558C1.11329 10.8475 1.48352 10.8135 1.89003 10.7386C3.15294 10.5059 4.69978 9.89017 6.36628 8.52514L7.87864 10.0375ZM15.394 17.5528C14.4473 18.2336 13.3672 18.7396 12.2008 19.0242C12.2116 18.9208 12.2273 18.8096 12.2492 18.6911C12.3768 17.9986 12.7257 16.9983 13.647 15.8059L15.394 17.5528ZM18.9867 12.2383C18.7021 13.4048 18.1961 14.4848 17.5153 15.4315L15.7683 13.6846C16.9608 12.7632 17.9611 12.4143 18.6536 12.2867C18.772 12.2648 18.8832 12.2492 18.9867 12.2383ZM12.1213 10.0375L17.5153 4.64344C18.4578 5.95396 19.0655 7.52034 19.2143 9.21913C18.8866 9.22749 18.5164 9.26144 18.1099 9.33635C16.847 9.5691 15.3001 10.1848 13.6336 11.5498L12.1213 10.0375ZM10.8183 0.823148C12.5171 0.971942 14.0835 1.57967 15.394 2.52212L9.99996 7.91617L8.4876 6.40382C9.85263 4.73732 10.4683 3.19048 10.7011 1.92757C10.776 1.52106 10.8099 1.15083 10.8183 0.823148ZM7.75074 1.38386C7.62312 2.07637 7.27418 3.07666 6.35288 4.26909L4.6059 2.52211C5.55262 1.84131 6.63267 1.33533 7.79914 1.05072C7.78825 1.1542 7.77257 1.26541 7.75074 1.38386ZM2.48458 4.64343L4.23156 6.39041C3.03913 7.31172 2.03883 7.66067 1.34631 7.78829C1.22786 7.81012 1.11666 7.8258 1.01318 7.83669C1.29779 6.67021 1.80377 5.59015 2.48458 4.64343Z" fill="currentcolor" stroke="currentcolor" stroke-width="1.5" />
</svg>
