<svg width="20" height="20" viewBox="0 0 20 20" fill="currentcolor" xmlns="http://www.w3.org/2000/svg">
  <path fill-rule="evenodd" d="M20 10C20 15.5228 15.5228 20 10 20C4.47715 20 0 15.5228 0 10C0 4.47715 4.47715 0 10 0C15.5228 0 20 4.47715 20 10ZM12.6173 17.1093C12.4628 17.6503 12.3855 17.9208 12.1628 18.1152C11.94 18.3096 11.7 18.3441 11.22 18.4131C10.8216 18.4704 10.4143 18.5 10 18.5C9.58573 18.5 9.17839 18.4704 8.77997 18.4131C8.29996 18.3441 8.05995 18.3096 7.83724 18.1152C7.61453 17.9208 7.53724 17.6503 7.38266 17.1093L7.06336 15.9917C6.96202 15.637 6.91135 15.4597 6.92394 15.2835C6.92923 15.2095 6.94276 15.1362 6.96426 15.0651C7.01542 14.8961 7.12609 14.7485 7.34742 14.4534C7.57022 14.1564 7.68162 14.0078 7.83069 13.9111C7.89334 13.8705 7.96036 13.837 8.03048 13.8112C8.1973 13.75 8.38297 13.75 8.7543 13.75H11.2457C11.617 13.75 11.8027 13.75 11.9695 13.8112C12.0396 13.837 12.1067 13.8705 12.1693 13.9111C12.3184 14.0078 12.4298 14.1564 12.6526 14.4534C12.8739 14.7485 12.9846 14.8961 13.0357 15.0651C13.0572 15.1362 13.0708 15.2095 13.0761 15.2835C13.0886 15.4597 13.038 15.637 12.9366 15.9917L12.6173 17.1093ZM16.2093 14.25C16.7903 14.25 17.0808 14.25 17.3337 14.0802C17.5866 13.9104 17.6813 13.6787 17.8708 13.2153C18.2764 12.2234 18.5 11.1378 18.5 10C18.5 9.93134 18.4586 9.86965 18.3955 9.84261L16.7515 9.13807C16.3758 8.97705 16.188 8.89654 15.9891 8.89412C15.7902 8.89169 15.6004 8.9676 15.2209 9.1194L15.0841 9.17414C14.6185 9.36037 14.3857 9.45348 14.2274 9.63491C14.069 9.81634 14.0082 10.0596 13.8866 10.546L13.5233 11.9991C13.4314 12.3668 13.3854 12.5506 13.4064 12.7316C13.4129 12.7871 13.4239 12.8419 13.4395 12.8956C13.4904 13.0706 13.6041 13.2222 13.8315 13.5254C14.07 13.8433 14.1892 14.0023 14.3514 14.102C14.4011 14.1325 14.4533 14.1586 14.5075 14.18C14.6846 14.25 14.8833 14.25 15.2808 14.25H16.2093ZM15.3852 3.42322C15.7537 3.72531 15.9379 3.87636 16.0291 4.15169C16.1202 4.42702 16.0532 4.69482 15.9193 5.23043L15.588 6.5558C15.4915 6.94153 15.4433 7.1344 15.3328 7.28901C15.2951 7.34168 15.2525 7.39056 15.2054 7.43497C15.0671 7.56537 14.8825 7.63921 14.5134 7.78687C14.1197 7.94435 13.9228 8.02309 13.7214 8.01964C13.6528 8.01846 13.5846 8.01024 13.5178 7.99511C13.3212 7.95063 13.1487 7.8274 12.8037 7.58094L11.5833 6.70924C11.1769 6.41898 10.9737 6.27385 10.863 6.06127C10.8616 6.05843 10.8601 6.05557 10.8586 6.05271C10.75 5.83908 10.75 5.58939 10.75 5.09001C10.75 4.52952 10.75 4.24927 10.8824 4.01825C10.8842 4.01517 10.886 4.0121 10.8878 4.00904C11.0227 3.77944 11.266 3.6404 11.7526 3.36231L12.7066 2.8172C13.1626 2.5566 13.3906 2.4263 13.6675 2.43216C13.9444 2.43802 14.1361 2.55862 14.5195 2.79981C14.8214 2.98968 15.1105 3.19801 15.3852 3.42322ZM2.12917 13.2153C2.31868 13.6787 2.41343 13.9104 2.6663 14.0802C2.91916 14.25 3.20969 14.25 3.79073 14.25H4.71922C5.11667 14.25 5.31539 14.25 5.49246 14.18C5.54667 14.1586 5.5989 14.1325 5.64856 14.102C5.81077 14.0023 5.93 13.8433 6.16846 13.5254C6.39587 13.2222 6.50957 13.0706 6.56046 12.8956C6.57605 12.842 6.58712 12.7871 6.59356 12.7316C6.61457 12.5506 6.56861 12.3668 6.47669 11.9991L6.11342 10.546C5.99181 10.0596 5.931 9.81634 5.77263 9.63491C5.61426 9.45348 5.38148 9.36037 4.91592 9.17414L4.77907 9.1194C4.39956 8.9676 4.2098 8.89169 4.0109 8.89412C3.812 8.89654 3.62415 8.97705 3.24845 9.13807L1.60452 9.84261C1.54141 9.86965 1.5 9.93134 1.5 10C1.5 11.1378 1.72357 12.2234 2.12917 13.2153ZM4.61481 3.42322C4.24631 3.72531 4.06206 3.87636 3.97095 4.15169C3.87984 4.42702 3.94679 4.69483 4.08069 5.23043L4.41203 6.5558C4.50846 6.94153 4.55668 7.1344 4.6672 7.28901C4.70485 7.34168 4.74752 7.39056 4.79461 7.43497C4.93288 7.56537 5.11746 7.63921 5.48663 7.78687C5.88033 7.94435 6.07718 8.02309 6.27864 8.01964C6.34717 8.01846 6.41539 8.01024 6.48224 7.99511C6.67876 7.95063 6.85128 7.8274 7.19633 7.58094L8.41672 6.70924C8.82308 6.41898 9.02626 6.27385 9.13695 6.06127C9.13844 6.05843 9.1399 6.05557 9.14136 6.05271C9.25 5.83908 9.25 5.58939 9.25 5.09001C9.25 4.52952 9.25 4.24927 9.11757 4.01825C9.1158 4.01517 9.11402 4.0121 9.11222 4.00904C8.97734 3.77944 8.73402 3.6404 8.24738 3.36231L7.29344 2.8172C6.83738 2.5566 6.60935 2.4263 6.33248 2.43216C6.05562 2.43802 5.8639 2.55862 5.48046 2.79981C5.1786 2.98968 4.88952 3.19801 4.61481 3.42322Z" fill="currentcolor" />
</svg>
