<svg width="20" height="21" viewBox="0 0 20 21" fill="currentcolor" xmlns="http://www.w3.org/2000/svg">
  <path d="M7.00816 6.99961C8.52209 5.34806 8.82596 3.51851 8.75079 2.12446C8.71342 1.43142 8.58293 0.841973 8.46151 0.424223C8.43418 0.330208 8.4072 0.244491 8.38166 0.167816C8.90843 0.0820999 9.44901 0.0375366 10 0.0375366C15.5228 0.0375366 20 4.51469 20 10.0375C20 10.5838 19.9562 11.1198 19.8719 11.6423C19.791 11.6124 19.7006 11.5808 19.6014 11.5486C19.1655 11.4069 18.5509 11.2507 17.8382 11.1962C16.403 11.0863 14.5353 11.3917 12.9918 13.0755C11.4779 14.727 11.1741 16.5566 11.2492 17.9506C11.2866 18.6436 11.4171 19.2331 11.5385 19.6508C11.5658 19.7449 11.5928 19.8306 11.6183 19.9073C11.0916 19.993 10.551 20.0375 10 20.0375C4.47715 20.0375 0 15.5604 0 10.0375C0 9.49129 0.0438001 8.95528 0.128075 8.43281C0.208963 8.46262 0.299448 8.49428 0.398627 8.52651C0.834545 8.66816 1.44913 8.82435 2.16177 8.87891C3.59705 8.98878 5.46474 8.68335 7.00816 6.99961Z" fill="currentcolor" />
  <path d="M0.482036 6.96145C1.46584 3.91514 3.87151 1.50787 6.91683 0.521867C6.94649 0.603554 6.98303 0.711827 7.02111 0.842874C7.11823 1.17702 7.22309 1.65122 7.25296 2.20523C7.31228 3.30527 7.07821 4.70336 5.90243 5.98603C4.75615 7.23652 3.3962 7.46902 2.27626 7.38328C1.7113 7.34003 1.21638 7.21503 0.862194 7.09994C0.702272 7.04797 0.573257 6.99875 0.482036 6.96145Z" fill="currentcolor" />
  <path d="M13.0832 19.5532C16.1285 18.5672 18.5342 16.1599 19.518 13.1136C19.4267 13.0763 19.2977 13.0271 19.1378 12.9751C18.7836 12.86 18.2887 12.735 17.7237 12.6918C16.6038 12.606 15.2439 12.8385 14.0976 14.089C12.9218 15.3717 12.6877 16.7698 12.747 17.8698C12.7769 18.4238 12.8818 18.898 12.9789 19.2322C13.017 19.3632 13.0535 19.4715 13.0832 19.5532Z" fill="currentcolor" />
</svg>
