<svg width="20" height="20" viewBox="0 0 20 20" fill="currentColor" xmlns="http://www.w3.org/2000/svg">
  <path d="M0.909091 2C0.407014 2 0 2.39797 0 2.88889C0 3.37981 0.407014 3.77778 0.909091 3.77778L19.0909 3.77778C19.593 3.77778 20 3.37981 20 2.88889C20 2.39797 19.593 2 19.0909 2H0.909091Z" fill="currentColor" />
  <path d="M3.63635 10C3.63635 9.50908 4.04337 9.11111 4.54544 9.11111L19.0909 9.11111C19.593 9.11111 20 9.50908 20 10C20 10.4909 19.593 10.8889 19.0909 10.8889L4.54544 10.8889C4.04337 10.8889 3.63635 10.4909 3.63635 10Z" fill="currentColor" />
  <path d="M0 17.1111C0 16.6202 0.407014 16.2222 0.909091 16.2222L19.0909 16.2222C19.593 16.2222 20 16.6202 20 17.1111C20 17.602 19.593 18 19.0909 18L0.909091 18C0.407014 18 0 17.602 0 17.1111Z" fill="currentColor" />
</svg>
