<svg width="20" height="20" viewBox="0 0 20 20" fill="currentcolor" xmlns="http://www.w3.org/2000/svg">
  <path fill-rule="evenodd" d="M0 17.1111C4.44416e-08 16.6202 0.407014 16.2222 0.909091 16.2222L19.0909 16.2222C19.593 16.2222 20 16.6202 20 17.1111C20 17.602 19.593 18 19.0909 18L0.909091 18C0.407014 18 -4.44416e-08 17.602 0 17.1111Z" fill="currentcolor" />
  <path fill-rule="evenodd" d="M0 10C4.44416e-08 9.50908 0.407014 9.11111 0.909091 9.11111L19.0909 9.11111C19.593 9.11111 20 9.50908 20 10C20 10.4909 19.593 10.8889 19.0909 10.8889L0.909091 10.8889C0.407014 10.8889 -4.44416e-08 10.4909 0 10Z" fill="currentcolor" />
  <path fill-rule="evenodd" d="M0 2.88889C4.44416e-08 2.39797 0.407014 2 0.909091 2L19.0909 2C19.593 2 20 2.39797 20 2.88889C20 3.37981 19.593 3.77778 19.0909 3.77778L0.909091 3.77778C0.407014 3.77778 -4.44416e-08 3.37981 0 2.88889Z" fill="currentcolor" />
</svg>
