<svg width="20" height="20" viewBox="0 0 20 20" fill="currentcolor" xmlns="http://www.w3.org/2000/svg">
  <path d="M19.0909 2C19.593 2 20 2.39797 20 2.88889C20 3.37981 19.593 3.77778 19.0909 3.77778L0.90909 3.77778C0.407013 3.77778 0 3.37981 0 2.88889C0 2.39797 0.407013 2 0.90909 2H19.0909Z" fill="currentcolor" />
  <path d="M16.3636 10C16.3636 9.50908 15.9566 9.11111 15.4546 9.11111L0.909103 9.11111C0.407026 9.11111 1.14441e-05 9.50908 1.14441e-05 10C1.14441e-05 10.4909 0.407026 10.8889 0.909103 10.8889L15.4546 10.8889C15.9566 10.8889 16.3636 10.4909 16.3636 10Z" fill="currentcolor" />
  <path d="M20 17.1111C20 16.6202 19.593 16.2222 19.0909 16.2222L0.90909 16.2222C0.407013 16.2222 0 16.6202 0 17.1111C0 17.602 0.407013 18 0.90909 18L19.0909 18C19.593 18 20 17.602 20 17.1111Z" fill="currentcolor" />
</svg>
