<svg width="20" height="20" viewBox="0 0 20 20" fill="currentColor" xmlns="http://www.w3.org/2000/svg">
  <path d="M0.545269 4.73005C0 5.79961 0 7.19974 0 10C0 12.8003 0 14.2004 0.545269 15.27C1.0249 16.2108 1.79023 16.9757 2.73156 17.455C3.80171 18 5.20261 18 8.00442 18H12.0066C14.8084 18 16.2093 18 17.2795 17.455C18.2208 16.9757 18.9862 16.2108 19.4658 15.27C19.8624 14.492 19.9705 13.5392 20 12C19.5412 12 19.3103 11.9994 19.1279 11.9239C18.8827 11.8224 18.6879 11.6277 18.5864 11.3827C18.5102 11.1989 18.5102 10.9659 18.5102 10.5V9.5C18.5102 9.03406 18.5102 8.80109 18.5864 8.61732C18.6879 8.37229 18.8827 8.17761 19.1279 8.07612C19.3103 8.0006 19.5412 8.00001 20 8C19.9705 6.46078 19.8624 5.50797 19.4658 4.73005C18.9862 3.78924 18.2208 3.02433 17.2795 2.54497C16.2093 2 14.8084 2 12.0066 2H8.00442C5.20261 2 3.80171 2 2.73156 2.54497C1.79023 3.02433 1.0249 3.78924 0.545269 4.73005Z" fill="currentColor" />
</svg>
