<svg width="20" height="20" viewBox="0 0 20 20" fill="currentcolor" xmlns="http://www.w3.org/2000/svg">
  <path fill-rule="evenodd" d="M0 10C0 7.19974 0 5.79961 0.545269 4.73005C1.0249 3.78924 1.79023 3.02433 2.73156 2.54497C3.80171 2 5.20261 2 8.00442 2H12.0066C14.8084 2 16.2093 2 17.2795 2.54497C18.2208 3.02433 18.9862 3.78924 19.4658 4.73005C19.8624 5.50797 19.9705 6.46078 20 8C19.5412 8.00001 19.3103 8.0006 19.1279 8.07612C18.8827 8.17761 18.6879 8.37229 18.5864 8.61732C18.5102 8.80109 18.5102 9.03406 18.5102 9.5V10.5C18.5102 10.9659 18.5102 11.1989 18.5864 11.3827C18.6879 11.6277 18.8827 11.8224 19.1279 11.9239C19.3103 11.9994 19.5412 12 20 12C19.9705 13.5392 19.8624 14.492 19.4658 15.27C18.9862 16.2108 18.2208 16.9757 17.2795 17.455C16.2093 18 14.8084 18 12.0066 18H8.00442C5.20261 18 3.80171 18 2.73156 17.455C1.79023 16.9757 1.0249 16.2108 0.545269 15.27C0 14.2004 0 12.8003 0 10ZM11.3269 7.48016C11.5923 7.16195 11.5492 6.68903 11.2309 6.42385C10.9125 6.15868 10.4393 6.20167 10.174 6.51988L7.67259 9.51988C7.48618 9.74344 7.446 10.0546 7.5695 10.3181C7.69301 10.5817 7.9579 10.75 8.24907 10.75H10.1488L8.67314 12.5199C8.40782 12.8381 8.45084 13.311 8.76922 13.5762C9.0876 13.8414 9.56079 13.7984 9.82611 13.4802L12.3275 10.4802C12.5139 10.2566 12.5541 9.94544 12.4306 9.6819C12.3071 9.41836 12.0422 9.25002 11.751 9.25002H9.85124L11.3269 7.48016Z" fill="currentcolor" />
</svg>
