<svg
  xmlns="http://www.w3.org/2000/svg"
  width="20"
  height="20"
  viewBox="0 0 20 20"
  fill="none"
>
  <path
    fill-rule="evenodd"
    clip-rule="evenodd"
    d="M10.9641 6.48514e-07H8.95162C8.393 -1.55726e-05 7.91849 -2.93478e-05 7.53308 0.0401866C7.12662 0.0825988 6.73768 0.175983 6.38621 0.418303C6.14413 0.585198 5.93488 0.795797 5.76906 1.03943C5.52829 1.39318 5.4355 1.78463 5.39336 2.19371C5.36827 2.43736 5.35894 2.71636 5.35548 3.0295C5.28949 3.0372 5.22478 3.04547 5.16132 3.05437C4.21904 3.18648 3.43221 3.46975 2.83731 4.1322C2.24241 4.79464 2.04167 5.61106 2.00603 6.5679C1.97161 7.49189 2.08941 8.66234 2.23607 10.1195L2.63949 14.1283C2.76108 15.3367 2.85939 16.3138 3.03679 17.0797C3.22136 17.8765 3.51088 18.5394 4.07844 19.0557C4.646 19.5719 5.33047 19.7951 6.13671 19.8996C6.91167 20 7.88745 20 9.0942 20H11.0947C12.3344 20 13.3359 20 14.1291 19.8959C14.9539 19.7875 15.6525 19.5562 16.225 19.0201C16.7975 18.4841 17.0772 17.7995 17.2441 16.9794C17.4045 16.1907 17.4768 15.1853 17.5662 13.9409L17.8544 9.93171C17.9567 8.50917 18.0389 7.36535 17.9806 6.46338C17.9202 5.52858 17.704 4.73409 17.1119 4.09347C16.5197 3.45286 15.748 3.17844 14.826 3.05037C14.7397 3.03839 14.6511 3.02757 14.5601 3.0178C14.5566 2.70941 14.5472 2.43433 14.5224 2.19371C14.4802 1.78463 14.3875 1.39318 14.1467 1.03943C13.9809 0.795797 13.7716 0.585198 13.5295 0.418303C13.1781 0.175983 12.7891 0.0825988 12.3827 0.0401866C11.9973 -2.93478e-05 11.5228 -1.55726e-05 10.9641 6.48514e-07ZM13.1048 2.93761C13.101 2.70004 13.093 2.50817 13.0761 2.34462C13.0462 2.05382 12.9947 1.93643 12.9471 1.86646C12.8828 1.77199 12.8017 1.69033 12.7078 1.62562C12.6383 1.57769 12.5217 1.52595 12.2327 1.4958C11.9312 1.46434 11.5328 1.46342 10.9272 1.46342H8.98852C8.38293 1.46342 7.98453 1.46434 7.68303 1.4958C7.39408 1.52595 7.27745 1.57769 7.20793 1.62562C7.11407 1.69033 7.03293 1.77199 6.96863 1.86646C6.92101 1.93643 6.8696 2.05382 6.83964 2.34462C6.82273 2.50883 6.8147 2.7016 6.81089 2.94052C7.37628 2.92682 8.00346 2.92682 8.69537 2.92683H11.3797C12.0086 2.92682 12.5828 2.92682 13.1048 2.93761ZM7.9962 7.98781C8.39756 7.98781 8.72294 8.3154 8.72294 8.71951V13.5976C8.72294 14.0017 8.39756 14.3293 7.9962 14.3293C7.59483 14.3293 7.26945 14.0017 7.26945 13.5976V8.71951C7.26945 8.3154 7.59483 7.98781 7.9962 7.98781ZM12.6004 8.71951C12.6004 8.3154 12.275 7.98781 11.8736 7.98781C11.4723 7.98781 11.1469 8.3154 11.1469 8.71951V13.5976C11.1469 14.0017 11.4723 14.3293 11.8736 14.3293C12.275 14.3293 12.6004 14.0017 12.6004 13.5976V8.71951Z"
    fill="currentColor"
  />
</svg>
