<svg
  xmlns="http://www.w3.org/2000/svg"
  width="20"
  height="20"
  viewBox="0 0 20 20"
  fill="none"
>
  <path
    d="M8.98238 8.93561L9.40715 7.35032L11.5407 7.922C11.9785 8.0393 12.2383 8.48927 12.121 8.92704C12.0037 9.3648 11.5537 9.62459 11.1159 9.50729L8.98238 8.93561Z"
    fill="currentColor"
  />
  <path
    d="M8.16169 11.9984L8.59415 10.3845L11.1561 11.071C11.6018 11.1904 11.8662 11.6485 11.7468 12.0942L11.7294 12.1591C11.6196 12.5689 11.1984 12.8121 10.7885 12.7023L8.16169 11.9984Z"
    fill="currentColor"
  />
  <path
    fill-rule="evenodd"
    clip-rule="evenodd"
    d="M1 10C1 5.02944 5.02944 1 10 1C14.9706 1 19 5.02944 19 10C19 14.9706 14.9706 19 10 19C5.02944 19 1 14.9706 1 10ZM10.7026 5.84889C10.8098 5.44879 10.5724 5.03754 10.1723 4.93033C9.77221 4.82313 9.36096 5.06056 9.25375 5.46066L9.17984 5.7365L8.13342 5.45611C7.73332 5.34891 7.32207 5.58634 7.21486 5.98644C7.10766 6.38654 7.34509 6.79779 7.74519 6.905L7.95827 6.96209L6.7128 11.6102L6.49973 11.5531C6.09963 11.4459 5.68838 11.6834 5.58117 12.0835C5.47397 12.4836 5.7114 12.8948 6.1115 13.002L7.15792 13.2824L7.08401 13.5582C6.97681 13.9583 7.21424 14.3696 7.61434 14.4768C8.01444 14.584 8.4257 14.3466 8.5329 13.9465L8.60681 13.6706L8.92879 13.7569L8.85488 14.0327C8.74767 14.4328 8.98511 14.8441 9.38521 14.9513C9.78531 15.0585 10.1966 14.8211 10.3038 14.421L10.3777 14.1451L10.4003 14.1512C11.6103 14.4754 12.8541 13.7573 13.1783 12.5473L13.1957 12.4824C13.3868 11.7691 13.2262 11.0444 12.8201 10.4925C13.173 10.1969 13.4417 9.79367 13.5698 9.31526C13.8583 8.23875 13.3404 7.13613 12.3863 6.64873L12.4735 6.32339C12.5807 5.9233 12.3433 5.51204 11.9432 5.40484C11.5431 5.29763 11.1318 5.53507 11.0246 5.93517L10.9507 6.211L10.6287 6.12473L10.7026 5.84889Z"
    fill="currentColor"
  />
</svg>
