<svg width="20" height="20" viewBox="0 0 20 20" fill="currentColor" xmlns="http://www.w3.org/2000/svg">
  <path fill-rule="evenodd" d="M12.5078 0.946702C12.5235 0.959105 12.5393 0.971521 12.555 0.983941L16.7024 4.2542C16.7168 4.26554 16.7312 4.27688 16.7456 4.28824C17.0265 4.50958 17.3135 4.73574 17.5183 4.95339C17.743 5.19231 18.0446 5.60277 17.9945 6.18667C17.9444 6.77056 17.5779 7.1177 17.3161 7.31049C17.0776 7.48612 16.7568 7.65466 16.4428 7.8196C16.4266 7.82806 16.4105 7.83652 16.3945 7.84496L12.2949 10L16.3945 12.155C16.4105 12.1635 16.4266 12.1719 16.4428 12.1804C16.7568 12.3453 17.0776 12.5139 17.3161 12.6895C17.5779 12.8823 17.9444 13.2294 17.9945 13.8133C18.0446 14.3972 17.743 14.8077 17.5183 15.0466C17.3135 15.2643 17.0265 15.4904 16.7456 15.7117C16.7312 15.7231 16.7168 15.7345 16.7024 15.7458L12.555 19.0161C12.5393 19.0285 12.5235 19.0409 12.5078 19.0533C12.1654 19.3234 11.8311 19.5871 11.5413 19.7527C11.244 19.9226 10.7112 20.1553 10.1403 19.8551C9.56934 19.555 9.42675 18.9673 9.37763 18.6154C9.32973 18.2722 9.32982 17.8329 9.32992 17.3828C9.32993 17.3621 9.32993 17.3414 9.32993 17.3207V11.5586L3.32616 14.7146C2.87357 14.9525 2.32322 14.7596 2.09693 14.2838C1.87063 13.808 2.05408 13.2294 2.50667 12.9915L8.19743 10L2.50667 7.00854C2.05408 6.77063 1.87063 6.19203 2.09693 5.7162C2.32322 5.24038 2.87357 5.04751 3.32616 5.28542L9.32993 8.44142V2.67927C9.32993 2.65857 9.32993 2.63789 9.32992 2.61723C9.32982 2.16715 9.32973 1.72783 9.37763 1.38463C9.42675 1.03269 9.56934 0.444998 10.1403 0.144866C10.7112 -0.155266 11.244 0.0774225 11.5413 0.247269C11.8312 0.412898 12.1654 0.676569 12.5078 0.946702ZM11.1624 11.5586L15.575 13.8782C15.6732 13.9298 15.7605 13.9757 15.839 14.0177C15.7689 14.0738 15.6909 14.1353 15.603 14.2046L11.4556 17.4749C11.3476 17.56 11.2511 17.6361 11.1632 17.7044C11.1624 17.5895 11.1624 17.4626 11.1624 17.3207V11.5586ZM11.1624 8.44142V2.67927C11.1624 2.53736 11.1624 2.41054 11.1632 2.29561C11.2511 2.36393 11.3476 2.44 11.4556 2.52515L15.603 5.79541C15.6909 5.8647 15.7689 5.92624 15.839 5.98233C15.7605 6.02432 15.6732 6.0702 15.575 6.12184L11.1624 8.44142Z" fill="currentColor" />
</svg>
