<svg width="20" height="20" viewBox="0 0 20 20" fill="currentcolor" xmlns="http://www.w3.org/2000/svg">
  <path d="M10.6707 0.00990273C10.2881 -0.0373368 9.95149 0.0900392 9.67571 0.272755C9.40946 0.449156 9.16196 0.70119 8.92474 0.984042C8.46072 1.53733 7.91232 2.36259 7.22737 3.39432L3.36548 9.2113C2.89154 9.92511 2.49281 10.5256 2.25986 11.0217C2.0213 11.5297 1.85956 12.1282 2.17553 12.7145C2.4915 13.3007 3.08141 13.4966 3.63797 13.5787C4.18146 13.6588 4.90382 13.6588 5.76244 13.6587H6.37682C6.84451 13.6587 7.13498 13.6598 7.34889 13.6849C7.54509 13.7078 7.58855 13.743 7.59854 13.7512C7.62088 13.7692 7.64159 13.7899 7.65972 13.8122C7.66785 13.8222 7.7029 13.8651 7.72591 14.0607C7.75099 14.274 7.7521 14.5636 7.7521 15.0298V15.0787C7.75209 16.3256 7.75208 17.3225 7.83316 18.0432C7.87438 18.4096 7.94123 18.7559 8.06559 19.0495C8.19441 19.3536 8.40463 19.6451 8.74975 19.8162C8.93171 19.9064 9.12768 19.9652 9.32934 19.9901C9.71185 20.0373 10.0485 19.91 10.3243 19.7272C10.5905 19.5508 10.838 19.2988 11.0753 19.016C11.5418 18.4596 12.0938 17.6283 12.784 16.5886L16.6345 10.7887C17.1085 10.0749 17.5072 9.47437 17.7401 8.97831C17.9787 8.47033 18.1404 7.87178 17.8245 7.28552C17.5085 6.69926 16.9186 6.50337 16.362 6.42132C15.8185 6.34119 15.0962 6.34122 14.2375 6.34126L13.6232 6.34126C13.1555 6.34126 12.865 6.34015 12.6511 6.31515C12.4549 6.29221 12.4115 6.25695 12.4015 6.24884C12.3791 6.23078 12.3584 6.21005 12.3403 6.18778C12.3322 6.17782 12.2971 6.13488 12.2741 5.93928C12.249 5.72602 12.2479 5.43643 12.2479 4.97016V4.92124C12.2479 3.67442 12.2479 2.6775 12.1668 1.95683C12.1256 1.59044 12.0588 1.24408 11.9344 0.950478C11.8056 0.646362 11.5954 0.354896 11.2503 0.183809C11.0683 0.0936098 10.8723 0.0348086 10.6707 0.00990273Z" fill="currentcolor" />
</svg>
