<svg
  xmlns="http://www.w3.org/2000/svg"
  width="20"
  height="20"
  viewBox="0 0 20 20"
  fill="none"
>
  <path
    d="M10.6869 5.26065C9.20769 5.26065 8.00853 6.45981 8.00853 7.93905C8.00853 9.41829 9.20769 10.6174 10.6869 10.6174C12.1662 10.6174 13.3653 9.41829 13.3653 7.93905C13.3653 6.45981 12.1662 5.26065 10.6869 5.26065Z"
    fill="currentColor"
  />
  <path
    fill-rule="evenodd"
    clip-rule="evenodd"
    d="M11.8812 1H10.8529C9.37016 0.999985 8.18684 0.999973 7.25879 1.12446C6.30004 1.25306 5.51046 1.52584 4.88582 2.14904C4.26118 2.77225 3.98778 3.56002 3.85888 4.51657C3.7341 5.44249 3.73412 6.62308 3.73413 8.10239V9.1284C3.73412 10.6077 3.7341 11.7883 3.85888 12.7142C3.98778 13.6708 4.26118 14.4585 4.88582 15.0817C5.51046 15.7049 6.30004 15.9777 7.25879 16.1063C8.18684 16.2308 9.37017 16.2308 10.8529 16.2308H11.8813C13.364 16.2308 14.5472 16.2308 15.4753 16.1063C16.434 15.9777 17.2236 15.7049 17.8483 15.0817C18.4729 14.4585 18.7463 13.6708 18.8752 12.7142C19 11.7883 19 10.6077 19 9.12838V8.1024C19 6.62308 19 5.44249 18.8752 4.51657C18.7463 3.56002 18.4729 2.77225 17.8483 2.14904C17.2236 1.52584 16.434 1.25306 15.4753 1.12446C14.5472 0.999973 13.3639 0.999985 11.8812 1ZM6.49568 7.93905C6.49568 5.62429 8.37217 3.7478 10.6869 3.7478C13.0017 3.7478 14.8782 5.62429 14.8782 7.93905C14.8782 8.82307 14.6044 9.64335 14.137 10.3195L15.5726 11.755C15.868 12.0504 15.868 12.5293 15.5726 12.8247C15.2772 13.1202 14.7982 13.1202 14.5028 12.8247L13.0673 11.3892C12.3912 11.8565 11.5709 12.1303 10.6869 12.1303C8.37217 12.1303 6.49568 10.2538 6.49568 7.93905Z"
    fill="currentColor"
  />
  <path
    d="M1.75642 3.7478C1.33866 3.7478 1 4.08647 1 4.50423V7.31056C0.99999 9.8518 0.999983 11.8363 1.20795 13.3832C1.42044 14.9636 1.8624 16.1999 2.83121 17.1687C3.80002 18.1375 5.03635 18.5795 6.61677 18.792C8.16365 19 10.1482 19 12.6895 18.9999H15.4957C15.9135 18.9999 16.2521 18.6613 16.2521 18.2435C16.2521 17.8258 15.9135 17.4871 15.4957 17.4871H12.7479C10.1357 17.4871 8.25279 17.4855 6.81836 17.2926C5.40569 17.1027 4.54183 16.7399 3.90096 16.099C3.26009 15.4581 2.89724 14.5942 2.70731 13.1816C2.51446 11.7472 2.51285 9.86419 2.51285 7.25209V4.50423C2.51285 4.08647 2.17419 3.7478 1.75642 3.7478Z"
    fill="currentColor"
  />
</svg>
