<svg
  xmlns="http://www.w3.org/2000/svg"
  width="20"
  height="20"
  viewBox="0 0 20 20"
  fill="none"
>
  <path
    fill-rule="evenodd"
    clip-rule="evenodd"
    d="M8.98912 1.00003C8.4741 0.999781 8.09453 0.9996 7.76418 1.0801C6.74231 1.32913 5.94446 2.12698 5.69543 3.14886C5.64749 3.34558 5.62816 3.55975 5.62042 3.80959C5.41979 3.82129 5.23001 3.83637 5.05041 3.85582C4.23105 3.94455 3.54701 4.13024 2.94865 4.55585C2.4699 4.89638 2.05884 5.33396 1.73894 5.84361C1.33913 6.48057 1.16469 7.20873 1.08134 8.08096C1.04625 8.44819 1.02629 8.85539 1.01495 9.30773L9.30769 9.30773V9.07687C9.30769 8.69452 9.61765 8.38456 10 8.38456C10.3824 8.38456 10.6923 8.69452 10.6923 9.07687V9.30773L18.9851 9.30773C18.9737 8.85539 18.9538 8.44819 18.9187 8.08096C18.8353 7.20873 18.6609 6.48057 18.2611 5.84361C17.9412 5.33396 17.5301 4.89638 17.0513 4.55585C16.453 4.13024 15.769 3.94455 14.9496 3.85582C14.77 3.83637 14.5802 3.82129 14.3796 3.80959C14.3718 3.55975 14.3525 3.34558 14.3046 3.14886C14.0555 2.12698 13.2577 1.32913 12.2358 1.0801C11.9055 0.9996 11.5259 0.999781 11.0109 1.00003H8.98912ZM12.9926 3.77185C12.9868 3.63127 12.9767 3.54801 12.9593 3.47668C12.8328 2.95737 12.4273 2.5519 11.908 2.42535C11.7614 2.38963 11.5644 2.38467 10.9231 2.38467H9.07692C8.4356 2.38467 8.23859 2.38963 8.09201 2.42535C7.5727 2.5519 7.16723 2.95737 7.04068 3.47668C7.0233 3.54801 7.0132 3.63127 7.00741 3.77185C7.35245 3.76923 7.72119 3.76923 8.11546 3.76923H11.8845C12.2788 3.76923 12.6475 3.76923 12.9926 3.77185Z"
    fill="currentColor"
  />
  <path
    d="M1 11.3395C1 11.1162 1 10.9006 1.00038 10.6923H9.30769V10.923C9.30769 11.3054 9.61765 11.6153 10 11.6153C10.3824 11.6153 10.6923 11.3054 10.6923 10.923V10.6923H18.9996C19 10.9008 19 11.1168 19 11.3404V11.4255C19 12.7709 19 13.837 18.9187 14.6883C18.8353 15.5605 18.6609 16.2887 18.2611 16.9256C17.9412 17.4353 17.5301 17.8729 17.0513 18.2134C16.453 18.639 15.769 18.8247 14.9496 18.9134C14.1499 19 13.1485 19 11.8846 19H8.11545C6.8516 19 5.85011 19 5.05041 18.9134C4.23105 18.8247 3.54701 18.639 2.94865 18.2134C2.4699 17.8729 2.05884 17.4353 1.73894 16.9256C1.33913 16.2887 1.16469 15.5605 1.08134 14.6883C0.999986 13.837 0.999992 12.7709 1 11.4255V11.3395Z"
    fill="currentColor"
  />
</svg>
