<svg width="20" height="20" viewBox="0 0 20 20" fill="currentcolor" xmlns="http://www.w3.org/2000/svg">
  <path fill-rule="evenodd" d="M8.08705 2H11.9129C13.6225 1.99999 14.9766 1.99998 16.0363 2.14001C17.1269 2.28413 18.0097 2.58778 18.7058 3.27199C19.402 3.95621 19.7109 4.82382 19.8575 5.89575C20 6.93728 20 8.26825 20 9.9484V10.0517C20 11.7319 20 13.0627 19.8575 14.1043C19.7109 15.1762 19.402 16.0438 18.7058 16.728C18.0097 17.4122 17.1269 17.7159 16.0363 17.86C14.9766 18 13.6225 18 11.913 18H8.08696C6.37747 18 5.02341 18 3.9637 17.86C2.87308 17.7159 1.99033 17.4122 1.29418 16.728C0.598029 16.0438 0.289083 15.1762 0.142452 14.1043C-2.41101e-05 13.0627 -1.334e-05 11.7318 2.65077e-07 10.0516V9.9484C-1.334e-05 8.26818 -2.41101e-05 6.93731 0.142452 5.89575C0.289083 4.82382 0.598029 3.95621 1.29418 3.27199C1.99033 2.58778 2.87308 2.28413 3.9637 2.14001C5.02343 1.99998 6.37752 1.99999 8.08705 2ZM3.92501 5.42867C4.43876 5.42867 4.85524 5.01933 4.85524 4.51438C4.85524 4.00944 4.43876 3.6001 3.92501 3.6001C3.41126 3.6001 2.99478 4.00944 2.99478 4.51438C2.99478 5.01933 3.41126 5.42867 3.92501 5.42867ZM7.64595 4.51438C7.64595 5.01933 7.22947 5.42867 6.71572 5.42867C6.20197 5.42867 5.78549 5.01933 5.78549 4.51438C5.78549 4.00944 6.20197 3.6001 6.71572 3.6001C7.22947 3.6001 7.64595 4.00944 7.64595 4.51438ZM1.51539 9.99688C1.51539 8.72457 1.51623 7.72619 1.56615 6.91688H18.4339C18.4838 7.72619 18.4847 8.72457 18.4847 9.99688C18.4847 11.7438 18.4829 12.9726 18.3558 13.9021C18.2318 14.8082 18.0024 15.3085 17.6351 15.6696C17.2675 16.0309 16.7576 16.2567 15.8347 16.3787C14.8884 16.5037 13.6377 16.5054 11.8605 16.5054H8.13957C6.3624 16.5054 5.11165 16.5037 4.16538 16.3787C3.24248 16.2567 2.73261 16.0309 2.36499 15.6696C1.99766 15.3085 1.76823 14.8082 1.64429 13.9021C1.51713 12.9726 1.51539 11.7438 1.51539 9.99688Z" fill="currentcolor" />
</svg>
