<svg
  xmlns="http://www.w3.org/2000/svg"
  width="20"
  height="20"
  viewBox="0 0 20 20"
  fill="none"
>
  <path
    fill-rule="evenodd"
    clip-rule="evenodd"
    d="M11.9129 2H8.08705C6.37753 1.99999 5.02343 1.99998 3.9637 2.14001C2.87308 2.28413 1.99033 2.58778 1.29418 3.272C0.59803 3.95621 0.289084 4.82382 0.142453 5.89575C-2.31862e-05 6.93731 -1.28326e-05 8.26817 2.49974e-07 9.94839V10.0516C-1.28326e-05 11.7318 -2.32011e-05 13.0627 0.142453 14.1043C0.289084 15.1762 0.59803 16.0438 1.29418 16.728C1.99033 17.4122 2.87308 17.7159 3.9637 17.86C5.0234 18 6.37746 18 8.08692 18H11.913C13.6224 18 14.9766 18 16.0363 17.86C17.1269 17.7159 18.0097 17.4122 18.7058 16.728C19.402 16.0438 19.7109 15.1762 19.8575 14.1043C20 13.0627 20 11.7319 20 10.0518V9.9484C20 8.26827 20 6.93727 19.8575 5.89575C19.7109 4.82382 19.402 3.95621 18.7058 3.272C18.0097 2.58778 17.1269 2.28413 16.0363 2.14001C14.9766 1.99998 13.6225 1.99999 11.9129 2ZM1.56615 6.91688C1.51623 7.72619 1.51539 8.72457 1.51539 9.99688C1.51539 11.7438 1.51713 12.9726 1.64429 13.9021C1.76824 14.8082 1.99766 15.3085 2.36499 15.6696C2.73261 16.0309 3.24248 16.2567 4.16539 16.3787C5.11165 16.5037 6.3624 16.5054 8.13957 16.5054H11.8605C13.6377 16.5054 14.8884 16.5037 15.8347 16.3787C16.7576 16.2567 17.2675 16.0309 17.6351 15.6696C18.0024 15.3085 18.2318 14.8082 18.3558 13.9021C18.4829 12.9726 18.4847 11.7438 18.4847 9.99688C18.4847 8.72457 18.4838 7.72619 18.4339 6.91688H1.56615ZM3.86878 5.5C4.42106 5.5 4.86877 5.05228 4.86877 4.5C4.86877 3.94772 4.42106 3.5 3.86878 3.5C3.31649 3.5 2.86877 3.94772 2.86877 4.5C2.86877 5.05228 3.31649 5.5 3.86878 5.5ZM5.93127 4.5C5.93127 4.08579 6.27317 3.75 6.69491 3.75H16.3676C16.7894 3.75 17.1313 4.08579 17.1313 4.5C17.1313 4.91421 16.7894 5.25 16.3676 5.25H6.69491C6.27317 5.25 5.93127 4.91421 5.93127 4.5Z"
    fill="currentColor"
  />
</svg>
