<svg width="20" height="20" viewBox="0 0 20 20" fill="currentColor" xmlns="http://www.w3.org/2000/svg">
  <path d="M10 0C7.86832 0 5.8783 0.592081 4.40489 1.81008C2.91249 3.04378 2 4.88161 2 7.22892C2 8.3768 2.19233 9.268 2.53071 10.0066C2.86784 10.7424 3.32881 11.2795 3.79262 11.7412C3.98635 11.934 4.17671 12.1121 4.36194 12.2854C5.08456 12.9615 5.72895 13.5645 6.18985 14.6822L6.20101 14.7093C6.35556 15.0841 6.4878 15.4049 6.61138 15.6493C6.73318 15.8901 6.89806 16.1669 7.16335 16.3503C7.41118 16.5216 7.67785 16.5787 7.92019 16.6034C8.14692 16.6266 8.42256 16.6265 8.72667 16.6265H11.2733C11.5774 16.6265 11.8531 16.6266 12.0798 16.6034C12.3221 16.5787 12.5888 16.5216 12.8366 16.3503C13.1019 16.1669 13.2668 15.8901 13.3886 15.6493C13.5122 15.4048 13.6444 15.0841 13.799 14.7093L13.8102 14.6822C14.2711 13.5645 14.9154 12.9615 15.6381 12.2854C15.8233 12.1121 16.0136 11.934 16.2074 11.7412C16.6712 11.2795 17.1322 10.7424 17.4693 10.0066C17.8077 9.268 18 8.3768 18 7.22892C18 2.8469 14.285 0 10 0Z" fill="currentColor" />
  <path d="M7.25714 18.1928C7.25714 18.0808 7.25714 18.0248 7.26593 17.9783C7.302 17.7871 7.44376 17.6376 7.6251 17.5996C7.66926 17.5904 7.72236 17.5904 7.82857 17.5904H12.1714C12.2776 17.5904 12.3307 17.5904 12.3749 17.5996C12.5562 17.6376 12.698 17.7871 12.7341 17.9783C12.7429 18.0248 12.7429 18.0808 12.7429 18.1928C12.7429 18.5287 12.7429 18.6966 12.7165 18.8363C12.6083 19.4098 12.183 19.8581 11.639 19.9722C11.5065 20 11.3472 20 11.0286 20H8.97143C8.65281 20 8.4935 20 8.36102 19.9722C7.81699 19.8581 7.39171 19.4098 7.28349 18.8363C7.25714 18.6966 7.25714 18.5287 7.25714 18.1928Z" fill="currentColor" />
</svg>
