<svg width="20" height="20" viewBox="0 0 20 20" fill="currentcolor" xmlns="http://www.w3.org/2000/svg">
  <path d="M10.2551 20C12.0288 20 12.7756 19.479 12.8763 17.5087C12.8903 17.2338 12.665 17.0093 12.3896 17.0093H8.12038C7.84501 17.0093 7.61968 17.2338 7.63372 17.5087C7.73437 19.479 8.48135 20 10.2551 20Z" fill="currentcolor" />
  <path d="M4.97762 2.01729C6.26204 0.737449 8.08649 0 10.2549 0C12.4233 0 14.2478 0.737447 15.5323 2.01728C16.8153 3.29564 17.51 5.06611 17.51 7.0405C17.51 8.82017 16.8009 10.1094 16.0055 11.1751C15.7363 11.5358 15.4417 11.8902 15.1664 12.2212C15.0488 12.3626 14.9346 12.4999 14.8276 12.6315C14.4548 13.0899 14.1386 13.5132 13.9055 13.9536L13.8943 13.9747C13.6171 14.4983 13.3946 14.9186 13.2113 15.2243C13.1178 15.3803 13.0231 15.526 12.9254 15.6499C12.8325 15.7677 12.7043 15.9085 12.5329 16.0116C12.2633 16.174 11.9666 16.2208 11.7103 16.2414C11.5001 16.2583 11.247 16.2611 10.9603 16.2616C10.9879 16.1837 11.0029 16.0998 11.0029 16.0125V12.6556C11.4177 12.5296 11.7783 12.3236 12.041 12.1486C12.2587 12.0034 12.4387 11.8594 12.5647 11.7515C12.6281 11.6972 12.6788 11.6511 12.7149 11.6175C12.7329 11.6006 12.7474 11.5868 12.758 11.5765L12.7711 11.5638L12.7754 11.5595L12.777 11.5579L12.7779 11.557C13.07 11.265 13.0703 10.7913 12.7782 10.4994C12.4866 10.2078 12.014 10.2074 11.7219 10.498L11.7208 10.4991L11.7178 10.502C11.7133 10.5063 11.7054 10.5139 11.6943 10.5243C11.6719 10.5451 11.6369 10.577 11.5912 10.6161C11.4991 10.6951 11.3674 10.8003 11.2113 10.9044C10.8746 11.1288 10.5288 11.2773 10.255 11.2773C9.98117 11.2773 9.63538 11.1288 9.29868 10.9044C9.1425 10.8003 9.01087 10.6951 8.9187 10.6161C8.873 10.577 8.83803 10.5451 8.81568 10.5243C8.80453 10.5139 8.7966 10.5063 8.79213 10.502L8.78891 10.4988L8.78809 10.498C8.49591 10.2074 8.02337 10.2078 7.73174 10.4994C7.43967 10.7913 7.43967 11.2647 7.73174 11.5567C7.73174 11.5567 7.75192 11.5765 7.73888 11.5638L7.75192 11.5765C7.76254 11.5868 7.77701 11.6006 7.79507 11.6175C7.83115 11.6511 7.88188 11.6972 7.94525 11.7515C8.07122 11.8594 8.25121 12.0034 8.46897 12.1486C8.73162 12.3236 9.09226 12.5296 9.50707 12.6556V16.0122C9.50707 16.0996 9.52209 16.1836 9.54968 16.2616C9.2627 16.2611 9.00927 16.2583 8.79869 16.2413C8.54173 16.2205 8.24459 16.1733 7.97453 16.01C7.80321 15.9065 7.67514 15.7654 7.58222 15.647C7.4847 15.5227 7.39038 15.3767 7.29745 15.2206C7.11532 14.9145 6.89466 14.4941 6.61996 13.9706L6.60879 13.9494C6.37674 13.5072 6.0612 13.0835 5.68863 12.6259C5.57827 12.4904 5.46008 12.3486 5.3381 12.2024C5.06593 11.876 4.77483 11.5269 4.50944 11.1731C3.71202 10.1101 3 8.82388 3 7.0405C3 5.06613 3.69467 3.29566 4.97762 2.01729Z" fill="currentcolor" />
</svg>
