<svg width="20" height="20" viewBox="0 0 20 20" fill="currentcolor" xmlns="http://www.w3.org/2000/svg">
  <path fill-rule="evenodd" d="M4.40489 1.81008C5.8783 0.592081 7.86832 0 10 0C14.285 0 18 2.8469 18 7.22892C18 8.3768 17.8077 9.268 17.4693 10.0066C17.1322 10.7424 16.6712 11.2795 16.2074 11.7412C16.0136 11.934 15.8233 12.1121 15.6381 12.2854C14.9154 12.9615 14.2711 13.5645 13.8102 14.6822L13.799 14.7093C13.6445 15.084 13.5122 15.4049 13.3886 15.6493C13.2668 15.8901 13.1019 16.1669 12.8366 16.3503C12.5888 16.5216 12.3221 16.5787 12.0798 16.6034C11.8531 16.6266 11.5775 16.6265 11.2734 16.6265H8.72667C8.42258 16.6265 8.1469 16.6266 7.92019 16.6034C7.67785 16.5787 7.41118 16.5216 7.16335 16.3503C6.89806 16.1669 6.73318 15.8901 6.61138 15.6493C6.4878 15.4049 6.35556 15.0841 6.20101 14.7093L6.18985 14.6822C5.72895 13.5645 5.08456 12.9615 4.36194 12.2854C4.17672 12.1121 3.98635 11.934 3.79262 11.7412C3.32881 11.2795 2.86784 10.7424 2.53071 10.0066C2.19233 9.268 2 8.3768 2 7.22892C2 4.88161 2.91249 3.04378 4.40489 1.81008ZM7.02207 4.57476C7.27268 4.27543 7.24566 3.81861 6.96172 3.55441C6.67779 3.29022 6.24446 3.31871 5.99386 3.61803C5.61207 4.07404 5.27624 4.57408 4.99409 5.11012C4.71007 5.64971 4.48045 6.22579 4.31316 6.83004C4.20706 7.21329 4.41576 7.61465 4.7793 7.72651C5.14284 7.83836 5.52357 7.61835 5.62967 7.2351C5.76804 6.73528 5.95804 6.25852 6.19327 5.81162C6.42698 5.3676 6.70536 4.95304 7.02207 4.57476Z" fill="currentcolor" />
  <path d="M7.26593 17.9783C7.25714 18.0248 7.25714 18.0808 7.25714 18.1928C7.25714 18.5287 7.25714 18.6966 7.28349 18.8363C7.39171 19.4098 7.81699 19.8581 8.36102 19.9722C8.4935 20 8.65281 20 8.97143 20H11.0286C11.3472 20 11.5065 20 11.639 19.9722C12.183 19.8581 12.6083 19.4098 12.7165 18.8363C12.7429 18.6966 12.7429 18.5287 12.7429 18.1928C12.7429 18.0808 12.7429 18.0248 12.7341 17.9783C12.698 17.7871 12.5562 17.6376 12.3749 17.5996C12.3307 17.5904 12.2776 17.5904 12.1714 17.5904H7.82857C7.72236 17.5904 7.66926 17.5904 7.6251 17.5996C7.44376 17.6376 7.302 17.7871 7.26593 17.9783Z" fill="currentcolor" />
</svg>
