<svg
  xmlns="http://www.w3.org/2000/svg"
  width="20"
  height="20"
  viewBox="0 0 20 20"
  fill="none"
>
  <path
    fill-rule="evenodd"
    clip-rule="evenodd"
    d="M9.94842 0H10.0516H10.0516H10.0516C11.7318 -1.41595e-05 13.0627 -2.53767e-05 14.1043 0.142452C15.1762 0.289082 16.0438 0.598028 16.728 1.29418C17.4122 1.99033 17.7159 2.87308 17.86 3.9637C18 5.02344 18 6.37752 18 8.08706V11.9129C18 13.6225 18 14.9766 17.86 16.0363C17.7159 17.1269 17.4122 18.0097 16.728 18.7058C16.0438 19.402 15.1762 19.7109 14.1043 19.8575C13.0627 20 11.7318 20 10.0516 20H9.94843C8.26819 20 6.93732 20 5.89575 19.8575C4.82382 19.7109 3.95621 19.402 3.272 18.7058C2.58778 18.0097 2.28413 17.1269 2.14001 16.0363C1.99998 14.9766 1.99999 13.6225 2 11.913V11.913V11.9129V8.08705V8.08702V8.08701C1.99999 6.37749 1.99998 5.02343 2.14001 3.9637C2.28413 2.87308 2.58778 1.99033 3.272 1.29418C3.95621 0.598028 4.82382 0.289082 5.89575 0.142452C6.93732 -2.53747e-05 8.26817 -1.41595e-05 9.9484 0H9.94841H9.94842ZM5.69638 3.76083C5.42859 4.03329 5.42859 4.47181 5.42859 5.34884V6.27907C5.42859 7.1561 5.42859 7.59462 5.69638 7.86708C5.96417 8.13953 6.39516 8.13953 7.25716 8.13953H12.7429C13.6049 8.13953 14.0359 8.13953 14.3037 7.86708C14.5714 7.59462 14.5714 7.1561 14.5714 6.27907V5.34884C14.5714 4.47181 14.5714 4.03329 14.3037 3.76083C14.0359 3.48837 13.6049 3.48837 12.7429 3.48837H7.25716C6.39516 3.48837 5.96417 3.48837 5.69638 3.76083ZM5.5357 11.0393C5.42859 11.1483 5.42859 11.3237 5.42859 11.6745V12.0466C5.42859 12.3974 5.42859 12.5728 5.5357 12.6818C5.64282 12.7908 5.81522 12.7908 6.16002 12.7908H6.52573C6.87053 12.7908 7.04293 12.7908 7.15004 12.6818C7.25716 12.5728 7.25716 12.3974 7.25716 12.0466V11.6745C7.25716 11.3237 7.25716 11.1483 7.15004 11.0393C7.04293 10.9303 6.87053 10.9303 6.52573 10.9303H6.16002C5.81522 10.9303 5.64282 10.9303 5.5357 11.0393ZM5.42859 15.3954C5.42859 15.0446 5.42859 14.8692 5.5357 14.7602C5.64282 14.6513 5.81522 14.6513 6.16002 14.6513H6.52573C6.87053 14.6513 7.04293 14.6513 7.15004 14.7602C7.25716 14.8692 7.25716 15.0446 7.25716 15.3954V15.7675C7.25716 16.1183 7.25716 16.2938 7.15004 16.4027C7.04293 16.5117 6.87053 16.5117 6.52573 16.5117H6.16002C5.81522 16.5117 5.64282 16.5117 5.5357 16.4027C5.42859 16.2938 5.42859 16.1183 5.42859 15.7675V15.3954ZM9.19281 11.0393C9.08569 11.1483 9.08569 11.3237 9.08569 11.6745V12.0466C9.08569 12.3974 9.08569 12.5728 9.19281 12.6818C9.29992 12.7908 9.47232 12.7908 9.81712 12.7908H10.1828C10.5276 12.7908 10.7 12.7908 10.8071 12.6818C10.9143 12.5728 10.9143 12.3974 10.9143 12.0466V11.6745C10.9143 11.3237 10.9143 11.1483 10.8071 11.0393C10.7 10.9303 10.5276 10.9303 10.1828 10.9303H9.81712C9.47232 10.9303 9.29992 10.9303 9.19281 11.0393ZM9.08569 15.3954C9.08569 15.0446 9.08569 14.8692 9.19281 14.7602C9.29992 14.6513 9.47232 14.6513 9.81712 14.6513H10.1828C10.5276 14.6513 10.7 14.6513 10.8071 14.7602C10.9143 14.8692 10.9143 15.0446 10.9143 15.3954V15.7675C10.9143 16.1183 10.9143 16.2938 10.8071 16.4027C10.7 16.5117 10.5276 16.5117 10.1828 16.5117H9.81712C9.47232 16.5117 9.29992 16.5117 9.19281 16.4027C9.08569 16.2938 9.08569 16.1183 9.08569 15.7675V15.3954ZM12.85 11.0393C12.7429 11.1483 12.7429 11.3237 12.7429 11.6745V12.0466C12.7429 12.3974 12.7429 12.5728 12.85 12.6818C12.9571 12.7908 13.1295 12.7908 13.4743 12.7908H13.84C14.1848 12.7908 14.3572 12.7908 14.4643 12.6818C14.5714 12.5728 14.5714 12.3974 14.5714 12.0466V11.6745C14.5714 11.3237 14.5714 11.1483 14.4643 11.0393C14.3572 10.9303 14.1848 10.9303 13.84 10.9303H13.4743C13.1295 10.9303 12.9571 10.9303 12.85 11.0393ZM12.7429 15.3954C12.7429 15.0446 12.7429 14.8692 12.85 14.7602C12.9571 14.6513 13.1295 14.6513 13.4743 14.6513H13.84C14.1848 14.6513 14.3572 14.6513 14.4643 14.7602C14.5714 14.8692 14.5714 15.0446 14.5714 15.3954V15.7675C14.5714 16.1183 14.5714 16.2938 14.4643 16.4027C14.3572 16.5117 14.1848 16.5117 13.84 16.5117H13.4743C13.1295 16.5117 12.9571 16.5117 12.85 16.4027C12.7429 16.2938 12.7429 16.1183 12.7429 15.7675V15.3954Z"
    fill="currentColor"
  />
</svg>
