<svg
  xmlns="http://www.w3.org/2000/svg"
  width="20"
  height="20"
  viewBox="0 0 20 20"
  fill="none"
>
  <path
    d="M5.58337 1.62464V2.78577C5.58337 3.19796 5.91916 3.53211 6.33337 3.53211C6.74758 3.53211 7.08337 3.19796 7.08337 2.78577V1.52124C7.78233 1.49999 8.58204 1.5 9.50077 1.5H10.4992C11.418 1.5 12.2177 1.49999 12.9166 1.52124V2.78577C12.9166 3.19796 13.2524 3.53211 13.6666 3.53211C14.0808 3.53211 14.4166 3.19796 14.4166 2.78577V1.62464C15.2602 1.73038 15.9718 1.93211 16.6029 2.33872C17.2249 2.73936 17.7546 3.26646 18.1572 3.88536C18.549 4.48776 18.7515 5.16373 18.8612 5.95859C18.3921 5.92132 17.8004 5.87786 17.1099 5.83441C15.2863 5.71969 12.7699 5.60488 10 5.60488C7.2302 5.60488 4.71382 5.71969 2.89023 5.83441C2.19965 5.87786 1.60792 5.92132 1.13879 5.9586C1.24845 5.16374 1.45095 4.48776 1.84283 3.88536C2.24543 3.26646 2.77511 2.73936 3.39705 2.33872C4.02824 1.93211 4.73981 1.73038 5.58337 1.62464Z"
    fill="currentColor"
  />
  <path
    d="M1.02418 7.46545C0.999991 8.18173 0.999995 9.00615 1 9.9593V10.0407C0.999993 11.5391 0.999987 12.7193 1.09397 13.6614C1.19 14.6241 1.38996 15.4185 1.84283 16.1146C2.24543 16.7335 2.77511 17.2606 3.39705 17.6613C4.09663 18.1119 4.89494 18.3109 5.86228 18.4065C6.80904 18.5 7.99504 18.5 9.50073 18.5H10.4993C12.005 18.5 13.191 18.5 14.1377 18.4065C15.1051 18.3109 15.9034 18.1119 16.6029 17.6613C17.2249 17.2606 17.7546 16.7335 18.1572 16.1146C18.61 15.4185 18.81 14.6241 18.906 13.6614C19 12.7193 19 11.539 19 10.0407V9.95935C19 9.00617 19 8.18174 18.9758 7.46544C18.4842 7.42507 17.8177 7.37461 17.0152 7.32412C15.2138 7.2108 12.7302 7.09756 10 7.09756C7.2699 7.09756 4.78627 7.2108 2.98487 7.32412C2.18229 7.37461 1.51584 7.42508 1.02418 7.46545Z"
    fill="currentColor"
  />
</svg>
