<svg width="20" height="20" viewBox="0 0 20 20" fill="currentColor" xmlns="http://www.w3.org/2000/svg">
  <path d="M5.58338 1.62464V3.15846C5.58338 3.57065 5.91917 3.9048 6.33338 3.9048C6.7476 3.9048 7.08338 3.57065 7.08338 3.15846V1.52124C7.78233 1.49999 8.58203 1.5 9.50074 1.5H10.4992C11.418 1.5 12.2177 1.49999 12.9167 1.52124V3.15846C12.9167 3.57065 13.2525 3.9048 13.6667 3.9048C14.0809 3.9048 14.4167 3.57065 14.4167 3.15846V1.62465C15.2602 1.73039 15.9718 1.93213 16.6029 2.33872C17.2249 2.73936 17.7546 3.26646 18.1572 3.88536C18.5494 4.48823 18.7519 5.16479 18.8615 5.96046C18.3911 5.92275 17.7939 5.87854 17.0944 5.83435C15.2785 5.71961 12.7699 5.6048 10 5.6048C7.2302 5.6048 4.71382 5.71961 2.89023 5.83433C2.19966 5.87778 1.60793 5.92124 1.1388 5.95852C1.24846 5.16369 1.45097 4.48774 1.84283 3.88536C2.24543 3.26646 2.77512 2.73936 3.39705 2.33872C4.02825 1.93211 4.73981 1.73038 5.58338 1.62464Z" fill="currentColor" />
  <path d="M1.02419 7.46537C0.999992 8.18166 0.999996 9.00609 1 9.95927V10.0407C0.999993 11.5391 0.999987 12.7193 1.09397 13.6614C1.19 14.6241 1.38996 15.4185 1.84283 16.1146C2.24543 16.7335 2.77512 17.2606 3.39705 17.6613C4.09663 18.1119 4.89495 18.3109 5.86228 18.4065C6.80904 18.5 7.99504 18.5 9.50073 18.5H10.4993C11.1283 18.5 11.7015 18.5 12.2247 18.4932C10.8502 17.6281 9.9375 16.1021 9.9375 14.3639C9.9375 11.6675 12.1341 9.48163 14.8437 9.48163C16.5903 9.48163 18.1238 10.3898 18.9932 11.7576C19 11.2369 19 10.6665 19 10.0407V9.95935C19 9.00707 19 8.18329 18.9759 7.46746C18.4847 7.42675 17.8125 7.37541 16.9994 7.32403C15.2059 7.21071 12.7302 7.09748 10 7.09748C7.2699 7.09748 4.78627 7.21072 2.98487 7.32404C2.1823 7.37453 1.51585 7.42499 1.02419 7.46537Z" fill="currentColor" />
  <path fill-rule="evenodd" d="M14.8437 10.9743C12.9625 10.9743 11.4375 12.4919 11.4375 14.3639C11.4375 16.236 12.9625 17.7536 14.8437 17.7536C16.725 17.7536 18.25 16.236 18.25 14.3639C18.25 12.4919 16.725 10.9743 14.8437 10.9743ZM15.0312 13.1667C15.0312 12.7545 14.6955 12.4203 14.2812 12.4203C13.867 12.4203 13.5312 12.7545 13.5312 13.1667V14.6594C13.5312 15.0716 13.867 15.4057 14.2812 15.4057H15.7812C16.1955 15.4057 16.5312 15.0716 16.5312 14.6594C16.5312 14.2472 16.1955 13.913 15.7812 13.913H15.0312V13.1667Z" fill="currentColor" />
</svg>
