<svg
  xmlns="http://www.w3.org/2000/svg"
  width="20"
  height="20"
  viewBox="0 0 20 20"
  fill="none"
>
  <path
    d="M5.58342 1.62463V2.84748C5.58342 3.25967 5.91921 3.59382 6.33342 3.59382C6.74764 3.59382 7.08342 3.25967 7.08342 2.84748V1.52123C7.78237 1.49999 8.58207 1.5 9.50078 1.5H10.4992C11.418 1.5 12.2178 1.49999 12.9168 1.52124V2.84748C12.9168 3.25967 13.2526 3.59382 13.6668 3.59382C14.081 3.59382 14.4168 3.25967 14.4168 2.84748V1.62466C15.2603 1.73041 15.9718 1.93214 16.6029 2.33872C17.2249 2.73936 17.7546 3.26646 18.1572 3.88536C18.5484 4.4868 18.7509 5.16157 18.8607 5.95478C18.3945 5.91837 17.8138 5.87637 17.1407 5.83439C15.3017 5.71969 12.7698 5.60488 10 5.60488C7.2302 5.60488 4.71382 5.71969 2.89023 5.83441C2.19965 5.87786 1.60792 5.92132 1.13879 5.9586C1.24845 5.16374 1.45095 4.48776 1.84283 3.88536C2.24543 3.26646 2.77511 2.73936 3.39705 2.33872C4.02826 1.9321 4.73984 1.73037 5.58342 1.62463Z"
    fill="currentColor"
  />
  <path
    d="M1.02418 7.46545C0.999991 8.18174 0.999995 9.00615 1 9.95931V10.0407C0.999993 11.5391 0.999987 12.7193 1.09397 13.6614C1.19 14.6241 1.38996 15.4185 1.84283 16.1146C2.24543 16.7335 2.77511 17.2606 3.39705 17.6613C4.09663 18.1119 4.89494 18.3109 5.86228 18.4065C6.80904 18.5 7.99504 18.5 9.50073 18.5H10.5025C10.8578 18.5 11.1954 18.5 11.5161 18.4988C10.334 17.5887 9.57288 16.1633 9.57288 14.561C9.57288 11.813 11.8115 9.58537 14.5729 9.58537C16.483 9.58537 18.1429 10.6512 18.9848 12.2178C19 11.5778 19 10.8564 19 10.0407V9.95935C19 9.00435 19 8.17858 18.9757 7.46132C18.4838 7.42166 17.8288 7.37292 17.0469 7.32415C15.2296 7.2108 12.7303 7.09756 10 7.09756C7.2699 7.09756 4.78627 7.2108 2.98487 7.32412C2.18229 7.37461 1.51584 7.42508 1.02418 7.46545Z"
    fill="currentColor"
  />
  <path
    fill-rule="evenodd"
    clip-rule="evenodd"
    d="M14.574 11.131C12.6949 11.131 11.1716 12.6792 11.1716 14.5891C11.1716 16.4989 12.6949 18.0471 14.574 18.0471C15.2496 18.0471 15.8793 17.8469 16.4087 17.5017L17.1773 18.2829C17.462 18.5723 17.9237 18.5723 18.2084 18.2829C18.4931 17.9935 18.4931 17.5243 18.2084 17.235L17.4398 16.4537C17.7794 15.9157 17.9763 15.2758 17.9763 14.5891C17.9763 12.6792 16.453 11.131 14.574 11.131ZM12.6298 14.5891C12.6298 13.4977 13.5002 12.613 14.574 12.613C15.6477 12.613 16.5181 13.4977 16.5181 14.5891C16.5181 15.6804 15.6477 16.5651 14.574 16.5651C13.5002 16.5651 12.6298 15.6804 12.6298 14.5891Z"
    fill="currentColor"
  />
</svg>
