<svg
  xmlns="http://www.w3.org/2000/svg"
  width="20"
  height="20"
  viewBox="0 0 20 20"
  fill="none"
>
  <path
    d="M10 8.75C8.75736 8.75 7.75 9.75736 7.75 11C7.75 12.2426 8.75736 13.25 10 13.25C11.2426 13.25 12.25 12.2426 12.25 11C12.25 9.75736 11.2426 8.75 10 8.75Z"
    fill="currentColor"
  />
  <path
    fill-rule="evenodd"
    clip-rule="evenodd"
    d="M20 10.8564V9.74828C20 9.13398 20 8.82683 19.9705 8.55624C19.7553 6.58605 18.3968 4.92889 16.507 4.33154C16.2475 4.2495 15.9463 4.18926 15.3439 4.06878C15.2973 4.05947 15.2741 4.05481 15.2515 4.04919C15.0906 4.00914 14.9422 3.92971 14.8196 3.81806C14.8024 3.80237 14.7856 3.78558 14.752 3.75199L14.691 3.69099C14.1802 3.18015 13.9247 2.92473 13.6389 2.72438C13.1596 2.38848 12.6125 2.16185 12.036 2.06047C11.6922 2 11.331 2 10.6086 2H9.39142C8.66898 2 8.30777 2 7.96396 2.06047C7.38755 2.16185 6.84041 2.38848 6.36114 2.72438C6.07527 2.92473 5.81985 3.18015 5.30901 3.69099L5.24801 3.75199C5.21443 3.78557 5.19762 3.80238 5.18041 3.81806C5.05784 3.92971 4.90943 4.00914 4.74854 4.04919C4.72594 4.05481 4.70265 4.05947 4.65608 4.06878C4.05373 4.18925 3.75251 4.2495 3.49298 4.33154C1.60323 4.92889 0.244696 6.58605 0.0295482 8.55624C0 8.82683 0 9.13398 0 9.74829V10.8564C0 12.852 0 13.8498 0.280783 14.652C0.783377 16.0877 1.91226 17.2166 3.34803 17.7192C4.15016 18 5.14798 18 7.14363 18H12.8564C14.852 18 15.8498 18 16.652 17.7192C18.0877 17.2166 19.2166 16.0877 19.7192 14.652C20 13.8498 20 12.852 20 10.8564ZM6.25 11C6.25 8.92893 7.92893 7.25 10 7.25C12.0711 7.25 13.75 8.92893 13.75 11C13.75 13.0711 12.0711 14.75 10 14.75C7.92893 14.75 6.25 13.0711 6.25 11ZM16 8C16 8.55228 15.5523 9 15 9C14.4477 9 14 8.55228 14 8C14 7.44772 14.4477 7 15 7C15.5523 7 16 7.44772 16 8Z"
    fill="currentColor"
  />
</svg>
