<svg
  xmlns="http://www.w3.org/2000/svg"
  width="20"
  height="20"
  viewBox="0 0 20 20"
  fill="none"
>
  <path
    d="M4.17886 15.4964C4.0952 15.6571 4.01982 15.8104 3.9535 15.9566C3.64995 16.6256 3.46135 17.3 3.65289 17.9815C3.77339 18.4103 3.99555 18.8036 4.30052 19.128C4.78532 19.6438 5.46023 19.8303 6.18989 19.9156C6.91202 20 7.85372 20 9.01861 20H11.0209C12.1894 20 13.1347 20 13.8596 19.9142C14.5931 19.8274 15.2705 19.6372 15.7556 19.1138C16.0427 18.804 16.2551 18.4325 16.3765 18.0278C16.5816 17.3443 16.4018 16.6639 16.1046 15.9876C16.0326 15.8238 15.9495 15.6512 15.8562 15.4691C14.2414 16.7312 12.208 17.4831 10 17.4831C7.80801 17.4831 5.78805 16.742 4.17886 15.4964Z"
    fill="currentColor"
  />
  <path
    fill-rule="evenodd"
    clip-rule="evenodd"
    d="M2 7.98685C2 3.57445 5.58311 0 10 0C14.4169 0 18 3.57445 18 7.98685C18 12.3993 14.4169 15.9738 10 15.9738C5.58312 15.9738 2 12.3993 2 7.98685ZM10 9.79848C11.0004 9.79848 11.8113 8.98742 11.8113 7.98692C11.8113 6.98641 11.0004 6.17535 10 6.17535C8.99962 6.17535 8.18866 6.98641 8.18866 7.98692C8.18866 8.98742 8.99962 9.79848 10 9.79848Z"
    fill="currentColor"
  />
</svg>
