<svg width="20" height="20" viewBox="0 0 20 20" fill="currentcolor" xmlns="http://www.w3.org/2000/svg">
  <path fill-rule="evenodd" d="M7.18012 1.5H12.8199C14.0823 1.49998 15.0998 1.49997 15.9001 1.60756C16.731 1.71927 17.4305 1.95825 17.9861 2.51386C18.5418 3.06948 18.7807 3.76906 18.8924 4.59992C19 5.4002 19 6.41773 19 7.68012V13.3199C19 14.5823 19 15.5998 18.8924 16.4001C18.7807 17.231 18.5418 17.9305 17.9861 18.4861C17.4305 19.0418 16.731 19.2807 15.9001 19.3924C15.0998 19.5 14.0823 19.5 12.8199 19.5H7.18012C5.91773 19.5 4.9002 19.5 4.09992 19.3924C3.26906 19.2807 2.56948 19.0418 2.01386 18.4861C1.45825 17.9305 1.21927 17.231 1.10756 16.4001C0.999968 15.5998 0.999982 14.5823 1 13.3199V7.68012C0.999982 6.41774 0.999968 5.4002 1.10756 4.59992C1.21927 3.76906 1.45825 3.06948 2.01386 2.51386C2.56948 1.95825 3.26905 1.71927 4.09992 1.60756C4.9002 1.49997 5.91774 1.49998 7.18012 1.5ZM16.1228 6.93672C16.104 6.71438 15.9871 6.51197 15.804 6.38447C15.6209 6.25697 15.3905 6.21762 15.1755 6.27712L12.3268 7.06525C11.9276 7.1757 11.6935 7.58887 11.804 7.98808C11.9144 8.3873 12.3276 8.62139 12.7268 8.51094L13.6341 8.25992L11.0662 12.1117C10.7608 12.5698 10.0823 12.5537 9.79906 12.0816L9.23808 11.1466C8.38825 9.73024 6.35283 9.6818 5.4366 11.0561L3.75141 13.5839C3.52164 13.9286 3.61477 14.3942 3.95942 14.624C4.30407 14.8538 4.76972 14.7606 4.99948 14.416L6.68468 11.8882C6.99009 11.4301 7.66856 11.4462 7.95184 11.9184L8.51282 12.8533C9.36264 14.2697 11.3981 14.3181 12.3143 12.9438L14.8091 9.20158L14.8774 10.0083C14.9123 10.4211 15.2752 10.7274 15.6879 10.6924C16.1007 10.6575 16.407 10.2946 16.372 9.88185L16.1228 6.93672Z" fill="currentcolor" />
</svg>
