<svg
  xmlns="http://www.w3.org/2000/svg"
  width="20"
  height="20"
  viewBox="0 0 20 20"
  fill="none"
>
  <path
    fill-rule="evenodd"
    clip-rule="evenodd"
    d="M7.18012 1H12.8199C14.0823 0.999982 15.0998 0.999968 15.9001 1.10756C16.731 1.21927 17.4305 1.45825 17.9861 2.01386C18.5418 2.56948 18.7807 3.26906 18.8924 4.09992C19 4.9002 19 5.91773 19 7.18012V12.8199C19 14.0823 19 15.0998 18.8924 15.9001C18.7807 16.731 18.5418 17.4305 17.9861 17.9861C17.4305 18.5418 16.731 18.7807 15.9001 18.8924C15.0998 19 14.0823 19 12.8199 19H7.18012C5.91773 19 4.9002 19 4.09992 18.8924C3.26906 18.7807 2.56948 18.5418 2.01386 17.9861C1.45825 17.4305 1.21927 16.731 1.10756 15.9001C0.999968 15.0998 0.999982 14.0823 1 12.8199V7.1801C0.999982 5.91773 0.999968 4.9002 1.10756 4.09992C1.21927 3.26906 1.45825 2.56948 2.01386 2.01386C2.56948 1.45825 3.26905 1.21927 4.09992 1.10756C4.9002 0.999968 5.91774 0.999982 7.18012 1ZM14.0746 5.26206C14.0746 4.84105 14.4159 4.49976 14.8369 4.49976C15.2579 4.49976 15.5992 4.84105 15.5992 5.26206L15.5992 15.4159C15.5992 15.8369 15.2579 16.1782 14.8369 16.1782C14.4159 16.1782 14.0746 15.8369 14.0746 15.4159L14.0746 5.26206ZM7.62537 7.10826C7.62537 6.68724 7.96666 6.34595 8.38767 6.34595C8.80869 6.34595 9.14998 6.68724 9.14998 7.10826L9.14998 15.4159C9.14998 15.837 8.80869 16.1783 8.38767 16.1783C7.96666 16.1783 7.62537 15.837 7.62537 15.4159L7.62537 7.10826ZM4.40076 11.7237C4.40076 11.3027 4.74205 10.9614 5.16306 10.9614C5.58408 10.9614 5.92537 11.3027 5.92537 11.7237V15.416C5.92537 15.8371 5.58408 16.1783 5.16306 16.1783C4.74205 16.1783 4.40076 15.8371 4.40076 15.416V11.7237ZM11.6123 8.19214C11.1913 8.19214 10.85 8.53344 10.85 8.95445V15.416C10.85 15.837 11.1913 16.1783 11.6123 16.1783C12.0333 16.1783 12.3746 15.837 12.3746 15.416L12.3746 8.95445C12.3746 8.53344 12.0333 8.19214 11.6123 8.19214Z"
    fill="currentColor"
  />
</svg>
