<svg width="20" height="20" viewBox="0 0 20 20" fill="currentcolor" xmlns="http://www.w3.org/2000/svg">
  <path fill-rule="evenodd" d="M8.52286 1.66201C8.63968 2.06686 8.40619 2.48976 8.00134 2.60659C4.83815 3.51936 2.52592 6.43675 2.52592 9.89221C2.52592 14.0796 5.92045 17.4741 10.1078 17.4741C13.5633 17.4741 16.4807 15.1619 17.3935 11.9987C17.5103 11.5938 17.9332 11.3603 18.3381 11.4772C18.7429 11.594 18.9764 12.0169 18.8596 12.4218C17.7634 16.2205 14.2612 19 10.1078 19C5.07771 19 1 14.9223 1 9.89221C1 5.73887 3.77947 2.23668 7.57828 1.14049C7.98313 1.02367 8.40603 1.25716 8.52286 1.66201Z" fill="currentcolor" />
  <path d="M11.2869 1.01743L11.2609 1.01535C11.1478 1.00626 10.9902 0.993586 10.849 1.00378C10.6622 1.01725 10.4148 1.07405 10.1967 1.27549C9.97203 1.48312 9.89991 1.73445 9.87368 1.91482C9.85317 2.05592 9.85334 2.21689 9.85347 2.33738L9.85347 8.40129C9.85339 8.60994 9.8533 8.83557 9.87891 9.02602C9.90891 9.24913 9.98605 9.53416 10.2259 9.77403C10.4658 10.0139 10.7508 10.0911 10.9739 10.1211C11.1644 10.1467 11.39 10.1466 11.5987 10.1465L17.6626 10.1465C17.7831 10.1466 17.9441 10.1468 18.0852 10.1263C18.2655 10.1 18.5169 10.0279 18.7245 9.80322C18.926 9.58521 18.9827 9.33775 18.9962 9.15101C19.0064 9.00974 18.9937 8.85221 18.9846 8.7391L18.9826 8.71305C18.658 4.61215 15.3878 1.34199 11.2869 1.01743Z" fill="currentcolor" />
</svg>
