<svg
  xmlns="http://www.w3.org/2000/svg"
  width="20"
  height="20"
  viewBox="0 0 20 20"
  fill="none"
>
  <path
    fill-rule="evenodd"
    clip-rule="evenodd"
    d="M7.18012 1H12.8199C14.0823 0.999982 15.0998 0.999968 15.9001 1.10756C16.731 1.21927 17.4305 1.45825 17.9861 2.01386C18.5418 2.56948 18.7807 3.26906 18.8924 4.09992C19 4.9002 19 5.91773 19 7.18012V12.8199C19 14.0823 19 15.0998 18.8924 15.9001C18.7807 16.731 18.5418 17.4305 17.9861 17.9861C17.4305 18.5418 16.731 18.7807 15.9001 18.8924C15.0998 19 14.0823 19 12.8199 19H7.18012C5.91773 19 4.9002 19 4.09992 18.8924C3.26906 18.7807 2.56948 18.5418 2.01386 17.9861C1.45825 17.4305 1.21927 16.731 1.10756 15.9001C0.999968 15.0998 0.999982 14.0823 1 12.8199V7.1801C0.999982 5.91773 0.999968 4.9002 1.10756 4.09992C1.21927 3.26906 1.45825 2.56948 2.01386 2.01386C2.56948 1.45825 3.26905 1.21927 4.09992 1.10756C4.9002 0.999968 5.91774 0.999982 7.18012 1ZM16.1228 13.5632C16.104 13.7855 15.9871 13.988 15.804 14.1155C15.6209 14.243 15.3905 14.2823 15.1755 14.2228L12.3268 13.4347C11.9276 13.3242 11.6935 12.911 11.804 12.5118C11.9144 12.1126 12.3276 11.8785 12.7268 11.989L13.6341 12.24L11.0662 8.38819C10.7608 7.93007 10.0823 7.94622 9.79906 8.41834L9.23808 9.35331C8.38825 10.7697 6.35283 10.8181 5.4366 9.44377L3.75141 6.91598C3.52164 6.57133 3.61477 6.10568 3.95942 5.87592C4.30407 5.64615 4.76972 5.73928 4.99948 6.08393L6.68468 8.61172C6.99009 9.06983 7.66856 9.05369 7.95184 8.58157L8.51282 7.6466C9.36264 6.23023 11.3981 6.18179 12.3143 7.55614L14.8091 11.2983L14.8774 10.4916C14.9123 10.0788 15.2752 9.77256 15.6879 9.80749C16.1007 9.84242 16.407 10.2053 16.372 10.6181L16.1228 13.5632Z"
    fill="currentColor"
  />
</svg>
