<svg width="20" height="20" viewBox="0 0 20 20" fill="currentcolor" xmlns="http://www.w3.org/2000/svg">
  <path fill-rule="evenodd" d="M14.1817 3.19681C14.6062 3.51948 14.6889 4.12534 14.3664 4.55004L8.76269 11.9298C8.59027 12.1568 8.32637 12.2961 8.04171 12.3101C7.75705 12.3242 7.48073 12.2116 7.28679 12.0027L4.17363 8.64826C3.81089 8.25741 3.83351 7.64635 4.22415 7.28342C4.6148 6.92048 5.22553 6.94312 5.58827 7.33397L7.92013 9.84655L12.8292 3.38157C13.1517 2.95687 13.7572 2.87415 14.1817 3.19681Z" fill="currentcolor" />
  <path fill-rule="evenodd" d="M16.6243 5.46643C17.0464 5.79222 17.1246 6.39867 16.799 6.82098L9.73077 15.9884C9.72217 15.9995 9.71347 16.0108 9.70468 16.0222C9.56798 16.1997 9.40998 16.4049 9.25174 16.5594C9.06394 16.7427 8.75654 16.9762 8.31059 16.9983C7.86465 17.0204 7.53569 16.8184 7.33071 16.6545C7.15801 16.5164 6.98054 16.3279 6.82699 16.1648C6.81711 16.1543 6.80734 16.1439 6.79767 16.1336L3.26294 12.3827C2.89724 11.9946 2.91521 11.3834 3.30307 11.0175C3.69094 10.6516 4.30183 10.6696 4.66753 11.0576L8.20226 14.8086L15.2705 5.64121C15.5961 5.2189 16.2022 5.14065 16.6243 5.46643Z" fill="currentcolor" />
</svg>
