<svg width="20" height="20" viewBox="0 0 20 20" fill="currentcolor" xmlns="http://www.w3.org/2000/svg">
  <path fill-rule="evenodd" d="M10 1C5.02944 1 1 5.02944 1 10C1 14.9706 5.02944 19 10 19C14.9706 19 19 14.9706 19 10C19 5.02944 14.9706 1 10 1ZM12.1657 7.6882C12.4229 7.35486 12.9015 7.29309 13.2349 7.55024C13.5682 7.8074 13.63 8.2861 13.3729 8.61944L10.3198 12.5772C10.2157 12.7122 10.0943 12.8697 9.97217 12.9889C9.82663 13.1309 9.5862 13.314 9.23666 13.3313C8.88712 13.3486 8.62979 13.1901 8.47093 13.0632C8.3376 12.9567 8.20123 12.8119 8.08436 12.6878L6.67617 11.1943C6.38735 10.8879 6.40154 10.4055 6.70786 10.1167C7.01419 9.82784 7.49664 9.84203 7.78546 10.1484L9.15079 11.5964L12.1657 7.6882Z" fill="currentcolor" />
</svg>
