<svg width="20" height="20" viewBox="0 0 20 20" fill="currentcolor" xmlns="http://www.w3.org/2000/svg">
  <path fill-rule="evenodd" d="M1 10C1 5.02944 5.02944 1 10 1C14.9706 1 19 5.02944 19 10C19 14.9706 14.9706 19 10 19C5.02944 19 1 14.9706 1 10ZM8.38845 6.59533C8.81189 6.5384 9.34072 6.53843 9.95442 6.53846H10.0456C10.6593 6.53843 11.1881 6.5384 11.6115 6.59533C12.0654 6.65635 12.5004 6.79394 12.8532 7.14678C13.2061 7.49963 13.3437 7.93464 13.4047 8.38846C13.4616 8.81192 13.4616 9.34071 13.4615 9.95443V10.0456C13.4616 10.6593 13.4616 11.1881 13.4047 11.6116C13.3437 12.0654 13.2061 12.5004 12.8532 12.8532C12.5004 13.2061 12.0654 13.3437 11.6115 13.4047C11.1881 13.4616 10.6593 13.4616 10.0456 13.4615H9.95442C9.3407 13.4616 8.81191 13.4616 8.38845 13.4047C7.93463 13.3437 7.49962 13.2061 7.14677 12.8532C6.79393 12.5004 6.65634 12.0654 6.59532 11.6116C6.53839 11.1881 6.53842 10.6593 6.53845 10.0456V9.95438C6.53842 9.34068 6.53839 8.8119 6.59532 8.38846C6.65634 7.93464 6.79393 7.49963 7.14677 7.14678C7.49962 6.79394 7.93463 6.65635 8.38845 6.59533Z" fill="currentcolor" />
</svg>
