<svg
  xmlns="http://www.w3.org/2000/svg"
  width="20"
  height="20"
  viewBox="0 0 20 20"
  fill="none"
>
  <path
    fill-rule="evenodd"
    clip-rule="evenodd"
    d="M10 1C5.02944 1 1 5.02944 1 10C1 14.9706 5.02944 19 10 19C14.9706 19 19 14.9706 19 10C19 5.02944 14.9706 1 10 1ZM11.297 7.63323C11.5924 7.33783 12.0713 7.33783 12.3667 7.63323C12.6621 7.92864 12.6621 8.40758 12.3667 8.70298L11.0697 10L12.3667 11.297C12.6621 11.5924 12.6621 12.0714 12.3667 12.3668C12.0713 12.6622 11.5924 12.6622 11.297 12.3668L9.99995 11.0698L8.70292 12.3668C8.40752 12.6622 7.92857 12.6622 7.63317 12.3668C7.33777 12.0714 7.33777 11.5924 7.63317 11.297L8.93021 10L7.63317 8.70298C7.33777 8.40758 7.33777 7.92864 7.63317 7.63323C7.92857 7.33783 8.40752 7.33783 8.70292 7.63323L9.99995 8.93027L11.297 7.63323Z"
    fill="currentColor"
  />
</svg>
