<svg
  xmlns="http://www.w3.org/2000/svg"
  width="20"
  height="20"
  viewBox="0 0 20 20"
  fill="none"
>
  <path
    fill-rule="evenodd"
    clip-rule="evenodd"
    d="M10 1C5.02944 1 1 5.02944 1 10C1 14.9706 5.02944 19 10 19C14.9706 19 19 14.9706 19 10C19 5.02944 14.9706 1 10 1ZM9.23768 7.38914C9.23768 6.96813 9.57897 6.62683 9.99998 6.62683C10.421 6.62683 10.7623 6.96813 10.7623 7.38914V9.23768H12.6109C13.0319 9.23768 13.3732 9.57898 13.3732 9.99999C13.3732 10.421 13.0319 10.7623 12.6108 10.7623H10.7623V12.6109C10.7623 13.0319 10.421 13.3732 9.99998 13.3732C9.57897 13.3732 9.23768 13.0319 9.23768 12.6108V10.7623H7.38914C6.96813 10.7623 6.62683 10.421 6.62683 9.99999C6.62683 9.57898 6.96813 9.23768 7.38914 9.23768H9.23768V7.38914Z"
    fill="currentColor"
  />
</svg>
