<svg width="20" height="20" viewBox="0 0 20 20" fill="currentcolor" xmlns="http://www.w3.org/2000/svg">
  <path fill-rule="evenodd" d="M1 10C1 5.02944 5.02944 1 10 1C14.9706 1 19 5.02944 19 10C19 14.9706 14.9706 19 10 19C5.02944 19 1 14.9706 1 10ZM7.41162 7.71016C7.41162 7.2924 7.75028 6.95374 8.16805 6.95374C8.58581 6.95374 8.92447 7.2924 8.92447 7.71016V12.2899C8.92447 12.7077 8.58581 13.0463 8.16805 13.0463C7.75028 13.0463 7.41162 12.7077 7.41162 12.2899V7.71016ZM11.0754 7.71016C11.0754 7.2924 11.414 6.95374 11.8318 6.95374C12.2496 6.95374 12.5882 7.2924 12.5882 7.71016V12.2899C12.5882 12.7077 12.2496 13.0463 11.8318 13.0463C11.414 13.0463 11.0754 12.7077 11.0754 12.2899V7.71016Z" fill="currentcolor" />
</svg>
