<svg width="20" height="20" viewBox="0 0 20 20" fill="currentcolor" xmlns="http://www.w3.org/2000/svg">
  <path fill-rule="evenodd" d="M1 10C1 5.02944 5.02944 1 10 1C14.9706 1 19 5.02944 19 10C19 14.9706 14.9706 19 10 19C5.02944 19 1 14.9706 1 10ZM6.90007 7.22593C7.16752 6.90499 7.64449 6.86163 7.96543 7.12908L10.7133 9.41896C10.8857 9.56268 10.9855 9.77557 10.9855 10.0001C10.9855 10.2246 10.8857 10.4374 10.7133 10.5812L7.96543 12.871C7.64449 13.1385 7.16752 13.0951 6.90007 12.7742C6.63263 12.4533 6.67599 11.9763 6.99692 11.7088L9.04746 10.0001L6.99692 8.29128C6.67599 8.02384 6.63263 7.54686 6.90007 7.22593ZM11.7625 7.71016C11.7625 7.2924 12.1011 6.95374 12.5189 6.95374C12.9366 6.95374 13.2753 7.2924 13.2753 7.71016V12.2899C13.2753 12.7077 12.9366 13.0463 12.5189 13.0463C12.1011 13.0463 11.7625 12.7077 11.7625 12.2899V7.71016Z" fill="currentcolor" />
</svg>
