<svg
  xmlns="http://www.w3.org/2000/svg"
  width="20"
  height="20"
  viewBox="0 0 20 20"
  fill="none"
>
  <path
    fill-rule="evenodd"
    clip-rule="evenodd"
    d="M19 10C19 5.02944 14.9706 1 10 1C5.02944 1 1 5.02944 1 10C1 14.9706 5.02944 19 10 19C14.9706 19 19 14.9706 19 10ZM8.23755 7.71016C8.23755 7.2924 7.89888 6.95374 7.48112 6.95374C7.06336 6.95374 6.7247 7.2924 6.7247 7.71016V12.2899C6.7247 12.7077 7.06336 13.0463 7.48112 13.0463C7.89888 13.0463 8.23755 12.7077 8.23755 12.2899V7.71016ZM13.0999 7.22593C12.8325 6.90499 12.3555 6.86163 12.0346 7.12908L9.28672 9.41896C9.11426 9.56268 9.01454 9.77557 9.01454 10.0001C9.01454 10.2246 9.11426 10.4374 9.28672 10.5812L12.0346 12.871C12.3555 13.1385 12.8325 13.0951 13.0999 12.7742C13.3674 12.4533 13.324 11.9763 13.0031 11.7088L10.9525 10.0001L13.0031 8.29128C13.324 8.02384 13.3674 7.54686 13.0999 7.22593Z"
    fill="currentColor"
  />
</svg>
