<svg
  xmlns="http://www.w3.org/2000/svg"
  width="20"
  height="20"
  viewBox="0 0 20 20"
  fill="none"
>
  <path
    fill-rule="evenodd"
    clip-rule="evenodd"
    d="M20 10C20 15.5228 15.5228 20 10 20C4.47715 20 0 15.5228 0 10C0 4.47715 4.47715 0 10 0C15.5228 0 20 4.47715 20 10ZM10.75 5C10.75 4.58579 10.4142 4.25 10 4.25C9.58579 4.25 9.25 4.58579 9.25 5V10C9.25 10.2841 9.4105 10.5438 9.66459 10.6708L12.6646 12.1708C13.0351 12.3561 13.4856 12.2059 13.6708 11.8354C13.8561 11.4649 13.7059 11.0144 13.3354 10.8292L10.75 9.53647V5Z"
    fill="currentColor"
  />
</svg>
