<svg width="20" height="20" viewBox="0 0 20 20" fill="currentcolor" xmlns="http://www.w3.org/2000/svg">
  <path fill-rule="evenodd" d="M13.7178 1H11.7779C10.7442 0.99998 9.89253 0.999962 9.21849 1.09058C8.51108 1.18569 7.88729 1.39292 7.38796 1.89225C6.88863 2.39157 6.68141 3.01536 6.5863 3.72278C6.49568 4.39682 6.4957 5.24851 6.49572 6.28216V6.49572H6.28218C5.24853 6.4957 4.39682 6.49568 3.72278 6.5863C3.01536 6.68141 2.39157 6.88863 1.89225 7.38796C1.39292 7.88729 1.18569 8.51108 1.09058 9.21849C0.999962 9.89253 0.99998 10.7442 1 11.7779V13.7178C0.99998 14.7515 0.999962 15.6032 1.09058 16.2772C1.18569 16.9846 1.39292 17.6084 1.89225 18.1078C2.39157 18.6071 3.01536 18.8143 3.72278 18.9094C4.39683 19 5.24855 19 6.28223 19H8.22205C9.25574 19 10.1075 19 10.7815 18.9094C11.4889 18.8143 12.1127 18.6071 12.612 18.1078C13.1114 17.6084 13.3186 16.9846 13.4137 16.2772C13.5043 15.6032 13.5043 14.7515 13.5043 13.7179V13.5043H13.7178C14.7515 13.5043 15.6032 13.5043 16.2772 13.4137C16.9846 13.3186 17.6084 13.1114 18.1078 12.612C18.6071 12.1127 18.8143 11.4889 18.9094 10.7815C19 10.1075 19 9.25577 19 8.22212V6.28217C19 5.24851 19 4.39682 18.9094 3.72278C18.8143 3.01536 18.6071 2.39157 18.1078 1.89224C17.6084 1.39292 16.9846 1.18569 16.2772 1.09058C15.6032 0.999962 14.7515 0.99998 13.7178 1ZM3.92436 8.08566C4.4858 8.01017 5.2353 8.00857 6.33619 8.00857H6.49572V8.2221C6.4957 9.25576 6.49568 10.1075 6.5863 10.7815C6.68141 11.4889 6.88863 12.1127 7.38796 12.612C7.88729 13.1114 8.51108 13.3186 9.21849 13.4137C9.89254 13.5043 10.7442 13.5043 11.7779 13.5043H11.9914V13.6638C11.9914 14.7647 11.9898 15.5142 11.9143 16.0756C11.8418 16.6153 11.7137 16.8666 11.5423 17.038C11.3709 17.2094 11.1196 17.3375 10.5799 17.4101C10.0185 17.4855 9.26899 17.4871 8.1681 17.4871H6.33619C5.2353 17.4871 4.4858 17.4855 3.92436 17.4101C3.38473 17.3375 3.13339 17.2094 2.96199 17.038C2.79059 16.8666 2.66249 16.6153 2.58994 16.0756C2.51446 15.5142 2.51285 14.7647 2.51285 13.6638V11.8319C2.51285 10.731 2.51446 9.98151 2.58994 9.42008C2.66249 8.88045 2.79059 8.62911 2.96199 8.45771C3.13339 8.2863 3.38473 8.15821 3.92436 8.08566Z" fill="currentcolor" />
</svg>
