<svg width="20" height="20" viewBox="0 0 20 20" fill="currentColor" xmlns="http://www.w3.org/2000/svg">
  <path fill-rule="evenodd" d="M13.7178 1H11.7779C10.7442 0.99998 9.8925 0.999962 9.21846 1.09058C8.51105 1.18569 7.88726 1.39292 7.38793 1.89225C6.8886 2.39157 6.68138 3.01536 6.58627 3.72278C6.49565 4.39682 6.49567 5.24851 6.49569 6.28216V6.49572H6.28215C5.2485 6.4957 4.39679 6.49568 3.72275 6.5863C3.01533 6.68141 2.39154 6.88863 1.89221 7.38796C1.39288 7.88729 1.18566 8.51108 1.09055 9.21849C0.999932 9.89253 0.999949 10.7442 0.99997 11.7779V13.7178C0.999949 14.7515 0.999932 15.6032 1.09055 16.2772C1.18566 16.9846 1.39288 17.6084 1.89221 18.1078C2.39154 18.6071 3.01533 18.8143 3.72275 18.9094C4.3968 19 5.24852 19 6.2822 19H8.22202C9.25571 19 10.1074 19 10.7815 18.9094C11.4889 18.8143 12.1127 18.6071 12.612 18.1078C13.1113 17.6084 13.3186 16.9846 13.4137 16.2772C13.5043 15.6032 13.5043 14.7515 13.5043 13.7179V13.5043H13.7178C14.7514 13.5043 15.6031 13.5043 16.2772 13.4137C16.9846 13.3186 17.6084 13.1114 18.1077 12.612C18.6071 12.1127 18.8143 11.4889 18.9094 10.7815C19 10.1075 19 9.25577 19 8.22212V6.28217C19 5.24851 19 4.39682 18.9094 3.72278C18.8143 3.01536 18.6071 2.39157 18.1077 1.89224C17.6084 1.39292 16.9846 1.18569 16.2772 1.09058C15.6032 0.999962 14.7514 0.99998 13.7178 1ZM3.92433 8.08566C4.48577 8.01017 5.23527 8.00857 6.33616 8.00857H6.49569V8.2221C6.49567 9.25576 6.49565 10.1075 6.58627 10.7815C6.68138 11.4889 6.8886 12.1127 7.38793 12.612C7.88726 13.1114 8.51105 13.3186 9.21846 13.4137C9.89251 13.5043 10.7442 13.5043 11.7779 13.5043H11.9914V13.6638C11.9914 14.7647 11.9898 15.5142 11.9143 16.0756C11.8418 16.6153 11.7137 16.8666 11.5423 17.038C11.3709 17.2094 11.1195 17.3375 10.5799 17.4101C10.0185 17.4855 9.26896 17.4871 8.16806 17.4871H6.33616C5.23527 17.4871 4.48577 17.4855 3.92433 17.4101C3.3847 17.3375 3.13336 17.2094 2.96196 17.038C2.79056 16.8666 2.66246 16.6153 2.58991 16.0756C2.51443 15.5142 2.51282 14.7647 2.51282 13.6638V11.8319C2.51282 10.731 2.51443 9.98151 2.58991 9.42008C2.66246 8.88045 2.79056 8.62911 2.96196 8.45771C3.13336 8.2863 3.3847 8.15821 3.92433 8.08566Z" fill="currentColor" />
</svg>
