<svg
  xmlns="http://www.w3.org/2000/svg"
  width="20"
  height="20"
  viewBox="0 0 20 20"
  fill="none"
>
  <path
    d="M7.22517 15.4884C7.22517 15.9733 6.8323 16.3663 6.34768 16.3663C5.86306 16.3663 5.4702 15.9733 5.4702 15.4884C5.4702 15.0035 5.86306 14.6105 6.34768 14.6105C6.8323 14.6105 7.22517 15.0035 7.22517 15.4884Z"
    fill="currentColor"
  />
  <path
    d="M10.7351 15.4884C10.7351 15.9733 10.3423 16.3663 9.85763 16.3663C9.37301 16.3663 8.98015 15.9733 8.98015 15.4884C8.98015 15.0035 9.37301 14.6105 9.85763 14.6105C10.3423 14.6105 10.7351 15.0035 10.7351 15.4884Z"
    fill="currentColor"
  />
  <path
    d="M14.245 15.4884C14.245 15.9733 13.8522 16.3663 13.3676 16.3663C12.8829 16.3663 12.4901 15.9733 12.4901 15.4884C12.4901 15.0035 12.8829 14.6105 13.3676 14.6105C13.8522 14.6105 14.245 15.0035 14.245 15.4884Z"
    fill="currentColor"
  />
  <path
    d="M3.50654 5.92771C3.65192 4.45899 4.53247 3.25928 5.66044 2.42978C6.89379 1.5228 8.49191 1 10 1C11.8261 1 13.2708 1.61918 14.2542 2.68751C15.0907 3.59615 15.5461 4.77799 15.6584 6.05149C17.1659 6.37973 19 7.75619 19 10.4191C19 11.3026 18.8901 12.0476 18.5687 12.7263C18.2467 13.406 17.7446 13.9519 17.078 14.4921C16.6918 14.8051 16.2074 15.0606 15.6651 15.2684C15.5544 14.0963 14.568 13.1792 13.3675 13.1792C12.665 13.1792 12.0359 13.4933 11.6126 13.9886C11.1893 13.4933 10.5601 13.1792 9.8576 13.1792C9.15512 13.1792 8.52593 13.4933 8.10263 13.9887C7.67932 13.4933 7.05014 13.1792 6.34765 13.1792C5.18062 13.1792 4.21591 14.0459 4.06133 15.171C3.62615 14.9815 3.23535 14.755 2.91276 14.4845C1.58541 13.3715 1 12.0438 1 10.4191C1 8.51973 2.00359 6.8559 3.50654 5.92771Z"
    fill="currentColor"
  />
  <path
    d="M6.34789 18.1221C6.34789 18.6069 5.95503 19 5.47041 19C4.98578 19 4.59292 18.6069 4.59292 18.1221C4.59292 17.6372 4.98578 17.2441 5.47041 17.2441C5.95503 17.2441 6.34789 17.6372 6.34789 18.1221Z"
    fill="currentColor"
  />
  <path
    d="M9.85781 18.1221C9.85781 18.6069 9.46495 19 8.98033 19C8.49571 19 8.10284 18.6069 8.10284 18.1221C8.10284 17.6372 8.49571 17.2441 8.98033 17.2441C9.46495 17.2441 9.85781 17.6372 9.85781 18.1221Z"
    fill="currentColor"
  />
  <path
    d="M13.3678 18.1221C13.3678 18.6069 12.9749 19 12.4903 19C12.0057 19 11.6128 18.6069 11.6128 18.1221C11.6128 17.6372 12.0057 17.2441 12.4903 17.2441C12.9749 17.2441 13.3678 17.6372 13.3678 18.1221Z"
    fill="currentColor"
  />
</svg>
