<svg
  xmlns="http://www.w3.org/2000/svg"
  width="20"
  height="20"
  viewBox="0 0 20 20"
  fill="none"
>
  <path
    fill-rule="evenodd"
    clip-rule="evenodd"
    d="M5.28687 3.7791C6.37894 2.48491 8.00657 2 9.83258 2C12.0566 2 13.8532 2.73475 15.0109 4.055C16.0932 5.28907 16.547 6.95522 16.3414 8.79258C17.3445 8.841 18.1803 9.21916 18.8053 9.86362C19.63 10.7139 20 11.9374 20 13.2C20 14.8833 19.5063 16.1261 18.5974 16.9333C17.7623 17.675 16.6709 17.9637 15.5556 17.9967V18L15.3333 18L15.3214 18H6.22223V17.9958C6.14848 17.9986 6.0744 18 6 18C4.44012 18 2.92483 17.6383 1.79294 16.6325C0.642821 15.6105 0 14.0241 0 11.8255C0 10.1612 0.535565 8.70316 1.62529 7.73682C2.28566 7.15123 3.11166 6.7797 4.06763 6.63742C4.25773 5.46857 4.66431 4.51688 5.28687 3.7791ZM10.0357 14.321C9.84692 14.321 9.67445 14.2513 9.54262 14.1362L9.53139 14.1262C9.5209 14.1166 9.51066 14.1068 9.50068 14.0967L7.4651 12.0256C7.17475 11.7301 7.17886 11.2553 7.47428 10.9649C7.76969 10.6746 8.24455 10.6787 8.5349 10.9741L9.28563 11.7379L9.28559 8.50001C9.28558 8.0858 9.62136 7.75001 10.0356 7.75C10.4498 7.74999 10.7856 8.08578 10.7856 8.49999L10.7856 11.6904L11.4559 10.9837C11.741 10.6832 12.2157 10.6707 12.5162 10.9557C12.8167 11.2408 12.8293 11.7155 12.5442 12.016L10.5885 14.0779C10.4514 14.2273 10.2545 14.321 10.0357 14.321Z"
    fill="currentColor"
  />
</svg>
