<svg
  xmlns="http://www.w3.org/2000/svg"
  width="20"
  height="20"
  viewBox="0 0 20 20"
  fill="none"
>
  <path
    d="M3.49941 5.86707C3.65003 4.41625 4.53184 3.23249 5.65694 2.41456C6.89137 1.51715 8.49043 1 10 1C11.8272 1 13.2758 1.61268 14.2626 2.67247C15.0965 3.56808 15.5521 4.73041 15.668 5.98189C17.1783 6.31687 19 7.68288 19 10.3101C19 11.1828 18.8902 11.9219 18.5671 12.5963C18.2435 13.2717 17.7393 13.8129 17.073 14.3467C16.9695 14.4297 16.8589 14.5086 16.7422 14.5835C16.8005 14.3125 16.8311 14.0315 16.8311 13.7433C16.8311 11.5242 15.0123 9.7252 12.7687 9.7252C11.5352 9.7252 10.5352 10.7143 10.5352 11.9343C10.5352 12.4698 10.7278 12.9608 11.0483 13.3432H1.9583C1.30051 12.4628 1 11.4613 1 10.3101C1 8.43321 2.00018 6.7885 3.49941 5.86707Z"
    fill="currentColor"
  />
  <path
    fill-rule="evenodd"
    clip-rule="evenodd"
    d="M12.024 11.9343C12.024 11.5276 12.3574 11.1979 12.7685 11.1979C14.1898 11.1979 15.342 12.3375 15.342 13.7433C15.342 15.149 14.1898 16.2886 12.7685 16.2886H1.7949C1.38373 16.2886 1.05041 15.959 1.05041 15.5523C1.05041 15.1456 1.38373 14.8159 1.7949 14.8159H12.7685C13.3674 14.8159 13.853 14.3357 13.853 13.7433C13.853 13.1509 13.3674 12.6707 12.7685 12.6707C12.3574 12.6707 12.024 12.341 12.024 11.9343Z"
    fill="currentColor"
  />
  <path
    fill-rule="evenodd"
    clip-rule="evenodd"
    d="M1.05029 18.2636C1.05029 17.8569 1.38361 17.5273 1.79479 17.5273H18.2552C18.6664 17.5273 18.9997 17.8569 18.9997 18.2636C18.9997 18.6703 18.6664 19 18.2552 19H1.79479C1.38361 19 1.05029 18.6703 1.05029 18.2636Z"
    fill="currentColor"
  />
</svg>
