<svg
  xmlns="http://www.w3.org/2000/svg"
  width="20"
  height="20"
  viewBox="0 0 20 20"
  fill="none"
>
  <path
    fill-rule="evenodd"
    clip-rule="evenodd"
    d="M5.28687 3.7791C6.37894 2.48491 8.00657 2 9.83258 2C12.0566 2 13.8532 2.73475 15.0109 4.055C16.0932 5.28907 16.547 6.95522 16.3414 8.79258C17.3445 8.841 18.1803 9.21916 18.8053 9.86362C19.63 10.7139 20 11.9374 20 13.2C20 14.8833 19.5063 16.1261 18.5974 16.9333C17.7623 17.675 16.6709 17.9637 15.5556 17.9967V18L15.3333 18L15.3214 18H6.22223V17.9958C6.14848 17.9986 6.0744 18 6 18C4.44012 18 2.92483 17.6383 1.79294 16.6325C0.642821 15.6105 0 14.0241 0 11.8255C0 10.1612 0.535565 8.70316 1.62529 7.73682C2.28566 7.15123 3.11166 6.7797 4.06763 6.63742C4.25773 5.46857 4.66431 4.51688 5.28687 3.7791ZM10.0357 7.629C9.84692 7.629 9.67445 7.69873 9.54262 7.81383L9.53139 7.82383C9.5209 7.83335 9.51066 7.84319 9.50068 7.85334L7.4651 9.92445C7.17475 10.2199 7.17886 10.6947 7.47428 10.9851C7.76969 11.2754 8.24455 11.2713 8.5349 10.9759L9.28563 10.2121L9.28559 13.45C9.28558 13.8642 9.62136 14.2 10.0356 14.2C10.4498 14.2 10.7856 13.8642 10.7856 13.45L10.7856 10.2596L11.4559 10.9663C11.741 11.2668 12.2157 11.2793 12.5162 10.9943C12.8167 10.7092 12.8293 10.2345 12.5442 9.93396L10.5885 7.87213C10.4514 7.72269 10.2545 7.62901 10.0357 7.629Z"
    fill="currentColor"
  />
</svg>
