<svg
  xmlns="http://www.w3.org/2000/svg"
  width="20"
  height="20"
  viewBox="0 0 20 20"
  fill="none"
>
  <path
    d="M9.08476 8.34626C8.04338 8.34626 7.07616 8.60681 6.29078 9.17669C5.68963 9.61289 5.22821 10.2065 4.9242 10.9337C3.68279 10.7106 2.70959 11.0495 2.03153 11.7081C1.28499 12.4333 1 13.4483 1 14.1485C1 15.489 1.63026 16.7332 2.97481 17.6659C3.73718 18.1947 4.8684 18.5155 6.05945 18.7122C7.27629 18.9132 8.65831 19 10 19C11.3447 19 12.7269 18.9056 13.9428 18.7011C15.1339 18.5007 16.2581 18.1803 17.0152 17.6727C17.6764 17.2294 18.198 16.7674 18.5392 16.1715C18.8855 15.5665 19 14.9048 19 14.1485C19 12.7952 18.1692 11.3136 16.9888 10.4845C16.382 10.0583 15.6434 9.77604 14.8344 9.80174C14.3021 9.81865 13.7722 9.96794 13.262 10.2575C12.8872 9.65078 12.4027 9.20115 11.8133 8.89234C10.9953 8.46372 10.0494 8.34626 9.08476 8.34626Z"
    fill="currentColor"
  />
  <path
    fill-rule="evenodd"
    clip-rule="evenodd"
    d="M9.85375 3.45087C9.16871 4.49713 9.02044 5.74077 9.3448 6.86637C9.46121 7.27034 9.22735 7.69197 8.82246 7.80811C8.41757 7.92425 7.99498 7.69093 7.87857 7.28696C7.43771 5.75708 7.63721 4.05296 8.57649 2.6184C8.80842 2.26418 9.07413 1.94383 9.367 1.65917C9.37641 1.65003 9.38594 1.64076 9.39558 1.63137C9.53765 1.49308 9.70443 1.33073 9.8635 1.21984C10.052 1.08841 10.4028 0.907612 10.8312 1.05515C11.3033 1.21777 11.4491 1.6477 11.5014 1.83631C11.5569 2.03625 11.5914 2.29313 11.6244 2.53851C11.6262 2.55215 11.6281 2.56577 11.6299 2.57933C11.7878 3.75126 12.4403 4.85419 13.5184 5.55681C14.5964 6.25944 15.8709 6.41243 17.01 6.08586C17.0231 6.08207 17.0364 6.07828 17.0496 6.07447C17.2881 6.00601 17.5377 5.93434 17.7435 5.9047C17.9377 5.87673 18.3908 5.83717 18.7298 6.20321C19.0373 6.53529 19.0123 6.92839 18.9674 7.15346C18.9296 7.34335 18.8476 7.56096 18.7778 7.74632C18.773 7.7589 18.7683 7.77134 18.7637 7.7836C18.6201 8.16556 18.4329 8.53704 18.2009 8.89126C18.0599 9.10666 17.9063 9.30959 17.7417 9.49963C17.4662 9.81764 16.9845 9.85262 16.6658 9.57776C16.347 9.3029 16.312 8.82229 16.5874 8.50428C16.7076 8.36559 16.82 8.21705 16.9237 8.05879C17.0183 7.91428 17.1025 7.76626 17.1767 7.61554C15.6933 7.96822 14.0668 7.7324 12.684 6.83115C11.3012 5.9299 10.4312 4.53859 10.1589 3.04163C10.0504 3.16991 9.94837 3.30636 9.85375 3.45087Z"
    fill="currentColor"
  />
</svg>
