<svg
  xmlns="http://www.w3.org/2000/svg"
  width="20"
  height="20"
  viewBox="0 0 20 20"
  fill="none"
>
  <path
    d="M5.66044 2.41375C4.53247 3.23395 3.65192 4.42021 3.50654 5.87246C2.00359 6.79024 1 8.43541 1 10.3135C1 11.92 1.58541 13.2328 2.91276 14.3333C3.2963 14.6513 3.77628 14.9078 4.31261 15.1145C4.42057 14.8568 4.56402 14.6677 4.63726 14.5758C4.8402 14.3211 5.13461 14.0443 5.39051 13.8037L8.10291 11.2503C8.39611 10.974 8.71372 10.6748 8.99861 10.4709C9.24336 10.2957 9.98118 9.8026 10.8747 10.1646C11.8314 10.5521 11.9509 11.4849 11.9755 11.7956C12.0017 12.1269 11.9748 12.536 11.949 12.9037C12.3001 12.9039 12.6718 12.9072 12.9727 12.9461C13.2337 12.9798 14.125 13.1094 14.5209 13.983C14.7949 14.5876 14.6467 15.1171 14.4612 15.4724C15.4845 15.2274 16.4227 14.866 17.078 14.3408C17.7446 13.8066 18.2467 13.2669 18.5687 12.5948C18.8901 11.9237 19 11.1871 19 10.3135C19 7.68044 17.1659 6.31941 15.6584 5.99485C15.5461 4.73563 15.0907 3.56705 14.2542 2.66859C13.2708 1.61223 11.8261 1 10 1C8.49191 1 6.89379 1.51693 5.66044 2.41375Z"
    fill="currentColor"
  />
  <path
    d="M10.4748 13.4816L10.5137 12.9237C10.5759 12.0314 10.607 11.5853 10.3327 11.4742C10.0583 11.363 9.7176 11.6837 9.03625 12.3252L6.42798 14.7805C5.82246 15.3505 5.5197 15.6356 5.63088 15.8759C5.74206 16.1162 6.17667 16.1162 7.0459 16.1162H7.47447C7.9292 16.1162 8.15657 16.1162 8.28514 16.2493C8.41371 16.3825 8.38551 16.5887 8.32911 17.0011L8.2699 17.434C8.14069 18.3789 8.07608 18.8513 8.35234 18.9748C8.6286 19.0983 8.99692 18.7617 9.73355 18.0883L12.3871 15.6628C13.0128 15.0909 13.3257 14.8049 13.2156 14.5619C13.1055 14.3189 12.663 14.3189 11.7781 14.3189H11.3343C10.904 14.3189 10.6889 14.3189 10.5613 14.1946C10.4337 14.0703 10.4474 13.8741 10.4748 13.4816Z"
    fill="currentColor"
  />
</svg>
