<svg width="20" height="20" viewBox="0 0 20 20" fill="currentcolor" xmlns="http://www.w3.org/2000/svg">
  <path fill-rule="evenodd" d="M9.83258 2C8.00657 2 6.37894 2.48491 5.28687 3.7791C4.66431 4.51688 4.25773 5.46857 4.06763 6.63743C3.11166 6.7797 2.28566 7.15123 1.62529 7.73683C0.535565 8.70317 0 10.1612 0 11.8255C0 14.0241 0.642821 15.6105 1.79294 16.6325C2.92483 17.6383 4.44012 18 6 18C6.07438 18 6.14844 17.9986 6.22217 17.9958V18H15.3214L15.3333 18L15.5555 18V17.9968C16.6708 17.9637 17.7622 17.6751 18.5974 16.9333C19.5063 16.1261 20 14.8834 20 13.2C20 11.9374 19.63 10.7139 18.8053 9.86363C18.1803 9.21916 17.3445 8.84101 16.3414 8.79259C16.547 6.95522 16.0932 5.28907 15.0109 4.05501C13.8532 2.73475 12.0566 2 9.83258 2ZM11.3072 9.04389C11.6049 8.74619 12.0876 8.74619 12.3853 9.04389C12.6829 9.34159 12.6829 9.82426 12.3853 10.122L11.0781 11.4291L12.3853 12.7362C12.6829 13.0339 12.6829 13.5166 12.3853 13.8143C12.0876 14.112 11.6049 14.112 11.3072 13.8143L10.0001 12.5071L8.69294 13.8143C8.39524 14.112 7.91258 14.112 7.61488 13.8143C7.31718 13.5166 7.31718 13.0339 7.61488 12.7362L8.922 11.4291L7.61488 10.122C7.31718 9.82426 7.31718 9.34159 7.61488 9.04389C7.91258 8.74619 8.39524 8.74619 8.69294 9.04389L10.0001 10.351L11.3072 9.04389Z" fill="currentcolor" />
</svg>
