<svg
  xmlns="http://www.w3.org/2000/svg"
  width="20"
  height="20"
  viewBox="0 0 20 20"
  fill="none"
>
  <path
    fill-rule="evenodd"
    clip-rule="evenodd"
    d="M11.967 5.26572C11.2587 5.28515 10.6226 5.58622 10.1519 6.06498C9.8606 6.36128 9.39437 6.35493 9.11056 6.05079C8.82675 5.74664 8.83284 5.25989 9.12416 4.96359C9.84984 4.2255 10.8352 3.75858 11.9283 3.7286C14.2341 3.66534 16.1525 5.56558 16.2131 7.97291C16.2238 8.39737 15.9028 8.75051 15.4963 8.76167C15.0897 8.77282 14.7514 8.43776 14.7408 8.0133C14.7015 6.45491 13.4597 5.22477 11.967 5.26572Z"
    fill="currentColor"
  />
  <path
    fill-rule="evenodd"
    clip-rule="evenodd"
    d="M18.9999 7.65523C19.0077 8.07977 18.6844 8.43057 18.2778 8.43878L17.5899 8.45266C17.1833 8.46087 16.8473 8.12337 16.8394 7.69883C16.8315 7.2743 17.1548 6.92349 17.5615 6.91529L18.2493 6.90141C18.656 6.8932 18.992 7.2307 18.9999 7.65523Z"
    fill="currentColor"
  />
  <path
    fill-rule="evenodd"
    clip-rule="evenodd"
    d="M12.0039 3.25569C11.5973 3.26389 11.2612 2.92639 11.2534 2.50186L11.2401 1.78369C11.2322 1.35916 11.5555 1.00835 11.9621 1.00015C12.3688 0.99194 12.7048 1.32944 12.7126 1.75397L12.7259 2.47214C12.7338 2.89668 12.4105 3.24748 12.0039 3.25569Z"
    fill="currentColor"
  />
  <path
    fill-rule="evenodd"
    clip-rule="evenodd"
    d="M15.3956 4.52759C15.1025 4.23321 15.0935 3.7465 15.3755 3.44051L15.8525 2.92287C16.1345 2.61687 16.6007 2.60747 16.8938 2.90185C17.1869 3.19624 17.1959 3.68295 16.9139 3.98894L16.4369 4.50658C16.1549 4.81257 15.6887 4.82198 15.3956 4.52759Z"
    fill="currentColor"
  />
  <path
    fill-rule="evenodd"
    clip-rule="evenodd"
    d="M7.09705 3.09945C7.37903 2.79346 7.84521 2.78405 8.13831 3.07844L8.63412 3.57645C8.92722 3.87083 8.93623 4.35754 8.65425 4.66353C8.37227 4.96953 7.90609 4.97893 7.613 4.68455L7.11718 4.18654C6.82409 3.89215 6.81508 3.40544 7.09705 3.09945Z"
    fill="currentColor"
  />
  <path
    d="M8.54652 6.71025C7.53249 6.71025 6.2923 7.0475 5.28707 7.73411C4.4006 8.33959 3.63829 9.26454 3.45664 10.5141C1.91737 11.1222 1 12.4421 1 13.8526C1 15.3611 1.59668 16.5744 2.87978 17.5667C3.61458 18.1349 4.70612 18.48 5.8533 18.6912C7.02494 18.9069 8.35473 19 9.64492 19C10.9382 19 12.2682 18.8988 13.4389 18.6793C14.5859 18.4641 15.6705 18.1196 16.4004 17.574C17.0374 17.0978 17.5339 16.6055 17.8565 15.9773C18.1817 15.3439 18.2898 14.6516 18.2898 13.8526C18.2898 12.4349 17.5577 11.0367 16.4285 10.2387C15.5016 9.58361 14.3194 9.34192 13.0884 9.77788C12.8359 8.85991 12.2843 8.15533 11.6029 7.66102C10.6878 6.99713 9.54496 6.71025 8.54652 6.71025Z"
    fill="currentColor"
  />
</svg>
