<svg width="20" height="20" viewBox="0 0 20 20" fill="currentcolor" xmlns="http://www.w3.org/2000/svg">
  <path fill-rule="evenodd" d="M11.4728 0.527798C11.7268 0.559309 11.99 0.632032 12.2381 0.820103C12.483 1.00582 12.6319 1.2403 12.7414 1.48233C12.8374 1.69461 12.9204 1.95468 13.0064 2.22445L13.0168 2.25701C13.0448 2.34475 13.0737 2.43611 13.1033 2.53083C13.2051 2.85633 13.4548 3.15301 13.8064 3.35916C14.1394 3.55444 14.484 3.62039 14.7899 3.55144C14.9153 3.52317 15.0355 3.4966 15.1498 3.47175L15.1816 3.46483C15.4569 3.40495 15.7191 3.34793 15.9473 3.32742C16.2059 3.30418 16.4759 3.3209 16.7551 3.44806C17.0382 3.57701 17.2361 3.77817 17.397 3.99585C17.5396 4.18881 17.6807 4.43454 17.8294 4.69368L18.4531 5.78016C18.6017 6.0388 18.743 6.28482 18.8382 6.50638C18.9453 6.75546 19.0246 7.03932 18.9923 7.36954C18.9601 7.69683 18.8312 7.95435 18.678 8.17364C18.5439 8.36545 18.3617 8.56766 18.1737 8.77618L18.1504 8.802C18.0735 8.88731 17.9924 8.97669 17.9074 9.0696C17.7091 9.28642 17.5934 9.61558 17.5934 10.0001C17.5934 10.384 17.7089 10.7125 17.9069 10.9289C17.9923 11.0222 18.0737 11.112 18.1509 11.1976L18.1743 11.2236C18.3622 11.432 18.5444 11.6342 18.6784 11.8259C18.8316 12.0452 18.9606 12.3027 18.9927 12.6299C19.0251 12.9601 18.9457 13.2439 18.8387 13.493C18.7435 13.7145 18.6023 13.9605 18.4538 14.2191L17.8301 15.3057C17.6814 15.5649 17.5404 15.8106 17.3978 16.0037C17.2369 16.2214 17.039 16.4226 16.7558 16.5516C16.4766 16.6787 16.2066 16.6955 15.948 16.6722C15.7197 16.6517 15.4575 16.5947 15.1822 16.5348L15.1362 16.5248C15.0263 16.5009 14.911 16.4754 14.7911 16.4484C14.4849 16.3794 14.14 16.4454 13.8067 16.6409C13.4548 16.8472 13.2049 17.1441 13.103 17.4699C13.0735 17.5644 13.0447 17.6555 13.0167 17.743L13.0064 17.7756C12.9203 18.0453 12.8374 18.3053 12.7414 18.5176C12.6319 18.7596 12.483 18.9941 12.2381 19.1798C11.9901 19.3678 11.7269 19.4406 11.473 19.4721C11.2478 19.5001 10.9813 19.5 10.7014 19.5H9.2982C9.01827 19.5 8.75179 19.5001 8.52665 19.4721C8.2727 19.4406 8.00953 19.3678 7.76153 19.1798C7.51663 18.9941 7.3677 18.7596 7.25826 18.5176C7.16227 18.3053 7.07932 18.0453 6.99327 17.7756L6.98288 17.743C6.95491 17.6554 6.92605 17.5641 6.89647 17.4695C6.79467 17.144 6.54495 16.8473 6.19334 16.6411C5.86029 16.4458 5.51572 16.3799 5.20982 16.4489C5.08432 16.4771 4.96402 16.5037 4.84959 16.5286L4.81779 16.5355C4.54244 16.5954 4.28026 16.6525 4.05197 16.673C3.79335 16.6962 3.52336 16.6795 3.24412 16.5523C2.96096 16.4233 2.76307 16.2221 2.60218 16.0044C2.45957 15.8114 2.31856 15.5656 2.16985 15.3064L1.54621 14.2199C1.39773 13.9612 1.25649 13.7152 1.16129 13.4937C1.05427 13.2446 0.97492 12.9608 1.00733 12.6306C1.03945 12.3034 1.16838 12.0459 1.32159 11.8266C1.45561 11.6348 1.63789 11.4326 1.82585 11.2241L1.84911 11.1983C1.92603 11.113 2.00716 11.0236 2.09219 10.9306C2.29053 10.7138 2.40616 10.3846 2.40616 10.0001C2.40616 9.61513 2.29042 9.28555 2.09182 9.06845C2.00706 8.97579 1.92618 8.88665 1.84949 8.80155L1.82621 8.77572C1.63828 8.56727 1.45604 8.36512 1.32204 8.17335C1.16884 7.95412 1.03992 7.69667 1.00779 7.36946C0.975365 7.03931 1.05469 6.7555 1.16168 6.50646C1.25684 6.28492 1.39804 6.03894 1.54647 5.78034L2.17001 4.69368C2.31872 4.43443 2.45971 4.18865 2.60233 3.99561C2.76322 3.77784 2.96111 3.5766 3.2443 3.44759C3.52356 3.32037 3.79357 3.30364 4.05222 3.32688C4.28053 3.34739 4.54274 3.40442 4.81813 3.46432L4.84995 3.47124C4.86209 3.47388 4.86651 3.47367 4.86651 3.47367C4.86859 3.47357 4.86925 3.47354 4.88348 3.47854C4.98794 3.50133 5.09714 3.52551 5.2106 3.55109C5.51633 3.62001 5.86071 3.55411 6.19359 3.35895C6.54506 3.15289 6.79466 2.85633 6.89641 2.53097C6.92603 2.43624 6.95492 2.34487 6.98293 2.25713L6.99331 2.22458C7.07935 1.95487 7.1623 1.69487 7.25828 1.48264C7.36771 1.24066 7.51662 1.00623 7.76148 0.820526C8.00945 0.63247 8.27257 0.55971 8.52649 0.528149C8.75162 0.500166 9.01808 0.500173 9.29799 0.50018L10.7012 0.500008C10.9811 0.499932 11.2477 0.499859 11.4728 0.527798ZM10 13.25C11.7949 13.25 13.25 11.7949 13.25 10C13.25 8.20507 11.7949 6.75 10 6.75C8.20507 6.75 6.75 8.20507 6.75 10C6.75 11.7949 8.20507 13.25 10 13.25Z" fill="currentcolor" />
</svg>
