<svg width="20" height="20" viewBox="0 0 20 20" fill="currentcolor" xmlns="http://www.w3.org/2000/svg">
  <path fill-rule="evenodd" d="M1 10C1 5.02944 5.02944 1 10 1C14.9706 1 19 5.02944 19 10C19 14.9706 14.9706 19 10 19C5.02944 19 1 14.9706 1 10ZM14.875 8.96875C14.875 8.55454 14.5392 8.21875 14.125 8.21875H12.8419L14.6553 6.40533C14.9482 6.11244 14.9482 5.63756 14.6553 5.34467C14.3624 5.05178 13.8876 5.05178 13.5947 5.34467L11.7812 7.15809V5.875C11.7813 5.46079 11.4455 5.125 11.0312 5.125C10.617 5.125 10.2813 5.46079 10.2812 5.875V8.96875C10.2812 9.38296 10.617 9.71875 11.0312 9.71875H14.125C14.5392 9.71875 14.875 9.38296 14.875 8.96875ZM5.125 11.0312C5.125 11.4455 5.46079 11.7812 5.875 11.7812H7.15809L5.34467 13.5947C5.05178 13.8876 5.05178 14.3624 5.34467 14.6553C5.63756 14.9482 6.11244 14.9482 6.40533 14.6553L8.21875 12.8419V14.125C8.21875 14.5392 8.55454 14.875 8.96875 14.875C9.38296 14.875 9.71875 14.5392 9.71875 14.125V11.0312C9.71875 10.617 9.38296 10.2812 8.96875 10.2812H5.875C5.46079 10.2812 5.125 10.617 5.125 11.0312Z" fill="currentcolor" />
</svg>
