<svg
  xmlns="http://www.w3.org/2000/svg"
  width="20"
  height="20"
  viewBox="0 0 20 20"
  fill="none"
>
  <path
    fill-rule="evenodd"
    clip-rule="evenodd"
    d="M9.03667 1H10.9633C12.4427 0.999993 13.6079 0.999987 14.5351 1.09822C15.483 1.19866 16.2615 1.408 16.9335 1.88097C17.3965 2.2069 17.7993 2.61177 18.1236 3.07725C18.5941 3.75273 18.8024 4.53527 18.9023 5.48809C19 6.42007 19 7.59134 19 9.0784L19 11.2929C19.0001 12.2881 19.0002 12.9066 18.8818 13.4356C18.4708 15.2719 17.0443 16.7059 15.2175 17.119C14.6912 17.238 14.0759 17.2379 13.0859 17.2378L12.9835 17.2378C12.7212 17.2378 12.6504 17.2391 12.5882 17.247C12.3405 17.2786 12.1097 17.3901 11.9304 17.5648C11.8854 17.6086 11.8401 17.6635 11.6763 17.8693L11.5715 18.001C11.4357 18.1716 11.3135 18.3252 11.2039 18.4457C11.0887 18.5724 10.9493 18.7064 10.767 18.8053C10.2883 19.0649 9.71172 19.0649 9.23299 18.8053C9.05075 18.7065 8.91134 18.5724 8.79614 18.4457C8.68655 18.3252 8.56429 18.1716 8.42852 18.001L8.32372 17.8693C8.15992 17.6635 8.11462 17.6086 8.06963 17.5648C7.89034 17.3901 7.65952 17.2786 7.41181 17.247C7.34964 17.2391 7.27879 17.2378 7.01654 17.2378L6.91415 17.2378C5.92413 17.2379 5.30876 17.238 4.78248 17.119C2.95573 16.7059 1.52917 15.2719 1.11819 13.4356C0.999792 12.9066 0.999875 12.2881 1.00001 11.2929L1.00002 9.07843C1.00001 7.59136 1 6.42008 1.09773 5.48809C1.19765 4.53527 1.40591 3.75273 1.87643 3.07725C2.20068 2.61177 2.60345 2.2069 3.06653 1.88097C3.73851 1.408 4.51701 1.19866 5.4649 1.09822C6.39207 0.999987 7.5573 0.999993 9.03667 1ZM4.66187 6.36555C4.66187 5.94367 5.0022 5.60101 5.42283 5.60101H12.7464C13.167 5.60101 13.5074 5.94367 13.5074 6.36555C13.5074 6.78742 13.167 7.13008 12.7464 7.13008H5.42283C5.0022 7.13008 4.66187 6.78742 4.66187 6.36555ZM4.66187 9.12617C4.66187 8.7043 5.0022 8.36164 5.42283 8.36164H10.0001C10.4207 8.36164 10.761 8.7043 10.761 9.12617C10.761 9.54805 10.4207 9.89071 10.0001 9.89071H5.42283C5.0022 9.89071 4.66187 9.54805 4.66187 9.12617Z"
    fill="currentColor"
  />
</svg>
