<svg width="20" height="20" viewBox="0 0 20 20" fill="currentColor" xmlns="http://www.w3.org/2000/svg">
  <path fill-rule="evenodd" d="M1 9.829C1 4.90903 5.07278 1 10 1C14.9272 1 19 4.90903 19 9.829C19 14.749 14.9272 18.658 10 18.658C9.17294 18.658 8.37087 18.5485 7.6085 18.3428C7.40112 18.2869 7.15368 18.3087 6.90387 18.4103C5.95038 18.7981 4.34215 19.143 2.51781 18.9396C2.27676 18.9127 2.07199 18.7427 1.99171 18.5028C1.91144 18.2629 1.97001 17.996 2.14218 17.817C2.75103 17.1841 2.99212 16.4767 3.04014 15.7595C3.05199 15.5827 2.97686 15.3602 2.78481 15.1079C1.66655 13.6391 1 11.8117 1 9.829ZM5.9845 8.81416C5.9845 8.41806 6.29147 8.09125 6.67702 8.09125H13.323C13.7086 8.09125 14.0155 8.41806 14.0155 8.81416C14.0155 9.21026 13.7086 9.53708 13.323 9.53708H6.67702C6.29147 9.53708 5.9845 9.21026 5.9845 8.81416ZM5.9845 11.4279C5.9845 11.0318 6.29147 10.705 6.67702 10.705H10.8308C11.2163 10.705 11.5233 11.0318 11.5233 11.4279C11.5233 11.824 11.2163 12.1508 10.8308 12.1508H6.67702C6.29147 12.1508 5.9845 11.824 5.9845 11.4279Z" fill="currentColor" />
</svg>
