<svg width="20" height="20" viewBox="0 0 20 20" fill="currentcolor" xmlns="http://www.w3.org/2000/svg">
  <path fill-rule="evenodd" d="M1 10C1 5.02944 5.02944 1 10 1C14.9706 1 19 5.02944 19 10C19 14.9706 14.9706 19 10 19C5.02944 19 1 14.9706 1 10ZM8.23752 8.9579C8.12955 9.04937 8.05 9.16869 7.89089 9.40734L6.57107 11.3871C5.78545 12.5655 5.39265 13.1547 5.63703 13.4432C5.88142 13.7317 6.52719 13.4411 7.81873 12.8599L11.2622 11.3104C11.5237 11.1927 11.6545 11.1338 11.7625 11.0423C11.8704 10.9509 11.95 10.8316 12.1091 10.5929L13.5775 8.39023C14.2372 7.40077 14.567 6.90604 14.4193 6.63876C14.3871 6.58055 14.3437 6.5293 14.2916 6.48801C14.0522 6.2984 13.51 6.5424 12.4256 7.0304L8.73783 8.68989C8.47627 8.80758 8.34548 8.86644 8.23752 8.9579Z" fill="currentcolor" />
</svg>
