<svg
  xmlns="http://www.w3.org/2000/svg"
  width="20"
  height="20"
  viewBox="0 0 20 20"
  fill="none"
>
  <path
    fill-rule="evenodd"
    clip-rule="evenodd"
    d="M19.9895 11.0774L19.989 11.087C19.9856 13.8179 19.1746 16.1139 17.8695 17.2523C17.1928 17.8426 16.3504 18.1405 15.4533 17.9353C14.5821 17.736 13.7997 17.0935 13.1387 16.1101L13.1347 16.1043L13.1309 16.0983C12.6082 15.2857 12.1327 14.9349 11.6905 14.7615C11.2198 14.577 10.7079 14.5579 10 14.5579C9.29238 14.5579 8.7947 14.577 8.33157 14.7606C7.89345 14.9342 7.41411 15.2879 6.86134 16.1101C6.20026 17.0935 5.41787 17.736 4.54673 17.9353C3.64964 18.1405 2.80725 17.8426 2.13055 17.2523C0.82537 16.1139 0.0144351 13.8179 0.0110081 11.087L0.010547 11.0774C0.00971627 11.0592 0.00862429 11.0333 0.0074581 11.0001C0.00512627 10.9337 0.00249448 10.8384 0.00106443 10.7181C-0.00179345 10.4778 0.000135733 10.1371 0.0190009 9.72919C0.0565593 8.91704 0.161979 7.82101 0.438331 6.71441C0.712679 5.61583 1.16893 4.45141 1.94386 3.55053C2.73943 2.62565 3.85578 2 5.35396 2C6.41428 2 7.12153 2.38939 7.71771 2.71764C7.75771 2.73966 7.7974 2.76151 7.83647 2.78285C8.4363 3.11038 9.01058 3.39532 9.99997 3.39532C10.9894 3.39532 11.5637 3.11038 12.1635 2.78284C12.2026 2.76147 12.2422 2.73969 12.2823 2.71763C12.8785 2.38939 13.5857 2 14.6461 2C16.1442 2 17.2606 2.62565 18.0561 3.55053C18.8311 4.45141 19.2873 5.61583 19.5617 6.71441C19.838 7.82101 19.9434 8.91704 19.981 9.72919C19.9999 10.1371 20.0018 10.4778 19.9989 10.7181C19.9975 10.8384 19.9949 10.9337 19.9926 11.0001C19.9914 11.0333 19.9903 11.0592 19.9895 11.0774ZM14.3672 7.96208C14.8291 7.96208 15.2035 7.58725 15.2035 7.12489C15.2035 6.66252 14.8291 6.2877 14.3672 6.2877C13.9054 6.2877 13.5309 6.66252 13.5309 7.12489C13.5309 7.58725 13.9054 7.96208 14.3672 7.96208ZM6.05081 7.34872C6.05081 6.96341 5.73879 6.65106 5.3539 6.65106C4.96901 6.65106 4.65699 6.96341 4.65699 7.34872V8.04638H3.96009C3.57519 8.04638 3.26318 8.35873 3.26318 8.74404C3.26318 9.12934 3.57519 9.4417 3.96009 9.4417H4.65699V10.1394C4.65699 10.5247 4.96901 10.837 5.3539 10.837C5.73879 10.837 6.05081 10.5247 6.05081 10.1394V9.4417H6.74771C7.13261 9.4417 7.44462 9.12934 7.44462 8.74404C7.44462 8.35873 7.13261 8.04638 6.74771 8.04638H6.05081V7.34872ZM13.5309 8.79926C13.5309 9.26162 13.1565 9.63645 12.6947 9.63645C12.2328 9.63645 11.8584 9.26162 11.8584 8.79926C11.8584 8.33689 12.2328 7.96207 12.6947 7.96207C13.1565 7.96207 13.5309 8.33689 13.5309 8.79926ZM16.8761 8.79926C16.8761 9.26162 16.5017 9.63645 16.0398 9.63645C15.5779 9.63645 15.2035 9.26162 15.2035 8.79926C15.2035 8.33689 15.5779 7.96207 16.0398 7.96207C16.5017 7.96207 16.8761 8.33689 16.8761 8.79926ZM14.3672 11.3108C14.8291 11.3108 15.2035 10.936 15.2035 10.4736C15.2035 10.0113 14.8291 9.63644 14.3672 9.63644C13.9054 9.63644 13.5309 10.0113 13.5309 10.4736C13.5309 10.936 13.9054 11.3108 14.3672 11.3108Z"
    fill="currentColor"
  />
</svg>
