<svg width="20" height="20" viewBox="0 0 20 20" fill="currentcolor" xmlns="http://www.w3.org/2000/svg">
  <path fill-rule="evenodd" d="M7.30737 1H7.19692C5.94837 0.999982 4.93491 0.999968 4.1362 1.10735C3.30407 1.21923 2.59278 1.45999 2.02638 2.02638C1.45999 2.59278 1.21923 3.30407 1.10735 4.1362C0.999968 4.93491 0.999982 5.94834 1 7.19689V8.22332C0.999982 9.47187 0.999968 10.4853 1.10735 11.284C1.21923 12.1162 1.45999 12.8275 2.02638 13.3939C2.59278 13.9603 3.30407 14.201 4.1362 14.3129C4.78293 14.3998 5.56966 14.4163 6.50706 14.4195C6.51969 14.9618 6.54639 15.4423 6.60306 15.8638C6.71494 16.6959 6.9557 17.4072 7.52209 17.9736C8.08849 18.54 8.79978 18.7808 9.63192 18.8927C10.4306 19 11.4441 19 12.6927 19H12.8031C14.0516 19 15.0651 19 15.8638 18.8927C16.6959 18.7808 17.4072 18.54 17.9736 17.9736C18.54 17.4072 18.7808 16.6959 18.8926 15.8638C19 15.0651 19 14.0517 19 12.8031V11.7767C19 10.5281 19 9.51467 18.8926 8.71597C18.7808 7.88384 18.54 7.17254 17.9736 6.60615C17.4072 6.03975 16.6959 5.79899 15.8638 5.68711C15.2171 5.60017 14.4303 5.58367 13.4929 5.58051C13.4803 5.03823 13.4536 4.55775 13.3969 4.1362C13.2851 3.30407 13.0443 2.59278 12.4779 2.02638C11.9115 1.45999 11.2002 1.21923 10.3681 1.10735C9.56938 0.999968 8.55592 0.999982 7.30737 1ZM4.33779 2.60671C5.02394 2.51446 5.93537 2.51285 7.25215 2.51285C8.56892 2.51285 9.48035 2.51446 10.1665 2.60671C10.8309 2.69603 11.1697 2.85766 11.4082 3.09613C11.6466 3.3346 11.8083 3.67343 11.8976 4.33779C11.9443 4.68537 11.9679 5.09172 11.9796 5.58059C11.0524 5.58395 10.2733 5.60088 9.63192 5.68711C8.79978 5.79899 8.08849 6.03975 7.52209 6.60615C6.9557 7.17254 6.71494 7.88384 6.60306 8.71597C6.49568 9.51468 6.49569 10.5281 6.49571 11.7767L6.49572 12.9064C5.57236 12.903 4.88341 12.8869 4.33779 12.8135C3.67343 12.7242 3.3346 12.5626 3.09613 12.3241C2.85766 12.0856 2.69603 11.7468 2.60671 11.0825C2.51446 10.3963 2.51285 9.48487 2.51285 8.1681V7.25214C2.51285 5.93537 2.51446 5.02394 2.60671 4.33779C2.69603 3.67343 2.85766 3.3346 3.09613 3.09613C3.3346 2.85766 3.67343 2.69603 4.33779 2.60671Z" fill="currentcolor" />
</svg>
