<svg width="20" height="20" viewBox="0 0 20 20" fill="currentcolor" xmlns="http://www.w3.org/2000/svg">
  <path fill-rule="evenodd" d="M5.5 1C5.99706 1 6.4 1.40294 6.4 1.9V10.9C6.4 11.774 6.40191 12.3389 6.45788 12.7552C6.51036 13.1455 6.59509 13.2679 6.6636 13.3364C6.73212 13.4049 6.85447 13.4896 7.24483 13.5421C7.66109 13.5981 8.22603 13.6 9.1 13.6H18.1C18.5971 13.6 19 14.0029 19 14.5C19 14.9971 18.5971 15.4 18.1 15.4L9.04075 15.4C8.24291 15.4 7.55548 15.4001 7.00499 15.3261C6.41502 15.2468 5.84951 15.0679 5.39081 14.6092C4.93212 14.1505 4.75325 13.585 4.67393 12.995C4.59991 12.4445 4.59995 11.7571 4.6 10.9592L4.6 1.9C4.6 1.40294 5.00294 1 5.5 1Z" fill="currentcolor" />
  <path fill-rule="evenodd" d="M14.5 19C14.0029 19 13.6 18.5971 13.6 18.1L13.6 9.1C13.6 8.22603 13.5981 7.66109 13.5421 7.24483C13.4896 6.85447 13.4049 6.73212 13.3364 6.6636C13.2679 6.59509 13.1455 6.51036 12.7552 6.45788C12.3389 6.40191 11.774 6.4 10.9 6.4L1.9 6.4C1.40294 6.4 1 5.99706 1 5.5C1 5.00294 1.40294 4.6 1.9 4.6H10.9592C11.7571 4.59995 12.4445 4.59991 12.995 4.67393C13.585 4.75325 14.1505 4.93212 14.6092 5.39081C15.0679 5.84951 15.2468 6.41502 15.3261 7.00499C15.4001 7.55548 15.4 8.24292 15.4 9.04075L15.4 18.1C15.4 18.5971 14.9971 19 14.5 19Z" fill="currentcolor" />
</svg>
