<svg
  xmlns="http://www.w3.org/2000/svg"
  width="20"
  height="20"
  viewBox="0 0 20 20"
  fill="none"
>
  <path
    fill-rule="evenodd"
    clip-rule="evenodd"
    d="M15.4851 1.00251H4.5085C3.80599 1.0019 3.26167 1.00142 2.80069 1.17028C2.04118 1.44851 1.4427 2.0472 1.16458 2.80698C0.995771 3.26812 0.99625 3.81264 0.996869 4.5154L0.996945 4.64647L0.996869 4.77753C0.99625 5.4803 0.995771 6.02481 1.16458 6.48596C1.4427 7.24574 2.04118 7.84443 2.80069 8.12265C3.14316 8.24811 3.53164 8.2801 3.9968 8.288C3.9867 8.79249 3.9867 9.35895 3.9867 9.99749V12.9975C3.9867 15.8259 3.9867 17.2401 4.86506 18.1188C5.74343 18.9975 7.15714 18.9975 9.98456 18.9975C12.812 18.9975 14.2257 18.9975 15.1041 18.1188C15.9824 17.2401 15.9824 15.8259 15.9824 12.9975V9.99749C15.9824 9.35912 15.9824 8.79278 15.9723 8.28839C16.4484 8.28119 16.8444 8.2503 17.1929 8.12265C17.9524 7.84443 18.5509 7.24574 18.829 6.48596C18.9978 6.02482 18.9973 5.48029 18.9967 4.77753L18.9966 4.64647L18.9967 4.51538C18.9973 3.81263 18.9978 3.26812 18.829 2.80698C18.5509 2.0472 17.9524 1.44851 17.1929 1.17028C16.7319 1.00142 16.1876 1.0019 15.4851 1.00251ZM4.86506 4.87617C4.41134 5.33006 4.19199 5.92684 4.08594 6.78763C3.62368 6.78145 3.44943 6.76289 3.31629 6.71412C2.97106 6.58766 2.69903 6.31552 2.57261 5.97017C2.50794 5.7935 2.49641 5.54445 2.49641 4.64647C2.49641 3.74848 2.50794 3.49944 2.57261 3.32277C2.69903 2.97741 2.97106 2.70528 3.31629 2.57881C3.4929 2.51412 3.74186 2.50259 4.63952 2.50259H15.3541C16.2517 2.50259 16.5007 2.51412 16.6773 2.57881C17.0225 2.70528 17.2946 2.97741 17.421 3.32277C17.4857 3.49944 17.4972 3.74848 17.4972 4.64647C17.4972 5.54445 17.4857 5.7935 17.421 5.97017C17.2946 6.31552 17.0225 6.58766 16.6773 6.71412C16.5418 6.76374 16.3638 6.78209 15.8832 6.78794C15.7772 5.92698 15.5578 5.33011 15.1041 4.87617C14.2257 3.99749 12.812 3.99749 9.98456 3.99749C7.15714 3.99749 5.74343 3.99749 4.86506 4.87617ZM9.94893 8.40791C10.1376 8.40791 10.31 8.47763 10.4418 8.59273L10.453 8.60274C10.4635 8.61226 10.4738 8.6221 10.4837 8.63225L12.5186 10.7034C12.8088 10.9988 12.8047 11.4736 12.5094 11.764C12.2141 12.0543 11.7394 12.0502 11.4492 11.7548L10.6987 10.991L10.6987 14.2289C10.6988 14.6431 10.3631 14.9789 9.94902 14.9789C9.53496 14.9789 9.19929 14.6431 9.19928 14.2289L9.19923 11.0385L8.52919 11.7452C8.24423 12.0457 7.76969 12.0582 7.46928 11.7732C7.16886 11.4881 7.15633 11.0134 7.44129 10.7129L9.39634 8.65104C9.53339 8.5016 9.73022 8.40791 9.94893 8.40791Z"
    fill="currentColor"
  />
</svg>
