<svg width="20" height="20" viewBox="0 0 20 20" fill="currentcolor" xmlns="http://www.w3.org/2000/svg">
  <path fill-rule="evenodd" d="M15.4851 1.00251H4.50854C3.80602 1.0019 3.2617 1.00142 2.80072 1.17028C2.04121 1.44851 1.44273 2.0472 1.16461 2.80698C0.995801 3.26812 0.996281 3.81264 0.9969 4.5154L0.996976 4.64647L0.9969 4.77753C0.996281 5.4803 0.995801 6.02481 1.16461 6.48596C1.44273 7.24574 2.04121 7.84443 2.80072 8.12265C3.14319 8.24811 3.53167 8.2801 3.99683 8.288C3.98673 8.79249 3.98673 9.35895 3.98673 9.99749V12.9975C3.98673 15.8259 3.98673 17.2401 4.86509 18.1188C5.74346 18.9975 7.15717 18.9975 9.98459 18.9975C12.812 18.9975 14.2257 18.9975 15.1041 18.1188C15.9824 17.2401 15.9824 15.8259 15.9824 12.9975V9.99749C15.9824 9.35912 15.9824 8.79278 15.9723 8.28839C16.4484 8.28119 16.8445 8.2503 17.1929 8.12265C17.9524 7.84443 18.5509 7.24574 18.829 6.48596C18.9979 6.02482 18.9974 5.48029 18.9968 4.77753L18.9967 4.64647L18.9968 4.51538C18.9974 3.81263 18.9979 3.26812 18.829 2.80698C18.5509 2.0472 17.9524 1.44851 17.1929 1.17028C16.732 1.00142 16.1876 1.0019 15.4851 1.00251ZM4.86509 4.87617C4.41137 5.33006 4.19202 5.92684 4.08597 6.78763C3.62371 6.78145 3.44946 6.76289 3.31632 6.71412C2.97109 6.58766 2.69906 6.31552 2.57264 5.97017C2.50797 5.7935 2.49644 5.54445 2.49644 4.64647C2.49644 3.74848 2.50797 3.49944 2.57264 3.32277C2.69906 2.97741 2.97109 2.70528 3.31632 2.57881C3.49293 2.51412 3.74189 2.50259 4.63955 2.50259H15.3541C16.2518 2.50259 16.5007 2.51412 16.6773 2.57881C17.0226 2.70528 17.2946 2.97741 17.421 3.32277C17.4857 3.49944 17.4972 3.74848 17.4972 4.64647C17.4972 5.54445 17.4857 5.7935 17.421 5.97017C17.2946 6.31552 17.0226 6.58766 16.6773 6.71412C16.5419 6.76374 16.3639 6.78209 15.8832 6.78794C15.7772 5.92698 15.5579 5.33011 15.1041 4.87617C14.2257 3.99749 12.812 3.99749 9.98459 3.99749C7.15717 3.99749 5.74346 3.99749 4.86509 4.87617ZM9.94896 8.40791C10.1376 8.40791 10.3101 8.47763 10.4418 8.59273L10.4531 8.60274C10.4635 8.61226 10.4738 8.6221 10.4838 8.63225L12.5186 10.7034C12.8089 10.9988 12.8048 11.4736 12.5094 11.764C12.2141 12.0543 11.7394 12.0502 11.4492 11.7548L10.6987 10.991L10.6988 14.2289C10.6988 14.6431 10.3631 14.9789 9.94905 14.9789C9.53499 14.9789 9.19932 14.6431 9.19931 14.2289L9.19926 11.0385L8.52922 11.7452C8.24426 12.0457 7.76972 12.0582 7.46931 11.7732C7.16889 11.4881 7.15636 11.0134 7.44132 10.7129L9.39637 8.65104C9.53342 8.5016 9.73025 8.40791 9.94896 8.40791Z" fill="currentcolor" />
</svg>
