<svg width="20" height="20" viewBox="0 0 20 20" fill="currentcolor" xmlns="http://www.w3.org/2000/svg">
  <path d="M13.4803 18.2978C12.9929 19.8573 10.5033 19.609 9.58139 18.2978C8.76602 17.1382 8.8601 15.504 9.10283 14.0991C9.34784 12.681 8.44893 11.86 7.08035 12.3612C5.48684 12.9447 3.54158 13.5513 2.27103 13.0995C0.809097 12.5797 0.318716 11.0388 0.808954 7.90133C1.78367 1.66334 4.70782 0.623691 8.60668 0.623718C12.2288 0.623745 13.4969 1.60798 14.6209 2.56083C15.1231 2.98656 15.4297 3.60644 15.4297 4.25914V11.115C15.4297 11.5959 15.2595 12.0604 14.9752 12.4513C14.5036 13.0999 13.7922 14.1806 13.4803 15.1788C13.212 16.0373 13.3375 16.5808 13.4504 17.0693C13.5426 17.4682 13.6263 17.8305 13.4803 18.2978Z" fill="currentcolor" />
  <path d="M16.375 11.1239L16.375 3.12388C16.375 2.29545 17.0466 1.62388 17.875 1.62388C18.7034 1.62388 19.375 2.29545 19.375 3.12388V11.1239C19.375 11.9523 18.7034 12.6239 17.875 12.6239C17.0466 12.6239 16.375 11.9523 16.375 11.1239Z" fill="currentcolor" />
</svg>
