<svg width="20" height="20" viewBox="0 0 20 20" fill="currentColor" xmlns="http://www.w3.org/2000/svg">
  <path d="M12.5628 1.98361C11.7378 1.95055 10.7877 1.95055 9.69602 1.95056H9.58896C7.84046 1.95055 6.45537 1.95054 5.36531 2.0864C4.2449 2.22604 3.33 2.51972 2.58625 3.18464C2.46912 3.28936 2.35727 3.39968 2.25111 3.51522C1.57701 4.24885 1.27928 5.1513 1.13771 6.25646C0.999976 7.33169 0.999987 8.69791 1 10.4226V10.5282C0.999987 12.2529 0.999976 13.6191 1.13771 14.6944C1.27928 15.7995 1.57701 16.702 2.25111 17.4356C2.35727 17.5511 2.46912 17.6615 2.58625 17.7662C3.33 18.4311 4.2449 18.7248 5.36531 18.8644C6.45537 19.0003 7.84044 19.0003 9.58892 19.0003H9.69597C11.4445 19.0003 12.8296 19.0003 13.9197 18.8644C15.0401 18.7248 15.955 18.4311 16.6987 17.7662C16.8158 17.6615 16.9277 17.5511 17.0339 17.4356C17.708 16.702 18.0057 15.7995 18.1472 14.6944C18.285 13.6191 18.285 12.2529 18.285 10.5282V10.4227C18.285 9.21709 18.285 8.18663 18.2379 7.30832L14.6957 10.8024L14.6016 10.8955C14.2195 11.2741 13.809 11.681 13.2853 11.9396C13.1336 12.0145 12.9767 12.0787 12.8157 12.1315C12.26 12.3139 11.678 12.3125 11.1364 12.3113L11.0031 12.311L10.9465 12.3111C10.6066 12.3112 10.2386 12.3113 9.92392 12.2769C9.56193 12.2374 9.09075 12.1377 8.64843 11.8112C8.45415 11.6678 8.28169 11.4976 8.1363 11.306C7.80529 10.8697 7.7042 10.4049 7.66413 10.0479C7.62928 9.73746 7.6294 9.37446 7.62951 9.03924L7.62953 8.98336L7.62931 8.8519C7.62803 8.31764 7.62665 7.74359 7.81155 7.19546C7.86511 7.03668 7.93012 6.88189 8.00606 6.73226C8.26825 6.2157 8.68075 5.81075 9.06465 5.43387L9.15903 5.34106L12.5628 1.98361Z" fill="currentColor" />
  <path d="M14.2399 2.19899C14.9282 1.51428 15.2724 1.17192 15.6717 1.05902C15.9332 0.985051 16.2073 0.980221 16.4664 1.04501C16.8618 1.14391 17.194 1.47435 17.8584 2.13522C18.5229 2.79609 18.8551 3.12653 18.9545 3.51988C19.0196 3.77758 19.0148 4.0502 18.9404 4.31035C18.8269 4.70746 18.4827 5.04981 17.7943 5.73453L13.8252 9.68249C13.2637 10.241 12.983 10.5203 12.6337 10.6799C12.6023 10.6942 12.5707 10.7077 12.5388 10.7205C12.1825 10.8628 11.7924 10.8707 11.0121 10.8864C10.1061 10.9047 9.65307 10.9139 9.3643 10.655C9.33933 10.6326 9.31554 10.609 9.29303 10.5841C9.03282 10.2969 9.042 9.84632 9.06037 8.94514C9.0762 8.16898 9.08411 7.7809 9.22723 7.42655C9.24006 7.39479 9.25367 7.36333 9.26805 7.33219C9.4285 6.98475 9.70926 6.70548 10.2708 6.14695L14.2399 2.19899Z" fill="currentColor" />
</svg>
