<svg
  xmlns="http://www.w3.org/2000/svg"
  width="20"
  height="20"
  viewBox="0 0 20 20"
  fill="none"
>
  <path
    d="M15.157 2.54498L16.127 3.41374C16.6228 3.85774 17.0501 4.24032 17.3508 4.59246C17.6731 4.96986 17.9245 5.39522 17.953 5.93418C17.9815 6.47315 17.7764 6.92243 17.4957 7.33142C17.2338 7.71306 16.8493 8.13816 16.4031 8.63154L8.68947 17.161C8.26875 17.627 7.93599 17.9956 7.49506 18.2258C7.05413 18.4559 6.56024 18.5187 5.93579 18.5982L4.07287 18.8368C3.57676 18.9004 3.12816 18.9579 2.76259 18.9534C2.36385 18.9485 1.92972 18.871 1.56533 18.5447C1.20094 18.2183 1.07792 17.7968 1.03113 17.4028C0.98822 17.0414 0.998592 16.5914 1.01007 16.0937L1.05288 14.2252C1.0667 13.5989 1.07764 13.1035 1.2613 12.643C1.44497 12.1824 1.77837 11.8144 2.1999 11.3491L9.91363 2.8197C10.3598 2.32628 10.7442 1.90114 11.0981 1.6019C11.4774 1.28119 11.9048 1.03101 12.4464 1.00263C12.988 0.974255 13.4395 1.17838 13.8505 1.45768C14.234 1.71828 14.6612 2.10092 15.157 2.54498Z"
    fill="currentColor"
  />
  <path
    d="M11.2246 17.5024C10.8091 17.5024 10.4722 17.8377 10.4722 18.2512C10.4722 18.6648 10.8091 19 11.2246 19H18.2475C18.6631 19 19 18.6648 19 18.2512C19 17.8377 18.6631 17.5024 18.2475 17.5024H11.2246Z"
    fill="currentColor"
  />
</svg>
