<svg width="20" height="20" viewBox="0 0 20 20" fill="currentcolor" xmlns="http://www.w3.org/2000/svg">
  <path fill-rule="evenodd" d="M15.0882 13.2555L17.0561 10.8003C17.648 10.0619 18.1408 9.44707 18.4699 8.90287C18.8169 8.32905 19.0462 7.73263 18.9921 7.03718C18.938 6.34174 18.6198 5.79567 18.189 5.29339C17.7806 4.81702 17.1997 4.30096 16.5022 3.68115L15.6582 2.93118C14.9946 2.34154 14.4407 1.84934 13.952 1.5216C13.4359 1.17544 12.9037 0.949878 12.2893 1.00956C11.6748 1.06925 11.1879 1.39379 10.7363 1.83396C10.3088 2.25069 9.84393 2.84184 9.28705 3.55002L2.33324 12.3925C2.02019 12.7906 1.7597 13.1218 1.56527 13.4092C1.36341 13.7075 1.19599 14.0101 1.10353 14.3611C0.908916 15.0997 0.990789 15.892 1.3313 16.5653C1.49307 16.8852 1.71809 17.14 1.97579 17.3821C2.22402 17.6154 2.54561 17.8755 2.93208 18.1882L2.95353 18.2055C2.96683 18.2163 2.97996 18.2269 2.99293 18.2374C3.22237 18.4232 3.403 18.5694 3.60405 18.6811C3.84708 18.8161 4.10767 18.91 4.37678 18.9594C4.59942 19.0002 4.82463 19.0001 5.1107 19C5.12688 19 5.14324 19 5.15981 19L10.1479 19C10.1501 19 10.1524 19 10.1547 19L17.8325 19C18.2358 19 18.5627 18.6445 18.5627 18.206C18.5627 17.7675 18.2358 17.4121 17.8325 17.4121L11.7566 17.4121L15.084 13.2607C15.0854 13.259 15.0868 13.2573 15.0882 13.2555ZM13.4905 12.8318L7.85518 7.8143L3.46072 13.4023C3.12588 13.8281 2.90069 14.1152 2.74174 14.3501C2.58662 14.5794 2.53181 14.7065 2.50761 14.7983C2.41915 15.1341 2.45636 15.4942 2.61114 15.8003C2.65347 15.884 2.73286 15.9947 2.9309 16.1808C3.13383 16.3715 3.412 16.5972 3.82539 16.9316C4.11232 17.1637 4.1904 17.2236 4.26868 17.2671C4.37914 17.3285 4.49759 17.3712 4.61991 17.3936C4.70659 17.4095 4.80217 17.4121 5.15981 17.4121L9.81929 17.4121L13.4905 12.8318Z" fill="currentcolor" />
</svg>
