<svg width="20" height="20" viewBox="0 0 20 20" fill="currentcolor" xmlns="http://www.w3.org/2000/svg">
  <path fill-rule="evenodd" d="M1 10C1 5.02944 5.02944 1 10 1C14.9706 1 19 5.02944 19 10C19 14.9706 14.9706 19 10 19C5.02944 19 1 14.9706 1 10ZM10.2812 5.875C10.2812 6.28921 10.617 6.625 11.0312 6.625H12.3143L10.5009 8.43842C10.208 8.73131 10.208 9.20619 10.5009 9.49908C10.7938 9.79197 11.2687 9.79197 11.5616 9.49908L13.375 7.68566V8.96875C13.375 9.38296 13.7108 9.71875 14.125 9.71875C14.5392 9.71875 14.875 9.38296 14.875 8.96875V5.875C14.875 5.46079 14.5392 5.125 14.125 5.125H11.0312C10.617 5.125 10.2812 5.46079 10.2812 5.875ZM9.71875 14.125C9.71875 13.7108 9.38296 13.375 8.96875 13.375H7.68566L9.49908 11.5616C9.79197 11.2687 9.79197 10.7938 9.49908 10.5009C9.20619 10.208 8.73131 10.208 8.43842 10.5009L6.625 12.3143V11.0312C6.625 10.617 6.28921 10.2812 5.875 10.2812C5.46079 10.2812 5.125 10.617 5.125 11.0312L5.125 14.125C5.125 14.5392 5.46079 14.875 5.875 14.875H8.96875C9.38296 14.875 9.71875 14.5392 9.71875 14.125Z" fill="currentcolor" />
</svg>
