<svg width="20" height="20" viewBox="0 0 20 20" fill="currentColor" xmlns="http://www.w3.org/2000/svg">
  <path fill-rule="evenodd" d="M9.96355 1H10.0364C11.5238 0.999995 12.6899 0.99999 13.6244 1.0826C14.5764 1.16677 15.3596 1.34112 16.0596 1.73315C16.9848 2.2513 17.7487 3.01521 18.2669 3.94043C18.6589 4.64044 18.8332 5.42359 18.9174 6.37561C19 7.31008 19 8.47613 19 9.96349V10.0365C19 11.5239 19 12.6899 18.9174 13.6244C18.8332 14.5764 18.6589 15.3596 18.2669 16.0596C17.7487 16.9848 16.9848 17.7487 16.0596 18.2669C15.3596 18.6589 14.5764 18.8332 13.6244 18.9174C12.6899 19 11.5239 19 10.0365 19H9.54167C9.12745 19 8.79167 18.6642 8.79167 18.25C8.79167 17.8358 9.12745 17.5 9.54167 17.5H10C11.5317 17.5 12.6316 17.4993 13.4923 17.4232C14.3431 17.348 14.8883 17.2036 15.3266 16.9581C16.0105 16.5751 16.5751 16.0105 16.9581 15.3266C17.2036 14.8883 17.348 14.3431 17.4232 13.4923C17.4993 12.6316 17.5 11.5317 17.5 10C17.5 8.46831 17.4993 7.36843 17.4232 6.5077C17.348 5.65688 17.2036 5.11172 16.9581 4.67336C16.5751 3.9895 16.0105 3.42487 15.3266 3.04189C14.8883 2.7964 14.3431 2.65199 13.4923 2.57678C12.6316 2.50068 11.5317 2.5 10 2.5C8.46831 2.5 7.36843 2.50068 6.5077 2.57678C5.65688 2.65199 5.11172 2.7964 4.67336 3.04189C3.9895 3.42487 3.42487 3.9895 3.04189 4.67336C2.7964 5.11172 2.65199 5.65688 2.57678 6.5077C2.50068 7.36843 2.5 8.46831 2.5 10V10.4583C2.5 10.8725 2.16421 11.2083 1.75 11.2083C1.33579 11.2083 1 10.8725 1 10.4583L1 9.96355C0.999995 8.47617 0.99999 7.3101 1.0826 6.37561C1.16677 5.42359 1.34112 4.64044 1.73315 3.94043C2.2513 3.01521 3.01521 2.2513 3.94043 1.73315C4.64044 1.34112 5.42359 1.16677 6.37561 1.0826C7.3101 0.99999 8.47617 0.999995 9.96355 1Z" fill="currentColor" />
  <path d="M13.8334 9.08331C13.8334 9.49753 14.1692 9.83331 14.5834 9.83331C14.9976 9.83331 15.3334 9.49753 15.3334 9.08331V5.41665C15.3334 5.28612 15.3 5.16338 15.2414 5.05648C15.2263 5.02887 15.2093 5.00202 15.1904 4.9761C15.144 4.91226 15.0878 4.85602 15.0239 4.80961C14.9981 4.79081 14.9713 4.77386 14.9438 4.75877C14.8368 4.70005 14.714 4.66665 14.5834 4.66665H10.9167C10.5025 4.66665 10.1667 5.00243 10.1667 5.41665C10.1667 5.83086 10.5025 6.16665 10.9167 6.16665H12.7727L9.46967 9.46969C9.17678 9.76258 9.17678 10.2375 9.46967 10.5304C9.76256 10.8232 10.2374 10.8232 10.5303 10.5304L13.8334 7.22731V9.08331Z" fill="currentColor" />
  <path d="M4.53051 12H4.4695C4.00531 12 3.61096 12 3.2877 12.0272C2.94823 12.0557 2.61968 12.1181 2.30758 12.2827C1.87039 12.5131 1.51311 12.8704 1.28266 13.3076C1.11815 13.6197 1.05569 13.9482 1.02715 14.2877C0.999978 14.611 0.999988 15.0053 1 15.4695V15.5305C0.999988 15.9947 0.999978 16.389 1.02715 16.7123C1.05569 17.0518 1.11815 17.3803 1.28266 17.6924C1.51311 18.1296 1.87039 18.4869 2.30758 18.7173C2.61968 18.8819 2.94823 18.9443 3.2877 18.9728C3.61095 19 4.00528 19 4.46946 19H4.53052C4.9947 19 5.38905 19 5.71231 18.9728C6.05178 18.9443 6.38032 18.8819 6.69243 18.7173C7.12962 18.4869 7.4869 18.1296 7.71734 17.6924C7.88186 17.3803 7.94431 17.0518 7.97285 16.7123C8.00003 16.389 8.00002 15.9947 8 15.5305V15.4695C8.00002 15.0053 8.00003 14.611 7.97285 14.2877C7.94431 13.9482 7.88186 13.6197 7.71734 13.3076C7.4869 12.8704 7.12962 12.5131 6.69243 12.2827C6.38032 12.1181 6.05178 12.0557 5.71231 12.0272C5.38905 12 4.9947 12 4.53051 12Z" fill="currentColor" />
</svg>
