<svg
  xmlns="http://www.w3.org/2000/svg"
  width="20"
  height="20"
  viewBox="0 0 20 20"
  fill="none"
>
  <path
    fill-rule="evenodd"
    clip-rule="evenodd"
    d="M10 1C5.02944 1 1 5.02944 1 10C1 14.9706 5.02944 19 10 19C14.9706 19 19 14.9706 19 10C19 5.02944 14.9706 1 10 1ZM8.46331 8.38462C8.46331 8.9379 8.01478 9.38643 7.4615 9.38643C6.90822 9.38643 6.45969 8.9379 6.45969 8.38462C6.45969 7.83134 6.90822 7.38281 7.4615 7.38281C8.01478 7.38281 8.46331 7.83134 8.46331 8.38462ZM13.539 8.38462C13.539 8.93722 13.0911 9.38519 12.5385 9.38519C11.9859 9.38519 11.5379 8.93722 11.5379 8.38462C11.5379 7.83202 11.9859 7.38405 12.5385 7.38405C13.0911 7.38405 13.539 7.83202 13.539 8.38462ZM5.91663 11.6605C6.26423 11.4288 6.73387 11.5227 6.9656 11.8703C8.40913 14.0356 11.5909 14.0356 13.0345 11.8703C13.2662 11.5227 13.7358 11.4288 14.0834 11.6605C14.431 11.8922 14.525 12.3619 14.2932 12.7095C12.2509 15.773 7.74919 15.773 5.70683 12.7095C5.4751 12.3619 5.56903 11.8922 5.91663 11.6605Z"
    fill="currentColor"
  />
</svg>
