<svg
  xmlns="http://www.w3.org/2000/svg"
  width="20"
  height="20"
  viewBox="0 0 20 20"
  fill="none"
>
  <path
    fill-rule="evenodd"
    clip-rule="evenodd"
    d="M1 10C1 5.02944 5.02944 1 10 1C14.9706 1 19 5.02944 19 10C19 14.9706 14.9706 19 10 19C5.02944 19 1 14.9706 1 10ZM13.5391 8.38467C13.5391 8.93727 13.0911 9.38524 12.5385 9.38524C11.9859 9.38524 11.538 8.93727 11.538 8.38467C11.538 7.83207 11.9859 7.38409 12.5385 7.38409C13.0911 7.38409 13.5391 7.83207 13.5391 8.38467ZM8.46098 8.38461C8.46098 8.9365 8.01359 9.3839 7.46169 9.3839C6.9098 9.3839 6.4624 8.9365 6.4624 8.38461C6.4624 7.83271 6.9098 7.38531 7.46169 7.38531C8.01359 7.38531 8.46098 7.83271 8.46098 8.38461ZM8.16706 12.9145H11.833C12.2481 12.9145 12.5846 13.251 12.5846 13.666C12.5846 14.0811 12.2481 14.4175 11.833 14.4175H8.16705C7.752 14.4175 7.41553 14.0811 7.41553 13.666C7.41553 13.251 7.752 12.9145 8.16706 12.9145Z"
    fill="currentColor"
  />
</svg>
