<svg
  xmlns="http://www.w3.org/2000/svg"
  width="20"
  height="20"
  viewBox="0 0 20 20"
  fill="none"
>
  <path
    fill-rule="evenodd"
    clip-rule="evenodd"
    d="M1 10C1 5.02944 5.02944 1 10 1C14.9706 1 19 5.02944 19 10C19 14.9706 14.9706 19 10 19C5.02944 19 1 14.9706 1 10ZM6.30772 7.39154C5.88671 7.39154 5.54541 7.73284 5.54541 8.15385C5.54541 8.57486 5.88671 8.91616 6.30772 8.91616H8.15387C8.57488 8.91616 8.91618 8.57486 8.91618 8.15385C8.91618 7.73284 8.57488 7.39154 8.15387 7.39154H6.30772ZM11.8462 7.39154C11.4252 7.39154 11.0839 7.73284 11.0839 8.15385C11.0839 8.57486 11.4252 8.91616 11.8462 8.91616H13.6923C14.1133 8.91616 14.4546 8.57486 14.4546 8.15385C14.4546 7.73284 14.1133 7.39154 13.6923 7.39154H11.8462ZM7.3916 13.6923C7.3916 13.2713 7.7329 12.93 8.15391 12.93H11.8462C12.2672 12.93 12.6085 13.2713 12.6085 13.6923C12.6085 14.1133 12.2672 14.4546 11.8462 14.4546H8.15391C7.7329 14.4546 7.3916 14.1133 7.3916 13.6923Z"
    fill="currentColor"
  />
</svg>
