<svg
  xmlns="http://www.w3.org/2000/svg"
  width="20"
  height="20"
  viewBox="0 0 20 20"
  fill="none"
>
  <path
    fill-rule="evenodd"
    clip-rule="evenodd"
    d="M1 10C1 5.02944 5.02944 1 10 1C14.9706 1 19 5.02944 19 10C19 14.9706 14.9706 19 10 19C5.02944 19 1 14.9706 1 10ZM13.5391 8.38467C13.5391 8.93727 13.0911 9.38524 12.5385 9.38524C11.9859 9.38524 11.538 8.93727 11.538 8.38467C11.538 7.83207 11.9859 7.38409 12.5385 7.38409C13.0911 7.38409 13.5391 7.83207 13.5391 8.38467ZM8.46101 8.38462C8.46101 8.93659 8.01355 9.38405 7.46159 9.38405C6.90962 9.38405 6.46216 8.93659 6.46216 8.38462C6.46216 7.83265 6.90962 7.38519 7.46159 7.38519C8.01355 7.38519 8.46101 7.83265 8.46101 8.38462ZM8.63269 10.4961C8.85398 10.1786 9.39215 10.0499 9.83473 10.2086L10.5144 10.4524C11.639 10.8559 11.8369 11.8758 11.1079 12.4961C11.8369 13.1164 11.639 14.1363 10.5144 14.5398L9.83473 14.7836C9.39215 14.9423 8.85398 14.8136 8.63269 14.4961C8.4114 14.1786 8.59079 13.7925 9.03337 13.6337L9.71299 13.3899C9.7242 13.3859 9.72975 13.3825 9.73218 13.3809L9.73526 13.3786L9.73819 13.3755C9.74172 13.3712 9.74601 13.363 9.74601 13.3516C9.74601 13.3401 9.74172 13.3319 9.73819 13.3276C9.7366 13.3257 9.73476 13.324 9.73218 13.3222C9.72975 13.3206 9.7242 13.3173 9.71299 13.3132L9.11059 13.0971C8.90996 13.0415 8.73647 12.9341 8.63269 12.7852C8.56791 12.6922 8.53746 12.5934 8.53791 12.4961C8.53746 12.3988 8.56791 12.3 8.63269 12.207C8.73647 12.0581 8.90996 11.9507 9.11059 11.8951L9.71299 11.679C9.7242 11.6749 9.72975 11.6716 9.73218 11.67C9.73476 11.6682 9.7366 11.6665 9.73819 11.6646C9.74172 11.6603 9.74601 11.652 9.74601 11.6406C9.74601 11.6292 9.74172 11.621 9.73819 11.6167C9.7366 11.6147 9.73476 11.613 9.73218 11.6113C9.72975 11.6097 9.7242 11.6063 9.71299 11.6023L9.03337 11.3585C8.59079 11.1997 8.4114 10.8136 8.63269 10.4961Z"
    fill="currentColor"
  />
</svg>
