<svg width="20" height="20" viewBox="0 0 20 20" fill="currentcolor" xmlns="http://www.w3.org/2000/svg">
  <path fill-rule="evenodd" d="M1 10C1 5.02944 5.02944 1 10 1C14.9706 1 19 5.02944 19 10C19 14.9706 14.9706 19 10 19C5.02944 19 1 14.9706 1 10ZM13.5391 8.38467C13.5391 8.93727 13.0911 9.38524 12.5385 9.38524C11.9859 9.38524 11.538 8.93727 11.538 8.38467C11.538 7.83207 11.9859 7.38409 12.5385 7.38409C13.0911 7.38409 13.5391 7.83207 13.5391 8.38467ZM7.46169 9.3839C8.01359 9.3839 8.46098 8.9365 8.46098 8.38461C8.46098 7.83271 8.01359 7.38531 7.46169 7.38531C6.9098 7.38531 6.4624 7.83271 6.4624 8.38461C6.4624 8.9365 6.9098 9.3839 7.46169 9.3839ZM14.6154 13.3059C14.6154 14.5174 13.8922 15.1232 13 15.1232C12.1079 15.1232 11.3846 14.5174 11.3846 13.3059C11.3846 12.4056 12.2766 11.1709 12.7349 10.5958C12.8727 10.423 13.1274 10.423 13.2651 10.5958C13.7235 11.1709 14.6154 12.4056 14.6154 13.3059ZM5.94683 12.0992C6.30506 11.8842 6.7697 12.0004 6.98463 12.3586C7.18496 12.6925 7.49957 13.1279 8.00813 13.4462C8.50069 13.7544 9.23489 13.9903 10.3508 13.8309C10.7644 13.7718 11.1475 14.0592 11.2066 14.4727C11.2657 14.8863 10.9783 15.2695 10.5648 15.3285C9.11605 15.5355 8.01834 15.2372 7.20565 14.7286C6.40899 14.2301 5.94504 13.5664 5.68738 13.137C5.47244 12.7788 5.5886 12.3141 5.94683 12.0992Z" fill="currentcolor" />
</svg>
