<svg
  xmlns="http://www.w3.org/2000/svg"
  width="20"
  height="20"
  viewBox="0 0 20 20"
  fill="none"
>
  <path
    fill-rule="evenodd"
    clip-rule="evenodd"
    d="M1.9764 11.4646C2.51565 11.4646 2.9528 11.9018 2.9528 12.441V12.9292C2.9528 13.7236 2.95331 14.2714 2.98195 14.6991C3.01003 15.1182 3.06195 15.3516 3.13187 15.5239C3.37988 16.1352 3.86479 16.6201 4.47613 16.8681C4.64845 16.938 4.8818 16.99 5.30094 17.018C5.72862 17.0467 6.27642 17.0472 7.0708 17.0472C7.61005 17.0472 8.0472 17.4843 8.0472 18.0236C8.0472 18.5629 7.61005 19 7.0708 19H7.03731C6.28446 19 5.67111 19 5.17044 18.9665C4.65382 18.9319 4.18758 18.8585 3.74199 18.6777C2.64159 18.2313 1.76875 17.3584 1.32231 16.258C1.14154 15.8124 1.06812 15.3462 1.03352 14.8296C0.999987 14.3289 0.999993 13.7155 1 12.9627L1 12.441C1 11.9018 1.43715 11.4646 1.9764 11.4646Z"
    fill="currentColor"
  />
  <path
    fill-rule="evenodd"
    clip-rule="evenodd"
    d="M1.9764 8.5354C2.51565 8.5354 2.9528 8.09825 2.9528 7.559V7.0708C2.9528 6.27642 2.95331 5.72862 2.98195 5.30094C3.01003 4.8818 3.06195 4.64845 3.13187 4.47613C3.37988 3.8648 3.86479 3.37988 4.47613 3.13186C4.64845 3.06195 4.8818 3.01003 5.30094 2.98195C5.72862 2.95331 6.27642 2.9528 7.0708 2.9528C7.61005 2.9528 8.0472 2.51565 8.0472 1.9764C8.0472 1.43715 7.61005 1 7.0708 1H7.03731C6.28446 0.999993 5.67111 0.999987 5.17044 1.03352C4.65382 1.06812 4.18758 1.14154 3.74199 1.32231C2.64159 1.76875 1.76875 2.64159 1.32231 3.74199C1.14154 4.18758 1.06812 4.65382 1.03352 5.17044C0.999987 5.67111 0.999993 6.28446 1 7.0373L1 7.559C1 8.09825 1.43715 8.5354 1.9764 8.5354Z"
    fill="currentColor"
  />
  <path
    fill-rule="evenodd"
    clip-rule="evenodd"
    d="M18.0236 11.9528C18.5629 11.9528 19 12.39 19 12.9292V12.9627C19 13.7155 19 14.3289 18.9665 14.8296C18.9319 15.3462 18.8585 15.8124 18.6777 16.258C18.2313 17.3584 17.3584 18.2313 16.258 18.6777C15.8124 18.8585 15.3462 18.9319 14.8296 18.9665C14.3289 19 13.7155 19 12.9627 19H12.441C11.9018 19 11.4646 18.5629 11.4646 18.0236C11.4646 17.4843 11.9018 17.0472 12.441 17.0472H12.9292C13.7236 17.0472 14.2714 17.0467 14.6991 17.018C15.1182 16.99 15.3516 16.938 15.5239 16.8681C16.1352 16.6201 16.6201 16.1352 16.8681 15.5239C16.938 15.3516 16.99 15.1182 17.018 14.6991C17.0467 14.2714 17.0472 13.7236 17.0472 12.9292C17.0472 12.39 17.4843 11.9528 18.0236 11.9528Z"
    fill="currentColor"
  />
  <path
    fill-rule="evenodd"
    clip-rule="evenodd"
    d="M14.6991 2.98196C14.2714 2.95331 13.7236 2.9528 12.9292 2.9528C12.39 2.9528 11.9528 2.51565 11.9528 1.9764C11.9528 1.43715 12.39 1 12.9292 1L12.9627 1C13.7155 0.999993 14.3289 0.999987 14.8296 1.03352C15.3462 1.06812 15.8124 1.14154 16.258 1.32232C17.3584 1.76875 18.2313 2.64159 18.6777 3.74199C18.8585 4.18758 18.9319 4.65382 18.9665 5.17044C19 5.67111 19 6.28446 19 7.03731V7.559C19 8.09825 18.5629 8.5354 18.0236 8.5354C17.4843 8.5354 17.0472 8.09825 17.0472 7.559V7.0708C17.0472 6.27642 17.0467 5.72862 17.018 5.30094C16.99 4.8818 16.938 4.64845 16.8681 4.47613C16.6201 3.8648 16.1352 3.37988 15.5239 3.13187C15.3516 3.06195 15.1182 3.01003 14.6991 2.98196Z"
    fill="currentColor"
  />
  <path
    d="M7.44327 7.00977C7.44327 7.68384 6.89683 8.23027 6.22277 8.23027C5.5487 8.23027 5.00226 7.68384 5.00226 7.00977C5.00226 6.33571 5.5487 5.78927 6.22277 5.78927C6.89683 5.78927 7.44327 6.33571 7.44327 7.00977Z"
    fill="currentColor"
  />
  <path
    d="M14.9976 7.00977C14.9976 7.68384 14.4512 8.23027 13.7771 8.23027C13.1031 8.23027 12.5566 7.68384 12.5566 7.00977C12.5566 6.33571 13.1031 5.78927 13.7771 5.78927C14.4512 5.78927 14.9976 6.33571 14.9976 7.00977Z"
    fill="currentColor"
  />
  <path
    fill-rule="evenodd"
    clip-rule="evenodd"
    d="M5.55053 12.6498C5.90221 12.241 6.5187 12.1947 6.92749 12.5464C8.69398 14.066 11.3061 14.066 13.0725 12.5464C13.4813 12.1947 14.0978 12.241 14.4495 12.6498C14.8012 13.0586 14.7549 13.6751 14.3461 14.0267C11.8474 16.1763 8.15263 16.1763 5.65395 14.0267C5.24515 13.6751 5.19885 13.0586 5.55053 12.6498Z"
    fill="currentColor"
  />
  <path
    fill-rule="evenodd"
    clip-rule="evenodd"
    d="M9.99994 6.27747C10.5392 6.27747 10.9763 6.71462 10.9763 7.25387V9.16984C10.9763 9.18153 10.9763 9.19323 10.9763 9.20494C10.9764 9.45488 10.9764 9.70841 10.9546 9.92682C10.9296 10.1772 10.8705 10.4573 10.706 10.7364C10.5416 11.0155 10.3252 11.2029 10.1183 11.3462C9.9379 11.4711 9.71611 11.594 9.49746 11.715C9.48721 11.7207 9.47697 11.7264 9.46674 11.7321L9.34418 11.8C8.87249 12.0613 8.27825 11.8908 8.01691 11.4191C7.75556 10.9474 7.92609 10.3532 8.39778 10.0918L8.52034 10.0239C8.78259 9.87861 8.91642 9.80317 9.00666 9.74069L9.01096 9.7377L9.01149 9.73249C9.02242 9.62327 9.02354 9.46965 9.02354 9.16984V7.25387C9.02354 6.71462 9.46069 6.27747 9.99994 6.27747Z"
    fill="currentColor"
  />
</svg>
