<svg
  xmlns="http://www.w3.org/2000/svg"
  width="20"
  height="21"
  viewBox="0 0 20 21"
  fill="none"
>
  <path
    fill-rule="evenodd"
    clip-rule="evenodd"
    d="M10.2243 0.987618C10.4837 0.987365 10.7212 0.987134 10.9429 1.00008L10.9428 3.59416C10.9428 4.42994 10.9428 5.12691 11.0159 5.68018C11.0931 6.26418 11.2628 6.79143 11.6792 7.21513C12.0957 7.63882 12.6139 7.81154 13.1879 7.89005C13.7316 7.96444 14.4167 7.96442 15.2381 7.96439L17.7878 7.96439C17.8005 8.18995 17.8003 8.43157 17.8 8.69554L17.8 12.9006C17.8 14.6101 17.8 15.9642 17.66 17.0239C17.5159 18.1145 17.2122 18.9972 16.528 19.6934C15.8438 20.3895 14.9762 20.6985 13.9043 20.8451C12.8627 20.9876 11.5318 20.9876 9.85165 20.9875H9.74843C8.06824 20.9876 6.73737 20.9876 5.69583 20.8451C4.62391 20.6985 3.75631 20.3895 3.07209 19.6934C2.38788 18.9972 2.08423 18.1145 1.94012 17.0239C1.80009 15.9642 1.8001 14.6101 1.80011 12.9006V9.07466C1.8001 7.36515 1.80009 6.01108 1.94012 4.95136C2.08423 3.86074 2.38788 2.97801 3.07209 2.28186C3.75631 1.58571 4.62391 1.27677 5.69583 1.13014C6.73739 0.987662 8.06824 0.987674 9.74846 0.987689L10.2243 0.987618ZM11.4436 11.7994C11.674 11.4497 12.1399 11.3558 12.484 11.5913C12.8273 11.8262 12.9181 12.2993 12.6882 12.6483L10.132 16.5286C10.0327 16.6795 9.91848 16.853 9.80146 16.9852C9.66351 17.1409 9.42732 17.35 9.06692 17.3803C8.70646 17.4107 8.43971 17.2438 8.27849 17.1132C8.14175 17.0023 8.00113 16.8502 7.87893 16.7179L6.53552 15.2657C6.25229 14.9596 6.26612 14.4777 6.56664 14.1889C6.86784 13.8995 7.34262 13.9138 7.62649 14.2207L8.92434 15.6236L11.4436 11.7994Z"
    fill="currentColor"
  />
  <path
    d="M13.1065 2.20232C12.8219 1.91215 12.5747 1.66016 12.3143 1.46447L12.3143 3.5458C12.3142 4.44255 12.3157 5.04493 12.3751 5.49427C12.4318 5.92353 12.5298 6.10725 12.649 6.22848C12.7681 6.3497 12.9487 6.44944 13.3706 6.50716C13.8122 6.56757 14.4043 6.56905 15.2857 6.56905H17.3313C17.139 6.3041 16.8913 6.0526 16.6062 5.763L13.1065 2.20232Z"
    fill="currentColor"
  />
</svg>
