<svg width="20" height="20" viewBox="0 0 20 20" fill="currentcolor" xmlns="http://www.w3.org/2000/svg">
  <path fill-rule="evenodd" d="M10.4242 6.8874e-05C10.6836 -0.000183928 10.9211 -0.000415323 11.1427 0.0125281L11.1427 2.60662C11.1427 3.44241 11.1427 4.13935 11.2158 4.69264C11.2929 5.27663 11.4627 5.80389 11.8791 6.22758C12.2955 6.65127 12.8138 6.82399 13.3877 6.9025C13.9315 6.97689 14.6165 6.97687 15.438 6.97684L17.9877 6.97684C18.0004 7.2024 18.0002 7.44402 17.9999 7.708L17.9999 11.913C17.9999 13.6226 17.9999 14.9766 17.8599 16.0363C17.7157 17.1269 17.4121 18.0097 16.7279 18.7058C16.0437 19.402 15.1761 19.7109 14.1041 19.8575C13.0626 20 11.7317 20 10.0515 20H9.94832C8.26813 20 6.93726 20 5.89572 19.8575C4.8238 19.7109 3.9562 19.402 3.27198 18.7058C2.58777 18.0097 2.28412 17.1269 2.14001 16.0363C1.99998 14.9766 1.99999 13.6225 2 11.913V8.08712C1.99999 6.3776 1.99998 5.02353 2.14001 3.96381C2.28412 2.87319 2.58777 1.99046 3.27198 1.29431C3.9562 0.598164 4.8238 0.28922 5.89572 0.14259C6.93728 0.000113398 8.26813 0.000125152 9.94835 0.0001399L10.4242 6.8874e-05ZM7.72352 10.3026C7.61453 9.90299 7.20222 9.66738 6.80261 9.77637C6.40299 9.88536 6.16738 10.2977 6.27637 10.6973L7.77637 16.1973C7.86536 16.5236 8.16173 16.7499 8.49994 16.7499C8.83816 16.7499 9.13453 16.5236 9.22352 16.1973L9.99994 13.3504L10.7764 16.1973C10.8654 16.5236 11.1617 16.7499 11.4999 16.7499C11.8382 16.7499 12.1345 16.5236 12.2235 16.1973L13.7235 10.6973C13.8325 10.2977 13.5969 9.88536 13.1973 9.77637C12.7977 9.66738 12.3854 9.90299 12.2764 10.3026L11.4999 13.1495L10.7235 10.3026C10.6345 9.97631 10.3382 9.74994 9.99994 9.74994C9.66173 9.74994 9.36536 9.97631 9.27637 10.3026L8.49994 13.1495L7.72352 10.3026Z" fill="currentcolor" />
  <path d="M13.3064 1.21477C13.0218 0.924602 12.7746 0.672612 12.5142 0.476923L12.5141 2.55825C12.5141 3.455 12.5156 4.05738 12.575 4.50672C12.6317 4.93598 12.7297 5.1197 12.8489 5.24093C12.968 5.36215 13.1486 5.46189 13.5705 5.51961C14.0121 5.58002 14.6042 5.5815 15.4855 5.5815H17.5312C17.3389 5.31655 17.0912 5.06505 16.8061 4.77545L13.3064 1.21477Z" fill="currentcolor" />
</svg>
