<svg
  xmlns="http://www.w3.org/2000/svg"
  width="20"
  height="20"
  viewBox="0 0 20 20"
  fill="none"
>
  <path
    d="M17.9315 17.5236C17.9315 17.4284 17.923 17.3417 17.9059 17.2635C17.8888 17.1854 17.8522 17.1133 17.7961 17.0474C17.7424 16.9815 17.6632 16.9155 17.5583 16.8496C17.4558 16.7836 17.3216 16.7152 17.1557 16.6444C16.9581 16.5614 16.7666 16.4735 16.5812 16.3806C16.3958 16.2854 16.2287 16.1755 16.0799 16.0509C15.9311 15.9264 15.8128 15.7798 15.725 15.6113C15.6396 15.4404 15.5969 15.2401 15.5969 15.0105C15.5969 14.7858 15.6372 14.5819 15.7177 14.3987C15.8006 14.2156 15.9177 14.0593 16.069 13.9298C16.2202 13.7979 16.3971 13.6966 16.5995 13.6258C16.8045 13.5549 17.0326 13.5195 17.2838 13.5195C17.6253 13.5195 17.9205 13.5903 18.1694 13.732C18.4206 13.8736 18.6146 14.0678 18.7512 14.3145C18.8296 14.4536 18.8859 14.6045 18.9201 14.7669C18.9551 14.9332 18.9726 15.0163 18.9126 15.0904C18.8526 15.1644 18.7551 15.1644 18.5601 15.1644H18.2909C18.1307 15.1644 18.0506 15.1644 17.9992 15.1287C17.9478 15.093 17.9078 14.9858 17.8278 14.7715C17.827 14.7693 17.8262 14.7672 17.8254 14.7651C17.7839 14.6478 17.7168 14.5563 17.6241 14.4903C17.5314 14.4244 17.4119 14.3914 17.2655 14.3914C17.1289 14.3914 17.0155 14.4195 16.9252 14.4757C16.8374 14.5294 16.7715 14.6039 16.7276 14.6991C16.6861 14.7919 16.6654 14.897 16.6654 15.0142C16.6654 15.1021 16.6861 15.1815 16.7276 15.2523C16.7715 15.3207 16.8313 15.383 16.9069 15.4391C16.9825 15.4929 17.0716 15.5454 17.174 15.5967C17.2789 15.648 17.3936 15.698 17.518 15.7469C17.7595 15.8421 17.973 15.9471 18.1584 16.0619C18.3438 16.1743 18.4987 16.3013 18.6231 16.4429C18.7475 16.5821 18.8414 16.7397 18.9049 16.9155C18.9683 17.0914 19 17.2916 19 17.5163C19 17.7386 18.961 17.9413 18.8829 18.1244C18.8073 18.3052 18.6963 18.4615 18.5499 18.5934C18.4035 18.7228 18.2267 18.8229 18.0193 18.8938C17.8144 18.9646 17.5851 19 17.3314 19C17.085 19 16.852 18.9658 16.6325 18.8974C16.4129 18.8266 16.219 18.7204 16.0507 18.5787C15.8848 18.4346 15.7543 18.2527 15.6591 18.0329C15.6085 17.9145 15.5713 17.7848 15.5476 17.6437C15.5189 17.4725 15.5045 17.3869 15.5644 17.3161C15.6243 17.2452 15.7216 17.2452 15.9161 17.2452H16.1889C16.3582 17.2452 16.4429 17.2452 16.4969 17.2871C16.551 17.3291 16.5778 17.4334 16.6316 17.642C16.633 17.6478 16.6346 17.6535 16.6361 17.6592C16.6679 17.7715 16.7166 17.8619 16.7825 17.9303C16.8484 17.9962 16.9289 18.0463 17.024 18.0805C17.1216 18.1122 17.2326 18.1281 17.357 18.1281C17.4985 18.1281 17.6107 18.1012 17.6937 18.0475C17.779 17.9938 17.84 17.9217 17.8766 17.8314C17.9132 17.741 17.9315 17.6384 17.9315 17.5236Z"
    fill="currentColor"
  />
  <path
    d="M10.6424 18.5266V18.4403C10.6424 18.2517 10.6424 18.1574 10.5839 18.0988C10.5254 18.0402 10.4312 18.0402 10.2428 18.0402H8.65914V16.6151H9.93172C10.1201 16.6151 10.2143 16.6151 10.2729 16.5565C10.3314 16.4979 10.3314 16.4036 10.3314 16.215V16.1543C10.3314 15.9657 10.3314 15.8714 10.2729 15.8128C10.2143 15.7542 10.1201 15.7542 9.93172 15.7542H8.65914V14.483H10.2354C10.4238 14.483 10.5181 14.483 10.5766 14.4244C10.6351 14.3658 10.6351 14.2715 10.6351 14.0829V13.9929C10.6351 13.8043 10.6351 13.71 10.5766 13.6514C10.5181 13.5928 10.4238 13.5928 10.2354 13.5928H7.98667C7.79825 13.5928 7.70405 13.5928 7.64551 13.6514C7.58698 13.71 7.58698 13.8043 7.58698 13.9929V18.5266C7.58698 18.7152 7.58698 18.8095 7.64551 18.8681C7.70405 18.9267 7.79825 18.9267 7.98667 18.9267H10.2428C10.4312 18.9267 10.5254 18.9267 10.5839 18.8681C10.6424 18.8095 10.6424 18.7152 10.6424 18.5266Z"
    fill="currentColor"
  />
  <path
    fill-rule="evenodd"
    clip-rule="evenodd"
    d="M12.4116 17.0474H13.158C13.5166 17.0474 13.8252 16.9778 14.0838 16.8386C14.3424 16.6994 14.54 16.504 14.6766 16.2524C14.8157 15.9984 14.8852 15.6993 14.8852 15.3549C14.8852 15.013 14.8157 14.7101 14.6766 14.4464C14.54 14.1802 14.3424 13.9713 14.0838 13.8199C13.8252 13.6685 13.5166 13.5928 13.158 13.5928H11.7427C11.5543 13.5928 11.4601 13.5928 11.4016 13.6514C11.3431 13.71 11.3431 13.8043 11.3431 13.9929V18.5266C11.3431 18.7152 11.3431 18.8095 11.4016 18.8681C11.4601 18.9267 11.5543 18.9267 11.7427 18.9267H12.0119C12.2003 18.9267 12.2945 18.9267 12.353 18.8681C12.4116 18.8095 12.4116 18.7152 12.4116 18.5266V17.0474ZM13.158 16.1572H12.4116V14.8831C12.4116 14.6945 12.4116 14.6002 12.4701 14.5416C12.5286 14.483 12.6228 14.483 12.8112 14.483H13.158C13.3117 14.483 13.4349 14.5245 13.5276 14.6076C13.6228 14.6906 13.6923 14.7993 13.7362 14.9336C13.7825 15.0655 13.8057 15.2084 13.8057 15.3622C13.8057 15.5136 13.7838 15.6504 13.7399 15.7725C13.6959 15.8922 13.6252 15.9862 13.5276 16.0546C13.4325 16.123 13.3093 16.1572 13.158 16.1572Z"
    fill="currentColor"
  />
  <path
    d="M8.65983 1.00004C8.86935 0.999894 9.06002 0.999764 9.23853 1.00779L9.23853 2.7497C9.2385 3.64851 9.23848 4.398 9.31838 4.99299C9.40272 5.62101 9.58824 6.18802 10.0434 6.64365C10.4985 7.09928 11.0648 7.28502 11.6921 7.36946C12.2864 7.44945 13.0351 7.44943 13.9328 7.4494L15.6671 7.4494C15.681 7.69196 15.6808 7.95178 15.6805 8.23565L15.6804 11.6837C15.6804 11.8075 15.6804 11.9287 15.6804 12.0472H8.12803C7.14578 12.0472 6.65466 12.0472 6.34952 12.4173C6.04437 12.7875 6.04437 13.3833 6.04437 14.5748V18.9689C5.82848 18.9595 5.62545 18.9469 5.43428 18.93C4.66432 18.862 4.01544 18.7199 3.4304 18.3925C2.66414 17.9637 2.03168 17.3305 1.60335 16.5634C1.27631 15.9776 1.13438 15.328 1.06641 14.5572C0.999989 13.8038 0.999994 12.8665 1 11.6837V8.54402C0.999992 7.25294 0.999986 6.22989 1.07862 5.4106C1.15914 4.57168 1.3275 3.8684 1.71427 3.2449C2.09934 2.62415 2.62222 2.10067 3.24226 1.71517C3.86504 1.32796 4.56751 1.1594 5.40547 1.07879C6.22383 1.00006 7.2457 1.00007 8.53531 1.00008L8.65983 1.00004Z"
    fill="currentColor"
  />
  <path
    d="M11.457 2.15998C11.1947 1.89708 10.9743 1.67607 10.7374 1.50263V2.69769C10.7374 3.66204 10.7389 4.30984 10.8038 4.79305C10.8658 5.25468 10.973 5.45225 11.1032 5.58261C11.2334 5.71297 11.4307 5.82023 11.8918 5.8823C12.3745 5.94726 13.0215 5.94886 13.9848 5.94886H15.1683C14.9581 5.66393 14.6874 5.39347 14.3757 5.08205L11.457 2.15998Z"
    fill="currentColor"
  />
</svg>
