<svg width="20" height="20" viewBox="0 0 20 20" fill="currentcolor" xmlns="http://www.w3.org/2000/svg">
  <path d="M8.65981 1.00004C8.86933 0.999894 9.06 0.999764 9.23851 1.00779L9.23851 2.75043C9.23848 3.6496 9.23845 4.3994 9.31836 4.99464C9.4027 5.62292 9.58822 6.19016 10.0433 6.64599C10.4984 7.10181 11.0648 7.28762 11.6921 7.37209C12.2864 7.45212 13.0351 7.4521 13.9328 7.45207L15.6671 7.45207C15.681 7.69473 15.6807 7.95466 15.6805 8.23864L15.6804 11.6881C15.6804 11.8388 15.6804 11.9856 15.6803 12.1285H7.86347C6.85735 12.1285 6.3543 12.1285 6.04174 12.4988C5.72918 12.8691 5.72918 13.4651 5.72918 14.6572V18.9597C5.62784 18.9533 5.52958 18.9459 5.43427 18.9375C4.66431 18.8694 4.01543 18.7272 3.43039 18.3997C2.66413 17.9707 2.03168 17.3372 1.60334 16.5698C1.27631 15.9838 1.13438 15.3339 1.06641 14.5628C0.999989 13.8091 0.999994 12.8714 1 11.6881V8.54714C0.999992 7.25553 0.999986 6.23205 1.07862 5.41243C1.15914 4.57316 1.3275 3.86958 1.71427 3.24583C2.09934 2.62482 2.62221 2.10113 3.24225 1.71546C3.86503 1.32809 4.5675 1.15947 5.40546 1.07882C6.22381 1.00006 7.24569 1.00007 8.53529 1.00008L8.65981 1.00004Z" fill="currentcolor" />
  <path d="M11.4569 2.16046C11.1947 1.89745 10.9742 1.67635 10.7373 1.50284V2.69839C10.7373 3.66315 10.7389 4.31121 10.8038 4.79462C10.8658 5.25644 10.9729 5.45409 11.1032 5.58451C11.2334 5.71492 11.4307 5.82223 11.8918 5.88432C12.3745 5.94931 13.0215 5.9509 13.9848 5.9509H15.1682C14.958 5.66586 14.6874 5.39529 14.3757 5.08374L11.4569 2.16046Z" fill="currentcolor" />
  <path d="M18.6003 16.123C18.7887 16.123 18.8829 16.123 18.9415 16.1816C19 16.2403 19 16.3346 19 16.5233V18.1634C19 18.2435 19 18.2836 18.982 18.3231C18.9641 18.3626 18.9379 18.3855 18.8854 18.4312C18.8244 18.4844 18.7516 18.542 18.667 18.6042C18.5231 18.7092 18.334 18.8021 18.0998 18.8827C17.8681 18.9609 17.5851 19 17.2509 19C16.9557 19 16.6874 18.9536 16.4459 18.8607C16.2068 18.7679 16.0007 18.6274 15.8275 18.4393C15.6567 18.2487 15.5262 18.0117 15.4359 17.7283C15.3457 17.4424 15.3005 17.104 15.3005 16.7131V15.8042C15.3005 15.4181 15.3432 15.0822 15.4286 14.7963C15.5164 14.508 15.6433 14.2686 15.8092 14.078C15.975 13.8874 16.1726 13.7457 16.402 13.6528C16.6337 13.56 16.8947 13.5136 17.185 13.5136C17.5851 13.5136 17.9132 13.5808 18.1694 13.7152C18.4279 13.8495 18.6231 14.0487 18.7548 14.3125C18.8362 14.4725 18.8978 14.6545 18.9397 14.8585C18.9777 15.0437 18.9968 15.1364 18.9368 15.2101C18.8768 15.2837 18.7738 15.2837 18.5677 15.2837H18.3312C18.1681 15.2837 18.0865 15.2837 18.0326 15.2422C17.9788 15.2007 17.9538 15.1063 17.904 14.9176C17.8879 14.857 17.8691 14.8031 17.8473 14.756C17.7912 14.6289 17.712 14.5385 17.6095 14.4848C17.507 14.4286 17.3741 14.4005 17.2106 14.4005C17.0692 14.4005 16.946 14.4261 16.8411 14.4775C16.7362 14.5263 16.6483 14.607 16.5776 14.7193C16.5069 14.8317 16.4544 14.9759 16.4202 15.1518C16.3861 15.3277 16.369 15.5427 16.369 15.7968V16.7131C16.369 16.9647 16.3885 17.1797 16.4276 17.3581C16.4666 17.5365 16.5239 17.6818 16.5996 17.7942C16.6776 17.9066 16.7752 17.9885 16.8923 18.0398C17.0118 18.0886 17.1521 18.1131 17.3131 18.1131C17.4424 18.1131 17.5461 18.0996 17.6241 18.0728C17.7022 18.0459 17.7644 18.0178 17.8108 17.9885C17.8357 17.9722 17.8482 17.9641 17.8554 17.9584C17.9021 17.9215 17.9253 17.8788 17.9307 17.8195C17.9315 17.8104 17.9315 17.7981 17.9315 17.7737V17.316C17.9315 17.144 17.9315 17.0581 17.8822 17.0015C17.8763 16.9947 17.8699 16.9883 17.8631 16.9823C17.8066 16.933 17.7208 16.933 17.5491 16.933C17.3775 16.933 17.2916 16.933 17.2352 16.8836C17.2284 16.8777 17.2219 16.8712 17.216 16.8644C17.1667 16.8079 17.1667 16.7219 17.1667 16.55V16.5233C17.1667 16.3346 17.1667 16.2403 17.2253 16.1816C17.2838 16.123 17.378 16.123 17.5664 16.123H18.6003Z" fill="currentcolor" />
  <path d="M9.0507 17.2811V13.9909C9.0507 13.8021 9.0507 13.7078 9.10923 13.6492C9.16777 13.5905 9.26197 13.5905 9.45039 13.5905H9.71951C9.90792 13.5905 10.0021 13.5905 10.0607 13.6492C10.1192 13.7078 10.1192 13.8021 10.1192 13.9909V17.2848C10.1192 17.6391 10.0509 17.9457 9.91428 18.2047C9.78011 18.4613 9.59715 18.6579 9.36539 18.7948C9.13364 18.9316 8.87262 19 8.58232 19C8.28471 19 8.0188 18.9414 7.78461 18.8241C7.55286 18.7044 7.3699 18.5236 7.23573 18.2817C7.15234 18.1298 7.09486 17.9525 7.0633 17.7497C7.03644 17.577 7.02301 17.4907 7.08283 17.4208C7.14265 17.3508 7.23982 17.3508 7.43416 17.3508H7.7106C7.87672 17.3508 7.95978 17.3508 8.01356 17.392C8.06733 17.4333 8.0956 17.5381 8.15215 17.7478C8.15725 17.7667 8.16281 17.7846 8.16883 17.8016C8.20786 17.9115 8.26275 17.9909 8.33349 18.0398C8.40668 18.0886 8.48962 18.1131 8.58232 18.1131C8.68234 18.1131 8.7665 18.0801 8.83481 18.0141C8.90555 17.9482 8.95922 17.8541 8.99581 17.7319C9.03241 17.6073 9.0507 17.4571 9.0507 17.2811Z" fill="currentcolor" />
  <path fill-rule="evenodd" d="M12.1152 17.0448H12.8617C13.2203 17.0448 13.5289 16.9751 13.7874 16.8358C14.046 16.6966 14.2436 16.5011 14.3802 16.2495C14.5193 15.9954 14.5888 15.6961 14.5888 15.3515C14.5888 15.0095 14.5193 14.7065 14.3802 14.4426C14.2436 14.1763 14.046 13.9674 13.7874 13.8159C13.5289 13.6645 13.2203 13.5887 12.8617 13.5887H11.4464C11.258 13.5887 11.1637 13.5887 11.1052 13.6473C11.0467 13.706 11.0467 13.8003 11.0467 13.989V18.5246C11.0467 18.7133 11.0467 18.8076 11.1052 18.8662C11.1637 18.9249 11.258 18.9249 11.4464 18.9249H11.7155C11.9039 18.9249 11.9981 18.9249 12.0566 18.8662C12.1152 18.8076 12.1152 18.7133 12.1152 18.5246V17.0448ZM12.8617 16.1542H12.1152V14.8796C12.1152 14.6909 12.1152 14.5965 12.1737 14.5379C12.2322 14.4793 12.3264 14.4793 12.5149 14.4793H12.8617C13.0153 14.4793 13.1385 14.5208 13.2312 14.6039C13.3264 14.687 13.3959 14.7957 13.4398 14.9301C13.4862 15.062 13.5093 15.2049 13.5093 15.3589C13.5093 15.5104 13.4874 15.6472 13.4435 15.7694C13.3996 15.8891 13.3288 15.9831 13.2312 16.0516C13.1361 16.12 13.0129 16.1542 12.8617 16.1542Z" fill="currentcolor" />
</svg>
