<svg
  xmlns="http://www.w3.org/2000/svg"
  width="20"
  height="20"
  viewBox="0 0 20 20"
  fill="none"
>
  <path
    d="M12.6112 18.5997V18.5134C12.6112 18.3247 12.6112 18.2304 12.5527 18.1718C12.4942 18.1131 12.4 18.1131 12.2115 18.1131H10.4117L12.5192 14.383C12.5449 14.3374 12.5578 14.3146 12.5644 14.2896C12.571 14.2646 12.571 14.2384 12.571 14.186V14.065C12.571 13.8763 12.571 13.782 12.5124 13.7234C12.4539 13.6647 12.3597 13.6647 12.1713 13.6647H9.5383C9.34989 13.6647 9.25568 13.6647 9.19715 13.7234C9.13862 13.782 9.13862 13.8763 9.13862 14.065V14.1549C9.13862 14.3436 9.13862 14.4379 9.19715 14.4965C9.25568 14.5552 9.34989 14.5552 9.5383 14.5552H11.3421L9.21383 18.2586C9.18736 18.3047 9.17412 18.3278 9.16735 18.3531C9.16057 18.3785 9.16057 18.4051 9.16057 18.4583V18.5997C9.16057 18.7883 9.16057 18.8827 9.2191 18.9413C9.27764 18.9999 9.37184 18.9999 9.56026 18.9999H12.2115C12.4 18.9999 12.4942 18.9999 12.5527 18.9413C12.6112 18.8827 12.6112 18.7883 12.6112 18.5997Z"
    fill="currentColor"
  />
  <path
    d="M14.0685 13.6647C14.2569 13.6647 14.3511 13.6647 14.4096 13.7234C14.4682 13.782 14.4682 13.8763 14.4682 14.065V18.5997C14.4682 18.7883 14.4682 18.8827 14.4096 18.9413C14.3511 18.9999 14.2569 18.9999 14.0685 18.9999H13.803C13.6146 18.9999 13.5204 18.9999 13.4619 18.9413C13.4033 18.8827 13.4033 18.7883 13.4033 18.5997V14.065C13.4033 13.8763 13.4033 13.782 13.4619 13.7234C13.5204 13.6647 13.6146 13.6647 13.803 13.6647H14.0685Z"
    fill="currentColor"
  />
  <path
    fill-rule="evenodd"
    clip-rule="evenodd"
    d="M16.5264 17.1201H17.2728C17.6314 17.1201 17.94 17.0505 18.1986 16.9113C18.4572 16.772 18.6548 16.5766 18.7914 16.325C18.9305 16.0709 19 15.7717 19 15.4273C19 15.0853 18.9305 14.7823 18.7914 14.5185C18.6548 14.2522 18.4572 14.0434 18.1986 13.8919C17.94 13.7405 17.6314 13.6647 17.2728 13.6647H15.8575C15.6691 13.6647 15.5749 13.6647 15.5164 13.7234C15.4579 13.782 15.4579 13.8763 15.4579 14.065V18.5997C15.4579 18.7883 15.4579 18.8827 15.5164 18.9413C15.5749 18.9999 15.6691 18.9999 15.8575 18.9999H16.1267C16.3151 18.9999 16.4093 18.9999 16.4678 18.9413C16.5264 18.8827 16.5264 18.7883 16.5264 18.5997V17.1201ZM17.2728 16.2297H16.5264V14.9554C16.5264 14.7667 16.5264 14.6724 16.5849 14.6138C16.6434 14.5552 16.7376 14.5552 16.926 14.5552H17.2728C17.4265 14.5552 17.5497 14.5967 17.6424 14.6797C17.7376 14.7628 17.8071 14.8715 17.851 15.0059C17.8974 15.1378 17.9205 15.2807 17.9205 15.4346C17.9205 15.586 17.8986 15.7228 17.8547 15.845C17.8107 15.9647 17.74 16.0587 17.6424 16.1271C17.5473 16.1955 17.4241 16.2297 17.2728 16.2297Z"
    fill="currentColor"
  />
  <path
    d="M8.65983 1.00004C8.86935 0.999894 9.06002 0.999764 9.23853 1.00779L9.23853 2.7501C9.2385 3.6491 9.23848 4.39876 9.31838 4.99389C9.40272 5.62205 9.58824 6.18918 10.0434 6.64492C10.4985 7.10066 11.0648 7.28643 11.6921 7.37089C12.2864 7.4509 13.0351 7.45088 13.9328 7.45085L15.6671 7.45085C15.681 7.69346 15.6808 7.95334 15.6805 8.23728L15.6804 11.6861C15.6804 11.8588 15.6804 12.0263 15.6802 12.1887H9.43688C8.57277 12.1887 8.14071 12.1887 7.87226 12.5589C7.60381 12.9292 7.60381 13.5251 7.60381 14.7169V19C6.74443 18.9978 6.0315 18.9869 5.43428 18.9341C4.66432 18.866 4.01544 18.7239 3.4304 18.3964C2.66414 17.9675 2.03168 17.3342 1.60335 16.5669C1.27631 15.981 1.13438 15.3312 1.06641 14.5602C0.999989 13.8067 0.999994 12.8692 1 11.6861V8.54572C0.999992 7.25435 0.999986 6.23107 1.07862 5.41159C1.15914 4.57248 1.3275 3.86904 1.71427 3.24541C2.09934 2.62452 2.62222 2.10092 3.24226 1.71533C3.86504 1.32803 4.56751 1.15944 5.40547 1.07881C6.22383 1.00006 7.2457 1.00007 8.53531 1.00008L8.65983 1.00004Z"
    fill="currentColor"
  />
  <path
    d="M11.457 2.16024C11.1947 1.89728 10.9743 1.67622 10.7374 1.50274V2.69807C10.7374 3.66264 10.7389 4.31058 10.8038 4.7939C10.8658 5.25563 10.973 5.45325 11.1032 5.58364C11.2334 5.71403 11.4307 5.82132 11.8918 5.88339C12.3745 5.94838 13.0215 5.94997 13.9848 5.94997H15.1683C14.9581 5.66498 14.6874 5.39446 14.3757 5.08297L11.457 2.16024Z"
    fill="currentColor"
  />
</svg>
