<svg
  xmlns="http://www.w3.org/2000/svg"
  width="20"
  height="20"
  viewBox="0 0 20 20"
  fill="none"
>
  <path
    d="M8.65983 1.00126C8.86935 1.00111 9.06002 1.00098 9.23853 1.00901L9.23853 2.7503C9.2385 3.64878 9.23848 4.398 9.31838 4.99278C9.40272 5.62057 9.58824 6.18737 10.0434 6.64284C10.4985 7.09831 11.0648 7.28398 11.6921 7.36839C12.2864 7.44835 13.0351 7.44833 13.9328 7.4483L15.6671 7.4483C15.681 7.69077 15.6808 7.9505 15.6805 8.23427L15.6804 11.6811C15.6804 11.8049 15.6804 11.926 15.6804 12.0444H9.65719C8.81296 12.0444 8.39084 12.0444 8.12857 12.4145C7.8663 12.7845 7.8663 13.38 7.8663 14.5712V18.9912C6.8883 18.9902 6.09127 18.9829 5.43428 18.9248C4.66432 18.8568 4.01544 18.7148 3.4304 18.3875C2.66414 17.9588 2.03168 17.3258 1.60335 16.559C1.27631 15.9735 1.13438 15.3241 1.06641 14.5535C0.999989 13.8004 0.999994 12.8635 1 11.6811V8.54253C0.999992 7.25191 0.999986 6.22923 1.07862 5.41024C1.15914 4.57162 1.3275 3.86859 1.71427 3.24532C2.09934 2.62479 2.62222 2.1015 3.24226 1.71613C3.86504 1.32906 4.56751 1.16057 5.40547 1.07998C6.22383 1.00128 7.2457 1.00129 8.53531 1.0013L8.65983 1.00126Z"
    fill="currentColor"
  />
  <path
    d="M11.457 2.16079C11.1947 1.89798 10.9743 1.67705 10.7374 1.50367V2.6983C10.7374 3.66231 10.7389 4.30987 10.8038 4.79291C10.8658 5.25437 10.973 5.45187 11.1032 5.58218C11.2334 5.7125 11.4307 5.81972 11.8918 5.88176C12.3745 5.94671 13.0215 5.9483 13.9848 5.9483H15.1683C14.9581 5.66348 14.6874 5.39311 14.3757 5.0818L11.457 2.16079Z"
    fill="currentColor"
  />
  <path
    d="M16.454 18.9257H16.7171C16.9097 18.9257 17.006 18.9257 17.0648 18.8654C17.1236 18.8051 17.1213 18.7087 17.1166 18.516L17.0741 16.7467H18.3954C18.5838 16.7467 18.678 16.7467 18.7366 16.6881C18.7951 16.6295 18.7951 16.5353 18.7951 16.3467V16.2605C18.7951 16.0719 18.7951 15.9776 18.7366 15.9191C18.678 15.8605 18.5838 15.8605 18.3954 15.8605H17.0528V14.4835H18.6003C18.7887 14.4835 18.8829 14.4835 18.9415 14.4249C19 14.3664 19 14.2721 19 14.0835V13.9936C19 13.8051 19 13.7108 18.9415 13.6522C18.8829 13.5936 18.7887 13.5936 18.6003 13.5936H16.454C16.2656 13.5936 16.1714 13.5936 16.1129 13.6522C16.0543 13.7108 16.0543 13.8051 16.0543 13.9936V18.5257C16.0543 18.7142 16.0543 18.8085 16.1129 18.8671C16.1714 18.9257 16.2656 18.9257 16.454 18.9257Z"
    fill="currentColor"
  />
  <path
    d="M14.6648 13.5936C14.8532 13.5936 14.9474 13.5936 15.006 13.6522C15.0645 13.7108 15.0645 13.8051 15.0645 13.9936V18.5257C15.0645 18.7142 15.0645 18.8085 15.006 18.8671C14.9474 18.9257 14.8532 18.9257 14.6648 18.9257H14.3993C14.2109 18.9257 14.1167 18.9257 14.0582 18.8671C13.9997 18.8085 13.9997 18.7142 13.9997 18.5257V13.9936C13.9997 13.8051 13.9997 13.7108 14.0582 13.6522C14.1167 13.5936 14.2109 13.5936 14.3993 13.5936H14.6648Z"
    fill="currentColor"
  />
  <path
    d="M12.7054 16.1241C12.8938 16.1241 12.988 16.1241 13.0466 16.1827C13.1051 16.2413 13.1051 16.3356 13.1051 16.5241V18.163C13.1051 18.243 13.1051 18.283 13.0871 18.3225C13.0692 18.362 13.043 18.3849 12.9905 18.4306C12.9295 18.4837 12.8567 18.5413 12.7721 18.6034C12.6282 18.7084 12.4391 18.8011 12.2049 18.8817C11.9732 18.9598 11.6902 18.9989 11.356 18.9989C11.0608 18.9989 10.7925 18.9525 10.551 18.8597C10.3119 18.767 10.1058 18.6266 9.93255 18.4386C9.76178 18.2482 9.63127 18.0114 9.54101 17.7281C9.45075 17.4425 9.40562 17.1044 9.40562 16.7137V15.8055C9.40562 15.4198 9.44831 15.0841 9.53369 14.7985C9.62151 14.5104 9.74837 14.2711 9.91425 14.0807C10.0801 13.8903 10.2777 13.7487 10.507 13.6559C10.7388 13.5631 10.9998 13.5167 11.2901 13.5167C11.6902 13.5167 12.0183 13.5839 12.2745 13.7181C12.533 13.8524 12.7282 14.0514 12.8599 14.3151C12.9413 14.4749 13.0029 14.6567 13.0448 14.8606C13.0828 15.0457 13.1019 15.1383 13.0419 15.2119C12.9819 15.2855 12.8789 15.2855 12.6728 15.2855H12.4363C12.2732 15.2855 12.1916 15.2855 12.1377 15.244C12.0838 15.2025 12.0589 15.1082 12.0091 14.9197C11.993 14.8591 11.9742 14.8053 11.9524 14.7582C11.8963 14.6312 11.8171 14.5409 11.7146 14.4872C11.6121 14.431 11.4792 14.403 11.3157 14.403C11.1742 14.403 11.0511 14.4286 10.9462 14.4799C10.8413 14.5287 10.7534 14.6093 10.6827 14.7216C10.6119 14.8339 10.5595 14.9779 10.5253 15.1537C10.4912 15.3295 10.4741 15.5443 10.4741 15.7982V16.7137C10.4741 16.9652 10.4936 17.1801 10.5327 17.3583C10.5717 17.5365 10.629 17.6818 10.7046 17.7941C10.7827 17.9064 10.8803 17.9882 10.9974 18.0394C11.1169 18.0883 11.2572 18.1127 11.4182 18.1127C11.5475 18.1127 11.6512 18.0992 11.7292 18.0724C11.8073 18.0455 11.8695 18.0175 11.9159 17.9882C11.9408 17.9719 11.9533 17.9638 11.9605 17.9581C12.0072 17.9213 12.0304 17.8786 12.0358 17.8193C12.0366 17.8102 12.0366 17.798 12.0366 17.7736V17.3162C12.0366 17.1444 12.0366 17.0585 11.9873 17.002C11.9814 16.9952 11.975 16.9887 11.9681 16.9828C11.9117 16.9335 11.8259 16.9335 11.6542 16.9335C11.4826 16.9335 11.3967 16.9335 11.3403 16.8842C11.3335 16.8782 11.327 16.8718 11.3211 16.865C11.2718 16.8085 11.2718 16.7226 11.2718 16.5508V16.5241C11.2718 16.3356 11.2718 16.2413 11.3304 16.1827C11.3889 16.1241 11.4831 16.1241 11.6715 16.1241H12.7054Z"
    fill="currentColor"
  />
</svg>
