<svg width="20" height="20" viewBox="0 0 20 20" fill="currentcolor" xmlns="http://www.w3.org/2000/svg">
  <path d="M8.67236 1.00004C8.88223 0.999894 9.07321 0.999764 9.25201 1.00779L9.25201 2.74957C9.25198 3.64831 9.25195 4.39774 9.33199 4.99269C9.41646 5.62067 9.60229 6.18763 10.0581 6.64323C10.514 7.09883 11.0813 7.28455 11.7096 7.36898C12.3049 7.44897 13.0548 7.44895 13.954 7.44892L15.6911 7.44892C15.7051 7.69146 15.7048 7.95126 15.7045 8.23511L15.7045 11.6829C15.7045 11.7932 15.7045 11.9015 15.7044 12.0075H7.98536C6.98943 12.0075 6.49146 12.0075 6.18206 12.3777C5.87266 12.7478 5.87266 13.3435 5.87266 14.535V18.9589C5.72258 18.9507 5.579 18.9408 5.44153 18.9287C4.67032 18.8607 4.02037 18.7186 3.43437 18.3912C2.66686 17.9624 2.03337 17.3293 1.60433 16.5622C1.27676 15.9765 1.1346 15.3269 1.06652 14.5562C0.999989 13.8028 0.999994 12.8656 1 11.6829V8.54346C0.999992 7.25247 0.999986 6.2295 1.07875 5.41027C1.1594 4.57141 1.32804 3.86818 1.71544 3.24474C2.10114 2.62403 2.62487 2.10059 3.24592 1.71511C3.86972 1.32793 4.57335 1.15939 5.41268 1.07878C6.23237 1.00006 7.25592 1.00007 8.54764 1.00008L8.67236 1.00004Z" fill="currentcolor" />
  <path d="M11.4741 2.1599C11.2114 1.89701 10.9906 1.67602 10.7533 1.50259V2.69756C10.7533 3.66185 10.7549 4.30959 10.8199 4.79277C10.882 5.25436 10.9893 5.45191 11.1197 5.58227C11.2501 5.71262 11.4478 5.81987 11.9097 5.88193C12.3931 5.94689 13.0412 5.94849 14.006 5.94849H15.1914C14.9809 5.66359 14.7098 5.39315 14.3976 5.08174L11.4741 2.1599Z" fill="currentcolor" />
  <path d="M16.4498 19H16.7133C16.9062 19 17.0027 19 17.0616 18.9397C17.1205 18.8794 17.1182 18.783 17.1136 18.5903L17.071 16.8204H18.3944C18.5831 16.8204 18.6775 16.8204 18.7361 16.7618C18.7947 16.7032 18.7947 16.6089 18.7947 16.4203V16.3341C18.7947 16.1454 18.7947 16.0511 18.7361 15.9925C18.6775 15.9339 18.5831 15.9339 18.3944 15.9339H17.0497V14.5566H18.5997C18.7884 14.5566 18.8827 14.5566 18.9414 14.498C19 14.4394 19 14.3451 19 14.1565V14.0666C19 13.8779 19 13.7836 18.9414 13.725C18.8827 13.6664 18.7884 13.6664 18.5997 13.6664H16.4498C16.2611 13.6664 16.1668 13.6664 16.1081 13.725C16.0495 13.7836 16.0495 13.8779 16.0495 14.0666V18.5999C16.0495 18.7885 16.0495 18.8828 16.1081 18.9414C16.1668 19 16.2611 19 16.4498 19Z" fill="currentcolor" />
  <path fill-rule="evenodd" d="M8.05862 19H7.78906C7.60033 19 7.50597 19 7.44734 18.9414C7.38872 18.8828 7.38872 18.7885 7.38872 18.5999V14.0666C7.38872 13.8779 7.38872 13.7836 7.44734 13.725C7.50597 13.6664 7.60033 13.6664 7.78906 13.6664H9.20666C9.56586 13.6664 9.87496 13.7422 10.134 13.8936C10.393 14.045 10.5909 14.2538 10.7277 14.52C10.867 14.7837 10.9366 15.0865 10.9366 15.4284C10.9366 15.7728 10.867 16.0719 10.7277 16.3259C10.5909 16.5774 10.393 16.7728 10.134 16.912C9.87496 17.0512 9.56586 17.1208 9.20666 17.1208H8.8593C8.67058 17.1208 8.57622 17.1208 8.51759 17.1794C8.45896 17.238 8.45896 17.3323 8.45896 17.5209V18.5999C8.45896 18.7885 8.45896 18.8828 8.40033 18.9414C8.3417 19 8.24734 19 8.05862 19ZM9.20666 16.2307C9.35816 16.2307 9.48155 16.1965 9.57685 16.1281C9.67459 16.0597 9.74545 15.9657 9.78943 15.846C9.83342 15.7239 9.85541 15.5872 9.85541 15.4358C9.85541 15.2819 9.83219 15.139 9.78577 15.0072C9.74179 14.8728 9.67215 14.7642 9.57685 14.6811C9.484 14.5981 9.3606 14.5566 9.20666 14.5566H8.8593C8.67058 14.5566 8.57622 14.5566 8.51759 14.6152C8.45896 14.6738 8.45896 14.7681 8.45896 14.9567V15.8305C8.45896 16.0192 8.45896 16.1135 8.51759 16.1721C8.57622 16.2307 8.67058 16.2307 8.8593 16.2307H9.20666Z" fill="currentcolor" />
  <path fill-rule="evenodd" d="M13.1228 19H12.1304C11.9417 19 11.8473 19 11.7887 18.9414C11.73 18.8828 11.73 18.7885 11.73 18.5999V14.0666C11.73 13.8779 11.73 13.7836 11.7887 13.725C11.8473 13.6664 11.9417 13.6664 12.1304 13.6664H13.1375C13.4454 13.6664 13.7251 13.7165 13.9768 13.8166C14.2285 13.9168 14.4447 14.0633 14.6256 14.2562C14.8064 14.4467 14.9457 14.6824 15.0434 14.9632C15.1411 15.244 15.19 15.564 15.19 15.923V16.7472C15.19 17.1086 15.1411 17.4285 15.0434 17.7069C14.9457 17.9853 14.8064 18.221 14.6256 18.4139C14.4472 18.6044 14.2309 18.7497 13.9768 18.8498C13.7227 18.9499 13.438 19 13.1228 19ZM13.1228 18.1135C13.3818 18.1135 13.5834 18.0671 13.7276 17.9743C13.8718 17.8815 13.9732 17.735 14.0318 17.5347C14.0929 17.3345 14.1234 17.072 14.1234 16.7472V15.9156C14.1234 15.669 14.1075 15.4602 14.0758 15.2892C14.044 15.1158 13.9903 14.9766 13.9145 14.8716C13.8388 14.7642 13.7374 14.6848 13.6103 14.6335C13.4832 14.5822 13.3256 14.5566 13.1375 14.5566C13.0128 14.5566 12.9505 14.5566 12.9041 14.5834C12.8736 14.6009 12.8483 14.6262 12.8307 14.6567C12.804 14.7031 12.804 14.7654 12.804 14.8899V17.7948C12.804 17.9055 12.804 17.9609 12.8253 18.0033C12.8446 18.0417 12.8758 18.0729 12.9142 18.0922C12.9566 18.1135 13.012 18.1135 13.1228 18.1135Z" fill="currentcolor" />
</svg>
