<svg width="20" height="20" viewBox="0 0 20 20" fill="currentcolor" xmlns="http://www.w3.org/2000/svg">
  <path fill-rule="evenodd" d="M10.4242 0.000129909C10.6836 -0.000122892 10.9211 -0.000354287 11.1427 0.0125891L11.1427 2.60668C11.1427 3.44247 11.1427 4.13941 11.2158 4.6927C11.2929 5.27669 11.4627 5.80395 11.8791 6.22764C12.2955 6.65133 12.8138 6.82405 13.3877 6.90256C13.9315 6.97695 14.6166 6.97693 15.438 6.9769L17.9877 6.9769C18.0004 7.20246 18.0002 7.44408 17.9999 7.70806L17.9999 11.9131C17.9999 13.6226 17.9999 14.9767 17.8599 16.0364C17.7157 17.127 17.4121 18.0097 16.7279 18.7059C16.0437 19.402 15.1761 19.711 14.1041 19.8576C13.0626 20.0001 11.7317 20.0001 10.0515 20.0001H9.94832C8.26813 20.0001 6.93726 20.0001 5.89572 19.8576C4.8238 19.711 3.9562 19.402 3.27198 18.7059C2.58777 18.0097 2.28412 17.127 2.14001 16.0364C1.99998 14.9767 1.99999 13.6226 2 11.9131V8.08718C1.99999 6.37766 1.99998 5.02359 2.14001 3.96387C2.28412 2.87326 2.58777 1.99052 3.27198 1.29437C3.9562 0.598225 4.8238 0.289281 5.89572 0.142651C6.93728 0.000174433 8.26813 0.000186187 9.94835 0.000200935L10.4242 0.000129909ZM10.55 10.8001C10.55 10.3859 10.2143 10.0501 9.80005 10.0501C9.38584 10.0501 9.05005 10.3859 9.05005 10.8001V12.0501H7.80005C7.38584 12.0501 7.05005 12.3859 7.05005 12.8001C7.05005 13.2143 7.38584 13.5501 7.80005 13.5501H9.05005V14.8001C9.05005 15.2143 9.38584 15.5501 9.80005 15.5501C10.2143 15.5501 10.55 15.2143 10.55 14.8001V13.5501H11.8C12.2143 13.5501 12.55 13.2143 12.55 12.8001C12.55 12.3859 12.2143 12.0501 11.8 12.0501H10.55V10.8001Z" fill="currentcolor" />
  <path d="M13.3064 1.21483C13.0218 0.924663 12.7746 0.672673 12.5142 0.476984L12.5141 2.55831C12.5141 3.45506 12.5156 4.05744 12.575 4.50678C12.6317 4.93604 12.7297 5.11976 12.8489 5.24099C12.968 5.36221 13.1486 5.46195 13.5705 5.51967C14.0121 5.58008 14.6042 5.58156 15.4855 5.58156H17.5312C17.3389 5.31661 17.0912 5.06511 16.8061 4.77551L13.3064 1.21483Z" fill="currentcolor" />
</svg>
