<svg
  xmlns="http://www.w3.org/2000/svg"
  width="20"
  height="20"
  viewBox="0 0 20 20"
  fill="none"
>
  <path
    d="M8.66305 1.00004C8.87266 0.999894 9.06341 0.999764 9.242 1.00779L9.242 2.74957C9.24197 3.64831 9.24194 4.39774 9.32188 4.99269C9.40625 5.62067 9.59186 6.18763 10.0472 6.64323C10.5025 7.09883 11.0691 7.28455 11.6966 7.36898C12.2912 7.44897 13.0401 7.44895 13.9383 7.44892L15.6733 7.44892C15.6872 7.69146 15.687 7.95126 15.6867 8.23511L15.6866 11.6829C15.6866 11.8446 15.6866 12.0017 15.6865 12.1543H6.89628C5.80218 12.1543 5.25514 12.1543 4.91524 12.5244C4.57535 12.8946 4.57535 13.4903 4.57535 14.6817V18.8063C4.16228 18.7193 3.78518 18.5891 3.43142 18.3912C2.66484 17.9624 2.03212 17.3293 1.6036 16.5622C1.27643 15.9765 1.13443 15.3269 1.06644 14.5562C0.999989 13.8028 0.999994 12.8656 1 11.6829V8.54346C0.999992 7.25247 0.999986 6.2295 1.07866 5.41027C1.15921 4.57141 1.32764 3.86818 1.71457 3.24474C2.0998 2.62403 2.6229 2.10059 3.2432 1.71511C3.86624 1.32793 4.56901 1.15939 5.40733 1.07878C6.22602 1.00006 7.24833 1.00007 8.53848 1.00008L8.66305 1.00004Z"
    fill="currentColor"
  />
  <path
    d="M11.4614 2.1599C11.199 1.89701 10.9785 1.67602 10.7414 1.50259V2.69756C10.7414 3.66185 10.743 4.30959 10.808 4.79277C10.87 5.25436 10.9772 5.45191 11.1074 5.58227C11.2377 5.71262 11.4351 5.81987 11.8964 5.88193C12.3793 5.94689 13.0266 5.94849 13.9903 5.94849H15.1742C14.9639 5.66359 14.6932 5.39315 14.3814 5.08174L11.4614 2.1599Z"
    fill="currentColor"
  />
  <path
    fill-rule="evenodd"
    clip-rule="evenodd"
    d="M19 17.2197V17.619C19 17.6441 19 17.6567 18.9989 17.6673C18.9889 17.761 18.9149 17.835 18.8213 17.845C18.8107 17.8461 18.7981 17.8461 18.773 17.8461C18.7479 17.8461 18.7354 17.8461 18.7248 17.8472C18.6312 17.8572 18.5572 17.9313 18.5472 18.025C18.5461 18.0355 18.5461 18.0481 18.5461 18.0732V18.5999C18.5461 18.7885 18.5461 18.8828 18.4875 18.9414C18.429 19 18.3347 19 18.1462 19H17.9172C17.7288 19 17.6345 19 17.5759 18.9414C17.5174 18.8828 17.5174 18.7885 17.5174 18.5999V18.2462C17.5174 18.0576 17.5174 17.9633 17.4588 17.9047C17.4003 17.8461 17.306 17.8461 17.1175 17.8461H16.118C15.9414 17.8461 15.8531 17.8461 15.7955 17.7924C15.738 17.7388 15.7317 17.6506 15.7192 17.4743L15.7059 17.2879C15.702 17.2322 15.7 17.2043 15.7056 17.1773C15.7111 17.1503 15.7239 17.1255 15.7496 17.0759L17.3983 13.8829C17.4527 13.7775 17.4799 13.7248 17.5278 13.6956C17.5757 13.6664 17.635 13.6664 17.7535 13.6664H18.1462C18.3347 13.6664 18.429 13.6664 18.4875 13.725C18.5461 13.7836 18.5461 13.8779 18.5461 14.0666V16.7655C18.5461 16.7906 18.5461 16.8032 18.5472 16.8137C18.5572 16.9074 18.6312 16.9815 18.7248 16.9915C18.7354 16.9926 18.7479 16.9926 18.773 16.9926C18.7981 16.9926 18.8107 16.9926 18.8213 16.9937C18.9149 17.0037 18.9889 17.0777 18.9989 17.1714C19 17.182 19 17.1946 19 17.2197ZM17.4918 15.227L16.9037 16.5402C16.8358 16.6917 16.8019 16.7675 16.8131 16.8287C16.8227 16.8809 16.8527 16.9272 16.8964 16.9574C16.9476 16.9926 17.0306 16.9926 17.1965 16.9926C17.3094 16.9926 17.3659 16.9926 17.409 16.9705C17.446 16.9514 17.4762 16.9212 17.4953 16.8841C17.5174 16.841 17.5174 16.7845 17.5174 16.6715V15.2334C17.5174 15.2192 17.4985 15.2145 17.4918 15.227Z"
    fill="currentColor"
  />
  <path
    fill-rule="evenodd"
    clip-rule="evenodd"
    d="M12.4808 19H12.2116C12.0231 19 11.9288 19 11.8703 18.9414C11.8117 18.8828 11.8117 18.7885 11.8117 18.5999V14.0666C11.8117 13.8779 11.8117 13.7836 11.8703 13.725C11.9288 13.6664 12.0231 13.6664 12.2116 13.6664H13.6275C13.9862 13.6664 14.2949 13.7422 14.5536 13.8936C14.8123 14.045 15.01 14.2538 15.1467 14.52C15.2858 14.7837 15.3553 15.0865 15.3553 15.4284C15.3553 15.7728 15.2858 16.0719 15.1467 16.3259C15.01 16.5774 14.8123 16.7728 14.5536 16.912C14.2949 17.0512 13.9862 17.1208 13.6275 17.1208H13.2805C13.092 17.1208 12.9978 17.1208 12.9392 17.1794C12.8807 17.238 12.8807 17.3323 12.8807 17.5209V18.5999C12.8807 18.7885 12.8807 18.8828 12.8221 18.9414C12.7635 19 12.6693 19 12.4808 19ZM13.6275 16.2307C13.7788 16.2307 13.902 16.1965 13.9972 16.1281C14.0948 16.0597 14.1656 15.9657 14.2095 15.846C14.2535 15.7239 14.2754 15.5872 14.2754 15.4358C14.2754 15.2819 14.2522 15.139 14.2059 15.0072C14.1619 14.8728 14.0924 14.7642 13.9972 14.6811C13.9045 14.5981 13.7812 14.5566 13.6275 14.5566H13.2805C13.092 14.5566 12.9978 14.5566 12.9392 14.6152C12.8807 14.6738 12.8807 14.7681 12.8807 14.9567V15.8305C12.8807 16.0192 12.8807 16.1135 12.9392 16.1721C12.9978 16.2307 13.092 16.2307 13.2805 16.2307H13.6275Z"
    fill="currentColor"
  />
  <path
    d="M6.44781 13.6664C6.25932 13.6664 6.16507 13.6664 6.10651 13.725C6.04796 13.7836 6.04796 13.8779 6.04796 14.0666V18.5999C6.04796 18.7885 6.04796 18.8828 6.10651 18.9414C6.16507 19 6.25932 19 6.44781 19H6.6841C6.87259 19 6.96684 19 7.0254 18.9414C7.08396 18.8828 7.08395 18.7885 7.08395 18.5999V17.1831L7.02184 15.6129L7.96769 18.7166C8.00931 18.8532 8.03012 18.9214 8.08313 18.9607C8.13614 19 8.20748 19 8.35016 19H8.55376C8.69911 19 8.77178 19 8.82526 18.9596C8.87874 18.9192 8.89861 18.8492 8.93837 18.7093L9.89903 15.3285L9.82953 17.1831V18.5999C9.82953 18.7885 9.82953 18.8828 9.88809 18.9414C9.94665 19 10.0409 19 10.2294 19H10.462C10.6505 19 10.7448 19 10.8033 18.9414C10.8619 18.8828 10.8619 18.7885 10.8619 18.5999V14.0666C10.8619 13.8779 10.8619 13.7836 10.8033 13.725C10.7448 13.6664 10.6505 13.6664 10.462 13.6664H9.83864C9.69496 13.6664 9.62312 13.6664 9.56993 13.7062C9.51675 13.7459 9.49628 13.8148 9.45535 13.9526L8.83938 16.0266C8.68352 16.5514 8.60559 16.8138 8.45651 16.8138C8.30743 16.8139 8.22926 16.5516 8.07292 16.0269L7.45466 13.9522C7.41364 13.8146 7.39313 13.7458 7.33996 13.7061C7.28679 13.6664 7.21502 13.6664 7.07148 13.6664H6.44781Z"
    fill="currentColor"
  />
</svg>
