<svg width="20" height="20" viewBox="0 0 20 20" fill="currentcolor" xmlns="http://www.w3.org/2000/svg">
  <path d="M8.64231 1.00004C8.8517 0.999894 9.04225 0.999764 9.22065 1.00779L9.22065 2.74957C9.22062 3.64831 9.22059 4.39774 9.30045 4.99269C9.38473 5.62067 9.57014 6.18763 10.025 6.64323C10.4798 7.09883 11.0458 7.28455 11.6727 7.36898C12.2666 7.44897 13.0148 7.44895 13.912 7.44892L15.6452 7.44892C15.6591 7.69146 15.6588 7.95126 15.6586 8.23511L15.6585 11.6829C15.6585 11.8226 15.6585 11.9589 15.6584 12.0918H7.09144C6.01884 12.0918 5.48254 12.0918 5.14932 12.4619C4.81611 12.8321 4.81611 13.4278 4.81611 14.6192V18.8544C4.30097 18.7696 3.84168 18.6295 3.41617 18.3912C2.65039 17.9624 2.01834 17.3293 1.59027 16.5622C1.26344 15.9765 1.1216 15.3269 1.05368 14.5562C0.987293 13.8028 0.987298 12.8656 0.987305 11.6829V8.54346C0.987297 7.25247 0.987291 6.2295 1.06588 5.41027C1.14635 4.57141 1.3146 3.86818 1.70113 3.24474C2.08595 2.62403 2.6085 2.10059 3.22815 1.71511C3.85054 1.32793 4.55257 1.15939 5.39 1.07878C6.20784 1.00006 7.22908 1.00007 8.51787 1.00008L8.64231 1.00004Z" fill="currentcolor" />
  <path d="M11.4377 2.1599C11.1756 1.89701 10.9553 1.67602 10.7185 1.50259V2.69756C10.7185 3.66185 10.7201 4.30959 10.785 4.79277C10.8469 5.25436 10.954 5.45191 11.0841 5.58227C11.2143 5.71262 11.4115 5.81987 11.8723 5.88193C12.3546 5.94689 13.0013 5.94849 13.9639 5.94849H15.1467C14.9366 5.66359 14.6661 5.39315 14.3546 5.08174L11.4377 2.1599Z" fill="currentcolor" />
  <path d="M18.5879 16.16C18.7762 16.16 18.8703 16.16 18.9288 16.2186C18.9873 16.2772 18.9873 16.3715 18.9873 16.5601V18.1686C18.9873 18.2486 18.9873 18.2887 18.9693 18.3282C18.9513 18.3677 18.9251 18.3905 18.8727 18.4362C18.813 18.4882 18.7418 18.5445 18.6592 18.6052C18.5174 18.7087 18.3311 18.8002 18.1003 18.8797C17.872 18.9567 17.5931 18.9952 17.2638 18.9952C16.973 18.9952 16.7085 18.9495 16.4706 18.858C16.235 18.7665 16.0319 18.628 15.8612 18.4426C15.693 18.2548 15.5644 18.0213 15.4754 17.742C15.3865 17.4602 15.342 17.1268 15.342 16.7415V15.8458C15.342 15.4653 15.3841 15.1343 15.4682 14.8525C15.5547 14.5684 15.6797 14.3324 15.8432 14.1446C16.0067 13.9568 16.2014 13.8172 16.4273 13.7257C16.6557 13.6342 16.9129 13.5884 17.1989 13.5884C17.5931 13.5884 17.9164 13.6546 18.1688 13.7871C18.4236 13.9195 18.6159 14.1157 18.7457 14.3758C18.8251 14.5319 18.8854 14.7093 18.9267 14.9079C18.9651 15.0928 18.9843 15.1853 18.9243 15.2591C18.8644 15.3329 18.7613 15.3329 18.5553 15.3329H18.3335C18.1709 15.3329 18.0896 15.3329 18.0358 15.2916C17.9821 15.2503 17.9567 15.1559 17.906 14.9671C17.8905 14.9094 17.8723 14.858 17.8515 14.8128C17.7962 14.6876 17.7181 14.5985 17.6172 14.5455C17.5162 14.4902 17.3852 14.4625 17.2242 14.4625C17.0847 14.4625 16.9633 14.4878 16.86 14.5383C16.7566 14.5865 16.6701 14.6659 16.6004 14.7767C16.5307 14.8875 16.479 15.0295 16.4453 15.2029C16.4117 15.3762 16.3949 15.5881 16.3949 15.8386V16.7415C16.3949 16.9895 16.4141 17.2014 16.4525 17.3772C16.491 17.5529 16.5475 17.6962 16.622 17.807C16.6989 17.9177 16.7951 17.9984 16.9105 18.049C17.0282 18.0971 17.1665 18.1212 17.3251 18.1212C17.4525 18.1212 17.5547 18.1079 17.6316 18.0815C17.7085 18.055 17.7698 18.0273 17.8155 17.9984C17.8388 17.9832 17.8505 17.9756 17.8571 17.9705C17.9051 17.9332 17.9287 17.8896 17.9338 17.8289C17.9345 17.8206 17.9345 17.8093 17.9345 17.7867V17.3356C17.9345 17.169 17.9345 17.0856 17.888 17.0299C17.8804 17.0208 17.8719 17.0124 17.8628 17.0048C17.8072 16.9582 17.724 16.9582 17.5577 16.9582C17.3913 16.9582 17.3081 16.9582 17.2525 16.9116C17.2434 16.904 17.235 16.8956 17.2274 16.8865C17.1809 16.8308 17.1809 16.7474 17.1809 16.5808V16.5591C17.1809 16.3715 17.1809 16.2777 17.2388 16.2192L17.2399 16.218C17.2983 16.16 17.392 16.16 17.5793 16.16H18.5879Z" fill="currentcolor" />
  <path d="M14.0218 13.6664C14.2101 13.6664 14.3043 13.6664 14.3628 13.725C14.4213 13.7836 14.4213 13.8779 14.4213 14.0666V18.5999C14.4213 18.7885 14.4213 18.8828 14.3628 18.9414C14.3043 19 14.2101 19 14.0218 19H13.6329C13.5129 19 13.4529 19 13.4047 18.9702C13.3565 18.9404 13.3296 18.8867 13.2758 18.7793L12.4716 17.1734C12.1722 16.5756 12.0225 16.2767 11.8688 16.3132C11.7151 16.3496 11.7151 16.684 11.7151 17.3528V18.5999C11.7151 18.7885 11.7151 18.8828 11.6566 18.9414C11.5982 19 11.504 19 11.3157 19H11.0979C10.9097 19 10.8155 19 10.757 18.9414C10.6985 18.8828 10.6985 18.7885 10.6985 18.5999V14.0666C10.6985 13.8779 10.6985 13.7836 10.757 13.725C10.8155 13.6664 10.9097 13.6664 11.0979 13.6664H11.4721C11.5921 13.6664 11.6521 13.6664 11.7004 13.6963C11.7486 13.7262 11.7755 13.7799 11.8292 13.8875L12.648 15.526C12.9474 16.1251 13.0971 16.4247 13.2509 16.3883C13.4046 16.3519 13.4046 16.0169 13.4046 15.3469V14.0666C13.4046 13.8779 13.4046 13.7836 13.4631 13.725C13.5216 13.6664 13.6158 13.6664 13.8041 13.6664H14.0218Z" fill="currentcolor" />
  <path fill-rule="evenodd" d="M8.27397 17.0428H7.92796C7.7394 17.0428 7.64512 17.0428 7.58654 17.1014C7.52796 17.1599 7.52796 17.2542 7.52796 17.4428V18.5219C7.52796 18.7105 7.52796 18.8048 7.46947 18.8634C7.41097 18.922 7.31682 18.922 7.12853 18.922H6.85957C6.67128 18.922 6.57713 18.922 6.51863 18.8634C6.46014 18.8048 6.46014 18.7105 6.46014 18.5219V13.9885C6.46014 13.7999 6.46014 13.7056 6.51863 13.647C6.57713 13.5884 6.67128 13.5884 6.85957 13.5884H8.27397C8.63235 13.5884 8.94075 13.6641 9.19918 13.8155C9.4576 13.967 9.65507 14.1757 9.7916 14.4419C9.93056 14.7057 10 15.0085 10 15.3504C10 15.6947 9.93056 15.9939 9.7916 16.2479C9.65507 16.4994 9.4576 16.6948 9.19918 16.834C8.94075 16.9732 8.63235 17.0428 8.27397 17.0428ZM7.52796 15.7526C7.52796 15.9412 7.52796 16.0355 7.58654 16.0941C7.64512 16.1526 7.7394 16.1526 7.92796 16.1526H8.27397C8.42513 16.1526 8.54824 16.1184 8.64332 16.0501C8.74084 15.9817 8.81154 15.8877 8.85542 15.768C8.89931 15.6459 8.92125 15.5091 8.92125 15.3577C8.92125 15.2039 8.89809 15.061 8.85177 14.9291C8.80789 14.7948 8.7384 14.6861 8.64332 14.6031C8.55068 14.5201 8.42756 14.4786 8.27397 14.4786H7.92739C7.7391 14.4786 7.64495 14.4786 7.58646 14.5372C7.52796 14.5958 7.52796 14.6901 7.52796 14.8787V15.7526Z" fill="currentcolor" />
</svg>
