<svg
  xmlns="http://www.w3.org/2000/svg"
  width="20"
  height="20"
  viewBox="0 0 20 20"
  fill="none"
>
  <path
    d="M8.65983 1.00004C8.86935 0.999894 9.06002 0.999764 9.23853 1.00779L9.23853 2.74957C9.2385 3.64831 9.23848 4.39774 9.31838 4.99269C9.40272 5.62067 9.58824 6.18763 10.0434 6.64323C10.4985 7.09883 11.0648 7.28455 11.6921 7.36898C12.2864 7.44897 13.0351 7.44895 13.9328 7.44892L15.6671 7.44892C15.681 7.69146 15.6808 7.95126 15.6805 8.23511L15.6804 11.6829C15.6804 11.8555 15.6804 12.023 15.6802 12.1853H7.5752C6.54307 12.1853 6.027 12.1853 5.70635 12.5555C5.38571 12.9256 5.38571 13.5213 5.38571 14.7128V18.9243C4.63697 18.8546 4.00309 18.7117 3.4304 18.3912C2.66414 17.9624 2.03168 17.3293 1.60335 16.5622C1.27631 15.9765 1.13438 15.3269 1.06641 14.5562C0.999989 13.8028 0.999994 12.8656 1 11.6829V8.54346C0.999992 7.25247 0.999986 6.2295 1.07862 5.41027C1.15914 4.57141 1.3275 3.86818 1.71427 3.24474C2.09934 2.62403 2.62222 2.10059 3.24226 1.71511C3.86504 1.32793 4.56751 1.15939 5.40547 1.07878C6.22383 1.00006 7.2457 1.00007 8.53531 1.00008L8.65983 1.00004Z"
    fill="currentColor"
  />
  <path
    d="M11.457 2.1599C11.1947 1.89701 10.9743 1.67602 10.7374 1.50259V2.69756C10.7374 3.66185 10.7389 4.30959 10.8038 4.79277C10.8658 5.25436 10.973 5.45191 11.1032 5.58227C11.2334 5.71262 11.4307 5.81987 11.8918 5.88193C12.3745 5.9469 13.0215 5.94849 13.9848 5.94849H15.1683C14.9581 5.66359 14.6874 5.39315 14.3757 5.08174L11.457 2.1599Z"
    fill="currentColor"
  />
  <path
    fill-rule="evenodd"
    clip-rule="evenodd"
    d="M7.9529 17.1208H8.69939C9.05799 17.1208 9.36659 17.0512 9.62517 16.912C9.88376 16.7728 10.0814 16.5774 10.218 16.3259C10.357 16.0719 10.4265 15.7728 10.4265 15.4284C10.4265 15.0865 10.357 14.7837 10.218 14.52C10.0814 14.2538 9.88376 14.045 9.62517 13.8936C9.36659 13.7422 9.05799 13.6665 8.69939 13.6665H7.28409C7.09568 13.6665 7.00147 13.6665 6.94294 13.725C6.88441 13.7836 6.88441 13.8779 6.88441 14.0666V18.5999C6.88441 18.7885 6.88441 18.8828 6.94294 18.9414C7.00147 19 7.09568 19 7.28409 19H7.55322C7.74163 19 7.83584 19 7.89437 18.9414C7.9529 18.8828 7.9529 18.7885 7.9529 18.5999V17.1208ZM8.69939 16.2307H7.9529V14.9567C7.9529 14.7681 7.9529 14.6738 8.01144 14.6152C8.06997 14.5566 8.16418 14.5566 8.35259 14.5566H8.69939C8.85308 14.5566 8.97627 14.5981 9.06897 14.6811C9.16411 14.7642 9.23363 14.8728 9.27755 15.0072C9.3239 15.139 9.34707 15.2819 9.34707 15.4358C9.34707 15.5872 9.32512 15.7239 9.28121 15.846C9.23729 15.9657 9.16655 16.0597 9.06897 16.1281C8.97383 16.1965 8.85064 16.2307 8.69939 16.2307Z"
    fill="currentColor"
  />
  <path
    fill-rule="evenodd"
    clip-rule="evenodd"
    d="M12.2871 17.1208H13.0336C13.3922 17.1208 13.7008 17.0512 13.9594 16.912C14.218 16.7728 14.4156 16.5774 14.5522 16.3259C14.6913 16.0719 14.7608 15.7728 14.7608 15.4284C14.7608 15.0865 14.6913 14.7837 14.5522 14.52C14.4156 14.2538 14.218 14.045 13.9594 13.8936C13.7008 13.7422 13.3922 13.6665 13.0336 13.6665H11.6183C11.4299 13.6665 11.3357 13.6665 11.2772 13.725C11.2186 13.7836 11.2186 13.8779 11.2186 14.0666V18.5999C11.2186 18.7885 11.2186 18.8828 11.2772 18.9414C11.3357 19 11.4299 19 11.6183 19H11.8875C12.0759 19 12.1701 19 12.2286 18.9414C12.2871 18.8828 12.2871 18.7885 12.2871 18.5999V17.1208ZM13.0336 16.2307H12.2871V14.9567C12.2871 14.7681 12.2871 14.6738 12.3457 14.6152C12.4042 14.5566 12.4984 14.5566 12.6868 14.5566H13.0336C13.1873 14.5566 13.3105 14.5981 13.4032 14.6811C13.4983 14.7642 13.5679 14.8728 13.6118 15.0072C13.6581 15.139 13.6813 15.2819 13.6813 15.4358C13.6813 15.5872 13.6594 15.7239 13.6154 15.846C13.5715 15.9657 13.5008 16.0597 13.4032 16.1281C13.3081 16.1965 13.1849 16.2307 13.0336 16.2307Z"
    fill="currentColor"
  />
  <path
    d="M17.0102 18.9952H17.2757C17.4641 18.9952 17.5583 18.9952 17.6168 18.9366C17.6754 18.878 17.6754 18.7837 17.6754 18.5951V14.9519C17.6754 14.7633 17.6754 14.669 17.7339 14.6104C17.7924 14.5518 17.8866 14.5518 18.075 14.5518H18.6003C18.7887 14.5518 18.8829 14.5518 18.9415 14.4932C19 14.4346 19 14.3403 19 14.1517V14.0618C19 13.8732 19 13.7789 18.9415 13.7203C18.8829 13.6617 18.7887 13.6617 18.6003 13.6617H15.7112C15.5228 13.6617 15.4286 13.6617 15.37 13.7203C15.3115 13.7789 15.3115 13.8732 15.3115 14.0618V14.1517C15.3115 14.3403 15.3115 14.4346 15.37 14.4932C15.4286 14.5518 15.5228 14.5518 15.7112 14.5518H16.2108C16.3993 14.5518 16.4935 14.5518 16.552 14.6104C16.6105 14.669 16.6105 14.7633 16.6105 14.952V18.5951C16.6105 18.7837 16.6105 18.878 16.6691 18.9366C16.7276 18.9952 16.8218 18.9952 17.0102 18.9952Z"
    fill="currentColor"
  />
</svg>
