<svg width="20" height="20" viewBox="0 0 20 20" fill="currentcolor" xmlns="http://www.w3.org/2000/svg">
  <path d="M8.64084 1.00516C8.85022 1.00502 9.04077 1.00489 9.21917 1.01292L9.21917 2.7547C9.21914 3.65344 9.21912 4.40287 9.29897 4.99782C9.38326 5.62579 9.56866 6.19276 10.0235 6.64836C10.4783 7.10396 11.0443 7.28968 11.6712 7.37411C12.2651 7.4541 13.0133 7.45407 13.9105 7.45404L15.6437 7.45404C15.6576 7.69659 15.6574 7.95639 15.6571 8.24024L15.657 11.6881C15.657 11.8277 15.657 11.964 15.6569 12.0969H8.02652C7.03844 12.0969 6.5444 12.0969 6.23744 12.467C5.93048 12.8372 5.93048 13.4329 5.93048 14.6244V18.9683C5.75047 18.9594 5.57962 18.9482 5.41732 18.9338C4.64785 18.8658 3.99937 18.7237 3.4147 18.3963C2.64893 17.9675 2.01687 17.3344 1.5888 16.5673C1.26198 15.9817 1.12013 15.3321 1.05221 14.5613C0.985829 13.808 0.985834 12.8707 0.98584 11.688V8.54858C0.985832 7.2576 0.985826 6.23463 1.06441 5.4154C1.14488 4.57654 1.31314 3.87331 1.69966 3.24986C2.08449 2.62916 2.60703 2.10572 3.22668 1.72024C3.84907 1.33306 4.5511 1.16452 5.38853 1.08391C6.20637 1.00519 7.2276 1.00519 8.5164 1.0052L8.64084 1.00516Z" fill="currentcolor" />
  <path d="M11.4362 2.16502C11.1741 1.90214 10.9538 1.68115 10.717 1.50772V2.70269C10.717 3.66697 10.7186 4.31472 10.7835 4.79789C10.8454 5.25949 10.9525 5.45704 11.0826 5.58739C11.2128 5.71775 11.41 5.825 11.8708 5.88706C12.3532 5.95202 12.9998 5.95361 13.9624 5.95361H15.1452C14.9351 5.66871 14.6646 5.39827 14.3531 5.08687L11.4362 2.16502Z" fill="currentcolor" />
  <path d="M17.9323 17.5486C17.9323 17.4546 17.9239 17.3691 17.907 17.292C17.8902 17.2149 17.8541 17.1438 17.7988 17.0788C17.7459 17.0137 17.6677 16.9487 17.5643 16.8836C17.4633 16.8185 17.331 16.7511 17.1674 16.6812C16.9726 16.5993 16.7837 16.5125 16.6009 16.421C16.4181 16.327 16.2534 16.2186 16.1066 16.0957C15.9599 15.9728 15.8432 15.8283 15.7567 15.662C15.6725 15.4933 15.6304 15.2958 15.6304 15.0693C15.6304 14.8476 15.6701 14.6464 15.7494 14.4657C15.8312 14.285 15.9467 14.1308 16.0958 14.0031C16.2449 13.873 16.4193 13.773 16.619 13.7031C16.821 13.6333 17.0459 13.5983 17.2937 13.5983C17.6304 13.5983 17.9215 13.6682 18.1668 13.8079C18.4146 13.9477 18.6058 14.1392 18.7405 14.3826C18.817 14.5184 18.8722 14.6654 18.906 14.8237C18.9414 14.9896 18.9591 15.0726 18.8992 15.1468C18.8392 15.2211 18.7417 15.2211 18.5467 15.2211H18.292C18.1331 15.2211 18.0536 15.2211 18.0025 15.1859C17.9513 15.1506 17.9101 15.0428 17.8277 14.8271C17.7868 14.7115 17.7206 14.6211 17.6292 14.5561C17.5378 14.491 17.42 14.4585 17.2756 14.4585C17.1409 14.4585 17.0291 14.4862 16.9401 14.5416C16.8535 14.5946 16.7885 14.6681 16.7453 14.7621C16.7044 14.8536 16.6839 14.9572 16.6839 15.0729C16.6839 15.1596 16.7044 15.2379 16.7453 15.3078C16.7885 15.3753 16.8475 15.4367 16.922 15.4921C16.9966 15.5452 17.0844 15.597 17.1854 15.6476C17.2889 15.6982 17.4019 15.7475 17.5246 15.7957C17.7627 15.8897 17.9732 15.9933 18.156 16.1066C18.3388 16.2174 18.4915 16.3427 18.6142 16.4824C18.7369 16.6198 18.8295 16.7752 18.892 16.9487C18.9546 17.1221 18.9858 17.3197 18.9858 17.5414C18.9858 17.7606 18.9474 17.9606 18.8704 18.1413C18.7958 18.3196 18.6864 18.4738 18.5421 18.604C18.3977 18.7317 18.2233 18.8304 18.0189 18.9003C17.8168 18.9702 17.5907 19.0051 17.3406 19.0051C17.0976 19.0051 16.8679 18.9714 16.6514 18.9039C16.435 18.8341 16.2437 18.7292 16.0778 18.5895C15.9142 18.4473 15.7855 18.2678 15.6917 18.051C15.6424 17.9357 15.6061 17.8095 15.5827 17.6723C15.5535 17.5015 15.539 17.416 15.5988 17.345C15.6587 17.2739 15.7559 17.2739 15.9504 17.2739H16.2087C16.3774 17.2739 16.4617 17.2739 16.5156 17.3155C16.5695 17.3571 16.5969 17.4616 16.6519 17.6706C16.6529 17.6745 16.654 17.6784 16.6551 17.6823C16.6863 17.7932 16.7344 17.8823 16.7994 17.9498C16.8643 18.0148 16.9437 18.0642 17.0375 18.098C17.1337 18.1293 17.2432 18.145 17.3658 18.145C17.5053 18.145 17.616 18.1184 17.6978 18.0654C17.782 18.0124 17.8421 17.9414 17.8782 17.8522C17.9143 17.7631 17.9323 17.6619 17.9323 17.5486Z" fill="currentcolor" />
  <path d="M8.43793 13.6716C8.56574 13.6716 8.62964 13.6716 8.67968 13.7046C8.72972 13.7377 8.75486 13.7966 8.80515 13.9143L9.0858 14.5711C9.24613 14.9464 9.32629 15.134 9.45931 15.1328C9.59233 15.1317 9.6692 14.9427 9.82293 14.5647L10.0848 13.9207C10.1339 13.8 10.1585 13.7397 10.209 13.7056C10.2596 13.6716 10.3246 13.6716 10.4547 13.6716H10.7287C11.0153 13.6716 11.1587 13.6716 11.2173 13.7656C11.276 13.8595 11.2133 13.9886 11.0878 14.2468L10.1689 16.1375C10.1271 16.2236 10.1062 16.2666 10.1062 16.3127C10.1062 16.3588 10.1271 16.4018 10.1689 16.4879L11.1132 18.4298C11.2388 18.688 11.3015 18.8171 11.2429 18.9111C11.1842 19.0051 11.0408 19.0051 10.7541 19.0051H10.4306C10.3015 19.0051 10.2369 19.0051 10.1866 18.9715C10.1363 18.9379 10.1115 18.8782 10.0618 18.7589L9.77598 18.0714C9.61893 17.6937 9.54041 17.5048 9.40725 17.5048C9.27408 17.5048 9.19556 17.6937 9.03852 18.0714L8.75266 18.7589C8.70303 18.8782 8.67821 18.9379 8.62789 18.9715C8.57758 19.0051 8.51303 19.0051 8.38393 19.0051H8.08837C7.8007 19.0051 7.65687 19.0051 7.59824 18.9108C7.53961 18.8166 7.60302 18.6872 7.72986 18.4286L8.69116 16.4683C8.73391 16.3812 8.75529 16.3376 8.75517 16.2908C8.75504 16.244 8.73343 16.2005 8.69021 16.1136L7.76391 14.25C7.63502 13.9907 7.57057 13.8611 7.62913 13.7663C7.68769 13.6716 7.83229 13.6716 8.12148 13.6716H8.43793Z" fill="currentcolor" />
  <path d="M14.9784 18.605V18.5188C14.9784 18.3301 14.9784 18.2358 14.9199 18.1772C14.8614 18.1186 14.7673 18.1186 14.579 18.1186H13.0951V14.0717C13.0951 13.8831 13.0951 13.7888 13.0366 13.7302C12.9781 13.6716 12.884 13.6716 12.6957 13.6716H12.4231C12.2348 13.6716 12.1406 13.6716 12.0821 13.7302C12.0236 13.7888 12.0236 13.8831 12.0236 14.0717V18.605C12.0236 18.7936 12.0236 18.8879 12.0821 18.9465C12.1406 19.0051 12.2348 19.0051 12.4231 19.0051H14.579C14.7673 19.0051 14.8614 19.0051 14.9199 18.9465C14.9784 18.8879 14.9784 18.7936 14.9784 18.605Z" fill="currentcolor" />
</svg>
