<svg width="20" height="20" viewBox="0 0 20 20" fill="currentcolor" xmlns="http://www.w3.org/2000/svg">
  <path d="M8.65981 1.00004C8.86933 0.999894 9.06 0.999764 9.23851 1.00779L9.23851 2.74976C9.23848 3.6486 9.23845 4.39811 9.31836 4.99313C9.40269 5.62117 9.58822 6.18819 10.0433 6.64384C10.4984 7.09949 11.0648 7.28523 11.6921 7.36967C12.2864 7.44967 13.035 7.44965 13.9328 7.44962L15.6671 7.44962C15.681 7.69219 15.6807 7.95202 15.6805 8.2359L15.6804 11.6841C15.6804 11.8079 15.6804 11.9291 15.6803 12.0476H7.26612C6.20609 12.0476 5.67607 12.0476 5.34677 12.4177C5.01746 12.7879 5.01746 13.3837 5.01746 14.5753V18.8844C4.4255 18.8034 3.90678 18.6597 3.43039 18.3931C2.66413 17.9642 2.03168 17.331 1.60334 16.5639C1.27631 15.9782 1.13438 15.3285 1.06641 14.5576C0.999989 13.8042 0.999994 12.8669 1 11.6841V8.54428C0.999992 7.25315 0.999986 6.23007 1.07862 5.41075C1.15914 4.5718 1.3275 3.86849 1.71427 3.24498C2.09934 2.62421 2.62221 2.10071 3.24225 1.71519C3.86503 1.32797 4.5675 1.15941 5.40546 1.07879C6.22381 1.00006 7.24569 1.00007 8.53529 1.00008L8.65981 1.00004Z" fill="currentcolor" />
  <path d="M11.4569 2.16002C11.1947 1.89711 10.9742 1.6761 10.7373 1.50265V2.69774C10.7373 3.66214 10.7389 4.30995 10.8038 4.79318C10.8658 5.25482 10.9729 5.4524 11.1032 5.58276C11.2334 5.71313 11.4307 5.8204 11.8918 5.88246C12.3745 5.94743 13.0215 5.94903 13.9848 5.94903H15.1682C14.958 5.66409 14.6874 5.39362 14.3757 5.08219L11.4569 2.16002Z" fill="currentcolor" />
  <path d="M17.9099 17.5368C17.9454 17.3408 17.9632 17.2429 18.0188 17.1964C18.0744 17.1499 18.1611 17.1499 18.3344 17.1499H18.5962C18.7963 17.1499 18.8964 17.1499 18.9563 17.2214C19.0162 17.2929 19.0003 17.3827 18.9686 17.5625C18.9288 17.7884 18.8624 17.9892 18.7693 18.1647C18.6229 18.4383 18.4143 18.6459 18.1436 18.7875C17.8752 18.9292 17.5508 19 17.1702 19C16.875 19 16.6128 18.9512 16.3835 18.8535C16.1542 18.7533 15.959 18.6068 15.798 18.4138C15.637 18.2209 15.515 17.9828 15.4321 17.6994C15.3516 17.4137 15.3113 17.0852 15.3113 16.7139V15.809C15.3113 15.4378 15.354 15.1093 15.4394 14.8236C15.5272 14.5378 15.6516 14.2984 15.8126 14.1055C15.9761 13.9101 16.1725 13.7636 16.4018 13.6659C16.6335 13.5657 16.8946 13.5157 17.1849 13.5157C17.5727 13.5157 17.8972 13.5889 18.1582 13.7355C18.4192 13.882 18.6205 14.0957 18.762 14.3766C18.852 14.5508 18.9197 14.7495 18.9648 14.9725C19.0026 15.1587 19.0214 15.2519 18.9614 15.3253C18.9015 15.3987 18.7983 15.3987 18.592 15.3987H18.3416C18.1675 15.3987 18.0804 15.3987 18.0247 15.3517C17.9689 15.3047 17.952 15.207 17.9183 15.0118C17.9046 14.9321 17.8869 14.862 17.8655 14.8016C17.8167 14.655 17.7386 14.5525 17.6313 14.4938C17.5239 14.4328 17.3751 14.4022 17.1849 14.4022C17.0434 14.4022 16.9214 14.4279 16.8189 14.4792C16.7165 14.528 16.6323 14.6074 16.5664 14.7173C16.5006 14.8272 16.4518 14.9713 16.4201 15.1496C16.3908 15.3279 16.3762 15.5453 16.3762 15.8017V16.7139C16.3762 16.9655 16.3896 17.1804 16.4164 17.3587C16.4432 17.5346 16.4859 17.6787 16.5445 17.791C16.603 17.9034 16.6823 17.9852 16.7823 18.0365C16.8848 18.0878 17.0141 18.1134 17.1702 18.1134C17.3507 18.1134 17.4959 18.0866 17.6057 18.0328C17.7179 17.9791 17.8008 17.8826 17.8545 17.7434C17.877 17.6849 17.8955 17.616 17.9099 17.5368Z" fill="currentcolor" />
  <path d="M14.552 15.8457V16.7359C14.552 17.1121 14.5057 17.4418 14.413 17.7251C14.3227 18.006 14.1934 18.2416 14.0251 18.4321C13.8592 18.6202 13.658 18.7619 13.4213 18.8571C13.1872 18.9524 12.9273 19 12.6419 19C12.3565 19 12.0955 18.9524 11.8589 18.8571C11.6247 18.7619 11.4222 18.6202 11.2514 18.4321C11.0831 18.2416 10.9526 18.006 10.8599 17.7251C10.7672 17.4418 10.7208 17.1121 10.7208 16.7359V15.8457C10.7208 15.4598 10.766 15.1227 10.8562 14.8345C10.9465 14.5439 11.077 14.3021 11.2478 14.1092C11.4185 13.9138 11.621 13.7672 11.8552 13.6695C12.0894 13.5694 12.3492 13.5193 12.6346 13.5193C12.92 13.5193 13.1798 13.5694 13.414 13.6695C13.6482 13.7672 13.8507 13.9138 14.0215 14.1092C14.1922 14.3021 14.3227 14.5439 14.413 14.8345C14.5057 15.1227 14.552 15.4598 14.552 15.8457ZM13.4872 16.7359V15.8384C13.4872 15.5844 13.4689 15.3682 13.4323 15.1899C13.3957 15.0092 13.3408 14.8614 13.2677 14.7466C13.1945 14.6318 13.1054 14.5476 13.0005 14.4938C12.8956 14.4401 12.7737 14.4132 12.6346 14.4132C12.4956 14.4132 12.3724 14.4401 12.265 14.4938C12.1601 14.5476 12.0711 14.6318 11.9979 14.7466C11.9272 14.8614 11.8735 15.0092 11.8369 15.1899C11.8027 15.3682 11.7857 15.5844 11.7857 15.8384V16.7359C11.7857 16.9802 11.804 17.189 11.8406 17.3624C11.8772 17.5358 11.932 17.6775 12.0052 17.7874C12.0784 17.8973 12.1675 17.9791 12.2723 18.0328C12.3797 18.0841 12.5029 18.1098 12.6419 18.1098C12.7785 18.1098 12.8993 18.0841 13.0042 18.0328C13.1115 17.9791 13.2006 17.8973 13.2713 17.7874C13.3421 17.6775 13.3957 17.5358 13.4323 17.3624C13.4689 17.189 13.4872 16.9802 13.4872 16.7359Z" fill="currentcolor" />
  <path fill-rule="evenodd" d="M7.8869 18.9267H6.89608C6.70766 18.9267 6.61346 18.9267 6.55492 18.8681C6.49639 18.8095 6.49639 18.7152 6.49639 18.5266V13.9928C6.49639 13.8041 6.49639 13.7098 6.55492 13.6512C6.61346 13.5926 6.70766 13.5926 6.89608 13.5926H7.90153C8.20891 13.5926 8.48823 13.6427 8.73949 13.7428C8.99076 13.8429 9.20665 13.9895 9.38718 14.1824C9.5677 14.3729 9.70675 14.6086 9.80433 14.8895C9.90191 15.1704 9.9507 15.4903 9.9507 15.8493V16.6736C9.9507 17.0351 9.90191 17.3551 9.80433 17.6335C9.70675 17.9119 9.5677 18.1476 9.38718 18.3406C9.20909 18.5311 8.9932 18.6764 8.73949 18.7765C8.48579 18.8767 8.20159 18.9267 7.8869 18.9267ZM7.8869 18.0401C8.14548 18.0401 8.34674 17.9937 8.49067 17.9009C8.6346 17.8081 8.73583 17.6616 8.79438 17.4613C8.85537 17.261 8.88586 16.9985 8.88586 16.6736V15.842C8.88586 15.5953 8.87001 15.3865 8.83829 15.2156C8.80658 15.0421 8.75291 14.9029 8.67729 14.7979C8.60166 14.6904 8.50042 14.6111 8.37357 14.5598C8.24672 14.5085 8.08937 14.4828 7.90153 14.4828C7.77709 14.4828 7.71487 14.4828 7.66852 14.5096C7.6381 14.5272 7.61284 14.5525 7.59529 14.5829C7.56854 14.6293 7.56854 14.6916 7.56854 14.8162V17.7214C7.56854 17.8322 7.56854 17.8875 7.58983 17.9299C7.60912 17.9683 7.64026 17.9995 7.67864 18.0188C7.72099 18.0401 7.77629 18.0401 7.8869 18.0401Z" fill="currentcolor" />
</svg>
