<svg
  xmlns="http://www.w3.org/2000/svg"
  width="20"
  height="20"
  viewBox="0 0 20 20"
  fill="none"
>
  <path
    fill-rule="evenodd"
    clip-rule="evenodd"
    d="M10.4242 6.88741e-05C10.6836 -0.000183928 10.9211 -0.000415323 11.1427 0.0125281L11.1427 2.60662C11.1427 3.44241 11.1427 4.13935 11.2158 4.69264C11.2929 5.27663 11.4627 5.80389 11.8791 6.22758C12.2955 6.65127 12.8138 6.82399 13.3877 6.9025C13.9315 6.97689 14.6165 6.97687 15.438 6.97684L17.9877 6.97684C18.0004 7.2024 18.0002 7.44402 17.9999 7.708L17.9999 11.913C17.9999 13.6226 17.9999 14.9766 17.8599 16.0363C17.7157 17.1269 17.4121 18.0097 16.7279 18.7058C16.0437 19.402 15.1761 19.7109 14.1041 19.8575C13.0626 20 11.7317 20 10.0515 20H9.94832C8.26813 20 6.93726 20 5.89572 19.8575C4.8238 19.7109 3.9562 19.402 3.27198 18.7058C2.58777 18.0097 2.28412 17.1269 2.14001 16.0363C1.99998 14.9766 1.99999 13.6225 2 11.913V8.08712C1.99999 6.3776 1.99998 5.02353 2.14001 3.96381C2.28412 2.87319 2.58777 1.99046 3.27198 1.29431C3.9562 0.598164 4.8238 0.28922 5.89572 0.14259C6.93728 0.000113398 8.26813 0.000125152 9.94835 0.0001399L10.4242 6.88741e-05ZM12.441 9.89349C12.106 9.64986 11.637 9.72392 11.3933 10.0589L9.99996 11.9748L8.60656 10.0589C8.36293 9.72392 7.89387 9.64986 7.55888 9.89349C7.22389 10.1371 7.14983 10.6062 7.39346 10.9412L9.07258 13.25L7.39335 15.5589C7.14972 15.8939 7.22378 16.363 7.55877 16.6066C7.89376 16.8502 8.36283 16.7762 8.60645 16.4412L9.99996 14.5251L11.3935 16.4412C11.6371 16.7762 12.1061 16.8502 12.4411 16.6066C12.7761 16.363 12.8502 15.8939 12.6066 15.5589L10.9273 13.25L12.6065 10.9412C12.8501 10.6062 12.776 10.1371 12.441 9.89349Z"
    fill="currentColor"
  />
  <path
    d="M13.3064 1.21477C13.0218 0.924602 12.7746 0.672612 12.5142 0.476923L12.5141 2.55825C12.5141 3.455 12.5156 4.05738 12.575 4.50672C12.6317 4.93598 12.7297 5.1197 12.8489 5.24093C12.968 5.36215 13.1486 5.46189 13.5705 5.51961C14.0121 5.58002 14.6042 5.5815 15.4855 5.5815H17.5312C17.3389 5.31655 17.0912 5.06505 16.8061 4.77545L13.3064 1.21477Z"
    fill="currentColor"
  />
</svg>
