<svg
  xmlns="http://www.w3.org/2000/svg"
  width="20"
  height="20"
  viewBox="0 0 20 20"
  fill="none"
>
  <path
    d="M8.6517 1.00541C8.86138 1.00527 9.0522 1.00513 9.23085 1.01316L9.23085 2.75445C9.23082 3.65293 9.2308 4.40215 9.31077 4.99693C9.39517 5.62472 9.58084 6.19152 10.0363 6.64699C10.4918 7.10246 11.0586 7.28813 11.6864 7.37254C12.2811 7.4525 13.0304 7.45248 13.9289 7.45245L15.6645 7.45245C15.6784 7.69492 15.6782 7.95465 15.6779 8.23842L15.6778 11.6853C15.6778 11.8358 15.6778 11.9825 15.6777 12.1252H7.4653C6.42324 12.1252 5.90221 12.1252 5.57849 12.4953C5.25476 12.8653 5.25476 13.4609 5.25476 14.652V18.9126C4.55743 18.8389 3.96039 18.6947 3.41815 18.3916C2.65129 17.9629 2.01833 17.33 1.58966 16.5631C1.26237 15.9776 1.12032 15.3282 1.05231 14.5577C0.985828 13.8046 0.985834 12.8676 0.98584 11.6852V8.54668C0.985832 7.25606 0.985826 6.23338 1.06453 5.41439C1.14511 4.57577 1.3136 3.87274 1.70067 3.24947C2.08604 2.62894 2.60933 2.10565 3.22986 1.72028C3.85313 1.33321 4.55616 1.16472 5.39478 1.08413C6.21378 1.00543 7.23646 1.00544 8.52708 1.00545L8.6517 1.00541Z"
    fill="currentColor"
  />
  <path
    d="M11.451 2.16494C11.1886 1.90213 10.968 1.6812 10.7309 1.50782V2.70245C10.7309 3.66646 10.7324 4.31402 10.7974 4.79706C10.8594 5.25852 10.9667 5.45602 11.097 5.58633C11.2273 5.71665 11.4248 5.82387 11.8862 5.88591C12.3693 5.95086 13.0168 5.95245 13.9809 5.95245H15.1653C14.9549 5.66763 14.684 5.39726 14.3721 5.08595L11.451 2.16494Z"
    fill="currentColor"
  />
  <path
    d="M18.4676 13.5949H18.1578C18.0066 13.5949 17.931 13.5949 17.8765 13.6378C17.8221 13.6807 17.8044 13.7542 17.7689 13.9012L17.2931 15.8751C17.1387 16.516 17.0614 16.8364 16.9038 16.8363C16.7463 16.8363 16.6693 16.5158 16.5153 15.8748L16.0414 13.9015C16.0061 13.7544 15.9884 13.6808 15.9339 13.6379C15.8795 13.5949 15.8038 13.5949 15.6525 13.5949H15.3529C15.1092 13.5949 14.9874 13.5949 14.9274 13.6747C14.8674 13.7544 14.9011 13.8714 14.9685 14.1056L16.2727 18.6376C16.3128 18.7769 16.3328 18.8465 16.3862 18.8868C16.4397 18.927 16.5121 18.927 16.6571 18.927H17.1541C17.2987 18.927 17.3711 18.927 17.4245 18.8869C17.4778 18.8468 17.498 18.7773 17.5382 18.6383L18.8518 14.1063C18.9197 13.8719 18.9537 13.7547 18.8937 13.6748C18.8337 13.5949 18.7117 13.5949 18.4676 13.5949Z"
    fill="currentColor"
  />
  <path
    d="M13.3036 17.5244C13.3036 17.4292 13.295 17.3425 13.278 17.2644C13.2609 17.1862 13.2242 17.1142 13.1681 17.0483C13.1144 16.9824 13.035 16.9165 12.9301 16.8506C12.8275 16.7846 12.6932 16.7163 12.5272 16.6455C12.3295 16.5625 12.1378 16.4746 11.9523 16.3818C11.7667 16.2866 11.5995 16.1767 11.4506 16.0522C11.3016 15.9277 11.1832 15.7812 11.0953 15.6128C11.0099 15.4419 10.9672 15.2417 10.9672 15.0122C10.9672 14.7876 11.0074 14.5837 11.088 14.4006C11.171 14.2175 11.2882 14.0612 11.4396 13.9319C11.5909 13.8 11.7679 13.6987 11.9706 13.6279C12.1757 13.5571 12.4039 13.5217 12.6554 13.5217C12.9972 13.5217 13.2926 13.5925 13.5416 13.7341C13.7931 13.8757 13.9872 14.0698 14.1239 14.3164C14.2024 14.4555 14.2588 14.6063 14.293 14.7687C14.328 14.9349 14.3455 15.018 14.2855 15.092C14.2255 15.166 14.1278 15.166 13.9326 15.166H13.6633C13.5029 15.166 13.4228 15.166 13.3713 15.1303C13.3199 15.0946 13.2799 14.9875 13.1998 14.7732C13.199 14.7711 13.1982 14.7689 13.1974 14.7668C13.1559 14.6496 13.0887 14.5581 12.996 14.4922C12.9032 14.4262 12.7836 14.3933 12.6371 14.3933C12.5004 14.3933 12.3868 14.4214 12.2965 14.4775C12.2086 14.5312 12.1427 14.6057 12.0988 14.7009C12.0573 14.7937 12.0365 14.8987 12.0365 15.0158C12.0365 15.1037 12.0573 15.1831 12.0988 15.2539C12.1427 15.3222 12.2025 15.3845 12.2782 15.4406C12.3539 15.4944 12.443 15.5468 12.5455 15.5981C12.6505 15.6494 12.7653 15.6994 12.8898 15.7483C13.1315 15.8435 13.3451 15.9485 13.5306 16.0632C13.7162 16.1755 13.8712 16.3025 13.9957 16.4441C14.1202 16.5832 14.2142 16.7407 14.2777 16.9165C14.3412 17.0923 14.3729 17.2924 14.3729 17.5171C14.3729 17.7392 14.3339 17.9419 14.2557 18.125C14.1801 18.3056 14.069 18.4619 13.9225 18.5937C13.776 18.7231 13.599 18.8232 13.3915 18.894C13.1864 18.9648 12.9569 19.0002 12.703 19.0002C12.4564 19.0002 12.2233 18.966 12.0035 18.8977C11.7838 18.8269 11.5897 18.7207 11.4213 18.5791C11.2552 18.435 11.1246 18.2531 11.0294 18.0334C10.9787 17.9152 10.9415 17.7855 10.9178 17.6444C10.8891 17.4733 10.8747 17.3877 10.9346 17.3169C10.9946 17.2461 11.0919 17.2461 11.2866 17.2461H11.5596C11.7291 17.2461 11.8138 17.2461 11.8679 17.288C11.922 17.3299 11.9489 17.4342 12.0026 17.6427C12.0041 17.6485 12.0056 17.6542 12.0072 17.6599C12.0389 17.7722 12.0878 17.8625 12.1537 17.9309C12.2196 17.9968 12.3002 18.0468 12.3954 18.081C12.493 18.1128 12.6041 18.1286 12.7286 18.1286C12.8702 18.1286 12.9825 18.1018 13.0656 18.0481C13.151 17.9944 13.212 17.9223 13.2487 17.832C13.2853 17.7417 13.3036 17.6391 13.3036 17.5244Z"
    fill="currentColor"
  />
  <path
    d="M9.20082 17.5376C9.23639 17.3417 9.25417 17.2438 9.30983 17.1973C9.36549 17.1508 9.45222 17.1508 9.62567 17.1508H9.88771C10.088 17.1508 10.1881 17.1508 10.248 17.2223C10.308 17.2937 10.2921 17.3836 10.2604 17.5633C10.2206 17.7891 10.1541 17.9898 10.0609 18.1653C9.91443 18.4387 9.70569 18.6462 9.43469 18.7878C9.16614 18.9294 8.84143 19.0002 8.46057 19.0002C8.16516 19.0002 7.90271 18.9514 7.67322 18.8537C7.44373 18.7536 7.24841 18.6071 7.08728 18.4143C6.92615 18.2214 6.80408 17.9834 6.72107 17.7002C6.6405 17.4145 6.60022 17.0862 6.60022 16.7151V15.8105C6.60022 15.4394 6.64294 15.1111 6.72839 14.8254C6.81628 14.5398 6.9408 14.3005 7.10193 14.1076C7.2655 13.9123 7.46204 13.7658 7.69153 13.6682C7.92346 13.5681 8.18469 13.518 8.47522 13.518C8.8634 13.518 9.18811 13.5913 9.44934 13.7378C9.71057 13.8842 9.91199 14.0979 10.0536 14.3786C10.1437 14.5528 10.2114 14.7514 10.2566 14.9743C10.2944 15.1605 10.3132 15.2535 10.2532 15.327C10.1932 15.4004 10.0899 15.4004 9.88345 15.4004H9.63289C9.45864 15.4004 9.37151 15.4004 9.31568 15.3533C9.25985 15.3063 9.24299 15.2088 9.20927 15.0136C9.1955 14.9339 9.17787 14.8638 9.15637 14.8034C9.10754 14.657 9.02942 14.5544 8.922 14.4958C8.81458 14.4348 8.66565 14.4043 8.47522 14.4043C8.33362 14.4043 8.21155 14.4299 8.10901 14.4812C8.00647 14.53 7.92224 14.6093 7.85632 14.7192C7.79041 14.8291 7.74158 14.9731 7.70984 15.1513C7.68054 15.3296 7.66589 15.5468 7.66589 15.8032V16.7151C7.66589 16.9665 7.67932 17.1814 7.70618 17.3596C7.73303 17.5354 7.77576 17.6794 7.83435 17.7917C7.89294 17.904 7.97229 17.9858 8.07239 18.0371C8.17493 18.0883 8.30432 18.114 8.46057 18.114C8.64124 18.114 8.7865 18.0871 8.89636 18.0334C9.00867 17.9797 9.09167 17.8833 9.14539 17.7441C9.16796 17.6856 9.18644 17.6168 9.20082 17.5376Z"
    fill="currentColor"
  />
</svg>
