<svg
  xmlns="http://www.w3.org/2000/svg"
  width="20"
  height="20"
  viewBox="0 0 20 20"
  fill="none"
>
  <path
    fill-rule="evenodd"
    clip-rule="evenodd"
    d="M10.4242 6.8874e-05C10.6837 -0.000183928 10.9211 -0.000415322 11.1428 0.0125281L11.1428 2.60662C11.1428 3.44241 11.1427 4.13935 11.2158 4.69264C11.293 5.27663 11.4628 5.80388 11.8792 6.22758C12.2956 6.65127 12.8138 6.82399 13.3878 6.9025C13.9316 6.97689 14.6166 6.97687 15.4381 6.97684L17.9877 6.97684C18.0005 7.2024 18.0002 7.44402 18 7.708L17.9999 11.913C17.9999 13.6226 17.9999 14.9766 17.8599 16.0363C17.7158 17.1269 17.4122 18.0097 16.7279 18.7058C16.0437 19.402 15.1761 19.7109 14.1042 19.8575C13.0627 20 11.7318 20 10.0516 20H9.94838C8.26819 20 6.93732 20 5.89578 19.8575C4.82386 19.7109 3.95626 19.402 3.27205 18.7058C2.58783 18.0097 2.28419 17.1269 2.14007 16.0363C2.00004 14.9766 2.00005 13.6225 2.00006 11.913V8.08712C2.00005 6.3776 2.00004 5.02353 2.14007 3.96381C2.28419 2.87319 2.58783 1.99046 3.27205 1.29431C3.95626 0.598164 4.82386 0.28922 5.89578 0.14259C6.93734 0.000113398 8.26819 0.000125152 9.94841 0.0001399L10.4242 6.8874e-05ZM10.5501 10.3C10.5501 9.88584 10.2143 9.55005 9.80011 9.55005C9.3859 9.55005 9.05011 9.88584 9.05011 10.3V13.4894L8.33044 12.7697C8.03755 12.4768 7.56267 12.4768 7.26978 12.7697C6.97689 13.0626 6.97689 13.5375 7.26978 13.8304L9.26978 15.8304C9.56267 16.1233 10.0375 16.1233 10.3304 15.8304L12.3304 13.8304C12.6233 13.5375 12.6233 13.0626 12.3304 12.7697C12.0375 12.4768 11.5627 12.4768 11.2698 12.7697L10.5501 13.4894V10.3Z"
    fill="currentColor"
  />
  <path
    d="M13.3065 1.21477C13.0218 0.924602 12.7746 0.672612 12.5142 0.476923L12.5142 2.55825C12.5142 3.455 12.5157 4.05738 12.575 4.50672C12.6317 4.93598 12.7298 5.1197 12.8489 5.24093C12.9681 5.36215 13.1486 5.46189 13.5705 5.51961C14.0122 5.58002 14.6042 5.5815 15.4856 5.5815H17.5313C17.339 5.31655 17.0913 5.06505 16.8061 4.77545L13.3065 1.21477Z"
    fill="currentColor"
  />
</svg>
