<svg
  xmlns="http://www.w3.org/2000/svg"
  width="20"
  height="20"
  viewBox="0 0 20 20"
  fill="none"
>
  <path
    fill-rule="evenodd"
    clip-rule="evenodd"
    d="M11.1427 0.0125281C10.9211 -0.000415323 10.6836 -0.000183928 10.4242 6.8874e-05L9.94835 0.0001399C8.26813 0.000125152 6.93728 0.0001134 5.89572 0.14259C4.8238 0.28922 3.9562 0.598164 3.27198 1.29431C2.58777 1.99046 2.28412 2.87319 2.14001 3.96381C1.99998 5.02353 1.99999 6.37759 2 8.08712V11.913C1.99999 13.6225 1.99998 14.9766 2.14001 16.0363C2.28412 17.1269 2.58777 18.0097 3.27198 18.7058C3.9562 19.402 4.8238 19.7109 5.89572 19.8575C6.93727 20 8.26811 20 9.94832 20H10.0515C11.7317 20 13.0626 20 14.1041 19.8575C15.1761 19.7109 16.0437 19.402 16.7279 18.7058C17.4121 18.0097 17.7157 17.1269 17.8599 16.0363C17.9999 14.9766 17.9999 13.6226 17.9999 11.913L17.9999 7.708C18.0002 7.44402 18.0004 7.2024 17.9877 6.97684L15.438 6.97684C14.6166 6.97687 13.9315 6.97689 13.3877 6.9025C12.8138 6.82399 12.2955 6.65127 11.8791 6.22758C11.4627 5.80388 11.2929 5.27663 11.2158 4.69264C11.1427 4.13935 11.1427 3.44241 11.1427 2.60662L11.1427 0.0125281ZM12.5142 0.476923C12.7746 0.672612 13.0218 0.924602 13.3064 1.21477L16.8061 4.77545C17.0912 5.06505 17.3389 5.31655 17.5312 5.5815H15.4855C14.6042 5.5815 14.0121 5.58002 13.5705 5.51961C13.1486 5.46189 12.968 5.36215 12.8489 5.24093C12.7297 5.1197 12.6317 4.93598 12.575 4.50672C12.5156 4.05738 12.5141 3.455 12.5141 2.55825L12.5142 0.476923Z"
    fill="currentColor"
  />
</svg>
