<svg width="20" height="20" viewBox="0 0 20 20" fill="currentcolor" xmlns="http://www.w3.org/2000/svg">
  <path d="M8.69573 1.00004C8.90623 0.999894 9.09779 0.999763 9.27714 1.00781L9.27714 2.75432C9.27711 3.6555 9.27708 4.40696 9.35736 5.00353C9.44209 5.63321 9.62849 6.20171 10.0857 6.65854C10.543 7.11538 11.112 7.30161 11.7422 7.38627C12.3393 7.46647 13.0915 7.46645 13.9934 7.46642L15.7359 7.46642C15.7498 7.70962 15.7496 7.97013 15.7493 8.25474L15.7492 11.7119C15.7492 11.8225 15.7492 11.931 15.7492 12.0374H6.21049C5.04757 12.0374 4.46611 12.0374 4.10483 12.4085C3.74356 12.7797 3.74356 13.377 3.74356 14.5717V18.5886C3.64098 18.5434 3.54048 18.4935 3.44179 18.4384C2.67194 18.0084 2.03652 17.3736 1.60617 16.6044C1.27761 16.0172 1.13501 15.3658 1.06672 14.5929C0.999989 13.8376 0.999994 12.8978 1 11.7119V8.56393C0.999992 7.26944 0.999986 6.24369 1.07899 5.42224C1.15989 4.5811 1.32904 3.87597 1.71762 3.25083C2.10449 2.62844 2.62982 2.10358 3.25276 1.71705C3.87846 1.32882 4.58423 1.15982 5.42612 1.079C6.24831 1.00006 7.27497 1.00007 8.57062 1.00008L8.69573 1.00004Z" fill="currentcolor" />
  <path d="M11.506 2.16304C11.2425 1.89945 11.021 1.67786 10.783 1.50396V2.70217C10.783 3.66907 10.7846 4.31857 10.8498 4.80306C10.9121 5.26591 11.0197 5.46399 11.1505 5.5947C11.2814 5.72541 11.4796 5.83295 11.9429 5.89518C12.4278 5.96032 13.0779 5.96192 14.0456 5.96192H15.2347C15.0235 5.67624 14.7516 5.40507 14.4384 5.09282L11.506 2.16304Z" fill="currentcolor" />
  <path d="M14.6441 15.8375V16.73C14.6441 17.1071 14.5976 17.4377 14.5044 17.7218C14.4138 18.0034 14.2839 18.2397 14.1147 18.4307C13.9481 18.6192 13.7459 18.7612 13.5081 18.8567C13.2729 18.9522 13.0118 19 12.7251 19C12.4383 19 12.1761 18.9522 11.9383 18.8567C11.703 18.7612 11.4996 18.6192 11.328 18.4307C11.1589 18.2397 11.0278 18.0034 10.9347 17.7218C10.8415 17.4377 10.795 17.1071 10.795 16.73V15.8375C10.795 15.4506 10.8403 15.1126 10.931 14.8237C11.0217 14.5323 11.1528 14.2899 11.3244 14.0964C11.4959 13.9005 11.6994 13.7536 11.9347 13.6556C12.1699 13.5552 12.431 13.505 12.7177 13.505C13.0045 13.505 13.2655 13.5552 13.5008 13.6556C13.7361 13.7536 13.9395 13.9005 14.1111 14.0964C14.2826 14.2899 14.4138 14.5323 14.5044 14.8237C14.5976 15.1126 14.6441 15.4506 14.6441 15.8375ZM13.5743 16.73V15.8301C13.5743 15.5754 13.5559 15.3587 13.5192 15.18C13.4824 14.9988 13.4273 14.8506 13.3537 14.7355C13.2802 14.6204 13.1907 14.536 13.0854 14.4821C12.98 14.4282 12.8574 14.4013 12.7177 14.4013C12.578 14.4013 12.4542 14.4282 12.3464 14.4821C12.241 14.536 12.1516 14.6204 12.078 14.7355C12.007 14.8506 11.953 14.9988 11.9163 15.18C11.882 15.3587 11.8648 15.5754 11.8648 15.8301V16.73C11.8648 16.9749 11.8832 17.1843 11.9199 17.3581C11.9567 17.532 12.0119 17.674 12.0854 17.7842C12.1589 17.8944 12.2484 17.9764 12.3538 18.0303C12.4616 18.0817 12.5854 18.1074 12.7251 18.1074C12.8623 18.1074 12.9836 18.0817 13.089 18.0303C13.1969 17.9764 13.2863 17.8944 13.3574 17.7842C13.4285 17.674 13.4824 17.532 13.5192 17.3581C13.5559 17.1843 13.5743 16.9749 13.5743 16.73Z" fill="currentcolor" />
  <path d="M18.5411 13.5785H18.2301C18.0783 13.5785 18.0023 13.5785 17.9477 13.6215C17.893 13.6645 17.8753 13.7382 17.8397 13.8857L17.362 15.8655C17.2069 16.5083 17.1294 16.8297 16.9712 16.8296C16.813 16.8296 16.7357 16.5081 16.5812 15.8652L16.1054 13.886C16.0699 13.7384 16.0522 13.6646 15.9975 13.6216C15.9428 13.5785 15.8669 13.5785 15.715 13.5785H15.4142C15.1696 13.5785 15.0473 13.5785 14.9871 13.6585C14.9268 13.7384 14.9607 13.8558 15.0283 14.0907L16.3376 18.6363C16.3778 18.776 16.3979 18.8459 16.4516 18.8862C16.5052 18.9265 16.578 18.9265 16.7235 18.9265H17.2224C17.3676 18.9265 17.4403 18.9265 17.4938 18.8863C17.5474 18.8461 17.5676 18.7764 17.6081 18.637L18.9267 14.0914C18.9949 13.8563 19.029 13.7387 18.9688 13.6586C18.9086 13.5785 18.7861 13.5785 18.5411 13.5785Z" fill="currentcolor" />
  <path d="M5.58748 13.5785C5.39819 13.5785 5.30354 13.5785 5.24473 13.6373C5.18592 13.696 5.18592 13.7906 5.18592 13.9797V18.5253C5.18592 18.7145 5.18592 18.809 5.24473 18.8678C5.30354 18.9265 5.39819 18.9265 5.58748 18.9265H5.82478C6.01408 18.9265 6.10873 18.9265 6.16753 18.8678C6.22634 18.809 6.22634 18.7145 6.22634 18.5253V17.1047L6.16396 15.5302L7.11384 18.6424C7.15564 18.7793 7.17653 18.8478 7.22977 18.8871C7.28301 18.9265 7.35465 18.9265 7.49794 18.9265H7.70241C7.84838 18.9265 7.92136 18.9265 7.97507 18.886C8.02877 18.8455 8.04874 18.7753 8.08866 18.6351L9.05342 15.2451L8.98362 17.1047V18.5253C8.98362 18.7145 8.98362 18.809 9.04243 18.8678C9.10124 18.9265 9.19588 18.9265 9.38518 18.9265H9.6188C9.8081 18.9265 9.90275 18.9265 9.96155 18.8678C10.0204 18.809 10.0204 18.7145 10.0204 18.5253V13.9797C10.0204 13.7906 10.0204 13.696 9.96155 13.6373C9.90275 13.5785 9.8081 13.5785 9.6188 13.5785H8.99277C8.84848 13.5785 8.77633 13.5785 8.72292 13.6183C8.6695 13.6581 8.64895 13.7272 8.60785 13.8654L7.98925 15.945C7.83273 16.4713 7.75447 16.7344 7.60475 16.7344C7.45503 16.7345 7.37653 16.4715 7.21952 15.9454L6.59862 13.8651C6.55743 13.727 6.53683 13.658 6.48344 13.6183C6.43004 13.5785 6.35796 13.5785 6.21381 13.5785H5.58748Z" fill="currentcolor" />
</svg>
