<svg width="20" height="20" viewBox="0 0 20 20" fill="currentcolor" xmlns="http://www.w3.org/2000/svg">
  <path d="M8.65983 1.0012C8.86935 1.00105 9.06002 1.00092 9.23853 1.00895L9.23853 2.75024C9.2385 3.64872 9.23848 4.39793 9.31838 4.99272C9.40272 5.62051 9.58824 6.18731 10.0434 6.64278C10.4985 7.09825 11.0648 7.28392 11.6921 7.36833C12.2864 7.44829 13.0351 7.44827 13.9328 7.44824L15.6671 7.44824C15.681 7.69071 15.6808 7.95044 15.6805 8.23421L15.6804 11.681C15.6804 11.8048 15.6804 11.9259 15.6804 12.0444H9.65719C8.81296 12.0444 8.39084 12.0444 8.12857 12.4144C7.8663 12.7844 7.8663 13.38 7.8663 14.5711V18.9911C6.8883 18.9902 6.09127 18.9828 5.43428 18.9248C4.66432 18.8567 4.01544 18.7147 3.4304 18.3874C2.66414 17.9587 2.03168 17.3258 1.60335 16.5589C1.27631 15.9734 1.13438 15.324 1.06641 14.5535C0.999989 13.8004 0.999994 12.8634 1 11.681V8.54247C0.999992 7.25185 0.999986 6.22917 1.07862 5.41018C1.15914 4.57156 1.3275 3.86853 1.71427 3.24526C2.09934 2.62473 2.62222 2.10144 3.24226 1.71607C3.86504 1.329 4.56751 1.1605 5.40547 1.07992C6.22383 1.00122 7.2457 1.00123 8.53531 1.00124L8.65983 1.0012Z" fill="currentcolor" />
  <path d="M11.457 2.16072C11.1947 1.89792 10.9743 1.67699 10.7374 1.50361V2.69824C10.7374 3.66225 10.7389 4.30981 10.8038 4.79285C10.8658 5.25431 10.973 5.4518 11.1032 5.58212C11.2334 5.71244 11.4307 5.81966 11.8918 5.8817C12.3745 5.94665 13.0215 5.94824 13.9848 5.94824H15.1683C14.9581 5.66342 14.6874 5.39305 14.3757 5.08174L11.457 2.16072Z" fill="currentcolor" />
  <path d="M16.454 18.9256H16.7171C16.9097 18.9256 17.006 18.9256 17.0648 18.8653C17.1236 18.805 17.1213 18.7087 17.1166 18.516L17.0741 16.7466H18.3954C18.5838 16.7466 18.678 16.7466 18.7366 16.6881C18.7951 16.6295 18.7951 16.5352 18.7951 16.3466V16.2604C18.7951 16.0718 18.7951 15.9776 18.7366 15.919C18.678 15.8604 18.5838 15.8604 18.3954 15.8604H17.0528V14.4835H18.6003C18.7887 14.4835 18.8829 14.4835 18.9415 14.4249C19 14.3663 19 14.272 19 14.0835V13.9936C19 13.805 19 13.7107 18.9415 13.6521C18.8829 13.5936 18.7887 13.5936 18.6003 13.5936H16.454C16.2656 13.5936 16.1714 13.5936 16.1129 13.6521C16.0543 13.7107 16.0543 13.805 16.0543 13.9936V18.5256C16.0543 18.7142 16.0543 18.8084 16.1129 18.867C16.1714 18.9256 16.2656 18.9256 16.454 18.9256Z" fill="currentcolor" />
  <path d="M14.6648 13.5936C14.8532 13.5936 14.9474 13.5936 15.006 13.6521C15.0645 13.7107 15.0645 13.805 15.0645 13.9936V18.5256C15.0645 18.7142 15.0645 18.8084 15.006 18.867C14.9474 18.9256 14.8532 18.9256 14.6648 18.9256H14.3993C14.2109 18.9256 14.1167 18.9256 14.0582 18.867C13.9997 18.8084 13.9997 18.7142 13.9997 18.5256V13.9936C13.9997 13.805 13.9997 13.7107 14.0582 13.6521C14.1167 13.5936 14.2109 13.5936 14.3993 13.5936H14.6648Z" fill="currentcolor" />
  <path d="M12.7054 16.1241C12.8938 16.1241 12.988 16.1241 13.0466 16.1827C13.1051 16.2412 13.1051 16.3355 13.1051 16.5241V18.1629C13.1051 18.243 13.1051 18.283 13.0871 18.3225C13.0692 18.3619 13.043 18.3848 12.9905 18.4305C12.9295 18.4836 12.8567 18.5412 12.7721 18.6033C12.6282 18.7083 12.4391 18.8011 12.2049 18.8817C11.9732 18.9598 11.6902 18.9988 11.356 18.9988C11.0608 18.9988 10.7925 18.9525 10.551 18.8597C10.3119 18.7669 10.1058 18.6265 9.93255 18.4385C9.76178 18.2481 9.63127 18.0113 9.54101 17.7281C9.45075 17.4424 9.40562 17.1043 9.40562 16.7137V15.8055C9.40562 15.4197 9.44831 15.084 9.53369 14.7984C9.62151 14.5103 9.74837 14.2711 9.91425 14.0806C10.0801 13.8902 10.2777 13.7486 10.507 13.6558C10.7388 13.563 10.9998 13.5167 11.2901 13.5167C11.6902 13.5167 12.0183 13.5838 12.2745 13.7181C12.533 13.8524 12.7282 14.0513 12.8599 14.315C12.9413 14.4749 13.0029 14.6567 13.0448 14.8605C13.0828 15.0456 13.1019 15.1382 13.0419 15.2118C12.9819 15.2855 12.8789 15.2855 12.6728 15.2855H12.4363C12.2732 15.2855 12.1916 15.2855 12.1377 15.2439C12.0838 15.2024 12.0589 15.1082 12.0091 14.9196C11.993 14.8591 11.9742 14.8052 11.9524 14.7581C11.8963 14.6312 11.8171 14.5408 11.7146 14.4871C11.6121 14.431 11.4792 14.4029 11.3157 14.4029C11.1742 14.4029 11.0511 14.4285 10.9462 14.4798C10.8413 14.5286 10.7534 14.6092 10.6827 14.7215C10.6119 14.8338 10.5595 14.9778 10.5253 15.1536C10.4912 15.3294 10.4741 15.5443 10.4741 15.7982V16.7137C10.4741 16.9651 10.4936 17.18 10.5327 17.3582C10.5717 17.5364 10.629 17.6817 10.7046 17.794C10.7827 17.9063 10.8803 17.9881 10.9974 18.0394C11.1169 18.0882 11.2572 18.1126 11.4182 18.1126C11.5475 18.1126 11.6512 18.0992 11.7292 18.0723C11.8073 18.0455 11.8695 18.0174 11.9159 17.9881C11.9408 17.9719 11.9533 17.9637 11.9605 17.9581C12.0072 17.9212 12.0304 17.8786 12.0358 17.8192C12.0366 17.8101 12.0366 17.7979 12.0366 17.7735V17.3161C12.0366 17.1443 12.0366 17.0584 11.9873 17.0019C11.9814 16.9951 11.975 16.9887 11.9681 16.9827C11.9117 16.9334 11.8259 16.9334 11.6542 16.9334C11.4826 16.9334 11.3967 16.9334 11.3403 16.8841C11.3335 16.8781 11.327 16.8717 11.3211 16.8649C11.2718 16.8084 11.2718 16.7225 11.2718 16.5507V16.5241C11.2718 16.3355 11.2718 16.2412 11.3304 16.1827C11.3889 16.1241 11.4831 16.1241 11.6715 16.1241H12.7054Z" fill="currentcolor" />
</svg>
