<svg width="20" height="20" viewBox="0 0 20 20" fill="currentcolor" xmlns="http://www.w3.org/2000/svg">
  <path d="M8.66083 1.00004C8.87037 0.999894 9.06107 0.999764 9.2396 1.00779L9.2396 2.75005C9.23957 3.64903 9.23955 4.39866 9.31946 4.99378C9.40381 5.62192 9.58936 6.18904 10.0445 6.64476C10.4997 7.10048 11.0661 7.28626 11.6935 7.37071C12.2879 7.45072 13.0366 7.4507 13.9345 7.45067L15.669 7.45067C15.6829 7.69327 15.6827 7.95315 15.6824 8.23707L15.6824 11.6858C15.6824 11.8475 15.6824 12.0047 15.6822 12.1573H6.89457C5.80079 12.1573 5.2539 12.1573 4.91411 12.5276C4.57431 12.8978 4.57431 13.4937 4.57431 14.6855V18.8111C4.16136 18.7241 3.78437 18.5939 3.43071 18.3959C2.66435 17.967 2.03182 17.3337 1.60342 16.5664C1.27635 15.9806 1.1344 15.3308 1.06642 14.5598C0.999989 13.8063 0.999994 12.8688 1 11.6858V8.54551C0.999992 7.25417 0.999986 6.23092 1.07863 5.41147C1.15917 4.57238 1.32755 3.86896 1.71437 3.24534C2.09948 2.62447 2.62243 2.10089 3.24255 1.71531C3.86541 1.32802 4.56798 1.15943 5.40605 1.0788C6.22451 1.00006 7.24652 1.00007 8.53629 1.00008L8.66083 1.00004Z" fill="currentcolor" />
  <path d="M11.4583 2.16021C11.1961 1.89725 10.9756 1.67621 10.7386 1.50273V2.69802C10.7386 3.66257 10.7402 4.31049 10.8051 4.7938C10.8671 5.25551 10.9743 5.45312 11.1045 5.58351C11.2347 5.7139 11.4321 5.82118 11.8933 5.88326C12.376 5.94824 13.0231 5.94983 13.9865 5.94983H15.1701C14.9599 5.66485 14.6892 5.39434 14.3775 5.08285L11.4583 2.16021Z" fill="currentcolor" />
  <path fill-rule="evenodd" d="M12.4689 18.9267H12.1998C12.0113 18.9267 11.9171 18.9267 11.8586 18.8681C11.8 18.8095 11.8 18.7152 11.8 18.5265V13.9919C11.8 13.8033 11.8 13.7089 11.8586 13.6503C11.9171 13.5917 12.0113 13.5917 12.1998 13.5917H13.6153C13.9739 13.5917 14.2825 13.6674 14.5412 13.8189C14.7998 13.9703 14.9974 14.1792 15.134 14.4455C15.2731 14.7093 15.3426 15.0122 15.3426 15.3542C15.3426 15.6986 15.2731 15.9978 15.134 16.2519C14.9974 16.5035 14.7998 16.6989 14.5412 16.8382C14.2825 16.9774 13.9739 17.047 13.6153 17.047H13.2684C13.08 17.047 12.9858 17.047 12.9272 17.1056C12.8687 17.1642 12.8687 17.2586 12.8687 17.4472V18.5265C12.8687 18.7152 12.8687 18.8095 12.8101 18.8681C12.7516 18.9267 12.6574 18.9267 12.4689 18.9267ZM13.6153 16.1566C13.7665 16.1566 13.8897 16.1224 13.9849 16.054C14.0825 15.9856 14.1532 15.8916 14.1971 15.7719C14.2411 15.6497 14.263 15.513 14.263 15.3615C14.263 15.2076 14.2398 15.0647 14.1935 14.9328C14.1496 14.7984 14.08 14.6897 13.9849 14.6067C13.8922 14.5236 13.769 14.4821 13.6153 14.4821H13.2684C13.08 14.4821 12.9858 14.4821 12.9272 14.5407C12.8687 14.5993 12.8687 14.6937 12.8687 14.8823V15.7564C12.8687 15.9451 12.8687 16.0394 12.9272 16.098C12.9858 16.1566 13.08 16.1566 13.2684 16.1566H13.6153Z" fill="currentcolor" />
  <path d="M6.43769 13.5917C6.24925 13.5917 6.15503 13.5917 6.09649 13.6503C6.03795 13.7089 6.03795 13.8033 6.03795 13.9919V18.5265C6.03795 18.7152 6.03795 18.8095 6.09649 18.8681C6.15503 18.9267 6.24925 18.9267 6.43769 18.9267H6.67391C6.86235 18.9267 6.95657 18.9267 7.01511 18.8681C7.07365 18.8095 7.07365 18.7152 7.07365 18.5265V17.1093L7.01155 15.5387L7.95713 18.6432C7.99873 18.7798 8.01954 18.8481 8.07253 18.8874C8.12553 18.9267 8.19685 18.9267 8.33948 18.9267H8.54303C8.68833 18.9267 8.76098 18.9267 8.81445 18.8863C8.86791 18.8459 8.88778 18.7759 8.92752 18.636L9.88791 15.2543L9.81843 17.1093V18.5265C9.81843 18.7152 9.81843 18.8095 9.87697 18.8681C9.93551 18.9267 10.0297 18.9267 10.2182 18.9267H10.4507C10.6392 18.9267 10.7334 18.9267 10.7919 18.8681C10.8505 18.8095 10.8505 18.7152 10.8505 18.5265V13.9919C10.8505 13.8033 10.8505 13.7089 10.7919 13.6503C10.7334 13.5917 10.6392 13.5917 10.4507 13.5917H9.82753C9.6839 13.5917 9.61208 13.5917 9.55891 13.6314C9.50573 13.6712 9.48527 13.7401 9.44436 13.8779L8.82857 15.9525C8.67275 16.4774 8.59485 16.7399 8.44581 16.74C8.29677 16.74 8.21862 16.4776 8.06232 15.9528L7.44424 13.8776C7.40323 13.7399 7.38273 13.671 7.32958 13.6314C7.27643 13.5917 7.20468 13.5917 7.06117 13.5917H6.43769Z" fill="currentcolor" />
  <path d="M17.3458 15.7865H17.1372C17.0541 15.7865 17.0125 15.7865 16.9793 15.7987C16.924 15.819 16.8805 15.8626 16.8603 15.9179C16.8481 15.9512 16.8481 15.9928 16.8481 16.076V16.2181C16.8481 16.4067 16.8481 16.5011 16.9066 16.5597C16.9652 16.6183 17.0594 16.6183 17.2478 16.6183H17.3495C17.4812 16.6183 17.5935 16.6464 17.6862 16.7026C17.7789 16.7563 17.8496 16.8418 17.8984 16.9591C17.9472 17.0739 17.9716 17.2253 17.9716 17.4134C17.9716 17.56 17.9484 17.6882 17.9021 17.7982C17.8557 17.9081 17.7886 17.9936 17.7008 18.0546C17.613 18.1157 17.5093 18.1463 17.3897 18.1463C17.2873 18.1463 17.1945 18.1169 17.1116 18.0583C17.0311 17.9997 16.9676 17.9191 16.9213 17.8165C16.8388 17.6295 16.7975 17.536 16.7598 17.5055C16.7454 17.4938 16.7422 17.4917 16.7257 17.4832C16.6826 17.4611 16.6175 17.4611 16.4874 17.4611H16.2268C16.0311 17.4611 15.9332 17.4611 15.8732 17.5347C15.8132 17.6084 15.8304 17.6919 15.8647 17.8588C15.8859 17.9621 15.916 18.0579 15.9551 18.1463C16.0405 18.3392 16.1564 18.4992 16.3028 18.6263C16.4492 18.7533 16.6139 18.8473 16.7969 18.9084C16.9823 18.9695 17.1714 19 17.3641 19C17.5959 19 17.8106 18.9658 18.0082 18.8974C18.2058 18.8266 18.3791 18.724 18.5279 18.5896C18.6767 18.4553 18.7926 18.2904 18.8756 18.095C18.9585 17.8995 19 17.6772 19 17.4281C19 17.2253 18.9695 17.0397 18.9085 16.8711C18.8475 16.7026 18.7548 16.5572 18.6304 16.4351C18.6127 16.4174 18.5942 16.4002 18.5751 16.3837C18.4594 16.2838 18.4465 16.0681 18.5535 15.9588C18.6755 15.8317 18.7682 15.6888 18.8317 15.5301C18.8975 15.3713 18.9305 15.2064 18.9305 15.0354C18.9305 14.7032 18.8646 14.4247 18.7328 14.2C18.6011 13.9728 18.4181 13.8018 18.1839 13.687C17.9497 13.5697 17.6776 13.5111 17.3678 13.5111C17.0921 13.5111 16.8408 13.5722 16.6139 13.6943C16.387 13.8165 16.2064 13.9862 16.0722 14.2036C16.0026 14.3165 15.951 14.4396 15.9175 14.5729C15.8769 14.7345 15.8566 14.8153 15.9166 14.8924C15.9766 14.9694 16.0746 14.9694 16.2707 14.9694H16.5749C16.673 14.9694 16.722 14.9694 16.7556 14.957C16.791 14.9438 16.7951 14.9413 16.8227 14.9155C16.8489 14.8909 16.8889 14.8108 16.9689 14.6507C17.0152 14.5603 17.0762 14.4907 17.1518 14.4418C17.2275 14.3929 17.3092 14.3685 17.397 14.3685C17.5117 14.3685 17.6069 14.3978 17.6825 14.4565C17.7581 14.5151 17.8143 14.5957 17.8509 14.6983C17.8874 14.8009 17.9057 14.9206 17.9057 15.0574C17.9057 15.2039 17.8862 15.3322 17.8472 15.4421C17.8082 15.552 17.7472 15.6375 17.6642 15.6986C17.5813 15.7572 17.4751 15.7865 17.3458 15.7865Z" fill="currentcolor" />
</svg>
