<svg
  xmlns="http://www.w3.org/2000/svg"
  width="20"
  height="20"
  viewBox="0 0 20 20"
  fill="none"
>
  <path
    d="M13.57 12.7703C13.57 14.5891 11.9717 16.0636 10 16.0636C8.02834 16.0636 6.43 14.5891 6.43 12.7703C6.43 11.5464 7.06104 10.3226 7.57271 9.53141C7.83305 9.12884 7.96323 8.92756 8.21015 8.90852C8.45708 8.88948 8.62368 9.07642 8.95688 9.45028C9.60002 10.1719 10.0904 10.8065 10.4167 11.2553C10.6484 11.5741 10.7642 11.7334 10.9119 11.7374C11.0596 11.7414 11.1804 11.5929 11.4219 11.2957L11.8991 10.7088C12.0576 10.5138 12.1369 10.4163 12.2687 10.4085C12.4005 10.4007 12.4798 10.4776 12.6383 10.6314C13.0321 11.0136 13.57 11.7265 13.57 12.7703Z"
    fill="currentColor"
  />
  <path
    fill-rule="evenodd"
    clip-rule="evenodd"
    d="M7.64133 0.000422766C7.19708 -0.010136 6.85547 0.178242 6.57322 0.43582C6.33316 0.654901 6.0934 0.965372 5.84408 1.28822L5.81338 1.32797C4.28465 3.30661 2 7.02834 2 11.6556C2 16.2641 5.58172 20 10 20C14.4183 20 18 16.2641 18 11.6556C18 8.60064 16.6492 5.86445 15.6153 4.29634L15.5974 4.26918C15.5135 4.14165 15.4092 3.98316 15.3003 3.86443C15.1648 3.71665 14.9233 3.52007 14.5682 3.5355C14.2061 3.55124 13.9802 3.77784 13.8605 3.93385C13.7612 4.06318 13.6684 4.23283 13.5919 4.37276L12.846 5.73432C12.778 5.85846 12.7216 5.96127 12.6712 6.04952C12.6115 5.9678 12.5443 5.87232 12.4632 5.75702L9.43982 1.45669C9.18491 1.09397 8.94626 0.754417 8.70929 0.5124C8.43806 0.23539 8.09882 0.0112962 7.64133 0.000422766ZM6.88122 2.22556C7.17301 1.84789 7.33755 1.63899 7.47628 1.51239C7.57364 1.42354 7.59992 1.42863 7.60821 1.43024L7.61009 1.43052C7.62065 1.43077 7.62323 1.43157 7.63174 1.43601C7.64672 1.44382 7.68417 1.46745 7.74982 1.5345C7.89642 1.68422 8.06863 1.92533 8.3627 2.3436L11.3817 6.63759C11.5479 6.87415 11.7148 7.11178 11.876 7.28175C12.0538 7.46926 12.3446 7.7049 12.7601 7.68025C13.1756 7.65561 13.4389 7.38711 13.5952 7.17979C13.7368 6.99186 13.8769 6.73603 14.0163 6.48135L14.6387 5.34523C15.5645 6.81822 16.6286 9.14928 16.6286 11.6556C16.6286 15.4741 13.6609 18.5695 10 18.5695C6.33914 18.5695 3.37143 15.4741 3.37143 11.6556C3.37143 7.50734 5.43181 4.10154 6.88122 2.22556Z"
    fill="currentColor"
  />
</svg>
