<svg
  xmlns="http://www.w3.org/2000/svg"
  width="20"
  height="20"
  viewBox="0 0 20 20"
  fill="none"
>
  <path
    d="M7.70927 1.03745C7.33044 0.999971 6.87384 0.999985 6.33694 1H5.70202C4.80279 0.999973 4.05291 0.999949 3.45762 1.07998C2.82929 1.16446 2.26201 1.35029 1.80615 1.80615C1.35029 2.26201 1.16446 2.82929 1.07998 3.45762C0.999949 4.05291 0.999973 4.80276 1 5.70199V12.2991C0.999982 13.6679 0.999967 14.7712 1.11663 15.6389C1.23775 16.5398 1.49686 17.2983 2.09929 17.9007C2.70172 18.5031 3.46025 18.7623 4.36112 18.8834C5.22883 19 6.3321 19 7.70086 19H12.226C12.1138 18.7536 11.9884 18.4603 11.8524 18.142L11.833 18.0966C11.5588 17.4551 11.2549 16.9943 10.9691 16.7515C10.7545 16.5693 10.3796 16.3633 9.8707 16.1657L9.82164 16.1467C9.39002 15.9791 8.996 15.8262 8.7134 15.6944C8.5741 15.6295 8.3734 15.5301 8.18892 15.3938C8.09566 15.3248 7.94651 15.2033 7.81036 15.0204C7.66989 14.8318 7.49102 14.5049 7.49102 14.0665C7.49102 13.628 7.66989 13.3011 7.81036 13.1125C7.94651 12.9296 8.09566 12.8081 8.18892 12.7392C8.3734 12.6028 8.5741 12.5034 8.7134 12.4385C8.99601 12.3067 9.38999 12.1538 9.82163 11.9863L9.8707 11.9672C10.3796 11.7696 10.7545 11.5636 10.9691 11.3814C11.2549 11.1387 11.5588 10.6779 11.833 10.0363L11.8524 9.99088C12.0488 9.53127 12.223 9.12385 12.3673 8.83444C12.4384 8.692 12.5404 8.49895 12.6713 8.32423C12.7364 8.23729 12.8523 8.0951 13.0241 7.96322C13.1931 7.83345 13.5278 7.62944 13.9952 7.62944C14.4627 7.62944 14.7974 7.83345 14.9664 7.96322C15.1382 8.0951 15.2541 8.23729 15.3192 8.32423C15.4501 8.49896 15.5521 8.692 15.6231 8.83445C15.7675 9.12386 15.9417 9.53129 16.1381 9.99091L16.1575 10.0363C16.4317 10.6779 16.7356 11.1387 17.0214 11.3814C17.236 11.5636 17.6109 11.7696 18.1198 11.9672L18.1688 11.9862C18.4732 12.1044 18.7589 12.2153 19 12.3166C19 12.3108 19 12.305 19 12.2991V10.9089C19 9.54018 19 8.43692 18.8834 7.56921C18.7623 6.66833 18.5031 5.90981 17.9007 5.30738C17.2983 4.70494 16.5398 4.44583 15.6389 4.32471C14.7712 4.20805 13.6679 4.20807 12.2992 4.20809L11.6199 4.20809C11.3219 4.20809 11.1525 4.20724 11.0271 4.19483C10.9709 4.18927 10.9409 4.18274 10.9262 4.17863C10.9193 4.1767 10.9149 4.17493 10.9149 4.17493L10.9135 4.17428L10.9123 4.17343C10.9123 4.17343 10.9086 4.17048 10.9035 4.16543C10.8926 4.15467 10.8721 4.13194 10.8394 4.08589C10.7664 3.98317 10.6816 3.83651 10.5337 3.57772L10.4121 3.36495C10.1457 2.89876 9.91921 2.5023 9.69872 2.19197C9.46383 1.86139 9.2031 1.57966 8.84495 1.37182C8.48679 1.16397 8.11283 1.07738 7.70927 1.03745Z"
    fill="currentColor"
  />
  <path
    d="M18.9885 14.0291C18.9879 14.0553 18.9873 14.0814 18.9867 14.1073C18.9118 14.244 18.4704 14.419 17.6626 14.7328L17.5764 14.7662C17.4873 14.8008 17.3985 14.8368 17.3107 14.8742C16.8356 15.0766 16.388 15.3198 16.0496 15.6072C15.5238 16.0537 15.1185 16.7283 14.8123 17.4251C14.8004 17.4522 14.7887 17.4794 14.777 17.5065L14.6999 17.6868C14.3631 18.4737 14.171 18.9075 14.0385 18.9883C14.0108 18.9889 13.9829 18.9895 13.9549 18.9901C13.8224 18.914 13.6299 18.4796 13.2906 17.6868L13.2134 17.5065C13.2018 17.4794 13.1901 17.4522 13.1782 17.4251C12.872 16.7283 12.4667 16.0537 11.9409 15.6072C11.6025 15.3198 11.1549 15.0766 10.6798 14.8742C10.592 14.8368 10.5032 14.8008 10.4141 14.7662L10.3279 14.7328C9.43751 14.3869 8.9923 14.2097 8.9923 14.0665C8.9923 13.9232 9.43751 13.746 10.3279 13.4002L10.4141 13.3667C10.5032 13.3321 10.592 13.2961 10.6798 13.2587C11.1549 13.0563 11.6025 12.8131 11.9409 12.5257C12.4667 12.0792 12.872 11.4046 13.1782 10.7078C13.1901 10.6807 13.2018 10.6536 13.2134 10.6264L13.2906 10.4461C13.6659 9.56918 13.8616 9.13073 13.9952 9.13073C14.1289 9.13073 14.3246 9.56918 14.6999 10.4461L14.777 10.6264C14.7887 10.6536 14.8004 10.6807 14.8123 10.7078C15.1185 11.4046 15.5238 12.0792 16.0496 12.5257C16.388 12.8131 16.8356 13.0563 17.3107 13.2587C17.3985 13.2961 17.4873 13.3321 17.5764 13.3667L17.6626 13.4002C18.4773 13.7166 18.9192 13.8919 18.9885 14.0291Z"
    fill="currentColor"
  />
</svg>
