<svg
  xmlns="http://www.w3.org/2000/svg"
  width="20"
  height="20"
  viewBox="0 0 20 20"
  fill="none"
>
  <path
    fill-rule="evenodd"
    clip-rule="evenodd"
    d="M5.86385 2.00007C6.53539 1.99942 7.06698 1.9989 7.55255 2.20344C8.03813 2.40797 8.40436 2.78667 8.86701 3.26506L9.06877 3.47339C9.21158 3.62076 9.29246 3.70354 9.35724 3.76071C9.38611 3.7862 9.40324 3.7988 9.41234 3.80489C9.41665 3.80778 9.41998 3.80965 9.41998 3.80965L9.42113 3.81022L9.42234 3.81064C9.42234 3.81064 9.42601 3.81173 9.43111 3.8128C9.44188 3.81508 9.46297 3.81857 9.50166 3.82155C9.58847 3.82822 9.70433 3.8287 9.91141 3.8287L13.772 3.8287C15.0441 3.82868 16.0696 3.82867 16.876 3.93524C17.7134 4.04588 18.4184 4.28258 18.9783 4.8329C19.5382 5.38322 19.779 6.07612 19.8916 6.89907C20 7.69172 20 8.69955 20 9.94991V11.8788C20 13.1292 20 14.137 19.8916 14.9296C19.779 15.7526 19.5382 16.4455 18.9783 16.9958C18.4184 17.5461 17.7134 17.7828 16.876 17.8935C16.0696 18 15.0441 18 13.772 18H6.22803C4.95585 18 3.93044 18 3.12395 17.8935C2.28664 17.7828 1.58164 17.5461 1.02172 16.9958C0.4618 16.4455 0.220969 15.7526 0.108395 14.9296C-3.31178e-05 14.137 -1.76425e-05 13.1292 1.54189e-06 11.8788L1.04287e-06 6.29542C-2.62921e-05 5.47396 -4.90844e-05 4.78897 0.0743381 4.24517C0.152854 3.6712 0.325571 3.15298 0.749264 2.73656C1.17296 2.32013 1.70021 2.15038 2.28421 2.07321C2.83749 2.0001 3.53444 2.00012 4.37024 2.00015L5.86385 2.00007ZM12.1118 8.60661C12.3422 8.2569 12.8081 8.16307 13.1521 8.39851C13.4954 8.63345 13.5862 9.10659 13.3563 9.45559L10.8001 13.3359C10.7009 13.4867 10.5866 13.6603 10.4696 13.7924C10.3317 13.9482 10.0955 14.1573 9.73507 14.1876C9.37461 14.2179 9.10786 14.0511 8.94664 13.9204C8.8099 13.8096 8.66927 13.6574 8.54708 13.5252L7.20367 12.073C6.92044 11.7668 6.93427 11.285 7.23479 10.9962C7.53599 10.7068 8.01077 10.7211 8.29464 11.0279L9.59249 12.4309L12.1118 8.60661Z"
    fill="currentColor"
  />
</svg>
