<svg
  xmlns="http://www.w3.org/2000/svg"
  width="20"
  height="20"
  viewBox="0 0 20 20"
  fill="none"
>
  <path
    fill-rule="evenodd"
    clip-rule="evenodd"
    d="M5.33662 1H6.50498C7.00015 0.999987 7.42134 0.999975 7.77072 1.03454C8.14292 1.07137 8.48782 1.15123 8.81815 1.34292C9.14847 1.53462 9.38893 1.79445 9.60556 2.09934C9.80893 2.38555 10.0179 2.75121 10.2635 3.18117L10.5311 3.64939C10.6675 3.88807 10.7457 4.02333 10.813 4.11808C10.8432 4.16054 10.8621 4.18151 10.8721 4.19143C10.8768 4.19609 10.8795 4.19819 10.8803 4.19881L10.8814 4.1996L10.8826 4.20019C10.8836 4.20058 10.8867 4.20183 10.8931 4.20361C10.9067 4.2074 10.9343 4.21342 10.9861 4.21855C11.1018 4.22999 11.258 4.23077 11.5329 4.23077L12.8199 4.23077C14.0823 4.23075 15.0998 4.23074 15.9001 4.33833C16.731 4.45004 17.4305 4.68902 17.9861 5.24463C18.5418 5.80025 18.7807 6.49983 18.8924 7.3307C19 8.13097 19 9.1485 19 10.4109V12.8199C19 14.0823 19 15.0998 18.8924 15.9001C18.7807 16.731 18.5418 17.4305 17.9861 17.9861C17.4305 18.5418 16.731 18.7807 15.9001 18.8924C15.0998 19 14.0823 19 12.8199 19H7.18013C5.91773 19 4.9002 19 4.09993 18.8924C3.26906 18.7807 2.56948 18.5418 2.01387 17.9861C1.45825 17.4305 1.21927 16.731 1.10756 15.9001C0.999971 15.0998 0.999984 14.0823 1 12.8199V5.33659C0.999976 4.50725 0.999955 3.81565 1.07377 3.26664C1.15168 2.68714 1.32307 2.16394 1.7435 1.7435C2.16394 1.32307 2.68714 1.15168 3.26664 1.07377C3.81565 0.999955 4.50728 0.999976 5.33662 1ZM12.1118 9.33794C12.3422 8.98823 12.8081 8.89439 13.1521 9.12983C13.4954 9.36477 13.5862 9.83791 13.3563 10.1869L10.8001 14.0672C10.7009 14.2181 10.5866 14.3916 10.4696 14.5237C10.3317 14.6795 10.0955 14.8886 9.73507 14.9189C9.37461 14.9492 9.10786 14.7824 8.94664 14.6517C8.80991 14.5409 8.66928 14.3888 8.54709 14.2565L7.20367 12.8043C6.92044 12.4981 6.93427 12.0163 7.23479 11.7275C7.53599 11.4381 8.01078 11.4524 8.29464 11.7592L9.59249 13.1622L12.1118 9.33794Z"
    fill="currentColor"
  />
</svg>
