<svg
  xmlns="http://www.w3.org/2000/svg"
  width="20"
  height="20"
  viewBox="0 0 20 20"
  fill="none"
>
  <path
    fill-rule="evenodd"
    clip-rule="evenodd"
    d="M5.33662 1H6.50498C7.00015 0.999987 7.42134 0.999975 7.77072 1.03454C8.14292 1.07137 8.48782 1.15123 8.81815 1.34292C9.14847 1.53462 9.38893 1.79445 9.60556 2.09934C9.80893 2.38555 10.0179 2.75121 10.2635 3.18117L10.5311 3.64939C10.6675 3.88807 10.7457 4.02333 10.813 4.11808C10.8432 4.16054 10.8621 4.18151 10.8721 4.19143C10.8768 4.19609 10.8795 4.19819 10.8803 4.19881L10.8814 4.1996L10.8826 4.20019C10.8836 4.20058 10.8867 4.20183 10.8931 4.20361C10.9067 4.2074 10.9343 4.21342 10.9861 4.21855C11.1018 4.22999 11.258 4.23077 11.5329 4.23077L12.8199 4.23077C14.0823 4.23075 15.0998 4.23074 15.9001 4.33833C16.731 4.45004 17.4305 4.68902 17.9861 5.24463C18.5418 5.80025 18.7807 6.49983 18.8924 7.3307C19 8.13097 19 9.1485 19 10.4109V12.8199C19 14.0823 19 15.0998 18.8924 15.9001C18.7807 16.731 18.5418 17.4305 17.9861 17.9861C17.4305 18.5418 16.731 18.7807 15.9001 18.8924C15.0998 19 14.0823 19 12.8199 19H7.18013C5.91773 19 4.9002 19 4.09993 18.8924C3.26906 18.7807 2.56948 18.5418 2.01387 17.9861C1.45825 17.4305 1.21927 16.731 1.10756 15.9001C0.999971 15.0998 0.999984 14.0823 1 12.8199V5.33659C0.999976 4.50725 0.999955 3.81565 1.07377 3.26664C1.15168 2.68714 1.32307 2.16394 1.7435 1.7435C2.16394 1.32307 2.68714 1.15168 3.26664 1.07377C3.81565 0.999955 4.50728 0.999976 5.33662 1ZM10.0356 15.8211C9.8468 15.8211 9.67433 15.7514 9.5425 15.6363L9.53127 15.6263C9.52078 15.6168 9.51054 15.6069 9.50056 15.5968L7.46498 13.5257C7.17463 13.2303 7.17874 12.7554 7.47416 12.4651C7.76957 12.1747 8.24443 12.1788 8.53478 12.4742L9.28551 13.2381L9.28547 10.0001C9.28546 9.58592 9.62124 9.25013 10.0355 9.25012C10.4497 9.25012 10.7855 9.5859 10.7855 10.0001L10.7855 13.1905L11.4558 12.4839C11.7409 12.1833 12.2156 12.1708 12.5161 12.4559C12.8166 12.7409 12.8291 13.2156 12.5441 13.5162L10.5883 15.578C10.4512 15.7274 10.2543 15.8211 10.0356 15.8211Z"
    fill="currentColor"
  />
</svg>
