<svg width="20" height="20" viewBox="0 0 20 20" fill="currentcolor" xmlns="http://www.w3.org/2000/svg">
  <path fill-rule="evenodd" d="M5.86385 2.00007C6.53539 1.99942 7.06698 1.9989 7.55255 2.20344C8.03813 2.40797 8.40436 2.78667 8.86701 3.26506L9.06877 3.47339C9.21158 3.62076 9.29246 3.70354 9.35724 3.76071C9.38611 3.7862 9.40324 3.7988 9.41234 3.80489C9.41665 3.80778 9.41998 3.80965 9.41998 3.80965L9.42113 3.81022L9.42234 3.81064C9.42234 3.81064 9.42601 3.81173 9.43111 3.8128C9.44188 3.81508 9.46297 3.81857 9.50166 3.82155C9.58847 3.82822 9.70433 3.8287 9.91141 3.8287L13.772 3.8287C15.0441 3.82868 16.0696 3.82867 16.876 3.93524C17.7134 4.04588 18.4184 4.28258 18.9783 4.8329C19.5382 5.38322 19.779 6.07612 19.8916 6.89907C20 7.69172 20 8.69955 20 9.94991V11.8788C20 13.1292 20 14.137 19.8916 14.9296C19.779 15.7526 19.5382 16.4455 18.9783 16.9958C18.4184 17.5461 17.7134 17.7828 16.876 17.8935C16.0696 18 15.0441 18 13.772 18H6.22803C4.95585 18 3.93044 18 3.12395 17.8935C2.28664 17.7828 1.58164 17.5461 1.02172 16.9958C0.4618 16.4455 0.220969 15.7526 0.108395 14.9296C-3.31178e-05 14.137 -1.76425e-05 13.1292 1.54189e-06 11.8788L1.04287e-06 6.29542C-2.62921e-05 5.47396 -4.90844e-05 4.78897 0.0743381 4.24517C0.152854 3.6712 0.325571 3.15298 0.749264 2.73656C1.17296 2.32013 1.70021 2.15038 2.28421 2.07321C2.83749 2.0001 3.53444 2.00012 4.37024 2.00015L5.86385 2.00007ZM10.75 9C10.75 8.58579 10.4142 8.25 10 8.25C9.58579 8.25 9.25 8.58579 9.25 9V10.25H8C7.58579 10.25 7.25 10.5858 7.25 11C7.25 11.4142 7.58579 11.75 8 11.75H9.25V13C9.25 13.4142 9.58579 13.75 10 13.75C10.4142 13.75 10.75 13.4142 10.75 13V11.75H12C12.4142 11.75 12.75 11.4142 12.75 11C12.75 10.5858 12.4142 10.25 12 10.25H10.75V9Z" fill="currentcolor" />
</svg>
