<svg
  xmlns="http://www.w3.org/2000/svg"
  width="20"
  height="20"
  viewBox="0 0 20 20"
  fill="none"
>
  <path
    fill-rule="evenodd"
    clip-rule="evenodd"
    d="M3.55953 8.68533C3.53762 8.68533 3.51564 8.68533 3.49358 8.68533L2.00197 8.68533C1.4487 8.68533 1.00018 8.23761 1.00018 7.68533C1.00018 7.13304 1.4487 6.68533 2.00197 6.68533L3.49358 6.68533C4.46639 6.68533 5.09522 6.6832 5.55856 6.62102C5.99307 6.56271 6.12926 6.46856 6.20552 6.39243C6.28178 6.31631 6.3761 6.18036 6.43452 5.74662C6.49681 5.28412 6.49894 4.65641 6.49894 3.68533V2C6.49894 1.44772 6.94745 1 7.50072 1C8.054 1 8.50251 1.44772 8.50251 2V3.68533C8.50251 3.70735 8.50251 3.72929 8.50251 3.75116C8.50256 4.63765 8.50261 5.40146 8.42022 6.01312C8.33193 6.66864 8.13283 7.29698 7.62226 7.80665C7.11169 8.31631 6.48222 8.51505 5.82553 8.60319C5.21278 8.68542 4.4476 8.68538 3.55953 8.68533Z"
    fill="currentColor"
  />
  <path
    fill-rule="evenodd"
    clip-rule="evenodd"
    d="M16.4408 8.68533C16.4627 8.68533 16.4847 8.68533 16.5068 8.68533H17.9984C18.5517 8.68533 19.0002 8.23761 19.0002 7.68533C19.0002 7.13304 18.5517 6.68533 17.9984 6.68533H16.5068C15.534 6.68533 14.9051 6.68321 14.4418 6.62102C14.0073 6.56271 13.8711 6.46856 13.7948 6.39244C13.7186 6.31631 13.6243 6.18036 13.5658 5.74663C13.5036 5.28412 13.5014 4.65641 13.5014 3.68533L13.5014 2C13.5014 1.44772 13.0529 1 12.4996 1C11.9464 1 11.4979 1.44772 11.4979 2L11.4979 3.68533C11.4979 3.70735 11.4979 3.72929 11.4979 3.75116C11.4978 4.63765 11.4978 5.40146 11.5801 6.01312C11.6684 6.66864 11.8675 7.29699 12.3781 7.80665C12.8887 8.31631 13.5182 8.51506 14.1748 8.60319C14.7876 8.68542 15.5528 8.68538 16.4408 8.68533Z"
    fill="currentColor"
  />
  <path
    fill-rule="evenodd"
    clip-rule="evenodd"
    d="M16.4408 11.5017C16.4627 11.5017 16.4847 11.5017 16.5068 11.5017H17.9984C18.5517 11.5017 19.0002 11.9495 19.0002 12.5017C19.0002 13.054 18.5517 13.5017 17.9984 13.5017H16.5068C15.534 13.5017 14.9051 13.5039 14.4418 13.5661C14.0073 13.6244 13.8711 13.7185 13.7948 13.7946C13.7186 13.8708 13.6243 14.0067 13.5658 14.4404C13.5036 14.903 13.5014 15.5307 13.5014 16.5017V17.9907C13.5014 18.543 13.0529 18.9907 12.4996 18.9907C11.9464 18.9907 11.4979 18.543 11.4979 17.9907V16.5017C11.4979 16.4797 11.4979 16.4578 11.4979 16.4359C11.4978 15.5494 11.4978 14.7856 11.5801 14.174C11.6684 13.5184 11.8675 12.8901 12.3781 12.3804C12.8887 11.8708 13.5182 11.672 14.1748 11.5839C14.7876 11.5016 15.5528 11.5017 16.4408 11.5017Z"
    fill="currentColor"
  />
  <path
    fill-rule="evenodd"
    clip-rule="evenodd"
    d="M3.55952 11.5017C3.53762 11.5017 3.51563 11.5017 3.49358 11.5017H2.00197C1.4487 11.5017 1.00018 11.9495 1.00018 12.5017C1.00018 13.054 1.4487 13.5017 2.00197 13.5017H3.49358C4.46639 13.5017 5.09522 13.5039 5.55856 13.5661C5.99307 13.6244 6.12926 13.7185 6.20552 13.7946C6.28178 13.8708 6.3761 14.0067 6.43452 14.4404C6.49681 14.903 6.49894 15.5307 6.49894 16.5017V17.9999C6.49894 18.5522 6.94745 18.9999 7.50072 18.9999C8.054 18.9999 8.50251 18.5522 8.50251 17.9999V16.5017C8.50251 16.4797 8.50251 16.4578 8.50251 16.4359C8.50256 15.5494 8.50261 14.7856 8.42022 14.174C8.33193 13.5184 8.13283 12.8901 7.62226 12.3804C7.11169 11.8708 6.48221 11.672 5.82553 11.5839C5.21277 11.5016 4.44759 11.5017 3.55952 11.5017Z"
    fill="currentColor"
  />
</svg>
