<svg
  xmlns="http://www.w3.org/2000/svg"
  width="20"
  height="20"
  viewBox="0 0 20 20"
  fill="none"
>
  <path
    fill-rule="evenodd"
    clip-rule="evenodd"
    d="M5.93417 1C5.95604 1 5.97799 1 6 1H7C7.55229 1 8 1.44772 8 2C8 2.55229 7.55229 3 7 3H6C5.02893 3 4.40122 3.00213 3.93871 3.06431C3.50497 3.12263 3.36902 3.21677 3.2929 3.2929C3.21677 3.36902 3.12263 3.50497 3.06431 3.93871C3.00213 4.40122 3 5.02893 3 6V7C3 7.55229 2.55229 8 2 8C1.44772 8 1 7.55229 1 7V6C1 5.97799 1 5.95604 1 5.93417C0.999953 5.04769 0.99991 4.28387 1.08215 3.67221C1.17028 3.0167 1.36902 2.38835 1.87868 1.87868C2.38835 1.36902 3.0167 1.17028 3.67221 1.08215C4.28387 0.99991 5.04769 0.999953 5.93417 1Z"
    fill="currentColor"
  />
  <path
    fill-rule="evenodd"
    clip-rule="evenodd"
    d="M14.0658 1C14.044 1 14.022 1 14 1H13C12.4477 1 12 1.44772 12 2C12 2.55229 12.4477 3 13 3H14C14.9711 3 15.5988 3.00213 16.0613 3.06431C16.495 3.12263 16.631 3.21677 16.7071 3.2929C16.7832 3.36902 16.8774 3.50497 16.9357 3.93871C16.9979 4.40122 17 5.02893 17 6V7C17 7.55229 17.4477 8 18 8C18.5523 8 19 7.55229 19 7V6C19 5.97799 19 5.95604 19 5.93417C19 5.04769 19.0001 4.28387 18.9179 3.67221C18.8297 3.0167 18.631 2.38835 18.1213 1.87868C17.6117 1.36902 16.9833 1.17028 16.3278 1.08215C15.7161 0.99991 14.9523 0.999953 14.0658 1Z"
    fill="currentColor"
  />
  <path
    fill-rule="evenodd"
    clip-rule="evenodd"
    d="M14.0658 19C14.044 19 14.022 19 14 19H13C12.4477 19 12 18.5523 12 18C12 17.4477 12.4477 17 13 17H14C14.9711 17 15.5988 16.9979 16.0613 16.9357C16.495 16.8774 16.631 16.7832 16.7071 16.7071C16.7832 16.631 16.8774 16.495 16.9357 16.0613C16.9979 15.5988 17 14.9711 17 14V13C17 12.4477 17.4477 12 18 12C18.5523 12 19 12.4477 19 13V14C19 14.022 19 14.044 19 14.0658C19 14.9523 19.0001 15.7161 18.9179 16.3278C18.8297 16.9833 18.631 17.6117 18.1213 18.1213C17.6117 18.631 16.9833 18.8297 16.3278 18.9179C15.7161 19.0001 14.9523 19 14.0658 19Z"
    fill="currentColor"
  />
  <path
    fill-rule="evenodd"
    clip-rule="evenodd"
    d="M5.93417 19C5.95604 19 5.97799 19 6 19H7.00001C7.55229 19 8.00001 18.5523 8.00001 18C8.00001 17.4477 7.55229 17 7.00001 17H6C5.02893 17 4.40122 16.9979 3.93871 16.9357C3.50497 16.8774 3.36902 16.7832 3.2929 16.7071C3.21677 16.631 3.12263 16.495 3.06431 16.0613C3.00213 15.5988 3 14.9711 3 14V13C3 12.4477 2.55229 12 2 12C1.44772 12 1 12.4477 1 13V14C1 14.022 1 14.044 1 14.0658C0.999953 14.9523 0.99991 15.7161 1.08215 16.3278C1.17028 16.9833 1.36902 17.6117 1.87868 18.1213C2.38835 18.631 3.0167 18.8297 3.67221 18.9179C4.28387 19.0001 5.04769 19 5.93417 19Z"
    fill="currentColor"
  />
</svg>
