<svg
  xmlns="http://www.w3.org/2000/svg"
  width="20"
  height="20"
  viewBox="0 0 20 20"
  fill="none"
>
  <path
    fill-rule="evenodd"
    clip-rule="evenodd"
    d="M8.83721 2.68571C8.83721 2.307 8.52485 2 8.13954 2C7.75422 2 7.44186 2.307 7.44186 2.68571L7.44186 2.71574C7.44185 3.14724 7.44184 3.51394 7.46608 3.7998C7.48939 4.07481 7.54215 4.41714 7.75582 4.69714C8.00144 5.01902 8.34675 5.12337 8.62595 5.16403C8.87407 5.20015 9.1807 5.20008 9.49246 5.20001L9.53487 5.2C9.63185 5.2 9.67925 5.21577 9.69657 5.22319C9.71072 5.22925 9.71765 5.23483 9.72612 5.24515C9.75378 5.2788 9.8054 5.37888 9.82903 5.6111C9.85174 5.83424 9.84156 6.09848 9.82008 6.39401C9.81597 6.45059 9.81124 6.51016 9.80635 6.57141H5.81395C2.603 6.57141 0 9.12978 0 12.2857C0 15.4416 2.603 18 5.81395 18H14.186C17.397 18 20 15.4416 20 12.2857C20 9.12978 17.397 6.57141 14.186 6.57141H11.206C11.2079 6.54546 11.2099 6.5189 11.2119 6.4917C11.234 6.18723 11.2529 5.8229 11.2175 5.47462C11.1829 5.1354 11.0892 4.7212 10.8116 4.38343C10.505 4.01035 10.0577 3.82857 9.53487 3.82857C9.19965 3.82857 9.0041 3.82711 8.87134 3.81258C8.86637 3.78088 8.86114 3.73935 8.8566 3.68591C8.8378 3.4641 8.83721 3.15547 8.83721 2.68571ZM15.7558 10.9999C15.7558 11.5521 15.3003 11.9999 14.7384 11.9999C14.1765 11.9999 13.7209 11.5521 13.7209 10.9999C13.7209 10.4476 14.1765 9.99986 14.7384 9.99986C15.3003 9.99986 15.7558 10.4476 15.7558 10.9999ZM13.8954 13.7427C13.8954 14.295 13.4398 14.7427 12.8779 14.7427C12.316 14.7427 11.8605 14.295 11.8605 13.7427C11.8605 13.1904 12.316 12.7427 12.8779 12.7427C13.4398 12.7427 13.8954 13.1904 13.8954 13.7427ZM5.81397 10.2284C6.19929 10.2284 6.51165 10.5354 6.51165 10.9141V11.5999H7.20932C7.59463 11.5999 7.90699 11.9069 7.90699 12.2856C7.90699 12.6643 7.59463 12.9713 7.20932 12.9713H6.51165V13.657C6.51165 14.0357 6.19929 14.3427 5.81397 14.3427C5.42866 14.3427 5.1163 14.0357 5.1163 13.657V12.9713H4.41862C4.03331 12.9713 3.72095 12.6643 3.72095 12.2856C3.72095 11.9069 4.03331 11.5999 4.41862 11.5999H5.1163V10.9141C5.1163 10.5354 5.42866 10.2284 5.81397 10.2284Z"
    fill="currentColor"
  />
</svg>
