<svg
  xmlns="http://www.w3.org/2000/svg"
  width="20"
  height="20"
  viewBox="0 0 20 20"
  fill="none"
>
  <path
    d="M1.04405 8.85489C2.39238 9.21427 4.14017 9.57472 6.23605 9.78532L6.23596 9.72046C6.23596 7.43482 6.58211 5.27358 7.16303 3.65758C7.4523 2.8529 7.81406 2.1431 8.25249 1.61997C8.597 1.20889 9.03858 0.857935 9.57047 0.730717C5.08937 0.94273 1.46613 4.43188 1.04405 8.85489Z"
    fill="currentColor"
  />
  <path
    d="M1.02881 10.4077C1.36913 14.9151 5.02952 18.4957 9.57092 18.7103C9.03883 18.5832 8.5971 18.2322 8.25249 17.821C7.81406 17.2978 7.4523 16.588 7.16303 15.7833C6.71854 14.5469 6.41149 12.9911 6.29179 11.3047C4.20582 11.1067 2.43664 10.764 1.02881 10.4077Z"
    fill="currentColor"
  />
  <path
    d="M10.4349 18.7103C14.9764 18.4957 18.6368 14.9151 18.9771 10.4077C17.5693 10.764 15.8001 11.1067 13.7141 11.3047C13.5944 12.9911 13.2873 14.5469 12.8428 15.7833C12.5536 16.588 12.1918 17.2978 11.7534 17.821C11.4088 18.2322 10.967 18.5832 10.4349 18.7103Z"
    fill="currentColor"
  />
  <path
    d="M18.9619 8.85485C18.5398 4.43184 14.9165 0.942685 10.4354 0.730713C10.9673 0.857928 11.4089 1.20889 11.7534 1.61997C12.1918 2.1431 12.5536 2.8529 12.8428 3.65758C13.4237 5.27358 13.7699 7.43482 13.7699 9.72046L13.7698 9.78531C15.8657 9.57471 17.6135 9.21424 18.9619 8.85485Z"
    fill="currentColor"
  />
  <path
    d="M8.58099 4.16731C8.07121 5.58541 7.74275 7.56784 7.74275 9.72046C7.74275 9.78225 7.74302 9.8439 7.74356 9.9054C8.46297 9.94795 9.21664 9.97168 10.0029 9.97168C10.7892 9.97168 11.5429 9.94795 12.2623 9.9054C12.2628 9.8439 12.2631 9.78225 12.2631 9.72046C12.2631 7.56784 11.9347 5.58541 11.4249 4.16731C11.1688 3.45494 10.8812 2.92509 10.5985 2.58782C10.3114 2.24524 10.1066 2.18652 10.0029 2.18652C9.89924 2.18652 9.69444 2.24524 9.40733 2.58782C9.12468 2.92509 8.83707 3.45494 8.58099 4.16731Z"
    fill="currentColor"
  />
  <path
    d="M11.4249 15.2736C11.7971 14.2383 12.0726 12.9021 12.1942 11.4185C11.4935 11.4571 10.7626 11.4785 10.0029 11.4785C9.24321 11.4785 8.51233 11.4571 7.81164 11.4185C7.93326 12.9021 8.2088 14.2383 8.58099 15.2736C8.83707 15.986 9.12468 16.5158 9.40733 16.8531C9.69444 17.1957 9.89924 17.2544 10.0029 17.2544C10.1066 17.2544 10.3114 17.1957 10.5985 16.8531C10.8812 16.5158 11.1688 15.986 11.4249 15.2736Z"
    fill="currentColor"
  />
</svg>
