<svg width="20" height="20" viewBox="0 0 20 20" fill="currentcolor" xmlns="http://www.w3.org/2000/svg">
  <path fill-rule="evenodd" d="M5.19547 1H5.11223H5.1122C4.38903 0.999981 3.78576 0.999964 3.30179 1.05717C2.79328 1.11728 2.32718 1.24867 1.92808 1.57621C1.79955 1.68169 1.68169 1.79955 1.57621 1.92808C1.24867 2.32718 1.11728 2.79328 1.05717 3.30179C0.999964 3.78576 0.999981 4.38903 1 5.1122V5.11223V5.19547V5.19549C0.999981 5.91867 0.999964 6.52193 1.05717 7.0059C1.11728 7.51442 1.24867 7.98051 1.57621 8.37962C1.68169 8.50815 1.79955 8.626 1.92808 8.73149C2.32718 9.05902 2.79328 9.19042 3.30179 9.25052C3.78577 9.30773 4.38904 9.30771 5.11223 9.30769H5.19547C5.91866 9.30771 6.52193 9.30773 7.0059 9.25052C7.51442 9.19042 7.98051 9.05902 8.37962 8.73149C8.50815 8.626 8.626 8.50815 8.73149 8.37962C9.05902 7.98051 9.19042 7.51442 9.25052 7.0059C9.30773 6.52193 9.30771 5.91866 9.30769 5.19547V5.11223C9.30771 4.38904 9.30773 3.78577 9.25052 3.30179C9.19042 2.79328 9.05902 2.32718 8.73149 1.92808C8.626 1.79955 8.50815 1.68169 8.37962 1.57621C7.98051 1.24867 7.51442 1.11728 7.0059 1.05717C6.52193 0.999964 5.91867 0.999981 5.19549 1H5.19547ZM5.19547 10.6923H5.11223C4.38904 10.6923 3.78577 10.6923 3.30179 10.7495C2.79328 10.8096 2.32718 10.941 1.92808 11.2685C1.79955 11.374 1.68169 11.4919 1.57621 11.6204C1.24867 12.0195 1.11728 12.4856 1.05717 12.9941C0.999964 13.4781 0.999981 14.0813 1 14.8045V14.8045V14.8878V14.8878C0.999981 15.611 0.999964 16.2142 1.05717 16.6982C1.11728 17.2067 1.24867 17.6728 1.57621 18.0719C1.68169 18.2005 1.79955 18.3183 1.92808 18.4238C2.32718 18.7513 2.79328 18.8827 3.30179 18.9428C3.78577 19 4.38904 19 5.11223 19H5.19547C5.91866 19 6.52193 19 7.0059 18.9428C7.51442 18.8827 7.98051 18.7513 8.37962 18.4238C8.50815 18.3183 8.626 18.2005 8.73149 18.0719C9.05902 17.6728 9.19042 17.2067 9.25052 16.6982C9.30773 16.2142 9.30771 15.611 9.30769 14.8878V14.8045C9.30771 14.0813 9.30773 13.4781 9.25052 12.9941C9.19042 12.4856 9.05902 12.0195 8.73149 11.6204C8.626 11.4919 8.50815 11.374 8.37962 11.2685C7.98051 10.941 7.51442 10.8096 7.0059 10.7495C6.52193 10.6923 5.91866 10.6923 5.19547 10.6923ZM14.8878 1H14.8045H14.8045C14.0813 0.999981 13.4781 0.999964 12.9941 1.05717C12.4856 1.11728 12.0195 1.24867 11.6204 1.57621C11.4919 1.68169 11.374 1.79955 11.2685 1.92808C10.941 2.32718 10.8096 2.79328 10.7495 3.30179C10.6923 3.78577 10.6923 4.38904 10.6923 5.11223V5.19547C10.6923 5.91866 10.6923 6.52193 10.7495 7.0059C10.8096 7.51442 10.941 7.98051 11.2685 8.37962C11.374 8.50815 11.4919 8.626 11.6204 8.73149C12.0195 9.05902 12.4856 9.19042 12.9941 9.25052C13.4781 9.30773 14.0813 9.30771 14.8045 9.30769H14.8878C15.611 9.30771 16.2142 9.30773 16.6982 9.25052C17.2067 9.19042 17.6728 9.05902 18.0719 8.73149C18.2005 8.626 18.3183 8.50815 18.4238 8.37962C18.7513 7.98051 18.8827 7.51442 18.9428 7.0059C19 6.52193 19 5.91866 19 5.19547V5.11223C19 4.38904 19 3.78577 18.9428 3.30179C18.8827 2.79328 18.7513 2.32718 18.4238 1.92808C18.3183 1.79955 18.2005 1.68169 18.0719 1.57621C17.6728 1.24867 17.2067 1.11728 16.6982 1.05717C16.2142 0.999964 15.611 0.999981 14.8878 1H14.8878ZM14.8878 10.6923H14.8045C14.0813 10.6923 13.4781 10.6923 12.9941 10.7495C12.4856 10.8096 12.0195 10.941 11.6204 11.2685C11.4919 11.374 11.374 11.4919 11.2685 11.6204C10.941 12.0195 10.8096 12.4856 10.7495 12.9941C10.6923 13.4781 10.6923 14.0813 10.6923 14.8045V14.8878C10.6923 15.611 10.6923 16.2142 10.7495 16.6982C10.8096 17.2067 10.941 17.6728 11.2685 18.0719C11.374 18.2005 11.4919 18.3183 11.6204 18.4238C12.0195 18.7513 12.4856 18.8827 12.9941 18.9428C13.4781 19 14.0813 19 14.8045 19H14.8878C15.611 19 16.2142 19 16.6982 18.9428C17.2067 18.8827 17.6728 18.7513 18.0719 18.4238C18.2005 18.3183 18.3183 18.2005 18.4238 18.0719C18.7513 17.6728 18.8827 17.2067 18.9428 16.6982C19 16.2142 19 15.611 19 14.8878V14.8045C19 14.0813 19 13.4781 18.9428 12.9941C18.8827 12.4856 18.7513 12.0195 18.4238 11.6204C18.3183 11.4919 18.2005 11.374 18.0719 11.2685C17.6728 10.941 17.2067 10.8096 16.6982 10.7495C16.2142 10.6923 15.611 10.6923 14.8878 10.6923Z" fill="currentcolor" />
</svg>
