<svg
  xmlns="http://www.w3.org/2000/svg"
  width="20"
  height="20"
  viewBox="0 0 20 20"
  fill="none"
>
  <path
    d="M5.22418 0.509156H5.15082C4.50956 0.509141 3.97442 0.509129 3.5403 0.551489C3.08626 0.595792 2.66379 0.691991 2.27876 0.93581C1.93522 1.15335 1.6442 1.44437 1.42665 1.78791C1.18284 2.17295 1.08664 2.59542 1.04233 3.04945C0.999974 3.48357 0.999986 4.0187 1 4.65995V4.73334C0.999986 5.37459 0.999974 5.90974 1.04233 6.34386C1.08664 6.7979 1.18284 7.22037 1.42665 7.6054C1.6442 7.94894 1.93522 8.23996 2.27876 8.4575C2.66379 8.70132 3.08626 8.79752 3.5403 8.84183C3.97442 8.88419 4.50956 8.88417 5.15083 8.88416H5.22418C5.86545 8.88417 6.40058 8.88419 6.83471 8.84183C7.28874 8.79752 7.71121 8.70132 8.09624 8.4575C8.43978 8.23996 8.7308 7.94894 8.94835 7.6054C9.19217 7.22037 9.28837 6.7979 9.33267 6.34386C9.37503 5.90974 9.37502 5.3746 9.375 4.73333V4.65998C9.37502 4.01871 9.37503 3.48358 9.33267 3.04945C9.28837 2.59542 9.19217 2.17295 8.94835 1.78791C8.7308 1.44437 8.43978 1.15335 8.09624 0.93581C7.71121 0.691991 7.28874 0.595792 6.83471 0.551489C6.40059 0.509129 5.86544 0.509141 5.22418 0.509156Z"
    fill="currentColor"
  />
  <path
    d="M5.22418 10.1342H5.15082C4.50957 10.1341 3.97441 10.1341 3.5403 10.1765C3.08626 10.2208 2.66379 10.317 2.27876 10.5608C1.93522 10.7784 1.6442 11.0694 1.42665 11.4129C1.18284 11.7979 1.08664 12.2204 1.04233 12.6745C0.999974 13.1086 0.999986 13.6437 1 14.285V14.3583C0.999986 14.9996 0.999974 15.5347 1.04233 15.9689C1.08664 16.4229 1.18284 16.8454 1.42665 17.2304C1.6442 17.5739 1.93522 17.865 2.27876 18.0825C2.66379 18.3263 3.08626 18.4225 3.5403 18.4668C3.9744 18.5092 4.50951 18.5092 5.15074 18.5092H5.22418C5.86541 18.5092 6.4006 18.5092 6.83471 18.4668C7.28874 18.4225 7.71121 18.3263 8.09624 18.0825C8.43978 17.865 8.7308 17.5739 8.94835 17.2304C9.19217 16.8454 9.28837 16.4229 9.33267 15.9689C9.37503 15.5347 9.37502 14.9996 9.375 14.3583V14.285C9.37502 13.6437 9.37503 13.1086 9.33267 12.6745C9.28837 12.2204 9.19217 11.7979 8.94835 11.4129C8.7308 11.0694 8.43978 10.7784 8.09624 10.5608C7.71121 10.317 7.28874 10.2208 6.83471 10.1765C6.40059 10.1341 5.86544 10.1341 5.22418 10.1342Z"
    fill="currentColor"
  />
  <path
    d="M14.8492 10.1342H14.7758C14.1346 10.1341 13.5994 10.1341 13.1653 10.1765C12.7113 10.2208 12.2888 10.317 11.9038 10.5608C11.5602 10.7784 11.2692 11.0694 11.0517 11.4129C10.8078 11.7979 10.7116 12.2204 10.6673 12.6745C10.625 13.1086 10.625 13.6437 10.625 14.2849V14.3583C10.625 14.9996 10.625 15.5347 10.6673 15.9689C10.7116 16.4229 10.8078 16.8454 11.0517 17.2304C11.2692 17.5739 11.5602 17.865 11.9038 18.0825C12.2888 18.3263 12.7113 18.4225 13.1653 18.4668C13.5994 18.5092 14.1345 18.5092 14.7758 18.5092H14.8492C15.4904 18.5092 16.0256 18.5092 16.4597 18.4668C16.9137 18.4225 17.3362 18.3263 17.7212 18.0825C18.0648 17.865 18.3558 17.5739 18.5733 17.2304C18.8172 16.8454 18.9134 16.4229 18.9577 15.9689C19 15.5347 19 14.9996 19 14.3584V14.285C19 13.6437 19 13.1086 18.9577 12.6745C18.9134 12.2204 18.8172 11.7979 18.5733 11.4129C18.3558 11.0694 18.0648 10.7784 17.7212 10.5608C17.3362 10.317 16.9137 10.2208 16.4597 10.1765C16.0256 10.1341 15.4904 10.1341 14.8492 10.1342Z"
    fill="currentColor"
  />
  <path
    d="M15.5625 1.25916C15.5625 0.844942 15.2267 0.509156 14.8125 0.509156C14.3983 0.509156 14.0625 0.844942 14.0625 1.25916V3.94666H11.375C10.9608 3.94666 10.625 4.28244 10.625 4.69666C10.625 5.11087 10.9608 5.44666 11.375 5.44666H14.0625V8.13416C14.0625 8.54837 14.3983 8.88416 14.8125 8.88416C15.2267 8.88416 15.5625 8.54837 15.5625 8.13416V5.44666H18.25C18.6642 5.44666 19 5.11087 19 4.69666C19 4.28244 18.6642 3.94666 18.25 3.94666H15.5625V1.25916Z"
    fill="currentColor"
  />
</svg>
