<svg
  xmlns="http://www.w3.org/2000/svg"
  width="20"
  height="20"
  viewBox="0 0 20 20"
  fill="none"
>
  <path
    d="M5.22417 1H5.1508C4.50955 0.999986 3.9744 0.999974 3.54028 1.04233C3.08625 1.08664 2.66377 1.18284 2.27874 1.42665C1.9352 1.6442 1.64418 1.93522 1.42664 2.27876C1.18282 2.66379 1.08662 3.08626 1.04232 3.5403C0.999958 3.97442 0.999971 4.50954 0.999985 5.1508V5.22418C0.999971 5.86544 0.999958 6.40059 1.04232 6.83471C1.08662 7.28874 1.18282 7.71121 1.42664 8.09624C1.64418 8.43978 1.9352 8.7308 2.27874 8.94835C2.66377 9.19217 3.08625 9.28837 3.54028 9.33267C3.97441 9.37503 4.50954 9.37502 5.15081 9.375H5.22416C5.86543 9.37502 6.40057 9.37503 6.83469 9.33267C7.28873 9.28837 7.7112 9.19217 8.09623 8.94835C8.43977 8.7308 8.73079 8.43978 8.94833 8.09624C9.19215 7.71121 9.28835 7.28874 9.33265 6.83471C9.37502 6.40058 9.375 5.86545 9.37499 5.22418V5.15083C9.375 4.50956 9.37502 3.97442 9.33265 3.5403C9.28835 3.08626 9.19215 2.66379 8.94833 2.27876C8.73079 1.93522 8.43977 1.6442 8.09623 1.42665C7.7112 1.18284 7.28873 1.08664 6.83469 1.04233C6.40057 0.999974 5.86542 0.999986 5.22417 1Z"
    fill="currentColor"
  />
  <path
    d="M5.22417 10.625H5.1508C4.50955 10.625 3.9744 10.625 3.54028 10.6673C3.08625 10.7116 2.66377 10.8078 2.27874 11.0517C1.9352 11.2692 1.64418 11.5602 1.42664 11.9038C1.18282 12.2888 1.08662 12.7113 1.04232 13.1653C0.999958 13.5994 0.999971 14.1345 0.999985 14.7758V14.8492C0.999971 15.4904 0.999958 16.0256 1.04232 16.4597C1.08662 16.9137 1.18282 17.3362 1.42664 17.7212C1.64418 18.0648 1.9352 18.3558 2.27874 18.5733C2.66377 18.8172 3.08625 18.9134 3.54028 18.9577C3.97439 19 4.5095 19 5.15072 19H5.22416C5.86539 19 6.40058 19 6.83469 18.9577C7.28873 18.9134 7.7112 18.8172 8.09623 18.5733C8.43977 18.3558 8.73079 18.0648 8.94833 17.7212C9.19215 17.3362 9.28835 16.9137 9.33265 16.4597C9.37502 16.0256 9.375 15.4904 9.37499 14.8492V14.7758C9.375 14.1346 9.37502 13.5994 9.33265 13.1653C9.28835 12.7113 9.19215 12.2888 8.94833 11.9038C8.73079 11.5602 8.43977 11.2692 8.09623 11.0517C7.7112 10.8078 7.28873 10.7116 6.83469 10.6673C6.40057 10.625 5.86542 10.625 5.22417 10.625Z"
    fill="currentColor"
  />
  <path
    d="M14.8492 1H14.7758C14.1345 0.999986 13.5994 0.999974 13.1653 1.04233C12.7112 1.08664 12.2888 1.18284 11.9037 1.42665C11.5602 1.6442 11.2692 1.93522 11.0516 2.27876C10.8078 2.66379 10.7116 3.08626 10.6673 3.5403C10.625 3.97441 10.625 4.50954 10.625 5.15079V5.22418C10.625 5.86544 10.625 6.40059 10.6673 6.83471C10.7116 7.28874 10.8078 7.71121 11.0516 8.09624C11.2692 8.43978 11.5602 8.7308 11.9037 8.94835C12.2888 9.19217 12.7112 9.28837 13.1653 9.33267C13.5994 9.37503 14.1345 9.37502 14.7758 9.375H14.8492C15.4904 9.37502 16.0256 9.37503 16.4597 9.33267C16.9137 9.28837 17.3362 9.19217 17.7212 8.94835C18.0648 8.7308 18.3558 8.43978 18.5733 8.09624C18.8172 7.71121 18.9134 7.28874 18.9577 6.83471C19 6.40059 19 5.86546 19 5.22421V5.15083C19 4.50957 19 3.97442 18.9577 3.5403C18.9134 3.08626 18.8172 2.66379 18.5733 2.27876C18.3558 1.93522 18.0648 1.6442 17.7212 1.42665C17.3362 1.18284 16.9137 1.08664 16.4597 1.04233C16.0256 0.999974 15.4904 0.999986 14.8492 1Z"
    fill="currentColor"
  />
  <path
    fill-rule="evenodd"
    clip-rule="evenodd"
    d="M14.3542 10.625C12.2946 10.625 10.625 12.2946 10.625 14.3542C10.625 16.4137 12.2946 18.0833 14.3542 18.0833C15.1127 18.0833 15.8184 17.8568 16.4072 17.4678L17.7197 18.7802C18.0126 19.0731 18.4874 19.0731 18.7803 18.7802C19.0732 18.4873 19.0732 18.0125 18.7803 17.7196L17.4679 16.4071C17.8569 15.8183 18.0833 15.1127 18.0833 14.3542C18.0833 12.2946 16.4137 10.625 14.3542 10.625ZM12.125 14.3542C12.125 13.123 13.123 12.125 14.3542 12.125C15.5853 12.125 16.5833 13.123 16.5833 14.3542C16.5833 15.5853 15.5853 16.5833 14.3542 16.5833C13.123 16.5833 12.125 15.5853 12.125 14.3542Z"
    fill="currentColor"
  />
</svg>
