<svg width="20" height="20" viewBox="0 0 20 20" fill="currentcolor" xmlns="http://www.w3.org/2000/svg">
  <path d="M10.0001 0.930054C4.99083 0.930054 0.930054 4.99083 0.930054 10.0001V15.2308C0.930054 17.3125 2.6176 19 4.69928 19C5.9313 19 6.93005 18.0012 6.93005 16.7692V12.9375C6.93005 11.7055 5.9313 10.7067 4.69928 10.7067C3.85833 10.7067 3.0817 10.9821 2.45467 11.4477V10.0001C2.45467 5.83285 5.83285 2.45467 10.0001 2.45467C14.1673 2.45467 17.5454 5.83285 17.5454 10.0001V11.4476C16.9184 10.9821 16.1418 10.7067 15.3008 10.7067C14.0688 10.7067 13.0701 11.7055 13.0701 12.9375V16.7692C13.0701 18.0012 14.0688 19 15.3008 19C17.3825 19 19.0701 17.3125 19.0701 15.2308V14.476C19.0701 14.4723 19.0701 14.4687 19.0701 14.4651V10.0001C19.0701 4.99083 15.0093 0.930054 10.0001 0.930054Z" fill="currentcolor" />
</svg>
