<svg
  xmlns="http://www.w3.org/2000/svg"
  width="20"
  height="20"
  viewBox="0 0 20 20"
  fill="none"
>
  <path
    fill-rule="evenodd"
    clip-rule="evenodd"
    d="M10 2.56094C8.25986 0.89808 5.91428 0.65187 3.94934 1.40735C1.75851 2.24968 0 4.34818 0 7.10947C0 9.21775 0.950832 11.1183 2.25293 12.7876C3.55481 14.4566 5.25702 15.9568 6.86386 17.2718L6.90027 17.3016C7.50171 17.7938 8.0067 18.2071 8.45616 18.4913C8.93222 18.7922 9.423 19 10 19C10.577 19 11.0678 18.7922 11.5438 18.4913C11.9933 18.2071 12.4983 17.7938 13.0997 17.3016L13.1361 17.2718C14.743 15.9568 16.4452 14.4566 17.7471 12.7876C19.0492 11.1183 20 9.21775 20 7.10947C20 4.34818 18.2415 2.24968 16.0507 1.40735C14.0857 0.65187 11.7401 0.89808 10 2.56094ZM9.66238 6.44468C9.52691 6.17969 9.24505 6.01713 8.94239 6.02945C8.63974 6.04176 8.37265 6.22665 8.26015 6.50172L7.42793 8.53658H5.38462C4.95978 8.53658 4.61539 8.87341 4.61539 9.28891C4.61539 9.70442 4.95978 10.0412 5.38462 10.0412H7.94872C8.26326 10.0412 8.54611 9.85395 8.66293 9.56832L9.0524 8.61605L10.8504 12.1332C10.9859 12.3981 11.2678 12.5607 11.5704 12.5484C11.8731 12.5361 12.1402 12.3512 12.2527 12.0761L13.0849 10.0412H15.1282C15.553 10.0412 15.8974 9.70442 15.8974 9.28891C15.8974 8.87341 15.553 8.53658 15.1282 8.53658H12.5641C12.2496 8.53658 11.9667 8.72387 11.8499 9.0095L11.4604 9.96178L9.66238 6.44468Z"
    fill="currentColor"
  />
</svg>
