<svg
  xmlns="http://www.w3.org/2000/svg"
  width="20"
  height="20"
  viewBox="0 0 20 20"
  fill="none"
>
  <path
    d="M3.94934 1.40735C5.91428 0.651871 8.25986 0.898081 10 2.56093C11.7401 0.898081 14.0857 0.651871 16.0507 1.40735C18.2415 2.24967 20 4.34817 20 7.10946C20 9.21774 19.0492 11.1183 17.7471 12.7876C16.4452 14.4566 14.743 15.9568 13.1361 17.2718L13.0997 17.3016C12.4983 17.7938 11.9933 18.2071 11.5438 18.4913C11.0678 18.7922 10.577 19 10 19C9.423 19 8.93222 18.7922 8.45616 18.4913C8.00671 18.2071 7.50175 17.7938 6.90033 17.3016L6.86386 17.2718C5.25702 15.9568 3.55481 14.4566 2.25293 12.7876C0.950832 11.1183 0 9.21774 0 7.10946C0 4.34817 1.75851 2.24967 3.94934 1.40735Z"
    fill="currentColor"
  />
</svg>
