<svg width="20" height="20" viewBox="0 0 20 20" fill="currentColor" xmlns="http://www.w3.org/2000/svg">
  <path fill-rule="evenodd" d="M1 10.4361C1 8.48765 1 7.51344 1.33354 6.6521C1.5017 6.21784 1.73042 5.8092 2.01299 5.43817C2.57345 4.70225 3.40637 4.18835 5.0722 3.16056L5.25249 3.04932C7.29915 1.78656 8.32248 1.15517 9.44549 1.03065C9.81402 0.989784 10.186 0.989784 10.5545 1.03065C11.6775 1.15517 12.7009 1.78656 14.7475 3.04932L14.9278 3.16056C16.5936 4.18835 17.4265 4.70225 17.987 5.43817C18.2696 5.8092 18.4983 6.21784 18.6665 6.6521C19 7.51344 19 8.48765 19 10.4361C19 13.8006 19 15.4829 18.2139 16.7059C17.823 17.3141 17.3034 17.8304 16.6913 18.2188C15.4605 19 13.7675 19 10.3816 19H9.61843C6.23249 19 4.53951 19 3.30866 18.2188C2.6966 17.8304 2.17705 17.3141 1.78613 16.7059C1 15.4829 1 13.8006 1 10.4361ZM7 13.5C6.58579 13.5 6.25 13.8358 6.25 14.25C6.25 14.6642 6.58579 15 7 15H13C13.4142 15 13.75 14.6642 13.75 14.25C13.75 13.8358 13.4142 13.5 13 13.5H7Z" fill="currentColor" />
</svg>
