<svg
  xmlns="http://www.w3.org/2000/svg"
  width="20"
  height="20"
  viewBox="0 0 20 20"
  fill="none"
>
  <path
    d="M11.1049 1.10706C10.3752 0.964313 9.62477 0.964313 8.89514 1.10706C7.86166 1.30925 6.92036 1.89291 5.39024 2.84167L5.12937 3.00337C3.7497 3.85819 2.90059 4.38429 2.29356 5.12696C1.86443 5.65199 1.53192 6.24879 1.31145 6.88967C0.999589 7.79621 0.999751 8.79381 1.00002 10.4147L1.00003 15.1145C1.00003 17.2604 2.74272 19 4.89244 19C6.60818 19 7.99907 17.6116 7.99907 15.8989V13.6765C7.99907 12.5734 8.89491 11.6791 10 11.6791C11.1051 11.6791 12.0009 12.5734 12.0009 13.6765V15.8989C12.0009 17.6116 13.3918 19 15.1076 19C17.2573 19 19 17.2604 19 15.1145L19 10.4148C19.0002 8.79381 19.0004 7.79621 18.6885 6.88967C18.4681 6.24879 18.1356 5.65199 17.7064 5.12696C17.0994 4.38429 16.2503 3.85819 14.8706 3.00336L14.6098 2.84167C13.0796 1.89291 12.1383 1.30925 11.1049 1.10706Z"
    fill="currentColor"
  />
</svg>
