<svg
  xmlns="http://www.w3.org/2000/svg"
  width="20"
  height="20"
  viewBox="0 0 20 20"
  fill="none"
>
  <path
    d="M7.0952 9.90157C8.31881 9.90157 9.31074 8.90964 9.31074 7.68603C9.31074 6.46243 8.31881 5.4705 7.0952 5.4705C5.87159 5.4705 4.87967 6.46243 4.87967 7.68603C4.87967 8.90964 5.87159 9.90157 7.0952 9.90157Z"
    fill="currentColor"
  />
  <path
    fill-rule="evenodd"
    clip-rule="evenodd"
    d="M10.0493 1H9.95073C8.2882 0.999993 6.97362 0.999987 5.92809 1.11326C4.85696 1.22931 3.97154 1.47208 3.21122 2.02448C2.75583 2.35535 2.35535 2.75583 2.02448 3.21122C1.47208 3.97154 1.22931 4.85696 1.11326 5.92809C0.999987 6.97362 0.999993 8.2882 1 9.95073V10.0493C0.999993 11.7118 0.999987 13.0264 1.11326 14.0719C1.22931 15.143 1.47208 16.0285 2.02448 16.7888C2.35535 17.2442 2.75583 17.6447 3.21122 17.9755C3.97154 18.5279 4.85696 18.7707 5.92809 18.8867C6.97362 19 8.28819 19 9.9507 19H10.0493C11.7118 19 13.0264 19 14.0719 18.8867C15.143 18.7707 16.0285 18.5279 16.7888 17.9755C17.2442 17.6447 17.6447 17.2442 17.9755 16.7888C18.5279 16.0285 18.7707 15.143 18.8867 14.0719C19 13.0264 19 11.7118 19 10.0493V9.9507C19 8.28819 19 6.97362 18.8867 5.92809C18.7707 4.85696 18.5279 3.97154 17.9755 3.21122C17.6447 2.75583 17.2442 2.35535 16.7888 2.02448C16.0285 1.47208 15.143 1.22931 14.0719 1.11326C13.0264 0.999987 11.7118 0.999993 10.0493 1ZM17.4988 10L17.4987 10.2789C17.4134 10.244 17.333 10.2124 17.2563 10.1839C16.9093 10.0549 16.6859 10.0078 16.4901 10.0013C16.1388 9.98965 15.7897 10.0566 15.4724 10.1966C15.2956 10.2746 15.1108 10.4 14.8479 10.646C14.578 10.8986 14.2632 11.2414 13.8089 11.7374L12.6479 13.0048C11.4326 14.3314 9.31454 14.5601 7.80183 13.5281C6.9205 12.9268 5.68917 13.0463 4.96194 13.8039L3.16237 15.7948C2.87335 15.3494 2.69997 14.7793 2.60581 13.9102C2.50221 12.9541 2.50128 11.7193 2.50128 10C2.50128 8.28069 2.50221 7.04596 2.60581 6.08981C2.70802 5.14641 2.90357 4.5554 3.23904 4.09366C3.47731 3.76571 3.76571 3.47731 4.09366 3.23904C4.5554 2.90357 5.14641 2.70802 6.08981 2.60581C7.04596 2.50221 8.28069 2.50128 10 2.50128C11.7193 2.50128 12.9541 2.50221 13.9102 2.60581C14.8536 2.70802 15.4446 2.90357 15.9064 3.23904C16.2343 3.47731 16.5227 3.76571 16.761 4.09366C17.0965 4.5554 17.292 5.14641 17.3942 6.08981C17.4978 7.04596 17.4988 8.28069 17.4988 10Z"
    fill="currentColor"
  />
</svg>
