<svg
  xmlns="http://www.w3.org/2000/svg"
  width="20"
  height="20"
  viewBox="0 0 20 20"
  fill="none"
>
  <path
    d="M11.8756 1H8.1244H8.12438C7.05616 0.999984 6.19028 0.999971 5.49746 1.08568C4.77572 1.17496 4.15892 1.36522 3.6313 1.80412C3.10368 2.24303 2.80432 2.81489 2.58514 3.50831C2.37474 4.17396 2.21714 5.02537 2.02269 6.07576L1.28911 10.0382L1.28911 10.0382C1.21348 10.4467 1.15843 10.744 1.11784 11L2.5281 11L4.63366 11C4.94248 11 5.23296 10.9999 5.47691 11.0273C5.74875 11.0578 6.03454 11.1282 6.30354 11.3166C6.57255 11.5051 6.7364 11.7496 6.85796 11.9946C6.96705 12.2145 7.06628 12.4875 7.17178 12.7778L7.22611 12.9272C7.34761 13.2613 7.41864 13.4534 7.48579 13.5888C7.51606 13.6498 7.53651 13.68 7.54743 13.694C7.5525 13.7005 7.55599 13.7039 7.55599 13.7039L7.557 13.7048L7.55814 13.7054L7.5619 13.7071C7.56387 13.7078 7.56665 13.7089 7.5704 13.7101C7.58732 13.7156 7.62265 13.7245 7.69033 13.7321C7.8405 13.7489 8.04533 13.75 8.40086 13.75H11.5991C11.9547 13.75 12.1595 13.7489 12.3097 13.7321C12.3774 13.7245 12.4127 13.7156 12.4296 13.7101C12.4374 13.7075 12.4419 13.7054 12.4419 13.7054L12.443 13.7048L12.444 13.7039C12.444 13.7039 12.4475 13.7005 12.4526 13.694C12.4635 13.68 12.4839 13.6498 12.5142 13.5888C12.5814 13.4534 12.6524 13.2613 12.7739 12.9272L12.8282 12.7777L12.8282 12.7777C12.9337 12.4875 13.033 12.2145 13.142 11.9946C13.2636 11.7496 13.4274 11.5051 13.6965 11.3166C13.9655 11.1282 14.2513 11.0578 14.5231 11.0273C14.767 10.9999 15.0575 11 15.3663 11L17.4719 11L18.8822 11C18.8416 10.744 18.7865 10.4466 18.7109 10.0381L17.9773 6.0758C17.7829 5.02539 17.6253 4.17397 17.4149 3.50831C17.1957 2.81489 16.8963 2.24303 16.3687 1.80412C15.8411 1.36522 15.2243 1.17496 14.5025 1.08568C13.8097 0.999971 12.9438 0.999984 11.8756 1H11.8756Z"
    fill="currentColor"
  />
  <path
    d="M1 13.2611C0.999988 14.3059 0.999978 15.1483 1.07526 15.8205C1.15308 16.5154 1.31856 17.1132 1.70934 17.6272C1.89951 17.8773 2.1227 18.1005 2.37281 18.2907C2.88678 18.6814 3.48463 18.8469 4.17954 18.9247C4.85169 19 5.69411 19 6.73889 19H6.73892H13.2611H13.2611C14.3059 19 15.1483 19 15.8205 18.9247C16.5154 18.8469 17.1132 18.6814 17.6272 18.2907C17.8773 18.1005 18.1005 17.8773 18.2907 17.6272C18.6814 17.1132 18.8469 16.5154 18.9247 15.8205C19 15.1483 19 14.3059 19 13.2611V13.2611C19 12.9902 19 12.6941 18.9982 12.5H17.607H15.4009C15.0453 12.5 14.8405 12.5011 14.6903 12.5179C14.6226 12.5255 14.5873 12.5345 14.5704 12.5399C14.5626 12.5425 14.5581 12.5446 14.5581 12.5446L14.557 12.5452L14.556 12.5461C14.556 12.5461 14.5525 12.5495 14.5474 12.556C14.5365 12.57 14.5161 12.6002 14.4858 12.6612C14.4186 12.7966 14.3476 12.9887 14.2261 13.3228L14.1718 13.4722L14.1718 13.4723C14.0663 13.7625 13.967 14.0355 13.858 14.2554C13.7364 14.5004 13.5726 14.745 13.3035 14.9334C13.0345 15.1218 12.7487 15.1922 12.4769 15.2227C12.233 15.2501 11.9425 15.25 11.6337 15.25H11.6337H8.36635H8.36634C8.05753 15.25 7.76702 15.2501 7.52309 15.2227C7.25125 15.1922 6.96547 15.1218 6.69646 14.9334C6.42745 14.745 6.2636 14.5004 6.14204 14.2554C6.03295 14.0355 5.93372 13.7625 5.82821 13.4722L5.77389 13.3228C5.65239 12.9887 5.58136 12.7966 5.51421 12.6612C5.48394 12.6002 5.46349 12.57 5.45257 12.556C5.4475 12.5495 5.44401 12.5461 5.44401 12.5461L5.443 12.5452L5.44186 12.5446C5.44186 12.5446 5.43744 12.5425 5.4296 12.5399C5.41268 12.5345 5.37735 12.5255 5.30967 12.5179C5.1595 12.5011 4.95467 12.5 4.59915 12.5H2.39304H1.00185C0.999996 12.6941 0.999998 12.9901 1 13.261V13.2611Z"
    fill="currentColor"
  />
</svg>
