<svg width="20" height="20" viewBox="0 0 20 20" fill="currentcolor" xmlns="http://www.w3.org/2000/svg">
  <path fill-rule="evenodd" d="M8.1244 1H11.8756C12.9438 0.999985 13.8097 0.999972 14.5025 1.08568C15.2243 1.17496 15.8411 1.36522 16.3687 1.80413C16.8963 2.24303 17.1957 2.81489 17.4149 3.50831C17.6253 4.17397 17.7829 5.02539 17.9773 6.0758L18.7109 10.0381C18.7865 10.4466 18.8416 10.744 18.8822 11H15.3663C15.0575 11 14.767 10.9999 14.5231 11.0273C14.2513 11.0578 13.9655 11.1282 13.6965 11.3166C13.4274 11.5051 13.2636 11.7496 13.142 11.9946C13.033 12.2145 12.9338 12.4874 12.8283 12.7776L12.7739 12.9272C12.6524 13.2613 12.5814 13.4534 12.5142 13.5888C12.4839 13.6498 12.4635 13.68 12.4526 13.694L12.4472 13.7005L12.444 13.7039L12.443 13.7048L12.4419 13.7054C12.4419 13.7054 12.4374 13.7075 12.4296 13.7101C12.4127 13.7156 12.3774 13.7245 12.3097 13.7321C12.1595 13.7489 11.9547 13.75 11.5991 13.75H8.40086C8.04533 13.75 7.8405 13.7489 7.69033 13.7321C7.62265 13.7245 7.58732 13.7156 7.57041 13.7101C7.56665 13.7089 7.56387 13.7078 7.5619 13.7071L7.55815 13.7054L7.557 13.7048L7.55599 13.7039C7.55599 13.7039 7.5525 13.7005 7.54743 13.694C7.53651 13.68 7.51606 13.6498 7.48579 13.5888C7.41864 13.4534 7.34761 13.2613 7.22611 12.9272L7.17178 12.7778C7.06628 12.4875 6.96705 12.2145 6.85796 11.9946C6.7364 11.7496 6.57255 11.5051 6.30354 11.3166C6.03454 11.1282 5.74875 11.0578 5.47691 11.0273C5.23296 10.9999 4.94248 11 4.63366 11L1.11784 11C1.15842 10.744 1.21347 10.4467 1.2891 10.0383L2.02269 6.07576C2.21714 5.02537 2.37475 4.17397 2.58514 3.50831C2.80432 2.81489 3.10368 2.24303 3.6313 1.80413C4.15892 1.36522 4.77572 1.17496 5.49746 1.08568C6.19028 0.999972 7.05618 0.999985 8.1244 1ZM6.25 5.04114C6.25 4.62692 6.58579 4.29114 7 4.29114H13C13.4142 4.29114 13.75 4.62693 13.75 5.04114C13.75 5.45535 13.4142 5.79114 13 5.79114L7 5.79114C6.58579 5.79114 6.25 5.45535 6.25 5.04114ZM7.25 8.04114C7.25 7.62692 7.58579 7.29114 8 7.29114L12 7.29114C12.4142 7.29114 12.75 7.62693 12.75 8.04114C12.75 8.45535 12.4142 8.79114 12 8.79114H8C7.58579 8.79114 7.25 8.45535 7.25 8.04114Z" fill="currentcolor" />
  <path d="M1 13.261V13.1862C1 12.9161 1 12.6937 1.00185 12.5H4.59915C4.95467 12.5 5.1595 12.5011 5.30967 12.5179C5.37736 12.5255 5.41268 12.5345 5.4296 12.5399C5.43744 12.5425 5.44186 12.5446 5.44186 12.5446L5.443 12.5452L5.44401 12.5461C5.44401 12.5461 5.4475 12.5495 5.45257 12.556C5.4635 12.57 5.48394 12.6002 5.51421 12.6612C5.58136 12.7966 5.65239 12.9887 5.77389 13.3228L5.82822 13.4722C5.93372 13.7625 6.03296 14.0355 6.14204 14.2554C6.2636 14.5004 6.42745 14.745 6.69646 14.9334C6.96547 15.1218 7.25125 15.1922 7.52309 15.2227C7.76702 15.2501 8.05751 15.25 8.36631 15.25H11.6337C11.9425 15.25 12.233 15.2501 12.4769 15.2227C12.7487 15.1922 13.0345 15.1218 13.3035 14.9334C13.5726 14.745 13.7364 14.5004 13.858 14.2554C13.967 14.0355 14.0663 13.7625 14.1717 13.4723L14.2261 13.3228C14.3476 12.9887 14.4186 12.7966 14.4858 12.6612C14.5161 12.6002 14.5365 12.57 14.5474 12.556C14.5525 12.5495 14.556 12.5461 14.556 12.5461L14.557 12.5452L14.5581 12.5446L14.5631 12.5425L14.5704 12.5399C14.5873 12.5345 14.6226 12.5255 14.6903 12.5179C14.8405 12.5011 15.0453 12.5 15.4009 12.5H18.9982C19 12.6941 19 12.917 19 13.1879V13.2611C19 14.3058 19 15.1483 18.9247 15.8205C18.8469 16.5154 18.6814 17.1132 18.2907 17.6272C18.1005 17.8773 17.8773 18.1005 17.6272 18.2907C17.1132 18.6814 16.5154 18.8469 15.8205 18.9247C15.1483 19 14.3059 19 13.2612 19H6.73892C5.69418 19 4.85167 19 4.17954 18.9247C3.48463 18.8469 2.88678 18.6814 2.37281 18.2907C2.1227 18.1005 1.89951 17.8773 1.70934 17.6272C1.31856 17.1132 1.15308 16.5154 1.07526 15.8205C0.999979 15.1483 0.999988 14.3058 1 13.261Z" fill="currentcolor" />
</svg>
