<svg
  xmlns="http://www.w3.org/2000/svg"
  width="20"
  height="20"
  viewBox="0 0 20 20"
  fill="none"
>
  <path
    d="M11.4655 9.36802C11.4231 9.36802 11.388 9.37934 11.3548 9.40277C11.3268 9.42248 11.2884 9.46535 11.2486 9.55289L11.2478 9.55461C11.2108 9.63398 11.1776 9.75155 11.1536 9.91504C11.1323 10.0748 11.121 10.2757 11.121 10.5196V11.8204C11.121 12.0153 11.1285 12.1848 11.1429 12.3297C11.1597 12.4741 11.182 12.5931 11.2086 12.6884C11.238 12.7822 11.2679 12.8489 11.2957 12.8938C11.3229 12.9339 11.3487 12.957 11.3711 12.9704C11.4007 12.9839 11.4339 12.9915 11.4732 12.9915C11.5153 12.9915 11.5502 12.9803 11.5832 12.9572C11.6142 12.9347 11.6521 12.8907 11.6884 12.8064C11.7243 12.7231 11.7555 12.6026 11.7772 12.4383L11.7775 12.4358C11.8013 12.2714 11.8138 12.0668 11.8138 11.8204V10.5196C11.8138 10.3247 11.8051 10.1573 11.7884 10.0162L11.788 10.0128C11.7733 9.86871 11.7531 9.75269 11.7288 9.66246C11.7048 9.57377 11.6761 9.51279 11.6475 9.47238C11.6154 9.42704 11.5872 9.40475 11.5656 9.39378L11.5593 9.39058C11.5341 9.37659 11.5043 9.36802 11.4655 9.36802Z"
    fill="currentColor"
  />
  <path
    fill-rule="evenodd"
    clip-rule="evenodd"
    d="M7.00032 2.51221C7.46993 3.1582 8.44482 4.18563 9.89536 4.18563C11.427 4.18563 12.3465 3.21608 12.7899 2.56849C13.0146 2.24034 13.3695 2 13.7623 2H15.75C16.9393 2 18.012 2.72821 18.4694 3.84615L19.8862 7.30883C20.2071 8.09308 19.8249 8.99193 19.0438 9.29024L18.1781 9.69751C17.4833 10.0244 16.664 9.65947 16.4282 8.91791L16.0583 7.75489V16C16.0583 17.1046 15.179 18 14.0943 18H5.88039C4.79569 18 3.91638 17.1046 3.91638 16V7.75489L3.50084 9.09929C3.29247 9.77346 2.59333 10.1546 1.92685 9.95734L1.11638 9.71747C0.258062 9.49896 -0.218789 8.56469 0.0988124 7.72379L1.53433 3.92306C1.97191 2.76449 3.065 2 4.28398 2H6.07668C6.44462 2 6.7814 2.21106 7.00032 2.51221ZM10.7316 8.21665C10.9588 8.10996 11.2057 8.05786 11.4693 8.05786C11.6764 8.05786 11.8745 8.09105 12.0625 8.15855C12.2566 8.22469 12.4296 8.32863 12.5799 8.46951C12.7333 8.61088 12.8605 8.78892 12.9639 8.999C13.0712 9.20952 13.1504 9.45595 13.2041 9.735C13.2583 10.0137 13.2845 10.3289 13.2845 10.6797V11.668C13.2845 12.1068 13.2439 12.4919 13.1591 12.8204C13.0753 13.1453 12.9551 13.4228 12.7936 13.646L12.7928 13.6471C12.6322 13.8661 12.4376 14.0331 12.2085 14.1422C11.9831 14.2494 11.737 14.3016 11.4732 14.3016C11.2632 14.3016 11.0632 14.2683 10.8744 14.2003C10.6837 14.1316 10.511 14.027 10.357 13.888L10.3541 13.8853C10.202 13.7423 10.0738 13.5653 9.96787 13.358L9.96639 13.3551C9.86227 13.1431 9.78454 12.8974 9.73077 12.6209C9.67664 12.3398 9.65031 12.0214 9.65031 11.668V10.6797C9.65031 10.241 9.69093 9.85698 9.77578 9.53086L9.77608 9.52973C9.8625 9.20521 9.98405 8.92914 10.1458 8.70852C10.3066 8.48931 10.5017 8.32319 10.7316 8.21665ZM8.95657 8.12427C9.11811 8.12427 9.24907 8.25763 9.24907 8.42213V13.4766C9.24907 13.8024 9.24907 13.9652 9.16143 14.0753C9.14422 14.097 9.12483 14.1167 9.10359 14.1342C8.99546 14.2235 8.83552 14.2235 8.51564 14.2235C8.19576 14.2235 8.03582 14.2235 7.92768 14.1342C7.90644 14.1167 7.88705 14.097 7.86984 14.0753C7.7822 13.9652 7.7822 13.8024 7.7822 13.4766V10.5411C7.7822 10.2607 7.50597 10.0676 7.249 10.1683C6.99204 10.269 6.71581 10.0759 6.71581 9.79547V9.45998C6.71581 9.31163 6.71581 9.23745 6.73819 9.17285C6.7602 9.10935 6.79759 9.05254 6.8469 9.00767C6.89707 8.96203 6.96444 8.93383 7.09919 8.87744L8.84538 8.14663C8.88066 8.13186 8.91843 8.12427 8.95657 8.12427Z"
    fill="currentColor"
  />
</svg>
