<svg width="20" height="20" viewBox="0 0 20 20" fill="currentcolor" xmlns="http://www.w3.org/2000/svg">
  <path fill-rule="evenodd" d="M15.1122 1.13708C18.1104 3.1906 18.9022 7.32434 16.8806 10.37C15.441 12.539 12.9636 13.57 10.5763 13.2445C10.5383 13.2393 10.509 13.2353 10.4838 13.2321L10.4766 13.2312C10.4578 13.2383 10.4359 13.2467 10.4074 13.2577L9.42023 13.6383C9.35644 13.6628 9.30555 13.6825 9.2619 13.7C9.26104 13.7476 9.26074 13.8029 9.26038 13.8722L9.25633 14.6611C9.25566 14.8015 9.25491 14.9605 9.23931 15.0995C9.22072 15.2651 9.17563 15.4689 9.04309 15.6686C8.91055 15.8683 8.74147 15.9872 8.5973 16.0668C8.47635 16.1335 8.3315 16.1939 8.20368 16.2471L7.38812 16.5873C7.33452 16.6096 7.292 16.6274 7.25556 16.6431C7.24999 16.6829 7.24403 16.7292 7.23654 16.7876L7.06434 18.13C7.04516 18.28 7.02358 18.4487 6.98829 18.5932C6.94629 18.7651 6.86964 18.9745 6.69613 19.1621C6.52263 19.3498 6.32174 19.4406 6.15546 19.4939C6.01572 19.5387 5.85129 19.5712 5.70514 19.6L4.20811 19.8959C3.98661 19.9397 3.7511 19.9864 3.5493 19.9973C3.31521 20.01 3.00256 19.9844 2.71605 19.7638C2.42953 19.5432 2.32071 19.2443 2.26948 19.012C2.22531 18.8117 2.20586 18.5687 2.18757 18.3403L2.02873 16.365L2.02314 16.2969C2.00006 16.0185 1.97521 15.7185 2.05112 15.4237C2.12704 15.1289 2.29329 14.8798 2.44762 14.6485L2.48532 14.5919L5.57334 9.93936C5.6137 9.87856 5.64505 9.83128 5.6714 9.79027L5.66138 9.76838C5.6363 9.71396 5.60619 9.65116 5.56784 9.57124C4.57787 7.50796 4.66731 4.97633 6.02315 2.93356C8.04466 -0.112137 12.114 -0.916448 15.1122 1.13708ZM12.8806 4.49946C14.0619 5.30858 14.3739 6.93735 13.5774 8.13741C12.7809 9.33746 11.1775 9.65438 9.99615 8.84525C8.8148 8.03613 8.50282 6.40736 9.29934 5.2073C10.0958 4.00725 11.6992 3.69033 12.8806 4.49946Z" fill="currentcolor" />
</svg>
