<svg
  xmlns="http://www.w3.org/2000/svg"
  width="20"
  height="21"
  viewBox="0 0 20 21"
  fill="none"
>
  <path
    fill-rule="evenodd"
    clip-rule="evenodd"
    d="M11.0216 3.20425C9.67998 1.82962 7.22909 1.85448 5.53872 3.58646C3.84835 5.31845 3.82408 7.82968 5.16569 9.20431C6.50729 10.5789 8.95818 10.5541 10.6486 8.82209C12.3389 7.09011 12.3632 4.57888 11.0216 3.20425ZM4.14016 2.15347C6.45632 -0.219705 10.1673 -0.53709 12.4201 1.77126C14.4426 3.8435 14.3998 7.11972 12.6942 9.48516L16.5007 13.3854C16.9582 13.854 17.3692 14.275 17.6572 14.6617C17.9715 15.0839 18.2307 15.5818 18.2307 16.2072C18.2307 16.8326 17.9715 17.3305 17.6572 17.7527C17.3692 18.1394 16.9582 18.5604 16.5007 19.0291L15.6505 19.9002C15.2643 20.2959 14.6381 20.2959 14.2519 19.9002C13.8657 19.5045 13.8657 18.863 14.2519 18.4673L15.0591 17.6402C15.5733 17.1133 15.8872 16.7887 16.0847 16.5234C16.2583 16.2903 16.2535 16.2166 16.2529 16.2079V16.2065C16.2535 16.1978 16.2583 16.1241 16.0847 15.891C15.9376 15.6934 15.7258 15.4628 15.4148 15.1402L13.9409 16.6505C13.5547 17.0462 12.9285 17.0462 12.5423 16.6505C12.1561 16.2547 12.1561 15.6132 12.5423 15.2175L14.017 13.7065L11.2957 10.9181C8.98708 12.6657 5.78958 12.7095 3.76712 10.6373C1.51424 8.32895 1.824 4.52665 4.14016 2.15347Z"
    fill="currentColor"
  />
</svg>
