<svg
  xmlns="http://www.w3.org/2000/svg"
  width="20"
  height="20"
  viewBox="0 0 20 20"
  fill="none"
>
  <path
    fill-rule="evenodd"
    clip-rule="evenodd"
    d="M4.88783 1.13708C1.88961 3.1906 1.09784 7.32434 3.11935 10.37C4.55896 12.539 7.0364 13.57 9.42372 13.2445C9.46174 13.2393 9.49098 13.2353 9.51617 13.2321L9.5234 13.2312C9.54224 13.2383 9.56414 13.2467 9.59259 13.2577L10.5798 13.6383C10.6436 13.6628 10.6944 13.6825 10.7381 13.7C10.739 13.7476 10.7393 13.8029 10.7396 13.8722L10.7437 14.6611C10.7443 14.8015 10.7451 14.9605 10.7607 15.0995C10.7793 15.2651 10.8244 15.4689 10.9569 15.6686C11.0895 15.8683 11.2585 15.9872 11.4027 16.0668C11.5236 16.1335 11.6685 16.1939 11.7963 16.2471L12.6119 16.5873C12.6655 16.6096 12.708 16.6274 12.7444 16.6431C12.75 16.6829 12.756 16.7292 12.7635 16.7876L12.9357 18.13C12.9548 18.28 12.9764 18.4487 13.0117 18.5932C13.0537 18.7651 13.1304 18.9745 13.3039 19.1621C13.4774 19.3498 13.6783 19.4406 13.8445 19.4939C13.9843 19.5387 14.1487 19.5712 14.2949 19.6L15.7919 19.8959C16.0134 19.9397 16.2489 19.9864 16.4507 19.9973C16.6848 20.01 16.9974 19.9844 17.284 19.7638C17.5705 19.5432 17.6793 19.2443 17.7305 19.012C17.7747 18.8117 17.7941 18.5687 17.8124 18.3403L17.9713 16.365L17.9769 16.2969C17.9999 16.0185 18.0248 15.7185 17.9489 15.4237C17.873 15.1289 17.7067 14.8798 17.5524 14.6485L17.5147 14.5919L14.4267 9.93936C14.3863 9.87856 14.3549 9.83128 14.3286 9.79027L14.3386 9.76838C14.3637 9.71396 14.3938 9.65116 14.4322 9.57124C15.4221 7.50796 15.3327 4.97633 13.9768 2.93356C11.9553 -0.112137 7.88604 -0.916448 4.88783 1.13708ZM7.11943 4.49946C5.93808 5.30858 5.62611 6.93735 6.42262 8.13741C7.21913 9.33746 8.8225 9.65438 10.0039 8.84525C11.1852 8.03613 11.4972 6.40736 10.7007 5.2073C9.90415 4.00725 8.30078 3.69033 7.11943 4.49946Z"
    fill="currentColor"
  />
</svg>
