<svg width="21" height="20" viewBox="0 0 21 20" fill="currentcolor" xmlns="http://www.w3.org/2000/svg">
  <path fill-rule="evenodd" d="M7.9575 3H13.6426C15.1334 2.99998 16.3231 2.99997 17.2562 3.12178C18.2202 3.24762 19.0141 3.51453 19.6421 4.12433C20.2701 4.73414 20.545 5.50496 20.6746 6.44094C20.8001 7.34696 20.8001 8.50215 20.8 9.94965V10.0503C20.8001 11.4979 20.8001 12.653 20.6746 13.5591C20.545 14.495 20.2701 15.2659 19.6421 15.8757C19.0141 16.4855 18.2202 16.7524 17.2562 16.8782C16.3231 17 15.1334 17 13.6426 17H7.9575C6.46671 17 5.27698 17 4.34388 16.8782C3.37991 16.7524 2.58604 16.4855 1.958 15.8757C1.32996 15.2659 1.05507 14.495 0.925472 13.5591C0.80002 12.6531 0.800033 11.4979 0.800049 10.0504V9.94965C0.800033 8.50215 0.80002 7.34695 0.925472 6.44094C1.05507 5.50496 1.32996 4.73414 1.958 4.12433C2.58604 3.51453 3.37991 3.24762 4.34388 3.12178C5.27698 2.99997 6.46672 2.99998 7.9575 3ZM4.63727 7.29043C4.63727 6.99349 4.63727 6.84503 4.72173 6.7451C4.73719 6.7268 4.75447 6.71003 4.77331 6.69502C4.87622 6.61301 5.02913 6.61301 5.33494 6.61301C5.64076 6.61301 5.79366 6.61301 5.89658 6.69502C5.91542 6.71003 5.93269 6.7268 5.94816 6.7451C6.03262 6.84503 6.03262 6.99349 6.03262 7.29043C6.03262 7.58736 6.03262 7.73583 5.94816 7.83576C5.93269 7.85405 5.91542 7.87082 5.89658 7.88584C5.79366 7.96785 5.64076 7.96785 5.33494 7.96785C5.02913 7.96785 4.87622 7.96785 4.77331 7.88584C4.75447 7.87082 4.73719 7.85405 4.72173 7.83576C4.63727 7.73583 4.63727 7.58736 4.63727 7.29043ZM4.72173 9.45477C4.63727 9.5547 4.63727 9.70317 4.63727 10.0001C4.63727 10.297 4.63727 10.4455 4.72173 10.5454C4.73719 10.5637 4.75447 10.5805 4.77331 10.5955C4.87622 10.6775 5.02913 10.6775 5.33494 10.6775C5.64076 10.6775 5.79366 10.6775 5.89658 10.5955C5.91542 10.5805 5.93269 10.5637 5.94816 10.5454C6.03262 10.4455 6.03262 10.297 6.03262 10.0001C6.03262 9.70317 6.03262 9.5547 5.94816 9.45477C5.93269 9.43648 5.91542 9.41971 5.89658 9.40469C5.79366 9.32268 5.64076 9.32268 5.33494 9.32268C5.02913 9.32268 4.87622 9.32268 4.77331 9.40469C4.75447 9.41971 4.73719 9.43648 4.72173 9.45477ZM4.72173 12.1644C4.63727 12.2644 4.63727 12.4128 4.63727 12.7098C4.63727 13.0067 4.63727 13.1552 4.72173 13.2551C4.73719 13.2734 4.75447 13.2902 4.77331 13.3052C4.87622 13.3872 5.02913 13.3872 5.33494 13.3872C5.64076 13.3872 5.79366 13.3872 5.89658 13.3052C5.91542 13.2902 5.93269 13.2734 5.94816 13.2551C6.03262 13.1552 6.03262 13.0067 6.03262 12.7098C6.03262 12.4128 6.03262 12.2644 5.94816 12.1644C5.93269 12.1462 5.91542 12.1294 5.89658 12.1144C5.79366 12.0324 5.64076 12.0324 5.33494 12.0324C5.02913 12.0324 4.87622 12.0324 4.77331 12.1144C4.75447 12.1294 4.73719 12.1462 4.72173 12.1644ZM7.27987 6.7451C7.19541 6.84503 7.19541 6.99349 7.19541 7.29043C7.19541 7.58736 7.19541 7.73583 7.27987 7.83576C7.29533 7.85405 7.31261 7.87082 7.33145 7.88584C7.43436 7.96785 7.58727 7.96785 7.89308 7.96785C8.19889 7.96785 8.3518 7.96785 8.45472 7.88584C8.47356 7.87082 8.49083 7.85405 8.5063 7.83576C8.59076 7.73583 8.59076 7.58736 8.59076 7.29043C8.59076 6.99349 8.59076 6.84503 8.5063 6.7451C8.49083 6.7268 8.47356 6.71003 8.45472 6.69502C8.3518 6.61301 8.19889 6.61301 7.89308 6.61301C7.58727 6.61301 7.43436 6.61301 7.33145 6.69502C7.31261 6.71003 7.29533 6.7268 7.27987 6.7451ZM7.19541 10.0001C7.19541 9.70317 7.19541 9.5547 7.27987 9.45477C7.29533 9.43648 7.31261 9.41971 7.33145 9.40469C7.43436 9.32268 7.58727 9.32268 7.89308 9.32268C8.19889 9.32268 8.3518 9.32268 8.45472 9.40469C8.47356 9.41971 8.49083 9.43648 8.5063 9.45477C8.59076 9.5547 8.59076 9.70317 8.59076 10.0001C8.59076 10.297 8.59076 10.4455 8.5063 10.5454C8.49083 10.5637 8.47356 10.5805 8.45472 10.5955C8.3518 10.6775 8.19889 10.6775 7.89308 10.6775C7.58727 10.6775 7.43436 10.6775 7.33145 10.5955C7.31261 10.5805 7.29533 10.5637 7.27987 10.5454C7.19541 10.4455 7.19541 10.297 7.19541 10.0001ZM10.0706 6.7451C9.9861 6.84503 9.9861 6.99349 9.9861 7.29043C9.9861 7.58736 9.9861 7.73583 10.0706 7.83576C10.086 7.85405 10.1033 7.87082 10.1221 7.88584C10.2251 7.96785 10.378 7.96785 10.6838 7.96785C10.9896 7.96785 11.1425 7.96785 11.2454 7.88584C11.2643 7.87082 11.2815 7.85405 11.297 7.83576C11.3815 7.73583 11.3815 7.58736 11.3815 7.29043C11.3815 6.99349 11.3815 6.84503 11.297 6.7451C11.2815 6.7268 11.2643 6.71003 11.2454 6.69502C11.1425 6.61301 10.9896 6.61301 10.6838 6.61301C10.378 6.61301 10.2251 6.61301 10.1221 6.69502C10.1033 6.71003 10.086 6.7268 10.0706 6.7451ZM9.9861 10.0001C9.9861 9.70317 9.9861 9.5547 10.0706 9.45477C10.086 9.43648 10.1033 9.41971 10.1221 9.40469C10.2251 9.32268 10.378 9.32268 10.6838 9.32268C10.9896 9.32268 11.1425 9.32268 11.2454 9.40469C11.2643 9.41971 11.2815 9.43648 11.297 9.45477C11.3815 9.5547 11.3815 9.70317 11.3815 10.0001C11.3815 10.297 11.3815 10.4455 11.297 10.5454C11.2815 10.5637 11.2643 10.5805 11.2454 10.5955C11.1425 10.6775 10.9896 10.6775 10.6838 10.6775C10.378 10.6775 10.2251 10.6775 10.1221 10.5955C10.1033 10.5805 10.086 10.5637 10.0706 10.5454C9.9861 10.4455 9.9861 10.297 9.9861 10.0001ZM12.8613 9.45477C12.7768 9.5547 12.7768 9.70317 12.7768 10.0001C12.7768 10.297 12.7768 10.4455 12.8613 10.5454C12.8767 10.5637 12.894 10.5805 12.9128 10.5955C13.0158 10.6775 13.1687 10.6775 13.4745 10.6775C13.7803 10.6775 13.9332 10.6775 14.0361 10.5955C14.055 10.5805 14.0722 10.5637 14.0877 10.5454C14.1722 10.4455 14.1722 10.297 14.1722 10.0001C14.1722 9.70317 14.1722 9.5547 14.0877 9.45477C14.0722 9.43648 14.055 9.41971 14.0361 9.40469C13.9332 9.32268 13.7803 9.32268 13.4745 9.32268C13.1687 9.32268 13.0158 9.32268 12.9128 9.40469C12.894 9.41971 12.8767 9.43648 12.8613 9.45477ZM15.5675 10.0001C15.5675 9.70317 15.5675 9.5547 15.652 9.45477C15.6674 9.43648 15.6847 9.41971 15.7035 9.40469C15.8065 9.32268 15.9594 9.32268 16.2652 9.32268C16.571 9.32268 16.7239 9.32268 16.8268 9.40469C16.8457 9.41971 16.8629 9.43648 16.8784 9.45477C16.9629 9.5547 16.9629 9.70317 16.9629 10.0001C16.9629 10.297 16.9629 10.4455 16.8784 10.5454C16.8629 10.5637 16.8457 10.5805 16.8268 10.5955C16.7239 10.6775 16.571 10.6775 16.2652 10.6775C15.9594 10.6775 15.8065 10.6775 15.7035 10.5955C15.6847 10.5805 15.6674 10.5637 15.652 10.5454C15.5675 10.4455 15.5675 10.297 15.5675 10.0001ZM15.652 12.1644C15.5675 12.2644 15.5675 12.4128 15.5675 12.7098C15.5675 13.0067 15.5675 13.1552 15.652 13.2551C15.6674 13.2734 15.6847 13.2902 15.7035 13.3052C15.8065 13.3872 15.9594 13.3872 16.2652 13.3872C16.571 13.3872 16.7239 13.3872 16.8268 13.3052C16.8457 13.2902 16.8629 13.2734 16.8784 13.2551C16.9629 13.1552 16.9629 13.0067 16.9629 12.7098C16.9629 12.4128 16.9629 12.2644 16.8784 12.1644C16.8629 12.1462 16.8457 12.1294 16.8268 12.1144C16.7239 12.0324 16.571 12.0324 16.2652 12.0324C15.9594 12.0324 15.8065 12.0324 15.7035 12.1144C15.6847 12.1294 15.6674 12.1462 15.652 12.1644ZM12.7768 7.29043C12.7768 6.99349 12.7768 6.84503 12.8613 6.7451C12.8767 6.7268 12.894 6.71003 12.9128 6.69502C13.0158 6.61301 13.1687 6.61301 13.4745 6.61301C13.7803 6.61301 13.9332 6.61301 14.0361 6.69502C14.055 6.71003 14.0722 6.7268 14.0877 6.7451C14.1722 6.84503 14.1722 6.99349 14.1722 7.29043C14.1722 7.58736 14.1722 7.73583 14.0877 7.83576C14.0722 7.85405 14.055 7.87082 14.0361 7.88584C13.9332 7.96785 13.7803 7.96785 13.4745 7.96785C13.1687 7.96785 13.0158 7.96785 12.9128 7.88584C12.894 7.87082 12.8767 7.85405 12.8613 7.83576C12.7768 7.73583 12.7768 7.58736 12.7768 7.29043ZM15.652 6.7451C15.5675 6.84503 15.5675 6.99349 15.5675 7.29043C15.5675 7.58736 15.5675 7.73583 15.652 7.83576C15.6674 7.85405 15.6847 7.87082 15.7035 7.88584C15.8065 7.96785 15.9594 7.96785 16.2652 7.96785C16.571 7.96785 16.7239 7.96785 16.8268 7.88584C16.8457 7.87082 16.8629 7.85405 16.8784 7.83576C16.9629 7.73583 16.9629 7.58736 16.9629 7.29043C16.9629 6.99349 16.9629 6.84503 16.8784 6.7451C16.8629 6.7268 16.8457 6.71003 16.8268 6.69502C16.7239 6.61301 16.571 6.61301 16.2652 6.61301C15.9594 6.61301 15.8065 6.61301 15.7035 6.69502C15.6847 6.71003 15.6674 6.7268 15.652 6.7451ZM7.19541 12.7098C7.19541 12.3357 7.50777 12.0324 7.89308 12.0324L13.4745 12.0324C13.8598 12.0324 14.1722 12.3357 14.1722 12.7098C14.1722 13.0839 13.8598 13.3872 13.4745 13.3872L7.89308 13.3872C7.50777 13.3872 7.19541 13.0839 7.19541 12.7098Z" fill="currentcolor" />
</svg>
