<svg
  xmlns="http://www.w3.org/2000/svg"
  width="21"
  height="20"
  viewBox="0 0 21 20"
  fill="none"
>
  <path
    fill-rule="evenodd"
    clip-rule="evenodd"
    d="M7.95743 3H13.6425C15.1333 2.99998 16.3231 2.99997 17.2562 3.12178C18.2201 3.24762 19.014 3.51453 19.642 4.12433C20.2701 4.73414 20.545 5.50496 20.6746 6.44094C20.8 7.34696 20.8 8.50215 20.8 9.94965V10.0503C20.8 11.4979 20.8 12.653 20.6746 13.5591C20.545 14.495 20.2701 15.2659 19.642 15.8757C19.014 16.4855 18.2201 16.7524 17.2562 16.8782C16.3231 17 15.1333 17 13.6425 17H7.95744C6.46665 17 5.27692 17 4.34382 16.8782C3.37985 16.7524 2.58598 16.4855 1.95794 15.8757C1.3299 15.2659 1.05501 14.495 0.925411 13.5591C0.799959 12.6531 0.799972 11.4979 0.799988 10.0504V9.94965C0.799972 8.50215 0.799959 7.34695 0.925411 6.44094C1.05501 5.50496 1.3299 4.73414 1.95794 4.12433C2.58598 3.51453 3.37985 3.24762 4.34382 3.12178C5.27692 2.99997 6.46666 2.99998 7.95743 3ZM4.63721 7.29043C4.63721 6.99349 4.63721 6.84503 4.72167 6.7451C4.73713 6.7268 4.75441 6.71003 4.77325 6.69502C4.87616 6.61301 5.02907 6.61301 5.33488 6.61301C5.64069 6.61301 5.7936 6.61301 5.89652 6.69502C5.91536 6.71003 5.93263 6.7268 5.9481 6.7451C6.03256 6.84503 6.03256 6.99349 6.03256 7.29043C6.03256 7.58736 6.03256 7.73583 5.9481 7.83576C5.93263 7.85405 5.91536 7.87082 5.89652 7.88584C5.7936 7.96785 5.64069 7.96785 5.33488 7.96785C5.02907 7.96785 4.87616 7.96785 4.77325 7.88584C4.75441 7.87082 4.73713 7.85405 4.72167 7.83576C4.63721 7.73583 4.63721 7.58736 4.63721 7.29043ZM4.72167 9.45477C4.63721 9.5547 4.63721 9.70317 4.63721 10.0001C4.63721 10.297 4.63721 10.4455 4.72167 10.5454C4.73713 10.5637 4.75441 10.5805 4.77325 10.5955C4.87616 10.6775 5.02907 10.6775 5.33488 10.6775C5.64069 10.6775 5.7936 10.6775 5.89652 10.5955C5.91536 10.5805 5.93263 10.5637 5.9481 10.5454C6.03256 10.4455 6.03256 10.297 6.03256 10.0001C6.03256 9.70317 6.03256 9.5547 5.9481 9.45477C5.93263 9.43648 5.91536 9.41971 5.89652 9.40469C5.7936 9.32268 5.64069 9.32268 5.33488 9.32268C5.02907 9.32268 4.87616 9.32268 4.77325 9.40469C4.75441 9.41971 4.73713 9.43648 4.72167 9.45477ZM4.72167 12.1644C4.63721 12.2644 4.63721 12.4128 4.63721 12.7098C4.63721 13.0067 4.63721 13.1552 4.72167 13.2551C4.73713 13.2734 4.75441 13.2902 4.77325 13.3052C4.87616 13.3872 5.02907 13.3872 5.33488 13.3872C5.64069 13.3872 5.7936 13.3872 5.89652 13.3052C5.91536 13.2902 5.93263 13.2734 5.9481 13.2551C6.03256 13.1552 6.03256 13.0067 6.03256 12.7098C6.03256 12.4128 6.03256 12.2644 5.9481 12.1644C5.93263 12.1462 5.91536 12.1294 5.89652 12.1144C5.7936 12.0324 5.64069 12.0324 5.33488 12.0324C5.02907 12.0324 4.87616 12.0324 4.77325 12.1144C4.75441 12.1294 4.73713 12.1462 4.72167 12.1644ZM7.27981 6.7451C7.19535 6.84503 7.19535 6.99349 7.19535 7.29043C7.19535 7.58736 7.19535 7.73583 7.27981 7.83576C7.29527 7.85405 7.31255 7.87082 7.33139 7.88584C7.4343 7.96785 7.58721 7.96785 7.89302 7.96785C8.19883 7.96785 8.35174 7.96785 8.45466 7.88584C8.4735 7.87082 8.49077 7.85405 8.50623 7.83576C8.5907 7.73583 8.5907 7.58736 8.5907 7.29043C8.5907 6.99349 8.5907 6.84503 8.50623 6.7451C8.49077 6.7268 8.4735 6.71003 8.45466 6.69502C8.35174 6.61301 8.19883 6.61301 7.89302 6.61301C7.58721 6.61301 7.4343 6.61301 7.33139 6.69502C7.31255 6.71003 7.29527 6.7268 7.27981 6.7451ZM7.19535 10.0001C7.19535 9.70317 7.19535 9.5547 7.27981 9.45477C7.29527 9.43648 7.31255 9.41971 7.33139 9.40469C7.4343 9.32268 7.58721 9.32268 7.89302 9.32268C8.19883 9.32268 8.35174 9.32268 8.45466 9.40469C8.4735 9.41971 8.49077 9.43648 8.50623 9.45477C8.5907 9.5547 8.5907 9.70317 8.5907 10.0001C8.5907 10.297 8.5907 10.4455 8.50623 10.5454C8.49077 10.5637 8.4735 10.5805 8.45466 10.5955C8.35174 10.6775 8.19883 10.6775 7.89302 10.6775C7.58721 10.6775 7.4343 10.6775 7.33139 10.5955C7.31255 10.5805 7.29527 10.5637 7.27981 10.5454C7.19535 10.4455 7.19535 10.297 7.19535 10.0001ZM10.0705 6.7451C9.98604 6.84503 9.98604 6.99349 9.98604 7.29043C9.98604 7.58736 9.98604 7.73583 10.0705 7.83576C10.086 7.85405 10.1032 7.87082 10.1221 7.88584C10.225 7.96785 10.3779 7.96785 10.6837 7.96785C10.9895 7.96785 11.1424 7.96785 11.2454 7.88584C11.2642 7.87082 11.2815 7.85405 11.2969 7.83576C11.3814 7.73583 11.3814 7.58736 11.3814 7.29043C11.3814 6.99349 11.3814 6.84503 11.2969 6.7451C11.2815 6.7268 11.2642 6.71003 11.2454 6.69502C11.1424 6.61301 10.9895 6.61301 10.6837 6.61301C10.3779 6.61301 10.225 6.61301 10.1221 6.69502C10.1032 6.71003 10.086 6.7268 10.0705 6.7451ZM9.98604 10.0001C9.98604 9.70317 9.98604 9.5547 10.0705 9.45477C10.086 9.43648 10.1032 9.41971 10.1221 9.40469C10.225 9.32268 10.3779 9.32268 10.6837 9.32268C10.9895 9.32268 11.1424 9.32268 11.2454 9.40469C11.2642 9.41971 11.2815 9.43648 11.2969 9.45477C11.3814 9.5547 11.3814 9.70317 11.3814 10.0001C11.3814 10.297 11.3814 10.4455 11.2969 10.5454C11.2815 10.5637 11.2642 10.5805 11.2454 10.5955C11.1424 10.6775 10.9895 10.6775 10.6837 10.6775C10.3779 10.6775 10.225 10.6775 10.1221 10.5955C10.1032 10.5805 10.086 10.5637 10.0705 10.5454C9.98604 10.4455 9.98604 10.297 9.98604 10.0001ZM12.8612 9.45477C12.7767 9.5547 12.7767 9.70317 12.7767 10.0001C12.7767 10.297 12.7767 10.4455 12.8612 10.5454C12.8767 10.5637 12.8939 10.5805 12.9128 10.5955C13.0157 10.6775 13.1686 10.6775 13.4744 10.6775C13.7802 10.6775 13.9331 10.6775 14.0361 10.5955C14.0549 10.5805 14.0722 10.5637 14.0876 10.5454C14.1721 10.4455 14.1721 10.297 14.1721 10.0001C14.1721 9.70317 14.1721 9.5547 14.0876 9.45477C14.0722 9.43648 14.0549 9.41971 14.0361 9.40469C13.9331 9.32268 13.7802 9.32268 13.4744 9.32268C13.1686 9.32268 13.0157 9.32268 12.9128 9.40469C12.8939 9.41971 12.8767 9.43648 12.8612 9.45477ZM15.5674 10.0001C15.5674 9.70317 15.5674 9.5547 15.6519 9.45477C15.6674 9.43648 15.6846 9.41971 15.7035 9.40469C15.8064 9.32268 15.9593 9.32268 16.2651 9.32268C16.5709 9.32268 16.7238 9.32268 16.8267 9.40469C16.8456 9.41971 16.8629 9.43648 16.8783 9.45477C16.9628 9.5547 16.9628 9.70317 16.9628 10.0001C16.9628 10.297 16.9628 10.4455 16.8783 10.5454C16.8629 10.5637 16.8456 10.5805 16.8267 10.5955C16.7238 10.6775 16.5709 10.6775 16.2651 10.6775C15.9593 10.6775 15.8064 10.6775 15.7035 10.5955C15.6846 10.5805 15.6674 10.5637 15.6519 10.5454C15.5674 10.4455 15.5674 10.297 15.5674 10.0001ZM15.6519 12.1644C15.5674 12.2644 15.5674 12.4128 15.5674 12.7098C15.5674 13.0067 15.5674 13.1552 15.6519 13.2551C15.6674 13.2734 15.6846 13.2902 15.7035 13.3052C15.8064 13.3872 15.9593 13.3872 16.2651 13.3872C16.5709 13.3872 16.7238 13.3872 16.8267 13.3052C16.8456 13.2902 16.8629 13.2734 16.8783 13.2551C16.9628 13.1552 16.9628 13.0067 16.9628 12.7098C16.9628 12.4128 16.9628 12.2644 16.8783 12.1644C16.8629 12.1462 16.8456 12.1294 16.8267 12.1144C16.7238 12.0324 16.5709 12.0324 16.2651 12.0324C15.9593 12.0324 15.8064 12.0324 15.7035 12.1144C15.6846 12.1294 15.6674 12.1462 15.6519 12.1644ZM12.7767 7.29043C12.7767 6.99349 12.7767 6.84503 12.8612 6.7451C12.8767 6.7268 12.8939 6.71003 12.9128 6.69502C13.0157 6.61301 13.1686 6.61301 13.4744 6.61301C13.7802 6.61301 13.9331 6.61301 14.0361 6.69502C14.0549 6.71003 14.0722 6.7268 14.0876 6.7451C14.1721 6.84503 14.1721 6.99349 14.1721 7.29043C14.1721 7.58736 14.1721 7.73583 14.0876 7.83576C14.0722 7.85405 14.0549 7.87082 14.0361 7.88584C13.9331 7.96785 13.7802 7.96785 13.4744 7.96785C13.1686 7.96785 13.0157 7.96785 12.9128 7.88584C12.8939 7.87082 12.8767 7.85405 12.8612 7.83576C12.7767 7.73583 12.7767 7.58736 12.7767 7.29043ZM15.6519 6.7451C15.5674 6.84503 15.5674 6.99349 15.5674 7.29043C15.5674 7.58736 15.5674 7.73583 15.6519 7.83576C15.6674 7.85405 15.6846 7.87082 15.7035 7.88584C15.8064 7.96785 15.9593 7.96785 16.2651 7.96785C16.5709 7.96785 16.7238 7.96785 16.8267 7.88584C16.8456 7.87082 16.8629 7.85405 16.8783 7.83576C16.9628 7.73583 16.9628 7.58736 16.9628 7.29043C16.9628 6.99349 16.9628 6.84503 16.8783 6.7451C16.8629 6.7268 16.8456 6.71003 16.8267 6.69502C16.7238 6.61301 16.5709 6.61301 16.2651 6.61301C15.9593 6.61301 15.8064 6.61301 15.7035 6.69502C15.6846 6.71003 15.6674 6.7268 15.6519 6.7451ZM7.19535 12.7098C7.19535 12.3357 7.50771 12.0324 7.89302 12.0324L13.4744 12.0324C13.8597 12.0324 14.1721 12.3357 14.1721 12.7098C14.1721 13.0839 13.8597 13.3872 13.4744 13.3872L7.89302 13.3872C7.50771 13.3872 7.19535 13.0839 7.19535 12.7098Z"
    fill="currentColor"
  />
</svg>
