<svg
  xmlns="http://www.w3.org/2000/svg"
  width="20"
  height="20"
  viewBox="0 0 20 20"
  fill="none"
>
  <path
    fill-rule="evenodd"
    clip-rule="evenodd"
    d="M15.5497 9.72374C15.7263 9.34052 16.1819 9.16919 16.571 9.34106C16.9623 9.5139 17.1381 9.96832 16.9636 10.356L16.9592 10.3658C16.9617 10.3603 16.9636 10.356 16.9636 10.356L16.9627 10.3581L16.9617 10.3603L16.9592 10.3658L16.9526 10.3799C16.9474 10.3908 16.9407 10.4044 16.9325 10.4207C16.9161 10.4531 16.8934 10.496 16.864 10.5474C16.8053 10.6498 16.7192 10.7871 16.6019 10.9427C16.3683 11.2525 16.0036 11.6447 15.4771 11.9731C14.938 12.3092 14.3789 12.4633 13.9687 12.5356C13.761 12.5723 13.5838 12.5893 13.4554 12.5971C13.391 12.6011 13.3383 12.6027 13.2995 12.6034C13.2801 12.6037 13.2641 12.6038 13.2518 12.6037L13.2362 12.6036L13.2305 12.6035L13.2282 12.6035L13.2267 12.6034C12.7985 12.594 12.4586 12.2424 12.4681 11.818C12.4775 11.3949 12.8302 11.0593 13.2566 11.0665L13.2737 11.0663C13.291 11.0661 13.3204 11.0652 13.3598 11.0628C13.4391 11.058 13.5565 11.0469 13.6969 11.0222C13.9831 10.9717 14.3342 10.8695 14.6509 10.672C14.9801 10.4667 15.211 10.2192 15.3591 10.0227C15.4327 9.92511 15.4839 9.84264 15.5149 9.78856C15.5303 9.76163 15.5405 9.7421 15.5458 9.7317L15.5497 9.72374ZM13.2566 11.0665L13.2591 11.0665L13.2602 11.0666"
    fill="currentColor"
  />
  <path
    d="M12.3091 1.35134C11.5141 0.0331557 9.79611 -0.393866 8.47193 0.397563C7.78475 0.808274 7.33865 1.46641 7.1796 2.18879L7.01738 2.27333C5.27763 3.17999 4.20769 4.21245 3.07081 5.96767C2.27477 7.19668 2.00262 8.6938 2.00002 10.178C1.99741 11.668 2.26632 13.2099 2.61553 14.5873C2.9657 15.9685 3.40305 17.2091 3.75189 18.1029C3.8042 18.237 3.8546 18.3634 3.90248 18.4815H2.76764C2.34641 18.4815 2.00493 18.8214 2.00493 19.2407C2.00493 19.6601 2.34641 20 2.76764 20H12.1787C12.5999 20 12.9414 19.6601 12.9414 19.2407C12.9414 18.8214 12.5999 18.4815 12.1787 18.4815H5.55493C5.45489 18.2504 5.32278 17.9348 5.17377 17.553C4.84026 16.6985 4.42509 15.5194 4.09457 14.2157C3.76309 12.9083 3.52311 11.5 3.52543 10.1806C3.52775 8.85534 3.77434 7.68368 4.35283 6.79055C5.27189 5.37163 6.08284 4.55135 7.32269 3.83853C7.37589 3.96752 7.4395 4.09415 7.51381 4.21736L8.02502 5.06497C7.14158 6.62409 7.01602 8.56839 7.82209 10.2866C8.38547 11.4875 9.87667 11.9565 11.0281 11.2684L16.9095 7.75318C18.0609 7.06501 18.346 5.53429 17.5461 4.47478C16.4014 2.95858 14.618 2.15492 12.82 2.19854L12.3091 1.35134Z"
    fill="currentColor"
  />
</svg>
