<svg
  xmlns="http://www.w3.org/2000/svg"
  width="20"
  height="20"
  viewBox="0 0 20 20"
  fill="none"
>
  <path
    fill-rule="evenodd"
    clip-rule="evenodd"
    d="M4.45029 9.72374C4.27373 9.34052 3.81807 9.16919 3.42899 9.34106C3.03773 9.5139 2.86194 9.96832 3.03635 10.356L3.0408 10.3658C3.03831 10.3603 3.03635 10.356 3.03635 10.356L3.03726 10.3581L3.03831 10.3603L3.0408 10.3658L3.04745 10.3799C3.05262 10.3908 3.05928 10.4044 3.0675 10.4207C3.08393 10.4531 3.10663 10.496 3.13603 10.5474C3.1947 10.6498 3.28084 10.7871 3.39811 10.9427C3.63167 11.2525 3.99638 11.6447 4.52293 11.9731C5.06196 12.3092 5.62113 12.4633 6.03126 12.5356C6.23903 12.5723 6.41624 12.5893 6.54461 12.5971C6.609 12.6011 6.66169 12.6027 6.70048 12.6034C6.71989 12.6037 6.73587 12.6038 6.74815 12.6037L6.76378 12.6036L6.76947 12.6035L6.77177 12.6035L6.77325 12.6034C7.20151 12.594 7.54144 12.2424 7.53195 11.818C7.52249 11.3949 7.16984 11.0593 6.7434 11.0665L6.7263 11.0663C6.70899 11.0661 6.67962 11.0652 6.6402 11.0628C6.56093 11.058 6.44347 11.0469 6.30309 11.0222C6.01691 10.9717 5.66584 10.8695 5.34911 10.672C5.01991 10.4667 4.789 10.2192 4.64088 10.0227C4.56731 9.92511 4.51609 9.84264 4.48511 9.78856C4.46969 9.76163 4.45949 9.7421 4.45423 9.7317L4.45029 9.72374ZM6.7434 11.0665L6.74091 11.0665L6.73976 11.0666"
    fill="currentColor"
  />
  <path
    d="M7.69091 1.35134C8.48594 0.0331557 10.2039 -0.393866 11.5281 0.397563C12.2153 0.808274 12.6613 1.46641 12.8204 2.18879L12.9826 2.27333C14.7224 3.17999 15.7923 4.21245 16.9292 5.96767C17.7252 7.19668 17.9974 8.6938 18 10.178C18.0026 11.668 17.7337 13.2099 17.3845 14.5873C17.0343 15.9685 16.5969 17.2091 16.2481 18.1029C16.1958 18.237 16.1454 18.3634 16.0975 18.4815H17.2324C17.6536 18.4815 17.9951 18.8214 17.9951 19.2407C17.9951 19.6601 17.6536 20 17.2324 20H7.82134C7.40011 20 7.05863 19.6601 7.05863 19.2407C7.05863 18.8214 7.40011 18.4815 7.82134 18.4815H14.4451C14.5451 18.2504 14.6772 17.9348 14.8262 17.553C15.1597 16.6985 15.5749 15.5194 15.9054 14.2157C16.2369 12.9083 16.4769 11.5 16.4746 10.1806C16.4722 8.85534 16.2257 7.68368 15.6472 6.79055C14.7281 5.37163 13.9172 4.55135 12.6773 3.83853C12.6241 3.96752 12.5605 4.09415 12.4862 4.21736L11.975 5.06497C12.8584 6.62409 12.984 8.56839 12.1779 10.2866C11.6145 11.4875 10.1233 11.9565 8.97192 11.2684L3.09049 7.75318C1.93908 7.06501 1.65401 5.53429 2.45391 4.47478C3.59861 2.95858 5.38196 2.15492 7.17995 2.19854L7.69091 1.35134Z"
    fill="currentColor"
  />
</svg>
