<svg width="20" height="20" viewBox="0 0 20 20" fill="currentColor" xmlns="http://www.w3.org/2000/svg">
  <path d="M9.99999 1C9.72111 1 9.47767 1.06932 9.24752 1.16311C9.03744 1.24873 8.8006 1.37139 8.53946 1.50666L2.80429 4.47671C2.35474 4.70944 1.94839 4.91982 1.66061 5.12676C1.36301 5.34075 1.0015 5.68471 1 6.22734C0.998511 6.76997 1.35813 7.11584 1.65454 7.33143C1.94117 7.53989 2.34636 7.75243 2.79462 7.98756L8.52915 10.9964C8.791 11.1338 9.02848 11.2583 9.23937 11.3454C9.47177 11.4413 9.71782 11.5122 9.99999 11.5122C10.2822 11.5122 10.5282 11.4413 10.7606 11.3454C10.9728 11.2578 11.2119 11.1323 11.4756 10.9939L17.2053 7.98758C17.6536 7.75244 18.0588 7.5399 18.3454 7.33143C18.6418 7.11585 19.0015 6.76997 19 6.22734C18.9985 5.68471 18.637 5.34075 18.3394 5.12676C18.0516 4.91982 17.6452 4.70944 17.1957 4.47671L11.4605 1.50666C11.1994 1.3714 10.9625 1.24873 10.7524 1.16311C10.5223 1.06932 10.2789 1 9.99999 1Z" fill="currentColor" />
  <path d="M2.14772 9.65418C1.77012 9.45424 1.29866 9.5929 1.09475 9.96573C0.890475 10.3392 1.03308 10.8043 1.41131 11.0046L8.49508 14.7554C8.75679 14.894 8.99789 15.0217 9.2128 15.1112C9.44994 15.2099 9.70533 15.2847 9.99992 15.2847C10.2945 15.2847 10.5499 15.2099 10.787 15.1112C11.002 15.0217 11.2431 14.894 11.5048 14.7554L18.5886 11.0046C18.9668 10.8043 19.1094 10.3392 18.9051 9.96573C18.7012 9.5929 18.2298 9.45424 17.8522 9.65418L10.7955 13.3907C10.4981 13.5481 10.3213 13.6408 10.1815 13.6991C10.0564 13.7511 10.0147 13.7517 9.99992 13.7517C9.98511 13.7517 9.9434 13.7511 9.81838 13.6991C9.67851 13.6408 9.50178 13.5481 9.20435 13.3907L2.14772 9.65418Z" fill="currentColor" />
  <path d="M2.14772 13.3694C1.77012 13.1694 1.29866 13.3081 1.09475 13.6809C0.890475 14.0544 1.03308 14.5195 1.41131 14.7197L8.49505 18.4706C8.75677 18.6092 8.99788 18.7369 9.2128 18.8264C9.44994 18.9251 9.70533 18.9999 9.99992 18.9999C10.2945 18.9999 10.5499 18.9251 10.787 18.8264C11.0019 18.7369 11.243 18.6092 11.5047 18.4706L18.5886 14.7197C18.9668 14.5195 19.1094 14.0544 18.9051 13.6809C18.7012 13.3081 18.2298 13.1694 17.8522 13.3694L10.7955 17.1058C10.4981 17.2633 10.3213 17.356 10.1815 17.4143C10.0564 17.4663 10.0147 17.4669 9.99992 17.4669C9.98511 17.4669 9.9434 17.4663 9.81838 17.4143C9.67851 17.356 9.50178 17.2633 9.20435 17.1058L2.14772 13.3694Z" fill="currentColor" />
</svg>
