<svg width="20" height="20" viewBox="0 0 20 20" fill="currentcolor" xmlns="http://www.w3.org/2000/svg">
  <path fill-rule="evenodd" d="M9.00005 1C9.41438 1 9.75027 1.33579 9.75027 1.75V2.77054C12.1118 2.90236 13.8487 3.65845 15.106 4.74424C16.481 5.93173 17.2177 7.45744 17.6117 8.81448L17.6304 8.8787C17.8039 9.476 17.9671 10.0376 17.9954 10.5455C18.0286 11.1402 17.8826 11.6681 17.4895 12.1914C17.0701 12.7496 16.5355 13.0193 15.8996 13.1416C15.3353 13.2502 14.6411 13.2501 13.8538 13.25H12.6684C12.6069 13.568 12.4975 13.9663 12.3006 14.3715C12.0707 14.8447 11.7129 15.3438 11.1594 15.7235C10.6 16.1072 9.88605 16.3375 9.00005 16.3375C8.11405 16.3375 7.40006 16.1072 6.84074 15.7235C6.28719 15.3438 5.92945 14.8447 5.6995 14.3715C5.50258 13.9663 5.3932 13.568 5.33173 13.25L4.14625 13.25C3.35894 13.2501 2.66467 13.2502 2.10041 13.1416C1.46451 13.0193 0.929856 12.7496 0.510499 12.1914C0.117369 11.6681 -0.0286093 11.1402 0.00455121 10.5455C0.0328708 10.0376 0.196065 9.47603 0.369635 8.87871L0.388294 8.81448C0.78228 7.45745 1.51899 5.93173 2.89401 4.74424C4.15129 3.65843 5.88822 2.90233 8.24983 2.77053V1.75C8.24983 1.33579 8.58572 1 9.00005 1ZM6.87276 13.25C6.91576 13.4006 6.97306 13.5596 7.04909 13.716C7.19425 14.0147 7.39916 14.2874 7.68961 14.4867C7.97429 14.6819 8.38562 14.8375 9.00005 14.8375C9.61449 14.8375 10.0258 14.6819 10.3105 14.4867C10.6009 14.2874 10.8059 14.0147 10.951 13.716C11.027 13.5596 11.0843 13.4006 11.1273 13.25L6.87276 13.25Z" fill="currentcolor" />
  <path fill-rule="evenodd" d="M12.4707 16.2236C12.1777 16.5165 12.1777 16.9913 12.4707 17.2842L12.9709 17.7842C13.2638 18.0771 13.7388 18.0771 14.0318 17.7842C14.3248 17.4913 14.3248 17.0165 14.0318 16.7236L13.5317 16.2236C13.2387 15.9307 12.7637 15.9307 12.4707 16.2236Z" fill="currentcolor" />
  <path fill-rule="evenodd" d="M5.52937 16.2236C5.82234 16.5165 5.82234 16.9913 5.52937 17.2842L5.02922 17.7842C4.73624 18.0771 4.26123 18.0771 3.96825 17.7842C3.67528 17.4913 3.67528 17.0165 3.96825 16.7236L4.4684 16.2236C4.76138 15.9307 5.23639 15.9307 5.52937 16.2236Z" fill="currentcolor" />
  <path fill-rule="evenodd" d="M9.00004 17.0039C9.41437 17.0039 9.75026 17.3397 9.75026 17.7539V18.2539C9.75026 18.6681 9.41437 19.0039 9.00004 19.0039C8.5857 19.0039 8.24982 18.6681 8.24982 18.2539V17.7539C8.24982 17.3397 8.5857 17.0039 9.00004 17.0039Z" fill="currentcolor" />
</svg>
