<svg width="20" height="20" viewBox="0 0 20 20" fill="currentcolor" xmlns="http://www.w3.org/2000/svg">
  <path fill-rule="evenodd" d="M10.0001 2C10.4144 2 10.7503 2.33579 10.7503 2.75V3.77054C13.1118 3.90236 14.8487 4.65845 16.106 5.74424C17.481 6.93173 18.2177 8.45744 18.6117 9.81448L18.6304 9.8787C18.8039 10.476 18.9671 11.0376 18.9954 11.5455C19.0286 12.1402 18.8826 12.6681 18.4895 13.1914C18.0701 13.7496 17.5355 14.0193 16.8996 14.1416C16.3353 14.2502 15.6411 14.2501 14.8538 14.25H13.6684C13.6069 14.568 13.4975 14.9663 13.3006 15.3715C13.0707 15.8447 12.7129 16.3438 12.1594 16.7235C11.6 17.1072 10.886 17.3375 10.0001 17.3375C9.11405 17.3375 8.40006 17.1072 7.84074 16.7235C7.28719 16.3438 6.92945 15.8447 6.6995 15.3715C6.50258 14.9663 6.3932 14.568 6.33173 14.25L5.14625 14.25C4.35894 14.2501 3.66467 14.2502 3.10041 14.1416C2.46451 14.0193 1.92986 13.7496 1.5105 13.1914C1.11737 12.6681 0.971391 12.1402 1.00455 11.5455C1.03287 11.0376 1.19606 10.476 1.36964 9.87871L1.38829 9.81448C1.78228 8.45745 2.51899 6.93173 3.89401 5.74424C5.15129 4.65843 6.88822 3.90233 9.24983 3.77053V2.75C9.24983 2.33579 9.58572 2 10.0001 2ZM7.87276 14.25C7.91576 14.4006 7.97306 14.5596 8.04909 14.716C8.19425 15.0147 8.39916 15.2874 8.68961 15.4867C8.97429 15.6819 9.38562 15.8375 10.0001 15.8375C10.6145 15.8375 11.0258 15.6819 11.3105 15.4867C11.6009 15.2874 11.8059 15.0147 11.951 14.716C12.027 14.5596 12.0843 14.4006 12.1273 14.25L7.87276 14.25Z" fill="currentcolor" />
</svg>
