<svg width="20" height="20" viewBox="0 0 20 20" fill="currentColor" xmlns="http://www.w3.org/2000/svg">
  <path fill-rule="evenodd" d="M6.51996 15.9597C6.81307 16.2529 6.81307 16.7282 6.51996 17.0213L6.0196 17.5217C5.72649 17.8148 5.25127 17.8148 4.95816 17.5217C4.66505 17.2286 4.66505 16.7533 4.95816 16.4602L5.45853 15.9597C5.75163 15.6666 6.22686 15.6666 6.51996 15.9597Z" fill="currentColor" />
  <path fill-rule="evenodd" d="M13.467 15.9597C13.1739 16.2529 13.1739 16.7282 13.467 17.0213L13.9674 17.5217C14.2605 17.8148 14.7357 17.8148 15.0288 17.5217C15.3219 17.2286 15.3219 16.7533 15.0288 16.4602L14.5284 15.9597C14.2353 15.6666 13.7601 15.6666 13.467 15.9597Z" fill="currentColor" />
  <path fill-rule="evenodd" d="M9.99223 16.9984C10.4068 16.9984 10.7428 17.3344 10.7428 17.749V18.2494C10.7428 18.6639 10.4068 19 9.99223 19C9.57772 19 9.24168 18.6639 9.24168 18.2494V17.749C9.24168 17.3344 9.57772 16.9984 9.99223 16.9984Z" fill="currentColor" />
  <path fill-rule="evenodd" d="M9.99217 1C10.4067 1 10.7427 1.33606 10.7427 1.75062V3.02379H10.75C14.843 3.02379 18.3275 6.00186 18.9655 10.0451C19.2307 11.7255 17.9321 13.2453 16.2311 13.2453H13.2351C13.1074 14.9248 11.7043 16.2477 9.99223 16.2477C8.28017 16.2477 6.87708 14.9248 6.74933 13.2453H3.76893C2.06795 13.2453 0.769312 11.7255 1.03446 10.0451C1.67203 6.00461 5.15231 3.02784 9.24162 3.0238V1.75062C9.24162 1.33606 9.57766 1 9.99217 1ZM8.25869 13.2453C8.38008 14.094 9.10997 14.7465 9.99223 14.7465C10.8745 14.7465 11.6044 14.094 11.7258 13.2453L8.25869 13.2453Z" fill="currentColor" />
</svg>
