<svg
  xmlns="http://www.w3.org/2000/svg"
  width="20"
  height="20"
  viewBox="0 0 20 20"
  fill="none"
>
  <path
    d="M6.65895 2.03524C7.12682 0.538347 9.51678 0.776634 10.4019 2.03521C11.1846 3.14827 11.0943 4.71689 10.8613 6.06544C10.6261 7.42658 11.489 8.21468 12.8029 7.73362C14.3326 7.17349 16.2001 6.59126 17.4198 7.0249C18.8233 7.52387 19.294 9.00296 18.8234 12.0145C17.8877 18.0021 15.0805 19 11.3376 19C7.86033 19 6.64295 18.0552 5.56396 17.1406C5.08186 16.732 4.7875 16.137 4.7875 15.5105V8.92979C4.7875 8.46813 4.95087 8.02235 5.22381 7.64706C5.67655 7.02455 6.35946 5.98722 6.65895 5.02903C6.91652 4.20498 6.79597 3.68336 6.6876 3.21444C6.59912 2.83156 6.51875 2.48381 6.65895 2.03524Z"
    fill="currentColor"
  />
  <path
    d="M3.88 8.92124V16.6002C3.88 17.3954 3.23529 18.04 2.44 18.04C1.64471 18.04 1 17.3954 1 16.6002V8.92124C1 8.12606 1.64471 7.48144 2.44 7.48144C3.23529 7.48144 3.88 8.12606 3.88 8.92124Z"
    fill="currentColor"
  />
</svg>
