<svg width="20" height="20" viewBox="0 0 20 20" fill="currentcolor" xmlns="http://www.w3.org/2000/svg">
  <path d="M16.9617 2.89024C16.4389 2.36716 16.0825 2.01062 15.7107 1.76222C14.1898 0.745928 12.2063 0.745928 10.6854 1.76222C10.3136 2.01062 9.95723 2.36716 9.43442 2.89024L7.44156 4.88312C7.08831 5.23637 7.08831 5.80909 7.44156 6.16234C7.79481 6.51559 8.36753 6.51559 8.72078 6.16234L10.6396 4.24351C11.2647 3.61845 11.4869 3.40243 11.6904 3.26642C12.603 2.65665 13.7931 2.65665 14.7057 3.26642C14.9092 3.40243 15.1314 3.61845 15.7565 4.24351C16.3815 4.86856 16.5976 5.09078 16.7336 5.29433C17.3434 6.20692 17.3434 7.39697 16.7336 8.30957C16.5976 8.51312 16.3815 8.73534 15.7565 9.36039L13.8377 11.2792C13.4844 11.6325 13.4844 12.2052 13.8377 12.5584C14.1909 12.9117 14.7636 12.9117 15.1169 12.5584L17.1098 10.5656C17.6328 10.0428 17.9894 9.68641 18.2378 9.31464C19.2541 7.79366 19.2541 5.81024 18.2378 4.28926C17.9894 3.91749 17.6328 3.56113 17.1098 3.03831L16.9617 2.89024Z" fill="currentcolor" />
  <path d="M6.16234 8.72078C6.51559 8.36753 6.51558 7.79481 6.16234 7.44156C5.80909 7.08831 5.23636 7.08831 4.88312 7.44156L2.89024 9.43442C2.36716 9.95723 2.01062 10.3136 1.76222 10.6854C0.745928 12.2063 0.745927 14.1898 1.76222 15.7107C2.01062 16.0825 2.36715 16.4389 2.89023 16.9617L3.0383 17.1098C3.56112 17.6328 3.91749 17.9894 4.28926 18.2378C5.81024 19.2541 7.79366 19.2541 9.31464 18.2378C9.68641 17.9894 10.0428 17.6328 10.5656 17.1098L12.5584 15.1169C12.9117 14.7636 12.9117 14.1909 12.5584 13.8377C12.2052 13.4844 11.6325 13.4844 11.2792 13.8377L9.36039 15.7565C8.73534 16.3815 8.51312 16.5976 8.30956 16.7336C7.39697 17.3434 6.20692 17.3434 5.29433 16.7336C5.09078 16.5976 4.86856 16.3815 4.24351 15.7565C3.61845 15.1314 3.40243 14.9092 3.26642 14.7057C2.65665 13.7931 2.65665 12.603 3.26642 11.6904C3.40243 11.4869 3.61845 11.2647 4.24351 10.6396L6.16234 8.72078Z" fill="currentcolor" />
  <path d="M12.5585 8.7208C12.9117 8.36755 12.9117 7.79482 12.5585 7.44158C12.2052 7.08833 11.6325 7.08833 11.2792 7.44158L7.44159 11.2792C7.08834 11.6325 7.08834 12.2052 7.44159 12.5585C7.79483 12.9117 8.36756 12.9117 8.72081 12.5585L12.5585 8.7208Z" fill="currentcolor" />
</svg>
