<svg
  xmlns="http://www.w3.org/2000/svg"
  width="20"
  height="20"
  viewBox="0 0 20 20"
  fill="none"
>
  <mask id="path-1-inside-1_886_461" fill="currentColor">
    <path
      fill-rule="evenodd"
      clip-rule="evenodd"
      d="M13.7485 2.50043C13.3342 2.50043 12.9983 2.16454 12.9983 1.75021C12.9983 1.33588 13.3342 1 13.7485 1H18.2498C18.6641 1 19 1.33588 19 1.75021V6.25149C19 6.66582 18.6641 7.0017 18.2498 7.0017C17.8355 7.0017 17.4996 6.66582 17.4996 6.25149V3.56139L10.778 10.283C10.485 10.5759 10.01 10.5759 9.71705 10.283C9.42407 9.98999 9.42407 9.51498 9.71705 9.222L16.4386 2.50043H13.7485Z"
    />
    <path
      d="M14.9484 8.2345C15.004 8.96813 15.004 9.87069 15.004 10.9977V12.9983C15.004 15.8275 15.004 17.2421 14.125 18.1211C13.2461 19 11.8315 19 9.00226 19H7.00169C4.17247 19 2.75786 19 1.87893 18.1211C1 17.2421 1 15.8275 1 12.9983V10.9977C1 8.1685 1 6.75389 1.87893 5.87496C2.75786 4.99603 4.17247 4.99603 7.00169 4.99603H9.00226C10.1293 4.99603 11.0319 4.99603 11.7655 5.05159L8.65609 8.16104C7.77716 9.03997 7.77716 10.465 8.65609 11.3439C9.53502 12.2229 10.96 12.2229 11.839 11.3439L14.9484 8.2345Z"
    />
  </mask>
  <path
    fill-rule="evenodd"
    clip-rule="evenodd"
    d="M13.7485 2.50043C13.3342 2.50043 12.9983 2.16454 12.9983 1.75021C12.9983 1.33588 13.3342 1 13.7485 1H18.2498C18.6641 1 19 1.33588 19 1.75021V6.25149C19 6.66582 18.6641 7.0017 18.2498 7.0017C17.8355 7.0017 17.4996 6.66582 17.4996 6.25149V3.56139L10.778 10.283C10.485 10.5759 10.01 10.5759 9.71705 10.283C9.42407 9.98999 9.42407 9.51498 9.71705 9.222L16.4386 2.50043H13.7485Z"
    fill="currentColor"
  />
  <path
    d="M14.9484 8.2345C15.004 8.96813 15.004 9.87069 15.004 10.9977V12.9983C15.004 15.8275 15.004 17.2421 14.125 18.1211C13.2461 19 11.8315 19 9.00226 19H7.00169C4.17247 19 2.75786 19 1.87893 18.1211C1 17.2421 1 15.8275 1 12.9983V10.9977C1 8.1685 1 6.75389 1.87893 5.87496C2.75786 4.99603 4.17247 4.99603 7.00169 4.99603H9.00226C10.1293 4.99603 11.0319 4.99603 11.7655 5.05159L8.65609 8.16104C7.77716 9.03997 7.77716 10.465 8.65609 11.3439C9.53502 12.2229 10.96 12.2229 11.839 11.3439L14.9484 8.2345Z"
    fill="currentColor"
  />
  <path
    d="M17.4996 3.56139H18.9996C18.9996 2.95469 18.6341 2.40774 18.0736 2.17557C17.5131 1.94339 16.8679 2.07173 16.4389 2.50073L17.4996 3.56139ZM10.778 10.283L9.71735 9.2223V9.2223L10.778 10.283ZM9.71705 10.283L10.7777 9.2223L10.7777 9.2223L9.71705 10.283ZM9.71705 9.222L8.65639 8.16134V8.16134L9.71705 9.222ZM16.4386 2.50043L17.4993 3.56108C17.9283 3.13209 18.0566 2.48691 17.8244 1.9264C17.5923 1.36589 17.0453 1.00043 16.4386 1.00043V2.50043ZM14.9484 8.2345L16.4441 8.12122L16.1974 4.86413L13.8877 7.17384L14.9484 8.2345ZM11.7655 5.05159L12.8262 6.11225L15.1359 3.80256L11.8788 3.55588L11.7655 5.05159ZM8.65609 8.16104L7.59543 7.10038L8.65609 8.16104ZM8.65609 11.3439L9.71675 10.2833L9.71675 10.2833L8.65609 11.3439ZM11.839 11.3439L10.7783 10.2833L11.839 11.3439ZM13.7485 1.00043C14.1626 1.00043 14.4983 1.33612 14.4983 1.75021H11.4983C11.4983 2.99297 12.5058 4.00043 13.7485 4.00043V1.00043ZM14.4983 1.75021C14.4983 2.16431 14.1626 2.5 13.7485 2.5V-0.5C12.5058 -0.5 11.4983 0.507456 11.4983 1.75021H14.4983ZM13.7485 2.5H18.2498V-0.5H13.7485V2.5ZM18.2498 2.5C17.8357 2.5 17.5 2.16431 17.5 1.75021H20.5C20.5 0.507455 19.4925 -0.5 18.2498 -0.5V2.5ZM17.5 1.75021V6.25149H20.5V1.75021H17.5ZM17.5 6.25149C17.5 5.83739 17.8357 5.5017 18.2498 5.5017V8.5017C19.4925 8.5017 20.5 7.49425 20.5 6.25149H17.5ZM18.2498 5.5017C18.6639 5.5017 18.9996 5.83739 18.9996 6.25149H15.9996C15.9996 7.49425 17.007 8.5017 18.2498 8.5017V5.5017ZM18.9996 6.25149V3.56139H15.9996V6.25149H18.9996ZM16.4389 2.50073L9.71735 9.2223L11.8387 11.3436L18.5602 4.62205L16.4389 2.50073ZM9.71735 9.2223C10.0102 8.92949 10.4849 8.92949 10.7777 9.2223L8.65639 11.3436C9.53515 12.2224 10.9599 12.2224 11.8387 11.3436L9.71735 9.2223ZM10.7777 9.2223C11.0705 9.51511 11.0705 9.98985 10.7777 10.2827L8.65639 8.16134C7.77763 9.0401 7.77763 10.4649 8.65639 11.3436L10.7777 9.2223ZM10.7777 10.2827L17.4993 3.56108L15.378 1.43977L8.65639 8.16134L10.7777 10.2827ZM16.4386 1.00043H13.7485V4.00043H16.4386V1.00043ZM16.504 10.9977C16.504 9.89176 16.5049 8.9242 16.4441 8.12122L13.4527 8.34777C13.503 9.01206 13.504 9.84962 13.504 10.9977H16.504ZM16.504 12.9983V10.9977H13.504V12.9983H16.504ZM15.1857 19.1817C15.9503 18.4171 16.2485 17.4744 16.3807 16.4909C16.5071 15.5506 16.504 14.3705 16.504 12.9983H13.504C13.504 14.4553 13.5008 15.3972 13.4075 16.0912C13.32 16.742 13.1787 16.9461 13.0644 17.0604L15.1857 19.1817ZM9.00226 20.5C10.3745 20.5 11.5545 20.5032 12.4949 20.3768C13.4784 20.2445 14.4211 19.9463 15.1857 19.1817L13.0644 17.0604C12.9501 17.1747 12.746 17.316 12.0951 17.4035C11.4011 17.4968 10.4593 17.5 9.00226 17.5V20.5ZM7.00169 20.5H9.00226V17.5H7.00169V20.5ZM0.818267 19.1817C1.58288 19.9463 2.52557 20.2445 3.50908 20.3768C4.44943 20.5032 5.62949 20.5 7.00169 20.5V17.5C5.54468 17.5 4.60281 17.4968 3.90882 17.4035C3.25798 17.316 3.0539 17.1747 2.93959 17.0604L0.818267 19.1817ZM-0.5 12.9983C-0.5 14.3705 -0.503186 15.5506 -0.376758 16.4909C-0.24453 17.4744 0.0536497 18.4171 0.818267 19.1817L2.93959 17.0604C2.82528 16.9461 2.68399 16.742 2.59649 16.0912C2.50319 15.3972 2.5 14.4553 2.5 12.9983H-0.5ZM-0.5 10.9977V12.9983H2.5V10.9977H-0.5ZM0.818267 4.8143C0.0536499 5.57892 -0.244529 6.52161 -0.376758 7.50511C-0.503186 8.44547 -0.5 9.62552 -0.5 10.9977H2.5C2.5 9.54071 2.50319 8.59885 2.59649 7.90485C2.68399 7.25401 2.82528 7.04993 2.93959 6.93562L0.818267 4.8143ZM7.00169 3.49603C5.62949 3.49603 4.44943 3.49284 3.50908 3.61927C2.52557 3.7515 1.58288 4.04968 0.818267 4.8143L2.93959 6.93562C3.0539 6.82131 3.25798 6.68002 3.90882 6.59252C4.60281 6.49922 5.54468 6.49603 7.00169 6.49603V3.49603ZM9.00226 3.49603H7.00169V6.49603H9.00226V3.49603ZM11.8788 3.55588C11.0758 3.49506 10.1082 3.49603 9.00226 3.49603V6.49603C10.1504 6.49603 10.988 6.497 11.6523 6.54731L11.8788 3.55588ZM10.7049 3.99093L7.59543 7.10038L9.71675 9.2217L12.8262 6.11225L10.7049 3.99093ZM7.59543 7.10038C6.13072 8.56509 6.13071 10.9399 7.59543 12.4046L9.71675 10.2833C9.42361 9.99012 9.42361 9.51484 9.71675 9.2217L7.59543 7.10038ZM7.59543 12.4046C9.06014 13.8693 11.4349 13.8693 12.8996 12.4046L10.7783 10.2833C10.4852 10.5764 10.0099 10.5764 9.71675 10.2833L7.59543 12.4046ZM12.8996 12.4046L16.0091 9.29516L13.8877 7.17384L10.7783 10.2833L12.8996 12.4046Z"
    fill="currentColor"
    mask="url(#path-1-inside-1_886_461)"
  />
</svg>
