<svg
  xmlns="http://www.w3.org/2000/svg"
  width="20"
  height="20"
  viewBox="0 0 20 20"
  fill="none"
>
  <path
    fill-rule="evenodd"
    clip-rule="evenodd"
    d="M10.0001 2.44238C7.86528 2.44238 6.13469 4.17297 6.13469 6.30777H4.63469C4.63469 3.34455 7.03685 0.942383 10.0001 0.942383C12.9633 0.942383 15.3655 3.34455 15.3655 6.30777H13.8655C13.8655 4.17297 12.1349 2.44238 10.0001 2.44238Z"
    fill="currentColor"
  />
  <path
    fill-rule="evenodd"
    clip-rule="evenodd"
    d="M2.03034 8.4814C1.69238 9.2505 1.69238 10.2334 1.69238 12.1992C1.69238 14.165 1.69238 15.1478 2.03034 15.917C2.43339 16.8342 3.16597 17.5668 4.0832 17.9698C4.8523 18.3078 5.8352 18.3078 7.80098 18.3078H12.1992C14.165 18.3078 15.1478 18.3078 15.9169 17.9698C16.8342 17.5668 17.5668 16.8342 17.9698 15.917C18.3078 15.1478 18.3078 14.165 18.3078 12.1992C18.3078 10.2334 18.3078 9.2505 17.9698 8.4814C17.5668 7.56417 16.8342 6.83159 15.9169 6.42854C15.1478 6.09058 14.165 6.09058 12.1992 6.09058H7.80098C5.8352 6.09058 4.8523 6.09058 4.0832 6.42854C3.16597 6.83159 2.43339 7.56417 2.03034 8.4814ZM10.0001 14.0001C11.1046 14.0001 12.0001 13.1046 12.0001 12.0001C12.0001 10.8955 11.1046 10.0001 10.0001 10.0001C8.89551 10.0001 8.00008 10.8955 8.00008 12.0001C8.00008 13.1046 8.89551 14.0001 10.0001 14.0001Z"
    fill="currentColor"
  />
</svg>
