<svg width="20" height="20" viewBox="0 0 20 20" fill="currentcolor" xmlns="http://www.w3.org/2000/svg">
  <path fill-rule="evenodd" d="M2.03022 8.48134C1.69226 9.25044 1.69226 10.2333 1.69226 12.1991C1.69226 14.1649 1.69226 15.1478 2.03022 15.9169C2.43327 16.8341 3.16585 17.5667 4.08308 17.9697C4.85218 18.3077 5.83507 18.3077 7.80086 18.3077H12.199C14.1648 18.3077 15.1477 18.3077 15.9168 17.9697C16.8341 17.5667 17.5666 16.8341 17.9697 15.9169C18.3076 15.1478 18.3076 14.1649 18.3076 12.1991C18.3076 10.2333 18.3076 9.25044 17.9697 8.48134C17.5666 7.56411 16.8341 6.83152 15.9168 6.42847C15.1477 6.09052 14.1648 6.09052 12.199 6.09052H7.80086C5.83507 6.09052 4.85218 6.09052 4.08308 6.42847C3.16585 6.83152 2.43327 7.56411 2.03022 8.48134ZM9.99995 14C11.1045 14 12 13.1046 12 12C12 10.8954 11.1045 10 9.99995 10C8.89538 10 7.99995 10.8954 7.99995 12C7.99995 13.1046 8.89538 14 9.99995 14Z" fill="currentcolor" />
  <path fill-rule="evenodd" d="M9.99995 2.44232C7.86516 2.44232 6.13457 4.17291 6.13457 6.30771H4.63457C4.63457 3.34449 7.03673 0.942322 9.99995 0.942322C11.1245 0.942322 12.1704 1.28913 13.0335 1.88169C13.375 2.11612 13.4618 2.583 13.2273 2.92448C12.9929 3.26597 12.526 3.35275 12.1845 3.11831C11.5633 2.69183 10.8119 2.44232 9.99995 2.44232Z" fill="currentcolor" />
</svg>
