<svg
  xmlns="http://www.w3.org/2000/svg"
  width="20"
  height="20"
  viewBox="0 0 20 20"
  fill="none"
>
  <path
    fill-rule="evenodd"
    clip-rule="evenodd"
    d="M11.1319 10.0225C11.1336 9.78381 11.0405 9.55421 10.8731 9.38423L8.62506 7.10229C8.27638 6.74835 7.70705 6.74433 7.35343 7.09332C6.9998 7.4423 6.99578 8.01214 7.34446 8.36608L8.08338 9.11615L1.89919 9.11625C1.40257 9.11625 0.999992 9.5192 1 10.0163C1.00001 10.5133 1.4026 10.9163 1.89922 10.9162L8.03972 10.9162L7.3535 11.5932C6.99984 11.9422 6.99577 12.512 7.34441 12.866C7.69305 13.22 8.26238 13.224 8.61604 12.8751L10.864 10.6571C11.0339 10.4895 11.1302 10.2612 11.1319 10.0225Z"
    fill="currentColor"
  />
  <path
    d="M8.80684 3.05409C8.99214 3.00766 9.24564 3.00009 10.1199 3.00009H12.023C13.4541 3.00009 14.4275 3.00218 15.1571 3.09955C15.8583 3.19313 16.1839 3.35825 16.4057 3.57739L16.4227 3.59442C16.6418 3.81621 16.807 4.14179 16.9005 4.84302C16.9979 5.57256 17 6.54604 17 7.9771V12.0231C17 13.4541 16.9979 14.4276 16.9005 15.1572C16.807 15.8584 16.6418 16.184 16.4227 16.4058L16.4057 16.4228C16.1839 16.6419 15.8583 16.8071 15.1571 16.9006C14.4275 16.998 13.4541 17.0001 12.023 17.0001H10.1124C9.24567 17.0001 8.99432 16.9927 8.81054 16.947C8.16347 16.7863 7.65824 16.2811 7.49752 15.634C7.45262 15.4532 7.44469 15.207 7.44445 14.374L7.44446 14.3693L7.44445 14.3642C7.44444 14.3536 7.44444 14.3429 7.44444 14.3322C7.42493 13.7971 6.98432 13.3693 6.44446 13.3693C5.90459 13.3693 5.46465 13.7971 5.44513 14.3322L5.4444 14.4561C5.44401 15.1415 5.44371 15.662 5.5565 16.1161C5.89579 17.4821 6.96239 18.5487 8.32843 18.888C8.78252 19.0008 9.30302 19.0005 9.98839 19.0001L12.093 19.0001C13.4364 19.0001 14.5442 19.0002 15.4216 18.8831C16.3426 18.7602 17.1567 18.4923 17.8113 17.8455L17.8454 17.8114C18.4922 17.1568 18.7601 16.3426 18.883 15.4217C19.0001 14.5443 19 13.4365 19 12.0931V7.90711C19 6.56368 19.0001 5.45585 18.883 4.57845C18.7601 3.65754 18.4922 2.84338 17.8454 2.18874L17.8113 2.15469C17.1567 1.50788 16.3426 1.24003 15.4216 1.11712C14.5442 1.00003 13.4364 1.00006 12.093 1.00009L9.99486 1.00005C9.30352 0.99965 8.77846 0.999351 8.32063 1.1141C6.96091 1.45488 5.89923 2.51656 5.55845 3.87628C5.4437 4.33411 5.444 4.85917 5.44439 5.5505L5.44444 5.67557C5.44532 6.22711 5.89271 6.67395 6.44446 6.67395C6.99674 6.67395 7.44446 6.22623 7.44446 5.67395L7.44444 5.66823C7.44448 4.79987 7.45214 4.54727 7.49844 4.3625C7.65987 3.71842 8.16277 3.21552 8.80684 3.05409Z"
    fill="currentColor"
  />
</svg>
