<svg width="20" height="20" viewBox="0 0 20 20" fill="currentcolor" xmlns="http://www.w3.org/2000/svg">
  <path fill-rule="evenodd" d="M8.13519 1L10.6751 1C12.9118 1 14.725 2.8132 14.725 5.04989C14.725 5.54695 14.3221 5.94989 13.825 5.94989C13.328 5.94989 12.925 5.54695 12.925 5.04989C12.925 3.80731 11.9177 2.8 10.6751 2.8H8.20002C6.68965 2.8 5.64741 2.80191 4.86353 2.9073C4.10553 3.00921 3.72523 3.1928 3.45902 3.45901C3.1928 3.72523 3.00922 4.10553 2.90731 4.86352C2.80192 5.6474 2.8 6.68963 2.8 8.2V11.8C2.8 13.3104 2.80192 14.3526 2.90731 15.1365C3.00922 15.8945 3.1928 16.2748 3.45902 16.541C3.72523 16.8072 4.10553 16.9908 4.86353 17.0927C5.64741 17.1981 6.68965 17.2 8.20002 17.2H10.6751C11.9177 17.2 12.925 16.1927 12.925 14.9501C12.925 14.4531 13.328 14.0501 13.825 14.0501C14.3221 14.0501 14.725 14.4531 14.725 14.9501C14.725 17.1868 12.9118 19 10.6751 19H8.13521C6.70541 19 5.54155 19 4.62368 18.8766C3.66609 18.7479 2.84262 18.4702 2.18622 17.8138C1.52982 17.1574 1.2521 16.3339 1.12335 15.3763C0.99995 14.4585 0.999973 13.2946 1 11.8648V8.13517C0.999973 6.70538 0.99995 5.54154 1.12335 4.62367C1.2521 3.66608 1.52982 2.84262 2.18622 2.18622C2.84262 1.52982 3.66609 1.2521 4.62368 1.12335C5.54155 0.99995 6.70539 0.999973 8.13519 1Z" fill="currentcolor" />
  <path fill-rule="evenodd" d="M19 10.0224C19.0017 9.78369 18.9085 9.55409 18.7409 9.38411L16.4909 7.10217C16.1419 6.74823 15.572 6.74421 15.2181 7.09319C14.8642 7.44218 14.8601 8.01201 15.2091 8.36596L15.9487 9.11603L9.75903 9.11612C9.26197 9.11613 8.85904 9.51908 8.85904 10.0161C8.85905 10.5132 9.262 10.9161 9.75906 10.9161L15.905 10.916L15.2182 11.5931C14.8642 11.9421 14.8601 12.5119 15.2091 12.8659C15.558 13.2198 16.1279 13.2239 16.4818 12.875L18.7318 10.6569C18.9018 10.4893 18.9983 10.2611 19 10.0224Z" fill="currentcolor" />
</svg>
