<svg
  xmlns="http://www.w3.org/2000/svg"
  width="20"
  height="20"
  viewBox="0 0 20 20"
  fill="none"
>
  <path
    fill-rule="evenodd"
    clip-rule="evenodd"
    d="M19 9.9564C19.0017 9.7177 18.9085 9.4881 18.7409 9.31812L16.4909 7.03618C16.1419 6.68224 15.572 6.67822 15.2181 7.02721C14.8642 7.37619 14.8601 7.94603 15.2091 8.29997L15.9487 9.05005L9.75903 9.05014C9.26197 9.05014 8.85903 9.45309 8.85904 9.95015C8.85905 10.4472 9.262 10.8501 9.75906 10.8501L15.905 10.85L15.2182 11.5271C14.8642 11.8761 14.8601 12.4459 15.2091 12.7999C15.558 13.1539 16.1279 13.1579 16.4818 12.809L18.7318 10.5909C18.9018 10.4234 18.9983 10.1951 19 9.9564Z"
    fill="currentColor"
  />
  <path
    d="M11.1932 3.05409C11.0079 3.00766 10.7544 3.00009 9.88008 3.00009H7.97701C6.54595 3.00009 5.57247 3.00218 4.84293 3.09955C4.1417 3.19313 3.81612 3.35825 3.59433 3.57739L3.5773 3.59442C3.35816 3.81621 3.19304 4.14179 3.09946 4.84302C3.00209 5.57256 3 6.54604 3 7.9771V12.0231C3 13.4541 3.00209 14.4276 3.09946 15.1572C3.19304 15.8584 3.35816 16.184 3.5773 16.4058L3.59433 16.4228C3.81612 16.6419 4.1417 16.8071 4.84293 16.9006C5.57247 16.998 6.54595 17.0001 7.97702 17.0001H9.88763C10.7543 17.0001 11.0057 16.9927 11.1895 16.947C11.8365 16.7863 12.3418 16.2811 12.5025 15.634C12.5474 15.4532 12.5553 15.207 12.5556 14.374C12.5555 14.3724 12.5555 14.3709 12.5555 14.3693C12.5555 14.3676 12.5555 14.3659 12.5556 14.3642C12.5556 14.3536 12.5556 14.3429 12.5556 14.3322C12.5751 13.7971 13.0157 13.3693 13.5555 13.3693C14.0954 13.3693 14.5354 13.7971 14.5549 14.3322L14.5556 14.4561C14.556 15.1415 14.5563 15.662 14.4435 16.1161C14.1042 17.4821 13.0376 18.5487 11.6716 18.888C11.2175 19.0008 10.697 19.0005 10.0116 19.0001L7.90702 19.0001C6.56359 19.0001 5.45576 19.0002 4.57836 18.8831C3.65745 18.7602 2.84329 18.4923 2.18865 17.8455L2.1546 17.8114C1.50779 17.1568 1.23994 16.3426 1.11703 15.4217C0.999938 14.5443 0.999966 13.4365 1 12.0931V7.90711C0.999966 6.56368 0.999938 5.45585 1.11703 4.57845C1.23994 3.65754 1.50779 2.84338 2.1546 2.18874L2.18865 2.15469C2.84329 1.50788 3.65745 1.24003 4.57836 1.11712C5.45576 1.00003 6.56359 1.00006 7.90702 1.00009L10.0051 1.00005C10.6965 0.99965 11.2215 0.999351 11.6794 1.1141C13.0391 1.45488 14.1008 2.51656 14.4416 3.87628C14.5563 4.33411 14.556 4.85917 14.5556 5.5505L14.5556 5.67557C14.5547 6.22711 14.1073 6.67395 13.5555 6.67395C13.0033 6.67395 12.5555 6.22623 12.5555 5.67395L12.5556 5.66823C12.5555 4.79987 12.5479 4.54727 12.5016 4.3625C12.3401 3.71842 11.8372 3.21552 11.1932 3.05409Z"
    fill="currentColor"
  />
</svg>
