<svg width="20" height="20" viewBox="0 0 20 20" fill="currentcolor" xmlns="http://www.w3.org/2000/svg">
  <path fill-rule="evenodd" d="M8.86806 10.0224C8.86637 9.78373 8.95949 9.55413 9.12695 9.38415L11.3749 7.10221C11.7236 6.74827 12.293 6.74425 12.6466 7.09324C13.0002 7.44223 13.0042 8.01206 12.6555 8.366L11.9166 9.11608L18.1008 9.11617C18.5974 9.11618 19 9.51912 19 10.0162C19 10.5132 18.5974 10.9162 18.1008 10.9162L11.9603 10.9161L12.6465 11.5932C13.0002 11.9421 13.0042 12.5119 12.6556 12.8659C12.307 13.2199 11.7376 13.224 11.384 12.875L9.13597 10.657C8.96613 10.4894 8.86976 10.2611 8.86806 10.0224Z" fill="currentcolor" />
  <path d="M11.1932 3.05397C11.0079 3.00753 10.7544 2.99997 9.88008 2.99997H7.97701C6.54595 2.99997 5.57247 3.00206 4.84293 3.09943C4.1417 3.19301 3.81612 3.35813 3.59433 3.57727L3.5773 3.59429C3.35816 3.81609 3.19304 4.14167 3.09946 4.8429C3.00209 5.57244 3 6.54592 3 7.97698V12.023C3 13.454 3.00209 14.4275 3.09946 15.157C3.19304 15.8583 3.35816 16.1839 3.5773 16.4056L3.59433 16.4227C3.81612 16.6418 4.1417 16.8069 4.84293 16.9005C5.57247 16.9979 6.54595 17 7.97702 17H9.88763C10.7543 17 11.0057 16.9925 11.1895 16.9469C11.8365 16.7862 12.3418 16.2809 12.5025 15.6339C12.5474 15.4531 12.5553 15.2069 12.5556 14.3739L12.5555 14.3691L12.5556 14.364C12.5556 14.3535 12.5556 14.3428 12.5556 14.332C12.5751 13.7969 13.0157 13.3691 13.5555 13.3691C14.0954 13.3691 14.5354 13.7969 14.5549 14.332L14.5556 14.456C14.556 15.1414 14.5563 15.6619 14.4435 16.116C14.1042 17.482 13.0376 18.5486 11.6716 18.8879C11.2175 19.0007 10.697 19.0004 10.0116 19L7.90702 19C6.56359 19 5.45576 19 4.57836 18.8829C3.65745 18.76 2.84329 18.4922 2.18865 17.8454L2.1546 17.8113C1.50779 17.1567 1.23994 16.3425 1.11703 15.4216C0.999938 14.5442 0.999966 13.4364 1 12.093V7.90699C0.999966 6.56356 0.999938 5.45573 1.11703 4.57833C1.23994 3.65742 1.50779 2.84326 2.1546 2.18862L2.18865 2.15457C2.84329 1.50776 3.65745 1.23991 4.57836 1.117C5.45576 0.999906 6.56359 0.999934 7.90702 0.999969L10.0051 0.999923C10.6965 0.999528 11.2215 0.999229 11.6794 1.11398C13.0391 1.45476 14.1008 2.51644 14.4416 3.87615C14.5563 4.33399 14.556 4.85905 14.5556 5.55038L14.5556 5.67545C14.5547 6.22699 14.1073 6.67383 13.5555 6.67383C13.0033 6.67383 12.5555 6.22611 12.5555 5.67383L12.5556 5.6681C12.5555 4.79975 12.5479 4.54715 12.5016 4.36237C12.3401 3.7183 11.8372 3.2154 11.1932 3.05397Z" fill="currentcolor" />
</svg>
