<svg
  xmlns="http://www.w3.org/2000/svg"
  width="20"
  height="20"
  viewBox="0 0 20 20"
  fill="none"
>
  <path
    fill-rule="evenodd"
    clip-rule="evenodd"
    d="M14.7421 1.10791C15.1241 0.727377 15.7435 0.727377 16.1255 1.10791L18.7132 3.68554C19.0709 4.0419 19.0968 4.61119 18.7729 4.99835L16.1853 8.09151C15.8394 8.50493 15.2226 8.56079 14.8076 8.21627C14.3926 7.87175 14.3365 7.25732 14.6823 6.8439L15.933 5.34896H7.44719C5.92315 5.34896 5.39176 5.36085 4.98893 5.49045C4.09155 5.77916 3.38811 6.47986 3.09828 7.37378C2.96818 7.77504 2.95625 8.30437 2.95625 9.82251C2.95625 10.3607 2.51829 10.7969 1.97805 10.7969C1.4378 10.7969 0.999847 10.3607 0.999847 9.82251C0.999847 9.76176 0.999824 9.70191 0.999801 9.64293C0.999301 8.37429 0.99896 7.50768 1.23657 6.77483C1.71962 5.28497 2.89201 4.11713 4.38766 3.63595C5.12336 3.39925 5.99334 3.39959 7.26691 3.40009C7.32612 3.40011 7.3862 3.40014 7.44719 3.40014H15.6599L14.7421 2.48594C14.3601 2.10541 14.3601 1.48844 14.7421 1.10791Z"
    fill="currentColor"
  />
  <path
    fill-rule="evenodd"
    clip-rule="evenodd"
    d="M5.25739 18.5371C4.87538 18.9176 4.25601 18.9176 3.874 18.5371L1.28635 15.9595C0.92861 15.6031 0.902685 15.0338 1.22657 14.6467L3.81422 11.5535C4.16008 11.1401 4.7769 11.0842 5.19193 11.4288C5.60695 11.7733 5.66303 12.3877 5.31717 12.8011L4.06655 14.2961H12.5523C14.0764 14.2961 14.6078 14.2842 15.0106 14.1546C15.908 13.8659 16.6114 13.1652 16.9012 12.2712C17.0313 11.87 17.0433 11.3406 17.0433 9.82251C17.0433 9.28436 17.4812 8.8481 18.0215 8.8481C18.5617 8.8481 18.9997 9.28436 18.9997 9.82251C18.9997 9.88326 18.9997 9.94311 18.9997 10.0021C19.0002 11.2707 19.0006 12.1373 18.7629 12.8702C18.2799 14.36 17.1075 15.5279 15.6119 16.0091C14.8762 16.2458 14.0062 16.2454 12.7326 16.2449C12.6734 16.2449 12.6133 16.2449 12.5523 16.2449H4.33963L5.25739 17.1591C5.6394 17.5396 5.6394 18.1566 5.25739 18.5371Z"
    fill="currentColor"
  />
</svg>
