<svg
  xmlns="http://www.w3.org/2000/svg"
  width="21"
  height="20"
  viewBox="0 0 21 20"
  fill="none"
>
  <path
    fill-rule="evenodd"
    clip-rule="evenodd"
    d="M12.1916 2H8.40604C6.89661 1.99999 5.70067 1.99998 4.74966 2.10214C3.77441 2.20691 2.9653 2.42647 2.27178 2.92793C1.87973 3.21141 1.53343 3.5512 1.24453 3.93588C0.733458 4.61638 0.509695 5.41029 0.402925 6.36722C0.29881 7.30036 0.298818 8.47382 0.298828 9.95489V10.0451C0.298818 11.5262 0.29881 12.6996 0.402925 13.6328C0.509695 14.5897 0.733458 15.3836 1.24453 16.0641C1.53343 16.4488 1.87973 16.7886 2.27178 17.0721C2.9653 17.5735 3.77441 17.7931 4.74966 17.8979C5.70067 18 6.8966 18 8.40604 18H12.1916C13.701 18 14.897 18 15.848 17.8979C16.8232 17.7931 17.6324 17.5735 18.3259 17.0721C18.7179 16.7886 19.0642 16.4488 19.3531 16.0641C19.8642 15.3836 20.088 14.5897 20.1947 13.6328C20.2988 12.6996 20.2988 11.5262 20.2988 10.0451V9.95493C20.2988 8.47384 20.2988 7.30037 20.1947 6.36722C20.088 5.41029 19.8642 4.61638 19.3531 3.93588C19.0642 3.5512 18.7179 3.21141 18.3259 2.92793C17.6324 2.42647 16.8232 2.20691 15.848 2.10214C14.897 1.99998 13.701 1.99999 12.1916 2ZM5.58717 6.66955C5.22448 6.45603 4.75405 6.57142 4.53644 6.9273C4.31882 7.28318 4.43643 7.74477 4.79912 7.9583L5.21144 8.20104C6.33364 8.86173 7.22523 9.38664 7.99542 9.74193C8.7893 10.1081 9.5103 10.3219 10.2988 10.3219C11.0873 10.3219 11.8083 10.1081 12.6022 9.74193C13.3724 9.38664 14.264 8.86173 15.3862 8.20105L15.7985 7.9583C16.1612 7.74477 16.2788 7.28318 16.0612 6.9273C15.8436 6.57142 15.3732 6.45603 15.0105 6.66955L14.6331 6.89171C13.4681 7.57759 12.6424 8.06265 11.9505 8.38181C11.2744 8.69372 10.7831 8.819 10.2988 8.819C9.81457 8.819 9.32326 8.69372 8.64709 8.38181C7.95522 8.06265 7.12955 7.57759 5.96452 6.89171L5.58717 6.66955Z"
    fill="currentColor"
  />
</svg>
