<svg width="21" height="20" viewBox="0 0 21 20" fill="currentcolor" xmlns="http://www.w3.org/2000/svg">
  <path fill-rule="evenodd" d="M12.1915 2H8.40592C6.89649 1.99999 5.70055 1.99998 4.74954 2.10214C3.77429 2.20691 2.96518 2.42647 2.27165 2.92793C1.87961 3.21141 1.53331 3.5512 1.24441 3.93588C0.733336 4.61638 0.509573 5.41029 0.402803 6.36722C0.298688 7.30036 0.298696 8.47382 0.298706 9.95489V10.0451C0.298696 11.5262 0.298688 12.6996 0.402803 13.6328C0.509573 14.5897 0.733336 15.3836 1.24441 16.0641C1.53331 16.4488 1.87961 16.7886 2.27165 17.0721C2.96518 17.5735 3.77429 17.7931 4.74954 17.8979C5.70055 18 6.89648 18 8.40592 18H12.1915C13.7009 18 14.8969 18 15.8479 17.8979C16.8231 17.7931 17.6322 17.5735 18.3258 17.0721C18.7178 16.7886 19.0641 16.4488 19.353 16.0641C19.8641 15.3836 20.0878 14.5897 20.1946 13.6328C20.2987 12.6996 20.2987 11.5262 20.2987 10.0451V9.95493C20.2987 8.47384 20.2987 7.30037 20.1946 6.36722C20.0878 5.41029 19.8641 4.61638 19.353 3.93588C19.0641 3.5512 18.7178 3.21141 18.3258 2.92793C17.6322 2.42647 16.8231 2.20691 15.8479 2.10214C14.8969 1.99998 13.7009 1.99999 12.1915 2ZM5.58705 6.66955C5.22436 6.45603 4.75393 6.57142 4.53631 6.9273C4.3187 7.28318 4.43631 7.74477 4.799 7.9583L5.21131 8.20104C6.33352 8.86173 7.22511 9.38664 7.9953 9.74193C8.78917 10.1081 9.51018 10.3219 10.2987 10.3219C11.0872 10.3219 11.8082 10.1081 12.6021 9.74193C13.3723 9.38664 14.2639 8.86173 15.3861 8.20105L15.7984 7.9583C16.1611 7.74477 16.2787 7.28318 16.0611 6.9273C15.8435 6.57142 15.373 6.45603 15.0103 6.66955L14.633 6.89171C13.468 7.57759 12.6423 8.06265 11.9504 8.38181C11.2743 8.69372 10.783 8.819 10.2987 8.819C9.81444 8.819 9.32314 8.69372 8.64697 8.38181C7.9551 8.06265 7.12942 7.57759 5.9644 6.89171L5.58705 6.66955Z" fill="currentcolor" />
</svg>
