<svg width="21" height="20" viewBox="0 0 21 20" fill="currentcolor" xmlns="http://www.w3.org/2000/svg">
  <path d="M14.9719 14.6698C14.9719 16.1785 14.9719 16.9329 14.5307 17.3172C14.0896 17.7014 13.4336 17.5184 12.1216 17.1525L8.68073 16.1928C7.84626 15.9601 7.42902 15.8437 7.1861 15.4966C6.94318 15.1495 6.94318 14.6697 6.94318 13.7101V4.44017C6.94318 2.93138 6.94318 2.17699 7.38428 1.79277C7.82539 1.40854 8.48141 1.59151 9.79344 1.95744L13.2343 2.91712C14.0688 3.14986 14.486 3.26623 14.7289 3.61333C14.9719 3.96043 14.9719 4.44023 14.9719 5.39985V14.6698Z" fill="currentcolor" />
  <path d="M16.1188 14.0104V5.10212C16.1188 4.25049 16.1188 3.82467 16.3207 3.49713C16.5226 3.1696 16.879 3.01722 17.5918 2.71246L20.1788 1.6064C20.5774 1.43601 20.9575 1.72767 20.9575 2.20382V15.1873C20.9575 15.4526 20.8206 15.6798 20.6003 15.7798L19.2778 16.3806C17.8476 17.0303 17.1326 17.3551 16.6257 16.9748C16.1188 16.5945 16.1188 15.7331 16.1188 14.0104Z" fill="currentcolor" />
  <path d="M5.79623 14.0081V4.995C5.79623 3.30588 5.79623 2.46132 5.29917 2.07998C4.80212 1.69864 4.09523 2.00087 2.68143 2.60533L1.32577 3.18494L1.30361 3.19559C1.09358 3.29656 0.95752 3.52722 0.95752 3.78235V16.9064C0.95752 17.3622 1.33065 17.6765 1.71233 17.514L4.32321 16.3977C5.03602 16.093 5.39243 15.9406 5.59433 15.6131C5.79623 15.2855 5.79623 14.8597 5.79623 14.0081Z" fill="currentcolor" />
</svg>
