<svg width="20" height="20" viewBox="0 0 20 20" fill="currentcolor" xmlns="http://www.w3.org/2000/svg">
  <path d="M16.5681 14.9563C15.48 16.5724 13.6623 17.7869 10.8129 17.9801V19.1829C10.8129 19.6342 10.4489 20 10 20C9.55105 20 9.18711 19.6342 9.18711 19.1829V17.9779C6.31426 17.7677 4.50234 16.441 3.42585 14.787C2.28285 13.0307 2 10.9612 2 9.60925C2 9.21275 2.3397 8.89888 2.74916 8.89888C3.15862 8.89888 3.49832 9.21275 3.49832 9.60925C3.49832 10.8198 3.75928 12.5939 4.7009 14.0407C5.61082 15.4388 7.18584 16.5862 10 16.5862C12.8415 16.5862 14.4087 15.5233 15.3052 14.1917C16.2366 12.8083 16.5017 11.0447 16.5017 9.60925C16.5017 9.21275 16.8414 8.89888 17.2508 8.89888C17.6603 8.89888 18 9.21275 18 9.60925C18 11.1634 17.7213 13.2434 16.5681 14.9563Z" fill="currentcolor" />
  <path fill-rule="evenodd" d="M9.99995 15.4459C13.8324 15.4459 15.4522 12.2365 15.4522 7.47382C15.4522 2.71112 13.8324 0 9.99995 0C6.16749 0 4.54765 2.71112 4.54765 7.47382C4.54765 12.2365 6.16749 15.4459 9.99995 15.4459ZM8.21133 6.48597C8.21133 6.03782 8.57212 5.67451 9.01717 5.67451H10.9826C11.4277 5.67451 11.7885 6.03782 11.7885 6.48597C11.7885 6.93413 11.4277 7.29743 10.9826 7.29743H9.01717C8.57212 7.29743 8.21133 6.93413 8.21133 6.48597ZM7.71997 8.95993C7.71997 8.51177 8.08076 8.14847 8.52581 8.14847H11.474C11.919 8.14847 12.2798 8.51177 12.2798 8.95993C12.2798 9.40808 11.919 9.77138 11.474 9.77138H8.52581C8.08076 9.77138 7.71997 9.40808 7.71997 8.95993Z" fill="currentcolor" />
</svg>
