<svg
  xmlns="http://www.w3.org/2000/svg"
  width="20"
  height="20"
  viewBox="0 0 20 20"
  fill="none"
>
  <path
    fill-rule="evenodd"
    clip-rule="evenodd"
    d="M8.57024 1H11.4298C12.9088 0.999989 14.0805 0.999981 15.0075 1.10955C15.9591 1.22204 16.7425 1.4582 17.397 1.99526C17.619 2.17746 17.8225 2.38103 18.0047 2.60305C18.5418 3.25746 18.778 4.04087 18.8904 4.99254C19 5.91949 19 7.0912 19 8.57018V8.66059C19 10.1396 19 11.3113 18.8904 12.2382C18.778 13.1899 18.5418 13.9733 18.0047 14.6277C17.8225 14.8497 17.619 15.0533 17.397 15.2355C16.7425 15.7726 15.9591 16.0087 15.0075 16.1212C14.0805 16.2308 12.9088 16.2308 11.4298 16.2308H10.6923L10.6923 17.6153L12.7692 17.6153C13.1516 17.6153 13.4615 17.9253 13.4615 18.3077C13.4615 18.69 13.1516 19 12.7692 19H10.0073L10 19L9.99273 19H7.23076C6.84841 19 6.53845 18.69 6.53845 18.3077C6.53845 17.9253 6.84841 17.6153 7.23076 17.6153H9.30769V16.2308H8.57022C7.09122 16.2308 5.9195 16.2308 4.99254 16.1212C4.04087 16.0087 3.25746 15.7726 2.60305 15.2355C2.38103 15.0533 2.17746 14.8497 1.99526 14.6277C1.4582 13.9733 1.22204 13.1899 1.10955 12.2382C0.999981 11.3113 0.999989 10.1395 1 8.66054V8.57023C0.999989 7.09122 0.999981 5.91951 1.10955 4.99254C1.22204 4.04087 1.4582 3.25746 1.99526 2.60305C2.17746 2.38103 2.38103 2.17746 2.60305 1.99526C3.25746 1.4582 4.04087 1.22204 4.99254 1.10955C5.91951 0.999981 7.09123 0.999989 8.57024 1ZM5.15507 2.48459C4.33413 2.58163 3.84827 2.76453 3.48144 3.06559C3.32953 3.19025 3.19025 3.32953 3.06559 3.48144C2.76453 3.84827 2.58163 4.33413 2.48459 5.15507C2.38575 5.9913 2.38462 7.08113 2.38462 8.61539C2.38462 9.88281 2.38539 10.847 2.44138 11.6154H17.5586C17.6146 10.847 17.6154 9.88281 17.6154 8.61539C17.6154 7.08113 17.6143 5.9913 17.5154 5.15507C17.4184 4.33413 17.2355 3.84827 16.9344 3.48144C16.8098 3.32953 16.6705 3.19025 16.5186 3.06559C16.1517 2.76453 15.6659 2.58163 14.8449 2.48459C14.0087 2.38575 12.9189 2.38462 11.3846 2.38462H8.61539C7.08113 2.38462 5.9913 2.38575 5.15507 2.48459Z"
    fill="currentColor"
  />
</svg>
