<svg width="20" height="20" viewBox="0 0 20 20" fill="currentColor" xmlns="http://www.w3.org/2000/svg">
  <path d="M8.5509 1.25071C8.21843 0.95384 7.82867 0.979791 7.58178 1.03372C7.36866 1.08028 7.12024 1.17916 6.88819 1.27152L6.84829 1.28739C6.62837 1.37481 6.41261 1.47019 6.20139 1.57318C5.64847 1.84276 5.12659 2.16443 4.64243 2.53167C2.43043 4.20946 1 6.84409 1 9.80976C1 14.8961 5.19965 19 10.3559 19C13.5309 19 16.3398 17.4454 18.0314 15.0661C18.2384 14.7749 18.4288 14.4712 18.6011 14.1564L18.6214 14.1195C18.734 13.9139 18.8579 13.688 18.9269 13.4873C19.0099 13.246 19.0709 12.8766 18.827 12.5214C18.571 12.1487 18.1756 12.088 17.9311 12.0817C17.7104 12.076 17.4399 12.1114 17.1808 12.1453L17.1385 12.1508C12.2925 12.7827 10.0182 11.4522 8.99976 9.70461C7.92551 7.8612 8.05982 5.26588 8.67792 3.02904L8.68941 2.9875C8.76392 2.71821 8.83969 2.44436 8.8668 2.21885C8.89542 1.98079 8.90027 1.56265 8.5509 1.25071Z" fill="currentColor" />
</svg>
