<svg
  xmlns="http://www.w3.org/2000/svg"
  width="21"
  height="20"
  viewBox="0 0 21 20"
  fill="none"
>
  <path
    d="M20.2857 10.3438C20.2857 12.7427 18.3409 14.6875 15.942 14.6875C13.543 14.6875 11.5982 12.7427 11.5982 10.3438C11.5982 7.94476 13.543 6 15.942 6C18.3409 6 20.2857 7.94476 20.2857 10.3438Z"
    fill="currentColor"
  />
  <path
    d="M12.0882 6.59354C11.4445 6.21627 10.695 6 9.89502 6C7.49603 6 5.55127 7.94476 5.55127 10.3438C5.55127 12.7427 7.49603 14.6875 9.89502 14.6875C10.695 14.6875 11.4445 14.4712 12.0882 14.094C11.1378 13.1293 10.5513 11.805 10.5513 10.3438C10.5513 8.8825 11.1378 7.55824 12.0882 6.59354Z"
    fill="currentColor"
  />
  <path
    d="M6.37477 6.36489C5.84062 6.13024 5.25022 6 4.62939 6C2.23041 6 0.285645 7.94476 0.285645 10.3438C0.285645 12.7427 2.23041 14.6875 4.62939 14.6875C5.25022 14.6875 5.84062 14.5573 6.37477 14.3226C5.28425 13.3443 4.59821 11.9241 4.59821 10.3438C4.59821 8.76337 5.28425 7.34323 6.37477 6.36489Z"
    fill="currentColor"
  />
</svg>
