<svg
  xmlns="http://www.w3.org/2000/svg"
  width="20"
  height="20"
  viewBox="0 0 20 20"
  fill="none"
>
  <path
    fill-rule="evenodd"
    clip-rule="evenodd"
    d="M16.8732 2.22079C17.1652 1.9264 17.6386 1.9264 17.9305 2.22079L19.781 4.08649C20.073 4.38087 20.073 4.85817 19.781 5.15255L17.9305 7.01825C17.6386 7.31264 17.1652 7.31264 16.8732 7.01825C16.5812 6.72387 16.5812 6.24658 16.8732 5.95219L17.4473 5.37334H0.747664C0.33474 5.37334 0 5.03584 0 4.61952C0 4.2032 0.33474 3.8657 0.747664 3.8657H17.4473L16.8732 3.28685C16.5812 2.99246 16.5812 2.51517 16.8732 2.22079Z"
    fill="currentColor"
  />
  <path
    d="M19.9689 13.6341C19.9689 16.0453 18.0302 18 15.6387 18C13.2472 18 11.3085 16.0453 11.3085 13.6341C11.3085 11.2229 13.2472 9.26827 15.6387 9.26827C18.0302 9.26827 19.9689 11.2229 19.9689 13.6341Z"
    fill="currentColor"
  />
  <path
    d="M11.797 9.86483C11.1553 9.48564 10.4081 9.26827 9.61059 9.26827C7.21908 9.26827 5.28037 11.2229 5.28037 13.6341C5.28037 16.0453 7.21908 18 9.61059 18C10.4081 18 11.1553 17.7826 11.797 17.4034C10.8495 16.4338 10.2648 15.1028 10.2648 13.6341C10.2648 12.1654 10.8495 10.8344 11.797 9.86483Z"
    fill="currentColor"
  />
  <path
    d="M6.10131 9.63501C5.56882 9.39917 4.98026 9.26827 4.36137 9.26827C1.96986 9.26827 0.0311526 11.2229 0.0311526 13.6341C0.0311526 16.0453 1.96986 18 4.36137 18C4.98026 18 5.56882 17.8691 6.10131 17.6333C5.01418 16.6499 4.33028 15.2226 4.33028 13.6341C4.33028 12.0457 5.01418 10.6183 6.10131 9.63501Z"
    fill="currentColor"
  />
</svg>
