<svg width="20" height="20" viewBox="0 0 20 20" fill="currentColor" xmlns="http://www.w3.org/2000/svg">
  <path d="M18.7826 3.59926C18.6099 2.0829 17.182 1.01451 15.6908 1.36794L7.3831 3.33689C6.23132 3.60986 5.41543 4.66318 5.41543 5.87716V13.6223C4.94914 13.3157 4.39481 13.138 3.80005 13.138C2.14319 13.138 0.800049 14.5174 0.800049 16.219C0.800049 17.9206 2.14319 19.3001 3.80005 19.3001C5.4569 19.3001 6.80005 17.9206 6.80005 16.219V9.67453L17.4154 7.15865V11.7263C16.9491 11.4197 16.3948 11.2419 15.8 11.2419C14.1432 11.2419 12.8 12.6214 12.8 14.323C12.8 16.0246 14.1432 17.404 15.8 17.404C17.4569 17.404 18.8 16.0246 18.8 14.323V3.90821C18.8 3.80343 18.7941 3.70035 18.7826 3.59926Z" fill="currentColor" />
</svg>
