<svg width="20" height="20" viewBox="0 0 20 20" fill="currentcolor" xmlns="http://www.w3.org/2000/svg">
  <path fill-rule="evenodd" d="M10.3157 1H12.8824C14.132 0.999982 15.1392 0.999968 15.9314 1.10756C16.7539 1.21927 17.4464 1.45825 17.9964 2.01386C18.5464 2.56948 18.7829 3.26905 18.8935 4.09992C19 4.9002 19 5.91773 19 7.18012V12.8199C19 14.0823 19 15.0998 18.8935 15.9001C18.7829 16.7309 18.5464 17.4305 17.9964 17.9861C17.4464 18.5417 16.7539 18.7807 15.9314 18.8924C15.1392 19 14.132 19 12.8824 19H4.88571L4.88341 19L4.1981 19V18.9903C4.12047 18.9859 4.04841 18.9796 3.97929 18.9704C2.44169 18.7659 1.23175 17.5436 1.02933 15.9903C0.999902 15.7645 0.999944 15.5076 1.00001 15.1303L1.00001 6.84413C1.00001 5.67453 1.74086 4.63616 2.83922 4.2663C3.19828 4.14539 3.58638 4.34142 3.70607 4.70415C3.82576 5.06688 3.6317 5.45895 3.27264 5.57986C2.73397 5.76125 2.37062 6.27051 2.37062 6.84413V15.0769C2.37062 15.5276 2.3721 15.6859 2.38821 15.8096C2.50967 16.7415 3.23563 17.4749 4.15819 17.5976C4.17102 17.5993 4.18422 17.6009 4.1981 17.6023L4.1981 7.18011C4.19808 5.91772 4.19806 4.9002 4.30457 4.09992C4.41515 3.26905 4.65171 2.56948 5.2017 2.01386C5.7517 1.45825 6.4442 1.21927 7.26667 1.10756C8.05885 0.999968 9.0661 0.999982 10.3157 1ZM7.9027 5.0132C7.74378 5.01314 7.57193 5.01307 7.42688 5.03277C7.25695 5.05585 7.03986 5.11521 6.85716 5.29977C6.67447 5.48433 6.61571 5.70364 6.59287 5.8753C6.57336 6.02183 6.57343 6.19542 6.57349 6.35596V7.48613C6.57343 7.64667 6.57336 7.82028 6.59287 7.96681C6.61571 8.13848 6.67447 8.35778 6.85716 8.54235C7.03986 8.72691 7.25695 8.78627 7.42688 8.80935C7.57194 8.82905 7.74378 8.82898 7.9027 8.82892H9.74778C9.90671 8.82898 10.0786 8.82905 10.2236 8.80935C10.3935 8.78627 10.6106 8.72691 10.7933 8.54235C10.976 8.35778 11.0348 8.13848 11.0576 7.96681C11.0771 7.82027 11.0771 7.64667 11.077 7.48613V6.35599C11.0771 6.19544 11.0771 6.02184 11.0576 5.8753C11.0348 5.70364 10.976 5.48433 10.7933 5.29977C10.6106 5.11521 10.3935 5.05585 10.2236 5.03277C10.0786 5.01307 9.90672 5.01314 9.7478 5.0132H7.9027ZM13.4265 5.66679C13.4265 5.28444 13.7333 4.97449 14.1118 4.97449H15.9393C16.3178 4.97449 16.6246 5.28444 16.6246 5.66679C16.6246 6.04914 16.3178 6.3591 15.9393 6.3591H14.1118C13.7333 6.3591 13.4265 6.04914 13.4265 5.66679ZM14.1118 7.46153C13.7333 7.46153 13.4265 7.77149 13.4265 8.15384C13.4265 8.53619 13.7333 8.84615 14.1118 8.84615H15.9393C16.3178 8.84615 16.6246 8.53619 16.6246 8.15384C16.6246 7.77149 16.3178 7.46153 15.9393 7.46153H14.1118ZM6.57349 11.8461C6.57349 11.4638 6.88031 11.1538 7.25879 11.1538H15.9393C16.3178 11.1538 16.6246 11.4638 16.6246 11.8461C16.6246 12.2285 16.3178 12.5385 15.9393 12.5385H7.25879C6.88031 12.5385 6.57349 12.2285 6.57349 11.8461ZM7.25879 13.9231C6.88031 13.9231 6.57349 14.233 6.57349 14.6154C6.57349 14.9977 6.88031 15.3077 7.25879 15.3077H15.9393C16.3178 15.3077 16.6246 14.9977 16.6246 14.6154C16.6246 14.233 16.3178 13.9231 15.9393 13.9231H7.25879Z" fill="currentcolor" />
</svg>
