<svg width="20" height="20" viewBox="0 0 20 20" fill="currentColor" xmlns="http://www.w3.org/2000/svg">
  <path fill-rule="evenodd" d="M11.1427 19.9875C10.9211 20.0004 10.6836 20.0002 10.4242 19.9999L9.94835 19.9999C8.26813 19.9999 6.93728 19.9999 5.89572 19.8574C4.8238 19.7108 3.9562 19.4018 3.27198 18.7057C2.58777 18.0095 2.28412 17.1268 2.14001 16.0362C1.99998 14.9765 1.99999 13.6224 2 11.9129L2 8.087C1.99999 6.37747 1.99997 5.02339 2.14001 3.96367C2.28412 2.87305 2.58777 1.99032 3.27198 1.29417C3.95619 0.598026 4.8238 0.289081 5.89572 0.142452C6.93727 -2.33198e-05 8.26811 -1.19921e-05 9.94831 1.21248e-06L10.0515 1.20346e-06C11.7317 -1.22949e-05 13.0626 -2.38553e-05 14.1041 0.142451C15.1761 0.28908 16.0437 0.598025 16.7279 1.29417C17.4121 1.99032 17.7157 2.87305 17.8599 3.96367C17.9999 5.02339 17.9999 6.37744 17.9999 8.08696L17.9999 12.292C18.0002 12.556 18.0004 12.7976 17.9877 13.0232L15.438 13.0232C14.6166 13.0231 13.9315 13.0231 13.3877 13.0975C12.8138 13.176 12.2955 13.3487 11.8791 13.7724C11.4627 14.1961 11.2929 14.7234 11.2158 15.3074C11.1427 15.8606 11.1427 16.5576 11.1427 17.3934L11.1427 19.9875ZM12.5142 19.5231C12.7746 19.3274 13.0218 19.0754 13.3064 18.7852L16.8061 15.2245C17.0912 14.9349 17.3389 14.6835 17.5312 14.4185L15.4855 14.4185C14.6042 14.4185 14.0121 14.42 13.5705 14.4804C13.1486 14.5381 12.968 14.6378 12.8489 14.7591C12.7297 14.8803 12.6317 15.064 12.575 15.4933C12.5156 15.9426 12.5141 16.545 12.5141 17.4417L12.5142 19.5231Z" fill="currentColor" />
</svg>
