<svg
  xmlns="http://www.w3.org/2000/svg"
  width="20"
  height="20"
  viewBox="0 0 20 20"
  fill="none"
>
  <path
    d="M5.44627 1.29816C5.73987 0.989703 5.72656 0.502837 5.41654 0.210715C5.10652 -0.0814076 4.61719 -0.068165 4.32359 0.240293C3.41974 1.18988 2.74972 2.36133 2.40341 3.6616C2.29404 4.07226 2.53996 4.49338 2.95269 4.6022C3.36543 4.71103 3.78868 4.46634 3.89805 4.05568C4.17664 3.00969 4.71625 2.06512 5.44627 1.29816Z"
    fill="currentColor"
  />
  <path
    d="M14.5933 1.29816C14.2997 0.989703 14.313 0.502837 14.623 0.210715C14.933 -0.0814076 15.4223 -0.068165 15.7159 0.240293C16.6198 1.18988 17.2898 2.36133 17.6361 3.6616C17.7455 4.07226 17.4996 4.49338 17.0868 4.6022C16.6741 4.71103 16.2508 4.46634 16.1415 4.05568C15.8629 3.00969 15.3233 2.06512 14.5933 1.29816Z"
    fill="currentColor"
  />
  <path
    fill-rule="evenodd"
    clip-rule="evenodd"
    d="M4.42197 5.52686C4.42197 2.47456 6.90886 0.000184166 9.9766 0.000184166C13.0828 0.000184166 15.5854 2.53464 15.5304 5.62476L15.4776 8.58904C15.4689 9.07808 15.6741 9.54675 16.0401 9.87335L17.5783 11.2462C19.0518 12.5614 18.7056 14.9451 16.918 15.7913C16.0394 16.2072 15.1314 16.5388 14.2058 16.7865C14.1818 16.841 14.155 16.9001 14.1251 16.963C13.9727 17.2842 13.7379 17.7167 13.4084 18.1538C12.7583 19.0164 11.6547 20 10.0193 20C8.38395 20 7.2804 19.0164 6.63025 18.1538C6.3008 17.7167 6.06595 17.2842 5.91356 16.963C5.88313 16.8989 5.85579 16.8387 5.83146 16.7834C4.89734 16.5334 3.98113 16.1986 3.09504 15.7791C1.32546 14.9414 0.940025 12.5803 2.38584 11.2438L3.86416 9.87726C4.21987 9.54845 4.42197 9.08716 4.42197 8.60407V5.52686ZM7.83398 17.1861C7.84495 17.201 7.85605 17.2159 7.86729 17.2308C8.37667 17.9067 9.07705 18.4615 10.0193 18.4615C10.9616 18.4615 11.662 17.9067 12.1714 17.2308C12.182 17.2167 12.1926 17.2025 12.2031 17.1883C10.7538 17.3846 9.28319 17.3836 7.83398 17.1861Z"
    fill="currentColor"
  />
</svg>
