<svg width="20" height="20" viewBox="0 0 20 20" fill="currentcolor" xmlns="http://www.w3.org/2000/svg">
  <path fill-rule="evenodd" d="M3.78291 2.36395C3.81535 2.42955 3.85883 2.4911 3.91336 2.5458L18.1796 16.8589C18.3077 17.1181 18.2635 17.4407 18.0474 17.656C17.7765 17.9258 17.3381 17.925 17.0682 17.6542L15.2964 15.8766C14.7628 16.0257 14.2244 16.1519 13.6828 16.2551L13.6771 16.2671C13.5406 16.5562 13.3303 16.9454 13.0352 17.3387C12.453 18.1149 11.4646 19 10 19C8.53539 19 7.54706 18.1149 6.96479 17.3387C6.66974 16.9454 6.45942 16.5562 6.32294 16.2671L6.31727 16.2551C5.4423 16.0884 4.57591 15.8618 3.72424 15.5752L2.87852 15.2906C0.662899 14.5451 0.321943 11.5546 2.31292 10.3297L3.54579 9.57124C3.97101 9.30964 4.23004 8.84624 4.23004 8.34709V6.7683C4.23004 6.1657 4.32247 5.58468 4.49393 5.03864L2.00927 2.5458C1.73935 2.275 1.74014 1.83673 2.01102 1.56689C2.2819 1.29706 2.7203 1.29784 2.99021 1.56864L3.78291 2.36395ZM11.9274 16.5081C10.6456 16.6343 9.35443 16.6343 8.07268 16.5081C8.52887 17.1163 9.15612 17.6156 10 17.6156C10.8439 17.6156 11.4712 17.1163 11.9274 16.5081Z" fill="currentcolor" />
  <path d="M5.96609 2.64395L18.0499 14.7675C19.3864 13.6211 19.355 11.3558 17.6871 10.3297L16.4542 9.57124C16.029 9.30964 15.77 8.84624 15.77 8.34709V6.7683C15.77 3.58256 13.1867 1 10 1C8.42997 1 7.0064 1.62689 5.96609 2.64395Z" fill="currentcolor" />
</svg>
