<svg
  xmlns="http://www.w3.org/2000/svg"
  width="20"
  height="20"
  viewBox="0 0 20 20"
  fill="none"
>
  <path
    fill-rule="evenodd"
    clip-rule="evenodd"
    d="M3.04851 0.218755C2.77532 -0.0460234 2.33497 -0.0766601 2.02413 0.160949C1.68877 0.417299 1.63116 0.888801 1.89545 1.21408L4.55628 4.48892C4.46836 4.86958 4.42197 5.26547 4.42197 5.67187V8.67172C4.42197 9.14266 4.21987 9.59236 3.86416 9.9129L2.38584 11.2451C0.940025 12.548 1.32546 14.8498 3.09504 15.6664C3.98113 16.0753 4.89733 16.4017 5.83145 16.6454C5.85578 16.6994 5.88313 16.758 5.91356 16.8205C6.06595 17.1336 6.3008 17.5553 6.63025 17.9814C7.2804 18.8223 8.38395 19.7812 10.0193 19.7812C11.6547 19.7812 12.7583 18.8223 13.4084 17.9814C13.7379 17.5553 13.9727 17.1336 14.1251 16.8205C14.155 16.7591 14.1819 16.7015 14.2058 16.6484C14.269 16.632 14.332 16.6151 14.3949 16.5979L16.927 19.7142C17.1912 20.0395 17.6774 20.0954 18.0127 19.8391C18.3481 19.5827 18.4057 19.1112 18.1414 18.7859L15.9491 16.0877L15.9516 16.0868L3.04851 0.218755ZM7.83398 17.038C9.28318 17.2305 10.7538 17.2315 12.2031 17.0401L12.1714 17.0816C11.662 17.7404 10.9616 18.2814 10.0193 18.2814C9.07705 18.2814 8.37667 17.7404 7.86729 17.0816C7.85605 17.0671 7.84495 17.0525 7.83398 17.038Z"
    fill="currentColor"
  />
  <path
    d="M17.3743 15.4146C18.7539 14.4347 18.9163 12.4116 17.5783 11.2474L16.0401 9.90909C15.6741 9.5907 15.4689 9.13381 15.4776 8.65707L15.5304 5.76731C15.5854 2.75488 13.0828 0.284137 9.9766 0.284137C8.52934 0.284137 7.21135 0.821001 6.22278 1.70061L17.3743 15.4146Z"
    fill="currentColor"
  />
</svg>
