<svg
  xmlns="http://www.w3.org/2000/svg"
  width="20"
  height="20"
  viewBox="0 0 20 20"
  fill="none"
>
  <path
    fill-rule="evenodd"
    clip-rule="evenodd"
    d="M5.2706 14.6517C2.65459 13.6377 0.799744 11.0967 0.799744 8.12256C0.799744 4.25657 3.93375 1.12256 7.79974 1.12256C10.7739 1.12256 13.3148 2.9774 14.3289 5.59341C16.9449 6.60746 18.7997 9.1484 18.7997 12.1226C18.7997 15.9886 15.6657 19.1226 11.7997 19.1226C8.82558 19.1226 6.28464 17.2677 5.2706 14.6517ZM13.2997 8.12256C13.2997 7.66162 13.243 7.21393 13.1362 6.78607C12.7084 6.67926 12.2607 6.62256 11.7997 6.62256C11.6573 6.62256 11.5162 6.62797 11.3765 6.6386L13.2837 8.5458C13.2943 8.40611 13.2997 8.26497 13.2997 8.12256ZM12.8712 10.2546L9.66766 7.05108C9.24069 7.23079 8.84117 7.46286 8.47714 7.73923L12.1831 11.4452C12.4594 11.0811 12.6915 10.6816 12.8712 10.2546ZM11.1224 12.5058L7.41647 8.79988C7.14009 9.16391 6.90802 9.56343 6.7283 9.99039L9.93191 13.194C10.3589 13.0143 10.7584 12.7822 11.1224 12.5058ZM8.22309 13.6065L6.31579 11.6992C6.30516 11.8389 6.29974 11.9801 6.29974 12.1226C6.29974 12.5835 6.35645 13.0312 6.46326 13.459C6.89111 13.5659 7.33881 13.6226 7.79974 13.6226C7.94219 13.6226 8.08337 13.6171 8.22309 13.6065ZM7.79974 15.1226C7.58789 15.1226 7.37824 15.1131 7.17118 15.0947C8.14967 16.6154 9.85709 17.6226 11.7997 17.6226C14.8373 17.6226 17.2997 15.1601 17.2997 12.1226C17.2997 10.1799 16.2926 8.47249 14.7719 7.49399C14.7903 7.70105 14.7997 7.91071 14.7997 8.12256C14.7997 11.9886 11.6657 15.1226 7.79974 15.1226Z"
    fill="currentColor"
  />
</svg>
