<svg width="20" height="20" viewBox="0 0 20 20" fill="currentcolor" xmlns="http://www.w3.org/2000/svg">
  <path d="M18.1736 1.6337C17.4315 0.966193 16.2994 0.748319 15.3671 1.36111C14.4496 1.96421 12.999 3.07496 11.0548 5.04468C9.39617 6.72499 8.04357 8.55331 7.30891 9.65349C9.5937 9.79653 11.442 11.3953 12.057 13.5138C12.9699 12.5426 14.2657 11.0694 15.5868 9.28558C17.2083 7.09638 18.1699 5.52804 18.7112 4.54928C19.2703 3.53837 18.9783 2.35753 18.1736 1.6337Z" fill="currentcolor" />
  <path d="M6.81371 19C5.52449 19 3.89091 18.8589 2.52502 18.7097C2.43533 18.6999 2.39049 18.695 2.38275 18.694C1.80802 18.6182 1.56626 18.0404 1.9158 17.5779C1.9205 17.5717 1.96347 17.5174 2.04939 17.4089C2.54593 16.7815 3.01155 16.0013 3.15529 15.1459C3.31536 14.1934 3.54297 13.1839 4.09065 12.413C4.60856 11.6839 5.44752 11.1204 6.97436 11.1204C9.07198 11.1204 10.7863 12.8622 10.7863 15.0602C10.7863 15.8746 10.4121 16.8705 9.70835 17.6633C9.01268 18.4469 8.02472 19 6.81371 19Z" fill="currentcolor" />
</svg>
