<svg width="20" height="20" viewBox="0 0 20 20" fill="currentcolor" xmlns="http://www.w3.org/2000/svg">
  <path fill-rule="evenodd" d="M10.25 3.03253L7.24539 4.06747C3.35781 5.40656 1.41402 6.0761 0.969779 7.23326C0.794815 7.68901 0.754019 8.17908 0.852282 8.64475C1.10178 9.8271 2.93279 10.6378 6.59482 12.2593C6.6366 12.2778 6.67641 12.2954 6.71429 12.3123L9.8139 10.0847C10.1856 9.81755 10.3714 9.68399 10.4297 9.7417C10.4879 9.79941 10.3531 9.98354 10.0835 10.3518L7.90777 13.3236C7.96463 13.4394 8.02778 13.5794 8.10766 13.7564C9.66134 17.2009 10.4382 18.9231 11.5288 19.2155C12.104 19.3697 12.7256 19.3116 13.2806 19.052C14.3328 18.5596 14.9349 16.7087 16.1391 13.0069L17.1986 9.75006C18.663 5.24822 19.3952 2.99729 18.2074 1.849C17.0196 0.700706 14.7631 1.47798 10.25 3.03253Z" fill="currentcolor" />
</svg>
