<svg width="20" height="20" viewBox="0 0 20 20" fill="currentColor" xmlns="http://www.w3.org/2000/svg">
  <path d="M16.6159 2.32166C14.8537 0.559446 11.9966 0.559446 10.2344 2.32166L3.56086 8.99517C1.27211 11.2839 1.27211 14.9947 3.56086 17.2834C5.8496 19.5722 9.56038 19.5722 11.8491 17.2834L17.8871 11.2455C18.2452 10.8874 18.2452 10.3067 17.8871 9.94853C17.5289 9.59038 16.9482 9.59038 16.5901 9.94853L10.5522 15.9865C8.97971 17.5589 6.43027 17.5589 4.85783 15.9865C3.28539 14.414 3.28539 11.8646 4.85783 10.2921L11.5313 3.61864C12.5773 2.57272 14.273 2.57272 15.3189 3.61864C16.3649 4.66456 16.3649 6.36032 15.3189 7.40624L8.64544 14.0798C8.12604 14.5991 7.28394 14.5991 6.76455 14.0798C6.24515 13.5604 6.24516 12.7183 6.76455 12.1989L12.8025 6.16093C13.1606 5.80278 13.1606 5.2221 12.8025 4.86395C12.4443 4.5058 11.8637 4.5058 11.5055 4.86395L5.46757 10.9019C4.23188 12.1376 4.23188 14.141 5.46757 15.3767C6.70327 16.6124 8.70672 16.6124 9.94241 15.3767L16.6159 8.70322C18.3781 6.941 18.3781 4.08388 16.6159 2.32166Z" fill="currentColor" />
</svg>
