<svg
  xmlns="http://www.w3.org/2000/svg"
  width="20"
  height="20"
  viewBox="0 0 20 20"
  fill="none"
>
  <path
    fill-rule="evenodd"
    clip-rule="evenodd"
    d="M10.25 3.03251L7.24539 4.06746C3.35781 5.40654 1.41402 6.07609 0.969779 7.23325C0.794815 7.68899 0.754019 8.17907 0.852282 8.64474C1.10178 9.82709 2.93279 10.6378 6.59482 12.2593C6.6366 12.2778 6.67641 12.2954 6.71429 12.3122L9.8139 10.0847C10.1856 9.81753 10.3714 9.68398 10.4297 9.74168C10.4879 9.79939 10.3531 9.98352 10.0835 10.3518L7.90777 13.3236C7.96463 13.4393 8.02778 13.5793 8.10766 13.7564C9.66134 17.2009 10.4382 18.9231 11.5288 19.2154C12.104 19.3696 12.7256 19.3116 13.2806 19.0519C14.3328 18.5596 14.9349 16.7087 16.1391 13.0069L17.1986 9.75005C18.663 5.2482 19.3952 2.99728 18.2074 1.84898C17.0196 0.700691 14.7631 1.47797 10.25 3.03251Z"
    fill="currentColor"
  />
</svg>
