<svg
  xmlns="http://www.w3.org/2000/svg"
  width="20"
  height="20"
  viewBox="0 0 20 20"
  fill="none"
>
  <path
    d="M1.50945 2.94978C1.46624 3.06763 1.43311 3.18442 1.40136 3.29637L1.38353 3.359C1.09449 4.36684 0.700021 6.15822 0.823222 8.15382C0.946892 10.157 1.59627 12.4049 3.43454 14.2456C5.21993 16.0333 7.12805 16.6579 8.95249 16.4462C9.15864 16.4223 9.36229 16.3879 9.56318 16.3438C9.63594 16.4929 9.74362 16.6919 9.89904 16.9364C10.233 17.4619 10.7864 18.1961 11.6854 19.0963C11.9781 19.3893 12.4526 19.3893 12.7453 19.0963C13.038 18.8032 13.038 18.328 12.7453 18.0349C11.9172 17.2057 11.4342 16.5563 11.1637 16.1306C11.0957 16.0236 11.0411 15.9306 10.9977 15.8523C11.9656 15.3998 12.8416 14.74 13.5901 13.9905C14.3159 13.2638 14.9574 12.4171 15.4077 11.4829C15.4793 11.5234 15.5622 11.5728 15.6559 11.6325C16.081 11.9034 16.7295 12.387 17.5577 13.2162C17.8504 13.5093 18.3249 13.5093 18.6176 13.2162C18.9103 12.9231 18.9103 12.4479 18.6176 12.1548C17.7186 11.2546 16.9855 10.7006 16.4607 10.3662C16.2426 10.2273 16.0609 10.1264 15.9185 10.0546C15.9731 9.82227 16.0149 9.5862 16.0426 9.34676C16.254 7.51992 15.6303 5.6093 13.8449 3.82156C12.1058 2.08013 9.86963 1.46244 7.86851 1.32965C5.86792 1.19689 4.03578 1.54298 3.00877 1.79658L2.94434 1.81236C2.82974 1.8403 2.71016 1.86945 2.58923 1.90884L7.49052 6.89836C7.5259 6.93438 7.55696 6.97312 7.58372 7.01393C8.26509 6.73054 9.07647 6.87037 9.62955 7.4334C10.3654 8.18246 10.3654 9.39693 9.62955 10.146C8.89374 10.895 7.70075 10.895 6.96494 10.146C6.41185 9.58295 6.2745 8.75696 6.55288 8.06332C6.5128 8.03608 6.47474 8.00446 6.43936 7.96844L1.50945 2.94978Z"
    fill="currentColor"
  />
</svg>
