<svg width="20" height="20" viewBox="0 0 20 20" fill="currentColor" xmlns="http://www.w3.org/2000/svg">
  <path d="M1.50945 2.94968C1.46624 3.06754 1.43311 3.18433 1.40136 3.29628L1.38353 3.3589C1.09449 4.36675 0.700021 6.15812 0.823222 8.15372C0.946892 10.1569 1.59627 12.4048 3.43454 14.2455C5.21993 16.0332 7.12805 16.6578 8.95249 16.4461C9.15864 16.4222 9.36229 16.3878 9.56318 16.3437C9.63594 16.4928 9.74362 16.6918 9.89904 16.9363C10.233 17.4618 10.7864 18.196 11.6854 19.0962C11.9781 19.3892 12.4526 19.3892 12.7453 19.0962C13.038 18.8031 13.038 18.3279 12.7453 18.0348C11.9172 17.2056 11.4342 16.5562 11.1637 16.1305C11.0957 16.0235 11.0411 15.9305 10.9977 15.8522C11.9656 15.3997 12.8416 14.7399 13.5901 13.9904C14.3159 13.2637 14.9574 12.417 15.4077 11.4828C15.4793 11.5233 15.5622 11.5727 15.6559 11.6324C16.081 11.9033 16.7295 12.3869 17.5577 13.2161C17.8504 13.5092 18.3249 13.5092 18.6176 13.2161C18.9103 12.923 18.9103 12.4478 18.6176 12.1547C17.7186 11.2546 16.9855 10.7005 16.4607 10.3661C16.2426 10.2272 16.0609 10.1263 15.9185 10.0545C15.9731 9.82218 16.0149 9.58611 16.0426 9.34667C16.254 7.51983 15.6303 5.6092 13.8449 3.82147C12.1058 2.08003 9.86963 1.46235 7.86851 1.32956C5.86792 1.1968 4.03578 1.54289 3.00877 1.79649L2.94434 1.81227C2.82974 1.84021 2.71016 1.86936 2.58923 1.90875L7.49052 6.89827C7.5259 6.93429 7.55696 6.97303 7.58372 7.01384C8.26509 6.73045 9.07647 6.87028 9.62955 7.43331C10.3654 8.18237 10.3654 9.39684 9.62955 10.1459C8.89374 10.895 7.70075 10.895 6.96494 10.1459C6.41185 9.58286 6.2745 8.75687 6.55288 8.06323C6.5128 8.03599 6.47474 8.00437 6.43936 7.96835L1.50945 2.94968Z" fill="currentColor" />
</svg>
