<svg width="20" height="20" viewBox="0 0 20 20" fill="currentcolor" xmlns="http://www.w3.org/2000/svg">
  <path fill-rule="evenodd" d="M4.1214 1.32825C4.93073 0.890584 5.9062 0.890584 6.71553 1.32825C7.06748 1.51858 7.38241 1.83389 7.80334 2.25535C7.82759 2.27962 7.85218 2.30425 7.87716 2.32922L8.7996 3.25166C8.84261 3.29467 8.87603 3.32808 8.90641 3.36065C9.63597 4.14286 9.79777 5.29813 9.31116 6.25068C9.29089 6.29036 9.26792 6.3317 9.23834 6.38493L9.23305 6.39445C9.18553 6.47999 9.16914 6.50965 9.15554 6.53603C8.80047 7.22459 8.85707 8.05335 9.30248 8.68722C9.31955 8.71152 9.33981 8.73867 9.39852 8.81695L9.49671 8.94786C9.58994 9.07218 9.63089 9.12671 9.67236 9.1797C10.0071 9.60743 10.3926 9.9929 10.8203 10.3277C10.8733 10.3691 10.9278 10.4101 11.0521 10.5033L11.1831 10.6015C11.2613 10.6602 11.2885 10.6805 11.3128 10.6975C11.9467 11.1429 12.7754 11.1995 13.464 10.8445C13.4903 10.8309 13.5201 10.8144 13.6056 10.767L13.6153 10.7616C13.6684 10.732 13.7097 10.7091 13.7493 10.6889C14.7019 10.2022 15.8571 10.364 16.6394 11.0936C16.6719 11.124 16.7053 11.1574 16.7483 11.2004L17.6708 12.1229C17.6958 12.1478 17.7204 12.1724 17.7447 12.1967C18.1661 12.6176 18.4814 12.9325 18.6717 13.2845C19.1094 14.0938 19.1094 15.0693 18.6717 15.8786C18.4814 16.2306 18.1661 16.5455 17.7447 16.9664C17.7204 16.9907 17.6958 17.0153 17.6708 17.0402C17.6488 17.0622 17.6271 17.0839 17.6057 17.1053C16.9669 17.7444 16.5537 18.1578 16.0347 18.452C14.9015 19.0946 13.3273 19.1805 12.1309 18.665C11.5832 18.429 11.1727 18.0993 10.5432 17.5938C10.5242 17.5785 10.5049 17.5631 10.4855 17.5475C9.20246 16.5175 7.69479 15.2213 6.23672 13.7633C4.77866 12.3052 3.48249 10.7976 2.45255 9.51456C2.43693 9.4951 2.42148 9.47585 2.40618 9.4568C1.90068 8.82732 1.57104 8.41683 1.33503 7.86911C0.819524 6.67274 0.905389 5.09852 1.54796 3.96532C1.84224 3.44633 2.25559 3.03314 2.89467 2.39432C2.91612 2.37288 2.93782 2.35118 2.95978 2.32922C2.98475 2.30425 3.00935 2.27962 3.03359 2.25535C3.45452 1.83389 3.76945 1.51858 4.1214 1.32825Z" fill="currentcolor" />
</svg>
