<svg width="20" height="20" viewBox="0 0 20 20" fill="currentcolor" xmlns="http://www.w3.org/2000/svg">
  <path d="M4.12141 1.32825C4.93074 0.890584 5.90621 0.890584 6.71553 1.32825C7.06749 1.51858 7.38242 1.83389 7.80335 2.25535C7.82759 2.27962 7.85219 2.30425 7.87716 2.32922L8.7996 3.25166C8.84262 3.29467 8.87604 3.32809 8.90641 3.36065C9.63598 4.14286 9.79778 5.29813 9.31117 6.25068C9.2909 6.29036 9.26793 6.3317 9.23835 6.38493L9.23306 6.39445C9.18554 6.47999 9.16915 6.50965 9.15554 6.53604C8.80047 7.22459 8.85708 8.05335 9.30248 8.68723C9.31955 8.71152 9.33982 8.73868 9.39853 8.81696L9.49671 8.94787C9.58995 9.07219 9.63089 9.12672 9.67236 9.17971C10.0071 9.60744 10.3926 9.99291 10.8203 10.3277C10.8733 10.3691 10.9278 10.4101 11.0521 10.5033L11.1831 10.6015C11.2613 10.6602 11.2885 10.6805 11.3128 10.6975C11.9467 11.1429 12.7754 11.1996 13.464 10.8445C13.4903 10.8309 13.5201 10.8144 13.6056 10.767L13.6153 10.7616C13.6684 10.7321 13.7097 10.7091 13.7493 10.6889C14.7019 10.2023 15.8572 10.3641 16.6394 11.0936C16.6719 11.124 16.7053 11.1574 16.7483 11.2004L17.6708 12.1229C17.6958 12.1478 17.7204 12.1724 17.7447 12.1967C18.1661 12.6176 18.4814 12.9325 18.6718 13.2845C19.1094 14.0938 19.1094 15.0693 18.6718 15.8786C18.4814 16.2306 18.1661 16.5455 17.7447 16.9664C17.7204 16.9907 17.6958 17.0153 17.6708 17.0402C17.6488 17.0622 17.6271 17.0839 17.6057 17.1054C16.9669 17.7444 16.5537 18.1578 16.0347 18.4521C14.9015 19.0946 13.3273 19.1805 12.1309 18.665C11.5832 18.429 11.1727 18.0993 10.5432 17.5938C10.5242 17.5785 10.5049 17.5631 10.4855 17.5475C9.20247 16.5175 7.6948 15.2214 6.23673 13.7633C4.77866 12.3052 3.48249 10.7976 2.45255 9.51456C2.43693 9.4951 2.42148 9.47586 2.40618 9.45681C1.90068 8.82732 1.57104 8.41684 1.33503 7.86911C0.819524 6.67275 0.905389 5.09852 1.54796 3.96532C1.84224 3.44633 2.25559 3.03315 2.89467 2.39432C2.91612 2.37288 2.93782 2.35118 2.95978 2.32922C2.98476 2.30425 3.00935 2.27962 3.03359 2.25535C3.45453 1.83389 3.76945 1.51858 4.12141 1.32825Z" fill="currentcolor" />
  <path d="M13.4779 3.76914C13.1802 3.47144 12.6975 3.47144 12.3998 3.76914C12.1021 4.06684 12.1021 4.5495 12.3998 4.8472L13.1662 5.61359L12.3997 6.38005C12.102 6.67775 12.102 7.16042 12.3997 7.45812C12.6974 7.75582 13.1801 7.75582 13.4778 7.45812L14.2443 6.69165L15.0107 7.45806C15.3084 7.75576 15.791 7.75576 16.0887 7.45806C16.3864 7.16036 16.3864 6.6777 16.0887 6.37999L15.3223 5.61359L16.0887 4.84726C16.3864 4.54956 16.3864 4.06689 16.0887 3.76919C15.791 3.47149 15.3083 3.47149 15.0106 3.76919L14.2443 4.53552L13.4779 3.76914Z" fill="currentcolor" />
</svg>
