<svg width="20" height="20" viewBox="0 0 20 20" fill="currentcolor" xmlns="http://www.w3.org/2000/svg">
  <path fill-rule="evenodd" d="M2 8.63251C2 1.52338 6 0 10 0C14 0 18 1.52338 18 8.63251C18 14.2157 13.0657 18.2329 10.9475 19.7002C10.3704 20.0999 9.62956 20.0999 9.05248 19.7002C6.93425 18.2329 2 14.2157 2 8.63251ZM10 11.1715C11.6569 11.1715 13 9.80739 13 8.12471C13 6.44203 11.6569 5.07794 10 5.07794C8.34315 5.07794 7 6.44203 7 8.12471C7 9.80739 8.34315 11.1715 10 11.1715Z" fill="currentcolor" />
</svg>
