<svg
  xmlns="http://www.w3.org/2000/svg"
  width="20"
  height="20"
  viewBox="0 0 20 20"
  fill="none"
>
  <path
    d="M6.87757 8.29754C6.21193 8.81197 5.28963 9.38883 4.46638 9.42374C3.70702 9.45595 2.73607 9.03959 2.15034 8.74475C1.87744 8.60738 1.74098 8.53869 1.61509 8.5424C1.4892 8.54612 1.36673 8.61709 1.12179 8.75904L0.754634 8.97181C0.276762 9.24874 0.037826 9.3872 0.00394983 9.62926C-0.0299263 9.87131 0.154983 10.0635 0.524802 10.4478C1.27139 11.2236 2.42794 12.305 3.49136 12.7994C4.73218 13.3762 5.35634 13.3483 6.71362 13.1813C8.12592 13.0075 10.0103 11.8428 10.2091 11.7179L10.2276 11.7064L10.2449 11.6962L17.3738 7.56501C18.5247 6.89805 19.4152 5.8578 19.8988 4.61534C20.24 3.73873 19.6832 2.77074 18.7563 2.62903C17.4425 2.42819 16.0997 2.68213 14.9488 3.34909L12.7152 4.64349C12.4393 4.80334 12.3014 4.88326 12.153 4.91676C12.0484 4.94036 11.9408 4.94691 11.8342 4.93616C11.6828 4.9209 11.5363 4.85828 11.2432 4.73304L5.49316 2.27568C5.04298 2.08329 4.81789 1.9871 4.58292 2.00139C4.34795 2.01569 4.13608 2.13846 3.71235 2.38402L3.12954 2.72176C2.49651 3.08861 2.18 3.27203 2.17295 3.55291C2.1659 3.83379 2.47281 4.03298 3.08663 4.43135L6.77213 6.82325C7.25073 7.13386 7.49003 7.28917 7.50065 7.54848C7.51127 7.80779 7.30004 7.97104 6.87757 8.29754Z"
    fill="currentColor"
  />
  <path
    fill-rule="evenodd"
    clip-rule="evenodd"
    d="M0.0183441 17.2444C0.0183441 16.8293 0.353628 16.4927 0.767221 16.4927H11.3181C11.7316 16.4927 12.0669 16.8293 12.0669 17.2444C12.0669 17.6596 11.7316 17.9961 11.3181 17.9961H0.767221C0.353628 17.9961 0.0183441 17.6596 0.0183441 17.2444Z"
    fill="currentColor"
  />
  <path
    d="M19.7975 14.0962C20.0675 13.8252 20.0675 13.3859 19.7975 13.1149C19.5276 12.844 19.0899 12.844 18.8199 13.1149L17.4653 14.4746L16.1108 13.115C15.8408 12.844 15.4031 12.844 15.1331 13.115C14.8632 13.3859 14.8632 13.8252 15.1331 14.0962L16.4877 15.4559L15.1331 16.8155C14.8632 17.0865 14.8632 17.5258 15.1331 17.7968C15.4031 18.0677 15.8408 18.0677 16.1108 17.7968L17.4653 16.4371L18.8199 17.7968C19.0899 18.0677 19.5276 18.0677 19.7975 17.7968C20.0675 17.5258 20.0675 17.0865 19.7975 16.8155L18.4429 15.4559L19.7975 14.0962Z"
    fill="currentColor"
  />
</svg>
