<svg
  xmlns="http://www.w3.org/2000/svg"
  width="20"
  height="20"
  viewBox="0 0 20 20"
  fill="none"
>
  <path
    d="M6.87757 8.29753C6.21193 8.81197 5.28963 9.38883 4.46638 9.42374C3.70702 9.45594 2.73607 9.03959 2.15034 8.74475C1.87744 8.60738 1.74098 8.53869 1.61509 8.5424C1.4892 8.54612 1.36673 8.61709 1.12179 8.75903L0.754634 8.97181C0.276762 9.24874 0.037826 9.3872 0.00394983 9.62926C-0.0299263 9.87131 0.154983 10.0635 0.524802 10.4478C1.27139 11.2236 2.42794 12.305 3.49136 12.7994C4.73218 13.3762 5.35634 13.3483 6.71363 13.1813C8.12592 13.0075 10.0103 11.8428 10.2091 11.7179L10.2276 11.7064L10.2449 11.6962L17.3738 7.56501C18.5247 6.89805 19.4152 5.85779 19.8988 4.61533C20.24 3.73873 19.6832 2.77074 18.7563 2.62903C17.4425 2.42819 16.0997 2.68213 14.9488 3.34909L12.7152 4.64349C12.4394 4.80334 12.3014 4.88326 12.153 4.91676C12.0484 4.94036 11.9408 4.9469 11.8342 4.93616C11.6828 4.9209 11.5363 4.85828 11.2432 4.73304L5.49316 2.27568C5.04298 2.08329 4.81789 1.9871 4.58292 2.00139C4.34795 2.01569 4.13608 2.13846 3.71235 2.38402L3.12954 2.72176C2.49651 3.08861 2.18 3.27203 2.17295 3.55291C2.1659 3.83379 2.47281 4.03297 3.08664 4.43135L6.77213 6.82325C7.25073 7.13386 7.49003 7.28917 7.50065 7.54848C7.51127 7.80779 7.30004 7.97104 6.87757 8.29753Z"
    fill="currentColor"
  />
  <path
    fill-rule="evenodd"
    clip-rule="evenodd"
    d="M0.0183441 17.2444C0.0183441 16.8293 0.353628 16.4927 0.767221 16.4927H11.3181C11.7316 16.4927 12.0669 16.8293 12.0669 17.2444C12.0669 17.6595 11.7316 17.9961 11.3181 17.9961H0.767221C0.353628 17.9961 0.0183441 17.6595 0.0183441 17.2444Z"
    fill="currentColor"
  />
  <path
    d="M16.6318 11.2386C16.2115 11.2386 15.8707 11.5806 15.8707 12.0026V13.8553H14.0249C13.6045 13.8553 13.2637 14.1973 13.2637 14.6193C13.2637 15.0412 13.6045 15.3833 14.0249 15.3833H15.8707V17.236C15.8707 17.6579 16.2115 18 16.6318 18C17.0522 18 17.393 17.6579 17.393 17.236V15.3833H19.2388C19.6592 15.3833 20 15.0412 20 14.6193C20 14.1973 19.6592 13.8553 19.2388 13.8553H17.393V12.0026C17.393 11.5806 17.0522 11.2386 16.6318 11.2386Z"
    fill="currentColor"
  />
</svg>
