<svg
  xmlns="http://www.w3.org/2000/svg"
  width="20"
  height="20"
  viewBox="0 0 20 20"
  fill="none"
>
  <path
    d="M6.87757 10.6548C6.21193 11.1693 5.28963 11.7463 4.46638 11.7813C3.70702 11.8135 2.73607 11.397 2.15034 11.1021C1.87744 10.9647 1.74098 10.896 1.61509 10.8997C1.4892 10.9034 1.36673 10.9744 1.12179 11.1164L0.754634 11.3292C0.276762 11.6062 0.037826 11.7447 0.00394983 11.9868C-0.0299263 12.2289 0.154983 12.4211 0.524802 12.8055C1.27139 13.5815 2.42794 14.6632 3.49136 15.1577C4.73218 15.7347 5.35634 15.7068 6.71363 15.5397C8.12592 15.3659 10.0103 14.2009 10.2091 14.076L10.2276 14.0645L10.2449 14.0543L17.3738 9.92209C18.5247 9.25496 19.4152 8.21445 19.8988 6.97169C20.24 6.09487 19.6832 5.12664 18.7563 4.9849C17.4425 4.78401 16.0997 5.03801 14.9488 5.70513L12.7152 6.99985C12.4393 7.15974 12.3014 7.23968 12.153 7.27319C12.0484 7.29679 11.9408 7.30334 11.8342 7.29259C11.6828 7.27733 11.5363 7.21469 11.2432 7.08943L5.49316 4.63146C5.04298 4.43902 4.81789 4.34281 4.58292 4.3571C4.34795 4.3714 4.13608 4.49421 3.71235 4.73983L3.12954 5.07765C2.49651 5.44459 2.18 5.62806 2.17295 5.909C2.1659 6.18995 2.47281 6.38918 3.08664 6.78766L6.77213 9.18014C7.25073 9.49083 7.49003 9.64617 7.50065 9.90555C7.51127 10.1649 7.30004 10.3282 6.87757 10.6548Z"
    fill="currentColor"
  />
</svg>
