<svg
  xmlns="http://www.w3.org/2000/svg"
  width="20"
  height="20"
  viewBox="0 0 20 20"
  fill="none"
>
  <path
    d="M7.81944 13.2975L7.81944 14.6056C7.81944 15.0526 7.81944 15.2761 7.72933 15.4734C7.63921 15.6706 7.46965 15.8183 7.13053 16.1135L6.14446 16.9721C5.9749 17.1197 5.89012 17.1935 5.84507 17.2922C5.80001 17.3908 5.80001 17.5025 5.80001 17.7261L5.80001 17.8103C5.80001 18.4569 5.80001 18.7801 6.0144 18.9302C6.22879 19.0803 6.53678 18.9726 7.15275 18.7572L9.66196 17.8798C9.82932 17.8212 9.91301 17.792 10 17.792C10.087 17.792 10.1707 17.8212 10.338 17.8798L12.8473 18.7572C13.4632 18.9726 13.7712 19.0803 13.9856 18.9302C14.2 18.7801 14.2 18.4569 14.2 17.8103L14.2 17.7261C14.2 17.5025 14.2 17.3908 14.1549 17.2922C14.1099 17.1935 14.0251 17.1197 13.8555 16.9721L12.8695 16.1135C12.5304 15.8183 12.3608 15.6706 12.2707 15.4734C12.1806 15.2761 12.1806 15.0526 12.1806 14.6056L12.1806 13.2975C12.1806 12.7367 12.1806 12.4563 12.364 12.3057C12.5474 12.1551 12.8259 12.2069 13.3828 12.3105L18.0237 13.174C18.3673 13.2379 18.5391 13.2699 18.6725 13.2198C18.7779 13.1803 18.8669 13.1072 18.9257 13.012C19 12.8915 19 12.7185 19 12.3726C19 12.0091 19 11.8273 18.9431 11.6664C18.8978 11.538 18.8265 11.42 18.7337 11.3197C18.6173 11.1939 18.4556 11.1079 18.1321 10.9359L12.9396 8.1745C12.7221 8.0588 12.6133 8.00096 12.5265 7.92567C12.3663 7.78672 12.2543 7.60141 12.2065 7.39599C12.1806 7.28468 12.1806 7.16246 12.1806 6.91804L12.1806 4.74223C12.1806 3.55959 11.7739 2.41216 11.0274 1.48867C10.5007 0.83711 9.49934 0.83711 8.97265 1.48867C8.22615 2.41216 7.81944 3.55959 7.81944 4.74223L7.81944 6.91804C7.81944 7.16246 7.81944 7.28467 7.79352 7.39599C7.74568 7.60141 7.63373 7.78672 7.47353 7.92567C7.38672 8.00096 7.27795 8.0588 7.06039 8.1745L1.86794 10.9359C1.54443 11.1079 1.38267 11.1939 1.26634 11.3197C1.1735 11.42 1.10223 11.538 1.05686 11.6664C1.00001 11.8274 1.00001 12.0091 1.00001 12.3726C1.00001 12.7185 1.00001 12.8915 1.07436 13.012C1.13308 13.1072 1.22215 13.1803 1.32752 13.2198C1.46091 13.2699 1.63269 13.2379 1.97626 13.174L6.61727 12.3105C7.17415 12.2069 7.45258 12.1551 7.63601 12.3057C7.81944 12.4563 7.81944 12.7367 7.81944 13.2975Z"
    fill="currentColor"
  />
</svg>
