<svg
  xmlns="http://www.w3.org/2000/svg"
  width="20"
  height="20"
  viewBox="0 0 20 20"
  fill="none"
>
  <path
    d="M6.87757 8.29908C6.21193 8.81363 5.28963 9.39064 4.46638 9.42556C3.70702 9.45777 2.73607 9.04131 2.15034 8.7464C1.87744 8.60899 1.74098 8.54029 1.61509 8.544C1.4892 8.54772 1.36673 8.61871 1.12179 8.76069L0.754634 8.97351C0.276762 9.25051 0.037826 9.38901 0.00394983 9.63112C-0.0299263 9.87324 0.154983 10.0654 0.524802 10.4498C1.27139 11.2258 2.42794 12.3075 3.49136 12.802C4.73218 13.379 5.35634 13.3511 6.71363 13.184C8.12592 13.0102 10.0103 11.8452 10.2091 11.7203L10.2276 11.7088L10.2449 11.6986L17.3738 7.56637C18.5247 6.89925 19.4152 5.85874 19.8988 4.61597C20.24 3.73916 19.6832 2.77093 18.7563 2.62919C17.4425 2.4283 16.0997 2.6823 14.9488 3.34942L12.7152 4.64414C12.4393 4.80402 12.3014 4.88397 12.153 4.91748C12.0484 4.94108 11.9408 4.94763 11.8342 4.93688C11.6828 4.92161 11.5363 4.85898 11.2432 4.73371L5.49316 2.27575C5.04298 2.08331 4.81789 1.98709 4.58292 2.00139C4.34795 2.01569 4.13608 2.1385 3.71235 2.38411L3.12954 2.72194C2.49651 3.08887 2.18 3.27234 2.17295 3.55329C2.1659 3.83424 2.47281 4.03347 3.08664 4.43194L6.77213 6.82443C7.25073 7.13512 7.49003 7.29046 7.50065 7.54984C7.51127 7.80921 7.30004 7.9725 6.87757 8.29908Z"
    fill="currentColor"
  />
  <path
    fill-rule="evenodd"
    clip-rule="evenodd"
    d="M0.0183441 17.2481C0.0183441 16.8329 0.353628 16.4963 0.767221 16.4963H11.3181C11.7316 16.4963 12.0669 16.8329 12.0669 17.2481C12.0669 17.6634 11.7316 18 11.3181 18H0.767221C0.353628 18 0.0183441 17.6634 0.0183441 17.2481Z"
    fill="currentColor"
  />
  <path
    fill-rule="evenodd"
    clip-rule="evenodd"
    d="M19.7339 12.3035C20.0366 12.537 20.0927 12.9718 19.8592 13.2745L16.8272 17.2048C16.8208 17.2132 16.8143 17.2215 16.8078 17.23C16.7026 17.3665 16.5837 17.5209 16.465 17.6366C16.3252 17.7731 16.1001 17.9431 15.775 17.9592C15.4498 17.9753 15.209 17.8283 15.0564 17.7063C14.9269 17.6029 14.7933 17.4611 14.6751 17.3356C14.6678 17.3278 14.6605 17.3201 14.6533 17.3125L13.2689 15.8441C13.0066 15.5659 13.0194 15.1277 13.2976 14.8654C13.5758 14.6031 14.014 14.616 14.2763 14.8942L15.6608 16.3626C15.6737 16.3763 15.686 16.3894 15.6979 16.4019C15.7084 16.3883 15.7194 16.374 15.7309 16.3591L18.7629 12.4288C18.9964 12.126 19.4312 12.0699 19.7339 12.3035Z"
    fill="currentColor"
  />
</svg>
