<svg
  xmlns="http://www.w3.org/2000/svg"
  width="20"
  height="20"
  viewBox="0 0 20 20"
  fill="none"
>
  <path
    d="M6.87757 8.29907C6.21193 8.81363 5.28963 9.39063 4.46638 9.42556C3.70702 9.45777 2.73607 9.04131 2.15034 8.7464C1.87744 8.60899 1.74098 8.54029 1.61509 8.544C1.4892 8.54772 1.36673 8.61871 1.12179 8.76069L0.754634 8.97351C0.276762 9.25051 0.037826 9.38901 0.00394983 9.63112C-0.0299263 9.87324 0.154983 10.0654 0.524802 10.4498C1.27139 11.2258 2.42794 12.3075 3.49136 12.802C4.73218 13.379 5.35634 13.3511 6.71363 13.184C8.12592 13.0102 10.0103 11.8452 10.2091 11.7203L10.2276 11.7088L10.2449 11.6986L17.3738 7.56637C18.5247 6.89925 19.4152 5.85874 19.8988 4.61597C20.24 3.73915 19.6832 2.77093 18.7563 2.62919C17.4425 2.4283 16.0997 2.6823 14.9488 3.34942L12.7152 4.64414C12.4394 4.80402 12.3014 4.88397 12.153 4.91748C12.0484 4.94107 11.9408 4.94763 11.8342 4.93688C11.6828 4.92161 11.5363 4.85898 11.2432 4.73371L5.49316 2.27575C5.04298 2.08331 4.81789 1.98709 4.58292 2.00139C4.34795 2.01569 4.13608 2.1385 3.71235 2.38411L3.12954 2.72194C2.49651 3.08887 2.18 3.27234 2.17295 3.55329C2.1659 3.83424 2.47281 4.03347 3.08664 4.43194L6.77213 6.82443C7.25073 7.13512 7.49003 7.29046 7.50065 7.54984C7.51127 7.80921 7.30004 7.9725 6.87757 8.29907Z"
    fill="currentColor"
  />
  <path
    fill-rule="evenodd"
    clip-rule="evenodd"
    d="M0.0183441 17.2481C0.0183441 16.8329 0.353628 16.4963 0.767221 16.4963L19.2167 16.4963C19.6303 16.4963 19.9656 16.8329 19.9656 17.2481C19.9656 17.6634 19.6303 18 19.2167 18L0.767221 18C0.353628 18 0.018344 17.6634 0.0183441 17.2481Z"
    fill="currentColor"
  />
</svg>
