<svg
  xmlns="http://www.w3.org/2000/svg"
  width="20"
  height="20"
  viewBox="0 0 20 20"
  fill="none"
>
  <path
    d="M6.75944 7.54955C5.96933 7.44173 4.98272 7.20255 4.41278 6.6723C3.88321 6.1796 3.50935 5.24577 3.31006 4.64246C3.21379 4.35102 3.16565 4.2053 3.07479 4.11874C2.98392 4.03219 2.8484 3.99543 2.57736 3.9219L2.2473 3.83235C1.71796 3.68875 1.45329 3.61695 1.26009 3.7647C1.06689 3.91246 1.06289 4.17991 1.05489 4.71483C1.03933 5.75452 1.0967 7.25717 1.47759 8.3082C1.9283 9.55191 2.36943 9.96043 3.40036 10.7762C4.47167 11.624 6.52774 12.1198 6.75099 12.1718L6.77224 12.1769L6.79149 12.182L14.399 14.2458C15.6273 14.5791 16.9311 14.4791 18.0958 13.9625C18.9176 13.5979 19.1934 12.5559 18.6617 11.8241C17.9082 10.7871 16.8285 10.0405 15.6002 9.7073L13.2163 9.06059C12.939 8.98536 12.8004 8.94775 12.6826 8.87685C12.5753 8.81222 12.481 8.72765 12.4046 8.62758C12.3209 8.51778 12.2673 8.38296 12.16 8.11336L9.93936 2.53092C9.75787 2.07468 9.66712 1.84656 9.49216 1.68966C9.31719 1.53276 9.08256 1.46911 8.61332 1.34181L8.0828 1.19788C7.38177 1.0077 7.03126 0.912613 6.82985 1.10651C6.62843 1.30041 6.70459 1.65963 6.85689 2.37807L7.71658 6.43334C7.8354 6.99385 7.89481 7.27411 7.71994 7.46543C7.54507 7.65675 7.2832 7.62102 6.75944 7.54955Z"
    fill="currentColor"
  />
  <path
    fill-rule="evenodd"
    clip-rule="evenodd"
    d="M1 18.2472C1 17.8314 1.3329 17.4944 1.74355 17.4944L18.2565 17.4944C18.6671 17.4944 19 17.8314 19 18.2472C19 18.663 18.6671 19 18.2565 19L1.74355 19C1.3329 19 1 18.663 1 18.2472Z"
    fill="currentColor"
  />
  <path
    d="M6.71601 13.7996C6.71601 14.3539 6.27214 14.8033 5.72461 14.8033C5.17708 14.8033 4.73322 14.3539 4.73322 13.7996C4.73322 13.2452 5.17708 12.7958 5.72461 12.7958C6.27214 12.7958 6.71601 13.2452 6.71601 13.7996Z"
    fill="currentColor"
  />
  <path
    d="M9.69019 14.521C9.69019 15.0754 9.24633 15.5248 8.6988 15.5248C8.15126 15.5248 7.7074 15.0754 7.7074 14.521C7.7074 13.9667 8.15126 13.5173 8.6988 13.5173C9.24633 13.5173 9.69019 13.9667 9.69019 14.521Z"
    fill="currentColor"
  />
</svg>
