<svg
  xmlns="http://www.w3.org/2000/svg"
  width="20"
  height="20"
  viewBox="0 0 20 20"
  fill="none"
>
  <path
    d="M6.76591 9.2871C5.9758 9.17928 4.98919 8.9401 4.41925 8.40985C3.88968 7.91715 3.51582 6.98332 3.31653 6.38001C3.22026 6.08857 3.17212 5.94285 3.08125 5.85629C2.99039 5.76974 2.85487 5.73297 2.58383 5.65944L2.25377 5.5699C1.72443 5.4263 1.45976 5.3545 1.26656 5.50225C1.07336 5.65001 1.06936 5.91746 1.06136 6.45238C1.0458 7.49206 1.10317 8.99472 1.48406 10.0458C1.93477 11.2895 2.3759 11.698 3.40683 12.5138C4.47814 13.3615 6.53421 13.8573 6.75746 13.9094L6.77871 13.9144L6.79796 13.9196L14.4055 15.9834C15.6338 16.3166 16.9375 16.2167 18.1023 15.7C18.9241 15.3355 19.1998 14.2934 18.6682 13.5617C17.9146 12.5246 16.8349 11.7781 15.6066 11.4448L13.2228 10.7981C12.9455 10.7229 12.8068 10.6853 12.6891 10.6144C12.5817 10.5498 12.4874 10.4652 12.4111 10.3651C12.3274 10.2553 12.2737 10.1205 12.1665 9.85091L9.94583 4.26847C9.76434 3.81223 9.67359 3.58411 9.49862 3.42721C9.32366 3.27031 9.08903 3.20666 8.61978 3.07936L8.08927 2.93543C7.38824 2.74525 7.03773 2.65016 6.83631 2.84406C6.6349 3.03796 6.71105 3.39718 6.86336 4.11562L7.72304 8.17088C7.84187 8.7314 7.90128 9.01166 7.72641 9.20298C7.55154 9.3943 7.28966 9.35857 6.76591 9.2871Z"
    fill="currentColor"
  />
  <path
    d="M6.72248 15.5371C6.72248 16.0915 6.27861 16.5409 5.73108 16.5409C5.18355 16.5409 4.73969 16.0915 4.73969 15.5371C4.73969 14.9828 5.18355 14.5334 5.73108 14.5334C6.27861 14.5334 6.72248 14.9828 6.72248 15.5371Z"
    fill="currentColor"
  />
  <path
    d="M9.69666 16.2586C9.69666 16.8129 9.2528 17.2623 8.70526 17.2623C8.15773 17.2623 7.71387 16.8129 7.71387 16.2586C7.71387 15.7042 8.15773 15.2548 8.70526 15.2548C9.2528 15.2548 9.69666 15.7042 9.69666 16.2586Z"
    fill="currentColor"
  />
</svg>
