<svg width="20" height="20" viewBox="0 0 20 20" fill="currentcolor" xmlns="http://www.w3.org/2000/svg">
  <path d="M7.81943 13.2975L7.81943 14.6056C7.81943 15.0526 7.81943 15.2761 7.72931 15.4734C7.6392 15.6706 7.46964 15.8183 7.13052 16.1135L6.14445 16.9721C5.97489 17.1197 5.89011 17.1935 5.84505 17.2922C5.79999 17.3908 5.79999 17.5025 5.79999 17.7261L5.79999 17.8103C5.79999 18.4569 5.79999 18.7801 6.01438 18.9302C6.22878 19.0803 6.53676 18.9726 7.15274 18.7572L9.66194 17.8798C9.82931 17.8212 9.91299 17.792 9.99999 17.792C10.087 17.792 10.1707 17.8212 10.338 17.8798L12.8472 18.7572C13.4632 18.9726 13.7712 19.0803 13.9856 18.9302C14.2 18.7801 14.2 18.4569 14.2 17.8103L14.2 17.7261C14.2 17.5025 14.2 17.3908 14.1549 17.2922C14.1099 17.1935 14.0251 17.1197 13.8555 16.9721L12.8695 16.1135C12.5304 15.8183 12.3608 15.6706 12.2707 15.4734C12.1806 15.2761 12.1806 15.0526 12.1806 14.6056L12.1806 13.2975C12.1806 12.7367 12.1806 12.4563 12.364 12.3057C12.5474 12.1551 12.8259 12.2069 13.3827 12.3105L18.0237 13.174C18.3673 13.2379 18.5391 13.2699 18.6725 13.2198C18.7778 13.1803 18.8669 13.1072 18.9256 13.012C19 12.8915 19 12.7185 19 12.3726C19 12.0091 19 11.8273 18.9431 11.6664C18.8978 11.538 18.8265 11.42 18.7336 11.3197C18.6173 11.1939 18.4556 11.1079 18.132 10.9359L12.9396 8.1745C12.7221 8.0588 12.6133 8.00096 12.5265 7.92567C12.3663 7.78672 12.2543 7.60141 12.2065 7.39599C12.1806 7.28468 12.1806 7.16246 12.1806 6.91804L12.1806 4.74223C12.1806 3.55959 11.7739 2.41216 11.0274 1.48867C10.5007 0.83711 9.49933 0.83711 8.97264 1.48867C8.22613 2.41216 7.81943 3.55959 7.81943 4.74223L7.81943 6.91804C7.81943 7.16246 7.81943 7.28467 7.79351 7.39599C7.74566 7.60141 7.63371 7.78672 7.47352 7.92567C7.38671 8.00096 7.27793 8.0588 7.06038 8.1745L1.86793 10.9359C1.54441 11.1079 1.38266 11.1939 1.26633 11.3197C1.17349 11.42 1.10222 11.538 1.05685 11.6664C1 11.8274 1 12.0091 1 12.3726C1 12.7185 1 12.8915 1.07434 13.012C1.13306 13.1072 1.22214 13.1803 1.3275 13.2198C1.46089 13.2699 1.63268 13.2379 1.97624 13.174L6.61726 12.3105C7.17413 12.2069 7.45257 12.1551 7.636 12.3057C7.81943 12.4563 7.81943 12.7367 7.81943 13.2975Z" fill="currentcolor" />
</svg>
