<svg width="20" height="20" viewBox="0 0 20 20" fill="currentcolor" xmlns="http://www.w3.org/2000/svg">
  <path d="M6.70253 7.81944H5.39437C4.94736 7.81944 4.72385 7.81944 4.52661 7.72933C4.32936 7.63921 4.18172 7.46965 3.88646 7.13054L3.0279 6.14446C2.88027 5.9749 2.80645 5.89012 2.70783 5.84507C2.6092 5.80001 2.49745 5.80001 2.27394 5.80001H2.18967C1.54313 5.80001 1.21985 5.80001 1.06979 6.0144C0.919732 6.22879 1.02743 6.53678 1.24282 7.15275L2.12023 9.66196C2.17876 9.82932 2.20802 9.91301 2.20802 10C2.20802 10.087 2.17876 10.1707 2.12023 10.338L1.24282 12.8473C1.02743 13.4632 0.919732 13.7712 1.06979 13.9856C1.21985 14.2 1.54313 14.2 2.18967 14.2H2.27395C2.49745 14.2 2.6092 14.2 2.70783 14.1549C2.80645 14.1099 2.88027 14.0251 3.0279 13.8555L3.88646 12.8695C4.18172 12.5304 4.32936 12.3608 4.5266 12.2707C4.72385 12.1806 4.94736 12.1806 5.39437 12.1806H6.70253C7.2633 12.1806 7.54369 12.1806 7.69427 12.364C7.84486 12.5474 7.79306 12.8259 7.68945 13.3828L6.826 18.0237C6.76208 18.3673 6.73012 18.5391 6.78016 18.6725C6.8197 18.7779 6.89282 18.8669 6.988 18.9257C7.10849 19 7.28147 19 7.62745 19C7.99092 19 8.17265 19 8.33358 18.9431C8.46201 18.8978 8.57998 18.8265 8.68033 18.7337C8.80606 18.6173 8.89209 18.4556 9.06413 18.1321L11.8255 12.9396C11.9412 12.7221 11.999 12.6133 12.0743 12.5265C12.2133 12.3663 12.3986 12.2543 12.604 12.2065C12.7153 12.1806 12.8375 12.1806 13.082 12.1806H15.2578C16.4404 12.1806 17.5878 11.7739 18.5113 11.0274C19.1629 10.5007 19.1629 9.49935 18.5113 8.97265C17.5878 8.22615 16.4404 7.81944 15.2578 7.81944H13.082C12.8375 7.81944 12.7153 7.81945 12.604 7.79352C12.3986 7.74568 12.2133 7.63373 12.0743 7.47353C11.999 7.38673 11.9412 7.27795 11.8255 7.06039L9.06413 1.86794C8.89209 1.54443 8.80606 1.38267 8.68033 1.26634C8.57998 1.1735 8.46201 1.10223 8.33357 1.05686C8.17265 1.00002 7.99091 1.00002 7.62745 1.00002C7.28147 1.00002 7.10849 1.00002 6.988 1.07436C6.89282 1.13308 6.8197 1.22215 6.78016 1.32752C6.73012 1.46091 6.76208 1.63269 6.826 1.97626L7.68945 6.61727C7.79306 7.17415 7.84486 7.45258 7.69427 7.63601C7.54369 7.81944 7.2633 7.81944 6.70253 7.81944Z" fill="currentcolor" />
</svg>
