<svg
  xmlns="http://www.w3.org/2000/svg"
  width="20"
  height="20"
  viewBox="0 0 20 20"
  fill="none"
>
  <path
    d="M8.25929 8.32685C8.55218 8.61974 8.55218 9.09461 8.25929 9.38751L7.08252 10.5643L9.43611 12.9179L10.6128 11.7412C10.9057 11.4483 11.3806 11.4483 11.6735 11.7412C11.9664 12.034 11.9664 12.5089 11.6735 12.8018L10.4968 13.9785L10.6887 14.1704C11.5255 15.0072 11.5255 16.364 10.6887 17.2008C8.71739 19.1721 5.59969 19.2982 3.48175 17.5791L2.28436 18.7765C1.99147 19.0694 1.51659 19.0694 1.2237 18.7765C0.930805 18.4836 0.930805 18.0087 1.2237 17.7158L2.42111 16.5184C0.702211 14.4005 0.828368 11.2829 2.79957 9.31172C3.63639 8.4749 4.99315 8.4749 5.82997 9.31172L6.02186 9.50361L7.19863 8.32685C7.49152 8.03395 7.96639 8.03395 8.25929 8.32685Z"
    fill="currentColor"
  />
  <path
    d="M17.5857 3.48188L18.7831 2.28448C19.076 1.99159 19.076 1.51671 18.7831 1.22382C18.4902 0.930927 18.0153 0.930927 17.7224 1.22382L16.525 2.42122C14.4071 0.702206 11.2894 0.828327 9.31817 2.79957C8.48135 3.63639 8.48135 4.99315 9.31817 5.82997L14.1769 10.6887C15.0137 11.5255 16.3704 11.5255 17.2073 10.6887C19.1785 8.71743 19.3046 5.59982 17.5857 3.48188Z"
    fill="currentColor"
  />
</svg>
