<svg width="20" height="20" viewBox="0 0 20 20" fill="currentcolor" xmlns="http://www.w3.org/2000/svg">
  <path fill-rule="evenodd" d="M10 2.875C10.5523 2.875 11 3.32272 11 3.875V9.125H16.25C16.8023 9.125 17.25 9.57272 17.25 10.125C17.25 10.6773 16.8023 11.125 16.25 11.125H11V16.375C11 16.9273 10.5523 17.375 10 17.375C9.44772 17.375 9 16.9273 9 16.375V11.125H3.75C3.19772 11.125 2.75 10.6773 2.75 10.125C2.75 9.57272 3.19772 9.125 3.75 9.125H9V3.875C9 3.32272 9.44772 2.875 10 2.875Z" fill="currentcolor" />
</svg>
