<svg width="20" height="20" viewBox="0 0 20 20" fill="currentcolor" xmlns="http://www.w3.org/2000/svg">
  <path fill-rule="evenodd" d="M13.8834 2.38856C13.8222 2.38502 13.7412 2.38476 13.5949 2.38476H7.23078C6.55849 2.38476 6.12392 2.38623 5.80373 2.42928C5.50345 2.46965 5.40933 2.53483 5.35663 2.58753C5.30393 2.64023 5.23875 2.73435 5.19838 3.03463C5.15533 3.35482 5.15386 3.78939 5.15386 4.46167V4.69243H14.8461V3.60355C14.8461 3.34907 14.8455 3.20514 14.8355 3.0982C14.831 3.05035 14.8258 3.0247 14.8224 3.01192C14.8209 3.00591 14.8194 3.00191 14.8194 3.00191L14.8188 3.00065L14.8181 2.99949C14.8181 2.99949 14.8156 2.99603 14.8115 2.99139C14.8027 2.98153 14.7842 2.96294 14.7469 2.93269C14.6635 2.86508 14.5441 2.78466 14.3323 2.6435L14.2349 2.57855C14.1132 2.49738 14.0456 2.45266 13.9927 2.42165C13.9692 2.40787 13.9556 2.40104 13.9484 2.39769C13.9449 2.39609 13.9422 2.395 13.9422 2.395L13.9403 2.39442C13.9403 2.39442 13.9374 2.3938 13.9336 2.39321C13.9257 2.39198 13.9106 2.39013 13.8834 2.38856ZM13.649 1.00008C13.8711 0.9996 14.11 0.999083 14.3425 1.06947C14.5749 1.13986 14.7735 1.27282 14.958 1.39641C14.9731 1.40651 14.988 1.41655 15.003 1.42649L15.1215 1.50553C15.3045 1.6275 15.4789 1.74372 15.6186 1.85691C15.7748 1.98348 15.9265 2.1359 16.0396 2.34731C16.1528 2.55873 16.1954 2.76948 16.2141 2.96965C16.2308 3.14868 16.2308 3.35822 16.2308 3.57814L16.2308 5.38473C16.2308 5.76708 15.9208 6.07704 15.5384 6.07704H4.46155C4.0792 6.07704 3.76925 5.76708 3.76925 5.38473V4.46167C3.76925 4.44642 3.76924 4.43123 3.76924 4.41609C3.76921 3.80237 3.76918 3.27359 3.82611 2.85013C3.88713 2.39632 4.02472 1.96131 4.37756 1.60847C4.7304 1.25563 5.16541 1.11804 5.61923 1.05702C6.04269 1.00009 6.57148 1.00012 7.1852 1.00016C7.20034 1.00016 7.21553 1.00016 7.23078 1.00016H13.5949C13.6128 1.00016 13.6308 1.00012 13.649 1.00008Z" fill="currentcolor" />
  <path fill-rule="evenodd" d="M8.10585 10.2308H11.8941C12.7235 10.2308 13.4151 10.2308 13.9641 10.3046C14.5436 10.3825 15.0668 10.5539 15.4873 10.9743C15.9077 11.3948 16.0791 11.918 16.157 12.4975C16.2308 13.0465 16.2308 13.7381 16.2308 14.5674V14.6634C16.2308 15.4928 16.2308 16.1844 16.157 16.7334C16.0791 17.3129 15.9077 17.8361 15.4873 18.2565C15.0668 18.6769 14.5436 18.8483 13.9641 18.9262C13.4151 19 12.7235 19 11.8941 19H8.10586C7.27649 19 6.5849 19 6.03587 18.9262C5.45637 18.8483 4.93317 18.6769 4.51274 18.2565C4.09231 17.8361 3.92092 17.3129 3.84301 16.7334C3.76919 16.1844 3.76922 15.4928 3.76924 14.6634V14.5674C3.76922 13.7381 3.76919 13.0465 3.84301 12.4975C3.92092 11.918 4.09231 11.3948 4.51274 10.9743C4.93317 10.5539 5.45637 10.3825 6.03587 10.3046C6.5849 10.2308 7.27649 10.2308 8.10585 10.2308ZM6.22037 11.6769C5.79441 11.7341 5.6121 11.8331 5.49181 11.9534C5.37152 12.0737 5.27254 12.256 5.21527 12.682C5.15533 13.1278 5.15386 13.7256 5.15386 14.6154C5.15386 15.5053 5.15533 16.103 5.21527 16.5489C5.27254 16.9748 5.37152 17.1572 5.49181 17.2774C5.6121 17.3977 5.79441 17.4967 6.22037 17.554C6.66625 17.6139 7.264 17.6154 8.15385 17.6154H11.8461C12.736 17.6154 13.3338 17.6139 13.7796 17.554C14.2056 17.4967 14.3879 17.3977 14.5082 17.2774C14.6285 17.1572 14.7275 16.9748 14.7847 16.5489C14.8447 16.103 14.8461 15.5053 14.8461 14.6154C14.8461 13.7256 14.8447 13.1278 14.7847 12.682C14.7275 12.256 14.6285 12.0737 14.5082 11.9534C14.3879 11.8331 14.2056 11.7341 13.7796 11.6769C13.3338 11.6169 12.736 11.6154 11.8461 11.6154H8.15385C7.264 11.6154 6.66625 11.6169 6.22037 11.6769Z" fill="currentcolor" />
  <path fill-rule="evenodd" d="M6.25814 4.69243H13.7419C14.7875 4.69241 15.6421 4.69239 16.3167 4.7831C17.0219 4.87791 17.6333 5.08309 18.1213 5.57111C18.6093 6.05913 18.8145 6.67051 18.9093 7.37569C19 8.05032 19 8.90482 19 9.95048L19 11.906C19.0001 12.2767 19.0002 12.5427 18.963 12.7771C18.7597 14.0607 17.753 15.0675 16.4693 15.2708C16.2349 15.3079 15.969 15.3078 15.5982 15.3077L14.8461 15.3077V14.6154C14.8461 13.7256 14.8447 13.1278 14.7847 12.682C14.7275 12.256 14.6285 12.0737 14.5082 11.9534C14.3879 11.8331 14.2056 11.7341 13.7796 11.6769C13.3338 11.6169 12.736 11.6154 11.8461 11.6154H8.15385C7.264 11.6154 6.66625 11.6169 6.22037 11.6769C5.79441 11.7341 5.6121 11.8331 5.49181 11.9534C5.37152 12.0737 5.27254 12.256 5.21527 12.682C5.15533 13.1278 5.15386 13.7256 5.15386 14.6154V15.3077L4.40179 15.3077C4.031 15.3078 3.76507 15.3079 3.53071 15.2708C2.24704 15.0675 1.24027 14.0607 1.03696 12.7771C0.999837 12.5427 0.999909 12.2768 1.00001 11.906L1.00002 9.95052C0.999998 8.90484 0.99998 8.05033 1.09068 7.37569C1.18549 6.67051 1.39068 6.05913 1.8787 5.57111C2.36672 5.08309 2.97811 4.87791 3.68329 4.7831C4.35792 4.69239 5.21247 4.69241 6.25814 4.69243ZM15.5384 8.15394C15.5384 8.66374 15.1252 9.07701 14.6154 9.07701C14.1056 9.07701 13.6923 8.66374 13.6923 8.15394C13.6923 7.64414 14.1056 7.23087 14.6154 7.23087C15.1252 7.23087 15.5384 7.64414 15.5384 8.15394Z" fill="currentcolor" />
  <path fill-rule="evenodd" d="M6.25 13.5C6.25 13.0858 6.58579 12.75 7 12.75H11.4219C11.8361 12.75 12.1719 13.0858 12.1719 13.5C12.1719 13.9142 11.8361 14.25 11.4219 14.25H7C6.58579 14.25 6.25 13.9142 6.25 13.5Z" fill="currentcolor" />
  <path fill-rule="evenodd" d="M6.25 15.75C6.25 15.3358 6.58579 15 7 15H10C10.4142 15 10.75 15.3358 10.75 15.75C10.75 16.1642 10.4142 16.5 10 16.5H7C6.58579 16.5 6.25 16.1642 6.25 15.75Z" fill="currentcolor" />
</svg>
