<svg
  xmlns="http://www.w3.org/2000/svg"
  width="20"
  height="20"
  viewBox="0 0 20 20"
  fill="none"
>
  <path
    fill-rule="evenodd"
    clip-rule="evenodd"
    d="M3.35717 1.00001C3.37293 1.00002 3.38862 1.00002 3.40426 1.00002H4.96198C4.97761 1.00002 4.99331 1.00002 5.00906 1.00001C5.29795 0.999907 5.60581 0.999796 5.86491 1.03451C6.16695 1.07499 6.54757 1.17838 6.86742 1.49715C7.18726 1.81593 7.291 2.19528 7.33161 2.49631C7.36644 2.75453 7.36633 3.06137 7.36622 3.34928C7.36622 3.36499 7.36621 3.38063 7.36621 3.39621V4.94873C7.36621 4.96431 7.36622 4.97995 7.36622 4.99566C7.36633 5.28358 7.36644 5.59041 7.33161 5.84863C7.291 6.14966 7.18726 6.52902 6.86742 6.84779C6.54757 7.16656 6.16695 7.26996 5.86491 7.31043C5.60582 7.34515 5.29795 7.34503 5.00907 7.34493C4.99331 7.34492 4.97761 7.34492 4.96198 7.34492H3.40426C3.38862 7.34492 3.37293 7.34492 3.35717 7.34493C3.06828 7.34503 2.76042 7.34515 2.50133 7.31043C2.19929 7.26996 1.81866 7.16656 1.49882 6.84779C1.17897 6.52902 1.07524 6.14966 1.03463 5.84863C0.999795 5.59041 0.999907 5.28357 1.00001 4.99565C1.00002 4.97995 1.00002 4.96431 1.00002 4.94873V3.39621C1.00002 3.38064 1.00002 3.36499 1.00001 3.34929C0.999907 3.06137 0.999795 2.75453 1.03463 2.49631C1.07524 2.19528 1.17897 1.81593 1.49882 1.49715C1.81866 1.17838 2.19929 1.07499 2.50133 1.03451C2.76042 0.999796 3.06829 0.999907 3.35717 1.00001ZM3.00611 2.9994C3.00361 3.10795 3.00355 3.23458 3.00355 3.39621V4.94873C3.00355 5.11036 3.00361 5.23699 3.00611 5.34554C3.11502 5.34803 3.24208 5.34809 3.40426 5.34809H4.96198C5.12416 5.34809 5.25121 5.34803 5.36012 5.34554C5.36262 5.23699 5.36268 5.11036 5.36268 4.94873V3.39621C5.36268 3.23458 5.36262 3.10795 5.36012 2.9994C5.25121 2.99691 5.12416 2.99685 4.96198 2.99685H3.40426C3.24208 2.99685 3.11502 2.99691 3.00611 2.9994Z"
    fill="currentColor"
  />
  <path
    fill-rule="evenodd"
    clip-rule="evenodd"
    d="M3.35717 12.6551C3.37293 12.6551 3.38862 12.6551 3.40426 12.6551H4.96198C4.97761 12.6551 4.99331 12.6551 5.00906 12.6551C5.29795 12.655 5.60581 12.6549 5.86491 12.6896C6.16695 12.73 6.54757 12.8334 6.86742 13.1522C7.18726 13.471 7.291 13.8503 7.33161 14.1514C7.36644 14.4096 7.36633 14.7164 7.36622 15.0043C7.36622 15.02 7.36621 15.0357 7.36621 15.0513V16.6038C7.36621 16.6194 7.36622 16.635 7.36622 16.6507C7.36633 16.9386 7.36644 17.2455 7.33161 17.5037C7.291 17.8047 7.18726 18.1841 6.86742 18.5028C6.54757 18.8216 6.16695 18.925 5.86491 18.9655C5.60582 19.0002 5.29795 19.0001 5.00907 19C4.99331 19 4.97761 19 4.96198 19H3.40426C3.38862 19 3.37293 19 3.35717 19C3.06828 19.0001 2.76042 19.0002 2.50133 18.9655C2.19929 18.925 1.81866 18.8216 1.49882 18.5028C1.17897 18.1841 1.07524 17.8047 1.03463 17.5037C0.999795 17.2455 0.999907 16.9386 1.00001 16.6507C1.00002 16.635 1.00002 16.6194 1.00002 16.6038V15.0513C1.00002 15.0357 1.00002 15.02 1.00001 15.0043C0.999907 14.7164 0.999795 14.4096 1.03463 14.1514C1.07524 13.8503 1.17897 13.471 1.49882 13.1522C1.81866 12.8334 2.19929 12.73 2.50133 12.6896C2.76042 12.6549 3.06829 12.655 3.35717 12.6551ZM3.00611 14.6545C3.00361 14.763 3.00355 14.8896 3.00355 15.0513V16.6038C3.00355 16.7654 3.00361 16.8921 3.00611 17.0006C3.11502 17.0031 3.24208 17.0032 3.40426 17.0032H4.96198C5.12416 17.0032 5.25121 17.0031 5.36012 17.0006C5.36262 16.8921 5.36268 16.7654 5.36268 16.6038V15.0513C5.36268 14.8896 5.36262 14.763 5.36012 14.6545C5.25121 14.652 5.12416 14.6519 4.96198 14.6519H3.40426C3.24208 14.6519 3.11502 14.652 3.00611 14.6545Z"
    fill="currentColor"
  />
  <path
    fill-rule="evenodd"
    clip-rule="evenodd"
    d="M14.9909 1.00001C15.0067 1.00002 15.0224 1.00002 15.038 1.00002H16.5957C16.6114 1.00002 16.6271 1.00002 16.6428 1.00001C16.9317 0.999907 17.2396 0.999796 17.4987 1.03451C17.8007 1.07499 18.1813 1.17838 18.5012 1.49715C18.821 1.81593 18.9248 2.19528 18.9654 2.49631C19.0002 2.75453 19.0001 3.06137 19 3.34928C19 3.36499 19 3.38063 19 3.39621V4.94873C19 4.96431 19 4.97995 19 4.99566C19.0001 5.28358 19.0002 5.59041 18.9654 5.84863C18.9248 6.14966 18.821 6.52902 18.5012 6.84779C18.1813 7.16656 17.8007 7.26996 17.4987 7.31043C17.2396 7.34515 16.9317 7.34503 16.6428 7.34493C16.6271 7.34492 16.6114 7.34492 16.5957 7.34492H15.038C15.0224 7.34492 15.0067 7.34492 14.9909 7.34493C14.702 7.34503 14.3942 7.34515 14.1351 7.31043C13.8331 7.26996 13.4524 7.16656 13.1326 6.84779C12.8127 6.52902 12.709 6.14966 12.6684 5.84863C12.6336 5.59041 12.6337 5.28357 12.6338 4.99565C12.6338 4.97995 12.6338 4.96431 12.6338 4.94873V3.39621C12.6338 3.38064 12.6338 3.36499 12.6338 3.34929C12.6337 3.06137 12.6336 2.75453 12.6684 2.49631C12.709 2.19528 12.8127 1.81593 13.1326 1.49715C13.4524 1.17838 13.8331 1.07499 14.1351 1.03451C14.3942 0.999796 14.7021 0.999907 14.9909 1.00001ZM14.6399 2.9994C14.6374 3.10795 14.6373 3.23458 14.6373 3.39621V4.94873C14.6373 5.11036 14.6374 5.23699 14.6399 5.34554C14.7488 5.34803 14.8758 5.34809 15.038 5.34809H16.5957C16.7579 5.34809 16.885 5.34803 16.9939 5.34554C16.9964 5.23699 16.9964 5.11036 16.9964 4.94873V3.39621C16.9964 3.23458 16.9964 3.10795 16.9939 2.9994C16.885 2.99691 16.7579 2.99685 16.5957 2.99685H15.038C14.8758 2.99685 14.7488 2.99691 14.6399 2.9994Z"
    fill="currentColor"
  />
  <path
    d="M9.0305 2.10269C9.0305 1.72617 9.0305 1.5379 9.14786 1.42093C9.26522 1.30396 9.45412 1.30396 9.83191 1.30396H10.168C10.5458 1.30396 10.7347 1.30396 10.8521 1.42093C10.9695 1.5379 10.9695 1.72617 10.9695 2.10269V2.43771C10.9695 2.81423 10.9695 3.00249 10.8521 3.11946C10.7347 3.23644 10.5458 3.23644 10.168 3.23644H9.83191C9.45412 3.23644 9.26522 3.23644 9.14786 3.11946C9.0305 3.00249 9.0305 2.81423 9.0305 2.43771V2.10269Z"
    fill="currentColor"
  />
  <path
    d="M9.0305 5.96764C9.0305 5.59112 9.0305 5.40285 9.14786 5.28588C9.26522 5.16891 9.45412 5.16891 9.83191 5.16891H10.168C10.5458 5.16891 10.7347 5.16891 10.8521 5.28588C10.9695 5.40285 10.9695 5.59112 10.9695 5.96764V6.30266C10.9695 6.67918 10.9695 6.86744 10.8521 6.98441C10.7347 7.10139 10.5458 7.10139 10.168 7.10139H9.83191C9.45412 7.10139 9.26522 7.10139 9.14786 6.98441C9.0305 6.86744 9.0305 6.67918 9.0305 6.30266V5.96764Z"
    fill="currentColor"
  />
  <path
    d="M9.0305 9.83259C9.0305 9.45607 9.0305 9.2678 9.14786 9.15083C9.26522 9.03386 9.45412 9.03386 9.83191 9.03386H10.168C10.5458 9.03386 10.7347 9.03386 10.8521 9.15083C10.9695 9.2678 10.9695 9.45607 10.9695 9.83259V10.1676C10.9695 10.5441 10.9695 10.7324 10.8521 10.8494C10.7347 10.9663 10.5458 10.9663 10.168 10.9663H9.83191C9.45412 10.9663 9.26522 10.9663 9.14786 10.8494C9.0305 10.7324 9.0305 10.5441 9.0305 10.1676V9.83259Z"
    fill="currentColor"
  />
  <path
    d="M9.0305 13.6975C9.0305 13.321 9.0305 13.1328 9.14786 13.0158C9.26522 12.8988 9.45412 12.8988 9.83191 12.8988H10.168C10.5458 12.8988 10.7347 12.8988 10.8521 13.0158C10.9695 13.1328 10.9695 13.321 10.9695 13.6975V14.0326C10.9695 14.4091 10.9695 14.5973 10.8521 14.7143C10.7347 14.8313 10.5458 14.8313 10.168 14.8313H9.83191C9.45412 14.8313 9.26522 14.8313 9.14786 14.7143C9.0305 14.5973 9.0305 14.4091 9.0305 14.0326V13.6975Z"
    fill="currentColor"
  />
  <path
    d="M9.0305 17.5625C9.0305 17.186 9.0305 16.9977 9.14786 16.8807C9.26522 16.7638 9.45412 16.7638 9.83191 16.7638H10.168C10.5458 16.7638 10.7347 16.7638 10.8521 16.8807C10.9695 16.9977 10.9695 17.186 10.9695 17.5625V17.8975C10.9695 18.274 10.9695 18.4623 10.8521 18.5793C10.7347 18.6962 10.5458 18.6962 10.168 18.6962H9.83191C9.45412 18.6962 9.26522 18.6962 9.14786 18.5793C9.0305 18.4623 9.0305 18.274 9.0305 17.8975V17.5625Z"
    fill="currentColor"
  />
  <path
    d="M12.9084 17.5625C12.9084 17.186 12.9084 16.9977 13.0258 16.8807C13.1431 16.7638 13.332 16.7638 13.7098 16.7638H14.046C14.4238 16.7638 14.6127 16.7638 14.73 16.8807C14.8474 16.9977 14.8474 17.186 14.8474 17.5625V17.8975C14.8474 18.274 14.8474 18.4623 14.73 18.5793C14.6127 18.6962 14.4238 18.6962 14.046 18.6962H13.7098C13.332 18.6962 13.1431 18.6962 13.0258 18.5793C12.9084 18.4623 12.9084 18.274 12.9084 17.8975V17.5625Z"
    fill="currentColor"
  />
  <path
    d="M16.6348 17.5625C16.6348 17.186 16.6348 16.9977 16.7522 16.8807C16.8696 16.7638 17.0585 16.7638 17.4362 16.7638H17.7724C18.1502 16.7638 18.3391 16.7638 18.4564 16.8807C18.5738 16.9977 18.5738 17.186 18.5738 17.5625V17.8975C18.5738 18.274 18.5738 18.4623 18.4564 18.5793C18.3391 18.6962 18.1502 18.6962 17.7724 18.6962H17.4362C17.0585 18.6962 16.8696 18.6962 16.7522 18.5793C16.6348 18.4623 16.6348 18.274 16.6348 17.8975V17.5625Z"
    fill="currentColor"
  />
  <path
    d="M17.9239 9.03386C18.3017 9.03386 18.4906 9.03386 18.6079 9.15083C18.7253 9.2678 18.7253 9.45607 18.7253 9.83259V10.1676C18.7253 10.5441 18.7253 10.7324 18.6079 10.8494C18.4906 10.9663 18.3017 10.9663 17.9239 10.9663H17.5878C17.21 10.9663 17.0211 10.9663 16.9037 10.8494C16.7863 10.7324 16.7863 10.5441 16.7863 10.1676V9.83259C16.7863 9.45607 16.7863 9.2678 16.9037 9.15083C17.0211 9.03386 17.21 9.03386 17.5878 9.03386H17.9239Z"
    fill="currentColor"
  />
  <path
    d="M17.9239 12.8988C18.3017 12.8988 18.4906 12.8988 18.6079 13.0158C18.7253 13.1328 18.7253 13.321 18.7253 13.6975V14.0326C18.7253 14.4091 18.7253 14.5973 18.6079 14.7143C18.4906 14.8313 18.3017 14.8313 17.9239 14.8313H17.5878C17.21 14.8313 17.0211 14.8313 16.9037 14.7143C16.7863 14.5973 16.7863 14.4091 16.7863 14.0326V13.6975C16.7863 13.321 16.7863 13.1328 16.9037 13.0158C17.0211 12.8988 17.21 12.8988 17.5878 12.8988H17.9239Z"
    fill="currentColor"
  />
  <path
    d="M14.046 9.03386C14.4238 9.03386 14.6127 9.03386 14.73 9.15083C14.8474 9.2678 14.8474 9.45607 14.8474 9.83259V10.1676C14.8474 10.5441 14.8474 10.7324 14.73 10.8494C14.6127 10.9663 14.4238 10.9663 14.046 10.9663H13.7098C13.332 10.9663 13.1431 10.9663 13.0258 10.8494C12.9084 10.7324 12.9084 10.5441 12.9084 10.1676V9.83259C12.9084 9.45607 12.9084 9.2678 13.0258 9.15083C13.1431 9.03386 13.332 9.03386 13.7098 9.03386H14.046Z"
    fill="currentColor"
  />
  <path
    d="M14.046 12.8988C14.4238 12.8988 14.6127 12.8988 14.73 13.0158C14.8474 13.1328 14.8474 13.321 14.8474 13.6975V14.0326C14.8474 14.4091 14.8474 14.5973 14.73 14.7143C14.6127 14.8313 14.4238 14.8313 14.046 14.8313H13.7098C13.332 14.8313 13.1431 14.8313 13.0258 14.7143C12.9084 14.5973 12.9084 14.4091 12.9084 14.0326V13.6975C12.9084 13.321 12.9084 13.1328 13.0258 13.0158C13.1431 12.8988 13.332 12.8988 13.7098 12.8988H14.046Z"
    fill="currentColor"
  />
  <path
    d="M6.29013 9.03386C6.66791 9.03386 6.85681 9.03386 6.97417 9.15083C7.09154 9.2678 7.09154 9.45607 7.09154 9.83259V10.1676C7.09154 10.5441 7.09154 10.7324 6.97417 10.8494C6.85681 10.9663 6.66791 10.9663 6.29012 10.9663H5.95399C5.5762 10.9663 5.3873 10.9663 5.26994 10.8494C5.15258 10.7324 5.15258 10.5441 5.15258 10.1676V9.83259C5.15258 9.45607 5.15258 9.2678 5.26994 9.15083C5.3873 9.03386 5.5762 9.03386 5.95399 9.03386H6.29013Z"
    fill="currentColor"
  />
  <path
    d="M2.4122 9.03386C2.78999 9.03386 2.97889 9.03386 3.09625 9.15083C3.21361 9.2678 3.21361 9.45607 3.21361 9.83259V10.1676C3.21361 10.5441 3.21361 10.7324 3.09625 10.8494C2.97889 10.9663 2.78999 10.9663 2.4122 10.9663H2.07606C1.69828 10.9663 1.50938 10.9663 1.39202 10.8494C1.27465 10.7324 1.27465 10.5441 1.27465 10.1676L1.27465 9.83259C1.27465 9.45607 1.27465 9.2678 1.39202 9.15083C1.50938 9.03386 1.69828 9.03386 2.07606 9.03386H2.4122Z"
    fill="currentColor"
  />
</svg>
