<svg
  xmlns="http://www.w3.org/2000/svg"
  width="20"
  height="20"
  viewBox="0 0 20 20"
  fill="none"
>
  <path
    fill-rule="evenodd"
    clip-rule="evenodd"
    d="M7.62271 2.43183C7.79537 2.80371 7.63069 3.24369 7.25489 3.41454L6.62363 3.70153L13.3153 3.70153C14.6808 3.70151 15.7814 3.7015 16.647 3.81666C17.5457 3.93623 18.3024 4.19202 18.9034 4.78672C19.5043 5.38143 19.7628 6.13022 19.8837 7.01954C20 7.87612 20 8.96523 20 10.3164V11.3851C20 12.7363 20 13.8254 19.8837 14.682C19.7628 15.5713 19.5043 16.3201 18.9034 16.9148C18.3024 17.5095 17.5457 17.7653 16.647 17.8849C15.7814 18 14.6808 18 13.3153 18H6.68468C5.31922 18 4.21863 18 3.35301 17.8849C2.45431 17.7653 1.69762 17.5095 1.09664 16.9148C0.495661 16.3201 0.237171 15.5713 0.116344 14.682C-3.38621e-05 13.8254 -1.85335e-05 12.7363 4.84398e-07 11.3851V10.3164C-1.85335e-05 8.96522 -3.38621e-05 7.87611 0.116344 7.01954C0.237171 6.13022 0.495661 5.38143 1.09664 4.78672C1.38018 4.50614 1.69839 4.301 2.04982 4.15001L6.62964 2.06784C7.00544 1.89699 7.45006 2.05995 7.62271 2.43183ZM2.84553 7.49112C2.84553 6.83016 3.38699 6.29435 4.05492 6.29435H15.9449C16.6128 6.29435 17.1543 6.83016 17.1543 7.49112C17.1543 8.15207 16.6128 8.68789 15.9449 8.68789H4.05492C3.38699 8.68789 2.84553 8.15207 2.84553 7.49112ZM2.84553 13.1183C2.84553 11.9214 3.82605 10.9512 5.03558 10.9512C6.24511 10.9512 7.22562 11.9214 7.22562 13.1183C7.22562 14.3152 6.24511 15.2855 5.03558 15.2855C3.82605 15.2855 2.84553 14.3152 2.84553 13.1183ZM16.4047 11.1698H12.7568C12.3429 11.1698 12.0072 11.5019 12.0072 11.9115C12.0072 12.3212 12.3429 12.6533 12.7568 12.6533L16.4047 12.6533C16.8187 12.6533 17.1543 12.3212 17.1543 11.9115C17.1543 11.5019 16.8187 11.1698 16.4047 11.1698ZM12.0072 14.5438C12.0072 14.1341 12.3429 13.802 12.7568 13.802H16.4047C16.8187 13.802 17.1543 14.1341 17.1543 14.5438C17.1543 14.9534 16.8187 15.2855 16.4047 15.2855H12.7568C12.3429 15.2855 12.0072 14.9534 12.0072 14.5438Z"
    fill="currentColor"
  />
</svg>
