<svg
  xmlns="http://www.w3.org/2000/svg"
  width="20"
  height="20"
  viewBox="0 0 20 20"
  fill="none"
>
  <path
    fill-rule="evenodd"
    clip-rule="evenodd"
    d="M10 10.9164C10.5061 10.9164 10.9164 10.5061 10.9164 10C10.9164 9.4939 10.5061 9.08363 10 9.08363C9.49391 9.08363 9.08364 9.4939 9.08364 10C9.08364 10.5061 9.49391 10.9164 10 10.9164Z"
    fill="currentColor"
  />
  <path
    fill-rule="evenodd"
    clip-rule="evenodd"
    d="M1 10C1 5.02944 5.02944 1 10 1C14.9706 1 19 5.02944 19 10C19 14.9706 14.9706 19 10 19C5.02944 19 1 14.9706 1 10ZM9.85254 4.45232C9.9195 4.86255 9.64122 5.24939 9.23099 5.31634C8.28394 5.47092 7.37556 5.91281 6.64437 6.644C5.91318 7.37519 5.47128 8.28358 5.31671 9.23062C5.24975 9.64085 4.86292 9.91913 4.45269 9.85217C4.04246 9.78522 3.76418 9.39838 3.83114 8.98816C4.03484 7.74014 4.61845 6.5412 5.58001 5.57964C6.54157 4.61808 7.74051 4.03447 8.98852 3.83077C9.39875 3.76382 9.78559 4.04209 9.85254 4.45232ZM15.5475 10.1474C15.1372 10.0804 14.7504 10.3587 14.6835 10.7689C14.5289 11.716 14.087 12.6244 13.3558 13.3556C12.6246 14.0867 11.7162 14.5286 10.7692 14.6832C10.3589 14.7502 10.0807 15.137 10.1476 15.5472C10.2146 15.9575 10.6014 16.2357 11.0116 16.1688C12.2597 15.9651 13.4586 15.3815 14.4202 14.4199C15.3817 13.4584 15.9653 12.2594 16.169 11.0114C16.236 10.6012 15.9577 10.2143 15.5475 10.1474ZM9.99999 6.49823C8.06603 6.49823 6.49824 8.06602 6.49824 9.99998C6.49824 11.9339 8.06603 13.5017 9.99999 13.5017C11.9339 13.5017 13.5017 11.9339 13.5017 9.99998C13.5017 8.06602 11.9339 6.49823 9.99999 6.49823Z"
    fill="currentColor"
  />
  <path
    d="M10 10.9164C10.5061 10.9164 10.9164 10.5061 10.9164 10C10.9164 9.4939 10.5061 9.08363 10 9.08363C9.49391 9.08363 9.08364 9.4939 9.08364 10C9.08364 10.5061 9.49391 10.9164 10 10.9164Z"
    fill="currentColor"
  />
</svg>
