<svg
  xmlns="http://www.w3.org/2000/svg"
  width="20"
  height="20"
  viewBox="0 0 20 20"
  fill="none"
>
  <path
    fill-rule="evenodd"
    clip-rule="evenodd"
    d="M10.3114 2.96587C12.3659 2.96587 14.2159 3.84432 15.5041 5.24756L13.3601 5.08804C12.8181 5.04771 12.3459 5.45388 12.3055 5.99524C12.2652 6.5366 12.6718 7.00815 13.2139 7.04848L17.4025 7.36012C17.6658 7.37971 17.926 7.29279 18.1245 7.11889C18.323 6.94499 18.4433 6.6987 18.4582 6.43539L18.6984 2.19201C18.7291 1.65001 18.314 1.1858 17.7714 1.15515C17.2287 1.12451 16.7639 1.53904 16.7332 2.08103L16.6472 3.60028C15.02 1.99328 12.7823 1 10.3114 1C5.33455 1 1.30001 5.02944 1.30001 10C1.30001 14.9706 5.33455 19 10.3114 19C12.5044 19 14.5168 18.2164 16.0792 16.9152C16.4967 16.5676 16.5529 15.9477 16.2048 15.5308C15.8567 15.1139 15.2361 15.0577 14.8186 15.4054C13.5969 16.4228 12.0269 17.0341 10.3114 17.0341C6.42164 17.0341 3.26837 13.8848 3.26837 10C3.26837 6.11516 6.42164 2.96587 10.3114 2.96587Z"
    fill="currentColor"
  />
</svg>
