<svg width="20" height="20" viewBox="0 0 20 20" fill="currentcolor" xmlns="http://www.w3.org/2000/svg">
  <path fill-rule="evenodd" d="M13.7756 1.28402C13.3969 1.66271 13.3969 2.27669 13.7756 2.65538L15.6892 4.56902L10.6251 4.56902C8.62909 4.569 7.03258 4.56898 5.77966 4.73743C4.48386 4.91165 3.41134 5.28188 2.5621 6.13112C1.71286 6.98036 1.34262 8.05288 1.16841 9.34869C0.999954 10.6016 0.999975 12.1981 1 14.1942V18.0303C1 18.5659 1.43415 19 1.9697 19C2.50525 19 2.93939 18.5659 2.93939 18.0303V14.266C2.93939 12.1815 2.94145 10.7158 3.09051 9.60711C3.23581 8.52636 3.50462 7.93132 3.93346 7.50248C4.3623 7.07364 4.95733 6.80483 6.03808 6.65953C7.14673 6.51048 8.61252 6.50842 10.697 6.50842H15.6892L13.7756 8.42207C13.3969 8.80076 13.3969 9.41473 13.7756 9.79342C14.1543 10.1721 14.7683 10.1721 15.147 9.79342L18.716 6.2244C19.0947 5.84571 19.0947 5.23173 18.716 4.85304L15.147 1.28402C14.7683 0.905327 14.1543 0.905327 13.7756 1.28402Z" fill="currentcolor" />
</svg>
