<svg
  xmlns="http://www.w3.org/2000/svg"
  width="20"
  height="20"
  viewBox="0 0 20 20"
  fill="none"
>
  <path
    fill-rule="evenodd"
    clip-rule="evenodd"
    d="M3.89745 1.2752C4.44851 1.32214 4.85718 1.80691 4.81024 2.35797L4.78413 2.66448C6.14715 1.69354 7.79701 1.09046 9.59361 1.00925C14.5591 0.784807 18.7664 4.62819 18.9908 9.59368C19.0904 11.7971 18.3878 13.8536 17.1422 15.4765C16.8055 15.9153 16.1769 15.998 15.7381 15.6612C15.2994 15.3245 15.2167 14.6959 15.5534 14.2571C16.5224 12.9946 17.0676 11.3987 16.9901 9.68412C16.8156 5.82361 13.5446 2.8355 9.68404 3.01C8.34255 3.07064 7.10655 3.50474 6.07162 4.20824L6.344 4.20299C6.89695 4.19234 7.35384 4.63196 7.3645 5.18491C7.37515 5.73787 6.93553 6.19476 6.38258 6.20541L3.57747 6.25946C3.2938 6.26492 3.02113 6.1498 2.8272 5.9427C2.63328 5.7356 2.53631 5.45595 2.56039 5.17326L2.81468 2.18799C2.86162 1.63693 3.34639 1.22826 3.89745 1.2752ZM2.18076 8.03044C2.72977 8.09722 3.12069 8.59642 3.05391 9.14543C3.0075 9.52692 2.99194 9.91797 3.00993 10.316C3.18443 14.1765 6.45544 17.1646 10.316 16.9901C11.3082 16.9453 12.2404 16.6966 13.076 16.2872C13.5726 16.0438 14.1725 16.2492 14.4158 16.7458C14.6592 17.2425 14.4538 17.8424 13.9572 18.0857C12.8793 18.6138 11.6785 18.9334 10.4064 18.9909C5.4409 19.2153 1.23362 15.372 1.00918 10.4065C0.986152 9.89703 1.00601 9.39485 1.06577 8.90358C1.13255 8.35458 1.63175 7.96365 2.18076 8.03044Z"
    fill="currentColor"
  />
</svg>
