<svg
  xmlns="http://www.w3.org/2000/svg"
  width="20"
  height="20"
  viewBox="0 0 20 20"
  fill="none"
>
  <path
    fill-rule="evenodd"
    clip-rule="evenodd"
    d="M5.99278 14.0072C5.49173 13.5061 4.67938 13.5061 4.17833 14.0072C3.93866 14.2468 3.7184 14.6857 3.55953 15.3062C3.45215 15.7255 3.38274 16.1886 3.34628 16.6537C3.81137 16.6172 4.27441 16.5478 4.69378 16.4404C5.31423 16.2816 5.75311 16.0613 5.99278 15.8216C6.49383 15.3206 6.49383 14.5082 5.99278 14.0072ZM3.08966 12.9185C4.19197 11.8162 5.97915 11.8162 7.08145 12.9185C8.18375 14.0208 8.18375 15.808 7.08145 16.9103C6.55688 17.4349 5.80581 17.745 5.07568 17.9319C4.32854 18.1232 3.51118 18.2086 2.76467 18.2224C2.21507 18.2326 1.76739 17.7849 1.77756 17.2353C1.79137 16.4888 1.87673 15.6714 2.06804 14.9243C2.25499 14.1941 2.5651 13.4431 3.08966 12.9185Z"
    fill="currentColor"
  />
  <path
    fill-rule="evenodd"
    clip-rule="evenodd"
    d="M17.0104 1.58872C17.2956 1.68651 17.6142 1.79576 17.9092 2.09078C18.2042 2.3858 18.3135 2.70439 18.4113 2.98957L18.4289 3.04087C18.6525 3.68825 18.9432 4.70564 18.9927 5.76218C19.0415 6.804 18.8608 8.03406 17.9682 8.92673L16.3824 10.5125C15.6849 11.21 15.5138 11.4038 15.4299 11.6271C15.346 11.8505 15.3471 12.109 15.4127 13.0932L15.4801 14.103C15.5129 14.5956 15.5407 15.0117 15.535 15.3582C15.529 15.7239 15.4863 16.0687 15.3468 16.4102C15.2148 16.7331 15.0242 17.0288 14.7844 17.2823C14.5309 17.5503 14.2345 17.7314 13.9038 17.8878C13.5906 18.0359 13.2001 18.1823 12.7378 18.3557L12.6754 18.3791C12.1039 18.5934 11.6287 18.7716 11.2531 18.8775C10.9002 18.9769 10.4525 19.0717 10.0295 18.9223C9.68113 18.7993 9.43972 18.6257 9.21224 18.3345C9.05723 18.1361 8.9813 17.9121 8.93876 17.7184C8.89568 17.5222 8.87634 17.3066 8.86756 17.0853C8.85045 16.6541 8.87048 16.0825 8.89508 15.3803L8.89626 15.3466C8.94495 13.9565 8.70811 12.7094 7.99938 12.0006C7.29064 11.2919 6.04352 11.0551 4.65341 11.1037L4.61963 11.1049C3.9174 11.1295 3.34586 11.1495 2.9147 11.1324C2.69344 11.1237 2.47782 11.1043 2.28161 11.0612C2.08787 11.0187 1.8639 10.9428 1.6655 10.7878C1.37433 10.5603 1.2007 10.3189 1.07766 9.97046C0.928302 9.54751 1.02308 9.09976 1.12253 8.74687C1.22838 8.37128 1.40659 7.89608 1.62093 7.32455L1.64432 7.26217C1.81767 6.79986 1.96408 6.40943 2.11221 6.09617C2.26857 5.76554 2.44975 5.46906 2.71774 5.21557C2.97119 4.97584 3.26688 4.78517 3.58983 4.65323C3.93131 4.51371 4.27613 4.47101 4.64182 4.46501C4.98828 4.45934 5.40435 4.48708 5.89698 4.51994L6.90555 4.58718L6.90682 4.58726C7.89102 4.65287 8.14952 4.654 8.37286 4.57008C8.59621 4.48617 8.79001 4.31509 9.48749 3.61761L11.0733 2.03183C11.9659 1.13916 13.196 0.958488 14.2378 1.00728C15.2944 1.05676 16.3118 1.34746 16.9591 1.57108L17.0104 1.58872ZM13.7949 6.20506C14.1958 6.6059 14.8456 6.6059 15.2465 6.20506C15.6473 5.80422 15.6473 5.15434 15.2465 4.7535C14.8456 4.35267 14.1958 4.35267 13.7949 4.7535C13.3941 5.15434 13.3941 5.80422 13.7949 6.20506Z"
    fill="currentColor"
  />
</svg>
