<svg width="20" height="20" viewBox="0 0 20 20" fill="currentColor" xmlns="http://www.w3.org/2000/svg">
  <path d="M16.3264 15.7733C17.6198 14.2414 18.3993 12.2616 18.3993 10.0997C18.3993 5.23979 14.4596 1.30005 9.5997 1.30005C4.73979 1.30005 0.800049 5.23979 0.800049 10.0997C0.800049 14.9596 4.73979 18.8993 9.5997 18.8993C11.7616 18.8993 13.7414 18.1198 15.2733 16.8264C15.2966 16.8586 15.3228 16.8895 15.3518 16.9185L17.5125 19.0791C17.807 19.3737 18.2846 19.3737 18.5791 19.0791C18.8737 18.7846 18.8737 18.307 18.5791 18.0125L16.4185 15.8518C16.3895 15.8228 16.3586 15.7966 16.3264 15.7733Z" fill="currentColor" />
</svg>
