<svg
  xmlns="http://www.w3.org/2000/svg"
  width="20"
  height="20"
  viewBox="0 0 20 20"
  fill="none"
>
  <path
    d="M9.75017 7.50161C8.50833 7.50161 7.50161 8.50833 7.50161 9.75017C7.50161 10.992 8.50833 11.9987 9.75017 11.9987C10.992 11.9987 11.9987 10.992 11.9987 9.75017C11.9987 8.50833 10.992 7.50161 9.75017 7.50161Z"
    fill="currentColor"
  />
  <path
    fill-rule="evenodd"
    clip-rule="evenodd"
    d="M10 1C5.02944 1 1 5.02944 1 10C1 14.9706 5.02944 19 10 19C14.9706 19 19 14.9706 19 10C19 5.02944 14.9706 1 10 1ZM6.00256 9.75017C6.00256 7.68043 7.68043 6.00256 9.75017 6.00256C11.8199 6.00256 13.4978 7.68043 13.4978 9.75017C13.4978 10.514 13.2693 11.2245 12.8769 11.8169L13.7779 12.718C14.0706 13.0107 14.0706 13.4852 13.7779 13.7779C13.4852 14.0706 13.0106 14.0706 12.7179 13.7779L11.8169 12.8769C11.2244 13.2693 10.514 13.4978 9.75017 13.4978C7.68043 13.4978 6.00256 11.8199 6.00256 9.75017Z"
    fill="currentColor"
  />
</svg>
