<svg
  xmlns="http://www.w3.org/2000/svg"
  width="20"
  height="20"
  viewBox="0 0 20 20"
  fill="none"
>
  <path
    fill-rule="evenodd"
    clip-rule="evenodd"
    d="M9.96314 1.00006H10.037C11.543 1.00006 12.7237 1.00005 13.6692 1.08523C14.6325 1.17201 15.4241 1.35184 16.1292 1.75596C17.0096 2.2605 17.7396 2.99053 18.2442 3.8709C18.6483 4.57605 18.8281 5.36762 18.9149 6.33094C19.0001 7.27642 19.0001 8.45711 19.0001 9.96316V10.037C19.0001 10.8638 19.0001 11.5926 18.986 12.2382C18.1463 10.6683 16.4911 9.60027 14.5863 9.60027C11.8326 9.60027 9.60021 11.8326 9.60021 14.5864C9.60021 16.4911 10.6682 18.1463 12.238 18.986C11.5924 19.0001 10.8637 19.0001 10.037 19.0001H9.96316C8.45711 19.0001 7.27642 19.0001 6.33094 18.9149C5.36762 18.8281 4.57605 18.6483 3.8709 18.2442C2.99053 17.7396 2.2605 17.0096 1.75596 16.1292C1.35184 15.4241 1.17201 14.6325 1.08523 13.6692C1.00005 12.7237 1.00006 11.543 1.00006 10.037V9.96314C1.00006 8.45711 1.00005 7.27642 1.08523 6.33094C1.17201 5.36762 1.35184 4.57605 1.75596 3.8709C2.2605 2.99053 2.99053 2.2605 3.8709 1.75596C4.57605 1.35184 5.36762 1.17201 6.33094 1.08523C7.27642 1.00005 8.45711 1.00006 9.96314 1.00006ZM4.29002 6.02786C4.29002 5.61653 4.62348 5.28307 5.03481 5.28307H10.4625C10.8738 5.28307 11.2073 5.61653 11.2073 6.02786C11.2073 6.4392 10.8738 6.77265 10.4625 6.77265H5.03481C4.62348 6.77265 4.29002 6.4392 4.29002 6.02786ZM5.03481 8.03481C4.62348 8.03481 4.29002 8.36826 4.29002 8.7796C4.29002 9.19093 4.62348 9.52439 5.03481 9.52439H7.71074C8.12208 9.52439 8.45553 9.19093 8.45553 8.7796C8.45553 8.36826 8.12208 8.03481 7.71074 8.03481H5.03481Z"
    fill="currentColor"
  />
  <path
    fill-rule="evenodd"
    clip-rule="evenodd"
    d="M14.5838 11.084C12.6509 11.084 11.084 12.6509 11.084 14.5838C11.084 16.5166 12.6509 18.0835 14.5838 18.0835C15.2788 18.0835 15.9264 17.881 16.471 17.5316L17.7197 18.7803C18.0126 19.0732 18.4874 19.0732 18.7803 18.7803C19.0732 18.4874 19.0732 18.0126 18.7803 17.7197L17.5316 16.471C17.8809 15.9264 18.0835 15.2788 18.0835 14.5838C18.0835 12.6509 16.5166 11.084 14.5838 11.084ZM12.584 14.5838C12.584 13.4793 13.4793 12.584 14.5838 12.584C15.6882 12.584 16.5835 13.4793 16.5835 14.5838C16.5835 15.6882 15.6882 16.5835 14.5838 16.5835C13.4793 16.5835 12.584 15.6882 12.584 14.5838Z"
    fill="currentColor"
  />
</svg>
