<svg width="20" height="20" viewBox="0 0 20 20" fill="currentcolor" xmlns="http://www.w3.org/2000/svg">
  <path fill-rule="evenodd" d="M1 10C1 6.25027 1 4.3754 1.95491 3.06107C2.26331 2.6366 2.6366 2.26331 3.06107 1.95491C4.3754 1 6.25027 1 10 1C13.7497 1 15.6246 1 16.9389 1.95491C17.3634 2.26331 17.7367 2.6366 18.0451 3.06107C19 4.3754 19 6.25027 19 10C19 13.7497 19 15.6246 18.0451 16.9389C17.7367 17.3634 17.3634 17.7367 16.9389 18.0451C15.6246 19 13.7497 19 10 19C6.25027 19 4.3754 19 3.06107 18.0451C2.6366 17.7367 2.26331 17.3634 1.95491 16.9389C1 15.6246 1 13.7497 1 10ZM13 9C14.1046 9 15 8.10457 15 7C15 5.89543 14.1046 5 13 5C12.1557 5 11.4335 5.5232 11.1401 6.26307C11.0947 6.25449 11.0479 6.25 11 6.25L6 6.25C5.58579 6.25 5.25 6.58579 5.25 7C5.25 7.41421 5.58579 7.75 6 7.75L11 7.75C11.0479 7.75 11.0947 7.74551 11.1401 7.73693C11.4335 8.4768 12.1557 9 13 9ZM7 15C7.84433 15 8.56645 14.4768 8.85986 13.7369C8.90526 13.7455 8.9521 13.75 9 13.75H14C14.4142 13.75 14.75 13.4142 14.75 13C14.75 12.5858 14.4142 12.25 14 12.25H9C8.9521 12.25 8.90526 12.2545 8.85986 12.2631C8.56645 11.5232 7.84433 11 7 11C5.89543 11 5 11.8954 5 13C5 14.1046 5.89543 15 7 15Z" fill="currentcolor" />
</svg>
