<svg width="20" height="20" viewBox="0 0 20 20" fill="currentcolor" xmlns="http://www.w3.org/2000/svg">
  <path fill-rule="evenodd" d="M1 5.35817C1 4.94498 1.33496 4.61001 1.74816 4.61001H8.23481C8.64801 4.61001 8.98297 4.94498 8.98297 5.35817C8.98297 5.77137 8.64801 6.10633 8.23481 6.10633H1.74816C1.33496 6.10633 1 5.77137 1 5.35817Z" fill="currentcolor" />
  <path fill-rule="evenodd" d="M19 14.6415C19 15.0547 18.665 15.3896 18.2518 15.3896L11.7652 15.3896C11.352 15.3896 11.017 15.0547 11.017 14.6415C11.017 14.2283 11.352 13.8933 11.7652 13.8933L18.2518 13.8933C18.665 13.8933 19 14.2283 19 14.6415Z" fill="currentcolor" />
  <path d="M14.6416 1C12.2346 1 10.2833 2.9513 10.2833 5.35834C10.2833 7.76539 12.2346 9.71669 14.6416 9.71669C17.0487 9.71669 19 7.76539 19 5.35834C19 2.9513 17.0487 1 14.6416 1Z" fill="currentcolor" />
  <path d="M5.35834 10.2833C7.76538 10.2833 9.71668 12.2346 9.71668 14.6417C9.71668 17.0487 7.76538 19 5.35834 19C2.95129 19 1 17.0487 1 14.6417C1 12.2346 2.95129 10.2833 5.35834 10.2833Z" fill="currentcolor" />
</svg>
