<svg
  xmlns="http://www.w3.org/2000/svg"
  width="20"
  height="20"
  viewBox="0 0 20 20"
  fill="none"
>
  <path
    d="M19 4.75C19 2.67893 17.3211 1 15.25 1C13.1789 1 11.5 2.67893 11.5 4.75C11.5 4.9053 11.5094 5.0584 11.5278 5.20875L7.60155 7.56449C6.91375 6.75997 5.89143 6.25 4.75 6.25C2.67893 6.25 1 7.92893 1 10C1 12.0711 2.67893 13.75 4.75 13.75C5.89143 13.75 6.91375 13.24 7.60155 12.4355L11.5278 14.7913C11.5094 14.9416 11.5 15.0947 11.5 15.25C11.5 17.3211 13.1789 19 15.25 19C17.3211 19 19 17.3211 19 15.25C19 13.1789 17.3211 11.5 15.25 11.5C13.8769 11.5 12.6762 12.238 12.0228 13.339L8.32904 11.1227C8.44012 10.7682 8.5 10.3911 8.5 10C8.5 9.60889 8.44012 9.23176 8.32904 8.87728L12.0228 6.66103C12.6762 7.76201 13.8769 8.5 15.25 8.5C17.3211 8.5 19 6.82107 19 4.75Z"
    fill="currentColor"
  />
</svg>
