<svg
  xmlns="http://www.w3.org/2000/svg"
  width="20"
  height="20"
  viewBox="0 0 20 20"
  fill="none"
>
  <path
    fill-rule="evenodd"
    clip-rule="evenodd"
    d="M9.99997 13.6C9.50292 13.6 9.09997 13.1971 9.09997 12.7V4.07279L7.03637 6.1364C6.6849 6.48787 6.11505 6.48787 5.76358 6.1364C5.4121 5.78492 5.4121 5.21508 5.76358 4.8636L9.36358 1.2636C9.71505 0.912132 10.2849 0.912132 10.6364 1.2636L14.2364 4.8636C14.5878 5.21508 14.5878 5.78492 14.2364 6.1364C13.8849 6.48787 13.315 6.48787 12.9636 6.1364L10.9 4.07279V12.7C10.9 13.1971 10.497 13.6 9.99997 13.6Z"
    fill="currentColor"
  />
  <path
    fill-rule="evenodd"
    clip-rule="evenodd"
    d="M5.91916 9.1H6.4C6.89706 9.1 7.3 9.50294 7.3 10C7.3 10.4971 6.89706 10.9 6.4 10.9H5.95C5.30867 10.9 4.87274 10.9005 4.53394 10.9236C4.20323 10.9462 4.03132 10.9872 3.91117 11.037C3.47012 11.2197 3.11971 11.5701 2.93702 12.0112C2.88725 12.1313 2.84617 12.3032 2.8236 12.6339C2.80049 12.9727 2.8 13.4087 2.8 14.05C2.8 14.6913 2.80049 15.1273 2.8236 15.4661C2.84617 15.7968 2.88725 15.9687 2.93702 16.0888C3.11971 16.5299 3.47012 16.8803 3.91117 17.063C4.03132 17.1128 4.20323 17.1538 4.53394 17.1764C4.87274 17.1995 5.30867 17.2 5.95 17.2H14.05C14.6913 17.2 15.1273 17.1995 15.4661 17.1764C15.7968 17.1538 15.9687 17.1128 16.0888 17.063C16.5299 16.8803 16.8803 16.5299 17.063 16.0888C17.1128 15.9687 17.1538 15.7968 17.1764 15.4661C17.1995 15.1273 17.2 14.6913 17.2 14.05C17.2 13.4087 17.1995 12.9727 17.1764 12.6339C17.1538 12.3032 17.1128 12.1313 17.063 12.0112C16.8803 11.5701 16.5299 11.2197 16.0888 11.037C15.9687 10.9872 15.7968 10.9462 15.4661 10.9236C15.1273 10.9005 14.6913 10.9 14.05 10.9H13.6C13.1029 10.9 12.7 10.4971 12.7 10C12.7 9.50294 13.1029 9.1 13.6 9.1H14.0808C14.6837 9.09999 15.1812 9.09999 15.5886 9.12778C16.0109 9.1566 16.4016 9.21828 16.7777 9.37403C17.6598 9.73941 18.3606 10.4402 18.726 11.3223C18.8817 11.6984 18.9434 12.0891 18.9722 12.5114C19 12.9188 19 13.4163 19 14.0192V14.0808C19 14.6837 19 15.1812 18.9722 15.5886C18.9434 16.0109 18.8817 16.4016 18.726 16.7777C18.3606 17.6598 17.6598 18.3606 16.7777 18.726C16.4016 18.8817 16.0109 18.9434 15.5886 18.9722C15.1812 19 14.6837 19 14.0808 19H5.91915C5.31634 19 4.81876 19 4.41142 18.9722C3.98906 18.9434 3.59837 18.8817 3.22234 18.726C2.34024 18.3606 1.63941 17.6598 1.27403 16.7777C1.11828 16.4016 1.0566 16.0109 1.02778 15.5886C0.999986 15.1812 0.999992 14.6837 1 14.0808V14.0192C0.999992 13.4163 0.999986 12.9188 1.02778 12.5114C1.0566 12.0891 1.11828 11.6984 1.27403 11.3223C1.63941 10.4402 2.34024 9.73941 3.22234 9.37403C3.59837 9.21828 3.98906 9.1566 4.41142 9.12778C4.81876 9.09999 5.31635 9.09999 5.91916 9.1Z"
    fill="currentColor"
  />
</svg>
