<svg width="20" height="20" viewBox="0 0 20 20" fill="currentColor" xmlns="http://www.w3.org/2000/svg">
  <path fill-rule="evenodd" d="M10.0007 1.5C9.2607 1.5 8.59423 1.79997 7.63898 2.22991L7.51642 2.28505C6.65496 2.67225 5.9008 3.0189 5.00827 3.42915L4.59002 3.62137C3.78468 3.99137 3.11094 4.3009 2.58959 4.64374C2.0296 5.01199 1.60538 5.44246 1.31752 6.06997C0.767509 7.26896 1.02647 8.21048 1.38461 9.51262L1.41507 9.62341C2.68576 14.2522 6.00841 17.2229 8.0051 18.6547L8.0735 18.7038C8.68164 19.1407 9.18347 19.5012 10.0002 19.5001C10.8169 19.4989 11.3183 19.1366 11.9258 18.6976L11.9944 18.6481C13.9874 17.2105 17.3075 14.2329 18.582 9.62389L18.6124 9.51386C18.9727 8.21365 19.2331 7.27346 18.6834 6.0722C18.133 4.86936 17.0551 4.37509 15.5453 3.68279L14.9932 3.42921C14.1006 3.01893 13.3465 2.67227 12.485 2.28505L12.3624 2.22991C11.4071 1.79997 10.7407 1.5 10.0007 1.5ZM13.5938 8.45811C13.8468 8.13014 13.7861 7.65917 13.4581 7.40617C13.1301 7.15317 12.6592 7.21394 12.4062 7.5419L9.08574 11.8461L7.54569 10.2128C7.26154 9.91139 6.78687 9.89743 6.48549 10.1816C6.18411 10.4657 6.17015 10.9404 6.45431 11.2418L7.97777 12.8576C8.1058 12.9935 8.25056 13.1472 8.3908 13.2593C8.55617 13.3914 8.81699 13.5506 9.16925 13.5332C9.52152 13.5158 9.76533 13.3315 9.91685 13.1837C10.0453 13.0584 10.1742 12.8911 10.2882 12.7432L13.5938 8.45811Z" fill="currentColor" />
</svg>
