<svg width="20" height="20" viewBox="0 0 20 20" fill="currentcolor" xmlns="http://www.w3.org/2000/svg">
  <path fill-rule="evenodd" d="M1.00003 6.9767C0.999085 6.52089 1.08765 6.06525 1.31754 5.56467C1.6054 4.93789 2.02962 4.50791 2.58961 4.14009C3.11096 3.79766 3.7847 3.48848 4.59003 3.11891L5.0082 2.92695C5.90077 2.51716 6.65494 2.1709 7.51643 1.78414L7.63899 1.72906C8.59424 1.29962 9.26071 1 10.0007 1C10.7407 1 11.4071 1.29962 12.3624 1.72906L12.485 1.78414C13.3465 2.17091 14.1006 2.51717 14.9932 2.92698L15.5453 3.18026C17.0551 3.87176 18.133 4.36545 18.6834 5.5669C19.2331 6.76676 18.9727 7.70587 18.6124 9.00457L18.582 9.11447C17.3075 13.7182 13.9874 16.6923 11.9944 18.1282L11.9259 18.1776C11.3183 18.6162 10.8169 18.9781 10.0002 18.9792L10.0002 19.0001C9.18346 19.0012 8.68163 18.6411 8.07349 18.2047L8.00509 18.1557C6.00841 16.7255 2.68576 13.7583 1.41507 9.13486L1.38461 9.02419C1.17388 8.25891 0.997491 7.61833 1.00003 6.9767ZM11.1036 16.8519C11.0053 16.9227 10.9184 16.9849 10.8406 17.0395V2.77241C11.0956 2.87332 11.4199 3.01654 11.8625 3.21525C12.7177 3.59918 13.4658 3.94265 14.3588 4.35265L14.7319 4.52391C15.6206 4.93176 16.1897 5.20325 16.5757 5.45432C16.9543 5.70065 17.1473 5.92148 17.2873 6.22717C17.4346 6.54855 17.4838 6.80471 17.4518 7.15323C17.4187 7.51286 17.2995 7.96847 17.0996 8.69079C15.9642 12.7918 12.9768 15.5023 11.1036 16.8519Z" fill="currentcolor" />
</svg>
