<svg width="20" height="20" viewBox="0 0 20 20" fill="currentcolor" xmlns="http://www.w3.org/2000/svg">
  <path fill-rule="evenodd" d="M18.0453 3.05822C19.0002 4.37254 19.0002 6.24741 19.0002 9.99714C19.0002 13.7469 19.0002 15.6217 18.0453 16.9361C17.7369 17.3605 17.3636 17.7338 16.9392 18.0422C16.0325 18.701 14.8591 18.9053 12.9875 18.9686C12.5312 18.9841 12.0332 18.9912 11.4875 18.9944L11.4875 18.9971L10 19C6.25027 19 4.3754 19 3.06107 18.0451C2.6366 17.7367 2.26331 17.3634 1.95491 16.9389C1 15.6246 1 13.7497 1 10C1 6.25027 1 4.3754 1.95491 3.06107C2.26331 2.6366 2.6366 2.26331 3.06107 1.95492C4.3754 1 6.25027 1 10 1C10.5324 1 11.027 1 11.4875 1.00273L11.4875 1C12.0332 1.00324 12.5312 1.01031 12.9875 1.02575C14.8591 1.08909 16.0325 1.29333 16.9392 1.95206C17.3636 2.26046 17.7369 2.63374 18.0453 3.05822ZM14.6076 17.3366C15.3335 17.2257 15.7488 17.053 16.0575 16.8287C16.3546 16.6128 16.6159 16.3515 16.8318 16.0544C17.0925 15.6955 17.2841 15.1924 17.3896 14.2183C17.4982 13.2161 17.5002 11.9054 17.5002 9.99714C17.5002 8.08887 17.4982 6.77814 17.3896 5.77597C17.2841 4.80187 17.0925 4.29874 16.8318 3.93989C16.6159 3.64277 16.3546 3.38146 16.0575 3.16558C15.7488 2.94131 15.3336 2.76866 14.6077 2.65776C14.1609 2.58949 13.6341 2.5496 12.9875 2.52671L12.9875 17.4677C13.634 17.4448 14.1609 17.4049 14.6076 17.3366ZM7.51143 12.5208C7.2223 12.8174 6.74746 12.8235 6.45085 12.5343C6.15424 12.2452 6.14818 11.7704 6.4373 11.4738L7.91362 9.95924L6.45107 8.53455C6.15436 8.24553 6.14813 7.77069 6.43716 7.47398C6.72618 7.17728 7.20102 7.17105 7.49773 7.46007L9.49771 9.40827C9.64022 9.5471 9.72174 9.73687 9.72431 9.93581C9.72689 10.1347 9.65031 10.3266 9.51144 10.469L7.51143 12.5208Z" fill="currentcolor" />
</svg>
