<svg width="20" height="20" viewBox="0 0 20 20" fill="currentColor" xmlns="http://www.w3.org/2000/svg">
  <path fill-rule="evenodd" d="M16.7382 18.1808C15.4332 19 13.563 19 10 19C6.25027 19 4.3754 19 3.06107 18.0451C2.6366 17.7367 2.26331 17.3634 1.95491 16.9389C1 15.6246 1 13.7497 1 10C1 6.25027 1 4.3754 1.95491 3.06107C2.26331 2.6366 2.6366 2.26331 3.06107 1.95492C4.3754 1 6.25027 1 10 1C10.5324 1 11.027 1 11.4875 1.00273C14.271 1.01924 15.8114 1.13538 16.9392 1.95474C17.3636 2.26314 17.7369 2.63643 18.0453 3.0609C19.0002 4.37523 19.0002 6.2501 19.0002 9.99983C19.0002 13.7496 19.0002 15.6244 18.0453 16.9388C17.7369 17.3632 17.3636 17.7365 16.9392 18.0449C16.8737 18.0925 16.8066 18.1378 16.7382 18.1808ZM10 17.5C8.09172 17.5 6.781 17.4979 5.77883 17.3894C4.80473 17.2838 4.3016 17.0923 3.94275 16.8316C3.64562 16.6157 3.38432 16.3544 3.16844 16.0572C2.90772 15.6984 2.71617 15.1953 2.61064 14.2212C2.50206 13.219 2.5 11.9083 2.5 10C2.5 8.09172 2.50206 6.781 2.61064 5.77883C2.71617 4.80473 2.90772 4.3016 3.16844 3.94275C3.38432 3.64562 3.64562 3.38432 3.94275 3.16844C4.3016 2.90772 4.80473 2.71617 5.77883 2.61064C6.781 2.50206 8.09172 2.5 10 2.5C10.5418 2.5 11.0355 2.50017 11.4875 2.50289L11.4875 17.4971C11.0355 17.4998 10.5418 17.5 10 17.5Z" fill="currentColor" />
</svg>
