<svg
  xmlns="http://www.w3.org/2000/svg"
  width="20"
  height="20"
  viewBox="0 0 20 20"
  fill="none"
>
  <path
    fill-rule="evenodd"
    clip-rule="evenodd"
    d="M1.95491 3.05822C1 4.37254 1 6.24741 1 9.99714C1 13.7469 1 15.6217 1.95491 16.9361C2.26331 17.3605 2.6366 17.7338 3.06107 18.0422C3.96773 18.701 5.14112 18.9053 7.01269 18.9686C7.46909 18.9841 7.96701 18.9912 8.5127 18.9944L8.51269 18.9971L10.0002 19C13.75 19 15.6248 19 16.9392 18.0451C17.3636 17.7367 17.7369 17.3634 18.0453 16.9389C19.0002 15.6246 19.0002 13.7497 19.0002 10C19.0002 6.25027 19.0002 4.3754 18.0453 3.06107C17.7369 2.6366 17.3636 2.26331 16.9392 1.95492C15.6248 1 13.75 1 10.0002 1C9.46785 1 8.97326 1 8.5127 1.00273L8.5127 1C7.96701 1.00324 7.46909 1.01031 7.0127 1.02575C5.14112 1.08909 3.96773 1.29333 3.06107 1.95206C2.6366 2.26046 2.26331 2.63374 1.95491 3.05822ZM5.3926 17.3366C4.66672 17.2257 4.25147 17.053 3.94275 16.8287C3.64562 16.6128 3.38432 16.3515 3.16844 16.0544C2.90772 15.6955 2.71617 15.1924 2.61064 14.2183C2.50206 13.2161 2.5 11.9054 2.5 9.99714C2.5 8.08887 2.50206 6.77814 2.61064 5.77597C2.71617 4.80187 2.90772 4.29874 3.16844 3.93989C3.38432 3.64277 3.64562 3.38146 3.94275 3.16558C4.25144 2.94131 4.66666 2.76866 5.39255 2.65776C5.83934 2.58949 6.36618 2.5496 7.0127 2.52671L7.01269 17.4677C6.3662 17.4448 5.83937 17.4049 5.3926 17.3366ZM12.4888 12.5208C12.7779 12.8174 13.2528 12.8235 13.5494 12.5343C13.846 12.2452 13.8521 11.7704 13.5629 11.4738L12.0866 9.95924L13.5492 8.53455C13.8459 8.24553 13.8521 7.77069 13.5631 7.47398C13.2741 7.17728 12.7992 7.17105 12.5025 7.46007L10.5025 9.40827C10.36 9.5471 10.2785 9.73687 10.2759 9.93581C10.2734 10.1347 10.3499 10.3266 10.4888 10.469L12.4888 12.5208Z"
    fill="currentColor"
  />
</svg>
