<svg width="20" height="20" viewBox="0 0 20 20" fill="currentcolor" xmlns="http://www.w3.org/2000/svg">
  <path fill-rule="evenodd" d="M3.26202 18.1808C4.56704 19 6.43725 19 10.0002 19C13.75 19 15.6248 19 16.9392 18.0451C17.3636 17.7367 17.7369 17.3634 18.0453 16.9389C19.0002 15.6246 19.0002 13.7497 19.0002 10C19.0002 6.25027 19.0002 4.3754 18.0453 3.06107C17.7369 2.6366 17.3636 2.26331 16.9392 1.95492C15.6248 1 13.75 1 10.0002 1C9.46785 1 8.97326 1 8.5127 1.00273C5.72927 1.01924 4.18883 1.13538 3.06107 1.95474C2.6366 2.26314 2.26331 2.63643 1.95491 3.0609C1 4.37523 1 6.2501 1 9.99983C1 13.7496 1 15.6244 1.95491 16.9388C2.26331 17.3632 2.6366 17.7365 3.06107 18.0449C3.12653 18.0925 3.19362 18.1378 3.26202 18.1808ZM10.0002 17.5C11.9085 17.5 13.2192 17.4979 14.2214 17.3894C15.1955 17.2838 15.6986 17.0923 16.0575 16.8316C16.3546 16.6157 16.6159 16.3544 16.8318 16.0572C17.0925 15.6984 17.2841 15.1953 17.3896 14.2212C17.4982 13.219 17.5002 11.9083 17.5002 10C17.5002 8.09172 17.4982 6.781 17.3896 5.77883C17.2841 4.80473 17.0925 4.3016 16.8318 3.94275C16.6159 3.64562 16.3546 3.38432 16.0575 3.16844C15.6986 2.90772 15.1955 2.71617 14.2214 2.61064C13.2192 2.50206 11.9085 2.5 10.0002 2.5C9.45843 2.5 8.96478 2.50017 8.5127 2.50289L8.51269 17.4971C8.96478 17.4998 9.45843 17.5 10.0002 17.5Z" fill="currentcolor" />
</svg>
