<svg
  xmlns="http://www.w3.org/2000/svg"
  width="20"
  height="20"
  viewBox="0 0 20 20"
  fill="none"
>
  <path
    fill-rule="evenodd"
    clip-rule="evenodd"
    d="M9.94309 5.17464e-07H10.0569C11.4751 -1.95359e-05 12.6183 -3.57032e-05 13.5174 0.119513C14.4508 0.243632 15.2368 0.509164 15.861 1.12651C16.4852 1.74386 16.7537 2.52117 16.8792 3.44436C17 4.33356 17 5.46414 17 6.8668V13.1332C17 14.5359 17 15.6664 16.8792 16.5556C16.7537 17.4788 16.4852 18.2561 15.861 18.8735C15.2368 19.4908 14.4508 19.7564 13.5174 19.8805C12.6183 20 11.4751 20 10.0569 20H9.9431C8.52486 20 7.38171 20 6.48263 19.8805C5.54919 19.7564 4.76324 19.4908 4.13903 18.8735C3.51482 18.2561 3.24634 17.4788 3.12084 16.5556C2.99996 15.6665 2.99998 14.5359 3 13.1332V6.86678C2.99998 5.46414 2.99996 4.33355 3.12084 3.44436C3.24634 2.52117 3.51482 1.74386 4.13903 1.12651C4.76324 0.509164 5.54919 0.243632 6.48263 0.119513C7.3817 -3.57032e-05 8.52487 -1.95359e-05 9.94309 5.17464e-07ZM7.92594 15.3846C7.49639 15.3846 7.14816 15.7204 7.14816 16.1346C7.14816 16.5488 7.49639 16.8846 7.92594 16.8846H12.0741C12.5036 16.8846 12.8519 16.5488 12.8519 16.1346C12.8519 15.7204 12.5036 15.3846 12.0741 15.3846H7.92594Z"
    fill="currentColor"
  />
</svg>
