<svg width="20" height="20" viewBox="0 0 20 20" fill="currentColor" xmlns="http://www.w3.org/2000/svg">
  <path d="M10 9.83759C8.39874 9.83759 7.09859 11.1587 7.09859 12.7909C7.09859 14.423 8.39874 15.7441 10 15.7441C11.6013 15.7441 12.9014 14.423 12.9014 12.7909C12.9014 11.1587 11.6013 9.83759 10 9.83759Z" fill="currentColor" />
  <path fill-rule="evenodd" d="M9.94842 2.81428e-07H10.0516C11.7318 -1.38781e-05 13.0627 -2.50936e-05 14.1043 0.142452C15.1762 0.289083 16.0438 0.598029 16.728 1.29418C17.4122 1.99033 17.7159 2.87308 17.86 3.9637C18 5.02341 18 6.37744 18 8.08693V11.9129C18 13.6224 18 14.9766 17.86 16.0363C17.7159 17.1269 17.4122 18.0097 16.728 18.7058C16.0438 19.402 15.1762 19.7109 14.1043 19.8575C13.0627 20 11.7318 20 10.0516 20H9.94843C8.26819 20 6.93732 20 5.89575 19.8575C4.82382 19.7109 3.95621 19.402 3.27199 18.7058C2.58778 18.0097 2.28413 17.1269 2.14001 16.0363C1.99998 14.9766 1.99999 13.6225 2 11.913V8.08705C1.99999 6.37752 1.99998 5.02343 2.14001 3.9637C2.28413 2.87308 2.58778 1.99033 3.27199 1.29418C3.95621 0.598029 4.82382 0.289083 5.89575 0.142452C6.93731 -2.50936e-05 8.26819 -1.38781e-05 9.94842 2.81428e-07ZM9.99998 5.34887C10.5049 5.34887 10.9143 4.93239 10.9143 4.41864C10.9143 3.90488 10.5049 3.4884 9.99998 3.4884C9.49503 3.4884 9.08569 3.90488 9.08569 4.41864C9.08569 4.93239 9.49503 5.34887 9.99998 5.34887ZM5.58716 12.7909C5.58716 10.313 7.56173 8.30225 10 8.30225C12.4383 8.30225 14.4129 10.313 14.4129 12.7909C14.4129 15.2687 12.4383 17.2795 10 17.2795C7.56173 17.2795 5.58716 15.2687 5.58716 12.7909Z" fill="currentColor" />
</svg>
