<svg
  xmlns="http://www.w3.org/2000/svg"
  width="20"
  height="20"
  viewBox="0 0 20 20"
  fill="none"
>
  <path
    fill-rule="evenodd"
    clip-rule="evenodd"
    d="M9.95823 1H10.0418C11.737 0.999993 13.0659 0.999987 14.1202 1.11421C15.1961 1.23078 16.0678 1.47291 16.8121 2.01368C17.2627 2.34106 17.6589 2.73731 17.9863 3.18791C18.5271 3.93221 18.7692 4.80394 18.8858 5.87982C19 6.9341 19 8.26296 19 9.95821V10.0418C19 11.737 19 13.0659 18.8858 14.1202C18.7692 15.1961 18.5271 16.0678 17.9863 16.8121C17.6589 17.2627 17.2627 17.6589 16.8121 17.9863C16.0678 18.5271 15.1961 18.7692 14.1202 18.8858C13.0659 19 11.737 19 10.0418 19H9.95821C8.26296 19 6.9341 19 5.87982 18.8858C4.80394 18.7692 3.93221 18.5271 3.18791 17.9863C2.73731 17.6589 2.34106 17.2627 2.01368 16.8121C1.47291 16.0678 1.23078 15.1961 1.11421 14.1202C0.999987 13.0659 0.999993 11.737 1 10.0418V9.95823C0.999993 8.26297 0.999987 6.9341 1.11421 5.87982C1.23078 4.80394 1.47291 3.93221 2.01368 3.18791C2.34106 2.73731 2.73731 2.34106 3.18791 2.01368C3.93221 1.47291 4.80394 1.23078 5.87982 1.11421C6.9341 0.999987 8.26297 0.999993 9.95823 1ZM12.3357 7.66431C12.6061 7.93467 12.6061 8.37302 12.3357 8.64338L10.9791 10L12.3357 11.3566C12.6061 11.627 12.6061 12.0653 12.3357 12.3357C12.0653 12.6061 11.627 12.6061 11.3566 12.3357L10 10.9791L8.64339 12.3357C8.37303 12.6061 7.93468 12.6061 7.66432 12.3357C7.39396 12.0653 7.39396 11.627 7.66432 11.3566L9.02094 10L7.66432 8.64339C7.39396 8.37302 7.39396 7.93468 7.66432 7.66432C7.93468 7.39395 8.37303 7.39395 8.64339 7.66432L10 9.02093L11.3566 7.66431C11.627 7.39395 12.0653 7.39395 12.3357 7.66431Z"
    fill="currentColor"
  />
</svg>
