<svg width="20" height="20" viewBox="0 0 20 20" fill="currentcolor" xmlns="http://www.w3.org/2000/svg">
  <path d="M13.5714 2.50474L14.9621 3.10501C15.3023 3.25188 15.3023 3.73771 14.9621 3.88458L13.5714 4.48485C13.4675 4.52971 13.3858 4.61479 13.3448 4.72093L12.5733 6.71922C12.4341 7.07971 11.9276 7.07971 11.7884 6.71922L11.0168 4.72093C10.9758 4.61479 10.8942 4.52971 10.7902 4.48485L9.3996 3.88458C9.05934 3.73771 9.05934 3.25188 9.3996 3.10501L10.7902 2.50474C10.8942 2.45988 10.9758 2.3748 11.0168 2.26866L11.7884 0.270371C11.9276 -0.0901241 12.4341 -0.0901232 12.5733 0.270372L13.3448 2.26866C13.3858 2.3748 13.4675 2.45988 13.5714 2.50474Z" fill="currentcolor" />
  <path d="M16.8199 7.75316L17.8138 8.20359C18.0621 8.31612 18.0621 8.67116 17.8138 8.78368L16.8199 9.23412C16.7428 9.26909 16.6828 9.33378 16.6534 9.41369L16.1183 10.8689C16.0165 11.1457 15.6278 11.1457 15.526 10.8689L14.9909 9.41369C14.9615 9.33378 14.9015 9.26909 14.8243 9.23412L13.8305 8.78368C13.5822 8.67116 13.5822 8.31612 13.8305 8.20359L14.8243 7.75316C14.9015 7.71819 14.9615 7.65349 14.9909 7.57358L15.526 6.11836C15.6278 5.84158 16.0165 5.84158 16.1183 6.11836L16.6534 7.57358C16.6828 7.65349 16.7428 7.71819 16.8199 7.75316Z" fill="currentcolor" />
  <path d="M14.1699 12.5518L10.8664 11.1998C10.7287 11.1434 10.6192 11.0333 10.5626 10.8943L8.76826 6.48795C8.58028 6.02632 7.93512 6.02632 7.74713 6.48795L5.95278 10.8943C5.89615 11.0333 5.78668 11.1434 5.64904 11.1998L2.34551 12.5518C1.88483 12.7404 1.88483 13.4014 2.34551 13.5899L5.64904 14.942C5.78668 14.9983 5.89615 15.1084 5.95278 15.2475L7.74713 19.6538C7.93512 20.1154 8.58028 20.1154 8.76826 19.6538L10.5626 15.2475C10.6192 15.1084 10.7287 14.9983 10.8664 14.942L14.1699 13.5899C14.6306 13.4014 14.6306 12.7404 14.1699 12.5518Z" fill="currentcolor" />
</svg>
