<svg
  xmlns="http://www.w3.org/2000/svg"
  width="20"
  height="20"
  viewBox="0 0 20 20"
  fill="none"
>
  <path
    d="M11.7268 10.5273C12.5025 11.2272 13.7202 11.7374 14.7963 12.0821C15.6789 12.3649 16.1202 12.5063 16.1202 12.6523C16.1202 12.7982 15.6789 12.9396 14.7963 13.2224C13.7202 13.5671 12.5025 14.0773 11.7268 14.7773C10.771 15.6397 10.1218 17.1189 9.70355 18.4354C9.37213 19.4785 9.20642 20.0001 9.06011 20.0001C8.91381 20.0001 8.7481 19.4785 8.41668 18.4354C7.99838 17.1189 7.34925 15.6397 6.39345 14.7773C5.61774 14.0773 4.40006 13.5671 3.32394 13.2224C2.44132 12.9396 2 12.7982 2 12.6523C2 12.5063 2.44132 12.3649 3.32394 12.0821C4.40006 11.7374 5.61774 11.2272 6.39345 10.5273C7.34925 9.66484 7.99838 8.18563 8.41668 6.86908C8.7481 5.82599 8.91381 5.30444 9.06011 5.30444C9.20642 5.30444 9.37213 5.826 9.70355 6.86908C10.1218 8.18563 10.771 9.66484 11.7268 10.5273Z"
    fill="currentColor"
  />
  <path
    d="M16.8655 7.98193C16.9926 8.09584 17.1563 8.19417 17.3323 8.2779C17.7774 8.48979 18 8.59573 18 8.66675C18 8.73776 17.7774 8.84371 17.3323 9.0556C17.1563 9.13933 16.9926 9.23765 16.8655 9.35157C16.7059 9.49456 16.5726 9.69016 16.4624 9.90417C16.2004 10.4126 16.0695 10.6667 16 10.6667C15.9305 10.6667 15.7996 10.4126 15.5376 9.90417C15.4274 9.69016 15.2941 9.49456 15.1345 9.35157C15.0074 9.23765 14.8437 9.13933 14.6677 9.0556C14.2226 8.84371 14 8.73776 14 8.66675C14 8.59573 14.2226 8.48979 14.6677 8.2779C14.8437 8.19417 15.0074 8.09584 15.1345 7.98193C15.2941 7.83894 15.4274 7.64333 15.5376 7.42932C15.7996 6.92094 15.9305 6.66675 16 6.66675C16.0695 6.66675 16.2004 6.92094 16.4624 7.42932C16.5726 7.64333 16.7059 7.83894 16.8655 7.98193Z"
    fill="currentColor"
  />
  <path
    d="M14.3334 2.41595C14.6445 2.69779 15.0979 2.91835 15.5428 3.08392C16.0953 3.28949 16.3715 3.39228 16.3715 3.48262C16.3715 3.57295 16.0953 3.67574 15.5428 3.88131C15.0979 4.04688 14.6445 4.26744 14.3334 4.54928C13.9498 4.89668 13.6651 5.44346 13.4595 5.98742C13.2131 6.63929 13.0899 6.96523 13 6.96523C12.9102 6.96523 12.787 6.63929 12.5406 5.98742C12.335 5.44346 12.0502 4.89668 11.6667 4.54928C11.3555 4.26744 10.9022 4.04688 10.4572 3.88131C9.90477 3.67574 9.62854 3.57295 9.62854 3.48262C9.62854 3.39228 9.90477 3.28949 10.4572 3.08392C10.9022 2.91836 11.3555 2.69779 11.6667 2.41595C12.0502 2.06855 12.335 1.52177 12.5406 0.977811C12.787 0.325937 12.9102 0 13 0C13.0899 0 13.2131 0.325941 13.4595 0.977812C13.6651 1.52177 13.9498 2.06855 14.3334 2.41595Z"
    fill="currentColor"
  />
</svg>
