<svg width="20" height="20" viewBox="0 0 20 20" fill="currentColor" xmlns="http://www.w3.org/2000/svg">
  <path fill-rule="evenodd" d="M8.12126 4.69329e-07H11.8787C13.1291 -1.77186e-05 14.137 -3.23802e-05 14.9296 0.108395C15.7526 0.220969 16.4455 0.4618 16.9958 1.02172C17.5461 1.58165 17.7828 2.28664 17.8935 3.12395C18 3.93044 18 4.95585 18 6.22803V13.772C18 15.0442 18 16.0696 17.8935 16.876C17.7828 17.7134 17.5461 18.4184 16.9958 18.9783C16.4455 19.5382 15.7526 19.779 14.9296 19.8916C14.137 20 13.1291 20 11.8787 20H8.1212C6.87086 20 5.86304 20 5.0704 19.8916C4.24745 19.779 3.55453 19.5382 3.00421 18.9783C2.45388 18.4184 2.21718 17.7134 2.10654 16.876C1.99997 16.0696 1.99998 15.0442 2 13.772V6.22801C1.99998 4.95585 1.99997 3.93043 2.10654 3.12395C2.21718 2.28664 2.45388 1.58165 3.00421 1.02172C3.55453 0.4618 4.24745 0.220969 5.0704 0.108395C5.86305 -3.23802e-05 6.8709 -1.77186e-05 8.12126 4.69329e-07ZM8.17143 15.814C7.79272 15.814 7.48572 16.1263 7.48572 16.5116C7.48572 16.8969 7.79272 17.2093 8.17143 17.2093H11.8286C12.2073 17.2093 12.5143 16.8969 12.5143 16.5116C12.5143 16.1263 12.2073 15.814 11.8286 15.814H8.17143Z" fill="currentColor" />
</svg>
