<svg
  xmlns="http://www.w3.org/2000/svg"
  width="20"
  height="20"
  viewBox="0 0 20 20"
  fill="none"
>
  <path
    fill-rule="evenodd"
    clip-rule="evenodd"
    d="M8.09897 2H11.901C13.3919 1.99999 14.5661 1.99999 15.5005 2.09679C16.4557 2.19575 17.2403 2.40202 17.9175 2.86807C18.3841 3.18923 18.79 3.58817 19.1168 4.04683C19.591 4.71242 19.8008 5.48351 19.9015 6.42237C20 7.34071 20 8.49482 20 9.96011V10.0399C20 11.5052 20 12.6593 19.9015 13.5776C19.8008 14.5165 19.591 15.2876 19.1168 15.9532C18.79 16.4118 18.3841 16.8108 17.9175 17.1319C17.2403 17.598 16.4557 17.8043 15.5005 17.9032C14.5661 18 13.3919 18 11.9011 18H8.09894C6.60811 18 5.43386 18 4.4995 17.9032C3.54426 17.8043 2.75973 17.598 2.08253 17.1319C1.61587 16.8108 1.20997 16.4118 0.883212 15.9532C0.409035 15.2876 0.199163 14.5165 0.0984741 13.5776C-1.37612e-05 12.6593 -7.6369e-06 11.5052 1.37761e-07 10.0399V9.96013C-7.6369e-06 8.49484 -1.37687e-05 7.34071 0.0984741 6.42237C0.199163 5.48351 0.409035 4.71242 0.883212 4.04683C1.20997 3.58817 1.61587 3.18923 2.08253 2.86807C2.75973 2.40202 3.54426 2.19575 4.4995 2.09679C5.43386 1.99999 6.60812 1.99999 8.09897 2ZM8.80173 10.0165C8.79988 10.2289 8.70482 10.4302 8.54094 10.5687L5.56663 13.0825C5.25279 13.3477 4.77959 13.3127 4.50971 13.0042C4.23983 12.6957 4.27548 12.2306 4.58932 11.9654L6.91411 10.0006L4.57967 7.95829C4.27049 7.6878 4.24295 7.22218 4.51816 6.9183C4.79337 6.61442 5.26711 6.58735 5.57629 6.85784L8.55059 9.45994C8.71204 9.60118 8.80358 9.80405 8.80173 10.0165ZM8.69499 12.7412C8.69499 12.3625 9.00735 12.0555 9.39266 12.0555H14.9741C15.3594 12.0555 15.6717 12.3625 15.6717 12.7412C15.6717 13.1199 15.3594 13.4269 14.9741 13.4269L9.39266 13.4269C9.00735 13.4269 8.69499 13.1199 8.69499 12.7412Z"
    fill="currentColor"
  />
</svg>
