<svg
  xmlns="http://www.w3.org/2000/svg"
  width="20"
  height="20"
  viewBox="0 0 20 20"
  fill="none"
>
  <path
    fill-rule="evenodd"
    clip-rule="evenodd"
    d="M9 0C8.58579 0 8.25 0.340037 8.25 0.759494C8.25 1.17895 8.58579 1.51899 9 1.51899H9.25V3.8326C5.18341 4.21549 2 7.68064 2 11.8987C2 16.3729 5.58172 20 10 20C14.4183 20 18 16.3729 18 11.8987C18 9.20698 16.7036 6.82185 14.7086 5.34866L14.9094 5.00015L15.0446 5.07384C15.4093 5.27264 15.8641 5.13437 16.0604 4.76502C16.2567 4.39566 16.1202 3.93508 15.7555 3.73629L14.1892 2.88258C13.8244 2.68378 13.3696 2.82204 13.1733 3.1914C12.977 3.56075 13.1135 4.02133 13.4783 4.22013L13.5878 4.27982L13.4192 4.57255C12.5968 4.17826 11.6973 3.9218 10.75 3.8326V1.51899H11C11.4142 1.51899 11.75 1.17895 11.75 0.759494C11.75 0.340037 11.4142 0 11 0H9ZM7.48016 8.92385C7.16195 8.65868 6.68903 8.70167 6.42385 9.01988C6.15868 9.33809 6.20167 9.81101 6.51988 10.0762L9.51988 12.5762C9.83809 12.8414 10.311 12.7984 10.5762 12.4802C10.8414 12.1619 10.7984 11.689 10.4802 11.4239L7.48016 8.92385Z"
    fill="currentColor"
  />
</svg>
