<svg
  xmlns="http://www.w3.org/2000/svg"
  width="20"
  height="21"
  viewBox="0 0 20 21"
  fill="none"
>
  <path
    fill-rule="evenodd"
    clip-rule="evenodd"
    d="M2.61816 7.93665C2.61816 3.90851 5.88361 0.643066 9.91174 0.643066C11.5036 0.643066 12.979 1.15419 14.179 2.02108C14.6171 2.33758 14.7156 2.9493 14.3991 3.3874C14.0826 3.82549 13.4709 3.92406 13.0328 3.60756C12.1553 2.97361 11.0786 2.60025 9.91174 2.60025C6.96453 2.60025 4.57535 4.98944 4.57535 7.93665V8.3686C4.57535 8.90906 4.13722 9.34719 3.59676 9.34719C3.0563 9.34719 2.61816 8.90906 2.61816 8.3686V7.93665ZM15.2183 4.37463C15.7077 4.14535 16.2903 4.35624 16.5196 4.84566C16.9598 5.78537 17.2053 6.83369 17.2053 7.93664V13.3495C17.2053 17.3776 13.9399 20.6431 9.91174 20.6431C9.24195 20.6431 8.59173 20.5525 7.97341 20.3824C7.4523 20.2391 7.14606 19.7005 7.2894 19.1793C7.43275 18.6582 7.97139 18.352 8.4925 18.4953C8.9433 18.6193 9.41897 18.6859 9.91174 18.6859C12.8589 18.6859 15.2481 16.2967 15.2481 13.3495V7.93664C15.2481 7.12656 15.0683 6.36119 14.7473 5.67595C14.518 5.18653 14.7289 4.60391 15.2183 4.37463ZM3.59676 10.5284C4.13722 10.5284 4.57535 10.9665 4.57535 11.507V13.3495C4.57535 14.8496 5.19306 16.2037 6.19054 17.1744C6.57788 17.5513 6.58633 18.1708 6.20942 18.5582C5.8325 18.9455 5.21294 18.954 4.8256 18.5771C3.46511 17.2532 2.61816 15.3994 2.61816 13.3495V11.507C2.61816 10.9665 3.0563 10.5284 3.59676 10.5284Z"
    fill="currentColor"
  />
  <path
    fill-rule="evenodd"
    clip-rule="evenodd"
    d="M8.54587 3.65937C8.97437 3.50792 9.43454 3.42594 9.91174 3.42594C12.1749 3.42594 14.0096 5.26062 14.0096 7.5238V13.7623C14.0096 14.2395 13.9276 14.6997 13.7762 15.1282C13.5961 15.6378 13.037 15.9049 12.5274 15.7247C12.0178 15.5446 11.7508 14.9855 11.9309 14.476C12.0093 14.254 12.0524 14.0143 12.0524 13.7623V7.5238C12.0524 6.34154 11.094 5.38313 9.91174 5.38313C9.65979 5.38313 9.42003 5.42624 9.1981 5.50468C8.68853 5.68479 8.12944 5.41771 7.94933 4.90814C7.76922 4.39857 8.0363 3.83948 8.54587 3.65937ZM7.10003 5.85308C7.62608 5.97704 7.95203 6.50399 7.82807 7.03004C7.79094 7.1876 7.77107 7.35275 7.77107 7.5238V13.7623C7.77107 14.9446 8.72948 15.903 9.91174 15.903C10.0344 15.903 10.1539 15.8928 10.2697 15.8734C10.8027 15.7839 11.3073 16.1435 11.3967 16.6766C11.4861 17.2096 11.1265 17.7142 10.5935 17.8036C10.3712 17.8409 10.1433 17.8602 9.91174 17.8602C7.64856 17.8602 5.81388 16.0255 5.81388 13.7623V7.5238C5.81388 7.2005 5.85151 6.88473 5.92306 6.58112C6.04703 6.05506 6.57397 5.72911 7.10003 5.85308Z"
    fill="currentColor"
  />
  <path
    fill-rule="evenodd"
    clip-rule="evenodd"
    d="M9.91174 7.21799C10.4522 7.21799 10.8903 7.65612 10.8903 8.19658V13.0896C10.8903 13.63 10.4522 14.0681 9.91174 14.0681C9.37128 14.0681 8.93315 13.63 8.93315 13.0896L8.93315 8.19658C8.93315 7.65612 9.37128 7.21799 9.91174 7.21799Z"
    fill="currentColor"
  />
</svg>
