<svg
  xmlns="http://www.w3.org/2000/svg"
  width="20"
  height="20"
  viewBox="0 0 20 20"
  fill="none"
>
  <path
    fill-rule="evenodd"
    clip-rule="evenodd"
    d="M7.52025 2.62156C8.19142 1.68007 8.95234 1 10 1C11.0477 1 11.8086 1.68007 12.4797 2.62156C13.1443 3.55384 13.8489 4.92661 14.7392 6.6614L16.9722 11.0122C17.7548 12.537 18.3784 13.7521 18.7123 14.7309C19.0531 15.7298 19.1567 16.6639 18.6562 17.5083C18.1556 18.3526 17.2967 18.6924 16.2716 18.8478C15.2672 19 13.9232 19 12.2366 19H7.76335C6.07676 19 4.73283 19 3.72841 18.8478C2.70327 18.6924 1.84439 18.3526 1.34382 17.5083C0.843262 16.6639 0.946903 15.7298 1.28769 14.7309C1.62159 13.7521 2.24521 12.5371 3.02784 11.0122L5.26082 6.66136C6.15113 4.9266 6.85566 3.55383 7.52025 2.62156ZM10.75 7.4375C10.75 7.02329 10.4142 6.6875 10 6.6875C9.58579 6.6875 9.25 7.02329 9.25 7.4375V11.4375C9.25 11.8517 9.58579 12.1875 10 12.1875C10.4142 12.1875 10.75 11.8517 10.75 11.4375V7.4375ZM10 15.4375C10.5523 15.4375 11 14.9898 11 14.4375C11 13.8852 10.5523 13.4375 10 13.4375C9.44771 13.4375 9 13.8852 9 14.4375C9 14.9898 9.44771 15.4375 10 15.4375Z"
    fill="currentColor"
  />
</svg>
