<svg width="20" height="20" viewBox="0 0 20 20" fill="currentcolor" xmlns="http://www.w3.org/2000/svg">
  <path fill-rule="evenodd" d="M0.0300278 4.95197C0.121594 4.2649 0.417975 3.64258 0.855769 3.14841C1.36202 2.57697 2.05736 2.1769 2.84375 2.04623C2.87964 2.04026 2.91572 2.03486 2.95197 2.03003C3.16262 2.01878 3.38871 2.01175 3.63182 2.00735C5.40788 2.12347 6.8125 3.60082 6.8125 5.40625C6.8125 7.28747 5.28747 8.8125 3.40625 8.8125C1.60082 8.8125 0.123465 7.40788 0.00734955 5.63182C0.0117495 5.38871 0.0187834 5.16262 0.0300278 4.95197ZM3.59375 4.20312C3.59375 3.89718 3.41057 3.63403 3.1479 3.51736C3.05494 3.47607 2.95203 3.45312 2.84375 3.45312C2.50097 3.45312 2.21189 3.68309 2.12239 3.99716C2.10374 4.0626 2.09375 4.1317 2.09375 4.20312V5.70312C2.09375 6.11734 2.42954 6.45312 2.84375 6.45312H4.34375C4.75797 6.45312 5.09375 6.11734 5.09375 5.70312C5.09375 5.28891 4.75797 4.95312 4.34375 4.95312H3.59375V4.20312Z" fill="currentcolor" />
  <path fill-rule="evenodd" d="M6.93737 2C7.78879 2.88244 8.3125 4.08319 8.3125 5.40625C8.3125 8.1159 6.1159 10.3125 3.40625 10.3125C2.08318 10.3125 0.882438 9.78879 0 8.93737L1.78871e-06 13.76C2.03198e-06 14.901 0.853127 15.8428 1.95631 15.9822C2.26888 17.1445 3.33005 18 4.59104 18C5.84558 18 6.90235 17.1532 7.22092 16H11.0982C11.4168 17.1532 12.4736 18 13.7281 18C14.9747 18 16.026 17.164 16.3518 16.022C16.9867 16.022 17.5352 16.0199 17.9776 15.9604C18.4692 15.8943 18.9405 15.7452 19.3227 15.363C19.705 14.9807 19.854 14.5095 19.9201 14.0178C19.9818 13.5591 19.9818 12.9863 19.9817 12.3214L19.9817 10.6921C19.9817 10.1585 19.9817 9.70809 19.9477 9.33657C19.9118 8.94406 19.8339 8.57827 19.6421 8.22912C19.5152 7.99806 19.3557 7.78645 19.1686 7.60079C18.8858 7.32022 18.5557 7.14452 18.1883 7.00179C17.8405 6.86669 17.4076 6.74258 16.8948 6.59555L15 6.0523C14.9995 4.55406 14.9871 3.78463 14.6423 3.21144C14.4318 2.86137 14.1386 2.56822 13.7886 2.35766C13.1939 2 12.3881 2 10.7764 2H6.93737ZM15 12.8578V7.61274L16.4495 8.02832C17.0026 8.18691 17.3689 8.2927 17.6451 8.39998C17.9087 8.5024 18.0307 8.5848 18.1121 8.66561C18.1972 8.75 18.2697 8.84619 18.3273 8.95121C18.3826 9.05178 18.4282 9.19172 18.454 9.47338C18.4671 9.61629 18.474 9.77945 18.4776 9.97512L17 9.97513C16.5858 9.97513 16.25 10.3109 16.25 10.7251C16.25 11.1393 16.5858 11.4751 17 11.4751L18.4817 11.4751V12.272C18.4817 13.0003 18.4801 13.4711 18.4335 13.818C18.3898 14.1433 18.3191 14.2452 18.2621 14.3023C18.205 14.3594 18.103 14.43 17.7777 14.4738C17.4503 14.5178 17.0125 14.5217 16.3519 14.522C16.1461 13.8007 15.651 13.2014 15 12.8578ZM3.60193 16C3.82555 16.3033 4.18532 16.5 4.59104 16.5C4.99676 16.5 5.35653 16.3033 5.58015 16C5.73038 15.7963 5.81916 15.5444 5.81916 15.2719C5.81916 14.5936 5.26931 14.0438 4.59104 14.0438C3.91276 14.0438 3.36291 14.5936 3.36291 15.2719C3.36291 15.5444 3.4517 15.7963 3.60193 16ZM12.7368 15.9969C12.9602 16.3019 13.321 16.5 13.7281 16.5C14.4064 16.5 14.9562 15.9502 14.9562 15.2719C14.9562 15.1429 14.9364 15.0186 14.8995 14.9018C14.7425 14.4044 14.2774 14.0438 13.7281 14.0438C13.0498 14.0438 12.5 14.5936 12.5 15.2719C12.5 15.5431 12.5879 15.7937 12.7368 15.9969Z" fill="currentcolor" />
</svg>
