<svg width="20" height="20" viewBox="0 0 20 20" fill="currentcolor" xmlns="http://www.w3.org/2000/svg">
  <path fill-rule="evenodd" d="M10.7862 2H5.00457C2.6454 2 1.46581 2 0.732903 2.73223C0 3.46447 0 4.64298 0 7L2.50958e-06 13.76C2.75308e-06 14.901 0.853908 15.8428 1.9581 15.9822C2.27096 17.1445 3.3331 18 4.59524 18C5.85093 18 6.90866 17.1532 7.22753 16H11.1084C11.4273 17.1532 12.485 18 13.7407 18C14.9884 18 16.0406 17.164 16.3668 16.022C17.0022 16.022 17.5512 16.0199 17.994 15.9604C18.4861 15.8943 18.9578 15.7452 19.3404 15.363C19.723 14.9807 19.8722 14.5095 19.9383 14.0178C20.0001 13.5591 20 12.9863 20 12.3214L20 10.6921C20 10.1585 20 9.70809 19.966 9.33657C19.93 8.94406 19.852 8.57827 19.6601 8.22912C19.5331 7.99806 19.3734 7.78645 19.1861 7.60079C18.9031 7.32022 18.5726 7.14452 18.2049 7.00179C17.8569 6.86669 17.4235 6.74257 16.9101 6.59553L15.0137 6.0523C15.0133 4.55406 15.0008 3.78463 14.6557 3.21144C14.445 2.86137 14.1516 2.56822 13.8012 2.35766C13.206 2 12.3994 2 10.7862 2ZM15.0137 7.61274V12.8578C15.6653 13.2014 16.1609 13.8007 16.3668 14.522C17.028 14.5217 17.4662 14.5178 17.794 14.4738C18.1196 14.43 18.2216 14.3594 18.2788 14.3023C18.3359 14.2452 18.4066 14.1433 18.4504 13.818C18.497 13.4711 18.4986 13.0003 18.4986 12.272V11.4751L17.0156 11.4751C16.601 11.4751 16.2649 11.1393 16.2649 10.7251C16.2649 10.3109 16.601 9.97513 17.0155 9.97513L18.4945 9.97512C18.4909 9.77945 18.484 9.61629 18.4709 9.47338C18.445 9.19172 18.3994 9.05178 18.3441 8.95121C18.2864 8.84619 18.2138 8.75 18.1287 8.66561C18.0472 8.5848 17.9251 8.5024 17.6612 8.39998C17.3848 8.2927 17.0182 8.18691 16.4645 8.02832L15.0137 7.61274ZM4.59524 16.5C4.18915 16.5 3.82905 16.3033 3.60522 16C3.45486 15.7963 3.36599 15.5444 3.36599 15.2719C3.36599 14.5936 3.91634 14.0438 4.59524 14.0438C5.27413 14.0438 5.82449 14.5936 5.82449 15.2719C5.82449 15.5444 5.73562 15.7963 5.58526 16C5.36143 16.3033 5.00133 16.5 4.59524 16.5ZM13.7407 16.5C13.3332 16.5 12.9721 16.3019 12.7484 15.9969C12.5994 15.7937 12.5114 15.5431 12.5114 15.2719C12.5114 14.5936 13.0618 14.0438 13.7407 14.0438C14.2905 14.0438 14.756 14.4044 14.9131 14.9018C14.95 15.0186 14.9699 15.1429 14.9699 15.2719C14.9699 15.9502 14.4196 16.5 13.7407 16.5Z" fill="currentcolor" />
</svg>
