<svg width="20" height="20" viewBox="0 0 20 20" fill="currentColor" xmlns="http://www.w3.org/2000/svg">
  <path fill-rule="evenodd" d="M10.0002 12.3662C10.4208 12.3662 10.7618 12.7067 10.7618 13.1267V16.8032C10.7618 18.0164 9.77687 19 8.56195 19C7.72871 19 6.967 18.5299 6.59437 17.7856L6.52646 17.65C6.33836 17.2743 6.49085 16.8174 6.86706 16.6296C7.24327 16.4417 7.70074 16.594 7.88885 16.9697L7.95675 17.1053C8.07137 17.3343 8.30566 17.4789 8.56195 17.4789C8.93564 17.4789 9.23857 17.1763 9.23857 16.8032V13.1267C9.23857 12.7067 9.57955 12.3662 10.0002 12.3662Z" fill="currentColor" />
  <path d="M10.7614 1.76057C10.7614 1.34052 10.4204 1 9.99982 1C9.5792 1 9.23822 1.34052 9.23822 1.76057V1.94988C6.82257 2.08053 5.0644 2.83318 3.80051 3.877C2.4179 5.01886 1.68945 6.45705 1.30523 7.64372L1.28789 7.69721C1.16531 8.07515 1.03747 8.46931 1.00723 8.84659C0.970545 9.30427 1.07257 9.71859 1.33388 10.1448C1.60852 10.5928 1.96246 10.8681 2.41023 11.0405C2.78547 11.1849 3.23588 11.257 3.69402 11.3304L3.75108 11.3395C5.24036 11.5784 7.38275 11.817 10 11.817C12.6172 11.817 14.7596 11.5784 16.2489 11.3395L16.306 11.3304C16.7641 11.257 17.2145 11.1849 17.5898 11.0405C18.0375 10.8681 18.3915 10.5928 18.6661 10.1448C18.9274 9.71859 19.0295 9.30427 18.9928 8.84659C18.9625 8.46932 18.8347 8.07517 18.7121 7.69724L18.6948 7.64372C18.3105 6.45705 17.5821 5.01886 16.1995 3.877C14.9355 2.83312 13.1773 2.08046 10.7614 1.94986V1.76057Z" fill="currentColor" />
</svg>
