<svg width="20" height="20" viewBox="0 0 20 20" fill="currentColor" xmlns="http://www.w3.org/2000/svg">
  <path fill-rule="evenodd" d="M9.68862 2.96587C7.63414 2.96587 5.78412 3.84432 4.49592 5.24756L6.6399 5.08804C7.18194 5.04771 7.65409 5.45388 7.69447 5.99524C7.73485 6.5366 7.32817 7.00815 6.78613 7.04848L2.59755 7.36012C2.33421 7.37971 2.07403 7.29279 1.8755 7.11889C1.67697 6.94499 1.55674 6.6987 1.54183 6.43539L1.3016 2.19201C1.27092 1.65001 1.68597 1.1858 2.22865 1.15515C2.77133 1.12451 3.23614 1.53904 3.26682 2.08103L3.35283 3.60028C4.98004 1.99328 7.21776 1 9.68862 1C14.6655 1 18.7 5.02944 18.7 10C18.7 14.9706 14.6655 19 9.68862 19C7.49559 19 5.48324 18.2164 3.92082 16.9152C3.50335 16.5676 3.44712 15.9477 3.79521 15.5308C4.1433 15.1139 4.76391 15.0577 5.18137 15.4054C6.40315 16.4228 7.97311 17.0341 9.68862 17.0341C13.5784 17.0341 16.7316 13.8848 16.7316 10C16.7316 6.11516 13.5784 2.96587 9.68862 2.96587Z" fill="currentColor" />
</svg>
