<svg width="20" height="20" viewBox="0 0 20 20" fill="currentColor" xmlns="http://www.w3.org/2000/svg">
  <path fill-rule="evenodd" d="M7.2244 1.28402C7.60309 1.66271 7.60309 2.27669 7.2244 2.65538L5.31075 4.56902H12.7845C16.7695 4.56902 20 7.79951 20 11.7845C20 15.7695 16.7695 19 12.7845 19H2.9697C2.43415 19 2 18.5659 2 18.0303C2 17.4948 2.43415 17.0606 2.9697 17.0606H12.7845C15.6984 17.0606 18.0606 14.6984 18.0606 11.7845C18.0606 8.87061 15.6984 6.50842 12.7845 6.50842H5.31075L7.2244 8.42207C7.60309 8.80076 7.60309 9.41473 7.2244 9.79342C6.84571 10.1721 6.23173 10.1721 5.85304 9.79342L2.28402 6.2244C1.90533 5.84571 1.90533 5.23173 2.28402 4.85304L5.85304 1.28402C6.23173 0.905327 6.84571 0.905327 7.2244 1.28402Z" fill="currentColor" />
</svg>
