<svg
  xmlns="http://www.w3.org/2000/svg"
  width="20"
  height="20"
  viewBox="0 0 20 20"
  fill="none"
>
  <path
    fill-rule="evenodd"
    clip-rule="evenodd"
    d="M9.6886 2.96587C7.63412 2.96587 5.7841 3.84432 4.4959 5.24756L6.63988 5.08804C7.18193 5.04771 7.65408 5.45388 7.69446 5.99524C7.73484 6.5366 7.32816 7.00815 6.78611 7.04848L2.59754 7.36012C2.3342 7.37971 2.07402 7.29279 1.87549 7.11889C1.67695 6.94499 1.55672 6.6987 1.54181 6.43539L1.30159 2.19201C1.2709 1.65001 1.68596 1.1858 2.22864 1.15515C2.77132 1.12451 3.23612 1.53904 3.2668 2.08103L3.35281 3.60028C4.98002 1.99328 7.21774 1 9.6886 1C14.6655 1 18.7 5.02944 18.7 10C18.7 14.9706 14.6655 19 9.6886 19C7.49557 19 5.48323 18.2164 3.9208 16.9152C3.50334 16.5676 3.4471 15.9477 3.7952 15.5308C4.14329 15.1139 4.76389 15.0577 5.18136 15.4054C6.40313 16.4228 7.97309 17.0341 9.6886 17.0341C13.5784 17.0341 16.7316 13.8848 16.7316 10C16.7316 6.11516 13.5784 2.96587 9.6886 2.96587Z"
    fill="currentColor"
  />
</svg>
