<svg
  xmlns="http://www.w3.org/2000/svg"
  width="20"
  height="20"
  viewBox="0 0 20 20"
  fill="none"
>
  <path
    fill-rule="evenodd"
    clip-rule="evenodd"
    d="M6.2244 1.28402C6.60309 1.66271 6.60309 2.27669 6.2244 2.65538L4.31075 4.56902L9.37486 4.56902C11.3709 4.569 12.9674 4.56898 14.2203 4.73743C15.5161 4.91165 16.5887 5.28188 17.4379 6.13112C18.2871 6.98036 18.6574 8.05288 18.8316 9.34869C19 10.6016 19 12.1981 19 14.1942V18.0303C19 18.5659 18.5659 19 18.0303 19C17.4948 19 17.0606 18.5659 17.0606 18.0303V14.266C17.0606 12.1815 17.0585 10.7158 16.9095 9.60711C16.7642 8.52636 16.4954 7.93132 16.0665 7.50248C15.6377 7.07364 15.0427 6.80483 13.9619 6.65953C12.8533 6.51048 11.3875 6.50842 9.30303 6.50842H4.31075L6.2244 8.42207C6.60309 8.80076 6.60309 9.41473 6.2244 9.79342C5.84571 10.1721 5.23173 10.1721 4.85304 9.79342L1.28402 6.2244C0.905327 5.84571 0.905327 5.23173 1.28402 4.85304L4.85304 1.28402C5.23173 0.905327 5.84571 0.905327 6.2244 1.28402Z"
    fill="currentColor"
  />
</svg>
