<svg
  xmlns="http://www.w3.org/2000/svg"
  width="20"
  height="20"
  viewBox="0 0 20 20"
  fill="none"
>
  <path
    fill-rule="evenodd"
    clip-rule="evenodd"
    d="M3.925 4.87343C3.925 2.65131 5.92647 1 8.2 1C10.4735 1 12.475 2.65131 12.475 4.87343C12.475 7.09554 10.4735 8.74685 8.2 8.74685C5.92647 8.74685 3.925 7.09554 3.925 4.87343ZM2.60379 18.9891C2.7016 19 2.81784 19 3.05032 19H13.3497C13.5822 19 13.6984 19 13.7962 18.9891C14.635 18.896 15.2973 18.2253 15.3893 17.3759C15.4 17.2769 15.4 17.1591 15.4 16.9237V16.4647C15.4 14.5799 14.4314 12.8309 12.8433 11.8481C9.99281 10.0841 6.40719 10.0841 3.55675 11.8481C1.96861 12.8309 1 14.5799 1 16.4647V16.9237C1 17.1591 1 17.2769 1.01073 17.3759C1.10271 18.2253 1.76501 18.896 2.60379 18.9891Z"
    fill="currentColor"
  />
  <path
    d="M16.5251 1.15497C16.1137 1.15497 15.7801 1.48852 15.7801 1.89997V2.95497L14.7251 2.95497C14.3137 2.95497 13.9801 3.28852 13.9801 3.69997C13.9801 4.11142 14.3137 4.44497 14.7251 4.44497H15.7801V5.49997C15.7801 5.91142 16.1137 6.24497 16.5251 6.24497C16.9366 6.24497 17.2701 5.91142 17.2701 5.49997V4.44497H18.3251C18.7366 4.44497 19.0701 4.11142 19.0701 3.69997C19.0701 3.28852 18.7366 2.95497 18.3251 2.95497L17.2701 2.95497V1.89997C17.2701 1.48852 16.9366 1.15497 16.5251 1.15497Z"
    fill="currentColor"
  />
</svg>
