<svg width="20" height="20" viewBox="0 0 20 20" fill="currentColor" xmlns="http://www.w3.org/2000/svg">
  <path d="M17.9468 12.6528C19.2221 13.3443 20 14.5748 20 15.9009L20 16.1997C20.0001 16.3132 20.0001 16.4146 19.9887 16.5068C19.8922 17.2877 19.1972 17.9043 18.3169 17.99C18.2131 18.0001 18.0987 18 17.9709 18L14.6064 18C14.4479 18 14.3686 18 14.3355 17.9548C14.3024 17.9097 14.2988 17.8192 14.3926 17.6933C15.5248 16.1735 15.1047 13.4286 14.169 12.0366C14.077 11.8997 14.0565 11.8168 14.091 11.7679C14.1256 11.719 14.2081 11.7222 14.3732 11.7286C15.4862 11.7717 16.9601 12.1179 17.9468 12.6528Z" fill="currentColor" />
  <path fill-rule="evenodd" d="M6.98483 2C4.9535 2 3.14257 3.43033 3.14257 5.38044C3.14257 7.33056 4.9535 8.76089 6.98483 8.76089C9.01617 8.76089 10.8271 7.33056 10.8271 5.38044C10.8271 3.43033 9.01617 2 6.98483 2ZM14.694 4.74285C12.988 4.74285 11.4409 5.94697 11.4409 7.61803C11.4409 9.2891 12.988 10.4932 14.694 10.4932C16.3999 10.4932 17.947 9.2891 17.947 7.61803C17.947 5.94697 16.3999 4.74285 14.694 4.74285Z" fill="currentColor" />
  <path fill-rule="evenodd" d="M11.403 10.6874C8.69072 9.06311 5.27896 9.06311 2.56673 10.6874C0.972398 11.6423 1.66926e-05 13.3414 1.66926e-05 15.1725L8.18454e-06 15.5944C-5.37627e-05 15.7595 -0.000104644 15.895 0.0135496 16.017C0.129598 17.0541 0.965198 17.873 2.02345 17.9867C2.14796 18.0001 2.28622 18.0001 2.45468 18H11.515C11.6834 18.0001 11.8217 18.0001 11.9462 17.9867C13.0045 17.873 13.8401 17.0541 13.9561 16.017C13.9698 15.895 13.9697 15.7595 13.9697 15.5944L13.9697 15.1725C13.9697 13.3414 12.9973 11.6423 11.403 10.6874Z" fill="currentColor" />
</svg>
