<svg
  xmlns="http://www.w3.org/2000/svg"
  width="20"
  height="20"
  viewBox="0 0 20 20"
  fill="none"
>
  <path
    fill-rule="evenodd"
    clip-rule="evenodd"
    d="M1.9764 11.4646C2.51565 11.4646 2.9528 11.9018 2.9528 12.441V12.9292C2.9528 13.7236 2.95331 14.2714 2.98195 14.6991C3.01003 15.1182 3.06195 15.3516 3.13187 15.5239C3.37988 16.1352 3.86479 16.6201 4.47613 16.8681C4.64845 16.938 4.8818 16.99 5.30094 17.018C5.72862 17.0467 6.27642 17.0472 7.0708 17.0472C7.61005 17.0472 8.0472 17.4843 8.0472 18.0236C8.0472 18.5629 7.61005 19 7.0708 19H7.03731C6.28446 19 5.67111 19 5.17044 18.9665C4.65382 18.9319 4.18758 18.8585 3.74199 18.6777C2.64159 18.2313 1.76875 17.3584 1.32231 16.258C1.14154 15.8124 1.06812 15.3462 1.03352 14.8296C0.999987 14.3289 0.999993 13.7155 1 12.9627L1 12.441C1 11.9018 1.43715 11.4646 1.9764 11.4646Z"
    fill="currentColor"
  />
  <path
    fill-rule="evenodd"
    clip-rule="evenodd"
    d="M1.9764 8.5354C2.51565 8.5354 2.9528 8.09825 2.9528 7.559V7.0708C2.9528 6.27642 2.95331 5.72862 2.98195 5.30094C3.01003 4.8818 3.06195 4.64845 3.13187 4.47613C3.37988 3.8648 3.86479 3.37988 4.47613 3.13186C4.64845 3.06195 4.8818 3.01003 5.30094 2.98195C5.72862 2.95331 6.27642 2.9528 7.0708 2.9528C7.61005 2.9528 8.0472 2.51565 8.0472 1.9764C8.0472 1.43715 7.61005 1 7.0708 1H7.03731C6.28446 0.999993 5.67111 0.999987 5.17044 1.03352C4.65382 1.06812 4.18758 1.14154 3.74199 1.32231C2.64159 1.76875 1.76875 2.64159 1.32231 3.74199C1.14154 4.18758 1.06812 4.65382 1.03352 5.17044C0.999987 5.67111 0.999993 6.28446 1 7.0373L1 7.559C1 8.09825 1.43715 8.5354 1.9764 8.5354Z"
    fill="currentColor"
  />
  <path
    fill-rule="evenodd"
    clip-rule="evenodd"
    d="M18.0236 11.9528C18.5629 11.9528 19 12.39 19 12.9292V12.9627C19 13.7155 19 14.3289 18.9665 14.8296C18.9319 15.3462 18.8585 15.8124 18.6777 16.258C18.2313 17.3584 17.3584 18.2313 16.258 18.6777C15.8124 18.8585 15.3462 18.9319 14.8296 18.9665C14.3289 19 13.7155 19 12.9627 19H12.441C11.9018 19 11.4646 18.5629 11.4646 18.0236C11.4646 17.4843 11.9018 17.0472 12.441 17.0472H12.9292C13.7236 17.0472 14.2714 17.0467 14.6991 17.018C15.1182 16.99 15.3516 16.938 15.5239 16.8681C16.1352 16.6201 16.6201 16.1352 16.8681 15.5239C16.938 15.3516 16.99 15.1182 17.018 14.6991C17.0467 14.2714 17.0472 13.7236 17.0472 12.9292C17.0472 12.39 17.4843 11.9528 18.0236 11.9528Z"
    fill="currentColor"
  />
  <path
    fill-rule="evenodd"
    clip-rule="evenodd"
    d="M14.6991 2.98196C14.2714 2.95331 13.7236 2.9528 12.9292 2.9528C12.39 2.9528 11.9528 2.51565 11.9528 1.9764C11.9528 1.43715 12.39 1 12.9292 1L12.9627 1C13.7155 0.999993 14.3289 0.999987 14.8296 1.03352C15.3462 1.06812 15.8124 1.14154 16.258 1.32232C17.3584 1.76875 18.2313 2.64159 18.6777 3.74199C18.8585 4.18758 18.9319 4.65382 18.9665 5.17044C19 5.67111 19 6.28446 19 7.03731V7.559C19 8.09825 18.5629 8.5354 18.0236 8.5354C17.4843 8.5354 17.0472 8.09825 17.0472 7.559V7.0708C17.0472 6.27642 17.0467 5.72862 17.018 5.30094C16.99 4.8818 16.938 4.64845 16.8681 4.47613C16.6201 3.8648 16.1352 3.37988 15.5239 3.13187C15.3516 3.06195 15.1182 3.01003 14.6991 2.98196Z"
    fill="currentColor"
  />
  <path
    fill-rule="evenodd"
    clip-rule="evenodd"
    d="M5.118 7.10131C5.65725 7.10131 6.0944 7.53846 6.0944 8.07771V11.9223C6.0944 12.4615 5.65725 12.8987 5.118 12.8987C4.57875 12.8987 4.1416 12.4615 4.1416 11.9223V8.07771C4.1416 7.53846 4.57875 7.10131 5.118 7.10131Z"
    fill="currentColor"
  />
  <path
    fill-rule="evenodd"
    clip-rule="evenodd"
    d="M7.559 5.94803C8.09825 5.94803 8.5354 6.38518 8.5354 6.92443L8.5354 13.0758C8.5354 13.615 8.09825 14.0522 7.559 14.0522C7.01975 14.0522 6.5826 13.615 6.5826 13.0758L6.5826 6.92443C6.5826 6.38518 7.01975 5.94803 7.559 5.94803Z"
    fill="currentColor"
  />
  <path
    fill-rule="evenodd"
    clip-rule="evenodd"
    d="M10 5.17902C10.5393 5.17902 10.9764 5.61617 10.9764 6.15542L10.9764 13.8446C10.9764 14.3838 10.5393 14.821 10 14.821C9.46075 14.821 9.0236 14.3838 9.0236 13.8446L9.0236 6.15542C9.0236 5.61617 9.46075 5.17902 10 5.17902Z"
    fill="currentColor"
  />
  <path
    fill-rule="evenodd"
    clip-rule="evenodd"
    d="M12.441 5.94803C12.9803 5.94803 13.4174 6.38518 13.4174 6.92443L13.4174 13.0758C13.4174 13.615 12.9803 14.0522 12.441 14.0522C11.9018 14.0522 11.4646 13.615 11.4646 13.0758L11.4646 6.92443C11.4646 6.38518 11.9018 5.94803 12.441 5.94803Z"
    fill="currentColor"
  />
  <path
    fill-rule="evenodd"
    clip-rule="evenodd"
    d="M14.882 7.10131C15.4213 7.10131 15.8584 7.53846 15.8584 8.07771V11.9223C15.8584 12.4615 15.4213 12.8987 14.882 12.8987C14.3428 12.8987 13.9056 12.4615 13.9056 11.9223V8.07771C13.9056 7.53846 14.3428 7.10131 14.882 7.10131Z"
    fill="currentColor"
  />
</svg>
