<svg
  xmlns="http://www.w3.org/2000/svg"
  width="20"
  height="20"
  viewBox="0 0 20 20"
  fill="none"
>
  <path
    d="M7.73913 15.8975C7.24259 15.474 7.0856 15.3473 6.9115 15.2649C6.7374 15.1824 6.53959 15.1411 5.89615 15.0247L5.64279 14.9789C4.85092 14.8356 4.19951 14.7178 3.68422 14.563C3.14465 14.4009 2.68142 14.1785 2.30763 13.7817C2.22914 13.6984 2.15554 13.6107 2.0872 13.5189C1.76174 13.082 1.62468 12.5888 1.56089 12.0316C1.49997 11.4995 1.49999 10.8407 1.5 10.04V9.96005C1.49999 9.15929 1.49997 8.50051 1.56089 7.9684C1.62468 7.41121 1.76174 6.91796 2.0872 6.48108C2.15554 6.38934 2.22914 6.3016 2.30763 6.21829C2.68142 5.82155 3.14465 5.59914 3.68422 5.43702C4.19951 5.2822 4.85094 5.16437 5.64281 5.02114L5.89615 4.97531C6.53959 4.85891 6.7374 4.81757 6.9115 4.73512C7.0856 4.65267 7.24259 4.52599 7.73913 4.10253L9.44573 2.6471C9.93537 2.22953 10.559 2 11.2039 2C12.6959 2 13.9054 3.20342 13.9054 4.68791V15.3121C13.9054 16.7966 12.6959 18 11.2039 18C10.559 18 9.93537 17.7705 9.44573 17.3529L7.73913 15.8975Z"
    fill="currentColor"
  />
  <path
    d="M15.2143 7.18575C15.353 6.79552 15.7833 6.59143 16.175 6.72914C17.5283 7.20479 18.5 8.48835 18.5 9.99986C18.5 11.5114 17.5283 12.7949 16.175 13.2706C15.7833 13.4083 15.353 13.2042 15.2143 12.814C15.0756 12.4236 15.2814 11.9956 15.6734 11.8578C16.444 11.587 16.9941 10.8562 16.9941 9.99986C16.9941 9.14349 16.444 8.41274 15.6734 8.14189C15.2814 8.00412 15.0756 7.57616 15.2143 7.18575Z"
    fill="currentColor"
  />
</svg>
