<svg width="20" height="20" viewBox="0 0 20 20" fill="currentColor" xmlns="http://www.w3.org/2000/svg">
  <path fill-rule="evenodd" d="M4.43823 1H14.6154C14.9977 1 15.3077 1.30996 15.3077 1.69231C15.3077 2.07466 14.9977 2.38462 14.6154 2.38462H4.46154C4.02197 2.38462 3.72696 2.38499 3.49853 2.40058C3.27632 2.41574 3.16812 2.44295 3.0969 2.47245C2.81418 2.58956 2.58956 2.81418 2.47245 3.0969C2.44295 3.16812 2.41574 3.27632 2.40058 3.49853C2.39507 3.57929 2.39146 3.66838 2.38909 3.76923L11.4298 3.76923C12.9088 3.76922 14.0805 3.76921 15.0075 3.87878C15.9591 3.99127 16.7425 4.22743 17.397 4.76449C17.619 4.94669 17.8225 5.15027 18.0047 5.37228C18.5418 6.02669 18.778 6.8101 18.8904 7.76177C19 8.68873 19 9.86044 19 11.3394V11.4298C19 12.9088 19 14.0805 18.8904 15.0075C18.778 15.9591 18.5418 16.7425 18.0047 17.397C17.8225 17.619 17.619 17.8225 17.397 18.0047C16.7425 18.5418 15.9591 18.778 15.0075 18.8904C14.0805 19 12.9088 19 11.4298 19H9.02475C7.32842 19 5.98477 19 4.93321 18.8586C3.85098 18.7131 2.97502 18.4066 2.28423 17.7158C1.59343 17.025 1.28686 16.149 1.14136 15.0668C0.999976 14.0152 0.999987 12.6716 1 10.9752V4.43821C0.999995 4.02796 0.99999 3.68545 1.01917 3.40428C1.03914 3.11157 1.0822 2.83509 1.19323 2.56704C1.45087 1.94504 1.94504 1.45087 2.56704 1.19323C2.83509 1.0822 3.11157 1.03914 3.40428 1.01917C3.68545 0.999989 4.02798 0.999994 4.43823 1ZM15 13C15.5523 13 16 12.5523 16 12C16 11.4477 15.5523 11 15 11C14.4477 11 14 11.4477 14 12C14 12.5523 14.4477 13 15 13Z" fill="currentColor" />
</svg>
