<svg width="20" height="20" viewBox="0 0 20 20" fill="currentcolor" xmlns="http://www.w3.org/2000/svg">
  <path d="M10.5465 2.3521L11.5027 2.75053C11.6652 2.81822 11.6652 3.04835 11.5027 3.11604L10.5465 3.51447C10.4897 3.53811 10.4472 3.58679 10.4313 3.6462L10.1528 4.69068C10.1005 4.88664 9.82247 4.88664 9.77021 4.69068L9.49168 3.6462C9.47584 3.58679 9.43329 3.53811 9.37653 3.51447L8.4203 3.11604C8.25785 3.04835 8.25785 2.81822 8.4203 2.75053L9.37653 2.3521C9.43329 2.32845 9.47584 2.27978 9.49168 2.22036L9.77021 1.17588C9.82247 0.979926 10.1005 0.979926 10.1528 1.17588L10.4313 2.22036C10.4472 2.27978 10.4897 2.32845 10.5465 2.3521Z" fill="currentcolor" />
  <path d="M6.99373 3.70271L8.30471 4.24253C8.54991 4.34349 8.54991 4.69077 8.30471 4.79173L6.99373 5.33155C6.91392 5.36441 6.85236 5.43036 6.82507 5.51224L6.28362 7.1366C6.19337 7.40735 5.8104 7.40735 5.72015 7.1366L5.1787 5.51224C5.1514 5.43036 5.08984 5.36441 5.01004 5.33155L3.69906 4.79173C3.45386 4.69077 3.45386 4.34349 3.69906 4.24253L5.01004 3.70271C5.08984 3.66985 5.1514 3.6039 5.1787 3.52202L5.72015 1.89766C5.8104 1.62691 6.19337 1.62691 6.28362 1.89766L6.82507 3.52202C6.85236 3.6039 6.91392 3.66985 6.99373 3.70271Z" fill="currentcolor" />
  <path d="M16.6556 13.7255L18.7437 14.6391C18.981 14.7429 18.981 15.0794 18.7437 15.1832L16.6556 16.0968C16.5802 16.1298 16.5218 16.1926 16.4945 16.2703L15.6861 18.569C15.5931 18.8336 15.2189 18.8336 15.1258 18.569L14.3175 16.2703C14.2902 16.1926 14.2318 16.1298 14.1564 16.0968L12.0682 15.1832C11.831 15.0794 11.831 14.7428 12.0682 14.6391L14.1564 13.7255C14.2318 13.6925 14.2902 13.6296 14.3175 13.5519L15.1258 11.2532C15.2189 10.9886 15.5931 10.9886 15.6861 11.2532L16.4945 13.5519C16.5218 13.6296 16.5802 13.6925 16.6556 13.7255Z" fill="currentcolor" />
  <path fill-rule="evenodd" d="M17.3147 1.56538C16.5608 0.811542 15.3386 0.811541 14.5848 1.56538L1.56538 14.5848C0.811541 15.3386 0.811541 16.5608 1.56538 17.3147L2.68533 18.4346C3.43916 19.1885 4.66137 19.1885 5.41521 18.4346L18.4346 5.41522C18.8116 5.0383 19 4.54428 19 4.05026C19 3.55627 18.8116 3.06227 18.4347 2.68536L17.3147 1.56538ZM16.2647 2.61535C16.0908 2.44139 15.8087 2.44139 15.6348 2.61535L12.7999 5.45022L14.5498 7.20012L17.3847 4.36525C17.4657 4.28422 17.509 4.17975 17.5145 4.07367C17.5194 3.98047 17.4951 3.88602 17.4417 3.80516C17.4254 3.78046 17.4064 3.75704 17.3847 3.7353" fill="currentcolor" />
</svg>
