<svg
  xmlns="http://www.w3.org/2000/svg"
  width="20"
  height="20"
  viewBox="0 0 20 20"
  fill="none"
>
  <path
    d="M16.5871 13.7249C16.9585 14.0613 17.5153 14.3179 18.0431 14.5035C18.6029 14.7004 18.8829 14.7989 18.8829 14.8908C18.8829 14.9828 18.6029 15.0813 18.0431 15.2782C17.5153 15.4638 16.9585 15.7204 16.5871 16.0568C16.1299 16.471 15.8011 17.1443 15.5729 17.7902C15.3386 18.4532 15.2214 18.7847 15.1296 18.7847C15.0377 18.7847 14.9206 18.4532 14.6863 17.7902C14.4581 17.1443 14.1293 16.471 13.6721 16.0568C13.3007 15.7204 12.7439 15.4638 12.2161 15.2782C11.6562 15.0813 11.3763 14.9828 11.3763 14.8908C11.3763 14.7989 11.6562 14.7004 12.2161 14.5035C12.7439 14.3179 13.3007 14.0613 13.6721 13.7249C14.1293 13.3107 14.4581 12.6374 14.6863 11.9915C14.9206 11.3285 15.0377 10.997 15.1296 10.997C15.2214 10.997 15.3386 11.3285 15.5729 11.9915C15.8011 12.6374 16.1299 13.3107 16.5871 13.7249Z"
    fill="currentColor"
  />
  <path
    d="M6.12192 4.90809C6.37102 5.13374 6.73399 5.31032 7.09023 5.44287C7.53252 5.60745 7.75367 5.68974 7.75367 5.76207C7.75367 5.83439 7.53252 5.91668 7.09023 6.08126C6.73399 6.21382 6.37102 6.3904 6.12192 6.61604C5.81488 6.89417 5.5869 7.33193 5.42228 7.76742C5.22501 8.28931 5.12637 8.55026 5.05445 8.55026C4.98252 8.55026 4.88389 8.28932 4.68661 7.76742C4.522 7.33192 4.29402 6.89417 3.98698 6.61604C3.73787 6.3904 3.3749 6.21382 3.01867 6.08126C2.57637 5.91668 2.35522 5.83439 2.35522 5.76207C2.35522 5.68974 2.57637 5.60745 3.01867 5.44287C3.3749 5.31032 3.73787 5.13374 3.98698 4.90809C4.29402 4.62996 4.522 4.19221 4.68662 3.75671C4.88389 3.23482 4.98252 2.97387 5.05445 2.97387C5.12637 2.97387 5.22501 3.23482 5.42228 3.75671C5.5869 4.19221 5.81488 4.62996 6.12192 4.90809Z"
    fill="currentColor"
  />
  <path
    d="M9.69564 3.39265C9.85769 3.53944 10.0938 3.65431 10.3256 3.74055C10.6133 3.84761 10.7572 3.90115 10.7572 3.94819C10.7572 3.99524 10.6133 4.04878 10.3256 4.15584C10.0938 4.24207 9.85769 4.35695 9.69564 4.50374C9.4959 4.68467 9.34758 4.96944 9.2405 5.25275C9.11216 5.59226 9.048 5.76202 9.00121 5.76202C8.95442 5.76202 8.89025 5.59226 8.76192 5.25275C8.65483 4.96944 8.50652 4.68467 8.30678 4.50374C8.14473 4.35695 7.9086 4.24207 7.67686 4.15584C7.38913 4.04878 7.24526 3.99524 7.24526 3.94819C7.24526 3.90115 7.38913 3.84761 7.67686 3.74055C7.9086 3.65431 8.14473 3.53944 8.30678 3.39265C8.50652 3.21172 8.65483 2.92694 8.76192 2.64364C8.89025 2.30413 8.95442 2.13437 9.00121 2.13437C9.048 2.13437 9.11216 2.30413 9.2405 2.64364C9.34758 2.92695 9.4959 3.21172 9.69564 3.39265Z"
    fill="currentColor"
  />
  <path
    fill-rule="evenodd"
    clip-rule="evenodd"
    d="M17.9471 2.05294L17.874 1.97975C17.5541 1.65884 17.269 1.37289 16.9364 1.21271C16.3475 0.929098 15.6614 0.929098 15.0725 1.21271C14.7399 1.37289 14.4548 1.65884 14.1349 1.97975L14.0618 2.05294L2.05294 14.0618L1.97975 14.1349C1.65884 14.4548 1.37288 14.7399 1.21271 15.0725C0.929098 15.6614 0.929098 16.3475 1.21271 16.9364C1.37289 17.269 1.65884 17.5541 1.97976 17.874L2.05294 17.9471L2.12597 18.0202C2.44592 18.3412 2.73101 18.6271 3.06363 18.7873C3.65255 19.0709 4.33856 19.0709 4.92748 18.7873C5.2601 18.6271 5.54518 18.3412 5.86513 18.0202L5.93817 17.9471L17.9471 5.93817L18.0202 5.86513C18.3412 5.54518 18.6271 5.2601 18.7873 4.92748C19.0709 4.33856 19.0709 3.65255 18.7873 3.06363C18.6271 2.73101 18.3412 2.44592 18.0202 2.12598L17.9471 2.05294ZM16.2862 2.56282C16.3567 2.59677 16.4485 2.67362 16.8875 3.11255C17.3264 3.55147 17.4032 3.64332 17.4372 3.71381C17.5229 3.89185 17.5229 4.09925 17.4372 4.2773C17.4032 4.34779 17.3264 4.43964 16.8875 4.87856L15.2979 6.46811C14.9649 6.80111 14.7984 6.96761 14.5915 6.96761C14.3846 6.96761 14.2181 6.80111 13.8851 6.46811L13.5319 6.1149C13.1989 5.7819 13.0324 5.6154 13.0324 5.4085C13.0324 5.2016 13.1989 5.0351 13.5319 4.70209L15.1214 3.11255C15.5604 2.67362 15.6522 2.59677 15.7227 2.56282C15.9007 2.47708 16.1081 2.47708 16.2862 2.56282Z"
    fill="currentColor"
  />
</svg>
