<svg width="20" height="20" viewBox="0 0 20 20" fill="currentcolor" xmlns="http://www.w3.org/2000/svg">
  <path d="M18.2532 4.77821V4.77799L18.2531 4.6469M18.2532 4.77821L18.2531 4.64647V4.6469M18.2532 4.77821C18.2535 5.11601 18.2517 5.3817 18.2392 5.60007M18.2532 4.77821L18.2392 5.60007M18.2531 4.6469C18.2531 5.07825 18.2506 5.38066 18.2392 5.60007M18.2531 4.6469L18.2392 5.60007M4.50913 1.75251H4.50979L15.4903 1.75252L15.4909 1.75251C15.8288 1.75222 16.0944 1.75397 16.3128 1.7665C16.0933 1.75511 15.7908 1.75259 15.3592 1.75259H4.64085C4.20943 1.75259 3.90695 1.75511 3.68748 1.76649C3.90581 1.75397 4.17144 1.75222 4.50913 1.75251ZM18.2532 4.51475V4.51497L18.2531 4.64603C18.2531 4.215 18.2506 3.91271 18.2392 3.69334C18.2517 3.91162 18.2535 4.17719 18.2532 4.51475ZM15.9663 7.53848L15.2127 7.54988L15.2278 8.30341C15.2378 8.79878 15.2378 9.357 15.2378 9.99749V12.9975C15.2378 14.4329 15.2362 15.434 15.1346 16.1894C15.036 16.9231 14.8555 17.3117 14.5788 17.5885C14.302 17.8652 13.9134 18.0457 13.1797 18.1443C12.4243 18.2459 11.4232 18.2475 9.98779 18.2475C8.55238 18.2475 7.55126 18.2459 6.79591 18.1443C6.06214 18.0457 5.67357 17.8652 5.3968 17.5885C5.12004 17.3117 4.93959 16.9231 4.84094 16.1894C4.73939 15.434 4.73779 14.4329 4.73779 12.9975V9.99749C4.73779 9.35683 4.73783 8.79849 4.74775 8.30302L4.76283 7.55088L4.01064 7.53811C3.90507 7.53631 3.80885 7.53317 3.72061 7.52841C3.82949 7.53346 3.94742 7.53583 4.07705 7.53756L4.74922 7.54655L4.83145 6.87936C4.92783 6.09727 5.11111 5.69219 5.3968 5.4065C5.67357 5.12974 6.06214 4.94929 6.79591 4.85064C7.55126 4.74908 8.55238 4.74749 9.98779 4.74749C11.4232 4.74749 12.4243 4.74908 13.1797 4.85064C13.9134 4.94929 14.302 5.12974 14.5788 5.4065C14.8645 5.69223 15.0478 6.09737 15.1442 6.87965L15.2263 7.54606L15.8977 7.53788C16.0356 7.53621 16.1603 7.53389 16.2748 7.52864C16.1814 7.5336 16.0791 7.53677 15.9663 7.53848ZM1.7469 4.77819L1.7469 4.77797L1.74698 4.64691C1.74698 5.07825 1.7495 5.38065 1.76089 5.60006C1.74836 5.3817 1.7466 5.116 1.7469 4.77819ZM1.7469 4.51497L1.7469 4.51474C1.7466 4.17705 1.74836 3.91142 1.76088 3.6931C1.7495 3.91249 1.74698 4.21484 1.74698 4.64603L1.7469 4.51497ZM9.03148 15.3541L9.03146 15.3541L9.03711 15.3591C9.30036 15.5889 9.64648 15.7289 10.0234 15.7289C10.4584 15.7289 10.8509 15.5428 11.1239 15.2482L13.0761 13.1901C13.6462 12.5891 13.6212 11.6396 13.0201 11.0695C12.607 10.6777 12.0294 10.567 11.5234 10.7312L11.5234 9.15789C11.5233 8.32946 10.8518 7.6579 10.0233 7.65791C9.1949 7.65792 8.52334 8.32951 8.52335 9.15793L8.52337 10.7562C7.99218 10.5536 7.36832 10.6634 6.93632 11.0879C6.34548 11.6686 6.33727 12.6184 6.91797 13.2092L8.95355 15.2803L8.95356 15.2803C8.97356 15.3007 8.99404 15.3203 9.01494 15.3393L9.01492 15.3393L9.02025 15.3441L9.03148 15.3541Z" fill="currentcolor" stroke="currentcolor" stroke-width="1.5" />
</svg>
