<svg
  xmlns="http://www.w3.org/2000/svg"
  width="20"
  height="20"
  viewBox="0 0 20 20"
  fill="none"
>
  <path
    d="M18.2531 4.77821V4.77799L18.2531 4.6469M18.2531 4.77821L18.2531 4.64647V4.6469M18.2531 4.77821C18.2534 5.11601 18.2517 5.3817 18.2392 5.60007M18.2531 4.77821L18.2392 5.60007M18.2531 4.6469C18.2531 5.07825 18.2505 5.38066 18.2392 5.60007M18.2531 4.6469L18.2392 5.60007M4.5091 1.75251H4.50976L15.4903 1.75252L15.4909 1.75251C15.8287 1.75222 16.0944 1.75397 16.3128 1.7665C16.0933 1.75511 15.7908 1.75259 15.3592 1.75259H4.64082C4.2094 1.75259 3.90692 1.75511 3.68745 1.76649C3.90578 1.75397 4.17141 1.75222 4.5091 1.75251ZM18.2531 4.51475V4.51497L18.2531 4.64603C18.2531 4.215 18.2505 3.91271 18.2392 3.69334C18.2517 3.91162 18.2534 4.17719 18.2531 4.51475ZM15.9663 7.53848L15.2127 7.54988L15.2278 8.30341C15.2377 8.79878 15.2378 9.357 15.2378 9.99749V12.9975C15.2378 14.4329 15.2362 15.434 15.1346 16.1894C15.036 16.9231 14.8555 17.3117 14.5788 17.5885C14.302 17.8652 13.9134 18.0457 13.1796 18.1443C12.4243 18.2459 11.4232 18.2475 9.98776 18.2475C8.55235 18.2475 7.55123 18.2459 6.79588 18.1443C6.06211 18.0457 5.67354 17.8652 5.39677 17.5885C5.12001 17.3117 4.93956 16.9231 4.84091 16.1894C4.73936 15.434 4.73776 14.4329 4.73776 12.9975V9.99749C4.73776 9.35683 4.73779 8.79849 4.74772 8.30302L4.7628 7.55088L4.01061 7.53811C3.90504 7.53631 3.80882 7.53317 3.72058 7.52841C3.82946 7.53346 3.94739 7.53583 4.07702 7.53756L4.74919 7.54655L4.83141 6.87936C4.9278 6.09727 5.11108 5.69219 5.39677 5.4065C5.67354 5.12974 6.06211 4.94929 6.79588 4.85064C7.55123 4.74908 8.55235 4.74749 9.98776 4.74749C11.4232 4.74749 12.4243 4.74908 13.1796 4.85064C13.9134 4.94929 14.302 5.12974 14.5788 5.4065C14.8645 5.69223 15.0478 6.09737 15.1441 6.87965L15.2262 7.54606L15.8976 7.53788C16.0355 7.53621 16.1602 7.53389 16.2748 7.52864C16.1814 7.5336 16.0791 7.53677 15.9663 7.53848ZM1.74687 4.77819L1.74687 4.77797L1.74695 4.64691C1.74695 5.07825 1.74947 5.38065 1.76086 5.60006C1.74833 5.3817 1.74657 5.116 1.74687 4.77819ZM1.74687 4.51497L1.74687 4.51474C1.74657 4.17705 1.74832 3.91142 1.76085 3.6931C1.74947 3.91249 1.74695 4.21484 1.74695 4.64603L1.74687 4.51497ZM9.03145 15.3541L9.03143 15.3541L9.03708 15.3591C9.30033 15.5889 9.64645 15.7289 10.0234 15.7289C10.4583 15.7289 10.8509 15.5428 11.1238 15.2482L13.0761 13.1901C13.6462 12.5891 13.6211 11.6396 13.0201 11.0695C12.607 10.6777 12.0293 10.567 11.5233 10.7312L11.5233 9.15789C11.5233 8.32946 10.8517 7.6579 10.0233 7.65791C9.19487 7.65792 8.52331 8.32951 8.52332 9.15793L8.52334 10.7562C7.99215 10.5536 7.36829 10.6634 6.93629 11.0879C6.34545 11.6686 6.33724 12.6184 6.91794 13.2092L8.95352 15.2803L8.95353 15.2803C8.97353 15.3007 8.99401 15.3203 9.01491 15.3393L9.01489 15.3393L9.02022 15.3441L9.03145 15.3541Z"
    fill="currentColor"
    stroke="currentColor"
    stroke-width="1.5"
  />
</svg>
