<svg
  xmlns="http://www.w3.org/2000/svg"
  width="20"
  height="20"
  viewBox="0 0 20 20"
  fill="none"
>
  <path
    d="M15.1265 13.7123C15.517 14.1028 15.517 14.736 15.1265 15.1265C14.736 15.517 14.1028 15.517 13.7123 15.1265L10 11.4142L6.2877 15.1265C5.89717 15.517 5.26401 15.517 4.87349 15.1265C4.48296 14.736 4.48296 14.1028 4.87349 13.7123L8.58578 10L4.87346 6.28767C4.48294 5.89715 4.48294 5.26398 4.87346 4.87346C5.26398 4.48294 5.89715 4.48294 6.28767 4.87346L10 8.58578L13.7123 4.87346C14.1028 4.48294 14.736 4.48294 15.1265 4.87346C15.5171 5.26398 15.5171 5.89715 15.1265 6.28767L11.4142 10L15.1265 13.7123Z"
    fill="currentColor"
  />
</svg>
