<svg width="20" height="20" viewBox="0 0 20 20" fill="currentColor" xmlns="http://www.w3.org/2000/svg">
  <path fill-rule="evenodd" d="M1 15.0723L1 15.011C0.99999 14.4731 0.999981 14.0241 1.03015 13.6574C1.06161 13.2749 1.12966 12.9159 1.30383 12.5768C1.56637 12.0657 1.9824 11.6497 2.49351 11.3872C2.83261 11.213 3.19161 11.1449 3.57411 11.1135C3.94081 11.0833 4.38978 11.0833 4.92769 11.0833L15.0723 11.0833C15.6102 11.0833 16.0592 11.0833 16.4259 11.1135C16.8084 11.1449 17.1674 11.213 17.5065 11.3872C18.0176 11.6497 18.4336 12.0657 18.6962 12.5768C18.8703 12.9159 18.9384 13.2749 18.9699 13.6574C19 14.0241 19 14.4731 19 15.011L19 15.0723C19 15.6102 19 16.0592 18.9699 16.4259C18.9384 16.8084 18.8703 17.1674 18.6962 17.5065C18.4336 18.0176 18.0176 18.4336 17.5065 18.6962C17.1674 18.8703 16.8084 18.9384 16.4259 18.9699C16.0592 19 15.6102 19 15.0723 19L4.92768 19C4.38978 19 3.94081 19 3.57411 18.9699C3.19161 18.9384 2.83261 18.8703 2.49351 18.6962C1.9824 18.4336 1.56637 18.0176 1.30383 17.5065C1.12966 17.1674 1.06161 16.8084 1.03015 16.4259C0.999981 16.0592 0.99999 15.6102 1 15.0723ZM2.5251 16.3029C2.54887 16.592 2.59131 16.73 2.63811 16.8211C2.75744 17.0535 2.94655 17.2426 3.17887 17.3619C3.26997 17.4087 3.40805 17.4511 3.69708 17.4749C3.99497 17.4994 4.38189 17.5 4.95833 17.5L15.0417 17.5C15.6181 17.5 16.005 17.4994 16.3029 17.4749C16.592 17.4511 16.73 17.4087 16.8211 17.3619C17.0535 17.2426 17.2426 17.0535 17.3619 16.8211C17.4087 16.73 17.4511 16.592 17.4749 16.3029C17.4994 16.005 17.5 15.6181 17.5 15.0417C17.5 14.4652 17.4994 14.0783 17.4749 13.7804C17.4511 13.4914 17.4087 13.3533 17.3619 13.2622C17.2426 13.0299 17.0535 12.8408 16.8211 12.7214C16.73 12.6746 16.592 12.6322 16.3029 12.6084C16.005 12.5839 15.6181 12.5833 15.0417 12.5833L4.95833 12.5833C4.38189 12.5833 3.99497 12.5839 3.69709 12.6084C3.40805 12.6322 3.26997 12.6746 3.17887 12.7214C2.94655 12.8408 2.75744 13.0299 2.63811 13.2622C2.59131 13.3533 2.54887 13.4914 2.5251 13.7804C2.50059 14.0783 2.5 14.4652 2.5 15.0417C2.5 15.6181 2.50059 16.005 2.5251 16.3029Z" fill="currentColor" />
  <path fill-rule="evenodd" d="M8.33325 4.98894L8.33325 4.92764C8.33324 4.38974 8.33323 3.94077 8.3634 3.57406C8.39486 3.19157 8.46291 2.83256 8.63708 2.49347C8.89962 1.98236 9.31566 1.56632 9.82677 1.30379C10.1659 1.12961 10.5249 1.06157 10.9074 1.0301C11.2741 0.999938 11.723 0.999947 12.2609 0.999959L15.0722 0.999959C15.6101 0.999947 16.0591 0.99994 16.4258 1.0301C16.8083 1.06157 17.1673 1.12961 17.5064 1.30379C18.0175 1.56632 18.4336 1.98236 18.6961 2.49347C18.8703 2.83256 18.9383 3.19157 18.9698 3.57406C18.9999 3.94077 18.9999 4.38974 18.9999 4.92764L18.9999 4.98894C18.9999 5.52684 18.9999 5.97582 18.9698 6.34252C18.9383 6.72501 18.8703 7.08402 18.6961 7.42311C18.4336 7.93422 18.0175 8.35026 17.5064 8.61279C17.1673 8.78697 16.8083 8.85502 16.4258 8.88648C16.0591 8.91665 15.6101 8.91664 15.0722 8.91663L12.2609 8.91663C11.723 8.91664 11.2741 8.91665 10.9074 8.88648C10.5249 8.85502 10.1659 8.78697 9.82677 8.61279C9.31566 8.35026 8.89962 7.93422 8.63708 7.42311C8.46291 7.08402 8.39486 6.72501 8.3634 6.34252C8.33323 5.97582 8.33324 5.52684 8.33325 4.98894ZM9.85835 6.21954C9.88213 6.50858 9.92457 6.64666 9.97136 6.73776C10.0907 6.97008 10.2798 7.15919 10.5121 7.27852C10.6032 7.32531 10.7413 7.36775 11.0303 7.39153C11.3282 7.41603 11.7151 7.41663 12.2916 7.41663L15.0416 7.41663C15.618 7.41663 16.005 7.41603 16.3028 7.39153C16.5919 7.36775 16.73 7.32531 16.8211 7.27852C17.0534 7.15919 17.2425 6.97008 17.3618 6.73776C17.4086 6.64666 17.451 6.50858 17.4748 6.21954C17.4993 5.92166 17.4999 5.53474 17.4999 4.95829C17.4999 4.38184 17.4993 3.99493 17.4748 3.69704C17.451 3.40801 17.4086 3.26992 17.3618 3.17883C17.2425 2.94651 17.0534 2.7574 16.8211 2.63806C16.73 2.59127 16.5919 2.54883 16.3028 2.52506C16.005 2.50055 15.618 2.49996 15.0416 2.49996L12.2916 2.49996C11.7151 2.49996 11.3282 2.50055 11.0303 2.52506C10.7413 2.54883 10.6032 2.59127 10.5121 2.63806C10.2798 2.7574 10.0907 2.94651 9.97136 3.17883C9.92457 3.26992 9.88213 3.40801 9.85835 3.69704C9.83384 3.99493 9.83325 4.38184 9.83325 4.95829C9.83325 5.53474 9.83384 5.92166 9.85835 6.21954Z" fill="currentColor" />
</svg>
