<svg width="20" height="20" viewBox="0 0 20 20" fill="currentColor" xmlns="http://www.w3.org/2000/svg">
  <path d="M19.3023 2C19.6877 2 20 2.307 20 2.68571C20 3.06442 19.6877 3.37143 19.3023 3.37143L0.697691 3.37143C0.312374 3.37143 1.71661e-05 3.06443 1.71661e-05 2.68572C1.71661e-05 2.30701 0.312374 2 0.697691 2H19.3023Z" fill="currentColor" />
  <path d="M16.2791 10C16.2791 9.62129 15.9667 9.31429 15.5814 9.31429L0.697674 9.31429C0.312359 9.31429 0 9.62129 0 10C0 10.3787 0.312359 10.6857 0.697674 10.6857L15.5814 10.6857C15.9667 10.6857 16.2791 10.3787 16.2791 10Z" fill="currentColor" />
  <path d="M20 17.3143C20 16.9356 19.6877 16.6286 19.3023 16.6286L0.697691 16.6286C0.312374 16.6286 1.71661e-05 16.9356 1.71661e-05 17.3143C1.71661e-05 17.693 0.312374 18 0.697691 18L19.3023 18C19.6877 18 20 17.693 20 17.3143Z" fill="currentColor" />
</svg>
