<svg width="20" height="20" viewBox="0 0 20 20" fill="currentColor" xmlns="http://www.w3.org/2000/svg">
  <path fill-rule="evenodd" d="M8.10513 2L15.389 2C17.9356 2 20 4.026 20 6.5252C20 6.93643 19.6603 7.2698 19.2413 7.2698C18.8222 7.2698 18.4825 6.93643 18.4825 6.5252C18.4825 4.84847 17.0975 3.48921 15.389 3.48921H8.15174C6.56462 3.48921 5.4373 3.4903 4.56886 3.58567C3.7155 3.67939 3.20578 3.85632 2.81681 4.14623C2.57925 4.32328 2.36735 4.53123 2.18694 4.76437C1.89153 5.1461 1.71124 5.64634 1.61575 6.48381C1.51857 7.33609 1.51746 8.44242 1.51746 10C1.51746 11.5576 1.51857 12.6639 1.61575 13.5162C1.71124 14.3537 1.89153 14.8539 2.18694 15.2356C2.36735 15.4688 2.57925 15.6767 2.81681 15.8538C3.20578 16.1437 3.7155 16.3206 4.56886 16.4143C5.4373 16.5097 6.56462 16.5108 8.15174 16.5108H15.389C17.0975 16.5108 18.4825 15.1516 18.4825 13.4748C18.4825 13.0636 18.8222 12.7302 19.2413 12.7302C19.6603 12.7302 20 13.0636 20 13.4748C20 15.974 17.9356 18 15.389 18H8.10514C6.57504 18 5.36278 18 4.40011 17.8943C3.41261 17.7859 2.59505 17.5585 1.89905 17.0397C1.55185 16.781 1.24215 16.477 0.978468 16.1363C0.449897 15.4533 0.218205 14.6509 0.107703 13.6818C-1.9499e-05 12.7371 -1.07535e-05 11.5474 2.20848e-07 10.0457V9.95425C-1.07535e-05 8.45264 -1.9499e-05 7.26295 0.107703 6.3182C0.218205 5.34909 0.449897 4.54674 0.978468 3.86369C1.24215 3.52296 1.55185 3.21902 1.89905 2.96025C2.59505 2.44152 3.41261 2.21414 4.40011 2.1057C5.36278 1.99998 6.57504 1.99999 8.10513 2Z" fill="currentColor" />
  <path fill-rule="evenodd" d="M19.2413 8.51081C19.6603 8.51081 20 8.84418 20 9.25542V10.7446C20 11.1559 19.6603 11.4892 19.2413 11.4892C18.8222 11.4892 18.4825 11.1559 18.4825 10.7446V9.25542C18.4825 8.84418 18.8222 8.51081 19.2413 8.51081Z" fill="currentColor" />
  <path fill-rule="evenodd" d="M5.44762 6.7734C5.86666 6.7734 6.20635 7.10677 6.20635 7.51801L6.20635 12.482C6.20635 12.8933 5.86666 13.2266 5.44762 13.2266C5.02859 13.2266 4.6889 12.8933 4.6889 12.482L4.68889 7.51801C4.68889 7.10677 5.02859 6.7734 5.44762 6.7734Z" fill="currentColor" />
  <path fill-rule="evenodd" d="M10 6.7734C10.419 6.7734 10.7587 7.10677 10.7587 7.51801V12.482C10.7587 12.8933 10.419 13.2266 10 13.2266C9.58097 13.2266 9.24127 12.8933 9.24127 12.482V7.51801C9.24127 7.10677 9.58097 6.7734 10 6.7734Z" fill="currentColor" />
</svg>
