<svg width="20" height="20" viewBox="0 0 20 20" fill="currentColor" xmlns="http://www.w3.org/2000/svg">
  <path fill-rule="evenodd" d="M10.0375 1.96605C9.63338 2.44878 9.1306 3.20526 8.41226 4.2891L4.65194 9.96274C4.14137 10.7331 3.80791 11.2398 3.62778 11.6241C3.54088 11.8094 3.51375 11.9183 3.50763 11.9765C3.50497 12.0018 3.507 12.013 3.507 12.013L3.50852 12.0162C3.5099 12.0188 3.51033 12.0193 3.51033 12.0193C3.51033 12.0193 3.5184 12.027 3.54119 12.0389C3.5932 12.0659 3.69904 12.1034 3.90178 12.1333C4.32204 12.1954 4.92923 12.1974 5.85429 12.1974L6.44677 12.1974C6.85987 12.1974 7.23304 12.1973 7.53867 12.2331C7.87039 12.272 8.21815 12.3615 8.52506 12.6102C8.62466 12.6909 8.71559 12.7817 8.79639 12.8811C9.04535 13.1876 9.13505 13.5349 9.17395 13.8662C9.20978 14.1714 9.20975 14.5441 9.20971 14.9566L9.20971 14.9962C9.20971 16.2959 9.21089 17.2039 9.28112 17.8292C9.31606 18.1403 9.36302 18.3254 9.40723 18.43C9.41648 18.4518 9.42414 18.4668 9.42971 18.4766C9.44629 18.4831 9.46334 18.4882 9.4807 18.492C9.49078 18.4869 9.50546 18.4786 9.52525 18.4654C9.6199 18.4026 9.76135 18.2742 9.96247 18.0339C10.3666 17.5512 10.8694 16.7947 11.5877 15.7109L15.3481 10.0373C15.8586 9.2669 16.1921 8.76015 16.3722 8.37592C16.4591 8.19056 16.4862 8.08173 16.4924 8.02349C16.4951 7.99797 16.493 7.98701 16.493 7.98701C16.493 7.98701 16.4929 7.98633 16.4915 7.98378C16.4901 7.98123 16.4897 7.98074 16.4897 7.98074C16.4897 7.98074 16.4814 7.97286 16.4588 7.96112C16.4068 7.93407 16.301 7.89659 16.0982 7.86665C15.678 7.80459 15.0708 7.80259 14.1457 7.80259L13.5532 7.80259C13.1401 7.80263 12.767 7.80266 12.4613 7.76687C12.1296 7.72803 11.7819 7.63845 11.4749 7.38983C11.3753 7.30914 11.2844 7.21832 11.2036 7.11886C10.9547 6.81236 10.865 6.46507 10.8261 6.13379C10.7902 5.82857 10.7903 5.4559 10.7903 5.04336L10.7903 5.00384C10.7903 3.70409 10.7891 2.79615 10.7189 2.17084C10.6839 1.85967 10.637 1.67459 10.5928 1.57004C10.5835 1.54818 10.5759 1.53317 10.5703 1.52336C10.5537 1.51694 10.5367 1.51182 10.5193 1.50803C10.5092 1.51314 10.4945 1.52143 10.4748 1.53457C10.3801 1.59738 10.2387 1.72584 10.0375 1.96605ZM10.6733 0.0103537C10.8808 0.0360226 11.0824 0.0966259 11.2696 0.189589C11.6304 0.368754 11.8481 0.673209 11.9799 0.985026C12.107 1.28538 12.1741 1.63682 12.2153 2.00323C12.2961 2.72283 12.2961 3.71616 12.2961 4.95103V5.00384C12.2961 5.46861 12.2973 5.75164 12.3216 5.95867C12.3329 6.05461 12.3467 6.10858 12.3572 6.13837C12.3656 6.16256 12.3714 6.1695 12.3729 6.17132C12.3879 6.18983 12.405 6.20694 12.4236 6.22196C12.4254 6.22346 12.4325 6.22935 12.4568 6.23783C12.4866 6.24827 12.5406 6.26208 12.6367 6.27333C12.844 6.2976 13.1274 6.29881 13.5928 6.29881L14.2065 6.29881C15.054 6.29877 15.7746 6.29873 16.3185 6.37905C16.8766 6.46147 17.4891 6.66096 17.8179 7.27201C18.1467 7.88305 17.9752 8.50329 17.736 9.01354C17.5028 9.51082 17.1051 10.1109 16.6372 10.8167L12.8142 16.5849C12.1318 17.6147 11.5828 18.443 11.1177 18.9985C10.8809 19.2814 10.6306 19.5374 10.3587 19.7179C10.0764 19.9052 9.72661 20.0391 9.32672 19.9896C9.11924 19.964 8.9176 19.9034 8.73039 19.8104C8.36958 19.6312 8.15191 19.3268 8.02006 19.015C7.89305 18.7146 7.82585 18.3632 7.7847 17.9968C7.70388 17.2772 7.7039 16.2838 7.70391 15.0489V14.9962C7.70391 14.5314 7.7027 14.2484 7.67839 14.0413C7.66713 13.9454 7.6533 13.8914 7.64285 13.8616C7.63436 13.8374 7.62862 13.8305 7.62713 13.8287C7.61208 13.8102 7.59499 13.7931 7.57645 13.778C7.57645 13.778 7.56849 13.771 7.54325 13.7622C7.51343 13.7517 7.45938 13.7379 7.36331 13.7267C7.156 13.7024 6.8726 13.7012 6.4072 13.7012L5.79354 13.7012C4.94598 13.7012 4.22542 13.7013 3.68151 13.6209C3.12342 13.5385 2.51085 13.339 2.18208 12.728C1.85331 12.1169 2.02483 11.4967 2.26404 10.9865C2.49717 10.4892 2.89491 9.88913 3.36275 9.18334L7.18575 3.41511C7.86823 2.38534 8.41722 1.557 8.88233 1.00147C9.11915 0.718611 9.36941 0.462585 9.64132 0.282128C9.92361 0.0947854 10.2734 -0.0391162 10.6733 0.0103537Z" fill="currentColor" />
</svg>
