<svg width="20" height="20" viewBox="0 0 20 20" fill="currentColor" xmlns="http://www.w3.org/2000/svg">
  <path fill-rule="evenodd" d="M10 1C8.80881 1 7.70772 1.51807 5.95861 2.34102L3.5085 3.49319C3.02552 3.72029 2.61099 3.9152 2.28495 4.11271C1.93595 4.32413 1.63137 4.57083 1.40371 4.92995C1.17605 5.28906 1.08261 5.6702 1.03988 6.07665C0.999968 6.45639 0.999983 6.91531 1 7.45006V12.5499C0.999983 13.0847 0.999969 13.5436 1.03988 13.9234C1.08261 14.3298 1.17605 14.7109 1.40371 15.0701C1.63137 15.4292 1.93595 15.6759 2.28495 15.8873C2.61096 16.0848 3.02543 16.2797 3.50835 16.5067L5.95859 17.659C7.7077 18.4819 8.80881 19 10 19C11.1912 19 12.2923 18.4819 14.0414 17.659L16.4915 16.5068C16.9745 16.2797 17.389 16.0848 17.7151 15.8873C18.064 15.6759 18.3686 15.4292 18.5963 15.0701C18.824 14.7109 18.9174 14.3298 18.9601 13.9234C19 13.5436 19 13.0847 19 12.5499V7.45012C19 6.91536 19 6.45639 18.9601 6.07665C18.9174 5.6702 18.824 5.28906 18.5963 4.92995C18.3686 4.57083 18.064 4.32413 17.7151 4.11271C17.389 3.9152 16.9745 3.72029 16.4915 3.49319L14.0414 2.34103C12.2923 1.51807 11.1912 1 10 1ZM6.43109 3.79357C7.41746 3.32974 8.10626 3.01011 8.65226 2.80616C9.19698 2.60268 9.59522 2.51608 10 2.51608C10.4048 2.51608 10.803 2.60268 11.3477 2.80616C11.8937 3.01011 12.5825 3.32974 13.5689 3.79357L15.8145 4.84955C16.0584 4.96423 16.2628 5.06058 16.4372 5.14619L11.1069 7.34616C10.7365 7.49903 10.5042 7.59163 10.3404 7.64613C10.1778 7.70023 10.0873 7.71523 10 7.71523C9.91271 7.71523 9.82216 7.70023 9.65959 7.64613C9.4958 7.59163 9.26346 7.49903 8.89307 7.34616L3.56284 5.14619C3.73715 5.06058 3.94159 4.96423 4.18547 4.84955L6.43109 3.79357ZM2.51285 7.48805C2.51285 6.98554 2.51356 6.63474 2.53339 6.36093L8.42093 8.791C8.71666 8.91339 8.98514 9.0245 9.24358 9.10426V17.3834C8.60894 17.2219 7.81255 16.856 6.43109 16.2064L4.18547 15.1505C3.65898 14.9029 3.31739 14.7412 3.06758 14.5898C2.83307 14.4478 2.73874 14.3487 2.68065 14.2571C2.62255 14.1654 2.57312 14.0377 2.54441 13.7645C2.51382 13.4735 2.51285 13.0949 2.51285 12.512V7.48805ZM11.579 8.79101L17.4666 6.36093C17.4864 6.63474 17.4871 6.98554 17.4871 7.48804V12.512C17.4871 13.0949 17.4862 13.4735 17.4556 13.7645C17.4269 14.0377 17.3774 14.1654 17.3193 14.2571C17.2613 14.3487 17.1669 14.4478 16.9324 14.5898C16.6826 14.7412 16.341 14.9029 15.8145 15.1505L13.5689 16.2064C12.1875 16.856 11.3911 17.2219 10.7564 17.3834V9.10426C11.0149 9.0245 11.2833 8.91339 11.579 8.79101Z" fill="currentColor" />
</svg>
