<svg width="20" height="20" viewBox="0 0 20 20" fill="currentColor" xmlns="http://www.w3.org/2000/svg">
  <path fill-rule="evenodd" d="M8.98912 1.00003C8.4741 0.999781 8.09453 0.9996 7.76418 1.0801C6.74231 1.32913 5.94446 2.12698 5.69543 3.14886C5.64749 3.34558 5.62816 3.55975 5.62042 3.80959C5.41979 3.82129 5.23001 3.83637 5.05041 3.85582C4.23105 3.94455 3.54701 4.13024 2.94865 4.55585C2.4699 4.89638 2.05884 5.33396 1.73894 5.8436C1.33913 6.48056 1.16469 7.20873 1.08134 8.08096C1.03107 8.60701 1.01186 9.21507 1.00453 9.92038C1.00154 9.94651 1 9.97307 1 10C1 10.0225 1.00108 10.0448 1.00318 10.0668C0.999995 10.4619 0.999997 10.8867 1 11.3437V11.4255C0.999992 12.7709 0.999986 13.837 1.08134 14.6883C1.16469 15.5605 1.33913 16.2887 1.73894 16.9256C2.05884 17.4353 2.4699 17.8729 2.94865 18.2134C3.54701 18.639 4.23105 18.8247 5.05041 18.9134C5.85012 19 6.85157 19 8.11545 19H11.8846C13.1484 19 14.1499 19 14.9496 18.9134C15.769 18.8247 16.453 18.639 17.0513 18.2134C17.5301 17.8729 17.9412 17.4353 18.2611 16.9256C18.6609 16.2887 18.8353 15.5605 18.9187 14.6883C19 13.837 19 12.7709 19 11.4255V11.3438C19 10.8867 19 10.4619 18.9968 10.0668C18.9989 10.0448 19 10.0225 19 10C19 9.97308 18.9985 9.94652 18.9955 9.92039C18.9881 9.21508 18.9689 8.60702 18.9187 8.08096C18.8353 7.20873 18.6609 6.48056 18.2611 5.8436C17.9412 5.33396 17.5301 4.89638 17.0513 4.55585C16.453 4.13024 15.769 3.94455 14.9496 3.85582C14.77 3.83637 14.5802 3.82129 14.3796 3.80959C14.3718 3.55975 14.3525 3.34558 14.3046 3.14886C14.0555 2.12698 13.2577 1.32913 12.2358 1.0801C11.9055 0.9996 11.5259 0.999781 11.0109 1.00003H8.98912ZM2.38462 11.3846C2.38462 11.1419 2.38464 10.9115 2.38507 10.6923H9.30768V10.9231C9.30768 11.3054 9.61763 11.6154 9.99999 11.6154C10.3823 11.6154 10.6923 11.3054 10.6923 10.9231V10.6923H17.6149C17.6154 10.9115 17.6154 11.1419 17.6154 11.3846C17.6154 12.78 17.6145 13.7711 17.5412 14.5391C17.4689 15.2948 17.3323 15.7523 17.1098 16.1067C16.8909 16.4554 16.6097 16.7548 16.2821 16.9878C15.9492 17.2247 15.5193 17.3702 14.8095 17.447C14.088 17.5252 13.157 17.5261 11.8462 17.5261H8.15385C6.84301 17.5261 5.912 17.5252 5.19054 17.447C4.48066 17.3702 4.05084 17.2247 3.71791 16.9878C3.39034 16.7548 3.10908 16.4554 2.89021 16.1067C2.66775 15.7523 2.53106 15.2948 2.45884 14.5391C2.38545 13.7711 2.38462 12.78 2.38462 11.3846ZM10.6923 9.30769H17.6C17.5894 8.90202 17.5714 8.54708 17.5412 8.23013C17.4689 7.47445 17.3323 7.01689 17.1098 6.66248C16.8909 6.31378 16.6097 6.01438 16.2821 5.78139C15.9492 5.54458 15.5193 5.39907 14.8095 5.32219C14.088 5.24407 13.157 5.24318 11.8462 5.24318H8.15385C6.84301 5.24318 5.912 5.24407 5.19054 5.32219C4.48066 5.39907 4.05084 5.54458 3.71791 5.78139C3.39034 6.01438 3.10908 6.31378 2.89021 6.66248C2.66775 7.01689 2.53106 7.47445 2.45884 8.23013C2.42856 8.54708 2.41063 8.90202 2.40001 9.30769H9.30768V9.07692C9.30768 8.69457 9.61763 8.38462 9.99999 8.38462C10.3823 8.38462 10.6923 8.69457 10.6923 9.07692V9.30769ZM12.9926 3.77185C12.9868 3.63127 12.9767 3.548 12.9593 3.47668C12.8328 2.95737 12.4273 2.5519 11.908 2.42535C11.7614 2.38963 11.5644 2.38467 10.9231 2.38467H9.07692C8.4356 2.38467 8.23859 2.38963 8.09201 2.42535C7.5727 2.5519 7.16723 2.95737 7.04068 3.47668C7.0233 3.548 7.0132 3.63127 7.00741 3.77185C7.35245 3.76923 7.72119 3.76923 8.11546 3.76923H11.8845C12.2788 3.76923 12.6475 3.76923 12.9926 3.77185Z" fill="currentColor" />
</svg>
