<svg width="20" height="20" viewBox="0 0 20 20" fill="currentColor" xmlns="http://www.w3.org/2000/svg">
  <path fill-rule="evenodd" d="M14.6833 11.6085C12.8043 11.6085 11.281 13.1568 11.281 15.0666C11.281 16.9765 12.8043 18.5247 14.6833 18.5247C15.359 18.5247 15.9887 18.3245 16.5181 17.9793L17.2867 18.7605C17.5714 19.0499 18.033 19.0499 18.3178 18.7605C18.6025 18.4711 18.6025 18.0019 18.3178 17.7125L17.5491 16.9313C17.8887 16.3933 18.0857 15.7533 18.0857 15.0666C18.0857 13.1568 16.5624 11.6085 14.6833 11.6085ZM12.7392 15.0666C12.7392 13.9753 13.6096 13.0906 14.6833 13.0906C15.7571 13.0906 16.6275 13.9753 16.6275 15.0666C16.6275 16.158 15.7571 17.0427 14.6833 17.0427C13.6096 17.0427 12.7392 16.158 12.7392 15.0666Z" fill="currentColor" />
  <path fill-rule="evenodd" d="M7.0765 1.65863C7.02674 1.28667 6.713 1 6.33337 1C5.91916 1 5.58337 1.34129 5.58337 1.76229V1.76403C4.73981 1.87203 4.02824 2.07808 3.39705 2.49337C2.77511 2.90257 2.24543 3.44093 1.84283 4.07306C1.38996 4.7841 1.19 5.5955 1.09397 6.57869C0.999986 7.54097 0.999992 8.74642 1 10.2768V10.3599C0.999992 11.8903 0.999986 13.0958 1.09397 14.058C1.19 15.0412 1.38996 15.8526 1.84283 16.5637C2.24543 17.1958 2.77511 17.7342 3.39705 18.1434C4.09663 18.6037 4.89494 18.8069 5.86228 18.9045C6.80904 19 7.99504 19 9.50073 19H10C10.4142 19 10.75 18.6587 10.75 18.2377C10.75 17.8167 10.4142 17.4754 10 17.4754H9.54167C7.98611 17.4754 6.87449 17.4745 6.01046 17.3874C5.15844 17.3014 4.62858 17.1375 4.21218 16.8635C3.76794 16.5713 3.38959 16.1867 3.10202 15.7352C2.83246 15.312 2.67121 14.7734 2.58663 13.9074C2.50086 13.0293 2.5 11.8994 2.5 10.3184C2.5 9.57098 2.50019 8.92443 2.50946 8.35761C2.83765 8.31787 3.29276 8.26873 3.87478 8.21944C5.22914 8.10472 7.27086 7.98915 10 7.98915C12.7291 7.98915 14.7709 8.10472 16.1252 8.21944C16.712 8.26914 17.1698 8.31868 17.4986 8.3586C17.5 8.64377 17.5 8.95495 17.5 9.2966V10.6611C17.5 11.0821 17.8358 11.4234 18.25 11.4234C18.6642 11.4234 19 11.0821 19 10.6611V9.26803C19 9.2514 19 9.23482 19 9.2183C19 9.19975 19 9.18127 19 9.16286C19 8.15385 18.9985 7.35273 18.954 6.70082C18.9071 6.01337 18.8099 5.43542 18.5875 4.89949C18.0555 3.6171 17.0516 2.59672 15.7898 2.05598C15.3692 1.87572 14.9224 1.77634 14.4155 1.71932C14.3935 1.31831 14.0667 1 13.6666 1C13.2923 1 12.9821 1.27866 12.9258 1.64299C12.4999 1.63673 12.0247 1.63673 11.4917 1.63673H9.50078C8.57903 1.63673 7.77709 1.63672 7.0765 1.65863ZM12.9166 3.33038V3.16759C12.5022 3.16143 12.0247 3.16131 11.4636 3.16131H9.54167C8.56273 3.16131 7.75961 3.16166 7.08337 3.18364V3.33038C7.08337 3.75138 6.74759 4.09267 6.33337 4.09267C5.91916 4.09267 5.58337 3.75138 5.58337 3.33038V3.3031C4.9727 3.39742 4.55417 3.54818 4.21218 3.77319C3.76794 4.06548 3.38959 4.45003 3.10202 4.90155C2.83246 5.32477 2.67121 5.86331 2.58663 6.72929C2.58387 6.75756 2.5812 6.78609 2.57861 6.81489C2.89187 6.77946 3.28241 6.73974 3.75021 6.70012C5.14586 6.58191 7.22914 6.46457 10 6.46457C12.7709 6.46457 14.8541 6.58191 16.2498 6.70012C16.7362 6.74132 17.1391 6.78263 17.4585 6.81911L17.4576 6.80625C17.4161 6.19775 17.3366 5.80814 17.2054 5.49185C16.8253 4.57586 16.1083 3.84702 15.207 3.46077C14.9931 3.3691 14.7452 3.30226 14.4166 3.25573V3.33038C14.4166 3.75138 14.0808 4.09267 13.6666 4.09267C13.2524 4.09267 12.9166 3.75138 12.9166 3.33038Z" fill="currentColor" />
</svg>
