<svg width="20" height="20" viewBox="0 0 20 20" fill="currentColor" xmlns="http://www.w3.org/2000/svg">
  <path fill-rule="evenodd" d="M10 8.75C8.7574 8.75 7.75004 9.75736 7.75004 11C7.75004 12.2426 8.7574 13.25 10 13.25C11.2427 13.25 12.25 12.2426 12.25 11C12.25 9.75736 11.2427 8.75 10 8.75ZM6.25004 11C6.25004 8.92893 7.92898 7.25 10 7.25C12.0711 7.25 13.75 8.92893 13.75 11C13.75 13.0711 12.0711 14.75 10 14.75C7.92898 14.75 6.25004 13.0711 6.25004 11Z" fill="currentColor" />
  <path fill-rule="evenodd" d="M15 9C15.5523 9 16 8.55228 16 8C16 7.44772 15.5523 7 15 7C14.4478 7 14 7.44772 14 8C14 8.55228 14.4478 9 15 9Z" fill="currentColor" />
  <path fill-rule="evenodd" d="M9.23001 2.00002C9.26249 2.00003 9.29539 2.00004 9.32874 2.00004H10.6713C10.7047 2.00004 10.7376 2.00003 10.77 2.00002C11.5228 1.99977 12.0442 1.9996 12.5403 2.13549C12.831 2.21511 13.1108 2.3289 13.3738 2.47438C13.8225 2.72264 14.191 3.08467 14.7231 3.6073C14.7461 3.62985 14.7693 3.65269 14.7929 3.67584L14.9418 3.82192C14.9439 3.824 14.945 3.82507 14.945 3.82507C14.9781 3.85617 15.0192 3.87777 15.0639 3.8875L15.0659 3.88791L15.0683 3.88842L15.1134 3.89728C15.3633 3.94633 15.516 3.9763 15.6531 4.01018C18.107 4.61627 19.8689 6.72581 19.9931 9.20664C20 9.34532 20 9.49819 20 9.7484V10.7776C20 10.8206 20 10.8632 20 10.9052C20.0002 12.2508 20.0003 13.0713 19.8176 13.7662C19.2948 15.7548 17.7128 17.3077 15.6869 17.8209C14.9789 18.0003 14.1431 18.0002 12.7722 18C12.7294 18 12.686 18 12.6422 18H7.35787C7.314 18 7.27066 18 7.22784 18C5.85698 18.0002 5.02115 18.0003 4.31319 17.8209C2.28728 17.3077 0.705265 15.7548 0.182436 13.7662C-0.000269592 13.0713 -0.000163549 12.2508 1.05558e-05 10.9052C1.59798e-05 10.8632 2.14634e-05 10.8206 2.14634e-05 10.7776L2.11058e-05 9.74831C1.47877e-05 9.49815 1.09132e-05 9.3453 0.00695396 9.20664C0.131172 6.72581 1.89301 4.61627 4.34693 4.01018C4.48409 3.9763 4.63678 3.94633 4.88668 3.89728L4.9317 3.88842C4.93577 3.8876 4.93618 3.8875 4.93618 3.8875C4.98087 3.87777 5.02199 3.85617 5.05503 3.82507C5.05503 3.82507 5.05534 3.82479 5.05829 3.82192L5.20714 3.67583C5.23072 3.65269 5.25398 3.62984 5.27693 3.6073C5.80901 3.08467 6.17759 2.72263 6.62627 2.47438C6.8892 2.3289 7.16906 2.21511 7.45977 2.13549C7.95587 1.9996 8.47729 1.99977 9.23001 2.00002ZM9.32874 3.47243C8.43943 3.47243 8.13663 3.47873 7.86293 3.5537C7.6885 3.60147 7.52058 3.66974 7.36282 3.75703C7.11529 3.89399 6.89663 4.09971 6.2678 4.71697L6.13178 4.85049C6.11962 4.86243 6.10664 4.87517 6.09316 4.88786C5.86184 5.10557 5.57406 5.25674 5.26121 5.32491C5.24298 5.32888 5.22497 5.33241 5.20811 5.33572L5.20398 5.33653C4.92386 5.39152 4.80979 5.41414 4.71295 5.43806C2.89919 5.88604 1.59696 7.44526 1.50515 9.27892C1.50024 9.37682 1.50002 9.49105 1.50002 9.77146V10.7776C1.50002 12.2908 1.50602 12.9083 1.63485 13.3983C2.02129 14.8681 3.1906 16.0159 4.68801 16.3952C5.18722 16.5217 5.81626 16.5276 7.35787 16.5276H12.6422C14.1838 16.5276 14.8128 16.5217 15.312 16.3952C16.8094 16.0159 17.9788 14.8681 18.3652 13.3983C18.494 12.9083 18.5 12.2908 18.5 10.7776V9.77146C18.5 9.49105 18.4998 9.37682 18.4949 9.27892C18.4031 7.44526 17.1009 5.88604 15.2871 5.43806C15.1903 5.41414 15.0762 5.39152 14.7961 5.33653L14.792 5.33572C14.7751 5.33242 14.7571 5.32888 14.7388 5.32491C14.426 5.25674 14.1382 5.10557 13.9069 4.88786C13.8934 4.87517 13.8804 4.86242 13.8683 4.85048L13.7322 4.71697C13.1034 4.09971 12.8848 3.89399 12.6372 3.75703C12.4795 3.66974 12.3115 3.60147 12.1371 3.5537C11.8634 3.47873 11.5606 3.47243 10.6713 3.47243H9.32874Z" fill="currentColor" />
</svg>
