<svg width="20" height="20" viewBox="0 0 20 20" fill="currentColor" xmlns="http://www.w3.org/2000/svg">
  <path fill-rule="evenodd" d="M10 0C5.58311 0 2 3.57447 2 7.98689C2 10.4012 3.07269 12.5645 4.76771 14.0288C4.32388 14.8342 3.96385 15.4895 3.73252 16.0297C3.4947 16.5851 3.33658 17.1402 3.43573 17.7084C3.55139 18.3713 3.90457 18.9693 4.4292 19.3906C4.87894 19.7517 5.44135 19.8811 6.04244 19.9409C6.63721 20 7.40059 20 8.34192 20H11.6581C12.5994 20 13.3628 20 13.9576 19.9409C14.5587 19.8811 15.1211 19.7517 15.5708 19.3906C16.0954 18.9693 16.4486 18.3713 16.5643 17.7084C16.6634 17.1402 16.5053 16.5851 16.2675 16.0297C16.0362 15.4895 15.6761 14.8342 15.2323 14.0288C16.9273 12.5645 18 10.4011 18 7.98689C18 3.57447 14.4169 0 10 0ZM3.50926 7.98689C3.50926 4.41088 6.41388 1.50944 10 1.50944C13.5861 1.50944 16.4907 4.41088 16.4907 7.98689C16.4907 11.5629 13.5861 14.4643 10 14.4643C6.41388 14.4643 3.50926 11.5629 3.50926 7.98689ZM13.9939 14.9088C12.8184 15.5862 11.4544 15.9738 10 15.9738C8.5456 15.9738 7.1816 15.5862 6.00616 14.9088C5.59448 15.6569 5.30382 16.1945 5.11988 16.624C4.91672 17.0984 4.89998 17.3198 4.92252 17.4489C4.97509 17.7502 5.13563 18.0221 5.37409 18.2135C5.47633 18.2956 5.67823 18.3878 6.19173 18.4389C6.70285 18.4897 7.39068 18.4906 8.38346 18.4906H11.6166C12.6093 18.4906 13.2972 18.4897 13.8083 18.4389C14.3218 18.3878 14.5237 18.2956 14.6259 18.2135C14.8644 18.0221 15.0249 17.7502 15.0775 17.4489C15.1 17.3198 15.0833 17.0984 14.8801 16.624C14.6962 16.1945 14.4055 15.6569 13.9939 14.9088Z" fill="currentColor" />
  <path fill-rule="evenodd" d="M9.99999 6.94407C9.41639 6.94407 8.94328 7.41724 8.94328 8.00092C8.94328 8.5846 9.41639 9.05776 9.99999 9.05776C10.5836 9.05776 11.0567 8.5846 11.0567 8.00092C11.0567 7.41724 10.5836 6.94407 9.99999 6.94407ZM7.43402 8.00092C7.43402 6.5836 8.58285 5.43463 9.99999 5.43463C11.4171 5.43463 12.566 6.5836 12.566 8.00092C12.566 9.41824 11.4171 10.5672 9.99999 10.5672C8.58285 10.5672 7.43402 9.41824 7.43402 8.00092Z" fill="currentColor" />
</svg>
