<svg width="20" height="20" viewBox="0 0 20 20" fill="currentColor" xmlns="http://www.w3.org/2000/svg">
  <path fill-rule="evenodd" d="M17.1315 5.89564C17.4653 6.14088 17.5371 6.6103 17.2918 6.94411L13.9739 11.4602C13.7507 11.764 13.5631 12.0194 13.3988 12.2164C13.2312 12.4175 13.0454 12.6113 12.8115 12.7528C12.0423 13.2184 11.0697 13.1813 10.3382 12.6586C10.1158 12.4996 9.94523 12.2922 9.79338 12.0789C9.64462 11.87 9.47697 11.6011 9.27753 11.2811L9.26526 11.2614C9.03443 10.8911 8.87937 10.643 8.75127 10.4633C8.62207 10.2821 8.56225 10.2323 8.54264 10.2187C8.28592 10.0412 7.94606 10.0412 7.68934 10.2187C7.66973 10.2323 7.60991 10.2821 7.48072 10.4633C7.35261 10.643 7.19755 10.8911 6.96672 11.2614L5.32388 13.8968C5.10476 14.2483 4.64217 14.3556 4.29066 14.1365C3.93915 13.9174 3.83183 13.4548 4.05096 13.1033L5.70641 10.4477C5.92136 10.1028 6.10091 9.81481 6.25924 9.59267C6.41958 9.36772 6.60029 9.14815 6.83605 8.98507C7.6062 8.45237 8.62578 8.45237 9.39593 8.98507C9.6317 9.14815 9.8124 9.36772 9.97274 9.59267C10.1311 9.81481 10.3106 10.1028 10.5256 10.4477L10.5382 10.4679C10.7531 10.8127 10.8965 11.0421 11.0153 11.209C11.1341 11.3758 11.1899 11.4236 11.2104 11.4382C11.4542 11.6124 11.7784 11.6248 12.0348 11.4696C12.0562 11.4566 12.1156 11.4132 12.2467 11.2559C12.3779 11.0985 12.5383 10.8808 12.7788 10.5533L16.083 6.05599C16.3283 5.72219 16.7977 5.65039 17.1315 5.89564Z" fill="currentColor" />
  <path d="M1.69224 0.929932C1.27123 0.929932 0.929932 1.27123 0.929932 1.69224V12.8248C0.929913 14.0831 0.929898 15.1044 1.03812 15.9093C1.15086 16.7479 1.39349 17.4648 1.9643 18.0356C2.5351 18.6064 3.25192 18.849 4.09053 18.9617C4.89543 19.07 5.91673 19.07 7.17495 19.0699H18.3076C18.7286 19.0699 19.0699 18.7286 19.0699 18.3076C19.0699 17.8866 18.7286 17.5453 18.3076 17.5453H7.2307C5.90369 17.5453 4.98517 17.5437 4.29368 17.4507C3.62416 17.3607 3.28268 17.1978 3.04236 16.9575C2.80204 16.7172 2.63915 16.3757 2.54914 15.7062C2.45617 15.0147 2.45455 14.0962 2.45455 12.7692V1.69224C2.45455 1.27123 2.11325 0.929932 1.69224 0.929932Z" fill="currentColor" />
</svg>
