<svg width="20" height="20" viewBox="0 0 20 20" fill="currentColor" xmlns="http://www.w3.org/2000/svg">
  <path fill-rule="evenodd" d="M16.4285 14.1155C16.6116 13.988 16.7284 13.7856 16.7472 13.5632L16.9965 10.6181C17.0314 10.2054 16.7251 9.84246 16.3124 9.80753C15.8997 9.7726 15.5367 10.0789 15.5018 10.4916L15.4335 11.2984L12.9387 7.55618C12.0225 6.18183 9.98709 6.23027 9.13727 7.64664L8.57629 8.58161C8.29301 9.05373 7.61454 9.06988 7.30913 8.61176L5.62393 6.08397C5.39417 5.73932 4.92852 5.64619 4.58387 5.87596C4.23922 6.10572 4.14609 6.57137 4.37586 6.91602L6.06105 9.44381C6.97728 10.8182 9.0127 10.7697 9.86252 9.35335L10.4235 8.41838C10.7068 7.94626 11.3853 7.93012 11.6907 8.38823L14.2585 12.24L13.3512 11.989C12.952 11.8786 12.5389 12.1127 12.4284 12.5119C12.318 12.9111 12.552 13.3243 12.9513 13.4347L15.7999 14.2228C16.015 14.2823 16.2453 14.243 16.4285 14.1155Z" fill="currentColor" />
  <path d="M1.69224 0.929932C1.27123 0.929932 0.929932 1.27123 0.929932 1.69224V12.8248C0.929913 14.0831 0.929898 15.1044 1.03812 15.9093C1.15086 16.7479 1.39349 17.4648 1.9643 18.0356C2.5351 18.6064 3.25192 18.849 4.09053 18.9617C4.89543 19.07 5.91673 19.07 7.17495 19.0699H18.3076C18.7286 19.0699 19.0699 18.7286 19.0699 18.3076C19.0699 17.8866 18.7286 17.5453 18.3076 17.5453H7.2307C5.90369 17.5453 4.98517 17.5437 4.29368 17.4507C3.62416 17.3607 3.28268 17.1978 3.04236 16.9575C2.80204 16.7172 2.63915 16.3757 2.54914 15.7062C2.45617 15.0147 2.45455 14.0962 2.45455 12.7692V1.69224C2.45455 1.27123 2.11325 0.929932 1.69224 0.929932Z" fill="currentColor" />
</svg>
