<svg width="20" height="20" viewBox="0 0 20 20" fill="currentColor" xmlns="http://www.w3.org/2000/svg">
  <path fill-rule="evenodd" d="M4.53934 6.98546C4.55528 6.97814 4.57094 6.97026 4.58626 6.96187C5.09667 6.70972 5.67449 6.56729 6.28868 6.56729C7.57479 6.56729 8.70621 7.19411 9.38922 8.14768C9.63209 8.48676 10.1024 8.56372 10.4398 8.31959C10.7771 8.07546 10.8536 7.60267 10.6108 7.2636C9.65195 5.92495 8.07085 5.05422 6.28868 5.05422C5.92623 5.05422 5.57191 5.09033 5.22931 5.15916C5.48892 4.58534 5.94125 4.06687 6.54101 3.63347C7.51854 2.92708 8.80804 2.51306 10 2.51306C11.4768 2.51306 12.5031 2.99522 13.1634 3.70011C13.8315 4.41332 14.1958 5.43058 14.1958 6.6216C14.1958 7.03942 14.5328 7.37813 14.9484 7.37813C15.8646 7.37813 17.4948 8.21271 17.4948 10.2704C17.4948 11.0173 17.3988 11.5044 17.2092 11.8977C17.0197 12.2909 16.7019 12.6627 16.1305 13.1177C15.8047 13.3772 15.7499 13.853 16.008 14.1805C16.2661 14.508 16.7395 14.5631 17.0653 14.3037C17.7311 13.7734 18.2379 13.2337 18.5639 12.5574C18.8898 11.8812 19 11.1408 19 10.2704C19 7.64077 17.1727 6.28502 15.6692 5.94918C15.5498 4.70589 15.0921 3.55195 14.2592 2.66284C13.2701 1.60692 11.8222 1 10 1C8.49405 1 6.89697 1.51278 5.66239 2.40491C4.5422 3.21439 3.6553 4.39051 3.49879 5.83874C2.00215 6.75669 1 8.39227 1 10.2704C1 11.8825 1.59312 13.1983 2.92497 14.2958C3.24643 14.5606 3.72064 14.5134 3.98415 14.1903C4.24765 13.8672 4.20068 13.3905 3.87922 13.1256C2.89534 12.3149 2.50523 11.4281 2.50523 10.2704C2.50523 8.85122 3.32585 7.60601 4.53934 6.98546Z" fill="currentColor" />
  <path fill-rule="evenodd" d="M10.494 11.8287C10.4637 11.8599 10.4322 11.8926 10.3993 11.9266L7.96818 14.4434C7.9396 14.473 7.9121 14.5015 7.8856 14.5289C7.92367 14.529 7.96316 14.529 8.00418 14.529H8.40365C8.41478 14.529 8.42603 14.529 8.43737 14.529C8.61891 14.5289 8.82548 14.5288 9.00003 14.5534C9.20672 14.5825 9.49505 14.6612 9.72348 14.9213C9.95191 15.1814 9.9938 15.4787 9.99694 15.6885C9.99959 15.8657 9.97386 16.0717 9.95124 16.2528C9.94983 16.2641 9.94843 16.2753 9.94705 16.2864L9.89187 16.7301C9.88558 16.7807 9.87956 16.8292 9.87383 16.8758C9.90688 16.8427 9.94129 16.8081 9.97713 16.7721L12.4505 14.2859C12.4801 14.2561 12.5086 14.2274 12.536 14.1998C12.4972 14.1998 12.4569 14.1998 12.415 14.1998H12.0014C11.9907 14.1998 11.98 14.1998 11.9691 14.1998C11.7977 14.1999 11.6005 14.2 11.4327 14.1768C11.2328 14.1491 10.9576 14.0751 10.732 13.8335C10.5065 13.5918 10.4505 13.3111 10.4358 13.1087C10.4234 12.9389 10.4361 12.7411 10.4471 12.5692C10.4478 12.5583 10.4484 12.5475 10.4491 12.5368L10.4854 11.9649C10.4884 11.9176 10.4913 11.8722 10.494 11.8287ZM10.1418 10.0785C10.344 9.91934 10.817 9.58811 11.3727 9.83563C11.9283 10.0831 12.0019 10.6579 12.0204 10.9154C12.0416 11.2105 12.0171 11.5972 11.9908 12.0109C11.9897 12.0276 11.9886 12.0444 11.9876 12.0612L11.9513 12.633C11.9501 12.6517 11.949 12.6696 11.9479 12.6867C11.965 12.6867 11.9827 12.6867 12.0014 12.6867H12.415C12.4314 12.6867 12.4477 12.6867 12.464 12.6867C12.8337 12.6866 13.1886 12.6865 13.4611 12.7253C13.7164 12.7616 14.2323 12.8739 14.4502 13.4028C14.6681 13.9316 14.3824 14.3778 14.2274 14.5849C14.062 14.806 13.8109 15.0582 13.5495 15.3209C13.538 15.3325 13.5264 15.3441 13.5148 15.3558L11.0415 17.842C11.0295 17.854 11.0176 17.866 11.0057 17.8779C10.6934 18.192 10.4061 18.4808 10.1619 18.6685C9.95935 18.8243 9.45908 19.1745 8.89123 18.8953C8.32339 18.6161 8.29123 18.0042 8.28916 17.7478C8.28667 17.4388 8.33713 17.0335 8.39198 16.5929C8.39406 16.5762 8.39616 16.5593 8.39826 16.5425L8.45344 16.0987C8.45589 16.079 8.45824 16.0601 8.46047 16.0421C8.44236 16.042 8.42345 16.042 8.40365 16.042H8.00418C7.98789 16.042 7.97163 16.042 7.95538 16.042C7.59289 16.0421 7.24314 16.0422 6.97383 16.0037C6.71872 15.9673 6.21121 15.8548 5.99206 15.3338C5.77291 14.8129 6.04616 14.3685 6.19786 14.1591C6.358 13.9381 6.60169 13.6859 6.85427 13.4246C6.86559 13.4128 6.87692 13.4011 6.88826 13.3894L9.3194 10.8725C9.33108 10.8605 9.34273 10.8484 9.35434 10.8364C9.64152 10.539 9.91 10.2609 10.1418 10.0785Z" fill="currentColor" />
</svg>
