<svg width="20" height="20" viewBox="0 0 20 20" fill="currentColor" xmlns="http://www.w3.org/2000/svg">
  <path fill-rule="evenodd" d="M10 2.5C5.85786 2.5 2.5 5.85786 2.5 10C2.5 14.1421 5.85786 17.5 10 17.5C14.1421 17.5 17.5 14.1421 17.5 10C17.5 5.85786 14.1421 2.5 10 2.5ZM1 10C1 5.02944 5.02944 1 10 1C14.9706 1 19 5.02944 19 10C19 14.9706 14.9706 19 10 19C5.02944 19 1 14.9706 1 10Z" fill="currentColor" />
  <path fill-rule="evenodd" d="M14.125 8.21875C14.5392 8.21875 14.875 8.55454 14.875 8.96875C14.875 9.38296 14.5392 9.71875 14.125 9.71875H11.0312C10.617 9.71875 10.2812 9.38296 10.2812 8.96875V5.875C10.2812 5.46079 10.617 5.125 11.0312 5.125C11.4455 5.125 11.7812 5.46079 11.7812 5.875V7.15809L13.5947 5.34467C13.8876 5.05178 14.3624 5.05178 14.6553 5.34467C14.9482 5.63756 14.9482 6.11244 14.6553 6.40533L12.8419 8.21875H14.125Z" fill="currentColor" />
  <path fill-rule="evenodd" d="M5.875 11.7812C5.46079 11.7812 5.125 11.4455 5.125 11.0312C5.125 10.617 5.46079 10.2812 5.875 10.2812H8.96875C9.38296 10.2812 9.71875 10.617 9.71875 11.0312V14.125C9.71875 14.5392 9.38296 14.875 8.96875 14.875C8.55454 14.875 8.21875 14.5392 8.21875 14.125V12.8419L6.40533 14.6553C6.11244 14.9482 5.63756 14.9482 5.34467 14.6553C5.05178 14.3624 5.05178 13.8876 5.34467 13.5947L7.15809 11.7812H5.875Z" fill="currentColor" />
</svg>
