<svg width="20" height="20" viewBox="0 0 20 20" fill="currentColor" xmlns="http://www.w3.org/2000/svg">
  <path d="M5.42283 5.601C5.0022 5.601 4.66187 5.94366 4.66187 6.36553C4.66187 6.78741 5.0022 7.13007 5.42283 7.13007H12.7464C13.167 7.13007 13.5074 6.78741 13.5074 6.36553C13.5074 5.94366 13.167 5.601 12.7464 5.601H5.42283Z" fill="currentColor" />
  <path d="M5.42283 8.36163C5.0022 8.36163 4.66187 8.70428 4.66187 9.12616C4.66187 9.54804 5.0022 9.89069 5.42283 9.89069H10.0001C10.4207 9.89069 10.761 9.54804 10.761 9.12616C10.761 8.70428 10.4207 8.36163 10.0001 8.36163H5.42283Z" fill="currentColor" />
  <path fill-rule="evenodd" d="M10.9596 1H9.04037C7.57676 0.999992 6.41796 0.999986 5.49454 1.09783C4.54831 1.19808 3.76203 1.40792 3.08102 1.88725C2.61466 2.21549 2.20906 2.62321 1.88254 3.09195C1.40577 3.77639 1.19706 4.56659 1.09733 5.51762C1 6.44578 1.00001 7.61054 1.00002 9.08181L1.00001 11.2924C0.999876 12.2702 0.999792 12.8908 1.11901 13.4235C1.53283 15.2724 2.96934 16.7166 4.80919 17.1327C5.33924 17.2526 5.95679 17.2525 6.92937 17.2523L7.0412 17.2523C7.3035 17.2523 7.36799 17.2538 7.42379 17.2609C7.65339 17.2902 7.8674 17.3935 8.03367 17.5556C8.07409 17.5949 8.11553 17.6447 8.27938 17.8506L8.38466 17.9829C8.51828 18.1508 8.64074 18.3047 8.75106 18.426C8.86761 18.5541 9.01244 18.6941 9.20387 18.7979C9.70076 19.0674 10.2992 19.0674 10.7961 18.7979C10.9876 18.6941 11.1324 18.5541 11.2489 18.426C11.3593 18.3046 11.4818 18.1506 11.6156 17.9826L11.7206 17.8506C11.8845 17.6447 11.9259 17.5949 11.9663 17.5556C12.1326 17.3935 12.3466 17.2902 12.5762 17.2609C12.632 17.2538 12.6965 17.2523 12.9588 17.2523L13.0706 17.2523C14.0432 17.2525 14.6608 17.2526 15.1908 17.1327C17.0307 16.7166 18.4672 15.2724 18.881 13.4235C19.0002 12.8908 19.0001 12.2701 19 11.2923L19 9.0819C19 7.61059 19 6.4458 18.9027 5.51762C18.8029 4.56659 18.5942 3.77639 18.1175 3.09195C17.7909 2.62321 17.3853 2.21549 16.919 1.88725C16.238 1.40792 15.4517 1.19808 14.5055 1.09783C13.582 0.999986 12.4232 0.999992 10.9596 1ZM5.65416 2.61846C6.48847 2.53006 7.56709 2.52907 9.08455 2.52907H10.9154C12.4329 2.52907 13.5115 2.53006 14.3458 2.61846C15.1666 2.70542 15.6628 2.87003 16.0457 3.13958C16.3667 3.36546 16.6458 3.64606 16.8706 3.96869C17.1388 4.35375 17.3026 4.85269 17.3891 5.67782C17.4771 6.51654 17.4781 7.60084 17.4781 9.12617V11.1801C17.4781 12.3063 17.4734 12.743 17.3961 13.088C17.1112 14.3609 16.1224 15.3547 14.8566 15.6409C14.5134 15.7186 14.0792 15.7233 12.9588 15.7233L12.9194 15.7233C12.7147 15.7232 12.548 15.7231 12.3845 15.744C11.828 15.815 11.3095 16.0655 10.9068 16.4579C10.7885 16.5732 10.6844 16.704 10.5566 16.8647L10.4407 17.0104C10.2887 17.2013 10.1977 17.315 10.1254 17.3946C10.0921 17.4311 10.0724 17.4495 10.0636 17.4571C10.0232 17.4755 9.97681 17.4755 9.93638 17.4571C9.92764 17.4495 9.90788 17.4311 9.87462 17.3946C9.80228 17.315 9.71127 17.2013 9.55934 17.0104L9.4434 16.8647C9.31562 16.704 9.21155 16.5732 9.09322 16.4579C8.69052 16.0655 8.172 15.815 7.6155 15.744C7.45196 15.7231 7.28528 15.7232 7.08063 15.7233L7.0412 15.7233C5.92083 15.7233 5.48656 15.7186 5.1434 15.6409C3.87757 15.3547 2.88876 14.3609 2.60387 13.088C2.52663 12.743 2.52195 12.3063 2.52195 11.1801V9.12617C2.52195 7.60084 2.52294 6.51654 2.61089 5.67782C2.69741 4.85269 2.86121 4.35375 3.12944 3.96869C3.35418 3.64606 3.63333 3.36546 3.95426 3.13958C4.33722 2.87003 4.83342 2.70542 5.65416 2.61846Z" fill="currentColor" />
</svg>
