<svg width="20" height="20" viewBox="0 0 20 20" fill="currentColor" xmlns="http://www.w3.org/2000/svg">
  <path d="M12 10.25C12.4142 10.25 12.75 10.5858 12.75 11C12.75 11.4142 12.4142 11.75 12 11.75H8C7.58579 11.75 7.25 11.4142 7.25 11C7.25 10.5858 7.58579 10.25 8 10.25H12Z" fill="currentColor" />
  <path fill-rule="evenodd" d="M7.59655 2.20712C7.10136 1.9989 6.56115 1.99943 5.9023 2.00007L4.40479 2.00015C3.57853 2.00013 2.88271 2.0001 2.32874 2.07318C1.74135 2.15066 1.20072 2.32242 0.764844 2.75008C0.328798 3.1779 0.153514 3.70882 0.0744639 4.28569C-4.7408e-05 4.82945 -2.52828e-05 5.51233 9.81743e-07 6.32281V11.8675C-1.65965e-05 13.1029 -3.08678e-05 14.1058 0.108284 14.8963C0.221156 15.72 0.464085 16.4241 1.03541 16.9846C1.60656 17.545 2.32369 17.7831 3.16265 17.8938C3.96804 18 4.99002 18 6.2493 18H13.7507C15.01 18 16.032 18 16.8374 17.8938C17.6763 17.7831 18.3934 17.545 18.9646 16.9846C19.5359 16.4241 19.7788 15.72 19.8917 14.8963C20 14.1058 20 13.1029 20 11.8676V9.94525C20 8.70992 20 7.70702 19.8917 6.91657C19.7788 6.09287 19.5359 5.38878 18.9646 4.82823C18.3934 4.26785 17.6763 4.02972 16.8374 3.91905C16.0319 3.81281 15.0099 3.81283 13.7506 3.81285L9.91202 3.81285C9.70527 3.81285 9.59336 3.81232 9.51046 3.80596C9.47861 3.80352 9.46101 3.80081 9.45249 3.79919C9.44546 3.79427 9.43137 3.78367 9.40771 3.76281C9.34589 3.70835 9.26838 3.62926 9.12578 3.48235L8.91813 3.26831C8.46421 2.79975 8.09187 2.4154 7.59655 2.20712ZM2.53158 3.55817C2.97217 3.50005 3.5649 3.49846 4.45741 3.49846H5.77707C6.19724 3.49846 6.45953 3.50169 6.63994 3.51453C6.81907 3.52729 6.91262 3.54925 6.99675 3.58462C7.08084 3.61998 7.16148 3.67125 7.29433 3.78964C7.42818 3.90891 7.6114 4.09298 7.90119 4.39152L8.02253 4.51653L8.07907 4.57502C8.29018 4.79381 8.5293 5.04163 8.85233 5.17747C9.17524 5.31324 9.52282 5.31222 9.82983 5.31132L9.91202 5.31115H13.6951C15.023 5.31115 15.9424 5.31274 16.6345 5.40404C17.3048 5.49246 17.6468 5.6525 17.8873 5.88854C18.1278 6.12441 18.2906 6.45944 18.3807 7.11653C18.4737 7.79534 18.4753 8.69706 18.4753 10.0001V11.8128C18.4753 13.1158 18.4737 14.0175 18.3807 14.6963C18.2906 15.3534 18.1278 15.6884 17.8873 15.9243C17.6468 16.1603 17.3048 16.3204 16.6345 16.4088C15.9424 16.5001 15.023 16.5017 13.6951 16.5017H6.30494C4.97698 16.5017 4.05764 16.5001 3.36549 16.4088C2.69519 16.3204 2.35324 16.1603 2.11266 15.9243C1.87226 15.6884 1.70936 15.3534 1.61932 14.6963C1.5263 14.0175 1.52468 13.1158 1.52468 11.8128V6.37469C1.52468 5.49891 1.5263 4.91765 1.5855 4.48566C1.64172 4.07541 1.73696 3.91355 1.8421 3.81039C1.94741 3.70706 2.11288 3.6134 2.53158 3.55817Z" fill="currentColor" />
</svg>
