<svg width="20" height="20" viewBox="0 0 20 20" fill="currentColor" xmlns="http://www.w3.org/2000/svg">
  <path fill-rule="evenodd" d="M5.23658 1H5.14591C4.4316 0.999981 3.82963 0.999965 3.34533 1.05721C2.8342 1.11763 2.35677 1.25068 1.94631 1.58753C1.81526 1.69508 1.69508 1.81526 1.58753 1.94631C1.25068 2.35677 1.11763 2.8342 1.05721 3.34533C0.999965 3.82963 0.999981 4.43156 1 5.14587V5.23658C0.999981 5.9509 0.999965 6.55287 1.05721 7.03717C1.11763 7.5483 1.25068 8.02573 1.58753 8.43619C1.69508 8.56724 1.81526 8.68742 1.94631 8.79497C2.35677 9.13182 2.8342 9.26487 3.34533 9.32529C3.82963 9.38254 4.43156 9.38252 5.14587 9.3825H5.23659C5.9509 9.38252 6.55287 9.38254 7.03716 9.32529C7.5483 9.26487 8.02573 9.13182 8.43618 8.79497C8.56724 8.68742 8.68741 8.56724 8.79497 8.43619C9.13182 8.02573 9.26486 7.5483 9.32528 7.03717C9.38253 6.55287 9.38251 5.95094 9.38249 5.23663V5.14591C9.38251 4.4316 9.38253 3.82963 9.32528 3.34533C9.26486 2.8342 9.13182 2.35677 8.79497 1.94631C8.68741 1.81526 8.56724 1.69508 8.43618 1.58753C8.02573 1.25068 7.5483 1.11763 7.03716 1.05721C6.55287 0.999965 5.95089 0.999981 5.23658 1ZM3.52292 2.5596C3.90792 2.51409 4.41987 2.51285 5.19125 2.51285C5.96262 2.51285 6.47457 2.51409 6.85957 2.5596C7.22787 2.60313 7.38019 2.67799 7.47644 2.75697C7.5309 2.80167 7.58083 2.8516 7.62552 2.90605C7.70451 3.0023 7.77936 3.15463 7.82289 3.52292C7.8684 3.90793 7.86964 4.41988 7.86964 5.19125C7.86964 5.96263 7.8684 6.47457 7.82289 6.85958C7.77936 7.22787 7.70451 7.3802 7.62552 7.47645C7.58083 7.5309 7.5309 7.58083 7.47644 7.62553C7.38019 7.70451 7.22787 7.77937 6.85957 7.8229C6.47457 7.86841 5.96262 7.86965 5.19125 7.86965C4.41987 7.86965 3.90792 7.86841 3.52292 7.8229C3.15463 7.77937 3.0023 7.70451 2.90605 7.62553C2.8516 7.58083 2.80166 7.5309 2.75697 7.47645C2.67798 7.3802 2.60313 7.22787 2.5596 6.85958C2.51409 6.47457 2.51285 5.96263 2.51285 5.19125C2.51285 4.41988 2.51409 3.90793 2.5596 3.52292C2.60313 3.15463 2.67798 3.0023 2.75697 2.90605C2.80166 2.8516 2.8516 2.80167 2.90605 2.75697C3.0023 2.67799 3.15463 2.60313 3.52292 2.5596Z" fill="currentColor" />
  <path fill-rule="evenodd" d="M14.8541 1H14.7634C14.0491 0.999981 13.4471 0.999965 12.9628 1.05721C12.4517 1.11763 11.9743 1.25068 11.5638 1.58753C11.4327 1.69508 11.3126 1.81526 11.205 1.94631C10.8682 2.35677 10.7351 2.8342 10.6747 3.34533C10.6175 3.82963 10.6175 4.43157 10.6175 5.14589V5.23659C10.6175 5.95091 10.6175 6.55287 10.6747 7.03717C10.7351 7.5483 10.8682 8.02573 11.205 8.43619C11.3126 8.56724 11.4327 8.68742 11.5638 8.79497C11.9743 9.13182 12.4517 9.26487 12.9628 9.32529C13.4471 9.38254 14.0491 9.38252 14.7634 9.3825H14.8541C15.5684 9.38252 16.1704 9.38254 16.6547 9.32529C17.1658 9.26487 17.6432 9.13182 18.0537 8.79497C18.1847 8.68742 18.3049 8.56724 18.4125 8.43619C18.7493 8.02573 18.8824 7.5483 18.9428 7.03717C19 6.55285 19 5.9509 19 5.23655V5.14595C19 4.4316 19 3.82965 18.9428 3.34533C18.8824 2.8342 18.7493 2.35677 18.4125 1.94631C18.3049 1.81526 18.1847 1.69508 18.0537 1.58753C17.6432 1.25068 17.1658 1.11763 16.6547 1.05721C16.1704 0.999965 15.5684 0.999981 14.8541 1ZM13.1404 2.5596C13.5254 2.51409 14.0374 2.51285 14.8087 2.51285C15.5801 2.51285 16.0921 2.51409 16.4771 2.5596C16.8454 2.60313 16.9977 2.67799 17.0939 2.75697C17.1484 2.80167 17.1983 2.8516 17.243 2.90605C17.322 3.0023 17.3969 3.15463 17.4404 3.52292C17.4859 3.90793 17.4871 4.41988 17.4871 5.19125C17.4871 5.96263 17.4859 6.47457 17.4404 6.85958C17.3969 7.22787 17.322 7.3802 17.243 7.47645C17.1983 7.5309 17.1484 7.58083 17.0939 7.62553C16.9977 7.70451 16.8454 7.77937 16.4771 7.8229C16.0921 7.86841 15.5801 7.86965 14.8087 7.86965C14.0374 7.86965 13.5254 7.86841 13.1404 7.8229C12.7721 7.77937 12.6198 7.70451 12.5235 7.62553C12.4691 7.58083 12.4192 7.5309 12.3745 7.47645C12.2955 7.3802 12.2206 7.22787 12.1771 6.85958C12.1316 6.47457 12.1303 5.96263 12.1303 5.19125C12.1303 4.41988 12.1316 3.90793 12.1771 3.52292C12.2206 3.15463 12.2955 3.0023 12.3745 2.90605C12.4192 2.8516 12.4691 2.80167 12.5235 2.75697C12.6198 2.67799 12.7721 2.60313 13.1404 2.5596Z" fill="currentColor" />
  <path fill-rule="evenodd" d="M5.23659 10.6175H5.14591C4.43159 10.6175 3.82963 10.6175 3.34533 10.6747C2.8342 10.7351 2.35677 10.8682 1.94631 11.205C1.81526 11.3126 1.69508 11.4328 1.58753 11.5638C1.25068 11.9743 1.11763 12.4517 1.05721 12.9628C0.999965 13.4471 0.999981 14.0491 1 14.7634V14.8541C0.999981 15.5684 0.999965 16.1704 1.05721 16.6547C1.11763 17.1658 1.25068 17.6432 1.58753 18.0537C1.69508 18.1847 1.81526 18.3049 1.94631 18.4125C2.35677 18.7493 2.8342 18.8824 3.34533 18.9428C3.82964 19 4.4316 19 5.14594 19H5.23655C5.95089 19 6.55285 19 7.03716 18.9428C7.5483 18.8824 8.02573 18.7493 8.43618 18.4125C8.56724 18.3049 8.68741 18.1847 8.79497 18.0537C9.13182 17.6432 9.26486 17.1658 9.32528 16.6547C9.38253 16.1704 9.38251 15.5684 9.38249 14.8541V14.7634C9.38251 14.0491 9.38253 13.4471 9.32528 12.9628C9.26486 12.4517 9.13182 11.9743 8.79497 11.5638C8.68741 11.4328 8.56724 11.3126 8.43618 11.205C8.02573 10.8682 7.5483 10.7351 7.03716 10.6747C6.55286 10.6175 5.95091 10.6175 5.23659 10.6175ZM3.52292 12.1771C3.90792 12.1316 4.41987 12.1304 5.19125 12.1304C5.96262 12.1304 6.47457 12.1316 6.85957 12.1771C7.22787 12.2206 7.38019 12.2955 7.47644 12.3745C7.5309 12.4192 7.58083 12.4691 7.62552 12.5236C7.70451 12.6198 7.77936 12.7721 7.82289 13.1404C7.8684 13.5254 7.86964 14.0374 7.86964 14.8088C7.86964 15.5801 7.8684 16.0921 7.82289 16.4771C7.77936 16.8454 7.70451 16.9977 7.62552 17.0939C7.58083 17.1484 7.5309 17.1983 7.47644 17.243C7.38019 17.322 7.22787 17.3969 6.85957 17.4404C6.47457 17.4859 5.96262 17.4872 5.19125 17.4872C4.41987 17.4872 3.90792 17.4859 3.52292 17.4404C3.15463 17.3969 3.0023 17.322 2.90605 17.243C2.8516 17.1983 2.80166 17.1484 2.75697 17.0939C2.67798 16.9977 2.60313 16.8454 2.5596 16.4771C2.51409 16.0921 2.51285 15.5801 2.51285 14.8088C2.51285 14.0374 2.51409 13.5254 2.5596 13.1404C2.60313 12.7721 2.67798 12.6198 2.75697 12.5236C2.80166 12.4691 2.8516 12.4192 2.90605 12.3745C3.0023 12.2955 3.15463 12.2206 3.52292 12.1771Z" fill="currentColor" />
  <path fill-rule="evenodd" d="M14.8541 10.6175H14.7634C14.0491 10.6175 13.4471 10.6175 12.9628 10.6747C12.4517 10.7351 11.9743 10.8682 11.5638 11.205C11.4328 11.3126 11.3126 11.4328 11.205 11.5638C10.8682 11.9743 10.7351 12.4517 10.6747 12.9628C10.6175 13.4471 10.6175 14.0491 10.6175 14.7634V14.8541C10.6175 15.5684 10.6175 16.1704 10.6747 16.6547C10.7351 17.1658 10.8682 17.6432 11.205 18.0537C11.3126 18.1847 11.4328 18.3049 11.5638 18.4125C11.9743 18.7493 12.4517 18.8824 12.9628 18.9428C13.4472 19 14.0491 19 14.7635 19H14.8541C15.5684 19 16.1704 19 16.6547 18.9428C17.1658 18.8824 17.6432 18.7493 18.0537 18.4125C18.1847 18.3049 18.3049 18.1847 18.4125 18.0537C18.7493 17.6432 18.8824 17.1658 18.9428 16.6547C19 16.1704 19 15.5684 19 14.8541V14.7634C19 14.0491 19 13.4472 18.9428 12.9628C18.8824 12.4517 18.7493 11.9743 18.4125 11.5638C18.3049 11.4328 18.1847 11.3126 18.0537 11.205C17.6432 10.8682 17.1658 10.7351 16.6547 10.6747C16.1704 10.6175 15.5684 10.6175 14.8541 10.6175ZM13.1404 12.1771C13.5254 12.1316 14.0374 12.1304 14.8088 12.1304C15.5801 12.1304 16.0921 12.1316 16.4771 12.1771C16.8454 12.2206 16.9977 12.2955 17.0939 12.3745C17.1484 12.4192 17.1983 12.4691 17.243 12.5236C17.322 12.6198 17.3969 12.7721 17.4404 13.1404C17.4859 13.5254 17.4872 14.0374 17.4872 14.8088C17.4872 15.5801 17.4859 16.0921 17.4404 16.4771C17.3969 16.8454 17.322 16.9977 17.243 17.0939C17.1983 17.1484 17.1484 17.1983 17.0939 17.243C16.9977 17.322 16.8454 17.3969 16.4771 17.4404C16.0921 17.4859 15.5801 17.4872 14.8088 17.4872C14.0374 17.4872 13.5254 17.4859 13.1404 17.4404C12.7721 17.3969 12.6198 17.322 12.5236 17.243C12.4691 17.1983 12.4192 17.1484 12.3745 17.0939C12.2955 16.9977 12.2206 16.8454 12.1771 16.4771C12.1316 16.0921 12.1304 15.5801 12.1304 14.8088C12.1304 14.0374 12.1316 13.5254 12.1771 13.1404C12.2206 12.7721 12.2955 12.6198 12.3745 12.5236C12.4192 12.4691 12.4691 12.4192 12.5236 12.3745C12.6198 12.2955 12.7721 12.2206 13.1404 12.1771Z" fill="currentColor" />
</svg>
