<svg width="20" height="20" viewBox="0 0 20 20" fill="currentColor" xmlns="http://www.w3.org/2000/svg">
  <path fill-rule="evenodd" d="M11.8756 1H8.1244C7.05616 0.999984 6.19029 0.999971 5.49746 1.08568C4.77572 1.17496 4.15892 1.36522 3.6313 1.80412C3.10368 2.24303 2.80432 2.81489 2.58514 3.50831C2.37474 4.17396 2.21714 5.02537 2.02269 6.07576L1.28911 10.0382C1.16636 10.7012 1.09782 11.0714 1.05734 11.4472C1.04611 11.5514 1.03653 11.6558 1.0286 11.7603C0.999991 12.1372 0.999994 12.5137 1 13.1879V13.261C0.999988 14.3059 0.999977 15.1483 1.07526 15.8205C1.15308 16.5154 1.31856 17.1132 1.70934 17.6272C1.89951 17.8773 2.1227 18.1005 2.37281 18.2907C2.88678 18.6814 3.48463 18.8469 4.17954 18.9247C4.85169 19 5.69412 19 6.73892 19H13.2611C14.3058 19 15.1483 19 15.8205 18.9247C16.5154 18.8469 17.1132 18.6814 17.6272 18.2907C17.8773 18.1005 18.1005 17.8773 18.2907 17.6272C18.6814 17.1132 18.8469 16.5154 18.9247 15.8205C19 15.1483 19 14.3059 19 13.2611V13.1879C19 12.5136 19 12.1372 18.9714 11.7603C18.9635 11.6558 18.9539 11.5514 18.9427 11.4472C18.9022 11.0714 18.8336 10.7012 18.7109 10.0381L17.9773 6.0758C17.7829 5.02539 17.6253 4.17397 17.4149 3.50831C17.1957 2.81489 16.8963 2.24303 16.3687 1.80412C15.8411 1.36522 15.2243 1.17496 14.5025 1.08568C13.8097 0.999971 12.9438 0.999984 11.8756 1ZM4.52092 2.87356C4.76663 2.66917 5.08988 2.53778 5.66824 2.46624C6.26572 2.39233 7.04531 2.39109 8.16973 2.39109H11.8303C12.9547 2.39109 13.7343 2.39233 14.3318 2.46624C14.9101 2.53778 15.2334 2.66917 15.4791 2.87356C15.7248 3.07795 15.9128 3.37188 16.0885 3.92755C16.2699 4.5016 16.413 5.26794 16.6177 6.37357L17.3373 10.2605C17.3949 10.5714 17.4384 10.8068 17.4719 11L15.3663 11C15.0575 11 14.767 10.9999 14.5231 11.0273C14.2513 11.0578 13.9655 11.1282 13.6965 11.3166C13.4274 11.5051 13.2636 11.7496 13.142 11.9946C13.033 12.2145 12.9337 12.4875 12.8282 12.7777L12.7739 12.9272C12.6524 13.2613 12.5814 13.4534 12.5142 13.5888C12.4839 13.6498 12.4635 13.68 12.4526 13.694C12.4475 13.7005 12.4447 13.7033 12.444 13.7039L12.443 13.7048L12.4419 13.7054C12.441 13.7058 12.4374 13.7075 12.4296 13.7101C12.4127 13.7156 12.3774 13.7245 12.3097 13.7321C12.1595 13.7489 11.9547 13.75 11.5991 13.75H8.40086C8.04533 13.75 7.8405 13.7489 7.69033 13.7321C7.62265 13.7245 7.58732 13.7156 7.5704 13.7101C7.56665 13.7089 7.56387 13.7078 7.5619 13.7071C7.55975 13.7062 7.55857 13.7056 7.55814 13.7054L7.557 13.7048L7.55599 13.7039C7.55534 13.7033 7.5525 13.7005 7.54743 13.694C7.53651 13.68 7.51606 13.6498 7.48579 13.5888C7.41864 13.4534 7.34761 13.2613 7.22611 12.9272L7.17178 12.7778C7.06628 12.4875 6.96705 12.2145 6.85796 11.9946C6.7364 11.7496 6.57255 11.5051 6.30354 11.3166C6.03454 11.1282 5.74875 11.0578 5.47691 11.0273C5.23296 10.9999 4.94248 11 4.63366 11L2.5281 11C2.56164 10.8068 2.60511 10.5714 2.66268 10.2605L3.38228 6.37357C3.58697 5.26794 3.73011 4.5016 3.91155 3.92755C4.08718 3.37188 4.27522 3.07795 4.52092 2.87356ZM2.39304 12.5C2.39117 12.69 2.39109 12.9203 2.39109 13.2194C2.39109 14.3156 2.39211 15.08 2.4577 15.6656C2.52174 16.2375 2.64 16.5528 2.81669 16.7852C2.9308 16.9353 3.06471 17.0692 3.21478 17.1833C3.44716 17.36 3.76255 17.4783 4.33437 17.5423C4.92003 17.6079 5.68436 17.6089 6.78056 17.6089H13.2194C14.3156 17.6089 15.08 17.6079 15.6656 17.5423C16.2375 17.4783 16.5528 17.36 16.7852 17.1833C16.9353 17.0692 17.0692 16.9353 17.1833 16.7852C17.36 16.5528 17.4783 16.2375 17.5423 15.6656C17.6079 15.08 17.6089 14.3156 17.6089 13.2194C17.6089 12.9203 17.6088 12.69 17.607 12.5H15.4009C15.0453 12.5 14.8405 12.5011 14.6903 12.5179C14.6226 12.5255 14.5873 12.5345 14.5704 12.5399C14.5626 12.5425 14.559 12.5442 14.5581 12.5446L14.557 12.5452L14.556 12.5461C14.5553 12.5467 14.5525 12.5495 14.5474 12.556C14.5365 12.57 14.5161 12.6002 14.4858 12.6612C14.4186 12.7966 14.3476 12.9887 14.2261 13.3228L14.1718 13.4722C14.0663 13.7625 13.967 14.0355 13.858 14.2554C13.7364 14.5004 13.5726 14.745 13.3035 14.9334C13.0345 15.1218 12.7487 15.1922 12.4769 15.2227C12.233 15.2501 11.9425 15.25 11.6337 15.25H8.36635C8.05753 15.25 7.76703 15.2501 7.52309 15.2227C7.25125 15.1922 6.96547 15.1218 6.69646 14.9334C6.42745 14.745 6.2636 14.5004 6.14204 14.2554C6.03295 14.0355 5.93372 13.7625 5.82821 13.4722L5.77389 13.3228C5.65239 12.9887 5.58136 12.7966 5.51421 12.6612C5.48394 12.6002 5.46349 12.57 5.45257 12.556C5.4475 12.5495 5.44466 12.5467 5.44401 12.5461L5.443 12.5452L5.44186 12.5446C5.44104 12.5442 5.43744 12.5425 5.4296 12.5399C5.41268 12.5345 5.37735 12.5255 5.30967 12.5179C5.1595 12.5011 4.95467 12.5 4.59915 12.5H2.39304Z" fill="currentColor" />
</svg>
