<svg width="20" height="20" viewBox="0 0 20 20" fill="currentColor" xmlns="http://www.w3.org/2000/svg">
  <path fill-rule="evenodd" d="M16.3669 3.35653C12.8522 -0.15819 7.15369 -0.15819 3.63897 3.35653C0.12425 6.87125 0.12425 12.5697 3.63897 16.0845C7.15369 19.5992 12.8522 19.5992 16.3669 16.0845C19.8816 12.5697 19.8816 6.87125 16.3669 3.35653ZM14.3742 3.62464C14.7007 3.85939 15.0126 4.12357 15.3062 4.41719C15.5998 4.71079 15.864 5.02267 16.0987 5.34917L14.6579 6.34374C14.4824 6.10228 14.286 5.87171 14.0688 5.65455C13.8517 5.43739 13.6211 5.24096 13.3796 5.06542L14.3742 3.62464ZM13.0697 2.87394C11.103 1.99346 8.83481 2.00277 6.8745 2.90188L7.9366 4.35318C9.25864 3.84492 10.7297 3.84283 12.0529 4.34692L13.0697 2.87394ZM5.57486 3.66589C5.26893 3.89022 4.97617 4.14065 4.69963 4.41719C4.42312 4.6937 4.17271 4.98643 3.94841 5.29231L5.3609 6.326C5.53308 6.09106 5.72518 5.86645 5.93709 5.65455C6.14899 5.44265 6.3736 5.25055 6.60854 5.07836L5.57486 3.66589ZM3.18437 6.59194C2.2758 8.57279 2.27578 10.8681 3.18432 12.8489L4.63572 11.7868C4.12536 10.4593 4.12536 8.98156 4.63572 7.65407L3.18437 6.59194ZM3.94834 14.1486C4.17266 14.4545 4.42309 14.7473 4.69963 15.0238C4.97615 15.3003 5.26889 15.5507 5.57479 15.775L6.60854 14.3625C6.3736 14.1903 6.14899 13.9982 5.93708 13.7863C5.72518 13.5744 5.53308 13.3498 5.3609 13.1148L3.94834 14.1486ZM6.87442 16.5391C8.8553 17.4476 11.1506 17.4476 13.1315 16.5391L12.0693 15.0876C10.7418 15.598 9.2641 15.598 7.9366 15.0876L6.87442 16.5391ZM14.4311 15.775C14.737 15.5507 15.0297 15.3003 15.3062 15.0238C15.5828 14.7472 15.8332 14.4545 16.0575 14.1486L14.645 13.1148C14.4728 13.3498 14.2807 13.5744 14.0688 13.7863C13.8569 13.9982 13.6323 14.1903 13.3974 14.3625L14.4311 15.775ZM16.8215 12.8489C17.7207 10.8886 17.73 8.62033 16.8494 6.65363L15.3764 7.67044C15.8805 8.9937 15.8784 10.4647 15.3702 11.7868L16.8215 12.8489ZM12.3464 6.17373C12.5797 6.3283 12.8016 6.50868 13.0082 6.71521C13.2147 6.92174 13.3951 7.14363 13.5496 7.37694C13.631 7.4997 13.7052 7.62572 13.7724 7.75445C14.4131 8.98193 14.4131 10.4589 13.7724 11.6864C13.5776 12.0596 13.3232 12.4106 13.0082 12.7256C12.6931 13.0406 12.3421 13.2951 11.9689 13.4899C10.7414 14.1306 9.26447 14.1306 8.03698 13.4899C7.66378 13.2951 7.31276 13.0406 6.99775 12.7256C6.68273 12.4106 6.42829 12.0596 6.23349 11.6864C5.59277 10.4589 5.59277 8.98193 6.23349 7.75444C6.42829 7.38124 6.68273 7.03022 6.99775 6.71521C7.31276 6.4002 7.66378 6.14575 8.03698 5.95095C9.26447 5.31023 10.7414 5.31023 11.9689 5.95095C12.0976 6.01814 12.2237 6.09239 12.3464 6.17373Z" fill="currentColor" />
</svg>
