<svg width="20" height="20" viewBox="0 0 20 20" fill="currentColor" xmlns="http://www.w3.org/2000/svg">
  <path d="M10.6783 1H8.10558C6.6432 0.999984 5.46901 0.999971 4.54646 1.12412C3.59046 1.25277 2.79236 1.52707 2.15946 2.16054C1.52657 2.79401 1.25253 3.5928 1.124 4.54964C0.999971 5.47302 0.999984 6.64825 1 8.11197V11.888C0.999984 13.3517 0.999971 14.527 1.124 15.4504C1.25253 16.4072 1.52657 17.206 2.15946 17.8395C2.79236 18.4729 3.59046 18.7472 4.54646 18.8759C5.46902 19 6.6432 19 8.10559 19H10.6783C12.8647 19 14.637 17.226 14.637 15.0379C14.637 14.6202 14.2986 14.2814 13.8812 14.2814C13.4637 14.2814 13.1254 14.6202 13.1254 15.0379C13.1254 16.3906 12.0297 17.4872 10.6783 17.4872H8.16165C6.63038 17.4872 5.55801 17.4855 4.74789 17.3765C3.95955 17.2704 3.53362 17.0753 3.22837 16.7698C2.92312 16.4642 2.72812 16.0379 2.62213 15.2488C2.51321 14.4379 2.5116 13.3646 2.5116 11.8319V8.1681C2.5116 6.63544 2.51321 5.56208 2.62213 4.75121C2.72812 3.96212 2.92312 3.53577 3.22837 3.23024C3.53362 2.92472 3.95955 2.72956 4.74789 2.62347C5.55801 2.51446 6.63038 2.51285 8.16165 2.51285H10.6783C12.0297 2.51285 13.1254 3.60938 13.1254 4.96215C13.1254 5.37985 13.4637 5.71857 13.8812 5.71857C14.2986 5.71857 14.637 5.37985 14.637 4.96215C14.637 2.77398 12.8647 1 10.6783 1Z" fill="currentColor" />
  <path d="M12.5816 7.15533C12.2844 6.86198 11.8058 6.86536 11.5127 7.16287L9.22491 9.48525C9.08417 9.62812 9.00591 9.82109 9.00733 10.0217C9.00876 10.2223 9.08974 10.4141 9.2325 10.555L11.5203 12.8123C11.8176 13.1057 12.2961 13.1022 12.5892 12.8047C12.8822 12.5072 12.8788 12.0283 12.5815 11.735L11.6063 10.7728L18.2442 10.7729C18.6617 10.7729 19 10.4342 19 10.0165C19 9.59875 18.6617 9.26003 18.2442 9.26002L11.5696 9.25992L12.5891 8.225C12.8822 7.92753 12.8788 7.44863 12.5816 7.15533Z" fill="currentColor" />
</svg>
