<svg width="21" height="20" viewBox="0 0 21 20" fill="currentColor" xmlns="http://www.w3.org/2000/svg">
  <path fill-rule="evenodd" d="M4.53631 6.9273C4.75393 6.57142 5.22436 6.45603 5.58705 6.66955L5.9644 6.89171C7.12942 7.57759 7.9551 8.06265 8.64697 8.38181C9.32314 8.69372 9.81444 8.819 10.2987 8.819C10.783 8.819 11.2743 8.69373 11.9504 8.38181C12.6423 8.06265 13.468 7.57759 14.633 6.89171L15.0103 6.66955C15.373 6.45603 15.8435 6.57142 16.0611 6.9273C16.2787 7.28318 16.1611 7.74477 15.7984 7.9583L15.3861 8.20104C14.2639 8.86172 13.3723 9.38664 12.6021 9.74193C11.8082 10.1081 11.0872 10.3219 10.2987 10.3219C9.51018 10.3219 8.78917 10.1081 7.9953 9.74193C7.22511 9.38664 6.33352 8.86173 5.21131 8.20104L4.799 7.9583C4.43631 7.74477 4.3187 7.28318 4.53631 6.9273Z" fill="currentColor" />
  <path fill-rule="evenodd" d="M8.40592 2H12.1915C13.7009 1.99999 14.8969 1.99998 15.8479 2.10214C16.8231 2.2069 17.6322 2.42646 18.3258 2.92793C18.7178 3.21141 19.0641 3.5512 19.353 3.93588C19.8641 4.61638 20.0878 5.41029 20.1946 6.36722C20.2987 7.30037 20.2987 8.47384 20.2987 9.95493V10.0451C20.2987 11.5262 20.2987 12.6996 20.1946 13.6328C20.0878 14.5897 19.8641 15.3836 19.353 16.0641C19.0641 16.4488 18.7178 16.7886 18.3258 17.0721C17.6322 17.5735 16.8231 17.7931 15.8479 17.8979C14.8969 18 13.7009 18 12.1915 18H8.40594C6.89649 18 5.70055 18 4.74954 17.8979C3.77429 17.7931 2.96518 17.5735 2.27165 17.0721C1.87961 16.7886 1.53331 16.4488 1.24441 16.0641C0.733336 15.3836 0.509572 14.5897 0.402803 13.6328C0.298687 12.6996 0.298696 11.5262 0.298706 10.0451V9.95491C0.298696 8.47383 0.298687 7.30036 0.402803 6.36722C0.509572 5.41029 0.733336 4.61638 1.24441 3.93588C1.53331 3.5512 1.87961 3.21141 2.27165 2.92793C2.96518 2.42646 3.77429 2.2069 4.74954 2.10214C5.70055 1.99998 6.89648 1.99999 8.40592 2ZM4.91623 3.59614C4.07291 3.68673 3.56748 3.85788 3.18032 4.13783C2.91208 4.33179 2.67514 4.56428 2.47747 4.82748C2.19216 5.20737 2.01773 5.7033 1.92541 6.53078C1.83148 7.37259 1.83041 8.46376 1.83041 10C1.83041 11.5362 1.83148 12.6274 1.92541 13.4692C2.01773 14.2967 2.19216 14.7926 2.47747 15.1725C2.67514 15.4357 2.91208 15.6682 3.18032 15.8622C3.56748 16.1421 4.07291 16.3133 4.91623 16.4039C5.77416 16.496 6.88622 16.4971 8.45187 16.4971H12.1455C13.7112 16.4971 14.8232 16.496 15.6812 16.4039C16.5245 16.3133 17.0299 16.1421 17.4171 15.8622C17.6853 15.6682 17.9223 15.4357 18.1199 15.1725C18.4053 14.7926 18.5797 14.2967 18.672 13.4692C18.7659 12.6274 18.767 11.5362 18.767 10C18.767 8.46376 18.7659 7.37259 18.672 6.53078C18.5797 5.7033 18.4053 5.20737 18.1199 4.82748C17.9223 4.56428 17.6853 4.33179 17.4171 4.13783C17.0299 3.85788 16.5245 3.68673 15.6812 3.59614C14.8232 3.50398 13.7112 3.50293 12.1455 3.50293H8.45187C6.88622 3.50293 5.77416 3.50398 4.91623 3.59614Z" fill="currentColor" />
</svg>
