<svg width="20" height="20" viewBox="0 0 20 20" fill="currentColor" xmlns="http://www.w3.org/2000/svg">
  <path fill-rule="evenodd" d="M10.0321 6.8299e-08H9.96789C8.72051 -4.18342e-06 7.74035 -7.57724e-06 6.95209 0.0655764C6.14869 0.13242 5.48164 0.271018 4.87676 0.584869C3.88527 1.09932 3.07927 1.92014 2.57419 2.92959C2.26609 3.54535 2.13002 4.2244 2.06439 5.0424C1.99999 5.84503 2 6.84309 2 8.1134V11.8866C2 13.1569 1.99999 14.155 2.06439 14.9576C2.13002 15.7756 2.26609 16.4547 2.57419 17.0704C3.07927 18.0799 3.88527 18.9007 4.87676 19.4151C5.48164 19.729 6.14869 19.8676 6.95209 19.9344C7.74032 20 8.72042 20 9.96772 20H10.0322C11.2795 20 12.2597 20 13.0479 19.9344C13.8513 19.8676 14.5184 19.729 15.1232 19.4151C16.1147 18.9007 16.9207 18.0799 17.4258 17.0704C17.7339 16.4547 17.87 15.7756 17.9356 14.9576C18 14.155 18 13.1569 18 11.8867V8.11339C18 6.84311 18 5.84502 17.9356 5.0424C17.87 4.2244 17.7339 3.54535 17.4258 2.92959C16.9207 1.92014 16.1147 1.09932 15.1232 0.584869C14.5184 0.271018 13.8513 0.13242 13.0479 0.0655764C12.2596 -7.57724e-06 11.2795 -4.18342e-06 10.0321 6.8299e-08ZM7.06906 1.52096C7.792 1.46081 8.7136 1.46024 10 1.46024C11.2864 1.46024 12.208 1.46081 12.9309 1.52096C13.6455 1.58041 14.1025 1.6944 14.4713 1.88573C15.1926 2.26001 15.7792 2.8573 16.1469 3.59209C16.3349 3.96779 16.4468 4.43342 16.5052 5.16121C16.5643 5.8975 16.5649 6.83607 16.5649 8.14602V11.854C16.5649 13.1639 16.5643 14.1025 16.5052 14.8388C16.4468 15.5666 16.3349 16.0322 16.1469 16.4079C15.7792 17.1427 15.1926 17.74 14.4713 18.1143C14.1025 18.3056 13.6455 18.4196 12.9309 18.479C12.208 18.5392 11.2864 18.5398 10 18.5398C8.7136 18.5398 7.792 18.5392 7.06906 18.479C6.3545 18.4196 5.89747 18.3056 5.52874 18.1143C4.80738 17.74 4.22079 17.1427 3.85313 16.4079C3.66515 16.0322 3.55317 15.5666 3.49478 14.8388C3.43571 14.1025 3.43515 13.1639 3.43515 11.854V8.14602C3.43515 6.83607 3.43571 5.8975 3.49478 5.16121C3.55317 4.43342 3.66515 3.96779 3.85313 3.59209C4.22079 2.8573 4.80738 2.26001 5.52874 1.88573C5.89747 1.6944 6.3545 1.58041 7.06906 1.52096Z" fill="currentColor" />
  <path fill-rule="evenodd" d="M10 4.25C10.4142 4.25 10.75 4.58579 10.75 5V8C10.75 8.41421 10.4142 8.75 10 8.75C9.58579 8.75 9.25 8.41421 9.25 8V5C9.25 4.58579 9.58579 4.25 10 4.25Z" fill="currentColor" />
</svg>
