<svg width="20" height="20" viewBox="0 0 20 20" fill="currentColor" xmlns="http://www.w3.org/2000/svg">
  <path fill-rule="evenodd" d="M6.82119 1.32705C5.9973 0.885147 5.00139 0.891543 4.17269 1.34331C3.81232 1.53977 3.49079 1.8617 3.07493 2.27807L2.92338 2.42967C2.28876 3.06405 1.86893 3.48372 1.56819 4.01019C0.910968 5.16071 0.814224 6.75085 1.32853 7.95865C1.56379 8.51113 1.89467 8.92431 2.39021 9.54308L2.45826 9.62808C3.47196 10.8944 4.74806 12.4884 6.18449 13.9249C7.5292 15.2696 8.91751 16.3792 10.1268 17.3457L10.4569 17.6098C11.0757 18.1053 11.4889 18.4362 12.0413 18.6715C13.2492 19.1858 14.8393 19.089 15.9898 18.4318C16.5163 18.1311 16.9359 17.7113 17.5703 17.0767L17.7219 16.9251C18.1383 16.5092 18.4602 16.1877 18.6567 15.8273C19.1085 14.9986 19.1149 14.0027 18.6729 13.1788C18.4808 12.8206 18.1626 12.5028 17.7516 12.0923L16.759 11.0998C16.7171 11.0578 16.6832 11.024 16.6501 10.9931C15.8541 10.2514 14.6733 10.0936 13.6963 10.5971C13.6556 10.6181 13.6128 10.6421 13.5602 10.6715L13.5507 10.6769C13.4648 10.7249 13.4364 10.7408 13.4112 10.7538C12.7469 11.0994 11.9509 11.0497 11.3448 10.6257C11.3219 10.6097 11.296 10.5905 11.2181 10.5322L11.0884 10.4353C10.9651 10.3432 10.9118 10.3033 10.86 10.2629C10.4411 9.93602 10.064 9.55896 9.73711 9.13999C9.69673 9.08824 9.65684 9.03492 9.56467 8.91157L9.46778 8.78191C9.40953 8.70396 9.39035 8.67815 9.37431 8.65522C8.95035 8.04913 8.90061 7.25306 9.24617 6.5888C9.25925 6.56366 9.27509 6.5352 9.32315 6.44935L9.32893 6.43903C9.35829 6.38659 9.38195 6.34435 9.40291 6.30366C9.90646 5.32672 9.74866 4.14587 9.00691 3.3499C8.97602 3.31676 8.94156 3.28231 8.89957 3.24032L7.90777 2.24846C7.49724 1.8374 7.17945 1.51921 6.82119 1.32705ZM4.88819 2.67529C5.26522 2.46975 5.71767 2.46716 6.09144 2.66763C6.15819 2.70344 6.23057 2.75654 6.35312 2.86805C6.4758 2.97969 6.64554 3.14682 6.90716 3.40844L7.8116 4.31288C7.86583 4.36711 7.87954 4.38099 7.89008 4.39229C8.19773 4.72243 8.26384 5.213 8.05419 5.61975C8.04701 5.63368 8.03744 5.651 7.99955 5.71868L7.99373 5.72908C7.95374 5.80049 7.92553 5.85088 7.90013 5.89971C7.29278 7.06719 7.37951 8.4679 8.12623 9.53539C8.15742 9.57997 8.19157 9.62568 8.23991 9.69035L8.3495 9.83701C8.43478 9.95114 8.48433 10.0174 8.53537 10.0829C8.9376 10.5984 9.4016 11.0624 9.91715 11.4646C9.98252 11.5156 10.0492 11.5655 10.1632 11.6507L10.3088 11.7594L10.3096 11.76C10.3743 11.8084 10.42 11.8426 10.4646 11.8738C11.5321 12.6205 12.9328 12.7072 14.1003 12.0999C14.1491 12.0745 14.2003 12.0458 14.2717 12.0059L14.2813 12.0005C14.349 11.9626 14.3663 11.953 14.3802 11.9458C14.787 11.7362 15.2776 11.8023 15.6077 12.1099C15.619 12.1205 15.6329 12.1342 15.6871 12.1884L16.5916 13.0929C16.8532 13.3545 17.0203 13.5242 17.1319 13.6469C17.2435 13.7694 17.2966 13.8418 17.3324 13.9086C17.5328 14.2823 17.5302 14.7348 17.3247 15.1118C17.2879 15.1793 17.2338 15.2525 17.1207 15.3765C17.0075 15.5006 16.8382 15.6725 16.5733 15.9374C15.8438 16.6669 15.5732 16.9287 15.2476 17.1148C14.5116 17.5352 13.4213 17.6012 12.6498 17.2727C12.3063 17.1264 12.052 16.93 11.3521 16.3697C10.1101 15.3754 8.65967 14.1302 7.26475 12.7353C5.86983 11.3403 4.62457 9.88992 3.63034 8.64796C3.07 7.94801 2.87359 7.69371 2.72731 7.35017C2.39878 6.57866 2.46483 5.4884 2.88523 4.75245C3.07125 4.4268 3.33312 4.15624 4.06264 3.42672C4.32752 3.16184 4.49939 2.99253 4.62352 2.87932C4.74753 2.76622 4.82075 2.71206 4.88819 2.67529Z" fill="currentColor" />
</svg>
