<svg width="20" height="20" viewBox="0 0 20 20" fill="currentColor" xmlns="http://www.w3.org/2000/svg">
  <path fill-rule="evenodd" d="M10.3205 2.51579C12.7291 2.51579 14.8735 3.64834 16.2466 5.41076L13.4391 5.20209C13.0208 5.171 12.6563 5.48417 12.6252 5.90159C12.594 6.31901 12.9079 6.6826 13.3263 6.7137L17.6367 7.03408C17.84 7.04919 18.0408 6.98217 18.194 6.84808C18.3473 6.714 18.4401 6.5241 18.4516 6.32107L18.6988 1.95857C18.7225 1.54067 18.4021 1.18273 17.9833 1.1591C17.5644 1.13547 17.2057 1.4551 17.182 1.87301L17.0604 4.01846C15.4087 2.16716 13.0016 1 10.3205 1C5.33862 1 1.30003 5.02944 1.30003 10C1.30003 14.9706 5.33862 19 10.3205 19C12.5159 19 14.5299 18.2165 16.094 16.9153C16.4162 16.6472 16.4596 16.1693 16.1909 15.8478C15.9223 15.5264 15.4433 15.4831 15.1211 15.7511C13.8199 16.8336 12.1473 17.4842 10.3205 17.4842C6.17767 17.4842 2.81926 14.1334 2.81926 10C2.81926 5.86658 6.17767 2.51579 10.3205 2.51579Z" fill="currentColor" />
</svg>
