<svg width="20" height="20" viewBox="0 0 20 20" fill="currentColor" xmlns="http://www.w3.org/2000/svg">
  <path fill-rule="evenodd" d="M1 10C1 6.25027 1 4.3754 1.95491 3.06107C2.26331 2.6366 2.6366 2.26331 3.06107 1.95491C4.3754 1 6.25027 1 10 1C13.7497 1 15.6246 1 16.9389 1.95491C17.3634 2.26331 17.7367 2.6366 18.0451 3.06107C19 4.3754 19 6.25027 19 10C19 13.7497 19 15.6246 18.0451 16.9389C17.7367 17.3634 17.3634 17.7367 16.9389 18.0451C15.6246 19 13.7497 19 10 19C6.25027 19 4.3754 19 3.06107 18.0451C2.6366 17.7367 2.26331 17.3634 1.95491 16.9389C1 15.6246 1 13.7497 1 10ZM10 17.5C8.09172 17.5 6.781 17.4979 5.77883 17.3894C4.80473 17.2838 4.3016 17.0923 3.94275 16.8316C3.64562 16.6157 3.38432 16.3544 3.16844 16.0572C2.90772 15.6984 2.71617 15.1953 2.61064 14.2212C2.50206 13.219 2.5 11.9083 2.5 10C2.5 8.09172 2.50206 6.781 2.61064 5.77883C2.71617 4.80473 2.90772 4.3016 3.16844 3.94275C3.38432 3.64562 3.64562 3.38432 3.94275 3.16844C4.3016 2.90772 4.80473 2.71617 5.77883 2.61064C6.781 2.50206 8.09172 2.5 10 2.5C10.2563 2.5 10.5019 2.50004 10.7373 2.50036L10.7373 17.4996C10.5019 17.5 10.2563 17.5 10 17.5ZM12.2373 17.4893C13.0242 17.4766 13.6695 17.4491 14.2212 17.3894C15.1953 17.2838 15.6984 17.0923 16.0572 16.8316C16.3544 16.6157 16.6157 16.3544 16.8316 16.0572C17.0923 15.6984 17.2838 15.1953 17.3894 14.2212C17.4979 13.219 17.5 11.9083 17.5 10C17.5 8.09172 17.4979 6.781 17.3894 5.77883C17.2838 4.80473 17.0923 4.3016 16.8316 3.94275C16.6157 3.64562 16.3544 3.38432 16.0572 3.16844C15.6984 2.90772 15.1953 2.71617 14.2212 2.61064C13.6695 2.55086 13.0242 2.52337 12.2373 2.51073L12.2373 17.4893Z" fill="currentColor" />
</svg>
