<svg width="20" height="20" viewBox="0 0 20 20" fill="currentColor" xmlns="http://www.w3.org/2000/svg">
  <path fill-rule="evenodd" d="M14.5235 12.5371C14.2269 12.8262 13.7521 12.8201 13.4629 12.5235L11.4629 10.4717C11.3241 10.3293 11.2475 10.1375 11.2501 9.93852C11.2526 9.73958 11.3341 9.54982 11.4767 9.41099L13.4766 7.46279C13.7733 7.17376 14.2482 7.17999 14.5372 7.4767C14.8262 7.77341 14.82 8.24824 14.5233 8.53727L13.0607 9.96196L14.5371 11.4765C14.8262 11.7731 14.8201 12.2479 14.5235 12.5371Z" fill="currentColor" />
  <path fill-rule="evenodd" d="M19 9.89819C19 6.14846 19 4.2736 18.0451 2.95927C17.7367 2.53479 17.3634 2.16151 16.9389 1.85311C15.6246 0.898193 13.7497 0.898193 10 0.898193C6.25027 0.898193 4.3754 0.898193 3.06107 1.85311C2.6366 2.16151 2.26331 2.53479 1.95491 2.95927C1 4.2736 1 6.14846 1 9.89819C1 13.6479 1 15.5228 1.95491 16.8371C2.26331 17.2616 2.6366 17.6349 3.06107 17.9433C4.3754 18.8982 6.25027 18.8982 10 18.8982C13.7497 18.8982 15.6246 18.8982 16.9389 17.9433C17.3634 17.6349 17.7367 17.2616 18.0451 16.8371C19 15.5228 19 13.6479 19 9.89819ZM10 17.3982C11.9083 17.3982 13.219 17.3961 14.2212 17.2876C15.1953 17.182 15.6984 16.9905 16.0572 16.7298C16.3544 16.5139 16.6157 16.2526 16.8316 15.9554C17.0923 15.5966 17.2838 15.0935 17.3894 14.1194C17.4979 13.1172 17.5 11.8065 17.5 9.89819C17.5 7.98991 17.4979 6.67919 17.3894 5.67702C17.2838 4.70292 17.0923 4.19979 16.8316 3.84095C16.6157 3.54381 16.3544 3.28251 16.0572 3.06663C15.6984 2.80592 15.1953 2.61437 14.2212 2.50883C13.219 2.40025 11.9083 2.39819 10 2.39819C9.74368 2.39819 9.49815 2.39823 9.2627 2.39856L9.26269 17.3978C9.49815 17.3982 9.74368 17.3982 10 17.3982ZM7.76269 17.3875L7.7627 2.40893C6.97575 2.42157 6.33054 2.44906 5.77883 2.50883C4.80473 2.61437 4.3016 2.80592 3.94275 3.06663C3.64562 3.28251 3.38432 3.54381 3.16844 3.84095C2.90772 4.19979 2.71618 4.70292 2.61064 5.67702C2.50206 6.67919 2.5 7.98991 2.5 9.89819C2.5 11.8065 2.50206 13.1172 2.61064 14.1194C2.71618 15.0935 2.90772 15.5966 3.16844 15.9554C3.38432 16.2526 3.64562 16.5139 3.94275 16.7298C4.3016 16.9905 4.80473 17.182 5.77883 17.2876C6.33054 17.3473 6.97575 17.3748 7.76269 17.3875Z" fill="currentColor" />
</svg>
