<svg width="20" height="20" viewBox="0 0 20 20" fill="currentColor" xmlns="http://www.w3.org/2000/svg">
  <path d="M10 6.64361C9.55062 6.64361 9.18633 7.0079 9.18633 7.45728V11.4264C9.18633 11.8758 9.55062 12.2401 10 12.2401C10.4494 12.2401 10.8137 11.8758 10.8137 11.4264V7.45728C10.8137 7.0079 10.4494 6.64361 10 6.64361Z" fill="currentColor" />
  <path fill-rule="evenodd" d="M10 1C8.92528 1 8.15213 1.69932 7.48284 2.63818C6.82044 3.56737 6.11953 4.93307 5.23843 6.64988L3.01713 10.978C2.24279 12.4867 1.62215 13.6959 1.28919 14.6719C0.948766 15.6698 0.838563 16.6216 1.35089 17.4858C1.86349 18.3504 2.74165 18.6928 3.7664 18.8482C4.76825 19 6.10597 19 7.77446 19H12.2255C13.894 19 15.2317 19 16.2336 18.8482C17.2584 18.6928 18.1365 18.3504 18.6491 17.4858C19.1614 16.6216 19.0512 15.6698 18.7108 14.6719C18.3779 13.6959 17.7572 12.4867 16.9829 10.978L14.7616 6.64994C13.8805 4.93311 13.1796 3.56738 12.5172 2.63818C11.8479 1.69932 11.0747 1 10 1ZM8.68469 3.52729C9.27568 2.69826 9.66236 2.51309 10 2.51309C10.3376 2.51309 10.7243 2.69826 11.3153 3.52729C11.9057 4.35543 12.5573 5.62076 13.4765 7.41183L15.6362 11.6198C16.4478 13.2011 17.0153 14.3113 17.3078 15.1686C17.597 16.0165 17.5465 16.4187 17.3777 16.7035C17.2091 16.9879 16.8844 17.2197 16.015 17.3516C15.1354 17.4849 13.9089 17.4869 12.1596 17.4869H7.84035C6.09111 17.4869 4.86458 17.4849 3.98505 17.3516C3.11564 17.2197 2.79092 16.9879 2.62234 16.7035C2.45347 16.4187 2.40296 16.0165 2.69221 15.1686C2.9847 14.3113 3.55222 13.2011 4.36382 11.6198L6.52347 7.41183C7.4427 5.62076 8.09433 4.35543 8.68469 3.52729Z" fill="currentColor" />
  <path d="M11 14.4375C11 14.9898 10.5523 15.4375 10 15.4375C9.44771 15.4375 9 14.9898 9 14.4375C9 13.8852 9.44771 13.4375 10 13.4375C10.5523 13.4375 11 13.8852 11 14.4375Z" fill="currentColor" />
</svg>
