<svg width="20" height="20" viewBox="0 0 20 20" fill="currentColor" xmlns="http://www.w3.org/2000/svg">
  <path fill-rule="evenodd" d="M17.3147 1.56538C16.5608 0.811541 15.3386 0.811541 14.5848 1.56538L1.56538 14.5848C0.811541 15.3386 0.811541 16.5608 1.56538 17.3147L2.68533 18.4346C3.43916 19.1885 4.66137 19.1885 5.4152 18.4346L18.4346 5.4152C19.1885 4.66137 19.1885 3.43916 18.4346 2.68533L17.3147 1.56538ZM14.5498 7.20012L17.3847 4.36525C17.5586 4.19129 17.5586 3.90924 17.3847 3.73528L16.2647 2.61533C16.0908 2.44137 15.8087 2.44137 15.6347 2.61533L12.7999 5.4502L14.5498 7.20012ZM11.7499 6.50016L13.4998 8.25008L4.36525 17.3847C4.19129 17.5586 3.90924 17.5586 3.73528 17.3847L2.61533 16.2647C2.44137 16.0908 2.44137 15.8087 2.61533 15.6347L11.7499 6.50016Z" fill="currentColor" />
  <path d="M10.5465 2.35212L11.5028 2.75055C11.6652 2.81824 11.6652 3.04837 11.5028 3.11606L10.5465 3.51449C10.4898 3.53814 10.4472 3.58681 10.4314 3.64623L10.1528 4.69071C10.1006 4.88666 9.82251 4.88666 9.77026 4.69071L9.49173 3.64623C9.47588 3.58681 9.43333 3.53814 9.37658 3.51449L8.42034 3.11606C8.2579 3.04837 8.2579 2.81824 8.42034 2.75055L9.37658 2.35212C9.43333 2.32847 9.47588 2.27979 9.49173 2.22038L9.77026 1.1759C9.82251 0.979943 10.1006 0.979944 10.1528 1.1759L10.4314 2.22038C10.4472 2.27979 10.4898 2.32847 10.5465 2.35212Z" fill="currentColor" />
  <path d="M6.99383 3.70272L8.3048 4.24253C8.55 4.34349 8.55 4.69077 8.3048 4.79174L6.99383 5.33155C6.91402 5.36441 6.85246 5.43037 6.82516 5.51224L6.28371 7.13661C6.19346 7.40735 5.8105 7.40735 5.72025 7.13661L5.17879 5.51224C5.1515 5.43036 5.08994 5.36441 5.01013 5.33155L3.69916 4.79174C3.45396 4.69077 3.45396 4.34349 3.69916 4.24253L5.01013 3.70272C5.08994 3.66986 5.1515 3.6039 5.17879 3.52202L5.72025 1.89766C5.8105 1.62691 6.19346 1.62691 6.28371 1.89766L6.82516 3.52202C6.85246 3.6039 6.91402 3.66986 6.99383 3.70272Z" fill="currentColor" />
  <path d="M18.7438 14.6391L16.6557 13.7255C16.5803 13.6925 16.5219 13.6296 16.4946 13.552L15.6863 11.2533C15.5932 10.9887 15.219 10.9887 15.1259 11.2533L14.3176 13.552C14.2903 13.6296 14.2319 13.6925 14.1565 13.7255L12.0684 14.6391C11.8311 14.7429 11.8311 15.0794 12.0684 15.1832L14.1565 16.0968C14.2319 16.1298 14.2903 16.1926 14.3176 16.2703L15.1259 18.569C15.219 18.8336 15.5932 18.8336 15.6863 18.569L16.4946 16.2703C16.5219 16.1926 16.5803 16.1298 16.6557 16.0968L18.7438 15.1832C18.9811 15.0794 18.9811 14.7429 18.7438 14.6391Z" fill="currentColor" />
</svg>
