<svg width="20" height="20" viewBox="0 0 20 20" fill="currentColor" xmlns="http://www.w3.org/2000/svg">
  <path d="M5.05024 13.8891C4.75734 14.182 4.75734 14.6569 5.05024 14.9498C5.34313 15.2427 5.818 15.2427 6.1109 14.9498L10 11.0606L13.8891 14.9498C14.182 15.2427 14.6569 15.2427 14.9498 14.9498C15.2427 14.6569 15.2427 14.182 14.9498 13.8891L11.0607 9.99999L14.9497 6.11093C15.2426 5.81803 15.2426 5.34316 14.9497 5.05027C14.6568 4.75737 14.182 4.75737 13.8891 5.05027L10 8.93933L6.11095 5.05027C5.81805 4.75737 5.34318 4.75737 5.05029 5.05027C4.75739 5.34316 4.75739 5.81803 5.05029 6.11093L8.93935 9.99999L5.05024 13.8891Z" fill="currentColor" />
</svg>
